<?xml version="1.0" encoding="UTF-8" standalone="no"?>
<!-- Created with Inkscape (http://www.inkscape.org/) -->

<svg
   xmlns:ns0="http://www.iki.fi/pav/software/textext/"
   xmlns:dc="http://purl.org/dc/elements/1.1/"
   xmlns:cc="http://creativecommons.org/ns#"
   xmlns:rdf="http://www.w3.org/1999/02/22-rdf-syntax-ns#"
   xmlns:svg="http://www.w3.org/2000/svg"
   xmlns="http://www.w3.org/2000/svg"
   xmlns:sodipodi="http://sodipodi.sourceforge.net/DTD/sodipodi-0.dtd"
   xmlns:inkscape="http://www.inkscape.org/namespaces/inkscape"
   width="469.01236"
   height="207.87715"
   id="svg2"
   version="1.1"
   inkscape:version="0.48.4 r9939"
   sodipodi:docname="New document 28">
  <sodipodi:namedview
     id="base"
     pagecolor="#ffffff"
     bordercolor="#666666"
     borderopacity="1.0"
     inkscape:pageopacity="0.0"
     inkscape:pageshadow="2"
     inkscape:zoom="1.4"
     inkscape:cx="289.82003"
     inkscape:cy="97.087759"
     inkscape:document-units="px"
     inkscape:current-layer="layer1"
     showgrid="true"
     units="in"
     width="11cm"
     inkscape:window-width="1274"
     inkscape:window-height="551"
     inkscape:window-x="0"
     inkscape:window-y="413"
     inkscape:window-maximized="0"
     fit-margin-top="0"
     fit-margin-left="0"
     fit-margin-right="0"
     fit-margin-bottom="0"
     inkscape:snap-grids="false">
    <inkscape:grid
       spacingy="2px"
       spacingx="2px"
       snapvisiblegridlinesonly="true"
       enabled="true"
       visible="true"
       empspacing="5"
       id="grid2984"
       type="xygrid"
       originx="-69.498828px"
       originy="-118.89874px" />
  </sodipodi:namedview>
  <defs
     id="defs4">
    <marker
       style="overflow:visible"
       id="Arrow2Lstart"
       refX="0"
       refY="0"
       orient="auto"
       inkscape:stockid="Arrow2Lstart">
      <path
         transform="matrix(1.1,0,0,1.1,1.1,0)"
         d="M 8.7185878,4.0337352 -2.2072895,0.01601326 8.7185884,-4.0017078 c -1.7454984,2.3720609 -1.7354408,5.6174519 -6e-7,8.035443 z"
         style="fill-rule:evenodd;stroke-width:0.625;stroke-linejoin:round"
         id="path4848"
         inkscape:connector-curvature="0" />
    </marker>
    <marker
       style="overflow:visible"
       id="Arrow2Lend"
       refX="0"
       refY="0"
       orient="auto"
       inkscape:stockid="Arrow2Lend">
      <path
         transform="matrix(-1.1,0,0,-1.1,-1.1,0)"
         d="M 8.7185878,4.0337352 -2.2072895,0.01601326 8.7185884,-4.0017078 c -1.7454984,2.3720609 -1.7354408,5.6174519 -6e-7,8.035443 z"
         style="fill-rule:evenodd;stroke-width:0.625;stroke-linejoin:round"
         id="path4851"
         inkscape:connector-curvature="0" />
    </marker>
    <marker
       inkscape:stockid="Arrow2Mend"
       orient="auto"
       refY="0"
       refX="0"
       id="Arrow2Mend"
       style="overflow:visible">
      <path
         inkscape:connector-curvature="0"
         id="path3966"
         style="fill-rule:evenodd;stroke-width:0.625;stroke-linejoin:round"
         d="M 8.7185878,4.0337352 -2.2072895,0.01601326 8.7185884,-4.0017078 c -1.7454984,2.3720609 -1.7354408,5.6174519 -6e-7,8.035443 z"
         transform="scale(-0.6,-0.6)" />
    </marker>
  </defs>
  <metadata
     id="metadata7">
    <rdf:RDF>
      <cc:Work
         rdf:about="">
        <dc:format>image/svg+xml</dc:format>
        <dc:type
           rdf:resource="http://purl.org/dc/dcmitype/StillImage" />
        <dc:title></dc:title>
      </cc:Work>
    </rdf:RDF>
  </metadata>
  <g
     inkscape:label="Layer 1"
     inkscape:groupmode="layer"
     id="layer1"
     transform="translate(-6.47047,-749.27135)">
    <path
       sodipodi:open="true"
       sodipodi:end="9.3819723"
       sodipodi:start="3.1009386"
       transform="translate(-63.028358,665.51153)"
       d="m 70.06197,182.97428 c -1.683483,-33.10971 30.50268,-61.04221 71.88982,-62.389 41.38713,-1.34678 76.30276,24.40215 77.98624,57.51185 1.68348,33.10971 -30.50268,61.04221 -71.88982,62.389 -41.32417,1.34474 -76.209677,-24.3265 -77.979508,-57.38287"
       sodipodi:ry="60"
       sodipodi:rx="75"
       sodipodi:cy="180.53571"
       sodipodi:cx="145"
       id="path8552"
       style="opacity:0.91479821;fill:none;stroke:#000000;stroke-width:1;stroke-miterlimit:4;stroke-opacity:1;stroke-dasharray:none;stroke-dashoffset:0"
       sodipodi:type="arc" />
    <path
       sodipodi:open="true"
       sodipodi:end="9.3819723"
       sodipodi:start="3.1009386"
       d="m 70.06197,182.97428 c -1.683483,-33.10971 30.50268,-61.04221 71.88982,-62.389 41.38713,-1.34678 76.30276,24.40215 77.98624,57.51185 1.68348,33.10971 -30.50268,61.04221 -71.88982,62.389 -41.32417,1.34474 -76.209677,-24.3265 -77.979508,-57.38287"
       sodipodi:ry="60"
       sodipodi:rx="75"
       sodipodi:cy="180.53571"
       sodipodi:cx="145"
       id="path8552-5"
       style="opacity:0.91479821;fill:none;stroke:#000000;stroke-width:1;stroke-miterlimit:4;stroke-opacity:1;stroke-dasharray:none;stroke-dashoffset:0"
       sodipodi:type="arc"
       transform="translate(186.97164,666.22582)" />
    <text
       sodipodi:linespacing="100%"
       id="text8572"
       y="776.04724"
       x="40.543072"
       style="font-size:16px;font-style:normal;font-variant:normal;font-weight:500;font-stretch:normal;text-align:start;line-height:100%;letter-spacing:0px;word-spacing:0px;writing-mode:lr-tb;text-anchor:start;fill:#000000;fill-opacity:1;stroke:none;font-family:Rekha;-inkscape-font-specification:Rekha Medium"
       xml:space="preserve"><tspan
         y="776.04724"
         x="40.543072"
         id="tspan8574"
         sodipodi:role="line">Surroundings</tspan></text>
    <text
       sodipodi:linespacing="100%"
       id="text8572-9"
       y="776.04724"
       x="292.68594"
       style="font-size:16px;font-style:normal;font-variant:normal;font-weight:500;font-stretch:normal;text-align:start;line-height:100%;letter-spacing:0px;word-spacing:0px;writing-mode:lr-tb;text-anchor:start;fill:#000000;fill-opacity:1;stroke:none;font-family:Rekha;-inkscape-font-specification:Rekha Medium"
       xml:space="preserve"><tspan
         y="776.04724"
         x="292.68594"
         id="tspan8574-7"
         sodipodi:role="line">Surroundings</tspan></text>
    <text
       sodipodi:linespacing="100%"
       id="text8597"
       y="816.04724"
       x="56.971642"
       style="font-size:16px;font-style:normal;font-variant:normal;font-weight:500;font-stretch:normal;text-align:start;line-height:100%;letter-spacing:0px;word-spacing:0px;writing-mode:lr-tb;text-anchor:start;fill:#000000;fill-opacity:1;stroke:none;font-family:Rekha;-inkscape-font-specification:Rekha Medium"
       xml:space="preserve"><tspan
         y="816.04724"
         x="56.971642"
         id="tspan8599"
         sodipodi:role="line">System</tspan></text>
    <text
       sodipodi:linespacing="100%"
       id="text8601"
       y="854.61865"
       x="34.114498"
       style="font-size:16px;font-style:normal;font-variant:normal;font-weight:500;font-stretch:normal;text-align:start;line-height:100%;letter-spacing:0px;word-spacing:0px;writing-mode:lr-tb;text-anchor:start;fill:#000000;fill-opacity:1;stroke:none;font-family:Rekha;-inkscape-font-specification:Rekha Medium"
       xml:space="preserve"><tspan
         y="854.61865"
         x="34.114498"
         id="tspan8603"
         sodipodi:role="line">Internal Energy</tspan><tspan
         id="tspan8605"
         y="870.61865"
         x="34.114498"
         sodipodi:role="line">   U</tspan></text>
    <text
       sodipodi:linespacing="100%"
       id="text8607"
       y="816.04724"
       x="307.68594"
       style="font-size:16px;font-style:normal;font-variant:normal;font-weight:500;font-stretch:normal;text-align:start;line-height:100%;letter-spacing:0px;word-spacing:0px;writing-mode:lr-tb;text-anchor:start;fill:#000000;fill-opacity:1;stroke:none;font-family:Rekha;-inkscape-font-specification:Rekha Medium"
       xml:space="preserve"><tspan
         y="816.04724"
         x="307.68594"
         id="tspan8609"
         sodipodi:role="line">System</tspan></text>
    <text
       sodipodi:linespacing="100%"
       id="text8611"
       y="846.76154"
       x="329.11447"
       style="font-size:16px;font-style:normal;font-variant:normal;font-weight:500;font-stretch:normal;text-align:start;line-height:100%;letter-spacing:0px;word-spacing:0px;writing-mode:lr-tb;text-anchor:start;fill:#000000;fill-opacity:1;stroke:none;font-family:Rekha;-inkscape-font-specification:Rekha Medium"
       xml:space="preserve"><tspan
         y="846.76154"
         x="329.11447"
         id="tspan8613"
         sodipodi:role="line">dU</tspan></text>
    <path
       transform="translate(-63.028358,665.51153)"
       inkscape:connector-curvature="0"
       id="path8615"
       d="m 445.71429,153.39285 38.57142,-51.42857"
       style="fill:none;stroke:#000000;stroke-width:1px;stroke-linecap:butt;stroke-linejoin:miter;stroke-opacity:1;marker-start:url(#Arrow2Lstart);marker-end:none" />
    <path
       transform="translate(-63.028358,665.51153)"
       inkscape:connector-curvature="0"
       id="path8617"
       d="m 427.85714,209.82142 35.71429,60"
       style="fill:none;stroke:#000000;stroke-width:1px;stroke-linecap:butt;stroke-linejoin:miter;stroke-opacity:1;marker-start:url(#Arrow2Lstart);marker-end:none"
       sodipodi:nodetypes="cc" />
    <path
       transform="translate(-63.028358,665.51153)"
       inkscape:connector-curvature="0"
       id="path8619"
       d="m 365,210.5357 -55.71429,40.00001"
       style="fill:none;stroke:#000000;stroke-width:1px;stroke-linecap:butt;stroke-linejoin:miter;stroke-opacity:1;marker-start:url(#Arrow2Lstart);marker-end:none"
       sodipodi:nodetypes="cc" />
    <text
       sodipodi:linespacing="100%"
       id="text9693"
       y="798.90436"
       x="427.68594"
       style="font-size:16px;font-style:normal;font-variant:normal;font-weight:500;font-stretch:normal;text-align:start;line-height:100%;letter-spacing:0px;word-spacing:0px;writing-mode:lr-tb;text-anchor:start;fill:#000000;fill-opacity:1;stroke:none;font-family:Rekha;-inkscape-font-specification:Rekha Medium"
       xml:space="preserve"><tspan
         style="fill:#ff0000"
         y="798.90436"
         x="427.68594"
         id="tspan9695"
         sodipodi:role="line">transfer</tspan></text>
    <g
       ns0:preamble=""
       ns0:text="$\\mathrm{\\delta Q}$"
       word-spacing="normal"
       letter-spacing="normal"
       font-size-adjust="none"
       font-stretch="normal"
       font-weight="normal"
       font-variant="normal"
       font-style="normal"
       stroke-miterlimit="10.433"
       xml:space="preserve"
       transform="matrix(1.6761741,0,0,-1.6761741,56.495577,1862.7538)"
       id="content"
       style="font-style:normal;font-variant:normal;font-weight:normal;font-stretch:normal;letter-spacing:normal;word-spacing:normal;text-anchor:start;fill:none;stroke:#000000;stroke-linecap:butt;stroke-linejoin:miter;stroke-miterlimit:10.43299961;stroke-opacity:1;stroke-dasharray:none;stroke-dashoffset:0"><path
         id="path9730"
         d="m 226.06,661.58 -0.12,-0.03 -0.11,-0.04 -0.11,-0.04 -0.11,-0.05 -0.11,-0.05 -0.11,-0.06 -0.1,-0.06 -0.1,-0.07 -0.1,-0.07 -0.09,-0.07 -0.1,-0.08 -0.09,-0.08 -0.08,-0.09 -0.09,-0.08 -0.08,-0.1 -0.07,-0.09 -0.07,-0.1 -0.07,-0.1 -0.07,-0.1 -0.06,-0.1 -0.06,-0.11 -0.05,-0.11 -0.05,-0.1 -0.04,-0.11 -0.04,-0.11 -0.03,-0.12 -0.03,-0.11 -0.03,-0.11 -0.02,-0.12 -0.01,-0.11 -0.01,-0.11 0,-0.12 c 0,-0.95 0.64,-1.66 1.57,-1.66 v 0.21 c -0.54,0 -0.95,0.42 -0.95,1.18 0,0.62 0.37,2.49 1.71,2.85 h 0 c 0.25,-0.46 0.55,-1 0.55,-1.71 0,-0.66 -0.38,-2.32 -1.31,-2.32 v -0.21 c 1.17,0 1.99,1.55 1.99,2.93 0,0.9 -0.4,1.4 -0.73,1.84 -0.36,0.45 -0.95,1.2 -0.95,1.63 0,0.22 0.2,0.46 0.55,0.46 0.3,0 0.49,-0.13 0.7,-0.27 0.2,-0.12 0.4,-0.25 0.55,-0.25 0.25,0 0.4,0.24 0.4,0.4 0,0.22 -0.16,0.25 -0.52,0.33 -0.52,0.11 -0.65,0.11 -0.81,0.11 -0.78,0 -1.14,-0.43 -1.14,-1.02 0,-0.54 0.29,-1.1 0.6,-1.7 z"
         inkscape:connector-curvature="0"
         style="fill:#000000;stroke-width:0" /><path
         id="path9732"
         d="m 233.39,657.3 0.11,0.06 0.11,0.05 0.1,0.06 0.1,0.07 0.11,0.06 0.09,0.08 0.1,0.07 0.09,0.08 0.09,0.08 0.09,0.09 0.08,0.09 0.09,0.09 0.07,0.1 0.08,0.1 0.07,0.1 0.07,0.11 0.07,0.11 0.06,0.11 0.06,0.11 0.05,0.12 0.05,0.12 0.05,0.12 0.04,0.12 0.04,0.13 0.03,0.13 0.03,0.13 0.03,0.13 0.02,0.13 0.02,0.14 0.01,0.13 0.01,0.14 0,0.14 c 0,2.03 -1.5,3.64 -3.31,3.64 v -0.25 c 0.96,0 2.31,-0.85 2.31,-3.39 0,-0.77 -0.11,-2.17 -1.17,-2.95 -0.22,0.56 -0.54,1.06 -1.12,1.06 v -0.22 c 0.53,0 0.75,-0.42 0.86,-1 h 0 c -0.33,-0.19 -0.65,-0.22 -0.87,-0.22 -0.51,0 -0.59,0.45 -0.59,0.6 0,0.29 0.21,0.62 0.6,0.62 v 0.22 c -0.51,0 -0.82,-0.43 -0.82,-0.84 0,-0.27 0.13,-0.46 0.14,-0.48 h 0 c -0.54,0.2 -1.65,0.93 -1.65,3.21 0,2.58 1.39,3.39 2.31,3.39 v 0.25 c -1.78,0 -3.31,-1.59 -3.31,-3.64 0,-2 1.51,-3.58 3.32,-3.58 0.31,0 0.65,0.06 0.94,0.14 0.15,-0.94 0.29,-1.85 1.22,-1.85 1.01,0 1.2,1.32 1.2,1.83 0,0.09 0,0.2 -0.11,0.2 -0.09,0 -0.1,-0.07 -0.11,-0.18 -0.06,-0.53 -0.48,-0.83 -0.9,-0.83 -0.47,0 -0.72,0.34 -0.96,0.97 z"
         inkscape:connector-curvature="0"
         style="fill:#000000;stroke-width:0" /></g>    <g
       id="g9826"
       transform="matrix(1.6761741,0,0,-1.6761741,-157.9785,2033.4239)"
       xml:space="preserve"
       stroke-miterlimit="10.433"
       font-style="normal"
       font-variant="normal"
       font-weight="normal"
       font-stretch="normal"
       font-size-adjust="none"
       letter-spacing="normal"
       word-spacing="normal"
       ns0:text="$\\mathrm{\\delta W}$"
       ns0:preamble=""
       style="font-style:normal;font-variant:normal;font-weight:normal;font-stretch:normal;letter-spacing:normal;word-spacing:normal;text-anchor:start;fill:none;stroke:#000000;stroke-linecap:butt;stroke-linejoin:miter;stroke-miterlimit:10.43299961;stroke-opacity:1;stroke-dasharray:none;stroke-dashoffset:0"><path
         style="fill:#000000;stroke-width:0"
         inkscape:connector-curvature="0"
         d="m 226.06,661.58 -0.12,-0.03 -0.11,-0.04 -0.11,-0.04 -0.11,-0.05 -0.11,-0.05 -0.11,-0.06 -0.1,-0.06 -0.1,-0.07 -0.1,-0.07 -0.09,-0.07 -0.1,-0.08 -0.09,-0.08 -0.08,-0.09 -0.09,-0.08 -0.08,-0.1 -0.07,-0.09 -0.07,-0.1 -0.07,-0.1 -0.07,-0.1 -0.06,-0.1 -0.06,-0.11 -0.05,-0.11 -0.05,-0.1 -0.04,-0.11 -0.04,-0.11 -0.03,-0.12 -0.03,-0.11 -0.03,-0.11 -0.02,-0.12 -0.01,-0.11 -0.01,-0.11 0,-0.12 c 0,-0.95 0.64,-1.66 1.57,-1.66 v 0.21 c -0.54,0 -0.95,0.42 -0.95,1.18 0,0.62 0.37,2.49 1.71,2.85 h 0 c 0.25,-0.46 0.55,-1 0.55,-1.71 0,-0.66 -0.38,-2.32 -1.31,-2.32 v -0.21 c 1.17,0 1.99,1.55 1.99,2.93 0,0.9 -0.4,1.4 -0.73,1.84 -0.36,0.45 -0.95,1.2 -0.95,1.63 0,0.22 0.2,0.46 0.55,0.46 0.3,0 0.49,-0.13 0.7,-0.27 0.2,-0.12 0.4,-0.25 0.55,-0.25 0.25,0 0.4,0.24 0.4,0.4 0,0.22 -0.16,0.25 -0.52,0.33 -0.52,0.11 -0.65,0.11 -0.81,0.11 -0.78,0 -1.14,-0.43 -1.14,-1.02 0,-0.54 0.29,-1.1 0.6,-1.7 z"
         id="path9828" /><path
         style="fill:#000000;stroke-width:0"
         inkscape:connector-curvature="0"
         d="m 237.28,663.05 0.02,0.05 0.02,0.05 0.02,0.04 0.02,0.05 0.02,0.04 0.03,0.04 0.02,0.03 0.03,0.04 0.02,0.03 0.03,0.03 0.03,0.03 0.03,0.03 0.03,0.02 0.03,0.02 0.04,0.02 0.03,0.02 0.03,0.02 0.04,0.01 0.03,0.02 0.04,0.01 0.03,0.01 0.04,0.01 0.04,0.01 0.03,0.01 0.04,0 0.04,0.01 0.03,0 0.04,0.01 0.07,0 0.08,0 v 0.31 c -0.3,-0.02 -0.61,-0.03 -0.91,-0.03 -0.29,0 -0.92,0.02 -1.18,0.03 v -0.31 c 0.66,-0.01 0.86,-0.34 0.86,-0.53 0,-0.05 -0.03,-0.13 -0.05,-0.19 l -1.49,-4.59 -1.59,4.87 c -0.01,0.03 -0.03,0.09 -0.03,0.14 0,0.3 0.57,0.3 0.83,0.3 v 0.31 c -0.35,-0.03 -1.03,-0.03 -1.41,-0.03 -0.38,0 -0.8,0.02 -1.21,0.03 v -0.31 c 0.56,0 0.77,0 0.89,-0.36 l 0.22,-0.69 -1.38,-4.26 -1.6,4.88 c -0.01,0.04 -0.02,0.1 -0.02,0.13 0,0.3 0.57,0.3 0.83,0.3 v 0.31 c -0.36,-0.03 -1.03,-0.03 -1.41,-0.03 -0.38,0 -0.81,0.02 -1.21,0.03 v -0.31 c 0.74,0 0.78,-0.05 0.9,-0.42 l 1.99,-6.08 c 0.03,-0.09 0.06,-0.19 0.19,-0.19 0.14,0 0.16,0.07 0.2,0.2 l 1.64,5.04 1.65,-5.05 c 0.03,-0.09 0.06,-0.19 0.19,-0.19 0.14,0 0.16,0.07 0.2,0.2 z"
         id="path9830" /></g>    <g
       style="font-style:normal;font-variant:normal;font-weight:normal;font-stretch:normal;letter-spacing:normal;word-spacing:normal;text-anchor:start;fill:none;stroke:#000000;stroke-linecap:butt;stroke-linejoin:miter;stroke-miterlimit:10.43299961;stroke-opacity:1;stroke-dasharray:none;stroke-dashoffset:0"
       ns0:preamble=""
       ns0:text="$\\mathrm{\\delta W^\\prime}$"
       word-spacing="normal"
       letter-spacing="normal"
       font-size-adjust="none"
       font-stretch="normal"
       font-weight="normal"
       font-variant="normal"
       font-style="normal"
       stroke-miterlimit="10.433"
       xml:space="preserve"
       transform="matrix(1.6761741,0,0,-1.6761741,16.809331,2058.4284)"
       id="g9930"><path
         id="path9932"
         d="m 226.06,661.58 -0.12,-0.03 -0.11,-0.04 -0.11,-0.04 -0.11,-0.05 -0.11,-0.05 -0.11,-0.06 -0.1,-0.06 -0.1,-0.07 -0.1,-0.07 -0.09,-0.07 -0.1,-0.08 -0.09,-0.08 -0.08,-0.09 -0.09,-0.08 -0.08,-0.1 -0.07,-0.09 -0.07,-0.1 -0.07,-0.1 -0.07,-0.1 -0.06,-0.1 -0.06,-0.11 -0.05,-0.11 -0.05,-0.1 -0.04,-0.11 -0.04,-0.11 -0.03,-0.12 -0.03,-0.11 -0.03,-0.11 -0.02,-0.12 -0.01,-0.11 -0.01,-0.11 0,-0.12 c 0,-0.95 0.64,-1.66 1.57,-1.66 v 0.21 c -0.54,0 -0.95,0.42 -0.95,1.18 0,0.62 0.37,2.49 1.71,2.85 h 0 c 0.25,-0.46 0.55,-1 0.55,-1.71 0,-0.66 -0.38,-2.32 -1.31,-2.32 v -0.21 c 1.17,0 1.99,1.55 1.99,2.93 0,0.9 -0.4,1.4 -0.73,1.84 -0.36,0.45 -0.95,1.2 -0.95,1.63 0,0.22 0.2,0.46 0.55,0.46 0.3,0 0.49,-0.13 0.7,-0.27 0.2,-0.12 0.4,-0.25 0.55,-0.25 0.25,0 0.4,0.24 0.4,0.4 0,0.22 -0.16,0.25 -0.52,0.33 -0.52,0.11 -0.65,0.11 -0.81,0.11 -0.78,0 -1.14,-0.43 -1.14,-1.02 0,-0.54 0.29,-1.1 0.6,-1.7 z"
         inkscape:connector-curvature="0"
         style="fill:#000000;stroke-width:0" /><path
         id="path9934"
         d="m 237.28,663.05 0.02,0.05 0.02,0.05 0.02,0.04 0.02,0.05 0.02,0.04 0.03,0.04 0.02,0.03 0.03,0.04 0.02,0.03 0.03,0.03 0.03,0.03 0.03,0.03 0.03,0.02 0.03,0.02 0.04,0.02 0.03,0.02 0.03,0.02 0.04,0.01 0.03,0.02 0.04,0.01 0.03,0.01 0.04,0.01 0.04,0.01 0.03,0.01 0.04,0 0.04,0.01 0.03,0 0.04,0.01 0.07,0 0.08,0 v 0.31 c -0.3,-0.02 -0.61,-0.03 -0.91,-0.03 -0.29,0 -0.92,0.02 -1.18,0.03 v -0.31 c 0.66,-0.01 0.86,-0.34 0.86,-0.53 0,-0.05 -0.03,-0.13 -0.05,-0.19 l -1.49,-4.59 -1.59,4.87 c -0.01,0.03 -0.03,0.09 -0.03,0.14 0,0.3 0.57,0.3 0.83,0.3 v 0.31 c -0.35,-0.03 -1.03,-0.03 -1.41,-0.03 -0.38,0 -0.8,0.02 -1.21,0.03 v -0.31 c 0.56,0 0.77,0 0.89,-0.36 l 0.22,-0.69 -1.38,-4.26 -1.6,4.88 c -0.01,0.04 -0.02,0.1 -0.02,0.13 0,0.3 0.57,0.3 0.83,0.3 v 0.31 c -0.36,-0.03 -1.03,-0.03 -1.41,-0.03 -0.38,0 -0.81,0.02 -1.21,0.03 v -0.31 c 0.74,0 0.78,-0.05 0.9,-0.42 l 1.99,-6.08 c 0.03,-0.09 0.06,-0.19 0.19,-0.19 0.14,0 0.16,0.07 0.2,0.2 l 1.64,5.04 1.65,-5.05 c 0.03,-0.09 0.06,-0.19 0.19,-0.19 0.14,0 0.16,0.07 0.2,0.2 z"
         inkscape:connector-curvature="0"
         style="fill:#000000;stroke-width:0" /><path
         id="path9936"
         d="m 240.63,664.13 0.01,0.01 0,0.01 0.01,0.01 0,0.01 0.01,0.01 0,0.01 0,0.01 0.01,0.01 0,0.01 0,0.01 0.01,0 0,0.01 0,0.01 0,0.01 0,0 0.01,0.01 0,0.01 0,0 0,0.01 0,0.01 0,0 0,0.01 0,0 0.01,0.01 0,0.01 0,0.01 0,0.01 0,0.01 c 0,0.21 -0.2,0.38 -0.41,0.38 -0.27,0 -0.35,-0.22 -0.39,-0.33 l -0.92,-3.01 c 0,-0.01 -0.03,-0.1 -0.03,-0.11 0,-0.08 0.21,-0.15 0.27,-0.15 0.05,0 0.06,0.01 0.1,0.11 z"
         inkscape:connector-curvature="0"
         style="fill:#000000;stroke-width:0" /></g>  </g>
</svg>
