<?xml version="1.0" encoding="UTF-8" standalone="no"?>
<!-- Created with Inkscape (http://www.inkscape.org/) -->

<svg
   xmlns:ns0="http://www.iki.fi/pav/software/textext/"
   xmlns:dc="http://purl.org/dc/elements/1.1/"
   xmlns:cc="http://creativecommons.org/ns#"
   xmlns:rdf="http://www.w3.org/1999/02/22-rdf-syntax-ns#"
   xmlns:svg="http://www.w3.org/2000/svg"
   xmlns="http://www.w3.org/2000/svg"
   xmlns:sodipodi="http://sodipodi.sourceforge.net/DTD/sodipodi-0.dtd"
   xmlns:inkscape="http://www.inkscape.org/namespaces/inkscape"
   width="306.7258"
   height="233.47087"
   id="svg2"
   version="1.1"
   inkscape:version="0.48.4 r9939"
   sodipodi:docname="New document 1">
  <sodipodi:namedview
     id="base"
     pagecolor="#ffffff"
     bordercolor="#666666"
     borderopacity="1.0"
     inkscape:pageopacity="0.0"
     inkscape:pageshadow="2"
     inkscape:zoom="1.4"
     inkscape:cx="80.395614"
     inkscape:cy="114.06924"
     inkscape:document-units="px"
     inkscape:current-layer="layer1"
     showgrid="true"
     units="in"
     width="11cm"
     inkscape:window-width="1274"
     inkscape:window-height="584"
     inkscape:window-x="0"
     inkscape:window-y="380"
     inkscape:window-maximized="0"
     fit-margin-top="0"
     fit-margin-left="0"
     fit-margin-right="0"
     fit-margin-bottom="0"
     inkscape:snap-grids="true">
    <inkscape:grid
       spacingy="2px"
       spacingx="2px"
       snapvisiblegridlinesonly="true"
       enabled="true"
       visible="true"
       empspacing="5"
       id="grid2984"
       type="xygrid"
       originx="-84.602218px"
       originy="-107.85715px" />
  </sodipodi:namedview>
  <defs
     id="defs4">
    <marker
       style="overflow:visible"
       id="Arrow2Lstart"
       refX="0"
       refY="0"
       orient="auto"
       inkscape:stockid="Arrow2Lstart">
      <path
         transform="matrix(1.1,0,0,1.1,1.1,0)"
         d="M 8.7185878,4.0337352 -2.2072895,0.01601326 8.7185884,-4.0017078 c -1.7454984,2.3720609 -1.7354408,5.6174519 -6e-7,8.035443 z"
         style="fill-rule:evenodd;stroke-width:0.625;stroke-linejoin:round"
         id="path3785"
         inkscape:connector-curvature="0" />
    </marker>
    <marker
       style="overflow:visible"
       id="Arrow2Lend"
       refX="0"
       refY="0"
       orient="auto"
       inkscape:stockid="Arrow2Lend">
      <path
         transform="matrix(-1.1,0,0,-1.1,-1.1,0)"
         d="M 8.7185878,4.0337352 -2.2072895,0.01601326 8.7185884,-4.0017078 c -1.7454984,2.3720609 -1.7354408,5.6174519 -6e-7,8.035443 z"
         style="fill-rule:evenodd;stroke-width:0.625;stroke-linejoin:round"
         id="path3788"
         inkscape:connector-curvature="0" />
    </marker>
    <marker
       inkscape:stockid="Arrow2Mend"
       orient="auto"
       refY="0"
       refX="0"
       id="Arrow2Mend"
       style="overflow:visible">
      <path
         inkscape:connector-curvature="0"
         id="path3966"
         style="fill-rule:evenodd;stroke-width:0.625;stroke-linejoin:round"
         d="M 8.7185878,4.0337352 -2.2072895,0.01601326 8.7185884,-4.0017078 c -1.7454984,2.3720609 -1.7354408,5.6174519 -6e-7,8.035443 z"
         transform="scale(-0.6,-0.6)" />
    </marker>
  </defs>
  <metadata
     id="metadata7">
    <rdf:RDF>
      <cc:Work
         rdf:about="">
        <dc:format>image/svg+xml</dc:format>
        <dc:type
           rdf:resource="http://purl.org/dc/dcmitype/StillImage" />
        <dc:title></dc:title>
      </cc:Work>
    </rdf:RDF>
  </metadata>
  <g
     inkscape:label="Layer 1"
     inkscape:groupmode="layer"
     id="layer1"
     transform="translate(-21.57386,-734.71922)">
    <path
       sodipodi:nodetypes="ccc"
       transform="translate(-63.028358,665.51153)"
       inkscape:connector-curvature="0"
       id="path2985"
       d="m 150,70.535706 0,200.000004 240,0"
       style="fill:none;stroke:#000000;stroke-width:1px;stroke-linecap:butt;stroke-linejoin:miter;stroke-opacity:1;marker-start:url(#Arrow2Lstart);marker-end:url(#Arrow2Lend)" />
    <path
       sodipodi:nodetypes="cssc"
       transform="translate(-63.028358,665.51153)"
       inkscape:connector-curvature="0"
       id="path2987"
       d="m 150.71429,266.25 c 0,0 50.71428,-4.28572 70.71428,-54.28572 20,-50 30.61337,-85.51049 82.85714,-98.57143 40,-10 75.71429,-10 75.71429,-10"
       style="fill:none;stroke:#000000;stroke-width:1px;stroke-linecap:butt;stroke-linejoin:miter;stroke-opacity:1" />
    <path
       transform="translate(-63.028358,665.51153)"
       inkscape:connector-curvature="0"
       id="path4397"
       d="m 350,100.53571 -190,0"
       style="fill:none;stroke:#000000;stroke-width:1px;stroke-linecap:butt;stroke-linejoin:miter;stroke-opacity:1" />
    <path
       sodipodi:open="true"
       sodipodi:end="9.3819723"
       sodipodi:start="3.1009386"
       transform="matrix(0.44100138,0,0,0.44100138,172.73232,717.9057)"
       d="m 20.004131,205.73892 c -0.112232,-2.75914 2.033513,-5.08685 4.792655,-5.19908 2.759142,-0.11224 5.086851,2.03351 5.199083,4.79265 0.112232,2.75914 -2.033513,5.08685 -4.792655,5.19908 -2.754945,0.11207 -5.080645,-2.0272 -5.198634,-4.7819"
       sodipodi:ry="5"
       sodipodi:rx="5"
       sodipodi:cy="205.53571"
       sodipodi:cx="25"
       id="path4399"
       style="opacity:0.83495148;fill:#d40000;fill-opacity:1;fill-rule:nonzero;stroke:#d40000;stroke-width:1.5;stroke-miterlimit:4;stroke-opacity:1;stroke-dasharray:none;stroke-dashoffset:0"
       sodipodi:type="arc" />
    <path
       sodipodi:open="true"
       sodipodi:end="9.3819723"
       sodipodi:start="3.1009386"
       transform="matrix(0.44100138,0,0,0.44100138,107.73232,825.04856)"
       d="m 20.004131,205.73892 c -0.112232,-2.75914 2.033513,-5.08685 4.792655,-5.19908 2.759142,-0.11224 5.086851,2.03351 5.199083,4.79265 0.112232,2.75914 -2.033513,5.08685 -4.792655,5.19908 -2.754945,0.11207 -5.080645,-2.0272 -5.198634,-4.7819"
       sodipodi:ry="5"
       sodipodi:rx="5"
       sodipodi:cy="205.53571"
       sodipodi:cx="25"
       id="path4399-3"
       style="opacity:0.83495148;fill:#d40000;fill-opacity:1;fill-rule:nonzero;stroke:#d40000;stroke-width:1.5;stroke-miterlimit:4;stroke-opacity:1;stroke-dasharray:none;stroke-dashoffset:0"
       sodipodi:type="arc" />
    <path
       sodipodi:open="true"
       sodipodi:end="9.3819723"
       sodipodi:start="3.1009386"
       transform="matrix(0.44100138,0,0,0.44100138,134.16089,799.33427)"
       d="m 20.004131,205.73892 c -0.112232,-2.75914 2.033513,-5.08685 4.792655,-5.19908 2.759142,-0.11224 5.086851,2.03351 5.199083,4.79265 0.112232,2.75914 -2.033513,5.08685 -4.792655,5.19908 -2.754945,0.11207 -5.080645,-2.0272 -5.198634,-4.7819"
       sodipodi:ry="5"
       sodipodi:rx="5"
       sodipodi:cy="205.53571"
       sodipodi:cx="25"
       id="path4399-1"
       style="opacity:0.83495148;fill:#d40000;fill-opacity:1;fill-rule:nonzero;stroke:#d40000;stroke-width:1.5;stroke-miterlimit:4;stroke-opacity:1;stroke-dasharray:none;stroke-dashoffset:0"
       sodipodi:type="arc" />
    <path
       sodipodi:open="true"
       sodipodi:end="9.3819723"
       sodipodi:start="3.1009386"
       transform="matrix(0.44100138,0,0,0.44100138,123.4466,810.76285)"
       d="m 20.004131,205.73892 c -0.112232,-2.75914 2.033513,-5.08685 4.792655,-5.19908 2.759142,-0.11224 5.086851,2.03351 5.199083,4.79265 0.112232,2.75914 -2.033513,5.08685 -4.792655,5.19908 -2.754945,0.11207 -5.080645,-2.0272 -5.198634,-4.7819"
       sodipodi:ry="5"
       sodipodi:rx="5"
       sodipodi:cy="205.53571"
       sodipodi:cx="25"
       id="path4399-37"
       style="opacity:0.83495148;fill:#d40000;fill-opacity:1;fill-rule:nonzero;stroke:#d40000;stroke-width:1.5;stroke-miterlimit:4;stroke-opacity:1;stroke-dasharray:none;stroke-dashoffset:0"
       sodipodi:type="arc" />
    <path
       sodipodi:open="true"
       sodipodi:end="9.3819723"
       sodipodi:start="3.1009386"
       transform="matrix(0.44100138,0,0,0.44100138,142.73232,784.33427)"
       d="m 20.004131,205.73892 c -0.112232,-2.75914 2.033513,-5.08685 4.792655,-5.19908 2.759142,-0.11224 5.086851,2.03351 5.199083,4.79265 0.112232,2.75914 -2.033513,5.08685 -4.792655,5.19908 -2.754945,0.11207 -5.080645,-2.0272 -5.198634,-4.7819"
       sodipodi:ry="5"
       sodipodi:rx="5"
       sodipodi:cy="205.53571"
       sodipodi:cx="25"
       id="path4399-8"
       style="opacity:0.83495148;fill:#d40000;fill-opacity:1;fill-rule:nonzero;stroke:#d40000;stroke-width:1.5;stroke-miterlimit:4;stroke-opacity:1;stroke-dasharray:none;stroke-dashoffset:0"
       sodipodi:type="arc" />
    <path
       sodipodi:open="true"
       sodipodi:end="9.3819723"
       sodipodi:start="3.1009386"
       transform="matrix(0.44100138,0,0,0.44100138,149.16089,767.90571)"
       d="m 20.004131,205.73892 c -0.112232,-2.75914 2.033513,-5.08685 4.792655,-5.19908 2.759142,-0.11224 5.086851,2.03351 5.199083,4.79265 0.112232,2.75914 -2.033513,5.08685 -4.792655,5.19908 -2.754945,0.11207 -5.080645,-2.0272 -5.198634,-4.7819"
       sodipodi:ry="5"
       sodipodi:rx="5"
       sodipodi:cy="205.53571"
       sodipodi:cx="25"
       id="path4399-89"
       style="opacity:0.83495148;fill:#d40000;fill-opacity:1;fill-rule:nonzero;stroke:#d40000;stroke-width:1.5;stroke-miterlimit:4;stroke-opacity:1;stroke-dasharray:none;stroke-dashoffset:0"
       sodipodi:type="arc" />
    <path
       sodipodi:open="true"
       sodipodi:end="9.3819723"
       sodipodi:start="3.1009386"
       transform="matrix(0.44100138,0,0,0.44100138,154.87518,752.19142)"
       d="m 20.004131,205.73892 c -0.112232,-2.75914 2.033513,-5.08685 4.792655,-5.19908 2.759142,-0.11224 5.086851,2.03351 5.199083,4.79265 0.112232,2.75914 -2.033513,5.08685 -4.792655,5.19908 -2.754945,0.11207 -5.080645,-2.0272 -5.198634,-4.7819"
       sodipodi:ry="5"
       sodipodi:rx="5"
       sodipodi:cy="205.53571"
       sodipodi:cx="25"
       id="path4399-2"
       style="opacity:0.83495148;fill:#d40000;fill-opacity:1;fill-rule:nonzero;stroke:#d40000;stroke-width:1.5;stroke-miterlimit:4;stroke-opacity:1;stroke-dasharray:none;stroke-dashoffset:0"
       sodipodi:type="arc" />
    <path
       sodipodi:open="true"
       sodipodi:end="9.3819723"
       sodipodi:start="3.1009386"
       transform="matrix(0.44100138,0,0,0.44100138,163.4466,734.33428)"
       d="m 20.004131,205.73892 c -0.112232,-2.75914 2.033513,-5.08685 4.792655,-5.19908 2.759142,-0.11224 5.086851,2.03351 5.199083,4.79265 0.112232,2.75914 -2.033513,5.08685 -4.792655,5.19908 -2.754945,0.11207 -5.080645,-2.0272 -5.198634,-4.7819"
       sodipodi:ry="5"
       sodipodi:rx="5"
       sodipodi:cy="205.53571"
       sodipodi:cx="25"
       id="path4399-9"
       style="opacity:0.83495148;fill:#d40000;fill-opacity:1;fill-rule:nonzero;stroke:#d40000;stroke-width:1.5;stroke-miterlimit:4;stroke-opacity:1;stroke-dasharray:none;stroke-dashoffset:0"
       sodipodi:type="arc" />
    <path
       sodipodi:open="true"
       sodipodi:end="9.3819723"
       sodipodi:start="3.1009386"
       transform="matrix(0.44100138,0,0,0.44100138,185.58946,705.04856)"
       d="m 20.004131,205.73892 c -0.112232,-2.75914 2.033513,-5.08685 4.792655,-5.19908 2.759142,-0.11224 5.086851,2.03351 5.199083,4.79265 0.112232,2.75914 -2.033513,5.08685 -4.792655,5.19908 -2.754945,0.11207 -5.080645,-2.0272 -5.198634,-4.7819"
       sodipodi:ry="5"
       sodipodi:rx="5"
       sodipodi:cy="205.53571"
       sodipodi:cx="25"
       id="path4399-0"
       style="opacity:0.83495148;fill:#d40000;fill-opacity:1;fill-rule:nonzero;stroke:#d40000;stroke-width:1.5;stroke-miterlimit:4;stroke-opacity:1;stroke-dasharray:none;stroke-dashoffset:0"
       sodipodi:type="arc" />
    <path
       sodipodi:open="true"
       sodipodi:end="9.3819723"
       sodipodi:start="3.1009386"
       transform="matrix(0.44100138,0,0,0.44100138,199.87518,696.47713)"
       d="m 20.004131,205.73892 c -0.112232,-2.75914 2.033513,-5.08685 4.792655,-5.19908 2.759142,-0.11224 5.086851,2.03351 5.199083,4.79265 0.112232,2.75914 -2.033513,5.08685 -4.792655,5.19908 -2.754945,0.11207 -5.080645,-2.0272 -5.198634,-4.7819"
       sodipodi:ry="5"
       sodipodi:rx="5"
       sodipodi:cy="205.53571"
       sodipodi:cx="25"
       id="path4399-21"
       style="opacity:0.83495148;fill:#d40000;fill-opacity:1;fill-rule:nonzero;stroke:#d40000;stroke-width:1.5;stroke-miterlimit:4;stroke-opacity:1;stroke-dasharray:none;stroke-dashoffset:0"
       sodipodi:type="arc" />
    <text
       sodipodi:linespacing="100%"
       id="text4475"
       y="856.04724"
       x="116.97164"
       style="font-size:16px;font-style:normal;font-variant:normal;font-weight:500;font-stretch:normal;text-align:start;line-height:100%;letter-spacing:0px;word-spacing:0px;writing-mode:lr-tb;text-anchor:start;fill:#000000;fill-opacity:1;stroke:none;font-family:Rekha;-inkscape-font-specification:Rekha Medium"
       xml:space="preserve"><tspan
         style="fill:#ff0000"
         y="856.04724"
         x="116.97164"
         id="tspan4477"
         sodipodi:role="line">expt</tspan></text>
    <text
       sodipodi:linespacing="100%"
       id="text4479"
       y="756.04724"
       x="156.97165"
       style="font-size:16px;font-style:normal;font-variant:normal;font-weight:500;font-stretch:normal;text-align:start;line-height:100%;letter-spacing:0px;word-spacing:0px;writing-mode:lr-tb;text-anchor:start;fill:#000000;fill-opacity:1;stroke:none;font-family:Rekha;-inkscape-font-specification:Rekha Medium"
       xml:space="preserve"><tspan
         y="756.04724"
         x="156.97165"
         id="tspan4481"
         sodipodi:role="line">3NK</tspan></text>
    <g
       ns0:preamble=""
       ns0:text="$\\mathrm{{C_v} \\over {atom}}$"
       word-spacing="normal"
       letter-spacing="normal"
       font-size-adjust="none"
       font-stretch="normal"
       font-weight="normal"
       font-variant="normal"
       font-style="normal"
       stroke-miterlimit="10.433"
       xml:space="preserve"
       transform="matrix(2.4684179,0,0,-2.4684179,-532.41565,2435.4176)"
       id="content"
       style="font-style:normal;font-variant:normal;font-weight:normal;font-stretch:normal;letter-spacing:normal;word-spacing:normal;text-anchor:start;fill:none;stroke:#000000;stroke-linecap:butt;stroke-linejoin:miter;stroke-miterlimit:10.43299961;stroke-opacity:1;stroke-dasharray:none;stroke-dashoffset:0"><path
         id="path4513"
         d="m 233.69,666.03 0,0.01 0,0.01 0,0.01 0,0.01 0,0.01 0,0.01 0,0.01 0,0.01 0,0 0,0.01 0,0.01 0,0.01 0,0 -0.01,0.01 0,0.01 0,0 0,0.01 0,0 -0.01,0.01 0,0 0,0.01 -0.01,0 0,0 -0.01,0.01 0,0 -0.01,0 -0.01,0 0,0 0,0.01 -0.01,0 0,0 0,0 -0.01,0 0,0 -0.01,0 0,0 0,0 c -0.03,0 -0.07,0 -0.12,-0.09 l -0.37,-0.52 c -0.29,0.29 -0.78,0.61 -1.44,0.61 -1.47,0 -2.67,-1.13 -2.67,-2.51 0,-1.41 1.22,-2.52 2.67,-2.52 1.23,0 2.02,0.92 2.02,1.77 0,0.07 0,0.13 -0.12,0.13 -0.04,0 -0.11,0 -0.11,-0.09 -0.06,-1.12 -1.01,-1.56 -1.7,-1.56 -0.74,0 -2.02,0.45 -2.02,2.26 0,1.89 1.36,2.27 2.01,2.27 0.69,0 1.51,-0.46 1.69,-1.66 0.02,-0.08 0.08,-0.08 0.13,-0.08 0.12,0 0.12,0.04 0.12,0.18 z"
         inkscape:connector-curvature="0"
         style="fill:#000000;stroke-width:0" /><path
         id="path4515"
         d="m 236.95,661.95 0.02,0.03 0,0.01 0.01,0.02 0.01,0.01 0.01,0.02 0.01,0.01 0.01,0.01 0.01,0.02 0.02,0.01 0.01,0.01 0.01,0.01 0.01,0.01 0.02,0.02 0.01,0.01 0.02,0.01 0.01,0.01 0.02,0.01 0.01,0 0.02,0.01 0.02,0.01 0.02,0.01 0.02,0 0.02,0.01 0.02,0.01 0.03,0 0.02,0 0.02,0.01 0.03,0 0.03,0 0.02,0.01 0.03,0 v 0.22 c -0.13,-0.01 -0.26,-0.02 -0.43,-0.02 -0.01,0 -0.33,0 -0.51,0.02 v -0.22 c 0.13,-0.01 0.22,-0.07 0.22,-0.18 0,-0.05 -0.02,-0.1 -0.02,-0.1 l -0.64,-1.23 -0.68,1.32 c -0.01,0.02 -0.02,0.05 -0.02,0.08 0,0.11 0.17,0.11 0.27,0.11 v 0.22 c -0.23,-0.02 -0.59,-0.02 -0.63,-0.02 -0.19,0 -0.34,0 -0.55,0.02 v -0.22 c 0.29,0 0.37,0 0.44,-0.15 l 0.88,-1.72 c 0.04,-0.07 0.06,-0.11 0.17,-0.11 0.12,0 0.14,0.05 0.18,0.11 z"
         inkscape:connector-curvature="0"
         style="fill:#000000;stroke-width:0" /><line
         id="line4517"
         y2="659.72998"
         x2="242.23"
         y1="659.72998"
         x1="224.63"
         style="stroke-width:0.398" /><path
         id="path4519"
         d="m 227.73,655.66 0,0.07 0,0.07 0,0.06 0,0.06 0,0.03 -0.01,0.03 0,0.03 0,0.03 -0.01,0.03 0,0.03 -0.01,0.02 -0.01,0.03 0,0.03 -0.01,0.02 -0.01,0.03 -0.01,0.03 -0.02,0.02 -0.01,0.03 -0.01,0.02 -0.02,0.03 -0.02,0.02 -0.02,0.03 -0.02,0.02 -0.02,0.03 -0.02,0.02 -0.03,0.03 -0.03,0.02 -0.03,0.02 c -0.28,0.24 -0.62,0.35 -1.03,0.35 -0.66,0 -1.12,-0.25 -1.12,-0.67 0,-0.23 0.15,-0.34 0.33,-0.34 0.19,0 0.33,0.14 0.33,0.32 0,0.12 -0.06,0.27 -0.25,0.32 0.25,0.18 0.66,0.18 0.7,0.18 0.39,0 0.81,-0.26 0.81,-0.85 v -0.21 -0.18 -0.69 c 0,-0.67 -0.58,-0.86 -0.89,-0.86 -0.36,0 -0.69,0.24 -0.69,0.58 0,0.39 0.33,0.92 1.58,0.97 v 0.18 c -0.38,-0.01 -0.84,-0.04 -1.35,-0.22 -0.62,-0.23 -0.82,-0.61 -0.82,-0.93 0,-0.6 0.73,-0.77 1.22,-0.77 0.56,0 0.88,0.31 1.03,0.59 0.03,-0.29 0.22,-0.55 0.54,-0.55 0.01,0 0.69,0 0.69,0.66 v 0.38 h -0.24 v -0.38 c 0,-0.07 0,-0.4 -0.26,-0.4 -0.26,0 -0.26,0.33 -0.26,0.42 z"
         inkscape:connector-curvature="0"
         style="fill:#000000;stroke-width:0" /><path
         id="path4521"
         d="m 230,656.55 h 1.09 v 0.25 H 230 v 1.28 h -0.24 c 0,-0.63 -0.29,-1.32 -0.96,-1.34 v -0.19 h 0.65 v -1.88 c 0,-0.78 0.58,-0.94 0.97,-0.94 0.47,0 0.79,0.4 0.79,0.95 v 0.38 h -0.23 v -0.38 c 0,-0.47 -0.23,-0.73 -0.5,-0.73 -0.48,0 -0.48,0.59 -0.48,0.71 z"
         inkscape:connector-curvature="0"
         style="fill:#000000;stroke-width:0" /><path
         id="path4523"
         d="m 235.4,655.28 -0.01,0.08 0,0.08 -0.01,0.08 -0.02,0.08 -0.02,0.08 -0.02,0.07 -0.02,0.08 -0.03,0.07 -0.04,0.07 -0.04,0.07 -0.04,0.07 -0.04,0.07 -0.05,0.06 -0.05,0.06 -0.05,0.06 -0.06,0.06 -0.05,0.05 -0.07,0.05 -0.06,0.05 -0.07,0.05 -0.07,0.04 -0.07,0.04 -0.07,0.04 -0.08,0.03 -0.07,0.03 -0.08,0.03 -0.09,0.02 -0.08,0.02 -0.08,0.01 -0.09,0.01 -0.09,0.01 -0.09,0 v -0.19 c 0.41,0 0.7,-0.2 0.86,-0.41 0.19,-0.27 0.21,-0.62 0.21,-0.96 0,-0.33 -0.02,-0.7 -0.22,-0.98 -0.19,-0.27 -0.51,-0.41 -0.85,-0.41 h 0 c -0.26,0 -0.63,0.09 -0.86,0.43 -0.19,0.28 -0.21,0.64 -0.21,0.96 0,0.3 0,0.71 0.25,1.01 0.17,0.2 0.47,0.36 0.82,0.36 v 0.19 c -0.96,0 -1.71,-0.75 -1.71,-1.62 0,-0.86 0.77,-1.55 1.71,-1.55 0.94,0 1.71,0.69 1.71,1.55 z"
         inkscape:connector-curvature="0"
         style="fill:#000000;stroke-width:0" /><path
         id="path4525"
         d="m 241.41,655.91 0,0.05 0,0.06 -0.01,0.05 -0.01,0.05 0,0.05 -0.01,0.05 -0.02,0.05 -0.01,0.04 -0.02,0.05 -0.01,0.04 -0.02,0.04 -0.02,0.04 -0.03,0.03 -0.03,0.04 -0.02,0.03 -0.03,0.03 -0.04,0.03 -0.03,0.03 -0.04,0.03 -0.04,0.02 -0.04,0.03 -0.04,0.02 -0.05,0.02 -0.05,0.01 -0.05,0.02 -0.05,0.01 -0.06,0.01 -0.06,0.01 -0.06,0.01 -0.06,0 -0.07,0.01 -0.07,0 c -0.55,0 -0.92,-0.3 -1.11,-0.65 -0.14,0.49 -0.51,0.65 -1.02,0.65 -0.58,0 -0.94,-0.32 -1.14,-0.68 h -0.01 v 0.68 l -1.02,-0.08 v -0.25 c 0.47,0 0.52,-0.05 0.52,-0.39 v -1.8 c 0,-0.3 -0.07,-0.3 -0.52,-0.3 v -0.25 c 0.01,0 0.5,0.03 0.79,0.03 0.26,0 0.74,-0.02 0.8,-0.03 v 0.25 c -0.45,0 -0.52,0 -0.52,0.3 v 1.25 c 0,0.73 0.58,1.07 1.04,1.07 0.49,0 0.55,-0.38 0.55,-0.74 v -1.58 c 0,-0.3 -0.07,-0.3 -0.52,-0.3 v -0.25 c 0.01,0 0.5,0.03 0.79,0.03 0.26,0 0.74,-0.02 0.8,-0.03 v 0.25 c -0.45,0 -0.52,0 -0.52,0.3 v 1.25 c 0,0.73 0.58,1.07 1.04,1.07 0.49,0 0.55,-0.38 0.55,-0.74 v -1.58 c 0,-0.3 -0.07,-0.3 -0.52,-0.3 v -0.25 c 0.01,0 0.5,0.03 0.79,0.03 0.26,0 0.74,-0.02 0.8,-0.03 v 0.25 c -0.45,0 -0.52,0 -0.52,0.3 z"
         inkscape:connector-curvature="0"
         style="fill:#000000;stroke-width:0" /></g>    <text
       xml:space="preserve"
       style="font-size:16px;font-style:normal;font-variant:normal;font-weight:500;font-stretch:normal;text-align:start;line-height:100%;letter-spacing:0px;word-spacing:0px;writing-mode:lr-tb;text-anchor:start;fill:#000000;fill-opacity:1;stroke:none;font-family:Rekha;-inkscape-font-specification:Rekha Medium"
       x="367.85715"
       y="302.67856"
       id="text4562"
       sodipodi:linespacing="100%"
       transform="translate(-63.028358,665.51153)"><tspan
         sodipodi:role="line"
         id="tspan4564"
         x="367.85715"
         y="302.67856">T</tspan></text>
  </g>
</svg>
