<?xml version="1.0" encoding="UTF-8" standalone="no"?>
<!-- Created with Inkscape (http://www.inkscape.org/) -->

<svg
   xmlns:dc="http://purl.org/dc/elements/1.1/"
   xmlns:cc="http://creativecommons.org/ns#"
   xmlns:rdf="http://www.w3.org/1999/02/22-rdf-syntax-ns#"
   xmlns:svg="http://www.w3.org/2000/svg"
   xmlns="http://www.w3.org/2000/svg"
   xmlns:sodipodi="http://sodipodi.sourceforge.net/DTD/sodipodi-0.dtd"
   xmlns:inkscape="http://www.inkscape.org/namespaces/inkscape"
   width="332.35843"
   height="113.69003"
   id="svg2"
   version="1.1"
   inkscape:version="0.48.4 r9939"
   sodipodi:docname="New document 1">
  <sodipodi:namedview
     id="base"
     pagecolor="#ffffff"
     bordercolor="#666666"
     borderopacity="1.0"
     inkscape:pageopacity="0.0"
     inkscape:pageshadow="2"
     inkscape:zoom="1.9872482"
     inkscape:cx="160.18228"
     inkscape:cy="73.02791"
     inkscape:document-units="px"
     inkscape:current-layer="layer1"
     showgrid="true"
     units="in"
     width="11cm"
     inkscape:window-width="1274"
     inkscape:window-height="574"
     inkscape:window-x="0"
     inkscape:window-y="390"
     inkscape:window-maximized="0"
     fit-margin-top="0"
     fit-margin-left="0"
     fit-margin-right="0"
     fit-margin-bottom="0"
     inkscape:snap-grids="false">
    <inkscape:grid
       spacingy="2px"
       spacingx="2px"
       snapvisiblegridlinesonly="true"
       enabled="true"
       visible="true"
       empspacing="5"
       id="grid2984"
       type="xygrid"
       originx="-54.294001px"
       originy="-217.7399px" />
  </sodipodi:namedview>
  <defs
     id="defs4">
    <marker
       inkscape:stockid="Arrow2Lstart"
       orient="auto"
       refY="0"
       refX="0"
       id="Arrow2Lstart"
       style="overflow:visible">
      <path
         id="path3813"
         style="fill-rule:evenodd;stroke-width:0.625;stroke-linejoin:round"
         d="M 8.7185878,4.0337352 -2.2072895,0.01601326 8.7185884,-4.0017078 c -1.7454984,2.3720609 -1.7354408,5.6174519 -6e-7,8.035443 z"
         transform="matrix(1.1,0,0,1.1,1.1,0)"
         inkscape:connector-curvature="0" />
    </marker>
    <marker
       style="overflow:visible"
       id="Arrow2Lend"
       refX="0"
       refY="0"
       orient="auto"
       inkscape:stockid="Arrow2Lend">
      <path
         transform="matrix(-1.1,0,0,-1.1,-1.1,0)"
         d="M 8.7185878,4.0337352 -2.2072895,0.01601326 8.7185884,-4.0017078 c -1.7454984,2.3720609 -1.7354408,5.6174519 -6e-7,8.035443 z"
         style="fill-rule:evenodd;stroke-width:0.625;stroke-linejoin:round"
         id="path3816"
         inkscape:connector-curvature="0" />
    </marker>
    <marker
       inkscape:stockid="Arrow2Mend"
       orient="auto"
       refY="0"
       refX="0"
       id="Arrow2Mend"
       style="overflow:visible">
      <path
         inkscape:connector-curvature="0"
         id="path3966"
         style="fill-rule:evenodd;stroke-width:0.625;stroke-linejoin:round"
         d="M 8.7185878,4.0337352 -2.2072895,0.01601326 8.7185884,-4.0017078 c -1.7454984,2.3720609 -1.7354408,5.6174519 -6e-7,8.035443 z"
         transform="scale(-0.6,-0.6)" />
    </marker>
    <marker
       style="overflow:visible"
       id="Arrow2LendW"
       refX="0"
       refY="0"
       orient="auto"
       inkscape:stockid="Arrow2LendW">
      <path
         transform="matrix(-1.1,0,0,-1.1,-1.1,0)"
         d="M 8.7185878,4.0337352 -2.2072895,0.01601326 8.7185884,-4.0017078 c -1.7454984,2.3720609 -1.7354408,5.6174519 -6e-7,8.035443 z"
         style="fill:#d40000;fill-rule:evenodd;stroke:#d40000;stroke-width:0.625;stroke-linejoin:round"
         id="path4430"
         inkscape:connector-curvature="0" />
    </marker>
    <marker
       style="overflow:visible"
       id="Arrow2Lendp"
       refX="0"
       refY="0"
       orient="auto"
       inkscape:stockid="Arrow2Lendp">
      <path
         transform="matrix(-1.1,0,0,-1.1,-1.1,0)"
         d="M 8.7185878,4.0337352 -2.2072895,0.01601326 8.7185884,-4.0017078 c -1.7454984,2.3720609 -1.7354408,5.6174519 -6e-7,8.035443 z"
         style="fill:#d40000;fill-rule:evenodd;stroke:#d40000;stroke-width:0.625;stroke-linejoin:round"
         id="path4433"
         inkscape:connector-curvature="0" />
    </marker>
    <marker
       inkscape:stockid="Arrow2LstartY"
       orient="auto"
       refY="0"
       refX="0"
       id="Arrow2LstartY"
       style="overflow:visible">
      <path
         id="path4860"
         style="fill:#008000;fill-rule:evenodd;stroke:#008000;stroke-width:0.625;stroke-linejoin:round"
         d="M 8.7185878,4.0337352 -2.2072895,0.01601326 8.7185884,-4.0017078 c -1.7454984,2.3720609 -1.7354408,5.6174519 -6e-7,8.035443 z"
         transform="matrix(1.1,0,0,1.1,1.1,0)"
         inkscape:connector-curvature="0" />
    </marker>
    <marker
       style="overflow:visible"
       id="Arrow2LendP"
       refX="0"
       refY="0"
       orient="auto"
       inkscape:stockid="Arrow2LendP">
      <path
         transform="matrix(-1.1,0,0,-1.1,-1.1,0)"
         d="M 8.7185878,4.0337352 -2.2072895,0.01601326 8.7185884,-4.0017078 c -1.7454984,2.3720609 -1.7354408,5.6174519 -6e-7,8.035443 z"
         style="fill:#008000;fill-rule:evenodd;stroke:#008000;stroke-width:0.625;stroke-linejoin:round"
         id="path4863"
         inkscape:connector-curvature="0" />
    </marker>
    <marker
       style="overflow:visible"
       id="Arrow2Lendn"
       refX="0"
       refY="0"
       orient="auto"
       inkscape:stockid="Arrow2Lendn">
      <path
         transform="matrix(-1.1,0,0,-1.1,-1.1,0)"
         d="M 8.7185878,4.0337352 -2.2072895,0.01601326 8.7185884,-4.0017078 c -1.7454984,2.3720609 -1.7354408,5.6174519 -6e-7,8.035443 z"
         style="fill:#d40000;fill-rule:evenodd;stroke:#d40000;stroke-width:0.625;stroke-linejoin:round"
         id="path5114"
         inkscape:connector-curvature="0" />
    </marker>
  </defs>
  <metadata
     id="metadata7">
    <rdf:RDF>
      <cc:Work
         rdf:about="">
        <dc:format>image/svg+xml</dc:format>
        <dc:type
           rdf:resource="http://purl.org/dc/dcmitype/StillImage" />
        <dc:title></dc:title>
      </cc:Work>
    </rdf:RDF>
  </metadata>
  <g
     inkscape:label="Layer 1"
     inkscape:groupmode="layer"
     id="layer1"
     transform="translate(8.734357,-744.6173)">
    <path
       sodipodi:open="true"
       sodipodi:end="9.382755"
       sodipodi:start="3.1009386"
       transform="translate(-63.028358,665.51153)"
       d="m 80.024788,161.75499 c -0.673393,-16.55485 12.201074,-30.5211 28.755922,-31.1945 16.55486,-0.67339 30.52111,12.20108 31.1945,28.75593 0.6734,16.55485 -12.20107,30.5211 -28.75592,31.1945 -16.538835,0.67274 -30.497424,-12.177 -31.192805,-28.7149"
       sodipodi:ry="30"
       sodipodi:rx="30"
       sodipodi:cy="160.53571"
       sodipodi:cx="110"
       id="path2985"
       style="fill:none;stroke:#000080;stroke-width:1.5;stroke-miterlimit:4;stroke-opacity:1;stroke-dasharray:none;stroke-dashoffset:0"
       sodipodi:type="arc" />
    <path
       sodipodi:open="true"
       sodipodi:end="9.382755"
       sodipodi:start="3.1009386"
       d="m 80.024788,161.75499 c -0.673393,-16.55485 12.201074,-30.5211 28.755922,-31.1945 16.55486,-0.67339 30.52111,12.20108 31.1945,28.75593 0.6734,16.55485 -12.20107,30.5211 -28.75592,31.1945 -16.538835,0.67274 -30.497424,-12.177 -31.192805,-28.7149"
       sodipodi:ry="30"
       sodipodi:rx="30"
       sodipodi:cy="160.53571"
       sodipodi:cx="110"
       id="path2985-6"
       style="fill:none;stroke:#000080;stroke-width:1.5;stroke-miterlimit:4;stroke-opacity:1;stroke-dasharray:none;stroke-dashoffset:0"
       sodipodi:type="arc"
       transform="translate(51.372181,667.02116)" />
    <path
       sodipodi:nodetypes="csssssssssc"
       inkscape:connector-curvature="0"
       id="path3779"
       d="m 131.75719,826.48898 c 0,0 0,0 -2,0 -4,0 -2,-10 -6,-10 -4,0 -2,15.99999 -6,16 -4,0 -2,-16.00001 -6,-16 -4,0 -2,15.99999 -6,16 -4,0 -4,-16 -7.999998,-16 -4,0 -2,16 -6,16 -4,0 -2,-16 -6,-16 -4,0 -2.40989,10.00001 -6,10 -2,0 -2,0 -2,0"
       style="fill:none;stroke:#008000;stroke-width:1px;stroke-linecap:butt;stroke-linejoin:miter;stroke-opacity:1" />
    <path
       sodipodi:nodetypes="cc"
       inkscape:connector-curvature="0"
       id="path3781"
       d="m -3.028358,856.11141 c -4.69313,-18.47115 -12.476889,-36.35361 10,-60"
       style="fill:none;stroke:#d40000;stroke-width:1px;stroke-linecap:butt;stroke-linejoin:miter;stroke-opacity:1;marker-end:url(#Arrow2Lendp)" />
    <path
       sodipodi:nodetypes="cc"
       transform="translate(-63.028358,665.51153)"
       inkscape:connector-curvature="0"
       id="path3783"
       d="m 270,130.53571 c 14.33134,13.12625 17.13621,33.45653 10,60"
       style="fill:none;stroke:#d40000;stroke-width:1px;stroke-linecap:butt;stroke-linejoin:miter;stroke-opacity:1;marker-end:url(#Arrow2LendW)" />
    <path
       inkscape:connector-curvature="0"
       id="path3785"
       d="m 78.984476,786.04724 50.000004,0"
       style="fill:none;stroke:#008000;stroke-width:1px;stroke-linecap:butt;stroke-linejoin:miter;stroke-opacity:1;marker-start:url(#Arrow2LstartY);marker-end:url(#Arrow2LendP)" />
    <g
       id="g5162"
       transform="translate(22.644379,-2.5160421)">
      <path
         style="fill:none;stroke:#d40000;stroke-width:1px;stroke-linecap:butt;stroke-linejoin:miter;stroke-opacity:1"
         d="m 340,160.53571 0,-70.000004"
         id="path3787"
         inkscape:connector-curvature="0"
         transform="translate(-63.028358,665.51153)" />
      <path
         style="fill:none;stroke:#d40000;stroke-width:1px;stroke-linecap:butt;stroke-linejoin:miter;stroke-opacity:1;marker-end:url(#Arrow2Lendn)"
         d="m 327.98717,83.554957 c -38.29994,32.962573 55.17559,36.127123 25.53529,-0.567377"
         id="path3789"
         inkscape:connector-curvature="0"
         transform="translate(-63.028358,665.51153)"
         sodipodi:nodetypes="cc" />
    </g>
    <text
       xml:space="preserve"
       style="font-size:16px;font-style:normal;font-variant:normal;font-weight:500;font-stretch:normal;text-align:start;line-height:100%;letter-spacing:0px;word-spacing:0px;writing-mode:lr-tb;text-anchor:start;fill:#008000;fill-opacity:1;stroke:none;font-family:Rekha;-inkscape-font-specification:Rekha Medium"
       x="88.437363"
       y="766.57404"
       id="text5154"
       sodipodi:linespacing="100%"><tspan
         sodipodi:role="line"
         id="tspan5156"
         x="88.437363"
         y="766.57404">1 vib</tspan></text>
    <text
       xml:space="preserve"
       style="font-size:16px;font-style:normal;font-variant:normal;font-weight:500;font-stretch:normal;text-align:start;line-height:100%;letter-spacing:0px;word-spacing:0px;writing-mode:lr-tb;text-anchor:start;fill:#d40000;fill-opacity:1;stroke:none;font-family:Rekha;-inkscape-font-specification:Rekha Medium"
       x="232.35498"
       y="829.4751"
       id="text5158"
       sodipodi:linespacing="100%"><tspan
         sodipodi:role="line"
         id="tspan5160"
         x="232.35498"
         y="829.4751">2 rot</tspan></text>
  </g>
</svg>
