<?xml version="1.0" encoding="UTF-8" standalone="no"?>
<!-- Created with Inkscape (http://www.inkscape.org/) -->

<svg
   xmlns:dc="http://purl.org/dc/elements/1.1/"
   xmlns:cc="http://creativecommons.org/ns#"
   xmlns:rdf="http://www.w3.org/1999/02/22-rdf-syntax-ns#"
   xmlns:svg="http://www.w3.org/2000/svg"
   xmlns="http://www.w3.org/2000/svg"
   xmlns:sodipodi="http://sodipodi.sourceforge.net/DTD/sodipodi-0.dtd"
   xmlns:inkscape="http://www.inkscape.org/namespaces/inkscape"
   width="176.50046"
   height="183.64331"
   id="svg2"
   version="1.1"
   inkscape:version="0.48.4 r9939"
   sodipodi:docname="New document 12">
  <sodipodi:namedview
     id="base"
     pagecolor="#ffffff"
     bordercolor="#666666"
     borderopacity="1.0"
     inkscape:pageopacity="0.0"
     inkscape:pageshadow="2"
     inkscape:zoom="1.4"
     inkscape:cx="-14.96622"
     inkscape:cy="70.838964"
     inkscape:document-units="px"
     inkscape:current-layer="layer1"
     showgrid="true"
     units="in"
     width="11cm"
     inkscape:window-width="1274"
     inkscape:window-height="564"
     inkscape:window-x="0"
     inkscape:window-y="400"
     inkscape:window-maximized="0"
     fit-margin-top="0"
     fit-margin-left="0"
     fit-margin-right="0"
     fit-margin-bottom="0">
    <inkscape:grid
       type="xygrid"
       id="grid2984"
       empspacing="5"
       visible="true"
       enabled="true"
       snapvisiblegridlinesonly="true"
       spacingx="2px"
       spacingy="2px"
       originx="-179.96405px"
       originy="-147.8212px" />
  </sodipodi:namedview>
  <defs
     id="defs4">
    <marker
       style="overflow:visible"
       id="Arrow2Mend"
       refX="0"
       refY="0"
       orient="auto"
       inkscape:stockid="Arrow2Mend">
      <path
         transform="scale(-0.6,-0.6)"
         d="M 8.7185878,4.0337352 -2.2072895,0.01601326 8.7185884,-4.0017078 c -1.7454984,2.3720609 -1.7354408,5.6174519 -6e-7,8.035443 z"
         style="fill-rule:evenodd;stroke-width:0.625;stroke-linejoin:round"
         id="path3966"
         inkscape:connector-curvature="0" />
    </marker>
  </defs>
  <metadata
     id="metadata7">
    <rdf:RDF>
      <cc:Work
         rdf:about="">
        <dc:format>image/svg+xml</dc:format>
        <dc:type
           rdf:resource="http://purl.org/dc/dcmitype/StillImage" />
        <dc:title></dc:title>
      </cc:Work>
    </rdf:RDF>
  </metadata>
  <g
     transform="translate(-116.93569,-744.58272)"
     id="layer1"
     inkscape:groupmode="layer"
     inkscape:label="Layer 1">
    <path
       sodipodi:type="arc"
       style="fill:#48ff74;fill-opacity:1;fill-rule:nonzero;stroke:#48ff74;stroke-width:1.5;stroke-miterlimit:4;stroke-opacity:1;stroke-dasharray:none;stroke-dashoffset:0"
       id="path5310"
       sodipodi:cx="75"
       sodipodi:cy="185.53571"
       sodipodi:rx="15"
       sodipodi:ry="15"
       d="m 60.012394,186.14535 c -0.336697,-8.27743 6.100537,-15.26055 14.377963,-15.59725 8.277426,-0.3367 15.260553,6.10054 15.597249,14.37796 0.336697,8.27743 -6.100537,15.26056 -14.377963,15.59725 -8.269415,0.33637 -15.24871,-6.0885 -15.5964,-14.35745"
       transform="translate(57.685928,645.51153)"
       sodipodi:start="3.1009386"
       sodipodi:end="9.382755"
       sodipodi:open="true" />
    <path
       transform="translate(131.97164,574.79725)"
       sodipodi:type="arc"
       style="fill:#48ff74;fill-opacity:1;fill-rule:nonzero;stroke:#48ff74;stroke-width:1.5;stroke-miterlimit:4;stroke-opacity:1;stroke-dasharray:none;stroke-dashoffset:0"
       id="path5310-3"
       sodipodi:cx="75"
       sodipodi:cy="185.53571"
       sodipodi:rx="15"
       sodipodi:ry="15"
       d="m 60.012394,186.14535 c -0.336697,-8.27743 6.100537,-15.26055 14.377963,-15.59725 8.277426,-0.3367 15.260553,6.10054 15.597249,14.37796 0.336697,8.27743 -6.100537,15.26056 -14.377963,15.59725 -8.269415,0.33637 -15.24871,-6.0885 -15.5964,-14.35745"
       sodipodi:start="3.1009386"
       sodipodi:end="9.382755"
       sodipodi:open="true" />
    <path
       transform="translate(178.40021,592.65439)"
       sodipodi:type="arc"
       style="fill:#48ff74;fill-opacity:1;fill-rule:nonzero;stroke:#48ff74;stroke-width:1.5;stroke-miterlimit:4;stroke-opacity:1;stroke-dasharray:none;stroke-dashoffset:0"
       id="path5310-8"
       sodipodi:cx="75"
       sodipodi:cy="185.53571"
       sodipodi:rx="15"
       sodipodi:ry="15"
       d="m 60.012394,186.14535 c -0.336697,-8.27743 6.100537,-15.26055 14.377963,-15.59725 8.277426,-0.3367 15.260553,6.10054 15.597249,14.37796 0.336697,8.27743 -6.100537,15.26056 -14.377963,15.59725 -8.269415,0.33637 -15.24871,-6.0885 -15.5964,-14.35745"
       sodipodi:start="3.1009386"
       sodipodi:end="9.382755"
       sodipodi:open="true" />
    <path
       transform="translate(202.68592,649.08296)"
       sodipodi:type="arc"
       style="fill:#48ff74;fill-opacity:1;fill-rule:nonzero;stroke:#48ff74;stroke-width:1.5;stroke-miterlimit:4;stroke-opacity:1;stroke-dasharray:none;stroke-dashoffset:0"
       id="path5310-9"
       sodipodi:cx="75"
       sodipodi:cy="185.53571"
       sodipodi:rx="15"
       sodipodi:ry="15"
       d="m 60.012394,186.14535 c -0.336697,-8.27743 6.100537,-15.26055 14.377963,-15.59725 8.277426,-0.3367 15.260553,6.10054 15.597249,14.37796 0.336697,8.27743 -6.100537,15.26056 -14.377963,15.59725 -8.269415,0.33637 -15.24871,-6.0885 -15.5964,-14.35745"
       sodipodi:start="3.1009386"
       sodipodi:end="9.382755"
       sodipodi:open="true" />
    <path
       transform="translate(132.68593,726.9401)"
       sodipodi:type="arc"
       style="fill:#48ff74;fill-opacity:1;fill-rule:nonzero;stroke:#48ff74;stroke-width:1.5;stroke-miterlimit:4;stroke-opacity:1;stroke-dasharray:none;stroke-dashoffset:0"
       id="path5310-0"
       sodipodi:cx="75"
       sodipodi:cy="185.53571"
       sodipodi:rx="15"
       sodipodi:ry="15"
       d="m 60.012394,186.14535 c -0.336697,-8.27743 6.100537,-15.26055 14.377963,-15.59725 8.277426,-0.3367 15.260553,6.10054 15.597249,14.37796 0.336697,8.27743 -6.100537,15.26056 -14.377963,15.59725 -8.269415,0.33637 -15.24871,-6.0885 -15.5964,-14.35745"
       sodipodi:start="3.1009386"
       sodipodi:end="9.382755"
       sodipodi:open="true" />
    <path
       transform="translate(131.97164,650.51153)"
       sodipodi:type="arc"
       style="fill:#48ff74;fill-opacity:1;fill-rule:nonzero;stroke:#48ff74;stroke-width:1.5;stroke-miterlimit:4;stroke-opacity:1;stroke-dasharray:none;stroke-dashoffset:0"
       id="path5310-8-4"
       sodipodi:cx="75"
       sodipodi:cy="185.53571"
       sodipodi:rx="15"
       sodipodi:ry="15"
       d="m 60.012394,186.14535 c -0.336697,-8.27743 6.100537,-15.26055 14.377963,-15.59725 8.277426,-0.3367 15.260553,6.10054 15.597249,14.37796 0.336697,8.27743 -6.100537,15.26056 -14.377963,15.59725 -8.269415,0.33637 -15.24871,-6.0885 -15.5964,-14.35745"
       sodipodi:start="3.1009386"
       sodipodi:end="9.382755"
       sodipodi:open="true" />
    <path
       style="fill:none;stroke:#000000;stroke-width:2;stroke-linecap:butt;stroke-linejoin:miter;stroke-miterlimit:4;stroke-opacity:1;stroke-dasharray:none"
       d="m 270,100.53571 0,140"
       id="path5304"
       inkscape:connector-curvature="0"
       transform="translate(-63.028358,665.51153)"
       sodipodi:nodetypes="cc" />
    <path
       style="fill:none;stroke:#000000;stroke-width:2;stroke-linecap:butt;stroke-linejoin:miter;stroke-miterlimit:4;stroke-opacity:1;stroke-dasharray:none"
       d="m 200,170.53571 140,0"
       id="path5306"
       inkscape:connector-curvature="0"
       sodipodi:nodetypes="cc"
       transform="translate(-63.028358,665.51153)" />
    <path
       transform="translate(88.400214,704.08296)"
       sodipodi:type="arc"
       style="fill:#48ff74;fill-opacity:1;fill-rule:nonzero;stroke:#48ff74;stroke-width:1.5;stroke-miterlimit:4;stroke-opacity:1;stroke-dasharray:none;stroke-dashoffset:0"
       id="path5310-92"
       sodipodi:cx="75"
       sodipodi:cy="185.53571"
       sodipodi:rx="15"
       sodipodi:ry="15"
       d="m 60.012394,186.14535 c -0.336697,-8.27743 6.100537,-15.26055 14.377963,-15.59725 8.277426,-0.3367 15.260553,6.10054 15.597249,14.37796 0.336697,8.27743 -6.100537,15.26056 -14.377963,15.59725 -8.269415,0.33637 -15.24871,-6.0885 -15.5964,-14.35745"
       sodipodi:start="3.1009386"
       sodipodi:end="9.382755"
       sodipodi:open="true" />
    <path
       style="fill:none;stroke:#000000;stroke-width:2;stroke-linecap:butt;stroke-linejoin:miter;stroke-miterlimit:4;stroke-opacity:1;stroke-dasharray:none"
       d="m 310,120.53571 -80,100"
       id="path5308"
       inkscape:connector-curvature="0"
       transform="translate(-63.028358,665.51153)"
       sodipodi:nodetypes="cc" />
  </g>
</svg>
