<?xml version="1.0" encoding="UTF-8" standalone="no"?>
<!-- Created with Inkscape (http://www.inkscape.org/) -->

<svg
   xmlns:ns0="http://www.iki.fi/pav/software/textext/"
   xmlns:dc="http://purl.org/dc/elements/1.1/"
   xmlns:cc="http://creativecommons.org/ns#"
   xmlns:rdf="http://www.w3.org/1999/02/22-rdf-syntax-ns#"
   xmlns:svg="http://www.w3.org/2000/svg"
   xmlns="http://www.w3.org/2000/svg"
   xmlns:sodipodi="http://sodipodi.sourceforge.net/DTD/sodipodi-0.dtd"
   xmlns:inkscape="http://www.inkscape.org/namespaces/inkscape"
   width="256.15625"
   height="309.76456"
   id="svg2"
   version="1.1"
   inkscape:version="0.48.4 r9939"
   sodipodi:docname="New document 1">
  <sodipodi:namedview
     id="base"
     pagecolor="#ffffff"
     bordercolor="#666666"
     borderopacity="1.0"
     inkscape:pageopacity="0.0"
     inkscape:pageshadow="2"
     inkscape:zoom="1.4"
     inkscape:cx="161.16751"
     inkscape:cy="223.49472"
     inkscape:document-units="px"
     inkscape:current-layer="layer1"
     showgrid="true"
     units="in"
     width="11cm"
     inkscape:window-width="703"
     inkscape:window-height="964"
     inkscape:window-x="607"
     inkscape:window-y="0"
     inkscape:window-maximized="0"
     fit-margin-top="0"
     fit-margin-left="0"
     fit-margin-right="0"
     fit-margin-bottom="0">
    <inkscape:grid
       spacingy="2px"
       spacingx="2px"
       snapvisiblegridlinesonly="true"
       enabled="true"
       visible="true"
       empspacing="5"
       id="grid2984"
       type="xygrid"
       originx="-120px"
       originy="-70.735434px" />
  </sodipodi:namedview>
  <defs
     id="defs4">
    <marker
       inkscape:stockid="Arrow2Mend"
       orient="auto"
       refY="0"
       refX="0"
       id="Arrow2Mend"
       style="overflow:visible">
      <path
         inkscape:connector-curvature="0"
         id="path3966"
         style="fill-rule:evenodd;stroke-width:0.625;stroke-linejoin:round"
         d="M 8.7185878,4.0337352 -2.2072895,0.01601326 8.7185884,-4.0017078 c -1.7454984,2.3720609 -1.7354408,5.6174519 -6e-7,8.035443 z"
         transform="scale(-0.6,-0.6)" />
    </marker>
  </defs>
  <metadata
     id="metadata7">
    <rdf:RDF>
      <cc:Work
         rdf:about="">
        <dc:format>image/svg+xml</dc:format>
        <dc:type
           rdf:resource="http://purl.org/dc/dcmitype/StillImage" />
        <dc:title></dc:title>
      </cc:Work>
    </rdf:RDF>
  </metadata>
  <g
     inkscape:label="Layer 1"
     inkscape:groupmode="layer"
     id="layer1"
     transform="translate(-56.971642,-695.54724)">
    <rect
       transform="translate(-63.028358,665.51153)"
       y="30.535706"
       x="140"
       height="270"
       width="230"
       id="rect2985"
       style="fill:none;stroke:#000000;stroke-width:1;stroke-miterlimit:4;stroke-opacity:1;stroke-dasharray:none;stroke-dashoffset:0" />
    <path
       sodipodi:nodetypes="cc"
       transform="translate(-63.028358,665.51153)"
       inkscape:connector-curvature="0"
       id="path2987"
       d="m 140,120.53571 230,0"
       style="fill:none;stroke:#b3b3b3;stroke-width:1px;stroke-linecap:butt;stroke-linejoin:miter;stroke-opacity:1" />
    <path
       sodipodi:open="true"
       sodipodi:end="9.3690911"
       sodipodi:start="3.1009386"
       transform="translate(27.328785,643.01153)"
       d="m 170.00413,225.73892 c -0.11223,-2.75914 2.03351,-5.08685 4.79266,-5.19908 2.75914,-0.11224 5.08685,2.03351 5.19908,4.79265 0.11223,2.75914 -2.03351,5.08685 -4.79266,5.19908 -2.72985,0.11105 -5.0434,-1.98969 -5.19546,-4.71757"
       sodipodi:ry="5"
       sodipodi:rx="5"
       sodipodi:cy="225.53571"
       sodipodi:cx="175"
       id="path3013"
       style="fill:#3aebe6;fill-opacity:1;stroke:none"
       sodipodi:type="arc" />
    <path
       sodipodi:nodetypes="cc"
       transform="translate(-63.028358,665.51153)"
       inkscape:connector-curvature="0"
       id="path2989"
       d="M 140,120.53571 C 204.74442,199.94882 290.09281,292.172 370,40.535706"
       style="fill:none;stroke:#d40000;stroke-width:1px;stroke-linecap:butt;stroke-linejoin:miter;stroke-opacity:1" />
    <path
       sodipodi:open="true"
       sodipodi:end="9.3690911"
       sodipodi:start="3.1009386"
       transform="translate(67.32878,628.36867)"
       d="m 170.00413,225.73892 c -0.11223,-2.75914 2.03351,-5.08685 4.79266,-5.19908 2.75914,-0.11224 5.08685,2.03351 5.19908,4.79265 0.11223,2.75914 -2.03351,5.08685 -4.79266,5.19908 -2.72985,0.11105 -5.0434,-1.98969 -5.19546,-4.71757"
       sodipodi:ry="5"
       sodipodi:rx="5"
       sodipodi:cy="225.53571"
       sodipodi:cx="175"
       id="path3013-2"
       style="fill:#3aeb68;fill-opacity:1;stroke:none"
       sodipodi:type="arc" />
    <path
       sodipodi:nodetypes="cc"
       transform="translate(-63.028358,665.51153)"
       inkscape:connector-curvature="0"
       id="path2991"
       d="M 140,80.535706 C 195.44821,153.79341 290.77505,267.58959 370,120.53571"
       style="fill:none;stroke:#0000ff;stroke-width:1px;stroke-linecap:butt;stroke-linejoin:miter;stroke-opacity:1" />
    <text
       sodipodi:linespacing="100%"
       id="text2993"
       y="986.04724"
       x="76.971642"
       style="font-size:16px;font-style:normal;font-variant:normal;font-weight:500;font-stretch:normal;text-align:start;line-height:100%;letter-spacing:0px;word-spacing:0px;writing-mode:lr-tb;text-anchor:start;fill:#000000;fill-opacity:1;stroke:none;font-family:Rekha;-inkscape-font-specification:Rekha Medium"
       xml:space="preserve"><tspan
         y="986.04724"
         x="76.971642"
         id="tspan2995"
         sodipodi:role="line">0</tspan></text>
    <text
       sodipodi:linespacing="100%"
       id="text2997"
       y="986.04724"
       x="306.97165"
       style="font-size:16px;font-style:normal;font-variant:normal;font-weight:500;font-stretch:normal;text-align:start;line-height:100%;letter-spacing:0px;word-spacing:0px;writing-mode:lr-tb;text-anchor:start;fill:#000000;fill-opacity:1;stroke:none;font-family:Rekha;-inkscape-font-specification:Rekha Medium"
       xml:space="preserve"><tspan
         y="986.04724"
         x="306.97165"
         id="tspan2999"
         sodipodi:role="line">1</tspan></text>
    <text
       transform="translate(-63.028358,665.51153)"
       sodipodi:linespacing="100%"
       id="text3001"
       y="125.53571"
       x="122.85714"
       style="font-size:16px;font-style:normal;font-variant:normal;font-weight:500;font-stretch:normal;text-align:start;line-height:100%;letter-spacing:0px;word-spacing:0px;writing-mode:lr-tb;text-anchor:start;fill:#000000;fill-opacity:1;stroke:none;font-family:Rekha;-inkscape-font-specification:Rekha Medium"
       xml:space="preserve"><tspan
         y="125.53571"
         x="122.85714"
         id="tspan3003"
         sodipodi:role="line">0</tspan></text>
    <text
       sodipodi:linespacing="100%"
       id="text3005"
       y="706.04724"
       x="56.971642"
       style="font-size:16px;font-style:normal;font-variant:normal;font-weight:500;font-stretch:normal;text-align:start;line-height:100%;letter-spacing:0px;word-spacing:0px;writing-mode:lr-tb;text-anchor:start;fill:#000000;fill-opacity:1;stroke:none;font-family:Rekha;-inkscape-font-specification:Rekha Medium"
       xml:space="preserve"><tspan
         y="706.04724"
         x="56.971642"
         id="tspan3007"
         sodipodi:role="line">+</tspan></text>
    <text
       sodipodi:linespacing="100%"
       id="text3009"
       y="956.04724"
       x="56.971642"
       style="font-size:16px;font-style:normal;font-variant:normal;font-weight:500;font-stretch:normal;text-align:start;line-height:100%;letter-spacing:0px;word-spacing:0px;writing-mode:lr-tb;text-anchor:start;fill:#000000;fill-opacity:1;stroke:none;font-family:Rekha;-inkscape-font-specification:Rekha Medium"
       xml:space="preserve"><tspan
         y="956.04724"
         x="56.971642"
         id="tspan3011"
         sodipodi:role="line">_</tspan></text>
    <path
       sodipodi:open="true"
       sodipodi:end="9.3690911"
       sodipodi:start="3.1009386"
       transform="matrix(0.3939179,0,0,0.3939179,182.94082,733.51422)"
       d="m 310.00413,235.73892 c -0.11223,-2.75914 2.03351,-5.08685 4.79266,-5.19908 2.75914,-0.11224 5.08685,2.03351 5.19908,4.79265 0.11223,2.75914 -2.03351,5.08685 -4.79266,5.19908 -2.72985,0.11105 -5.0434,-1.98969 -5.19546,-4.71757"
       sodipodi:ry="5"
       sodipodi:rx="5"
       sodipodi:cy="235.53571"
       sodipodi:cx="315"
       id="path3807"
       style="fill:#000000;fill-opacity:1;fill-rule:nonzero;stroke:none"
       sodipodi:type="arc" />
    <path
       sodipodi:open="true"
       sodipodi:end="9.3690911"
       sodipodi:start="3.1009386"
       transform="matrix(0.3939179,0,0,0.3939179,-47.564256,832.90762)"
       d="m 310.00413,235.73892 c -0.11223,-2.75914 2.03351,-5.08685 4.79266,-5.19908 2.75914,-0.11224 5.08685,2.03351 5.19908,4.79265 0.11223,2.75914 -2.03351,5.08685 -4.79266,5.19908 -2.72985,0.11105 -5.0434,-1.98969 -5.19546,-4.71757"
       sodipodi:ry="5"
       sodipodi:rx="5"
       sodipodi:cy="235.53571"
       sodipodi:cx="315"
       id="path3807-0"
       style="fill:#000000;fill-opacity:1;fill-rule:nonzero;stroke:none"
       sodipodi:type="arc" />
    <g
       ns0:preamble=""
       ns0:text="$\\mathrm{X_2}$"
       word-spacing="normal"
       letter-spacing="normal"
       font-size-adjust="none"
       font-stretch="normal"
       font-weight="normal"
       font-variant="normal"
       font-style="normal"
       stroke-miterlimit="10.433"
       xml:space="preserve"
       transform="matrix(1.730897,0,0,-1.730897,-194.9083,2140.3302)"
       id="content"
       style="font-style:normal;font-variant:normal;font-weight:normal;font-stretch:normal;letter-spacing:normal;word-spacing:normal;text-anchor:start;fill:none;stroke:#000000;stroke-linecap:butt;stroke-linejoin:miter;stroke-miterlimit:10.43299961;stroke-opacity:1;stroke-dasharray:none;stroke-dashoffset:0"><path
         id="path3854"
         d="m 227.43,661.07 1.36,2 c 0.22,0.31 0.56,0.63 1.45,0.64 v 0.31 c -0.39,-0.01 -0.86,-0.03 -1.11,-0.03 -0.39,0 -0.87,0 -1.27,0.03 v -0.31 c 0.4,-0.01 0.62,-0.23 0.62,-0.45 0,-0.1 -0.02,-0.12 -0.09,-0.23 l -1.14,-1.68 -1.28,1.92 c -0.02,0.02 -0.07,0.1 -0.07,0.14 0,0.12 0.22,0.29 0.65,0.3 v 0.31 c -0.35,-0.03 -1.08,-0.03 -1.46,-0.03 -0.3,0 -0.92,0.01 -1.29,0.03 v -0.31 h 0.19 c 0.55,0 0.74,-0.07 0.92,-0.35 l 1.83,-2.76 -1.63,-2.4 c -0.14,-0.2 -0.43,-0.66 -1.44,-0.66 v -0.31 c 0.36,0.01 0.78,0.04 1.1,0.04 0.37,0 0.92,0 1.28,-0.04 v 0.31 c -0.46,0.01 -0.63,0.28 -0.63,0.46 0,0.09 0.03,0.13 0.1,0.24 l 1.41,2.08 1.58,-2.37 c 0.02,-0.04 0.05,-0.08 0.05,-0.11 0,-0.12 -0.22,-0.29 -0.65,-0.3 v -0.31 c 0.35,0.04 1.07,0.04 1.45,0.04 0.42,0 0.88,-0.01 1.29,-0.04 v 0.31 h -0.18 c -0.52,0 -0.73,0.05 -0.94,0.36 z"
         inkscape:connector-curvature="0"
         style="fill:#000000;stroke-width:0" /><path
         id="path3856"
         d="m 234.42,657.01 h -0.24 c -0.02,-0.16 -0.09,-0.57 -0.18,-0.64 -0.05,-0.04 -0.59,-0.04 -0.69,-0.04 h -1.28 c 0.73,0.65 0.98,0.84 1.4,1.17 0.51,0.41 0.99,0.84 0.99,1.5 0,0.84 -0.74,1.36 -1.63,1.36 -0.86,0 -1.45,-0.61 -1.45,-1.25 0,-0.35 0.3,-0.39 0.37,-0.39 0.17,0 0.37,0.12 0.37,0.37 0,0.13 -0.05,0.37 -0.41,0.37 0.22,0.5 0.69,0.65 1.02,0.65 0.69,0 1.05,-0.54 1.05,-1.11 0,-0.6 -0.43,-1.08 -0.65,-1.33 l -1.68,-1.66 c -0.07,-0.06 -0.07,-0.07 -0.07,-0.27 h 2.87 z"
         inkscape:connector-curvature="0"
         style="fill:#000000;stroke-width:0" /></g>  </g>
</svg>
