<?xml version="1.0" encoding="UTF-8" standalone="no"?>
<!-- Created with Inkscape (http://www.inkscape.org/) -->

<svg
   xmlns:ns0="http://www.iki.fi/pav/software/textext/"
   xmlns:dc="http://purl.org/dc/elements/1.1/"
   xmlns:cc="http://creativecommons.org/ns#"
   xmlns:rdf="http://www.w3.org/1999/02/22-rdf-syntax-ns#"
   xmlns:svg="http://www.w3.org/2000/svg"
   xmlns="http://www.w3.org/2000/svg"
   xmlns:sodipodi="http://sodipodi.sourceforge.net/DTD/sodipodi-0.dtd"
   xmlns:inkscape="http://www.inkscape.org/namespaces/inkscape"
   width="436.64505"
   height="235.2749"
   id="svg2"
   version="1.1"
   inkscape:version="0.48.4 r9939"
   sodipodi:docname="logPgraph.svg">
  <sodipodi:namedview
     id="base"
     pagecolor="#ffffff"
     bordercolor="#666666"
     borderopacity="1.0"
     inkscape:pageopacity="0.0"
     inkscape:pageshadow="2"
     inkscape:zoom="1.4"
     inkscape:cx="164.69203"
     inkscape:cy="83.249621"
     inkscape:document-units="px"
     inkscape:current-layer="layer1"
     showgrid="true"
     units="in"
     width="11cm"
     inkscape:window-width="1274"
     inkscape:window-height="536"
     inkscape:window-x="0"
     inkscape:window-y="428"
     inkscape:window-maximized="0"
     fit-margin-top="0"
     fit-margin-left="0"
     fit-margin-right="0"
     fit-margin-bottom="0"
     inkscape:snap-grids="false">
    <inkscape:grid
       type="xygrid"
       id="grid2984"
       empspacing="5"
       visible="true"
       enabled="true"
       snapvisiblegridlinesonly="true"
       spacingx="2px"
       spacingy="2px"
       originx="-0.30580093px"
       originy="-123.32111px" />
  </sodipodi:namedview>
  <defs
     id="defs4">
    <marker
       inkscape:stockid="Arrow2Lstart"
       orient="auto"
       refY="0"
       refX="0"
       id="Arrow2Lstart"
       style="overflow:visible">
      <path
         id="path3898"
         style="fill-rule:evenodd;stroke-width:0.625;stroke-linejoin:round"
         d="M 8.7185878,4.0337352 -2.2072895,0.01601326 8.7185884,-4.0017078 c -1.7454984,2.3720609 -1.7354408,5.6174519 -6e-7,8.035443 z"
         transform="matrix(1.1,0,0,1.1,1.1,0)"
         inkscape:connector-curvature="0" />
    </marker>
    <marker
       inkscape:stockid="Arrow2Lend"
       orient="auto"
       refY="0"
       refX="0"
       id="Arrow2Lend"
       style="overflow:visible">
      <path
         id="path3901"
         style="fill-rule:evenodd;stroke-width:0.625;stroke-linejoin:round"
         d="M 8.7185878,4.0337352 -2.2072895,0.01601326 8.7185884,-4.0017078 c -1.7454984,2.3720609 -1.7354408,5.6174519 -6e-7,8.035443 z"
         transform="matrix(-1.1,0,0,-1.1,-1.1,0)"
         inkscape:connector-curvature="0" />
    </marker>
    <marker
       style="overflow:visible"
       id="Arrow2Mend"
       refX="0"
       refY="0"
       orient="auto"
       inkscape:stockid="Arrow2Mend">
      <path
         transform="scale(-0.6,-0.6)"
         d="M 8.7185878,4.0337352 -2.2072895,0.01601326 8.7185884,-4.0017078 c -1.7454984,2.3720609 -1.7354408,5.6174519 -6e-7,8.035443 z"
         style="fill-rule:evenodd;stroke-width:0.625;stroke-linejoin:round"
         id="path3966"
         inkscape:connector-curvature="0" />
    </marker>
    <marker
       inkscape:stockid="Arrow2LstartM"
       orient="auto"
       refY="0"
       refX="0"
       id="Arrow2LstartM"
       style="overflow:visible">
      <path
         id="path13615"
         style="fill:#008000;fill-rule:evenodd;stroke:#008000;stroke-width:0.625;stroke-linejoin:round"
         d="M 8.7185878,4.0337352 -2.2072895,0.01601326 8.7185884,-4.0017078 c -1.7454984,2.3720609 -1.7354408,5.6174519 -6e-7,8.035443 z"
         transform="matrix(1.1,0,0,1.1,1.1,0)"
         inkscape:connector-curvature="0" />
    </marker>
    <marker
       inkscape:stockid="Arrow2LendG"
       orient="auto"
       refY="0"
       refX="0"
       id="Arrow2LendG"
       style="overflow:visible">
      <path
         id="path13618"
         style="fill:#000080;fill-rule:evenodd;stroke:#000080;stroke-width:0.625;stroke-linejoin:round"
         d="M 8.7185878,4.0337352 -2.2072895,0.01601326 8.7185884,-4.0017078 c -1.7454984,2.3720609 -1.7354408,5.6174519 -6e-7,8.035443 z"
         transform="matrix(-1.1,0,0,-1.1,-1.1,0)"
         inkscape:connector-curvature="0" />
    </marker>
  </defs>
  <metadata
     id="metadata7">
    <rdf:RDF>
      <cc:Work
         rdf:about="">
        <dc:format>image/svg+xml</dc:format>
        <dc:type
           rdf:resource="http://purl.org/dc/dcmitype/StillImage" />
        <dc:title />
      </cc:Work>
    </rdf:RDF>
  </metadata>
  <g
     transform="translate(62.722557,-717.45123)"
     id="layer1"
     inkscape:groupmode="layer"
     inkscape:label="Layer 1">
    <path
       style="fill:none;stroke:#06f02c;stroke-width:5;stroke-linecap:butt;stroke-linejoin:miter;stroke-miterlimit:4;stroke-opacity:1;stroke-dasharray:none"
       d="m 46.257356,926.04724 100.000004,-170"
       id="path11947"
       inkscape:connector-curvature="0" />
    <rect
       style="fill:none;stroke:#000000;stroke-width:1;stroke-miterlimit:4;stroke-opacity:1;stroke-dasharray:none;stroke-dashoffset:0"
       id="rect11913"
       width="180"
       height="170"
       x="80"
       y="90.535706"
       transform="translate(-63.028358,665.51153)" />
    <path
       style="opacity:0.61999996;fill:none;stroke:#00fff7;stroke-width:5;stroke-linecap:butt;stroke-linejoin:miter;stroke-miterlimit:4;stroke-opacity:1;stroke-dasharray:none;marker-mid:none"
       d="m 86.971642,856.04724 0,-100.00001"
       id="path12467"
       inkscape:connector-curvature="0" />
    <path
       style="fill:none;stroke:#000000;stroke-width:1px;stroke-linecap:butt;stroke-linejoin:miter;stroke-opacity:1"
       d="M 46.257356,926.76153 146.25736,756.76152"
       id="path11915"
       inkscape:connector-curvature="0" />
    <path
       style="fill:none;stroke:#000000;stroke-width:1px;stroke-linecap:butt;stroke-linejoin:miter;stroke-opacity:1"
       d="M 150,190.53571 150,90.535706"
       id="path11917"
       inkscape:connector-curvature="0"
       transform="translate(-63.028358,665.51153)"
       sodipodi:nodetypes="cc" />
    <text
       xml:space="preserve"
       style="font-size:24px;font-style:normal;font-variant:normal;font-weight:500;font-stretch:normal;text-align:start;line-height:100%;letter-spacing:0px;word-spacing:0px;writing-mode:lr-tb;text-anchor:start;fill:#000000;fill-opacity:1;stroke:none;font-family:Rekha;-inkscape-font-specification:Rekha Medium"
       x="104.28571"
       y="165.53571"
       id="text11919"
       sodipodi:linespacing="100%"
       transform="translate(-63.028358,665.51153)"><tspan
         sodipodi:role="line"
         id="tspan11921"
         x="104.28571"
         y="165.53571">S</tspan></text>
    <text
       xml:space="preserve"
       style="font-size:24px;font-style:normal;font-variant:normal;font-weight:500;font-stretch:normal;text-align:start;line-height:100%;letter-spacing:0px;word-spacing:0px;writing-mode:lr-tb;text-anchor:start;fill:#000000;fill-opacity:1;stroke:none;font-family:Rekha;-inkscape-font-specification:Rekha Medium"
       x="164.28571"
       y="128.39285"
       id="text11923"
       sodipodi:linespacing="100%"
       transform="translate(-63.028358,665.51153)"><tspan
         sodipodi:role="line"
         id="tspan11925"
         x="164.28571"
         y="128.39285">L</tspan></text>
    <text
       xml:space="preserve"
       style="font-size:24px;font-style:normal;font-variant:normal;font-weight:500;font-stretch:normal;text-align:start;line-height:100%;letter-spacing:0px;word-spacing:0px;writing-mode:lr-tb;text-anchor:start;fill:#000000;fill-opacity:1;stroke:none;font-family:Rekha;-inkscape-font-specification:Rekha Medium"
       x="190.71429"
       y="171.96428"
       id="text11927"
       sodipodi:linespacing="100%"
       transform="translate(-63.028358,665.51153)"><tspan
         sodipodi:role="line"
         id="tspan11929"
         x="190.71429"
         y="171.96428">V</tspan></text>
    <text
       xml:space="preserve"
       style="font-size:16px;font-style:normal;font-variant:normal;font-weight:500;font-stretch:normal;text-align:start;line-height:100%;letter-spacing:0px;word-spacing:0px;writing-mode:lr-tb;text-anchor:start;fill:#000000;fill-opacity:1;stroke:none;font-family:Rekha;-inkscape-font-specification:Rekha Medium"
       x="63.57143"
       y="93.392845"
       id="text11931"
       sodipodi:linespacing="100%"
       transform="translate(-63.028358,665.51153)"><tspan
         sodipodi:role="line"
         id="tspan11933"
         x="63.57143"
         y="93.392845" /></text>
    <text
       xml:space="preserve"
       style="font-size:16px;font-style:normal;font-variant:normal;font-weight:500;font-stretch:normal;text-align:start;line-height:100%;letter-spacing:0px;word-spacing:0px;writing-mode:lr-tb;text-anchor:start;fill:#000000;fill-opacity:1;stroke:none;font-family:Rekha;-inkscape-font-specification:Rekha Medium"
       x="70"
       y="99.107132"
       id="text11935"
       sodipodi:linespacing="100%"
       transform="translate(-63.028358,665.51153)"><tspan
         sodipodi:role="line"
         id="tspan11937"
         x="70"
         y="99.107132" /></text>
    <text
       xml:space="preserve"
       style="font-size:16px;font-style:normal;font-variant:normal;font-weight:500;font-stretch:normal;text-align:start;line-height:100%;letter-spacing:0px;word-spacing:0px;writing-mode:lr-tb;text-anchor:start;fill:#000000;fill-opacity:1;stroke:none;font-family:Rekha;-inkscape-font-specification:Rekha Medium"
       x="0.54307061"
       y="763.90436"
       id="text11939"
       sodipodi:linespacing="100%"><tspan
         sodipodi:role="line"
         id="tspan11941"
         x="0.54307061"
         y="763.90436">0</tspan></text>
    <text
       xml:space="preserve"
       style="font-size:16px;font-style:normal;font-variant:normal;font-weight:500;font-stretch:normal;text-align:start;line-height:100%;letter-spacing:0px;word-spacing:0px;writing-mode:lr-tb;text-anchor:start;fill:#000000;fill-opacity:1;stroke:none;font-family:Rekha;-inkscape-font-specification:Rekha Medium"
       x="-9.4569283"
       y="931.76147"
       id="text11943"
       sodipodi:linespacing="100%"><tspan
         sodipodi:role="line"
         id="tspan11945"
         x="-9.4569283"
         y="931.76147">-10</tspan></text>
    <path
       style="fill:none;stroke:#000000;stroke-width:1px;stroke-linecap:butt;stroke-linejoin:miter;stroke-opacity:1"
       d="m 11.971642,758.90438 10,0"
       id="path12856"
       inkscape:connector-curvature="0" />
    <path
       style="fill:none;stroke:#000080;stroke-width:1px;stroke-linecap:butt;stroke-linejoin:miter;stroke-opacity:1;marker-end:url(#Arrow2LendG)"
       d="m 108.57143,68.392848 c 3.53803,53.036002 18.15626,59.904482 32.85714,66.428572"
       id="path12858"
       inkscape:connector-curvature="0"
       transform="translate(-63.028358,665.51153)"
       sodipodi:nodetypes="cc" />
    <path
       style="fill:none;stroke:#008000;stroke-width:1px;stroke-linecap:butt;stroke-linejoin:miter;stroke-opacity:1;marker-start:url(#Arrow2LstartM);marker-end:none"
       d="m 200,130.53571 c 34.51473,-0.85907 69.45427,-0.51449 92.85714,-32.857147"
       id="path12860"
       inkscape:connector-curvature="0"
       transform="translate(-63.028358,665.51153)"
       sodipodi:nodetypes="cc" />
    <g
       ns0:preamble=""
       ns0:text="$\\mathrm{T_m}$"
       word-spacing="normal"
       letter-spacing="normal"
       font-size-adjust="none"
       font-stretch="normal"
       font-weight="normal"
       font-variant="normal"
       font-style="normal"
       stroke-miterlimit="10.433"
       xml:space="preserve"
       transform="matrix(1.600699,0,0,-1.600699,-280.859,1798.1258)"
       id="content"
       style="font-style:normal;font-variant:normal;font-weight:normal;font-stretch:normal;letter-spacing:normal;word-spacing:normal;text-anchor:start;fill:none;stroke:#000000;stroke-linecap:butt;stroke-linejoin:miter;stroke-miterlimit:10.43299961;stroke-opacity:1;stroke-dasharray:none;stroke-dashoffset:0"><path
         id="path3119"
         d="m 230.06,663.96 h -6.08 l -0.19,-2.24 h 0.25 c 0.14,1.6 0.29,1.93 1.79,1.93 0.18,0 0.44,0 0.54,-0.02 0.21,-0.04 0.21,-0.15 0.21,-0.37 v -5.24 c 0,-0.34 0,-0.48 -1.05,-0.48 h -0.4 v -0.31 c 0.41,0.04 1.43,0.04 1.88,0.04 0.46,0 1.49,0 1.89,-0.04 v 0.31 h -0.39 c -1.05,0 -1.05,0.14 -1.05,0.48 v 5.24 c 0,0.19 0,0.33 0.18,0.37 0.11,0.02 0.38,0.02 0.57,0.02 1.5,0 1.65,-0.33 1.79,-1.93 h 0.25 z"
         inkscape:connector-curvature="0"
         style="fill:#000000;stroke-width:0" /><path
         id="path3121"
         d="m 236.35,657.85 0,0.05 0,0.06 -0.01,0.05 0,0.05 -0.01,0.05 -0.01,0.05 -0.01,0.05 -0.02,0.04 -0.01,0.05 -0.02,0.04 -0.02,0.04 -0.02,0.04 -0.03,0.03 -0.02,0.04 -0.03,0.03 -0.03,0.03 -0.03,0.03 -0.04,0.03 -0.04,0.03 -0.03,0.02 -0.05,0.03 -0.04,0.02 -0.05,0.02 -0.05,0.01 -0.05,0.02 -0.05,0.01 -0.06,0.01 -0.05,0.01 -0.07,0.01 -0.06,0 -0.06,0.01 -0.07,0 c -0.55,0 -0.93,-0.3 -1.12,-0.65 -0.14,0.5 -0.51,0.65 -1.02,0.65 -0.57,0 -0.94,-0.32 -1.14,-0.68 h 0 v 0.68 L 231,658.73 v -0.25 c 0.47,0 0.52,-0.05 0.52,-0.39 v -1.8 c 0,-0.3 -0.06,-0.3 -0.52,-0.3 v -0.25 c 0.02,0 0.51,0.03 0.8,0.03 0.25,0 0.74,-0.02 0.8,-0.03 v 0.25 c -0.45,0 -0.52,0 -0.52,0.3 v 1.25 c 0,0.73 0.57,1.07 1.03,1.07 0.49,0 0.55,-0.38 0.55,-0.73 v -1.59 c 0,-0.3 -0.07,-0.3 -0.52,-0.3 v -0.25 c 0.01,0 0.5,0.03 0.79,0.03 0.26,0 0.74,-0.02 0.81,-0.03 v 0.25 c -0.46,0 -0.53,0 -0.53,0.3 v 1.25 c 0,0.73 0.58,1.07 1.04,1.07 0.49,0 0.55,-0.38 0.55,-0.73 v -1.59 c 0,-0.3 -0.07,-0.3 -0.52,-0.3 v -0.25 c 0.01,0 0.5,0.03 0.79,0.03 0.26,0 0.74,-0.02 0.8,-0.03 v 0.25 c -0.45,0 -0.52,0 -0.52,0.3 z"
         inkscape:connector-curvature="0"
         style="fill:#000000;stroke-width:0" /></g>    <g
       id="g3227"
       transform="matrix(1.600699,0,0,-1.600699,-225.28878,1798.697)"
       xml:space="preserve"
       stroke-miterlimit="10.433"
       font-style="normal"
       font-variant="normal"
       font-weight="normal"
       font-stretch="normal"
       font-size-adjust="none"
       letter-spacing="normal"
       word-spacing="normal"
       ns0:text="$\\mathrm{T_v}$"
       ns0:preamble=""
       style="font-style:normal;font-variant:normal;font-weight:normal;font-stretch:normal;letter-spacing:normal;word-spacing:normal;text-anchor:start;fill:none;stroke:#000000;stroke-linecap:butt;stroke-linejoin:miter;stroke-miterlimit:10.43299961;stroke-opacity:1;stroke-dasharray:none;stroke-dashoffset:0"><path
         style="fill:#000000;stroke-width:0"
         inkscape:connector-curvature="0"
         d="m 230.06,663.96 h -6.08 l -0.19,-2.24 h 0.25 c 0.14,1.6 0.29,1.93 1.79,1.93 0.18,0 0.44,0 0.54,-0.02 0.21,-0.04 0.21,-0.15 0.21,-0.37 v -5.24 c 0,-0.34 0,-0.48 -1.05,-0.48 h -0.4 v -0.31 c 0.41,0.04 1.43,0.04 1.88,0.04 0.46,0 1.49,0 1.89,-0.04 v 0.31 h -0.39 c -1.05,0 -1.05,0.14 -1.05,0.48 v 5.24 c 0,0.19 0,0.33 0.18,0.37 0.11,0.02 0.38,0.02 0.57,0.02 1.5,0 1.65,-0.33 1.79,-1.93 h 0.25 z"
         id="path3229" /><path
         style="fill:#000000;stroke-width:0"
         inkscape:connector-curvature="0"
         d="m 233.93,658.06 0.01,0.02 0.01,0.02 0.01,0.01 0.01,0.02 0.01,0.02 0.01,0.02 0.02,0.03 0.02,0.03 0.02,0.02 0.02,0.03 0.03,0.02 0.02,0.02 0.02,0.02 0.03,0.02 0.02,0.02 0.03,0.01 0.02,0.02 0.02,0.01 0.03,0.01 0.02,0.01 0.02,0.01 0.03,0.01 0.02,0 0.02,0.01 0.02,0 0.02,0.01 0.02,0 0.02,0 0.02,0 0.01,0.01 0.02,0 0.02,0 0.01,0 0.01,0 0.01,0 v 0.25 c -0.17,-0.02 -0.35,-0.03 -0.53,-0.03 -0.18,0 -0.44,0.01 -0.63,0.03 v -0.25 c 0.29,-0.02 0.29,-0.25 0.29,-0.27 0,-0.03 0,-0.1 -0.05,-0.2 l -0.79,-1.72 -0.86,1.9 c 0,0 -0.05,0.08 -0.05,0.13 0,0.16 0.24,0.16 0.36,0.16 v 0.25 c -0.01,0 -0.51,-0.03 -0.8,-0.03 -0.2,0 -0.48,0.01 -0.68,0.03 v -0.25 c 0.39,0 0.47,-0.02 0.57,-0.25 l 1.1,-2.42 c 0.04,-0.09 0.08,-0.15 0.2,-0.15 0.13,0 0.16,0.06 0.19,0.14 z"
         id="path3231" /></g>    <text
       sodipodi:linespacing="100%"
       id="text3275"
       y="728.90436"
       x="24.828781"
       style="font-size:16px;font-style:normal;font-variant:normal;font-weight:500;font-stretch:normal;text-align:start;line-height:100%;letter-spacing:0px;word-spacing:0px;writing-mode:lr-tb;text-anchor:start;fill:#000080;fill-opacity:1;stroke:none;font-family:Rekha;-inkscape-font-specification:Rekha Medium"
       xml:space="preserve"><tspan
         y="728.90436"
         x="24.828781"
         id="tspan3277"
         sodipodi:role="line">dP/dT</tspan></text>
    <text
       sodipodi:linespacing="100%"
       id="text3279"
       y="744.61865"
       x="180.54308"
       style="font-size:16px;font-style:normal;font-variant:normal;font-weight:500;font-stretch:normal;text-align:start;line-height:100%;letter-spacing:0px;word-spacing:0px;writing-mode:lr-tb;text-anchor:start;fill:#c8ab37;fill-opacity:1;stroke:none;font-family:Rekha;-inkscape-font-specification:Rekha Medium"
       xml:space="preserve"><tspan
         style="font-size:18px;fill:#c8ab37"
         y="744.61865"
         x="180.54308"
         id="tspan3281"
         sodipodi:role="line">Cu</tspan></text>
    <text
       sodipodi:linespacing="100%"
       id="text3283"
       y="782.47583"
       x="-64.456932"
       style="font-size:16px;font-style:normal;font-variant:normal;font-weight:500;font-stretch:normal;text-align:start;line-height:100%;letter-spacing:0px;word-spacing:0px;writing-mode:lr-tb;text-anchor:start;fill:#000000;fill-opacity:1;stroke:none;font-family:Rekha;-inkscape-font-specification:Rekha Medium"
       xml:space="preserve"><tspan
         y="782.47583"
         x="-64.456932"
         id="tspan3285"
         sodipodi:role="line">1 AM</tspan></text>
    <text
       sodipodi:linespacing="100%"
       id="text3287"
       y="841.76154"
       x="-44.456928"
       style="font-size:16px;font-style:normal;font-variant:normal;font-weight:500;font-stretch:normal;text-align:start;line-height:100%;letter-spacing:0px;word-spacing:0px;writing-mode:lr-tb;text-anchor:start;fill:#000000;fill-opacity:1;stroke:none;font-family:Rekha;-inkscape-font-specification:Rekha Medium"
       xml:space="preserve"><tspan
         y="841.76154"
         x="-44.456928"
         id="tspan3289"
         sodipodi:role="line">log P</tspan></text>
    <g
       style="font-style:normal;font-variant:normal;font-weight:normal;font-stretch:normal;letter-spacing:normal;word-spacing:normal;text-anchor:start;fill:none;stroke:#000000;stroke-linecap:butt;stroke-linejoin:miter;stroke-miterlimit:10.43299961;stroke-opacity:1;stroke-dasharray:none;stroke-dashoffset:0"
       ns0:preamble=""
       ns0:text="$\\mathrm{T_s}$"
       word-spacing="normal"
       letter-spacing="normal"
       font-size-adjust="none"
       font-stretch="normal"
       font-weight="normal"
       font-variant="normal"
       font-style="normal"
       stroke-miterlimit="10.433"
       xml:space="preserve"
       transform="matrix(1.600699,0,0,-1.600699,-318.14593,1995.8399)"
       id="g3367"><path
         id="path3369"
         d="m 230.06,663.96 h -6.08 l -0.19,-2.24 h 0.25 c 0.14,1.6 0.29,1.93 1.79,1.93 0.18,0 0.44,0 0.54,-0.02 0.21,-0.04 0.21,-0.15 0.21,-0.37 v -5.24 c 0,-0.34 0,-0.48 -1.05,-0.48 h -0.4 v -0.31 c 0.41,0.04 1.43,0.04 1.88,0.04 0.46,0 1.49,0 1.89,-0.04 v 0.31 h -0.39 c -1.05,0 -1.05,0.14 -1.05,0.48 v 5.24 c 0,0.19 0,0.33 0.18,0.37 0.11,0.02 0.38,0.02 0.57,0.02 1.5,0 1.65,-0.33 1.79,-1.93 h 0.25 z"
         inkscape:connector-curvature="0"
         style="fill:#000000;stroke-width:0" /><path
         id="path3371"
         d="m 233.27,658.66 0,0.01 0,0.01 0,0.01 0,0.01 0,0.01 0,0.01 0,0.01 0,0.01 -0.01,0.01 0,0.01 0,0 0,0.01 0,0.01 0,0 0,0.01 -0.01,0.01 0,0 0,0.01 0,0 -0.01,0.01 0,0 0,0 -0.01,0.01 0,0 -0.01,0 -0.01,0.01 0,0 -0.01,0 0,0 0,0 -0.01,0 0,0 0,0 -0.01,0 0,0 -0.01,0 0,0 c -0.04,0 -0.05,0 -0.14,-0.08 -0.01,-0.01 -0.08,-0.07 -0.13,-0.1 -0.2,0.14 -0.47,0.18 -0.73,0.18 -0.99,0 -1.23,-0.52 -1.23,-0.87 0,-0.22 0.1,-0.4 0.27,-0.54 0.26,-0.23 0.52,-0.28 0.96,-0.35 0.34,-0.06 0.91,-0.16 0.91,-0.62 0,-0.27 -0.19,-0.59 -0.86,-0.59 -0.67,0 -0.91,0.43 -1.04,0.91 -0.02,0.09 -0.02,0.12 -0.12,0.12 -0.12,0 -0.12,-0.05 -0.12,-0.19 v -0.86 c 0,-0.12 0,-0.18 0.1,-0.18 0.06,0 0.19,0.15 0.33,0.3 0.31,-0.29 0.68,-0.3 0.85,-0.3 0.91,0 1.24,0.49 1.24,0.98 0,0.27 -0.12,0.47 -0.3,0.64 -0.26,0.24 -0.58,0.3 -0.83,0.34 -0.55,0.1 -1.01,0.18 -1.01,0.55 0,0.22 0.19,0.49 0.85,0.49 0.81,0 0.85,-0.56 0.86,-0.76 0.01,-0.08 0.09,-0.08 0.12,-0.08 0.12,0 0.12,0.05 0.12,0.19 z"
         inkscape:connector-curvature="0"
         style="fill:#000000;stroke-width:0" /></g>    <g
       id="g3505"
       transform="matrix(1.600699,0,0,-1.600699,-271.13103,2000.7838)"
       xml:space="preserve"
       stroke-miterlimit="10.433"
       font-style="normal"
       font-variant="normal"
       font-weight="normal"
       font-stretch="normal"
       font-size-adjust="none"
       letter-spacing="normal"
       word-spacing="normal"
       ns0:text="$\\mathrm{10^4 / T}$"
       ns0:preamble=""
       style="font-style:normal;font-variant:normal;font-weight:normal;font-stretch:normal;letter-spacing:normal;word-spacing:normal;text-anchor:start;fill:none;stroke:#000000;stroke-linecap:butt;stroke-linejoin:miter;stroke-miterlimit:10.43299961;stroke-opacity:1;stroke-dasharray:none;stroke-dashoffset:0"><path
         style="fill:#000000;stroke-width:0"
         inkscape:connector-curvature="0"
         d="m 226.36,663.59 0,0.01 0,0.01 0,0.02 0,0.01 0,0 0,0.01 0,0.01 0,0.01 0,0.01 0,0.01 0,0.01 0,0.01 0,0 -0.01,0.01 0,0.01 0,0 0,0.01 0,0.01 0,0.01 0,0.01 -0.01,0.01 0,0.01 0,0.01 -0.01,0 0,0.01 -0.01,0.01 0,0 -0.01,0.01 -0.01,0 -0.01,0.01 0,0 -0.01,0 0,0 -0.01,0 0,0 -0.01,0 -0.01,0.01 0,0 -0.01,0 -0.01,0 0,0 -0.01,0 -0.01,0 -0.01,0 0,0 -0.01,0 -0.01,0 -0.01,0 -0.01,0 -0.01,0 -0.01,0 -0.01,0 c -0.62,-0.63 -1.49,-0.63 -1.81,-0.63 v -0.31 c 0.2,0 0.78,0 1.3,0.25 v -5.14 c 0,-0.36 -0.03,-0.48 -0.92,-0.48 h -0.32 v -0.31 c 0.35,0.04 1.21,0.04 1.61,0.04 0.4,0 1.26,0 1.61,-0.04 v 0.31 h -0.32 c -0.89,0 -0.92,0.11 -0.92,0.48 z"
         id="path3507" /><path
         style="fill:#000000;stroke-width:0"
         inkscape:connector-curvature="0"
         d="m 232.99,660.41 0,0.15 0,0.15 -0.01,0.15 0,0.15 -0.01,0.15 -0.01,0.14 -0.02,0.15 -0.02,0.15 -0.02,0.14 -0.03,0.15 -0.03,0.14 -0.04,0.15 -0.04,0.14 -0.05,0.14 -0.06,0.14 -0.03,0.07 -0.03,0.07 c -0.46,0.95 -1.27,1.11 -1.69,1.11 -0.6,0 -1.32,-0.26 -1.73,-1.18 -0.32,-0.69 -0.37,-1.46 -0.37,-2.26 0,-0.74 0.04,-1.63 0.45,-2.39 0.43,-0.8 1.15,-1 1.64,-1 v 0.21 c -0.39,0 -0.97,0.25 -1.15,1.21 -0.11,0.59 -0.11,1.51 -0.11,2.09 0,0.64 0,1.29 0.08,1.83 0.19,1.18 0.93,1.27 1.18,1.27 0.33,0 0.99,-0.18 1.18,-1.16 0.09,-0.56 0.09,-1.31 0.09,-1.94 0,-0.74 0,-1.42 -0.11,-2.05 -0.15,-0.95 -0.71,-1.25 -1.16,-1.25 h 0 v -0.21 c 0.54,0 1.29,0.2 1.73,1.15 0.32,0.68 0.37,1.46 0.37,2.24 z"
         id="path3509" /><path
         style="fill:#000000;stroke-width:0"
         inkscape:connector-curvature="0"
         d="m 237.08,661.99 v 0.25 h -0.77 v 3.1 c 0,0.15 0,0.2 -0.16,0.2 -0.08,0 -0.11,0 -0.18,-0.1 l -2.3,-3.2 v -0.25 h 2.04 l 0.05,0.25 h -1.84 l 1.84,2.55 v -2.55 l -0.05,-0.25 v -0.57 c 0,-0.24 0,-0.32 -0.56,-0.32 h -0.19 v -0.25 c 0.35,0.01 0.8,0.03 1.05,0.03 0.25,0 0.7,-0.02 1.05,-0.03 v 0.25 h -0.19 c -0.56,0 -0.56,0.08 -0.56,0.32 v 0.57 z"
         id="path3511" /><path
         style="fill:#000000;stroke-width:0"
         inkscape:connector-curvature="0"
         d="m 242.23,664.31 0,0 0.01,0.01 0,0.01 0,0 0,0.01 0,0 0.01,0.01 0,0.01 0.01,0.01 0,0.01 0,0.01 0,0.01 0.01,0 0,0.01 0,0.01 0,0.01 0,0 0,0.01 0.01,0 0,0.01 0,0 0,0.01 0,0 0,0 0,0.01 0,0 0,0 0,0.01 0,0 0,0 0,0 0,0 0,0 0,0.01 0,0 c 0,0.11 -0.09,0.19 -0.2,0.19 -0.07,0 -0.14,-0.02 -0.17,-0.08 l -3.45,-9.47 c -0.05,-0.13 -0.05,-0.17 -0.05,-0.18 0,-0.11 0.09,-0.2 0.2,-0.2 0.13,0 0.16,0.07 0.22,0.24 z"
         id="path3513" /><path
         style="fill:#000000;stroke-width:0"
         inkscape:connector-curvature="0"
         d="m 249.47,663.96 h -6.08 l -0.19,-2.24 h 0.25 c 0.14,1.6 0.29,1.93 1.79,1.93 0.18,0 0.44,0 0.54,-0.02 0.21,-0.04 0.21,-0.15 0.21,-0.37 v -5.24 c 0,-0.34 0,-0.48 -1.05,-0.48 h -0.39 v -0.31 c 0.4,0.04 1.42,0.04 1.88,0.04 0.45,0 1.48,0 1.89,-0.04 v 0.31 h -0.4 c -1.05,0 -1.05,0.14 -1.05,0.48 v 5.24 c 0,0.19 0,0.33 0.18,0.37 0.11,0.02 0.38,0.02 0.57,0.02 1.5,0 1.65,-0.33 1.79,-1.93 h 0.25 z"
         id="path3515" /></g>    <g
       ns0:preamble=""
       ns0:text="$\\mathrm{{{dP} \\over {dT}} \\simeq {{\\Delta H} \\over {T \\Delta V}} \\simeq {{\\Delta H} \\over {RT^2}} \\cdotp P}$"
       word-spacing="normal"
       letter-spacing="normal"
       font-size-adjust="none"
       font-stretch="normal"
       font-weight="normal"
       font-variant="normal"
       font-style="normal"
       stroke-miterlimit="10.433"
       xml:space="preserve"
       transform="matrix(1.5566323,0,0,-1.5566323,-109.92553,1781.4981)"
       id="g3637"
       style="font-style:normal;font-variant:normal;font-weight:normal;font-stretch:normal;letter-spacing:normal;word-spacing:normal;text-anchor:start;fill:#008000;stroke:#000000;stroke-linecap:butt;stroke-linejoin:miter;stroke-miterlimit:10.43299961;stroke-opacity:1;stroke-dasharray:none;stroke-dashoffset:0"><path
         id="path3639"
         d="m 227.27,665.91 v -0.25 c 0.47,0 0.53,-0.05 0.53,-0.39 v -1.44 c -0.26,0.25 -0.6,0.39 -0.98,0.39 l 0.03,-0.19 c 0.34,0 0.64,-0.15 0.83,-0.4 0.09,-0.11 0.09,-0.12 0.09,-0.25 v -1.49 c -0.18,-0.33 -0.54,-0.61 -0.99,-0.61 -0.39,0 -0.67,0.23 -0.81,0.43 -0.14,0.21 -0.22,0.49 -0.22,0.94 0,0.16 0,0.68 0.28,1 0.28,0.32 0.62,0.38 0.82,0.38 l -0.03,0.19 c -0.93,0 -1.71,-0.69 -1.71,-1.57 0,-0.87 0.74,-1.56 1.63,-1.56 0.57,0 0.91,0.3 1.03,0.43 v -0.43 l 1.07,0.07 v 0.25 c -0.47,0 -0.52,0.05 -0.52,0.39 v 4.18 z"
         inkscape:connector-curvature="0"
         style="fill:#008000;stroke-width:0" /><path
         id="path3641"
         d="m 230.98,663.31 -0.03,0.23 v 1.85 c 0,0.21 0.01,0.27 0.33,0.27 h 0.79 c 1.16,0 1.23,-0.66 1.23,-1.06 0,-0.31 0,-1.06 -1.23,-1.06 h -1.12 l 0.03,-0.23 h 1.26 c 1.02,0 1.81,0.59 1.81,1.29 0,0.69 -0.78,1.31 -1.81,1.31 h -2.64 v -0.25 h 0.17 c 0.53,0 0.55,-0.07 0.55,-0.32 v -3.62 c 0,-0.24 -0.02,-0.31 -0.55,-0.31 h -0.17 v -0.25 c 0.35,0.01 0.79,0.03 1.04,0.03 0.26,0 0.71,-0.02 1.06,-0.03 v 0.25 h -0.17 c -0.54,0 -0.55,0.07 -0.55,0.31 z"
         inkscape:connector-curvature="0"
         style="fill:#008000;stroke-width:0" /><line
         id="line3643"
         y2="659.72998"
         x2="234.71001"
         y1="659.72998"
         x1="224.63"
         style="fill:#008000;stroke-width:0.398" /><path
         id="path3645"
         d="m 227.11,658.55 v -0.25 c 0.46,0 0.52,-0.05 0.52,-0.39 v -1.44 c -0.26,0.25 -0.59,0.4 -0.98,0.4 l 0.04,-0.2 c 0.33,0 0.63,-0.15 0.83,-0.4 0.08,-0.11 0.08,-0.12 0.08,-0.25 v -1.49 c -0.18,-0.33 -0.53,-0.61 -0.99,-0.61 -0.39,0 -0.67,0.24 -0.81,0.44 -0.13,0.21 -0.22,0.48 -0.22,0.93 0,0.16 0,0.68 0.29,1.01 0.28,0.31 0.62,0.37 0.82,0.37 l -0.04,0.2 c -0.92,0 -1.7,-0.7 -1.7,-1.58 0,-0.86 0.74,-1.56 1.62,-1.56 0.57,0 0.91,0.31 1.03,0.43 v -0.43 l 1.07,0.07 v 0.25 c -0.46,0 -0.52,0.05 -0.52,0.39 v 4.19 z"
         inkscape:connector-curvature="0"
         style="fill:#008000;stroke-width:0" /><path
         id="path3647"
         d="m 234.22,658.5 h -4.71 l -0.15,-1.6 h 0.24 c 0.1,1.2 0.3,1.35 1.37,1.35 0.14,0 0.34,0 0.41,-0.01 0.16,-0.02 0.16,-0.1 0.16,-0.26 v -3.61 c 0,-0.23 0,-0.32 -0.73,-0.32 h -0.29 v -0.25 c 0.34,0.03 0.99,0.03 1.35,0.03 0.36,0 1,0 1.34,-0.03 v 0.25 h -0.29 c -0.72,0 -0.72,0.09 -0.72,0.32 v 3.61 c 0,0.16 0,0.24 0.15,0.26 0.07,0.01 0.27,0.01 0.41,0.01 0.39,0 0.69,0 0.94,-0.14 0.31,-0.19 0.36,-0.63 0.36,-0.67 l 0.07,-0.54 h 0.23 z"
         inkscape:connector-curvature="0"
         style="fill:#008000;stroke-width:0" /><path
         id="path3649"
         d="m 245.86,661.53 0,0.02 0,0.02 0,0.01 0,0.02 0,0.02 -0.01,0.02 0,0.01 0,0.02 0,0.01 -0.01,0.01 0,0.02 0,0.01 -0.01,0.01 0,0.01 -0.01,0.01 0,0.01 -0.01,0.01 0,0.01 -0.01,0.01 0,0 -0.01,0.01 0,0.01 -0.01,0 -0.01,0.01 0,0 -0.01,0 -0.01,0.01 0,0 -0.01,0 0,0 -0.01,0 -0.01,0 c -0.04,0 -0.13,-0.04 -0.14,-0.26 -0.04,-0.83 -0.73,-1.29 -1.38,-1.29 -0.6,0 -1.08,0.34 -1.59,0.74 -0.53,0.42 -1.06,0.82 -1.72,0.82 -0.98,0 -1.66,-0.87 -1.66,-1.8 0,-0.3 0.12,-0.31 0.14,-0.31 0.1,0 0.13,0.2 0.13,0.23 0.05,0.97 0.85,1.33 1.39,1.33 0.59,0 1.07,-0.35 1.59,-0.75 0.53,-0.41 1.05,-0.82 1.72,-0.82 0.98,0 1.66,0.87 1.66,1.81 z"
         inkscape:connector-curvature="0"
         style="fill:#008000;stroke-width:0" /><path
         id="path3651"
         d="m 239.58,657.99 -0.03,0 -0.03,0 -0.03,0 -0.01,0 -0.02,0 -0.02,0 -0.01,-0.01 -0.02,0 -0.01,0 -0.01,0 -0.02,-0.01 -0.01,0 -0.02,0 -0.01,-0.01 -0.01,-0.01 -0.01,0 -0.01,-0.01 -0.01,-0.01 -0.01,0 -0.01,-0.01 -0.01,-0.01 -0.01,-0.01 0,0 0,-0.01 -0.01,-0.01 0,0 0,-0.01 0,-0.01 -0.01,0 0,-0.01 0,-0.01 0,-0.01 0,0 0,-0.01 0,-0.01 0,-0.01 0,-0.01 c 0,-0.2 0.17,-0.2 0.34,-0.2 h 5.94 c 0.17,0 0.35,0 0.35,0.2 0,0.2 -0.19,0.2 -0.36,0.2 z"
         inkscape:connector-curvature="0"
         style="fill:#008000;stroke-width:0" /><path
         id="path3653"
         d="m 256.77,665.96 0,0.01 -0.01,0.01 0,0.01 -0.01,0.01 0,0.01 -0.01,0.01 -0.01,0.01 0,0 -0.01,0.01 0,0.01 -0.01,0.01 0,0 -0.01,0.01 0,0 -0.01,0.01 0,0 -0.01,0.01 -0.01,0 0,0 -0.01,0.01 -0.01,0 0,0 -0.01,0.01 -0.01,0 -0.01,0 -0.01,0 -0.01,0 -0.01,0 -0.01,0.01 -0.01,0 -0.01,0 -0.01,0 c -0.09,0 -0.16,-0.03 -0.22,-0.14 l -0.01,-0.55 2.04,-3.7 h -4.09 l 2.05,3.7 0.01,0.55 -2.57,-4.65 c -0.05,-0.08 -0.05,-0.1 -0.05,-0.1 0,-0.07 0.06,-0.07 0.17,-0.07 h 5.34 c 0.11,0 0.17,0 0.17,0.07 0,0 0,0.02 -0.05,0.1 z"
         inkscape:connector-curvature="0"
         style="fill:#008000;stroke-width:0" /><path
         id="path3655"
         d="m 264.59,665.34 0,0.03 0,0.02 0,0.02 0,0.02 0,0.01 0,0.02 0.01,0.02 0,0.01 0,0.02 0.01,0.01 0,0.01 0.01,0.02 0.01,0.01 0.01,0.01 0.01,0.01 0.01,0.01 0.02,0.01 0.01,0.01 0.01,0 0.01,0 0.01,0.01 0.01,0 0.01,0 0.01,0.01 0.01,0 0.01,0 0.02,0 0.01,0.01 0.01,0 0.02,0 0.01,0 0.02,0.01 0.01,0 0.02,0 0.02,0 0.01,0 0.02,0 0.02,0 0.02,0 0.02,0 0.02,0.01 0.02,0 0.03,0 0.02,0 0.02,0 0.03,0 h 0.16 v 0.25 c -0.34,-0.02 -0.79,-0.03 -1.04,-0.03 -0.26,0 -0.7,0.01 -1.05,0.03 v -0.25 h 0.17 c 0.53,0 0.55,-0.07 0.55,-0.32 v -1.59 h -2.33 v 1.59 c 0,0.24 0.01,0.32 0.55,0.32 h 0.17 v 0.25 c -0.35,-0.02 -0.8,-0.03 -1.05,-0.03 -0.25,0 -0.7,0.01 -1.05,0.03 v -0.25 h 0.17 c 0.53,0 0.55,-0.07 0.55,-0.32 v -3.62 c 0,-0.24 -0.02,-0.31 -0.55,-0.31 h -0.17 v -0.25 c 0.35,0.01 0.8,0.03 1.05,0.03 0.25,0 0.7,-0.02 1.05,-0.03 v 0.25 h -0.17 c -0.54,0 -0.55,0.07 -0.55,0.31 v 1.78 h 2.33 v -1.78 c 0,-0.24 -0.02,-0.31 -0.55,-0.31 h -0.17 v -0.25 c 0.35,0.01 0.79,0.03 1.04,0.03 0.26,0 0.71,-0.02 1.05,-0.03 v 0.25 h -0.16 c -0.54,0 -0.55,0.07 -0.55,0.31 z"
         inkscape:connector-curvature="0"
         style="fill:#008000;stroke-width:0" /><line
         id="line3657"
         y2="659.72998"
         x2="268.60999"
         y1="659.72998"
         x1="250.39"
         style="fill:#008000;stroke-width:0.398" /><path
         id="path3659"
         d="m 255.58,658.5 h -4.71 l -0.15,-1.6 h 0.24 c 0.1,1.2 0.3,1.35 1.37,1.35 0.14,0 0.34,0 0.41,-0.01 0.16,-0.02 0.16,-0.1 0.16,-0.26 v -3.61 c 0,-0.23 0,-0.32 -0.73,-0.32 h -0.29 v -0.25 c 0.34,0.03 0.99,0.03 1.35,0.03 0.36,0 1,0 1.34,-0.03 v 0.25 h -0.29 c -0.72,0 -0.72,0.09 -0.72,0.32 v 3.61 c 0,0.16 0,0.24 0.15,0.26 0.07,0.01 0.27,0.01 0.41,0.01 0.39,0 0.69,0 0.93,-0.14 0.32,-0.19 0.37,-0.63 0.37,-0.67 l 0.07,-0.54 h 0.23 z"
         inkscape:connector-curvature="0"
         style="fill:#008000;stroke-width:0" /><path
         id="path3661"
         d="m 259.57,658.6 -0.01,0.01 -0.01,0.01 0,0.01 -0.01,0.01 0,0.01 -0.01,0.01 -0.01,0.01 0,0.01 -0.01,0 0,0.01 -0.01,0.01 0,0 -0.01,0.01 0,0.01 -0.01,0 0,0 -0.01,0.01 -0.01,0 0,0.01 -0.01,0 -0.01,0 0,0.01 -0.01,0 -0.01,0 -0.01,0 -0.01,0 -0.01,0.01 -0.01,0 -0.01,0 -0.01,0 -0.01,0 -0.02,0 c -0.08,0 -0.15,-0.02 -0.21,-0.13 l -0.01,-0.55 2.04,-3.71 h -4.09 l 2.05,3.71 0.01,0.55 -2.57,-4.66 c -0.05,-0.08 -0.05,-0.09 -0.05,-0.1 0,-0.07 0.06,-0.07 0.17,-0.07 h 5.34 c 0.11,0 0.17,0 0.17,0.07 0,0.01 0,0.02 -0.05,0.1 z"
         inkscape:connector-curvature="0"
         style="fill:#008000;stroke-width:0" /><path
         id="path3663"
         d="m 267.48,657.84 0.02,0.04 0.02,0.04 0.01,0.02 0.01,0.02 0.02,0.02 0.01,0.02 0.01,0.02 0.02,0.02 0.01,0.02 0.02,0.02 0.02,0.02 0.02,0.01 0.02,0.02 0.02,0.02 0.02,0.01 0.03,0.02 0.02,0.01 0.03,0.02 0.03,0.01 0.03,0.01 0.03,0.01 0.04,0.01 0.03,0.01 0.04,0.01 0.04,0.01 0.04,0.01 0.04,0 0.04,0.01 0.05,0 0.05,0 v 0.25 c -0.2,-0.02 -0.47,-0.03 -0.68,-0.03 -0.27,0 -0.79,0.03 -0.83,0.03 v -0.25 c 0.26,0 0.48,-0.11 0.48,-0.33 0,-0.05 -0.02,-0.09 -0.04,-0.14 l -1.44,-3.36 -1.5,3.52 c -0.04,0.09 -0.04,0.1 -0.04,0.12 0,0.19 0.36,0.19 0.55,0.19 v 0.25 c -0.35,-0.02 -0.8,-0.03 -1.04,-0.03 -0.35,0 -0.87,0.03 -0.89,0.03 v -0.25 h 0.11 c 0.38,0 0.5,-0.04 0.59,-0.25 l 1.81,-4.23 c 0.05,-0.11 0.07,-0.16 0.2,-0.16 0.07,0 0.14,0 0.21,0.15 z"
         inkscape:connector-curvature="0"
         style="fill:#008000;stroke-width:0" /><path
         id="path3665"
         d="m 279.76,661.53 -0.01,0.02 0,0.02 0,0.01 0,0.02 0,0.02 0,0.02 0,0.01 -0.01,0.02 0,0.01 0,0.01 -0.01,0.02 0,0.01 0,0.01 -0.01,0.01 0,0.01 -0.01,0.01 0,0.01 -0.01,0.01 0,0.01 -0.01,0 0,0.01 -0.01,0.01 -0.01,0 0,0.01 -0.01,0 -0.01,0 0,0.01 -0.01,0 0,0 -0.01,0 -0.01,0 0,0 c -0.04,0 -0.13,-0.04 -0.14,-0.26 -0.04,-0.83 -0.74,-1.29 -1.39,-1.29 -0.59,0 -1.07,0.34 -1.59,0.74 -0.52,0.42 -1.05,0.82 -1.72,0.82 -0.97,0 -1.66,-0.87 -1.66,-1.8 0,-0.3 0.13,-0.31 0.14,-0.31 0.11,0 0.14,0.2 0.14,0.23 0.05,0.97 0.84,1.33 1.38,1.33 0.6,0 1.08,-0.35 1.59,-0.75 0.53,-0.41 1.06,-0.82 1.72,-0.82 0.98,0 1.67,0.87 1.67,1.81 z"
         inkscape:connector-curvature="0"
         style="fill:#008000;stroke-width:0" /><path
         id="path3667"
         d="m 273.48,657.99 -0.03,0 -0.03,0 -0.04,0 -0.01,0 -0.02,0 -0.01,0 -0.02,-0.01 -0.01,0 -0.02,0 -0.01,0 -0.01,-0.01 -0.02,0 -0.01,0 -0.01,-0.01 -0.02,-0.01 -0.01,0 -0.01,-0.01 -0.01,-0.01 -0.01,0 -0.01,-0.01 -0.01,-0.01 0,-0.01 0,0 -0.01,-0.01 0,-0.01 0,0 -0.01,-0.01 0,-0.01 0,0 0,-0.01 -0.01,-0.01 0,-0.01 0,0 0,-0.01 0,-0.01 0,-0.01 0,-0.01 c 0,-0.2 0.18,-0.2 0.35,-0.2 h 5.94 c 0.17,0 0.35,0 0.35,0.2 0,0.2 -0.19,0.2 -0.36,0.2 z"
         inkscape:connector-curvature="0"
         style="fill:#008000;stroke-width:0" /><path
         id="path3669"
         d="m 288.92,665.96 -0.01,0.01 0,0.01 -0.01,0.01 -0.01,0.01 0,0.01 -0.01,0.01 0,0.01 -0.01,0 0,0.01 -0.01,0.01 0,0.01 -0.01,0 0,0.01 -0.01,0 0,0.01 -0.01,0 -0.01,0.01 0,0 -0.01,0 -0.01,0.01 0,0 -0.01,0 -0.01,0.01 -0.01,0 -0.01,0 0,0 -0.01,0 -0.01,0 -0.02,0.01 -0.01,0 -0.01,0 -0.01,0 c -0.08,0 -0.15,-0.03 -0.22,-0.14 l -0.01,-0.55 2.05,-3.7 h -4.1 l 2.05,3.7 0.01,0.55 -2.57,-4.65 c -0.05,-0.08 -0.05,-0.1 -0.05,-0.1 0,-0.07 0.06,-0.07 0.17,-0.07 h 5.34 c 0.11,0 0.17,0 0.17,0.07 0,0 0,0.02 -0.05,0.1 z"
         inkscape:connector-curvature="0"
         style="fill:#008000;stroke-width:0" /><path
         id="path3671"
         d="m 296.73,665.34 0,0.03 0,0.02 0,0.02 0,0.02 0,0.01 0.01,0.02 0,0.02 0,0.01 0.01,0.02 0,0.01 0.01,0.01 0,0.02 0.01,0.01 0.01,0.01 0.01,0.01 0.01,0.01 0.02,0.01 0.01,0.01 0.01,0 0.01,0 0.01,0.01 0.01,0 0.01,0 0.01,0.01 0.01,0 0.02,0 0.01,0 0.01,0.01 0.01,0 0.02,0 0.01,0 0.02,0.01 0.01,0 0.02,0 0.02,0 0.02,0 0.01,0 0.02,0 0.02,0 0.02,0 0.02,0.01 0.03,0 0.02,0 0.02,0 0.03,0 0.02,0 h 0.17 v 0.25 c -0.35,-0.02 -0.8,-0.03 -1.05,-0.03 -0.25,0 -0.7,0.01 -1.05,0.03 v -0.25 h 0.17 c 0.53,0 0.55,-0.07 0.55,-0.32 v -1.59 h -2.33 v 1.59 c 0,0.24 0.02,0.32 0.55,0.32 h 0.17 v 0.25 c -0.35,-0.02 -0.79,-0.03 -1.04,-0.03 -0.26,0 -0.71,0.01 -1.06,0.03 v -0.25 h 0.17 c 0.54,0 0.55,-0.07 0.55,-0.32 v -3.62 c 0,-0.24 -0.01,-0.31 -0.55,-0.31 h -0.17 v -0.25 c 0.35,0.01 0.8,0.03 1.05,0.03 0.26,0 0.7,-0.02 1.05,-0.03 v 0.25 h -0.17 c -0.53,0 -0.55,0.07 -0.55,0.31 v 1.78 h 2.33 v -1.78 c 0,-0.24 -0.02,-0.31 -0.55,-0.31 h -0.17 v -0.25 c 0.35,0.01 0.8,0.03 1.05,0.03 0.25,0 0.7,-0.02 1.05,-0.03 v 0.25 h -0.17 c -0.54,0 -0.55,0.07 -0.55,0.31 z"
         inkscape:connector-curvature="0"
         style="fill:#008000;stroke-width:0" /><line
         id="line3673"
         y2="659.72998"
         x2="299"
         y1="659.72998"
         x1="284.28"
         style="fill:#008000;stroke-width:0.398" /><path
         id="path3675"
         d="m 287.78,656.17 0.06,0.02 0.06,0.01 0.06,0.02 0.05,0.02 0.06,0.02 0.06,0.02 0.05,0.02 0.06,0.03 0.06,0.02 0.05,0.03 0.05,0.03 0.05,0.03 0.05,0.03 0.05,0.04 0.05,0.03 0.04,0.03 0.05,0.04 0.04,0.04 0.04,0.04 0.03,0.04 0.04,0.04 0.03,0.04 0.03,0.04 0.03,0.05 0.02,0.04 0.02,0.05 0.02,0.05 0.02,0.05 0.01,0.05 0.01,0.05 0,0.05 0,0.05 c 0,0.7 -0.92,1.26 -1.99,1.26 h -2.35 v -0.25 h 0.17 c 0.53,0 0.54,-0.07 0.54,-0.31 v -3.63 c 0,-0.23 -0.01,-0.31 -0.54,-0.31 h -0.17 v -0.25 c 0.01,0 0.74,0.03 1.03,0.03 0.29,0 0.69,-0.02 1.04,-0.03 v 0.25 h -0.17 c -0.54,0 -0.55,0.07 -0.55,0.31 v 1.72 0.2 1.75 c 0,0.19 0.01,0.24 0.19,0.26 0.05,0.01 0.29,0.01 0.44,0.01 0.66,0 1.62,0 1.62,-1.01 0,-0.78 -0.61,-1.01 -1.35,-1.01 h 0 -0.9 v -0.2 h 0.92 c 0.13,0 0.49,0 0.8,-0.28 0.24,-0.22 0.24,-0.39 0.24,-0.86 0,-0.45 0,-0.74 0.32,-1 0.3,-0.24 0.71,-0.28 0.91,-0.28 0.59,0 0.74,0.56 0.74,0.77 0,0.05 0,0.14 -0.11,0.14 -0.11,0 -0.12,-0.07 -0.12,-0.14 -0.04,-0.4 -0.27,-0.57 -0.48,-0.57 -0.4,0 -0.46,0.41 -0.54,1.04 -0.08,0.56 -0.1,0.67 -0.3,0.9 -0.07,0.07 -0.26,0.25 -0.64,0.37 z"
         inkscape:connector-curvature="0"
         style="fill:#008000;stroke-width:0" /><path
         id="path3677"
         d="m 294.61,658.5 h -4.7 l -0.15,-1.6 H 290 c 0.1,1.2 0.3,1.35 1.37,1.35 0.14,0 0.34,0 0.41,-0.01 0.15,-0.02 0.15,-0.1 0.15,-0.26 v -3.61 c 0,-0.23 0,-0.32 -0.72,-0.32 h -0.29 v -0.25 c 0.34,0.03 0.99,0.03 1.35,0.03 0.36,0 1,0 1.34,-0.03 v 0.25 h -0.29 c -0.72,0 -0.72,0.09 -0.72,0.32 v 3.61 c 0,0.16 0,0.24 0.15,0.26 0.07,0.01 0.27,0.01 0.41,0.01 0.39,0 0.69,0 0.93,-0.14 0.32,-0.19 0.36,-0.63 0.37,-0.67 l 0.06,-0.54 h 0.24 z"
         inkscape:connector-curvature="0"
         style="fill:#008000;stroke-width:0" /><path
         id="path3679"
         d="m 298.04,656.75 h -0.21 c -0.01,-0.09 -0.06,-0.4 -0.14,-0.45 -0.04,-0.03 -0.46,-0.03 -0.53,-0.03 h -0.98 c 0.33,0.24 0.7,0.52 0.99,0.72 0.45,0.31 0.87,0.6 0.87,1.12 0,0.64 -0.6,0.99 -1.31,0.99 -0.67,0 -1.17,-0.39 -1.17,-0.87 0,-0.26 0.22,-0.31 0.29,-0.31 0.14,0 0.3,0.09 0.3,0.3 0,0.18 -0.13,0.27 -0.29,0.29 0.14,0.22 0.43,0.37 0.76,0.37 0.49,0 0.89,-0.29 0.89,-0.77 0,-0.42 -0.29,-0.74 -0.67,-1.06 l -1.22,-1.03 c -0.05,-0.04 -0.05,-0.04 -0.06,-0.08 v -0.15 h 2.32 z"
         inkscape:connector-curvature="0"
         style="fill:#008000;stroke-width:0" /><path
         id="path3681"
         d="m 302.11,659.72 -0.01,0.02 0,0.03 0,0.03 -0.01,0.02 0,0.03 -0.01,0.02 -0.01,0.03 -0.01,0.02 -0.01,0.03 -0.01,0.02 -0.01,0.02 -0.02,0.02 -0.01,0.02 -0.02,0.02 -0.01,0.02 -0.02,0.02 -0.02,0.02 -0.02,0.01 -0.02,0.02 -0.02,0.01 -0.02,0.02 -0.02,0.01 -0.02,0.01 -0.03,0.01 -0.02,0.01 -0.03,0.01 -0.02,0.01 -0.03,0 -0.02,0.01 -0.03,0 -0.03,0 -0.02,0 c -0.29,0 -0.53,-0.23 -0.53,-0.52 0,-0.29 0.24,-0.53 0.53,-0.53 0.29,0 0.53,0.24 0.53,0.53 z"
         inkscape:connector-curvature="0"
         style="fill:#008000;stroke-width:0" /><path
         id="path3683"
         d="m 306.88,660.37 -0.03,0.26 v 2.69 c 0,0.32 0.02,0.39 0.49,0.39 h 0.89 c 1.58,0 1.58,-1.05 1.58,-1.54 0,-0.46 0,-1.54 -1.58,-1.54 h -1.38 l 0.03,-0.26 h 1.68 c 1.2,0 2.27,0.81 2.27,1.8 0,0.98 -0.98,1.85 -2.35,1.85 h -3.51 v -0.31 h 0.24 c 0.77,0 0.79,-0.11 0.79,-0.47 v -5.23 c 0,-0.36 -0.02,-0.47 -0.79,-0.47 h -0.24 v -0.31 c 0.35,0.04 1.09,0.04 1.46,0.04 0.38,0 1.13,0 1.48,-0.04 v 0.31 h -0.24 c -0.77,0 -0.79,0.11 -0.79,0.47 z"
         inkscape:connector-curvature="0"
         style="fill:#008000;stroke-width:0" /></g>  </g>
</svg>
