<?xml version="1.0" encoding="UTF-8" standalone="no"?>
<!-- Created with Inkscape (http://www.inkscape.org/) -->

<svg
   xmlns:ns0="http://www.iki.fi/pav/software/textext/"
   xmlns:dc="http://purl.org/dc/elements/1.1/"
   xmlns:cc="http://creativecommons.org/ns#"
   xmlns:rdf="http://www.w3.org/1999/02/22-rdf-syntax-ns#"
   xmlns:svg="http://www.w3.org/2000/svg"
   xmlns="http://www.w3.org/2000/svg"
   xmlns:sodipodi="http://sodipodi.sourceforge.net/DTD/sodipodi-0.dtd"
   xmlns:inkscape="http://www.inkscape.org/namespaces/inkscape"
   width="492.66193"
   height="137.82944"
   id="svg2"
   version="1.1"
   inkscape:version="0.48.4 r9939"
   sodipodi:docname="New document 17">
  <sodipodi:namedview
     id="base"
     pagecolor="#ffffff"
     bordercolor="#666666"
     borderopacity="1.0"
     inkscape:pageopacity="0.0"
     inkscape:pageshadow="2"
     inkscape:zoom="1.4"
     inkscape:cx="311.17465"
     inkscape:cy="24.712261"
     inkscape:document-units="px"
     inkscape:current-layer="layer1"
     showgrid="true"
     units="in"
     width="11cm"
     inkscape:window-width="1274"
     inkscape:window-height="567"
     inkscape:window-x="0"
     inkscape:window-y="397"
     inkscape:window-maximized="0"
     fit-margin-top="0"
     fit-margin-left="0"
     fit-margin-right="0"
     fit-margin-bottom="0"
     inkscape:snap-grids="false">
    <inkscape:grid
       spacingy="2px"
       spacingx="2px"
       snapvisiblegridlinesonly="true"
       enabled="true"
       visible="true"
       empspacing="5"
       id="grid2984"
       type="xygrid"
       originx="-79.499929px"
       originy="-152.67054px" />
  </sodipodi:namedview>
  <defs
     id="defs4">
    <marker
       inkscape:stockid="Arrow2Mend"
       orient="auto"
       refY="0"
       refX="0"
       id="Arrow2Mend"
       style="overflow:visible">
      <path
         inkscape:connector-curvature="0"
         id="path3966"
         style="fill-rule:evenodd;stroke-width:0.625;stroke-linejoin:round"
         d="M 8.7185878,4.0337352 -2.2072895,0.01601326 8.7185884,-4.0017078 c -1.7454984,2.3720609 -1.7354408,5.6174519 -6e-7,8.035443 z"
         transform="scale(-0.6,-0.6)" />
    </marker>
  </defs>
  <metadata
     id="metadata7">
    <rdf:RDF>
      <cc:Work
         rdf:about="">
        <dc:format>image/svg+xml</dc:format>
        <dc:type
           rdf:resource="http://purl.org/dc/dcmitype/StillImage" />
        <dc:title></dc:title>
      </cc:Work>
    </rdf:RDF>
  </metadata>
  <g
     inkscape:label="Layer 1"
     inkscape:groupmode="layer"
     id="layer1"
     transform="translate(-16.471571,-785.54724)">
    <rect
       transform="translate(-63.028358,665.51153)"
       y="120.53571"
       x="80"
       height="60"
       width="80"
       id="rect4832"
       style="fill:none;stroke:#000000;stroke-width:1;stroke-miterlimit:4;stroke-opacity:1;stroke-dasharray:none;stroke-dashoffset:0" />
    <rect
       y="786.04724"
       x="146.97165"
       height="60"
       width="80"
       id="rect4832-6"
       style="fill:none;stroke:#000000;stroke-width:1;stroke-miterlimit:4;stroke-opacity:1;stroke-dasharray:none;stroke-dashoffset:0" />
    <rect
       y="786.04724"
       x="276.97165"
       height="60"
       width="80"
       id="rect4832-3"
       style="fill:none;stroke:#000000;stroke-width:1;stroke-miterlimit:4;stroke-opacity:1;stroke-dasharray:none;stroke-dashoffset:0" />
    <rect
       y="786.04724"
       x="406.97165"
       height="60"
       width="80"
       id="rect4832-9"
       style="fill:none;stroke:#000000;stroke-width:1;stroke-miterlimit:4;stroke-opacity:1;stroke-dasharray:none;stroke-dashoffset:0" />
    <path
       sodipodi:open="true"
       sodipodi:end="9.382755"
       sodipodi:start="3.1009386"
       transform="matrix(1.2857098,0,0,1.2857098,24.828807,558.93073)"
       d="m 0.00413131,185.73892 c -0.11223215,-2.75914 2.03351229,-5.08685 4.79265439,-5.19908 2.7591421,-0.11224 5.0868508,2.03351 5.199083,4.79265 0.1122323,2.75914 -2.0335123,5.08685 -4.7926544,5.19908 -2.7564717,0.11213 -5.08290335,-2.0295 -5.19880013,-4.78581"
       sodipodi:ry="5"
       sodipodi:rx="5"
       sodipodi:cy="185.53571"
       sodipodi:cx="5"
       id="path4866"
       style="fill:#30f94d;fill-opacity:1;stroke:none"
       sodipodi:type="arc" />
    <path
       sodipodi:open="true"
       sodipodi:end="9.382755"
       sodipodi:start="3.1009386"
       transform="matrix(1.2857098,0,0,1.2857098,66.257378,558.93073)"
       d="m 0.00413131,185.73892 c -0.11223215,-2.75914 2.03351229,-5.08685 4.79265439,-5.19908 2.7591421,-0.11224 5.0868508,2.03351 5.199083,4.79265 0.1122323,2.75914 -2.0335123,5.08685 -4.7926544,5.19908 -2.7564717,0.11213 -5.08290335,-2.0295 -5.19880013,-4.78581"
       sodipodi:ry="5"
       sodipodi:rx="5"
       sodipodi:cy="185.53571"
       sodipodi:cx="5"
       id="path4866-3"
       style="fill:#30f94d;fill-opacity:1;stroke:none"
       sodipodi:type="arc" />
    <path
       sodipodi:open="true"
       sodipodi:end="9.382755"
       sodipodi:start="3.1009386"
       transform="matrix(1.2857098,0,0,1.2857098,40.543093,569.64501)"
       d="m 0.00413131,185.73892 c -0.11223215,-2.75914 2.03351229,-5.08685 4.79265439,-5.19908 2.7591421,-0.11224 5.0868508,2.03351 5.199083,4.79265 0.1122323,2.75914 -2.0335123,5.08685 -4.7926544,5.19908 -2.7564717,0.11213 -5.08290335,-2.0295 -5.19880013,-4.78581"
       sodipodi:ry="5"
       sodipodi:rx="5"
       sodipodi:cy="185.53571"
       sodipodi:cx="5"
       id="path4866-9"
       style="fill:#30f94d;fill-opacity:1;stroke:none"
       sodipodi:type="arc" />
    <path
       sodipodi:open="true"
       sodipodi:end="9.382755"
       sodipodi:start="3.1009386"
       transform="matrix(1.2857098,0,0,1.2857098,76.257378,583.21644)"
       d="m 0.00413131,185.73892 c -0.11223215,-2.75914 2.03351229,-5.08685 4.79265439,-5.19908 2.7591421,-0.11224 5.0868508,2.03351 5.199083,4.79265 0.1122323,2.75914 -2.0335123,5.08685 -4.7926544,5.19908 -2.7564717,0.11213 -5.08290335,-2.0295 -5.19880013,-4.78581"
       sodipodi:ry="5"
       sodipodi:rx="5"
       sodipodi:cy="185.53571"
       sodipodi:cx="5"
       id="path4866-2"
       style="fill:#30f94d;fill-opacity:1;stroke:none"
       sodipodi:type="arc" />
    <path
       sodipodi:open="true"
       sodipodi:end="9.382755"
       sodipodi:start="3.1009386"
       transform="matrix(1.2857098,0,0,1.2857098,42.68595,593.21644)"
       d="m 0.00413131,185.73892 c -0.11223215,-2.75914 2.03351229,-5.08685 4.79265439,-5.19908 2.7591421,-0.11224 5.0868508,2.03351 5.199083,4.79265 0.1122323,2.75914 -2.0335123,5.08685 -4.7926544,5.19908 -2.7564717,0.11213 -5.08290335,-2.0295 -5.19880013,-4.78581"
       sodipodi:ry="5"
       sodipodi:rx="5"
       sodipodi:cy="185.53571"
       sodipodi:cx="5"
       id="path4866-1"
       style="fill:#30f94d;fill-opacity:1;stroke:none"
       sodipodi:type="arc" />
    <path
       sodipodi:open="true"
       sodipodi:end="9.382755"
       sodipodi:start="3.1009386"
       transform="matrix(1.2857098,0,0,1.2857098,19.828807,578.21644)"
       d="m 0.00413131,185.73892 c -0.11223215,-2.75914 2.03351229,-5.08685 4.79265439,-5.19908 2.7591421,-0.11224 5.0868508,2.03351 5.199083,4.79265 0.1122323,2.75914 -2.0335123,5.08685 -4.7926544,5.19908 -2.7564717,0.11213 -5.08290335,-2.0295 -5.19880013,-4.78581"
       sodipodi:ry="5"
       sodipodi:rx="5"
       sodipodi:cy="185.53571"
       sodipodi:cx="5"
       id="path4866-0"
       style="fill:#30f94d;fill-opacity:1;stroke:none"
       sodipodi:type="arc" />
    <path
       sodipodi:open="true"
       sodipodi:end="9.382755"
       sodipodi:start="3.1009386"
       transform="matrix(1.2857098,0,0,1.2857098,161.25737,554.64501)"
       d="m 0.00413131,185.73892 c -0.11223215,-2.75914 2.03351229,-5.08685 4.79265439,-5.19908 2.7591421,-0.11224 5.0868508,2.03351 5.199083,4.79265 0.1122323,2.75914 -2.0335123,5.08685 -4.7926544,5.19908 -2.7564717,0.11213 -5.08290335,-2.0295 -5.19880013,-4.78581"
       sodipodi:ry="5"
       sodipodi:rx="5"
       sodipodi:cy="185.53571"
       sodipodi:cx="5"
       id="path4866-05"
       style="fill:#f74dff;fill-opacity:1;stroke:none"
       sodipodi:type="arc" />
    <path
       sodipodi:open="true"
       sodipodi:end="9.382755"
       sodipodi:start="3.1009386"
       transform="matrix(1.2857098,0,0,1.2857098,184.11452,558.93073)"
       d="m 0.00413131,185.73892 c -0.11223215,-2.75914 2.03351229,-5.08685 4.79265439,-5.19908 2.7591421,-0.11224 5.0868508,2.03351 5.199083,4.79265 0.1122323,2.75914 -2.0335123,5.08685 -4.7926544,5.19908 -2.7564717,0.11213 -5.08290335,-2.0295 -5.19880013,-4.78581"
       sodipodi:ry="5"
       sodipodi:rx="5"
       sodipodi:cy="185.53571"
       sodipodi:cx="5"
       id="path4866-05-3"
       style="fill:#f74dff;fill-opacity:1;stroke:none"
       sodipodi:type="arc" />
    <path
       sodipodi:open="true"
       sodipodi:end="9.382755"
       sodipodi:start="3.1009386"
       transform="matrix(1.2857098,0,0,1.2857098,204.11452,566.78787)"
       d="m 0.00413131,185.73892 c -0.11223215,-2.75914 2.03351229,-5.08685 4.79265439,-5.19908 2.7591421,-0.11224 5.0868508,2.03351 5.199083,4.79265 0.1122323,2.75914 -2.0335123,5.08685 -4.7926544,5.19908 -2.7564717,0.11213 -5.08290335,-2.0295 -5.19880013,-4.78581"
       sodipodi:ry="5"
       sodipodi:rx="5"
       sodipodi:cy="185.53571"
       sodipodi:cx="5"
       id="path4866-05-4"
       style="fill:#f74dff;fill-opacity:1;stroke:none"
       sodipodi:type="arc" />
    <path
       sodipodi:open="true"
       sodipodi:end="9.382755"
       sodipodi:start="3.1009386"
       transform="matrix(1.2857098,0,0,1.2857098,153.40023,576.78787)"
       d="m 0.00413131,185.73892 c -0.11223215,-2.75914 2.03351229,-5.08685 4.79265439,-5.19908 2.7591421,-0.11224 5.0868508,2.03351 5.199083,4.79265 0.1122323,2.75914 -2.0335123,5.08685 -4.7926544,5.19908 -2.7564717,0.11213 -5.08290335,-2.0295 -5.19880013,-4.78581"
       sodipodi:ry="5"
       sodipodi:rx="5"
       sodipodi:cy="185.53571"
       sodipodi:cx="5"
       id="path4866-05-1"
       style="fill:#f74dff;fill-opacity:1;stroke:none"
       sodipodi:type="arc" />
    <path
       sodipodi:open="true"
       sodipodi:end="9.382755"
       sodipodi:start="3.1009386"
       transform="matrix(1.2857098,0,0,1.2857098,174.8288,578.93073)"
       d="m 0.00413131,185.73892 c -0.11223215,-2.75914 2.03351229,-5.08685 4.79265439,-5.19908 2.7591421,-0.11224 5.0868508,2.03351 5.199083,4.79265 0.1122323,2.75914 -2.0335123,5.08685 -4.7926544,5.19908 -2.7564717,0.11213 -5.08290335,-2.0295 -5.19880013,-4.78581"
       sodipodi:ry="5"
       sodipodi:rx="5"
       sodipodi:cy="185.53571"
       sodipodi:cx="5"
       id="path4866-05-40"
       style="fill:#f74dff;fill-opacity:1;stroke:none"
       sodipodi:type="arc" />
    <path
       sodipodi:open="true"
       sodipodi:end="9.382755"
       sodipodi:start="3.1009386"
       transform="matrix(1.2857098,0,0,1.2857098,191.97166,595.3593)"
       d="m 0.00413131,185.73892 c -0.11223215,-2.75914 2.03351229,-5.08685 4.79265439,-5.19908 2.7591421,-0.11224 5.0868508,2.03351 5.199083,4.79265 0.1122323,2.75914 -2.0335123,5.08685 -4.7926544,5.19908 -2.7564717,0.11213 -5.08290335,-2.0295 -5.19880013,-4.78581"
       sodipodi:ry="5"
       sodipodi:rx="5"
       sodipodi:cy="185.53571"
       sodipodi:cx="5"
       id="path4866-05-9"
       style="fill:#f74dff;fill-opacity:1;stroke:none"
       sodipodi:type="arc" />
    <path
       sodipodi:open="true"
       sodipodi:end="9.382755"
       sodipodi:start="3.1009386"
       transform="matrix(1.2857098,0,0,1.2857098,279.8288,561.07358)"
       d="m 0.00413131,185.73892 c -0.11223215,-2.75914 2.03351229,-5.08685 4.79265439,-5.19908 2.7591421,-0.11224 5.0868508,2.03351 5.199083,4.79265 0.1122323,2.75914 -2.0335123,5.08685 -4.7926544,5.19908 -2.7564717,0.11213 -5.08290335,-2.0295 -5.19880013,-4.78581"
       sodipodi:ry="5"
       sodipodi:rx="5"
       sodipodi:cy="185.53571"
       sodipodi:cx="5"
       id="path4866-05-7"
       style="fill:#4dfff2;fill-opacity:1;stroke:none"
       sodipodi:type="arc" />
    <path
       sodipodi:open="true"
       sodipodi:end="9.382755"
       sodipodi:start="3.1009386"
       transform="matrix(1.2857098,0,0,1.2857098,299.11452,572.50216)"
       d="m 0.00413131,185.73892 c -0.11223215,-2.75914 2.03351229,-5.08685 4.79265439,-5.19908 2.7591421,-0.11224 5.0868508,2.03351 5.199083,4.79265 0.1122323,2.75914 -2.0335123,5.08685 -4.7926544,5.19908 -2.7564717,0.11213 -5.08290335,-2.0295 -5.19880013,-4.78581"
       sodipodi:ry="5"
       sodipodi:rx="5"
       sodipodi:cy="185.53571"
       sodipodi:cx="5"
       id="path4866-05-7-1"
       style="fill:#4dfff2;fill-opacity:1;stroke:none"
       sodipodi:type="arc" />
    <path
       sodipodi:open="true"
       sodipodi:end="9.382755"
       sodipodi:start="3.1009386"
       transform="matrix(1.2857098,0,0,1.2857098,310.54309,555.3593)"
       d="m 0.00413131,185.73892 c -0.11223215,-2.75914 2.03351229,-5.08685 4.79265439,-5.19908 2.7591421,-0.11224 5.0868508,2.03351 5.199083,4.79265 0.1122323,2.75914 -2.0335123,5.08685 -4.7926544,5.19908 -2.7564717,0.11213 -5.08290335,-2.0295 -5.19880013,-4.78581"
       sodipodi:ry="5"
       sodipodi:rx="5"
       sodipodi:cy="185.53571"
       sodipodi:cx="5"
       id="path4866-05-7-7"
       style="fill:#4dfff2;fill-opacity:1;stroke:none"
       sodipodi:type="arc" />
    <path
       sodipodi:open="true"
       sodipodi:end="9.382755"
       sodipodi:start="3.1009386"
       transform="matrix(1.2857098,0,0,1.2857098,338.40023,579.64501)"
       d="m 0.00413131,185.73892 c -0.11223215,-2.75914 2.03351229,-5.08685 4.79265439,-5.19908 2.7591421,-0.11224 5.0868508,2.03351 5.199083,4.79265 0.1122323,2.75914 -2.0335123,5.08685 -4.7926544,5.19908 -2.7564717,0.11213 -5.08290335,-2.0295 -5.19880013,-4.78581"
       sodipodi:ry="5"
       sodipodi:rx="5"
       sodipodi:cy="185.53571"
       sodipodi:cx="5"
       id="path4866-05-7-6"
       style="fill:#4dfff2;fill-opacity:1;stroke:none"
       sodipodi:type="arc" />
    <path
       sodipodi:open="true"
       sodipodi:end="9.382755"
       sodipodi:start="3.1009386"
       transform="matrix(1.2857098,0,0,1.2857098,325.54309,594.64501)"
       d="m 0.00413131,185.73892 c -0.11223215,-2.75914 2.03351229,-5.08685 4.79265439,-5.19908 2.7591421,-0.11224 5.0868508,2.03351 5.199083,4.79265 0.1122323,2.75914 -2.0335123,5.08685 -4.7926544,5.19908 -2.7564717,0.11213 -5.08290335,-2.0295 -5.19880013,-4.78581"
       sodipodi:ry="5"
       sodipodi:rx="5"
       sodipodi:cy="185.53571"
       sodipodi:cx="5"
       id="path4866-05-7-5"
       style="fill:#4dfff2;fill-opacity:1;stroke:none"
       sodipodi:type="arc" />
    <path
       sodipodi:open="true"
       sodipodi:end="9.382755"
       sodipodi:start="3.1009386"
       transform="matrix(1.2857098,0,0,1.2857098,290.54309,593.21644)"
       d="m 0.00413131,185.73892 c -0.11223215,-2.75914 2.03351229,-5.08685 4.79265439,-5.19908 2.7591421,-0.11224 5.0868508,2.03351 5.199083,4.79265 0.1122323,2.75914 -2.0335123,5.08685 -4.7926544,5.19908 -2.7564717,0.11213 -5.08290335,-2.0295 -5.19880013,-4.78581"
       sodipodi:ry="5"
       sodipodi:rx="5"
       sodipodi:cy="185.53571"
       sodipodi:cx="5"
       id="path4866-05-7-0"
       style="fill:#4dfff2;fill-opacity:1;stroke:none"
       sodipodi:type="arc" />
    <path
       sodipodi:open="true"
       sodipodi:end="9.382755"
       sodipodi:start="3.1009386"
       transform="matrix(1.2857098,0,0,1.2857098,411.25737,587.50215)"
       d="m 0.00413131,185.73892 c -0.11223215,-2.75914 2.03351229,-5.08685 4.79265439,-5.19908 2.7591421,-0.11224 5.0868508,2.03351 5.199083,4.79265 0.1122323,2.75914 -2.0335123,5.08685 -4.7926544,5.19908 -2.7564717,0.11213 -5.08290335,-2.0295 -5.19880013,-4.78581"
       sodipodi:ry="5"
       sodipodi:rx="5"
       sodipodi:cy="185.53571"
       sodipodi:cx="5"
       id="path4866-05-7-6-6"
       style="fill:#4dfff2;fill-opacity:1;stroke:none"
       sodipodi:type="arc" />
    <path
       sodipodi:open="true"
       sodipodi:end="9.382755"
       sodipodi:start="3.1009386"
       transform="matrix(1.2857098,0,0,1.2857098,434.8288,579.64501)"
       d="m 0.00413131,185.73892 c -0.11223215,-2.75914 2.03351229,-5.08685 4.79265439,-5.19908 2.7591421,-0.11224 5.0868508,2.03351 5.199083,4.79265 0.1122323,2.75914 -2.0335123,5.08685 -4.7926544,5.19908 -2.7564717,0.11213 -5.08290335,-2.0295 -5.19880013,-4.78581"
       sodipodi:ry="5"
       sodipodi:rx="5"
       sodipodi:cy="185.53571"
       sodipodi:cx="5"
       id="path4866-05-7-6-5"
       style="fill:#4dfff2;fill-opacity:1;stroke:none"
       sodipodi:type="arc" />
    <path
       sodipodi:open="true"
       sodipodi:end="9.382755"
       sodipodi:start="3.1009386"
       transform="matrix(1.2857098,0,0,1.2857098,425.54309,561.07358)"
       d="m 0.00413131,185.73892 c -0.11223215,-2.75914 2.03351229,-5.08685 4.79265439,-5.19908 2.7591421,-0.11224 5.0868508,2.03351 5.199083,4.79265 0.1122323,2.75914 -2.0335123,5.08685 -4.7926544,5.19908 -2.7564717,0.11213 -5.08290335,-2.0295 -5.19880013,-4.78581"
       sodipodi:ry="5"
       sodipodi:rx="5"
       sodipodi:cy="185.53571"
       sodipodi:cx="5"
       id="path4866-05-7-6-65"
       style="fill:#4dfff2;fill-opacity:1;stroke:none"
       sodipodi:type="arc" />
    <path
       sodipodi:open="true"
       sodipodi:end="9.382755"
       sodipodi:start="3.1009386"
       transform="matrix(1.2857098,0,0,1.2857098,452.68594,582.50215)"
       d="m 0.00413131,185.73892 c -0.11223215,-2.75914 2.03351229,-5.08685 4.79265439,-5.19908 2.7591421,-0.11224 5.0868508,2.03351 5.199083,4.79265 0.1122323,2.75914 -2.0335123,5.08685 -4.7926544,5.19908 -2.7564717,0.11213 -5.08290335,-2.0295 -5.19880013,-4.78581"
       sodipodi:ry="5"
       sodipodi:rx="5"
       sodipodi:cy="185.53571"
       sodipodi:cx="5"
       id="path4866-05-7-6-7"
       style="fill:#4dfff2;fill-opacity:1;stroke:none"
       sodipodi:type="arc" />
    <path
       sodipodi:open="true"
       sodipodi:end="9.382755"
       sodipodi:start="3.1009386"
       transform="matrix(1.2857098,0,0,1.2857098,454.8288,556.78787)"
       d="m 0.00413131,185.73892 c -0.11223215,-2.75914 2.03351229,-5.08685 4.79265439,-5.19908 2.7591421,-0.11224 5.0868508,2.03351 5.199083,4.79265 0.1122323,2.75914 -2.0335123,5.08685 -4.7926544,5.19908 -2.7564717,0.11213 -5.08290335,-2.0295 -5.19880013,-4.78581"
       sodipodi:ry="5"
       sodipodi:rx="5"
       sodipodi:cy="185.53571"
       sodipodi:cx="5"
       id="path4866-05-7-6-1"
       style="fill:#4dfff2;fill-opacity:1;stroke:none"
       sodipodi:type="arc" />
    <path
       sodipodi:open="true"
       sodipodi:end="9.382755"
       sodipodi:start="3.1009386"
       transform="matrix(1.2857098,0,0,1.2857098,469.8288,574.64501)"
       d="m 0.00413131,185.73892 c -0.11223215,-2.75914 2.03351229,-5.08685 4.79265439,-5.19908 2.7591421,-0.11224 5.0868508,2.03351 5.199083,4.79265 0.1122323,2.75914 -2.0335123,5.08685 -4.7926544,5.19908 -2.7564717,0.11213 -5.08290335,-2.0295 -5.19880013,-4.78581"
       sodipodi:ry="5"
       sodipodi:rx="5"
       sodipodi:cy="185.53571"
       sodipodi:cx="5"
       id="path4866-05-7-6-15"
       style="fill:#4dfff2;fill-opacity:1;stroke:none"
       sodipodi:type="arc" />
    <path
       sodipodi:open="true"
       sodipodi:end="9.382755"
       sodipodi:start="3.1009386"
       transform="matrix(1.2857098,0,0,1.2857098,436.25738,596.07359)"
       d="m 0.00413131,185.73892 c -0.11223215,-2.75914 2.03351229,-5.08685 4.79265439,-5.19908 2.7591421,-0.11224 5.0868508,2.03351 5.199083,4.79265 0.1122323,2.75914 -2.0335123,5.08685 -4.7926544,5.19908 -2.7564717,0.11213 -5.08290335,-2.0295 -5.19880013,-4.78581"
       sodipodi:ry="5"
       sodipodi:rx="5"
       sodipodi:cy="185.53571"
       sodipodi:cx="5"
       id="path4866-05-9-0"
       style="fill:#f74dff;fill-opacity:1;stroke:none"
       sodipodi:type="arc" />
    <path
       sodipodi:open="true"
       sodipodi:end="9.382755"
       sodipodi:start="3.1009386"
       transform="matrix(1.2857098,0,0,1.2857098,469.8288,596.07359)"
       d="m 0.00413131,185.73892 c -0.11223215,-2.75914 2.03351229,-5.08685 4.79265439,-5.19908 2.7591421,-0.11224 5.0868508,2.03351 5.199083,4.79265 0.1122323,2.75914 -2.0335123,5.08685 -4.7926544,5.19908 -2.7564717,0.11213 -5.08290335,-2.0295 -5.19880013,-4.78581"
       sodipodi:ry="5"
       sodipodi:rx="5"
       sodipodi:cy="185.53571"
       sodipodi:cx="5"
       id="path4866-05-9-7"
       style="fill:#f74dff;fill-opacity:1;stroke:none"
       sodipodi:type="arc" />
    <path
       sodipodi:open="true"
       sodipodi:end="9.382755"
       sodipodi:start="3.1009386"
       transform="matrix(1.2857098,0,0,1.2857098,466.97166,558.21644)"
       d="m 0.00413131,185.73892 c -0.11223215,-2.75914 2.03351229,-5.08685 4.79265439,-5.19908 2.7591421,-0.11224 5.0868508,2.03351 5.199083,4.79265 0.1122323,2.75914 -2.0335123,5.08685 -4.7926544,5.19908 -2.7564717,0.11213 -5.08290335,-2.0295 -5.19880013,-4.78581"
       sodipodi:ry="5"
       sodipodi:rx="5"
       sodipodi:cy="185.53571"
       sodipodi:cx="5"
       id="path4866-05-9-8"
       style="fill:#f74dff;fill-opacity:1;stroke:none"
       sodipodi:type="arc" />
    <path
       sodipodi:open="true"
       sodipodi:end="9.382755"
       sodipodi:start="3.1009386"
       transform="matrix(1.2857098,0,0,1.2857098,443.40023,570.3593)"
       d="m 0.00413131,185.73892 c -0.11223215,-2.75914 2.03351229,-5.08685 4.79265439,-5.19908 2.7591421,-0.11224 5.0868508,2.03351 5.199083,4.79265 0.1122323,2.75914 -2.0335123,5.08685 -4.7926544,5.19908 -2.7564717,0.11213 -5.08290335,-2.0295 -5.19880013,-4.78581"
       sodipodi:ry="5"
       sodipodi:rx="5"
       sodipodi:cy="185.53571"
       sodipodi:cx="5"
       id="path4866-05-9-1"
       style="fill:#f74dff;fill-opacity:1;stroke:none"
       sodipodi:type="arc" />
    <path
       sodipodi:open="true"
       sodipodi:end="9.382755"
       sodipodi:start="3.1009386"
       transform="matrix(1.2857098,0,0,1.2857098,438.40023,558.21645)"
       d="m 0.00413131,185.73892 c -0.11223215,-2.75914 2.03351229,-5.08685 4.79265439,-5.19908 2.7591421,-0.11224 5.0868508,2.03351 5.199083,4.79265 0.1122323,2.75914 -2.0335123,5.08685 -4.7926544,5.19908 -2.7564717,0.11213 -5.08290335,-2.0295 -5.19880013,-4.78581"
       sodipodi:ry="5"
       sodipodi:rx="5"
       sodipodi:cy="185.53571"
       sodipodi:cx="5"
       id="path4866-05-9-07"
       style="fill:#f74dff;fill-opacity:1;stroke:none"
       sodipodi:type="arc" />
    <path
       sodipodi:open="true"
       sodipodi:end="9.382755"
       sodipodi:start="3.1009386"
       transform="matrix(1.2857098,0,0,1.2857098,412.68594,566.0736)"
       d="m 0.00413131,185.73892 c -0.11223215,-2.75914 2.03351229,-5.08685 4.79265439,-5.19908 2.7591421,-0.11224 5.0868508,2.03351 5.199083,4.79265 0.1122323,2.75914 -2.0335123,5.08685 -4.7926544,5.19908 -2.7564717,0.11213 -5.08290335,-2.0295 -5.19880013,-4.78581"
       sodipodi:ry="5"
       sodipodi:rx="5"
       sodipodi:cy="185.53571"
       sodipodi:cx="5"
       id="path4866-05-9-5"
       style="fill:#f74dff;fill-opacity:1;stroke:none"
       sodipodi:type="arc" />
    <path
       sodipodi:open="true"
       sodipodi:end="9.382755"
       sodipodi:start="3.1009386"
       transform="matrix(1.2857098,0,0,1.2857098,459.82881,566.07358)"
       d="m 0.00413131,185.73892 c -0.11223215,-2.75914 2.03351229,-5.08685 4.79265439,-5.19908 2.7591421,-0.11224 5.0868508,2.03351 5.199083,4.79265 0.1122323,2.75914 -2.0335123,5.08685 -4.7926544,5.19908 -2.7564717,0.11213 -5.08290335,-2.0295 -5.19880013,-4.78581"
       sodipodi:ry="5"
       sodipodi:rx="5"
       sodipodi:cy="185.53571"
       sodipodi:cx="5"
       id="path4866-2-2"
       style="fill:#30f94d;fill-opacity:1;stroke:none"
       sodipodi:type="arc" />
    <path
       sodipodi:open="true"
       sodipodi:end="9.382755"
       sodipodi:start="3.1009386"
       transform="matrix(1.2857098,0,0,1.2857098,424.82881,573.21644)"
       d="m 0.00413131,185.73892 c -0.11223215,-2.75914 2.03351229,-5.08685 4.79265439,-5.19908 2.7591421,-0.11224 5.0868508,2.03351 5.199083,4.79265 0.1122323,2.75914 -2.0335123,5.08685 -4.7926544,5.19908 -2.7564717,0.11213 -5.08290335,-2.0295 -5.19880013,-4.78581"
       sodipodi:ry="5"
       sodipodi:rx="5"
       sodipodi:cy="185.53571"
       sodipodi:cx="5"
       id="path4866-2-9"
       style="fill:#30f94d;fill-opacity:1;stroke:none"
       sodipodi:type="arc" />
    <path
       sodipodi:open="true"
       sodipodi:end="9.382755"
       sodipodi:start="3.1009386"
       transform="matrix(1.2857098,0,0,1.2857098,416.25738,554.64501)"
       d="m 0.00413131,185.73892 c -0.11223215,-2.75914 2.03351229,-5.08685 4.79265439,-5.19908 2.7591421,-0.11224 5.0868508,2.03351 5.199083,4.79265 0.1122323,2.75914 -2.0335123,5.08685 -4.7926544,5.19908 -2.7564717,0.11213 -5.08290335,-2.0295 -5.19880013,-4.78581"
       sodipodi:ry="5"
       sodipodi:rx="5"
       sodipodi:cy="185.53571"
       sodipodi:cx="5"
       id="path4866-2-5"
       style="fill:#30f94d;fill-opacity:1;stroke:none"
       sodipodi:type="arc" />
    <path
       sodipodi:open="true"
       sodipodi:end="9.382755"
       sodipodi:start="3.1009386"
       transform="matrix(1.2857098,0,0,1.2857098,469.82881,585.3593)"
       d="m 0.00413131,185.73892 c -0.11223215,-2.75914 2.03351229,-5.08685 4.79265439,-5.19908 2.7591421,-0.11224 5.0868508,2.03351 5.199083,4.79265 0.1122323,2.75914 -2.0335123,5.08685 -4.7926544,5.19908 -2.7564717,0.11213 -5.08290335,-2.0295 -5.19880013,-4.78581"
       sodipodi:ry="5"
       sodipodi:rx="5"
       sodipodi:cy="185.53571"
       sodipodi:cx="5"
       id="path4866-2-94"
       style="fill:#30f94d;fill-opacity:1;stroke:none"
       sodipodi:type="arc" />
    <path
       sodipodi:open="true"
       sodipodi:end="9.382755"
       sodipodi:start="3.1009386"
       transform="matrix(1.2857098,0,0,1.2857098,454.11452,592.50215)"
       d="m 0.00413131,185.73892 c -0.11223215,-2.75914 2.03351229,-5.08685 4.79265439,-5.19908 2.7591421,-0.11224 5.0868508,2.03351 5.199083,4.79265 0.1122323,2.75914 -2.0335123,5.08685 -4.7926544,5.19908 -2.7564717,0.11213 -5.08290335,-2.0295 -5.19880013,-4.78581"
       sodipodi:ry="5"
       sodipodi:rx="5"
       sodipodi:cy="185.53571"
       sodipodi:cx="5"
       id="path4866-2-0"
       style="fill:#30f94d;fill-opacity:1;stroke:none"
       sodipodi:type="arc" />
    <path
       sodipodi:open="true"
       sodipodi:end="9.382755"
       sodipodi:start="3.1009386"
       transform="matrix(1.2857098,0,0,1.2857098,419.82881,595.3593)"
       d="m 0.00413131,185.73892 c -0.11223215,-2.75914 2.03351229,-5.08685 4.79265439,-5.19908 2.7591421,-0.11224 5.0868508,2.03351 5.199083,4.79265 0.1122323,2.75914 -2.0335123,5.08685 -4.7926544,5.19908 -2.7564717,0.11213 -5.08290335,-2.0295 -5.19880013,-4.78581"
       sodipodi:ry="5"
       sodipodi:rx="5"
       sodipodi:cy="185.53571"
       sodipodi:cx="5"
       id="path4866-2-08"
       style="fill:#30f94d;fill-opacity:1;stroke:none"
       sodipodi:type="arc" />
    <text
       sodipodi:linespacing="100%"
       id="text5693"
       y="818.90436"
       x="109.82877"
       style="font-size:28px;font-style:normal;font-variant:normal;font-weight:500;font-stretch:normal;text-align:start;line-height:100%;letter-spacing:0px;word-spacing:0px;writing-mode:lr-tb;text-anchor:start;fill:#000000;fill-opacity:1;stroke:none;font-family:Rekha;-inkscape-font-specification:Rekha Medium"
       xml:space="preserve"><tspan
         y="818.90436"
         x="109.82877"
         id="tspan5695"
         sodipodi:role="line">+</tspan></text>
    <text
       sodipodi:linespacing="100%"
       id="text5697"
       y="818.90436"
       x="240.54309"
       style="font-size:28px;font-style:normal;font-variant:normal;font-weight:500;font-stretch:normal;text-align:start;line-height:100%;letter-spacing:0px;word-spacing:0px;writing-mode:lr-tb;text-anchor:start;fill:#000000;fill-opacity:1;stroke:none;font-family:Rekha;-inkscape-font-specification:Rekha Medium"
       xml:space="preserve"><tspan
         y="818.90436"
         x="240.54309"
         id="tspan5699"
         sodipodi:role="line">+</tspan></text>
    <text
       sodipodi:linespacing="100%"
       id="text5701"
       y="817.47583"
       x="374.82877"
       style="font-size:28px;font-style:normal;font-variant:normal;font-weight:500;font-stretch:normal;text-align:start;line-height:100%;letter-spacing:0px;word-spacing:0px;writing-mode:lr-tb;text-anchor:start;fill:#000000;fill-opacity:1;stroke:none;font-family:Rekha;-inkscape-font-specification:Rekha Medium"
       xml:space="preserve"><tspan
         y="817.47583"
         x="374.82877"
         id="tspan5703"
         sodipodi:role="line">=</tspan></text>
    <path
       sodipodi:nodetypes="cssssc"
       transform="translate(-63.028358,665.51153)"
       inkscape:connector-curvature="0"
       id="path5705"
       d="m 80,191.24999 c 0,0 -0.268581,31.27186 32.14286,21.42858 42.5085,-12.90973 144.1514,-20.50499 157.14285,-5.00001 9.17491,10.95002 0.90209,11.29091 12.85715,1e-5 C 295,195.53571 362.53098,207.48995 386.42857,209.82142 415.71429,212.67856 420,191.24999 420,191.24999"
       style="fill:none;stroke:#000000;stroke-width:1px;stroke-linecap:butt;stroke-linejoin:miter;stroke-opacity:1" />
    <text
       sodipodi:linespacing="100%"
       id="text5707"
       y="916.04724"
       x="48.400208"
       style="font-size:28px;font-style:normal;font-variant:normal;font-weight:500;font-stretch:normal;text-align:start;line-height:100%;letter-spacing:0px;word-spacing:0px;writing-mode:lr-tb;text-anchor:start;fill:#000000;fill-opacity:1;stroke:none;font-family:Rekha;-inkscape-font-specification:Rekha Medium"
       xml:space="preserve"><tspan
         y="916.04724"
         x="48.400208"
         id="tspan5709"
         sodipodi:role="line">Reference states </tspan></text>
    <g
       ns0:preamble=""
       ns0:text="$\\mathrm{B_k^o}$"
       word-spacing="normal"
       letter-spacing="normal"
       font-size-adjust="none"
       font-stretch="normal"
       font-weight="normal"
       font-variant="normal"
       font-style="normal"
       stroke-miterlimit="10.433"
       xml:space="preserve"
       transform="matrix(2.6720172,0,0,-2.6720172,-347.03787,2670.9671)"
       id="content"
       style="font-style:normal;font-variant:normal;font-weight:normal;font-stretch:normal;letter-spacing:normal;word-spacing:normal;text-anchor:start;fill:none;stroke:#000000;stroke-linecap:butt;stroke-linejoin:miter;stroke-miterlimit:10.43299961;stroke-opacity:1;stroke-dasharray:none;stroke-dashoffset:0"><path
         id="path5769"
         d="m 227.99,660.78 0.09,0.02 0.09,0.02 0.08,0.03 0.09,0.02 0.08,0.03 0.08,0.03 0.08,0.04 0.07,0.03 0.08,0.04 0.07,0.04 0.07,0.04 0.07,0.04 0.06,0.05 0.06,0.05 0.06,0.05 0.06,0.05 0.05,0.05 0.05,0.05 0.05,0.06 0.04,0.05 0.04,0.06 0.04,0.06 0.04,0.06 0.03,0.06 0.03,0.07 0.02,0.06 0.02,0.07 0.02,0.06 0.01,0.07 0.01,0.06 0.01,0.07 0,0.07 c 0,0.87 -0.91,1.68 -2.21,1.68 l -0.07,-0.31 c 0.97,0 1.32,-0.84 1.32,-1.37 0,-0.63 -0.49,-1.47 -1.6,-1.47 h -1.44 v -0.22 h 1.87 c 0.99,0 1.4,-0.92 1.4,-1.59 0,-0.7 -0.51,-1.52 -1.54,-1.52 h 0 -1.24 c -0.47,0 -0.49,0.07 -0.49,0.4 v 2.71 0.22 2.45 c 0,0.32 0.02,0.39 0.49,0.39 h 1.23 l 0.07,0.31 h -3.64 v -0.31 h 0.24 c 0.76,0 0.79,-0.11 0.79,-0.47 v -5.23 c 0,-0.36 -0.03,-0.47 -0.79,-0.47 h -0.24 v -0.31 h 3.9 c 1.32,0 2.22,0.89 2.22,1.82 0,0.87 -0.82,1.61 -1.92,1.73 z"
         inkscape:connector-curvature="0"
         style="fill:#000000;stroke-width:0" /><path
         id="path5771"
         d="m 234.17,662.33 0,0.08 -0.01,0.08 -0.01,0.08 -0.01,0.08 -0.02,0.08 -0.02,0.07 -0.03,0.08 -0.03,0.07 -0.03,0.07 -0.04,0.07 -0.04,0.07 -0.04,0.07 -0.05,0.06 -0.05,0.06 -0.05,0.06 -0.06,0.06 -0.06,0.05 -0.06,0.05 -0.06,0.05 -0.07,0.05 -0.07,0.04 -0.07,0.04 -0.08,0.04 -0.07,0.03 -0.08,0.03 -0.08,0.03 -0.08,0.02 -0.08,0.02 -0.09,0.01 -0.09,0.01 -0.08,0.01 -0.09,0 v -0.19 c 0.41,0 0.7,-0.2 0.85,-0.41 0.2,-0.27 0.22,-0.62 0.22,-0.95 0,-0.34 -0.02,-0.71 -0.22,-0.99 -0.19,-0.27 -0.51,-0.41 -0.85,-0.41 h 0 c -0.26,0 -0.64,0.09 -0.87,0.43 -0.19,0.28 -0.21,0.65 -0.21,0.97 0,0.29 0.01,0.7 0.26,1 0.17,0.2 0.46,0.36 0.82,0.36 v 0.19 c -0.96,0 -1.71,-0.75 -1.71,-1.62 0,-0.86 0.77,-1.55 1.71,-1.55 0.94,0 1.7,0.69 1.7,1.55 z"
         inkscape:connector-curvature="0"
         style="fill:#000000;stroke-width:0" /><path
         id="path5773"
         d="m 232.74,656.3 0.08,0.06 0.07,0.06 0.07,0.05 0.07,0.05 0.07,0.05 0.06,0.05 0.06,0.05 0.06,0.04 0.05,0.04 0.05,0.04 0.06,0.03 0.04,0.04 0.05,0.03 0.05,0.03 0.04,0.03 0.04,0.02 0.04,0.03 0.05,0.02 0.04,0.02 0.03,0.02 0.04,0.01 0.04,0.02 0.04,0.01 0.04,0.01 0.04,0.01 0.04,0.01 0.04,0.01 0.04,0.01 0.04,0 0.04,0.01 0.04,0 0.05,0 v 0.25 c -0.15,-0.01 -0.33,-0.03 -0.48,-0.03 -0.28,0 -0.56,0.01 -0.83,0.03 v -0.25 c 0.09,-0.01 0.12,-0.07 0.12,-0.12 0,-0.12 -0.13,-0.25 -0.21,-0.31 l -1.03,-0.79 v 3.3 l -1.05,-0.08 v -0.25 c 0.47,0 0.52,-0.05 0.52,-0.39 v -3.56 c 0,-0.3 -0.07,-0.3 -0.52,-0.3 v -0.25 c 0.26,0.02 0.52,0.03 0.77,0.03 0.26,0 0.52,-0.01 0.78,-0.03 v 0.25 c -0.46,0 -0.53,0 -0.53,0.3 v 0.66 l 0.5,0.39 0.77,-0.93 c 0.07,-0.1 0.15,-0.2 0.15,-0.29 0,-0.11 -0.12,-0.13 -0.19,-0.13 v -0.25 c 0.09,0.01 0.58,0.03 0.79,0.03 0.2,0 0.4,-0.01 0.6,-0.03 v 0.25 c -0.26,0 -0.41,0.02 -0.61,0.27 z"
         inkscape:connector-curvature="0"
         style="fill:#000000;stroke-width:0" /></g>    <g
       style="font-style:normal;font-variant:normal;font-weight:normal;font-stretch:normal;letter-spacing:normal;word-spacing:normal;text-anchor:start;fill:none;stroke:#000000;stroke-linecap:butt;stroke-linejoin:miter;stroke-miterlimit:10.43299961;stroke-opacity:1;stroke-dasharray:none;stroke-dashoffset:0"
       ns0:preamble=""
       ns0:text="$\\mathrm{B_{soln}}$"
       word-spacing="normal"
       letter-spacing="normal"
       font-size-adjust="none"
       font-stretch="normal"
       font-weight="normal"
       font-variant="normal"
       font-style="normal"
       stroke-miterlimit="10.433"
       xml:space="preserve"
       transform="matrix(2.6720172,0,0,-2.6720172,-162.41051,2675.3382)"
       id="g6060"><path
         id="path6062"
         d="m 227.99,660.78 0.09,0.02 0.09,0.02 0.08,0.03 0.09,0.02 0.08,0.03 0.08,0.03 0.08,0.04 0.07,0.03 0.08,0.04 0.07,0.04 0.07,0.04 0.07,0.04 0.06,0.05 0.06,0.05 0.06,0.05 0.06,0.05 0.05,0.05 0.05,0.05 0.05,0.06 0.04,0.05 0.04,0.06 0.04,0.06 0.04,0.06 0.03,0.06 0.03,0.07 0.02,0.06 0.02,0.07 0.02,0.06 0.01,0.07 0.01,0.06 0.01,0.07 0,0.07 c 0,0.87 -0.91,1.68 -2.21,1.68 l -0.07,-0.31 c 0.97,0 1.32,-0.84 1.32,-1.37 0,-0.63 -0.49,-1.47 -1.6,-1.47 h -1.44 v -0.22 h 1.87 c 0.99,0 1.4,-0.92 1.4,-1.59 0,-0.7 -0.51,-1.52 -1.54,-1.52 h 0 -1.24 c -0.47,0 -0.49,0.07 -0.49,0.4 v 2.71 0.22 2.45 c 0,0.32 0.02,0.39 0.49,0.39 h 1.23 l 0.07,0.31 h -3.64 v -0.31 h 0.24 c 0.76,0 0.79,-0.11 0.79,-0.47 v -5.23 c 0,-0.36 -0.03,-0.47 -0.79,-0.47 h -0.24 v -0.31 h 3.9 c 1.32,0 2.22,0.89 2.22,1.82 0,0.87 -0.82,1.61 -1.92,1.73 z"
         inkscape:connector-curvature="0"
         style="fill:#000000;stroke-width:0" /><path
         id="path6064"
         d="m 233.13,658.66 0,0.01 0,0.01 0,0.01 0,0.01 0,0.01 0,0.01 0,0.01 0,0.01 0,0.01 0,0.01 0,0 -0.01,0.01 0,0.01 0,0 0,0.01 0,0.01 -0.01,0 0,0.01 0,0 0,0.01 -0.01,0 0,0 -0.01,0.01 0,0 -0.01,0 0,0.01 -0.01,0 0,0 -0.01,0 0,0 0,0 -0.01,0 0,0 -0.01,0 0,0 0,0 -0.01,0 c -0.03,0 -0.05,0 -0.14,-0.08 -0.01,-0.01 -0.08,-0.07 -0.12,-0.1 -0.21,0.14 -0.48,0.18 -0.73,0.18 -1,0 -1.24,-0.52 -1.24,-0.87 0,-0.22 0.1,-0.4 0.27,-0.54 0.26,-0.23 0.53,-0.28 0.96,-0.35 0.35,-0.06 0.91,-0.16 0.91,-0.62 0,-0.27 -0.19,-0.59 -0.86,-0.59 -0.67,0 -0.91,0.43 -1.03,0.91 -0.03,0.09 -0.03,0.12 -0.13,0.12 -0.12,0 -0.12,-0.05 -0.12,-0.19 v -0.86 c 0,-0.12 0,-0.18 0.1,-0.18 0.06,0 0.2,0.15 0.33,0.3 0.31,-0.29 0.69,-0.3 0.85,-0.3 0.91,0 1.24,0.49 1.24,0.98 0,0.27 -0.11,0.47 -0.3,0.64 -0.26,0.24 -0.58,0.3 -0.82,0.34 -0.56,0.1 -1.02,0.18 -1.02,0.55 0,0.22 0.19,0.49 0.86,0.49 0.8,0 0.84,-0.56 0.85,-0.76 0.01,-0.08 0.09,-0.08 0.12,-0.08 0.12,0 0.12,0.05 0.12,0.19 z"
         inkscape:connector-curvature="0"
         style="fill:#000000;stroke-width:0" /><path
         id="path6066"
         d="m 237.33,657.22 0,0.08 -0.01,0.08 -0.01,0.08 -0.01,0.08 -0.02,0.08 -0.03,0.07 -0.02,0.08 -0.03,0.07 -0.04,0.07 -0.03,0.07 -0.04,0.07 -0.05,0.07 -0.04,0.06 -0.05,0.06 -0.06,0.06 -0.05,0.06 -0.06,0.05 -0.06,0.05 -0.07,0.05 -0.06,0.05 -0.07,0.04 -0.08,0.04 -0.07,0.04 -0.08,0.03 -0.07,0.03 -0.08,0.03 -0.08,0.02 -0.09,0.02 -0.08,0.01 -0.09,0.01 -0.09,0.01 -0.09,0 v -0.19 c 0.41,0 0.71,-0.2 0.86,-0.41 0.2,-0.27 0.22,-0.62 0.22,-0.96 0,-0.33 -0.02,-0.7 -0.23,-0.98 -0.18,-0.27 -0.51,-0.41 -0.85,-0.41 h 0 c -0.25,0 -0.63,0.09 -0.86,0.43 -0.19,0.28 -0.21,0.65 -0.21,0.96 0,0.3 0.01,0.71 0.25,1.01 0.18,0.2 0.47,0.36 0.82,0.36 v 0.19 c -0.96,0 -1.7,-0.75 -1.7,-1.62 0,-0.86 0.76,-1.55 1.7,-1.55 0.94,0 1.71,0.69 1.71,1.55 z"
         inkscape:connector-curvature="0"
         style="fill:#000000;stroke-width:0" /><path
         id="path6068"
         d="m 239.05,660.57 -1.04,-0.08 v -0.25 c 0.46,0 0.52,-0.05 0.52,-0.39 v -3.56 c 0,-0.3 -0.07,-0.3 -0.52,-0.3 v -0.25 c 0.01,0 0.5,0.03 0.78,0.03 0.26,0 0.52,-0.01 0.78,-0.03 v 0.25 c -0.45,0 -0.52,0 -0.52,0.3 z"
         inkscape:connector-curvature="0"
         style="fill:#000000;stroke-width:0" /><path
         id="path6070"
         d="m 243.46,657.85 0,0.05 0,0.06 -0.01,0.05 -0.01,0.05 0,0.05 -0.01,0.05 -0.02,0.05 -0.01,0.04 -0.02,0.05 -0.01,0.04 -0.02,0.04 -0.03,0.04 -0.02,0.03 -0.03,0.04 -0.02,0.03 -0.03,0.03 -0.04,0.03 -0.03,0.03 -0.04,0.03 -0.04,0.02 -0.04,0.03 -0.04,0.02 -0.05,0.02 -0.05,0.01 -0.05,0.02 -0.05,0.01 -0.06,0.01 -0.06,0.01 -0.06,0.01 -0.06,0 -0.07,0.01 -0.07,0 c -0.57,0 -0.94,-0.32 -1.13,-0.68 h -0.01 v 0.68 l -1.02,-0.08 v -0.25 c 0.46,0 0.52,-0.05 0.52,-0.39 v -1.8 c 0,-0.3 -0.07,-0.3 -0.52,-0.3 v -0.25 c 0.01,0 0.5,0.03 0.79,0.03 0.26,0 0.74,-0.02 0.8,-0.03 v 0.25 c -0.45,0 -0.52,0 -0.52,0.3 v 1.25 c 0,0.73 0.58,1.07 1.04,1.07 0.49,0 0.55,-0.38 0.55,-0.73 v -1.59 c 0,-0.3 -0.07,-0.3 -0.52,-0.3 v -0.25 c 0.01,0 0.5,0.03 0.79,0.03 0.26,0 0.74,-0.02 0.8,-0.03 v 0.25 c -0.45,0 -0.52,0 -0.52,0.3 z"
         inkscape:connector-curvature="0"
         style="fill:#000000;stroke-width:0" /></g>    <text
       xml:space="preserve"
       style="font-size:28px;font-style:normal;font-variant:normal;font-weight:500;font-stretch:normal;text-align:start;line-height:100%;letter-spacing:0px;word-spacing:0px;writing-mode:lr-tb;text-anchor:start;fill:#000000;fill-opacity:1;stroke:none;font-family:Rekha;-inkscape-font-specification:Rekha Medium"
       x="384.8288"
       y="886.76154"
       id="text6137"
       sodipodi:linespacing="100%"><tspan
         sodipodi:role="line"
         id="tspan6139"
         x="384.8288"
         y="886.76154">Final State</tspan></text>
  </g>
</svg>
