<?xml version="1.0" encoding="UTF-8" standalone="no"?>
<!-- Created with Inkscape (http://www.inkscape.org/) -->

<svg
   xmlns:ns0="http://www.iki.fi/pav/software/textext/"
   xmlns:dc="http://purl.org/dc/elements/1.1/"
   xmlns:cc="http://creativecommons.org/ns#"
   xmlns:rdf="http://www.w3.org/1999/02/22-rdf-syntax-ns#"
   xmlns:svg="http://www.w3.org/2000/svg"
   xmlns="http://www.w3.org/2000/svg"
   xmlns:sodipodi="http://sodipodi.sourceforge.net/DTD/sodipodi-0.dtd"
   xmlns:inkscape="http://www.inkscape.org/namespaces/inkscape"
   width="380.52676"
   height="445.59418"
   id="svg2"
   version="1.1"
   inkscape:version="0.48.4 r9939"
   sodipodi:docname="superpos.svg">
  <sodipodi:namedview
     id="base"
     pagecolor="#ffffff"
     bordercolor="#666666"
     borderopacity="1.0"
     inkscape:pageopacity="0.0"
     inkscape:pageshadow="2"
     inkscape:zoom="1.4"
     inkscape:cx="211.05709"
     inkscape:cy="330.19707"
     inkscape:document-units="px"
     inkscape:current-layer="layer1"
     showgrid="true"
     units="in"
     width="11cm"
     inkscape:window-width="1274"
     inkscape:window-height="551"
     inkscape:window-x="0"
     inkscape:window-y="413"
     inkscape:window-maximized="0"
     fit-margin-top="0"
     fit-margin-left="0"
     fit-margin-right="0"
     fit-margin-bottom="0"
     inkscape:snap-grids="false">
    <inkscape:grid
       originy="70.000011px"
       originx="-44.294872px"
       type="xygrid"
       id="grid2984"
       empspacing="5"
       visible="true"
       enabled="true"
       snapvisiblegridlinesonly="true"
       spacingx="2px"
       spacingy="2px" />
  </sodipodi:namedview>
  <defs
     id="defs4">
    <marker
       inkscape:stockid="Arrow2Lend"
       orient="auto"
       refY="0"
       refX="0"
       id="Arrow2Lend"
       style="overflow:visible">
      <path
         inkscape:connector-curvature="0"
         id="path3896"
         style="fill-rule:evenodd;stroke-width:0.625;stroke-linejoin:round"
         d="M 8.7185878,4.0337352 -2.2072895,0.01601326 8.7185884,-4.0017078 c -1.7454984,2.3720609 -1.7354408,5.6174519 -6e-7,8.035443 z"
         transform="matrix(-1.1,0,0,-1.1,-1.1,0)" />
    </marker>
    <marker
       inkscape:stockid="Arrow2Lstart"
       orient="auto"
       refY="0"
       refX="0"
       id="Arrow2Lstart"
       style="overflow:visible">
      <path
         inkscape:connector-curvature="0"
         id="path3893"
         style="fill-rule:evenodd;stroke-width:0.625;stroke-linejoin:round"
         d="M 8.7185878,4.0337352 -2.2072895,0.01601326 8.7185884,-4.0017078 c -1.7454984,2.3720609 -1.7354408,5.6174519 -6e-7,8.035443 z"
         transform="matrix(1.1,0,0,1.1,1.1,0)" />
    </marker>
    <marker
       style="overflow:visible"
       id="Arrow2Mend"
       refX="0"
       refY="0"
       orient="auto"
       inkscape:stockid="Arrow2Mend">
      <path
         transform="scale(-0.6,-0.6)"
         d="M 8.7185878,4.0337352 -2.2072895,0.01601326 8.7185884,-4.0017078 c -1.7454984,2.3720609 -1.7354408,5.6174519 -6e-7,8.035443 z"
         style="fill-rule:evenodd;stroke-width:0.625;stroke-linejoin:round"
         id="path3966"
         inkscape:connector-curvature="0" />
    </marker>
  </defs>
  <metadata
     id="metadata7">
    <rdf:RDF>
      <cc:Work
         rdf:about="">
        <dc:format>image/svg+xml</dc:format>
        <dc:type
           rdf:resource="http://purl.org/dc/dcmitype/StillImage" />
        <dc:title />
      </cc:Work>
    </rdf:RDF>
  </metadata>
  <g
     transform="translate(18.733486,-700.45306)"
     id="layer1"
     inkscape:groupmode="layer"
     inkscape:label="Layer 1">
    <path
       style="fill:none;stroke:#000000;stroke-width:1px;stroke-linecap:butt;stroke-linejoin:miter;stroke-opacity:1"
       d="m 200,70.535706 0,300.000004 130,0"
       id="path7129"
       inkscape:connector-curvature="0"
       transform="translate(-63.028358,665.51153)"
       sodipodi:nodetypes="cc" />
    <path
       style="fill:none;stroke:#000000;stroke-width:1px;stroke-linecap:butt;stroke-linejoin:miter;stroke-opacity:1"
       d="m 136.97164,836.04724 91.42857,0"
       id="path7131"
       inkscape:connector-curvature="0"
       sodipodi:nodetypes="cc" />
    <path
       style="fill:none;stroke:#000000;stroke-width:1px;stroke-linecap:butt;stroke-linejoin:miter;stroke-opacity:1"
       d="m 200,90.535706 -70,160.000004 130,0 60,-160.000004 z"
       id="path7133"
       inkscape:connector-curvature="0"
       transform="translate(-63.028358,665.51153)"
       sodipodi:nodetypes="ccccc" />
    <path
       style="fill:none;stroke:#000000;stroke-width:1px;stroke-linecap:butt;stroke-linejoin:miter;stroke-opacity:1"
       d="m 130,230.53571 70,-120 120,0 -60,120 z"
       id="path7135"
       inkscape:connector-curvature="0"
       transform="translate(-63.028358,665.51153)"
       sodipodi:nodetypes="ccccc" />
    <path
       style="fill:none;stroke:#000000;stroke-width:1px;stroke-linecap:butt;stroke-linejoin:miter;stroke-opacity:1"
       d="m 300,40.535706 c -18.73571,50.000001 -34.50147,100.000004 -40,150.000004 -26.56752,11.11245 -61.42857,78.57142 -110,140 19.22391,-80.24227 46.87847,-240.111773 150,-290.000004 z"
       id="path7137"
       inkscape:connector-curvature="0"
       sodipodi:nodetypes="cccc"
       transform="translate(-63.028358,665.51153)" />
    <rect
       style="fill:#000000;stroke:#000000;stroke-width:0.54545456;stroke-miterlimit:4;stroke-opacity:1;stroke-dasharray:none;stroke-dashoffset:0"
       id="rect7139"
       width="5.4545455"
       height="5.4545455"
       x="98.88723"
       y="833.67706" />
    <rect
       style="fill:#000000;stroke:#000000;stroke-width:0.54545456;stroke-miterlimit:4;stroke-opacity:1;stroke-dasharray:none;stroke-dashoffset:0"
       id="rect7139-8"
       width="5.4545455"
       height="5.4545455"
       x="154.86148"
       y="894.43469" />
    <rect
       style="fill:#000000;stroke:#000000;stroke-width:0.54545456;stroke-miterlimit:4;stroke-opacity:1;stroke-dasharray:none;stroke-dashoffset:0"
       id="rect7139-80"
       width="5.4545455"
       height="5.4545455"
       x="173.88722"
       y="752.96277" />
    <path
       style="fill:none;stroke:#000000;stroke-width:1;stroke-linecap:butt;stroke-linejoin:miter;stroke-miterlimit:4;stroke-opacity:1;stroke-dasharray:6, 6;stroke-dashoffset:0"
       d="m 176.97164,756.04724 -30,80"
       id="path7680"
       inkscape:connector-curvature="0" />
    <path
       style="fill:none;stroke:#000000;stroke-width:1;stroke-linecap:butt;stroke-linejoin:miter;stroke-miterlimit:4;stroke-opacity:1;stroke-dasharray:6, 6;stroke-dashoffset:0"
       d="m 139.1145,836.04724 -40.000001,0"
       id="path7682"
       inkscape:connector-curvature="0" />
    <path
       sodipodi:type="arc"
       style="fill:#000000;fill-opacity:1;fill-rule:nonzero;stroke:#000000;stroke-width:1;stroke-miterlimit:4;stroke-opacity:1;stroke-dasharray:none;stroke-dashoffset:0"
       id="path7684"
       sodipodi:cx="-75"
       sodipodi:cy="195.53571"
       sodipodi:rx="5"
       sodipodi:ry="5"
       d="m -79.995869,195.73892 c -0.112232,-2.75914 2.033513,-5.08685 4.792655,-5.19908 2.759142,-0.11224 5.086851,2.03351 5.199083,4.79265 0.112232,2.75914 -2.033513,5.08685 -4.792655,5.19908 -2.756471,0.11213 -5.082903,-2.0295 -5.1988,-4.78581"
       transform="matrix(0.61039514,0,0,0.61039514,272.03699,717.40748)"
       sodipodi:start="3.1009386"
       sodipodi:end="9.382755"
       sodipodi:open="true" />
    <path
       sodipodi:type="arc"
       style="fill:#000000;fill-opacity:1;fill-rule:nonzero;stroke:#000000;stroke-width:1;stroke-miterlimit:4;stroke-opacity:1;stroke-dasharray:none;stroke-dashoffset:0"
       id="path7684-6"
       sodipodi:cx="-75"
       sodipodi:cy="195.53571"
       sodipodi:rx="5"
       sodipodi:ry="5"
       d="m -79.995869,195.73892 c -0.112232,-2.75914 2.033513,-5.08685 4.792655,-5.19908 2.759142,-0.11224 5.086851,2.03351 5.199083,4.79265 0.112232,2.75914 -2.033513,5.08685 -4.792655,5.19908 -2.756471,0.11213 -5.082903,-2.0295 -5.1988,-4.78581"
       transform="matrix(0.61039514,0,0,0.61039514,207.75128,656.69319)"
       sodipodi:start="3.1009386"
       sodipodi:end="9.382755"
       sodipodi:open="true" />
    <path
       sodipodi:type="arc"
       style="fill:#000000;fill-opacity:1;fill-rule:nonzero;stroke:#000000;stroke-width:1;stroke-miterlimit:4;stroke-opacity:1;stroke-dasharray:none;stroke-dashoffset:0"
       id="path7684-5"
       sodipodi:cx="-75"
       sodipodi:cy="195.53571"
       sodipodi:rx="5"
       sodipodi:ry="5"
       d="m -79.995869,195.73892 c -0.112232,-2.75914 2.033513,-5.08685 4.792655,-5.19908 2.759142,-0.11224 5.086851,2.03351 5.199083,4.79265 0.112232,2.75914 -2.033513,5.08685 -4.792655,5.19908 -2.756471,0.11213 -5.082903,-2.0295 -5.1988,-4.78581"
       transform="matrix(0.61039514,0,0,0.61039514,190.39921,797.61668)"
       sodipodi:start="3.1009386"
       sodipodi:end="9.382755"
       sodipodi:open="true" />
    <path
       style="fill:none;stroke:#000000;stroke-width:1;stroke-linecap:butt;stroke-linejoin:miter;stroke-miterlimit:4;stroke-opacity:1;stroke-dasharray:6, 6;stroke-dashoffset:0"
       d="m 210,170.53571 c 1.02412,31.46763 3.87278,42.08416 10,60"
       id="path7711"
       inkscape:connector-curvature="0"
       transform="translate(-63.028358,665.51153)"
       sodipodi:nodetypes="cc" />
    <path
       style="fill:none;stroke:#00ffff;stroke-width:2;stroke-linecap:butt;stroke-linejoin:miter;stroke-miterlimit:4;stroke-opacity:1;stroke-dasharray:none"
       d="m 224.54568,110.03063 c -14.49663,36.80968 -12.31113,63.32512 -14.0406,76.66752"
       id="path7713"
       inkscape:connector-curvature="0"
       transform="translate(-63.028358,665.51153)"
       sodipodi:nodetypes="cc" />
    <path
       style="fill:none;stroke:#ff00ff;stroke-width:2;stroke-linecap:butt;stroke-linejoin:miter;stroke-miterlimit:4;stroke-opacity:1;stroke-dasharray:none"
       d="m 217.47462,153.56616 c -20.50301,39.74616 -11.58732,77.60647 -10,96.96955"
       id="path7715"
       inkscape:connector-curvature="0"
       transform="translate(-63.028358,665.51153)"
       sodipodi:nodetypes="cc" />
    <path
       style="fill:none;stroke:#000000;stroke-width:1px;stroke-linecap:butt;stroke-linejoin:miter;stroke-opacity:1;marker-start:url(#Arrow2Lstart)"
       d="M 297.48992,55.467086 347.49248,44.355408"
       id="path7717"
       inkscape:connector-curvature="0"
       transform="translate(-63.028358,665.51153)" />
    <path
       style="fill:none;stroke:#000000;stroke-width:1px;stroke-linecap:butt;stroke-linejoin:miter;stroke-opacity:1;marker-start:url(#Arrow2Lstart)"
       d="M 319.71328,101.42903 366.1803,80.7209"
       id="path7719"
       inkscape:connector-curvature="0"
       transform="translate(-63.028358,665.51153)" />
    <path
       style="fill:none;stroke:#000000;stroke-width:1px;stroke-linecap:butt;stroke-linejoin:miter;stroke-opacity:1;marker-start:url(#Arrow2Lstart);marker-end:none"
       d="m 318.70313,125.16761 53.03301,9.59645"
       id="path7721"
       inkscape:connector-curvature="0"
       transform="translate(-63.028358,665.51153)" />
    <path
       style="fill:none;stroke:#000000;stroke-width:1px;stroke-linecap:butt;stroke-linejoin:miter;stroke-opacity:1;marker-end:url(#Arrow2Lend)"
       d="m 311.12698,230.22348 -61.6193,-56.06347"
       id="path7723"
       inkscape:connector-curvature="0"
       transform="translate(-63.028358,665.51153)" />
    <path
       style="fill:none;stroke:#000000;stroke-width:1px;stroke-linecap:butt;stroke-linejoin:miter;stroke-opacity:1;marker-start:url(#Arrow2Lstart)"
       d="M 202.03051,212.04073 94.954339,204.46459"
       id="path7725"
       inkscape:connector-curvature="0"
       transform="translate(-63.028358,665.51153)" />
    <path
       style="fill:none;stroke:#000000;stroke-width:1px;stroke-linecap:butt;stroke-linejoin:miter;stroke-opacity:1;marker-start:url(#Arrow2Lstart)"
       d="M 213.14219,138.29959 129.8046,94.863035"
       id="path7727"
       inkscape:connector-curvature="0"
       transform="translate(-63.028358,665.51153)" />
    <path
       style="fill:none;stroke:#aa0000;stroke-width:1.5;stroke-linecap:butt;stroke-linejoin:miter;stroke-miterlimit:4;stroke-opacity:1;stroke-dasharray:none"
       d="m 222.4715,838.06755 -54.53524,0"
       id="path3072"
       inkscape:connector-curvature="0" />
    <path
       style="fill:none;stroke:#aa0000;stroke-width:1.5;stroke-linecap:butt;stroke-linejoin:miter;stroke-miterlimit:4;stroke-opacity:1;stroke-dasharray:none"
       d="m 154.19373,838.06754 -15.05076,0"
       id="path3074"
       inkscape:connector-curvature="0" />
    <path
       sodipodi:type="arc"
       style="fill:#aa0000;fill-opacity:1;fill-rule:nonzero;stroke:#aa0000;stroke-width:1;stroke-miterlimit:4;stroke-opacity:1;stroke-dasharray:none;stroke-dashoffset:0"
       id="path7684-7"
       sodipodi:cx="-75"
       sodipodi:cy="195.53571"
       sodipodi:rx="5"
       sodipodi:ry="5"
       d="m -79.995869,195.73892 c -0.112232,-2.75914 2.033513,-5.08685 4.792655,-5.19908 2.759142,-0.11224 5.086851,2.03351 5.199083,4.79265 0.112232,2.75914 -2.033513,5.08685 -4.792655,5.19908 -2.756471,0.11213 -5.082903,-2.0295 -5.1988,-4.78581"
       transform="matrix(0.61039514,0,0,0.61039514,272.43799,717.40748)"
       sodipodi:start="3.1009386"
       sodipodi:end="9.382755"
       sodipodi:open="true" />
    <text
       xml:space="preserve"
       style="font-size:16px;font-style:normal;font-variant:normal;font-weight:500;font-stretch:normal;text-align:start;line-height:100%;letter-spacing:0px;word-spacing:0px;writing-mode:lr-tb;text-anchor:start;fill:#000000;fill-opacity:1;stroke:none;font-family:Rekha;-inkscape-font-specification:Rekha Medium"
       x="83.436111"
       y="841.60309"
       id="text3880"
       sodipodi:linespacing="100%"><tspan
         sodipodi:role="line"
         id="tspan3882"
         x="83.436111"
         y="841.60309">A</tspan></text>
    <text
       xml:space="preserve"
       style="font-size:16px;font-style:normal;font-variant:normal;font-weight:500;font-stretch:normal;text-align:start;line-height:100%;letter-spacing:0px;word-spacing:0px;writing-mode:lr-tb;text-anchor:start;fill:#000000;fill-opacity:1;stroke:none;font-family:Rekha;-inkscape-font-specification:Rekha Medium"
       x="232.94633"
       y="842.70203"
       id="text3884"
       sodipodi:linespacing="100%"><tspan
         sodipodi:role="line"
         id="tspan3886"
         x="232.94633"
         y="842.70203">B</tspan></text>
    <text
       xml:space="preserve"
       style="font-size:16px;font-style:normal;font-variant:normal;font-weight:500;font-stretch:normal;text-align:start;line-height:100%;letter-spacing:0px;word-spacing:0px;writing-mode:lr-tb;text-anchor:start;fill:#000000;fill-opacity:1;stroke:none;font-family:Rekha;-inkscape-font-specification:Rekha Medium"
       x="211.12189"
       y="265.57883"
       id="text3888"
       sodipodi:linespacing="100%"
       transform="translate(-63.028358,665.51153)"><tspan
         sodipodi:role="line"
         id="tspan3890"
         x="211.12189"
         y="265.57883">F</tspan></text>
    <text
       xml:space="preserve"
       style="font-size:16px;font-style:normal;font-variant:normal;font-weight:500;font-stretch:normal;text-align:start;line-height:100%;letter-spacing:0px;word-spacing:0px;writing-mode:lr-tb;text-anchor:start;fill:#000000;fill-opacity:1;stroke:none;font-family:Rekha;-inkscape-font-specification:Rekha Medium"
       x="155.16458"
       y="883.61316"
       id="text3892"
       sodipodi:linespacing="100%"><tspan
         sodipodi:role="line"
         id="tspan3894"
         x="155.16458"
         y="883.61316">D</tspan></text>
    <text
       xml:space="preserve"
       style="font-size:16px;font-style:normal;font-variant:normal;font-weight:500;font-stretch:normal;text-align:start;line-height:100%;letter-spacing:0px;word-spacing:0px;writing-mode:lr-tb;text-anchor:start;fill:#000000;fill-opacity:1;stroke:none;font-family:Rekha;-inkscape-font-specification:Rekha Medium"
       x="137.48692"
       y="833.10553"
       id="text3896"
       sodipodi:linespacing="100%"><tspan
         sodipodi:role="line"
         id="tspan3898"
         x="137.48692"
         y="833.10553">O</tspan></text>
    <text
       xml:space="preserve"
       style="font-size:16px;font-style:normal;font-variant:normal;font-weight:500;font-stretch:normal;text-align:start;line-height:100%;letter-spacing:0px;word-spacing:0px;writing-mode:lr-tb;text-anchor:start;fill:#000000;fill-opacity:1;stroke:none;font-family:Rekha;-inkscape-font-specification:Rekha Medium"
       x="149.10368"
       y="770.47607"
       id="text3900"
       sodipodi:linespacing="100%"><tspan
         sodipodi:role="line"
         id="tspan3902"
         x="149.10368"
         y="770.47607">C</tspan></text>
    <text
       xml:space="preserve"
       style="font-size:16px;font-style:normal;font-variant:normal;font-weight:500;font-stretch:normal;text-align:start;line-height:100%;letter-spacing:0px;word-spacing:0px;writing-mode:lr-tb;text-anchor:start;fill:#000000;fill-opacity:1;stroke:none;font-family:Rekha;-inkscape-font-specification:Rekha Medium"
       x="168.29659"
       y="749.76794"
       id="text3904"
       sodipodi:linespacing="100%"><tspan
         sodipodi:role="line"
         id="tspan3906"
         x="168.29659"
         y="749.76794">E</tspan></text>
    <g
       style="font-style:normal;font-variant:normal;font-weight:normal;font-stretch:normal;letter-spacing:normal;word-spacing:normal;text-anchor:start;fill:none;stroke:#000000;stroke-linecap:butt;stroke-linejoin:miter;stroke-miterlimit:10.43299961;stroke-opacity:1;stroke-dasharray:none;stroke-dashoffset:0"
       id="content"
       transform="matrix(1.3742059,0,0,-1.3742059,-17.545886,1615.3169)"
       xml:space="preserve"
       stroke-miterlimit="10.433"
       font-style="normal"
       font-variant="normal"
       font-weight="normal"
       font-stretch="normal"
       font-size-adjust="none"
       letter-spacing="normal"
       word-spacing="normal"
       ns0:text="$\\mathrm{\\mu^G (T,P)}$"
       ns0:preamble=""><path
         style="fill:#000000;stroke-width:0"
         inkscape:connector-curvature="0"
         d="m 225.73,660.72 0,0.02 0.01,0.02 0.01,0.02 0,0.03 0.01,0.02 0,0.02 0.01,0.05 0.02,0.05 0.01,0.05 0.01,0.05 0.01,0.05 0.01,0.02 0,0.03 0.01,0.02 0.01,0.02 0,0.02 0,0.02 0.01,0.02 0,0.02 0.01,0.01 0,0.02 0,0.01 0,0.01 0.01,0.02 0,0 0,0.01 0,0.01 0,0 c 0,0.17 -0.12,0.27 -0.29,0.27 -0.03,0 -0.31,-0.01 -0.4,-0.36 l -1.43,-5.75 c -0.03,-0.12 -0.03,-0.14 -0.03,-0.16 0,-0.15 0.11,-0.27 0.28,-0.27 0.21,0 0.33,0.18 0.35,0.21 0.04,0.09 0.17,0.6 0.54,2.13 0.32,-0.27 0.77,-0.3 0.97,-0.3 0.7,0 1.08,0.44 1.32,0.72 0.09,-0.45 0.46,-0.72 0.9,-0.72 0.35,0 0.57,0.22 0.73,0.54 0.17,0.36 0.3,0.97 0.3,0.99 0,0.1 -0.09,0.1 -0.12,0.1 -0.1,0 -0.11,-0.04 -0.14,-0.18 -0.16,-0.65 -0.34,-1.24 -0.75,-1.24 -0.27,0 -0.3,0.26 -0.3,0.46 0,0.22 0.12,0.69 0.2,1.03 l 0.28,1.08 c 0.03,0.15 0.13,0.52 0.17,0.67 0.05,0.23 0.15,0.61 0.15,0.67 0,0.18 -0.14,0.27 -0.29,0.27 -0.05,0 -0.31,-0.01 -0.39,-0.35 l -0.47,-1.86 c -0.12,-0.5 -0.23,-0.91 -0.26,-1.01 -0.01,-0.05 -0.49,-0.96 -1.29,-0.96 -0.5,0 -0.74,0.33 -0.74,0.87 0,0.29 0.07,0.57 0.14,0.84 z"
         id="path3960" /><path
         style="fill:#000000;stroke-width:0"
         inkscape:connector-curvature="0"
         d="m 234.62,662.21 0,0.03 0,0.03 0.01,0.02 0,0.03 0,0.02 0,0.02 0.01,0.01 0,0.02 0.01,0.02 0,0.01 0.01,0.01 0.01,0.02 0.01,0.01 0.01,0.01 0.01,0 0.02,0.01 0.01,0.01 0.02,0 0.02,0.01 0.02,0 0.02,0.01 0.02,0 0.01,0 0.01,0 0.02,0 0.01,0.01 0.01,0 0.02,0 0.01,0 0.02,0 0.01,0 0.02,0 0.02,0 0.01,0 0.02,0 0.02,0 0.02,0 0.02,0 0.02,0 0.02,0 0.02,0 0.02,0 v 0.25 c -0.05,0 -0.56,-0.03 -0.9,-0.03 -0.37,0 -0.9,0 -1.26,0.03 v -0.25 h 0.26 c 0.7,0 0.7,-0.09 0.7,-0.32 v -0.44 c 0,-0.16 0,-0.43 -0.39,-0.62 -0.35,-0.18 -0.74,-0.18 -0.83,-0.18 -0.78,0 -2.07,0.45 -2.07,2.27 0,1.85 1.32,2.26 2.01,2.26 0.68,0 1.51,-0.45 1.69,-1.66 0.02,-0.08 0.08,-0.08 0.13,-0.08 0.12,0 0.12,0.04 0.12,0.18 v 1.63 c 0,0.12 0,0.18 -0.09,0.18 -0.03,0 -0.07,0 -0.12,-0.08 l -0.37,-0.53 c -0.34,0.34 -0.84,0.61 -1.45,0.61 -1.45,0 -2.67,-1.12 -2.67,-2.51 0,-1.38 1.19,-2.52 2.69,-2.52 0.38,0 1.16,0.07 1.48,0.56 0.12,-0.18 0.38,-0.42 0.45,-0.42 0.08,0 0.08,0.08 0.08,0.18 z"
         id="path3962" /><path
         style="fill:#000000;stroke-width:0"
         inkscape:connector-curvature="0"
         d="m 239.39,654.85 0,0.01 0,0 0,0 0,0.01 0,0 0,0 0,0.01 0,0 -0.01,0 0,0.01 0,0 0,0.01 -0.01,0 0,0.01 0,0 -0.01,0.01 0,0.01 -0.01,0 0,0.01 -0.01,0 0,0.01 0,0 -0.01,0 0,0.01 -0.01,0 0,0.01 0,0 -0.01,0.01 0,0 -0.01,0.01 0,0 -0.01,0.01 -0.01,0.01 0,0 -0.01,0.01 0,0.01 -0.01,0 -0.01,0.01 -0.01,0.01 0,0 -0.01,0.01 -0.01,0.01 c -1.24,1.25 -1.56,3.13 -1.56,4.65 0,1.73 0.38,3.45 1.6,4.7 0.13,0.12 0.13,0.14 0.13,0.17 0,0.07 -0.04,0.09 -0.1,0.09 -0.1,0 -0.99,-0.67 -1.58,-1.93 -0.51,-1.09 -0.63,-2.2 -0.63,-3.03 0,-0.78 0.11,-1.98 0.66,-3.1 0.6,-1.22 1.45,-1.87 1.55,-1.87 0.06,0 0.1,0.03 0.1,0.1 z"
         id="path3964" /><path
         style="fill:#000000;stroke-width:0"
         inkscape:connector-curvature="0"
         d="m 246.6,663.96 h -6.08 l -0.19,-2.24 h 0.25 c 0.14,1.6 0.29,1.93 1.79,1.93 0.18,0 0.44,0 0.54,-0.02 0.21,-0.04 0.21,-0.15 0.21,-0.37 v -5.24 c 0,-0.34 0,-0.48 -1.05,-0.48 h -0.4 v -0.31 c 0.41,0.04 1.43,0.04 1.88,0.04 0.46,0 1.49,0 1.9,-0.04 v 0.31 h -0.4 c -1.05,0 -1.05,0.14 -1.05,0.48 v 5.24 c 0,0.19 0,0.33 0.18,0.37 0.11,0.02 0.38,0.02 0.57,0.02 1.5,0 1.65,-0.33 1.79,-1.93 h 0.25 z"
         id="path3967" /><path
         style="fill:#000000;stroke-width:0"
         inkscape:connector-curvature="0"
         d="m 249.19,657.24 0,0.07 -0.01,0.05 0,0.06 0,0.06 -0.01,0.05 -0.01,0.05 -0.01,0.06 -0.01,0.04 -0.01,0.05 -0.01,0.05 -0.02,0.04 -0.01,0.04 -0.02,0.04 -0.02,0.04 -0.02,0.04 -0.02,0.03 -0.02,0.04 -0.02,0.03 -0.02,0.02 -0.03,0.03 -0.02,0.03 -0.03,0.02 -0.03,0.02 -0.03,0.02 -0.03,0.01 -0.03,0.02 -0.03,0.01 -0.03,0.01 -0.03,0.01 -0.04,0 -0.03,0.01 -0.04,0 c -0.33,0 -0.53,-0.25 -0.53,-0.53 0,-0.27 0.2,-0.53 0.53,-0.53 0.12,0 0.25,0.05 0.35,0.13 0.03,0.02 0.04,0.03 0.05,0.03 0.01,0 0.02,-0.01 0.02,-0.15 0,-0.73 -0.35,-1.33 -0.68,-1.65 -0.11,-0.11 -0.11,-0.13 -0.11,-0.16 0,-0.07 0.05,-0.11 0.1,-0.11 0.11,0 0.91,0.76 0.91,1.92 z"
         id="path3969" /><path
         style="fill:#000000;stroke-width:0"
         inkscape:connector-curvature="0"
         d="m 253.85,660.37 -0.03,0.26 v 2.69 c 0,0.32 0.02,0.39 0.49,0.39 h 0.89 c 1.58,0 1.58,-1.05 1.58,-1.54 0,-0.46 0,-1.54 -1.58,-1.54 h -1.38 l 0.03,-0.26 h 1.69 c 1.19,0 2.26,0.81 2.26,1.8 0,0.98 -0.98,1.85 -2.34,1.85 h -3.52 v -0.31 h 0.24 c 0.77,0 0.79,-0.11 0.79,-0.47 v -5.23 c 0,-0.36 -0.02,-0.47 -0.79,-0.47 h -0.24 v -0.31 c 0.35,0.04 1.09,0.04 1.47,0.04 0.37,0 1.12,0 1.47,-0.04 v 0.31 h -0.24 c -0.77,0 -0.79,0.11 -0.79,0.47 z"
         id="path3971" /><path
         style="fill:#000000;stroke-width:0"
         inkscape:connector-curvature="0"
         d="m 261.25,659.72 0,0.07 0,0.08 0,0.08 0,0.08 -0.01,0.17 -0.01,0.17 -0.02,0.18 -0.02,0.19 -0.03,0.2 -0.03,0.2 -0.04,0.2 -0.05,0.21 -0.05,0.21 -0.06,0.21 -0.07,0.21 -0.08,0.21 -0.04,0.11 -0.05,0.11 -0.05,0.1 -0.05,0.11 c -0.59,1.22 -1.45,1.86 -1.55,1.86 -0.06,0 -0.1,-0.03 -0.1,-0.09 0,-0.03 0,-0.05 0.19,-0.23 0.98,-0.99 1.54,-2.57 1.54,-4.64 0,-1.7 -0.36,-3.45 -1.6,-4.7 -0.13,-0.12 -0.13,-0.14 -0.13,-0.17 0,-0.06 0.04,-0.1 0.1,-0.1 0.1,0 1,0.68 1.58,1.94 0.51,1.09 0.63,2.19 0.63,3.03 z"
         id="path3973" /></g>    <g
       style="font-style:normal;font-variant:normal;font-weight:normal;font-stretch:normal;letter-spacing:normal;word-spacing:normal;text-anchor:start;fill:none;stroke:#000000;stroke-linecap:butt;stroke-linejoin:miter;stroke-miterlimit:10.43299961;stroke-opacity:1;stroke-dasharray:none;stroke-dashoffset:0"
       ns0:preamble=""
       ns0:text="$\\mathrm{\\mu^L (T,P)}$"
       word-spacing="normal"
       letter-spacing="normal"
       font-size-adjust="none"
       font-stretch="normal"
       font-weight="normal"
       font-variant="normal"
       font-style="normal"
       stroke-miterlimit="10.433"
       xml:space="preserve"
       transform="matrix(1.4004007,0,0,-1.4004007,-5.0942745,1669.4744)"
       id="g4130"><path
         id="path4132"
         d="m 225.73,660.72 0,0.02 0.01,0.02 0.01,0.02 0,0.03 0.01,0.02 0,0.02 0.01,0.05 0.02,0.05 0.01,0.05 0.01,0.05 0.01,0.05 0.01,0.02 0,0.03 0.01,0.02 0.01,0.02 0,0.02 0,0.02 0.01,0.02 0,0.02 0.01,0.01 0,0.02 0,0.01 0,0.01 0.01,0.02 0,0 0,0.01 0,0.01 0,0 c 0,0.17 -0.12,0.27 -0.29,0.27 -0.03,0 -0.31,-0.01 -0.4,-0.36 l -1.43,-5.75 c -0.03,-0.12 -0.03,-0.14 -0.03,-0.16 0,-0.15 0.11,-0.27 0.28,-0.27 0.21,0 0.33,0.18 0.35,0.21 0.04,0.09 0.17,0.6 0.54,2.13 0.32,-0.27 0.77,-0.3 0.97,-0.3 0.7,0 1.08,0.44 1.32,0.72 0.09,-0.45 0.46,-0.72 0.9,-0.72 0.35,0 0.57,0.22 0.73,0.54 0.17,0.36 0.3,0.97 0.3,0.99 0,0.1 -0.09,0.1 -0.12,0.1 -0.1,0 -0.11,-0.04 -0.14,-0.18 -0.16,-0.65 -0.34,-1.24 -0.75,-1.24 -0.27,0 -0.3,0.26 -0.3,0.46 0,0.22 0.12,0.69 0.2,1.03 l 0.28,1.08 c 0.03,0.15 0.13,0.52 0.17,0.67 0.05,0.23 0.15,0.61 0.15,0.67 0,0.18 -0.14,0.27 -0.29,0.27 -0.05,0 -0.31,-0.01 -0.39,-0.35 l -0.47,-1.86 c -0.12,-0.5 -0.23,-0.91 -0.26,-1.01 -0.01,-0.05 -0.49,-0.96 -1.29,-0.96 -0.5,0 -0.74,0.33 -0.74,0.87 0,0.29 0.07,0.57 0.14,0.84 z"
         inkscape:connector-curvature="0"
         style="fill:#000000;stroke-width:0" /><path
         id="path4134"
         d="m 233.97,662.68 h -0.24 c -0.07,-0.68 -0.18,-1.58 -1.49,-1.58 h -0.7 c -0.33,0 -0.34,0.06 -0.34,0.27 v 3.66 c 0,0.23 0,0.32 0.66,0.32 h 0.24 v 0.25 c -0.14,-0.01 -1.03,-0.03 -1.22,-0.03 -0.26,0 -1.05,0.03 -1.06,0.03 v -0.25 h 0.17 c 0.54,0 0.55,-0.07 0.55,-0.31 v -3.63 c 0,-0.23 -0.01,-0.31 -0.55,-0.31 h -0.17 v -0.25 h 3.94 z"
         inkscape:connector-curvature="0"
         style="fill:#000000;stroke-width:0" /><path
         id="path4136"
         d="m 238.15,654.85 0,0.01 0,0 0,0 0,0.01 0,0 0,0 0,0.01 0,0 0,0 -0.01,0.01 0,0 0,0.01 -0.01,0 0,0.01 0,0 -0.01,0.01 0,0.01 -0.01,0 0,0.01 -0.01,0 0,0.01 0,0 -0.01,0 0,0.01 0,0 -0.01,0.01 0,0 -0.01,0.01 0,0 -0.01,0.01 0,0 -0.01,0.01 -0.01,0.01 0,0 -0.01,0.01 0,0.01 -0.01,0 -0.01,0.01 0,0.01 -0.01,0 -0.01,0.01 -0.01,0.01 c -1.24,1.25 -1.56,3.13 -1.56,4.65 0,1.73 0.38,3.45 1.6,4.7 0.13,0.12 0.13,0.14 0.13,0.17 0,0.07 -0.04,0.09 -0.1,0.09 -0.1,0 -0.99,-0.67 -1.58,-1.93 -0.51,-1.09 -0.63,-2.2 -0.63,-3.03 0,-0.78 0.11,-1.98 0.66,-3.1 0.6,-1.22 1.45,-1.87 1.55,-1.87 0.06,0 0.1,0.03 0.1,0.1 z"
         inkscape:connector-curvature="0"
         style="fill:#000000;stroke-width:0" /><path
         id="path4138"
         d="m 245.36,663.96 h -6.08 l -0.19,-2.24 h 0.25 c 0.14,1.6 0.29,1.93 1.79,1.93 0.18,0 0.44,0 0.54,-0.02 0.21,-0.04 0.21,-0.15 0.21,-0.37 v -5.24 c 0,-0.34 0,-0.48 -1.05,-0.48 h -0.4 v -0.31 c 0.41,0.04 1.43,0.04 1.89,0.04 0.45,0 1.48,0 1.89,-0.04 v 0.31 h -0.4 c -1.05,0 -1.05,0.14 -1.05,0.48 v 5.24 c 0,0.19 0,0.33 0.18,0.37 0.11,0.02 0.38,0.02 0.57,0.02 1.5,0 1.65,-0.33 1.79,-1.93 h 0.25 z"
         inkscape:connector-curvature="0"
         style="fill:#000000;stroke-width:0" /><path
         id="path4140"
         d="m 247.95,657.24 0,0.07 0,0.05 -0.01,0.06 0,0.06 -0.01,0.05 -0.01,0.05 -0.01,0.06 -0.01,0.04 -0.01,0.05 -0.01,0.05 -0.01,0.04 -0.02,0.04 -0.02,0.04 -0.01,0.04 -0.02,0.04 -0.02,0.03 -0.03,0.04 -0.02,0.03 -0.02,0.02 -0.03,0.03 -0.02,0.03 -0.03,0.02 -0.03,0.02 -0.02,0.02 -0.03,0.01 -0.04,0.02 -0.03,0.01 -0.03,0.01 -0.03,0.01 -0.04,0 -0.03,0.01 -0.04,0 c -0.33,0 -0.52,-0.25 -0.52,-0.53 0,-0.27 0.19,-0.53 0.52,-0.53 0.12,0 0.25,0.05 0.35,0.13 0.03,0.02 0.04,0.03 0.05,0.03 0.01,0 0.02,-0.01 0.02,-0.15 0,-0.73 -0.35,-1.33 -0.68,-1.65 -0.11,-0.11 -0.11,-0.13 -0.11,-0.16 0,-0.07 0.05,-0.11 0.1,-0.11 0.11,0 0.91,0.76 0.91,1.92 z"
         inkscape:connector-curvature="0"
         style="fill:#000000;stroke-width:0" /><path
         id="path4142"
         d="m 252.62,660.37 -0.03,0.26 v 2.69 c 0,0.32 0.01,0.39 0.48,0.39 h 0.89 c 1.58,0 1.58,-1.05 1.58,-1.54 0,-0.46 0,-1.54 -1.58,-1.54 h -1.37 l 0.03,-0.26 h 1.68 c 1.19,0 2.27,0.81 2.27,1.8 0,0.98 -0.99,1.85 -2.35,1.85 h -3.51 v -0.31 h 0.23 c 0.77,0 0.79,-0.11 0.79,-0.47 v -5.23 c 0,-0.36 -0.02,-0.47 -0.79,-0.47 h -0.23 v -0.31 c 0.34,0.04 1.08,0.04 1.46,0.04 0.38,0 1.12,0 1.47,-0.04 v 0.31 h -0.24 c -0.77,0 -0.78,0.11 -0.78,0.47 z"
         inkscape:connector-curvature="0"
         style="fill:#000000;stroke-width:0" /><path
         id="path4144"
         d="m 260.01,659.72 0,0.07 0,0.08 0,0.08 0,0.08 -0.01,0.17 -0.01,0.17 -0.02,0.18 -0.02,0.19 -0.03,0.2 -0.03,0.2 -0.04,0.2 -0.05,0.21 -0.05,0.21 -0.06,0.21 -0.07,0.21 -0.08,0.21 -0.04,0.11 -0.05,0.11 -0.04,0.1 -0.05,0.11 c -0.6,1.22 -1.46,1.86 -1.56,1.86 -0.06,0 -0.1,-0.03 -0.1,-0.09 0,-0.03 0,-0.05 0.19,-0.23 0.98,-0.99 1.55,-2.57 1.55,-4.64 0,-1.7 -0.37,-3.45 -1.61,-4.7 -0.13,-0.12 -0.13,-0.14 -0.13,-0.17 0,-0.06 0.04,-0.1 0.1,-0.1 0.1,0 1,0.68 1.59,1.94 0.5,1.09 0.62,2.19 0.62,3.03 z"
         inkscape:connector-curvature="0"
         style="fill:#000000;stroke-width:0" /></g>    <g
       id="g4317"
       transform="matrix(1.3788137,0,0,-1.3788137,4.0049144,1711.1139)"
       xml:space="preserve"
       stroke-miterlimit="10.433"
       font-style="normal"
       font-variant="normal"
       font-weight="normal"
       font-stretch="normal"
       font-size-adjust="none"
       letter-spacing="normal"
       word-spacing="normal"
       ns0:text="$\\mathrm{\\mu^S (T,P)}$"
       ns0:preamble=""
       style="font-style:normal;font-variant:normal;font-weight:normal;font-stretch:normal;letter-spacing:normal;word-spacing:normal;text-anchor:start;fill:none;stroke:#000000;stroke-linecap:butt;stroke-linejoin:miter;stroke-miterlimit:10.43299961;stroke-opacity:1;stroke-dasharray:none;stroke-dashoffset:0"><path
         style="fill:#000000;stroke-width:0"
         inkscape:connector-curvature="0"
         d="m 225.73,660.72 0,0.02 0.01,0.02 0.01,0.02 0,0.03 0.01,0.02 0,0.02 0.01,0.05 0.02,0.05 0.01,0.05 0.01,0.05 0.01,0.05 0.01,0.02 0,0.03 0.01,0.02 0.01,0.02 0,0.02 0,0.02 0.01,0.02 0,0.02 0.01,0.01 0,0.02 0,0.01 0,0.01 0.01,0.02 0,0 0,0.01 0,0.01 0,0 c 0,0.17 -0.12,0.27 -0.29,0.27 -0.03,0 -0.31,-0.01 -0.4,-0.36 l -1.43,-5.75 c -0.03,-0.12 -0.03,-0.14 -0.03,-0.16 0,-0.15 0.11,-0.27 0.28,-0.27 0.21,0 0.33,0.18 0.35,0.21 0.04,0.09 0.17,0.6 0.54,2.13 0.32,-0.27 0.77,-0.3 0.97,-0.3 0.7,0 1.08,0.44 1.32,0.72 0.09,-0.45 0.46,-0.72 0.9,-0.72 0.35,0 0.57,0.22 0.73,0.54 0.17,0.36 0.3,0.97 0.3,0.99 0,0.1 -0.09,0.1 -0.12,0.1 -0.1,0 -0.11,-0.04 -0.14,-0.18 -0.16,-0.65 -0.34,-1.24 -0.75,-1.24 -0.27,0 -0.3,0.26 -0.3,0.46 0,0.22 0.12,0.69 0.2,1.03 l 0.28,1.08 c 0.03,0.15 0.13,0.52 0.17,0.67 0.05,0.23 0.15,0.61 0.15,0.67 0,0.18 -0.14,0.27 -0.29,0.27 -0.05,0 -0.31,-0.01 -0.39,-0.35 l -0.47,-1.86 c -0.12,-0.5 -0.23,-0.91 -0.26,-1.01 -0.01,-0.05 -0.49,-0.96 -1.29,-0.96 -0.5,0 -0.74,0.33 -0.74,0.87 0,0.29 0.07,0.57 0.14,0.84 z"
         id="path4319" /><path
         style="fill:#000000;stroke-width:0"
         inkscape:connector-curvature="0"
         d="m 231.17,663.75 -0.06,0.01 -0.05,0.02 -0.05,0.02 -0.05,0.02 -0.05,0.02 -0.04,0.02 -0.04,0.02 -0.04,0.02 -0.04,0.03 -0.04,0.03 -0.03,0.02 -0.03,0.03 -0.03,0.03 -0.03,0.03 -0.03,0.03 -0.02,0.03 -0.02,0.03 -0.02,0.03 -0.02,0.03 -0.02,0.03 -0.02,0.04 -0.01,0.03 -0.01,0.03 -0.01,0.03 -0.01,0.03 -0.01,0.03 -0.01,0.03 0,0.03 -0.01,0.03 0,0.03 0,0.03 0,0.03 c 0,0.46 0.42,0.9 1.06,0.9 0.94,0 1.34,-0.63 1.45,-1.36 0.02,-0.1 0.02,-0.14 0.13,-0.14 0.12,0 0.12,0.05 0.12,0.18 v 1.36 c 0,0.12 0,0.18 -0.1,0.18 -0.06,0 -0.07,-0.02 -0.12,-0.1 l -0.25,-0.39 c -0.46,0.47 -1.04,0.49 -1.23,0.49 -0.88,0 -1.51,-0.63 -1.51,-1.33 0,-0.39 0.18,-0.69 0.43,-0.92 0.28,-0.27 0.51,-0.32 1.26,-0.49 0.63,-0.14 0.77,-0.17 0.97,-0.36 0.16,-0.16 0.31,-0.38 0.31,-0.7 0,-0.48 -0.4,-0.98 -1.07,-0.98 -0.68,0 -1.61,0.27 -1.66,1.32 -0.01,0.11 -0.01,0.15 -0.12,0.15 -0.12,0 -0.12,-0.05 -0.12,-0.19 v -1.35 c 0,-0.12 0,-0.18 0.1,-0.18 0.06,0 0.07,0.02 0.11,0.08 0.06,0.09 0.2,0.31 0.26,0.4 0.44,-0.38 0.97,-0.48 1.43,-0.48 0.92,0 1.52,0.69 1.52,1.43 0,0.62 -0.44,1.21 -1.14,1.37 z"
         id="path4321" /><path
         style="fill:#000000;stroke-width:0"
         inkscape:connector-curvature="0"
         d="m 237.63,654.85 0,0.01 0,0 0,0 -0.01,0.01 0,0 0,0 0,0.01 0,0 0,0 0,0.01 -0.01,0 0,0.01 0,0 -0.01,0.01 0,0 0,0.01 -0.01,0.01 -0.01,0 0,0.01 0,0 -0.01,0.01 0,0 0,0 -0.01,0.01 0,0 -0.01,0.01 0,0 0,0.01 -0.01,0 0,0.01 -0.01,0 -0.01,0.01 0,0.01 -0.01,0 0,0.01 -0.01,0.01 -0.01,0 0,0.01 -0.01,0.01 -0.01,0 -0.01,0.01 0,0.01 c -1.25,1.25 -1.56,3.13 -1.56,4.65 0,1.73 0.37,3.45 1.6,4.7 0.13,0.12 0.13,0.14 0.13,0.17 0,0.07 -0.04,0.09 -0.1,0.09 -0.1,0 -1,-0.67 -1.58,-1.93 -0.51,-1.09 -0.63,-2.2 -0.63,-3.03 0,-0.78 0.11,-1.98 0.66,-3.1 0.59,-1.22 1.45,-1.87 1.55,-1.87 0.06,0 0.1,0.03 0.1,0.1 z"
         id="path4323" /><path
         style="fill:#000000;stroke-width:0"
         inkscape:connector-curvature="0"
         d="m 244.83,663.96 h -6.07 l -0.19,-2.24 h 0.24 c 0.14,1.6 0.29,1.93 1.79,1.93 0.18,0 0.44,0 0.54,-0.02 0.21,-0.04 0.21,-0.15 0.21,-0.37 v -5.24 c 0,-0.34 0,-0.48 -1.04,-0.48 h -0.4 v -0.31 c 0.41,0.04 1.42,0.04 1.88,0.04 0.46,0 1.48,0 1.89,-0.04 v 0.31 h -0.4 c -1.04,0 -1.04,0.14 -1.04,0.48 v 5.24 c 0,0.19 0,0.33 0.18,0.37 0.1,0.02 0.37,0.02 0.56,0.02 1.51,0 1.65,-0.33 1.79,-1.93 h 0.25 z"
         id="path4325" /><path
         style="fill:#000000;stroke-width:0"
         inkscape:connector-curvature="0"
         d="m 247.42,657.24 0,0.07 0,0.05 0,0.06 -0.01,0.06 0,0.05 -0.01,0.05 -0.01,0.06 -0.01,0.04 -0.01,0.05 -0.02,0.05 -0.01,0.04 -0.02,0.04 -0.01,0.04 -0.02,0.04 -0.02,0.04 -0.02,0.03 -0.02,0.04 -0.02,0.03 -0.03,0.02 -0.02,0.03 -0.03,0.03 -0.02,0.02 -0.03,0.02 -0.03,0.02 -0.03,0.01 -0.03,0.02 -0.03,0.01 -0.04,0.01 -0.03,0.01 -0.03,0 -0.04,0.01 -0.03,0 c -0.33,0 -0.53,-0.25 -0.53,-0.53 0,-0.27 0.2,-0.53 0.53,-0.53 0.11,0 0.25,0.05 0.34,0.13 0.03,0.02 0.04,0.03 0.05,0.03 0.01,0 0.02,-0.01 0.02,-0.15 0,-0.73 -0.34,-1.33 -0.67,-1.65 -0.11,-0.11 -0.11,-0.13 -0.11,-0.16 0,-0.07 0.05,-0.11 0.1,-0.11 0.11,0 0.9,0.76 0.9,1.92 z"
         id="path4327" /><path
         style="fill:#000000;stroke-width:0"
         inkscape:connector-curvature="0"
         d="m 252.09,660.37 -0.03,0.26 v 2.69 c 0,0.32 0.02,0.39 0.49,0.39 h 0.88 c 1.58,0 1.58,-1.05 1.58,-1.54 0,-0.46 0,-1.54 -1.58,-1.54 h -1.37 l 0.03,-0.26 h 1.68 c 1.19,0 2.27,0.81 2.27,1.8 0,0.98 -0.99,1.85 -2.35,1.85 h -3.51 v -0.31 h 0.24 c 0.76,0 0.78,-0.11 0.78,-0.47 v -5.23 c 0,-0.36 -0.02,-0.47 -0.78,-0.47 h -0.24 v -0.31 c 0.35,0.04 1.08,0.04 1.46,0.04 0.38,0 1.13,0 1.47,-0.04 v 0.31 h -0.23 c -0.77,0 -0.79,0.11 -0.79,0.47 z"
         id="path4329" /><path
         style="fill:#000000;stroke-width:0"
         inkscape:connector-curvature="0"
         d="m 259.49,659.72 0,0.07 0,0.08 -0.01,0.08 0,0.08 -0.01,0.17 -0.01,0.17 -0.02,0.18 -0.02,0.19 -0.02,0.2 -0.04,0.2 -0.04,0.2 -0.04,0.21 -0.06,0.21 -0.06,0.21 -0.07,0.21 -0.07,0.21 -0.05,0.11 -0.04,0.11 -0.05,0.1 -0.05,0.11 c -0.6,1.22 -1.45,1.86 -1.55,1.86 -0.06,0 -0.1,-0.03 -0.1,-0.09 0,-0.03 0,-0.05 0.19,-0.23 0.97,-0.99 1.54,-2.57 1.54,-4.64 0,-1.7 -0.37,-3.45 -1.6,-4.7 -0.13,-0.12 -0.13,-0.14 -0.13,-0.17 0,-0.06 0.04,-0.1 0.1,-0.1 0.1,0 0.99,0.68 1.58,1.94 0.51,1.09 0.63,2.19 0.63,3.03 z"
         id="path4331" /></g>    <g
       style="font-style:normal;font-variant:normal;font-weight:normal;font-stretch:normal;letter-spacing:normal;word-spacing:normal;text-anchor:start;fill:none;stroke:#000000;stroke-linecap:butt;stroke-linejoin:miter;stroke-miterlimit:10.43299961;stroke-opacity:1;stroke-dasharray:none;stroke-dashoffset:0"
       ns0:preamble=""
       ns0:text="$\\mathrm{\\mu^S = \\mu^G}$"
       word-spacing="normal"
       letter-spacing="normal"
       font-size-adjust="none"
       font-stretch="normal"
       font-weight="normal"
       font-variant="normal"
       font-style="normal"
       stroke-miterlimit="10.433"
       xml:space="preserve"
       transform="matrix(1.3643077,0,0,-1.3643077,-264.71387,1651.1185)"
       id="g4520"><path
         id="path4522"
         d="m 225.73,660.72 0,0.02 0.01,0.02 0.01,0.02 0,0.03 0.01,0.02 0,0.02 0.01,0.05 0.02,0.05 0.01,0.05 0.01,0.05 0.01,0.05 0.01,0.02 0,0.03 0.01,0.02 0.01,0.02 0,0.02 0,0.02 0.01,0.02 0,0.02 0.01,0.01 0,0.02 0,0.01 0,0.01 0.01,0.02 0,0 0,0.01 0,0.01 0,0 c 0,0.17 -0.12,0.27 -0.29,0.27 -0.03,0 -0.31,-0.01 -0.4,-0.36 l -1.43,-5.75 c -0.03,-0.12 -0.03,-0.14 -0.03,-0.16 0,-0.15 0.11,-0.27 0.28,-0.27 0.21,0 0.33,0.18 0.35,0.21 0.04,0.09 0.17,0.6 0.54,2.13 0.32,-0.27 0.77,-0.3 0.97,-0.3 0.7,0 1.08,0.44 1.32,0.72 0.09,-0.45 0.46,-0.72 0.9,-0.72 0.35,0 0.57,0.22 0.73,0.54 0.17,0.36 0.3,0.97 0.3,0.99 0,0.1 -0.09,0.1 -0.12,0.1 -0.1,0 -0.11,-0.04 -0.14,-0.18 -0.16,-0.65 -0.34,-1.24 -0.75,-1.24 -0.27,0 -0.3,0.26 -0.3,0.46 0,0.22 0.12,0.69 0.2,1.03 l 0.28,1.08 c 0.03,0.15 0.13,0.52 0.17,0.67 0.05,0.23 0.15,0.61 0.15,0.67 0,0.18 -0.14,0.27 -0.29,0.27 -0.05,0 -0.31,-0.01 -0.39,-0.35 l -0.47,-1.86 c -0.12,-0.5 -0.23,-0.91 -0.26,-1.01 -0.01,-0.05 -0.49,-0.96 -1.29,-0.96 -0.5,0 -0.74,0.33 -0.74,0.87 0,0.29 0.07,0.57 0.14,0.84 z"
         inkscape:connector-curvature="0"
         style="fill:#000000;stroke-width:0" /><path
         id="path4524"
         d="m 231.17,663.75 -0.06,0.01 -0.05,0.02 -0.05,0.02 -0.05,0.02 -0.05,0.02 -0.04,0.02 -0.04,0.02 -0.04,0.02 -0.04,0.03 -0.04,0.03 -0.03,0.02 -0.03,0.03 -0.03,0.03 -0.03,0.03 -0.03,0.03 -0.02,0.03 -0.02,0.03 -0.02,0.03 -0.02,0.03 -0.02,0.03 -0.02,0.04 -0.01,0.03 -0.01,0.03 -0.01,0.03 -0.01,0.03 -0.01,0.03 -0.01,0.03 0,0.03 -0.01,0.03 0,0.03 0,0.03 0,0.03 c 0,0.46 0.42,0.9 1.06,0.9 0.94,0 1.34,-0.63 1.45,-1.36 0.02,-0.1 0.02,-0.14 0.13,-0.14 0.12,0 0.12,0.05 0.12,0.18 v 1.36 c 0,0.12 0,0.18 -0.1,0.18 -0.06,0 -0.07,-0.02 -0.12,-0.1 l -0.25,-0.39 c -0.46,0.47 -1.04,0.49 -1.23,0.49 -0.88,0 -1.51,-0.63 -1.51,-1.33 0,-0.39 0.18,-0.69 0.43,-0.92 0.28,-0.27 0.51,-0.32 1.26,-0.49 0.63,-0.14 0.77,-0.17 0.97,-0.36 0.16,-0.16 0.31,-0.38 0.31,-0.7 0,-0.48 -0.4,-0.98 -1.07,-0.98 -0.68,0 -1.61,0.27 -1.66,1.32 -0.01,0.11 -0.01,0.15 -0.12,0.15 -0.12,0 -0.12,-0.05 -0.12,-0.19 v -1.35 c 0,-0.12 0,-0.18 0.1,-0.18 0.06,0 0.07,0.02 0.11,0.08 0.06,0.09 0.2,0.31 0.26,0.4 0.44,-0.38 0.97,-0.48 1.43,-0.48 0.92,0 1.52,0.69 1.52,1.43 0,0.62 -0.44,1.21 -1.14,1.37 z"
         inkscape:connector-curvature="0"
         style="fill:#000000;stroke-width:0" /><path
         id="path4526"
         d="m 243.94,660.48 0.02,0 0.03,0 0.03,0 0.02,0.01 0.01,0 0.02,0 0.01,0 0.01,0 0.02,0 0.01,0.01 0.02,0 0.01,0 0.01,0.01 0.01,0 0.01,0.01 0.02,0 0.01,0.01 0.01,0.01 0.01,0.01 0,0.01 0.01,0.01 0.01,0 0,0.01 0,0 0.01,0.01 0,0.01 0,0 0,0.01 0.01,0.01 0,0 0,0.01 0,0.01 0,0.01 0,0.01 0,0 0,0.01 0,0.01 c 0,0.2 -0.18,0.2 -0.32,0.2 h -5.96 c -0.14,0 -0.33,0 -0.33,-0.2 0,-0.2 0.19,-0.2 0.34,-0.2 z"
         inkscape:connector-curvature="0"
         style="fill:#000000;stroke-width:0" /><path
         id="path4528"
         d="m 243.95,658.56 0.01,0 0.01,0 0.03,0 0.03,0 0.01,0 0.02,0 0.01,0 0.01,0 0.02,0 0.01,0.01 0.01,0 0.02,0 0.01,0.01 0.01,0 0.01,0.01 0.02,0 0.01,0.01 0.01,0 0.01,0.01 0.01,0.01 0,0.01 0.01,0 0,0.01 0.01,0.01 0,0 0,0.01 0.01,0 0,0.01 0,0.01 0,0 0.01,0.01 0,0.01 0,0 0,0.01 0,0.01 0,0.01 0,0.01 0,0.01 0,0.01 c 0,0.19 -0.18,0.19 -0.33,0.19 H 238 c -0.15,0 -0.34,0 -0.34,-0.19 0,-0.2 0.19,-0.2 0.33,-0.2 z"
         inkscape:connector-curvature="0"
         style="fill:#000000;stroke-width:0" /><path
         id="path4530"
         d="m 249.91,660.72 0.01,0.02 0,0.02 0.01,0.02 0.01,0.03 0,0.02 0.01,0.02 0.01,0.05 0.01,0.05 0.01,0.05 0.02,0.05 0.01,0.05 0,0.02 0.01,0.03 0,0.02 0.01,0.02 0,0.02 0.01,0.02 0,0.02 0.01,0.02 0,0.01 0,0.02 0.01,0.01 0,0.01 0,0.02 0,0 0,0.01 0,0.01 0,0 c 0,0.17 -0.11,0.27 -0.28,0.27 -0.03,0 -0.31,-0.01 -0.4,-0.36 l -1.43,-5.75 c -0.04,-0.12 -0.04,-0.14 -0.04,-0.16 0,-0.15 0.11,-0.27 0.28,-0.27 0.21,0 0.33,0.18 0.35,0.21 0.04,0.09 0.17,0.6 0.55,2.13 0.32,-0.27 0.77,-0.3 0.96,-0.3 0.7,0 1.09,0.44 1.33,0.72 0.09,-0.45 0.46,-0.72 0.89,-0.72 0.35,0 0.58,0.22 0.74,0.54 0.17,0.36 0.3,0.97 0.3,0.99 0,0.1 -0.09,0.1 -0.12,0.1 -0.1,0 -0.11,-0.04 -0.14,-0.18 -0.17,-0.65 -0.35,-1.24 -0.76,-1.24 -0.27,0 -0.3,0.26 -0.3,0.46 0,0.22 0.12,0.69 0.2,1.03 l 0.28,1.08 c 0.03,0.15 0.13,0.52 0.17,0.67 0.05,0.23 0.15,0.61 0.15,0.67 0,0.18 -0.14,0.27 -0.29,0.27 -0.05,0 -0.31,-0.01 -0.39,-0.35 l -0.46,-1.86 c -0.12,-0.5 -0.23,-0.91 -0.26,-1.01 -0.01,-0.05 -0.49,-0.96 -1.3,-0.96 -0.49,0 -0.73,0.33 -0.73,0.87 0,0.29 0.07,0.57 0.14,0.84 z"
         inkscape:connector-curvature="0"
         style="fill:#000000;stroke-width:0" /><path
         id="path4532"
         d="m 258.81,662.21 0,0.03 0,0.03 0,0.02 0,0.03 0.01,0.02 0,0.02 0,0.01 0.01,0.02 0,0.02 0.01,0.01 0.01,0.01 0.01,0.02 0.01,0.01 0.01,0.01 0.01,0 0.01,0.01 0.02,0.01 0.01,0 0.02,0.01 0.02,0 0.02,0.01 0.02,0 0.02,0 0.01,0 0.01,0 0.01,0.01 0.02,0 0.01,0 0.02,0 0.01,0 0.02,0 0.01,0 0.02,0 0.02,0 0.02,0 0.01,0 0.02,0 0.02,0 0.02,0 0.02,0 0.02,0 0.03,0 v 0.25 c -0.05,0 -0.56,-0.03 -0.9,-0.03 -0.37,0 -0.9,0 -1.26,0.03 v -0.25 h 0.26 c 0.7,0 0.7,-0.09 0.7,-0.32 v -0.44 c 0,-0.16 0,-0.43 -0.4,-0.62 -0.34,-0.18 -0.73,-0.18 -0.82,-0.18 -0.79,0 -2.08,0.45 -2.08,2.27 0,1.85 1.33,2.26 2.01,2.26 0.68,0 1.52,-0.45 1.7,-1.66 0.01,-0.08 0.07,-0.08 0.12,-0.08 0.13,0 0.13,0.04 0.13,0.18 v 1.63 c 0,0.12 0,0.18 -0.1,0.18 -0.03,0 -0.06,0 -0.12,-0.08 l -0.37,-0.53 c -0.34,0.34 -0.83,0.61 -1.45,0.61 -1.44,0 -2.66,-1.12 -2.66,-2.51 0,-1.38 1.18,-2.52 2.69,-2.52 0.38,0 1.15,0.07 1.48,0.56 0.12,-0.18 0.37,-0.42 0.45,-0.42 0.08,0 0.08,0.08 0.08,0.18 z"
         inkscape:connector-curvature="0"
         style="fill:#000000;stroke-width:0" /></g>    <g
       id="g4732"
       transform="matrix(1.5000617,0,0,-1.5000617,-354.34229,1858.0735)"
       xml:space="preserve"
       stroke-miterlimit="10.433"
       font-style="normal"
       font-variant="normal"
       font-weight="normal"
       font-stretch="normal"
       font-size-adjust="none"
       letter-spacing="normal"
       word-spacing="normal"
       ns0:text="$\\mathrm{\\mu^L = \\mu^G}$"
       ns0:preamble=""
       style="font-style:normal;font-variant:normal;font-weight:normal;font-stretch:normal;letter-spacing:normal;word-spacing:normal;text-anchor:start;fill:none;stroke:#000000;stroke-linecap:butt;stroke-linejoin:miter;stroke-miterlimit:10.43299961;stroke-opacity:1;stroke-dasharray:none;stroke-dashoffset:0"><path
         style="fill:#000000;stroke-width:0"
         inkscape:connector-curvature="0"
         d="m 225.73,660.72 0,0.02 0.01,0.02 0.01,0.02 0,0.03 0.01,0.02 0,0.02 0.01,0.05 0.02,0.05 0.01,0.05 0.01,0.05 0.01,0.05 0.01,0.02 0,0.03 0.01,0.02 0.01,0.02 0,0.02 0,0.02 0.01,0.02 0,0.02 0.01,0.01 0,0.02 0,0.01 0,0.01 0.01,0.02 0,0 0,0.01 0,0.01 0,0 c 0,0.17 -0.12,0.27 -0.29,0.27 -0.03,0 -0.31,-0.01 -0.4,-0.36 l -1.43,-5.75 c -0.03,-0.12 -0.03,-0.14 -0.03,-0.16 0,-0.15 0.11,-0.27 0.28,-0.27 0.21,0 0.33,0.18 0.35,0.21 0.04,0.09 0.17,0.6 0.54,2.13 0.32,-0.27 0.77,-0.3 0.97,-0.3 0.7,0 1.08,0.44 1.32,0.72 0.09,-0.45 0.46,-0.72 0.9,-0.72 0.35,0 0.57,0.22 0.73,0.54 0.17,0.36 0.3,0.97 0.3,0.99 0,0.1 -0.09,0.1 -0.12,0.1 -0.1,0 -0.11,-0.04 -0.14,-0.18 -0.16,-0.65 -0.34,-1.24 -0.75,-1.24 -0.27,0 -0.3,0.26 -0.3,0.46 0,0.22 0.12,0.69 0.2,1.03 l 0.28,1.08 c 0.03,0.15 0.13,0.52 0.17,0.67 0.05,0.23 0.15,0.61 0.15,0.67 0,0.18 -0.14,0.27 -0.29,0.27 -0.05,0 -0.31,-0.01 -0.39,-0.35 l -0.47,-1.86 c -0.12,-0.5 -0.23,-0.91 -0.26,-1.01 -0.01,-0.05 -0.49,-0.96 -1.29,-0.96 -0.5,0 -0.74,0.33 -0.74,0.87 0,0.29 0.07,0.57 0.14,0.84 z"
         id="path4734" /><path
         style="fill:#000000;stroke-width:0"
         inkscape:connector-curvature="0"
         d="m 233.97,662.68 h -0.24 c -0.07,-0.68 -0.18,-1.58 -1.49,-1.58 h -0.7 c -0.33,0 -0.34,0.06 -0.34,0.27 v 3.66 c 0,0.23 0,0.32 0.66,0.32 h 0.24 v 0.25 c -0.14,-0.01 -1.03,-0.03 -1.22,-0.03 -0.26,0 -1.05,0.03 -1.06,0.03 v -0.25 h 0.17 c 0.54,0 0.55,-0.07 0.55,-0.31 v -3.63 c 0,-0.23 -0.01,-0.31 -0.55,-0.31 h -0.17 v -0.25 h 3.94 z"
         id="path4736" /><path
         style="fill:#000000;stroke-width:0"
         inkscape:connector-curvature="0"
         d="m 244.46,660.48 0.03,0 0.03,0 0.03,0 0.01,0.01 0.02,0 0.01,0 0.02,0 0.01,0 0.01,0 0.02,0.01 0.01,0 0.01,0 0.02,0.01 0.01,0 0.01,0.01 0.01,0 0.01,0.01 0.01,0.01 0.01,0.01 0.01,0.01 0.01,0.01 0,0 0.01,0.01 0,0 0,0.01 0,0.01 0.01,0 0,0.01 0,0.01 0,0 0.01,0.01 0,0.01 0,0.01 0,0.01 0,0 0,0.01 0,0.01 c 0,0.2 -0.19,0.2 -0.33,0.2 h -5.96 c -0.14,0 -0.33,0 -0.33,-0.2 0,-0.2 0.19,-0.2 0.34,-0.2 z"
         id="path4738" /><path
         style="fill:#000000;stroke-width:0"
         inkscape:connector-curvature="0"
         d="m 244.47,658.56 0.02,0 0.01,0 0.03,0 0.02,0 0.02,0 0.01,0 0.02,0 0.01,0 0.01,0 0.02,0.01 0.01,0 0.01,0 0.02,0.01 0.01,0 0.01,0.01 0.01,0 0.01,0.01 0.01,0 0.01,0.01 0.01,0.01 0.01,0.01 0,0 0.01,0.01 0,0.01 0.01,0 0,0.01 0,0 0,0.01 0.01,0.01 0,0 0,0.01 0,0.01 0.01,0 0,0.01 0,0.01 0,0.01 0,0.01 0,0.01 0,0.01 c 0,0.19 -0.19,0.19 -0.34,0.19 h -5.94 c -0.15,0 -0.34,0 -0.34,-0.19 0,-0.2 0.19,-0.2 0.33,-0.2 z"
         id="path4740" /><path
         style="fill:#000000;stroke-width:0"
         inkscape:connector-curvature="0"
         d="m 250.44,660.72 0.01,0.02 0,0.02 0.01,0.02 0,0.03 0.01,0.02 0,0.02 0.02,0.05 0.01,0.05 0.01,0.05 0.01,0.05 0.01,0.05 0.01,0.02 0.01,0.03 0,0.02 0.01,0.02 0,0.02 0.01,0.02 0,0.02 0,0.02 0.01,0.01 0,0.02 0,0.01 0.01,0.01 0,0.02 0,0 0,0.01 0,0.01 0,0 c 0,0.17 -0.12,0.27 -0.29,0.27 -0.03,0 -0.31,-0.01 -0.4,-0.36 l -1.43,-5.75 c -0.03,-0.12 -0.03,-0.14 -0.03,-0.16 0,-0.15 0.11,-0.27 0.28,-0.27 0.21,0 0.33,0.18 0.35,0.21 0.04,0.09 0.17,0.6 0.55,2.13 0.31,-0.27 0.76,-0.3 0.96,-0.3 0.7,0 1.08,0.44 1.32,0.72 0.09,-0.45 0.46,-0.72 0.9,-0.72 0.35,0 0.58,0.22 0.74,0.54 0.17,0.36 0.29,0.97 0.29,0.99 0,0.1 -0.09,0.1 -0.12,0.1 -0.09,0 -0.11,-0.04 -0.14,-0.18 -0.16,-0.65 -0.34,-1.24 -0.75,-1.24 -0.27,0 -0.3,0.26 -0.3,0.46 0,0.22 0.12,0.69 0.2,1.03 l 0.28,1.08 c 0.03,0.15 0.13,0.52 0.17,0.67 0.05,0.23 0.15,0.61 0.15,0.67 0,0.18 -0.14,0.27 -0.29,0.27 -0.05,0 -0.31,-0.01 -0.39,-0.35 l -0.47,-1.86 c -0.12,-0.5 -0.23,-0.91 -0.26,-1.01 -0.01,-0.05 -0.48,-0.96 -1.29,-0.96 -0.5,0 -0.74,0.33 -0.74,0.87 0,0.29 0.07,0.57 0.14,0.84 z"
         id="path4742" /><path
         style="fill:#000000;stroke-width:0"
         inkscape:connector-curvature="0"
         d="m 259.33,662.21 0.01,0.03 0,0.03 0,0.02 0,0.03 0,0.02 0,0.02 0.01,0.01 0,0.02 0.01,0.02 0.01,0.01 0,0.01 0.01,0.02 0.01,0.01 0.01,0.01 0.01,0 0.02,0.01 0.01,0.01 0.02,0 0.02,0.01 0.02,0 0.02,0.01 0.02,0 0.01,0 0.01,0 0.02,0 0.01,0.01 0.01,0 0.02,0 0.01,0 0.02,0 0.01,0 0.02,0 0.02,0 0.01,0 0.02,0 0.02,0 0.02,0 0.02,0 0.02,0 0.02,0 0.02,0 0.02,0 v 0.25 c -0.05,0 -0.56,-0.03 -0.9,-0.03 -0.37,0 -0.9,0 -1.26,0.03 v -0.25 h 0.27 c 0.69,0 0.69,-0.09 0.69,-0.32 v -0.44 c 0,-0.16 0,-0.43 -0.39,-0.62 -0.35,-0.18 -0.73,-0.18 -0.83,-0.18 -0.78,0 -2.07,0.45 -2.07,2.27 0,1.85 1.32,2.26 2.01,2.26 0.68,0 1.51,-0.45 1.69,-1.66 0.02,-0.08 0.08,-0.08 0.13,-0.08 0.12,0 0.12,0.04 0.12,0.18 v 1.63 c 0,0.12 0,0.18 -0.09,0.18 -0.03,0 -0.07,0 -0.12,-0.08 l -0.37,-0.53 c -0.34,0.34 -0.84,0.61 -1.45,0.61 -1.45,0 -2.67,-1.12 -2.67,-2.51 0,-1.38 1.19,-2.52 2.69,-2.52 0.38,0 1.16,0.07 1.48,0.56 0.12,-0.18 0.38,-0.42 0.45,-0.42 0.08,0 0.08,0.08 0.08,0.18 z"
         id="path4744" /></g>    <g
       style="font-style:normal;font-variant:normal;font-weight:normal;font-stretch:normal;letter-spacing:normal;word-spacing:normal;text-anchor:start;fill:none;stroke:#000000;stroke-linecap:butt;stroke-linejoin:miter;stroke-miterlimit:10.43299961;stroke-opacity:1;stroke-dasharray:none;stroke-dashoffset:0"
       ns0:preamble=""
       ns0:text="$\\mathrm{\\mu^S = \\mu^L}$"
       word-spacing="normal"
       letter-spacing="normal"
       font-size-adjust="none"
       font-stretch="normal"
       font-weight="normal"
       font-variant="normal"
       font-style="normal"
       stroke-miterlimit="10.433"
       xml:space="preserve"
       transform="matrix(1.5158641,0,0,-1.5158641,-88.193813,1899.6125)"
       id="g4958"><path
         id="path4960"
         d="m 225.73,660.72 0,0.02 0.01,0.02 0.01,0.02 0,0.03 0.01,0.02 0,0.02 0.01,0.05 0.02,0.05 0.01,0.05 0.01,0.05 0.01,0.05 0.01,0.02 0,0.03 0.01,0.02 0.01,0.02 0,0.02 0,0.02 0.01,0.02 0,0.02 0.01,0.01 0,0.02 0,0.01 0,0.01 0.01,0.02 0,0 0,0.01 0,0.01 0,0 c 0,0.17 -0.12,0.27 -0.29,0.27 -0.03,0 -0.31,-0.01 -0.4,-0.36 l -1.43,-5.75 c -0.03,-0.12 -0.03,-0.14 -0.03,-0.16 0,-0.15 0.11,-0.27 0.28,-0.27 0.21,0 0.33,0.18 0.35,0.21 0.04,0.09 0.17,0.6 0.54,2.13 0.32,-0.27 0.77,-0.3 0.97,-0.3 0.7,0 1.08,0.44 1.32,0.72 0.09,-0.45 0.46,-0.72 0.9,-0.72 0.35,0 0.57,0.22 0.73,0.54 0.17,0.36 0.3,0.97 0.3,0.99 0,0.1 -0.09,0.1 -0.12,0.1 -0.1,0 -0.11,-0.04 -0.14,-0.18 -0.16,-0.65 -0.34,-1.24 -0.75,-1.24 -0.27,0 -0.3,0.26 -0.3,0.46 0,0.22 0.12,0.69 0.2,1.03 l 0.28,1.08 c 0.03,0.15 0.13,0.52 0.17,0.67 0.05,0.23 0.15,0.61 0.15,0.67 0,0.18 -0.14,0.27 -0.29,0.27 -0.05,0 -0.31,-0.01 -0.39,-0.35 l -0.47,-1.86 c -0.12,-0.5 -0.23,-0.91 -0.26,-1.01 -0.01,-0.05 -0.49,-0.96 -1.29,-0.96 -0.5,0 -0.74,0.33 -0.74,0.87 0,0.29 0.07,0.57 0.14,0.84 z"
         inkscape:connector-curvature="0"
         style="fill:#000000;stroke-width:0" /><path
         id="path4962"
         d="m 231.17,663.75 -0.06,0.01 -0.05,0.02 -0.05,0.02 -0.05,0.02 -0.05,0.02 -0.04,0.02 -0.04,0.02 -0.04,0.02 -0.04,0.03 -0.04,0.03 -0.03,0.02 -0.03,0.03 -0.03,0.03 -0.03,0.03 -0.03,0.03 -0.02,0.03 -0.02,0.03 -0.02,0.03 -0.02,0.03 -0.02,0.03 -0.02,0.04 -0.01,0.03 -0.01,0.03 -0.01,0.03 -0.01,0.03 -0.01,0.03 -0.01,0.03 0,0.03 -0.01,0.03 0,0.03 0,0.03 0,0.03 c 0,0.46 0.42,0.9 1.06,0.9 0.94,0 1.34,-0.63 1.45,-1.36 0.02,-0.1 0.02,-0.14 0.13,-0.14 0.12,0 0.12,0.05 0.12,0.18 v 1.36 c 0,0.12 0,0.18 -0.1,0.18 -0.06,0 -0.07,-0.02 -0.12,-0.1 l -0.25,-0.39 c -0.46,0.47 -1.04,0.49 -1.23,0.49 -0.88,0 -1.51,-0.63 -1.51,-1.33 0,-0.39 0.18,-0.69 0.43,-0.92 0.28,-0.27 0.51,-0.32 1.26,-0.49 0.63,-0.14 0.77,-0.17 0.97,-0.36 0.16,-0.16 0.31,-0.38 0.31,-0.7 0,-0.48 -0.4,-0.98 -1.07,-0.98 -0.68,0 -1.61,0.27 -1.66,1.32 -0.01,0.11 -0.01,0.15 -0.12,0.15 -0.12,0 -0.12,-0.05 -0.12,-0.19 v -1.35 c 0,-0.12 0,-0.18 0.1,-0.18 0.06,0 0.07,0.02 0.11,0.08 0.06,0.09 0.2,0.31 0.26,0.4 0.44,-0.38 0.97,-0.48 1.43,-0.48 0.92,0 1.52,0.69 1.52,1.43 0,0.62 -0.44,1.21 -1.14,1.37 z"
         inkscape:connector-curvature="0"
         style="fill:#000000;stroke-width:0" /><path
         id="path4964"
         d="m 243.94,660.48 0.02,0 0.03,0 0.03,0 0.02,0.01 0.01,0 0.02,0 0.01,0 0.01,0 0.02,0 0.01,0.01 0.02,0 0.01,0 0.01,0.01 0.01,0 0.01,0.01 0.02,0 0.01,0.01 0.01,0.01 0.01,0.01 0,0.01 0.01,0.01 0.01,0 0,0.01 0,0 0.01,0.01 0,0.01 0,0 0,0.01 0.01,0.01 0,0 0,0.01 0,0.01 0,0.01 0,0.01 0,0 0,0.01 0,0.01 c 0,0.2 -0.18,0.2 -0.32,0.2 h -5.96 c -0.14,0 -0.33,0 -0.33,-0.2 0,-0.2 0.19,-0.2 0.34,-0.2 z"
         inkscape:connector-curvature="0"
         style="fill:#000000;stroke-width:0" /><path
         id="path4966"
         d="m 243.95,658.56 0.01,0 0.01,0 0.03,0 0.03,0 0.01,0 0.02,0 0.01,0 0.01,0 0.02,0 0.01,0.01 0.01,0 0.02,0 0.01,0.01 0.01,0 0.01,0.01 0.02,0 0.01,0.01 0.01,0 0.01,0.01 0.01,0.01 0,0.01 0.01,0 0,0.01 0.01,0.01 0,0 0,0.01 0.01,0 0,0.01 0,0.01 0,0 0.01,0.01 0,0.01 0,0 0,0.01 0,0.01 0,0.01 0,0.01 0,0.01 0,0.01 c 0,0.19 -0.18,0.19 -0.33,0.19 H 238 c -0.15,0 -0.34,0 -0.34,-0.19 0,-0.2 0.19,-0.2 0.33,-0.2 z"
         inkscape:connector-curvature="0"
         style="fill:#000000;stroke-width:0" /><path
         id="path4968"
         d="m 249.91,660.72 0.01,0.02 0,0.02 0.01,0.02 0.01,0.03 0,0.02 0.01,0.02 0.01,0.05 0.01,0.05 0.01,0.05 0.02,0.05 0.01,0.05 0,0.02 0.01,0.03 0,0.02 0.01,0.02 0,0.02 0.01,0.02 0,0.02 0.01,0.02 0,0.01 0,0.02 0.01,0.01 0,0.01 0,0.02 0,0 0,0.01 0,0.01 0,0 c 0,0.17 -0.11,0.27 -0.28,0.27 -0.03,0 -0.31,-0.01 -0.4,-0.36 l -1.43,-5.75 c -0.04,-0.12 -0.04,-0.14 -0.04,-0.16 0,-0.15 0.11,-0.27 0.28,-0.27 0.21,0 0.33,0.18 0.35,0.21 0.04,0.09 0.17,0.6 0.55,2.13 0.32,-0.27 0.77,-0.3 0.96,-0.3 0.7,0 1.09,0.44 1.33,0.72 0.09,-0.45 0.46,-0.72 0.89,-0.72 0.35,0 0.58,0.22 0.74,0.54 0.17,0.36 0.3,0.97 0.3,0.99 0,0.1 -0.09,0.1 -0.12,0.1 -0.1,0 -0.11,-0.04 -0.14,-0.18 -0.17,-0.65 -0.35,-1.24 -0.76,-1.24 -0.27,0 -0.3,0.26 -0.3,0.46 0,0.22 0.12,0.69 0.2,1.03 l 0.28,1.08 c 0.03,0.15 0.13,0.52 0.17,0.67 0.05,0.23 0.15,0.61 0.15,0.67 0,0.18 -0.14,0.27 -0.29,0.27 -0.05,0 -0.31,-0.01 -0.39,-0.35 l -0.46,-1.86 c -0.12,-0.5 -0.23,-0.91 -0.26,-1.01 -0.01,-0.05 -0.49,-0.96 -1.3,-0.96 -0.49,0 -0.73,0.33 -0.73,0.87 0,0.29 0.07,0.57 0.14,0.84 z"
         inkscape:connector-curvature="0"
         style="fill:#000000;stroke-width:0" /><path
         id="path4970"
         d="m 258.15,662.68 h -0.23 c -0.08,-0.68 -0.18,-1.58 -1.5,-1.58 h -0.7 c -0.32,0 -0.33,0.06 -0.33,0.27 v 3.66 c 0,0.23 0,0.32 0.65,0.32 h 0.25 v 0.25 c -0.15,-0.01 -1.04,-0.03 -1.22,-0.03 -0.27,0 -1.05,0.03 -1.06,0.03 v -0.25 h 0.17 c 0.53,0 0.55,-0.07 0.55,-0.31 v -3.63 c 0,-0.23 -0.02,-0.31 -0.55,-0.31 h -0.17 v -0.25 h 3.94 z"
         inkscape:connector-curvature="0"
         style="fill:#000000;stroke-width:0" /></g>    <path
       style="fill:none;stroke:#000000;stroke-width:1px;stroke-linecap:butt;stroke-linejoin:miter;stroke-opacity:1"
       d="m 200,370.53571 -60,100"
       id="path5066"
       inkscape:connector-curvature="0"
       transform="translate(-63.028358,665.51153)" />
    <path
       sodipodi:nodetypes="cc"
       style="fill:none;stroke:#000000;stroke-width:1;stroke-linecap:butt;stroke-linejoin:miter;stroke-miterlimit:4;stroke-opacity:1;stroke-dasharray:6, 6;stroke-dashoffset:0"
       d="m 170,420.53571 50,0"
       id="path5068"
       inkscape:connector-curvature="0"
       transform="translate(-63.028358,665.51153)" />
    <g
       style="font-style:normal;font-variant:normal;font-weight:normal;font-stretch:normal;letter-spacing:normal;word-spacing:normal;text-anchor:start;fill:none;stroke:#000000;stroke-linecap:butt;stroke-linejoin:miter;stroke-miterlimit:10.43299961;stroke-opacity:1;stroke-dasharray:none;stroke-dashoffset:0"
       id="g5168"
       transform="matrix(1.4755564,0,0,-1.4755564,-241.13813,2057.1948)"
       xml:space="preserve"
       stroke-miterlimit="10.433"
       font-style="normal"
       font-variant="normal"
       font-weight="normal"
       font-stretch="normal"
       font-size-adjust="none"
       letter-spacing="normal"
       word-spacing="normal"
       ns0:text="$\\mathrm{A^\\prime}$"
       ns0:preamble=""><path
         style="fill:#000000;stroke-width:0"
         inkscape:connector-curvature="0"
         d="m 227.39,664.15 0,0.01 -0.01,0.01 0,0.01 -0.01,0.01 0,0.02 0,0.01 -0.01,0.01 0,0 -0.01,0.01 0,0.01 -0.01,0.01 0,0.01 -0.01,0.01 0,0 -0.01,0.01 0,0.01 -0.01,0 0,0.01 -0.01,0 -0.01,0.01 -0.01,0 0,0.01 -0.01,0 -0.01,0.01 -0.01,0 -0.01,0 -0.01,0 -0.01,0 -0.02,0.01 -0.01,0 -0.01,0 -0.01,0 -0.01,0 c -0.16,0 -0.19,-0.06 -0.24,-0.2 l -2.05,-5.94 c -0.18,-0.51 -0.58,-0.66 -1.12,-0.67 v -0.31 c 0.23,0.01 0.66,0.04 1.01,0.04 0.31,0 0.83,-0.03 1.15,-0.04 v 0.31 c -0.5,0 -0.75,0.25 -0.75,0.51 0,0.03 0.01,0.13 0.02,0.15 l 0.46,1.3 0.11,0.31 1.11,3.23 1.13,-3.23 h -2.24 l -0.11,-0.31 h 2.46 l 0.53,-1.52 c 0,-0.04 0.02,-0.1 0.02,-0.14 0,-0.3 -0.55,-0.3 -0.82,-0.3 v -0.31 c 0.36,0.04 1.05,0.04 1.43,0.04 0.43,0 0.89,-0.01 1.31,-0.04 v 0.31 h -0.18 c -0.6,0 -0.74,0.07 -0.85,0.4 z"
         id="path5170" /><path
         style="fill:#000000;stroke-width:0"
         inkscape:connector-curvature="0"
         d="m 232.92,664.13 0.01,0.01 0,0.01 0.01,0.01 0,0.01 0.01,0.01 0,0.01 0,0.01 0.01,0.01 0,0.01 0,0.01 0.01,0 0,0.01 0,0.01 0,0.01 0,0 0.01,0.01 0,0.01 0,0 0,0.01 0,0.01 0,0 0,0.01 0,0 0,0.01 0,0.01 0.01,0.01 0,0.01 0,0.01 c 0,0.21 -0.2,0.38 -0.42,0.38 -0.26,0 -0.34,-0.22 -0.38,-0.33 l -0.92,-3.01 c 0,-0.01 -0.03,-0.1 -0.03,-0.11 0,-0.08 0.21,-0.15 0.27,-0.15 0.05,0 0.06,0.01 0.1,0.11 z"
         id="path5172" /></g>    <g
       style="font-style:normal;font-variant:normal;font-weight:normal;font-stretch:normal;letter-spacing:normal;word-spacing:normal;text-anchor:start;fill:none;stroke:#000000;stroke-linecap:butt;stroke-linejoin:miter;stroke-miterlimit:10.43299961;stroke-opacity:1;stroke-dasharray:none;stroke-dashoffset:0"
       ns0:preamble=""
       ns0:text="$\\mathrm{B^\\prime}$"
       word-spacing="normal"
       letter-spacing="normal"
       font-size-adjust="none"
       font-stretch="normal"
       font-weight="normal"
       font-variant="normal"
       font-style="normal"
       stroke-miterlimit="10.433"
       xml:space="preserve"
       transform="matrix(1.4755564,0,0,-1.4755564,-89.709556,2061.4805)"
       id="g5398"><path
         id="path5400"
         d="m 227.99,660.78 0.09,0.02 0.09,0.02 0.08,0.03 0.09,0.02 0.08,0.03 0.08,0.03 0.08,0.04 0.07,0.03 0.08,0.04 0.07,0.04 0.07,0.04 0.07,0.04 0.06,0.05 0.06,0.05 0.06,0.05 0.06,0.05 0.05,0.05 0.05,0.05 0.05,0.06 0.04,0.05 0.04,0.06 0.04,0.06 0.04,0.06 0.03,0.06 0.03,0.07 0.02,0.06 0.02,0.07 0.02,0.06 0.01,0.07 0.01,0.06 0.01,0.07 0,0.07 c 0,0.87 -0.91,1.68 -2.21,1.68 l -0.07,-0.31 c 0.97,0 1.32,-0.84 1.32,-1.37 0,-0.63 -0.49,-1.47 -1.6,-1.47 h -1.44 v -0.22 h 1.87 c 0.99,0 1.4,-0.92 1.4,-1.59 0,-0.7 -0.51,-1.52 -1.54,-1.52 h 0 -1.24 c -0.47,0 -0.49,0.07 -0.49,0.4 v 2.71 0.22 2.45 c 0,0.32 0.02,0.39 0.49,0.39 h 1.23 l 0.07,0.31 h -3.64 v -0.31 h 0.24 c 0.76,0 0.79,-0.11 0.79,-0.47 v -5.23 c 0,-0.36 -0.03,-0.47 -0.79,-0.47 h -0.24 v -0.31 h 3.9 c 1.32,0 2.22,0.89 2.22,1.82 0,0.87 -0.82,1.61 -1.92,1.73 z"
         inkscape:connector-curvature="0"
         style="fill:#000000;stroke-width:0" /><path
         id="path5402"
         d="m 232.51,664.13 0,0.01 0.01,0.01 0,0.01 0.01,0.01 0,0.01 0.01,0.01 0,0.01 0,0.01 0,0.01 0.01,0.01 0,0 0,0.01 0.01,0.01 0,0.01 0,0 0,0.01 0,0.01 0,0 0,0.01 0.01,0.01 0,0 0,0.01 0,0 0,0.01 0,0.01 0,0.01 0,0.01 0,0.01 c 0,0.21 -0.19,0.38 -0.41,0.38 -0.26,0 -0.35,-0.22 -0.38,-0.33 l -0.92,-3.01 c -0.01,-0.01 -0.04,-0.1 -0.04,-0.11 0,-0.08 0.22,-0.15 0.28,-0.15 0.04,0 0.05,0.01 0.1,0.11 z"
         inkscape:connector-curvature="0"
         style="fill:#000000;stroke-width:0" /></g>    <g
       id="g5634"
       transform="matrix(1.4755564,0,0,-1.4755564,-153.99527,2000.0519)"
       xml:space="preserve"
       stroke-miterlimit="10.433"
       font-style="normal"
       font-variant="normal"
       font-weight="normal"
       font-stretch="normal"
       font-size-adjust="none"
       letter-spacing="normal"
       word-spacing="normal"
       ns0:text="$\\mathrm{E^\\prime}$"
       ns0:preamble=""
       style="font-style:normal;font-variant:normal;font-weight:normal;font-stretch:normal;letter-spacing:normal;word-spacing:normal;text-anchor:start;fill:none;stroke:#000000;stroke-linecap:butt;stroke-linejoin:miter;stroke-miterlimit:10.43299961;stroke-opacity:1;stroke-dasharray:none;stroke-dashoffset:0"><path
         style="fill:#000000;stroke-width:0"
         inkscape:connector-curvature="0"
         d="m 224.79,658.01 -0.01,-0.03 0,-0.03 0,-0.03 0,-0.03 0,-0.03 0,-0.03 -0.01,-0.02 0,-0.02 -0.01,-0.03 0,-0.02 -0.01,-0.02 -0.01,-0.02 -0.01,-0.01 -0.02,-0.02 -0.01,-0.01 -0.02,-0.02 -0.02,-0.01 -0.02,-0.01 -0.02,-0.01 -0.01,0 -0.01,-0.01 -0.02,0 -0.01,-0.01 -0.02,0 -0.01,-0.01 -0.02,0 -0.02,0 -0.02,-0.01 -0.01,0 -0.03,0 -0.02,-0.01 -0.02,0 -0.02,0 -0.02,0 -0.03,-0.01 -0.02,0 -0.03,0 -0.03,0 -0.03,0 -0.02,0 -0.03,0 -0.04,-0.01 -0.03,0 -0.03,0 -0.04,0 -0.03,0 h -0.24 v -0.31 h 5.74 l 0.42,2.57 h -0.25 c -0.25,-1.53 -0.48,-2.26 -2.19,-2.26 h -1.32 c -0.47,0 -0.49,0.07 -0.49,0.4 v 2.65 h 0.9 c 0.96,0 1.07,-0.31 1.07,-1.16 h 0.25 v 2.63 h -0.25 c 0,-0.85 -0.11,-1.16 -1.07,-1.16 h -0.9 v 2.38 c 0,0.33 0.02,0.4 0.49,0.4 h 1.28 c 1.52,0 1.79,-0.54 1.95,-1.92 h 0.25 l -0.28,2.23 h -5.6 v -0.31 H 224 c 0.76,0 0.79,-0.11 0.79,-0.46 z"
         id="path5636" /><path
         style="fill:#000000;stroke-width:0"
         inkscape:connector-curvature="0"
         d="m 232.23,664.13 0.01,0.01 0,0.01 0.01,0.01 0,0.01 0,0.01 0.01,0.01 0,0.01 0,0.01 0.01,0.01 0,0.01 0,0 0.01,0.01 0,0.01 0,0.01 0,0 0,0.01 0.01,0.01 0,0 0,0.01 0,0.01 0,0 0,0.01 0,0 0,0.01 0,0.01 0,0.01 0,0.01 0,0.01 c 0,0.21 -0.19,0.38 -0.41,0.38 -0.26,0 -0.34,-0.22 -0.38,-0.33 l -0.92,-3.01 c -0.01,-0.01 -0.03,-0.1 -0.03,-0.11 0,-0.08 0.21,-0.15 0.27,-0.15 0.05,0 0.05,0.01 0.1,0.11 z"
         id="path5638" /></g>    <g
       style="font-style:normal;font-variant:normal;font-weight:normal;font-stretch:normal;letter-spacing:normal;word-spacing:normal;text-anchor:start;fill:none;stroke:#000000;stroke-linecap:butt;stroke-linejoin:miter;stroke-miterlimit:10.43299961;stroke-opacity:1;stroke-dasharray:none;stroke-dashoffset:0"
       ns0:preamble=""
       ns0:text="$\\mathrm{C^\\prime}$"
       word-spacing="normal"
       letter-spacing="normal"
       font-size-adjust="none"
       font-stretch="normal"
       font-weight="normal"
       font-variant="normal"
       font-style="normal"
       stroke-miterlimit="10.433"
       xml:space="preserve"
       transform="matrix(1.4755564,0,0,-1.4755564,-190.42384,2000.7662)"
       id="g5876"><path
         id="path5878"
         d="m 223.99,660.63 0,-0.19 0.02,-0.19 0.02,-0.18 0.03,-0.18 0.04,-0.18 0.05,-0.18 0.06,-0.16 0.06,-0.17 0.07,-0.16 0.08,-0.16 0.08,-0.15 0.1,-0.15 0.1,-0.14 0.1,-0.13 0.11,-0.13 0.12,-0.13 0.12,-0.12 0.12,-0.11 0.14,-0.1 0.13,-0.1 0.14,-0.09 0.15,-0.09 0.15,-0.08 0.15,-0.07 0.16,-0.06 0.16,-0.06 0.16,-0.04 0.16,-0.04 0.17,-0.03 0.17,-0.03 0.17,-0.01 0.17,0 c 1.62,0 2.6,1.38 2.6,2.53 0,0.1 0,0.17 -0.13,0.17 -0.11,0 -0.11,-0.06 -0.12,-0.16 -0.08,-1.42 -1.15,-2.24 -2.23,-2.24 -0.61,0 -2.56,0.34 -2.56,3.3 0,2.97 1.94,3.31 2.55,3.31 1.09,0 1.97,-0.9 2.17,-2.35 0.02,-0.14 0.02,-0.17 0.16,-0.17 0.16,0 0.16,0.03 0.16,0.24 V 664 c 0,0.17 0,0.24 -0.11,0.24 -0.04,0 -0.08,0 -0.16,-0.12 l -0.5,-0.74 c -0.37,0.36 -0.87,0.86 -1.83,0.86 -1.86,0 -3.46,-1.58 -3.46,-3.61 z"
         inkscape:connector-curvature="0"
         style="fill:#000000;stroke-width:0" /><path
         id="path5880"
         d="m 232.65,664.13 0,0.01 0.01,0.01 0,0.01 0.01,0.01 0,0.01 0,0.01 0.01,0.01 0,0.01 0,0.01 0.01,0.01 0,0 0,0.01 0,0.01 0.01,0.01 0,0 0,0.01 0,0.01 0,0 0,0.01 0,0.01 0,0 0.01,0.01 0,0 0,0.01 0,0.01 0,0.01 0,0.01 0,0.01 c 0,0.21 -0.2,0.38 -0.41,0.38 -0.27,0 -0.35,-0.22 -0.38,-0.33 L 231,661.4 c -0.01,-0.01 -0.04,-0.1 -0.04,-0.11 0,-0.08 0.22,-0.15 0.27,-0.15 0.05,0 0.06,0.01 0.11,0.11 z"
         inkscape:connector-curvature="0"
         style="fill:#000000;stroke-width:0" /></g>    <g
       id="g6124"
       transform="matrix(1.4755564,0,0,-1.4755564,-189.70955,2053.6233)"
       xml:space="preserve"
       stroke-miterlimit="10.433"
       font-style="normal"
       font-variant="normal"
       font-weight="normal"
       font-stretch="normal"
       font-size-adjust="none"
       letter-spacing="normal"
       word-spacing="normal"
       ns0:text="$\\mathrm{O^\\prime}$"
       ns0:preamble=""
       style="font-style:normal;font-variant:normal;font-weight:normal;font-stretch:normal;letter-spacing:normal;word-spacing:normal;text-anchor:start;fill:none;stroke:#000000;stroke-linecap:butt;stroke-linejoin:miter;stroke-miterlimit:10.43299961;stroke-opacity:1;stroke-dasharray:none;stroke-dashoffset:0"><path
         style="fill:#000000;stroke-width:0"
         inkscape:connector-curvature="0"
         d="m 230.6,660.6 0,0.19 -0.01,0.19 -0.02,0.18 -0.03,0.18 -0.04,0.18 -0.05,0.17 -0.05,0.17 -0.06,0.17 -0.06,0.16 -0.08,0.15 -0.08,0.16 -0.09,0.14 -0.09,0.15 -0.1,0.13 -0.1,0.13 -0.11,0.13 -0.12,0.12 -0.12,0.11 -0.12,0.11 -0.13,0.1 -0.14,0.1 -0.14,0.08 -0.14,0.08 -0.15,0.07 -0.15,0.07 -0.15,0.06 -0.16,0.04 -0.16,0.04 -0.16,0.04 -0.16,0.02 -0.17,0.01 -0.17,0.01 v -0.25 c 0.87,0 2.29,-0.71 2.29,-3.25 0,-2.63 -1.36,-3.46 -2.28,-3.46 h 0 c -0.95,0 -2.29,0.87 -2.29,3.46 0,2.58 1.46,3.25 2.28,3.25 v 0.25 c -1.78,0 -3.3,-1.59 -3.3,-3.64 0,-2.03 1.53,-3.58 3.3,-3.58 1.81,0 3.31,1.58 3.31,3.58 z"
         id="path6126" /><path
         style="fill:#000000;stroke-width:0"
         inkscape:connector-curvature="0"
         d="m 233.2,664.13 0.01,0.01 0,0.01 0.01,0.01 0,0.01 0,0.01 0.01,0.01 0,0.01 0,0.01 0.01,0.01 0,0.01 0,0 0,0.01 0.01,0.01 0,0.01 0,0 0,0.01 0,0.01 0.01,0 0,0.01 0,0.01 0,0 0,0.01 0,0 0,0.01 0,0.01 0,0.01 0,0.01 0,0.01 c 0,0.21 -0.19,0.38 -0.41,0.38 -0.26,0 -0.35,-0.22 -0.38,-0.33 l -0.92,-3.01 c -0.01,-0.01 -0.04,-0.1 -0.04,-0.11 0,-0.08 0.22,-0.15 0.28,-0.15 0.05,0 0.05,0.01 0.1,0.11 z"
         id="path6128" /></g>    <g
       style="font-style:normal;font-variant:normal;font-weight:normal;font-stretch:normal;letter-spacing:normal;word-spacing:normal;text-anchor:start;fill:none;stroke:#000000;stroke-linecap:butt;stroke-linejoin:miter;stroke-miterlimit:10.43299961;stroke-opacity:1;stroke-dasharray:none;stroke-dashoffset:0"
       ns0:preamble=""
       ns0:text="$\\mathrm{F^\\prime}$"
       word-spacing="normal"
       letter-spacing="normal"
       font-size-adjust="none"
       font-stretch="normal"
       font-weight="normal"
       font-variant="normal"
       font-style="normal"
       stroke-miterlimit="10.433"
       xml:space="preserve"
       transform="matrix(1.4755564,0,0,-1.4755564,-181.13813,2115.7661)"
       id="g6378"><path
         id="path6380"
         d="m 229.22,663.99 h -5.46 v -0.31 H 224 c 0.76,0 0.79,-0.11 0.79,-0.46 v -5.21 c 0,-0.36 -0.03,-0.47 -0.79,-0.47 h -0.24 v -0.31 c 0.35,0.04 1.12,0.04 1.51,0.04 0.41,0 1.32,0 1.67,-0.04 v 0.31 h -0.32 c -0.95,0 -0.95,0.13 -0.95,0.48 v 2.44 h 0.86 c 0.95,0 1.05,-0.31 1.05,-1.16 h 0.25 v 2.63 h -0.25 c 0,-0.83 -0.1,-1.16 -1.05,-1.16 h -0.86 v 2.51 c 0,0.33 0.02,0.4 0.49,0.4 h 1.19 c 1.49,0 1.74,-0.55 1.9,-1.92 h 0.25 z"
         inkscape:connector-curvature="0"
         style="fill:#000000;stroke-width:0" /><path
         id="path6382"
         d="m 231.96,664.13 0,0.01 0.01,0.01 0,0.01 0,0.01 0.01,0.01 0,0.01 0.01,0.01 0,0.01 0,0.01 0,0.01 0.01,0 0,0.01 0,0.01 0,0.01 0.01,0 0,0.01 0,0.01 0,0 0,0.01 0,0.01 0,0 0,0.01 0.01,0 0,0.01 0,0.01 0,0.01 0,0.01 0,0.01 c 0,0.21 -0.2,0.38 -0.41,0.38 -0.27,0 -0.35,-0.22 -0.39,-0.33 l -0.92,-3.01 c 0,-0.01 -0.03,-0.1 -0.03,-0.11 0,-0.08 0.22,-0.15 0.27,-0.15 0.05,0 0.06,0.01 0.11,0.11 z"
         inkscape:connector-curvature="0"
         style="fill:#000000;stroke-width:0" /></g>    <g
       id="g6638"
       transform="matrix(1.4755564,0,0,-1.4755564,-155.42384,2115.0519)"
       xml:space="preserve"
       stroke-miterlimit="10.433"
       font-style="normal"
       font-variant="normal"
       font-weight="normal"
       font-stretch="normal"
       font-size-adjust="none"
       letter-spacing="normal"
       word-spacing="normal"
       ns0:text="$\\mathrm{D^\\prime}$"
       ns0:preamble=""
       style="font-style:normal;font-variant:normal;font-weight:normal;font-stretch:normal;letter-spacing:normal;word-spacing:normal;text-anchor:start;fill:none;stroke:#000000;stroke-linecap:butt;stroke-linejoin:miter;stroke-miterlimit:10.43299961;stroke-opacity:1;stroke-dasharray:none;stroke-dashoffset:0"><path
         style="fill:#000000;stroke-width:0"
         inkscape:connector-curvature="0"
         d="m 223.78,664.02 v -0.31 h 0.24 c 0.77,0 0.78,-0.11 0.78,-0.47 v -5.23 c 0,-0.36 -0.01,-0.47 -0.78,-0.47 h -0.24 v -0.31 h 3.64 l -0.27,0.31 h -1 c -0.47,0 -0.49,0.07 -0.49,0.4 v 5.38 c 0,0.32 0.02,0.39 0.49,0.39 h 0.99 c 0.62,0 1.31,-0.22 1.81,-0.92 0.43,-0.59 0.52,-1.44 0.52,-2.22 0,-1.1 -0.19,-1.7 -0.55,-2.18 -0.19,-0.27 -0.76,-0.85 -1.77,-0.85 l 0.27,-0.31 c 1.67,0 3.05,1.48 3.05,3.34 0,1.89 -1.35,3.45 -3.05,3.45 z"
         id="path6640" /><path
         style="fill:#000000;stroke-width:0"
         inkscape:connector-curvature="0"
         d="m 233.06,664.13 0.01,0.01 0,0.01 0.01,0.01 0,0.01 0,0.01 0.01,0.01 0,0.01 0,0.01 0.01,0.01 0,0.01 0,0 0.01,0.01 0,0.01 0,0.01 0,0 0,0.01 0.01,0.01 0,0 0,0.01 0,0.01 0,0 0,0.01 0,0 0,0.01 0,0.01 0,0.01 0,0.01 0,0.01 c 0,0.21 -0.19,0.38 -0.41,0.38 -0.26,0 -0.34,-0.22 -0.38,-0.33 l -0.92,-3.01 c -0.01,-0.01 -0.03,-0.1 -0.03,-0.11 0,-0.08 0.21,-0.15 0.27,-0.15 0.05,0 0.05,0.01 0.1,0.11 z"
         id="path6642" /></g>    <text
       sodipodi:linespacing="100%"
       id="text6761"
       y="1066.0472"
       x="186.97165"
       style="font-size:16px;font-style:normal;font-variant:normal;font-weight:500;font-stretch:normal;text-align:start;line-height:100%;letter-spacing:0px;word-spacing:0px;writing-mode:lr-tb;text-anchor:start;fill:#000000;fill-opacity:1;stroke:none;font-family:Rekha;-inkscape-font-specification:Rekha Medium"
       xml:space="preserve"><tspan
         y="1066.0472"
         x="186.97165"
         id="tspan6763"
         sodipodi:role="line">S</tspan></text>
    <text
       sodipodi:linespacing="100%"
       id="text6765"
       y="1106.0472"
       x="186.97165"
       style="font-size:16px;font-style:normal;font-variant:normal;font-weight:500;font-stretch:normal;text-align:start;line-height:100%;letter-spacing:0px;word-spacing:0px;writing-mode:lr-tb;text-anchor:start;fill:#000000;fill-opacity:1;stroke:none;font-family:Rekha;-inkscape-font-specification:Rekha Medium"
       xml:space="preserve"><tspan
         y="1106.0472"
         x="186.97165"
         id="tspan6767"
         sodipodi:role="line">L</tspan></text>
    <text
       sodipodi:linespacing="100%"
       id="text6769"
       y="1038.1901"
       x="273.40021"
       style="font-size:16px;font-style:normal;font-variant:normal;font-weight:500;font-stretch:normal;text-align:start;line-height:100%;letter-spacing:0px;word-spacing:0px;writing-mode:lr-tb;text-anchor:start;fill:#000000;fill-opacity:1;stroke:none;font-family:Rekha;-inkscape-font-specification:Rekha Medium"
       xml:space="preserve"><tspan
         y="1038.1901"
         x="273.40021"
         id="tspan6771"
         sodipodi:role="line">P</tspan></text>
    <path
       transform="translate(-63.028358,665.51153)"
       inkscape:connector-curvature="0"
       id="path6773"
       d="m 230,370.53571 -10,50"
       style="fill:none;stroke:#000000;stroke-width:1;stroke-linecap:butt;stroke-linejoin:miter;stroke-miterlimit:4;stroke-opacity:1;stroke-dasharray:6, 6;stroke-dashoffset:0" />
    <path
       transform="translate(-63.028358,665.51153)"
       inkscape:connector-curvature="0"
       id="path6775"
       d="m 230,370.53571 0,-20"
       style="fill:none;stroke:#000000;stroke-width:1px;stroke-linecap:butt;stroke-linejoin:miter;stroke-opacity:1" />
    <rect
       style="fill:#000000;stroke:#000000;stroke-width:0.54545456;stroke-miterlimit:4;stroke-opacity:1;stroke-dasharray:none;stroke-dashoffset:0"
       id="rect7139-80-8"
       width="5.4545455"
       height="5.4545455"
       x="163.88722"
       y="1032.9628" />
    <rect
       style="fill:#000000;stroke:#000000;stroke-width:0.54545456;stroke-miterlimit:4;stroke-opacity:1;stroke-dasharray:none;stroke-dashoffset:0"
       id="rect7139-80-3"
       width="5.4545455"
       height="5.4545455"
       x="103.88722"
       y="1082.9628" />
    <path
       transform="translate(-63.028358,665.51153)"
       inkscape:connector-curvature="0"
       id="path6804"
       d="m 220,420.53571 80,0"
       style="fill:none;stroke:#000000;stroke-width:1px;stroke-linecap:butt;stroke-linejoin:miter;stroke-opacity:1" />
    <path
       transform="translate(-63.028358,665.51153)"
       inkscape:connector-curvature="0"
       id="path6806"
       d="m 220,420.53571 0,40"
       style="fill:none;stroke:#000000;stroke-width:1px;stroke-linecap:butt;stroke-linejoin:miter;stroke-opacity:1" />
    <path
       transform="translate(-63.028358,665.51153)"
       inkscape:connector-curvature="0"
       id="path6808"
       d="m 220,430.53571 20,30"
       style="fill:none;stroke:#000000;stroke-width:1;stroke-linecap:butt;stroke-linejoin:miter;stroke-miterlimit:4;stroke-opacity:1;stroke-dasharray:6, 6;stroke-dashoffset:0" />
    <path
       transform="translate(-63.028358,665.51153)"
       inkscape:connector-curvature="0"
       id="path6810"
       d="m 220,420.53571 0,40"
       style="fill:none;stroke:#ff00ff;stroke-width:2;stroke-linecap:butt;stroke-linejoin:miter;stroke-miterlimit:4;stroke-opacity:1;stroke-dasharray:none" />
    <path
       transform="translate(-63.028358,665.51153)"
       inkscape:connector-curvature="0"
       id="path6812"
       d="m 220,420.53571 0,-70"
       style="fill:none;stroke:#000000;stroke-width:1px;stroke-linecap:butt;stroke-linejoin:miter;stroke-opacity:1" />
    <path
       transform="translate(-63.028358,665.51153)"
       inkscape:connector-curvature="0"
       id="path6814"
       d="m 220,420.53571 0,-50"
       style="fill:none;stroke:#00ffff;stroke-width:2;stroke-linecap:butt;stroke-linejoin:miter;stroke-miterlimit:4;stroke-opacity:1;stroke-dasharray:none" />
    <path
       sodipodi:type="arc"
       style="fill:#000000;fill-opacity:1;fill-rule:nonzero;stroke:#000000;stroke-width:1;stroke-miterlimit:4;stroke-opacity:1;stroke-dasharray:none;stroke-dashoffset:0"
       id="path7684-75"
       sodipodi:cx="-75"
       sodipodi:cy="195.53571"
       sodipodi:rx="5"
       sodipodi:ry="5"
       d="m -79.995869,195.73892 c -0.112232,-2.75914 2.033513,-5.08685 4.792655,-5.19908 2.759142,-0.11224 5.086851,2.03351 5.199083,4.79265 0.112232,2.75914 -2.033513,5.08685 -4.792655,5.19908 -2.756471,0.11213 -5.082903,-2.0295 -5.1988,-4.78581"
       transform="matrix(0.61039514,0,0,0.61039514,202.75128,1007.4075)"
       sodipodi:start="3.1009386"
       sodipodi:end="9.382755"
       sodipodi:open="true" />
    <rect
       style="fill:#000000;stroke:#000000;stroke-width:0.54545456;stroke-miterlimit:4;stroke-opacity:1;stroke-dasharray:none;stroke-dashoffset:0"
       id="rect7139-80-3-4"
       width="5.4545455"
       height="5.4545455"
       x="173.88722"
       y="1122.9628" />
    <path
       transform="translate(-63.028358,665.51153)"
       inkscape:connector-curvature="0"
       id="path6859"
       d="m 240,460.53571 0,-20"
       style="fill:none;stroke:#000000;stroke-width:1px;stroke-linecap:butt;stroke-linejoin:miter;stroke-opacity:1" />
    <path
       transform="translate(-63.028358,665.51153)"
       inkscape:connector-curvature="0"
       id="path6861"
       d="m 300,420.53571 0,-20"
       style="fill:none;stroke:#000000;stroke-width:1px;stroke-linecap:butt;stroke-linejoin:miter;stroke-opacity:1" />
    <path
       transform="translate(-63.028358,665.51153)"
       inkscape:connector-curvature="0"
       id="path6863"
       d="m 170,420.53571 0,-20"
       style="fill:none;stroke:#000000;stroke-width:1px;stroke-linecap:butt;stroke-linejoin:miter;stroke-opacity:1" />
    <path
       inkscape:connector-curvature="0"
       id="path6865"
       d="m 236.25736,1083.9044 -80,0"
       style="fill:none;stroke:#aa0000;stroke-width:2;stroke-linecap:butt;stroke-linejoin:miter;stroke-miterlimit:4;stroke-opacity:1;stroke-dasharray:none" />
    <text
       sodipodi:linespacing="100%"
       id="text6867"
       y="1146.0472"
       x="63.400211"
       style="font-size:16px;font-style:normal;font-variant:normal;font-weight:500;font-stretch:normal;text-align:start;line-height:100%;letter-spacing:0px;word-spacing:0px;writing-mode:lr-tb;text-anchor:start;fill:#000000;fill-opacity:1;stroke:none;font-family:Rekha;-inkscape-font-specification:Rekha Medium"
       xml:space="preserve"><tspan
         y="1146.0472"
         x="63.400211"
         id="tspan6869"
         sodipodi:role="line">T</tspan></text>
    <text
       transform="translate(-63.028358,665.51153)"
       sodipodi:linespacing="100%"
       id="text6871"
       y="451.95197"
       x="183.84776"
       style="font-size:16px;font-style:normal;font-variant:normal;font-weight:500;font-stretch:normal;text-align:start;line-height:100%;letter-spacing:0px;word-spacing:0px;writing-mode:lr-tb;text-anchor:start;fill:#000000;fill-opacity:1;stroke:none;font-family:Rekha;-inkscape-font-specification:Rekha Medium"
       xml:space="preserve"><tspan
         y="451.95197"
         x="183.84776"
         id="tspan6873"
         sodipodi:role="line">G</tspan></text>
    <g
       style="font-style:normal;font-variant:normal;font-weight:normal;font-stretch:normal;letter-spacing:normal;word-spacing:normal;text-anchor:start;fill:none;stroke:#000000;stroke-linecap:butt;stroke-linejoin:miter;stroke-miterlimit:10.43299961;stroke-opacity:1;stroke-dasharray:none;stroke-dashoffset:0"
       ns0:preamble=""
       ns0:text="$\\mathrm{\\mu}$"
       word-spacing="normal"
       letter-spacing="normal"
       font-size-adjust="none"
       font-stretch="normal"
       font-weight="normal"
       font-variant="normal"
       font-style="normal"
       stroke-miterlimit="10.433"
       xml:space="preserve"
       transform="matrix(1.7299212,0,0,-1.7299212,-255.76934,1866.0961)"
       id="g7056"><path
         id="path7058"
         d="m 225.73,660.72 0,0.02 0.01,0.02 0.01,0.02 0,0.03 0.01,0.02 0,0.02 0.01,0.05 0.02,0.05 0.01,0.05 0.01,0.05 0.01,0.05 0.01,0.02 0,0.03 0.01,0.02 0.01,0.02 0,0.02 0,0.02 0.01,0.02 0,0.02 0.01,0.01 0,0.02 0,0.01 0,0.01 0.01,0.02 0,0 0,0.01 0,0.01 0,0 c 0,0.17 -0.12,0.27 -0.29,0.27 -0.03,0 -0.31,-0.01 -0.4,-0.36 l -1.43,-5.75 c -0.03,-0.12 -0.03,-0.14 -0.03,-0.16 0,-0.15 0.11,-0.27 0.28,-0.27 0.21,0 0.33,0.18 0.35,0.21 0.04,0.09 0.17,0.6 0.54,2.13 0.32,-0.27 0.77,-0.3 0.97,-0.3 0.7,0 1.08,0.44 1.32,0.72 0.09,-0.45 0.46,-0.72 0.9,-0.72 0.35,0 0.57,0.22 0.73,0.54 0.17,0.36 0.3,0.97 0.3,0.99 0,0.1 -0.09,0.1 -0.12,0.1 -0.1,0 -0.11,-0.04 -0.14,-0.18 -0.16,-0.65 -0.34,-1.24 -0.75,-1.24 -0.27,0 -0.3,0.26 -0.3,0.46 0,0.22 0.12,0.69 0.2,1.03 l 0.28,1.08 c 0.03,0.15 0.13,0.52 0.17,0.67 0.05,0.23 0.15,0.61 0.15,0.67 0,0.18 -0.14,0.27 -0.29,0.27 -0.05,0 -0.31,-0.01 -0.39,-0.35 l -0.47,-1.86 c -0.12,-0.5 -0.23,-0.91 -0.26,-1.01 -0.01,-0.05 -0.49,-0.96 -1.29,-0.96 -0.5,0 -0.74,0.33 -0.74,0.87 0,0.29 0.07,0.57 0.14,0.84 z"
         inkscape:connector-curvature="0"
         style="fill:#000000;stroke-width:0" /></g>  </g>
</svg>
