<?xml version="1.0" encoding="UTF-8" standalone="no"?>
<!-- Created with Inkscape (http://www.inkscape.org/) -->

<svg
   xmlns:dc="http://purl.org/dc/elements/1.1/"
   xmlns:cc="http://creativecommons.org/ns#"
   xmlns:rdf="http://www.w3.org/1999/02/22-rdf-syntax-ns#"
   xmlns:svg="http://www.w3.org/2000/svg"
   xmlns="http://www.w3.org/2000/svg"
   xmlns:sodipodi="http://sodipodi.sourceforge.net/DTD/sodipodi-0.dtd"
   xmlns:inkscape="http://www.inkscape.org/namespaces/inkscape"
   width="593.98486"
   height="213.14308"
   id="svg2"
   version="1.1"
   inkscape:version="0.48.4 r9939"
   sodipodi:docname="New document 29">
  <sodipodi:namedview
     id="base"
     pagecolor="#ffffff"
     bordercolor="#666666"
     borderopacity="1.0"
     inkscape:pageopacity="0.0"
     inkscape:pageshadow="2"
     inkscape:zoom="1.4"
     inkscape:cx="355.15419"
     inkscape:cy="92.01731"
     inkscape:document-units="px"
     inkscape:current-layer="layer1"
     showgrid="true"
     units="in"
     width="11cm"
     inkscape:window-width="1274"
     inkscape:window-height="579"
     inkscape:window-x="0"
     inkscape:window-y="385"
     inkscape:window-maximized="0"
     fit-margin-top="0"
     fit-margin-left="0"
     fit-margin-right="0"
     fit-margin-bottom="0"
     inkscape:snap-grids="false"
     inkscape:snap-object-midpoints="false">
    <inkscape:grid
       type="xygrid"
       id="grid2984"
       empspacing="5"
       visible="true"
       enabled="true"
       snapvisiblegridlinesonly="true"
       spacingx="2px"
       spacingy="2px"
       originx="-17.229554px"
       originy="-126.64285px" />
  </sodipodi:namedview>
  <defs
     id="defs4">
    <marker
       style="overflow:visible"
       id="Arrow2Mend"
       refX="0"
       refY="0"
       orient="auto"
       inkscape:stockid="Arrow2Mend">
      <path
         transform="scale(-0.6,-0.6)"
         d="M 8.7185878,4.0337352 -2.2072895,0.01601326 8.7185884,-4.0017078 c -1.7454984,2.3720609 -1.7354408,5.6174519 -6e-7,8.035443 z"
         style="fill-rule:evenodd;stroke-width:0.625;stroke-linejoin:round"
         id="path3966"
         inkscape:connector-curvature="0" />
    </marker>
  </defs>
  <metadata
     id="metadata7">
    <rdf:RDF>
      <cc:Work
         rdf:about="">
        <dc:format>image/svg+xml</dc:format>
        <dc:type
           rdf:resource="http://purl.org/dc/dcmitype/StillImage" />
        <dc:title></dc:title>
      </cc:Work>
    </rdf:RDF>
  </metadata>
  <g
     transform="translate(45.798804,-736.26131)"
     id="layer1"
     inkscape:groupmode="layer"
     inkscape:label="Layer 1">
    <path
       sodipodi:type="arc"
       style="fill:none;stroke:#aa0000;stroke-width:1.04608822;stroke-miterlimit:4;stroke-opacity:1;stroke-dasharray:none;stroke-dashoffset:0"
       id="path8605"
       sodipodi:cx="50"
       sodipodi:cy="110.53571"
       sodipodi:rx="20"
       sodipodi:ry="10"
       d="m 30.016525,110.94214 c -0.448928,-5.51828 8.13405,-10.1737 19.170618,-10.39816 11.036568,-0.22447 20.347403,4.06702 20.796332,9.5853 0.448928,5.51829 -8.13405,10.17371 -19.170618,10.39817 -11.025887,0.22425 -20.331613,-4.059 -20.7952,-9.57163"
       transform="matrix(0.85002105,-0.32996161,0.36266975,0.93428117,-104.54594,684.98819)"
       sodipodi:start="3.1009386"
       sodipodi:end="9.382755"
       sodipodi:open="true" />
    <path
       sodipodi:type="arc"
       style="fill:none;stroke:#aa0000;stroke-width:1;stroke-miterlimit:4;stroke-opacity:1;stroke-dasharray:none;stroke-dashoffset:0"
       id="path9121"
       sodipodi:cx="100"
       sodipodi:cy="110.53571"
       sodipodi:rx="10"
       sodipodi:ry="10"
       d="m 90.008263,110.94214 c -0.224465,-5.51828 4.067024,-10.1737 9.585308,-10.39816 5.518289,-0.22447 10.173699,4.06702 10.398169,9.5853 0.22446,5.51829 -4.06703,10.17371 -9.58531,10.39817 -5.512945,0.22425 -10.165808,-4.059 -10.397602,-9.57163"
       transform="translate(-73.742644,668.36867)"
       sodipodi:start="3.1009386"
       sodipodi:end="9.382755"
       sodipodi:open="true" />
    <path
       sodipodi:type="arc"
       style="fill:none;stroke:#aa0000;stroke-width:1;stroke-miterlimit:4;stroke-opacity:1;stroke-dasharray:none;stroke-dashoffset:0"
       id="path9125"
       sodipodi:cx="420"
       sodipodi:cy="130.53571"
       sodipodi:rx="10"
       sodipodi:ry="10"
       d="m 410.00826,130.94213 c -0.22446,-5.51828 4.06703,-10.1737 9.58531,-10.39816 5.51829,-0.22447 10.1737,4.06702 10.39817,9.58531 0.22446,5.51828 -4.06703,10.1737 -9.58531,10.39816 -5.51294,0.22425 -10.16581,-4.059 -10.3976,-9.57163"
       transform="translate(40.543071,710.51153)"
       sodipodi:start="3.1009386"
       sodipodi:end="9.382755"
       sodipodi:open="true" />
    <path
       sodipodi:type="arc"
       style="fill:none;stroke:#aa0000;stroke-width:1;stroke-miterlimit:4;stroke-opacity:1;stroke-dasharray:none;stroke-dashoffset:0"
       id="path9127"
       sodipodi:cx="31.428572"
       sodipodi:cy="150.53571"
       sodipodi:rx="13.571428"
       sodipodi:ry="6.4285712"
       d="m 17.868357,150.79698 c -0.30463,-3.54747 5.519533,-6.54024 13.008633,-6.68453 7.4891,-0.1443 13.807166,2.61451 14.111796,6.16198 0.304631,3.54747 -5.519533,6.54024 -13.008633,6.68454 -7.481851,0.14415 -13.796451,-2.60936 -14.111028,-6.1532"
       transform="matrix(0.96776629,-0.25184997,0.25184997,0.96776629,-97.784855,672.56485)"
       sodipodi:start="3.1009386"
       sodipodi:end="9.382755"
       sodipodi:open="true" />
    <path
       sodipodi:type="arc"
       style="fill:none;stroke:#aa0000;stroke-width:1;stroke-miterlimit:4;stroke-opacity:1;stroke-dasharray:none;stroke-dashoffset:0"
       id="path9129"
       sodipodi:cx="151.42857"
       sodipodi:cy="130.89285"
       sodipodi:rx="20.714285"
       sodipodi:ry="11.785714"
       d="m 130.7314,131.37186 c -0.46496,-6.50369 8.42455,-11.99044 19.85529,-12.25498 11.43073,-0.26455 21.07409,4.79328 21.53905,11.29697 0.46496,6.50369 -8.42455,11.99043 -19.85528,12.25498 -11.41967,0.26429 -21.05774,-4.78382 -21.53788,-11.28085"
       transform="matrix(0.9591478,-0.28290547,0.28290547,0.9591478,-103.87247,692.27019)"
       sodipodi:start="3.1009386"
       sodipodi:end="9.382755"
       sodipodi:open="true" />
    <path
       sodipodi:type="arc"
       style="fill:none;stroke:#aa0000;stroke-width:1;stroke-miterlimit:4;stroke-opacity:1;stroke-dasharray:none;stroke-dashoffset:0"
       id="path9131"
       sodipodi:cx="173.21428"
       sodipodi:cy="94.821419"
       sodipodi:rx="13.214286"
       sodipodi:ry="13.571428"
       d="m 160.01091,95.373 c -0.29661,-7.489099 5.37428,-13.807166 12.6663,-14.111796 7.29202,-0.30463 13.44382,5.519533 13.74044,13.008633 0.29661,7.489103 -5.37429,13.807163 -12.6663,14.111793 -7.28497,0.30434 -13.43339,-5.50864 -13.73969,-12.990067"
       transform="translate(-34.456929,655.51153)"
       sodipodi:start="3.1009386"
       sodipodi:end="9.382755"
       sodipodi:open="true" />
    <path
       sodipodi:type="arc"
       style="fill:none;stroke:#aa0000;stroke-width:1;stroke-miterlimit:4;stroke-opacity:1;stroke-dasharray:none;stroke-dashoffset:0"
       id="path9133"
       sodipodi:cx="80"
       sodipodi:cy="170.53571"
       sodipodi:rx="10"
       sodipodi:ry="10"
       d="m 70.008263,170.94213 c -0.224465,-5.51828 4.067024,-10.1737 9.585308,-10.39816 5.518285,-0.22447 10.173702,4.06702 10.398166,9.58531 0.224465,5.51828 -4.067024,10.1737 -9.585308,10.39816 -5.512944,0.22425 -10.165807,-4.059 -10.397601,-9.57163"
       transform="translate(-67.314072,676.22581)"
       sodipodi:start="3.1009386"
       sodipodi:end="9.382755"
       sodipodi:open="true" />
    <path
       sodipodi:type="arc"
       style="fill:none;stroke:#aa0000;stroke-width:1;stroke-miterlimit:4;stroke-opacity:1;stroke-dasharray:none;stroke-dashoffset:0"
       id="path9135"
       sodipodi:cx="128.21428"
       sodipodi:cy="167.32143"
       sodipodi:rx="9.6428576"
       sodipodi:ry="13.214286"
       d="m 118.57939,167.85849 c -0.21645,-7.29202 3.92177,-13.44382 9.24298,-13.74043 5.3212,-0.29661 9.81035,5.37428 10.0268,12.6663 0.21645,7.29202 -3.92177,13.44382 -9.24298,13.74043 -5.31605,0.29633 -9.80274,-5.36368 -10.02626,-12.64822"
       transform="matrix(0.98898005,0.14804883,-0.14804883,0.98898005,-43.986559,631.94485)"
       sodipodi:start="3.1009386"
       sodipodi:end="9.382755"
       sodipodi:open="true" />
    <path
       sodipodi:type="arc"
       style="fill:none;stroke:#aa0000;stroke-width:1;stroke-miterlimit:4;stroke-opacity:1;stroke-dasharray:none;stroke-dashoffset:0"
       id="path9137"
       sodipodi:cx="45.714287"
       sodipodi:cy="203.74998"
       sodipodi:rx="15.714286"
       sodipodi:ry="10.357142"
       d="m 30.012985,204.17093 c -0.35273,-5.71537 6.391039,-10.53705 15.062628,-10.76953 8.67159,-0.23248 15.987246,4.21228 16.339976,9.92764 0.352729,5.71537 -6.391039,10.53705 -15.062629,10.76953 -8.663197,0.23226 -15.974839,-4.20396 -16.339086,-9.91348"
       transform="matrix(0.6626104,-0.74896426,0.74896426,0.6626104,-215.20629,766.35016)"
       sodipodi:start="3.1009386"
       sodipodi:end="9.382755"
       sodipodi:open="true" />
    <path
       sodipodi:type="arc"
       style="fill:none;stroke:#aa0000;stroke-width:1;stroke-miterlimit:4;stroke-opacity:1;stroke-dasharray:none;stroke-dashoffset:0"
       id="path9139"
       sodipodi:cx="206.42857"
       sodipodi:cy="187.32143"
       sodipodi:rx="16.428572"
       sodipodi:ry="11.785714"
       d="m 190.01358,187.80043 c -0.36877,-6.50369 6.68154,-11.99043 15.74729,-12.25498 9.06575,-0.26455 16.71394,4.79328 17.0827,11.29697 0.36876,6.50369 -6.68154,11.99044 -15.74729,12.25498 -9.05698,0.26429 -16.70097,-4.78382 -17.08177,-11.28085"
       transform="matrix(0.985984,-0.16683991,0.16683991,0.985984,-113.5306,714.00612)"
       sodipodi:start="3.1009386"
       sodipodi:end="9.382755"
       sodipodi:open="true" />
    <path
       sodipodi:type="arc"
       style="fill:none;stroke:#aa0000;stroke-width:1;stroke-miterlimit:4;stroke-opacity:1;stroke-dasharray:none;stroke-dashoffset:0"
       id="path9141"
       sodipodi:cx="123.57143"
       sodipodi:cy="233.74998"
       sodipodi:rx="13.571428"
       sodipodi:ry="13.214286"
       d="m 110.01121,234.28705 c -0.30463,-7.29202 5.51953,-13.44382 13.00863,-13.74043 7.4891,-0.29662 13.80717,5.37428 14.1118,12.6663 0.30463,7.29202 -5.51953,13.44382 -13.00863,13.74043 -7.48185,0.29633 -13.79645,-5.36368 -14.11103,-12.64823"
       transform="translate(-59.456929,680.51153)"
       sodipodi:start="3.1009386"
       sodipodi:end="9.382755"
       sodipodi:open="true" />
    <path
       style="fill:none;stroke:#aa0000;stroke-width:1px;stroke-linecap:butt;stroke-linejoin:miter;stroke-opacity:1"
       d="m 16.257356,886.76153 -9.9999997,0 0,20 9.9999997,0 2.857143,-21.42858 -11.4285717,-3.57142"
       id="path9143"
       inkscape:connector-curvature="0"
       sodipodi:nodetypes="cccccc" />
    <path
       style="fill:none;stroke:#aa0000;stroke-width:1px;stroke-linecap:butt;stroke-linejoin:miter;stroke-opacity:1"
       d="m 53.400213,873.90439 5.714286,-22.14285 14.285718,-10e-6 -6.428582,22.14286 z"
       id="path9145"
       inkscape:connector-curvature="0"
       sodipodi:nodetypes="ccccc" />
    <path
       style="fill:none;stroke:#aa0000;stroke-width:1px;stroke-linecap:butt;stroke-linejoin:miter;stroke-opacity:1"
       d="m 181.42857,138.39285 16.42857,0 -6.42857,22.85714 -14.28571,-1.42857 2.85714,-25.71429 12.14286,10e-6"
       id="path9147"
       inkscape:connector-curvature="0"
       transform="translate(-63.028358,665.51153)"
       sodipodi:nodetypes="cccccc" />
    <path
       transform="translate(394.82879,604.4401)"
       sodipodi:type="arc"
       style="fill:none;stroke:#aa0000;stroke-width:1;stroke-miterlimit:4;stroke-opacity:1;stroke-dasharray:none;stroke-dashoffset:0"
       id="path9141-5"
       sodipodi:cx="123.57143"
       sodipodi:cy="233.74998"
       sodipodi:rx="13.571428"
       sodipodi:ry="13.214286"
       d="m 110.01121,234.28705 c -0.30463,-7.29202 5.51953,-13.44382 13.00863,-13.74043 7.4891,-0.29662 13.80717,5.37428 14.1118,12.6663 0.30463,7.29202 -5.51953,13.44382 -13.00863,13.74043 -7.48185,0.29633 -13.79645,-5.36368 -14.11103,-12.64823"
       sodipodi:start="3.1009386"
       sodipodi:end="9.382755"
       sodipodi:open="true" />
    <path
       sodipodi:type="arc"
       style="fill:none;stroke:#008000;stroke-width:1;stroke-miterlimit:4;stroke-opacity:1;stroke-dasharray:none;stroke-dashoffset:0"
       id="path9167"
       sodipodi:cx="353.57144"
       sodipodi:cy="95.535706"
       sodipodi:rx="15.714286"
       sodipodi:ry="9.2857141"
       d="m 337.87014,95.913104 c -0.35273,-5.124121 6.39104,-9.447009 15.06263,-9.65544 8.67159,-0.208431 15.98724,3.776523 16.33997,8.900644 0.35273,5.124122 -6.39104,9.447012 -15.06262,9.655442 -8.6632,0.20823 -15.97484,-3.76907 -16.33909,-8.887946"
       transform="matrix(0.98289945,-0.18414305,0.18414305,0.98289945,-27.431473,740.8244)"
       sodipodi:start="3.1009386"
       sodipodi:end="9.382755"
       sodipodi:open="true" />
    <path
       sodipodi:type="arc"
       style="fill:none;stroke:#aa0000;stroke-width:1;stroke-miterlimit:4;stroke-opacity:1;stroke-dasharray:none;stroke-dashoffset:0"
       id="path9171"
       sodipodi:cx="380.71429"
       sodipodi:cy="150.89285"
       sodipodi:rx="12.857142"
       sodipodi:ry="8.2142859"
       d="m 367.86778,151.2267 c -0.2886,-4.53287 5.22903,-8.35696 12.32396,-8.54135 7.09494,-0.18438 13.08048,3.34077 13.36907,7.87365 0.2886,4.53288 -5.22903,8.35697 -12.32396,8.54135 -7.08807,0.1842 -13.07033,-3.33418 -13.36835,-7.86241"
       transform="matrix(0.93275426,-0.36051282,0.36051282,0.93275426,-68.968608,805.76796)"
       sodipodi:start="3.1009386"
       sodipodi:end="9.382755"
       sodipodi:open="true" />
    <path
       sodipodi:type="arc"
       style="fill:none;stroke:#aa0000;stroke-width:1;stroke-miterlimit:4;stroke-opacity:1;stroke-dasharray:none;stroke-dashoffset:0"
       id="path9173"
       sodipodi:cx="412.5"
       sodipodi:cy="192.67856"
       sodipodi:rx="7.5"
       sodipodi:ry="5"
       d="m 405.0062,192.88177 c -0.16835,-2.75914 3.05027,-5.08685 7.18898,-5.19908 4.13871,-0.11223 7.63027,2.03351 7.79862,4.79265 0.16835,2.75915 -3.05027,5.08685 -7.18898,5.19909 -4.13471,0.11212 -7.62435,-2.0295 -7.7982,-4.78582"
       transform="matrix(0.97907341,-0.20350741,0.20350741,0.97907341,-93.607652,743.49044)"
       sodipodi:start="3.1009386"
       sodipodi:end="9.382755"
       sodipodi:open="true" />
    <path
       sodipodi:type="arc"
       style="fill:none;stroke:#aa0000;stroke-width:1;stroke-miterlimit:4;stroke-opacity:1;stroke-dasharray:none;stroke-dashoffset:0"
       id="path9177"
       sodipodi:cx="537.5"
       sodipodi:cy="104.82142"
       sodipodi:rx="8.2142859"
       sodipodi:ry="12.857142"
       d="m 529.2925,105.34397 c -0.18438,-7.094937 3.34077,-13.080473 7.87365,-13.36907 4.53287,-0.288597 8.35697,5.229031 8.54135,12.32397 0.18438,7.09493 -3.34077,13.08047 -7.87365,13.36907 -4.52849,0.28832 -8.35048,-5.21872 -8.54088,-12.30639"
       transform="matrix(0.94023748,-0.34051942,0.34051942,0.94023748,-53.74259,849.80511)"
       sodipodi:start="3.1009386"
       sodipodi:end="9.382755"
       sodipodi:open="true" />
    <path
       sodipodi:type="arc"
       style="fill:none;stroke:#aa0000;stroke-width:1;stroke-miterlimit:4;stroke-opacity:1;stroke-dasharray:none;stroke-dashoffset:0"
       id="path9167-6"
       sodipodi:cx="353.57144"
       sodipodi:cy="95.535706"
       sodipodi:rx="15.714286"
       sodipodi:ry="9.2857141"
       d="m 337.87014,95.913104 c -0.35273,-5.124121 6.39104,-9.447009 15.06263,-9.65544 8.67159,-0.208431 15.98724,3.776523 16.33997,8.900644 0.35273,5.124122 -6.39104,9.447012 -15.06262,9.655442 -8.6632,0.20823 -15.97484,-3.76907 -16.33909,-8.887946"
       transform="matrix(0.72947922,-0.68400297,0.68400297,0.72947922,53.701919,950.3427)"
       sodipodi:start="3.1009386"
       sodipodi:end="9.382755"
       sodipodi:open="true" />
    <path
       transform="translate(286.25736,628.72582)"
       sodipodi:type="arc"
       style="fill:none;stroke:#008000;stroke-width:1;stroke-miterlimit:4;stroke-opacity:1;stroke-dasharray:none;stroke-dashoffset:0"
       id="path9141-5-6"
       sodipodi:cx="123.57143"
       sodipodi:cy="233.74998"
       sodipodi:rx="13.571428"
       sodipodi:ry="13.214286"
       d="m 110.01121,234.28705 c -0.30463,-7.29202 5.51953,-13.44382 13.00863,-13.74043 7.4891,-0.29662 13.80717,5.37428 14.1118,12.6663 0.30463,7.29202 -5.51953,13.44382 -13.00863,13.74043 -7.48185,0.29633 -13.79645,-5.36368 -14.11103,-12.64823"
       sodipodi:start="3.1009386"
       sodipodi:end="9.382755"
       sodipodi:open="true" />
    <path
       sodipodi:type="arc"
       style="fill:none;stroke:#008000;stroke-width:1;stroke-miterlimit:4;stroke-opacity:1;stroke-dasharray:none;stroke-dashoffset:0"
       id="path9125-8"
       sodipodi:cx="420"
       sodipodi:cy="130.53571"
       sodipodi:rx="10"
       sodipodi:ry="10"
       d="m 410.00826,130.94213 c -0.22446,-5.51828 4.06703,-10.1737 9.58531,-10.39816 5.51829,-0.22447 10.1737,4.06702 10.39817,9.58531 0.22446,5.51828 -4.06703,10.1737 -9.58531,10.39816 -5.51294,0.22425 -10.16581,-4.059 -10.3976,-9.57163"
       transform="translate(18.400214,639.08296)"
       sodipodi:start="3.1009386"
       sodipodi:end="9.382755"
       sodipodi:open="true" />
    <path
       sodipodi:type="arc"
       style="fill:none;stroke:#008000;stroke-width:1;stroke-miterlimit:4;stroke-opacity:1;stroke-dasharray:none;stroke-dashoffset:0"
       id="path9125-6"
       sodipodi:cx="420"
       sodipodi:cy="130.53571"
       sodipodi:rx="10"
       sodipodi:ry="10"
       d="m 410.00826,130.94213 c -0.22446,-5.51828 4.06703,-10.1737 9.58531,-10.39816 5.51829,-0.22447 10.1737,4.06702 10.39817,9.58531 0.22446,5.51828 -4.06703,10.1737 -9.58531,10.39816 -5.51294,0.22425 -10.16581,-4.059 -10.3976,-9.57163"
       transform="translate(117.68593,645.51153)"
       sodipodi:start="3.1009386"
       sodipodi:end="9.382755"
       sodipodi:open="true" />
    <path
       sodipodi:type="arc"
       style="fill:none;stroke:#008000;stroke-width:1;stroke-miterlimit:4;stroke-opacity:1;stroke-dasharray:none;stroke-dashoffset:0"
       id="path9167-2"
       sodipodi:cx="353.57144"
       sodipodi:cy="95.535706"
       sodipodi:rx="15.714286"
       sodipodi:ry="9.2857141"
       d="m 337.87014,95.913104 c -0.35273,-5.124121 6.39104,-9.447009 15.06263,-9.65544 8.67159,-0.208431 15.98724,3.776523 16.33997,8.900644 0.35273,5.124122 -6.39104,9.447012 -15.06262,9.655442 -8.6632,0.20823 -15.97484,-3.76907 -16.33909,-8.887946"
       transform="matrix(0.78882414,-0.61461896,0.61461896,0.78882414,154.3479,948.71237)"
       sodipodi:start="3.1009386"
       sodipodi:end="9.382755"
       sodipodi:open="true" />
    <path
       sodipodi:type="arc"
       style="fill:none;stroke:#008000;stroke-width:1;stroke-miterlimit:4;stroke-opacity:1;stroke-dasharray:none;stroke-dashoffset:0"
       id="path9258"
       sodipodi:cx="442.5"
       sodipodi:cy="239.46428"
       sodipodi:rx="6.0714288"
       sodipodi:ry="11.785714"
       d="m 436.43359,239.94328 c -0.13628,-6.50369 2.46926,-11.99043 5.81965,-12.25498 3.35039,-0.26454 6.17689,4.79328 6.31317,11.29697 0.13628,6.5037 -2.46926,11.99044 -5.81965,12.25499 -3.34714,0.26429 -6.1721,-4.78383 -6.31283,-11.28086"
       transform="matrix(0.94581207,0.32471453,-0.32471453,0.94581207,5.1359013,520.51571)"
       sodipodi:start="3.1009386"
       sodipodi:end="9.382755"
       sodipodi:open="true" />
    <path
       style="fill:none;stroke:#008000;stroke-width:1px;stroke-linecap:butt;stroke-linejoin:miter;stroke-opacity:1"
       d="m 399.82878,812.4758 2.85715,-7.14285 14.28571,3.57143 0,20 -20,0 0,-20 6.42857,-7.14286"
       id="path9260"
       inkscape:connector-curvature="0" />
    <path
       style="fill:none;stroke:#008000;stroke-width:1px;stroke-linecap:butt;stroke-linejoin:miter;stroke-opacity:1"
       d="m 500.92315,873.05838 8.37656,6.16413 -6.97248,18.74526 -18.74525,-6.97249 6.97248,-18.74525 17.21858,-1.21636"
       id="path9260-2"
       inkscape:connector-curvature="0"
       sodipodi:nodetypes="cccccc" />
    <g
       id="g9284"
       style="stroke:#008000"
       transform="translate(20.714285,15.714286)">
      <path
         sodipodi:nodetypes="ccccc"
         transform="translate(-63.028358,665.51153)"
         inkscape:connector-curvature="0"
         id="path9280"
         d="m 490,246.25 0,14.28571 24.28571,7.14286 12.14286,-20.71429 L 510,239.82142"
         style="fill:none;stroke:#008000;stroke-width:1px;stroke-linecap:butt;stroke-linejoin:miter;stroke-opacity:1" />
      <path
         sodipodi:nodetypes="cc"
         transform="translate(-63.028358,665.51153)"
         inkscape:connector-curvature="0"
         id="path9282"
         d="m 490,246.96428 25.71429,-11.42857"
         style="fill:none;stroke:#008000;stroke-width:1px;stroke-linecap:butt;stroke-linejoin:miter;stroke-opacity:1" />
    </g>
    <path
       style="fill:none;stroke:#aa0000;stroke-width:1px;stroke-linecap:butt;stroke-linejoin:miter;stroke-opacity:1"
       d="m 383.40022,907.47582 0,20 20,0 4.28571,-22.14286 -15.71429,-1.42857 z"
       id="path9288"
       inkscape:connector-curvature="0"
       sodipodi:nodetypes="cccccc" />
  </g>
</svg>
