<?xml version="1.0" encoding="UTF-8" standalone="no"?>
<!-- Created with Inkscape (http://www.inkscape.org/) -->

<svg
   xmlns:ns0="http://www.iki.fi/pav/software/textext/"
   xmlns:dc="http://purl.org/dc/elements/1.1/"
   xmlns:cc="http://creativecommons.org/ns#"
   xmlns:rdf="http://www.w3.org/1999/02/22-rdf-syntax-ns#"
   xmlns:svg="http://www.w3.org/2000/svg"
   xmlns="http://www.w3.org/2000/svg"
   xmlns:sodipodi="http://sodipodi.sourceforge.net/DTD/sodipodi-0.dtd"
   xmlns:inkscape="http://www.inkscape.org/namespaces/inkscape"
   width="271.06238"
   height="143.4709"
   id="svg2"
   version="1.1"
   inkscape:version="0.48.4 r9939"
   sodipodi:docname="New document 67">
  <sodipodi:namedview
     id="base"
     pagecolor="#ffffff"
     bordercolor="#666666"
     borderopacity="1.0"
     inkscape:pageopacity="0.0"
     inkscape:pageshadow="2"
     inkscape:zoom="1.4"
     inkscape:cx="135.88987"
     inkscape:cy="118.24372"
     inkscape:document-units="px"
     inkscape:current-layer="layer1"
     showgrid="true"
     units="in"
     width="11cm"
     inkscape:window-width="1274"
     inkscape:window-height="647"
     inkscape:window-x="0"
     inkscape:window-y="317"
     inkscape:window-maximized="0"
     fit-margin-top="0"
     fit-margin-left="0"
     fit-margin-right="0"
     fit-margin-bottom="0"
     inkscape:snap-grids="false">
    <inkscape:grid
       spacingy="2px"
       spacingx="2px"
       snapvisiblegridlinesonly="true"
       enabled="true"
       visible="true"
       empspacing="5"
       id="grid2984"
       type="xygrid"
       originx="-150.26563px"
       originy="-207.85711px" />
  </sodipodi:namedview>
  <defs
     id="defs4">
    <marker
       style="overflow:visible"
       id="Arrow2Lstart"
       refX="0"
       refY="0"
       orient="auto"
       inkscape:stockid="Arrow2Lstart">
      <path
         transform="matrix(1.1,0,0,1.1,1.1,0)"
         d="M 8.7185878,4.0337352 -2.2072895,0.01601326 8.7185884,-4.0017078 c -1.7454984,2.3720609 -1.7354408,5.6174519 -6e-7,8.035443 z"
         style="fill-rule:evenodd;stroke-width:0.625;stroke-linejoin:round"
         id="path5491"
         inkscape:connector-curvature="0" />
    </marker>
    <marker
       style="overflow:visible"
       id="Arrow2Lend"
       refX="0"
       refY="0"
       orient="auto"
       inkscape:stockid="Arrow2Lend">
      <path
         transform="matrix(-1.1,0,0,-1.1,-1.1,0)"
         d="M 8.7185878,4.0337352 -2.2072895,0.01601326 8.7185884,-4.0017078 c -1.7454984,2.3720609 -1.7354408,5.6174519 -6e-7,8.035443 z"
         style="fill-rule:evenodd;stroke-width:0.625;stroke-linejoin:round"
         id="path5494"
         inkscape:connector-curvature="0" />
    </marker>
    <marker
       inkscape:stockid="Arrow2Mend"
       orient="auto"
       refY="0"
       refX="0"
       id="Arrow2Mend"
       style="overflow:visible">
      <path
         inkscape:connector-curvature="0"
         id="path3966"
         style="fill-rule:evenodd;stroke-width:0.625;stroke-linejoin:round"
         d="M 8.7185878,4.0337352 -2.2072895,0.01601326 8.7185884,-4.0017078 c -1.7454984,2.3720609 -1.7354408,5.6174519 -6e-7,8.035443 z"
         transform="scale(-0.6,-0.6)" />
    </marker>
  </defs>
  <metadata
     id="metadata7">
    <rdf:RDF>
      <cc:Work
         rdf:about="">
        <dc:format>image/svg+xml</dc:format>
        <dc:type
           rdf:resource="http://purl.org/dc/dcmitype/StillImage" />
        <dc:title></dc:title>
      </cc:Work>
    </rdf:RDF>
  </metadata>
  <g
     inkscape:label="Layer 1"
     inkscape:groupmode="layer"
     id="layer1"
     transform="translate(-87.237274,-724.71922)">
    <path
       transform="translate(-63.028358,665.51153)"
       inkscape:connector-curvature="0"
       id="path16526"
       d="m 180,60.535706 0,120.000004 240,0"
       style="fill:none;stroke:#000000;stroke-width:1px;stroke-linecap:butt;stroke-linejoin:miter;stroke-opacity:1;marker-start:url(#Arrow2Lstart);marker-end:url(#Arrow2Lend)" />
    <g
       style="stroke:#008000"
       transform="translate(-5.7142857,2.8571429)"
       id="g16534">
      <path
         style="fill:none;stroke:#008000;stroke-width:1px;stroke-linecap:butt;stroke-linejoin:miter;stroke-opacity:1"
         d="M 190,70.535706 400,170.53571"
         id="path16530"
         inkscape:connector-curvature="0"
         transform="translate(-63.028358,665.51153)" />
      <path
         style="fill:none;stroke:#008000;stroke-width:1px;stroke-linecap:butt;stroke-linejoin:miter;stroke-opacity:1"
         d="m 190,70.535706 c 0,0 -5.71429,44.285714 14.28571,94.285714 C 240.71429,180.53571 400,170.53571 400,170.53571"
         id="path16532"
         inkscape:connector-curvature="0"
         transform="translate(-63.028358,665.51153)"
         sodipodi:nodetypes="ccc" />
    </g>
    <text
       sodipodi:linespacing="100%"
       id="text16538"
       y="786.04724"
       x="86.971649"
       style="font-size:16px;font-style:normal;font-variant:normal;font-weight:500;font-stretch:normal;text-align:start;line-height:100%;letter-spacing:0px;word-spacing:0px;writing-mode:lr-tb;text-anchor:start;fill:#000000;fill-opacity:1;stroke:none;font-family:Rekha;-inkscape-font-specification:Rekha Medium"
       xml:space="preserve"><tspan
         y="786.04724"
         x="86.971649"
         id="tspan16540"
         sodipodi:role="line">T</tspan></text>
    <text
       sodipodi:linespacing="100%"
       id="text16542"
       y="868.19012"
       x="324.82877"
       style="font-size:16px;font-style:normal;font-variant:normal;font-weight:500;font-stretch:normal;text-align:start;line-height:100%;letter-spacing:0px;word-spacing:0px;writing-mode:lr-tb;text-anchor:start;fill:#000000;fill-opacity:1;stroke:none;font-family:Rekha;-inkscape-font-specification:Rekha Medium"
       xml:space="preserve"><tspan
         y="868.19012"
         x="324.82877"
         id="tspan16544"
         sodipodi:role="line">X</tspan></text>
    <g
       ns0:preamble=""
       ns0:text="$\\mathrm{t_o}$"
       word-spacing="normal"
       letter-spacing="normal"
       font-size-adjust="none"
       font-stretch="normal"
       font-weight="normal"
       font-variant="normal"
       font-style="normal"
       stroke-miterlimit="10.433"
       xml:space="preserve"
       transform="matrix(1.8381449,0,0,-1.8381449,-268.85454,2028.1179)"
       id="content"
       style="font-style:normal;font-variant:normal;font-weight:normal;font-stretch:normal;letter-spacing:normal;word-spacing:normal;text-anchor:start;fill:#008000;stroke:#000000;stroke-linecap:butt;stroke-linejoin:miter;stroke-miterlimit:10.43299961;stroke-opacity:1;stroke-dasharray:none;stroke-dashoffset:0"><path
         id="path17455"
         d="m 225.15,661.21 h 1.43 v 0.31 h -1.43 v 1.82 h -0.25 c 0,-0.81 -0.3,-1.87 -1.28,-1.91 v -0.22 h 0.85 v -2.74 c 0,-1.23 0.92,-1.34 1.28,-1.34 0.71,0 0.99,0.7 0.99,1.34 v 0.56 h -0.25 v -0.54 c 0,-0.74 -0.3,-1.12 -0.67,-1.12 -0.67,0 -0.67,0.91 -0.67,1.08 z"
         inkscape:connector-curvature="0"
         style="fill:#008000;stroke-width:0" /><path
         id="path17457"
         d="m 230.99,657.22 0,0.08 -0.01,0.08 -0.01,0.08 -0.01,0.08 -0.02,0.08 -0.03,0.07 -0.02,0.08 -0.03,0.07 -0.04,0.07 -0.03,0.07 -0.04,0.07 -0.05,0.07 -0.04,0.06 -0.05,0.06 -0.06,0.06 -0.05,0.06 -0.06,0.05 -0.06,0.05 -0.07,0.05 -0.06,0.05 -0.07,0.04 -0.07,0.04 -0.08,0.04 -0.07,0.03 -0.08,0.03 -0.08,0.03 -0.08,0.02 -0.09,0.02 -0.08,0.01 -0.09,0.01 -0.09,0.01 -0.09,0 v -0.19 c 0.42,0 0.71,-0.2 0.86,-0.41 0.2,-0.27 0.22,-0.62 0.22,-0.96 0,-0.33 -0.02,-0.7 -0.23,-0.98 -0.18,-0.27 -0.51,-0.41 -0.85,-0.41 h 0 c -0.25,0 -0.63,0.09 -0.86,0.43 -0.19,0.28 -0.21,0.65 -0.21,0.96 0,0.3 0.01,0.71 0.25,1.01 0.18,0.2 0.47,0.36 0.82,0.36 v 0.19 c -0.96,0 -1.7,-0.75 -1.7,-1.62 0,-0.86 0.76,-1.55 1.7,-1.55 0.94,0 1.71,0.69 1.71,1.55 z"
         inkscape:connector-curvature="0"
         style="fill:#008000;stroke-width:0" /></g>    <g
       style="font-style:normal;font-variant:normal;font-weight:normal;font-stretch:normal;letter-spacing:normal;word-spacing:normal;text-anchor:start;fill:#008000;stroke:#000000;stroke-linecap:butt;stroke-linejoin:miter;stroke-miterlimit:10.43299961;stroke-opacity:1;stroke-dasharray:none;stroke-dashoffset:0"
       ns0:preamble=""
       ns0:text="$\\mathrm{t_\\infty}$"
       word-spacing="normal"
       letter-spacing="normal"
       font-size-adjust="none"
       font-stretch="normal"
       font-weight="normal"
       font-variant="normal"
       font-style="normal"
       stroke-miterlimit="10.433"
       xml:space="preserve"
       transform="matrix(1.8381449,0,0,-1.8381449,-189.41931,1971.8844)"
       id="g17595"><path
         id="path17597"
         d="m 225.15,661.21 h 1.43 v 0.31 h -1.43 v 1.82 h -0.25 c 0,-0.81 -0.3,-1.87 -1.28,-1.91 v -0.22 h 0.85 v -2.74 c 0,-1.23 0.92,-1.34 1.28,-1.34 0.71,0 0.99,0.7 0.99,1.34 v 0.56 h -0.25 v -0.54 c 0,-0.74 -0.3,-1.12 -0.67,-1.12 -0.67,0 -0.67,0.91 -0.67,1.08 z"
         inkscape:connector-curvature="0"
         style="fill:#008000;stroke-width:0" /><path
         id="path17599"
         d="m 231.33,657.65 -0.03,0.04 -0.04,0.03 -0.03,0.04 -0.03,0.03 -0.02,0.04 -0.03,0.03 -0.03,0.03 -0.02,0.03 -0.03,0.02 -0.02,0.03 -0.02,0.03 -0.03,0.02 -0.02,0.02 -0.02,0.02 -0.02,0.03 -0.02,0.02 -0.04,0.03 -0.04,0.04 -0.04,0.04 -0.04,0.03 -0.04,0.03 -0.04,0.04 -0.02,0.01 -0.03,0.02 -0.02,0.02 -0.02,0.01 c -0.43,0.31 -0.87,0.43 -1.26,0.43 -0.86,0 -1.49,-0.74 -1.49,-1.57 h 0.2 c 0,0.66 0.54,1.18 1.18,1.18 0.65,0 1.1,-0.52 1.76,-1.33 h 0 c -0.27,-0.45 -0.88,-1.15 -1.73,-1.15 -0.72,0 -1.21,0.63 -1.21,1.3 h -0.2 c 0,-0.82 0.6,-1.57 1.47,-1.57 0.97,0 1.65,0.79 1.9,1.16 0.36,-0.43 0.48,-0.55 0.74,-0.73 0.43,-0.31 0.87,-0.43 1.26,-0.43 0.86,0 1.49,0.74 1.49,1.57 h -0.2 c 0,-0.66 -0.54,-1.19 -1.18,-1.19 -0.65,0 -1.1,0.53 -1.77,1.34 h 0 c 0.28,0.45 0.89,1.15 1.74,1.15 0.72,0 1.21,-0.63 1.21,-1.3 h 0.2 c 0,0.82 -0.6,1.57 -1.47,1.57 -0.97,0 -1.65,-0.79 -1.9,-1.16 z"
         inkscape:connector-curvature="0"
         style="fill:#008000;stroke-width:0" /></g>  </g>
</svg>
