<?xml version="1.0" encoding="UTF-8" standalone="no"?>
<!-- Created with Inkscape (http://www.inkscape.org/) -->

<svg
   xmlns:dc="http://purl.org/dc/elements/1.1/"
   xmlns:cc="http://creativecommons.org/ns#"
   xmlns:rdf="http://www.w3.org/1999/02/22-rdf-syntax-ns#"
   xmlns:svg="http://www.w3.org/2000/svg"
   xmlns="http://www.w3.org/2000/svg"
   xmlns:sodipodi="http://sodipodi.sourceforge.net/DTD/sodipodi-0.dtd"
   xmlns:inkscape="http://www.inkscape.org/namespaces/inkscape"
   width="381.62695"
   height="250.67578"
   id="svg2"
   version="1.1"
   inkscape:version="0.48.4 r9939"
   sodipodi:docname="drawing61.svg">
  <sodipodi:namedview
     id="base"
     pagecolor="#ffffff"
     bordercolor="#666666"
     borderopacity="1.0"
     inkscape:pageopacity="0.0"
     inkscape:pageshadow="2"
     inkscape:zoom="1.4"
     inkscape:cx="177.19621"
     inkscape:cy="118.83595"
     inkscape:document-units="px"
     inkscape:current-layer="layer1"
     showgrid="true"
     units="in"
     width="11cm"
     inkscape:window-width="1280"
     inkscape:window-height="967"
     inkscape:window-x="0"
     inkscape:window-y="0"
     inkscape:window-maximized="1"
     fit-margin-top="0"
     fit-margin-left="0"
     fit-margin-right="0"
     fit-margin-bottom="0"
     inkscape:snap-grids="true">
    <inkscape:grid
       type="xygrid"
       id="grid2984"
       empspacing="5"
       visible="true"
       enabled="true"
       snapvisiblegridlinesonly="true"
       spacingx="2px"
       spacingy="2px"
       originx="-108.87305px"
       originy="-99.824213px" />
  </sodipodi:namedview>
  <defs
     id="defs4">
    <marker
       inkscape:stockid="Arrow2Lend"
       orient="auto"
       refY="0"
       refX="0"
       id="Arrow2Lend"
       style="overflow:visible">
      <path
         id="path3937"
         style="fill-rule:evenodd;stroke-width:0.625;stroke-linejoin:round"
         d="M 8.7185878,4.0337352 -2.2072895,0.01601326 8.7185884,-4.0017078 c -1.7454984,2.3720609 -1.7354408,5.6174519 -6e-7,8.035443 z"
         transform="matrix(-1.1,0,0,-1.1,-1.1,0)"
         inkscape:connector-curvature="0" />
    </marker>
    <marker
       style="overflow:visible"
       id="Arrow2Mend"
       refX="0"
       refY="0"
       orient="auto"
       inkscape:stockid="Arrow2Mend">
      <path
         transform="scale(-0.6,-0.6)"
         d="M 8.7185878,4.0337352 -2.2072895,0.01601326 8.7185884,-4.0017078 c -1.7454984,2.3720609 -1.7354408,5.6174519 -6e-7,8.035443 z"
         style="fill-rule:evenodd;stroke-width:0.625;stroke-linejoin:round"
         id="path3966"
         inkscape:connector-curvature="0" />
    </marker>
  </defs>
  <metadata
     id="metadata7">
    <rdf:RDF>
      <cc:Work
         rdf:about="">
        <dc:format>image/svg+xml</dc:format>
        <dc:type
           rdf:resource="http://purl.org/dc/dcmitype/StillImage" />
        <dc:title />
      </cc:Work>
    </rdf:RDF>
  </metadata>
  <g
     transform="translate(-45.844688,-725.54724)"
     id="layer1"
     inkscape:groupmode="layer"
     inkscape:label="Layer 1">
    <path
       style="fill:none;stroke:#000000;stroke-width:1px;stroke-linecap:butt;stroke-linejoin:miter;stroke-opacity:1"
       d="m 140,60.535706 0,220.000004 350,0 0,-220.000004 z"
       id="path5473"
       inkscape:connector-curvature="0"
       transform="translate(-63.028358,665.51153)"
       sodipodi:nodetypes="ccccc" />
    <path
       style="fill:none;stroke:#000000;stroke-width:1;stroke-linecap:butt;stroke-linejoin:miter;stroke-miterlimit:4;stroke-opacity:1;stroke-dasharray:3, 3;stroke-dashoffset:0"
       d="m 140,90.535706 350,0"
       id="path5475"
       inkscape:connector-curvature="0"
       transform="translate(-63.028358,665.51153)"
       sodipodi:nodetypes="cc" />
    <path
       style="fill:none;stroke:#000000;stroke-width:1px;stroke-linecap:butt;stroke-linejoin:miter;stroke-opacity:1"
       d="m 140,280.53571 c 0,0 30.71429,-185 60.71429,-185 30,0 29.28571,135 89.28571,135 20,0 70,0 70,0"
       id="path5477"
       inkscape:connector-curvature="0"
       transform="translate(-63.028358,665.51153)"
       sodipodi:nodetypes="cssc" />
    <path
       style="fill:none;stroke:#000000;stroke-width:1px;stroke-linecap:butt;stroke-linejoin:miter;stroke-opacity:1"
       d="m 140,280.53571 c 0,0 30.49018,-189.473839 139.28571,-190.00001 100.62015,-0.486632 96.70143,73.63452 146.89368,107.84931 14.74055,10.04826 45.24917,28.57929 45.24917,28.57929"
       id="path5479"
       inkscape:connector-curvature="0"
       transform="translate(-63.028358,665.51153)"
       sodipodi:nodetypes="csac" />
    <text
       xml:space="preserve"
       style="font-size:18px;font-style:normal;font-variant:normal;font-weight:500;font-stretch:normal;text-align:start;line-height:125%;letter-spacing:0px;word-spacing:0px;writing-mode:lr-tb;text-anchor:start;fill:#000000;fill-opacity:1;stroke:none;font-family:Rekha;-inkscape-font-specification:Rekha Medium"
       x="346.97165"
       y="746.04724"
       id="text5995"
       sodipodi:linespacing="125%"><tspan
         sodipodi:role="line"
         id="tspan5997"
         x="346.97165"
         y="746.04724">saturation</tspan></text>
    <text
       xml:space="preserve"
       style="font-size:18px;font-style:normal;font-variant:normal;font-weight:500;font-stretch:normal;text-align:start;line-height:125%;letter-spacing:0px;word-spacing:0px;writing-mode:lr-tb;text-anchor:start;fill:#000000;fill-opacity:1;stroke:none;font-family:Rekha;-inkscape-font-specification:Rekha Medium"
       x="346.97165"
       y="776.04724"
       id="text5999"
       sodipodi:linespacing="125%"><tspan
         sodipodi:role="line"
         id="tspan6001"
         x="346.97165"
         y="776.04724">nucleation</tspan></text>
    <text
       xml:space="preserve"
       style="font-size:18px;font-style:normal;font-variant:normal;font-weight:500;font-stretch:normal;text-align:start;line-height:125%;letter-spacing:0px;word-spacing:0px;writing-mode:lr-tb;text-anchor:start;fill:#000000;fill-opacity:1;stroke:none;font-family:Rekha;-inkscape-font-specification:Rekha Medium"
       x="346.97165"
       y="836.04724"
       id="text6003"
       sodipodi:linespacing="125%"><tspan
         sodipodi:role="line"
         id="tspan6005"
         x="346.97165"
         y="836.04724">growth</tspan></text>
    <text
       xml:space="preserve"
       style="font-size:18px;font-style:normal;font-variant:normal;font-weight:500;font-stretch:normal;text-align:start;line-height:125%;letter-spacing:0px;word-spacing:0px;writing-mode:lr-tb;text-anchor:start;fill:#000000;fill-opacity:1;stroke:none;font-family:Rekha;-inkscape-font-specification:Rekha Medium"
       x="-886.04724"
       y="56.971642"
       id="text6007"
       sodipodi:linespacing="125%"
       transform="matrix(0,-1,1,0,0,0)"><tspan
         sodipodi:role="line"
         id="tspan6009"
         x="-886.04724"
         y="56.971642">[reactant]</tspan></text>
    <text
       xml:space="preserve"
       style="font-size:18px;font-style:normal;font-variant:normal;font-weight:500;font-stretch:normal;text-align:start;line-height:125%;letter-spacing:0px;word-spacing:0px;writing-mode:lr-tb;text-anchor:start;fill:#000000;fill-opacity:1;stroke:none;font-family:Rekha;-inkscape-font-specification:Rekha Medium"
       x="216.97165"
       y="976.04724"
       id="text6011"
       sodipodi:linespacing="125%"><tspan
         sodipodi:role="line"
         id="tspan6013"
         x="216.97165"
         y="976.04724">time</tspan></text>
    <path
       style="fill:none;stroke:#000000;stroke-width:1px;stroke-linecap:butt;stroke-linejoin:miter;stroke-opacity:1;marker-end:url(#Arrow2Lend)"
       d="m 257.68593,971.76153 50,0"
       id="path6015"
       inkscape:connector-curvature="0" />
    <path
       style="fill:none;stroke:#000000;stroke-width:1px;stroke-linecap:butt;stroke-linejoin:miter;stroke-opacity:1;marker-start:none;marker-end:url(#Arrow2Lend)"
       d="m 52.685927,816.04724 0,-50"
       id="path6017"
       inkscape:connector-curvature="0" />
    <path
       style="fill:#000000;fill-opacity:0.27403846;stroke:none"
       d="m 284.82878,853.90438 10,0 0,10 -10,0 z"
       id="path6941"
       inkscape:connector-curvature="0" />
    <path
       style="fill:#000000;fill-opacity:0.27403846;stroke:none"
       d="m 283.61072,881.25454 9.58219,2.86035 -2.86035,9.58219 -9.58219,-2.86035 z"
       id="path6941-0"
       inkscape:connector-curvature="0" />
    <path
       style="fill:#000000;fill-opacity:0.27403846;stroke:none"
       d="m 296.25736,881.04724 10,0 0,10 -10,0 z"
       id="path6941-7"
       inkscape:connector-curvature="0" />
    <path
       style="fill:#000000;fill-opacity:0.27403846;stroke:none"
       d="m 284.21533,873.2642 7.68221,-6.40185 6.40185,7.68221 -7.68221,6.40185 z"
       id="path6941-5"
       inkscape:connector-curvature="0" />
    <path
       style="fill:#000000;fill-opacity:0.27403846;stroke:none"
       d="m 270.54307,870.33296 10,0 0,10 -10,0 z"
       id="path6941-3"
       inkscape:connector-curvature="0" />
    <path
       style="fill:#000000;fill-opacity:0.27403846;stroke:none"
       d="m 302.67535,861.4549 8.88862,4.58176 -4.58176,8.88862 -8.88862,-4.58176 z"
       id="path6941-1"
       inkscape:connector-curvature="0" />
    <path
       style="fill:#000000;fill-opacity:0.27403846;stroke:none"
       d="m 269.82878,857.47581 10,0 0,10 -10,0 z"
       id="path6941-6"
       inkscape:connector-curvature="0" />
    <path
       sodipodi:type="arc"
       style="fill:#000000;fill-opacity:0.27403846;stroke:none"
       id="path6998"
       sodipodi:cx="456.07144"
       sodipodi:cy="252.67856"
       sodipodi:rx="3.2142856"
       sodipodi:ry="17.857143"
       d="m 459.28573,252.67856 c 0,9.86223 -1.43909,17.85714 -3.21429,17.85714 -1.7752,0 -3.21428,-7.99491 -3.21428,-17.85714 0,-9.86223 1.43908,-17.85715 3.21428,-17.85715 1.7752,0 3.21429,7.99492 3.21429,17.85715 z"
       transform="matrix(0.95243081,0.30475489,-0.30475489,0.95243081,44.95733,539.96981)" />
    <path
       sodipodi:type="arc"
       style="fill:#000000;fill-opacity:0.27403846;stroke:none"
       id="path7018"
       sodipodi:cx="440"
       sodipodi:cy="235.89285"
       sodipodi:rx="3.5714285"
       sodipodi:ry="4.6428571"
       d="m 443.57143,235.89285 c 0,2.56418 -1.59898,4.64286 -3.57143,4.64286 -1.97245,0 -3.57143,-2.07868 -3.57143,-4.64286 0,-2.56418 1.59898,-4.64285 3.57143,-4.64285 1.97245,0 3.57143,2.07867 3.57143,4.64285 z"
       transform="translate(-60.885503,668.36867)" />
    <path
       sodipodi:type="arc"
       style="fill:#000000;fill-opacity:0.27403846;stroke:none"
       id="path7020"
       sodipodi:cx="432.5"
       sodipodi:cy="243.74998"
       sodipodi:rx="2.5"
       sodipodi:ry="2.5"
       d="m 435,243.74998 c 0,1.38072 -1.11929,2.5 -2.5,2.5 -1.38071,0 -2.5,-1.11928 -2.5,-2.5 0,-1.38071 1.11929,-2.5 2.5,-2.5 1.38071,0 2.5,1.11929 2.5,2.5 z"
       transform="matrix(0.99999997,0,0,1.1428571,-47.314073,615.33296)" />
    <path
       style="fill:#000000;fill-opacity:0.27403846;stroke:none"
       d="m 370.54307,913.1901 0,10 10,0 0,-10 z"
       id="path7024"
       inkscape:connector-curvature="0" />
    <path
       sodipodi:type="arc"
       style="fill:#000000;fill-opacity:0.27403846;stroke:none"
       id="path7020-4"
       sodipodi:cx="432.5"
       sodipodi:cy="243.74998"
       sodipodi:rx="2.5"
       sodipodi:ry="2.5"
       d="m 435,243.74998 c 0,1.38072 -1.11929,2.5 -2.5,2.5 -1.38071,0 -2.5,-1.11928 -2.5,-2.5 0,-1.38071 1.11929,-2.5 2.5,-2.5 1.38071,0 2.5,1.11929 2.5,2.5 z"
       transform="matrix(0.99999997,0,0,1.1428571,-60.171218,618.19011)" />
    <path
       sodipodi:type="star"
       style="fill:#000000;fill-opacity:0.27403846;stroke:none"
       id="path7046"
       sodipodi:sides="6"
       sodipodi:cx="440"
       sodipodi:cy="300.53571"
       sodipodi:r1="10"
       sodipodi:r2="8.6602535"
       sodipodi:arg1="0"
       sodipodi:arg2="0.52359878"
       inkscape:flatsided="true"
       inkscape:rounded="0"
       inkscape:randomized="0"
       d="m 450,300.53571 -5,8.66025 -10,0 -5,-8.66025 5,-8.66026 10,0 z"
       transform="matrix(0.71132487,0,0,0.71132487,81.161167,689.05444)" />
    <path
       sodipodi:type="star"
       style="fill:#000000;fill-opacity:0.27403846;stroke:none"
       id="path7048"
       sodipodi:sides="6"
       sodipodi:cx="460"
       sodipodi:cy="310.53571"
       sodipodi:r1="10"
       sodipodi:r2="8.6602535"
       sodipodi:arg1="0"
       sodipodi:arg2="0.52359878"
       inkscape:flatsided="true"
       inkscape:rounded="0"
       inkscape:randomized="0"
       d="m 470,310.53571 -5,8.66025 -10,0 -5,-8.66025 5,-8.66026 10,0 z"
       transform="matrix(0.71132487,0,0,0.71132487,61.875453,696.2269)" />
  </g>
</svg>
