<?xml version="1.0" encoding="UTF-8" standalone="no"?>
<!-- Created with Inkscape (http://www.inkscape.org/) -->

<svg
   xmlns:ns0="http://www.iki.fi/pav/software/textext/"
   xmlns:dc="http://purl.org/dc/elements/1.1/"
   xmlns:cc="http://creativecommons.org/ns#"
   xmlns:rdf="http://www.w3.org/1999/02/22-rdf-syntax-ns#"
   xmlns:svg="http://www.w3.org/2000/svg"
   xmlns="http://www.w3.org/2000/svg"
   xmlns:xlink="http://www.w3.org/1999/xlink"
   xmlns:sodipodi="http://sodipodi.sourceforge.net/DTD/sodipodi-0.dtd"
   xmlns:inkscape="http://www.inkscape.org/namespaces/inkscape"
   width="427.03293"
   height="268.32123"
   id="svg2"
   version="1.1"
   inkscape:version="0.48.4 r9939"
   sodipodi:docname="drawing64.svg">
  <sodipodi:namedview
     id="base"
     pagecolor="#ffffff"
     bordercolor="#666666"
     borderopacity="1.0"
     inkscape:pageopacity="0.0"
     inkscape:pageshadow="2"
     inkscape:zoom="1.4"
     inkscape:cx="182.2004"
     inkscape:cy="68.629548"
     inkscape:document-units="px"
     inkscape:current-layer="layer1"
     showgrid="true"
     units="in"
     width="11cm"
     inkscape:window-width="1280"
     inkscape:window-height="967"
     inkscape:window-x="0"
     inkscape:window-y="0"
     inkscape:window-maximized="1"
     fit-margin-top="0"
     fit-margin-left="0"
     fit-margin-right="0"
     fit-margin-bottom="0">
    <inkscape:grid
       type="xygrid"
       id="grid2984"
       empspacing="5"
       visible="true"
       enabled="true"
       snapvisiblegridlinesonly="true"
       spacingx="2px"
       spacingy="2px"
       originx="-103.86886px"
       originy="-116.92382px" />
  </sodipodi:namedview>
  <defs
     id="defs4">
    <marker
       inkscape:stockid="Arrow2Lend"
       orient="auto"
       refY="0"
       refX="0"
       id="Arrow2Lend"
       style="overflow:visible">
      <path
         id="path8851"
         style="fill-rule:evenodd;stroke-width:0.625;stroke-linejoin:round"
         d="M 8.7185878,4.0337352 -2.2072895,0.01601326 8.7185884,-4.0017078 c -1.7454984,2.3720609 -1.7354408,5.6174519 -6e-7,8.035443 z"
         transform="matrix(-1.1,0,0,-1.1,-1.1,0)"
         inkscape:connector-curvature="0" />
    </marker>
    <marker
       style="overflow:visible"
       id="Arrow2Mend"
       refX="0"
       refY="0"
       orient="auto"
       inkscape:stockid="Arrow2Mend">
      <path
         transform="scale(-0.6,-0.6)"
         d="M 8.7185878,4.0337352 -2.2072895,0.01601326 8.7185884,-4.0017078 c -1.7454984,2.3720609 -1.7354408,5.6174519 -6e-7,8.035443 z"
         style="fill-rule:evenodd;stroke-width:0.625;stroke-linejoin:round"
         id="path3966"
         inkscape:connector-curvature="0" />
    </marker>
  </defs>
  <metadata
     id="metadata7">
    <rdf:RDF>
      <cc:Work
         rdf:about="">
        <dc:format>image/svg+xml</dc:format>
        <dc:type
           rdf:resource="http://purl.org/dc/dcmitype/StillImage" />
        <dc:title />
      </cc:Work>
    </rdf:RDF>
  </metadata>
  <g
     transform="translate(-40.840502,-690.80219)"
     id="layer1"
     inkscape:groupmode="layer"
     inkscape:label="Layer 1">
    <path
       style="fill:none;stroke:#000000;stroke-width:1px;stroke-linecap:butt;stroke-linejoin:miter;stroke-opacity:1"
       d="m 190,40.535706 0,230.000004 300,0"
       id="path6743"
       inkscape:connector-curvature="0"
       transform="translate(-63.028358,665.51153)" />
    <path
       style="fill:none;stroke:#000000;stroke-width:1px;stroke-linecap:butt;stroke-linejoin:miter;stroke-opacity:1"
       d="m 190,220.53571 110,0 0,-180.000004 c 0,0 10,30 30,30 20,0 170,0 170,0"
       id="path6745"
       inkscape:connector-curvature="0"
       transform="translate(-63.028358,665.51153)"
       sodipodi:nodetypes="cccsc" />
    <text
       xml:space="preserve"
       style="font-size:18px;font-style:normal;font-variant:normal;font-weight:500;font-stretch:normal;text-align:start;line-height:125%;letter-spacing:0px;word-spacing:0px;writing-mode:lr-tb;text-anchor:start;fill:#000000;fill-opacity:1;stroke:none;font-family:Rekha;-inkscape-font-specification:Rekha Medium"
       x="296.97165"
       y="816.04724"
       id="text6747"
       sodipodi:linespacing="125%"><tspan
         sodipodi:role="line"
         id="tspan6749"
         x="296.97165"
         y="816.04724">Liquid phase</tspan></text>
    <text
       xml:space="preserve"
       style="font-size:18px;font-style:normal;font-variant:normal;font-weight:500;font-stretch:normal;text-align:start;line-height:125%;letter-spacing:0px;word-spacing:0px;writing-mode:lr-tb;text-anchor:start;fill:#000000;fill-opacity:1;stroke:none;font-family:Rekha;-inkscape-font-specification:Rekha Medium"
       x="216.97165"
       y="956.04724"
       id="text6751"
       sodipodi:linespacing="125%"><tspan
         sodipodi:role="line"
         id="tspan6753"
         x="216.97165"
         y="956.04724">z (distance from interface)</tspan></text>
    <text
       xml:space="preserve"
       style="font-size:18px;font-style:normal;font-variant:normal;font-weight:500;font-stretch:normal;text-align:start;line-height:125%;letter-spacing:0px;word-spacing:0px;writing-mode:lr-tb;text-anchor:start;fill:#000000;fill-opacity:1;stroke:none;font-family:Rekha;-inkscape-font-specification:Rekha Medium"
       x="176.97165"
       y="806.04724"
       id="text6755"
       sodipodi:linespacing="125%"><tspan
         sodipodi:role="line"
         id="tspan6757"
         x="176.97165"
         y="806.04724">phase</tspan></text>
    <g
       transform="matrix(2.7399901,0,0,2.7399901,-459.47636,438.89135)"
       ns0:text="$\\alpha$"
       ns0:preamble=""
       id="g6775">
      <defs
         id="defs6777">
        <g
           id="g6779">
          <symbol
             style="overflow:visible"
             overflow="visible"
             id="textext-9de250b6-0">
            <path
               inkscape:connector-curvature="0"
               style="stroke:none"
               d=""
               id="path6782" />
          </symbol>
          <symbol
             style="overflow:visible"
             overflow="visible"
             id="textext-9de250b6-1">
            <path
               inkscape:connector-curvature="0"
               style="stroke:none"
               d="m 4.75,-2.359375 c 0,-1.5625 -0.921875,-2.046875 -1.65625,-2.046875 -1.375,0 -2.6875,1.421875 -2.6875,2.828125 0,0.9375 0.59375,1.6875 1.625,1.6875 0.625,0 1.34375,-0.234375 2.09375,-0.84375 0.125,0.53125 0.453125,0.84375 0.90625,0.84375 0.53125,0 0.84375,-0.546875 0.84375,-0.703125 0,-0.078125 -0.0625,-0.109375 -0.125,-0.109375 -0.0625,0 -0.09375,0.03125 -0.125,0.109375 -0.1875,0.484375 -0.546875,0.484375 -0.5625,0.484375 -0.3125,0 -0.3125,-0.78125 -0.3125,-1.015625 0,-0.203125 0,-0.234375 0.109375,-0.34375 C 5.796875,-2.65625 6,-3.8125 6,-3.8125 6,-3.84375 5.984375,-3.921875 5.875,-3.921875 c -0.09375,0 -0.09375,0.03125 -0.140625,0.21875 -0.1875,0.625 -0.515625,1.375 -0.984375,1.96875 z m -0.65625,1.375 c -0.890625,0.765625 -1.65625,0.875 -2.046875,0.875 -0.59375,0 -0.90625,-0.453125 -0.90625,-1.09375 0,-0.484375 0.265625,-1.5625 0.578125,-2.0625 C 2.1875,-4 2.734375,-4.1875 3.078125,-4.1875 c 0.984375,0 0.984375,1.3125 0.984375,2.078125 0,0.375 0,0.953125 0.03125,1.125 z m 0,0"
               id="path6785" />
          </symbol>
        </g>
      </defs>
      <g
         id="textext-9de250b6-2">
        <g
           style="fill:#000000;fill-opacity:1"
           id="g6788">
          <use
             height="410.53571"
             width="666.37817"
             xlink:href="#textext-9de250b6-1"
             x="223.43201"
             y="134.765"
             id="use6790" />
        </g>
      </g>
    </g>
    <g
       id="g6842"
       ns0:preamble=""
       ns0:text="$X_B$"
       transform="matrix(2.1373567,0,0,2.1373567,-437.28113,545.90094)">
      <defs
         id="defs6844">
        <g
           id="g6846">
          <symbol
             id="textext-a0ccbddb-0"
             overflow="visible"
             style="overflow:visible">
            <path
               id="path6849"
               d=""
               style="stroke:none"
               inkscape:connector-curvature="0" />
          </symbol>
          <symbol
             id="textext-a0ccbddb-1"
             overflow="visible"
             style="overflow:visible">
            <path
               id="path6852"
               d="M 4.828125,-4.09375 4,-6.078125 c -0.03125,-0.078125 -0.046875,-0.125 -0.046875,-0.125 0,-0.0625 0.15625,-0.25 0.578125,-0.296875 0.109375,-0.015625 0.203125,-0.015625 0.203125,-0.1875 0,-0.125 -0.125,-0.125 -0.15625,-0.125 -0.40625,0 -0.828125,0.03125 -1.25,0.03125 -0.25,0 -0.859375,-0.03125 -1.109375,-0.03125 -0.0625,0 -0.1875,0 -0.1875,0.203125 C 2.03125,-6.5 2.140625,-6.5 2.265625,-6.5 c 0.59375,0 0.65625,0.09375 0.75,0.3125 l 1.171875,2.78125 -2.109375,2.265625 -0.125,0.109375 C 1.46875,-0.5 1,-0.34375 0.484375,-0.3125 c -0.125,0.015625 -0.21875,0.015625 -0.21875,0.203125 0,0.015625 0,0.109375 0.140625,0.109375 0.296875,0 0.625,-0.03125 0.921875,-0.03125 C 1.703125,-0.03125 2.09375,0 2.453125,0 2.515625,0 2.625,0 2.625,-0.203125 2.625,-0.296875 2.53125,-0.3125 2.515625,-0.3125 c -0.09375,0 -0.40625,-0.03125 -0.40625,-0.3125 0,-0.15625 0.15625,-0.3125 0.265625,-0.4375 L 3.40625,-2.140625 4.296875,-3.125 l 1,2.390625 c 0.046875,0.109375 0.0625,0.109375 0.0625,0.140625 0,0.078125 -0.203125,0.25 -0.578125,0.28125 C 4.671875,-0.296875 4.578125,-0.296875 4.578125,-0.125 4.578125,0 4.6875,0 4.71875,0 5,0 5.703125,-0.03125 5.984375,-0.03125 6.234375,-0.03125 6.84375,0 7.09375,0 c 0.0625,0 0.1875,0 0.1875,-0.1875 0,-0.125 -0.109375,-0.125 -0.1875,-0.125 -0.65625,0 -0.6875,-0.03125 -0.859375,-0.4375 C 5.859375,-1.671875 5.1875,-3.234375 4.953125,-3.828125 5.625,-4.53125 6.671875,-5.71875 7,-5.984375 7.28125,-6.234375 7.671875,-6.46875 8.265625,-6.5 c 0.125,-0.015625 0.21875,-0.015625 0.21875,-0.203125 0,0 0,-0.109375 -0.125,-0.109375 -0.296875,0 -0.640625,0.03125 -0.9375,0.03125 -0.375,0 -0.75,-0.03125 -1.109375,-0.03125 -0.0625,0 -0.1875,0 -0.1875,0.203125 0,0.0625 0.046875,0.09375 0.109375,0.109375 0.09375,0.015625 0.40625,0.03125 0.40625,0.3125 0,0.140625 -0.109375,0.265625 -0.1875,0.359375 z m 0,0"
               style="stroke:none"
               inkscape:connector-curvature="0" />
          </symbol>
          <symbol
             id="textext-a0ccbddb-2"
             overflow="visible"
             style="overflow:visible">
            <path
               id="path6855"
               d=""
               style="stroke:none"
               inkscape:connector-curvature="0" />
          </symbol>
          <symbol
             id="textext-a0ccbddb-3"
             overflow="visible"
             style="overflow:visible">
            <path
               id="path6858"
               d="M 1.328125,-0.546875 C 1.265625,-0.3125 1.25,-0.25 0.703125,-0.25 0.59375,-0.25 0.5,-0.25 0.5,-0.109375 0.5,0 0.578125,0 0.703125,0 L 3.40625,0 c 1.171875,0 2.078125,-0.796875 2.078125,-1.484375 0,-0.5 -0.453125,-0.921875 -1.203125,-1 0.84375,-0.15625 1.546875,-0.6875 1.546875,-1.28125 0,-0.53125 -0.53125,-1 -1.4375,-1 l -2.53125,0 c -0.140625,0 -0.234375,0 -0.234375,0.15625 0,0.09375 0.09375,0.09375 0.234375,0.09375 0,0 0.140625,0 0.265625,0.015625 0.140625,0.015625 0.15625,0.03125 0.15625,0.109375 0,0 0,0.046875 -0.03125,0.140625 z m 1.109375,-2.03125 0.421875,-1.6875 c 0.0625,-0.21875 0.0625,-0.25 0.359375,-0.25 l 1.0625,0 c 0.703125,0 0.875,0.46875 0.875,0.734375 0,0.5625 -0.640625,1.203125 -1.578125,1.203125 z M 2.109375,-0.25 C 1.890625,-0.25 1.875,-0.265625 1.875,-0.328125 c 0,0 0,-0.03125 0.03125,-0.140625 l 0.484375,-1.90625 1.484375,0 c 0.640625,0 0.90625,0.4375 0.90625,0.828125 0,0.703125 -0.71875,1.296875 -1.5625,1.296875 z m 0,0"
               style="stroke:none"
               inkscape:connector-curvature="0" />
          </symbol>
        </g>
      </defs>
      <g
         id="textext-a0ccbddb-4">
        <g
           id="g6861"
           style="fill:#000000;fill-opacity:1">
          <use
             id="use6863"
             y="134.765"
             x="223.43201"
             xlink:href="#textext-a0ccbddb-1"
             width="666.37817"
             height="410.53571" />
        </g>
        <g
           id="g6865"
           style="fill:#000000;fill-opacity:1">
          <use
             id="use6867"
             y="136.259"
             x="231.686"
             xlink:href="#textext-a0ccbddb-3"
             width="666.37817"
             height="410.53571" />
        </g>
      </g>
    </g>
    <g
       ns0:text="$X_S^\\alpha (T_1)$"
       ns0:preamble=""
       transform="matrix(2.1373567,0,0,2.1373567,-426.56684,601.61523)"
       id="g7014">
      <defs
         id="defs7016">
        <g
           id="g7018">
          <symbol
             style="overflow:visible"
             overflow="visible"
             id="textext-e2a75faa-0">
            <path
               inkscape:connector-curvature="0"
               style="stroke:none"
               d=""
               id="path7021" />
          </symbol>
          <symbol
             style="overflow:visible"
             overflow="visible"
             id="textext-e2a75faa-1">
            <path
               inkscape:connector-curvature="0"
               style="stroke:none"
               d="M 4.828125,-4.09375 4,-6.078125 c -0.03125,-0.078125 -0.046875,-0.125 -0.046875,-0.125 0,-0.0625 0.15625,-0.25 0.578125,-0.296875 0.109375,-0.015625 0.203125,-0.015625 0.203125,-0.1875 0,-0.125 -0.125,-0.125 -0.15625,-0.125 -0.40625,0 -0.828125,0.03125 -1.25,0.03125 -0.25,0 -0.859375,-0.03125 -1.109375,-0.03125 -0.0625,0 -0.1875,0 -0.1875,0.203125 C 2.03125,-6.5 2.140625,-6.5 2.265625,-6.5 c 0.59375,0 0.65625,0.09375 0.75,0.3125 l 1.171875,2.78125 -2.109375,2.265625 -0.125,0.109375 C 1.46875,-0.5 1,-0.34375 0.484375,-0.3125 c -0.125,0.015625 -0.21875,0.015625 -0.21875,0.203125 0,0.015625 0,0.109375 0.140625,0.109375 0.296875,0 0.625,-0.03125 0.921875,-0.03125 C 1.703125,-0.03125 2.09375,0 2.453125,0 2.515625,0 2.625,0 2.625,-0.203125 2.625,-0.296875 2.53125,-0.3125 2.515625,-0.3125 c -0.09375,0 -0.40625,-0.03125 -0.40625,-0.3125 0,-0.15625 0.15625,-0.3125 0.265625,-0.4375 L 3.40625,-2.140625 4.296875,-3.125 l 1,2.390625 c 0.046875,0.109375 0.0625,0.109375 0.0625,0.140625 0,0.078125 -0.203125,0.25 -0.578125,0.28125 C 4.671875,-0.296875 4.578125,-0.296875 4.578125,-0.125 4.578125,0 4.6875,0 4.71875,0 5,0 5.703125,-0.03125 5.984375,-0.03125 6.234375,-0.03125 6.84375,0 7.09375,0 c 0.0625,0 0.1875,0 0.1875,-0.1875 0,-0.125 -0.109375,-0.125 -0.1875,-0.125 -0.65625,0 -0.6875,-0.03125 -0.859375,-0.4375 C 5.859375,-1.671875 5.1875,-3.234375 4.953125,-3.828125 5.625,-4.53125 6.671875,-5.71875 7,-5.984375 7.28125,-6.234375 7.671875,-6.46875 8.265625,-6.5 c 0.125,-0.015625 0.21875,-0.015625 0.21875,-0.203125 0,0 0,-0.109375 -0.125,-0.109375 -0.296875,0 -0.640625,0.03125 -0.9375,0.03125 -0.375,0 -0.75,-0.03125 -1.109375,-0.03125 -0.0625,0 -0.1875,0 -0.1875,0.203125 0,0.0625 0.046875,0.09375 0.109375,0.109375 0.09375,0.015625 0.40625,0.03125 0.40625,0.3125 0,0.140625 -0.109375,0.265625 -0.1875,0.359375 z m 0,0"
               id="path7024" />
          </symbol>
          <symbol
             style="overflow:visible"
             overflow="visible"
             id="textext-e2a75faa-2">
            <path
               inkscape:connector-curvature="0"
               style="stroke:none"
               d="m 4.25,-6.046875 c 0.078125,-0.28125 0.109375,-0.34375 0.234375,-0.375 0.09375,-0.015625 0.421875,-0.015625 0.625,-0.015625 1.015625,0 1.453125,0.03125 1.453125,0.8125 0,0.15625 -0.03125,0.546875 -0.078125,0.796875 0,0.046875 -0.03125,0.15625 -0.03125,0.1875 0,0.0625 0.03125,0.140625 0.125,0.140625 0.109375,0 0.125,-0.078125 0.15625,-0.234375 L 7,-6.46875 C 7.015625,-6.515625 7.015625,-6.609375 7.015625,-6.640625 7.015625,-6.75 6.921875,-6.75 6.75,-6.75 l -5.53125,0 c -0.234375,0 -0.25,0.015625 -0.328125,0.203125 l -0.59375,1.75 c 0,0.015625 -0.0625,0.15625 -0.0625,0.1875 0,0.046875 0.0625,0.109375 0.125,0.109375 0.09375,0 0.109375,-0.0625 0.171875,-0.21875 C 1.0625,-6.265625 1.328125,-6.4375 2.796875,-6.4375 l 0.390625,0 c 0.28125,0 0.28125,0.03125 0.28125,0.125 0,0.046875 -0.03125,0.171875 -0.046875,0.203125 L 2.09375,-0.78125 C 2,-0.421875 1.96875,-0.3125 0.90625,-0.3125 c -0.359375,0 -0.421875,0 -0.421875,0.1875 C 0.484375,0 0.59375,0 0.65625,0 c 0.265625,0 0.546875,-0.015625 0.8125,-0.015625 0.28125,0 0.578125,-0.015625 0.859375,-0.015625 0.28125,0 0.546875,0.015625 0.828125,0.015625 C 3.4375,-0.015625 3.734375,0 4.015625,0 c 0.09375,0 0.21875,0 0.21875,-0.203125 0,-0.109375 -0.078125,-0.109375 -0.34375,-0.109375 -0.234375,0 -0.375,0 -0.625,-0.015625 -0.296875,-0.03125 -0.375,-0.0625 -0.375,-0.21875 0,-0.015625 0,-0.0625 0.046875,-0.203125 z m 0,0"
               id="path7027" />
          </symbol>
          <symbol
             style="overflow:visible"
             overflow="visible"
             id="textext-e2a75faa-3">
            <path
               inkscape:connector-curvature="0"
               style="stroke:none"
               d=""
               id="path7030" />
          </symbol>
          <symbol
             style="overflow:visible"
             overflow="visible"
             id="textext-e2a75faa-4">
            <path
               inkscape:connector-curvature="0"
               style="stroke:none"
               d="m 3.8125,-0.984375 c 0.640625,-0.65625 0.890625,-1.59375 0.890625,-1.65625 0,-0.09375 -0.078125,-0.09375 -0.109375,-0.09375 C 4.5,-2.734375 4.5,-2.71875 4.453125,-2.5625 4.328125,-2.109375 4.09375,-1.671875 3.796875,-1.296875 3.796875,-1.40625 3.78125,-1.875 3.765625,-1.9375 3.65625,-2.625 3.140625,-3.078125 2.4375,-3.078125 c -1.015625,0 -2,0.953125 -2,1.9375 0,0.640625 0.46875,1.203125 1.265625,1.203125 0.640625,0 1.21875,-0.28125 1.609375,-0.578125 0.171875,0.5 0.515625,0.578125 0.734375,0.578125 0.40625,0 0.65625,-0.328125 0.65625,-0.484375 C 4.703125,-0.5 4.609375,-0.5 4.578125,-0.5 c -0.09375,0 -0.109375,0.03125 -0.125,0.0625 -0.09375,0.265625 -0.3125,0.3125 -0.390625,0.3125 -0.09375,0 -0.21875,0 -0.25,-0.859375 z M 3.265625,-0.75 C 2.578125,-0.1875 2,-0.125 1.734375,-0.125 c -0.46875,0 -0.71875,-0.3125 -0.71875,-0.78125 0,-0.1875 0.09375,-0.953125 0.453125,-1.4375 C 1.796875,-2.765625 2.1875,-2.875 2.4375,-2.875 c 0.546875,0 0.71875,0.53125 0.765625,0.96875 0.046875,0.296875 0.03125,0.796875 0.0625,1.15625 z m 0,0"
               id="path7033" />
          </symbol>
          <symbol
             style="overflow:visible"
             overflow="visible"
             id="textext-e2a75faa-5">
            <path
               inkscape:connector-curvature="0"
               style="stroke:none"
               d="m 4.953125,-4.8125 c 0,-0.03125 -0.03125,-0.09375 -0.09375,-0.09375 -0.046875,0 -0.046875,0.015625 -0.140625,0.109375 L 4.375,-4.40625 c -0.265625,-0.375 -0.703125,-0.5 -1.125,-0.5 -0.984375,0 -1.859375,0.796875 -1.859375,1.609375 0,0.09375 0.03125,0.375 0.234375,0.640625 0.234375,0.265625 0.5,0.328125 0.96875,0.453125 0.140625,0.03125 0.484375,0.109375 0.59375,0.140625 0.21875,0.046875 0.640625,0.203125 0.640625,0.71875 0,0.5625 -0.59375,1.234375 -1.375,1.234375 -0.625,0 -1.359375,-0.21875 -1.359375,-0.984375 0,-0.078125 0.015625,-0.234375 0.046875,-0.359375 0,-0.03125 0,-0.03125 0,-0.03125 0,-0.09375 -0.078125,-0.09375 -0.109375,-0.09375 -0.09375,0 -0.109375,0.015625 -0.125,0.140625 l -0.359375,1.390625 c -0.015625,0.03125 -0.03125,0.0625 -0.03125,0.109375 0,0.03125 0.03125,0.078125 0.109375,0.078125 0.03125,0 0.046875,-0.015625 0.140625,-0.09375 0.078125,-0.09375 0.25,-0.3125 0.328125,-0.390625 C 1.46875,0.0625 2,0.140625 2.421875,0.140625 c 1.0625,0 1.90625,-0.90625 1.90625,-1.734375 0,-0.296875 -0.125,-0.578125 -0.28125,-0.734375 -0.234375,-0.25 -0.34375,-0.28125 -1.25,-0.5 C 2.65625,-2.859375 2.421875,-2.90625 2.359375,-2.9375 2.1875,-3 1.890625,-3.171875 1.890625,-3.5625 c 0,-0.5625 0.625,-1.109375 1.34375,-1.109375 0.765625,0 1.125,0.421875 1.125,1.078125 0,0.09375 -0.03125,0.25 -0.03125,0.3125 0,0.109375 0.078125,0.109375 0.125,0.109375 0.09375,0 0.109375,-0.046875 0.125,-0.15625 z m 0,0"
               id="path7036" />
          </symbol>
          <symbol
             style="overflow:visible"
             overflow="visible"
             id="textext-e2a75faa-6">
            <path
               inkscape:connector-curvature="0"
               style="stroke:none"
               d=""
               id="path7039" />
          </symbol>
          <symbol
             style="overflow:visible"
             overflow="visible"
             id="textext-e2a75faa-7">
            <path
               inkscape:connector-curvature="0"
               style="stroke:none"
               d="m 3.296875,2.390625 c 0,-0.03125 0,-0.046875 -0.171875,-0.21875 C 1.890625,0.921875 1.5625,-0.96875 1.5625,-2.5 c 0,-1.734375 0.375,-3.46875 1.609375,-4.703125 0.125,-0.125 0.125,-0.140625 0.125,-0.171875 0,-0.078125 -0.03125,-0.109375 -0.09375,-0.109375 -0.109375,0 -1,0.6875 -1.59375,1.953125 -0.5,1.09375 -0.625,2.203125 -0.625,3.03125 0,0.78125 0.109375,1.984375 0.65625,3.125 C 2.25,1.84375 3.09375,2.5 3.203125,2.5 c 0.0625,0 0.09375,-0.03125 0.09375,-0.109375 z m 0,0"
               id="path7042" />
          </symbol>
          <symbol
             style="overflow:visible"
             overflow="visible"
             id="textext-e2a75faa-8">
            <path
               inkscape:connector-curvature="0"
               style="stroke:none"
               d="m 2.875,-2.5 c 0,-0.765625 -0.109375,-1.96875 -0.65625,-3.109375 -0.59375,-1.21875 -1.453125,-1.875 -1.546875,-1.875 -0.0625,0 -0.109375,0.046875 -0.109375,0.109375 0,0.03125 0,0.046875 0.1875,0.234375 0.984375,0.984375 1.546875,2.5625 1.546875,4.640625 0,1.71875 -0.359375,3.46875 -1.59375,4.71875 C 0.5625,2.34375 0.5625,2.359375 0.5625,2.390625 0.5625,2.453125 0.609375,2.5 0.671875,2.5 0.765625,2.5 1.671875,1.8125 2.25,0.546875 2.765625,-0.546875 2.875,-1.65625 2.875,-2.5 z m 0,0"
               id="path7045" />
          </symbol>
          <symbol
             style="overflow:visible"
             overflow="visible"
             id="textext-e2a75faa-9">
            <path
               inkscape:connector-curvature="0"
               style="stroke:none"
               d=""
               id="path7048" />
          </symbol>
          <symbol
             style="overflow:visible"
             overflow="visible"
             id="textext-e2a75faa-10">
            <path
               inkscape:connector-curvature="0"
               style="stroke:none"
               d="m 2.328125,-4.4375 c 0,-0.1875 0,-0.1875 -0.203125,-0.1875 -0.453125,0.4375 -1.078125,0.4375 -1.359375,0.4375 l 0,0.25 c 0.15625,0 0.625,0 1,-0.1875 l 0,3.546875 c 0,0.234375 0,0.328125 -0.6875,0.328125 l -0.265625,0 0,0.25 c 0.125,0 0.984375,-0.03125 1.234375,-0.03125 0.21875,0 1.09375,0.03125 1.25,0.03125 l 0,-0.25 -0.265625,0 c -0.703125,0 -0.703125,-0.09375 -0.703125,-0.328125 z m 0,0"
               id="path7051" />
          </symbol>
        </g>
      </defs>
      <g
         id="textext-e2a75faa-11">
        <g
           style="fill:#000000;fill-opacity:1"
           id="g7054">
          <use
             height="410.53571"
             width="666.37817"
             xlink:href="#textext-e2a75faa-1"
             x="223.43201"
             y="134.765"
             id="use7056" />
        </g>
        <g
           style="fill:#000000;fill-opacity:1"
           id="g7058">
          <use
             height="410.53571"
             width="666.37817"
             xlink:href="#textext-e2a75faa-4"
             x="232.468"
             y="131.149"
             id="use7060" />
        </g>
        <g
           style="fill:#000000;fill-opacity:1"
           id="g7062">
          <use
             height="410.53571"
             width="666.37817"
             xlink:href="#textext-e2a75faa-5"
             x="231.686"
             y="137.509"
             id="use7064" />
        </g>
        <g
           style="fill:#000000;fill-opacity:1"
           id="g7066">
          <use
             height="410.53571"
             width="666.37817"
             xlink:href="#textext-e2a75faa-7"
             x="238.145"
             y="134.765"
             id="use7068" />
        </g>
        <g
           style="fill:#000000;fill-opacity:1"
           id="g7070">
          <use
             height="410.53571"
             width="666.37817"
             xlink:href="#textext-e2a75faa-2"
             x="242.02"
             y="134.765"
             id="use7072" />
        </g>
        <g
           style="fill:#000000;fill-opacity:1"
           id="g7074">
          <use
             height="410.53571"
             width="666.37817"
             xlink:href="#textext-e2a75faa-10"
             x="247.841"
             y="136.259"
             id="use7076" />
        </g>
        <g
           style="fill:#000000;fill-opacity:1"
           id="g7078">
          <use
             height="410.53571"
             width="666.37817"
             xlink:href="#textext-e2a75faa-8"
             x="252.311"
             y="134.765"
             id="use7080" />
        </g>
      </g>
    </g>
    <g
       id="g7416"
       transform="matrix(2.1373567,0,0,2.1373567,-314.42398,418.75809)"
       ns0:preamble=""
       ns0:text="$X_L^\\alpha (T_1)$">
      <defs
         id="defs7418">
        <g
           id="g7420">
          <symbol
             id="textext-53ffb2b3-0"
             overflow="visible"
             style="overflow:visible">
            <path
               id="path7423"
               d=""
               style="stroke:none"
               inkscape:connector-curvature="0" />
          </symbol>
          <symbol
             id="textext-53ffb2b3-1"
             overflow="visible"
             style="overflow:visible">
            <path
               id="path7426"
               d="M 4.828125,-4.09375 4,-6.078125 c -0.03125,-0.078125 -0.046875,-0.125 -0.046875,-0.125 0,-0.0625 0.15625,-0.25 0.578125,-0.296875 0.109375,-0.015625 0.203125,-0.015625 0.203125,-0.1875 0,-0.125 -0.125,-0.125 -0.15625,-0.125 -0.40625,0 -0.828125,0.03125 -1.25,0.03125 -0.25,0 -0.859375,-0.03125 -1.109375,-0.03125 -0.0625,0 -0.1875,0 -0.1875,0.203125 C 2.03125,-6.5 2.140625,-6.5 2.265625,-6.5 c 0.59375,0 0.65625,0.09375 0.75,0.3125 l 1.171875,2.78125 -2.109375,2.265625 -0.125,0.109375 C 1.46875,-0.5 1,-0.34375 0.484375,-0.3125 c -0.125,0.015625 -0.21875,0.015625 -0.21875,0.203125 0,0.015625 0,0.109375 0.140625,0.109375 0.296875,0 0.625,-0.03125 0.921875,-0.03125 C 1.703125,-0.03125 2.09375,0 2.453125,0 2.515625,0 2.625,0 2.625,-0.203125 2.625,-0.296875 2.53125,-0.3125 2.515625,-0.3125 c -0.09375,0 -0.40625,-0.03125 -0.40625,-0.3125 0,-0.15625 0.15625,-0.3125 0.265625,-0.4375 L 3.40625,-2.140625 4.296875,-3.125 l 1,2.390625 c 0.046875,0.109375 0.0625,0.109375 0.0625,0.140625 0,0.078125 -0.203125,0.25 -0.578125,0.28125 C 4.671875,-0.296875 4.578125,-0.296875 4.578125,-0.125 4.578125,0 4.6875,0 4.71875,0 5,0 5.703125,-0.03125 5.984375,-0.03125 6.234375,-0.03125 6.84375,0 7.09375,0 c 0.0625,0 0.1875,0 0.1875,-0.1875 0,-0.125 -0.109375,-0.125 -0.1875,-0.125 -0.65625,0 -0.6875,-0.03125 -0.859375,-0.4375 C 5.859375,-1.671875 5.1875,-3.234375 4.953125,-3.828125 5.625,-4.53125 6.671875,-5.71875 7,-5.984375 7.28125,-6.234375 7.671875,-6.46875 8.265625,-6.5 c 0.125,-0.015625 0.21875,-0.015625 0.21875,-0.203125 0,0 0,-0.109375 -0.125,-0.109375 -0.296875,0 -0.640625,0.03125 -0.9375,0.03125 -0.375,0 -0.75,-0.03125 -1.109375,-0.03125 -0.0625,0 -0.1875,0 -0.1875,0.203125 0,0.0625 0.046875,0.09375 0.109375,0.109375 0.09375,0.015625 0.40625,0.03125 0.40625,0.3125 0,0.140625 -0.109375,0.265625 -0.1875,0.359375 z m 0,0"
               style="stroke:none"
               inkscape:connector-curvature="0" />
          </symbol>
          <symbol
             id="textext-53ffb2b3-2"
             overflow="visible"
             style="overflow:visible">
            <path
               id="path7429"
               d="m 4.25,-6.046875 c 0.078125,-0.28125 0.109375,-0.34375 0.234375,-0.375 0.09375,-0.015625 0.421875,-0.015625 0.625,-0.015625 1.015625,0 1.453125,0.03125 1.453125,0.8125 0,0.15625 -0.03125,0.546875 -0.078125,0.796875 0,0.046875 -0.03125,0.15625 -0.03125,0.1875 0,0.0625 0.03125,0.140625 0.125,0.140625 0.109375,0 0.125,-0.078125 0.15625,-0.234375 L 7,-6.46875 C 7.015625,-6.515625 7.015625,-6.609375 7.015625,-6.640625 7.015625,-6.75 6.921875,-6.75 6.75,-6.75 l -5.53125,0 c -0.234375,0 -0.25,0.015625 -0.328125,0.203125 l -0.59375,1.75 c 0,0.015625 -0.0625,0.15625 -0.0625,0.1875 0,0.046875 0.0625,0.109375 0.125,0.109375 0.09375,0 0.109375,-0.0625 0.171875,-0.21875 C 1.0625,-6.265625 1.328125,-6.4375 2.796875,-6.4375 l 0.390625,0 c 0.28125,0 0.28125,0.03125 0.28125,0.125 0,0.046875 -0.03125,0.171875 -0.046875,0.203125 L 2.09375,-0.78125 C 2,-0.421875 1.96875,-0.3125 0.90625,-0.3125 c -0.359375,0 -0.421875,0 -0.421875,0.1875 C 0.484375,0 0.59375,0 0.65625,0 c 0.265625,0 0.546875,-0.015625 0.8125,-0.015625 0.28125,0 0.578125,-0.015625 0.859375,-0.015625 0.28125,0 0.546875,0.015625 0.828125,0.015625 C 3.4375,-0.015625 3.734375,0 4.015625,0 c 0.09375,0 0.21875,0 0.21875,-0.203125 0,-0.109375 -0.078125,-0.109375 -0.34375,-0.109375 -0.234375,0 -0.375,0 -0.625,-0.015625 -0.296875,-0.03125 -0.375,-0.0625 -0.375,-0.21875 0,-0.015625 0,-0.0625 0.046875,-0.203125 z m 0,0"
               style="stroke:none"
               inkscape:connector-curvature="0" />
          </symbol>
          <symbol
             id="textext-53ffb2b3-3"
             overflow="visible"
             style="overflow:visible">
            <path
               id="path7432"
               d=""
               style="stroke:none"
               inkscape:connector-curvature="0" />
          </symbol>
          <symbol
             id="textext-53ffb2b3-4"
             overflow="visible"
             style="overflow:visible">
            <path
               id="path7435"
               d="m 3.8125,-0.984375 c 0.640625,-0.65625 0.890625,-1.59375 0.890625,-1.65625 0,-0.09375 -0.078125,-0.09375 -0.109375,-0.09375 C 4.5,-2.734375 4.5,-2.71875 4.453125,-2.5625 4.328125,-2.109375 4.09375,-1.671875 3.796875,-1.296875 3.796875,-1.40625 3.78125,-1.875 3.765625,-1.9375 3.65625,-2.625 3.140625,-3.078125 2.4375,-3.078125 c -1.015625,0 -2,0.953125 -2,1.9375 0,0.640625 0.46875,1.203125 1.265625,1.203125 0.640625,0 1.21875,-0.28125 1.609375,-0.578125 0.171875,0.5 0.515625,0.578125 0.734375,0.578125 0.40625,0 0.65625,-0.328125 0.65625,-0.484375 C 4.703125,-0.5 4.609375,-0.5 4.578125,-0.5 c -0.09375,0 -0.109375,0.03125 -0.125,0.0625 -0.09375,0.265625 -0.3125,0.3125 -0.390625,0.3125 -0.09375,0 -0.21875,0 -0.25,-0.859375 z M 3.265625,-0.75 C 2.578125,-0.1875 2,-0.125 1.734375,-0.125 c -0.46875,0 -0.71875,-0.3125 -0.71875,-0.78125 0,-0.1875 0.09375,-0.953125 0.453125,-1.4375 C 1.796875,-2.765625 2.1875,-2.875 2.4375,-2.875 c 0.546875,0 0.71875,0.53125 0.765625,0.96875 0.046875,0.296875 0.03125,0.796875 0.0625,1.15625 z m 0,0"
               style="stroke:none"
               inkscape:connector-curvature="0" />
          </symbol>
          <symbol
             id="textext-53ffb2b3-5"
             overflow="visible"
             style="overflow:visible">
            <path
               id="path7438"
               d="m 2.875,-4.1875 c 0.0625,-0.25 0.078125,-0.328125 0.71875,-0.328125 0.21875,0 0.28125,0 0.28125,-0.140625 0,-0.015625 0,-0.109375 -0.109375,-0.109375 -0.15625,0 -0.34375,0.015625 -0.515625,0.03125 -0.171875,0 -0.390625,0 -0.5625,0 -0.140625,0 -0.328125,0 -0.484375,0 -0.140625,0 -0.3125,-0.03125 -0.453125,-0.03125 -0.03125,0 -0.140625,0 -0.140625,0.15625 0,0.09375 0.078125,0.09375 0.21875,0.09375 0.015625,0 0.140625,0 0.265625,0.015625 0.15625,0.015625 0.171875,0.03125 0.171875,0.109375 0,0 0,0.046875 -0.03125,0.140625 l -0.9375,3.703125 C 1.234375,-0.3125 1.21875,-0.25 0.6875,-0.25 c -0.109375,0 -0.203125,0 -0.203125,0.140625 C 0.484375,0 0.5625,0 0.6875,0 l 3.5,0 c 0.1875,0 0.1875,0 0.25,-0.140625 0.0625,-0.1875 0.59375,-1.53125 0.59375,-1.59375 0,-0.015625 -0.015625,-0.09375 -0.125,-0.09375 -0.078125,0 -0.09375,0.03125 -0.140625,0.140625 C 4.5,-1.03125 4.1875,-0.25 2.921875,-0.25 l -0.796875,0 c -0.203125,0 -0.21875,-0.015625 -0.21875,-0.078125 0,0 0,-0.03125 0.03125,-0.140625 z m 0,0"
               style="stroke:none"
               inkscape:connector-curvature="0" />
          </symbol>
          <symbol
             id="textext-53ffb2b3-6"
             overflow="visible"
             style="overflow:visible">
            <path
               id="path7441"
               d=""
               style="stroke:none"
               inkscape:connector-curvature="0" />
          </symbol>
          <symbol
             id="textext-53ffb2b3-7"
             overflow="visible"
             style="overflow:visible">
            <path
               id="path7444"
               d="m 3.296875,2.390625 c 0,-0.03125 0,-0.046875 -0.171875,-0.21875 C 1.890625,0.921875 1.5625,-0.96875 1.5625,-2.5 c 0,-1.734375 0.375,-3.46875 1.609375,-4.703125 0.125,-0.125 0.125,-0.140625 0.125,-0.171875 0,-0.078125 -0.03125,-0.109375 -0.09375,-0.109375 -0.109375,0 -1,0.6875 -1.59375,1.953125 -0.5,1.09375 -0.625,2.203125 -0.625,3.03125 0,0.78125 0.109375,1.984375 0.65625,3.125 C 2.25,1.84375 3.09375,2.5 3.203125,2.5 c 0.0625,0 0.09375,-0.03125 0.09375,-0.109375 z m 0,0"
               style="stroke:none"
               inkscape:connector-curvature="0" />
          </symbol>
          <symbol
             id="textext-53ffb2b3-8"
             overflow="visible"
             style="overflow:visible">
            <path
               id="path7447"
               d="m 2.875,-2.5 c 0,-0.765625 -0.109375,-1.96875 -0.65625,-3.109375 -0.59375,-1.21875 -1.453125,-1.875 -1.546875,-1.875 -0.0625,0 -0.109375,0.046875 -0.109375,0.109375 0,0.03125 0,0.046875 0.1875,0.234375 0.984375,0.984375 1.546875,2.5625 1.546875,4.640625 0,1.71875 -0.359375,3.46875 -1.59375,4.71875 C 0.5625,2.34375 0.5625,2.359375 0.5625,2.390625 0.5625,2.453125 0.609375,2.5 0.671875,2.5 0.765625,2.5 1.671875,1.8125 2.25,0.546875 2.765625,-0.546875 2.875,-1.65625 2.875,-2.5 z m 0,0"
               style="stroke:none"
               inkscape:connector-curvature="0" />
          </symbol>
          <symbol
             id="textext-53ffb2b3-9"
             overflow="visible"
             style="overflow:visible">
            <path
               id="path7450"
               d=""
               style="stroke:none"
               inkscape:connector-curvature="0" />
          </symbol>
          <symbol
             id="textext-53ffb2b3-10"
             overflow="visible"
             style="overflow:visible">
            <path
               id="path7453"
               d="m 2.328125,-4.4375 c 0,-0.1875 0,-0.1875 -0.203125,-0.1875 -0.453125,0.4375 -1.078125,0.4375 -1.359375,0.4375 l 0,0.25 c 0.15625,0 0.625,0 1,-0.1875 l 0,3.546875 c 0,0.234375 0,0.328125 -0.6875,0.328125 l -0.265625,0 0,0.25 c 0.125,0 0.984375,-0.03125 1.234375,-0.03125 0.21875,0 1.09375,0.03125 1.25,0.03125 l 0,-0.25 -0.265625,0 c -0.703125,0 -0.703125,-0.09375 -0.703125,-0.328125 z m 0,0"
               style="stroke:none"
               inkscape:connector-curvature="0" />
          </symbol>
        </g>
      </defs>
      <g
         id="textext-53ffb2b3-11">
        <g
           id="g7456"
           style="fill:#000000;fill-opacity:1">
          <use
             id="use7458"
             y="134.765"
             x="223.43201"
             xlink:href="#textext-53ffb2b3-1"
             width="666.37817"
             height="410.53571" />
        </g>
        <g
           id="g7460"
           style="fill:#000000;fill-opacity:1">
          <use
             id="use7462"
             y="131.149"
             x="232.468"
             xlink:href="#textext-53ffb2b3-4"
             width="666.37817"
             height="410.53571" />
        </g>
        <g
           id="g7464"
           style="fill:#000000;fill-opacity:1">
          <use
             id="use7466"
             y="137.509"
             x="231.686"
             xlink:href="#textext-53ffb2b3-5"
             width="666.37817"
             height="410.53571" />
        </g>
        <g
           id="g7468"
           style="fill:#000000;fill-opacity:1">
          <use
             id="use7470"
             y="134.765"
             x="238.145"
             xlink:href="#textext-53ffb2b3-7"
             width="666.37817"
             height="410.53571" />
        </g>
        <g
           id="g7472"
           style="fill:#000000;fill-opacity:1">
          <use
             id="use7474"
             y="134.765"
             x="242.02"
             xlink:href="#textext-53ffb2b3-2"
             width="666.37817"
             height="410.53571" />
        </g>
        <g
           id="g7476"
           style="fill:#000000;fill-opacity:1">
          <use
             id="use7478"
             y="136.259"
             x="247.841"
             xlink:href="#textext-53ffb2b3-10"
             width="666.37817"
             height="410.53571" />
        </g>
        <g
           id="g7480"
           style="fill:#000000;fill-opacity:1">
          <use
             id="use7482"
             y="134.765"
             x="252.311"
             xlink:href="#textext-53ffb2b3-8"
             width="666.37817"
             height="410.53571" />
        </g>
      </g>
    </g>
    <path
       style="fill:none;stroke:#000000;stroke-width:1px;stroke-linecap:butt;stroke-linejoin:miter;stroke-opacity:1;marker-end:url(#Arrow2Lend)"
       d="m 310,30.535706 30,30"
       id="path7604"
       inkscape:connector-curvature="0"
       transform="translate(-63.028358,665.51153)" />
    <g
       ns0:text="$J_B$"
       ns0:preamble=""
       transform="matrix(2.1373567,0,0,2.1373567,-195.85256,419.47237)"
       id="g7792">
      <defs
         id="defs7794">
        <g
           id="g7796">
          <symbol
             style="overflow:visible"
             overflow="visible"
             id="textext-1d0fc4f5-0">
            <path
               inkscape:connector-curvature="0"
               style="stroke:none"
               d=""
               id="path7799" />
          </symbol>
          <symbol
             style="overflow:visible"
             overflow="visible"
             id="textext-1d0fc4f5-1">
            <path
               inkscape:connector-curvature="0"
               style="stroke:none"
               d="M 5.390625,-6.078125 C 5.46875,-6.40625 5.5,-6.5 6.046875,-6.5 c 0.15625,0 0.265625,0 0.265625,-0.1875 0,-0.09375 -0.0625,-0.125 -0.140625,-0.125 -0.25,0 -0.859375,0.03125 -1.109375,0.03125 -0.328125,0 -1.140625,-0.03125 -1.46875,-0.03125 -0.078125,0 -0.203125,0 -0.203125,0.203125 C 3.390625,-6.5 3.46875,-6.5 3.734375,-6.5 c 0.21875,0 0.328125,0 0.578125,0.015625 0.234375,0.03125 0.296875,0.0625 0.296875,0.203125 0,0.0625 -0.015625,0.125 -0.03125,0.203125 L 3.421875,-1.5 C 3.1875,-0.53125 2.515625,0 2,0 1.734375,0 1.203125,-0.09375 1.046875,-0.625 c 0.03125,0.015625 0.09375,0.015625 0.125,0.015625 0.390625,0 0.640625,-0.34375 0.640625,-0.640625 0,-0.3125 -0.265625,-0.421875 -0.4375,-0.421875 -0.171875,0 -0.671875,0.125 -0.671875,0.796875 0,0.625 0.53125,1.09375 1.328125,1.09375 0.90625,0 1.953125,-0.65625 2.203125,-1.640625 z m 0,0"
               id="path7802" />
          </symbol>
          <symbol
             style="overflow:visible"
             overflow="visible"
             id="textext-1d0fc4f5-2">
            <path
               inkscape:connector-curvature="0"
               style="stroke:none"
               d=""
               id="path7805" />
          </symbol>
          <symbol
             style="overflow:visible"
             overflow="visible"
             id="textext-1d0fc4f5-3">
            <path
               inkscape:connector-curvature="0"
               style="stroke:none"
               d="M 1.328125,-0.546875 C 1.265625,-0.3125 1.25,-0.25 0.703125,-0.25 0.59375,-0.25 0.5,-0.25 0.5,-0.109375 0.5,0 0.578125,0 0.703125,0 L 3.40625,0 c 1.171875,0 2.078125,-0.796875 2.078125,-1.484375 0,-0.5 -0.453125,-0.921875 -1.203125,-1 0.84375,-0.15625 1.546875,-0.6875 1.546875,-1.28125 0,-0.53125 -0.53125,-1 -1.4375,-1 l -2.53125,0 c -0.140625,0 -0.234375,0 -0.234375,0.15625 0,0.09375 0.09375,0.09375 0.234375,0.09375 0,0 0.140625,0 0.265625,0.015625 0.140625,0.015625 0.15625,0.03125 0.15625,0.109375 0,0 0,0.046875 -0.03125,0.140625 z m 1.109375,-2.03125 0.421875,-1.6875 c 0.0625,-0.21875 0.0625,-0.25 0.359375,-0.25 l 1.0625,0 c 0.703125,0 0.875,0.46875 0.875,0.734375 0,0.5625 -0.640625,1.203125 -1.578125,1.203125 z M 2.109375,-0.25 C 1.890625,-0.25 1.875,-0.265625 1.875,-0.328125 c 0,0 0,-0.03125 0.03125,-0.140625 l 0.484375,-1.90625 1.484375,0 c 0.640625,0 0.90625,0.4375 0.90625,0.828125 0,0.703125 -0.71875,1.296875 -1.5625,1.296875 z m 0,0"
               id="path7808" />
          </symbol>
        </g>
      </defs>
      <g
         id="textext-1d0fc4f5-4">
        <g
           style="fill:#000000;fill-opacity:1"
           id="g7811">
          <use
             height="410.53571"
             width="666.37817"
             xlink:href="#textext-1d0fc4f5-1"
             x="223.43201"
             y="134.765"
             id="use7813" />
        </g>
        <g
           style="fill:#000000;fill-opacity:1"
           id="g7815">
          <use
             height="410.53571"
             width="666.37817"
             xlink:href="#textext-1d0fc4f5-3"
             x="228.957"
             y="136.259"
             id="use7817" />
        </g>
      </g>
    </g>
    <g
       id="g8132"
       transform="matrix(2.1373567,0,0,2.1373567,-32.28113,453.75808)"
       ns0:preamble=""
       ns0:text="$C_e$">
      <defs
         id="defs8134">
        <g
           id="g8136">
          <symbol
             id="textext-43c589c8-0"
             overflow="visible"
             style="overflow:visible">
            <path
               id="path8139"
               d=""
               style="stroke:none"
               inkscape:connector-curvature="0" />
          </symbol>
          <symbol
             id="textext-43c589c8-1"
             overflow="visible"
             style="overflow:visible">
            <path
               id="path8142"
               d="m 7.578125,-6.921875 c 0,-0.03125 -0.015625,-0.109375 -0.109375,-0.109375 -0.03125,0 -0.046875,0.015625 -0.15625,0.125 L 6.625,-6.140625 C 6.53125,-6.28125 6.078125,-7.03125 4.96875,-7.03125 2.734375,-7.03125 0.5,-4.828125 0.5,-2.515625 0.5,-0.875 1.671875,0.21875 3.203125,0.21875 c 0.859375,0 1.625,-0.390625 2.15625,-0.859375 0.921875,-0.8125 1.09375,-1.71875 1.09375,-1.75 C 6.453125,-2.5 6.34375,-2.5 6.328125,-2.5 c -0.0625,0 -0.109375,0.03125 -0.125,0.109375 -0.09375,0.28125 -0.328125,1 -1.015625,1.578125 -0.6875,0.546875 -1.3125,0.71875 -1.828125,0.71875 -0.890625,0 -1.953125,-0.515625 -1.953125,-2.0625 0,-0.578125 0.203125,-2.1875 1.203125,-3.359375 0.609375,-0.703125 1.546875,-1.203125 2.4375,-1.203125 1.015625,0 1.609375,0.765625 1.609375,1.921875 0,0.40625 -0.03125,0.40625 -0.03125,0.515625 0,0.09375 0.109375,0.09375 0.140625,0.09375 0.125,0 0.125,-0.015625 0.1875,-0.203125 z m 0,0"
               style="stroke:none"
               inkscape:connector-curvature="0" />
          </symbol>
          <symbol
             id="textext-43c589c8-2"
             overflow="visible"
             style="overflow:visible">
            <path
               id="path8145"
               d=""
               style="stroke:none"
               inkscape:connector-curvature="0" />
          </symbol>
          <symbol
             id="textext-43c589c8-3"
             overflow="visible"
             style="overflow:visible">
            <path
               id="path8148"
               d="m 1.5625,-1.59375 c 0.1875,0 0.75,-0.015625 1.125,-0.140625 0.515625,-0.1875 0.609375,-0.515625 0.609375,-0.71875 0,-0.390625 -0.390625,-0.625 -0.859375,-0.625 -0.84375,0 -1.96875,0.640625 -1.96875,1.84375 0,0.703125 0.4375,1.296875 1.25,1.296875 1.1875,0 1.734375,-0.6875 1.734375,-0.78125 0,-0.046875 -0.0625,-0.125 -0.125,-0.125 -0.03125,0 -0.046875,0.015625 -0.109375,0.078125 C 2.671875,-0.125 1.859375,-0.125 1.734375,-0.125 1.3125,-0.125 1.03125,-0.40625 1.03125,-0.96875 c 0,-0.09375 0,-0.234375 0.09375,-0.625 z M 1.171875,-1.78125 C 1.46875,-2.796875 2.234375,-2.875 2.4375,-2.875 2.734375,-2.875 3,-2.71875 3,-2.453125 3,-1.78125 1.8125,-1.78125 1.515625,-1.78125 z m 0,0"
               style="stroke:none"
               inkscape:connector-curvature="0" />
          </symbol>
        </g>
      </defs>
      <g
         id="textext-43c589c8-4">
        <g
           id="g8151"
           style="fill:#000000;fill-opacity:1">
          <use
             id="use8153"
             y="134.765"
             x="223.43201"
             xlink:href="#textext-43c589c8-1"
             width="666.37817"
             height="410.53571" />
        </g>
        <g
           id="g8155"
           style="fill:#000000;fill-opacity:1">
          <use
             id="use8157"
             y="136.259"
             x="230.55299"
             xlink:href="#textext-43c589c8-3"
             width="666.37817"
             height="410.53571" />
        </g>
      </g>
    </g>
  </g>
</svg>
