<?xml version="1.0" encoding="UTF-8" standalone="no"?>
<!-- Created with Inkscape (http://www.inkscape.org/) -->

<svg
   xmlns:ns0="http://www.iki.fi/pav/software/textext/"
   xmlns:dc="http://purl.org/dc/elements/1.1/"
   xmlns:cc="http://creativecommons.org/ns#"
   xmlns:rdf="http://www.w3.org/1999/02/22-rdf-syntax-ns#"
   xmlns:svg="http://www.w3.org/2000/svg"
   xmlns="http://www.w3.org/2000/svg"
   xmlns:xlink="http://www.w3.org/1999/xlink"
   xmlns:sodipodi="http://sodipodi.sourceforge.net/DTD/sodipodi-0.dtd"
   xmlns:inkscape="http://www.inkscape.org/namespaces/inkscape"
   width="513.57092"
   height="208.55049"
   id="svg2"
   version="1.1"
   inkscape:version="0.48.4 r9939"
   sodipodi:docname="drawing11.svg">
  <sodipodi:namedview
     id="base"
     pagecolor="#ffffff"
     bordercolor="#666666"
     borderopacity="1.0"
     inkscape:pageopacity="0.0"
     inkscape:pageshadow="2"
     inkscape:zoom="1.4"
     inkscape:cx="321.57568"
     inkscape:cy="34.789642"
     inkscape:document-units="px"
     inkscape:current-layer="layer1"
     showgrid="true"
     units="in"
     width="11cm"
     inkscape:window-width="1280"
     inkscape:window-height="967"
     inkscape:window-x="0"
     inkscape:window-y="0"
     inkscape:window-maximized="1"
     fit-margin-top="0"
     fit-margin-left="0"
     fit-margin-right="0"
     fit-margin-bottom="0"
     inkscape:snap-grids="true">
    <inkscape:grid
       spacingy="2px"
       spacingx="2px"
       snapvisiblegridlinesonly="true"
       enabled="true"
       visible="true"
       empspacing="5"
       id="grid2984"
       type="xygrid"
       originx="-6.9290952px"
       originy="-119.80663px" />
  </sodipodi:namedview>
  <defs
     id="defs4">
    <marker
       style="overflow:visible"
       id="Arrow2Mstart"
       refX="0"
       refY="0"
       orient="auto"
       inkscape:stockid="Arrow2Mstart">
      <path
         transform="scale(0.6,0.6)"
         d="M 8.7185878,4.0337352 -2.2072895,0.01601326 8.7185884,-4.0017078 c -1.7454984,2.3720609 -1.7354408,5.6174519 -6e-7,8.035443 z"
         style="fill-rule:evenodd;stroke-width:0.625;stroke-linejoin:round"
         id="path4187"
         inkscape:connector-curvature="0" />
    </marker>
    <marker
       style="overflow:visible"
       id="Arrow2Sstart"
       refX="0"
       refY="0"
       orient="auto"
       inkscape:stockid="Arrow2Sstart">
      <path
         transform="matrix(0.3,0,0,0.3,-0.69,0)"
         d="M 8.7185878,4.0337352 -2.2072895,0.01601326 8.7185884,-4.0017078 c -1.7454984,2.3720609 -1.7354408,5.6174519 -6e-7,8.035443 z"
         style="fill-rule:evenodd;stroke-width:0.625;stroke-linejoin:round"
         id="path4193"
         inkscape:connector-curvature="0" />
    </marker>
    <marker
       inkscape:stockid="Arrow2Mend"
       orient="auto"
       refY="0"
       refX="0"
       id="Arrow2Mend"
       style="overflow:visible">
      <path
         inkscape:connector-curvature="0"
         id="path3966"
         style="fill-rule:evenodd;stroke-width:0.625;stroke-linejoin:round"
         d="M 8.7185878,4.0337352 -2.2072895,0.01601326 8.7185884,-4.0017078 c -1.7454984,2.3720609 -1.7354408,5.6174519 -6e-7,8.035443 z"
         transform="scale(-0.6,-0.6)" />
    </marker>
  </defs>
  <metadata
     id="metadata7">
    <rdf:RDF>
      <cc:Work
         rdf:about="">
        <dc:format>image/svg+xml</dc:format>
        <dc:type
           rdf:resource="http://purl.org/dc/dcmitype/StillImage" />
        <dc:title />
      </cc:Work>
    </rdf:RDF>
  </metadata>
  <g
     inkscape:label="Layer 1"
     inkscape:groupmode="layer"
     id="layer1"
     transform="translate(56.099263,-747.69011)">
    <path
       sodipodi:nodetypes="cccc"
       inkscape:connector-curvature="0"
       id="path2985"
       d="m -12.103989,749.52171 0,177.33678 161.215249,0 32.24305,0"
       style="fill:none;stroke:#000000;stroke-width:0.80607629px;stroke-linecap:butt;stroke-linejoin:miter;stroke-opacity:1" />
    <path
       sodipodi:nodetypes="cccc"
       inkscape:connector-curvature="0"
       id="path2985-7"
       d="m 257.1187,748.09476 0,178.0478 161.86166,0 32.37234,0"
       style="fill:none;stroke:#000000;stroke-width:0.80930829px;stroke-linecap:butt;stroke-linejoin:miter;stroke-opacity:1" />
    <path
       transform="translate(-63.028358,665.51153)"
       inkscape:connector-curvature="0"
       id="path3005"
       d="m 50,110.53571 190,0"
       style="fill:none;stroke:#000000;stroke-width:1px;stroke-linecap:butt;stroke-linejoin:miter;stroke-opacity:1" />
    <path
       transform="translate(-63.028358,665.51153)"
       inkscape:connector-curvature="0"
       id="path3007"
       d="m 320,110.53571 200,0"
       style="fill:none;stroke:#000000;stroke-width:1px;stroke-linecap:butt;stroke-linejoin:miter;stroke-opacity:1" />
    <path
       transform="translate(-63.028358,665.51153)"
       inkscape:connector-curvature="0"
       id="path3009"
       d="m 50,140.53571 150,0"
       style="fill:none;stroke:#000000;stroke-width:1;stroke-linecap:butt;stroke-linejoin:miter;stroke-miterlimit:4;stroke-opacity:1;stroke-dasharray:4, 4;stroke-dashoffset:0" />
    <path
       transform="translate(-63.028358,665.51153)"
       inkscape:connector-curvature="0"
       id="path3011"
       d="m 320,140.53571 160,0"
       style="fill:none;stroke:#000000;stroke-width:1;stroke-linecap:butt;stroke-linejoin:miter;stroke-miterlimit:4;stroke-opacity:1;stroke-dasharray:4, 4;stroke-dashoffset:0" />
    <path
       sodipodi:nodetypes="cc"
       transform="translate(-63.028358,665.51153)"
       inkscape:connector-curvature="0"
       id="path3787"
       d="m 50,180.53571 130,30"
       style="fill:none;stroke:#000000;stroke-width:1px;stroke-linecap:butt;stroke-linejoin:miter;stroke-opacity:1" />
    <path
       sodipodi:nodetypes="cc"
       transform="translate(-63.028358,665.51153)"
       inkscape:connector-curvature="0"
       id="path3789"
       d="m 70,230.53571 120,-40"
       style="fill:none;stroke:#000000;stroke-width:1;stroke-linecap:butt;stroke-linejoin:miter;stroke-miterlimit:4;stroke-opacity:1;stroke-dasharray:4, 4;stroke-dashoffset:0" />
    <path
       sodipodi:nodetypes="ccc"
       transform="translate(-63.028358,665.51153)"
       inkscape:connector-curvature="0"
       id="path3791"
       d="m 320,160.53571 c 0,20 79.28571,20.71428 79.28571,45.71428 2.26482,26.61627 -65.35619,22.26159 -79.28571,44.28572"
       style="fill:none;stroke:#000000;stroke-width:1px;stroke-linecap:butt;stroke-linejoin:miter;stroke-opacity:1" />
    <path
       inkscape:connector-curvature="0"
       id="path3793"
       d="m -23.385501,760.95209 0,76.71915"
       style="fill:none;stroke:#000000;stroke-width:0.85243499px;stroke-linecap:butt;stroke-linejoin:miter;stroke-opacity:1;marker-start:url(#Arrow2Mstart);marker-mid:none;marker-end:url(#Arrow2Mend)" />
    <g
       id="g4815"
       ns0:preamble=""
       ns0:text="$\\Delta T_c$"
       transform="matrix(1.3757559,0,0,1.3757559,-364.13205,619.90153)">
      <defs
         id="defs4817">
        <g
           id="g4819">
          <symbol
             id="textext-ac50884a-0"
             overflow="visible"
             style="overflow:visible">
            <path
               id="path4822"
               d=""
               style="stroke:none"
               inkscape:connector-curvature="0" />
          </symbol>
          <symbol
             id="textext-ac50884a-1"
             overflow="visible"
             style="overflow:visible">
            <path
               id="path4825"
               d="m 4.40625,-6.953125 c -0.0625,-0.140625 -0.09375,-0.1875 -0.265625,-0.1875 -0.15625,0 -0.1875,0.046875 -0.25,0.1875 l -3.375,6.75 C 0.46875,-0.109375 0.46875,-0.09375 0.46875,-0.078125 0.46875,0 0.53125,0 0.6875,0 l 6.921875,0 c 0.15625,0 0.21875,0 0.21875,-0.078125 0,-0.015625 0,-0.03125 -0.046875,-0.125 z m -0.578125,0.8125 2.6875,5.390625 -5.375,0 z m 0,0"
               style="stroke:none"
               inkscape:connector-curvature="0" />
          </symbol>
          <symbol
             id="textext-ac50884a-2"
             overflow="visible"
             style="overflow:visible">
            <path
               id="path4828"
               d=""
               style="stroke:none"
               inkscape:connector-curvature="0" />
          </symbol>
          <symbol
             id="textext-ac50884a-3"
             overflow="visible"
             style="overflow:visible">
            <path
               id="path4831"
               d="m 4.25,-6.046875 c 0.078125,-0.28125 0.109375,-0.34375 0.234375,-0.375 0.09375,-0.015625 0.421875,-0.015625 0.625,-0.015625 1.015625,0 1.453125,0.03125 1.453125,0.8125 0,0.15625 -0.03125,0.546875 -0.078125,0.796875 0,0.046875 -0.03125,0.15625 -0.03125,0.1875 0,0.0625 0.03125,0.140625 0.125,0.140625 0.109375,0 0.125,-0.078125 0.15625,-0.234375 L 7,-6.46875 C 7.015625,-6.515625 7.015625,-6.609375 7.015625,-6.640625 7.015625,-6.75 6.921875,-6.75 6.75,-6.75 l -5.53125,0 c -0.234375,0 -0.25,0.015625 -0.328125,0.203125 l -0.59375,1.75 c 0,0.015625 -0.0625,0.15625 -0.0625,0.1875 0,0.046875 0.0625,0.109375 0.125,0.109375 0.09375,0 0.109375,-0.0625 0.171875,-0.21875 C 1.0625,-6.265625 1.328125,-6.4375 2.796875,-6.4375 l 0.390625,0 c 0.28125,0 0.28125,0.03125 0.28125,0.125 0,0.046875 -0.03125,0.171875 -0.046875,0.203125 L 2.09375,-0.78125 C 2,-0.421875 1.96875,-0.3125 0.90625,-0.3125 c -0.359375,0 -0.421875,0 -0.421875,0.1875 C 0.484375,0 0.59375,0 0.65625,0 c 0.265625,0 0.546875,-0.015625 0.8125,-0.015625 0.28125,0 0.578125,-0.015625 0.859375,-0.015625 0.28125,0 0.546875,0.015625 0.828125,0.015625 C 3.4375,-0.015625 3.734375,0 4.015625,0 c 0.09375,0 0.21875,0 0.21875,-0.203125 0,-0.109375 -0.078125,-0.109375 -0.34375,-0.109375 -0.234375,0 -0.375,0 -0.625,-0.015625 -0.296875,-0.03125 -0.375,-0.0625 -0.375,-0.21875 0,-0.015625 0,-0.0625 0.046875,-0.203125 z m 0,0"
               style="stroke:none"
               inkscape:connector-curvature="0" />
          </symbol>
          <symbol
             id="textext-ac50884a-4"
             overflow="visible"
             style="overflow:visible">
            <path
               id="path4834"
               d=""
               style="stroke:none"
               inkscape:connector-curvature="0" />
          </symbol>
          <symbol
             id="textext-ac50884a-5"
             overflow="visible"
             style="overflow:visible">
            <path
               id="path4837"
               d="m 3.046875,-2.671875 c -0.25,0.046875 -0.34375,0.234375 -0.34375,0.390625 0,0.1875 0.140625,0.265625 0.265625,0.265625 0.15625,0 0.390625,-0.109375 0.390625,-0.453125 0,-0.46875 -0.53125,-0.609375 -0.90625,-0.609375 -1.046875,0 -2.015625,0.96875 -2.015625,1.9375 0,0.59375 0.40625,1.203125 1.28125,1.203125 1.1875,0 1.734375,-0.6875 1.734375,-0.78125 0,-0.046875 -0.0625,-0.125 -0.125,-0.125 -0.03125,0 -0.046875,0.015625 -0.109375,0.078125 C 2.671875,-0.125 1.859375,-0.125 1.734375,-0.125 c -0.5,0 -0.71875,-0.34375 -0.71875,-0.78125 0,-0.1875 0.09375,-0.953125 0.453125,-1.4375 0.265625,-0.34375 0.625,-0.53125 0.984375,-0.53125 0.09375,0 0.421875,0.015625 0.59375,0.203125 z m 0,0"
               style="stroke:none"
               inkscape:connector-curvature="0" />
          </symbol>
        </g>
      </defs>
      <g
         id="textext-ac50884a-6">
        <g
           id="g4840"
           style="fill:#000000;fill-opacity:1">
          <use
             id="use4842"
             y="134.765"
             x="223.43201"
             xlink:href="#textext-ac50884a-1"
             width="666.37817"
             height="410.53571" />
        </g>
        <g
           id="g4844"
           style="fill:#000000;fill-opacity:1">
          <use
             id="use4846"
             y="134.765"
             x="231.73399"
             xlink:href="#textext-ac50884a-3"
             width="666.37817"
             height="410.53571" />
        </g>
        <g
           id="g4848"
           style="fill:#000000;fill-opacity:1">
          <use
             id="use4850"
             y="136.259"
             x="237.556"
             xlink:href="#textext-ac50884a-5"
             width="666.37817"
             height="410.53571" />
        </g>
      </g>
    </g>
    <text
       xml:space="preserve"
       style="font-size:18px;font-style:normal;font-variant:normal;font-weight:500;font-stretch:normal;text-align:start;line-height:125%;letter-spacing:0px;word-spacing:0px;writing-mode:lr-tb;text-anchor:start;fill:#000000;fill-opacity:1;stroke:none;font-family:Rekha;-inkscape-font-specification:Rekha Medium"
       x="-53.028358"
       y="866.04724"
       id="text4894"
       sodipodi:linespacing="125%"><tspan
         sodipodi:role="line"
         id="tspan4896"
         x="-53.028358"
         y="866.04724">T</tspan></text>
    <text
       xml:space="preserve"
       style="font-size:18px;font-style:normal;font-variant:normal;font-weight:500;font-stretch:normal;text-align:start;line-height:125%;letter-spacing:0px;word-spacing:0px;writing-mode:lr-tb;text-anchor:start;fill:#000000;fill-opacity:1;stroke:none;font-family:Rekha;-inkscape-font-specification:Rekha Medium"
       x="206.97165"
       y="866.04724"
       id="text4894-7"
       sodipodi:linespacing="125%"><tspan
         sodipodi:role="line"
         id="tspan4896-3"
         x="206.97165"
         y="866.04724">T</tspan></text>
    <text
       xml:space="preserve"
       style="font-size:18px;font-style:normal;font-variant:normal;font-weight:500;font-stretch:normal;text-align:start;line-height:125%;letter-spacing:0px;word-spacing:0px;writing-mode:lr-tb;text-anchor:start;fill:#000000;fill-opacity:1;stroke:none;font-family:Rekha;-inkscape-font-specification:Rekha Medium"
       x="336.97165"
       y="956.04724"
       id="text4919"
       sodipodi:linespacing="125%"><tspan
         sodipodi:role="line"
         id="tspan4921"
         x="336.97165"
         y="956.04724">N</tspan></text>
    <path
       style="fill:none;stroke:#000000;stroke-width:1px;stroke-linecap:butt;stroke-linejoin:miter;stroke-opacity:1;marker-end:url(#Arrow2Mend)"
       d="m 364.82878,947.47581 40,0"
       id="path4923"
       inkscape:connector-curvature="0" />
    <g
       transform="matrix(1.7528041,0,0,1.7528041,-380.68451,603.91189)"
       ns0:text="$exp \\left(-W_R^* \\over k_BT \\right)$"
       ns0:preamble=""
       id="g5162">
      <defs
         id="defs5164">
        <g
           id="g5166">
          <symbol
             style="overflow:visible"
             overflow="visible"
             id="textext-d45de56b-0">
            <path
               inkscape:connector-curvature="0"
               style="stroke:none"
               d=""
               id="path5169" />
          </symbol>
          <symbol
             style="overflow:visible"
             overflow="visible"
             id="textext-d45de56b-1">
            <path
               inkscape:connector-curvature="0"
               style="stroke:none"
               d="m 1.859375,-2.296875 c 0.296875,0 1.03125,-0.03125 1.53125,-0.234375 0.703125,-0.296875 0.75,-0.890625 0.75,-1.03125 0,-0.4375 -0.375,-0.84375 -1.0625,-0.84375 -1.109375,0 -2.625,0.96875 -2.625,2.71875 0,1.015625 0.59375,1.796875 1.578125,1.796875 1.421875,0 2.25,-1.0625 2.25,-1.171875 0,-0.0625 -0.046875,-0.140625 -0.109375,-0.140625 -0.0625,0 -0.078125,0.03125 -0.140625,0.109375 -0.78125,0.984375 -1.875,0.984375 -1.984375,0.984375 -0.78125,0 -0.875,-0.84375 -0.875,-1.15625 0,-0.125 0.015625,-0.421875 0.15625,-1.03125 z m -0.46875,-0.21875 C 1.78125,-4.03125 2.8125,-4.1875 3.078125,-4.1875 c 0.453125,0 0.734375,0.296875 0.734375,0.625 0,1.046875 -1.59375,1.046875 -2.015625,1.046875 z m 0,0"
               id="path5172" />
          </symbol>
          <symbol
             style="overflow:visible"
             overflow="visible"
             id="textext-d45de56b-2">
            <path
               inkscape:connector-curvature="0"
               style="stroke:none"
               d="M 3.328125,-3.015625 C 3.390625,-3.265625 3.625,-4.1875 4.3125,-4.1875 c 0.046875,0 0.296875,0 0.5,0.125 C 4.53125,-4 4.34375,-3.765625 4.34375,-3.515625 c 0,0.15625 0.109375,0.34375 0.375,0.34375 0.21875,0 0.53125,-0.171875 0.53125,-0.578125 0,-0.515625 -0.578125,-0.65625 -0.921875,-0.65625 -0.578125,0 -0.921875,0.53125 -1.046875,0.75 -0.25,-0.65625 -0.78125,-0.75 -1.078125,-0.75 -1.03125,0 -1.609375,1.28125 -1.609375,1.53125 0,0.109375 0.109375,0.109375 0.125,0.109375 0.078125,0 0.109375,-0.03125 0.125,-0.109375 0.34375,-1.0625 1,-1.3125 1.34375,-1.3125 0.1875,0 0.53125,0.09375 0.53125,0.671875 0,0.3125 -0.171875,0.96875 -0.53125,2.375 -0.15625,0.609375 -0.515625,1.03125 -0.953125,1.03125 -0.0625,0 -0.28125,0 -0.5,-0.125 0.25,-0.0625 0.46875,-0.265625 0.46875,-0.546875 0,-0.265625 -0.21875,-0.34375 -0.359375,-0.34375 -0.3125,0 -0.546875,0.25 -0.546875,0.578125 0,0.453125 0.484375,0.65625 0.921875,0.65625 0.671875,0 1.03125,-0.703125 1.046875,-0.75 0.125,0.359375 0.484375,0.75 1.078125,0.75 1.03125,0 1.59375,-1.28125 1.59375,-1.53125 0,-0.109375 -0.078125,-0.109375 -0.109375,-0.109375 -0.09375,0 -0.109375,0.046875 -0.140625,0.109375 -0.328125,1.078125 -1,1.3125 -1.3125,1.3125 -0.390625,0 -0.546875,-0.3125 -0.546875,-0.65625 0,-0.21875 0.046875,-0.4375 0.15625,-0.875 z m 0,0"
               id="path5175" />
          </symbol>
          <symbol
             style="overflow:visible"
             overflow="visible"
             id="textext-d45de56b-3">
            <path
               inkscape:connector-curvature="0"
               style="stroke:none"
               d="M 0.453125,1.21875 C 0.375,1.5625 0.34375,1.625 -0.09375,1.625 c -0.109375,0 -0.21875,0 -0.21875,0.1875 0,0.078125 0.046875,0.125 0.125,0.125 0.265625,0 0.5625,-0.03125 0.828125,-0.03125 0.34375,0 0.671875,0.03125 1,0.03125 0.046875,0 0.171875,0 0.171875,-0.203125 C 1.8125,1.625 1.71875,1.625 1.578125,1.625 c -0.5,0 -0.5,-0.0625 -0.5,-0.15625 0,-0.125 0.421875,-1.75 0.484375,-2 0.125,0.296875 0.40625,0.640625 0.921875,0.640625 1.15625,0 2.40625,-1.453125 2.40625,-2.921875 0,-0.9375 -0.578125,-1.59375 -1.328125,-1.59375 -0.5,0 -0.984375,0.359375 -1.3125,0.75 -0.09375,-0.546875 -0.53125,-0.75 -0.890625,-0.75 -0.46875,0 -0.65625,0.390625 -0.734375,0.5625 C 0.4375,-3.5 0.3125,-2.90625 0.3125,-2.875 c 0,0.109375 0.09375,0.109375 0.109375,0.109375 0.109375,0 0.109375,-0.015625 0.171875,-0.234375 0.171875,-0.703125 0.375,-1.1875 0.734375,-1.1875 0.171875,0 0.3125,0.078125 0.3125,0.453125 0,0.234375 -0.03125,0.34375 -0.078125,0.515625 z m 1.75,-4.328125 C 2.265625,-3.375 2.546875,-3.65625 2.71875,-3.8125 c 0.359375,-0.296875 0.640625,-0.375 0.8125,-0.375 0.390625,0 0.640625,0.34375 0.640625,0.9375 0,0.59375 -0.328125,1.734375 -0.515625,2.109375 -0.34375,0.703125 -0.8125,1.03125 -1.1875,1.03125 C 1.8125,-0.109375 1.6875,-0.9375 1.6875,-1 c 0,-0.015625 0,-0.03125 0.03125,-0.15625 z m 0,0"
               id="path5178" />
          </symbol>
          <symbol
             style="overflow:visible"
             overflow="visible"
             id="textext-d45de56b-4">
            <path
               inkscape:connector-curvature="0"
               style="stroke:none"
               d=""
               id="path5181" />
          </symbol>
          <symbol
             style="overflow:visible"
             overflow="visible"
             id="textext-d45de56b-5">
            <path
               inkscape:connector-curvature="0"
               style="stroke:none"
               d="M 5.140625,17.421875 C 5.15625,17.4375 5.25,17.53125 5.25,17.53125 l 0.21875,0 c 0.03125,0 0.109375,0 0.109375,-0.09375 0,-0.04687 -0.015625,-0.0625 -0.03125,-0.09375 -0.359375,-0.359375 -0.90625,-0.90625 -1.515625,-2 -1.078125,-1.921875 -1.484375,-4.375 -1.484375,-6.765625 0,-4.4375 1.265625,-7.03125 3,-8.796875 0.03125,-0.03125 0.03125,-0.0625 0.03125,-0.078125 0,-0.109375 -0.0625,-0.109375 -0.1875,-0.109375 -0.125,0 -0.140625,0 -0.234375,0.09375 C 4.203125,0.5 3.140625,1.890625 2.453125,3.984375 2.03125,5.296875 1.796875,6.90625 1.796875,8.5625 c 0,2.359375 0.421875,5.03125 1.984375,7.34375 0.28125,0.390625 0.640625,0.796875 0.640625,0.8125 C 4.53125,16.84375 4.671875,17 4.75,17.0625 z m 0,0"
               id="path5184" />
          </symbol>
          <symbol
             style="overflow:visible"
             overflow="visible"
             id="textext-d45de56b-6">
            <path
               inkscape:connector-curvature="0"
               style="stroke:none"
               d="m 4.140625,8.5625 c 0,-2.859375 -0.65625,-5.90625 -2.625,-8.140625 C 1.375,0.265625 1,-0.125 0.765625,-0.34375 c -0.0625,-0.0625 -0.09375,-0.0625 -0.21875,-0.0625 -0.09375,0 -0.1875,0 -0.1875,0.109375 0,0.03125 0.046875,0.078125 0.0625,0.09375 0.328125,0.359375 0.875,0.90625 1.484375,2 1.078125,1.90625 1.484375,4.375 1.484375,6.765625 0,4.328125 -1.203125,6.96875 -2.984375,8.796875 C 0.375,17.375 0.359375,17.40625 0.359375,17.4375 c 0,0.09375 0.09375,0.09375 0.1875,0.09375 0.125,0 0.15625,0 0.234375,-0.07813 0.953125,-0.8125 2.015625,-2.203125 2.703125,-4.296875 0.4375,-1.375 0.65625,-2.984375 0.65625,-4.59375 z m 0,0"
               id="path5187" />
          </symbol>
          <symbol
             style="overflow:visible"
             overflow="visible"
             id="textext-d45de56b-7">
            <path
               inkscape:connector-curvature="0"
               style="stroke:none"
               d=""
               id="path5190" />
          </symbol>
          <symbol
             style="overflow:visible"
             overflow="visible"
             id="textext-d45de56b-8">
            <path
               inkscape:connector-curvature="0"
               style="stroke:none"
               d="m 5.1875,-1.578125 c 0.109375,0 0.28125,0 0.28125,-0.15625 0,-0.1875 -0.171875,-0.1875 -0.28125,-0.1875 l -4.15625,0 c -0.109375,0 -0.28125,0 -0.28125,0.171875 0,0.171875 0.15625,0.171875 0.28125,0.171875 z m 0,0"
               id="path5193" />
          </symbol>
          <symbol
             style="overflow:visible"
             overflow="visible"
             id="textext-d45de56b-9">
            <path
               inkscape:connector-curvature="0"
               style="stroke:none"
               d=""
               id="path5196" />
          </symbol>
          <symbol
             style="overflow:visible"
             overflow="visible"
             id="textext-d45de56b-10">
            <path
               inkscape:connector-curvature="0"
               style="stroke:none"
               d="m 7.21875,-3.9375 0.125,-0.1875 C 7.484375,-4.3125 7.65625,-4.484375 8,-4.515625 c 0.078125,0 0.15625,0 0.15625,-0.140625 0,-0.046875 -0.03125,-0.109375 -0.09375,-0.109375 -0.15625,0 -0.359375,0.03125 -0.53125,0.03125 -0.234375,0 -0.546875,-0.03125 -0.765625,-0.03125 -0.046875,0 -0.15625,0 -0.15625,0.15625 0,0.09375 0.09375,0.09375 0.125,0.09375 0.15625,0.015625 0.390625,0.0625 0.390625,0.25 0,0.078125 -0.078125,0.203125 -0.109375,0.25 l -1.96875,3.234375 -0.375,-3.53125 c 0,-0.1875 0.40625,-0.203125 0.484375,-0.203125 0.09375,0 0.1875,0 0.1875,-0.140625 0,-0.015625 0,-0.109375 -0.125,-0.109375 -0.125,0 -0.296875,0.015625 -0.421875,0.03125 -0.140625,0 -0.328125,0 -0.46875,0 -0.15625,0 -0.5625,-0.03125 -0.71875,-0.03125 -0.046875,0 -0.140625,0 -0.140625,0.15625 0,0.09375 0.078125,0.09375 0.171875,0.09375 0.296875,0 0.34375,0.0625 0.359375,0.125 0,0.046875 0.015625,0.234375 0.046875,0.453125 L 2.125,-0.78125 1.765625,-4.203125 C 1.765625,-4.234375 1.75,-4.296875 1.75,-4.3125 c 0,-0.203125 0.4375,-0.203125 0.484375,-0.203125 0.09375,0 0.1875,0 0.1875,-0.140625 0,-0.03125 -0.015625,-0.109375 -0.109375,-0.109375 -0.203125,0 -0.703125,0.03125 -0.890625,0.03125 -0.234375,0 -0.53125,-0.03125 -0.734375,-0.03125 -0.078125,0 -0.140625,0.03125 -0.140625,0.15625 0,0.09375 0.078125,0.09375 0.1875,0.09375 0.328125,0 0.328125,0.046875 0.359375,0.21875 l 0.453125,4.25 c 0.015625,0.140625 0.03125,0.1875 0.15625,0.1875 C 1.8125,0.140625 1.875,0.078125 1.90625,0 l 2.171875,-3.578125 0.390625,3.53125 c 0.015625,0.15625 0.046875,0.1875 0.15625,0.1875 0.109375,0 0.15625,-0.0625 0.203125,-0.140625 z m 0,0"
               id="path5199" />
          </symbol>
          <symbol
             style="overflow:visible"
             overflow="visible"
             id="textext-d45de56b-11">
            <path
               inkscape:connector-curvature="0"
               style="stroke:none"
               d="m 2.1875,-4.625 c 0,-0.015625 0.015625,-0.109375 0.015625,-0.109375 0,-0.046875 -0.015625,-0.109375 -0.109375,-0.109375 -0.140625,0 -0.71875,0.0625 -0.890625,0.078125 -0.046875,0 -0.15625,0.015625 -0.15625,0.15625 0,0.09375 0.109375,0.09375 0.1875,0.09375 0.328125,0 0.328125,0.0625 0.328125,0.109375 0,0.046875 -0.015625,0.09375 -0.015625,0.15625 L 0.5625,-0.3125 c -0.046875,0.125 -0.046875,0.140625 -0.046875,0.15625 0,0.109375 0.09375,0.21875 0.25,0.21875 0.1875,0 0.265625,-0.125 0.3125,-0.28125 0.015625,-0.03125 0.3125,-1.265625 0.34375,-1.359375 0.5,0.046875 0.890625,0.21875 0.890625,0.578125 0,0.03125 0,0.0625 -0.015625,0.140625 -0.03125,0.09375 -0.03125,0.140625 -0.03125,0.21875 0,0.484375 0.40625,0.703125 0.75,0.703125 0.671875,0 0.875,-1.046875 0.875,-1.0625 0,-0.09375 -0.078125,-0.09375 -0.109375,-0.09375 -0.09375,0 -0.109375,0.046875 -0.140625,0.171875 C 3.5625,-0.625 3.375,-0.125 3.03125,-0.125 c -0.1875,0 -0.25,-0.171875 -0.25,-0.359375 0,-0.125 0,-0.140625 0.046875,-0.3125 0.015625,-0.03125 0.03125,-0.140625 0.03125,-0.21875 0,-0.625 -0.828125,-0.71875 -1.125,-0.734375 C 1.9375,-1.875 2.1875,-2.109375 2.3125,-2.21875 2.671875,-2.546875 3.015625,-2.875 3.40625,-2.875 c 0.078125,0 0.171875,0.015625 0.234375,0.09375 C 3.34375,-2.734375 3.28125,-2.5 3.28125,-2.390625 c 0,0.140625 0.109375,0.25 0.265625,0.25 0.203125,0 0.40625,-0.15625 0.40625,-0.4375 0,-0.234375 -0.171875,-0.5 -0.53125,-0.5 -0.40625,0 -0.765625,0.296875 -1.125,0.625 C 2,-2.1875 1.78125,-1.96875 1.484375,-1.84375 z m 0,0"
               id="path5202" />
          </symbol>
          <symbol
             style="overflow:visible"
             overflow="visible"
             id="textext-d45de56b-12">
            <path
               inkscape:connector-curvature="0"
               style="stroke:none"
               d="m 3.390625,-4.21875 c 0.046875,-0.203125 0.0625,-0.21875 0.21875,-0.234375 0.03125,0 0.265625,0 0.40625,0 0.4375,0 0.609375,0 0.78125,0.046875 0.3125,0.09375 0.328125,0.296875 0.328125,0.546875 0,0.109375 0,0.203125 -0.046875,0.5625 L 5.0625,-3.21875 c 0,0.078125 0.046875,0.109375 0.125,0.109375 0.109375,0 0.109375,-0.0625 0.125,-0.171875 L 5.5,-4.609375 c 0,-0.09375 -0.078125,-0.09375 -0.203125,-0.09375 l -4.28125,0 c -0.171875,0 -0.1875,0 -0.234375,0.140625 l -0.453125,1.234375 c 0,0.03125 -0.03125,0.09375 -0.03125,0.125 0,0.03125 0.015625,0.09375 0.125,0.09375 0.09375,0 0.09375,-0.03125 0.140625,-0.171875 0.40625,-1.109375 0.640625,-1.171875 1.703125,-1.171875 l 0.28125,0 c 0.21875,0 0.21875,0 0.21875,0.0625 0,0 0,0.046875 -0.03125,0.140625 L 1.8125,-0.578125 C 1.75,-0.328125 1.734375,-0.25 1,-0.25 c -0.25,0 -0.3125,0 -0.3125,0.15625 C 0.6875,-0.078125 0.703125,0 0.8125,0 1,0 1.21875,-0.015625 1.40625,-0.015625 1.609375,-0.015625 1.8125,-0.03125 2,-0.03125 c 0.203125,0 0.4375,0 0.640625,0.015625 C 2.828125,-0.015625 3.03125,0 3.21875,0 3.28125,0 3.375,0 3.375,-0.15625 3.375,-0.25 3.3125,-0.25 3.09375,-0.25 c -0.125,0 -0.265625,-0.015625 -0.40625,-0.015625 -0.234375,-0.015625 -0.25,-0.046875 -0.25,-0.125 0,-0.0625 0,-0.0625 0.03125,-0.171875 z m 0,0"
               id="path5205" />
          </symbol>
          <symbol
             style="overflow:visible"
             overflow="visible"
             id="textext-d45de56b-13">
            <path
               inkscape:connector-curvature="0"
               style="stroke:none"
               d=""
               id="path5208" />
          </symbol>
          <symbol
             style="overflow:visible"
             overflow="visible"
             id="textext-d45de56b-14">
            <path
               inkscape:connector-curvature="0"
               style="stroke:none"
               d="m 1.921875,-1.375 c 0,-0.09375 0.09375,-0.734375 0.09375,-0.78125 0,-0.09375 -0.078125,-0.15625 -0.1875,-0.15625 -0.09375,0 -0.171875,0.078125 -0.171875,0.15625 0,0.046875 0.078125,0.671875 0.09375,0.78125 L 0.984375,-1.84375 c -0.0625,-0.03125 -0.078125,-0.046875 -0.125,-0.046875 -0.078125,0 -0.171875,0.078125 -0.171875,0.1875 0,0.078125 0.0625,0.140625 0.109375,0.15625 0.28125,0.109375 0.5625,0.203125 0.84375,0.296875 -0.28125,0.109375 -0.75,0.265625 -0.828125,0.3125 -0.03125,0.015625 -0.125,0.046875 -0.125,0.15625 0,0.109375 0.09375,0.171875 0.171875,0.171875 0.0625,0 0.21875,-0.09375 0.890625,-0.5 C 1.734375,-1 1.65625,-0.375 1.65625,-0.328125 c 0,0.078125 0.078125,0.15625 0.171875,0.15625 0.109375,0 0.1875,-0.0625 0.1875,-0.15625 0,-0.046875 -0.09375,-0.6875 -0.09375,-0.78125 l 0.78125,0.46875 c 0.03125,0.015625 0.0625,0.03125 0.109375,0.03125 0.078125,0 0.15625,-0.0625 0.15625,-0.171875 C 2.96875,-0.875 2.921875,-0.921875 2.875,-0.9375 2.59375,-1.046875 2.3125,-1.140625 2.03125,-1.234375 2.3125,-1.34375 2.765625,-1.515625 2.859375,-1.546875 2.890625,-1.5625 2.96875,-1.59375 2.96875,-1.703125 c 0,-0.109375 -0.078125,-0.1875 -0.15625,-0.1875 -0.046875,0 -0.078125,0.015625 -0.125,0.046875 z m 0,0"
               id="path5211" />
          </symbol>
          <symbol
             style="overflow:visible"
             overflow="visible"
             id="textext-d45de56b-15">
            <path
               inkscape:connector-curvature="0"
               style="stroke:none"
               d=""
               id="path5214" />
          </symbol>
          <symbol
             style="overflow:visible"
             overflow="visible"
             id="textext-d45de56b-16">
            <path
               inkscape:connector-curvature="0"
               style="stroke:none"
               d="M 2.375,-3.015625 C 2.421875,-3.171875 2.421875,-3.1875 2.625,-3.1875 l 0.5625,0 c 0.5625,0 0.9375,0.140625 0.9375,0.53125 C 4.125,-2.4375 4,-2.15625 3.765625,-2 3.71875,-1.96875 3.4375,-1.796875 2.84375,-1.796875 l -0.78125,0 z m 1.171875,1.3125 C 4.109375,-1.84375 4.6875,-2.15625 4.6875,-2.609375 4.6875,-3.0625 4.078125,-3.40625 3.296875,-3.40625 l -1.734375,0 c -0.09375,0 -0.171875,0 -0.171875,0.140625 0,0.078125 0.0625,0.078125 0.1875,0.078125 0.046875,0 0.21875,0 0.3125,0.03125 0,0.0625 0,0.078125 -0.015625,0.125 l -0.65625,2.625 c -0.03125,0.140625 -0.03125,0.1875 -0.421875,0.1875 -0.125,0 -0.203125,0 -0.203125,0.140625 C 0.59375,-0.046875 0.625,0 0.6875,0 c 0.09375,0 0.21875,-0.015625 0.328125,-0.015625 0.125,0 0.234375,0 0.359375,0 0.125,0 0.25,0 0.375,0 C 1.859375,-0.015625 1.984375,0 2.078125,0 c 0.03125,0 0.125,0 0.125,-0.140625 0,-0.078125 -0.0625,-0.078125 -0.15625,-0.078125 -0.015625,0 -0.140625,0 -0.21875,-0.015625 -0.125,-0.015625 -0.125,-0.015625 -0.125,-0.0625 0,0 0,-0.015625 0.015625,-0.0625 l 0.3125,-1.265625 0.78125,0 c 0.375,0 0.71875,0.140625 0.71875,0.4375 0,0.0625 -0.046875,0.234375 -0.078125,0.34375 -0.03125,0.125 -0.0625,0.296875 -0.0625,0.390625 0,0.46875 0.5,0.5625 0.8125,0.5625 0.5,0 0.734375,-0.484375 0.734375,-0.59375 C 4.9375,-0.5625 4.859375,-0.5625 4.828125,-0.5625 4.75,-0.5625 4.75,-0.53125 4.71875,-0.46875 c -0.078125,0.25 -0.296875,0.40625 -0.484375,0.40625 -0.125,0 -0.265625,-0.03125 -0.265625,-0.359375 C 3.96875,-0.53125 4,-0.8125 4.015625,-0.9375 4.03125,-1.078125 4.03125,-1.09375 4.03125,-1.125 c 0,-0.390625 -0.328125,-0.515625 -0.484375,-0.578125 z m 0,0"
               id="path5217" />
          </symbol>
          <symbol
             style="overflow:visible"
             overflow="visible"
             id="textext-d45de56b-17">
            <path
               inkscape:connector-curvature="0"
               style="stroke:none"
               d="m 1.234375,-0.40625 c -0.03125,0.140625 -0.046875,0.1875 -0.421875,0.1875 -0.125,0 -0.203125,0 -0.203125,0.140625 C 0.609375,0 0.6875,0 0.765625,0 L 2.9375,0 c 0.890625,0 1.625,-0.5625 1.625,-1.0625 0,-0.296875 -0.296875,-0.640625 -0.96875,-0.71875 0.5,-0.0625 1.203125,-0.390625 1.203125,-0.890625 0,-0.421875 -0.5,-0.734375 -1.171875,-0.734375 l -2.046875,0 c -0.09375,0 -0.171875,0 -0.171875,0.140625 0,0.078125 0.0625,0.078125 0.171875,0.078125 0.0625,0 0.21875,0 0.328125,0.03125 0,0.0625 0,0.078125 -0.015625,0.125 z M 2.078125,-1.859375 2.375,-3.015625 C 2.40625,-3.171875 2.40625,-3.1875 2.609375,-3.1875 l 0.921875,0 c 0.484375,0 0.71875,0.265625 0.71875,0.53125 0,0.390625 -0.53125,0.796875 -1.234375,0.796875 z M 1.84375,-0.21875 c -0.046875,0 -0.109375,0 -0.15625,-0.015625 0,-0.046875 0,-0.046875 0,-0.09375 l 0.34375,-1.359375 1.21875,0 c 0.515625,0 0.765625,0.296875 0.765625,0.609375 0,0.484375 -0.59375,0.859375 -1.21875,0.859375 z m 0,0"
               id="path5220" />
          </symbol>
        </g>
      </defs>
      <g
         id="textext-d45de56b-18">
        <g
           style="fill:#000000;fill-opacity:1"
           id="g5223">
          <use
             height="410.53571"
             width="666.37817"
             xlink:href="#textext-d45de56b-1"
             x="223.43201"
             y="136.259"
             id="use5225" />
          <use
             height="410.53571"
             width="666.37817"
             xlink:href="#textext-d45de56b-2"
             x="228.07059"
             y="136.259"
             id="use5227" />
          <use
             height="410.53571"
             width="666.37817"
             xlink:href="#textext-d45de56b-3"
             x="233.76421"
             y="136.259"
             id="use5229" />
        </g>
        <g
           style="fill:#000000;fill-opacity:1"
           id="g5231">
          <use
             height="410.53571"
             width="666.37817"
             xlink:href="#textext-d45de56b-5"
             x="240.438"
             y="125.2"
             id="use5233" />
        </g>
        <g
           style="fill:#000000;fill-opacity:1"
           id="g5235">
          <use
             height="410.53571"
             width="666.37817"
             xlink:href="#textext-d45de56b-8"
             x="247.58299"
             y="131.17799"
             id="use5237" />
        </g>
        <g
           style="fill:#000000;fill-opacity:1"
           id="g5239">
          <use
             height="410.53571"
             width="666.37817"
             xlink:href="#textext-d45de56b-10"
             x="253.81"
             y="131.17799"
             id="use5241" />
        </g>
        <g
           style="fill:#000000;fill-opacity:1"
           id="g5243">
          <use
             height="410.53571"
             width="666.37817"
             xlink:href="#textext-d45de56b-14"
             x="262.375"
             y="128.172"
             id="use5245" />
        </g>
        <g
           style="fill:#000000;fill-opacity:1"
           id="g5247">
          <use
             height="410.53571"
             width="666.37817"
             xlink:href="#textext-d45de56b-16"
             x="261.30301"
             y="133.17101"
             id="use5249" />
        </g>
        <path
           inkscape:connector-curvature="0"
           style="fill:none;stroke:#000000;stroke-width:0.398;stroke-linecap:butt;stroke-linejoin:miter;stroke-miterlimit:10;stroke-opacity:1"
           d="m -9.6875e-4,-0.00153125 19.35546875,0"
           transform="matrix(1,0,0,-1,247.583,133.768)"
           id="path5251" />
        <g
           style="fill:#000000;fill-opacity:1"
           id="g5253">
          <use
             height="410.53571"
             width="666.37817"
             xlink:href="#textext-d45de56b-11"
             x="249.30701"
             y="139.69501"
             id="use5255" />
        </g>
        <g
           style="fill:#000000;fill-opacity:1"
           id="g5257">
          <use
             height="410.53571"
             width="666.37817"
             xlink:href="#textext-d45de56b-17"
             x="253.54201"
             y="140.696"
             id="use5259" />
        </g>
        <g
           style="fill:#000000;fill-opacity:1"
           id="g5261">
          <use
             height="410.53571"
             width="666.37817"
             xlink:href="#textext-d45de56b-12"
             x="259.43799"
             y="139.69501"
             id="use5263" />
        </g>
        <g
           style="fill:#000000;fill-opacity:1"
           id="g5265">
          <use
             height="410.53571"
             width="666.37817"
             xlink:href="#textext-d45de56b-6"
             x="268.13501"
             y="125.2"
             id="use5267" />
        </g>
      </g>
    </g>
    <g
       id="g5699"
       transform="matrix(1.7528041,0,0,1.7528041,-294.25594,659.62618)"
       ns0:preamble=""
       ns0:text="$exp \\left(-\\Delta G_d \\over k_BT \\right)$">
      <defs
         id="defs5701">
        <g
           id="g5703">
          <symbol
             id="textext-0a4937f4-0"
             overflow="visible"
             style="overflow:visible">
            <path
               id="path5706"
               d=""
               style="stroke:none"
               inkscape:connector-curvature="0" />
          </symbol>
          <symbol
             id="textext-0a4937f4-1"
             overflow="visible"
             style="overflow:visible">
            <path
               id="path5709"
               d="m 1.859375,-2.296875 c 0.296875,0 1.03125,-0.03125 1.53125,-0.234375 0.703125,-0.296875 0.75,-0.890625 0.75,-1.03125 0,-0.4375 -0.375,-0.84375 -1.0625,-0.84375 -1.109375,0 -2.625,0.96875 -2.625,2.71875 0,1.015625 0.59375,1.796875 1.578125,1.796875 1.421875,0 2.25,-1.0625 2.25,-1.171875 0,-0.0625 -0.046875,-0.140625 -0.109375,-0.140625 -0.0625,0 -0.078125,0.03125 -0.140625,0.109375 -0.78125,0.984375 -1.875,0.984375 -1.984375,0.984375 -0.78125,0 -0.875,-0.84375 -0.875,-1.15625 0,-0.125 0.015625,-0.421875 0.15625,-1.03125 z m -0.46875,-0.21875 C 1.78125,-4.03125 2.8125,-4.1875 3.078125,-4.1875 c 0.453125,0 0.734375,0.296875 0.734375,0.625 0,1.046875 -1.59375,1.046875 -2.015625,1.046875 z m 0,0"
               style="stroke:none"
               inkscape:connector-curvature="0" />
          </symbol>
          <symbol
             id="textext-0a4937f4-2"
             overflow="visible"
             style="overflow:visible">
            <path
               id="path5712"
               d="M 3.328125,-3.015625 C 3.390625,-3.265625 3.625,-4.1875 4.3125,-4.1875 c 0.046875,0 0.296875,0 0.5,0.125 C 4.53125,-4 4.34375,-3.765625 4.34375,-3.515625 c 0,0.15625 0.109375,0.34375 0.375,0.34375 0.21875,0 0.53125,-0.171875 0.53125,-0.578125 0,-0.515625 -0.578125,-0.65625 -0.921875,-0.65625 -0.578125,0 -0.921875,0.53125 -1.046875,0.75 -0.25,-0.65625 -0.78125,-0.75 -1.078125,-0.75 -1.03125,0 -1.609375,1.28125 -1.609375,1.53125 0,0.109375 0.109375,0.109375 0.125,0.109375 0.078125,0 0.109375,-0.03125 0.125,-0.109375 0.34375,-1.0625 1,-1.3125 1.34375,-1.3125 0.1875,0 0.53125,0.09375 0.53125,0.671875 0,0.3125 -0.171875,0.96875 -0.53125,2.375 -0.15625,0.609375 -0.515625,1.03125 -0.953125,1.03125 -0.0625,0 -0.28125,0 -0.5,-0.125 0.25,-0.0625 0.46875,-0.265625 0.46875,-0.546875 0,-0.265625 -0.21875,-0.34375 -0.359375,-0.34375 -0.3125,0 -0.546875,0.25 -0.546875,0.578125 0,0.453125 0.484375,0.65625 0.921875,0.65625 0.671875,0 1.03125,-0.703125 1.046875,-0.75 0.125,0.359375 0.484375,0.75 1.078125,0.75 1.03125,0 1.59375,-1.28125 1.59375,-1.53125 0,-0.109375 -0.078125,-0.109375 -0.109375,-0.109375 -0.09375,0 -0.109375,0.046875 -0.140625,0.109375 -0.328125,1.078125 -1,1.3125 -1.3125,1.3125 -0.390625,0 -0.546875,-0.3125 -0.546875,-0.65625 0,-0.21875 0.046875,-0.4375 0.15625,-0.875 z m 0,0"
               style="stroke:none"
               inkscape:connector-curvature="0" />
          </symbol>
          <symbol
             id="textext-0a4937f4-3"
             overflow="visible"
             style="overflow:visible">
            <path
               id="path5715"
               d="M 0.453125,1.21875 C 0.375,1.5625 0.34375,1.625 -0.09375,1.625 c -0.109375,0 -0.21875,0 -0.21875,0.1875 0,0.078125 0.046875,0.125 0.125,0.125 0.265625,0 0.5625,-0.03125 0.828125,-0.03125 0.34375,0 0.671875,0.03125 1,0.03125 0.046875,0 0.171875,0 0.171875,-0.203125 C 1.8125,1.625 1.71875,1.625 1.578125,1.625 c -0.5,0 -0.5,-0.0625 -0.5,-0.15625 0,-0.125 0.421875,-1.75 0.484375,-2 0.125,0.296875 0.40625,0.640625 0.921875,0.640625 1.15625,0 2.40625,-1.453125 2.40625,-2.921875 0,-0.9375 -0.578125,-1.59375 -1.328125,-1.59375 -0.5,0 -0.984375,0.359375 -1.3125,0.75 -0.09375,-0.546875 -0.53125,-0.75 -0.890625,-0.75 -0.46875,0 -0.65625,0.390625 -0.734375,0.5625 C 0.4375,-3.5 0.3125,-2.90625 0.3125,-2.875 c 0,0.109375 0.09375,0.109375 0.109375,0.109375 0.109375,0 0.109375,-0.015625 0.171875,-0.234375 0.171875,-0.703125 0.375,-1.1875 0.734375,-1.1875 0.171875,0 0.3125,0.078125 0.3125,0.453125 0,0.234375 -0.03125,0.34375 -0.078125,0.515625 z m 1.75,-4.328125 C 2.265625,-3.375 2.546875,-3.65625 2.71875,-3.8125 c 0.359375,-0.296875 0.640625,-0.375 0.8125,-0.375 0.390625,0 0.640625,0.34375 0.640625,0.9375 0,0.59375 -0.328125,1.734375 -0.515625,2.109375 -0.34375,0.703125 -0.8125,1.03125 -1.1875,1.03125 C 1.8125,-0.109375 1.6875,-0.9375 1.6875,-1 c 0,-0.015625 0,-0.03125 0.03125,-0.15625 z m 0,0"
               style="stroke:none"
               inkscape:connector-curvature="0" />
          </symbol>
          <symbol
             id="textext-0a4937f4-4"
             overflow="visible"
             style="overflow:visible">
            <path
               id="path5718"
               d=""
               style="stroke:none"
               inkscape:connector-curvature="0" />
          </symbol>
          <symbol
             id="textext-0a4937f4-5"
             overflow="visible"
             style="overflow:visible">
            <path
               id="path5721"
               d="M 5.140625,17.421875 C 5.15625,17.4375 5.25,17.53125 5.25,17.53125 l 0.21875,0 c 0.03125,0 0.109375,0 0.109375,-0.09375 0,-0.04687 -0.015625,-0.0625 -0.03125,-0.09375 -0.359375,-0.359375 -0.90625,-0.90625 -1.515625,-2 -1.078125,-1.921875 -1.484375,-4.375 -1.484375,-6.765625 0,-4.4375 1.265625,-7.03125 3,-8.796875 0.03125,-0.03125 0.03125,-0.0625 0.03125,-0.078125 0,-0.109375 -0.0625,-0.109375 -0.1875,-0.109375 -0.125,0 -0.140625,0 -0.234375,0.09375 C 4.203125,0.5 3.140625,1.890625 2.453125,3.984375 2.03125,5.296875 1.796875,6.90625 1.796875,8.5625 c 0,2.359375 0.421875,5.03125 1.984375,7.34375 0.28125,0.390625 0.640625,0.796875 0.640625,0.8125 C 4.53125,16.84375 4.671875,17 4.75,17.0625 z m 0,0"
               style="stroke:none"
               inkscape:connector-curvature="0" />
          </symbol>
          <symbol
             id="textext-0a4937f4-6"
             overflow="visible"
             style="overflow:visible">
            <path
               id="path5724"
               d="m 4.140625,8.5625 c 0,-2.859375 -0.65625,-5.90625 -2.625,-8.140625 C 1.375,0.265625 1,-0.125 0.765625,-0.34375 c -0.0625,-0.0625 -0.09375,-0.0625 -0.21875,-0.0625 -0.09375,0 -0.1875,0 -0.1875,0.109375 0,0.03125 0.046875,0.078125 0.0625,0.09375 0.328125,0.359375 0.875,0.90625 1.484375,2 1.078125,1.90625 1.484375,4.375 1.484375,6.765625 0,4.328125 -1.203125,6.96875 -2.984375,8.796875 C 0.375,17.375 0.359375,17.40625 0.359375,17.4375 c 0,0.09375 0.09375,0.09375 0.1875,0.09375 0.125,0 0.15625,0 0.234375,-0.07813 0.953125,-0.8125 2.015625,-2.203125 2.703125,-4.296875 0.4375,-1.375 0.65625,-2.984375 0.65625,-4.59375 z m 0,0"
               style="stroke:none"
               inkscape:connector-curvature="0" />
          </symbol>
          <symbol
             id="textext-0a4937f4-7"
             overflow="visible"
             style="overflow:visible">
            <path
               id="path5727"
               d=""
               style="stroke:none"
               inkscape:connector-curvature="0" />
          </symbol>
          <symbol
             id="textext-0a4937f4-8"
             overflow="visible"
             style="overflow:visible">
            <path
               id="path5730"
               d="m 5.1875,-1.578125 c 0.109375,0 0.28125,0 0.28125,-0.15625 0,-0.1875 -0.171875,-0.1875 -0.28125,-0.1875 l -4.15625,0 c -0.109375,0 -0.28125,0 -0.28125,0.171875 0,0.171875 0.15625,0.171875 0.28125,0.171875 z m 0,0"
               style="stroke:none"
               inkscape:connector-curvature="0" />
          </symbol>
          <symbol
             id="textext-0a4937f4-9"
             overflow="visible"
             style="overflow:visible">
            <path
               id="path5733"
               d=""
               style="stroke:none"
               inkscape:connector-curvature="0" />
          </symbol>
          <symbol
             id="textext-0a4937f4-10"
             overflow="visible"
             style="overflow:visible">
            <path
               id="path5736"
               d="m 3.484375,-4.8125 c -0.0625,-0.125 -0.078125,-0.15625 -0.21875,-0.15625 -0.09375,0 -0.15625,0.015625 -0.21875,0.125 L 0.46875,-0.171875 C 0.421875,-0.09375 0.421875,-0.078125 0.421875,-0.0625 0.421875,0 0.484375,0 0.59375,0 L 5.9375,0 c 0.109375,0 0.171875,0 0.171875,-0.0625 0,-0.015625 0,-0.03125 -0.046875,-0.109375 z m -0.453125,0.53125 2.046875,3.703125 -4.09375,0 z m 0,0"
               style="stroke:none"
               inkscape:connector-curvature="0" />
          </symbol>
          <symbol
             id="textext-0a4937f4-11"
             overflow="visible"
             style="overflow:visible">
            <path
               id="path5739"
               d=""
               style="stroke:none"
               inkscape:connector-curvature="0" />
          </symbol>
          <symbol
             id="textext-0a4937f4-12"
             overflow="visible"
             style="overflow:visible">
            <path
               id="path5742"
               d="m 5.875,-4.8125 c 0,-0.03125 -0.015625,-0.09375 -0.09375,-0.09375 -0.046875,0 -0.0625,0.015625 -0.125,0.09375 l -0.5,0.53125 c -0.0625,-0.078125 -0.453125,-0.625 -1.3125,-0.625 -1.703125,0 -3.359375,1.5 -3.359375,3.078125 0,1.078125 0.828125,1.96875 2.15625,1.96875 0.625,0 1.265625,-0.15625 1.625,-0.546875 C 4.34375,-0.265625 4.53125,0 4.609375,0 4.671875,0 4.6875,-0.03125 4.71875,-0.1875 l 0.140625,-0.53125 c 0.03125,-0.125 0.125,-0.546875 0.15625,-0.625 0.078125,-0.3125 0.078125,-0.328125 0.5,-0.328125 0.046875,0 0.15625,0 0.15625,-0.140625 0,-0.078125 -0.0625,-0.109375 -0.109375,-0.109375 -0.234375,0 -0.53125,0.03125 -0.765625,0.03125 -0.171875,0 -0.40625,0 -0.578125,-0.015625 -0.171875,0 -0.375,-0.015625 -0.546875,-0.015625 -0.0625,0 -0.15625,0 -0.15625,0.15625 0,0.09375 0.078125,0.09375 0.25,0.09375 0.125,0 0.265625,0 0.40625,0.015625 0.21875,0.015625 0.21875,0.046875 0.21875,0.125 0,0.03125 0,0.046875 -0.046875,0.234375 -0.046875,0.1875 -0.125,0.5 -0.15625,0.578125 C 4,-0.296875 3.34375,-0.109375 2.796875,-0.109375 c -0.6875,0 -1.609375,-0.34375 -1.609375,-1.515625 0,-0.75 0.359375,-1.671875 0.875,-2.203125 0.71875,-0.703125 1.453125,-0.8125 1.84375,-0.8125 0.8125,0 1.28125,0.578125 1.28125,1.359375 0,0.1875 -0.015625,0.25 -0.015625,0.28125 0,0.09375 0.09375,0.09375 0.125,0.09375 0.109375,0 0.109375,-0.015625 0.140625,-0.15625 z m 0,0"
               style="stroke:none"
               inkscape:connector-curvature="0" />
          </symbol>
          <symbol
             id="textext-0a4937f4-13"
             overflow="visible"
             style="overflow:visible">
            <path
               id="path5745"
               d="m 2.1875,-4.625 c 0,-0.015625 0.015625,-0.109375 0.015625,-0.109375 0,-0.046875 -0.015625,-0.109375 -0.109375,-0.109375 -0.140625,0 -0.71875,0.0625 -0.890625,0.078125 -0.046875,0 -0.15625,0.015625 -0.15625,0.15625 0,0.09375 0.109375,0.09375 0.1875,0.09375 0.328125,0 0.328125,0.0625 0.328125,0.109375 0,0.046875 -0.015625,0.09375 -0.015625,0.15625 L 0.5625,-0.3125 c -0.046875,0.125 -0.046875,0.140625 -0.046875,0.15625 0,0.109375 0.09375,0.21875 0.25,0.21875 0.1875,0 0.265625,-0.125 0.3125,-0.28125 0.015625,-0.03125 0.3125,-1.265625 0.34375,-1.359375 0.5,0.046875 0.890625,0.21875 0.890625,0.578125 0,0.03125 0,0.0625 -0.015625,0.140625 -0.03125,0.09375 -0.03125,0.140625 -0.03125,0.21875 0,0.484375 0.40625,0.703125 0.75,0.703125 0.671875,0 0.875,-1.046875 0.875,-1.0625 0,-0.09375 -0.078125,-0.09375 -0.109375,-0.09375 -0.09375,0 -0.109375,0.046875 -0.140625,0.171875 C 3.5625,-0.625 3.375,-0.125 3.03125,-0.125 c -0.1875,0 -0.25,-0.171875 -0.25,-0.359375 0,-0.125 0,-0.140625 0.046875,-0.3125 0.015625,-0.03125 0.03125,-0.140625 0.03125,-0.21875 0,-0.625 -0.828125,-0.71875 -1.125,-0.734375 C 1.9375,-1.875 2.1875,-2.109375 2.3125,-2.21875 2.671875,-2.546875 3.015625,-2.875 3.40625,-2.875 c 0.078125,0 0.171875,0.015625 0.234375,0.09375 C 3.34375,-2.734375 3.28125,-2.5 3.28125,-2.390625 c 0,0.140625 0.109375,0.25 0.265625,0.25 0.203125,0 0.40625,-0.15625 0.40625,-0.4375 0,-0.234375 -0.171875,-0.5 -0.53125,-0.5 -0.40625,0 -0.765625,0.296875 -1.125,0.625 C 2,-2.1875 1.78125,-1.96875 1.484375,-1.84375 z m 0,0"
               style="stroke:none"
               inkscape:connector-curvature="0" />
          </symbol>
          <symbol
             id="textext-0a4937f4-14"
             overflow="visible"
             style="overflow:visible">
            <path
               id="path5748"
               d="m 3.390625,-4.21875 c 0.046875,-0.203125 0.0625,-0.21875 0.21875,-0.234375 0.03125,0 0.265625,0 0.40625,0 0.4375,0 0.609375,0 0.78125,0.046875 0.3125,0.09375 0.328125,0.296875 0.328125,0.546875 0,0.109375 0,0.203125 -0.046875,0.5625 L 5.0625,-3.21875 c 0,0.078125 0.046875,0.109375 0.125,0.109375 0.109375,0 0.109375,-0.0625 0.125,-0.171875 L 5.5,-4.609375 c 0,-0.09375 -0.078125,-0.09375 -0.203125,-0.09375 l -4.28125,0 c -0.171875,0 -0.1875,0 -0.234375,0.140625 l -0.453125,1.234375 c 0,0.03125 -0.03125,0.09375 -0.03125,0.125 0,0.03125 0.015625,0.09375 0.125,0.09375 0.09375,0 0.09375,-0.03125 0.140625,-0.171875 0.40625,-1.109375 0.640625,-1.171875 1.703125,-1.171875 l 0.28125,0 c 0.21875,0 0.21875,0 0.21875,0.0625 0,0 0,0.046875 -0.03125,0.140625 L 1.8125,-0.578125 C 1.75,-0.328125 1.734375,-0.25 1,-0.25 c -0.25,0 -0.3125,0 -0.3125,0.15625 C 0.6875,-0.078125 0.703125,0 0.8125,0 1,0 1.21875,-0.015625 1.40625,-0.015625 1.609375,-0.015625 1.8125,-0.03125 2,-0.03125 c 0.203125,0 0.4375,0 0.640625,0.015625 C 2.828125,-0.015625 3.03125,0 3.21875,0 3.28125,0 3.375,0 3.375,-0.15625 3.375,-0.25 3.3125,-0.25 3.09375,-0.25 c -0.125,0 -0.265625,-0.015625 -0.40625,-0.015625 -0.234375,-0.015625 -0.25,-0.046875 -0.25,-0.125 0,-0.0625 0,-0.0625 0.03125,-0.171875 z m 0,0"
               style="stroke:none"
               inkscape:connector-curvature="0" />
          </symbol>
          <symbol
             id="textext-0a4937f4-15"
             overflow="visible"
             style="overflow:visible">
            <path
               id="path5751"
               d=""
               style="stroke:none"
               inkscape:connector-curvature="0" />
          </symbol>
          <symbol
             id="textext-0a4937f4-16"
             overflow="visible"
             style="overflow:visible">
            <path
               id="path5754"
               d="M 3.296875,-3.265625 C 3.3125,-3.34375 3.3125,-3.34375 3.3125,-3.375 3.3125,-3.453125 3.25,-3.453125 3.171875,-3.453125 l -0.625,0.046875 c -0.078125,0 -0.09375,0 -0.109375,0.03125 -0.03125,0.015625 -0.046875,0.078125 -0.046875,0.109375 0,0.078125 0.09375,0.078125 0.15625,0.078125 0,0 0.09375,0 0.171875,0.015625 0.09375,0.015625 0.09375,0.03125 0.09375,0.0625 0,0.03125 -0.03125,0.171875 -0.0625,0.265625 l -0.234375,0.9375 c -0.09375,-0.125 -0.28125,-0.296875 -0.59375,-0.296875 -0.703125,0 -1.40625,0.6875 -1.40625,1.390625 0,0.515625 0.375,0.875 0.875,0.875 0.40625,0 0.734375,-0.296875 0.796875,-0.359375 0.078125,0.25 0.359375,0.359375 0.578125,0.359375 0.203125,0 0.34375,-0.125 0.4375,-0.28125 0.140625,-0.203125 0.203125,-0.46875 0.203125,-0.5 0,-0.0625 -0.078125,-0.0625 -0.109375,-0.0625 -0.078125,0 -0.09375,0.03125 -0.109375,0.109375 -0.09375,0.359375 -0.21875,0.5625 -0.390625,0.5625 -0.140625,0 -0.203125,-0.109375 -0.203125,-0.265625 0,-0.0625 0,-0.109375 0.015625,-0.15625 z M 2.21875,-0.65625 c -0.03125,0.0625 -0.03125,0.078125 -0.109375,0.171875 -0.1875,0.21875 -0.453125,0.375 -0.703125,0.375 -0.171875,0 -0.4375,-0.09375 -0.4375,-0.515625 0,-0.234375 0.125,-0.75 0.296875,-1.015625 0.1875,-0.265625 0.453125,-0.390625 0.65625,-0.390625 0.21875,0 0.4375,0.125 0.515625,0.4375 z m 0,0"
               style="stroke:none"
               inkscape:connector-curvature="0" />
          </symbol>
          <symbol
             id="textext-0a4937f4-17"
             overflow="visible"
             style="overflow:visible">
            <path
               id="path5757"
               d="m 1.234375,-0.40625 c -0.03125,0.140625 -0.046875,0.1875 -0.421875,0.1875 -0.125,0 -0.203125,0 -0.203125,0.140625 C 0.609375,0 0.6875,0 0.765625,0 L 2.9375,0 c 0.890625,0 1.625,-0.5625 1.625,-1.0625 0,-0.296875 -0.296875,-0.640625 -0.96875,-0.71875 0.5,-0.0625 1.203125,-0.390625 1.203125,-0.890625 0,-0.421875 -0.5,-0.734375 -1.171875,-0.734375 l -2.046875,0 c -0.09375,0 -0.171875,0 -0.171875,0.140625 0,0.078125 0.0625,0.078125 0.171875,0.078125 0.0625,0 0.21875,0 0.328125,0.03125 0,0.0625 0,0.078125 -0.015625,0.125 z M 2.078125,-1.859375 2.375,-3.015625 C 2.40625,-3.171875 2.40625,-3.1875 2.609375,-3.1875 l 0.921875,0 c 0.484375,0 0.71875,0.265625 0.71875,0.53125 0,0.390625 -0.53125,0.796875 -1.234375,0.796875 z M 1.84375,-0.21875 c -0.046875,0 -0.109375,0 -0.15625,-0.015625 0,-0.046875 0,-0.046875 0,-0.09375 l 0.34375,-1.359375 1.21875,0 c 0.515625,0 0.765625,0.296875 0.765625,0.609375 0,0.484375 -0.59375,0.859375 -1.21875,0.859375 z m 0,0"
               style="stroke:none"
               inkscape:connector-curvature="0" />
          </symbol>
        </g>
      </defs>
      <g
         id="textext-0a4937f4-18">
        <g
           id="g5760"
           style="fill:#000000;fill-opacity:1">
          <use
             id="use5762"
             y="136.259"
             x="223.43201"
             xlink:href="#textext-0a4937f4-1"
             width="666.37817"
             height="410.53571" />
          <use
             id="use5764"
             y="136.259"
             x="228.07059"
             xlink:href="#textext-0a4937f4-2"
             width="666.37817"
             height="410.53571" />
          <use
             id="use5766"
             y="136.259"
             x="233.76421"
             xlink:href="#textext-0a4937f4-3"
             width="666.37817"
             height="410.53571" />
        </g>
        <g
           id="g5768"
           style="fill:#000000;fill-opacity:1">
          <use
             id="use5770"
             y="125.2"
             x="240.438"
             xlink:href="#textext-0a4937f4-5"
             width="666.37817"
             height="410.53571" />
        </g>
        <g
           id="g5772"
           style="fill:#000000;fill-opacity:1">
          <use
             id="use5774"
             y="132.114"
             x="247.58299"
             xlink:href="#textext-0a4937f4-8"
             width="666.37817"
             height="410.53571" />
        </g>
        <g
           id="g5776"
           style="fill:#000000;fill-opacity:1">
          <use
             id="use5778"
             y="132.114"
             x="253.81"
             xlink:href="#textext-0a4937f4-10"
             width="666.37817"
             height="410.53571" />
        </g>
        <g
           id="g5780"
           style="fill:#000000;fill-opacity:1">
          <use
             id="use5782"
             y="132.114"
             x="260.35501"
             xlink:href="#textext-0a4937f4-12"
             width="666.37817"
             height="410.53571" />
        </g>
        <g
           id="g5784"
           style="fill:#000000;fill-opacity:1">
          <use
             id="use5786"
             y="133.17101"
             x="266.55801"
             xlink:href="#textext-0a4937f4-16"
             width="666.37817"
             height="410.53571" />
        </g>
        <path
           id="path5788"
           transform="matrix(1,0,0,-1,247.583,133.768)"
           d="m -9.6875e-4,-0.00153125 23.15624975,0"
           style="fill:none;stroke:#000000;stroke-width:0.398;stroke-linecap:butt;stroke-linejoin:miter;stroke-miterlimit:10;stroke-opacity:1"
           inkscape:connector-curvature="0" />
        <g
           id="g5790"
           style="fill:#000000;fill-opacity:1">
          <use
             id="use5792"
             y="139.69501"
             x="251.207"
             xlink:href="#textext-0a4937f4-13"
             width="666.37817"
             height="410.53571" />
        </g>
        <g
           id="g5794"
           style="fill:#000000;fill-opacity:1">
          <use
             id="use5796"
             y="140.696"
             x="255.442"
             xlink:href="#textext-0a4937f4-17"
             width="666.37817"
             height="410.53571" />
        </g>
        <g
           id="g5798"
           style="fill:#000000;fill-opacity:1">
          <use
             id="use5800"
             y="139.69501"
             x="261.33899"
             xlink:href="#textext-0a4937f4-14"
             width="666.37817"
             height="410.53571" />
        </g>
        <g
           id="g5802"
           style="fill:#000000;fill-opacity:1">
          <use
             id="use5804"
             y="125.2"
             x="271.936"
             xlink:href="#textext-0a4937f4-6"
             width="666.37817"
             height="410.53571" />
        </g>
      </g>
    </g>
  </g>
</svg>
