<?xml version="1.0" encoding="UTF-8" standalone="no"?>
<!-- Created with Inkscape (http://www.inkscape.org/) -->

<svg
   xmlns:ns1="http://wanglongqi.github.io/WriteTeX"
   xmlns:dc="http://purl.org/dc/elements/1.1/"
   xmlns:cc="http://creativecommons.org/ns#"
   xmlns:rdf="http://www.w3.org/1999/02/22-rdf-syntax-ns#"
   xmlns:svg="http://www.w3.org/2000/svg"
   xmlns="http://www.w3.org/2000/svg"
   xmlns:sodipodi="http://sodipodi.sourceforge.net/DTD/sodipodi-0.dtd"
   xmlns:inkscape="http://www.inkscape.org/namespaces/inkscape"
   width="238.13538"
   height="138.85811"
   id="svg2"
   version="1.1"
   inkscape:version="0.48.5 r10040"
   sodipodi:docname="HomogeneousNucleationFigure3.svg"
   viewBox="0 0 238.13538 138.85811">
  <sodipodi:namedview
     id="base"
     pagecolor="#ffffff"
     bordercolor="#666666"
     borderopacity="1.0"
     inkscape:pageopacity="0.0"
     inkscape:pageshadow="2"
     inkscape:zoom="1.4"
     inkscape:cx="127.70104"
     inkscape:cy="134.35957"
     inkscape:document-units="px"
     inkscape:current-layer="layer1"
     showgrid="true"
     units="in"
     width="11cm"
     inkscape:window-width="594"
     inkscape:window-height="749"
     inkscape:window-x="793"
     inkscape:window-y="3"
     inkscape:window-maximized="0"
     fit-margin-top="0"
     fit-margin-left="0"
     fit-margin-right="0"
     fit-margin-bottom="0"
     inkscape:snap-grids="false">
    <inkscape:grid
       originy="-169.29757px"
       originx="-179.6976px"
       spacingy="2px"
       spacingx="2px"
       snapvisiblegridlinesonly="true"
       enabled="true"
       visible="true"
       empspacing="5"
       id="grid2984"
       type="xygrid" />
  </sodipodi:namedview>
  <defs
     id="defs4">
    <marker
       inkscape:stockid="Arrow2Mend"
       orient="auto"
       refY="0"
       refX="0"
       id="Arrow2Mend"
       style="overflow:visible">
      <path
         inkscape:connector-curvature="0"
         id="path3966"
         style="fill-rule:evenodd;stroke-width:0.625;stroke-linejoin:round"
         d="M 8.719,4.034 -2.207,0.016 8.719,-4.002 c -1.746,2.372 -1.736,5.618 0,8.036 z"
         transform="scale(-0.6,-0.6)" />
    </marker>
  </defs>
  <metadata
     id="metadata7">
    <rdf:RDF>
      <cc:Work
         rdf:about="">
        <dc:format>image/svg+xml</dc:format>
        <dc:type
           rdf:resource="http://purl.org/dc/dcmitype/StillImage" />
        <dc:title />
      </cc:Work>
    </rdf:RDF>
  </metadata>
  <g
     inkscape:label="Layer 1"
     inkscape:groupmode="layer"
     id="layer1"
     transform="translate(-116.6976,-767.84431)">
    <rect
       y="785.90002"
       x="117.1"
       height="120.4"
       width="120.4"
       id="rect3336"
       style="fill:none;stroke:#000000;stroke-width:0.80479997;stroke-miterlimit:4;stroke-opacity:1;stroke-dasharray:none;stroke-dashoffset:0" />
    <path
       transform="matrix(0.5715,-0.8206,0.8206,0.5715,0,0)"
       d="m -595.20001,631.90002 c 0,11.0457 -8.95431,20 -20,20 -11.0457,0 -20,-8.9543 -20,-20 0,-11.04569 8.9543,-20 20,-20 10.57849,0 19.3275,8.23768 19.96379,18.79702"
       sodipodi:open="true"
       sodipodi:end="6.223"
       sodipodi:start="0"
       sodipodi:ry="20"
       sodipodi:rx="20"
       sodipodi:cy="631.90002"
       sodipodi:cx="-615.20001"
       sodipodi:type="arc"
       id="path3338"
       style="fill:none;stroke:#000000;stroke-width:1;stroke-miterlimit:4;stroke-opacity:1;stroke-dasharray:none;stroke-dashoffset:0" />
    <text
       sodipodi:linespacing="100%"
       id="text3340"
       y="806"
       x="216.97"
       style="font-size:16px;font-style:normal;font-variant:normal;font-weight:normal;font-stretch:normal;text-align:start;line-height:100%;letter-spacing:0px;word-spacing:0px;writing-mode:lr-tb;text-anchor:start;fill:#000000;fill-opacity:1;stroke:none;font-family:Latin Modern Math;-inkscape-font-specification:'Latin Modern Math, Normal'"
       xml:space="preserve"><tspan
         y="806"
         x="216.97"
         id="tspan3342"
         sodipodi:role="line">L</tspan></text>
    <text
       sodipodi:linespacing="100%"
       id="text3344"
       y="870.87744"
       x="172.47508"
       style="font-size:16px;font-style:normal;font-variant:normal;font-weight:normal;font-stretch:normal;text-align:start;line-height:100%;letter-spacing:0px;word-spacing:0px;writing-mode:lr-tb;text-anchor:start;fill:#000000;fill-opacity:1;stroke:none;font-family:Latin Modern Math;-inkscape-font-specification:'Latin Modern Math, Normal'"
       xml:space="preserve"><tspan
         y="870.87744"
         x="172.47508"
         id="tspan3346"
         sodipodi:role="line">R</tspan></text>
    <text
       sodipodi:linespacing="100%"
       id="text3348"
       y="853.67859"
       x="184.47"
       style="font-size:10px;font-style:normal;font-variant:normal;font-weight:normal;font-stretch:normal;text-align:start;line-height:100%;letter-spacing:0px;word-spacing:0px;writing-mode:lr-tb;text-anchor:start;fill:#000000;fill-opacity:1;stroke:none;font-family:Latin Modern Math;-inkscape-font-specification:'Latin Modern Math, Normal'"
       xml:space="preserve"><tspan
         y="853.67859"
         x="184.47"
         id="tspan3350"
         sodipodi:role="line">dR</tspan></text>
    <path
       sodipodi:nodetypes="cc"
       inkscape:connector-curvature="0"
       id="path3352"
       d="m 167,866 13.4,-20.7"
       style="fill:none;stroke:#000000;stroke-width:1px;stroke-linecap:butt;stroke-linejoin:miter;stroke-opacity:1" />
    <path
       sodipodi:nodetypes="cc"
       inkscape:connector-curvature="0"
       id="path3354"
       d="m 177.1,843 6.7,4.4"
       style="fill:none;stroke:#000000;stroke-width:1px;stroke-linecap:butt;stroke-linejoin:miter;stroke-opacity:1" />
    <g
       id="g3843"
       transform="matrix(1.816653,0,0,1.816653,-777.93603,582.30954)"
       ns1:text="$$V^{tot} \\equiv const.$$">
      <g
         id="surface1">
        <g
           id="g3846"
           style="fill:#000000;fill-opacity:1">
          <path
             id="path3848"
             transform="translate(566.32,110.99)"
             d="M 6.375,-5.71875 C 6.875,-6.5 7.171875,-6.484375 7.53125,-6.5 c 0.125,-0.015625 0.296875,-0.34375 0.296875,-0.34375 0,-0.078125 -0.21875,-0.296875 -0.296875,-0.296875 -0.25,0 -0.546875,0.03125 -0.8125,0.03125 -0.328125,0 -0.671875,-0.03125 -0.984375,-0.03125 -0.0625,0 -0.375,0.171875 -0.375,0.359375 0,0.109375 0.265625,0.28125 0.34375,0.28125 0.265625,0.015625 0.28125,-0.046875 0.28125,0.171875 0,0.140625 -0.15625,0.359375 -0.15625,0.34375 l -3,4.78125 L 3.125,-1.09375 2.4375,-6.359375 C 2.4375,-6.53125 2.5,-6.5 2.953125,-6.5 3.09375,-6.5 3.375,-6.65625 3.375,-6.859375 c 0,-0.09375 -0.25,-0.28125 -0.296875,-0.28125 -0.40625,0 -0.828125,0.03125 -1.25,0.03125 C 1.65625,-7.109375 1.46875,-7.125 1.28125,-7.125 1.109375,-7.125 0.921875,-7.140625 0.75,-7.140625 c -0.078125,0 -0.375,0.171875 -0.375,0.359375 0,0.125 0.265625,0.28125 0.4375,0.28125 0.546875,0 0.390625,-0.0625 0.40625,0.1875 l 0.796875,6.140625 c 0.03125,0.203125 0.25,0.390625 0.375,0.390625 0.15625,0 0.328125,-0.09375 0.40625,-0.234375 z m 0,0"
             style="stroke:none"
             inkscape:connector-curvature="0" />
        </g>
        <g
           id="g3850"
           style="fill:#000000;fill-opacity:1">
          <path
             id="path3852"
             transform="translate(574.34,106.88)"
             d="m 1.71875,-2.75 0.703125,0 c 0.140625,0 0.421875,-0.203125 0.421875,-0.34375 0,-0.109375 -0.28125,-0.296875 -0.40625,-0.296875 l -0.421875,0 0.203125,-0.84375 C 2.234375,-4.265625 2.25,-4.296875 2.25,-4.328125 2.25,-4.453125 1.953125,-4.75 1.8125,-4.75 1.640625,-4.75 1.34375,-4.4375 1.296875,-4.25 1.25,-4.078125 1.34375,-4.40625 1.078125,-3.390625 l -0.5625,0 c -0.125,0 -0.421875,0.1875 -0.421875,0.34375 C 0.09375,-2.953125 0.375,-2.75 0.5,-2.75 l 0.421875,0 L 0.5625,-1.296875 C 0.515625,-1.125 0.453125,-0.875 0.453125,-0.78125 0.453125,-0.375 1,0.0625 1.390625,0.0625 c 0.78125,0 1.40625,-1.15625 1.40625,-1.25 0,-0.09375 -0.28125,-0.296875 -0.296875,-0.296875 -0.09375,0 -0.296875,0.21875 -0.34375,0.328125 -0.203125,0.453125 -0.359375,0.640625 -0.734375,0.640625 -0.15625,0 -0.0625,0.109375 -0.0625,-0.140625 0,-0.078125 0.03125,-0.21875 0.046875,-0.296875 L 1.859375,-2.75 z m 0,0"
             style="stroke:none"
             inkscape:connector-curvature="0" />
          <path
             id="path3854"
             transform="translate(577.34998,106.88)"
             d="m 3.890625,-2.046875 c 0,-0.78125 -0.765625,-1.421875 -1.453125,-1.421875 -1.03125,0 -2.203125,1.171875 -2.203125,2.125 0,0.703125 0.703125,1.40625 1.46875,1.40625 1,0 2.1875,-1.109375 2.1875,-2.109375 z m -2.1875,1.53125 c -0.34375,0 -0.5,-0.03125 -0.5,-0.578125 0,-0.28125 0.078125,-0.828125 0.34375,-1.234375 C 1.84375,-2.75 2.125,-2.875 2.4375,-2.875 c 0.375,0 0.5,0.0625 0.5,0.578125 0,0.171875 -0.03125,0.71875 -0.34375,1.203125 -0.265625,0.421875 -0.53125,0.578125 -0.890625,0.578125 z m 0,0"
             style="stroke:none"
             inkscape:connector-curvature="0" />
          <path
             id="path3856"
             transform="translate(581.28262,106.88)"
             d="m 1.71875,-2.75 0.703125,0 c 0.140625,0 0.421875,-0.203125 0.421875,-0.34375 0,-0.109375 -0.28125,-0.296875 -0.40625,-0.296875 l -0.421875,0 0.203125,-0.84375 C 2.234375,-4.265625 2.25,-4.296875 2.25,-4.328125 2.25,-4.453125 1.953125,-4.75 1.8125,-4.75 1.640625,-4.75 1.34375,-4.4375 1.296875,-4.25 1.25,-4.078125 1.34375,-4.40625 1.078125,-3.390625 l -0.5625,0 c -0.125,0 -0.421875,0.1875 -0.421875,0.34375 C 0.09375,-2.953125 0.375,-2.75 0.5,-2.75 l 0.421875,0 L 0.5625,-1.296875 C 0.515625,-1.125 0.453125,-0.875 0.453125,-0.78125 0.453125,-0.375 1,0.0625 1.390625,0.0625 c 0.78125,0 1.40625,-1.15625 1.40625,-1.25 0,-0.09375 -0.28125,-0.296875 -0.296875,-0.296875 -0.09375,0 -0.296875,0.21875 -0.34375,0.328125 -0.203125,0.453125 -0.359375,0.640625 -0.734375,0.640625 -0.15625,0 -0.0625,0.109375 -0.0625,-0.140625 0,-0.078125 0.03125,-0.21875 0.046875,-0.296875 L 1.859375,-2.75 z m 0,0"
             style="stroke:none"
             inkscape:connector-curvature="0" />
        </g>
        <g
           id="g3858"
           style="fill:#000000;fill-opacity:1">
          <path
             id="path3860"
             transform="translate(587.56,110.99)"
             d="m 6.84375,-4.234375 c 0.171875,0 0.546875,-0.125 0.546875,-0.328125 0,-0.1875 -0.375,-0.328125 -0.546875,-0.328125 l -5.953125,0 c -0.15625,0 -0.546875,0.140625 -0.546875,0.328125 0,0.203125 0.40625,0.328125 0.5625,0.328125 z m 0,3.875 c 0.171875,0 0.546875,-0.125 0.546875,-0.328125 0,-0.203125 -0.375,-0.34375 -0.546875,-0.34375 l -5.9375,0 c -0.15625,0 -0.5625,0.140625 -0.5625,0.34375 0,0.203125 0.390625,0.328125 0.546875,0.328125 z m 0,-1.9375 c 0.171875,0 0.546875,-0.125 0.546875,-0.328125 0,-0.203125 -0.375,-0.328125 -0.546875,-0.328125 l -5.953125,0 c -0.15625,0 -0.546875,0.125 -0.546875,0.328125 0,0.203125 0.390625,0.328125 0.546875,0.328125 z m 0,0"
             style="stroke:none"
             inkscape:connector-curvature="0" />
        </g>
        <g
           id="g3862"
           style="fill:#000000;fill-opacity:1">
          <path
             id="path3864"
             transform="translate(598.08,110.99)"
             d="m 3.953125,-4.109375 c -0.171875,0 -0.4375,0.046875 -0.578125,0.1875 -0.15625,0.140625 -0.21875,0.4375 -0.21875,0.5 0,0.234375 0.359375,0.515625 0.546875,0.515625 0.28125,0 0.71875,-0.40625 0.71875,-0.796875 0,-0.5 -0.640625,-1.03125 -1.34375,-1.03125 -1.34375,0 -2.84375,1.59375 -2.84375,3 0,0.890625 0.75,1.84375 1.796875,1.84375 1.421875,0 2.421875,-1.21875 2.421875,-1.328125 0,-0.0625 -0.21875,-0.3125 -0.28125,-0.3125 -0.0625,0 -0.203125,0.078125 -0.265625,0.15625 -0.78125,0.984375 -1.75,0.9375 -1.859375,0.9375 -0.625,0 -0.734375,-0.3125 -0.734375,-0.921875 0,-0.40625 0.15625,-1.265625 0.484375,-1.875 0.3125,-0.578125 0.75,-0.953125 1.296875,-0.953125 0.328125,0 0.578125,0.078125 0.578125,0.078125 z m 0,0"
             style="stroke:none"
             inkscape:connector-curvature="0" />
          <path
             id="path3866"
             transform="translate(602.39199,110.99)"
             d="m 4.84375,-2.875 c 0,-1.046875 -0.859375,-1.859375 -1.765625,-1.859375 -1.328125,0 -2.84375,1.578125 -2.84375,3 0,0.984375 0.84375,1.84375 1.765625,1.84375 1.328125,0 2.84375,-1.53125 2.84375,-2.984375 z m -2.828125,2.4375 c -0.4375,0 -0.703125,-0.140625 -0.703125,-0.921875 0,-0.484375 0.21875,-1.453125 0.53125,-1.953125 0.5,-0.78125 0.953125,-0.875 1.234375,-0.875 0.578125,0 0.6875,0.3125 0.6875,0.921875 0,0.390625 -0.140625,1.3125 -0.53125,1.953125 -0.34375,0.578125 -0.765625,0.875 -1.21875,0.875 z m 0,0"
             style="stroke:none"
             inkscape:connector-curvature="0" />
          <path
             id="path3868"
             transform="translate(607.22105,110.99)"
             d="m 0.703125,-0.75 c -0.03125,0.15625 -0.09375,0.375 -0.09375,0.4375 0,0.171875 0.3125,0.421875 0.46875,0.421875 0.125,0 0.46875,-0.234375 0.515625,-0.390625 C 1.578125,-0.234375 1.75,-0.8125 1.796875,-1.0625 L 2.03125,-1.96875 C 2.078125,-2.1875 2.140625,-2.40625 2.1875,-2.625 c 0.046875,-0.171875 0.125,-0.46875 0.140625,-0.5 0.140625,-0.3125 0.5,-1.0625 1.453125,-1.0625 0.453125,0 0.359375,0.203125 0.359375,0.53125 0,0.625 -0.484375,1.90625 -0.65625,2.328125 -0.078125,0.234375 -0.09375,0.34375 -0.09375,0.453125 0,0.46875 0.53125,0.984375 1,0.984375 0.9375,0 1.46875,-1.609375 1.46875,-1.6875 0,-0.109375 -0.25,-0.28125 -0.28125,-0.28125 -0.109375,0 -0.28125,0.203125 -0.328125,0.359375 -0.203125,0.671875 -0.359375,1.0625 -0.84375,1.0625 -0.171875,0 -0.0625,0.0625 -0.0625,-0.15625 0,-0.25 0.078125,-0.5 0.171875,-0.71875 C 4.703125,-1.828125 5.125,-2.9375 5.125,-3.5 c 0,-0.671875 -0.59375,-1.234375 -1.3125,-1.234375 -0.90625,0 -1.515625,0.6875 -1.6875,0.921875 l 0.296875,0.109375 C 2.375,-4.25 1.796875,-4.734375 1.328125,-4.734375 c -0.453125,0 -0.765625,0.4375 -0.84375,0.5625 -0.234375,0.515625 -0.375,1.09375 -0.375,1.140625 0,0.09375 0.28125,0.265625 0.296875,0.265625 0.109375,0 0.28125,-0.171875 0.34375,-0.390625 0.171875,-0.71875 0.203125,-1.03125 0.5625,-1.03125 0.1875,0 0.125,-0.03125 0.125,0.296875 0,0.21875 -0.03125,0.328125 -0.15625,0.84375 z m 0,0"
             style="stroke:none"
             inkscape:connector-curvature="0" />
          <path
             id="path3870"
             transform="translate(613.20084,110.99)"
             d="m 3.890625,-4.0625 c -0.265625,0.015625 -0.65625,0.40625 -0.65625,0.625 0,0.140625 0.28125,0.453125 0.5,0.453125 0.21875,0 0.625,-0.328125 0.625,-0.71875 0,-0.453125 -0.59375,-1.03125 -1.359375,-1.03125 -1.3125,0 -1.859375,1.1875 -1.859375,1.625 0,0.78125 0.90625,1.078125 1.203125,1.140625 0.515625,0.109375 0.859375,0.0625 0.859375,0.609375 0,0.25 -0.046875,0.921875 -1.25,0.921875 -0.140625,0 -0.734375,0.171875 -0.875,-0.15625 0.125,0 0.53125,-0.453125 0.53125,-0.734375 0,-0.234375 -0.328125,-0.515625 -0.53125,-0.515625 -0.265625,0 -0.734375,0.375 -0.734375,0.828125 0,0.5625 0.75,1.125 1.59375,1.125 1.625,0 2.171875,-1.359375 2.171875,-1.8125 0,-0.359375 -0.234375,-0.734375 -0.34375,-0.84375 -0.28125,-0.28125 -0.6875,-0.390625 -1.125,-0.46875 C 2.28125,-3.09375 2.046875,-3 2.046875,-3.453125 2.046875,-3.734375 2.125,-4.1875 3,-4.1875 c 0.25,0 0.5625,-0.09375 0.65625,0.140625 z m 0,0"
             style="stroke:none"
             inkscape:connector-curvature="0" />
          <path
             id="path3872"
             transform="translate(617.8715,110.99)"
             d="m 2.046875,-3.984375 0.9375,0 c 0.203125,0 0.46875,-0.15625 0.46875,-0.359375 0,-0.109375 -0.265625,-0.28125 -0.4375,-0.28125 l -0.671875,0 c 0.3125,-1.25 0.375,-1.453125 0.375,-1.5 0,-0.171875 -0.296875,-0.4375 -0.46875,-0.4375 -0.03125,0 -0.484375,0.171875 -0.578125,0.515625 l -0.34375,1.421875 -0.796875,0 c -0.203125,0 -0.484375,0.171875 -0.484375,0.359375 0,0.125 0.265625,0.28125 0.46875,0.28125 l 0.65625,0 c -0.6875,2.671875 -0.71875,2.84375 -0.71875,3.015625 0,0.546875 0.546875,1.078125 1.09375,1.078125 1.015625,0 1.75,-1.609375 1.75,-1.6875 0,-0.109375 -0.25,-0.28125 -0.28125,-0.28125 -0.09375,0 -0.28125,0.203125 -0.328125,0.3125 -0.4375,1.03125 -0.78125,1.109375 -1.125,1.109375 -0.203125,0 -0.140625,0.03125 -0.140625,-0.296875 0,-0.234375 0.03125,-0.296875 0.0625,-0.46875 L 2.1875,-3.984375 z m 0,0"
             style="stroke:none"
             inkscape:connector-curvature="0" />
          <path
             id="path3874"
             transform="translate(621.46914,110.99)"
             d="m 2.078125,-0.6875 c 0,-0.296875 -0.40625,-0.703125 -0.6875,-0.703125 -0.296875,0 -0.71875,0.40625 -0.71875,0.703125 0,0.28125 0.421875,0.6875 0.71875,0.6875 0.28125,0 0.6875,-0.40625 0.6875,-0.6875 z m 0,0"
             style="stroke:none"
             inkscape:connector-curvature="0" />
        </g>
      </g>
    </g>
  </g>
</svg>
