<?xml version="1.0" encoding="UTF-8" standalone="no"?>
<!-- Created with Inkscape (http://www.inkscape.org/) -->

<svg
   xmlns:ns0="http://www.iki.fi/pav/software/textext/"
   xmlns:dc="http://purl.org/dc/elements/1.1/"
   xmlns:cc="http://creativecommons.org/ns#"
   xmlns:rdf="http://www.w3.org/1999/02/22-rdf-syntax-ns#"
   xmlns:svg="http://www.w3.org/2000/svg"
   xmlns="http://www.w3.org/2000/svg"
   xmlns:sodipodi="http://sodipodi.sourceforge.net/DTD/sodipodi-0.dtd"
   xmlns:inkscape="http://www.inkscape.org/namespaces/inkscape"
   width="306.77756"
   height="222.00629"
   id="svg2"
   version="1.1"
   inkscape:version="0.48.4 r9939"
   sodipodi:docname="New document 56">
  <sodipodi:namedview
     id="base"
     pagecolor="#ffffff"
     bordercolor="#666666"
     borderopacity="1.0"
     inkscape:pageopacity="0.0"
     inkscape:pageshadow="2"
     inkscape:zoom="1.6141471"
     inkscape:cx="183.9656"
     inkscape:cy="159.79982"
     inkscape:document-units="px"
     inkscape:current-layer="layer1"
     showgrid="true"
     units="in"
     width="11cm"
     inkscape:window-width="1274"
     inkscape:window-height="541"
     inkscape:window-x="0"
     inkscape:window-y="423"
     inkscape:window-maximized="0"
     fit-margin-top="0"
     fit-margin-left="0"
     fit-margin-right="0"
     fit-margin-bottom="0"
     inkscape:snap-grids="false">
    <inkscape:grid
       spacingy="2px"
       spacingx="2px"
       snapvisiblegridlinesonly="true"
       enabled="true"
       visible="true"
       empspacing="5"
       id="grid2984"
       type="xygrid"
       originx="-124.55045px"
       originy="-103.93524px" />
  </sodipodi:namedview>
  <defs
     id="defs4">
    <marker
       inkscape:stockid="Arrow2Lend"
       orient="auto"
       refY="0"
       refX="0"
       id="Arrow2Lend"
       style="overflow:visible">
      <path
         id="path3790"
         style="fill-rule:evenodd;stroke-width:0.625;stroke-linejoin:round"
         d="M 8.7185878,4.0337352 -2.2072895,0.01601326 8.7185884,-4.0017078 c -1.7454984,2.3720609 -1.7354408,5.6174519 -6e-7,8.035443 z"
         transform="matrix(-1.1,0,0,-1.1,-1.1,0)"
         inkscape:connector-curvature="0" />
    </marker>
    <marker
       inkscape:stockid="Arrow2Mend"
       orient="auto"
       refY="0"
       refX="0"
       id="Arrow2Mend"
       style="overflow:visible">
      <path
         inkscape:connector-curvature="0"
         id="path3966"
         style="fill-rule:evenodd;stroke-width:0.625;stroke-linejoin:round"
         d="M 8.7185878,4.0337352 -2.2072895,0.01601326 8.7185884,-4.0017078 c -1.7454984,2.3720609 -1.7354408,5.6174519 -6e-7,8.035443 z"
         transform="scale(-0.6,-0.6)" />
    </marker>
  </defs>
  <metadata
     id="metadata7">
    <rdf:RDF>
      <cc:Work
         rdf:about="">
        <dc:format>image/svg+xml</dc:format>
        <dc:type
           rdf:resource="http://purl.org/dc/dcmitype/StillImage" />
        <dc:title></dc:title>
      </cc:Work>
    </rdf:RDF>
  </metadata>
  <g
     inkscape:label="Layer 1"
     inkscape:groupmode="layer"
     id="layer1"
     transform="translate(-61.522092,-750.10571)">
    <path
       sodipodi:nodetypes="ccc"
       transform="translate(-63.028358,665.51153)"
       inkscape:connector-curvature="0"
       id="path11153"
       d="m 190,90.535706 0,190.000004 240,0"
       style="fill:none;stroke:#000000;stroke-width:1px;stroke-linecap:butt;stroke-linejoin:miter;stroke-opacity:1;marker-end:url(#Arrow2Lend)" />
    <path
       sodipodi:nodetypes="ccc"
       transform="translate(-63.028358,665.51153)"
       inkscape:connector-curvature="0"
       id="path11155"
       d="m 190,90.535706 130,40.000004 80,100"
       style="fill:none;stroke:#000000;stroke-width:1px;stroke-linecap:butt;stroke-linejoin:miter;stroke-opacity:1" />
    <path
       transform="translate(-63.028358,665.51153)"
       inkscape:connector-curvature="0"
       id="path11157"
       d="m 190,90.535706 -10,0"
       style="fill:none;stroke:#000000;stroke-width:1px;stroke-linecap:butt;stroke-linejoin:miter;stroke-opacity:1" />
    <text
       sodipodi:linespacing="100%"
       id="text11159"
       y="760.66821"
       x="92.168282"
       style="font-size:13px;font-style:normal;font-variant:normal;font-weight:500;font-stretch:normal;text-align:start;line-height:100%;letter-spacing:0px;word-spacing:0px;writing-mode:lr-tb;text-anchor:start;fill:#000000;fill-opacity:1;stroke:none;font-family:Rekha;-inkscape-font-specification:Rekha Medium"
       xml:space="preserve"><tspan
         style="font-size:16px;font-weight:500;-inkscape-font-specification:Rekha Medium"
         y="760.66821"
         x="92.168282"
         id="tspan11161"
         sodipodi:role="line">1.0</tspan></text>
    <text
       sodipodi:linespacing="100%"
       id="text11163"
       y="969.37762"
       x="185.54012"
       style="font-size:13px;font-style:normal;font-variant:normal;font-weight:500;font-stretch:normal;text-align:start;line-height:100%;letter-spacing:0px;word-spacing:0px;writing-mode:lr-tb;text-anchor:start;fill:#000000;fill-opacity:1;stroke:none;font-family:Rekha;-inkscape-font-specification:Rekha Medium"
       xml:space="preserve"><tspan
         style="font-size:16px"
         y="969.37762"
         x="185.54012"
         id="tspan11165"
         sodipodi:role="line">t (relaxation time)</tspan></text>
    <path
       transform="translate(-8.028358,581.22582)"
       d="m 140,175.53571 c 0,2.76142 -2.23858,5 -5,5 -2.76142,0 -5,-2.23858 -5,-5 0,-2.76143 2.23858,-5 5,-5 2.76142,0 5,2.23857 5,5 z"
       sodipodi:ry="5"
       sodipodi:rx="5"
       sodipodi:cy="175.53571"
       sodipodi:cx="135"
       id="path11167"
       style="fill:none;stroke:#000000;stroke-width:1;stroke-miterlimit:4;stroke-opacity:1;stroke-dasharray:none;stroke-dashoffset:0"
       sodipodi:type="arc" />
    <path
       d="m 140,175.53571 c 0,2.76142 -2.23858,5 -5,5 -2.76142,0 -5,-2.23858 -5,-5 0,-2.76143 2.23858,-5 5,-5 2.76142,0 5,2.23857 5,5 z"
       sodipodi:ry="5"
       sodipodi:rx="5"
       sodipodi:cy="175.53571"
       sodipodi:cx="135"
       id="path11167-8"
       style="fill:none;stroke:#000000;stroke-width:1;stroke-miterlimit:4;stroke-opacity:1;stroke-dasharray:none;stroke-dashoffset:0"
       sodipodi:type="arc"
       transform="translate(175.54307,687.65438)" />
    <path
       d="m 140,175.53571 c 0,2.76142 -2.23858,5 -5,5 -2.76142,0 -5,-2.23858 -5,-5 0,-2.76143 2.23858,-5 5,-5 2.76142,0 5,2.23857 5,5 z"
       sodipodi:ry="5"
       sodipodi:rx="5"
       sodipodi:cy="175.53571"
       sodipodi:cx="135"
       id="path11167-85"
       style="fill:none;stroke:#000000;stroke-width:1;stroke-miterlimit:4;stroke-opacity:1;stroke-dasharray:none;stroke-dashoffset:0"
       sodipodi:type="arc"
       transform="translate(149.82878,655.51153)" />
    <path
       d="m 140,175.53571 c 0,2.76142 -2.23858,5 -5,5 -2.76142,0 -5,-2.23858 -5,-5 0,-2.76143 2.23858,-5 5,-5 2.76142,0 5,2.23857 5,5 z"
       sodipodi:ry="5"
       sodipodi:rx="5"
       sodipodi:cy="175.53571"
       sodipodi:cx="135"
       id="path11167-5"
       style="fill:none;stroke:#000000;stroke-width:1;stroke-miterlimit:4;stroke-opacity:1;stroke-dasharray:none;stroke-dashoffset:0"
       sodipodi:type="arc"
       transform="translate(201.25736,720.51153)" />
    <path
       d="m 140,175.53571 c 0,2.76142 -2.23858,5 -5,5 -2.76142,0 -5,-2.23858 -5,-5 0,-2.76143 2.23858,-5 5,-5 2.76142,0 5,2.23857 5,5 z"
       sodipodi:ry="5"
       sodipodi:rx="5"
       sodipodi:cy="175.53571"
       sodipodi:cx="135"
       id="path11167-0"
       style="fill:none;stroke:#000000;stroke-width:1;stroke-miterlimit:4;stroke-opacity:1;stroke-dasharray:none;stroke-dashoffset:0"
       sodipodi:type="arc"
       transform="translate(36.257356,594.08296)" />
    <path
       d="m 140,175.53571 c 0,2.76142 -2.23858,5 -5,5 -2.76142,0 -5,-2.23858 -5,-5 0,-2.76143 2.23858,-5 5,-5 2.76142,0 5,2.23857 5,5 z"
       sodipodi:ry="5"
       sodipodi:rx="5"
       sodipodi:cy="175.53571"
       sodipodi:cx="135"
       id="path11167-58"
       style="fill:none;stroke:#000000;stroke-width:1;stroke-miterlimit:4;stroke-opacity:1;stroke-dasharray:none;stroke-dashoffset:0"
       sodipodi:type="arc"
       transform="translate(75.54307,606.22582)" />
    <path
       d="m 140,175.53571 c 0,2.76142 -2.23858,5 -5,5 -2.76142,0 -5,-2.23858 -5,-5 0,-2.76143 2.23858,-5 5,-5 2.76142,0 5,2.23857 5,5 z"
       sodipodi:ry="5"
       sodipodi:rx="5"
       sodipodi:cy="175.53571"
       sodipodi:cx="135"
       id="path11167-4"
       style="fill:none;stroke:#000000;stroke-width:1;stroke-miterlimit:4;stroke-opacity:1;stroke-dasharray:none;stroke-dashoffset:0"
       sodipodi:type="arc"
       transform="translate(121.25736,620.51153)" />
    <path
       sodipodi:nodetypes="ccc"
       inkscape:connector-curvature="0"
       id="path11736"
       d="m 191.97164,776.04724 0.71429,15 46.42857,0"
       style="fill:none;stroke:#000000;stroke-width:1px;stroke-linecap:butt;stroke-linejoin:miter;stroke-opacity:1" />
    <path
       sodipodi:nodetypes="ccc"
       inkscape:connector-curvature="0"
       id="path11738"
       d="m 269.82879,813.19009 0,40.71429 34.28571,0"
       style="fill:none;stroke:#000000;stroke-width:1px;stroke-linecap:butt;stroke-linejoin:miter;stroke-opacity:1" />
    <g
       ns0:preamble=""
       ns0:text="$ ln {{\\Delta P} \\over {\\Delta P_o}}$"
       word-spacing="normal"
       letter-spacing="normal"
       font-size-adjust="none"
       font-stretch="normal"
       font-weight="normal"
       font-variant="normal"
       font-style="normal"
       stroke-miterlimit="10.433"
       xml:space="preserve"
       transform="matrix(1.7995141,0,0,-1.7995141,-341.33513,2033.2254)"
       id="content"
       style="font-style:normal;font-variant:normal;font-weight:normal;font-stretch:normal;letter-spacing:normal;word-spacing:normal;text-anchor:start;fill:none;stroke:#000000;stroke-linecap:butt;stroke-linejoin:miter;stroke-miterlimit:10.43299961;stroke-opacity:1;stroke-dasharray:none;stroke-dashoffset:0"><path
         id="path11765"
         d="m 226,664.02 0,0 0,0 0,0 0,0.01 0,0 0,0 0,0 0,0.01 0,0 0,0.01 0,0 -0.01,0 0,0.01 0,0 0,0.01 0,0 -0.01,0.01 0,0 0,0.01 -0.01,0 0,0.01 0,0 -0.01,0 0,0 0,0.01 -0.01,0 0,0 0,0 -0.01,0 0,0.01 0,0 -0.01,0 0,0 0,0 -0.01,0 0,0 -0.01,0 0,0.01 -0.01,0 0,0 -0.01,0 0,0 -0.01,0 0,0 -0.01,0 c -0.23,0 -0.96,-0.08 -1.21,-0.1 -0.08,-0.01 -0.19,-0.02 -0.19,-0.21 0,-0.11 0.1,-0.11 0.24,-0.11 0.48,0 0.49,-0.09 0.49,-0.17 l -0.03,-0.2 -1.25,-4.96 c -0.03,-0.11 -0.05,-0.18 -0.05,-0.34 0,-0.57 0.44,-0.91 0.9,-0.91 0.33,0 0.58,0.19 0.75,0.55 0.18,0.38 0.3,0.96 0.3,0.98 0,0.1 -0.09,0.1 -0.12,0.1 -0.1,0 -0.11,-0.04 -0.14,-0.18 -0.17,-0.65 -0.36,-1.24 -0.76,-1.24 -0.29,0 -0.29,0.32 -0.29,0.46 0,0.24 0.01,0.29 0.06,0.48 z"
         inkscape:connector-curvature="0"
         style="fill:#000000;stroke-width:0" /><path
         id="path11767"
         d="m 227.48,657.82 0,-0.01 -0.01,-0.02 0,-0.01 0,-0.02 -0.01,-0.03 -0.01,-0.03 0,-0.03 -0.01,-0.04 -0.01,-0.03 -0.01,-0.03 0,-0.01 0,-0.02 -0.01,-0.01 0,-0.02 0,-0.01 -0.01,-0.01 0,-0.02 0,-0.01 0,-0.01 0,-0.01 -0.01,-0.01 0,-0.01 0,-0.01 0,0 0,-0.01 0,-0.01 c 0,-0.17 0.14,-0.26 0.29,-0.26 0.12,0 0.3,0.08 0.37,0.27 0.01,0.02 0.13,0.49 0.19,0.74 l 0.22,0.89 c 0.05,0.22 0.11,0.44 0.16,0.67 0.04,0.17 0.12,0.46 0.13,0.5 0.15,0.3 0.68,1.21 1.63,1.21 0.44,0 0.53,-0.37 0.53,-0.7 0,-0.61 -0.48,-1.89 -0.65,-2.31 -0.08,-0.23 -0.09,-0.35 -0.09,-0.46 0,-0.47 0.34,-0.81 0.81,-0.81 0.94,0 1.31,1.45 1.31,1.53 0,0.1 -0.09,0.1 -0.12,0.1 -0.1,0 -0.1,-0.04 -0.15,-0.18 -0.2,-0.68 -0.53,-1.24 -1.02,-1.24 -0.17,0 -0.24,0.1 -0.24,0.33 0,0.25 0.09,0.49 0.18,0.71 0.19,0.52 0.61,1.62 0.61,2.18 0,0.67 -0.43,1.07 -1.15,1.07 -0.89,0 -1.38,-0.64 -1.55,-0.87 -0.05,0.56 -0.45,0.87 -0.91,0.87 -0.46,0 -0.65,-0.39 -0.75,-0.57 -0.16,-0.34 -0.3,-0.92 -0.3,-0.96 0,-0.1 0.1,-0.1 0.12,-0.1 0.1,0 0.11,0.01 0.17,0.22 0.17,0.71 0.37,1.19 0.73,1.19 0.2,0 0.31,-0.13 0.31,-0.46 0,-0.21 -0.03,-0.32 -0.16,-0.83 z"
         inkscape:connector-curvature="0"
         style="fill:#000000;stroke-width:0" /><path
         id="path11769"
         d="m 238.73,665.96 -0.01,0.01 0,0.01 -0.01,0.01 0,0.01 -0.01,0.01 -0.01,0.01 0,0.01 -0.01,0 0,0.01 -0.01,0.01 0,0.01 -0.01,0 0,0.01 -0.01,0 0,0.01 -0.01,0 -0.01,0.01 0,0 -0.01,0 0,0.01 -0.01,0 -0.01,0 -0.01,0.01 -0.01,0 0,0 -0.01,0 -0.01,0 -0.01,0 -0.01,0.01 -0.02,0 -0.01,0 -0.01,0 c -0.08,0 -0.15,-0.03 -0.22,-0.14 l -0.01,-0.55 2.05,-3.7 h -4.1 l 2.05,3.7 0.01,0.55 -2.57,-4.65 c -0.05,-0.08 -0.05,-0.1 -0.05,-0.1 0,-0.07 0.06,-0.07 0.17,-0.07 h 5.34 c 0.12,0 0.17,0 0.17,0.07 0,0 0,0.02 -0.05,0.1 z"
         inkscape:connector-curvature="0"
         style="fill:#000000;stroke-width:0" /><path
         id="path11771"
         d="m 244.16,663.31 0.03,0.23 0.47,1.88 c 0.06,0.22 0.06,0.24 0.35,0.24 h 0.82 c 0.65,0 1.05,-0.2 1.05,-0.69 0,-0.22 -0.08,-0.77 -0.43,-1.08 -0.25,-0.22 -0.65,-0.35 -1.15,-0.35 h -1.11 l -0.03,-0.23 h 1.26 c 1.18,0 2.17,0.76 2.17,1.51 0,0.59 -0.57,1.09 -1.52,1.09 h -2.44 c -0.14,0 -0.22,0 -0.22,-0.16 0,-0.09 0.07,-0.09 0.23,-0.09 0.11,0 0.14,0 0.26,-0.02 0.14,-0.01 0.15,-0.03 0.15,-0.09 0,-0.02 0,-0.05 -0.02,-0.16 l -0.92,-3.66 c -0.07,-0.27 -0.08,-0.32 -0.62,-0.32 -0.13,0 -0.21,0 -0.21,-0.15 0,-0.01 0,-0.1 0.11,-0.1 0.2,0 0.7,0.03 0.9,0.03 0.12,0 0.37,0 0.49,-0.01 0.13,-0.01 0.31,-0.02 0.44,-0.02 0.04,0 0.15,0 0.15,0.15 0,0.1 -0.09,0.1 -0.22,0.1 -0.01,0 -0.14,0 -0.27,0.01 -0.16,0.02 -0.16,0.04 -0.16,0.11 0,0 0,0.05 0.03,0.15 z"
         inkscape:connector-curvature="0"
         style="fill:#000000;stroke-width:0" /><line
         id="line11773"
         y2="659.72998"
         x2="249.39"
         y1="659.72998"
         x1="233.78"
         style="stroke-width:0.398" /><path
         id="path11775"
         d="m 237.26,658.6 0,0.01 -0.01,0.01 0,0.01 -0.01,0.01 0,0.01 -0.01,0.01 -0.01,0.01 0,0.01 -0.01,0 0,0.01 -0.01,0.01 0,0 -0.01,0.01 0,0.01 -0.01,0 0,0 -0.01,0.01 -0.01,0 0,0.01 -0.01,0 -0.01,0 0,0.01 -0.01,0 -0.01,0 -0.01,0 -0.01,0 -0.01,0.01 -0.01,0 -0.01,0 -0.01,0 -0.01,0 -0.01,0 c -0.09,0 -0.16,-0.02 -0.22,-0.13 l -0.01,-0.55 2.04,-3.71 h -4.09 l 2.05,3.71 0.01,0.55 -2.57,-4.66 c -0.05,-0.08 -0.05,-0.09 -0.05,-0.1 0,-0.07 0.06,-0.07 0.17,-0.07 h 5.34 c 0.11,0 0.17,0 0.17,0.07 0,0.01 0,0.02 -0.05,0.1 z"
         inkscape:connector-curvature="0"
         style="fill:#000000;stroke-width:0" /><path
         id="path11777"
         d="m 242.7,655.96 0.02,0.22 0.48,1.88 c 0.05,0.22 0.06,0.24 0.35,0.24 h 0.82 c 0.64,0 1.05,-0.2 1.05,-0.69 0,-0.21 -0.08,-0.76 -0.43,-1.08 -0.25,-0.22 -0.65,-0.35 -1.15,-0.35 h -1.12 l -0.02,-0.22 h 1.26 c 1.17,0 2.17,0.75 2.17,1.51 0,0.58 -0.57,1.08 -1.53,1.08 h -2.43 c -0.14,0 -0.23,0 -0.23,-0.15 0,-0.1 0.08,-0.1 0.23,-0.1 0.12,0 0.14,0 0.27,-0.02 0.14,-0.01 0.15,-0.02 0.15,-0.09 0,-0.02 0,-0.05 -0.03,-0.16 l -0.92,-3.66 c -0.07,-0.27 -0.07,-0.32 -0.62,-0.32 -0.12,0 -0.2,0 -0.2,-0.15 0,-0.01 0,-0.1 0.11,-0.1 0.2,0 0.7,0.03 0.9,0.03 0.12,0 0.36,0 0.48,-0.01 0.14,-0.01 0.32,-0.02 0.45,-0.02 0.04,0 0.14,0 0.14,0.15 0,0.1 -0.08,0.1 -0.22,0.1 0,0 -0.14,0 -0.26,0.01 -0.16,0.02 -0.16,0.04 -0.16,0.11 0,0 0,0.05 0.03,0.15 z"
         inkscape:connector-curvature="0"
         style="fill:#000000;stroke-width:0" /><path
         id="path11779"
         d="m 248.54,654.09 0,0.05 -0.01,0.05 0,0.04 -0.01,0.05 -0.01,0.04 -0.01,0.04 -0.02,0.04 -0.02,0.05 -0.02,0.04 -0.02,0.03 -0.02,0.04 -0.03,0.04 -0.02,0.03 -0.03,0.04 -0.03,0.03 -0.04,0.03 -0.03,0.03 -0.04,0.03 -0.04,0.03 -0.04,0.02 -0.04,0.03 -0.04,0.02 -0.05,0.02 -0.05,0.02 -0.04,0.01 -0.06,0.02 -0.05,0.01 -0.05,0.01 -0.06,0.01 -0.05,0 -0.06,0.01 -0.06,0 -0.01,-0.17 c 0.28,0 0.6,-0.14 0.6,-0.58 0,-0.14 -0.06,-0.6 -0.3,-0.91 -0.23,-0.3 -0.56,-0.42 -0.8,-0.42 h 0 c -0.25,0 -0.6,0.11 -0.6,0.58 0,0.15 0.06,0.64 0.34,0.96 0.18,0.22 0.48,0.37 0.76,0.37 l 0.01,0.17 c -0.83,0 -1.57,-0.68 -1.57,-1.35 0,-0.5 0.41,-0.9 1.04,-0.9 0.84,0 1.58,0.68 1.58,1.34 z"
         inkscape:connector-curvature="0"
         style="fill:#000000;stroke-width:0" /></g>    <g
       id="g11887"
       transform="matrix(1.7995141,0,0,-1.7995141,-240.59802,1990.12)"
       xml:space="preserve"
       stroke-miterlimit="10.433"
       font-style="normal"
       font-variant="normal"
       font-weight="normal"
       font-stretch="normal"
       font-size-adjust="none"
       letter-spacing="normal"
       word-spacing="normal"
       ns0:text="${-1} \\over {\\tau (T_1)}$"
       ns0:preamble=""
       style="font-style:normal;font-variant:normal;font-weight:normal;font-stretch:normal;letter-spacing:normal;word-spacing:normal;text-anchor:start;fill:none;stroke:#000000;stroke-linecap:butt;stroke-linejoin:miter;stroke-miterlimit:10.43299961;stroke-opacity:1;stroke-dasharray:none;stroke-dashoffset:0"><path
         style="fill:#000000;stroke-width:0"
         inkscape:connector-curvature="0"
         d="m 234.36,662.73 0.01,0 0.01,0 0.01,0 0.01,0 0.03,0 0.01,0 0.01,0 0.01,0 0.01,0 0.02,0.01 0.01,0 0.01,0 0.01,0 0.01,0.01 0.01,0 0.01,0 0.01,0.01 0.01,0 0.01,0.01 0.01,0.01 0.01,0 0,0.01 0.01,0.01 0,0 0,0 0.01,0.01 0,0 0,0.01 0.01,0 0,0.01 0,0 0,0.01 0,0.01 0,0 0.01,0.01 0,0.01 0,0 0,0.01 0,0.01 0,0.01 c 0,0.17 -0.16,0.17 -0.28,0.17 h -4.15 c -0.11,0 -0.28,0 -0.28,-0.17 0,-0.17 0.16,-0.17 0.28,-0.17 z"
         id="path11889" /><path
         style="fill:#000000;stroke-width:0"
         inkscape:connector-curvature="0"
         d="m 237.74,665.58 0,0.01 0,0.01 0,0.01 0,0 0,0.01 0,0.01 0,0.01 0,0 0,0.01 0,0.01 0,0 0,0.01 0,0 0,0.01 -0.01,0.01 0,0 0,0.01 0,0 0,0.01 0,0.01 -0.01,0 0,0.01 0,0.01 -0.01,0 0,0.01 -0.01,0 0,0.01 -0.01,0 -0.01,0 -0.01,0.01 -0.01,0 0,0 -0.01,0 -0.01,0 0,0 -0.01,0 0,0 -0.01,0 0,0 -0.01,0 -0.01,0 -0.01,0 0,0 -0.01,0 -0.01,0 -0.01,0 0,0 -0.01,0 -0.01,0.01 -0.01,0 c -0.44,-0.44 -1.08,-0.45 -1.37,-0.45 v -0.25 c 0.17,0 0.63,0 1.02,0.2 v -3.55 c 0,-0.23 0,-0.32 -0.7,-0.32 h -0.27 v -0.25 c 0.13,0 0.99,0.03 1.24,0.03 0.22,0 1.1,-0.03 1.25,-0.03 v 0.25 h -0.26 c -0.7,0 -0.7,0.09 -0.7,0.32 z"
         id="path11891" /><line
         style="stroke-width:0.398"
         x1="224.63"
         y1="659.72998"
         x2="243.92999"
         y2="659.72998"
         id="line11893" /><path
         style="fill:#000000;stroke-width:0"
         inkscape:connector-curvature="0"
         d="m 227.02,656.32 h 1.29 c 0.08,0 0.37,0 0.37,0.28 0,0.2 -0.18,0.2 -0.3,0.2 h -2.19 c -0.2,0 -0.43,-0.02 -0.79,-0.35 -0.2,-0.18 -0.46,-0.55 -0.46,-0.61 0,-0.08 0.09,-0.08 0.12,-0.08 0.08,0 0.08,0.02 0.12,0.08 0.36,0.48 0.78,0.48 0.94,0.48 h 0.62 l -0.68,-2.22 c -0.04,-0.11 -0.04,-0.12 -0.04,-0.16 0,-0.19 0.18,-0.22 0.23,-0.22 0.26,0 0.31,0.25 0.34,0.34 z"
         id="path11895" /><path
         style="fill:#000000;stroke-width:0"
         inkscape:connector-curvature="0"
         d="m 231.58,659.02 -0.12,-0.09 -0.12,-0.1 -0.11,-0.09 -0.1,-0.1 -0.1,-0.1 -0.1,-0.1 -0.08,-0.1 -0.09,-0.11 -0.08,-0.11 -0.07,-0.11 -0.07,-0.11 -0.07,-0.11 -0.06,-0.12 -0.06,-0.11 -0.05,-0.11 -0.05,-0.12 -0.05,-0.12 -0.04,-0.11 -0.04,-0.12 -0.03,-0.12 -0.03,-0.11 -0.03,-0.12 -0.02,-0.11 -0.03,-0.12 -0.01,-0.11 -0.02,-0.11 -0.01,-0.11 -0.01,-0.11 -0.01,-0.11 -0.01,-0.1 0,-0.1 0,-0.11 c 0,-0.97 0.29,-2.5 1.67,-3.47 0.06,0 0.14,0 0.14,0.08 0,0.04 -0.02,0.06 -0.07,0.11 -0.93,0.83 -1.27,2.01 -1.27,3.28 0,1.88 0.72,2.79 1.29,3.31 0.03,0.03 0.05,0.05 0.05,0.08 0,0.09 -0.08,0.09 -0.14,0.09 z"
         id="path11897" /><path
         style="fill:#000000;stroke-width:0"
         inkscape:connector-curvature="0"
         d="m 235.61,658.01 0,0.01 0,0.01 0,0 0,0.01 0.01,0.01 0,0.01 0,0.01 0,0 0.01,0.02 0,0.01 0,0.02 0.01,0.01 0,0.01 0.01,0.01 0,0.01 0,0.01 0.01,0 0,0.01 0.01,0.01 0,0.01 0.01,0 0.01,0.01 0,0 0.01,0.01 0.01,0 0,0 0.01,0.01 0.01,0 0.01,0 0.01,0 0.01,0.01 0.01,0 0.01,0 0.01,0 0.02,0 0.01,0 c 0.04,0.01 0.28,0.01 0.42,0.01 0.42,0 0.61,0 0.78,-0.05 0.31,-0.1 0.33,-0.3 0.33,-0.55 0,-0.12 0,-0.21 -0.05,-0.57 l -0.02,-0.07 c 0,-0.07 0.05,-0.11 0.12,-0.11 0.11,0 0.12,0.06 0.14,0.18 l 0.18,1.32 c 0,0.1 -0.08,0.1 -0.21,0.1 h -4.28 c -0.17,0 -0.19,0 -0.24,-0.15 l -0.44,-1.23 c 0,-0.02 -0.03,-0.09 -0.03,-0.12 0,-0.03 0.01,-0.1 0.12,-0.1 0.09,0 0.1,0.04 0.15,0.17 0.4,1.11 0.63,1.18 1.69,1.18 h 0.29 c 0.21,0 0.22,-0.01 0.22,-0.07 0,-0.01 0,-0.04 -0.03,-0.15 l -0.92,-3.65 c -0.06,-0.26 -0.08,-0.33 -0.82,-0.33 -0.25,0 -0.31,0 -0.31,-0.15 0,-0.02 0.01,-0.1 0.12,-0.1 0.19,0 0.4,0.02 0.6,0.02 0.19,0 0.4,0.01 0.6,0.01 0.19,0 0.43,0 0.62,-0.01 0.19,-0.01 0.4,-0.02 0.59,-0.02 0.05,0 0.16,0 0.16,0.15 0,0.1 -0.07,0.1 -0.29,0.1 -0.13,0 -0.27,0.01 -0.4,0.01 -0.24,0.03 -0.25,0.05 -0.25,0.14 0,0.04 0,0.06 0.03,0.16 z"
         id="path11899" /><path
         style="fill:#000000;stroke-width:0"
         inkscape:connector-curvature="0"
         d="m 238.91,655.96 0,0.01 0,0.01 0,0 0,0.01 0,0.01 0,0 0,0.01 0,0 0,0.01 0,0 -0.01,0.01 0,0 0,0.01 0,0 0,0.01 0,0 0,0 0,0.01 0,0 0,0 0,0.01 -0.01,0.01 0,0 0,0.01 -0.01,0 0,0 -0.01,0.01 0,0 -0.01,0 0,0 -0.01,0.01 -0.01,0 -0.01,0 0,0 0,0 -0.01,0 0,0 -0.01,0 0,0 -0.01,0 -0.01,0 0,0 -0.01,0 0,0 -0.01,0 -0.01,0 0,0 -0.01,0 -0.01,0 0,0 -0.01,0 c -0.35,-0.32 -0.91,-0.32 -1.01,-0.32 h -0.08 v -0.21 h 0.08 c 0.12,0 0.44,0.01 0.73,0.14 v -2.49 c 0,-0.15 0,-0.21 -0.53,-0.21 h -0.25 v -0.22 c 0.28,0.02 0.72,0.02 1.01,0.02 0.29,0 0.73,0 1,-0.02 v 0.22 h -0.25 c -0.52,0 -0.52,0.06 -0.52,0.21 z"
         id="path11901" /><path
         style="fill:#000000;stroke-width:0"
         inkscape:connector-curvature="0"
         d="m 241.44,659.02 0,0 -0.01,-0.01 0,0 -0.01,0 0,0 -0.01,0 0,0 -0.01,0 0,0 -0.01,0 -0.01,0 0,0 -0.01,0 0,0 -0.01,0 0,-0.01 -0.01,0 0,0 -0.01,0 0,-0.01 -0.01,0 0,0 0,-0.01 0,0 -0.01,0 0,0 0,0 0,-0.01 0,0 0,0 0,0 -0.01,-0.01 0,0 0,0 0,-0.01 0,0 0,0 0,-0.01 0,0 0,0 0,-0.01 c 0,-0.03 0.02,-0.05 0.06,-0.1 0.6,-0.55 1.27,-1.49 1.27,-3.29 0,-1.45 -0.45,-2.55 -1.21,-3.23 -0.11,-0.12 -0.12,-0.12 -0.12,-0.16 0,-0.03 0.02,-0.08 0.09,-0.08 0.08,0 0.75,0.46 1.2,1.33 0.31,0.57 0.51,1.32 0.51,2.14 0,0.98 -0.29,2.5 -1.67,3.48 z"
         id="path11903" /></g>    <g
       style="font-style:normal;font-variant:normal;font-weight:normal;font-stretch:normal;letter-spacing:normal;word-spacing:normal;text-anchor:start;fill:none;stroke:#000000;stroke-linecap:butt;stroke-linejoin:miter;stroke-miterlimit:10.43299961;stroke-opacity:1;stroke-dasharray:none;stroke-dashoffset:0"
       ns0:preamble=""
       ns0:text="${-1} \\over {\\tau (T_2)}$"
       word-spacing="normal"
       letter-spacing="normal"
       font-size-adjust="none"
       font-stretch="normal"
       font-weight="normal"
       font-variant="normal"
       font-style="normal"
       stroke-miterlimit="10.433"
       xml:space="preserve"
       transform="matrix(1.7995141,0,0,-1.7995141,-163.08648,2052.3935)"
       id="g12029"><path
         id="path12031"
         d="m 234.36,662.73 0.01,0 0.01,0 0.01,0 0.01,0 0.03,0 0.01,0 0.01,0 0.01,0 0.01,0 0.02,0.01 0.01,0 0.01,0 0.01,0 0.01,0.01 0.01,0 0.01,0 0.01,0.01 0.01,0 0.01,0.01 0.01,0.01 0.01,0 0,0.01 0.01,0.01 0,0 0,0 0.01,0.01 0,0 0,0.01 0.01,0 0,0.01 0,0 0,0.01 0,0.01 0,0 0.01,0.01 0,0.01 0,0 0,0.01 0,0.01 0,0.01 c 0,0.17 -0.16,0.17 -0.28,0.17 h -4.15 c -0.11,0 -0.28,0 -0.28,-0.17 0,-0.17 0.16,-0.17 0.28,-0.17 z"
         inkscape:connector-curvature="0"
         style="fill:#000000;stroke-width:0" /><path
         id="path12033"
         d="m 237.74,665.58 0,0.01 0,0.01 0,0.01 0,0 0,0.01 0,0.01 0,0.01 0,0 0,0.01 0,0.01 0,0 0,0.01 0,0 0,0.01 -0.01,0.01 0,0 0,0.01 0,0 0,0.01 0,0.01 -0.01,0 0,0.01 0,0.01 -0.01,0 0,0.01 -0.01,0 0,0.01 -0.01,0 -0.01,0 -0.01,0.01 -0.01,0 0,0 -0.01,0 -0.01,0 0,0 -0.01,0 0,0 -0.01,0 0,0 -0.01,0 -0.01,0 -0.01,0 0,0 -0.01,0 -0.01,0 -0.01,0 0,0 -0.01,0 -0.01,0.01 -0.01,0 c -0.44,-0.44 -1.08,-0.45 -1.37,-0.45 v -0.25 c 0.17,0 0.63,0 1.02,0.2 v -3.55 c 0,-0.23 0,-0.32 -0.7,-0.32 h -0.27 v -0.25 c 0.13,0 0.99,0.03 1.24,0.03 0.22,0 1.1,-0.03 1.25,-0.03 v 0.25 h -0.26 c -0.7,0 -0.7,0.09 -0.7,0.32 z"
         inkscape:connector-curvature="0"
         style="fill:#000000;stroke-width:0" /><line
         id="line12035"
         y2="659.72998"
         x2="243.92999"
         y1="659.72998"
         x1="224.63"
         style="stroke-width:0.398" /><path
         id="path12037"
         d="m 227.02,656.32 h 1.29 c 0.08,0 0.37,0 0.37,0.28 0,0.2 -0.18,0.2 -0.3,0.2 h -2.19 c -0.2,0 -0.43,-0.02 -0.79,-0.35 -0.2,-0.18 -0.46,-0.55 -0.46,-0.61 0,-0.08 0.09,-0.08 0.12,-0.08 0.08,0 0.08,0.02 0.12,0.08 0.36,0.48 0.78,0.48 0.94,0.48 h 0.62 l -0.68,-2.22 c -0.04,-0.11 -0.04,-0.12 -0.04,-0.16 0,-0.19 0.18,-0.22 0.23,-0.22 0.26,0 0.31,0.25 0.34,0.34 z"
         inkscape:connector-curvature="0"
         style="fill:#000000;stroke-width:0" /><path
         id="path12039"
         d="m 231.58,659.02 -0.12,-0.09 -0.12,-0.1 -0.11,-0.09 -0.1,-0.1 -0.1,-0.1 -0.1,-0.1 -0.08,-0.1 -0.09,-0.11 -0.08,-0.11 -0.07,-0.11 -0.07,-0.11 -0.07,-0.11 -0.06,-0.12 -0.06,-0.11 -0.05,-0.11 -0.05,-0.12 -0.05,-0.12 -0.04,-0.11 -0.04,-0.12 -0.03,-0.12 -0.03,-0.11 -0.03,-0.12 -0.02,-0.11 -0.03,-0.12 -0.01,-0.11 -0.02,-0.11 -0.01,-0.11 -0.01,-0.11 -0.01,-0.11 -0.01,-0.1 0,-0.1 0,-0.11 c 0,-0.97 0.29,-2.5 1.67,-3.47 0.06,0 0.14,0 0.14,0.08 0,0.04 -0.02,0.06 -0.07,0.11 -0.93,0.83 -1.27,2.01 -1.27,3.28 0,1.88 0.72,2.79 1.29,3.31 0.03,0.03 0.05,0.05 0.05,0.08 0,0.09 -0.08,0.09 -0.14,0.09 z"
         inkscape:connector-curvature="0"
         style="fill:#000000;stroke-width:0" /><path
         id="path12041"
         d="m 235.61,658.01 0,0.01 0,0.01 0,0 0,0.01 0.01,0.01 0,0.01 0,0.01 0,0 0.01,0.02 0,0.01 0,0.02 0.01,0.01 0,0.01 0.01,0.01 0,0.01 0,0.01 0.01,0 0,0.01 0.01,0.01 0,0.01 0.01,0 0.01,0.01 0,0 0.01,0.01 0.01,0 0,0 0.01,0.01 0.01,0 0.01,0 0.01,0 0.01,0.01 0.01,0 0.01,0 0.01,0 0.02,0 0.01,0 c 0.04,0.01 0.28,0.01 0.42,0.01 0.42,0 0.61,0 0.78,-0.05 0.31,-0.1 0.33,-0.3 0.33,-0.55 0,-0.12 0,-0.21 -0.05,-0.57 l -0.02,-0.07 c 0,-0.07 0.05,-0.11 0.12,-0.11 0.11,0 0.12,0.06 0.14,0.18 l 0.18,1.32 c 0,0.1 -0.08,0.1 -0.21,0.1 h -4.28 c -0.17,0 -0.19,0 -0.24,-0.15 l -0.44,-1.23 c 0,-0.02 -0.03,-0.09 -0.03,-0.12 0,-0.03 0.01,-0.1 0.12,-0.1 0.09,0 0.1,0.04 0.15,0.17 0.4,1.11 0.63,1.18 1.69,1.18 h 0.29 c 0.21,0 0.22,-0.01 0.22,-0.07 0,-0.01 0,-0.04 -0.03,-0.15 l -0.92,-3.65 c -0.06,-0.26 -0.08,-0.33 -0.82,-0.33 -0.25,0 -0.31,0 -0.31,-0.15 0,-0.02 0.01,-0.1 0.12,-0.1 0.19,0 0.4,0.02 0.6,0.02 0.19,0 0.4,0.01 0.6,0.01 0.19,0 0.43,0 0.62,-0.01 0.19,-0.01 0.4,-0.02 0.59,-0.02 0.05,0 0.16,0 0.16,0.15 0,0.1 -0.07,0.1 -0.29,0.1 -0.13,0 -0.27,0.01 -0.4,0.01 -0.24,0.03 -0.25,0.05 -0.25,0.14 0,0.04 0,0.06 0.03,0.16 z"
         inkscape:connector-curvature="0"
         style="fill:#000000;stroke-width:0" /><path
         id="path12043"
         d="m 239.86,653.76 h -0.21 c -0.02,-0.09 -0.07,-0.4 -0.15,-0.45 -0.04,-0.03 -0.45,-0.03 -0.53,-0.03 H 238 c 0.32,0.24 0.69,0.52 0.99,0.72 0.45,0.31 0.87,0.6 0.87,1.12 0,0.64 -0.6,0.99 -1.32,0.99 -0.67,0 -1.16,-0.39 -1.16,-0.87 0,-0.26 0.22,-0.31 0.29,-0.31 0.13,0 0.29,0.09 0.29,0.3 0,0.18 -0.13,0.28 -0.28,0.29 0.14,0.22 0.43,0.37 0.76,0.37 0.48,0 0.88,-0.29 0.88,-0.77 0,-0.42 -0.28,-0.74 -0.67,-1.06 l -1.21,-1.03 c -0.05,-0.04 -0.06,-0.04 -0.06,-0.08 v -0.15 h 2.31 z"
         inkscape:connector-curvature="0"
         style="fill:#000000;stroke-width:0" /><path
         id="path12045"
         d="m 241.44,659.02 0,0 -0.01,-0.01 0,0 -0.01,0 0,0 -0.01,0 0,0 -0.01,0 0,0 -0.01,0 -0.01,0 0,0 -0.01,0 0,0 -0.01,0 0,-0.01 -0.01,0 0,0 -0.01,0 0,-0.01 -0.01,0 0,0 0,-0.01 0,0 -0.01,0 0,0 0,0 0,-0.01 0,0 0,0 0,0 -0.01,-0.01 0,0 0,0 0,-0.01 0,0 0,0 0,-0.01 0,0 0,0 0,-0.01 c 0,-0.03 0.02,-0.05 0.06,-0.1 0.6,-0.55 1.27,-1.49 1.27,-3.29 0,-1.45 -0.45,-2.55 -1.21,-3.23 -0.11,-0.12 -0.12,-0.12 -0.12,-0.16 0,-0.03 0.02,-0.08 0.09,-0.08 0.08,0 0.75,0.46 1.2,1.33 0.31,0.57 0.51,1.32 0.51,2.14 0,0.98 -0.29,2.5 -1.67,3.48 z"
         inkscape:connector-curvature="0"
         style="fill:#000000;stroke-width:0" /></g>  </g>
</svg>
