<?xml version="1.0" encoding="UTF-8" standalone="no"?>
<!-- Created with Inkscape (http://www.inkscape.org/) -->

<svg
   xmlns:ns0="http://www.iki.fi/pav/software/textext/"
   xmlns:dc="http://purl.org/dc/elements/1.1/"
   xmlns:cc="http://creativecommons.org/ns#"
   xmlns:rdf="http://www.w3.org/1999/02/22-rdf-syntax-ns#"
   xmlns:svg="http://www.w3.org/2000/svg"
   xmlns="http://www.w3.org/2000/svg"
   xmlns:xlink="http://www.w3.org/1999/xlink"
   xmlns:sodipodi="http://sodipodi.sourceforge.net/DTD/sodipodi-0.dtd"
   xmlns:inkscape="http://www.inkscape.org/namespaces/inkscape"
   width="449.47672"
   height="234.89532"
   id="svg2"
   version="1.1"
   inkscape:version="0.91 r"
   sodipodi:docname="CSZPox.svg">
  <sodipodi:namedview
     id="base"
     pagecolor="#ffffff"
     bordercolor="#666666"
     borderopacity="1.0"
     inkscape:pageopacity="0.0"
     inkscape:pageshadow="2"
     inkscape:zoom="1.4"
     inkscape:cx="93.608016"
     inkscape:cy="36.410421"
     inkscape:document-units="px"
     inkscape:current-layer="layer1"
     showgrid="true"
     units="in"
     width="11cm"
     inkscape:window-width="1920"
     inkscape:window-height="1053"
     inkscape:window-x="0"
     inkscape:window-y="0"
     inkscape:window-maximized="1"
     fit-margin-top="0"
     fit-margin-left="0"
     fit-margin-right="0"
     fit-margin-bottom="0"
     inkscape:snap-grids="false">
    <inkscape:grid
       spacingy="2px"
       spacingx="2px"
       snapvisiblegridlinesonly="true"
       enabled="true"
       visible="true"
       empspacing="5"
       id="grid2984"
       type="xygrid"
       originx="-135.58447"
       originy="-120.29986" />
  </sodipodi:namedview>
  <defs
     id="defs4">
    <marker
       inkscape:stockid="Arrow2Lend"
       orient="auto"
       refY="0"
       refX="0"
       id="Arrow2Lend"
       style="overflow:visible">
      <path
         id="path4080"
         style="fill-rule:evenodd;stroke-width:0.625;stroke-linejoin:round"
         d="M 8.7185878,4.0337352 -2.2072895,0.01601326 8.7185884,-4.0017078 c -1.7454984,2.3720609 -1.7354408,5.6174519 -6e-7,8.035443 z"
         transform="matrix(-1.1,0,0,-1.1,-1.1,0)"
         inkscape:connector-curvature="0" />
    </marker>
    <marker
       inkscape:stockid="Arrow2Lstart"
       orient="auto"
       refY="0"
       refX="0"
       id="Arrow2Lstart"
       style="overflow:visible">
      <path
         id="path4077"
         style="fill-rule:evenodd;stroke-width:0.625;stroke-linejoin:round"
         d="M 8.7185878,4.0337352 -2.2072895,0.01601326 8.7185884,-4.0017078 c -1.7454984,2.3720609 -1.7354408,5.6174519 -6e-7,8.035443 z"
         transform="matrix(1.1,0,0,1.1,1.1,0)"
         inkscape:connector-curvature="0" />
    </marker>
    <marker
       inkscape:stockid="Arrow2Mend"
       orient="auto"
       refY="0"
       refX="0"
       id="Arrow2Mend"
       style="overflow:visible">
      <path
         inkscape:connector-curvature="0"
         id="path3966"
         style="fill-rule:evenodd;stroke-width:0.625;stroke-linejoin:round"
         d="M 8.7185878,4.0337352 -2.2072895,0.01601326 8.7185884,-4.0017078 c -1.7454984,2.3720609 -1.7354408,5.6174519 -6e-7,8.035443 z"
         transform="scale(-0.6,-0.6)" />
    </marker>
  </defs>
  <metadata
     id="metadata7">
    <rdf:RDF>
      <cc:Work
         rdf:about="">
        <dc:format>image/svg+xml</dc:format>
        <dc:type
           rdf:resource="http://purl.org/dc/dcmitype/StillImage" />
        <dc:title />
      </cc:Work>
    </rdf:RDF>
  </metadata>
  <g
     inkscape:label="Layer 1"
     inkscape:groupmode="layer"
     id="layer1"
     transform="translate(-72.556109,-720.85205)">
    <path
       sodipodi:nodetypes="ccc"
       transform="translate(-63.028358,665.51153)"
       inkscape:connector-curvature="0"
       id="path35997"
       d="m 190,70.535706 0,190.000004 290,0"
       style="fill:none;stroke:#000000;stroke-width:1px;stroke-linecap:butt;stroke-linejoin:miter;stroke-opacity:1" />
    <path
       transform="translate(-63.028358,665.51153)"
       inkscape:connector-curvature="0"
       id="path35999"
       d="m 190,170.53571 130,0"
       style="fill:none;stroke:#000000;stroke-width:1;stroke-linecap:butt;stroke-linejoin:miter;stroke-miterlimit:4;stroke-dasharray:8, 8;stroke-dashoffset:0;stroke-opacity:1"
       sodipodi:nodetypes="cc" />
    <path
       transform="translate(-63.028358,665.51153)"
       inkscape:connector-curvature="0"
       id="path36001"
       d="M 320,260.53571 320,70.535706"
       style="fill:none;stroke:#000000;stroke-width:1;stroke-linecap:butt;stroke-linejoin:miter;stroke-miterlimit:4;stroke-dasharray:8, 8;stroke-dashoffset:0;stroke-opacity:1" />
    <path
       transform="translate(-63.028358,665.51153)"
       inkscape:connector-curvature="0"
       id="path36003"
       d="m 190,110.53571 130,60"
       style="fill:none;stroke:#000000;stroke-width:1px;stroke-linecap:butt;stroke-linejoin:miter;stroke-opacity:1" />
    <path
       transform="translate(-63.028358,665.51153)"
       inkscape:connector-curvature="0"
       id="path36005"
       d="m 190,100.53571 130,60 80,100"
       style="fill:none;stroke:#000000;stroke-width:1px;stroke-linecap:butt;stroke-linejoin:miter;stroke-opacity:1" />
    <path
       sodipodi:nodetypes="cc"
       transform="translate(-63.028358,665.51153)"
       inkscape:connector-curvature="0"
       id="path36007"
       d="m 230,80.535706 0,40.000004"
       style="fill:none;stroke:#000000;stroke-width:1px;stroke-linecap:butt;stroke-linejoin:miter;stroke-opacity:1;marker-start:none;marker-end:url(#Arrow2Lend)" />
    <path
       sodipodi:nodetypes="cc"
       transform="translate(-63.028358,665.51153)"
       inkscape:connector-curvature="0"
       id="path36009"
       d="m 280,150.53571 0,-70.000004"
       style="fill:none;stroke:#000000;stroke-width:1px;stroke-linecap:butt;stroke-linejoin:miter;stroke-opacity:1;marker-start:url(#Arrow2Lstart)" />
    <path
       transform="translate(-63.028358,665.51153)"
       inkscape:connector-curvature="0"
       id="path36011"
       d="m 400,170.53571 0,-90.000004"
       style="fill:none;stroke:#000000;stroke-width:1px;stroke-linecap:butt;stroke-linejoin:miter;stroke-opacity:1;marker-start:url(#Arrow2Lstart);marker-end:none" />
    <path
       inkscape:connector-curvature="0"
       id="path36013"
       d="m 164.1145,796.04724 0,10 20,0"
       style="fill:none;stroke:#000000;stroke-width:1px;stroke-linecap:butt;stroke-linejoin:miter;stroke-opacity:1" />
    <text
       sodipodi:linespacing="100%"
       id="text36015"
       y="813.19012"
       x="134.8288"
       style="font-style:normal;font-variant:normal;font-weight:500;font-stretch:normal;font-size:16px;line-height:100%;font-family:Rekha;-inkscape-font-specification:'Rekha Medium';text-align:start;letter-spacing:0px;word-spacing:0px;writing-mode:lr-tb;text-anchor:start;fill:#000000;fill-opacity:1;stroke:none"
       xml:space="preserve"><tspan
         y="813.19012"
         x="134.8288"
         id="tspan36017"
         sodipodi:role="line">-1/6</tspan></text>
    <g
       id="g36038"
       ns0:preamble=""
       ns0:text="$n = 2[V_{\\ddot{o}}]$"
       transform="matrix(1.6858285,0,0,1.6858285,-213.43964,506.27875)">
      <defs
         id="defs36040">
        <g
           id="g36042">
          <symbol
             id="textext-2e4f0cbe-0"
             overflow="visible"
             style="overflow:visible">
            <path
               id="path36045"
               d=""
               style="stroke:none"
               inkscape:connector-curvature="0" />
          </symbol>
          <symbol
             id="textext-2e4f0cbe-1"
             overflow="visible"
             style="overflow:visible">
            <path
               id="path36048"
               d="m 0.875,-0.59375 c -0.03125,0.15625 -0.09375,0.390625 -0.09375,0.4375 0,0.171875 0.140625,0.265625 0.296875,0.265625 0.125,0 0.296875,-0.078125 0.375,-0.28125 0,-0.015625 0.125,-0.484375 0.1875,-0.734375 l 0.21875,-0.890625 C 1.90625,-2.03125 1.96875,-2.25 2.03125,-2.46875 c 0.03125,-0.171875 0.109375,-0.46875 0.125,-0.5 0.140625,-0.3125 0.671875,-1.21875 1.625,-1.21875 0.453125,0 0.53125,0.375 0.53125,0.703125 0,0.609375 -0.484375,1.890625 -0.640625,2.3125 C 3.578125,-0.9375 3.5625,-0.8125 3.5625,-0.703125 c 0,0.46875 0.359375,0.8125 0.828125,0.8125 0.9375,0 1.296875,-1.453125 1.296875,-1.53125 0,-0.109375 -0.078125,-0.109375 -0.109375,-0.109375 -0.109375,0 -0.109375,0.03125 -0.15625,0.1875 -0.203125,0.671875 -0.53125,1.234375 -1.015625,1.234375 -0.171875,0 -0.234375,-0.09375 -0.234375,-0.328125 0,-0.25 0.078125,-0.484375 0.171875,-0.703125 0.1875,-0.53125 0.609375,-1.625 0.609375,-2.203125 0,-0.65625 -0.421875,-1.0625 -1.140625,-1.0625 -0.90625,0 -1.390625,0.640625 -1.5625,0.875 -0.046875,-0.5625 -0.453125,-0.875 -0.921875,-0.875 -0.453125,0 -0.640625,0.390625 -0.734375,0.5625 C 0.421875,-3.5 0.296875,-2.90625 0.296875,-2.875 c 0,0.109375 0.09375,0.109375 0.109375,0.109375 0.109375,0 0.109375,-0.015625 0.171875,-0.234375 0.171875,-0.703125 0.375,-1.1875 0.734375,-1.1875 0.1875,0 0.296875,0.125 0.296875,0.453125 0,0.21875 -0.03125,0.328125 -0.15625,0.84375 z m 0,0"
               style="stroke:none"
               inkscape:connector-curvature="0" />
          </symbol>
          <symbol
             id="textext-2e4f0cbe-2"
             overflow="visible"
             style="overflow:visible">
            <path
               id="path36051"
               d="M 6.265625,-5.671875 C 6.75,-6.453125 7.171875,-6.484375 7.53125,-6.5 c 0.125,-0.015625 0.140625,-0.171875 0.140625,-0.1875 0,-0.078125 -0.0625,-0.125 -0.140625,-0.125 -0.25,0 -0.546875,0.03125 -0.8125,0.03125 -0.328125,0 -0.671875,-0.03125 -0.984375,-0.03125 -0.0625,0 -0.1875,0 -0.1875,0.1875 0,0.109375 0.078125,0.125 0.15625,0.125 0.265625,0.015625 0.453125,0.125 0.453125,0.328125 0,0.15625 -0.140625,0.375 -0.140625,0.375 l -3.0625,4.875 -0.6875,-5.28125 C 2.265625,-6.375 2.5,-6.5 2.953125,-6.5 c 0.140625,0 0.25,0 0.25,-0.203125 0,-0.078125 -0.078125,-0.109375 -0.125,-0.109375 -0.40625,0 -0.828125,0.03125 -1.25,0.03125 -0.171875,0 -0.359375,0 -0.546875,0 -0.171875,0 -0.359375,-0.03125 -0.53125,-0.03125 -0.078125,0 -0.1875,0 -0.1875,0.1875 0,0.125 0.078125,0.125 0.25,0.125 0.546875,0 0.5625,0.09375 0.59375,0.34375 L 2.1875,-0.015625 C 2.21875,0.1875 2.265625,0.21875 2.390625,0.21875 c 0.15625,0 0.203125,-0.046875 0.28125,-0.171875 z m 0,0"
               style="stroke:none"
               inkscape:connector-curvature="0" />
          </symbol>
          <symbol
             id="textext-2e4f0cbe-3"
             overflow="visible"
             style="overflow:visible">
            <path
               id="path36054"
               d=""
               style="stroke:none"
               inkscape:connector-curvature="0" />
          </symbol>
          <symbol
             id="textext-2e4f0cbe-4"
             overflow="visible"
             style="overflow:visible">
            <path
               id="path36057"
               d="m 6.84375,-3.265625 c 0.15625,0 0.34375,0 0.34375,-0.1875 C 7.1875,-3.65625 7,-3.65625 6.859375,-3.65625 l -5.96875,0 c -0.140625,0 -0.328125,0 -0.328125,0.203125 0,0.1875 0.1875,0.1875 0.328125,0.1875 z m 0.015625,1.9375 c 0.140625,0 0.328125,0 0.328125,-0.203125 0,-0.1875 -0.1875,-0.1875 -0.34375,-0.1875 l -5.953125,0 c -0.140625,0 -0.328125,0 -0.328125,0.1875 0,0.203125 0.1875,0.203125 0.328125,0.203125 z m 0,0"
               style="stroke:none"
               inkscape:connector-curvature="0" />
          </symbol>
          <symbol
             id="textext-2e4f0cbe-5"
             overflow="visible"
             style="overflow:visible">
            <path
               id="path36060"
               d="m 1.265625,-0.765625 1.0625,-1.03125 c 1.546875,-1.375 2.140625,-1.90625 2.140625,-2.90625 0,-1.140625 -0.890625,-1.9375 -2.109375,-1.9375 -1.125,0 -1.859375,0.921875 -1.859375,1.8125 0,0.546875 0.5,0.546875 0.53125,0.546875 0.171875,0 0.515625,-0.109375 0.515625,-0.53125 0,-0.25 -0.1875,-0.515625 -0.53125,-0.515625 -0.078125,0 -0.09375,0 -0.125,0.015625 0.21875,-0.65625 0.765625,-1.015625 1.34375,-1.015625 0.90625,0 1.328125,0.8125 1.328125,1.625 C 3.5625,-3.90625 3.078125,-3.125 2.515625,-2.5 l -1.90625,2.125 C 0.5,-0.265625 0.5,-0.234375 0.5,0 l 3.703125,0 0.265625,-1.734375 -0.234375,0 C 4.171875,-1.4375 4.109375,-1 4,-0.84375 3.9375,-0.765625 3.28125,-0.765625 3.0625,-0.765625 Z m 0,0"
               style="stroke:none"
               inkscape:connector-curvature="0" />
          </symbol>
          <symbol
             id="textext-2e4f0cbe-6"
             overflow="visible"
             style="overflow:visible">
            <path
               id="path36063"
               d="m 2.546875,2.5 0,-0.40625 -0.96875,0 0,-9.171875 0.96875,0 0,-0.40625 -1.375,0 0,9.984375 z m 0,0"
               style="stroke:none"
               inkscape:connector-curvature="0" />
          </symbol>
          <symbol
             id="textext-2e4f0cbe-7"
             overflow="visible"
             style="overflow:visible">
            <path
               id="path36066"
               d="m 1.578125,-7.484375 -1.359375,0 0,0.40625 0.96875,0 0,9.171875 -0.96875,0 0,0.40625 1.359375,0 z m 0,0"
               style="stroke:none"
               inkscape:connector-curvature="0" />
          </symbol>
          <symbol
             id="textext-2e4f0cbe-8"
             overflow="visible"
             style="overflow:visible">
            <path
               id="path36069"
               d=""
               style="stroke:none"
               inkscape:connector-curvature="0" />
          </symbol>
          <symbol
             id="textext-2e4f0cbe-9"
             overflow="visible"
             style="overflow:visible">
            <path
               id="path36072"
               d="m 1.609375,-4.328125 c 0,-0.203125 -0.171875,-0.375 -0.375,-0.375 -0.203125,0 -0.375,0.171875 -0.375,0.375 0,0.21875 0.171875,0.390625 0.375,0.390625 0.203125,0 0.375,-0.171875 0.375,-0.390625 z m 1.484375,0 c 0,-0.203125 -0.171875,-0.375 -0.375,-0.375 -0.203125,0 -0.375,0.171875 -0.375,0.375 0,0.21875 0.171875,0.390625 0.375,0.390625 0.203125,0 0.375,-0.171875 0.375,-0.390625 z m 0,0"
               style="stroke:none"
               inkscape:connector-curvature="0" />
          </symbol>
          <symbol
             id="textext-2e4f0cbe-10"
             overflow="visible"
             style="overflow:visible">
            <path
               id="path36075"
               d=""
               style="stroke:none"
               inkscape:connector-curvature="0" />
          </symbol>
          <symbol
             id="textext-2e4f0cbe-11"
             overflow="visible"
             style="overflow:visible">
            <path
               id="path36078"
               d="m 3.703125,-1.859375 c 0,-0.765625 -0.578125,-1.21875 -1.265625,-1.21875 -1.03125,0 -2,0.96875 -2,1.921875 0,0.703125 0.5,1.21875 1.265625,1.21875 1,0 2,-0.90625 2,-1.921875 z m -2,1.734375 c -0.34375,0 -0.6875,-0.21875 -0.6875,-0.78125 0,-0.28125 0.125,-0.96875 0.40625,-1.359375 C 1.71875,-2.703125 2.125,-2.875 2.4375,-2.875 c 0.375,0 0.6875,0.25 0.6875,0.765625 C 3.125,-1.9375 3.046875,-1.25 2.734375,-0.765625 2.46875,-0.34375 2.0625,-0.125 1.703125,-0.125 Z m 0,0"
               style="stroke:none"
               inkscape:connector-curvature="0" />
          </symbol>
        </g>
      </defs>
      <g
         id="textext-2e4f0cbe-12">
        <g
           id="g36081"
           style="fill:#000000;fill-opacity:1">
          <use
             id="use36083"
             y="134.765"
             x="223.43201"
             xlink:href="#textext-2e4f0cbe-1"
             width="666.37817"
             height="410.53571" />
        </g>
        <g
           id="g36085"
           style="fill:#000000;fill-opacity:1">
          <use
             id="use36087"
             y="134.765"
             x="232.179"
             xlink:href="#textext-2e4f0cbe-4"
             width="666.37817"
             height="410.53571" />
        </g>
        <g
           id="g36089"
           style="fill:#000000;fill-opacity:1">
          <use
             id="use36091"
             y="134.765"
             x="242.69751"
             xlink:href="#textext-2e4f0cbe-5"
             width="666.37817"
             height="410.53571" />
          <use
             id="use36093"
             y="134.765"
             x="247.67882"
             xlink:href="#textext-2e4f0cbe-6"
             width="666.37817"
             height="410.53571" />
        </g>
        <g
           id="g36095"
           style="fill:#000000;fill-opacity:1">
          <use
             id="use36097"
             y="134.765"
             x="250.444"
             xlink:href="#textext-2e4f0cbe-2"
             width="666.37817"
             height="410.53571" />
        </g>
        <g
           id="g36099"
           style="fill:#000000;fill-opacity:1">
          <use
             id="use36101"
             y="136.259"
             x="256.66501"
             xlink:href="#textext-2e4f0cbe-9"
             width="666.37817"
             height="410.53571" />
        </g>
        <g
           id="g36103"
           style="fill:#000000;fill-opacity:1">
          <use
             id="use36105"
             y="136.259"
             x="256.25601"
             xlink:href="#textext-2e4f0cbe-11"
             width="666.37817"
             height="410.53571" />
        </g>
        <g
           id="g36107"
           style="fill:#000000;fill-opacity:1">
          <use
             id="use36109"
             y="134.765"
             x="260.686"
             xlink:href="#textext-2e4f0cbe-7"
             width="666.37817"
             height="410.53571" />
        </g>
      </g>
    </g>
    <text
       xml:space="preserve"
       style="font-style:normal;font-variant:normal;font-weight:500;font-stretch:normal;font-size:16.84382629px;line-height:100%;font-family:Rekha;-inkscape-font-specification:'Rekha Medium';text-align:start;letter-spacing:0px;word-spacing:0px;writing-mode:lr-tb;text-anchor:start;fill:#000000;fill-opacity:1;stroke:none"
       x="439.81482"
       y="822.30701"
       id="text37161"
       sodipodi:linespacing="100%"><tspan
         sodipodi:role="line"
         id="tspan37163"
         x="439.81482"
         y="822.30701">T = const</tspan></text>
    <text
       xml:space="preserve"
       style="font-style:normal;font-variant:normal;font-weight:500;font-stretch:normal;font-size:16px;line-height:100%;font-family:Rekha;-inkscape-font-specification:'Rekha Medium';text-align:start;letter-spacing:0px;word-spacing:0px;writing-mode:lr-tb;text-anchor:start;fill:#000000;fill-opacity:1;stroke:none"
       x="65"
       y="174.10713"
       id="text37165"
       sodipodi:linespacing="100%"
       transform="translate(-63.028358,665.51153)"><tspan
         sodipodi:role="line"
         id="tspan37167"
         x="65"
         y="174.10713" /></text>
    <g
       id="g37756"
       transform="matrix(1.6777276,0,0,1.6777276,-138.077,726.21432)"
       ns0:preamble=""
       ns0:text="$\\mathrm{log Po_2}$">
      <defs
         id="defs37758">
        <g
           id="g37760">
          <symbol
             id="textext-8a775530-0"
             overflow="visible"
             style="overflow:visible">
            <path
               id="path37763"
               d=""
               style="stroke:none"
               inkscape:connector-curvature="0" />
          </symbol>
          <symbol
             id="textext-8a775530-1"
             overflow="visible"
             style="overflow:visible">
            <path
               id="path37766"
               d="m 1.765625,-6.921875 -1.4375,0.109375 0,0.3125 c 0.703125,0 0.78125,0.0625 0.78125,0.5625 l 0,5.1875 c 0,0.4375 -0.109375,0.4375 -0.78125,0.4375 l 0,0.3125 C 0.65625,-0.015625 1.1875,-0.03125 1.4375,-0.03125 c 0.25,0 0.734375,0.015625 1.109375,0.03125 l 0,-0.3125 c -0.671875,0 -0.78125,0 -0.78125,-0.4375 z m 0,0"
               style="stroke:none"
               inkscape:connector-curvature="0" />
          </symbol>
          <symbol
             id="textext-8a775530-2"
             overflow="visible"
             style="overflow:visible">
            <path
               id="path37769"
               d="M 4.6875,-2.140625 C 4.6875,-3.40625 3.703125,-4.46875 2.5,-4.46875 c -1.25,0 -2.21875,1.09375 -2.21875,2.328125 0,1.296875 1.03125,2.25 2.203125,2.25 1.203125,0 2.203125,-0.984375 2.203125,-2.25 z m -2.1875,2 c -0.4375,0 -0.875,-0.203125 -1.140625,-0.671875 -0.25,-0.4375 -0.25,-1.046875 -0.25,-1.40625 0,-0.390625 0,-0.921875 0.234375,-1.359375 C 1.609375,-4.03125 2.078125,-4.25 2.484375,-4.25 c 0.4375,0 0.859375,0.21875 1.125,0.65625 0.265625,0.421875 0.265625,1 0.265625,1.375 0,0.359375 0,0.90625 -0.21875,1.34375 C 3.421875,-0.421875 2.984375,-0.140625 2.5,-0.140625 Z m 0,0"
               style="stroke:none"
               inkscape:connector-curvature="0" />
          </symbol>
          <symbol
             id="textext-8a775530-3"
             overflow="visible"
             style="overflow:visible">
            <path
               id="path37772"
               d="m 2.21875,-1.71875 c -0.875,0 -0.875,-1 -0.875,-1.21875 0,-0.265625 0.015625,-0.59375 0.15625,-0.84375 0.078125,-0.109375 0.3125,-0.390625 0.71875,-0.390625 0.859375,0 0.859375,0.984375 0.859375,1.21875 0,0.265625 0,0.59375 -0.15625,0.84375 C 2.84375,-2 2.609375,-1.71875 2.21875,-1.71875 Z M 1.0625,-1.328125 c 0,-0.03125 0,-0.265625 0.15625,-0.46875 0.390625,0.28125 0.8125,0.3125 1,0.3125 0.921875,0 1.609375,-0.6875 1.609375,-1.453125 0,-0.375 -0.15625,-0.734375 -0.40625,-0.96875 C 3.78125,-4.25 4.140625,-4.296875 4.3125,-4.296875 c 0.03125,0 0.078125,0 0.109375,0.015625 C 4.3125,-4.25 4.25,-4.140625 4.25,-4.015625 c 0,0.171875 0.140625,0.28125 0.296875,0.28125 0.09375,0 0.28125,-0.0625 0.28125,-0.296875 0,-0.171875 -0.109375,-0.484375 -0.5,-0.484375 -0.203125,0 -0.640625,0.0625 -1.0625,0.46875 C 2.84375,-4.375 2.4375,-4.40625 2.21875,-4.40625 c -0.9375,0 -1.625,0.6875 -1.625,1.453125 0,0.4375 0.21875,0.8125 0.46875,1.03125 -0.125,0.140625 -0.3125,0.46875 -0.3125,0.828125 0,0.3125 0.140625,0.6875 0.453125,0.890625 -0.609375,0.15625 -0.921875,0.59375 -0.921875,0.984375 0,0.71875 0.984375,1.265625 2.203125,1.265625 1.171875,0 2.203125,-0.5 2.203125,-1.28125 0,-0.34375 -0.125,-0.859375 -0.640625,-1.140625 -0.53125,-0.265625 -1.109375,-0.265625 -1.71875,-0.265625 -0.25,0 -0.671875,0 -0.75,-0.015625 C 1.265625,-0.703125 1.0625,-1 1.0625,-1.328125 Z M 2.5,1.828125 c -1.015625,0 -1.703125,-0.515625 -1.703125,-1.046875 0,-0.453125 0.375,-0.828125 0.8125,-0.84375 l 0.59375,0 c 0.859375,0 1.96875,0 1.96875,0.84375 0,0.546875 -0.703125,1.046875 -1.671875,1.046875 z m 0,0"
               style="stroke:none"
               inkscape:connector-curvature="0" />
          </symbol>
          <symbol
             id="textext-8a775530-4"
             overflow="visible"
             style="overflow:visible">
            <path
               id="path37775"
               d="m 2.265625,-3.15625 1.6875,0 c 1.1875,0 2.265625,-0.796875 2.265625,-1.796875 C 6.21875,-5.9375 5.234375,-6.8125 3.875,-6.8125 l -3.53125,0 0,0.3125 0.25,0 c 0.765625,0 0.78125,0.109375 0.78125,0.46875 l 0,5.25 c 0,0.359375 -0.015625,0.46875 -0.78125,0.46875 l -0.25,0 0,0.3125 c 0.359375,-0.03125 1.09375,-0.03125 1.46875,-0.03125 0.375,0 1.125,0 1.484375,0.03125 l 0,-0.3125 -0.25,0 c -0.765625,0 -0.78125,-0.109375 -0.78125,-0.46875 z m -0.03125,-0.25 0,-2.6875 C 2.234375,-6.4375 2.25,-6.5 2.71875,-6.5 l 0.890625,0 c 1.578125,0 1.578125,1.0625 1.578125,1.546875 0,0.46875 0,1.546875 -1.578125,1.546875 z m 0,0"
               style="stroke:none"
               inkscape:connector-curvature="0" />
          </symbol>
          <symbol
             id="textext-8a775530-5"
             overflow="visible"
             style="overflow:visible">
            <path
               id="path37778"
               d=""
               style="stroke:none"
               inkscape:connector-curvature="0" />
          </symbol>
          <symbol
             id="textext-8a775530-6"
             overflow="visible"
             style="overflow:visible">
            <path
               id="path37781"
               d="m 3.515625,-1.265625 -0.234375,0 c -0.015625,0.15625 -0.09375,0.5625 -0.1875,0.625 -0.046875,0.046875 -0.578125,0.046875 -0.6875,0.046875 l -1.28125,0 c 0.734375,-0.640625 0.984375,-0.84375 1.390625,-1.171875 0.515625,-0.40625 1,-0.84375 1,-1.5 0,-0.84375 -0.734375,-1.359375 -1.625,-1.359375 -0.859375,0 -1.453125,0.609375 -1.453125,1.25 0,0.34375 0.296875,0.390625 0.375,0.390625 0.15625,0 0.359375,-0.125 0.359375,-0.375 0,-0.125 -0.046875,-0.375 -0.40625,-0.375 C 0.984375,-4.21875 1.453125,-4.375 1.78125,-4.375 c 0.703125,0 1.0625,0.546875 1.0625,1.109375 0,0.609375 -0.4375,1.078125 -0.65625,1.328125 L 0.515625,-0.265625 C 0.4375,-0.203125 0.4375,-0.1875 0.4375,0 l 2.875,0 z m 0,0"
               style="stroke:none"
               inkscape:connector-curvature="0" />
          </symbol>
        </g>
      </defs>
      <g
         id="textext-8a775530-7">
        <g
           id="g37784"
           style="fill:#000000;fill-opacity:1">
          <use
             id="use37786"
             y="134.765"
             x="223.43201"
             xlink:href="#textext-8a775530-1"
             width="666.37817"
             height="410.53571" />
          <use
             id="use37788"
             y="134.765"
             x="226.19962"
             xlink:href="#textext-8a775530-2"
             width="666.37817"
             height="410.53571" />
          <use
             id="use37790"
             y="134.765"
             x="231.18091"
             xlink:href="#textext-8a775530-3"
             width="666.37817"
             height="410.53571" />
          <use
             id="use37792"
             y="134.765"
             x="236.16222"
             xlink:href="#textext-8a775530-4"
             width="666.37817"
             height="410.53571" />
        </g>
        <g
           id="g37794"
           style="fill:#000000;fill-opacity:1">
          <use
             id="use37796"
             y="134.765"
             x="242.6638"
             xlink:href="#textext-8a775530-2"
             width="666.37817"
             height="410.53571" />
        </g>
        <g
           id="g37798"
           style="fill:#000000;fill-opacity:1">
          <use
             id="use37800"
             y="136.259"
             x="247.647"
             xlink:href="#textext-8a775530-6"
             width="666.37817"
             height="410.53571" />
        </g>
      </g>
    </g>
    <g
       id="g38868"
       transform="matrix(1.6777276,0,0,1.6777276,-302.85244,612.60916)"
       ns0:preamble=""
       ns0:text="$\\mathrm{log [ ]}$">
      <defs
         id="defs38870">
        <g
           id="g38872">
          <symbol
             id="textext-b8f86e3d-0"
             overflow="visible"
             style="overflow:visible">
            <path
               id="path38875"
               d=""
               style="stroke:none"
               inkscape:connector-curvature="0" />
          </symbol>
          <symbol
             id="textext-b8f86e3d-1"
             overflow="visible"
             style="overflow:visible">
            <path
               id="path38878"
               d="m 1.765625,-6.921875 -1.4375,0.109375 0,0.3125 c 0.703125,0 0.78125,0.0625 0.78125,0.5625 l 0,5.1875 c 0,0.4375 -0.109375,0.4375 -0.78125,0.4375 l 0,0.3125 C 0.65625,-0.015625 1.1875,-0.03125 1.4375,-0.03125 c 0.25,0 0.734375,0.015625 1.109375,0.03125 l 0,-0.3125 c -0.671875,0 -0.78125,0 -0.78125,-0.4375 z m 0,0"
               style="stroke:none"
               inkscape:connector-curvature="0" />
          </symbol>
          <symbol
             id="textext-b8f86e3d-2"
             overflow="visible"
             style="overflow:visible">
            <path
               id="path38881"
               d="M 4.6875,-2.140625 C 4.6875,-3.40625 3.703125,-4.46875 2.5,-4.46875 c -1.25,0 -2.21875,1.09375 -2.21875,2.328125 0,1.296875 1.03125,2.25 2.203125,2.25 1.203125,0 2.203125,-0.984375 2.203125,-2.25 z m -2.1875,2 c -0.4375,0 -0.875,-0.203125 -1.140625,-0.671875 -0.25,-0.4375 -0.25,-1.046875 -0.25,-1.40625 0,-0.390625 0,-0.921875 0.234375,-1.359375 C 1.609375,-4.03125 2.078125,-4.25 2.484375,-4.25 c 0.4375,0 0.859375,0.21875 1.125,0.65625 0.265625,0.421875 0.265625,1 0.265625,1.375 0,0.359375 0,0.90625 -0.21875,1.34375 C 3.421875,-0.421875 2.984375,-0.140625 2.5,-0.140625 Z m 0,0"
               style="stroke:none"
               inkscape:connector-curvature="0" />
          </symbol>
          <symbol
             id="textext-b8f86e3d-3"
             overflow="visible"
             style="overflow:visible">
            <path
               id="path38884"
               d="m 2.21875,-1.71875 c -0.875,0 -0.875,-1 -0.875,-1.21875 0,-0.265625 0.015625,-0.59375 0.15625,-0.84375 0.078125,-0.109375 0.3125,-0.390625 0.71875,-0.390625 0.859375,0 0.859375,0.984375 0.859375,1.21875 0,0.265625 0,0.59375 -0.15625,0.84375 C 2.84375,-2 2.609375,-1.71875 2.21875,-1.71875 Z M 1.0625,-1.328125 c 0,-0.03125 0,-0.265625 0.15625,-0.46875 0.390625,0.28125 0.8125,0.3125 1,0.3125 0.921875,0 1.609375,-0.6875 1.609375,-1.453125 0,-0.375 -0.15625,-0.734375 -0.40625,-0.96875 C 3.78125,-4.25 4.140625,-4.296875 4.3125,-4.296875 c 0.03125,0 0.078125,0 0.109375,0.015625 C 4.3125,-4.25 4.25,-4.140625 4.25,-4.015625 c 0,0.171875 0.140625,0.28125 0.296875,0.28125 0.09375,0 0.28125,-0.0625 0.28125,-0.296875 0,-0.171875 -0.109375,-0.484375 -0.5,-0.484375 -0.203125,0 -0.640625,0.0625 -1.0625,0.46875 C 2.84375,-4.375 2.4375,-4.40625 2.21875,-4.40625 c -0.9375,0 -1.625,0.6875 -1.625,1.453125 0,0.4375 0.21875,0.8125 0.46875,1.03125 -0.125,0.140625 -0.3125,0.46875 -0.3125,0.828125 0,0.3125 0.140625,0.6875 0.453125,0.890625 -0.609375,0.15625 -0.921875,0.59375 -0.921875,0.984375 0,0.71875 0.984375,1.265625 2.203125,1.265625 1.171875,0 2.203125,-0.5 2.203125,-1.28125 0,-0.34375 -0.125,-0.859375 -0.640625,-1.140625 -0.53125,-0.265625 -1.109375,-0.265625 -1.71875,-0.265625 -0.25,0 -0.671875,0 -0.75,-0.015625 C 1.265625,-0.703125 1.0625,-1 1.0625,-1.328125 Z M 2.5,1.828125 c -1.015625,0 -1.703125,-0.515625 -1.703125,-1.046875 0,-0.453125 0.375,-0.828125 0.8125,-0.84375 l 0.59375,0 c 0.859375,0 1.96875,0 1.96875,0.84375 0,0.546875 -0.703125,1.046875 -1.671875,1.046875 z m 0,0"
               style="stroke:none"
               inkscape:connector-curvature="0" />
          </symbol>
          <symbol
             id="textext-b8f86e3d-4"
             overflow="visible"
             style="overflow:visible">
            <path
               id="path38887"
               d="m 2.546875,2.5 0,-0.40625 -0.96875,0 0,-9.171875 0.96875,0 0,-0.40625 -1.375,0 0,9.984375 z m 0,0"
               style="stroke:none"
               inkscape:connector-curvature="0" />
          </symbol>
          <symbol
             id="textext-b8f86e3d-5"
             overflow="visible"
             style="overflow:visible">
            <path
               id="path38890"
               d="m 1.578125,-7.484375 -1.359375,0 0,0.40625 0.96875,0 0,9.171875 -0.96875,0 0,0.40625 1.359375,0 z m 0,0"
               style="stroke:none"
               inkscape:connector-curvature="0" />
          </symbol>
        </g>
      </defs>
      <g
         id="textext-b8f86e3d-6">
        <g
           id="g38893"
           style="fill:#000000;fill-opacity:1">
          <use
             id="use38895"
             y="134.765"
             x="223.43201"
             xlink:href="#textext-b8f86e3d-1"
             width="666.37817"
             height="410.53571" />
          <use
             id="use38897"
             y="134.765"
             x="226.19962"
             xlink:href="#textext-b8f86e3d-2"
             width="666.37817"
             height="410.53571" />
          <use
             id="use38899"
             y="134.765"
             x="231.18091"
             xlink:href="#textext-b8f86e3d-3"
             width="666.37817"
             height="410.53571" />
          <use
             id="use38901"
             y="134.765"
             x="236.16222"
             xlink:href="#textext-b8f86e3d-4"
             width="666.37817"
             height="410.53571" />
          <use
             id="use38903"
             y="134.765"
             x="238.92982"
             xlink:href="#textext-b8f86e3d-5"
             width="666.37817"
             height="410.53571" />
        </g>
      </g>
    </g>
    <path
       style="fill:none;stroke:#000000;stroke-width:1px;stroke-linecap:butt;stroke-linejoin:miter;stroke-opacity:1"
       d="m 320,170.53571 160,0"
       id="path39636"
       inkscape:connector-curvature="0"
       transform="translate(-63.028358,665.51153)" />
    <text
       sodipodi:linespacing="100%"
       id="text36015-3"
       y="902.35522"
       x="264.50623"
       style="font-style:normal;font-variant:normal;font-weight:500;font-stretch:normal;font-size:16px;line-height:100%;font-family:Rekha;-inkscape-font-specification:'Rekha Medium';text-align:start;letter-spacing:0px;word-spacing:0px;writing-mode:lr-tb;text-anchor:start;fill:#000000;fill-opacity:1;stroke:none"
       xml:space="preserve"><tspan
         y="902.35522"
         x="264.50623"
         id="tspan36017-5"
         sodipodi:role="line">-1/4</tspan></text>
    <path
       style="fill:none;stroke:#000000;stroke-width:1px;stroke-linecap:butt;stroke-linejoin:miter;stroke-opacity:1"
       d="m 350.71429,200.53571 0,20 16.42857,0"
       id="path40721"
       inkscape:connector-curvature="0"
       transform="translate(-63.028358,665.51153)" />
    <text
       xml:space="preserve"
       style="font-style:normal;font-variant:normal;font-weight:500;font-stretch:normal;font-size:16px;line-height:100%;font-family:Rekha;-inkscape-font-specification:'Rekha Medium';text-align:start;letter-spacing:0px;word-spacing:0px;writing-mode:lr-tb;text-anchor:start;fill:#000000;fill-opacity:1;stroke:none"
       x="299.82877"
       y="871.04724"
       id="text40723"
       sodipodi:linespacing="100%"><tspan
         sodipodi:role="line"
         id="tspan40725"
         x="299.82877"
         y="871.04724">n</tspan></text>
    <g
       style="font-style:normal;font-variant:normal;font-weight:normal;font-stretch:normal;letter-spacing:normal;word-spacing:normal;text-anchor:start;fill:none;fill-opacity:1;fill-rule:evenodd;stroke:#000000;stroke-linecap:butt;stroke-linejoin:miter;stroke-miterlimit:10.43299961;stroke-dasharray:none;stroke-dashoffset:0;stroke-opacity:1"
       ns0:preamble="/home/ken/.config/inkscape/textextpreamble.txt"
       ns0:text="$[V_O^{\\bullet\\bullet}] = [\\mathrm{Ca_{zr}^{\\prime\\prime}}]$"
       word-spacing="normal"
       letter-spacing="normal"
       font-size-adjust="none"
       font-stretch="normal"
       font-weight="normal"
       font-variant="normal"
       font-style="normal"
       stroke-miterlimit="10.433"
       xml:space="preserve"
       transform="matrix(1.6858285,0,0,-1.6858285,-88.393078,1539.0807)"
       id="content"><polygon
         id="polygon5840"
         points="225,484.29 225.97,484.29 225.97,484.68 224.61,484.68 224.61,474.75 225.97,474.75 225.97,475.15 225,475.15 "
         style="fill:#000000;stroke-width:0" /><path
         id="path5842"
         d="m 232.45,482.89 0.04,0.07 0.05,0.06 0.04,0.07 0.05,0.05 0.04,0.06 0.05,0.05 0.04,0.05 0.04,0.04 0.04,0.04 0.05,0.04 0.04,0.03 0.04,0.03 0.04,0.03 0.04,0.03 0.04,0.02 0.04,0.02 0.04,0.02 0.04,0.02 0.04,0.01 0.04,0.02 0.03,0.01 0.04,0.01 0.04,0.01 0.04,0 0.03,0.01 0.04,0 0.07,0.01 0.07,0.01 0.07,0 c 0.12,0.01 0.13,0.18 0.13,0.19 0,0.08 -0.05,0.12 -0.13,0.12 -0.26,0 -0.55,-0.03 -0.81,-0.03 -0.33,0 -0.67,0.03 -0.99,0.03 -0.06,0 -0.19,0 -0.19,-0.19 0,-0.11 0.09,-0.12 0.16,-0.12 0.27,-0.02 0.46,-0.12 0.46,-0.33 0,-0.15 -0.15,-0.36 -0.15,-0.37 l -3.05,-4.85 -0.68,5.25 c 0,0.17 0.23,0.3 0.68,0.3 0.14,0 0.25,0 0.25,0.2 0,0.09 -0.08,0.11 -0.14,0.11 -0.39,0 -0.82,-0.03 -1.23,-0.03 -0.18,0 -0.37,0.01 -0.55,0.01 -0.18,0 -0.36,0.02 -0.53,0.02 -0.07,0 -0.19,0 -0.19,-0.19 0,-0.12 0.09,-0.12 0.25,-0.12 0.55,0 0.56,-0.09 0.59,-0.34 l 0.79,-6.13 c 0.03,-0.19 0.07,-0.22 0.2,-0.22 0.16,0 0.2,0.05 0.28,0.18 z"
         inkscape:connector-curvature="0"
         style="fill:#000000;stroke-width:0" /><path
         id="path5844"
         d="m 237.76,482.59 -0.01,0.08 0,0.07 -0.01,0.08 -0.01,0.07 -0.02,0.08 -0.02,0.07 -0.03,0.07 -0.02,0.07 -0.03,0.06 -0.04,0.07 -0.03,0.06 -0.04,0.06 -0.04,0.06 -0.05,0.06 -0.04,0.05 -0.05,0.05 -0.06,0.05 -0.05,0.05 -0.06,0.04 -0.06,0.04 -0.06,0.04 -0.06,0.04 -0.06,0.03 -0.07,0.03 -0.07,0.03 -0.07,0.02 -0.07,0.02 -0.07,0.01 -0.07,0.02 -0.08,0.01 -0.07,0 -0.08,0 c -0.84,0 -1.5,-0.67 -1.5,-1.48 0,-0.84 0.68,-1.5 1.5,-1.5 0.83,0 1.5,0.68 1.5,1.49 z"
         inkscape:connector-curvature="0"
         style="fill:#000000;stroke-width:0" /><path
         id="path5846"
         d="m 241.84,482.59 0,0.08 -0.01,0.07 -0.01,0.08 -0.01,0.07 -0.02,0.08 -0.02,0.07 -0.02,0.07 -0.03,0.07 -0.03,0.06 -0.03,0.07 -0.04,0.06 -0.04,0.06 -0.04,0.06 -0.05,0.06 -0.04,0.05 -0.05,0.05 -0.05,0.05 -0.06,0.05 -0.06,0.04 -0.05,0.04 -0.07,0.04 -0.06,0.04 -0.06,0.03 -0.07,0.03 -0.07,0.03 -0.07,0.02 -0.07,0.02 -0.07,0.01 -0.07,0.02 -0.08,0.01 -0.07,0 -0.08,0 c -0.83,0 -1.5,-0.67 -1.5,-1.48 0,-0.84 0.68,-1.5 1.5,-1.5 0.84,0 1.5,0.68 1.5,1.49 z"
         inkscape:connector-curvature="0"
         style="fill:#000000;stroke-width:0" /><path
         id="path5848"
         d="m 237.78,477.45 0,0.1 -0.01,0.1 -0.01,0.1 -0.01,0.09 -0.02,0.1 -0.03,0.09 -0.03,0.09 -0.03,0.09 -0.03,0.08 -0.05,0.09 -0.04,0.08 -0.05,0.08 -0.05,0.07 -0.06,0.08 -0.06,0.07 -0.06,0.06 -0.07,0.07 -0.07,0.06 -0.08,0.05 -0.07,0.06 -0.09,0.04 -0.08,0.05 -0.09,0.04 -0.09,0.04 -0.09,0.03 -0.1,0.03 -0.1,0.03 -0.1,0.02 -0.11,0.02 -0.11,0.01 -0.11,0.01 -0.12,0 -0.05,-0.22 c 0.72,0 1.39,-0.46 1.39,-1.47 0,-0.51 -0.21,-1.52 -0.86,-2.27 -0.49,-0.55 -1.12,-0.84 -1.67,-0.84 l 0,0 c -0.73,0 -1.36,0.5 -1.36,1.53 0,0.36 0.1,1.34 0.74,2.14 0.46,0.57 1.14,0.91 1.76,0.91 l 0.05,0.22 c -1.66,0 -3.27,-1.56 -3.27,-3.12 0,-1.12 0.83,-1.91 2.03,-1.91 1.66,0 3.26,1.52 3.26,3.1 z"
         inkscape:connector-curvature="0"
         style="fill:#000000;stroke-width:0" /><polygon
         id="polygon5850"
         points="244.07,484.29 244.07,475.15 243.11,475.15 243.11,474.75 244.47,474.75 244.47,484.68 243.11,484.68 243.11,484.29 "
         style="fill:#000000;stroke-width:0" /><path
         id="path5852"
         d="m 255.26,480.48 0.03,0 0.03,0 0.03,0 0.01,0.01 0.02,0 0.01,0 0.01,0 0.02,0 0.01,0 0.02,0.01 0.01,0 0.01,0 0.01,0.01 0.02,0 0.01,0.01 0.01,0 0.01,0.01 0.01,0.01 0.01,0.01 0.01,0.01 0.01,0.01 0,0 0,0.01 0.01,0 0,0.01 0,0.01 0.01,0 0,0.01 0,0.01 0,0 0,0.01 0,0.01 0.01,0.01 0,0.01 0,0 0,0.01 0,0.01 c 0,0.2 -0.19,0.2 -0.33,0.2 l -5.96,0 c -0.14,0 -0.33,0 -0.33,-0.2 0,-0.2 0.19,-0.2 0.34,-0.2 z"
         inkscape:connector-curvature="0"
         style="fill:#000000;stroke-width:0" /><path
         id="path5854"
         d="m 255.27,478.56 0.03,0 0.02,0 0.03,0 0.02,0 0.01,0 0.01,0 0.02,0 0.01,0 0.01,0.01 0.02,0 0.01,0 0.01,0.01 0.02,0 0.01,0.01 0.01,0 0.01,0.01 0.01,0 0.01,0.01 0.01,0.01 0.01,0.01 0,0 0.01,0.01 0,0.01 0,0 0.01,0.01 0,0 0,0.01 0.01,0.01 0,0 0,0.01 0,0.01 0,0 0,0.01 0.01,0.01 0,0.01 0,0.01 0,0.01 0,0.01 c 0,0.19 -0.19,0.19 -0.34,0.19 l -5.94,0 c -0.15,0 -0.34,0 -0.34,-0.19 0,-0.2 0.19,-0.2 0.33,-0.2 z"
         inkscape:connector-curvature="0"
         style="fill:#000000;stroke-width:0" /><polygon
         id="polygon5856"
         points="260.52,484.29 261.48,484.29 261.48,484.68 260.12,484.68 260.12,474.75 261.48,474.75 261.48,475.15 260.52,475.15 "
         style="fill:#000000;stroke-width:0" /><path
         id="path5858"
         d="m 262.26,480.63 0,-0.19 0.02,-0.19 0.02,-0.18 0.03,-0.18 0.04,-0.18 0.05,-0.18 0.05,-0.16 0.07,-0.17 0.07,-0.16 0.08,-0.16 0.08,-0.15 0.09,-0.15 0.1,-0.14 0.11,-0.13 0.11,-0.13 0.11,-0.13 0.13,-0.12 0.12,-0.11 0.13,-0.1 0.14,-0.1 0.14,-0.09 0.15,-0.09 0.15,-0.08 0.15,-0.07 0.15,-0.06 0.16,-0.06 0.17,-0.04 0.16,-0.04 0.17,-0.03 0.17,-0.03 0.17,-0.01 0.17,0 c 1.62,0 2.6,1.38 2.6,2.53 0,0.1 0,0.17 -0.13,0.17 -0.11,0 -0.11,-0.06 -0.12,-0.16 -0.08,-1.42 -1.15,-2.24 -2.23,-2.24 -0.61,0 -2.56,0.34 -2.56,3.3 0,2.97 1.94,3.31 2.55,3.31 1.08,0 1.97,-0.9 2.17,-2.35 0.02,-0.14 0.02,-0.17 0.16,-0.17 0.16,0 0.16,0.03 0.16,0.24 l 0,2.35 c 0,0.17 0,0.24 -0.11,0.24 -0.04,0 -0.08,0 -0.16,-0.12 l -0.5,-0.74 c -0.37,0.36 -0.88,0.86 -1.83,0.86 -1.86,0 -3.46,-1.58 -3.46,-3.61 z"
         inkscape:connector-curvature="0"
         style="fill:#000000;stroke-width:0" /><path
         id="path5860"
         d="m 272.22,477.99 0,-0.04 0.01,-0.03 0.01,-0.04 0,-0.04 0.01,-0.04 0.01,-0.03 0.02,-0.04 0.01,-0.03 0.02,-0.04 0.01,-0.03 0.02,-0.04 0.02,-0.03 0.02,-0.03 0.02,-0.04 0.02,-0.03 0.03,-0.03 0.02,-0.02 0.03,-0.03 0.02,-0.03 0.03,-0.02 0.03,-0.02 0.04,-0.03 0.03,-0.02 0.03,-0.01 0.04,-0.02 0.03,-0.01 0.04,-0.02 0.04,-0.01 0.04,0 0.04,-0.01 0.04,0 0.04,-0.01 c 0.21,0 0.82,0.14 0.82,0.95 l 0,0.55 -0.25,0 0,-0.55 c 0,-0.58 -0.25,-0.64 -0.36,-0.64 -0.32,0 -0.37,0.45 -0.37,0.5 l 0,1.99 c 0,0.41 0,0.8 -0.35,1.17 -0.39,0.39 -0.89,0.54 -1.37,0.54 -0.81,0 -1.5,-0.46 -1.5,-1.12 0,-0.29 0.2,-0.46 0.46,-0.46 0.28,0 0.46,0.2 0.46,0.45 0,0.12 -0.05,0.45 -0.51,0.46 0.27,0.35 0.76,0.46 1.07,0.46 0.49,0 1.06,-0.39 1.06,-1.27 l 0,-0.37 0,-0.21 0,-0.99 c 0,-0.95 -0.72,-1.29 -1.17,-1.29 -0.48,0 -0.89,0.35 -0.89,0.85 0,0.54 0.42,1.37 2.06,1.43 l 0,0 0,0.21 c -0.51,-0.03 -1.2,-0.06 -1.83,-0.36 -0.75,-0.34 -1,-0.85 -1,-1.29 0,-0.81 0.97,-1.05 1.6,-1.05 0.65,0 1.11,0.39 1.3,0.86 z"
         inkscape:connector-curvature="0"
         style="fill:#000000;stroke-width:0" /><path
         id="path5862"
         d="m 275.9,484.13 0.01,0.01 0,0.01 0.01,0.01 0,0.01 0,0.01 0.01,0.01 0,0.01 0,0.01 0.01,0.01 0,0.01 0,0 0.01,0.01 0,0.01 0,0.01 0,0 0,0.01 0.01,0.01 0,0 0,0.01 0,0.01 0,0 0,0.01 0,0 0,0.01 0,0.01 0,0.01 0,0.01 0,0.01 c 0,0.21 -0.19,0.38 -0.41,0.38 -0.26,0 -0.35,-0.22 -0.38,-0.33 l -0.92,-3.01 c -0.01,-0.01 -0.03,-0.1 -0.03,-0.11 0,-0.08 0.21,-0.15 0.27,-0.15 0.05,0 0.05,0.01 0.1,0.11 z"
         inkscape:connector-curvature="0"
         style="fill:#000000;stroke-width:0" /><path
         id="path5864"
         d="m 278.2,484.13 0,0.01 0.01,0.01 0,0.01 0.01,0.01 0,0.01 0.01,0.01 0,0.01 0,0.01 0.01,0.01 0,0.01 0,0 0,0.01 0.01,0.01 0,0.01 0,0 0,0.01 0,0.01 0,0 0.01,0.01 0,0.01 0,0 0,0.01 0,0 0,0.01 0,0.01 0,0.01 0,0.01 0,0.01 c 0,0.21 -0.19,0.38 -0.41,0.38 -0.26,0 -0.35,-0.22 -0.38,-0.33 l -0.92,-3.01 c -0.01,-0.01 -0.04,-0.1 -0.04,-0.11 0,-0.08 0.22,-0.15 0.28,-0.15 0.04,0 0.05,0.01 0.1,0.11 z"
         inkscape:connector-curvature="0"
         style="fill:#000000;stroke-width:0" /><path
         id="path5866"
         d="m 276.95,477.53 0.01,0 0,0.01 0.01,0 0,0.01 0,0 0.01,0.01 0,0 0,0.01 0.01,0 0,0 0,0.01 0,0 0.01,0.01 0,0 0,0 0,0.01 0,0 0.01,0 0,0.01 0,0 0,0 0,0.01 0,0 0,0.01 0,0 0,0 0,0.01 0.01,0 0,0 0,0.01 0,0 0,0.01 c 0,0.11 -0.09,0.11 -0.2,0.11 l -2.48,0 -0.08,-1.16 0.23,0 c 0.05,0.73 0.21,0.96 1.01,0.96 l 0.82,0 -2.1,-2.53 c -0.07,-0.08 -0.07,-0.11 -0.07,-0.14 0,-0.13 0.07,-0.13 0.2,-0.13 l 2.56,0 0.13,1.35 -0.24,0 c -0.07,-0.81 -0.22,-1.13 -1.09,-1.13 l -0.85,0 z"
         inkscape:connector-curvature="0"
         style="fill:#000000;stroke-width:0" /><path
         id="path5868"
         d="m 278.81,476.36 0,0.05 0,0.06 0.01,0.05 0,0.06 0.01,0.06 0.01,0.05 0.01,0.06 0.01,0.05 0.02,0.06 0.01,0.05 0.02,0.06 0.02,0.05 0.02,0.05 0.03,0.05 0.02,0.05 0.03,0.05 0.03,0.05 0.03,0.04 0.03,0.04 0.04,0.04 0.03,0.04 0.04,0.03 0.04,0.04 0.05,0.03 0.04,0.02 0.05,0.03 0.05,0.02 0.05,0.01 0.06,0.02 0.05,0.01 0.06,0 0.06,0 c -0.06,-0.04 -0.12,-0.13 -0.12,-0.25 0,-0.23 0.19,-0.32 0.32,-0.32 0.17,0 0.32,0.11 0.32,0.32 0,0.24 -0.22,0.45 -0.55,0.45 -0.35,0 -0.73,-0.22 -0.94,-0.74 l -0.01,0 0,0.74 -0.99,-0.08 0,-0.25 c 0.46,0 0.52,-0.05 0.52,-0.39 l 0,-1.8 c 0,-0.3 -0.07,-0.3 -0.52,-0.3 l 0,-0.25 c 0.03,0 0.5,0.03 0.79,0.03 0.3,0 0.61,-0.01 0.9,-0.03 l 0,0.25 -0.13,0 c -0.52,0 -0.52,0.08 -0.52,0.31 z"
         inkscape:connector-curvature="0"
         style="fill:#000000;stroke-width:0" /><polygon
         id="polygon5870"
         points="282.22,484.29 282.22,475.15 281.26,475.15 281.26,474.75 282.62,474.75 282.62,484.68 281.26,484.68 281.26,484.29 "
         style="fill:#000000;stroke-width:0" /></g>    <g
       id="g6249"
       transform="matrix(1.6858285,0,0,-1.6858285,43.662116,1663.9827)"
       xml:space="preserve"
       stroke-miterlimit="10.433"
       font-style="normal"
       font-variant="normal"
       font-weight="normal"
       font-stretch="normal"
       font-size-adjust="none"
       letter-spacing="normal"
       word-spacing="normal"
       ns0:text="$\\mathrm{[Ca_{zr}^{\\prime\\prime}]=const}$"
       ns0:preamble="/home/ken/.config/inkscape/textextpreamble.txt"
       style="font-style:normal;font-variant:normal;font-weight:normal;font-stretch:normal;letter-spacing:normal;word-spacing:normal;text-anchor:start;fill:none;fill-opacity:1;fill-rule:evenodd;stroke:#000000;stroke-linecap:butt;stroke-linejoin:miter;stroke-miterlimit:10.43299961;stroke-dasharray:none;stroke-dashoffset:0;stroke-opacity:1"><polygon
         style="fill:#000000;stroke-width:0"
         points="225.97,484.29 225.97,484.68 224.61,484.68 224.61,474.75 225.97,474.75 225.97,475.15 225,475.15 225,484.29 "
         id="polygon6251" /><path
         style="fill:#000000;stroke-width:0"
         inkscape:connector-curvature="0"
         d="m 226.76,480.63 0,-0.19 0.02,-0.19 0.02,-0.18 0.03,-0.18 0.04,-0.18 0.05,-0.18 0.05,-0.16 0.07,-0.17 0.07,-0.16 0.08,-0.16 0.08,-0.15 0.09,-0.15 0.1,-0.14 0.11,-0.13 0.11,-0.13 0.11,-0.13 0.13,-0.12 0.12,-0.11 0.13,-0.1 0.14,-0.1 0.14,-0.09 0.15,-0.09 0.14,-0.08 0.16,-0.07 0.15,-0.06 0.16,-0.06 0.16,-0.04 0.17,-0.04 0.17,-0.03 0.17,-0.03 0.17,-0.01 0.17,0 c 1.62,0 2.6,1.38 2.6,2.53 0,0.1 0,0.17 -0.13,0.17 -0.11,0 -0.11,-0.06 -0.12,-0.16 -0.08,-1.42 -1.15,-2.24 -2.23,-2.24 -0.61,0 -2.56,0.34 -2.56,3.3 0,2.97 1.94,3.31 2.55,3.31 1.08,0 1.97,-0.9 2.17,-2.35 0.02,-0.14 0.02,-0.17 0.16,-0.17 0.16,0 0.16,0.03 0.16,0.24 l 0,2.35 c 0,0.17 0,0.24 -0.11,0.24 -0.04,0 -0.08,0 -0.16,-0.12 l -0.5,-0.74 c -0.37,0.36 -0.88,0.86 -1.83,0.86 -1.86,0 -3.46,-1.58 -3.46,-3.61 z"
         id="path6253" /><path
         style="fill:#000000;stroke-width:0"
         inkscape:connector-curvature="0"
         d="m 236.71,477.99 0,-0.04 0.01,-0.03 0.01,-0.04 0,-0.04 0.01,-0.04 0.01,-0.03 0.02,-0.04 0.01,-0.03 0.01,-0.04 0.02,-0.03 0.02,-0.04 0.02,-0.03 0.02,-0.03 0.02,-0.04 0.02,-0.03 0.03,-0.03 0.02,-0.02 0.03,-0.03 0.02,-0.03 0.03,-0.02 0.03,-0.02 0.03,-0.03 0.04,-0.02 0.03,-0.01 0.04,-0.02 0.03,-0.01 0.04,-0.02 0.04,-0.01 0.04,0 0.04,-0.01 0.04,0 0.04,-0.01 c 0.21,0 0.82,0.14 0.82,0.95 l 0,0.55 -0.25,0 0,-0.55 c 0,-0.58 -0.25,-0.64 -0.36,-0.64 -0.33,0 -0.37,0.45 -0.37,0.5 l 0,1.99 c 0,0.41 0,0.8 -0.35,1.17 -0.39,0.39 -0.89,0.54 -1.37,0.54 -0.81,0 -1.5,-0.46 -1.5,-1.12 0,-0.29 0.2,-0.46 0.46,-0.46 0.28,0 0.46,0.2 0.46,0.45 0,0.12 -0.05,0.45 -0.51,0.46 0.27,0.35 0.75,0.46 1.07,0.46 0.49,0 1.06,-0.39 1.06,-1.27 l 0,-0.37 0,-0.21 0,-0.99 c 0,-0.95 -0.72,-1.29 -1.17,-1.29 -0.48,0 -0.89,0.35 -0.89,0.85 0,0.54 0.42,1.37 2.06,1.43 l 0,0 0,0.21 c -0.51,-0.03 -1.21,-0.06 -1.83,-0.36 -0.75,-0.34 -1,-0.85 -1,-1.29 0,-0.81 0.97,-1.05 1.59,-1.05 0.66,0 1.12,0.39 1.31,0.86 z"
         id="path6255" /><path
         style="fill:#000000;stroke-width:0"
         inkscape:connector-curvature="0"
         d="m 240.4,484.13 0,0.01 0.01,0.01 0,0.01 0,0.01 0.01,0.01 0,0.01 0.01,0.01 0,0.01 0,0.01 0,0.01 0.01,0 0,0.01 0,0.01 0,0.01 0.01,0 0,0.01 0,0.01 0,0 0,0.01 0,0.01 0,0 0,0.01 0.01,0 0,0.01 0,0.01 0,0.01 0,0.01 0,0.01 c 0,0.21 -0.2,0.38 -0.41,0.38 -0.27,0 -0.35,-0.22 -0.39,-0.33 l -0.92,-3.01 c 0,-0.01 -0.03,-0.1 -0.03,-0.11 0,-0.08 0.22,-0.15 0.27,-0.15 0.05,0 0.06,0.01 0.11,0.11 z"
         id="path6257" /><path
         style="fill:#000000;stroke-width:0"
         inkscape:connector-curvature="0"
         d="m 242.69,484.13 0.01,0.01 0,0.01 0.01,0.01 0,0.01 0.01,0.01 0,0.01 0,0.01 0.01,0.01 0,0.01 0,0.01 0.01,0 0,0.01 0,0.01 0,0.01 0,0 0.01,0.01 0,0.01 0,0 0,0.01 0,0.01 0,0 0,0.01 0,0 0,0.01 0,0.01 0.01,0.01 0,0.01 0,0.01 c 0,0.21 -0.2,0.38 -0.41,0.38 -0.27,0 -0.35,-0.22 -0.39,-0.33 l -0.92,-3.01 c 0,-0.01 -0.03,-0.1 -0.03,-0.11 0,-0.08 0.21,-0.15 0.27,-0.15 0.05,0 0.06,0.01 0.1,0.11 z"
         id="path6259" /><path
         style="fill:#000000;stroke-width:0"
         inkscape:connector-curvature="0"
         d="m 241.45,477.53 0,0 0.01,0.01 0,0 0,0.01 0.01,0 0,0.01 0,0 0.01,0.01 0,0 0,0 0.01,0.01 0,0 0,0.01 0,0 0,0 0.01,0.01 0,0 0,0 0,0.01 0,0 0,0 0.01,0.01 0,0 0,0.01 0,0 0,0 0,0.01 0,0 0,0 0,0.01 0,0 0,0.01 c 0,0.11 -0.08,0.11 -0.19,0.11 l -2.48,0 -0.09,-1.16 0.24,0 c 0.05,0.73 0.21,0.96 1,0.96 l 0.82,0 -2.1,-2.53 c -0.06,-0.08 -0.06,-0.11 -0.06,-0.14 0,-0.13 0.07,-0.13 0.19,-0.13 l 2.57,0 0.12,1.35 -0.24,0 c -0.06,-0.81 -0.21,-1.13 -1.08,-1.13 l -0.86,0 z"
         id="path6261" /><path
         style="fill:#000000;stroke-width:0"
         inkscape:connector-curvature="0"
         d="m 243.3,476.36 0,0.05 0.01,0.06 0,0.05 0.01,0.06 0,0.06 0.01,0.05 0.01,0.06 0.02,0.05 0.01,0.06 0.02,0.05 0.02,0.06 0.01,0.05 0.03,0.05 0.02,0.05 0.03,0.05 0.02,0.05 0.03,0.05 0.03,0.04 0.04,0.04 0.03,0.04 0.04,0.04 0.04,0.03 0.04,0.04 0.04,0.03 0.05,0.02 0.05,0.03 0.05,0.02 0.05,0.01 0.05,0.02 0.06,0.01 0.06,0 0.06,0 c -0.07,-0.04 -0.12,-0.13 -0.12,-0.25 0,-0.23 0.18,-0.32 0.31,-0.32 0.17,0 0.32,0.11 0.32,0.32 0,0.24 -0.22,0.45 -0.55,0.45 -0.35,0 -0.73,-0.22 -0.94,-0.74 l 0,0 0,0.74 -1,-0.08 0,-0.25 c 0.47,0 0.52,-0.05 0.52,-0.39 l 0,-1.8 c 0,-0.3 -0.07,-0.3 -0.52,-0.3 l 0,-0.25 c 0.03,0 0.51,0.03 0.79,0.03 0.3,0 0.61,-0.01 0.91,-0.03 l 0,0.25 -0.14,0 c -0.52,0 -0.52,0.08 -0.52,0.31 z"
         id="path6263" /><polygon
         style="fill:#000000;stroke-width:0"
         points="246.71,475.15 245.75,475.15 245.75,474.75 247.11,474.75 247.11,484.68 245.75,484.68 245.75,484.29 246.71,484.29 "
         id="polygon6265" /><path
         style="fill:#000000;stroke-width:0"
         inkscape:connector-curvature="0"
         d="m 257.9,480.48 0.03,0 0.03,0 0.03,0 0.01,0.01 0.02,0 0.01,0 0.02,0 0.01,0 0.02,0 0.01,0.01 0.01,0 0.02,0 0.01,0.01 0.01,0 0.01,0.01 0.01,0 0.01,0.01 0.01,0.01 0.01,0.01 0.01,0.01 0.01,0.01 0,0 0.01,0.01 0,0 0,0.01 0.01,0.01 0,0 0,0.01 0,0.01 0,0 0.01,0.01 0,0.01 0,0.01 0,0.01 0,0 0,0.01 0,0.01 c 0,0.2 -0.19,0.2 -0.33,0.2 l -5.96,0 c -0.14,0 -0.33,0 -0.33,-0.2 0,-0.2 0.19,-0.2 0.34,-0.2 z"
         id="path6267" /><path
         style="fill:#000000;stroke-width:0"
         inkscape:connector-curvature="0"
         d="m 257.91,478.56 0.03,0 0.03,0 0.02,0 0.02,0 0.01,0 0.02,0 0.01,0 0.01,0 0.02,0.01 0.01,0 0.01,0 0.02,0.01 0.01,0 0.01,0.01 0.01,0 0.01,0.01 0.01,0 0.01,0.01 0.01,0.01 0.01,0.01 0.01,0 0,0.01 0,0.01 0.01,0 0,0.01 0,0 0.01,0.01 0,0.01 0,0 0,0.01 0,0.01 0.01,0 0,0.01 0,0.01 0,0.01 0,0.01 0,0.01 0,0.01 c 0,0.19 -0.19,0.19 -0.34,0.19 l -5.94,0 c -0.15,0 -0.34,0 -0.34,-0.19 0,-0.2 0.19,-0.2 0.33,-0.2 z"
         id="path6269" /><path
         style="fill:#000000;stroke-width:0"
         inkscape:connector-curvature="0"
         d="m 262.74,479.4 0,0.08 0,0.07 0.01,0.07 0,0.07 0,0.07 0.01,0.07 0.01,0.06 0.01,0.06 0.01,0.06 0.01,0.06 0.01,0.06 0.01,0.06 0.03,0.11 0.03,0.1 0.03,0.1 0.04,0.09 0.03,0.09 0.05,0.08 0.04,0.07 0.05,0.07 0.04,0.07 0.05,0.06 0.06,0.05 0.05,0.05 0.05,0.05 0.06,0.04 0.05,0.04 0.06,0.03 0.05,0.03 0.06,0.03 0.06,0.02 0.05,0.02 0.06,0.01 0.05,0.02 0.06,0.01 0.05,0 0.05,0.01 0.05,0 c 0.09,0 0.72,-0.01 1.07,-0.37 -0.41,-0.03 -0.47,-0.33 -0.47,-0.46 0,-0.26 0.18,-0.45 0.46,-0.45 0.26,0 0.46,0.16 0.46,0.46 0,0.68 -0.76,1.06 -1.53,1.06 -1.24,0 -2.16,-1.07 -2.16,-2.3 0,-1.27 0.99,-2.25 2.14,-2.25 1.34,0 1.65,1.19 1.65,1.29 0,0.1 -0.09,0.1 -0.12,0.1 -0.09,0 -0.11,-0.04 -0.13,-0.1 -0.29,-0.93 -0.94,-1.05 -1.31,-1.05 -0.53,0 -1.4,0.43 -1.4,2.03 z"
         id="path6271" /><path
         style="fill:#000000;stroke-width:0"
         inkscape:connector-curvature="0"
         d="m 270.7,479.36 0,0.12 -0.01,0.12 -0.02,0.11 -0.02,0.12 -0.02,0.11 -0.03,0.11 -0.04,0.11 -0.04,0.1 -0.04,0.1 -0.05,0.1 -0.05,0.1 -0.06,0.09 -0.06,0.1 -0.07,0.08 -0.07,0.09 -0.07,0.08 -0.08,0.08 -0.08,0.07 -0.08,0.07 -0.09,0.06 -0.08,0.07 -0.1,0.05 -0.09,0.05 -0.1,0.05 -0.1,0.04 -0.1,0.04 -0.1,0.03 -0.11,0.03 -0.11,0.02 -0.11,0.01 -0.11,0.01 -0.11,0 -0.01,-0.21 c 0.44,0 0.87,-0.22 1.12,-0.65 0.26,-0.43 0.26,-1 0.26,-1.38 0,-0.36 0,-0.89 -0.22,-1.33 -0.21,-0.45 -0.65,-0.74 -1.15,-0.74 l 0,0 c -0.43,0 -0.86,0.21 -1.13,0.67 -0.25,0.44 -0.25,1.04 -0.25,1.4 0,0.39 0,0.92 0.24,1.36 0.26,0.46 0.73,0.67 1.13,0.67 l 0.01,0.21 c -1.24,0 -2.21,-1.08 -2.21,-2.32 0,-1.28 1.04,-2.23 2.2,-2.23 1.2,0 2.21,0.97 2.21,2.23 z"
         id="path6273" /><path
         style="fill:#000000;stroke-width:0"
         inkscape:connector-curvature="0"
         d="m 272.09,480.65 0,-2.66 c 0,-0.45 -0.11,-0.45 -0.78,-0.45 l 0,-0.31 c 0.35,0.01 0.86,0.04 1.13,0.04 0.26,0 0.77,-0.03 1.11,-0.04 l 0,0.31 c -0.66,0 -0.78,0 -0.78,0.45 l 0,1.83 c 0,1.03 0.71,1.59 1.35,1.59 0.62,0 0.74,-0.54 0.74,-1.11 l 0,-2.31 c 0,-0.45 -0.12,-0.45 -0.78,-0.45 l 0,-0.31 c 0.35,0.01 0.85,0.04 1.12,0.04 0.26,0 0.78,-0.03 1.12,-0.04 l 0,0.31 c -0.52,0 -0.77,0 -0.78,0.3 l 0,1.9 c 0,0.85 0,1.16 -0.31,1.52 -0.14,0.17 -0.46,0.37 -1.04,0.37 -0.73,0 -1.2,-0.43 -1.47,-1.05 l 0,1.05 -1.41,-0.11 0,-0.31 c 0.7,0 0.78,-0.07 0.78,-0.56 z"
         id="path6275" /><path
         style="fill:#000000;stroke-width:0"
         inkscape:connector-curvature="0"
         d="m 278.6,479.16 0.02,0 0.03,-0.01 0.03,0 0.03,-0.01 0.03,-0.01 0.04,-0.01 0.03,-0.01 0.04,-0.01 0.04,-0.01 0.05,-0.01 0.04,-0.02 0.04,-0.02 0.05,-0.01 0.04,-0.03 0.04,-0.02 0.05,-0.02 0.04,-0.03 0.04,-0.03 0.04,-0.03 0.04,-0.03 0.04,-0.03 0.04,-0.04 0.03,-0.04 0.03,-0.04 0.03,-0.05 0.01,-0.02 0.02,-0.03 0.01,-0.02 0.01,-0.03 0.01,-0.02 0.01,-0.03 0.01,-0.03 0,-0.02 0.01,-0.03 0,-0.03 0.01,-0.03 0,-0.04 0,-0.03 0,-0.03 c 0,-0.51 -0.34,-0.91 -1.12,-0.91 -0.84,0 -1.19,0.57 -1.38,1.42 -0.03,0.12 -0.04,0.16 -0.14,0.16 -0.13,0 -0.13,-0.07 -0.13,-0.25 l 0,-1.31 c 0,-0.16 0,-0.23 0.11,-0.23 0.05,0 0.06,0.01 0.25,0.19 0.02,0.02 0.02,0.04 0.2,0.23 0.43,-0.41 0.88,-0.42 1.09,-0.42 1.14,0 1.6,0.66 1.6,1.38 0,0.52 -0.3,0.82 -0.42,0.94 -0.33,0.32 -0.71,0.4 -1.13,0.48 -0.56,0.11 -1.23,0.24 -1.23,0.81 0,0.35 0.26,0.76 1.12,0.76 1.09,0 1.14,-0.9 1.16,-1.2 0.01,-0.1 0.1,-0.1 0.12,-0.1 0.13,0 0.13,0.06 0.13,0.24 l 0,1.01 c 0,0.17 0,0.23 -0.11,0.23 -0.05,0 -0.07,0 -0.2,-0.11 -0.03,-0.04 -0.13,-0.13 -0.16,-0.16 -0.38,0.27 -0.79,0.27 -0.94,0.27 -1.21,0 -1.59,-0.66 -1.59,-1.22 0,-0.34 0.16,-0.62 0.43,-0.84 0.31,-0.26 0.59,-0.32 1.31,-0.46 z"
         id="path6277" /><path
         style="fill:#000000;stroke-width:0"
         inkscape:connector-curvature="0"
         d="m 282.18,481.21 1.42,0 0,0.31 -1.42,0 0,1.82 -0.25,0 c -0.01,-0.81 -0.31,-1.87 -1.28,-1.91 l 0,-0.22 0.84,0 0,-2.74 c 0,-1.23 0.93,-1.34 1.29,-1.34 0.7,0 0.98,0.7 0.98,1.34 l 0,0.56 -0.25,0 0,-0.54 c 0,-0.74 -0.3,-1.12 -0.66,-1.12 -0.67,0 -0.67,0.91 -0.67,1.08 z"
         id="path6279" /></g>    <g
       ns0:preamble="/home/ken/.config/inkscape/textextpreamble.txt"
       ns0:text="$\\mathrm{[Ca_{zr}^{\\prime\\prime}]}$"
       word-spacing="normal"
       letter-spacing="normal"
       font-size-adjust="none"
       font-stretch="normal"
       font-weight="normal"
       font-variant="normal"
       font-style="normal"
       stroke-miterlimit="10.433"
       xml:space="preserve"
       transform="matrix(1.420455,0,0,-1.420455,-160.09599,1504.4484)"
       id="g6638"
       style="font-style:normal;font-variant:normal;font-weight:normal;font-stretch:normal;letter-spacing:normal;word-spacing:normal;text-anchor:start;fill:none;fill-opacity:1;fill-rule:evenodd;stroke:#000000;stroke-linecap:butt;stroke-linejoin:miter;stroke-miterlimit:10.43299961;stroke-dasharray:none;stroke-dashoffset:0;stroke-opacity:1"><polygon
         id="polygon6640"
         points="224.61,484.68 224.61,474.75 225.97,474.75 225.97,475.15 225,475.15 225,484.29 225.97,484.29 225.97,484.68 "
         style="fill:#000000;stroke-width:0" /><path
         id="path6642"
         d="m 226.76,480.63 0,-0.19 0.02,-0.19 0.02,-0.18 0.03,-0.18 0.04,-0.18 0.05,-0.18 0.05,-0.16 0.07,-0.17 0.07,-0.16 0.08,-0.16 0.08,-0.15 0.09,-0.15 0.1,-0.14 0.11,-0.13 0.11,-0.13 0.11,-0.13 0.13,-0.12 0.12,-0.11 0.13,-0.1 0.14,-0.1 0.14,-0.09 0.15,-0.09 0.14,-0.08 0.16,-0.07 0.15,-0.06 0.16,-0.06 0.16,-0.04 0.17,-0.04 0.17,-0.03 0.17,-0.03 0.17,-0.01 0.17,0 c 1.62,0 2.6,1.38 2.6,2.53 0,0.1 0,0.17 -0.13,0.17 -0.11,0 -0.11,-0.06 -0.12,-0.16 -0.08,-1.42 -1.15,-2.24 -2.23,-2.24 -0.61,0 -2.56,0.34 -2.56,3.3 0,2.97 1.94,3.31 2.55,3.31 1.08,0 1.97,-0.9 2.17,-2.35 0.02,-0.14 0.02,-0.17 0.16,-0.17 0.16,0 0.16,0.03 0.16,0.24 l 0,2.35 c 0,0.17 0,0.24 -0.11,0.24 -0.04,0 -0.08,0 -0.16,-0.12 l -0.5,-0.74 c -0.37,0.36 -0.88,0.86 -1.83,0.86 -1.86,0 -3.46,-1.58 -3.46,-3.61 z"
         inkscape:connector-curvature="0"
         style="fill:#000000;stroke-width:0" /><path
         id="path6644"
         d="m 236.71,477.99 0,-0.04 0.01,-0.03 0.01,-0.04 0,-0.04 0.01,-0.04 0.01,-0.03 0.02,-0.04 0.01,-0.03 0.01,-0.04 0.02,-0.03 0.02,-0.04 0.02,-0.03 0.02,-0.03 0.02,-0.04 0.02,-0.03 0.03,-0.03 0.02,-0.02 0.03,-0.03 0.02,-0.03 0.03,-0.02 0.03,-0.02 0.03,-0.03 0.04,-0.02 0.03,-0.01 0.04,-0.02 0.03,-0.01 0.04,-0.02 0.04,-0.01 0.04,0 0.04,-0.01 0.04,0 0.04,-0.01 c 0.21,0 0.82,0.14 0.82,0.95 l 0,0.55 -0.25,0 0,-0.55 c 0,-0.58 -0.25,-0.64 -0.36,-0.64 -0.33,0 -0.37,0.45 -0.37,0.5 l 0,1.99 c 0,0.41 0,0.8 -0.35,1.17 -0.39,0.39 -0.89,0.54 -1.37,0.54 -0.81,0 -1.5,-0.46 -1.5,-1.12 0,-0.29 0.2,-0.46 0.46,-0.46 0.28,0 0.46,0.2 0.46,0.45 0,0.12 -0.05,0.45 -0.51,0.46 0.27,0.35 0.75,0.46 1.07,0.46 0.49,0 1.06,-0.39 1.06,-1.27 l 0,-0.37 0,-0.21 0,-0.99 c 0,-0.95 -0.72,-1.29 -1.17,-1.29 -0.48,0 -0.89,0.35 -0.89,0.85 0,0.54 0.42,1.37 2.06,1.43 l 0,0 0,0.21 c -0.51,-0.03 -1.21,-0.06 -1.83,-0.36 -0.75,-0.34 -1,-0.85 -1,-1.29 0,-0.81 0.97,-1.05 1.59,-1.05 0.66,0 1.12,0.39 1.31,0.86 z"
         inkscape:connector-curvature="0"
         style="fill:#000000;stroke-width:0" /><path
         id="path6646"
         d="m 240.4,484.13 0,0.01 0.01,0.01 0,0.01 0,0.01 0.01,0.01 0,0.01 0.01,0.01 0,0.01 0,0.01 0,0.01 0.01,0 0,0.01 0,0.01 0,0.01 0.01,0 0,0.01 0,0.01 0,0 0,0.01 0,0.01 0,0 0,0.01 0.01,0 0,0.01 0,0.01 0,0.01 0,0.01 0,0.01 c 0,0.21 -0.2,0.38 -0.41,0.38 -0.27,0 -0.35,-0.22 -0.39,-0.33 l -0.92,-3.01 c 0,-0.01 -0.03,-0.1 -0.03,-0.11 0,-0.08 0.22,-0.15 0.27,-0.15 0.05,0 0.06,0.01 0.11,0.11 z"
         inkscape:connector-curvature="0"
         style="fill:#000000;stroke-width:0" /><path
         id="path6648"
         d="m 242.69,484.13 0.01,0.01 0,0.01 0.01,0.01 0,0.01 0.01,0.01 0,0.01 0,0.01 0.01,0.01 0,0.01 0,0.01 0.01,0 0,0.01 0,0.01 0,0.01 0,0 0.01,0.01 0,0.01 0,0 0,0.01 0,0.01 0,0 0,0.01 0,0 0,0.01 0,0.01 0.01,0.01 0,0.01 0,0.01 c 0,0.21 -0.2,0.38 -0.41,0.38 -0.27,0 -0.35,-0.22 -0.39,-0.33 l -0.92,-3.01 c 0,-0.01 -0.03,-0.1 -0.03,-0.11 0,-0.08 0.21,-0.15 0.27,-0.15 0.05,0 0.06,0.01 0.1,0.11 z"
         inkscape:connector-curvature="0"
         style="fill:#000000;stroke-width:0" /><path
         id="path6650"
         d="m 241.45,477.53 0,0 0.01,0.01 0,0 0,0.01 0.01,0 0,0.01 0,0 0.01,0.01 0,0 0,0 0.01,0.01 0,0 0,0.01 0,0 0,0 0.01,0.01 0,0 0,0 0,0.01 0,0 0,0 0.01,0.01 0,0 0,0.01 0,0 0,0 0,0.01 0,0 0,0 0,0.01 0,0 0,0.01 c 0,0.11 -0.08,0.11 -0.19,0.11 l -2.48,0 -0.09,-1.16 0.24,0 c 0.05,0.73 0.21,0.96 1,0.96 l 0.82,0 -2.1,-2.53 c -0.06,-0.08 -0.06,-0.11 -0.06,-0.14 0,-0.13 0.07,-0.13 0.19,-0.13 l 2.57,0 0.12,1.35 -0.24,0 c -0.06,-0.81 -0.21,-1.13 -1.08,-1.13 l -0.86,0 z"
         inkscape:connector-curvature="0"
         style="fill:#000000;stroke-width:0" /><path
         id="path6652"
         d="m 243.3,476.36 0,0.05 0.01,0.06 0,0.05 0.01,0.06 0,0.06 0.01,0.05 0.01,0.06 0.02,0.05 0.01,0.06 0.02,0.05 0.02,0.06 0.01,0.05 0.03,0.05 0.02,0.05 0.03,0.05 0.02,0.05 0.03,0.05 0.03,0.04 0.04,0.04 0.03,0.04 0.04,0.04 0.04,0.03 0.04,0.04 0.04,0.03 0.05,0.02 0.05,0.03 0.05,0.02 0.05,0.01 0.05,0.02 0.06,0.01 0.06,0 0.06,0 c -0.07,-0.04 -0.12,-0.13 -0.12,-0.25 0,-0.23 0.18,-0.32 0.31,-0.32 0.17,0 0.32,0.11 0.32,0.32 0,0.24 -0.22,0.45 -0.55,0.45 -0.35,0 -0.73,-0.22 -0.94,-0.74 l 0,0 0,0.74 -1,-0.08 0,-0.25 c 0.47,0 0.52,-0.05 0.52,-0.39 l 0,-1.8 c 0,-0.3 -0.07,-0.3 -0.52,-0.3 l 0,-0.25 c 0.03,0 0.51,0.03 0.79,0.03 0.3,0 0.61,-0.01 0.91,-0.03 l 0,0.25 -0.14,0 c -0.52,0 -0.52,0.08 -0.52,0.31 z"
         inkscape:connector-curvature="0"
         style="fill:#000000;stroke-width:0" /><polygon
         id="polygon6654"
         points="245.75,474.75 247.11,474.75 247.11,484.68 245.75,484.68 245.75,484.29 246.71,484.29 246.71,475.15 245.75,475.15 "
         style="fill:#000000;stroke-width:0" /></g>  </g>
</svg>
