<?xml version="1.0" encoding="UTF-8" standalone="no"?>
<!-- Created with Inkscape (http://www.inkscape.org/) -->

<svg
   xmlns:ns0="http://www.iki.fi/pav/software/textext/"
   xmlns:dc="http://purl.org/dc/elements/1.1/"
   xmlns:cc="http://creativecommons.org/ns#"
   xmlns:rdf="http://www.w3.org/1999/02/22-rdf-syntax-ns#"
   xmlns:svg="http://www.w3.org/2000/svg"
   xmlns="http://www.w3.org/2000/svg"
   xmlns:sodipodi="http://sodipodi.sourceforge.net/DTD/sodipodi-0.dtd"
   xmlns:inkscape="http://www.inkscape.org/namespaces/inkscape"
   width="439.45526"
   height="228.4142"
   id="svg2"
   version="1.1"
   inkscape:version="0.48.4 r9939"
   sodipodi:docname="New document 15">
  <sodipodi:namedview
     id="base"
     pagecolor="#ffffff"
     bordercolor="#666666"
     borderopacity="1.0"
     inkscape:pageopacity="0.0"
     inkscape:pageshadow="2"
     inkscape:zoom="1.4"
     inkscape:cx="249.21447"
     inkscape:cy="72.218237"
     inkscape:document-units="px"
     inkscape:current-layer="layer1"
     showgrid="true"
     units="in"
     width="11cm"
     inkscape:window-width="1263"
     inkscape:window-height="523"
     inkscape:window-x="11"
     inkscape:window-y="441"
     inkscape:window-maximized="0"
     fit-margin-top="0"
     fit-margin-left="0"
     fit-margin-right="0"
     fit-margin-bottom="0"
     inkscape:snap-grids="true"
     inkscape:snap-to-guides="true">
    <inkscape:grid
       type="xygrid"
       id="grid2984"
       empspacing="5"
       visible="true"
       enabled="true"
       snapvisiblegridlinesonly="true"
       spacingx="2px"
       spacingy="2px"
       originx="-80px"
       originy="-96.873041px" />
  </sodipodi:namedview>
  <defs
     id="defs4">
    <marker
       inkscape:stockid="Arrow2Lstart"
       orient="auto"
       refY="0"
       refX="0"
       id="Arrow2Lstart"
       style="overflow:visible">
      <path
         id="path3864"
         style="fill-rule:evenodd;stroke-width:0.625;stroke-linejoin:round"
         d="M 8.7185878,4.0337352 -2.2072895,0.01601326 8.7185884,-4.0017078 c -1.7454984,2.3720609 -1.7354408,5.6174519 -6e-7,8.035443 z"
         transform="matrix(1.1,0,0,1.1,1.1,0)"
         inkscape:connector-curvature="0" />
    </marker>
    <marker
       inkscape:stockid="Arrow2Lend"
       orient="auto"
       refY="0"
       refX="0"
       id="Arrow2Lend"
       style="overflow:visible">
      <path
         id="path3867"
         style="fill-rule:evenodd;stroke-width:0.625;stroke-linejoin:round"
         d="M 8.7185878,4.0337352 -2.2072895,0.01601326 8.7185884,-4.0017078 c -1.7454984,2.3720609 -1.7354408,5.6174519 -6e-7,8.035443 z"
         transform="matrix(-1.1,0,0,-1.1,-1.1,0)"
         inkscape:connector-curvature="0" />
    </marker>
    <marker
       style="overflow:visible"
       id="Arrow2Mend"
       refX="0"
       refY="0"
       orient="auto"
       inkscape:stockid="Arrow2Mend">
      <path
         transform="scale(-0.6,-0.6)"
         d="M 8.7185878,4.0337352 -2.2072895,0.01601326 8.7185884,-4.0017078 c -1.7454984,2.3720609 -1.7354408,5.6174519 -6e-7,8.035443 z"
         style="fill-rule:evenodd;stroke-width:0.625;stroke-linejoin:round"
         id="path3966"
         inkscape:connector-curvature="0" />
    </marker>
  </defs>
  <metadata
     id="metadata7">
    <rdf:RDF>
      <cc:Work
         rdf:about="">
        <dc:format>image/svg+xml</dc:format>
        <dc:type
           rdf:resource="http://purl.org/dc/dcmitype/StillImage" />
        <dc:title></dc:title>
      </cc:Work>
    </rdf:RDF>
  </metadata>
  <g
     transform="translate(-16.971642,-750.76)"
     id="layer1"
     inkscape:groupmode="layer"
     inkscape:label="Layer 1">
    <path
       sodipodi:type="arc"
       style="fill:none;stroke:#000000;stroke-width:1;stroke-miterlimit:4;stroke-opacity:1;stroke-dasharray:none;stroke-dashoffset:0"
       id="path5608"
       sodipodi:cx="160"
       sodipodi:cy="190.53571"
       sodipodi:rx="50"
       sodipodi:ry="50"
       d="m 210,190.53571 c 0,27.61423 -22.38576,50 -50,50 -27.61424,0 -50,-22.38577 -50,-50 0,-27.61424 22.38576,-50 50,-50 27.61424,0 50,22.38576 50,50 z"
       transform="translate(-63.028358,665.51153)" />
    <path
       sodipodi:type="arc"
       style="fill:#000000;stroke:#000000;stroke-width:1;stroke-miterlimit:4;stroke-opacity:1;stroke-dasharray:none;stroke-dashoffset:0"
       id="path6124-3"
       sodipodi:cx="75"
       sodipodi:cy="215.53571"
       sodipodi:rx="5"
       sodipodi:ry="5"
       d="m 80,215.53571 c 0,2.76142 -2.238576,5 -5,5 -2.761424,0 -5,-2.23858 -5,-5 0,-2.76143 2.238576,-5 5,-5 2.761424,0 5,2.23857 5,5 z"
       transform="matrix(0.28571429,0,0,0.28571429,75.185928,755.53703)" />
    <path
       sodipodi:type="arc"
       style="fill:#000000;stroke:#000000;stroke-width:1;stroke-miterlimit:4;stroke-opacity:1;stroke-dasharray:none;stroke-dashoffset:0"
       id="path6124-5"
       sodipodi:cx="75"
       sodipodi:cy="215.53571"
       sodipodi:rx="5"
       sodipodi:ry="5"
       d="m 80,215.53571 c 0,2.76142 -2.238576,5 -5,5 -2.761424,0 -5,-2.23858 -5,-5 0,-2.76143 2.238576,-5 5,-5 2.761424,0 5,2.23857 5,5 z"
       transform="matrix(0.28571429,0,0,0.28571429,63.04307,767.67989)" />
    <path
       sodipodi:type="arc"
       style="fill:#000000;stroke:#000000;stroke-width:1;stroke-miterlimit:4;stroke-opacity:1;stroke-dasharray:none;stroke-dashoffset:0"
       id="path6124-8"
       sodipodi:cx="75"
       sodipodi:cy="215.53571"
       sodipodi:rx="5"
       sodipodi:ry="5"
       d="m 80,215.53571 c 0,2.76142 -2.238576,5 -5,5 -2.761424,0 -5,-2.23858 -5,-5 0,-2.76143 2.238576,-5 5,-5 2.761424,0 5,2.23857 5,5 z"
       transform="matrix(0.28571429,0,0,0.28571429,45.900213,769.82274)" />
    <path
       sodipodi:type="arc"
       style="fill:#000000;stroke:#000000;stroke-width:1;stroke-miterlimit:4;stroke-opacity:1;stroke-dasharray:none;stroke-dashoffset:0"
       id="path6124-1"
       sodipodi:cx="75"
       sodipodi:cy="215.53571"
       sodipodi:rx="5"
       sodipodi:ry="5"
       d="m 80,215.53571 c 0,2.76142 -2.238576,5 -5,5 -2.761424,0 -5,-2.23858 -5,-5 0,-2.76143 2.238576,-5 5,-5 2.761424,0 5,2.23857 5,5 z"
       transform="matrix(0.28571429,0,0,0.28571429,36.614499,795.53703)" />
    <path
       sodipodi:type="arc"
       style="fill:#000000;stroke:#000000;stroke-width:1;stroke-miterlimit:4;stroke-opacity:1;stroke-dasharray:none;stroke-dashoffset:0"
       id="path6124-7"
       sodipodi:cx="75"
       sodipodi:cy="215.53571"
       sodipodi:rx="5"
       sodipodi:ry="5"
       d="m 80,215.53571 c 0,2.76142 -2.238576,5 -5,5 -2.761424,0 -5,-2.23858 -5,-5 0,-2.76143 2.238576,-5 5,-5 2.761424,0 5,2.23857 5,5 z"
       transform="matrix(0.28571429,0,0,0.28571429,82.328781,792.67989)" />
    <path
       sodipodi:type="arc"
       style="fill:#000000;stroke:#000000;stroke-width:1;stroke-miterlimit:4;stroke-opacity:1;stroke-dasharray:none;stroke-dashoffset:0"
       id="path6124-73"
       sodipodi:cx="75"
       sodipodi:cy="215.53571"
       sodipodi:rx="5"
       sodipodi:ry="5"
       d="m 80,215.53571 c 0,2.76142 -2.238576,5 -5,5 -2.761424,0 -5,-2.23858 -5,-5 0,-2.76143 2.238576,-5 5,-5 2.761424,0 5,2.23857 5,5 z"
       transform="matrix(0.28571429,0,0,0.28571429,100.90021,826.25132)" />
    <path
       sodipodi:type="arc"
       style="fill:#000000;stroke:#000000;stroke-width:1;stroke-miterlimit:4;stroke-opacity:1;stroke-dasharray:none;stroke-dashoffset:0"
       id="path6124-59"
       sodipodi:cx="75"
       sodipodi:cy="215.53571"
       sodipodi:rx="5"
       sodipodi:ry="5"
       d="m 80,215.53571 c 0,2.76142 -2.238576,5 -5,5 -2.761424,0 -5,-2.23858 -5,-5 0,-2.76143 2.238576,-5 5,-5 2.761424,0 5,2.23857 5,5 z"
       transform="matrix(0.28571429,0,0,0.28571429,103.04307,794.10846)" />
    <path
       sodipodi:type="arc"
       style="fill:#000000;stroke:#000000;stroke-width:1;stroke-miterlimit:4;stroke-opacity:1;stroke-dasharray:none;stroke-dashoffset:0"
       id="path6124-2"
       sodipodi:cx="75"
       sodipodi:cy="215.53571"
       sodipodi:rx="5"
       sodipodi:ry="5"
       d="m 80,215.53571 c 0,2.76142 -2.238576,5 -5,5 -2.761424,0 -5,-2.23858 -5,-5 0,-2.76143 2.238576,-5 5,-5 2.761424,0 5,2.23857 5,5 z"
       transform="matrix(0.28571429,0,0,0.28571429,43.757357,809.82274)" />
    <path
       sodipodi:type="arc"
       style="fill:#000000;stroke:#000000;stroke-width:1;stroke-miterlimit:4;stroke-opacity:1;stroke-dasharray:none;stroke-dashoffset:0"
       id="path6124-76"
       sodipodi:cx="75"
       sodipodi:cy="215.53571"
       sodipodi:rx="5"
       sodipodi:ry="5"
       d="m 80,215.53571 c 0,2.76142 -2.238576,5 -5,5 -2.761424,0 -5,-2.23858 -5,-5 0,-2.76143 2.238576,-5 5,-5 2.761424,0 5,2.23857 5,5 z"
       transform="matrix(0.28571429,0,0,0.28571429,85.185927,810.53703)" />
    <path
       sodipodi:type="arc"
       style="fill:#000000;stroke:#000000;stroke-width:1;stroke-miterlimit:4;stroke-opacity:1;stroke-dasharray:none;stroke-dashoffset:0"
       id="path6124-0"
       sodipodi:cx="75"
       sodipodi:cy="215.53571"
       sodipodi:rx="5"
       sodipodi:ry="5"
       d="m 80,215.53571 c 0,2.76142 -2.238576,5 -5,5 -2.761424,0 -5,-2.23858 -5,-5 0,-2.76143 2.238576,-5 5,-5 2.761424,0 5,2.23857 5,5 z"
       transform="matrix(0.28571429,0,0,0.28571429,111.6145,809.10846)" />
    <path
       sodipodi:type="arc"
       style="fill:#000000;stroke:#000000;stroke-width:1;stroke-miterlimit:4;stroke-opacity:1;stroke-dasharray:none;stroke-dashoffset:0"
       id="path6124-00"
       sodipodi:cx="75"
       sodipodi:cy="215.53571"
       sodipodi:rx="5"
       sodipodi:ry="5"
       d="m 80,215.53571 c 0,2.76142 -2.238576,5 -5,5 -2.761424,0 -5,-2.23858 -5,-5 0,-2.76143 2.238576,-5 5,-5 2.761424,0 5,2.23857 5,5 z"
       transform="matrix(0.28571429,0,0,0.28571429,104.47164,770.53703)" />
    <path
       sodipodi:type="arc"
       style="fill:#000000;stroke:#000000;stroke-width:1;stroke-miterlimit:4;stroke-opacity:1;stroke-dasharray:none;stroke-dashoffset:0"
       id="path6124-84"
       sodipodi:cx="75"
       sodipodi:cy="215.53571"
       sodipodi:rx="5"
       sodipodi:ry="5"
       d="m 80,215.53571 c 0,2.76142 -2.238576,5 -5,5 -2.761424,0 -5,-2.23858 -5,-5 0,-2.76143 2.238576,-5 5,-5 2.761424,0 5,2.23857 5,5 z"
       transform="matrix(0.28571429,0,0,0.28571429,114.47164,781.9656)" />
    <path
       sodipodi:type="arc"
       style="fill:#000000;stroke:#000000;stroke-width:1;stroke-miterlimit:4;stroke-opacity:1;stroke-dasharray:none;stroke-dashoffset:0"
       id="path6124-17"
       sodipodi:cx="75"
       sodipodi:cy="215.53571"
       sodipodi:rx="5"
       sodipodi:ry="5"
       d="m 80,215.53571 c 0,2.76142 -2.238576,5 -5,5 -2.761424,0 -5,-2.23858 -5,-5 0,-2.76143 2.238576,-5 5,-5 2.761424,0 5,2.23857 5,5 z"
       transform="matrix(0.28571429,0,0,0.28571429,95.900214,783.39417)" />
    <path
       sodipodi:type="arc"
       style="fill:#000000;stroke:#000000;stroke-width:1;stroke-miterlimit:4;stroke-opacity:1;stroke-dasharray:none;stroke-dashoffset:0"
       id="path6124-72"
       sodipodi:cx="75"
       sodipodi:cy="215.53571"
       sodipodi:rx="5"
       sodipodi:ry="5"
       d="m 80,215.53571 c 0,2.76142 -2.238576,5 -5,5 -2.761424,0 -5,-2.23858 -5,-5 0,-2.76143 2.238576,-5 5,-5 2.761424,0 5,2.23857 5,5 z"
       transform="matrix(0.28571429,0,0,0.28571429,74.471642,826.25132)" />
    <path
       sodipodi:type="arc"
       style="fill:#000000;stroke:#000000;stroke-width:1;stroke-miterlimit:4;stroke-opacity:1;stroke-dasharray:none;stroke-dashoffset:0"
       id="path6124-9"
       sodipodi:cx="75"
       sodipodi:cy="215.53571"
       sodipodi:rx="5"
       sodipodi:ry="5"
       d="m 80,215.53571 c 0,2.76142 -2.238576,5 -5,5 -2.761424,0 -5,-2.23858 -5,-5 0,-2.76143 2.238576,-5 5,-5 2.761424,0 5,2.23857 5,5 z"
       transform="matrix(0.28571429,0,0,0.28571429,66.614499,835.53703)" />
    <path
       sodipodi:type="arc"
       style="fill:#000000;stroke:#000000;stroke-width:1;stroke-miterlimit:4;stroke-opacity:1;stroke-dasharray:none;stroke-dashoffset:0"
       id="path6124-07"
       sodipodi:cx="75"
       sodipodi:cy="215.53571"
       sodipodi:rx="5"
       sodipodi:ry="5"
       d="m 80,215.53571 c 0,2.76142 -2.238576,5 -5,5 -2.761424,0 -5,-2.23858 -5,-5 0,-2.76143 2.238576,-5 5,-5 2.761424,0 5,2.23857 5,5 z"
       transform="matrix(0.28571429,0,0,0.28571429,53.04307,823.39417)" />
    <path
       sodipodi:type="arc"
       style="fill:#000000;stroke:#000000;stroke-width:1;stroke-miterlimit:4;stroke-opacity:1;stroke-dasharray:none;stroke-dashoffset:0"
       id="path6124-90"
       sodipodi:cx="75"
       sodipodi:cy="215.53571"
       sodipodi:rx="5"
       sodipodi:ry="5"
       d="m 80,215.53571 c 0,2.76142 -2.238576,5 -5,5 -2.761424,0 -5,-2.23858 -5,-5 0,-2.76143 2.238576,-5 5,-5 2.761424,0 5,2.23857 5,5 z"
       transform="matrix(0.28571429,0,0,0.28571429,64.471643,802.67989)" />
    <path
       sodipodi:type="arc"
       style="fill:#000000;stroke:#000000;stroke-width:1;stroke-miterlimit:4;stroke-opacity:1;stroke-dasharray:none;stroke-dashoffset:0"
       id="path6124-19"
       sodipodi:cx="75"
       sodipodi:cy="215.53571"
       sodipodi:rx="5"
       sodipodi:ry="5"
       d="m 80,215.53571 c 0,2.76142 -2.238576,5 -5,5 -2.761424,0 -5,-2.23858 -5,-5 0,-2.76143 2.238576,-5 5,-5 2.761424,0 5,2.23857 5,5 z"
       transform="matrix(0.28571429,0,0,0.28571429,56.614499,785.53703)" />
    <path
       sodipodi:type="arc"
       style="fill:#000000;stroke:#000000;stroke-width:1;stroke-miterlimit:4;stroke-opacity:1;stroke-dasharray:none;stroke-dashoffset:0"
       id="path6124-16"
       sodipodi:cx="75"
       sodipodi:cy="215.53571"
       sodipodi:rx="5"
       sodipodi:ry="5"
       d="m 80,215.53571 c 0,2.76142 -2.238576,5 -5,5 -2.761424,0 -5,-2.23858 -5,-5 0,-2.76143 2.238576,-5 5,-5 2.761424,0 5,2.23857 5,5 z"
       transform="matrix(0.28571429,0,0,0.28571429,78.757356,776.25132)" />
    <path
       sodipodi:type="arc"
       style="fill:#000000;stroke:#000000;stroke-width:1;stroke-miterlimit:4;stroke-opacity:1;stroke-dasharray:none;stroke-dashoffset:0"
       id="path6124-04"
       sodipodi:cx="75"
       sodipodi:cy="215.53571"
       sodipodi:rx="5"
       sodipodi:ry="5"
       d="m 80,215.53571 c 0,2.76142 -2.238576,5 -5,5 -2.761424,0 -5,-2.23858 -5,-5 0,-2.76143 2.238576,-5 5,-5 2.761424,0 5,2.23857 5,5 z"
       transform="matrix(0.28571429,0,0,0.28571429,86.614499,766.25132)" />
    <path
       style="fill:none;stroke:#000000;stroke-width:1px;stroke-linecap:butt;stroke-linejoin:miter;stroke-opacity:1;marker-end:url(#Arrow2Lend)"
       d="m 120,260.53571 20,-40"
       id="path6277"
       inkscape:connector-curvature="0"
       transform="translate(-63.028358,665.51153)"
       sodipodi:nodetypes="cc" />
    <path
       style="fill:none;stroke:#000000;stroke-width:1px;stroke-linecap:butt;stroke-linejoin:miter;stroke-opacity:1"
       d="m 420,120.53571 0,120 60,0 0,-120 z"
       id="path6465"
       inkscape:connector-curvature="0"
       transform="translate(-63.028358,665.51153)" />
    <path
       style="fill:none;stroke:#000000;stroke-width:1px;stroke-linecap:butt;stroke-linejoin:miter;stroke-opacity:1"
       d="m 420,180.53571 60,0"
       id="path6467"
       inkscape:connector-curvature="0"
       transform="translate(-63.028358,665.51153)" />
    <path
       style="fill:none;stroke:#000000;stroke-width:1px;stroke-linecap:butt;stroke-linejoin:miter;stroke-opacity:1;marker-start:url(#Arrow2Lstart);marker-end:url(#Arrow2Lend)"
       d="m 500,150.53571 0,60"
       id="path6469"
       inkscape:connector-curvature="0"
       transform="translate(-63.028358,665.51153)" />
    <path
       sodipodi:type="arc"
       style="fill:#000000;stroke:#000000;stroke-width:1;stroke-miterlimit:4;stroke-opacity:1;stroke-dasharray:none;stroke-dashoffset:0"
       id="path6124-16-4"
       sodipodi:cx="75"
       sodipodi:cy="215.53571"
       sodipodi:rx="5"
       sodipodi:ry="5"
       d="m 80,215.53571 c 0,2.76142 -2.238576,5 -5,5 -2.761424,0 -5,-2.23858 -5,-5 0,-2.76143 2.238576,-5 5,-5 2.761424,0 5,2.23857 5,5 z"
       transform="matrix(0.41558442,0,0,0.41558442,356.15996,727.54539)" />
    <path
       sodipodi:type="arc"
       style="fill:#000000;stroke:#000000;stroke-width:1;stroke-miterlimit:4;stroke-opacity:1;stroke-dasharray:none;stroke-dashoffset:0"
       id="path6124-16-4-1"
       sodipodi:cx="75"
       sodipodi:cy="215.53571"
       sodipodi:rx="5"
       sodipodi:ry="5"
       d="m 80,215.53571 c 0,2.76142 -2.238576,5 -5,5 -2.761424,0 -5,-2.23858 -5,-5 0,-2.76143 2.238576,-5 5,-5 2.761424,0 5,2.23857 5,5 z"
       transform="matrix(0.41558442,0,0,0.41558442,356.15996,787.54539)" />
    <g
       style="font-style:normal;font-variant:normal;font-weight:normal;font-stretch:normal;letter-spacing:normal;word-spacing:normal;text-anchor:start;fill:none;stroke:#000000;stroke-linecap:butt;stroke-linejoin:miter;stroke-miterlimit:10.43299961;stroke-opacity:1;stroke-dasharray:none;stroke-dashoffset:0"
       id="content"
       transform="matrix(2.6051364,0,0,-2.6051364,-135.95505,2566.1958)"
       xml:space="preserve"
       stroke-miterlimit="10.433"
       font-style="normal"
       font-variant="normal"
       font-weight="normal"
       font-stretch="normal"
       font-size-adjust="none"
       letter-spacing="normal"
       word-spacing="normal"
       ns0:text="$\\ell $"
       ns0:preamble=""><path
         style="fill:#000000;stroke-width:0"
         inkscape:connector-curvature="0"
         d="m 223.59,658.22 0,-0.01 -0.01,0 0,-0.01 -0.01,0 0,-0.01 0,-0.01 -0.01,0 0,-0.01 -0.01,0 0,-0.01 0,0 0,0 0,-0.01 0,0 0,0 -0.01,-0.01 0,0 0,0 0,-0.01 0,0 0,0 0,-0.01 0,0 c 0,-0.05 0.06,-0.13 0.12,-0.13 0.05,0 0.08,0.03 0.36,0.31 0.08,0.07 0.28,0.26 0.36,0.34 0.1,-0.79 0.38,-1.52 1.11,-1.52 0.4,0 0.75,0.22 0.96,0.37 0.14,0.1 0.6,0.49 0.6,0.59 0,0.03 -0.03,0.12 -0.12,0.12 -0.03,0 -0.04,-0.01 -0.13,-0.09 -0.63,-0.63 -1,-0.78 -1.29,-0.78 -0.45,0 -0.61,0.52 -0.61,1.3 0,0.05 0.02,0.51 0.05,0.56 0.02,0.03 0.02,0.05 0.22,0.25 0.81,0.8 2.22,2.48 2.22,4.02 0,0.17 0,0.78 -0.59,0.78 l 0.02,-0.22 c 0.33,0 0.33,-0.36 0.33,-0.52 0,-1.66 -1.67,-3.39 -2.15,-3.89 h 0 c 0.02,0.11 0.45,2.31 1.02,3.48 0.27,0.53 0.48,0.93 0.8,0.93 l -0.02,0.22 c -0.82,0 -1.56,-1.64 -1.66,-1.87 -0.47,-1.08 -0.78,-2.24 -0.78,-3.43 z"
         id="path6921" /></g>    <g
       style="font-style:normal;font-variant:normal;font-weight:normal;font-stretch:normal;letter-spacing:normal;word-spacing:normal;text-anchor:start;fill:none;stroke:#000000;stroke-linecap:butt;stroke-linejoin:miter;stroke-miterlimit:10.43299961;stroke-opacity:1;stroke-dasharray:none;stroke-dashoffset:0"
       id="content-6"
       transform="matrix(2.6051364,0,0,-2.6051364,-255.95505,2536.1958)"
       xml:space="preserve"
       stroke-miterlimit="10.433"
       font-style="normal"
       font-variant="normal"
       font-weight="normal"
       font-stretch="normal"
       font-size-adjust="none"
       letter-spacing="normal"
       word-spacing="normal"
       ns0:text="$\\ell $"
       ns0:preamble=""><path
         style="fill:#000000;stroke-width:0"
         inkscape:connector-curvature="0"
         d="m 223.59,658.22 0,-0.01 -0.01,0 0,-0.01 -0.01,0 0,-0.01 0,-0.01 -0.01,0 0,-0.01 -0.01,0 0,-0.01 0,0 0,0 0,-0.01 0,0 0,0 -0.01,-0.01 0,0 0,0 0,-0.01 0,0 0,0 0,-0.01 0,0 c 0,-0.05 0.06,-0.13 0.12,-0.13 0.05,0 0.08,0.03 0.36,0.31 0.08,0.07 0.28,0.26 0.36,0.34 0.1,-0.79 0.38,-1.52 1.11,-1.52 0.4,0 0.75,0.22 0.96,0.37 0.14,0.1 0.6,0.49 0.6,0.59 0,0.03 -0.03,0.12 -0.12,0.12 -0.03,0 -0.04,-0.01 -0.13,-0.09 -0.63,-0.63 -1,-0.78 -1.29,-0.78 -0.45,0 -0.61,0.52 -0.61,1.3 0,0.05 0.02,0.51 0.05,0.56 0.02,0.03 0.02,0.05 0.22,0.25 0.81,0.8 2.22,2.48 2.22,4.02 0,0.17 0,0.78 -0.59,0.78 l 0.02,-0.22 c 0.33,0 0.33,-0.36 0.33,-0.52 0,-1.66 -1.67,-3.39 -2.15,-3.89 h 0 c 0.02,0.11 0.45,2.31 1.02,3.48 0.27,0.53 0.48,0.93 0.8,0.93 l -0.02,0.22 c -0.82,0 -1.56,-1.64 -1.66,-1.87 -0.47,-1.08 -0.78,-2.24 -0.78,-3.43 z"
         id="path6921-3" /></g>    <g
       style="font-style:normal;font-variant:normal;font-weight:normal;font-stretch:normal;letter-spacing:normal;word-spacing:normal;text-anchor:start;fill:none;stroke:#000000;stroke-linecap:butt;stroke-linejoin:miter;stroke-miterlimit:10.43299961;stroke-opacity:1;stroke-dasharray:none;stroke-dashoffset:0"
       id="content-0"
       transform="matrix(2.6051364,0,0,-2.6051364,-195.24076,2481.1958)"
       xml:space="preserve"
       stroke-miterlimit="10.433"
       font-style="normal"
       font-variant="normal"
       font-weight="normal"
       font-stretch="normal"
       font-size-adjust="none"
       letter-spacing="normal"
       word-spacing="normal"
       ns0:text="$\\ell $"
       ns0:preamble=""><path
         style="fill:#000000;stroke-width:0"
         inkscape:connector-curvature="0"
         d="m 223.59,658.22 0,-0.01 -0.01,0 0,-0.01 -0.01,0 0,-0.01 0,-0.01 -0.01,0 0,-0.01 -0.01,0 0,-0.01 0,0 0,0 0,-0.01 0,0 0,0 -0.01,-0.01 0,0 0,0 0,-0.01 0,0 0,0 0,-0.01 0,0 c 0,-0.05 0.06,-0.13 0.12,-0.13 0.05,0 0.08,0.03 0.36,0.31 0.08,0.07 0.28,0.26 0.36,0.34 0.1,-0.79 0.38,-1.52 1.11,-1.52 0.4,0 0.75,0.22 0.96,0.37 0.14,0.1 0.6,0.49 0.6,0.59 0,0.03 -0.03,0.12 -0.12,0.12 -0.03,0 -0.04,-0.01 -0.13,-0.09 -0.63,-0.63 -1,-0.78 -1.29,-0.78 -0.45,0 -0.61,0.52 -0.61,1.3 0,0.05 0.02,0.51 0.05,0.56 0.02,0.03 0.02,0.05 0.22,0.25 0.81,0.8 2.22,2.48 2.22,4.02 0,0.17 0,0.78 -0.59,0.78 l 0.02,-0.22 c 0.33,0 0.33,-0.36 0.33,-0.52 0,-1.66 -1.67,-3.39 -2.15,-3.89 h 0 c 0.02,0.11 0.45,2.31 1.02,3.48 0.27,0.53 0.48,0.93 0.8,0.93 l -0.02,0.22 c -0.82,0 -1.56,-1.64 -1.66,-1.87 -0.47,-1.08 -0.78,-2.24 -0.78,-3.43 z"
         id="path6921-1" /></g>    <text
       sodipodi:linespacing="100%"
       id="text6992"
       y="936.04724"
       x="16.971642"
       style="font-size:13px;font-style:normal;font-variant:normal;font-weight:500;font-stretch:normal;text-align:start;line-height:100%;letter-spacing:0px;word-spacing:0px;writing-mode:lr-tb;text-anchor:start;fill:#000000;fill-opacity:1;stroke:none;font-family:Rekha;-inkscape-font-specification:Rekha Medium"
       xml:space="preserve"><tspan
         style="font-size:16px"
         y="936.04724"
         x="16.971642"
         id="tspan6994"
         sodipodi:role="line">dislocation</tspan><tspan
         style="font-size:16px"
         id="tspan6996"
         y="952.04724"
         x="16.971642"
         sodipodi:role="line"> density</tspan></text>
    <g
       ns0:preamble=""
       ns0:text="$ \\# \\over {cm^2}$"
       word-spacing="normal"
       letter-spacing="normal"
       font-size-adjust="none"
       font-stretch="normal"
       font-weight="normal"
       font-variant="normal"
       font-style="normal"
       stroke-miterlimit="10.433"
       xml:space="preserve"
       transform="matrix(2.1491399,0,0,-2.1491399,-375.75978,2369.4848)"
       id="g7046"
       style="font-style:normal;font-variant:normal;font-weight:normal;font-stretch:normal;letter-spacing:normal;word-spacing:normal;text-anchor:start;fill:none;stroke:#000000;stroke-linecap:butt;stroke-linejoin:miter;stroke-miterlimit:10.43299961;stroke-opacity:1;stroke-dasharray:none;stroke-dashoffset:0"><path
         id="path7048"
         d="m 232.65,662.49 h 1.75 c 0.09,0 0.25,0 0.25,0.16 0,0.18 -0.16,0.18 -0.26,0.18 h -1.64 l 0.36,1.19 h -0.36 l -0.35,-1.19 H 231 l 0.36,1.19 h 1.39 0.36 1.28 c 0.1,0 0.26,0 0.26,0.17 0,0.17 -0.16,0.17 -0.25,0.17 h -1.19 l 0.56,1.85 c 0.01,0.04 0.03,0.09 0.03,0.13 0,0.08 -0.07,0.17 -0.18,0.17 -0.12,0 -0.15,-0.11 -0.18,-0.2 l -0.59,-1.95 h -1.39 l 0.56,1.85 c 0.01,0.04 0.03,0.09 0.03,0.13 0,0.08 -0.07,0.17 -0.18,0.17 -0.12,0 -0.15,-0.11 -0.18,-0.2 l -0.58,-1.95 h -1.75 c -0.09,0 -0.26,0 -0.26,-0.17 0,-0.17 0.16,-0.17 0.27,-0.17 H 231 l -0.35,-1.19 h -1.28 c -0.11,0 -0.27,0 -0.27,-0.18 0,-0.16 0.17,-0.16 0.26,-0.16 h 1.18 l -0.55,-1.86 c -0.02,-0.04 -0.03,-0.09 -0.03,-0.13 0,-0.09 0.07,-0.17 0.17,-0.17 0.13,0 0.16,0.1 0.18,0.2 l 0.59,1.96 h 1.39 l -0.56,-1.86 c -0.01,-0.04 -0.02,-0.09 -0.02,-0.13 0,-0.09 0.07,-0.17 0.17,-0.17 0.13,0 0.15,0.1 0.18,0.2 z"
         inkscape:connector-curvature="0"
         style="fill:#000000;stroke-width:0" /><line
         id="line7050"
         y2="659.72998"
         x2="239.14999"
         y1="659.72998"
         x1="224.63"
         style="stroke-width:0.398" /><path
         id="path7052"
         d="m 227.68,656.46 -0.03,0 -0.02,-0.01 -0.02,0 -0.02,-0.01 -0.02,-0.01 -0.02,-0.01 -0.02,0 -0.01,-0.01 -0.02,-0.01 -0.02,-0.01 -0.01,-0.02 -0.01,-0.01 -0.02,-0.01 -0.01,-0.01 -0.01,-0.02 -0.01,-0.01 -0.01,-0.01 -0.01,-0.02 -0.01,-0.01 -0.01,-0.02 -0.01,-0.01 -0.01,-0.02 0,-0.01 -0.01,-0.02 0,-0.01 -0.01,-0.02 0,-0.01 0,-0.02 0,-0.01 -0.01,-0.02 0,-0.01 0,-0.02 c 0,-0.18 0.15,-0.25 0.28,-0.25 0.15,0 0.39,0.11 0.39,0.44 0,0.47 -0.54,0.61 -0.92,0.61 -1.04,0 -2.01,-0.96 -2.01,-1.93 0,-0.6 0.42,-1.21 1.29,-1.21 1.17,0 1.72,0.69 1.72,0.79 0,0.04 -0.06,0.11 -0.11,0.11 -0.05,0 -0.06,-0.01 -0.11,-0.06 -0.55,-0.65 -1.36,-0.65 -1.49,-0.65 -0.5,0 -0.72,0.35 -0.72,0.78 0,0.2 0.1,0.96 0.46,1.44 0.26,0.34 0.62,0.53 0.97,0.53 0.1,0 0.43,-0.01 0.61,-0.21 z"
         inkscape:connector-curvature="0"
         style="fill:#000000;stroke-width:0" /><path
         id="path7054"
         d="m 231.21,654.36 0,-0.01 -0.01,-0.01 0,-0.02 0,-0.01 -0.01,-0.02 0,-0.01 -0.01,-0.03 -0.01,-0.04 -0.01,-0.03 0,-0.03 -0.01,-0.02 0,-0.01 0,-0.02 -0.01,-0.01 0,-0.01 -0.01,-0.02 0,-0.01 0,-0.01 0,-0.02 -0.01,-0.01 0,-0.01 0,-0.01 0,-0.01 0,-0.01 -0.01,0 0,-0.01 0,0 0,-0.01 c 0,-0.15 0.13,-0.22 0.24,-0.22 0.13,0 0.24,0.09 0.27,0.15 0.04,0.07 0.09,0.29 0.13,0.44 0.03,0.13 0.11,0.45 0.15,0.62 0.04,0.15 0.08,0.31 0.12,0.47 0.08,0.3 0.08,0.31 0.21,0.52 0.23,0.35 0.58,0.74 1.12,0.74 0.39,0 0.41,-0.32 0.41,-0.49 0,-0.41 -0.3,-1.18 -0.41,-1.48 -0.08,-0.19 -0.11,-0.25 -0.11,-0.37 0,-0.37 0.31,-0.6 0.67,-0.6 0.69,0 1,0.96 1,1.06 0,0.1 -0.09,0.1 -0.11,0.1 -0.1,0 -0.11,-0.05 -0.14,-0.12 -0.15,-0.56 -0.45,-0.85 -0.73,-0.85 -0.15,0 -0.18,0.1 -0.18,0.25 0,0.16 0.04,0.25 0.16,0.56 0.09,0.22 0.37,0.95 0.37,1.34 0,0.11 0,0.41 -0.26,0.61 -0.11,0.09 -0.32,0.19 -0.64,0.19 -0.63,0 -1.01,-0.41 -1.24,-0.71 -0.05,0.6 -0.55,0.71 -0.9,0.71 -0.58,0 -0.97,-0.36 -1.18,-0.64 -0.05,0.48 -0.46,0.64 -0.74,0.64 -0.3,0 -0.46,-0.22 -0.55,-0.38 -0.16,-0.26 -0.26,-0.65 -0.26,-0.69 0,-0.09 0.1,-0.09 0.12,-0.09 0.1,0 0.11,0.02 0.16,0.21 0.1,0.41 0.23,0.75 0.5,0.75 0.19,0 0.23,-0.15 0.23,-0.34 0,-0.13 -0.06,-0.39 -0.11,-0.58 -0.04,-0.18 -0.12,-0.47 -0.15,-0.62 l -0.22,-0.89 c -0.03,-0.09 -0.07,-0.27 -0.07,-0.29 0,-0.15 0.12,-0.22 0.24,-0.22 0.12,0 0.23,0.09 0.27,0.15 0.03,0.07 0.09,0.29 0.12,0.44 0.04,0.13 0.11,0.45 0.16,0.62 0.04,0.15 0.08,0.31 0.11,0.47 0.08,0.28 0.09,0.34 0.3,0.62 0.19,0.28 0.52,0.64 1.04,0.64 0.41,0 0.41,-0.35 0.41,-0.49 0,-0.17 -0.02,-0.26 -0.12,-0.65 z"
         inkscape:connector-curvature="0"
         style="fill:#000000;stroke-width:0" /><path
         id="path7056"
         d="m 238.19,656.75 h -0.21 c -0.02,-0.09 -0.07,-0.4 -0.14,-0.45 -0.05,-0.03 -0.46,-0.03 -0.54,-0.03 h -0.97 c 0.33,0.24 0.69,0.52 0.99,0.72 0.45,0.31 0.87,0.6 0.87,1.12 0,0.64 -0.6,0.99 -1.31,0.99 -0.68,0 -1.17,-0.39 -1.17,-0.87 0,-0.26 0.22,-0.31 0.29,-0.31 0.13,0 0.29,0.09 0.29,0.3 0,0.18 -0.13,0.27 -0.28,0.29 0.14,0.22 0.43,0.37 0.76,0.37 0.48,0 0.89,-0.29 0.89,-0.77 0,-0.42 -0.29,-0.74 -0.68,-1.06 l -1.21,-1.03 c -0.05,-0.04 -0.05,-0.04 -0.06,-0.08 v -0.15 h 2.31 z"
         inkscape:connector-curvature="0"
         style="fill:#000000;stroke-width:0" /></g>    <text
       xml:space="preserve"
       style="font-size:13px;font-style:normal;font-variant:normal;font-weight:500;font-stretch:normal;text-align:start;line-height:100%;letter-spacing:0px;word-spacing:0px;writing-mode:lr-tb;text-anchor:start;fill:#000000;fill-opacity:1;stroke:none;font-family:Rekha;-inkscape-font-specification:Rekha Medium"
       x="83.400215"
       y="949.61865"
       id="text7110"
       sodipodi:linespacing="100%"><tspan
         sodipodi:role="line"
         id="tspan7112"
         x="83.400215"
         y="949.61865">=</tspan></text>
    <path
       style="fill:none;stroke:#000000;stroke-width:1px;stroke-linecap:butt;stroke-linejoin:miter;stroke-opacity:1;marker-end:url(#Arrow2Lend)"
       d="m 220,280.53571 30,0"
       id="path7114"
       inkscape:connector-curvature="0"
       transform="translate(-63.028358,665.51153)" />
    <g
       id="g7392"
       transform="matrix(2.1491399,0,0,-2.1491399,-274.33121,2370.1991)"
       xml:space="preserve"
       stroke-miterlimit="10.433"
       font-style="normal"
       font-variant="normal"
       font-weight="normal"
       font-stretch="normal"
       font-size-adjust="none"
       letter-spacing="normal"
       word-spacing="normal"
       ns0:text="$ {cm^2} \\over \\#$"
       ns0:preamble=""
       style="font-style:normal;font-variant:normal;font-weight:normal;font-stretch:normal;letter-spacing:normal;word-spacing:normal;text-anchor:start;fill:none;stroke:#000000;stroke-linecap:butt;stroke-linejoin:miter;stroke-miterlimit:10.43299961;stroke-opacity:1;stroke-dasharray:none;stroke-dashoffset:0"><path
         style="fill:#000000;stroke-width:0"
         inkscape:connector-curvature="0"
         d="m 227.68,663.64 -0.03,0 -0.02,-0.01 -0.02,0 -0.02,-0.01 -0.02,-0.01 -0.02,0 -0.02,-0.01 -0.01,-0.01 -0.02,-0.01 -0.02,-0.01 -0.01,-0.01 -0.01,-0.02 -0.02,-0.01 -0.01,-0.01 -0.01,-0.01 -0.01,-0.02 -0.01,-0.01 -0.01,-0.02 -0.01,-0.01 -0.01,-0.02 -0.01,-0.01 -0.01,-0.02 0,-0.01 -0.01,-0.02 0,-0.01 -0.01,-0.02 0,-0.01 0,-0.02 0,-0.01 -0.01,-0.02 0,-0.01 0,-0.01 c 0,-0.19 0.15,-0.26 0.28,-0.26 0.15,0 0.39,0.11 0.39,0.44 0,0.47 -0.54,0.61 -0.92,0.61 -1.04,0 -2.01,-0.96 -2.01,-1.93 0,-0.6 0.42,-1.21 1.29,-1.21 1.17,0 1.72,0.69 1.72,0.79 0,0.04 -0.06,0.12 -0.11,0.12 -0.05,0 -0.06,-0.02 -0.11,-0.07 -0.55,-0.64 -1.36,-0.64 -1.49,-0.64 -0.5,0 -0.72,0.34 -0.72,0.77 0,0.2 0.1,0.96 0.46,1.44 0.26,0.34 0.62,0.53 0.97,0.53 0.1,0 0.43,-0.01 0.61,-0.21 z"
         id="path7394" /><path
         style="fill:#000000;stroke-width:0"
         inkscape:connector-curvature="0"
         d="m 231.21,661.54 0,-0.01 -0.01,-0.01 0,-0.02 0,-0.01 -0.01,-0.02 0,-0.01 -0.01,-0.03 -0.01,-0.04 -0.01,-0.03 0,-0.03 -0.01,-0.01 0,-0.02 0,-0.01 -0.01,-0.02 0,-0.01 -0.01,-0.02 0,-0.01 0,-0.01 0,-0.02 -0.01,-0.01 0,-0.01 0,-0.01 0,-0.01 0,0 -0.01,-0.01 0,-0.01 0,0 0,-0.01 c 0,-0.15 0.13,-0.22 0.24,-0.22 0.13,0 0.24,0.09 0.27,0.15 0.04,0.07 0.09,0.29 0.13,0.44 0.03,0.13 0.11,0.45 0.15,0.62 0.04,0.15 0.08,0.31 0.12,0.47 0.08,0.3 0.08,0.31 0.21,0.53 0.23,0.34 0.58,0.73 1.12,0.73 0.39,0 0.41,-0.32 0.41,-0.48 0,-0.42 -0.3,-1.19 -0.41,-1.48 -0.08,-0.2 -0.11,-0.26 -0.11,-0.38 0,-0.37 0.31,-0.6 0.67,-0.6 0.69,0 1,0.96 1,1.06 0,0.1 -0.09,0.1 -0.11,0.1 -0.1,0 -0.11,-0.05 -0.14,-0.12 -0.15,-0.56 -0.45,-0.84 -0.73,-0.84 -0.15,0 -0.18,0.09 -0.18,0.24 0,0.16 0.04,0.25 0.16,0.56 0.09,0.22 0.37,0.95 0.37,1.35 0,0.11 0,0.4 -0.26,0.6 -0.11,0.09 -0.32,0.19 -0.64,0.19 -0.63,0 -1.01,-0.41 -1.24,-0.71 -0.05,0.6 -0.55,0.71 -0.9,0.71 -0.58,0 -0.97,-0.36 -1.18,-0.64 -0.05,0.49 -0.46,0.64 -0.74,0.64 -0.3,0 -0.46,-0.22 -0.55,-0.38 -0.16,-0.26 -0.26,-0.65 -0.26,-0.69 0,-0.09 0.1,-0.09 0.12,-0.09 0.1,0 0.11,0.02 0.16,0.21 0.1,0.41 0.23,0.75 0.5,0.75 0.19,0 0.23,-0.15 0.23,-0.34 0,-0.13 -0.06,-0.39 -0.11,-0.58 -0.04,-0.18 -0.12,-0.47 -0.15,-0.62 l -0.22,-0.89 c -0.03,-0.09 -0.07,-0.26 -0.07,-0.29 0,-0.15 0.12,-0.22 0.24,-0.22 0.12,0 0.23,0.09 0.27,0.15 0.03,0.07 0.09,0.29 0.12,0.44 0.04,0.13 0.11,0.45 0.16,0.62 0.04,0.15 0.08,0.31 0.11,0.47 0.08,0.28 0.09,0.34 0.3,0.62 0.19,0.28 0.52,0.64 1.04,0.64 0.41,0 0.41,-0.35 0.41,-0.48 0,-0.18 -0.02,-0.27 -0.12,-0.66 z"
         id="path7396" /><path
         style="fill:#000000;stroke-width:0"
         inkscape:connector-curvature="0"
         d="m 238.19,664.95 h -0.21 c -0.02,-0.1 -0.07,-0.41 -0.14,-0.46 -0.05,-0.02 -0.46,-0.02 -0.54,-0.02 h -0.97 c 0.33,0.24 0.69,0.52 0.99,0.71 0.45,0.31 0.87,0.6 0.87,1.13 0,0.63 -0.6,0.99 -1.31,0.99 -0.68,0 -1.17,-0.39 -1.17,-0.88 0,-0.26 0.22,-0.3 0.29,-0.3 0.13,0 0.29,0.09 0.29,0.29 0,0.18 -0.13,0.28 -0.28,0.3 0.14,0.22 0.43,0.37 0.76,0.37 0.48,0 0.89,-0.29 0.89,-0.78 0,-0.41 -0.29,-0.73 -0.68,-1.06 l -1.21,-1.02 c -0.05,-0.05 -0.05,-0.05 -0.06,-0.08 v -0.15 h 2.31 z"
         id="path7398" /><line
         style="stroke-width:0.398"
         x1="224.63"
         y1="659.54999"
         x2="239.14999"
         y2="659.54999"
         id="line7400" /><path
         style="fill:#000000;stroke-width:0"
         inkscape:connector-curvature="0"
         d="m 232.65,654.43 h 1.75 c 0.09,0 0.25,0 0.25,0.17 0,0.17 -0.16,0.17 -0.26,0.17 h -1.64 l 0.36,1.19 h -0.36 l -0.35,-1.19 H 231 l 0.36,1.19 h 1.39 0.36 1.28 c 0.1,0 0.26,0 0.26,0.17 0,0.17 -0.16,0.17 -0.25,0.17 h -1.19 l 0.56,1.85 c 0.01,0.04 0.03,0.09 0.03,0.13 0,0.08 -0.07,0.17 -0.18,0.17 -0.12,0 -0.15,-0.11 -0.18,-0.2 l -0.59,-1.95 h -1.39 l 0.56,1.85 c 0.01,0.04 0.03,0.09 0.03,0.13 0,0.08 -0.07,0.17 -0.18,0.17 -0.12,0 -0.15,-0.11 -0.18,-0.2 l -0.58,-1.95 h -1.75 c -0.09,0 -0.26,0 -0.26,-0.17 0,-0.17 0.16,-0.17 0.27,-0.17 H 231 l -0.35,-1.19 h -1.28 c -0.11,0 -0.27,0 -0.27,-0.17 0,-0.17 0.17,-0.17 0.26,-0.17 h 1.18 l -0.55,-1.86 c -0.02,-0.04 -0.03,-0.09 -0.03,-0.13 0,-0.08 0.07,-0.17 0.17,-0.17 0.13,0 0.16,0.11 0.18,0.2 l 0.59,1.96 h 1.39 l -0.56,-1.86 c -0.01,-0.04 -0.02,-0.09 -0.02,-0.13 0,-0.08 0.07,-0.17 0.17,-0.17 0.13,0 0.15,0.11 0.18,0.2 z"
         id="path7402" /></g>    <path
       transform="translate(-63.028358,665.51153)"
       inkscape:connector-curvature="0"
       id="path7465"
       d="m 320,280.53571 30,0"
       style="fill:none;stroke:#000000;stroke-width:1px;stroke-linecap:butt;stroke-linejoin:miter;stroke-opacity:1;marker-end:url(#Arrow2Lend)"
       sodipodi:nodetypes="cc" />
    <g
       style="font-style:normal;font-variant:normal;font-weight:normal;font-stretch:normal;letter-spacing:normal;word-spacing:normal;text-anchor:start;fill:none;stroke:#000000;stroke-linecap:butt;stroke-linejoin:miter;stroke-miterlimit:10.43299961;stroke-opacity:1;stroke-dasharray:none;stroke-dashoffset:0"
       ns0:preamble=""
       ns0:text="$ {cm} \\over \\#$"
       word-spacing="normal"
       letter-spacing="normal"
       font-size-adjust="none"
       font-stretch="normal"
       font-weight="normal"
       font-variant="normal"
       font-style="normal"
       stroke-miterlimit="10.433"
       xml:space="preserve"
       transform="matrix(2.1491399,0,0,-2.1491399,-175.75978,2370.1991)"
       id="g7750"><path
         id="path7752"
         d="m 227.68,663.82 -0.03,0 -0.02,-0.01 -0.02,0 -0.02,-0.01 -0.02,-0.01 -0.02,-0.01 -0.02,-0.01 -0.01,-0.01 -0.02,-0.01 -0.02,-0.01 -0.01,-0.01 -0.01,-0.01 -0.02,-0.01 -0.01,-0.01 -0.01,-0.02 -0.01,-0.01 -0.01,-0.02 -0.01,-0.01 -0.01,-0.01 -0.01,-0.02 -0.01,-0.01 -0.01,-0.02 0,-0.01 -0.01,-0.02 0,-0.01 -0.01,-0.02 0,-0.01 0,-0.02 0,-0.01 -0.01,-0.02 0,-0.01 0,-0.02 c 0,-0.19 0.15,-0.26 0.28,-0.26 0.15,0 0.39,0.12 0.39,0.45 0,0.47 -0.54,0.6 -0.92,0.6 -1.04,0 -2.01,-0.95 -2.01,-1.92 0,-0.6 0.42,-1.21 1.29,-1.21 1.17,0 1.72,0.69 1.72,0.78 0,0.05 -0.06,0.12 -0.11,0.12 -0.05,0 -0.06,-0.01 -0.11,-0.07 -0.55,-0.64 -1.36,-0.64 -1.49,-0.64 -0.5,0 -0.72,0.34 -0.72,0.77 0,0.21 0.1,0.97 0.46,1.44 0.26,0.35 0.62,0.54 0.97,0.54 0.1,0 0.43,-0.01 0.61,-0.21 z"
         inkscape:connector-curvature="0"
         style="fill:#000000;stroke-width:0" /><path
         id="path7754"
         d="m 231.21,661.72 0,-0.01 -0.01,-0.02 0,-0.01 0,-0.02 -0.01,-0.01 0,-0.02 -0.01,-0.03 -0.01,-0.03 -0.01,-0.03 0,-0.03 -0.01,-0.02 0,-0.01 0,-0.02 -0.01,-0.01 0,-0.02 -0.01,-0.01 0,-0.01 0,-0.02 0,-0.01 -0.01,-0.01 0,-0.01 0,-0.01 0,-0.01 0,-0.01 -0.01,0 0,-0.01 0,-0.01 0,0 c 0,-0.15 0.13,-0.22 0.24,-0.22 0.13,0 0.24,0.09 0.27,0.15 0.04,0.06 0.09,0.29 0.13,0.43 0.03,0.13 0.11,0.45 0.15,0.63 0.04,0.15 0.08,0.3 0.12,0.46 0.08,0.3 0.08,0.32 0.21,0.53 0.23,0.34 0.58,0.74 1.12,0.74 0.39,0 0.41,-0.32 0.41,-0.49 0,-0.41 -0.3,-1.19 -0.41,-1.48 -0.08,-0.19 -0.11,-0.26 -0.11,-0.37 0,-0.37 0.31,-0.6 0.67,-0.6 0.69,0 1,0.96 1,1.06 0,0.09 -0.09,0.09 -0.11,0.09 -0.1,0 -0.11,-0.04 -0.14,-0.12 -0.15,-0.55 -0.45,-0.84 -0.73,-0.84 -0.15,0 -0.18,0.1 -0.18,0.25 0,0.16 0.04,0.25 0.16,0.56 0.09,0.21 0.37,0.95 0.37,1.34 0,0.11 0,0.41 -0.26,0.61 -0.11,0.09 -0.32,0.18 -0.64,0.18 -0.63,0 -1.01,-0.41 -1.24,-0.7 -0.05,0.59 -0.55,0.7 -0.9,0.7 -0.58,0 -0.97,-0.35 -1.18,-0.63 -0.05,0.48 -0.46,0.63 -0.74,0.63 -0.3,0 -0.46,-0.21 -0.55,-0.37 -0.16,-0.26 -0.26,-0.65 -0.26,-0.69 0,-0.09 0.1,-0.09 0.12,-0.09 0.1,0 0.11,0.02 0.16,0.21 0.1,0.41 0.23,0.75 0.5,0.75 0.19,0 0.23,-0.15 0.23,-0.34 0,-0.13 -0.06,-0.39 -0.11,-0.58 -0.04,-0.19 -0.12,-0.47 -0.15,-0.62 l -0.22,-0.89 c -0.03,-0.09 -0.07,-0.27 -0.07,-0.29 0,-0.15 0.12,-0.22 0.24,-0.22 0.12,0 0.23,0.09 0.27,0.15 0.03,0.06 0.09,0.29 0.12,0.43 0.04,0.13 0.11,0.45 0.16,0.63 0.04,0.15 0.08,0.3 0.11,0.46 0.08,0.29 0.09,0.34 0.3,0.63 0.19,0.28 0.52,0.64 1.04,0.64 0.41,0 0.41,-0.36 0.41,-0.49 0,-0.17 -0.02,-0.26 -0.12,-0.65 z"
         inkscape:connector-curvature="0"
         style="fill:#000000;stroke-width:0" /><line
         id="line7756"
         y2="659.72998"
         x2="235.25999"
         y1="659.72998"
         x1="224.63"
         style="stroke-width:0.398" /><path
         id="path7758"
         d="m 230.7,654.61 h 1.75 c 0.09,0 0.26,0 0.26,0.16 0,0.18 -0.16,0.18 -0.27,0.18 h -1.63 l 0.35,1.19 h -0.35 l -0.36,-1.19 h -1.39 l 0.35,1.19 h 1.4 0.35 1.28 c 0.11,0 0.27,0 0.27,0.17 0,0.17 -0.17,0.17 -0.26,0.17 h -1.18 l 0.55,1.85 c 0.02,0.04 0.03,0.09 0.03,0.13 0,0.08 -0.07,0.17 -0.17,0.17 -0.13,0 -0.16,-0.11 -0.18,-0.2 l -0.59,-1.95 h -1.39 l 0.56,1.85 c 0.01,0.04 0.02,0.09 0.02,0.13 0,0.08 -0.07,0.17 -0.17,0.17 -0.13,0 -0.15,-0.11 -0.18,-0.2 l -0.59,-1.95 h -1.75 c -0.09,0 -0.25,0 -0.25,-0.17 0,-0.17 0.16,-0.17 0.26,-0.17 h 1.64 l -0.36,-1.19 h -1.28 c -0.1,0 -0.26,0 -0.26,-0.18 0,-0.16 0.16,-0.16 0.25,-0.16 h 1.19 l -0.56,-1.86 c -0.01,-0.04 -0.03,-0.09 -0.03,-0.13 0,-0.09 0.07,-0.17 0.18,-0.17 0.12,0 0.15,0.1 0.18,0.2 l 0.58,1.96 h 1.4 l -0.56,-1.86 c -0.01,-0.04 -0.03,-0.09 -0.03,-0.13 0,-0.09 0.07,-0.17 0.18,-0.17 0.12,0 0.15,0.1 0.18,0.2 z"
         inkscape:connector-curvature="0"
         style="fill:#000000;stroke-width:0" /></g>    <text
       xml:space="preserve"
       style="font-size:13px;font-style:normal;font-variant:normal;font-weight:500;font-stretch:normal;text-align:start;line-height:100%;letter-spacing:0px;word-spacing:0px;writing-mode:lr-tb;text-anchor:start;fill:#000000;fill-opacity:1;stroke:none;font-family:Rekha;-inkscape-font-specification:Rekha Medium"
       x="336.97165"
       y="956.04724"
       id="text7110-2"
       sodipodi:linespacing="100%"><tspan
         sodipodi:role="line"
         id="tspan7112-5"
         x="336.97165"
         y="956.04724">=</tspan></text>
    <g
       style="font-style:normal;font-variant:normal;font-weight:normal;font-stretch:normal;letter-spacing:normal;word-spacing:normal;text-anchor:start;fill:none;stroke:#000000;stroke-linecap:butt;stroke-linejoin:miter;stroke-miterlimit:10.43299961;stroke-opacity:1;stroke-dasharray:none;stroke-dashoffset:0"
       id="content-2"
       transform="matrix(2.6051364,0,0,-2.6051364,-233.81219,2676.9101)"
       xml:space="preserve"
       stroke-miterlimit="10.433"
       font-style="normal"
       font-variant="normal"
       font-weight="normal"
       font-stretch="normal"
       font-size-adjust="none"
       letter-spacing="normal"
       word-spacing="normal"
       ns0:text="$\\ell $"
       ns0:preamble=""><path
         style="fill:#000000;stroke-width:0"
         inkscape:connector-curvature="0"
         d="m 223.59,658.22 0,-0.01 -0.01,0 0,-0.01 -0.01,0 0,-0.01 0,-0.01 -0.01,0 0,-0.01 -0.01,0 0,-0.01 0,0 0,0 0,-0.01 0,0 0,0 -0.01,-0.01 0,0 0,0 0,-0.01 0,0 0,0 0,-0.01 0,0 c 0,-0.05 0.06,-0.13 0.12,-0.13 0.05,0 0.08,0.03 0.36,0.31 0.08,0.07 0.28,0.26 0.36,0.34 0.1,-0.79 0.38,-1.52 1.11,-1.52 0.4,0 0.75,0.22 0.96,0.37 0.14,0.1 0.6,0.49 0.6,0.59 0,0.03 -0.03,0.12 -0.12,0.12 -0.03,0 -0.04,-0.01 -0.13,-0.09 -0.63,-0.63 -1,-0.78 -1.29,-0.78 -0.45,0 -0.61,0.52 -0.61,1.3 0,0.05 0.02,0.51 0.05,0.56 0.02,0.03 0.02,0.05 0.22,0.25 0.81,0.8 2.22,2.48 2.22,4.02 0,0.17 0,0.78 -0.59,0.78 l 0.02,-0.22 c 0.33,0 0.33,-0.36 0.33,-0.52 0,-1.66 -1.67,-3.39 -2.15,-3.89 h 0 c 0.02,0.11 0.45,2.31 1.02,3.48 0.27,0.53 0.48,0.93 0.8,0.93 l -0.02,0.22 c -0.82,0 -1.56,-1.64 -1.66,-1.87 -0.47,-1.08 -0.78,-2.24 -0.78,-3.43 z"
         id="path6921-2" /></g>    <text
       xml:space="preserve"
       style="font-size:13px;font-style:normal;font-variant:normal;font-weight:500;font-stretch:normal;text-align:start;line-height:100%;letter-spacing:0px;word-spacing:0px;writing-mode:lr-tb;text-anchor:start;fill:#000000;fill-opacity:1;stroke:none;font-family:Rekha;-inkscape-font-specification:Rekha Medium"
       x="256.97165"
       y="936.04724"
       id="text7869"
       sodipodi:linespacing="100%"><tspan
         sodipodi:role="line"
         id="tspan7871"
         x="256.97165"
         y="936.04724">Take</tspan></text>
    <text
       xml:space="preserve"
       style="font-size:13px;font-style:normal;font-variant:normal;font-weight:500;font-stretch:normal;text-align:start;line-height:100%;letter-spacing:0px;word-spacing:0px;writing-mode:lr-tb;text-anchor:start;fill:#000000;fill-opacity:1;stroke:none;font-family:Rekha;-inkscape-font-specification:Rekha Medium"
       x="256.97165"
       y="966.04724"
       id="text7873"
       sodipodi:linespacing="100%"><tspan
         sodipodi:role="line"
         id="tspan7875"
         x="256.97165"
         y="966.04724">Square</tspan><tspan
         sodipodi:role="line"
         x="256.97165"
         y="979.04724"
         id="tspan7877"> Root</tspan></text>
    <text
       xml:space="preserve"
       style="font-size:13px;font-style:normal;font-variant:normal;font-weight:500;font-stretch:normal;text-align:start;line-height:100%;letter-spacing:0px;word-spacing:0px;writing-mode:lr-tb;text-anchor:start;fill:#000000;fill-opacity:1;stroke:none;font-family:Rekha;-inkscape-font-specification:Rekha Medium"
       x="156.97165"
       y="936.04724"
       id="text7879"
       sodipodi:linespacing="100%"><tspan
         sodipodi:role="line"
         id="tspan7881"
         x="156.97165"
         y="936.04724">Invert</tspan></text>
  </g>
</svg>
