<?xml version="1.0" encoding="UTF-8" standalone="no"?>
<!-- Created with Inkscape (http://www.inkscape.org/) -->

<svg
   xmlns:ns0="http://www.iki.fi/pav/software/textext/"
   xmlns:dc="http://purl.org/dc/elements/1.1/"
   xmlns:cc="http://creativecommons.org/ns#"
   xmlns:rdf="http://www.w3.org/1999/02/22-rdf-syntax-ns#"
   xmlns:svg="http://www.w3.org/2000/svg"
   xmlns="http://www.w3.org/2000/svg"
   xmlns:sodipodi="http://sodipodi.sourceforge.net/DTD/sodipodi-0.dtd"
   xmlns:inkscape="http://www.inkscape.org/namespaces/inkscape"
   width="511.00046"
   height="184.04089"
   id="svg2"
   version="1.1"
   inkscape:version="0.48.4 r9939"
   sodipodi:docname="New document 54">
  <sodipodi:namedview
     id="base"
     pagecolor="#ffffff"
     bordercolor="#666666"
     borderopacity="1.0"
     inkscape:pageopacity="0.0"
     inkscape:pageshadow="2"
     inkscape:zoom="1.6234774"
     inkscape:cx="267.3318"
     inkscape:cy="81.653825"
     inkscape:document-units="px"
     inkscape:current-layer="layer1"
     showgrid="true"
     units="in"
     width="11cm"
     inkscape:window-width="1274"
     inkscape:window-height="544"
     inkscape:window-x="0"
     inkscape:window-y="420"
     inkscape:window-maximized="0"
     fit-margin-top="0"
     fit-margin-left="0"
     fit-margin-right="0"
     fit-margin-bottom="0"
     inkscape:snap-grids="false">
    <inkscape:grid
       spacingy="2px"
       spacingx="2px"
       snapvisiblegridlinesonly="true"
       enabled="true"
       visible="true"
       empspacing="5"
       id="grid2984"
       type="xygrid"
       originx="-29.499538px"
       originy="-199.23944px" />
  </sodipodi:namedview>
  <defs
     id="defs4">
    <marker
       inkscape:stockid="Arrow2Lstart"
       orient="auto"
       refY="0"
       refX="0"
       id="Arrow2Lstart"
       style="overflow:visible">
      <path
         id="path4510"
         style="fill-rule:evenodd;stroke-width:0.625;stroke-linejoin:round"
         d="M 8.7185878,4.0337352 -2.2072895,0.01601326 8.7185884,-4.0017078 c -1.7454984,2.3720609 -1.7354408,5.6174519 -6e-7,8.035443 z"
         transform="matrix(1.1,0,0,1.1,1.1,0)"
         inkscape:connector-curvature="0" />
    </marker>
    <marker
       inkscape:stockid="Arrow2Lend"
       orient="auto"
       refY="0"
       refX="0"
       id="Arrow2Lend"
       style="overflow:visible">
      <path
         id="path4513"
         style="fill-rule:evenodd;stroke-width:0.625;stroke-linejoin:round"
         d="M 8.7185878,4.0337352 -2.2072895,0.01601326 8.7185884,-4.0017078 c -1.7454984,2.3720609 -1.7354408,5.6174519 -6e-7,8.035443 z"
         transform="matrix(-1.1,0,0,-1.1,-1.1,0)"
         inkscape:connector-curvature="0" />
    </marker>
    <marker
       inkscape:stockid="Arrow2Mend"
       orient="auto"
       refY="0"
       refX="0"
       id="Arrow2Mend"
       style="overflow:visible">
      <path
         inkscape:connector-curvature="0"
         id="path3966"
         style="fill-rule:evenodd;stroke-width:0.625;stroke-linejoin:round"
         d="M 8.7185878,4.0337352 -2.2072895,0.01601326 8.7185884,-4.0017078 c -1.7454984,2.3720609 -1.7354408,5.6174519 -6e-7,8.035443 z"
         transform="scale(-0.6,-0.6)" />
    </marker>
  </defs>
  <metadata
     id="metadata7">
    <rdf:RDF>
      <cc:Work
         rdf:about="">
        <dc:format>image/svg+xml</dc:format>
        <dc:type
           rdf:resource="http://purl.org/dc/dcmitype/StillImage" />
        <dc:title></dc:title>
      </cc:Work>
    </rdf:RDF>
  </metadata>
  <g
     inkscape:label="Layer 1"
     inkscape:groupmode="layer"
     id="layer1"
     transform="translate(33.52882,-692.76691)">
    <path
       sodipodi:open="true"
       sodipodi:end="9.3740607"
       sodipodi:start="3.0912408"
       transform="translate(-53.17297,659.96787)"
       d="m 40.025348,141.54232 c -0.555937,-11.0317 7.936345,-20.42533 18.96804,-20.98127 11.031696,-0.55593 20.425328,7.93635 20.981264,18.96804 0.555937,11.0317 -7.936345,20.42533 -18.96804,20.98127 -11.028846,0.55579 -20.421073,-7.9321 -20.980895,-18.96074"
       sodipodi:ry="20"
       sodipodi:rx="20"
       sodipodi:cy="140.53571"
       sodipodi:cx="60"
       id="path13175"
       style="opacity:0.96116507;fill:none;stroke:#000000;stroke-width:1;stroke-miterlimit:4;stroke-opacity:1;stroke-dasharray:none;stroke-dashoffset:0"
       sodipodi:type="arc" />
    <path
       sodipodi:open="true"
       sodipodi:end="9.3740607"
       sodipodi:start="3.0912408"
       d="m 40.025348,141.54232 c -0.555937,-11.0317 7.936345,-20.42533 18.96804,-20.98127 11.031696,-0.55593 20.425328,7.93635 20.981264,18.96804 0.555937,11.0317 -7.936345,20.42533 -18.96804,20.98127 -11.028846,0.55579 -20.421073,-7.9321 -20.980895,-18.96074"
       sodipodi:ry="20"
       sodipodi:rx="20"
       sodipodi:cy="140.53571"
       sodipodi:cx="60"
       id="path13175-4"
       style="opacity:0.96116507;fill:none;stroke:#000000;stroke-width:1;stroke-miterlimit:4;stroke-opacity:1;stroke-dasharray:none;stroke-dashoffset:0"
       sodipodi:type="arc"
       transform="translate(-73.028358,625.51153)" />
    <path
       sodipodi:open="true"
       sodipodi:end="9.3740607"
       sodipodi:start="3.0912408"
       d="m 40.025348,141.54232 c -0.555937,-11.0317 7.936345,-20.42533 18.96804,-20.98127 11.031696,-0.55593 20.425328,7.93635 20.981264,18.96804 0.555937,11.0317 -7.936345,20.42533 -18.96804,20.98127 -11.028846,0.55579 -20.421073,-7.9321 -20.980895,-18.96074"
       sodipodi:ry="20"
       sodipodi:rx="20"
       sodipodi:cy="140.53571"
       sodipodi:cx="60"
       id="path13175-6"
       style="opacity:0.96116507;fill:none;stroke:#000000;stroke-width:1;stroke-miterlimit:4;stroke-opacity:1;stroke-dasharray:none;stroke-dashoffset:0"
       sodipodi:type="arc"
       transform="translate(-72.412396,695.04018)" />
    <path
       sodipodi:open="true"
       sodipodi:end="9.3740607"
       sodipodi:start="3.0912408"
       d="m 40.025348,141.54232 c -0.555937,-11.0317 7.936345,-20.42533 18.96804,-20.98127 11.031696,-0.55593 20.425328,7.93635 20.981264,18.96804 0.555937,11.0317 -7.936345,20.42533 -18.96804,20.98127 -11.028846,0.55579 -20.421073,-7.9321 -20.980895,-18.96074"
       sodipodi:ry="20"
       sodipodi:rx="20"
       sodipodi:cy="140.53571"
       sodipodi:cx="60"
       id="path13175-41"
       style="opacity:0.96116507;fill:none;stroke:#000000;stroke-width:1;stroke-miterlimit:4;stroke-opacity:1;stroke-dasharray:none;stroke-dashoffset:0"
       sodipodi:type="arc"
       transform="translate(-33.028358,625.51153)" />
    <path
       sodipodi:open="true"
       sodipodi:end="9.3740607"
       sodipodi:start="3.0912408"
       d="m 40.025348,141.54232 c -0.555937,-11.0317 7.936345,-20.42533 18.96804,-20.98127 11.031696,-0.55593 20.425328,7.93635 20.981264,18.96804 0.555937,11.0317 -7.936345,20.42533 -18.96804,20.98127 -11.028846,0.55579 -20.421073,-7.9321 -20.980895,-18.96074"
       sodipodi:ry="20"
       sodipodi:rx="20"
       sodipodi:cy="140.53571"
       sodipodi:cx="60"
       id="path13175-49"
       style="opacity:0.96116507;fill:none;stroke:#000000;stroke-width:1;stroke-miterlimit:4;stroke-opacity:1;stroke-dasharray:none;stroke-dashoffset:0"
       sodipodi:type="arc"
       transform="translate(6.9716424,625.51153)" />
    <path
       sodipodi:open="true"
       sodipodi:end="9.3740607"
       sodipodi:start="3.0912408"
       d="m 40.025348,141.54232 c -0.555937,-11.0317 7.936345,-20.42533 18.96804,-20.98127 11.031696,-0.55593 20.425328,7.93635 20.981264,18.96804 0.555937,11.0317 -7.936345,20.42533 -18.96804,20.98127 -11.028846,0.55579 -20.421073,-7.9321 -20.980895,-18.96074"
       sodipodi:ry="20"
       sodipodi:rx="20"
       sodipodi:cy="140.53571"
       sodipodi:cx="60"
       id="path13175-7"
       style="opacity:0.96116507;fill:none;stroke:#000000;stroke-width:1;stroke-miterlimit:4;stroke-opacity:1;stroke-dasharray:none;stroke-dashoffset:0"
       sodipodi:type="arc"
       transform="translate(26.864546,660.58383)" />
    <path
       sodipodi:open="true"
       sodipodi:end="9.3740607"
       sodipodi:start="3.0912408"
       d="m 40.025348,141.54232 c -0.555937,-11.0317 7.936345,-20.42533 18.96804,-20.98127 11.031696,-0.55593 20.425328,7.93635 20.981264,18.96804 0.555937,11.0317 -7.936345,20.42533 -18.96804,20.98127 -11.028846,0.55579 -20.421073,-7.9321 -20.980895,-18.96074"
       sodipodi:ry="20"
       sodipodi:rx="20"
       sodipodi:cy="140.53571"
       sodipodi:cx="60"
       id="path13175-3"
       style="opacity:0.96116507;fill:none;stroke:#000000;stroke-width:1;stroke-miterlimit:4;stroke-opacity:1;stroke-dasharray:none;stroke-dashoffset:0"
       sodipodi:type="arc"
       transform="translate(-13.210484,659.96787)" />
    <path
       sodipodi:open="true"
       sodipodi:end="9.3740607"
       sodipodi:start="3.0912408"
       d="m 40.025348,141.54232 c -0.555937,-11.0317 7.936345,-20.42533 18.96804,-20.98127 11.031696,-0.55593 20.425328,7.93635 20.981264,18.96804 0.555937,11.0317 -7.936345,20.42533 -18.96804,20.98127 -11.028846,0.55579 -20.421073,-7.9321 -20.980895,-18.96074"
       sodipodi:ry="20"
       sodipodi:rx="20"
       sodipodi:cy="140.53571"
       sodipodi:cx="60"
       id="path13175-38"
       style="opacity:0.96116507;fill:none;stroke:#000000;stroke-width:1;stroke-miterlimit:4;stroke-opacity:1;stroke-dasharray:none;stroke-dashoffset:0"
       sodipodi:type="arc"
       transform="translate(-32.412396,695.04018)" />
    <path
       sodipodi:open="true"
       sodipodi:end="9.3740607"
       sodipodi:start="3.0912408"
       d="m 40.025348,141.54232 c -0.555937,-11.0317 7.936345,-20.42533 18.96804,-20.98127 11.031696,-0.55593 20.425328,7.93635 20.981264,18.96804 0.555937,11.0317 -7.936345,20.42533 -18.96804,20.98127 -11.028846,0.55579 -20.421073,-7.9321 -20.980895,-18.96074"
       sodipodi:ry="20"
       sodipodi:rx="20"
       sodipodi:cy="140.53571"
       sodipodi:cx="60"
       id="path13175-77"
       style="opacity:0.96116507;fill:none;stroke:#000000;stroke-width:1;stroke-miterlimit:4;stroke-opacity:1;stroke-dasharray:none;stroke-dashoffset:0"
       sodipodi:type="arc"
       transform="translate(7.5876042,695.04018)" />
    <path
       sodipodi:open="true"
       sodipodi:end="9.3740607"
       sodipodi:start="3.0912408"
       transform="translate(7.1912826,626.08998)"
       d="m -9.9873261,151.03901 c -0.2779679,-5.51585 3.9681724,-10.21266 9.4840203,-10.49063 5.5158479,-0.27797 10.2126638,3.96817 10.4906319,9.48402 0.2779679,5.51585 -3.9681724,10.21266 -9.4840203,10.49063 -5.5144228,0.2779 -10.2105361,-3.96605 -10.4904474,-9.48037"
       sodipodi:ry="10"
       sodipodi:rx="10"
       sodipodi:cy="150.53571"
       sodipodi:cx="0"
       id="path13772"
       style="opacity:0.96116507;fill:#000000;stroke:#000000;stroke-width:1;stroke-miterlimit:4;stroke-opacity:1;stroke-dasharray:none;stroke-dashoffset:0"
       sodipodi:type="arc" />
    <path
       transform="translate(-63.028358,665.51153)"
       inkscape:connector-curvature="0"
       id="path13774"
       d="m 80,110.53571 30,0"
       style="fill:none;stroke:#000000;stroke-width:1px;stroke-linecap:butt;stroke-linejoin:miter;stroke-opacity:1;marker-end:url(#Arrow2Lend)" />
    <path
       sodipodi:open="true"
       sodipodi:end="9.3740607"
       sodipodi:start="3.0912408"
       d="m 40.025348,141.54232 c -0.555937,-11.0317 7.936345,-20.42533 18.96804,-20.98127 11.031696,-0.55593 20.425328,7.93635 20.981264,18.96804 0.555937,11.0317 -7.936345,20.42533 -18.96804,20.98127 -11.028846,0.55579 -20.421073,-7.9321 -20.980895,-18.96074"
       sodipodi:ry="20"
       sodipodi:rx="20"
       sodipodi:cy="140.53571"
       sodipodi:cx="60"
       id="path13175-49-9"
       style="opacity:0.96116507;fill:none;stroke:#000000;stroke-width:1;stroke-miterlimit:4;stroke-opacity:1;stroke-dasharray:none;stroke-dashoffset:0"
       sodipodi:type="arc"
       transform="translate(126.97164,625.51153)" />
    <path
       sodipodi:open="true"
       sodipodi:end="9.3740607"
       sodipodi:start="3.0912408"
       d="m 40.025348,141.54232 c -0.555937,-11.0317 7.936345,-20.42533 18.96804,-20.98127 11.031696,-0.55593 20.425328,7.93635 20.981264,18.96804 0.555937,11.0317 -7.936345,20.42533 -18.96804,20.98127 -11.028846,0.55579 -20.421073,-7.9321 -20.980895,-18.96074"
       sodipodi:ry="20"
       sodipodi:rx="20"
       sodipodi:cy="140.53571"
       sodipodi:cx="60"
       id="path13175-49-5"
       style="opacity:0.96116507;fill:none;stroke:#000000;stroke-width:1;stroke-miterlimit:4;stroke-opacity:1;stroke-dasharray:none;stroke-dashoffset:0"
       sodipodi:type="arc"
       transform="translate(126.97164,675.51153)" />
    <path
       sodipodi:open="true"
       sodipodi:end="9.3740607"
       sodipodi:start="3.0912408"
       transform="translate(187.19128,640.54632)"
       d="m -9.9873261,151.03901 c -0.2779679,-5.51585 3.9681724,-10.21266 9.4840203,-10.49063 5.5158479,-0.27797 10.2126638,3.96817 10.4906319,9.48402 0.2779679,5.51585 -3.9681724,10.21266 -9.4840203,10.49063 -5.5144228,0.2779 -10.2105361,-3.96605 -10.4904474,-9.48037"
       sodipodi:ry="10"
       sodipodi:rx="10"
       sodipodi:cy="150.53571"
       sodipodi:cx="0"
       id="path13772-9"
       style="opacity:0.96116507;fill:#000000;stroke:#000000;stroke-width:1;stroke-miterlimit:4;stroke-opacity:1;stroke-dasharray:none;stroke-dashoffset:0"
       sodipodi:type="arc" />
    <path
       transform="translate(-63.028358,665.51153)"
       inkscape:connector-curvature="0"
       id="path13819"
       d="m 250,80.535706 0,-20"
       style="fill:none;stroke:#000000;stroke-width:1px;stroke-linecap:butt;stroke-linejoin:miter;stroke-opacity:1;marker-end:url(#Arrow2Lend)" />
    <path
       transform="translate(-63.028358,665.51153)"
       inkscape:connector-curvature="0"
       id="path13821"
       d="m 250,170.53571 0,20"
       style="fill:none;stroke:#000000;stroke-width:1px;stroke-linecap:butt;stroke-linejoin:miter;stroke-opacity:1;marker-end:url(#Arrow2Lend)" />
    <path
       transform="translate(-63.028358,665.51153)"
       inkscape:connector-curvature="0"
       id="path13823"
       d="m 330,60.535706 0,130.000004 200,0"
       style="fill:none;stroke:#000000;stroke-width:1px;stroke-linecap:butt;stroke-linejoin:miter;stroke-opacity:1;marker-start:url(#Arrow2Lstart);marker-end:url(#Arrow2Lend)" />
    <path
       sodipodi:nodetypes="cc"
       transform="translate(-63.028358,665.51153)"
       inkscape:connector-curvature="0"
       id="path13825"
       d="m 340,150.53571 180,0"
       style="fill:none;stroke:#000000;stroke-width:1px;stroke-linecap:butt;stroke-linejoin:miter;stroke-opacity:1" />
    <path
       sodipodi:nodetypes="csssc"
       transform="translate(-63.028358,665.51153)"
       inkscape:connector-curvature="0"
       id="path13827"
       d="m 340,130.53571 c 0,0 10,20 30,20 40,0 30,-80.000004 60,-80.000004 30,0 20,80.000004 60,80.000004 20,0 30,-20 30,-20"
       style="fill:none;stroke:#000000;stroke-width:1px;stroke-linecap:butt;stroke-linejoin:miter;stroke-opacity:1" />
    <path
       transform="translate(-63.028358,665.51153)"
       inkscape:connector-curvature="0"
       id="path13829"
       d="m 430,150.53571 0,-80.000004"
       style="fill:none;stroke:#000000;stroke-width:1px;stroke-linecap:butt;stroke-linejoin:miter;stroke-opacity:1" />
    <path
       transform="translate(-63.028358,665.51153)"
       inkscape:connector-curvature="0"
       id="path13831"
       d="m 360,70.535706 180,0"
       style="fill:none;stroke:#000000;stroke-width:1px;stroke-linecap:butt;stroke-linejoin:miter;stroke-opacity:1" />
    <path
       sodipodi:nodetypes="csc"
       transform="translate(-63.028358,665.51153)"
       inkscape:connector-curvature="0"
       id="path13833"
       d="m 420,60.535706 c 0,0 0,10 10,10 10,0 10,-20 10,-20"
       style="fill:none;stroke:#000000;stroke-width:1px;stroke-linecap:butt;stroke-linejoin:miter;stroke-opacity:1" />
    <path
       sodipodi:nodetypes="cc"
       inkscape:connector-curvature="0"
       id="path13837"
       d="m 350.81202,715.43127 c -14.91991,-5.27551 -22.91227,-1.1963 -30,-10"
       style="fill:none;stroke:#000000;stroke-width:1px;stroke-linecap:butt;stroke-linejoin:miter;stroke-opacity:1;marker-start:url(#Arrow2Lstart);marker-end:none" />
    <text
       transform="matrix(0,-1,1,0,0,0)"
       sodipodi:linespacing="100%"
       id="text13839"
       y="256.82703"
       x="-825.43127"
       style="font-size:16px;font-style:normal;font-variant:normal;font-weight:500;font-stretch:normal;text-align:start;line-height:100%;letter-spacing:0px;word-spacing:0px;writing-mode:lr-tb;text-anchor:start;fill:#000000;fill-opacity:1;stroke:none;font-family:Rekha;-inkscape-font-specification:Rekha Medium"
       xml:space="preserve"><tspan
         y="256.82703"
         x="-825.43127"
         id="tspan13841"
         sodipodi:role="line">ENERGY</tspan></text>
    <text
       sodipodi:linespacing="100%"
       id="text13843"
       y="876.8078"
       x="346.97165"
       style="font-size:16px;font-style:normal;font-variant:normal;font-weight:500;font-stretch:normal;text-align:start;line-height:100%;letter-spacing:0px;word-spacing:0px;writing-mode:lr-tb;text-anchor:start;fill:#000000;fill-opacity:1;stroke:none;font-family:Rekha;-inkscape-font-specification:Rekha Medium"
       xml:space="preserve"><tspan
         y="876.8078"
         x="346.97165"
         id="tspan13845"
         sodipodi:role="line">PATH</tspan></text>
    <text
       sodipodi:linespacing="100%"
       id="text13847"
       y="703.43878"
       x="252.65991"
       style="font-size:16px;font-style:normal;font-variant:normal;font-weight:500;font-stretch:normal;text-align:start;line-height:100%;letter-spacing:0px;word-spacing:0px;writing-mode:lr-tb;text-anchor:start;fill:#000000;fill-opacity:1;stroke:none;font-family:Rekha;-inkscape-font-specification:Rekha Medium"
       xml:space="preserve"><tspan
         y="703.43878"
         x="252.65991"
         id="tspan13849"
         sodipodi:role="line">Saddle Point</tspan></text>
    <g
       ns0:preamble=""
       ns0:text="$\\mathrm{\\Delta G_m}$"
       word-spacing="normal"
       letter-spacing="normal"
       font-size-adjust="none"
       font-stretch="normal"
       font-weight="normal"
       font-variant="normal"
       font-style="normal"
       stroke-miterlimit="10.433"
       xml:space="preserve"
       transform="matrix(1.1968828,0,0,-1.1968828,70.674409,1584.2274)"
       id="content"
       style="font-style:normal;font-variant:normal;font-weight:normal;font-stretch:normal;letter-spacing:normal;word-spacing:normal;text-anchor:start;fill:none;stroke:#000000;stroke-linecap:butt;stroke-linejoin:miter;stroke-miterlimit:10.43299961;stroke-opacity:1;stroke-dasharray:none;stroke-dashoffset:0"><path
         id="path13889"
         d="m 227.83,664.17 -0.01,0.01 0,0.01 -0.01,0.01 0,0.01 -0.01,0.01 -0.01,0.01 0,0.01 -0.01,0.01 0,0.01 -0.01,0.01 0,0.01 -0.01,0 0,0.01 -0.01,0.01 -0.01,0 0,0.01 -0.01,0 -0.01,0.01 0,0 -0.01,0.01 -0.01,0 -0.01,0 -0.01,0.01 -0.01,0 -0.01,0 -0.01,0 -0.01,0 -0.01,0.01 -0.02,0 -0.01,0 -0.01,0 -0.02,0 c -0.17,0 -0.19,-0.05 -0.26,-0.18 l -0.06,-0.82 2.68,-5.36 h -5.36 l 2.68,5.36 0.06,0.82 -3.36,-6.74 c -0.05,-0.09 -0.05,-0.11 -0.05,-0.12 0,-0.08 0.06,-0.08 0.22,-0.08 h 6.9 c 0.16,0 0.22,0 0.22,0.08 0,0.01 0,0.03 -0.05,0.12 z"
         inkscape:connector-curvature="0"
         style="fill:#000000;stroke-width:0" /><path
         id="path13891"
         d="m 237.63,657.86 0.02,-0.02 0.01,-0.02 0.02,-0.02 0.01,-0.03 0.02,-0.02 0.02,-0.03 0.02,-0.02 0.02,-0.03 0.02,-0.02 0.03,-0.03 0.04,-0.05 0.05,-0.05 0.05,-0.05 0.02,-0.02 0.03,-0.03 0.02,-0.02 0.02,-0.02 0.03,-0.02 0.02,-0.02 0.02,-0.01 0.02,-0.02 0.02,-0.01 0.02,-0.02 0.02,-0.01 0.02,-0.01 0.01,-0.01 0.02,0 0,0 0.01,0 0,0 0.01,-0.01 c 0.09,0 0.09,0.08 0.09,0.23 v 1.73 c 0,0.39 0.04,0.44 0.69,0.44 v 0.31 c -0.37,-0.01 -0.92,-0.03 -1.22,-0.03 -0.4,0 -1.24,0 -1.6,0.03 v -0.31 h 0.32 c 0.9,0 0.93,-0.11 0.93,-0.48 v -0.63 c 0,-1.12 -1.27,-1.21 -1.55,-1.21 -0.64,0 -2.61,0.35 -2.61,3.31 0,2.97 1.96,3.3 2.55,3.3 1.07,0 1.97,-0.89 2.17,-2.35 0.02,-0.14 0.02,-0.17 0.16,-0.17 0.16,0 0.16,0.03 0.16,0.24 V 664 c 0,0.17 0,0.24 -0.11,0.24 -0.04,0 -0.08,0 -0.16,-0.12 l -0.5,-0.74 c -0.31,0.32 -0.85,0.86 -1.84,0.86 -1.85,0 -3.46,-1.57 -3.46,-3.61 0,-2.03 1.59,-3.61 3.48,-3.61 0.73,0 1.52,0.26 1.86,0.84 z"
         inkscape:connector-curvature="0"
         style="fill:#000000;stroke-width:0" /><path
         id="path13893"
         d="m 245.28,657.85 0,0.05 -0.01,0.06 0,0.05 -0.01,0.05 -0.01,0.05 -0.01,0.05 -0.01,0.05 -0.01,0.04 -0.02,0.05 -0.02,0.04 -0.02,0.04 -0.02,0.04 -0.02,0.03 -0.03,0.04 -0.03,0.03 -0.03,0.03 -0.03,0.03 -0.03,0.03 -0.04,0.03 -0.04,0.02 -0.04,0.03 -0.05,0.02 -0.04,0.02 -0.05,0.01 -0.05,0.02 -0.05,0.01 -0.06,0.01 -0.06,0.01 -0.06,0.01 -0.06,0 -0.07,0.01 -0.07,0 c -0.55,0 -0.92,-0.3 -1.11,-0.65 -0.14,0.5 -0.52,0.65 -1.03,0.65 -0.57,0 -0.94,-0.32 -1.13,-0.68 h -0.01 v 0.68 l -1.02,-0.08 v -0.25 c 0.47,0 0.52,-0.05 0.52,-0.39 v -1.8 c 0,-0.3 -0.07,-0.3 -0.52,-0.3 v -0.25 c 0.01,0 0.5,0.03 0.79,0.03 0.26,0 0.74,-0.02 0.8,-0.03 v 0.25 c -0.45,0 -0.52,0 -0.52,0.3 v 1.25 c 0,0.73 0.58,1.07 1.04,1.07 0.49,0 0.55,-0.38 0.55,-0.73 v -1.59 c 0,-0.3 -0.07,-0.3 -0.52,-0.3 v -0.25 c 0.01,0 0.5,0.03 0.79,0.03 0.26,0 0.74,-0.02 0.8,-0.03 v 0.25 c -0.45,0 -0.52,0 -0.52,0.3 v 1.25 c 0,0.73 0.58,1.07 1.04,1.07 0.48,0 0.55,-0.38 0.55,-0.73 v -1.59 c 0,-0.3 -0.07,-0.3 -0.53,-0.3 v -0.25 c 0.02,0 0.51,0.03 0.8,0.03 0.26,0 0.74,-0.02 0.8,-0.03 v 0.25 c -0.45,0 -0.52,0 -0.52,0.3 z"
         inkscape:connector-curvature="0"
         style="fill:#000000;stroke-width:0" /></g>  </g>
</svg>
