<?xml version="1.0" encoding="UTF-8" standalone="no"?>
<!-- Created with Inkscape (http://www.inkscape.org/) -->

<svg
   xmlns:ns0="http://www.iki.fi/pav/software/textext/"
   xmlns:dc="http://purl.org/dc/elements/1.1/"
   xmlns:cc="http://creativecommons.org/ns#"
   xmlns:rdf="http://www.w3.org/1999/02/22-rdf-syntax-ns#"
   xmlns:svg="http://www.w3.org/2000/svg"
   xmlns="http://www.w3.org/2000/svg"
   xmlns:xlink="http://www.w3.org/1999/xlink"
   xmlns:sodipodi="http://sodipodi.sourceforge.net/DTD/sodipodi-0.dtd"
   xmlns:inkscape="http://www.inkscape.org/namespaces/inkscape"
   width="379.03125"
   height="350.56244"
   id="svg2"
   version="1.1"
   inkscape:version="0.48.4 r9939"
   sodipodi:docname="315drawing37.svg">
  <sodipodi:namedview
     id="base"
     pagecolor="#ffffff"
     bordercolor="#666666"
     borderopacity="1.0"
     inkscape:pageopacity="0.0"
     inkscape:pageshadow="2"
     inkscape:zoom="1.5004828"
     inkscape:cx="214.59742"
     inkscape:cy="137.44254"
     inkscape:document-units="px"
     inkscape:current-layer="layer1"
     showgrid="true"
     units="in"
     width="11cm"
     inkscape:window-width="1280"
     inkscape:window-height="967"
     inkscape:window-x="0"
     inkscape:window-y="0"
     inkscape:window-maximized="1"
     fit-margin-top="0"
     fit-margin-left="0"
     fit-margin-right="0"
     fit-margin-bottom="0"
     inkscape:snap-grids="false">
    <inkscape:grid
       type="xygrid"
       id="grid2984"
       empspacing="5"
       visible="true"
       enabled="true"
       snapvisiblegridlinesonly="true"
       spacingx="2px"
       spacingy="2px"
       originx="-130.23437px"
       originy="-70.000055px" />
  </sodipodi:namedview>
  <defs
     id="defs4">
    <marker
       style="overflow:visible"
       id="Arrow2Mend"
       refX="0"
       refY="0"
       orient="auto"
       inkscape:stockid="Arrow2Mend">
      <path
         transform="scale(-0.6,-0.6)"
         d="M 8.7185878,4.0337352 -2.2072895,0.01601326 8.7185884,-4.0017078 c -1.7454984,2.3720609 -1.7354408,5.6174519 -6e-7,8.035443 z"
         style="fill-rule:evenodd;stroke-width:0.625;stroke-linejoin:round"
         id="path3966"
         inkscape:connector-curvature="0" />
    </marker>
  </defs>
  <metadata
     id="metadata7">
    <rdf:RDF>
      <cc:Work
         rdf:about="">
        <dc:format>image/svg+xml</dc:format>
        <dc:type
           rdf:resource="http://purl.org/dc/dcmitype/StillImage" />
        <dc:title></dc:title>
      </cc:Work>
    </rdf:RDF>
  </metadata>
  <g
     transform="translate(-67.206017,-655.48474)"
     id="layer1"
     inkscape:groupmode="layer"
     inkscape:label="Layer 1">
    <path
       style="fill:none;stroke:#000000;stroke-width:1px;stroke-linecap:butt;stroke-linejoin:miter;stroke-opacity:1"
       d="m 320,10.535706 -180,310.000004 360,0 z"
       id="path3671"
       inkscape:connector-curvature="0"
       transform="translate(-63.028358,665.51153)"
       sodipodi:nodetypes="cccc" />
    <text
       xml:space="preserve"
       style="font-size:16px;font-style:normal;font-variant:normal;font-weight:500;font-stretch:normal;text-align:start;line-height:100%;letter-spacing:0px;word-spacing:0px;writing-mode:lr-tb;text-anchor:start;fill:#000000;fill-opacity:1;stroke:none;font-family:Rekha;-inkscape-font-specification:Rekha Medium"
       x="251.25737"
       y="666.04724"
       id="text3673"
       sodipodi:linespacing="100%"><tspan
         sodipodi:role="line"
         id="tspan3675"
         x="251.25737"
         y="666.04724">C</tspan></text>
    <text
       xml:space="preserve"
       style="font-size:16px;font-style:normal;font-variant:normal;font-weight:500;font-stretch:normal;text-align:start;line-height:100%;letter-spacing:0px;word-spacing:0px;writing-mode:lr-tb;text-anchor:start;fill:#000000;fill-opacity:1;stroke:none;font-family:Rekha;-inkscape-font-specification:Rekha Medium"
       x="66.971642"
       y="1006.0472"
       id="text3677"
       sodipodi:linespacing="100%"><tspan
         sodipodi:role="line"
         id="tspan3679"
         x="66.971642"
         y="1006.0472">A</tspan></text>
    <text
       xml:space="preserve"
       style="font-size:16px;font-style:normal;font-variant:normal;font-weight:500;font-stretch:normal;text-align:start;line-height:100%;letter-spacing:0px;word-spacing:0px;writing-mode:lr-tb;text-anchor:start;fill:#000000;fill-opacity:1;stroke:none;font-family:Rekha;-inkscape-font-specification:Rekha Medium"
       x="436.97165"
       y="1006.0472"
       id="text3681"
       sodipodi:linespacing="100%"><tspan
         sodipodi:role="line"
         id="tspan3683"
         x="436.97165"
         y="1006.0472">B</tspan></text>
    <path
       style="fill:none;stroke:#000000;stroke-width:1px;stroke-linecap:butt;stroke-linejoin:miter;stroke-opacity:1"
       d="m 256.97164,979.61867 0,10"
       id="path3685"
       inkscape:connector-curvature="0" />
    <text
       xml:space="preserve"
       style="font-size:16px;font-style:normal;font-variant:normal;font-weight:500;font-stretch:normal;text-align:start;line-height:100%;letter-spacing:0px;word-spacing:0px;writing-mode:lr-tb;text-anchor:start;fill:#000000;fill-opacity:1;stroke:none;font-family:Rekha;-inkscape-font-specification:Rekha Medium"
       x="246.97165"
       y="1006.0472"
       id="text3687"
       sodipodi:linespacing="100%"><tspan
         sodipodi:role="line"
         id="tspan3689"
         x="246.97165"
         y="1006.0472">AB</tspan></text>
    <path
       style="fill:none;stroke:#000000;stroke-width:1px;stroke-linecap:butt;stroke-linejoin:miter;stroke-opacity:1"
       d="m 200.48773,216.76289 c 19.4848,5.99698 33.48878,7.67515 60.03461,24.70107 -14.15847,26.69834 -27.25376,54.4145 -33.31025,78.79799"
       id="path3691"
       inkscape:connector-curvature="0"
       transform="translate(-63.028358,665.51153)"
       sodipodi:nodetypes="ccc" />
    <path
       style="fill:none;stroke:#000000;stroke-width:1px;stroke-linecap:butt;stroke-linejoin:miter;stroke-opacity:1"
       d="m 260.41537,241.73772 c 22.10743,-3.20427 54.36021,-4.30109 102.60856,-6.36879 12.56897,-18.8609 36.39402,-36.95745 58.17808,-49.84581"
       id="path3693"
       inkscape:connector-curvature="0"
       transform="translate(-63.028358,665.51153)"
       sodipodi:nodetypes="ccc" />
    <path
       style="fill:none;stroke:#000000;stroke-width:1px;stroke-linecap:butt;stroke-linejoin:miter;stroke-opacity:1"
       d="m 362.85714,234.82143 c 15.6425,27.56688 30.84448,55.39807 40.71429,86.42856"
       id="path3695"
       inkscape:connector-curvature="0"
       transform="translate(-63.028358,665.51153)"
       sodipodi:nodetypes="cc" />
    <text
       xml:space="preserve"
       style="font-size:24px;font-style:normal;font-variant:normal;font-weight:500;font-stretch:normal;text-align:start;line-height:100%;letter-spacing:0px;word-spacing:0px;writing-mode:lr-tb;text-anchor:start;fill:#000000;fill-opacity:1;stroke:none;font-family:Rekha;-inkscape-font-specification:Rekha Medium"
       x="116.97165"
       y="966.04724"
       id="text3716"
       sodipodi:linespacing="100%"><tspan
         sodipodi:role="line"
         id="tspan3718"
         x="116.97165"
         y="966.04724">A</tspan></text>
    <text
       xml:space="preserve"
       style="font-size:24px;font-style:normal;font-variant:normal;font-weight:500;font-stretch:normal;text-align:start;line-height:100%;letter-spacing:0px;word-spacing:0px;writing-mode:lr-tb;text-anchor:start;fill:#000000;fill-opacity:1;stroke:none;font-family:Rekha;-inkscape-font-specification:Rekha Medium"
       x="206.97165"
       y="966.04724"
       id="text3720"
       sodipodi:linespacing="100%"><tspan
         sodipodi:role="line"
         id="tspan3722"
         x="206.97165"
         y="966.04724">AB</tspan></text>
    <text
       xml:space="preserve"
       style="font-size:24px;font-style:normal;font-variant:normal;font-weight:500;font-stretch:normal;text-align:start;line-height:100%;letter-spacing:0px;word-spacing:0px;writing-mode:lr-tb;text-anchor:start;fill:#000000;fill-opacity:1;stroke:none;font-family:Rekha;-inkscape-font-specification:Rekha Medium"
       x="356.97165"
       y="966.04724"
       id="text3724"
       sodipodi:linespacing="100%"><tspan
         sodipodi:role="line"
         id="tspan3726"
         x="356.97165"
         y="966.04724">B</tspan></text>
    <text
       xml:space="preserve"
       style="font-size:24px;font-style:normal;font-variant:normal;font-weight:500;font-stretch:normal;text-align:start;line-height:100%;letter-spacing:0px;word-spacing:0px;writing-mode:lr-tb;text-anchor:start;fill:#000000;fill-opacity:1;stroke:none;font-family:Rekha;-inkscape-font-specification:Rekha Medium"
       x="216.97165"
       y="856.04724"
       id="text3728"
       sodipodi:linespacing="100%"><tspan
         sodipodi:role="line"
         id="tspan3730"
         x="216.97165"
         y="856.04724">C</tspan></text>
    <path
       style="fill:none;stroke:#000000;stroke-width:1px;stroke-linecap:butt;stroke-linejoin:miter;stroke-opacity:1"
       d="m 189.76563,20.562494 0,309.999996"
       id="path3866"
       inkscape:connector-curvature="0"
       transform="translate(67.206017,655.48474)" />
    <path
       sodipodi:type="arc"
       style="fill:none;stroke:#0b0e0e;stroke-width:1;stroke-linecap:round;stroke-miterlimit:4;stroke-opacity:0.94736843;stroke-dasharray:none;stroke-dashoffset:0"
       id="path3868"
       sodipodi:cx="74.765633"
       sodipodi:cy="155.5625"
       sodipodi:rx="5"
       sodipodi:ry="5"
       d="m 79.765633,155.5625 c 0,2.76142 -2.238577,5 -5,5 -2.761424,0 -5,-2.23858 -5,-5 0,-2.76142 2.238576,-5 5,-5 2.722938,0 4.945251,2.17885 4.999025,4.90126"
       transform="translate(123.188,751.45385)"
       sodipodi:start="0"
       sodipodi:end="6.2634358"
       sodipodi:open="true" />
    <path
       transform="translate(225.82807,744.79576)"
       sodipodi:type="arc"
       style="fill:none;stroke:#0b0e0e;stroke-width:1;stroke-linecap:round;stroke-miterlimit:4;stroke-opacity:0.94736843;stroke-dasharray:none;stroke-dashoffset:0"
       id="path3868-0"
       sodipodi:cx="74.765633"
       sodipodi:cy="155.5625"
       sodipodi:rx="5"
       sodipodi:ry="5"
       d="m 79.765633,155.5625 c 0,2.76142 -2.238577,5 -5,5 -2.761424,0 -5,-2.23858 -5,-5 0,-2.76142 2.238576,-5 5,-5 2.722938,0 4.945251,2.17885 4.999025,4.90126"
       sodipodi:start="0"
       sodipodi:end="6.2634358"
       sodipodi:open="true" />
    <g
       transform="matrix(1.4026778,0,0,1.4026778,-120.11245,707.55279)"
       ns0:text="$E_1$"
       ns0:preamble=""
       id="g3920">
      <defs
         id="defs3922">
        <g
           id="g3924">
          <symbol
             style="overflow:visible"
             overflow="visible"
             id="textext-8311a4df-0">
            <path
               inkscape:connector-curvature="0"
               style="stroke:none"
               d=""
               id="path3927" />
          </symbol>
          <symbol
             style="overflow:visible"
             overflow="visible"
             id="textext-8311a4df-1">
            <path
               inkscape:connector-curvature="0"
               style="stroke:none"
               d="M 7.0625,-2.328125 C 7.078125,-2.375 7.109375,-2.4375 7.109375,-2.46875 c 0,0 0,-0.109375 -0.125,-0.109375 -0.09375,0 -0.109375,0.0625 -0.125,0.125 -0.65625,1.46875 -1.015625,2.140625 -2.71875,2.140625 l -1.453125,0 c -0.140625,0 -0.171875,0 -0.21875,0 -0.109375,-0.015625 -0.140625,-0.03125 -0.140625,-0.109375 0,-0.03125 0,-0.046875 0.046875,-0.21875 L 3.0625,-3.375 l 0.984375,0 c 0.84375,0 0.84375,0.21875 0.84375,0.46875 0,0.0625 0,0.1875 -0.0625,0.484375 C 4.8125,-2.375 4.796875,-2.34375 4.796875,-2.3125 c 0,0.046875 0.03125,0.109375 0.125,0.109375 C 5,-2.203125 5.03125,-2.25 5.078125,-2.40625 l 0.5625,-2.328125 c 0,-0.0625 -0.046875,-0.109375 -0.125,-0.109375 -0.078125,0 -0.109375,0.0625 -0.125,0.171875 -0.21875,0.765625 -0.390625,1 -1.3125,1 l -0.9375,0 0.59375,-2.40625 C 3.828125,-6.4375 3.84375,-6.46875 4.28125,-6.46875 l 1.40625,0 c 1.203125,0 1.515625,0.28125 1.515625,1.109375 0,0.234375 0,0.25 -0.046875,0.53125 0,0.046875 -0.015625,0.125 -0.015625,0.171875 0,0.046875 0.03125,0.125 0.125,0.125 0.109375,0 0.125,-0.0625 0.140625,-0.25 L 7.609375,-6.515625 C 7.640625,-6.78125 7.59375,-6.78125 7.34375,-6.78125 l -5.046875,0 c -0.1875,0 -0.296875,0 -0.296875,0.203125 0,0.109375 0.09375,0.109375 0.28125,0.109375 0.375,0 0.65625,0 0.65625,0.171875 0,0.046875 0,0.0625 -0.0625,0.25 L 1.5625,-0.78125 c -0.09375,0.390625 -0.109375,0.46875 -0.90625,0.46875 -0.171875,0 -0.28125,0 -0.28125,0.1875 C 0.375,0 0.46875,0 0.65625,0 l 5.171875,0 c 0.234375,0 0.25,-0.015625 0.3125,-0.171875 z m 0,0"
               id="path3930" />
          </symbol>
          <symbol
             style="overflow:visible"
             overflow="visible"
             id="textext-8311a4df-2">
            <path
               inkscape:connector-curvature="0"
               style="stroke:none"
               d=""
               id="path3933" />
          </symbol>
          <symbol
             style="overflow:visible"
             overflow="visible"
             id="textext-8311a4df-3">
            <path
               inkscape:connector-curvature="0"
               style="stroke:none"
               d="m 2.328125,-4.4375 c 0,-0.1875 0,-0.1875 -0.203125,-0.1875 -0.453125,0.4375 -1.078125,0.4375 -1.359375,0.4375 l 0,0.25 c 0.15625,0 0.625,0 1,-0.1875 l 0,3.546875 c 0,0.234375 0,0.328125 -0.6875,0.328125 l -0.265625,0 0,0.25 c 0.125,0 0.984375,-0.03125 1.234375,-0.03125 0.21875,0 1.09375,0.03125 1.25,0.03125 l 0,-0.25 -0.265625,0 c -0.703125,0 -0.703125,-0.09375 -0.703125,-0.328125 z m 0,0"
               id="path3936" />
          </symbol>
        </g>
      </defs>
      <g
         id="textext-8311a4df-4">
        <g
           style="fill:#000000;fill-opacity:1"
           id="g3939">
          <use
             height="350.56244"
             width="379.03125"
             xlink:href="#textext-8311a4df-1"
             x="223.43201"
             y="134.765"
             id="use3941" />
        </g>
        <g
           style="fill:#000000;fill-opacity:1"
           id="g3943">
          <use
             height="350.56244"
             width="379.03125"
             xlink:href="#textext-8311a4df-3"
             x="230.786"
             y="136.259"
             id="use3945" />
        </g>
      </g>
    </g>
    <g
       id="g4104"
       transform="matrix(1.4026778,0,0,1.4026778,-24.143339,700.89149)"
       ns0:preamble=""
       ns0:text="$E_2$">
      <defs
         id="defs4106">
        <g
           id="g4108">
          <symbol
             id="textext-91502366-0"
             overflow="visible"
             style="overflow:visible">
            <path
               id="path4111"
               d=""
               style="stroke:none"
               inkscape:connector-curvature="0" />
          </symbol>
          <symbol
             id="textext-91502366-1"
             overflow="visible"
             style="overflow:visible">
            <path
               id="path4114"
               d="M 7.0625,-2.328125 C 7.078125,-2.375 7.109375,-2.4375 7.109375,-2.46875 c 0,0 0,-0.109375 -0.125,-0.109375 -0.09375,0 -0.109375,0.0625 -0.125,0.125 -0.65625,1.46875 -1.015625,2.140625 -2.71875,2.140625 l -1.453125,0 c -0.140625,0 -0.171875,0 -0.21875,0 -0.109375,-0.015625 -0.140625,-0.03125 -0.140625,-0.109375 0,-0.03125 0,-0.046875 0.046875,-0.21875 L 3.0625,-3.375 l 0.984375,0 c 0.84375,0 0.84375,0.21875 0.84375,0.46875 0,0.0625 0,0.1875 -0.0625,0.484375 C 4.8125,-2.375 4.796875,-2.34375 4.796875,-2.3125 c 0,0.046875 0.03125,0.109375 0.125,0.109375 C 5,-2.203125 5.03125,-2.25 5.078125,-2.40625 l 0.5625,-2.328125 c 0,-0.0625 -0.046875,-0.109375 -0.125,-0.109375 -0.078125,0 -0.109375,0.0625 -0.125,0.171875 -0.21875,0.765625 -0.390625,1 -1.3125,1 l -0.9375,0 0.59375,-2.40625 C 3.828125,-6.4375 3.84375,-6.46875 4.28125,-6.46875 l 1.40625,0 c 1.203125,0 1.515625,0.28125 1.515625,1.109375 0,0.234375 0,0.25 -0.046875,0.53125 0,0.046875 -0.015625,0.125 -0.015625,0.171875 0,0.046875 0.03125,0.125 0.125,0.125 0.109375,0 0.125,-0.0625 0.140625,-0.25 L 7.609375,-6.515625 C 7.640625,-6.78125 7.59375,-6.78125 7.34375,-6.78125 l -5.046875,0 c -0.1875,0 -0.296875,0 -0.296875,0.203125 0,0.109375 0.09375,0.109375 0.28125,0.109375 0.375,0 0.65625,0 0.65625,0.171875 0,0.046875 0,0.0625 -0.0625,0.25 L 1.5625,-0.78125 c -0.09375,0.390625 -0.109375,0.46875 -0.90625,0.46875 -0.171875,0 -0.28125,0 -0.28125,0.1875 C 0.375,0 0.46875,0 0.65625,0 l 5.171875,0 c 0.234375,0 0.25,-0.015625 0.3125,-0.171875 z m 0,0"
               style="stroke:none"
               inkscape:connector-curvature="0" />
          </symbol>
          <symbol
             id="textext-91502366-2"
             overflow="visible"
             style="overflow:visible">
            <path
               id="path4117"
               d=""
               style="stroke:none"
               inkscape:connector-curvature="0" />
          </symbol>
          <symbol
             id="textext-91502366-3"
             overflow="visible"
             style="overflow:visible">
            <path
               id="path4120"
               d="m 3.515625,-1.265625 -0.234375,0 c -0.015625,0.15625 -0.09375,0.5625 -0.1875,0.625 -0.046875,0.046875 -0.578125,0.046875 -0.6875,0.046875 l -1.28125,0 c 0.734375,-0.640625 0.984375,-0.84375 1.390625,-1.171875 0.515625,-0.40625 1,-0.84375 1,-1.5 0,-0.84375 -0.734375,-1.359375 -1.625,-1.359375 -0.859375,0 -1.453125,0.609375 -1.453125,1.25 0,0.34375 0.296875,0.390625 0.375,0.390625 0.15625,0 0.359375,-0.125 0.359375,-0.375 0,-0.125 -0.046875,-0.375 -0.40625,-0.375 C 0.984375,-4.21875 1.453125,-4.375 1.78125,-4.375 c 0.703125,0 1.0625,0.546875 1.0625,1.109375 0,0.609375 -0.4375,1.078125 -0.65625,1.328125 L 0.515625,-0.265625 C 0.4375,-0.203125 0.4375,-0.1875 0.4375,0 l 2.875,0 z m 0,0"
               style="stroke:none"
               inkscape:connector-curvature="0" />
          </symbol>
        </g>
      </defs>
      <g
         id="textext-91502366-4">
        <g
           id="g4123"
           style="fill:#000000;fill-opacity:1">
          <use
             id="use4125"
             y="134.765"
             x="223.43201"
             xlink:href="#textext-91502366-1"
             width="379.03125"
             height="350.56244" />
        </g>
        <g
           id="g4127"
           style="fill:#000000;fill-opacity:1">
          <use
             id="use4129"
             y="136.259"
             x="230.786"
             xlink:href="#textext-91502366-3"
             width="379.03125"
             height="350.56244" />
        </g>
      </g>
    </g>
    <path
       sodipodi:type="arc"
       style="fill:none;stroke:#0b0e0e;stroke-width:1;stroke-linecap:round;stroke-miterlimit:4;stroke-opacity:0.94736843;stroke-dasharray:none;stroke-dashoffset:0"
       id="path3868-5"
       sodipodi:cx="74.765633"
       sodipodi:cy="155.5625"
       sodipodi:rx="5"
       sodipodi:ry="5"
       d="m 79.765633,155.5625 c 0,2.76142 -2.238577,5 -5,5 -2.761424,0 -5,-2.23858 -5,-5 0,-2.76142 2.238576,-5 5,-5 2.722938,0 4.945251,2.17885 4.999025,4.90126"
       transform="translate(265.14231,829.42875)"
       sodipodi:start="0"
       sodipodi:end="6.2634358"
       sodipodi:open="true" />
    <path
       sodipodi:type="arc"
       style="fill:none;stroke:#0b0e0e;stroke-width:1;stroke-linecap:round;stroke-miterlimit:4;stroke-opacity:0.94736843;stroke-dasharray:none;stroke-dashoffset:0"
       id="path3868-2"
       sodipodi:cx="74.765633"
       sodipodi:cy="155.5625"
       sodipodi:rx="5"
       sodipodi:ry="5"
       d="m 79.765633,155.5625 c 0,2.76142 -2.238577,5 -5,5 -2.761424,0 -5,-2.23858 -5,-5 0,-2.76142 2.238576,-5 5,-5 2.722938,0 4.945251,2.17885 4.999025,4.90126"
       transform="translate(89.19894,830.0952)"
       sodipodi:start="0"
       sodipodi:end="6.2634358"
       sodipodi:open="true" />
    <path
       sodipodi:type="arc"
       style="fill:none;stroke:#0b0e0e;stroke-width:1;stroke-linecap:round;stroke-miterlimit:4;stroke-opacity:0.94736843;stroke-dasharray:none;stroke-dashoffset:0"
       id="path3868-55"
       sodipodi:cx="74.765633"
       sodipodi:cy="155.5625"
       sodipodi:rx="5"
       sodipodi:ry="5"
       d="m 79.765633,155.5625 c 0,2.76142 -2.238577,5 -5,5 -2.761424,0 -5,-2.23858 -5,-5 0,-2.76142 2.238576,-5 5,-5 2.722938,0 4.945251,2.17885 4.999025,4.90126"
       transform="translate(283.13652,696.13832)"
       sodipodi:start="0"
       sodipodi:end="6.2634358"
       sodipodi:open="true" />
    <path
       sodipodi:type="arc"
       style="fill:none;stroke:#0b0e0e;stroke-width:1;stroke-linecap:round;stroke-miterlimit:4;stroke-opacity:0.94736843;stroke-dasharray:none;stroke-dashoffset:0"
       id="path3868-8"
       sodipodi:cx="74.765633"
       sodipodi:cy="155.5625"
       sodipodi:rx="5"
       sodipodi:ry="5"
       d="m 79.765633,155.5625 c 0,2.76142 -2.238577,5 -5,5 -2.761424,0 -5,-2.23858 -5,-5 0,-2.76142 2.238576,-5 5,-5 2.722938,0 4.945251,2.17885 4.999025,4.90126"
       transform="translate(63.207306,726.12867)"
       sodipodi:start="0"
       sodipodi:end="6.2634358"
       sodipodi:open="true" />
    <g
       ns0:text="$e_1$"
       ns0:preamble=""
       transform="matrix(1.4026778,0,0,1.4026778,-192.75574,684.22697)"
       id="g4389">
      <defs
         id="defs4391">
        <g
           id="g4393">
          <symbol
             style="overflow:visible"
             overflow="visible"
             id="textext-e6ccf95c-0">
            <path
               inkscape:connector-curvature="0"
               style="stroke:none"
               d=""
               id="path4396" />
          </symbol>
          <symbol
             style="overflow:visible"
             overflow="visible"
             id="textext-e6ccf95c-1">
            <path
               inkscape:connector-curvature="0"
               style="stroke:none"
               d="m 1.859375,-2.296875 c 0.296875,0 1.03125,-0.03125 1.53125,-0.234375 0.703125,-0.296875 0.75,-0.890625 0.75,-1.03125 0,-0.4375 -0.375,-0.84375 -1.0625,-0.84375 -1.109375,0 -2.625,0.96875 -2.625,2.71875 0,1.015625 0.59375,1.796875 1.578125,1.796875 1.421875,0 2.25,-1.0625 2.25,-1.171875 0,-0.0625 -0.046875,-0.140625 -0.109375,-0.140625 -0.0625,0 -0.078125,0.03125 -0.140625,0.109375 -0.78125,0.984375 -1.875,0.984375 -1.984375,0.984375 -0.78125,0 -0.875,-0.84375 -0.875,-1.15625 0,-0.125 0.015625,-0.421875 0.15625,-1.03125 z m -0.46875,-0.21875 C 1.78125,-4.03125 2.8125,-4.1875 3.078125,-4.1875 c 0.453125,0 0.734375,0.296875 0.734375,0.625 0,1.046875 -1.59375,1.046875 -2.015625,1.046875 z m 0,0"
               id="path4399" />
          </symbol>
          <symbol
             style="overflow:visible"
             overflow="visible"
             id="textext-e6ccf95c-2">
            <path
               inkscape:connector-curvature="0"
               style="stroke:none"
               d=""
               id="path4402" />
          </symbol>
          <symbol
             style="overflow:visible"
             overflow="visible"
             id="textext-e6ccf95c-3">
            <path
               inkscape:connector-curvature="0"
               style="stroke:none"
               d="m 2.328125,-4.4375 c 0,-0.1875 0,-0.1875 -0.203125,-0.1875 -0.453125,0.4375 -1.078125,0.4375 -1.359375,0.4375 l 0,0.25 c 0.15625,0 0.625,0 1,-0.1875 l 0,3.546875 c 0,0.234375 0,0.328125 -0.6875,0.328125 l -0.265625,0 0,0.25 c 0.125,0 0.984375,-0.03125 1.234375,-0.03125 0.21875,0 1.09375,0.03125 1.25,0.03125 l 0,-0.25 -0.265625,0 c -0.703125,0 -0.703125,-0.09375 -0.703125,-0.328125 z m 0,0"
               id="path4405" />
          </symbol>
        </g>
      </defs>
      <g
         id="textext-e6ccf95c-4">
        <g
           style="fill:#000000;fill-opacity:1"
           id="g4408">
          <use
             height="350.56244"
             width="379.03125"
             xlink:href="#textext-e6ccf95c-1"
             x="223.43201"
             y="134.765"
             id="use4410" />
        </g>
        <g
           style="fill:#000000;fill-opacity:1"
           id="g4412">
          <use
             height="350.56244"
             width="379.03125"
             xlink:href="#textext-e6ccf95c-3"
             x="228.071"
             y="136.259"
             id="use4414" />
        </g>
      </g>
    </g>
    <g
       id="g4645"
       transform="matrix(1.4026778,0,0,1.4026778,-155.43442,810.8561)"
       ns0:preamble=""
       ns0:text="$e_2$">
      <defs
         id="defs4647">
        <g
           id="g4649">
          <symbol
             id="textext-5df342a5-0"
             overflow="visible"
             style="overflow:visible">
            <path
               id="path4652"
               d=""
               style="stroke:none"
               inkscape:connector-curvature="0" />
          </symbol>
          <symbol
             id="textext-5df342a5-1"
             overflow="visible"
             style="overflow:visible">
            <path
               id="path4655"
               d="m 1.859375,-2.296875 c 0.296875,0 1.03125,-0.03125 1.53125,-0.234375 0.703125,-0.296875 0.75,-0.890625 0.75,-1.03125 0,-0.4375 -0.375,-0.84375 -1.0625,-0.84375 -1.109375,0 -2.625,0.96875 -2.625,2.71875 0,1.015625 0.59375,1.796875 1.578125,1.796875 1.421875,0 2.25,-1.0625 2.25,-1.171875 0,-0.0625 -0.046875,-0.140625 -0.109375,-0.140625 -0.0625,0 -0.078125,0.03125 -0.140625,0.109375 -0.78125,0.984375 -1.875,0.984375 -1.984375,0.984375 -0.78125,0 -0.875,-0.84375 -0.875,-1.15625 0,-0.125 0.015625,-0.421875 0.15625,-1.03125 z m -0.46875,-0.21875 C 1.78125,-4.03125 2.8125,-4.1875 3.078125,-4.1875 c 0.453125,0 0.734375,0.296875 0.734375,0.625 0,1.046875 -1.59375,1.046875 -2.015625,1.046875 z m 0,0"
               style="stroke:none"
               inkscape:connector-curvature="0" />
          </symbol>
          <symbol
             id="textext-5df342a5-2"
             overflow="visible"
             style="overflow:visible">
            <path
               id="path4658"
               d=""
               style="stroke:none"
               inkscape:connector-curvature="0" />
          </symbol>
          <symbol
             id="textext-5df342a5-3"
             overflow="visible"
             style="overflow:visible">
            <path
               id="path4661"
               d="m 3.515625,-1.265625 -0.234375,0 c -0.015625,0.15625 -0.09375,0.5625 -0.1875,0.625 -0.046875,0.046875 -0.578125,0.046875 -0.6875,0.046875 l -1.28125,0 c 0.734375,-0.640625 0.984375,-0.84375 1.390625,-1.171875 0.515625,-0.40625 1,-0.84375 1,-1.5 0,-0.84375 -0.734375,-1.359375 -1.625,-1.359375 -0.859375,0 -1.453125,0.609375 -1.453125,1.25 0,0.34375 0.296875,0.390625 0.375,0.390625 0.15625,0 0.359375,-0.125 0.359375,-0.375 0,-0.125 -0.046875,-0.375 -0.40625,-0.375 C 0.984375,-4.21875 1.453125,-4.375 1.78125,-4.375 c 0.703125,0 1.0625,0.546875 1.0625,1.109375 0,0.609375 -0.4375,1.078125 -0.65625,1.328125 L 0.515625,-0.265625 C 0.4375,-0.203125 0.4375,-0.1875 0.4375,0 l 2.875,0 z m 0,0"
               style="stroke:none"
               inkscape:connector-curvature="0" />
          </symbol>
        </g>
      </defs>
      <g
         id="textext-5df342a5-4">
        <g
           id="g4664"
           style="fill:#000000;fill-opacity:1">
          <use
             id="use4666"
             y="134.765"
             x="223.43201"
             xlink:href="#textext-5df342a5-1"
             width="379.03125"
             height="350.56244" />
        </g>
        <g
           id="g4668"
           style="fill:#000000;fill-opacity:1">
          <use
             id="use4670"
             y="136.259"
             x="228.071"
             xlink:href="#textext-5df342a5-3"
             width="379.03125"
             height="350.56244" />
        </g>
      </g>
    </g>
    <g
       ns0:text="$e_3$"
       ns0:preamble=""
       transform="matrix(1.4026778,0,0,1.4026778,22.521177,810.85932)"
       id="g4933">
      <defs
         id="defs4935">
        <g
           id="g4937">
          <symbol
             style="overflow:visible"
             overflow="visible"
             id="textext-2702c547-0">
            <path
               inkscape:connector-curvature="0"
               style="stroke:none"
               d=""
               id="path4940" />
          </symbol>
          <symbol
             style="overflow:visible"
             overflow="visible"
             id="textext-2702c547-1">
            <path
               inkscape:connector-curvature="0"
               style="stroke:none"
               d="m 1.859375,-2.296875 c 0.296875,0 1.03125,-0.03125 1.53125,-0.234375 0.703125,-0.296875 0.75,-0.890625 0.75,-1.03125 0,-0.4375 -0.375,-0.84375 -1.0625,-0.84375 -1.109375,0 -2.625,0.96875 -2.625,2.71875 0,1.015625 0.59375,1.796875 1.578125,1.796875 1.421875,0 2.25,-1.0625 2.25,-1.171875 0,-0.0625 -0.046875,-0.140625 -0.109375,-0.140625 -0.0625,0 -0.078125,0.03125 -0.140625,0.109375 -0.78125,0.984375 -1.875,0.984375 -1.984375,0.984375 -0.78125,0 -0.875,-0.84375 -0.875,-1.15625 0,-0.125 0.015625,-0.421875 0.15625,-1.03125 z m -0.46875,-0.21875 C 1.78125,-4.03125 2.8125,-4.1875 3.078125,-4.1875 c 0.453125,0 0.734375,0.296875 0.734375,0.625 0,1.046875 -1.59375,1.046875 -2.015625,1.046875 z m 0,0"
               id="path4943" />
          </symbol>
          <symbol
             style="overflow:visible"
             overflow="visible"
             id="textext-2702c547-2">
            <path
               inkscape:connector-curvature="0"
               style="stroke:none"
               d=""
               id="path4946" />
          </symbol>
          <symbol
             style="overflow:visible"
             overflow="visible"
             id="textext-2702c547-3">
            <path
               inkscape:connector-curvature="0"
               style="stroke:none"
               d="m 1.90625,-2.328125 c 0.546875,0 0.9375,0.375 0.9375,1.125 0,0.859375 -0.515625,1.125 -0.90625,1.125 -0.28125,0 -0.90625,-0.078125 -1.1875,-0.5 0.328125,0 0.40625,-0.234375 0.40625,-0.390625 0,-0.21875 -0.171875,-0.375 -0.390625,-0.375 -0.1875,0 -0.390625,0.125 -0.390625,0.40625 0,0.65625 0.71875,1.078125 1.5625,1.078125 0.96875,0 1.640625,-0.65625 1.640625,-1.34375 0,-0.546875 -0.4375,-1.09375 -1.203125,-1.25 0.71875,-0.265625 0.984375,-0.78125 0.984375,-1.21875 0,-0.546875 -0.625,-0.953125 -1.40625,-0.953125 -0.765625,0 -1.359375,0.375 -1.359375,0.9375 0,0.234375 0.15625,0.359375 0.359375,0.359375 0.21875,0 0.359375,-0.15625 0.359375,-0.34375 0,-0.203125 -0.140625,-0.359375 -0.359375,-0.375 0.25,-0.296875 0.71875,-0.375 0.984375,-0.375 0.3125,0 0.75,0.15625 0.75,0.75 0,0.296875 -0.09375,0.625 -0.28125,0.828125 -0.21875,0.265625 -0.421875,0.28125 -0.765625,0.3125 -0.171875,0.015625 -0.1875,0.015625 -0.21875,0.015625 -0.015625,0 -0.078125,0.015625 -0.078125,0.09375 0,0.09375 0.0625,0.09375 0.1875,0.09375 z m 0,0"
               id="path4949" />
          </symbol>
        </g>
      </defs>
      <g
         id="textext-2702c547-4">
        <g
           style="fill:#000000;fill-opacity:1"
           id="g4952">
          <use
             height="350.56244"
             width="379.03125"
             xlink:href="#textext-2702c547-1"
             x="223.43201"
             y="134.765"
             id="use4954" />
        </g>
        <g
           style="fill:#000000;fill-opacity:1"
           id="g4956">
          <use
             height="350.56244"
             width="379.03125"
             xlink:href="#textext-2702c547-3"
             x="228.071"
             y="136.259"
             id="use4958" />
        </g>
      </g>
    </g>
    <g
       id="g5253"
       transform="matrix(1.4026778,0,0,1.4026778,51.178616,660.24113)"
       ns0:preamble=""
       ns0:text="$e_4$">
      <defs
         id="defs5255">
        <g
           id="g5257">
          <symbol
             id="textext-2cce94a6-0"
             overflow="visible"
             style="overflow:visible">
            <path
               id="path5260"
               d=""
               style="stroke:none"
               inkscape:connector-curvature="0" />
          </symbol>
          <symbol
             id="textext-2cce94a6-1"
             overflow="visible"
             style="overflow:visible">
            <path
               id="path5263"
               d="m 1.859375,-2.296875 c 0.296875,0 1.03125,-0.03125 1.53125,-0.234375 0.703125,-0.296875 0.75,-0.890625 0.75,-1.03125 0,-0.4375 -0.375,-0.84375 -1.0625,-0.84375 -1.109375,0 -2.625,0.96875 -2.625,2.71875 0,1.015625 0.59375,1.796875 1.578125,1.796875 1.421875,0 2.25,-1.0625 2.25,-1.171875 0,-0.0625 -0.046875,-0.140625 -0.109375,-0.140625 -0.0625,0 -0.078125,0.03125 -0.140625,0.109375 -0.78125,0.984375 -1.875,0.984375 -1.984375,0.984375 -0.78125,0 -0.875,-0.84375 -0.875,-1.15625 0,-0.125 0.015625,-0.421875 0.15625,-1.03125 z m -0.46875,-0.21875 C 1.78125,-4.03125 2.8125,-4.1875 3.078125,-4.1875 c 0.453125,0 0.734375,0.296875 0.734375,0.625 0,1.046875 -1.59375,1.046875 -2.015625,1.046875 z m 0,0"
               style="stroke:none"
               inkscape:connector-curvature="0" />
          </symbol>
          <symbol
             id="textext-2cce94a6-2"
             overflow="visible"
             style="overflow:visible">
            <path
               id="path5266"
               d=""
               style="stroke:none"
               inkscape:connector-curvature="0" />
          </symbol>
          <symbol
             id="textext-2cce94a6-3"
             overflow="visible"
             style="overflow:visible">
            <path
               id="path5269"
               d="m 3.6875,-1.140625 0,-0.25 -0.78125,0 0,-3.109375 c 0,-0.140625 0,-0.203125 -0.140625,-0.203125 -0.09375,0 -0.125,0 -0.1875,0.109375 l -2.3125,3.203125 0,0.25 2.0625,0 0,0.5625 c 0,0.25 0,0.328125 -0.578125,0.328125 l -0.1875,0 0,0.25 C 1.921875,-0.015625 2.359375,-0.03125 2.609375,-0.03125 2.875,-0.03125 3.3125,-0.015625 3.671875,0 l 0,-0.25 -0.1875,0 C 2.90625,-0.25 2.90625,-0.328125 2.90625,-0.578125 l 0,-0.5625 z M 2.375,-3.9375 l 0,2.546875 -1.84375,0 z m 0,0"
               style="stroke:none"
               inkscape:connector-curvature="0" />
          </symbol>
        </g>
      </defs>
      <g
         id="textext-2cce94a6-4">
        <g
           id="g5272"
           style="fill:#000000;fill-opacity:1">
          <use
             id="use5274"
             y="134.765"
             x="223.43201"
             xlink:href="#textext-2cce94a6-1"
             width="379.03125"
             height="350.56244" />
        </g>
        <g
           id="g5276"
           style="fill:#000000;fill-opacity:1">
          <use
             id="use5278"
             y="136.259"
             x="228.071"
             xlink:href="#textext-2cce94a6-3"
             width="379.03125"
             height="350.56244" />
        </g>
      </g>
    </g>
    <path
       style="fill:none;stroke:#000000;stroke-width:1px;stroke-linecap:butt;stroke-linejoin:miter;stroke-opacity:1"
       d="m 41.764986,264.56121 8.000644,-3.99872 0.666452,10"
       id="path5410"
       inkscape:connector-curvature="0"
       transform="translate(67.206017,655.48474)"
       sodipodi:nodetypes="ccc" />
    <path
       style="fill:none;stroke:#000000;stroke-width:1px;stroke-linecap:butt;stroke-linejoin:miter;stroke-opacity:1"
       d="m 198.83192,787.11923 -8.00064,3.99872 -0.66645,-10"
       id="path5410-5"
       inkscape:connector-curvature="0"
       sodipodi:nodetypes="ccc" />
    <path
       style="fill:none;stroke:#000000;stroke-width:1px;stroke-linecap:butt;stroke-linejoin:miter;stroke-opacity:1"
       d="m 320.69436,949.26002 0.70849,-8.91617 8.90699,4.59453"
       id="path5410-1"
       inkscape:connector-curvature="0"
       sodipodi:nodetypes="ccc" />
    <path
       style="fill:none;stroke:#000000;stroke-width:1px;stroke-linecap:butt;stroke-linejoin:miter;stroke-opacity:1"
       d="m 308.79331,773.79021 8.00064,3.99872 0.66646,-10"
       id="path5410-9"
       inkscape:connector-curvature="0"
       sodipodi:nodetypes="ccc" />
    <path
       style="fill:none;stroke:#000000;stroke-width:1px;stroke-linecap:butt;stroke-linejoin:miter;stroke-opacity:1"
       d="m 396.10177,905.07808 -8.00064,-3.99872 -0.66646,10"
       id="path5410-97"
       inkscape:connector-curvature="0"
       sodipodi:nodetypes="ccc" />
    <path
       style="fill:none;stroke:#000000;stroke-width:1px;stroke-linecap:butt;stroke-linejoin:miter;stroke-opacity:1"
       d="m 172.83708,945.06521 8.00064,-3.99872 0.66646,10"
       id="path5410-7"
       inkscape:connector-curvature="0"
       sodipodi:nodetypes="ccc" />
    <path
       style="fill:none;stroke:#000000;stroke-width:1px;stroke-linecap:butt;stroke-linejoin:miter;stroke-opacity:1"
       d="m 164.84286,883.7516 3.99872,8.00064 -10,0.66646"
       id="path5410-4"
       inkscape:connector-curvature="0"
       sodipodi:nodetypes="ccc" />
    <path
       style="fill:none;stroke:#000000;stroke-width:1px;stroke-linecap:butt;stroke-linejoin:miter;stroke-opacity:1"
       d="m 334.08379,873.9951 -8.91969,0.66262 3.17917,-9.50458"
       id="path5410-1-6"
       inkscape:connector-curvature="0"
       sodipodi:nodetypes="ccc" />
    <path
       style="fill:none;stroke:#000000;stroke-width:1px;stroke-linecap:butt;stroke-linejoin:miter;stroke-opacity:1"
       d="m 216.25558,991.73861 -7.2288,-5.26728 8.57458,-5.18848"
       id="path5410-1-1"
       inkscape:connector-curvature="0"
       sodipodi:nodetypes="ccc" />
    <path
       style="fill:none;stroke:#000000;stroke-width:1px;stroke-linecap:butt;stroke-linejoin:miter;stroke-opacity:1"
       d="m 274.25087,906.96999 7.57369,-4.75807 -8.19778,-5.76545"
       id="path5410-1-3"
       inkscape:connector-curvature="0"
       sodipodi:nodetypes="ccc" />
    <path
       style="fill:none;stroke:#000000;stroke-width:1px;stroke-linecap:butt;stroke-linejoin:miter;stroke-opacity:1"
       d="m 230.87144,899.87821 -7.64321,4.64559 8.11166,5.88601"
       id="path5410-1-4"
       inkscape:connector-curvature="0"
       sodipodi:nodetypes="ccc" />
    <path
       style="fill:none;stroke:#000000;stroke-width:1px;stroke-linecap:butt;stroke-linejoin:miter;stroke-opacity:1"
       d="m 118.24712,980.82573 7.22881,5.26728 -8.57459,5.18848"
       id="path5410-1-1-0"
       inkscape:connector-curvature="0"
       sodipodi:nodetypes="ccc" />
    <path
       style="fill:none;stroke:#000000;stroke-width:1px;stroke-linecap:butt;stroke-linejoin:miter;stroke-opacity:1"
       d="m 386.04585,990.61505 -7.22881,-5.26729 8.57459,-5.18848"
       id="path5410-1-1-7"
       inkscape:connector-curvature="0"
       sodipodi:nodetypes="ccc" />
    <path
       style="fill:none;stroke:#000000;stroke-width:1px;stroke-linecap:butt;stroke-linejoin:miter;stroke-opacity:1"
       d="m 291.52468,980.82573 7.22881,5.26728 -8.57459,5.18848"
       id="path5410-1-1-8"
       inkscape:connector-curvature="0"
       sodipodi:nodetypes="ccc" />
  </g>
</svg>
