<?xml version="1.0" encoding="UTF-8" standalone="no"?>
<!-- Created with Inkscape (http://www.inkscape.org/) -->

<svg
   xmlns:ns0="http://www.iki.fi/pav/software/textext/"
   xmlns:dc="http://purl.org/dc/elements/1.1/"
   xmlns:cc="http://creativecommons.org/ns#"
   xmlns:rdf="http://www.w3.org/1999/02/22-rdf-syntax-ns#"
   xmlns:svg="http://www.w3.org/2000/svg"
   xmlns="http://www.w3.org/2000/svg"
   xmlns:sodipodi="http://sodipodi.sourceforge.net/DTD/sodipodi-0.dtd"
   xmlns:inkscape="http://www.inkscape.org/namespaces/inkscape"
   width="279.25491"
   height="253.46655"
   id="svg2"
   version="1.1"
   inkscape:version="0.48.4 r9939"
   sodipodi:docname="NaClinverseTBrouw.svg">
  <sodipodi:namedview
     id="base"
     pagecolor="#ffffff"
     bordercolor="#666666"
     borderopacity="1.0"
     inkscape:pageopacity="0.0"
     inkscape:pageshadow="2"
     inkscape:zoom="1.4"
     inkscape:cx="152.29744"
     inkscape:cy="109.3636"
     inkscape:document-units="px"
     inkscape:current-layer="layer1"
     showgrid="true"
     units="in"
     width="11cm"
     inkscape:window-width="1274"
     inkscape:window-height="545"
     inkscape:window-x="0"
     inkscape:window-y="419"
     inkscape:window-maximized="0"
     fit-margin-top="0"
     fit-margin-left="0"
     fit-margin-right="0"
     fit-margin-bottom="0"
     inkscape:snap-grids="false">
    <inkscape:grid
       originy="-93.30578px"
       originx="-131.24509px"
       type="xygrid"
       id="grid2984"
       empspacing="5"
       visible="true"
       enabled="true"
       snapvisiblegridlinesonly="true"
       spacingx="2px"
       spacingy="2px" />
  </sodipodi:namedview>
  <defs
     id="defs4">
    <marker
       style="overflow:visible"
       id="Arrow2Mstart"
       refX="0"
       refY="0"
       orient="auto"
       inkscape:stockid="Arrow2Mstart">
      <path
         inkscape:connector-curvature="0"
         transform="scale(0.6,0.6)"
         d="M 8.7185878,4.0337352 -2.2072895,0.01601326 8.7185884,-4.0017078 c -1.7454984,2.3720609 -1.7354408,5.6174519 -6e-7,8.035443 z"
         style="fill-rule:evenodd;stroke-width:0.625;stroke-linejoin:round"
         id="path8342" />
    </marker>
    <marker
       style="overflow:visible"
       id="Arrow2Lstart"
       refX="0"
       refY="0"
       orient="auto"
       inkscape:stockid="Arrow2Lstart">
      <path
         inkscape:connector-curvature="0"
         transform="matrix(1.1,0,0,1.1,1.1,0)"
         d="M 8.7185878,4.0337352 -2.2072895,0.01601326 8.7185884,-4.0017078 c -1.7454984,2.3720609 -1.7354408,5.6174519 -6e-7,8.035443 z"
         style="fill-rule:evenodd;stroke-width:0.625;stroke-linejoin:round"
         id="path8336" />
    </marker>
    <marker
       style="overflow:visible"
       id="Arrow2Lend"
       refX="0"
       refY="0"
       orient="auto"
       inkscape:stockid="Arrow2Lend">
      <path
         inkscape:connector-curvature="0"
         transform="matrix(-1.1,0,0,-1.1,-1.1,0)"
         d="M 8.7185878,4.0337352 -2.2072895,0.01601326 8.7185884,-4.0017078 c -1.7454984,2.3720609 -1.7354408,5.6174519 -6e-7,8.035443 z"
         style="fill-rule:evenodd;stroke-width:0.625;stroke-linejoin:round"
         id="path8339" />
    </marker>
    <marker
       style="overflow:visible"
       id="Arrow2Mend"
       refX="0"
       refY="0"
       orient="auto"
       inkscape:stockid="Arrow2Mend">
      <path
         transform="scale(-0.6,-0.6)"
         d="M 8.7185878,4.0337352 -2.2072895,0.01601326 8.7185884,-4.0017078 c -1.7454984,2.3720609 -1.7354408,5.6174519 -6e-7,8.035443 z"
         style="fill-rule:evenodd;stroke-width:0.625;stroke-linejoin:round"
         id="path3966"
         inkscape:connector-curvature="0" />
    </marker>
  </defs>
  <metadata
     id="metadata7">
    <rdf:RDF>
      <cc:Work
         rdf:about="">
        <dc:format>image/svg+xml</dc:format>
        <dc:type
           rdf:resource="http://purl.org/dc/dcmitype/StillImage" />
        <dc:title></dc:title>
      </cc:Work>
    </rdf:RDF>
  </metadata>
  <g
     transform="translate(-68.216731,-729.2749)"
     id="layer1"
     inkscape:groupmode="layer"
     inkscape:label="Layer 1">
    <rect
       style="fill:none;stroke:#000000;stroke-width:1;stroke-miterlimit:4;stroke-opacity:1;stroke-dasharray:none;stroke-dashoffset:0"
       id="rect6473"
       width="220"
       height="220"
       x="190"
       y="80.535706"
       transform="translate(-63.028358,665.51153)" />
    <path
       style="fill:none;stroke:#000000;stroke-width:1;stroke-linecap:butt;stroke-linejoin:miter;stroke-miterlimit:4;stroke-opacity:1;stroke-dasharray:6, 6;stroke-dashoffset:0"
       d="m 300,80.535706 0,220.000004"
       id="path6475"
       inkscape:connector-curvature="0"
       transform="translate(-63.028358,665.51153)" />
    <path
       style="fill:none;stroke:#000000;stroke-width:1px;stroke-linecap:butt;stroke-linejoin:miter;stroke-opacity:1"
       d="m 300,220.53571 -80,-120"
       id="path6481"
       inkscape:connector-curvature="0"
       transform="translate(-63.028358,665.51153)" />
    <path
       sodipodi:nodetypes="cc"
       style="fill:none;stroke:#000000;stroke-width:1px;stroke-linecap:butt;stroke-linejoin:miter;stroke-opacity:1"
       d="M 300,220.53571 410,260.5357"
       id="path6483"
       inkscape:connector-curvature="0"
       transform="translate(-63.028358,665.51153)" />
    <path
       style="fill:none;stroke:#000000;stroke-width:1px;stroke-linecap:butt;stroke-linejoin:miter;stroke-opacity:1"
       d="m 177.68593,806.76153 0,40 30,0"
       id="path6485"
       inkscape:connector-curvature="0" />
    <path
       sodipodi:nodetypes="ccc"
       style="fill:none;stroke:#000000;stroke-width:1px;stroke-linecap:butt;stroke-linejoin:miter;stroke-opacity:1"
       d="m 279.82878,903.19009 0,15 40,0"
       id="path6487"
       inkscape:connector-curvature="0" />
    <text
       xml:space="preserve"
       style="font-size:16px;font-style:normal;font-variant:normal;font-weight:500;font-stretch:normal;text-align:start;line-height:100%;letter-spacing:0px;word-spacing:0px;writing-mode:lr-tb;text-anchor:start;fill:#000000;fill-opacity:1;stroke:none;font-family:Rekha;-inkscape-font-specification:Rekha Medium"
       x="232.68591"
       y="739.61865"
       id="text6767"
       sodipodi:linespacing="100%"><tspan
         sodipodi:role="line"
         id="tspan6769"
         x="232.68591"
         y="739.61865">T</tspan></text>
    <path
       style="fill:none;stroke:#000000;stroke-width:1px;stroke-linecap:butt;stroke-linejoin:miter;stroke-opacity:1;marker-end:url(#Arrow2Lend)"
       d="m 290.71429,70.535706 -30.71429,0"
       id="path6771"
       inkscape:connector-curvature="0"
       transform="translate(-63.028358,665.51153)" />
    <path
       style="fill:none;stroke:#000000;stroke-width:1px;stroke-linecap:butt;stroke-linejoin:miter;stroke-opacity:1;marker-end:url(#Arrow2Lend)"
       d="m 256.97164,976.04724 30,0"
       id="path7559"
       inkscape:connector-curvature="0"
       sodipodi:nodetypes="cc" />
    <text
       xml:space="preserve"
       style="font-size:16px;font-style:normal;font-variant:normal;font-weight:500;font-stretch:normal;text-align:start;line-height:100%;letter-spacing:0px;word-spacing:0px;writing-mode:lr-tb;text-anchor:start;fill:#000000;fill-opacity:1;stroke:none;font-family:Rekha;-inkscape-font-specification:Rekha Medium"
       x="226.25737"
       y="982.47583"
       id="text7561"
       sodipodi:linespacing="100%"><tspan
         sodipodi:role="line"
         id="tspan7563"
         x="226.25737"
         y="982.47583">1/T</tspan></text>
    <g
       style="font-style:normal;font-variant:normal;font-weight:normal;font-stretch:normal;letter-spacing:normal;word-spacing:normal;text-anchor:start;fill:none;stroke:#000000;stroke-linecap:butt;stroke-linejoin:miter;stroke-miterlimit:10.43299961;stroke-opacity:1;stroke-dasharray:none;stroke-dashoffset:0"
       ns0:preamble=""
       ns0:text="$\\mathrm{log D^* _{Na}}$"
       word-spacing="normal"
       letter-spacing="normal"
       font-size-adjust="none"
       font-stretch="normal"
       font-weight="normal"
       font-variant="normal"
       font-style="normal"
       stroke-miterlimit="10.433"
       xml:space="preserve"
       transform="matrix(1.7694975,0,0,-1.7694975,-324.86889,2023.1482)"
       id="g11489"><path
         id="path11491"
         d="m 225.19,664.13 -1.43,-0.11 v -0.31 c 0.7,0 0.78,-0.07 0.78,-0.55 v -5.17 c 0,-0.45 -0.11,-0.45 -0.78,-0.45 v -0.31 c 0.33,0.01 0.86,0.04 1.11,0.04 0.24,0 0.73,-0.03 1.1,-0.04 v 0.31 c -0.67,0 -0.78,0 -0.78,0.45 z"
         inkscape:connector-curvature="0"
         style="fill:#000000;stroke-width:0" /><path
         id="path11493"
         d="m 230.89,659.36 -0.01,0.12 -0.01,0.12 -0.01,0.11 -0.02,0.12 -0.02,0.11 -0.03,0.11 -0.04,0.11 -0.04,0.1 -0.04,0.1 -0.05,0.1 -0.05,0.1 -0.06,0.09 -0.06,0.1 -0.07,0.08 -0.07,0.09 -0.07,0.08 -0.08,0.08 -0.08,0.07 -0.08,0.07 -0.09,0.06 -0.09,0.07 -0.09,0.05 -0.09,0.05 -0.1,0.05 -0.1,0.04 -0.1,0.04 -0.11,0.03 -0.1,0.03 -0.11,0.02 -0.11,0.01 -0.11,0.01 -0.11,0 -0.01,-0.21 c 0.44,0 0.86,-0.22 1.12,-0.65 0.26,-0.43 0.26,-1 0.26,-1.38 0,-0.36 0,-0.89 -0.22,-1.33 -0.22,-0.45 -0.66,-0.74 -1.15,-0.74 h 0 c -0.43,0 -0.87,0.21 -1.14,0.67 -0.25,0.44 -0.25,1.04 -0.25,1.4 0,0.39 0,0.92 0.24,1.36 0.27,0.46 0.74,0.67 1.14,0.67 l 0.01,0.21 c -1.25,0 -2.21,-1.08 -2.21,-2.32 0,-1.28 1.03,-2.23 2.2,-2.23 1.2,0 2.21,0.97 2.21,2.23 z"
         inkscape:connector-curvature="0"
         style="fill:#000000;stroke-width:0" /><path
         id="path11495"
         d="m 232.24,658.56 0,0 0,0.01 0,0 0,0.01 0,0.01 0,0.01 0,0.01 0,0.01 0,0.01 0,0.01 0,0.02 0,0.01 0.01,0.01 0,0.02 0,0.01 0.01,0.02 0,0.02 0.01,0.01 0,0.02 0.01,0.02 0,0.02 0.01,0.01 0.01,0.02 0.01,0.02 0.01,0.02 0.01,0.02 0.01,0.02 0.01,0.02 0.01,0.02 0.02,0.02 0.01,0.01 0.01,0.02 c 0.39,-0.28 0.8,-0.3 0.99,-0.3 v 0.22 c -0.87,0 -0.87,1 -0.87,1.22 0,0.27 0.01,0.59 0.16,0.84 0.08,0.12 0.31,0.4 0.71,0.4 0.87,0 0.87,-1 0.87,-1.23 0,-0.26 -0.02,-0.58 -0.16,-0.83 -0.08,-0.12 -0.31,-0.4 -0.71,-0.4 h 0 v -0.22 c 0.93,0 1.61,0.68 1.61,1.44 0,0.37 -0.16,0.74 -0.41,0.97 0.36,0.34 0.72,0.39 0.9,0.39 0.02,0 0.07,0 0.1,-0.01 -0.11,-0.04 -0.16,-0.15 -0.16,-0.27 0,-0.17 0.13,-0.29 0.29,-0.29 0.1,0 0.29,0.07 0.29,0.3 0,0.17 -0.12,0.48 -0.51,0.48 -0.2,0 -0.64,-0.06 -1.06,-0.46 -0.41,0.33 -0.83,0.36 -1.05,0.36 -0.93,0 -1.61,-0.69 -1.61,-1.46 0,-0.43 0.22,-0.81 0.46,-1.02 -0.12,-0.15 -0.3,-0.48 -0.3,-0.82 0,-0.31 0.13,-0.69 0.44,-0.89 -0.6,-0.16 -0.92,-0.59 -0.92,-0.99 0,-0.72 0.98,-1.26 2.2,-1.26 l 0.01,0.23 c -1.01,0 -1.69,0.5 -1.69,1.03 0,0.46 0.37,0.83 0.81,0.85 h 0.59 c 0.86,0 1.97,0 1.97,-0.85 0,-0.54 -0.71,-1.03 -1.68,-1.03 h 0 l -0.01,-0.23 c 1.17,0 2.21,0.51 2.21,1.28 0,0.35 -0.14,0.85 -0.65,1.13 -0.53,0.28 -1.1,0.28 -1.71,0.28 -0.25,0 -0.68,0 -0.75,0.01 -0.32,0.04 -0.52,0.35 -0.52,0.67 z"
         inkscape:connector-curvature="0"
         style="fill:#000000;stroke-width:0" /><path
         id="path11497"
         d="m 236.51,664.02 v -0.31 h 0.24 c 0.76,0 0.79,-0.11 0.79,-0.47 v -5.23 c 0,-0.36 -0.03,-0.47 -0.79,-0.47 h -0.24 v -0.31 h 3.64 l -0.27,0.31 h -1 c -0.47,0 -0.49,0.07 -0.49,0.4 v 5.38 c 0,0.32 0.02,0.39 0.49,0.39 h 0.99 c 0.62,0 1.31,-0.22 1.81,-0.92 0.43,-0.59 0.52,-1.44 0.52,-2.22 0,-1.1 -0.19,-1.7 -0.55,-2.18 -0.19,-0.27 -0.76,-0.85 -1.77,-0.85 l 0.27,-0.31 c 1.67,0 3.05,1.48 3.05,3.34 0,1.89 -1.35,3.45 -3.05,3.45 z"
         inkscape:connector-curvature="0"
         style="fill:#000000;stroke-width:0" /><path
         id="path11499"
         d="m 246.02,662.58 0.06,0.03 0.05,0.02 0.05,0.02 0.04,0.02 0.05,0.02 0.04,0.02 0.05,0.02 0.04,0.01 0.04,0.02 0.03,0.02 0.04,0.01 0.04,0.02 0.03,0.01 0.03,0.01 0.03,0.02 0.03,0.01 0.03,0.01 0.03,0.01 0.03,0.02 0.02,0.01 0.03,0.01 0.02,0.01 0.02,0.01 0.03,0.01 0.02,0.01 0.02,0 0.04,0.02 0.03,0.02 0.03,0.01 c 0.14,0.06 0.2,0.09 0.2,0.22 0,0.12 -0.09,0.22 -0.22,0.22 -0.04,0 -0.06,0 -0.14,-0.06 l -0.95,-0.63 0.11,1.03 c 0.01,0.12 0,0.29 -0.21,0.29 -0.09,0 -0.22,-0.05 -0.22,-0.2 0,-0.07 0.03,-0.28 0.04,-0.35 0.01,-0.11 0.06,-0.61 0.07,-0.77 l -0.94,0.63 c -0.07,0.04 -0.09,0.06 -0.15,0.06 -0.13,0 -0.22,-0.1 -0.22,-0.22 0,-0.14 0.09,-0.18 0.15,-0.2 l 1.05,-0.44 c -0.57,-0.25 -0.83,-0.35 -1,-0.43 -0.13,-0.06 -0.2,-0.08 -0.2,-0.22 0,-0.12 0.09,-0.22 0.22,-0.22 0.05,0 0.06,0 0.15,0.06 l 0.94,0.64 -0.11,-1.12 c 0,-0.16 0.13,-0.21 0.22,-0.21 0.08,0 0.21,0.05 0.21,0.21 0,0.06 -0.03,0.27 -0.03,0.34 -0.02,0.12 -0.06,0.62 -0.08,0.78 l 0.84,-0.56 c 0.18,-0.14 0.19,-0.14 0.25,-0.14 0.13,0 0.22,0.1 0.22,0.22 0,0.14 -0.08,0.18 -0.15,0.2 z"
         inkscape:connector-curvature="0"
         style="fill:#000000;stroke-width:0" /><path
         id="path11501"
         d="m 245.59,659.14 -0.01,0 0,0.01 -0.01,0.01 0,0.01 -0.01,0.01 -0.01,0 0,0.01 -0.01,0 0,0.01 -0.01,0 0,0.01 -0.01,0 0,0.01 -0.01,0 0,0 -0.01,0 0,0.01 -0.01,0 0,0 -0.01,0 -0.01,0 0,0.01 -0.01,0 -0.01,0 -0.01,0 -0.01,0 -0.01,0 -0.01,0 -0.01,0 -0.01,0 0,0 -0.01,0 -0.01,0 0,0 h -1.21 v -0.25 h 0.21 c 0.3,0 0.48,-0.03 0.51,-0.04 v -3.71 c 0,-0.19 0,-0.5 -0.72,-0.5 v -0.25 c 0.29,0.02 0.57,0.03 0.85,0.03 0.29,0 0.57,-0.01 0.85,-0.03 v 0.25 c -0.71,0 -0.71,0.31 -0.71,0.5 v 3.51 l 3.09,-4.16 c 0.07,-0.09 0.07,-0.1 0.16,-0.1 0.13,0 0.13,0.06 0.13,0.2 v 3.8 c 0,0.19 0,0.5 0.72,0.5 v 0.25 c -0.29,-0.02 -0.57,-0.03 -0.85,-0.03 -0.29,0 -0.57,0.01 -0.85,0.03 v -0.25 c 0.71,0 0.71,-0.31 0.71,-0.5 v -2.95 z"
         inkscape:connector-curvature="0"
         style="fill:#000000;stroke-width:0" /><path
         id="path11503"
         d="m 252.76,656.35 0,0.07 0,0.07 0,0.06 -0.01,0.06 0,0.03 0,0.03 0,0.03 -0.01,0.03 0,0.03 -0.01,0.03 0,0.02 -0.01,0.03 -0.01,0.03 -0.01,0.02 -0.01,0.03 -0.01,0.03 -0.01,0.02 -0.01,0.03 -0.02,0.02 -0.02,0.03 -0.01,0.02 -0.02,0.03 -0.02,0.02 -0.02,0.03 -0.03,0.02 -0.02,0.03 -0.03,0.02 -0.03,0.02 c -0.29,0.24 -0.62,0.35 -1.03,0.35 -0.66,0 -1.13,-0.25 -1.13,-0.67 0,-0.22 0.15,-0.34 0.34,-0.34 0.18,0 0.32,0.14 0.32,0.32 0,0.12 -0.05,0.27 -0.24,0.32 0.25,0.18 0.65,0.18 0.7,0.18 0.39,0 0.81,-0.26 0.81,-0.84 v -0.22 -0.18 -0.69 c 0,-0.67 -0.59,-0.85 -0.9,-0.85 -0.35,0 -0.69,0.23 -0.69,0.57 0,0.39 0.34,0.92 1.59,0.97 v 0.18 c -0.38,-0.01 -0.84,-0.03 -1.35,-0.22 -0.63,-0.23 -0.82,-0.61 -0.82,-0.93 0,-0.6 0.72,-0.77 1.22,-0.77 0.55,0 0.88,0.31 1.03,0.59 0.02,-0.29 0.21,-0.55 0.53,-0.55 0.02,0 0.69,0 0.69,0.66 v 0.38 h -0.23 v -0.38 c 0,-0.07 0,-0.4 -0.26,-0.4 -0.26,0 -0.26,0.33 -0.26,0.42 z"
         inkscape:connector-curvature="0"
         style="fill:#000000;stroke-width:0" /></g>    <text
       xml:space="preserve"
       style="font-size:16px;font-style:normal;font-variant:normal;font-weight:500;font-stretch:normal;text-align:start;line-height:100%;letter-spacing:0px;word-spacing:0px;writing-mode:lr-tb;text-anchor:start;fill:#000000;fill-opacity:1;stroke:none;font-family:Rekha;-inkscape-font-specification:Rekha Medium"
       x="255.3596"
       y="766.31287"
       id="text11603"
       sodipodi:linespacing="100%"><tspan
         sodipodi:role="line"
         id="tspan11605"
         x="255.3596"
         y="766.31287">Diffusion</tspan><tspan
         sodipodi:role="line"
         x="255.3596"
         y="782.31287"
         id="tspan11607">   In</tspan><tspan
         sodipodi:role="line"
         x="255.3596"
         y="798.31287"
         id="tspan11609" /></text>
    <text
       xml:space="preserve"
       style="font-size:16px;font-style:normal;font-variant:normal;font-weight:500;font-stretch:normal;text-align:start;line-height:100%;letter-spacing:0px;word-spacing:0px;writing-mode:lr-tb;text-anchor:start;fill:#000000;fill-opacity:1;stroke:none;font-family:Rekha;-inkscape-font-specification:Rekha Medium"
       x="287.50244"
       y="799.88434"
       id="text11611"
       sodipodi:linespacing="100%"><tspan
         sodipodi:role="line"
         id="tspan11613"
         x="287.50244"
         y="799.88434">-doped</tspan><tspan
         sodipodi:role="line"
         x="287.50244"
         y="815.88434"
         id="tspan11615" /></text>
    <g
       style="font-style:normal;font-variant:normal;font-weight:normal;font-stretch:normal;letter-spacing:normal;word-spacing:normal;text-anchor:start;fill:none;stroke:#000000;stroke-linecap:butt;stroke-linejoin:miter;stroke-miterlimit:10.43299961;stroke-opacity:1;stroke-dasharray:none;stroke-dashoffset:0"
       id="content"
       transform="matrix(1.4837792,0,0,-1.4837792,-83.361696,1775.6312)"
       xml:space="preserve"
       stroke-miterlimit="10.433"
       font-style="normal"
       font-variant="normal"
       font-weight="normal"
       font-stretch="normal"
       font-size-adjust="none"
       letter-spacing="normal"
       word-spacing="normal"
       ns0:text="$\\mathrm{CaCl_2}$"
       ns0:preamble=""><path
         style="fill:#000000;stroke-width:0"
         inkscape:connector-curvature="0"
         d="m 223.99,660.63 0,-0.19 0.02,-0.19 0.02,-0.18 0.03,-0.18 0.04,-0.18 0.05,-0.18 0.06,-0.16 0.06,-0.17 0.07,-0.16 0.08,-0.16 0.08,-0.15 0.1,-0.15 0.1,-0.14 0.1,-0.13 0.11,-0.13 0.12,-0.13 0.12,-0.12 0.12,-0.11 0.14,-0.1 0.13,-0.1 0.14,-0.09 0.15,-0.09 0.15,-0.08 0.15,-0.07 0.16,-0.06 0.16,-0.06 0.16,-0.04 0.16,-0.04 0.17,-0.03 0.17,-0.03 0.17,-0.01 0.17,0 c 1.62,0 2.6,1.38 2.6,2.53 0,0.1 0,0.17 -0.13,0.17 -0.11,0 -0.11,-0.06 -0.12,-0.16 -0.08,-1.42 -1.15,-2.24 -2.23,-2.24 -0.61,0 -2.56,0.34 -2.56,3.3 0,2.97 1.94,3.31 2.55,3.31 1.09,0 1.97,-0.9 2.17,-2.35 0.02,-0.14 0.02,-0.17 0.16,-0.17 0.16,0 0.16,0.03 0.16,0.24 V 664 c 0,0.17 0,0.24 -0.11,0.24 -0.04,0 -0.08,0 -0.16,-0.12 l -0.5,-0.74 c -0.37,0.36 -0.87,0.86 -1.83,0.86 -1.86,0 -3.46,-1.58 -3.46,-3.61 z"
         id="path11694" /><path
         style="fill:#000000;stroke-width:0"
         inkscape:connector-curvature="0"
         d="m 233.94,657.99 0,-0.04 0.01,-0.03 0.01,-0.04 0.01,-0.04 0.01,-0.04 0.01,-0.03 0.01,-0.04 0.01,-0.03 0.02,-0.04 0.01,-0.03 0.02,-0.04 0.02,-0.03 0.02,-0.03 0.02,-0.04 0.02,-0.03 0.03,-0.03 0.02,-0.02 0.03,-0.03 0.03,-0.03 0.03,-0.02 0.03,-0.02 0.03,-0.03 0.03,-0.02 0.03,-0.01 0.04,-0.02 0.03,-0.01 0.04,-0.02 0.04,-0.01 0.04,0 0.04,-0.01 0.04,0 0.05,-0.01 c 0.21,0 0.81,0.14 0.81,0.95 v 0.55 h -0.25 v -0.55 c 0,-0.58 -0.24,-0.64 -0.35,-0.64 -0.33,0 -0.37,0.45 -0.37,0.5 v 1.99 c 0,0.41 0,0.8 -0.36,1.17 -0.39,0.39 -0.89,0.54 -1.36,0.54 -0.82,0 -1.51,-0.46 -1.51,-1.12 0,-0.29 0.2,-0.46 0.46,-0.46 0.28,0 0.46,0.19 0.46,0.45 0,0.12 -0.05,0.45 -0.51,0.46 0.27,0.35 0.76,0.46 1.08,0.46 0.48,0 1.05,-0.39 1.05,-1.27 v -0.37 -0.21 -0.99 c 0,-0.95 -0.72,-1.29 -1.16,-1.29 -0.49,0 -0.9,0.35 -0.9,0.85 0,0.54 0.42,1.37 2.06,1.43 h 0 v 0.21 c -0.51,-0.03 -1.2,-0.06 -1.83,-0.36 -0.75,-0.34 -1,-0.85 -1,-1.29 0,-0.81 0.97,-1.05 1.6,-1.05 0.65,0 1.11,0.39 1.3,0.86 z"
         id="path11696" /><path
         style="fill:#000000;stroke-width:0"
         inkscape:connector-curvature="0"
         d="m 236.16,660.63 0.01,-0.19 0.01,-0.19 0.03,-0.18 0.03,-0.18 0.04,-0.18 0.05,-0.18 0.05,-0.16 0.07,-0.17 0.07,-0.16 0.08,-0.16 0.08,-0.15 0.09,-0.15 0.1,-0.14 0.11,-0.13 0.11,-0.13 0.11,-0.13 0.12,-0.12 0.13,-0.11 0.13,-0.1 0.14,-0.1 0.14,-0.09 0.14,-0.09 0.15,-0.08 0.16,-0.07 0.15,-0.06 0.16,-0.06 0.16,-0.04 0.17,-0.04 0.16,-0.03 0.17,-0.03 0.18,-0.01 0.17,0 c 1.62,0 2.59,1.38 2.59,2.53 0,0.1 0,0.17 -0.12,0.17 -0.11,0 -0.11,-0.06 -0.12,-0.16 -0.08,-1.42 -1.15,-2.24 -2.23,-2.24 -0.61,0 -2.56,0.34 -2.56,3.3 0,2.97 1.94,3.31 2.55,3.31 1.08,0 1.97,-0.9 2.17,-2.35 0.02,-0.14 0.02,-0.17 0.16,-0.17 0.15,0 0.15,0.03 0.15,0.24 V 664 c 0,0.17 0,0.24 -0.1,0.24 -0.05,0 -0.08,0 -0.16,-0.12 l -0.5,-0.74 c -0.37,0.36 -0.88,0.86 -1.83,0.86 -1.86,0 -3.47,-1.58 -3.47,-3.61 z"
         id="path11698" /><path
         style="fill:#000000;stroke-width:0"
         inkscape:connector-curvature="0"
         d="m 244.56,664.13 -1.43,-0.11 v -0.31 c 0.7,0 0.78,-0.07 0.78,-0.55 v -5.17 c 0,-0.45 -0.11,-0.45 -0.78,-0.45 v -0.31 c 0.33,0.01 0.86,0.04 1.11,0.04 0.25,0 0.73,-0.03 1.1,-0.04 v 0.31 c -0.67,0 -0.78,0 -0.78,0.45 z"
         id="path11700" /><path
         style="fill:#000000;stroke-width:0"
         inkscape:connector-curvature="0"
         d="m 249.09,657.01 h -0.24 c -0.02,-0.16 -0.09,-0.57 -0.18,-0.64 -0.06,-0.04 -0.59,-0.04 -0.69,-0.04 h -1.28 c 0.73,0.65 0.97,0.84 1.39,1.17 0.52,0.41 1,0.84 1,1.5 0,0.84 -0.74,1.36 -1.63,1.36 -0.86,0 -1.45,-0.61 -1.45,-1.25 0,-0.35 0.3,-0.39 0.37,-0.39 0.17,0 0.37,0.12 0.37,0.37 0,0.13 -0.05,0.37 -0.41,0.37 0.21,0.5 0.69,0.65 1.01,0.65 0.7,0 1.06,-0.54 1.06,-1.11 0,-0.6 -0.43,-1.08 -0.65,-1.33 l -1.68,-1.66 c -0.07,-0.06 -0.07,-0.07 -0.07,-0.27 h 2.87 z"
         id="path11702" /></g>    <text
       sodipodi:linespacing="100%"
       id="text11784"
       y="818.45575"
       x="271.07388"
       style="font-size:16px;font-style:normal;font-variant:normal;font-weight:500;font-stretch:normal;text-align:start;line-height:100%;letter-spacing:0px;word-spacing:0px;writing-mode:lr-tb;text-anchor:start;fill:#000000;fill-opacity:1;stroke:none;font-family:Rekha;-inkscape-font-specification:Rekha Medium"
       xml:space="preserve"><tspan
         y="818.45575"
         x="271.07388"
         id="tspan11786"
         sodipodi:role="line">NaCl</tspan></text>
    <g
       id="g12017"
       transform="matrix(1.8700869,0,0,-1.8700869,-290.98878,2131.974)"
       xml:space="preserve"
       stroke-miterlimit="10.433"
       font-style="normal"
       font-variant="normal"
       font-weight="normal"
       font-stretch="normal"
       font-size-adjust="none"
       letter-spacing="normal"
       word-spacing="normal"
       ns0:text="$\\mathrm{{-(\\Delta H_{mv} + {{\\Delta H_s} \\over 2})} \\over {R}}$"
       ns0:preamble=""
       style="font-style:normal;font-variant:normal;font-weight:normal;font-stretch:normal;letter-spacing:normal;word-spacing:normal;text-anchor:start;fill:none;stroke:#000000;stroke-linecap:butt;stroke-linejoin:miter;stroke-miterlimit:10.43299961;stroke-opacity:1;stroke-dasharray:none;stroke-dashoffset:0"><path
         style="fill:#000000;stroke-width:0"
         inkscape:connector-curvature="0"
         d="m 229.81,662.04 0.01,0 0.01,0.01 0.01,0 0.01,0 0.03,0 0.01,0 0.01,0 0.01,0 0.01,0 0.02,0 0.01,0 0.01,0.01 0.01,0 0.01,0 0.01,0.01 0.01,0 0.01,0 0.01,0.01 0.01,0.01 0.01,0 0.01,0.01 0,0.01 0.01,0 0,0.01 0,0 0.01,0 0,0.01 0,0 0,0.01 0.01,0.01 0,0 0,0.01 0,0 0,0.01 0.01,0.01 0,0 0,0.01 0,0.01 0,0 0,0.01 c 0,0.18 -0.16,0.18 -0.28,0.18 h -4.15 c -0.11,0 -0.28,0 -0.28,-0.17 0,-0.18 0.16,-0.18 0.28,-0.18 z"
         id="path12019" /><path
         style="fill:#000000;stroke-width:0"
         inkscape:connector-curvature="0"
         d="m 233.33,665.69 -0.13,-0.09 -0.11,-0.09 -0.11,-0.1 -0.11,-0.09 -0.1,-0.1 -0.09,-0.11 -0.09,-0.1 -0.08,-0.11 -0.08,-0.1 -0.08,-0.11 -0.07,-0.12 -0.06,-0.11 -0.07,-0.11 -0.05,-0.12 -0.06,-0.11 -0.05,-0.12 -0.04,-0.11 -0.04,-0.12 -0.04,-0.12 -0.04,-0.11 -0.03,-0.12 -0.02,-0.11 -0.03,-0.12 -0.02,-0.11 -0.02,-0.11 -0.01,-0.12 -0.02,-0.11 -0.01,-0.1 -0.01,-0.11 0,-0.11 0,-0.1 -0.01,-0.1 c 0,-0.98 0.3,-2.5 1.68,-3.48 0.05,0 0.14,0 0.14,0.09 0,0.04 -0.02,0.05 -0.07,0.1 -0.93,0.84 -1.27,2.02 -1.27,3.28 0,1.88 0.72,2.8 1.29,3.31 0.03,0.03 0.05,0.05 0.05,0.09 0,0.08 -0.09,0.08 -0.14,0.08 z"
         id="path12021" /><path
         style="fill:#000000;stroke-width:0"
         inkscape:connector-curvature="0"
         d="m 237.46,665.27 -0.01,0.01 -0.01,0.01 0,0.01 -0.01,0.01 0,0.01 -0.01,0.01 0,0.01 -0.01,0.01 0,0.01 -0.01,0 0,0.01 -0.01,0.01 -0.01,0 0,0.01 -0.01,0 0,0.01 -0.01,0 0,0.01 -0.01,0 -0.01,0 -0.01,0.01 0,0 -0.01,0 -0.01,0 -0.01,0.01 -0.01,0 -0.01,0 -0.01,0 -0.01,0 -0.01,0 -0.01,0 -0.01,0 c -0.09,0 -0.16,-0.02 -0.22,-0.13 l -0.01,-0.55 2.04,-3.71 h -4.09 l 2.05,3.71 0.01,0.55 -2.57,-4.66 c -0.05,-0.08 -0.05,-0.09 -0.05,-0.1 0,-0.07 0.06,-0.07 0.17,-0.07 h 5.34 c 0.11,0 0.17,0 0.17,0.07 0,0.01 0,0.02 -0.05,0.1 z"
         id="path12023" /><path
         style="fill:#000000;stroke-width:0"
         inkscape:connector-curvature="0"
         d="m 245.27,664.66 0,0.02 0,0.02 0,0.02 0,0.02 0,0.02 0,0.02 0.01,0.01 0,0.02 0,0.01 0.01,0.02 0,0.01 0.01,0.01 0.01,0.01 0.01,0.02 0.01,0.01 0.01,0.01 0.02,0 0.01,0.01 0.01,0.01 0.01,0 0.01,0 0.01,0.01 0.01,0 0.01,0 0.01,0.01 0.01,0 0.02,0 0.01,0 0.01,0.01 0.02,0 0.01,0 0.02,0 0.01,0 0.02,0 0.02,0.01 0.01,0 0.02,0 0.02,0 0.02,0 0.02,0 0.02,0 0.02,0 0.03,0 0.02,0 0.02,0 0.03,0 h 0.17 v 0.25 c -0.35,-0.01 -0.8,-0.02 -1.05,-0.02 -0.26,0 -0.7,0.01 -1.05,0.02 v -0.25 h 0.17 c 0.53,0 0.55,-0.07 0.55,-0.31 v -1.59 h -2.33 v 1.59 c 0,0.24 0.01,0.31 0.55,0.31 H 243 v 0.25 c -0.35,-0.01 -0.8,-0.02 -1.05,-0.02 -0.25,0 -0.7,0.01 -1.05,0.02 v -0.25 h 0.17 c 0.53,0 0.55,-0.07 0.55,-0.31 v -3.62 c 0,-0.24 -0.02,-0.32 -0.55,-0.32 h -0.17 v -0.25 c 0.35,0.02 0.8,0.03 1.05,0.03 0.25,0 0.7,-0.01 1.05,-0.03 v 0.25 h -0.17 c -0.54,0 -0.55,0.07 -0.55,0.32 v 1.78 h 2.33 v -1.78 c 0,-0.24 -0.02,-0.32 -0.55,-0.32 h -0.17 v -0.25 c 0.35,0.02 0.79,0.03 1.04,0.03 0.26,0 0.71,-0.01 1.06,-0.03 v 0.25 h -0.17 c -0.54,0 -0.55,0.07 -0.55,0.32 z"
         id="path12025" /><path
         style="fill:#000000;stroke-width:0"
         inkscape:connector-curvature="0"
         d="m 251.11,660.98 0,0.03 0,0.02 0,0.03 -0.01,0.03 0,0.02 0,0.03 -0.01,0.02 0,0.02 -0.01,0.03 0,0.02 -0.01,0.02 -0.01,0.02 0,0.02 -0.01,0.02 -0.02,0.03 -0.02,0.04 -0.02,0.03 -0.02,0.03 -0.03,0.03 -0.02,0.02 -0.03,0.02 -0.03,0.03 -0.03,0.01 -0.03,0.02 -0.04,0.02 -0.03,0.01 -0.03,0.01 -0.04,0.02 -0.03,0 -0.04,0.01 -0.03,0.01 -0.04,0.01 -0.04,0 -0.03,0.01 -0.04,0 -0.04,0 -0.03,0 -0.07,0 c -0.49,0 -0.77,-0.24 -0.91,-0.46 -0.13,0.46 -0.63,0.46 -0.82,0.46 -0.51,0 -0.8,-0.27 -0.92,-0.48 v 0.48 l -0.82,-0.05 v -0.22 c 0.37,0 0.41,-0.04 0.41,-0.28 v -1.22 c 0,-0.16 0,-0.2 -0.32,-0.2 h -0.09 v -0.22 c 0.21,0.01 0.42,0.02 0.64,0.02 0.21,0 0.42,-0.01 0.63,-0.02 v 0.22 h -0.09 c -0.32,0 -0.32,0.04 -0.32,0.2 v 0.86 c 0,0.55 0.5,0.75 0.83,0.75 0.36,0 0.45,-0.2 0.45,-0.53 v -1.08 c 0,-0.16 0,-0.2 -0.32,-0.2 h -0.09 v -0.22 c 0.21,0.01 0.42,0.02 0.63,0.02 0.21,0 0.43,-0.01 0.64,-0.02 v 0.22 h -0.09 c -0.33,0 -0.33,0.04 -0.33,0.2 v 0.86 c 0,0.55 0.51,0.75 0.83,0.75 0.37,0 0.46,-0.2 0.46,-0.53 v -1.08 c 0,-0.16 0,-0.2 -0.33,-0.2 h -0.09 v -0.22 c 0.22,0.01 0.43,0.02 0.64,0.02 0.21,0 0.42,-0.01 0.63,-0.02 v 0.22 h -0.09 c -0.32,0 -0.32,0.04 -0.32,0.2 z"
         id="path12027" /><path
         style="fill:#000000;stroke-width:0"
         inkscape:connector-curvature="0"
         d="m 254.43,661.1 0.02,0.03 0.02,0.03 0.01,0.02 0.01,0.01 0.01,0.01 0.01,0.02 0.01,0.01 0.01,0.01 0.01,0.02 0.02,0.01 0.01,0.01 0.01,0.01 0.02,0.01 0.01,0.01 0.02,0.01 0.01,0.01 0.02,0.01 0.02,0.01 0.02,0 0.02,0.01 0.02,0.01 0.02,0 0.02,0.01 0.02,0 0.03,0.01 0.02,0 0.02,0.01 0.03,0 0.03,0 0.03,0 v 0.22 c -0.13,-0.01 -0.26,-0.02 -0.44,-0.02 0,0 -0.32,0 -0.5,0.02 v -0.22 c 0.13,0 0.22,-0.06 0.22,-0.18 0,-0.05 -0.02,-0.09 -0.03,-0.1 l -0.63,-1.23 -0.68,1.33 c -0.01,0.02 -0.03,0.05 -0.03,0.08 0,0.1 0.17,0.1 0.27,0.1 v 0.22 c -0.23,-0.02 -0.59,-0.02 -0.62,-0.02 -0.2,0 -0.35,0 -0.56,0.02 v -0.22 c 0.3,0 0.37,0 0.44,-0.15 l 0.89,-1.71 c 0.03,-0.07 0.06,-0.12 0.17,-0.12 0.11,0 0.14,0.05 0.17,0.12 z"
         id="path12029" /><path
         style="fill:#000000;stroke-width:0"
         inkscape:connector-curvature="0"
         d="m 259.06,662.04 h 2.13 c 0.09,0 0.26,0 0.26,0.17 0,0.18 -0.16,0.18 -0.26,0.18 h -2.13 v 2.13 c 0,0.09 0,0.26 -0.17,0.26 -0.17,0 -0.17,-0.16 -0.17,-0.26 v -2.13 h -2.14 c -0.09,0 -0.26,0 -0.26,-0.17 0,-0.18 0.16,-0.18 0.26,-0.18 h 2.14 v -2.13 c 0,-0.09 0,-0.26 0.16,-0.26 0.18,0 0.18,0.16 0.18,0.26 z"
         id="path12031" /><path
         style="fill:#000000;stroke-width:0"
         inkscape:connector-curvature="0"
         d="m 266.07,667.25 -0.01,0.01 0,0.01 -0.01,0.01 0,0 0,0.01 -0.01,0.01 0,0 -0.01,0.01 0,0 -0.01,0.01 0,0 -0.01,0.01 0,0 -0.01,0.01 0,0 -0.01,0 0,0.01 -0.01,0 -0.01,0 0,0.01 -0.01,0 -0.01,0 0,0 -0.01,0 -0.01,0 0,0.01 -0.01,0 -0.01,0 -0.01,0 -0.01,0 -0.01,0 -0.01,0 c -0.1,0 -0.14,-0.03 -0.2,-0.12 l 0.02,-0.38 1.61,-2.61 h -3.22 l 1.61,2.61 -0.02,0.38 -2.05,-3.31 c -0.03,-0.05 -0.03,-0.06 -0.03,-0.07 0,-0.06 0.04,-0.06 0.12,-0.06 h 4.32 c 0.08,0 0.12,0 0.12,0.06 0,0.01 0,0.02 -0.03,0.07 z"
         id="path12033" /><path
         style="fill:#000000;stroke-width:0"
         inkscape:connector-curvature="0"
         d="m 272.52,666.78 0,0.02 0,0.01 0,0.01 0,0.01 0,0.02 0,0.01 0.01,0.01 0,0.01 0,0.01 0,0.01 0.01,0.01 0,0 0.01,0.01 0,0.01 0.01,0.01 0.01,0 0.01,0.01 0.01,0 0,0 0.01,0.01 0.01,0 0,0 0.01,0 0.01,0 0,0.01 0.01,0 0.01,0 0.01,0 0.01,0 0.01,0 0.01,0.01 0.01,0 0.01,0 0.01,0 0.02,0 0.01,0 0.01,0 0.02,0 0.01,0 0.01,0 0.02,0 0.02,0.01 0.01,0 0.02,0 0.02,0 0.01,0 0.02,0 h 0.15 v 0.21 c -0.22,0 -0.53,-0.02 -0.81,-0.02 -0.29,0 -0.59,0.02 -0.82,0.02 v -0.21 h 0.15 c 0.4,0 0.4,-0.05 0.4,-0.21 v -1.1 h -1.89 v 1.1 c 0,0.16 0,0.21 0.41,0.21 h 0.14 v 0.21 c -0.22,0 -0.53,-0.02 -0.81,-0.02 -0.28,0 -0.59,0.02 -0.82,0.02 v -0.21 h 0.15 c 0.41,0 0.41,-0.05 0.41,-0.21 v -2.55 c 0,-0.15 0,-0.2 -0.41,-0.2 h -0.15 v -0.22 c 0.23,0.01 0.54,0.02 0.82,0.02 0.28,0 0.59,-0.01 0.81,-0.02 v 0.22 h -0.14 c -0.41,0 -0.41,0.05 -0.41,0.2 v 1.24 h 1.89 v -1.24 c 0,-0.15 0,-0.2 -0.4,-0.2 h -0.15 v -0.22 c 0.23,0.01 0.53,0.02 0.82,0.02 0.28,0 0.59,-0.01 0.81,-0.02 v 0.22 h -0.15 c -0.4,0 -0.4,0.05 -0.4,0.2 z"
         id="path12035" /><path
         style="fill:#000000;stroke-width:0"
         inkscape:connector-curvature="0"
         d="m 275.72,664.9 0,0.01 0,0.01 0,0.01 0,0 0,0.01 0,0.01 0,0 0,0.01 0,0.01 0,0 0,0.01 -0.01,0 0,0.01 0,0 0,0.01 0,0 0,0.01 -0.01,0 0,0.01 0,0 0,0 -0.01,0.01 0,0 0,0 -0.01,0 0,0.01 -0.01,0 0,0 0,0 0,0 -0.01,0 0,0 0,0 -0.01,0 0,0 0,0 -0.01,0 0,0 c -0.03,0 -0.05,0 -0.09,-0.03 -0.01,-0.02 -0.1,-0.1 -0.13,-0.1 0,0 -0.01,0 -0.04,0.02 -0.11,0.06 -0.3,0.11 -0.55,0.11 -0.82,0 -0.99,-0.38 -0.99,-0.61 0,-0.46 0.58,-0.55 1.04,-0.62 0.29,-0.04 0.74,-0.11 0.74,-0.45 0,-0.18 -0.14,-0.44 -0.74,-0.44 -0.34,0 -0.67,0.13 -0.82,0.66 -0.02,0.08 -0.03,0.1 -0.11,0.1 -0.11,0 -0.11,-0.04 -0.11,-0.14 v -0.64 c 0,-0.08 0,-0.14 0.08,-0.14 0.04,0 0.05,0.01 0.14,0.1 l 0.13,0.12 c 0.25,-0.21 0.56,-0.22 0.69,-0.22 0.83,0 0.99,0.43 0.99,0.68 0,0.22 -0.12,0.39 -0.31,0.51 -0.2,0.12 -0.35,0.14 -0.77,0.21 -0.31,0.05 -0.7,0.11 -0.7,0.37 0,0.17 0.2,0.36 0.74,0.36 0.41,0 0.65,-0.16 0.68,-0.5 0.01,-0.08 0.01,-0.11 0.1,-0.11 0.11,0 0.11,0.04 0.11,0.14 z"
         id="path12037" /><line
         style="stroke-width:0.398"
         x1="263.14001"
         y1="662.21997"
         x2="276.73001"
         y2="662.21997"
         id="line12039" /><path
         style="fill:#000000;stroke-width:0"
         inkscape:connector-curvature="0"
         d="m 271.17,659.03 h -0.21 c -0.01,-0.09 -0.06,-0.4 -0.14,-0.45 -0.04,-0.03 -0.46,-0.03 -0.53,-0.03 h -0.98 c 0.33,0.24 0.7,0.52 0.99,0.72 0.45,0.31 0.87,0.6 0.87,1.12 0,0.64 -0.6,0.99 -1.31,0.99 -0.67,0 -1.17,-0.39 -1.17,-0.87 0,-0.26 0.22,-0.3 0.29,-0.3 0.14,0 0.3,0.08 0.3,0.29 0,0.18 -0.13,0.28 -0.29,0.29 0.14,0.22 0.43,0.37 0.76,0.37 0.49,0 0.89,-0.28 0.89,-0.77 0,-0.42 -0.29,-0.74 -0.67,-1.06 l -1.22,-1.03 c -0.05,-0.04 -0.05,-0.04 -0.06,-0.08 v -0.15 h 2.32 z"
         id="path12041" /><path
         style="fill:#000000;stroke-width:0"
         inkscape:connector-curvature="0"
         d="m 278.55,665.69 -0.01,0 0,0 -0.01,0 0,0 -0.01,0 0,0 -0.01,0 0,0 -0.01,0 0,0 -0.01,0 0,-0.01 -0.01,0 -0.01,0 0,0 -0.01,0 0,0 -0.01,-0.01 0,0 0,0 -0.01,0 0,-0.01 -0.01,0 0,0 0,-0.01 0,0 0,0 0,0 -0.01,-0.01 0,0 0,0 0,0 0,-0.01 0,0 0,0 0,-0.01 0,0 0,0 0,-0.01 0,0 0,0 c 0,-0.04 0.02,-0.06 0.06,-0.11 0.6,-0.55 1.27,-1.49 1.27,-3.28 0,-1.45 -0.46,-2.55 -1.21,-3.23 -0.12,-0.12 -0.12,-0.13 -0.12,-0.16 0,-0.04 0.02,-0.09 0.09,-0.09 0.08,0 0.74,0.46 1.2,1.33 0.31,0.58 0.51,1.33 0.51,2.14 0,0.98 -0.29,2.51 -1.67,3.48 z"
         id="path12043" /><line
         style="stroke-width:0.398"
         x1="224.63"
         y1="657.47998"
         x2="281.04001"
         y2="657.47998"
         id="line12045" /><path
         style="fill:#000000;stroke-width:0"
         inkscape:connector-curvature="0"
         d="m 253.44,653.92 0.05,0.02 0.06,0.01 0.06,0.02 0.06,0.02 0.06,0.02 0.05,0.02 0.06,0.02 0.06,0.03 0.05,0.02 0.05,0.03 0.06,0.03 0.05,0.03 0.05,0.03 0.05,0.04 0.04,0.03 0.05,0.03 0.04,0.04 0.04,0.04 0.04,0.04 0.04,0.04 0.03,0.04 0.04,0.04 0.03,0.04 0.02,0.05 0.03,0.04 0.02,0.05 0.02,0.05 0.01,0.05 0.01,0.05 0.01,0.05 0.01,0.05 0,0.05 c 0,0.7 -0.92,1.26 -2,1.26 h -2.35 v -0.25 h 0.17 c 0.54,0 0.55,-0.07 0.55,-0.31 v -3.63 c 0,-0.23 -0.01,-0.31 -0.55,-0.31 h -0.17 v -0.25 c 0.01,0 0.75,0.03 1.04,0.03 0.29,0 0.68,-0.02 1.03,-0.03 v 0.25 h -0.17 c -0.53,0 -0.54,0.07 -0.54,0.31 v 1.72 0.2 1.75 c 0,0.19 0,0.24 0.18,0.26 0.06,0.01 0.3,0.01 0.44,0.01 0.67,0 1.63,0 1.63,-1.01 0,-0.78 -0.61,-1.01 -1.35,-1.01 h 0 -0.9 v -0.2 h 0.92 c 0.13,0 0.49,0 0.79,-0.28 0.25,-0.22 0.25,-0.39 0.25,-0.86 0,-0.45 0,-0.74 0.32,-1 0.3,-0.24 0.71,-0.28 0.9,-0.28 0.6,0 0.75,0.56 0.75,0.77 0,0.05 0,0.14 -0.12,0.14 -0.1,0 -0.11,-0.07 -0.12,-0.14 -0.03,-0.4 -0.26,-0.57 -0.48,-0.57 -0.39,0 -0.45,0.41 -0.53,1.04 -0.08,0.56 -0.1,0.67 -0.3,0.9 -0.07,0.07 -0.27,0.25 -0.64,0.37 z"
         id="path12047" /></g>    <g
       style="font-style:normal;font-variant:normal;font-weight:normal;font-stretch:normal;letter-spacing:normal;word-spacing:normal;text-anchor:start;fill:none;stroke:#000000;stroke-linecap:butt;stroke-linejoin:miter;stroke-miterlimit:10.43299961;stroke-opacity:1;stroke-dasharray:none;stroke-dashoffset:0"
       ns0:preamble=""
       ns0:text="$\\mathrm{{-\\Delta H_{mv}} \\over {R}}$"
       text-anchor="start"
       word-spacing="normal"
       letter-spacing="normal"
       font-size-adjust="none"
       font-stretch="normal"
       font-weight="normal"
       font-variant="normal"
       font-style="normal"
       fill-opacity="1"
       fill-rule="evenodd"
       fill="none"
       stroke-opacity="1"
       stroke-dashoffset="0"
       stroke-dasharray="none"
       stroke-miterlimit="10.433"
       stroke-linejoin="miter"
       stroke-linecap="butt"
       stroke="black"
       xml:space="preserve"
       transform="matrix(1.7694975,0,0,-1.7694975,-133.44032,2113.1484)"
       id="g12185"><path
         id="path12187"
         fill="black"
         stroke-width="0"
         d="M229.81,662.89 L229.82,662.89 L229.83,662.89 L229.84,662.89 L229.85,662.89 L229.88,662.89 L229.89,662.89 L229.9,662.89 L229.91,662.89 L229.92,662.9 L229.94,662.9 L229.95,662.9 L229.96,662.9 L229.97,662.9 L229.98,662.91 L229.99,662.91 L230,662.92 L230.01,662.92 L230.02,662.93 L230.03,662.93 L230.04,662.94 L230.05,662.95 L230.05,662.95 L230.06,662.96 L230.06,662.96 L230.06,662.97 L230.07,662.97 L230.07,662.98 L230.07,662.98 L230.07,662.99 L230.08,662.99 L230.08,663 L230.08,663 L230.08,663.01 L230.08,663.02 L230.09,663.02 L230.09,663.03 L230.09,663.04 L230.09,663.04 L230.09,663.05 L230.09,663.06 C230.09,663.23,229.93,663.23,229.81,663.23 H225.66 C225.55,663.23,225.38,663.23,225.38,663.07 C225.38,662.89,225.54,662.89,225.66,662.89 Z " /><path
         id="path12189"
         fill="black"
         stroke-width="0"
         d="M234.34,666.12 L234.34,666.13 L234.33,666.14 L234.32,666.15 L234.32,666.16 L234.31,666.17 L234.31,666.18 L234.3,666.19 L234.3,666.2 L234.29,666.2 L234.29,666.21 L234.28,666.22 L234.28,666.22 L234.27,666.23 L234.27,666.23 L234.26,666.24 L234.25,666.24 L234.25,666.25 L234.24,666.25 L234.24,666.26 L234.23,666.26 L234.22,666.26 L234.21,666.27 L234.21,666.27 L234.2,666.27 L234.19,666.27 L234.18,666.27 L234.17,666.28 L234.16,666.28 L234.15,666.28 L234.14,666.28 L234.13,666.28 L234.11,666.28 C234.03,666.28,233.96,666.26,233.9,666.15 L233.88,665.6 L235.93,661.89 H231.84 L233.88,665.6 L233.9,666.15 L231.33,661.49 C231.28,661.41,231.28,661.4,231.28,661.39 C231.28,661.32,231.34,661.32,231.45,661.32 H236.79 C236.9,661.32,236.96,661.32,236.96,661.39 C236.96,661.4,236.96,661.41,236.91,661.49 Z " /><path
         id="path12191"
         fill="black"
         stroke-width="0"
         d="M242.16,665.51 L242.16,665.53 L242.16,665.55 L242.16,665.57 L242.16,665.59 L242.16,665.61 L242.16,665.62 L242.16,665.64 L242.17,665.65 L242.17,665.67 L242.18,665.68 L242.18,665.7 L242.19,665.71 L242.2,665.72 L242.21,665.73 L242.22,665.74 L242.23,665.75 L242.24,665.76 L242.26,665.77 L242.27,665.77 L242.28,665.78 L242.29,665.78 L242.3,665.78 L242.31,665.79 L242.32,665.79 L242.33,665.79 L242.34,665.79 L242.35,665.8 L242.37,665.8 L242.38,665.8 L242.39,665.8 L242.41,665.81 L242.42,665.81 L242.44,665.81 L242.46,665.81 L242.47,665.81 L242.49,665.81 L242.51,665.81 L242.53,665.82 L242.55,665.82 L242.57,665.82 L242.59,665.82 L242.61,665.82 L242.63,665.82 L242.66,665.82 L242.68,665.82 L242.71,665.82 H242.87 V666.07 C242.52,666.05,242.08,666.04,241.83,666.04 C241.57,666.04,241.12,666.05,240.78,666.07 V665.82 H240.94 C241.48,665.82,241.49,665.75,241.49,665.51 V663.91 H239.17 V665.51 C239.17,665.74,239.18,665.82,239.72,665.82 H239.88 V666.07 C239.54,666.05,239.09,666.04,238.84,666.04 C238.58,666.04,238.14,666.05,237.79,666.07 V665.82 H237.96 C238.49,665.82,238.51,665.75,238.51,665.51 V661.88 C238.51,661.65,238.49,661.57,237.96,661.57 H237.79 V661.32 C238.14,661.33,238.58,661.35,238.83,661.35 C239.09,661.35,239.54,661.33,239.88,661.32 V661.57 H239.72 C239.18,661.57,239.17,661.64,239.17,661.88 V663.66 H241.49 V661.88 C241.49,661.65,241.48,661.57,240.94,661.57 H240.78 V661.32 C241.12,661.33,241.57,661.35,241.82,661.35 C242.08,661.35,242.52,661.33,242.87,661.32 V661.57 H242.71 C242.17,661.57,242.16,661.64,242.16,661.88 Z " /><path
         id="path12193"
         fill="black"
         stroke-width="0"
         d="M248,661.82 L248,661.85 L247.99,661.88 L247.99,661.91 L247.99,661.93 L247.99,661.96 L247.98,661.98 L247.98,662.01 L247.98,662.03 L247.97,662.05 L247.96,662.07 L247.96,662.09 L247.95,662.12 L247.94,662.13 L247.93,662.15 L247.92,662.19 L247.9,662.22 L247.88,662.26 L247.85,662.29 L247.83,662.31 L247.8,662.34 L247.77,662.36 L247.75,662.38 L247.72,662.4 L247.68,662.42 L247.65,662.43 L247.62,662.45 L247.59,662.46 L247.55,662.47 L247.52,662.48 L247.48,662.49 L247.44,662.5 L247.41,662.5 L247.37,662.51 L247.33,662.51 L247.3,662.51 L247.26,662.52 L247.23,662.52 L247.15,662.52 C246.67,662.52,246.38,662.28,246.24,662.06 C246.12,662.51,245.61,662.52,245.43,662.52 C244.92,662.52,244.63,662.25,244.5,662.03 V662.52 L243.69,662.47 V662.25 C244.06,662.25,244.1,662.21,244.1,661.97 V660.74 C244.1,660.59,244.1,660.54,243.78,660.54 H243.69 V660.32 C243.9,660.34,244.11,660.34,244.32,660.34 C244.53,660.34,244.75,660.34,244.96,660.32 V660.54 H244.87 C244.54,660.54,244.54,660.59,244.54,660.74 V661.6 C244.54,662.16,245.05,662.35,245.37,662.35 C245.74,662.35,245.83,662.15,245.83,661.83 V660.74 C245.83,660.59,245.83,660.54,245.5,660.54 H245.41 V660.32 C245.63,660.34,245.84,660.34,246.05,660.34 C246.26,660.34,246.47,660.34,246.68,660.32 V660.54 H246.59 C246.27,660.54,246.27,660.59,246.27,660.74 V661.6 C246.27,662.16,246.78,662.35,247.1,662.35 C247.46,662.35,247.55,662.15,247.55,661.83 V660.74 C247.55,660.59,247.55,660.54,247.23,660.54 H247.14 V660.32 C247.35,660.34,247.56,660.34,247.78,660.34 C247.99,660.34,248.2,660.34,248.41,660.32 V660.54 H248.32 C248,660.54,248,660.59,248,660.74 Z " /><path
         id="path12195"
         fill="black"
         stroke-width="0"
         d="M251.32,661.95 L251.34,661.98 L251.36,662.01 L251.37,662.02 L251.38,662.04 L251.39,662.05 L251.4,662.06 L251.41,662.08 L251.42,662.09 L251.43,662.1 L251.44,662.11 L251.46,662.12 L251.47,662.14 L251.48,662.15 L251.5,662.16 L251.51,662.17 L251.53,662.18 L251.55,662.18 L251.57,662.19 L251.58,662.2 L251.6,662.21 L251.62,662.21 L251.64,662.22 L251.67,662.23 L251.69,662.23 L251.71,662.23 L251.74,662.24 L251.76,662.24 L251.79,662.24 L251.82,662.25 L251.84,662.25 V662.47 C251.71,662.46,251.59,662.45,251.41,662.45 C251.41,662.45,251.08,662.45,250.9,662.47 V662.25 C251.04,662.24,251.12,662.18,251.12,662.07 C251.12,662.02,251.1,661.97,251.1,661.97 L250.47,660.74 L249.79,662.06 C249.77,662.08,249.76,662.11,249.76,662.14 C249.76,662.25,249.93,662.25,250.03,662.25 V662.47 C249.8,662.45,249.44,662.45,249.41,662.45 C249.21,662.45,249.06,662.45,248.85,662.47 V662.25 C249.15,662.25,249.22,662.25,249.29,662.1 L250.17,660.38 C250.21,660.31,250.23,660.27,250.35,660.27 C250.46,660.27,250.49,660.32,250.52,660.38 Z " /><line
         id="line12197"
         stroke-width="0.398"
         y2="659.73"
         x2="252.72"
         y1="659.73"
         x1="224.63" /><path
         id="path12199"
         fill="black"
         stroke-width="0"
         d="M239.28,656.17 L239.34,656.19 L239.4,656.2 L239.45,656.22 L239.51,656.24 L239.57,656.26 L239.63,656.28 L239.68,656.3 L239.74,656.33 L239.79,656.35 L239.85,656.38 L239.9,656.41 L239.95,656.44 L240,656.47 L240.05,656.51 L240.1,656.54 L240.14,656.57 L240.18,656.61 L240.22,656.65 L240.26,656.69 L240.3,656.73 L240.34,656.77 L240.37,656.81 L240.4,656.85 L240.42,656.9 L240.45,656.94 L240.47,656.99 L240.49,657.04 L240.5,657.09 L240.52,657.14 L240.52,657.19 L240.53,657.24 L240.53,657.29 C240.53,657.99,239.61,658.55,238.53,658.55 H236.19 V658.3 H236.35 C236.89,658.3,236.9,658.23,236.9,657.99 V654.36 C236.9,654.13,236.89,654.05,236.35,654.05 H236.19 V653.8 C236.19,653.8,236.93,653.83,237.22,653.83 C237.51,653.83,237.91,653.81,238.25,653.8 V654.05 H238.09 C237.55,654.05,237.54,654.12,237.54,654.36 V656.08 V656.28 V658.03 C237.54,658.22,237.54,658.27,237.73,658.29 C237.78,658.3,238.02,658.3,238.16,658.3 C238.83,658.3,239.79,658.3,239.79,657.29 C239.79,656.51,239.18,656.28,238.44,656.28 H238.44 H237.54 V656.08 H238.46 C238.59,656.08,238.95,656.08,239.26,655.8 C239.5,655.58,239.5,655.41,239.5,654.94 C239.5,654.49,239.5,654.2,239.82,653.94 C240.12,653.7,240.53,653.66,240.73,653.66 C241.32,653.66,241.47,654.22,241.47,654.43 C241.47,654.48,241.47,654.57,241.35,654.57 C241.25,654.57,241.24,654.5,241.24,654.43 C241.2,654.03,240.97,653.86,240.76,653.86 C240.36,653.86,240.3,654.27,240.22,654.9 C240.14,655.46,240.12,655.57,239.92,655.8 C239.85,655.87,239.65,656.05,239.28,656.17 Z " /></g>  </g>
</svg>
