<?xml version="1.0" encoding="UTF-8" standalone="no"?>
<!-- Created with Inkscape (http://www.inkscape.org/) -->

<svg
   xmlns:ns0="http://www.iki.fi/pav/software/textext/"
   xmlns:dc="http://purl.org/dc/elements/1.1/"
   xmlns:cc="http://creativecommons.org/ns#"
   xmlns:rdf="http://www.w3.org/1999/02/22-rdf-syntax-ns#"
   xmlns:svg="http://www.w3.org/2000/svg"
   xmlns="http://www.w3.org/2000/svg"
   xmlns:xlink="http://www.w3.org/1999/xlink"
   xmlns:sodipodi="http://sodipodi.sourceforge.net/DTD/sodipodi-0.dtd"
   xmlns:inkscape="http://www.inkscape.org/namespaces/inkscape"
   width="615.30048"
   height="509.32687"
   id="svg2"
   version="1.1"
   inkscape:version="0.48.4 r9939"
   sodipodi:docname="New document 27">
  <sodipodi:namedview
     id="base"
     pagecolor="#ffffff"
     bordercolor="#666666"
     borderopacity="1.0"
     inkscape:pageopacity="0.0"
     inkscape:pageshadow="2"
     inkscape:zoom="1.22"
     inkscape:cx="307.4564"
     inkscape:cy="299.50832"
     inkscape:document-units="px"
     inkscape:current-layer="layer1"
     showgrid="true"
     units="in"
     width="11cm"
     inkscape:window-width="1280"
     inkscape:window-height="967"
     inkscape:window-x="0"
     inkscape:window-y="0"
     inkscape:window-maximized="1"
     fit-margin-top="0"
     fit-margin-left="0"
     fit-margin-right="0"
     fit-margin-bottom="0"
     inkscape:snap-grids="true">
    <inkscape:grid
       spacingy="2px"
       spacingx="2px"
       snapvisiblegridlinesonly="true"
       enabled="true"
       visible="true"
       empspacing="5"
       id="grid2984"
       type="xygrid"
       originx="-10.928571px"
       originy="102.13936px" />
  </sodipodi:namedview>
  <defs
     id="defs4">
    <marker
       style="overflow:visible"
       id="Arrow2Lend"
       refX="0"
       refY="0"
       orient="auto"
       inkscape:stockid="Arrow2Lend">
      <path
         transform="matrix(-1.1,0,0,-1.1,-1.1,0)"
         d="M 8.7185878,4.0337352 -2.2072895,0.01601326 8.7185884,-4.0017078 c -1.7454984,2.3720609 -1.7354408,5.6174519 -6e-7,8.035443 z"
         style="fill-rule:evenodd;stroke-width:0.625;stroke-linejoin:round"
         id="path3850"
         inkscape:connector-curvature="0" />
    </marker>
    <marker
       style="overflow:visible"
       id="Arrow2Lstart"
       refX="0"
       refY="0"
       orient="auto"
       inkscape:stockid="Arrow2Lstart">
      <path
         transform="matrix(1.1,0,0,1.1,1.1,0)"
         d="M 8.7185878,4.0337352 -2.2072895,0.01601326 8.7185884,-4.0017078 c -1.7454984,2.3720609 -1.7354408,5.6174519 -6e-7,8.035443 z"
         style="fill-rule:evenodd;stroke-width:0.625;stroke-linejoin:round"
         id="path3847"
         inkscape:connector-curvature="0" />
    </marker>
    <marker
       inkscape:stockid="Arrow2Mend"
       orient="auto"
       refY="0"
       refX="0"
       id="Arrow2Mend"
       style="overflow:visible">
      <path
         inkscape:connector-curvature="0"
         id="path3966"
         style="fill-rule:evenodd;stroke-width:0.625;stroke-linejoin:round"
         d="M 8.7185878,4.0337352 -2.2072895,0.01601326 8.7185884,-4.0017078 c -1.7454984,2.3720609 -1.7354408,5.6174519 -6e-7,8.035443 z"
         transform="scale(-0.6,-0.6)" />
    </marker>
  </defs>
  <metadata
     id="metadata7">
    <rdf:RDF>
      <cc:Work
         rdf:about="">
        <dc:format>image/svg+xml</dc:format>
        <dc:type
           rdf:resource="http://purl.org/dc/dcmitype/StillImage" />
        <dc:title></dc:title>
      </cc:Work>
    </rdf:RDF>
  </metadata>
  <g
     inkscape:label="Layer 1"
     inkscape:groupmode="layer"
     id="layer1"
     transform="translate(52.099787,-668.85974)">
    <path
       sodipodi:open="true"
       sodipodi:end="9.3648081"
       sodipodi:start="3.1009386"
       transform="translate(-63.028358,665.51153)"
       d="M 40.016525,61.348563 C 39.567597,50.311994 48.150575,41.001159 59.187143,40.552231 70.223711,40.103302 79.534546,48.68628 79.983475,59.722848 80.432403,70.759417 71.849425,80.070252 60.812857,80.51918 49.92673,80.961989 40.688941,72.609927 40.035953,61.734384"
       sodipodi:ry="20"
       sodipodi:rx="20"
       sodipodi:cy="60.535706"
       sodipodi:cx="60"
       id="path8340"
       style="fill:none;stroke:#000000;stroke-width:1;stroke-linecap:round;stroke-miterlimit:4;stroke-opacity:1;stroke-dasharray:none;stroke-dashoffset:0"
       sodipodi:type="arc" />
    <path
       sodipodi:open="true"
       sodipodi:end="9.3648081"
       sodipodi:start="3.1009386"
       d="M 40.016525,61.348563 C 39.567597,50.311994 48.150575,41.001159 59.187143,40.552231 70.223711,40.103302 79.534546,48.68628 79.983475,59.722848 80.432403,70.759417 71.849425,80.070252 60.812857,80.51918 49.92673,80.961989 40.688941,72.609927 40.035953,61.734384"
       sodipodi:ry="20"
       sodipodi:rx="20"
       sodipodi:cy="60.535706"
       sodipodi:cx="60"
       id="path8340-0"
       style="fill:none;stroke:#000000;stroke-width:1;stroke-linecap:round;stroke-miterlimit:4;stroke-opacity:1;stroke-dasharray:none;stroke-dashoffset:0"
       sodipodi:type="arc"
       transform="translate(-23.028358,665.51153)" />
    <path
       sodipodi:open="true"
       sodipodi:end="9.3648081"
       sodipodi:start="3.1009386"
       d="M 40.016525,61.348563 C 39.567597,50.311994 48.150575,41.001159 59.187143,40.552231 70.223711,40.103302 79.534546,48.68628 79.983475,59.722848 80.432403,70.759417 71.849425,80.070252 60.812857,80.51918 49.92673,80.961989 40.688941,72.609927 40.035953,61.734384"
       sodipodi:ry="20"
       sodipodi:rx="20"
       sodipodi:cy="60.535706"
       sodipodi:cx="60"
       id="path8340-03"
       style="fill:none;stroke:#000000;stroke-width:1;stroke-linecap:round;stroke-miterlimit:4;stroke-opacity:1;stroke-dasharray:none;stroke-dashoffset:0"
       sodipodi:type="arc"
       transform="translate(16.971642,665.51153)" />
    <path
       sodipodi:open="true"
       sodipodi:end="9.3648081"
       sodipodi:start="3.1009386"
       d="M 40.016525,61.348563 C 39.567597,50.311994 48.150575,41.001159 59.187143,40.552231 70.223711,40.103302 79.534546,48.68628 79.983475,59.722848 80.432403,70.759417 71.849425,80.070252 60.812857,80.51918 49.92673,80.961989 40.688941,72.609927 40.035953,61.734384"
       sodipodi:ry="20"
       sodipodi:rx="20"
       sodipodi:cy="60.535706"
       sodipodi:cx="60"
       id="path8340-06"
       style="fill:none;stroke:#000000;stroke-width:1;stroke-linecap:round;stroke-miterlimit:4;stroke-opacity:1;stroke-dasharray:none;stroke-dashoffset:0"
       sodipodi:type="arc"
       transform="translate(57.685928,666.22582)" />
    <path
       sodipodi:open="true"
       sodipodi:end="9.3648081"
       sodipodi:start="3.1009386"
       d="M 40.016525,61.348563 C 39.567597,50.311994 48.150575,41.001159 59.187143,40.552231 70.223711,40.103302 79.534546,48.68628 79.983475,59.722848 80.432403,70.759417 71.849425,80.070252 60.812857,80.51918 49.92673,80.961989 40.688941,72.609927 40.035953,61.734384"
       sodipodi:ry="20"
       sodipodi:rx="20"
       sodipodi:cy="60.535706"
       sodipodi:cx="60"
       id="path8340-7"
       style="fill:none;stroke:#000000;stroke-width:1;stroke-linecap:round;stroke-miterlimit:4;stroke-opacity:1;stroke-dasharray:none;stroke-dashoffset:0"
       sodipodi:type="arc"
       transform="translate(-83.742644,700.51153)" />
    <path
       sodipodi:open="true"
       sodipodi:end="9.3648081"
       sodipodi:start="3.1009386"
       d="M 40.016525,61.348563 C 39.567597,50.311994 48.150575,41.001159 59.187143,40.552231 70.223711,40.103302 79.534546,48.68628 79.983475,59.722848 80.432403,70.759417 71.849425,80.070252 60.812857,80.51918 49.92673,80.961989 40.688941,72.609927 40.035953,61.734384"
       sodipodi:ry="20"
       sodipodi:rx="20"
       sodipodi:cy="60.535706"
       sodipodi:cx="60"
       id="path8340-8"
       style="fill:none;stroke:#000000;stroke-width:1;stroke-linecap:round;stroke-miterlimit:4;stroke-opacity:1;stroke-dasharray:none;stroke-dashoffset:0"
       sodipodi:type="arc"
       transform="translate(-3.7426437,700.51153)" />
    <path
       sodipodi:open="true"
       sodipodi:end="9.3648081"
       sodipodi:start="3.1009386"
       d="M 40.016525,61.348563 C 39.567597,50.311994 48.150575,41.001159 59.187143,40.552231 70.223711,40.103302 79.534546,48.68628 79.983475,59.722848 80.432403,70.759417 71.849425,80.070252 60.812857,80.51918 49.92673,80.961989 40.688941,72.609927 40.035953,61.734384"
       sodipodi:ry="20"
       sodipodi:rx="20"
       sodipodi:cy="60.535706"
       sodipodi:cx="60"
       id="path8340-6"
       style="fill:none;stroke:#000000;stroke-width:1;stroke-linecap:round;stroke-miterlimit:4;stroke-opacity:1;stroke-dasharray:none;stroke-dashoffset:0"
       sodipodi:type="arc"
       transform="translate(36.971642,700.51153)" />
    <path
       sodipodi:open="true"
       sodipodi:end="9.3648081"
       sodipodi:start="3.1009386"
       d="M 40.016525,61.348563 C 39.567597,50.311994 48.150575,41.001159 59.187143,40.552231 70.223711,40.103302 79.534546,48.68628 79.983475,59.722848 80.432403,70.759417 71.849425,80.070252 60.812857,80.51918 49.92673,80.961989 40.688941,72.609927 40.035953,61.734384"
       sodipodi:ry="20"
       sodipodi:rx="20"
       sodipodi:cy="60.535706"
       sodipodi:cx="60"
       id="path8340-04"
       style="fill:none;stroke:#000000;stroke-width:1;stroke-linecap:round;stroke-miterlimit:4;stroke-opacity:1;stroke-dasharray:none;stroke-dashoffset:0"
       sodipodi:type="arc"
       transform="translate(77.685928,701.22581)" />
    <path
       sodipodi:open="true"
       sodipodi:end="9.3648081"
       sodipodi:start="3.1009386"
       d="M 40.016525,61.348563 C 39.567597,50.311994 48.150575,41.001159 59.187143,40.552231 70.223711,40.103302 79.534546,48.68628 79.983475,59.722848 80.432403,70.759417 71.849425,80.070252 60.812857,80.51918 49.92673,80.961989 40.688941,72.609927 40.035953,61.734384"
       sodipodi:ry="20"
       sodipodi:rx="20"
       sodipodi:cy="60.535706"
       sodipodi:cx="60"
       id="path8340-69"
       style="fill:none;stroke:#000000;stroke-width:1;stroke-linecap:round;stroke-miterlimit:4;stroke-opacity:1;stroke-dasharray:none;stroke-dashoffset:0"
       sodipodi:type="arc"
       transform="translate(-65.171215,735.51153)" />
    <path
       sodipodi:open="true"
       sodipodi:end="9.3648081"
       sodipodi:start="3.1009386"
       d="M 40.016525,61.348563 C 39.567597,50.311994 48.150575,41.001159 59.187143,40.552231 70.223711,40.103302 79.534546,48.68628 79.983475,59.722848 80.432403,70.759417 71.849425,80.070252 60.812857,80.51918 49.92673,80.961989 40.688941,72.609927 40.035953,61.734384"
       sodipodi:ry="20"
       sodipodi:rx="20"
       sodipodi:cy="60.535706"
       sodipodi:cx="60"
       id="path8340-02"
       style="fill:none;stroke:#000000;stroke-width:1;stroke-linecap:round;stroke-miterlimit:4;stroke-opacity:1;stroke-dasharray:none;stroke-dashoffset:0"
       sodipodi:type="arc"
       transform="translate(16.257356,734.79725)" />
    <path
       sodipodi:open="true"
       sodipodi:end="9.3648081"
       sodipodi:start="3.1009386"
       d="M 40.016525,61.348563 C 39.567597,50.311994 48.150575,41.001159 59.187143,40.552231 70.223711,40.103302 79.534546,48.68628 79.983475,59.722848 80.432403,70.759417 71.849425,80.070252 60.812857,80.51918 49.92673,80.961989 40.688941,72.609927 40.035953,61.734384"
       sodipodi:ry="20"
       sodipodi:rx="20"
       sodipodi:cy="60.535706"
       sodipodi:cx="60"
       id="path8340-1"
       style="fill:none;stroke:#000000;stroke-width:1;stroke-linecap:round;stroke-miterlimit:4;stroke-opacity:1;stroke-dasharray:none;stroke-dashoffset:0"
       sodipodi:type="arc"
       transform="translate(-24.456931,734.79724)" />
    <path
       sodipodi:open="true"
       sodipodi:end="9.3648081"
       sodipodi:start="3.1009386"
       d="M 40.016525,61.348563 C 39.567597,50.311994 48.150575,41.001159 59.187143,40.552231 70.223711,40.103302 79.534546,48.68628 79.983475,59.722848 80.432403,70.759417 71.849425,80.070252 60.812857,80.51918 49.92673,80.961989 40.688941,72.609927 40.035953,61.734384"
       sodipodi:ry="20"
       sodipodi:rx="20"
       sodipodi:cy="60.535706"
       sodipodi:cx="60"
       id="path8340-4"
       style="fill:none;stroke:#000000;stroke-width:1;stroke-linecap:round;stroke-miterlimit:4;stroke-opacity:1;stroke-dasharray:none;stroke-dashoffset:0"
       sodipodi:type="arc"
       transform="translate(56.971642,735.51153)" />
    <path
       transform="translate(-63.028358,665.51153)"
       inkscape:connector-curvature="0"
       id="path8430"
       d="m 20,60.535706 240,0"
       style="fill:none;stroke:#000000;stroke-width:1px;stroke-linecap:butt;stroke-linejoin:miter;stroke-opacity:1" />
    <path
       inkscape:connector-curvature="0"
       id="path8432"
       d="m -51.599787,761.04724 249.999997,0"
       style="fill:none;stroke:#000000;stroke-width:1px;stroke-linecap:butt;stroke-linejoin:miter;stroke-opacity:1" />
    <path
       sodipodi:nodetypes="cc"
       inkscape:connector-curvature="0"
       id="path8434"
       d="m 193.40021,727.47581 0,32.14286"
       style="fill:none;stroke:#000000;stroke-width:1px;stroke-linecap:butt;stroke-linejoin:miter;stroke-opacity:1;marker-start:url(#Arrow2Lstart);marker-end:url(#Arrow2Lend)" />
    <text
       sodipodi:linespacing="100%"
       id="text9324"
       y="746.76154"
       x="203.40021"
       style="font-size:16px;font-style:normal;font-variant:normal;font-weight:500;font-stretch:normal;text-align:start;line-height:100%;letter-spacing:0px;word-spacing:0px;writing-mode:lr-tb;text-anchor:start;fill:#000000;fill-opacity:1;stroke:none;font-family:Rekha;-inkscape-font-specification:Rekha Medium"
       xml:space="preserve"><tspan
         y="746.76154"
         x="203.40021"
         id="tspan9326"
         sodipodi:role="line">a</tspan></text>
    <path
       sodipodi:nodetypes="cc"
       inkscape:connector-curvature="0"
       id="path9330"
       d="m 266.25736,766.76153 230,0"
       style="fill:none;stroke:#000000;stroke-width:1px;stroke-linecap:butt;stroke-linejoin:miter;stroke-opacity:1" />
    <path
       sodipodi:nodetypes="cc"
       inkscape:connector-curvature="0"
       id="path9328"
       d="m 266.97163,726.04723 230,0"
       style="fill:none;stroke:#000000;stroke-width:1px;stroke-linecap:butt;stroke-linejoin:miter;stroke-opacity:1" />
    <path
       sodipodi:nodetypes="cc"
       inkscape:connector-curvature="0"
       id="path9332"
       d="m 266.97163,806.04723 230,0"
       style="fill:none;stroke:#000000;stroke-width:1px;stroke-linecap:butt;stroke-linejoin:miter;stroke-opacity:1" />
    <path
       sodipodi:nodetypes="ccc"
       inkscape:connector-curvature="0"
       id="path9334"
       d="m 496.97163,696.04723 -120,70 -100,-70"
       style="fill:none;stroke:#000000;stroke-width:1px;stroke-linecap:butt;stroke-linejoin:miter;stroke-opacity:1;marker-start:url(#Arrow2Lstart);marker-end:none" />
    <path
       sodipodi:nodetypes="cc"
       inkscape:connector-curvature="0"
       id="path9336"
       d="m 256.97163,726.04723 120,80"
       style="fill:none;stroke:#000000;stroke-width:1px;stroke-linecap:butt;stroke-linejoin:miter;stroke-opacity:1" />
    <path
       sodipodi:nodetypes="cc"
       inkscape:connector-curvature="0"
       id="path9338"
       d="m 376.97163,806.04723 120,-70"
       style="fill:none;stroke:#000000;stroke-width:1px;stroke-linecap:butt;stroke-linejoin:miter;stroke-opacity:1;marker-end:url(#Arrow2Lend)" />
    <text
       sodipodi:linespacing="100%"
       id="text10084"
       y="676.04724"
       x="346.97165"
       style="font-size:16px;font-style:normal;font-variant:normal;font-weight:500;font-stretch:normal;text-align:start;line-height:100%;letter-spacing:0px;word-spacing:0px;writing-mode:lr-tb;text-anchor:start;fill:#000000;fill-opacity:1;stroke:none;font-family:Rekha;-inkscape-font-specification:Rekha Medium"
       xml:space="preserve"><tspan
         y="676.04724"
         x="346.97165"
         id="tspan10086"
         sodipodi:role="line">  x-ray</tspan><tspan
         id="tspan10088"
         y="692.04724"
         x="346.97165"
         sodipodi:role="line">diffraction</tspan><tspan
         id="tspan10090"
         y="708.04724"
         x="346.97165"
         sodipodi:role="line"> (XRD)</tspan></text>
    <path
       inkscape:connector-curvature="0"
       id="path10092"
       d="m 496.97163,756.04723 30,0"
       style="fill:none;stroke:#000000;stroke-width:1px;stroke-linecap:butt;stroke-linejoin:miter;stroke-opacity:1;marker-end:url(#Arrow2Lend)" />
    <g
       id="g10320"
       ns0:preamble=""
       ns0:text="$\\mathrm{{\\Delta a} \\over a}$"
       transform="matrix(2.1780819,0,0,2.1780819,50.6032,470.99673)">
      <defs
         id="defs10322">
        <g
           id="g10324">
          <symbol
             id="textext-f54c0e2f-0"
             overflow="visible"
             style="overflow:visible">
            <path
               id="path10327"
               d=""
               style="stroke:none"
               inkscape:connector-curvature="0" />
          </symbol>
          <symbol
             id="textext-f54c0e2f-1"
             overflow="visible"
             style="overflow:visible">
            <path
               id="path10330"
               d="m 3.484375,-4.8125 c -0.0625,-0.125 -0.078125,-0.15625 -0.21875,-0.15625 -0.09375,0 -0.15625,0.015625 -0.21875,0.125 L 0.46875,-0.171875 C 0.421875,-0.09375 0.421875,-0.078125 0.421875,-0.0625 0.421875,0 0.484375,0 0.59375,0 L 5.9375,0 c 0.109375,0 0.171875,0 0.171875,-0.0625 0,-0.015625 0,-0.03125 -0.046875,-0.109375 z m -0.453125,0.53125 2.046875,3.703125 -4.09375,0 z m 0,0"
               style="stroke:none"
               inkscape:connector-curvature="0" />
          </symbol>
          <symbol
             id="textext-f54c0e2f-2"
             overflow="visible"
             style="overflow:visible">
            <path
               id="path10333"
               d="m 3.109375,-1.875 c 0,-0.359375 0,-0.625 -0.328125,-0.890625 C 2.5,-3 2.171875,-3.109375 1.75,-3.109375 c -0.65625,0 -1.125,0.25 -1.125,0.671875 0,0.234375 0.15625,0.34375 0.34375,0.34375 0.1875,0 0.328125,-0.140625 0.328125,-0.328125 0,-0.109375 -0.0625,-0.265625 -0.25,-0.3125 0.25,-0.171875 0.65625,-0.171875 0.6875,-0.171875 0.390625,0 0.828125,0.25 0.828125,0.84375 l 0,0.203125 C 2.171875,-1.84375 1.71875,-1.8125 1.203125,-1.625 c -0.625,0.21875 -0.8125,0.609375 -0.8125,0.921875 0,0.59375 0.71875,0.765625 1.21875,0.765625 0.546875,0 0.875,-0.3125 1.03125,-0.578125 0.015625,0.28125 0.203125,0.546875 0.53125,0.546875 0.015625,0 0.6875,0 0.6875,-0.65625 l 0,-0.390625 -0.234375,0 0,0.375 c 0,0.078125 0,0.40625 -0.265625,0.40625 -0.25,0 -0.25,-0.328125 -0.25,-0.40625 z M 2.5625,-0.984375 c 0,0.671875 -0.59375,0.859375 -0.90625,0.859375 -0.359375,0 -0.6875,-0.234375 -0.6875,-0.578125 0,-0.390625 0.328125,-0.921875 1.59375,-0.96875 z m 0,0"
               style="stroke:none"
               inkscape:connector-curvature="0" />
          </symbol>
        </g>
      </defs>
      <g
         id="textext-f54c0e2f-3">
        <g
           id="g10336"
           style="fill:#000000;fill-opacity:1">
          <use
             id="use10338"
             y="130.842"
             x="224.62801"
             xlink:href="#textext-f54c0e2f-1"
             width="666.37817"
             height="410.53571" />
          <use
             id="use10340"
             y="130.842"
             x="231.17291"
             xlink:href="#textext-f54c0e2f-2"
             width="666.37817"
             height="410.53571" />
        </g>
        <path
           id="path10342"
           transform="matrix(1,0,0,-1,224.628,132.274)"
           d="m 9.0625e-4,5.625e-4 10.51562475,0"
           style="fill:none;stroke:#000000;stroke-width:0.398;stroke-linecap:butt;stroke-linejoin:miter;stroke-miterlimit:10;stroke-opacity:1"
           inkscape:connector-curvature="0" />
        <g
           id="g10344"
           style="fill:#000000;fill-opacity:1">
          <use
             id="use10346"
             y="138.2"
             x="227.89999"
             xlink:href="#textext-f54c0e2f-2"
             width="666.37817"
             height="410.53571" />
        </g>
      </g>
    </g>
    <path
       style="fill:none;stroke:#000000;stroke-width:1px;stroke-linecap:butt;stroke-linejoin:miter;stroke-opacity:1"
       d="m 47.135576,967.19478 0,-90"
       id="path10438"
       inkscape:connector-curvature="0"
       sodipodi:nodetypes="cc" />
    <path
       style="fill:none;stroke:#000000;stroke-width:1px;stroke-linecap:butt;stroke-linejoin:miter;stroke-opacity:1"
       d="m 167.95525,967.19478 0,-90"
       id="path10442"
       inkscape:connector-curvature="0"
       sodipodi:nodetypes="cc" />
    <g
       id="g11109"
       transform="translate(-10.041718,31.244491)">
      <path
         inkscape:connector-curvature="0"
         id="path10452"
         d="m 56.971642,896.04724 10,-10"
         style="fill:none;stroke:#000000;stroke-width:1px;stroke-linecap:butt;stroke-linejoin:miter;stroke-opacity:1" />
      <g
         id="g11092">
        <path
           style="fill:none;stroke:#000000;stroke-width:1px;stroke-linecap:butt;stroke-linejoin:miter;stroke-opacity:1"
           d="m 66.971642,926.04724 30,-30"
           id="path10460"
           inkscape:connector-curvature="0" />
        <path
           style="fill:none;stroke:#000000;stroke-width:1px;stroke-linecap:butt;stroke-linejoin:miter;stroke-opacity:1"
           d="m -33.028358,886.04724 219.999998,0"
           id="path10430"
           inkscape:connector-curvature="0"
           sodipodi:nodetypes="cc" />
        <path
           style="fill:none;stroke:#000000;stroke-width:1px;stroke-linecap:butt;stroke-linejoin:miter;stroke-opacity:1"
           d="m -33.028358,926.04724 219.999998,0"
           id="path10432"
           inkscape:connector-curvature="0"
           sodipodi:nodetypes="cc" />
        <path
           style="fill:none;stroke:#000000;stroke-width:1px;stroke-linecap:butt;stroke-linejoin:miter;stroke-opacity:1"
           d="m -23.028358,936.04724 0,-50"
           id="path10434"
           inkscape:connector-curvature="0"
           sodipodi:nodetypes="cc" />
        <path
           style="fill:none;stroke:#000000;stroke-width:1px;stroke-linecap:butt;stroke-linejoin:miter;stroke-opacity:1"
           d="m 16.971642,936.04724 0,-50"
           id="path10436"
           inkscape:connector-curvature="0"
           sodipodi:nodetypes="cc" />
        <path
           style="fill:none;stroke:#000000;stroke-width:1px;stroke-linecap:butt;stroke-linejoin:miter;stroke-opacity:1"
           d="m 56.971642,846.04724 129.999998,0"
           id="path10444"
           inkscape:connector-curvature="0"
           sodipodi:nodetypes="cc" />
        <path
           style="fill:none;stroke:#000000;stroke-width:1;stroke-linecap:butt;stroke-linejoin:miter;stroke-miterlimit:4;stroke-opacity:1;stroke-dasharray:3, 3;stroke-dashoffset:0"
           d="m 16.971642,886.04724 0,-40 40,0"
           id="path10446"
           inkscape:connector-curvature="0"
           sodipodi:nodetypes="ccc" />
        <path
           style="fill:none;stroke:#000000;stroke-width:1px;stroke-linecap:butt;stroke-linejoin:miter;stroke-opacity:1"
           d="m 96.971642,936.04724 0,-90"
           id="path10448"
           inkscape:connector-curvature="0"
           sodipodi:nodetypes="cc" />
        <path
           style="fill:none;stroke:#000000;stroke-width:1px;stroke-linecap:butt;stroke-linejoin:miter;stroke-opacity:1"
           d="m 136.97164,936.04724 0,-90"
           id="path10450"
           inkscape:connector-curvature="0"
           sodipodi:nodetypes="cc" />
        <path
           style="fill:none;stroke:#000000;stroke-width:1px;stroke-linecap:butt;stroke-linejoin:miter;stroke-opacity:1"
           d="m 56.971642,906.04724 20,-20"
           id="path10454"
           inkscape:connector-curvature="0" />
        <path
           style="fill:none;stroke:#000000;stroke-width:1px;stroke-linecap:butt;stroke-linejoin:miter;stroke-opacity:1"
           d="m 56.971642,916.04724 30,-30"
           id="path10456"
           inkscape:connector-curvature="0" />
        <path
           style="fill:none;stroke:#000000;stroke-width:1px;stroke-linecap:butt;stroke-linejoin:miter;stroke-opacity:1"
           d="m 56.971642,926.04724 40,-40"
           id="path10458"
           inkscape:connector-curvature="0" />
        <path
           style="fill:none;stroke:#000000;stroke-width:1px;stroke-linecap:butt;stroke-linejoin:miter;stroke-opacity:1"
           d="m 76.971642,926.04724 20,-20"
           id="path10462"
           inkscape:connector-curvature="0" />
        <path
           style="fill:none;stroke:#000000;stroke-width:1px;stroke-linecap:butt;stroke-linejoin:miter;stroke-opacity:1"
           d="m 86.971642,926.04724 10,-10"
           id="path10464"
           inkscape:connector-curvature="0" />
        <path
           style="fill:none;stroke:#000000;stroke-width:1px;stroke-linecap:butt;stroke-linejoin:miter;stroke-opacity:1;marker-end:url(#Arrow2Lend)"
           d="m 76.971642,906.04724 -40,-40"
           id="path10466"
           inkscape:connector-curvature="0" />
      </g>
    </g>
    <path
       style="fill:none;stroke:#000000;stroke-width:1px;stroke-linecap:butt;stroke-linejoin:miter;stroke-opacity:1;marker-end:url(#Arrow2Lend)"
       d="m 198.77492,916.37511 60,0"
       id="path10840"
       inkscape:connector-curvature="0" />
    <g
       id="g11128"
       transform="translate(-9.0163934,30.327869)">
      <path
         sodipodi:nodetypes="cc"
         transform="translate(-63.028358,665.51153)"
         inkscape:connector-curvature="0"
         id="path10842"
         d="m 350,260.53571 220,0"
         style="fill:none;stroke:#000000;stroke-width:1px;stroke-linecap:butt;stroke-linejoin:miter;stroke-opacity:1" />
      <path
         sodipodi:nodetypes="cc"
         transform="translate(-63.028358,665.51153)"
         inkscape:connector-curvature="0"
         id="path10844"
         d="m 350,220.53571 220,0"
         style="fill:none;stroke:#000000;stroke-width:1px;stroke-linecap:butt;stroke-linejoin:miter;stroke-opacity:1" />
      <path
         sodipodi:nodetypes="cc"
         transform="translate(-63.028358,665.51153)"
         inkscape:connector-curvature="0"
         id="path10846"
         d="m 350,180.53571 220,0"
         style="fill:none;stroke:#000000;stroke-width:1;stroke-linecap:butt;stroke-linejoin:miter;stroke-miterlimit:4;stroke-opacity:1;stroke-dasharray:4, 4;stroke-dashoffset:0" />
      <path
         transform="translate(-63.028358,665.51153)"
         inkscape:connector-curvature="0"
         id="path10848"
         d="m 360,270.53571 0,-50"
         style="fill:none;stroke:#000000;stroke-width:1px;stroke-linecap:butt;stroke-linejoin:miter;stroke-opacity:1" />
      <path
         transform="translate(-63.028358,665.51153)"
         inkscape:connector-curvature="0"
         id="path10850"
         d="m 400,270.53571 0,-50"
         style="fill:none;stroke:#000000;stroke-width:1px;stroke-linecap:butt;stroke-linejoin:miter;stroke-opacity:1" />
      <path
         transform="translate(-63.028358,665.51153)"
         inkscape:connector-curvature="0"
         id="path10852"
         d="m 440,270.53571 0,-50"
         style="fill:none;stroke:#000000;stroke-width:1px;stroke-linecap:butt;stroke-linejoin:miter;stroke-opacity:1" />
      <path
         transform="translate(-63.028358,665.51153)"
         inkscape:connector-curvature="0"
         id="path10854"
         d="m 480,270.53571 0,-50"
         style="fill:none;stroke:#000000;stroke-width:1px;stroke-linecap:butt;stroke-linejoin:miter;stroke-opacity:1" />
      <path
         transform="translate(-63.028358,665.51153)"
         inkscape:connector-curvature="0"
         id="path10856"
         d="m 520,270.53571 0,-50"
         style="fill:none;stroke:#000000;stroke-width:1px;stroke-linecap:butt;stroke-linejoin:miter;stroke-opacity:1" />
      <path
         transform="translate(-63.028358,665.51153)"
         inkscape:connector-curvature="0"
         id="path10858"
         d="m 560,270.53571 0,-50"
         style="fill:none;stroke:#000000;stroke-width:1px;stroke-linecap:butt;stroke-linejoin:miter;stroke-opacity:1" />
      <path
         transform="translate(-63.028358,665.51153)"
         inkscape:connector-curvature="0"
         id="path10860"
         d="m 360,220.53571 0,-40"
         style="fill:none;stroke:#000000;stroke-width:1;stroke-linecap:butt;stroke-linejoin:miter;stroke-miterlimit:4;stroke-opacity:1;stroke-dasharray:4, 4;stroke-dashoffset:0" />
      <path
         transform="translate(-63.028358,665.51153)"
         inkscape:connector-curvature="0"
         id="path10862"
         d="m 400,220.53571 0,-40"
         style="fill:none;stroke:#000000;stroke-width:1;stroke-linecap:butt;stroke-linejoin:miter;stroke-miterlimit:4;stroke-opacity:1;stroke-dasharray:4, 4;stroke-dashoffset:0" />
      <path
         transform="translate(-63.028358,665.51153)"
         inkscape:connector-curvature="0"
         id="path10864"
         d="m 440,220.53571 0,-40"
         style="fill:none;stroke:#000000;stroke-width:1;stroke-linecap:butt;stroke-linejoin:miter;stroke-miterlimit:4;stroke-opacity:1;stroke-dasharray:4, 4;stroke-dashoffset:0" />
      <path
         transform="translate(-63.028358,665.51153)"
         inkscape:connector-curvature="0"
         id="path10866"
         d="m 480,220.53571 0,-40"
         style="fill:none;stroke:#000000;stroke-width:1;stroke-linecap:butt;stroke-linejoin:miter;stroke-miterlimit:4;stroke-opacity:1;stroke-dasharray:4, 4;stroke-dashoffset:0" />
      <path
         transform="translate(-63.028358,665.51153)"
         inkscape:connector-curvature="0"
         id="path10868"
         d="m 520,220.53571 0,-40"
         style="fill:none;stroke:#000000;stroke-width:1;stroke-linecap:butt;stroke-linejoin:miter;stroke-miterlimit:4;stroke-opacity:1;stroke-dasharray:4, 4;stroke-dashoffset:0" />
      <path
         transform="translate(-63.028358,665.51153)"
         inkscape:connector-curvature="0"
         id="path10870"
         d="m 560,220.53571 0,-40"
         style="fill:none;stroke:#000000;stroke-width:1;stroke-linecap:butt;stroke-linejoin:miter;stroke-miterlimit:4;stroke-opacity:1;stroke-dasharray:4, 4;stroke-dashoffset:0" />
    </g>
    <g
       id="g11670"
       transform="matrix(2.1780819,0,0,2.1780819,-447.75746,799.02952)"
       ns0:preamble=""
       ns0:text="$\\mathrm{{{\\Delta a} \\over a} = ({{\\Delta L} \\over L})_{planes}}$">
      <defs
         id="defs11672">
        <g
           id="g11674">
          <symbol
             id="textext-87cc7d99-0"
             overflow="visible"
             style="overflow:visible">
            <path
               id="path11677"
               d=""
               style="stroke:none"
               inkscape:connector-curvature="0" />
          </symbol>
          <symbol
             id="textext-87cc7d99-1"
             overflow="visible"
             style="overflow:visible">
            <path
               id="path11680"
               d="m 3.484375,-4.8125 c -0.0625,-0.125 -0.078125,-0.15625 -0.21875,-0.15625 -0.09375,0 -0.15625,0.015625 -0.21875,0.125 L 0.46875,-0.171875 C 0.421875,-0.09375 0.421875,-0.078125 0.421875,-0.0625 0.421875,0 0.484375,0 0.59375,0 L 5.9375,0 c 0.109375,0 0.171875,0 0.171875,-0.0625 0,-0.015625 0,-0.03125 -0.046875,-0.109375 z m -0.453125,0.53125 2.046875,3.703125 -4.09375,0 z m 0,0"
               style="stroke:none"
               inkscape:connector-curvature="0" />
          </symbol>
          <symbol
             id="textext-87cc7d99-2"
             overflow="visible"
             style="overflow:visible">
            <path
               id="path11683"
               d="m 3.109375,-1.875 c 0,-0.359375 0,-0.625 -0.328125,-0.890625 C 2.5,-3 2.171875,-3.109375 1.75,-3.109375 c -0.65625,0 -1.125,0.25 -1.125,0.671875 0,0.234375 0.15625,0.34375 0.34375,0.34375 0.1875,0 0.328125,-0.140625 0.328125,-0.328125 0,-0.109375 -0.0625,-0.265625 -0.25,-0.3125 0.25,-0.171875 0.65625,-0.171875 0.6875,-0.171875 0.390625,0 0.828125,0.25 0.828125,0.84375 l 0,0.203125 C 2.171875,-1.84375 1.71875,-1.8125 1.203125,-1.625 c -0.625,0.21875 -0.8125,0.609375 -0.8125,0.921875 0,0.59375 0.71875,0.765625 1.21875,0.765625 0.546875,0 0.875,-0.3125 1.03125,-0.578125 0.015625,0.28125 0.203125,0.546875 0.53125,0.546875 0.015625,0 0.6875,0 0.6875,-0.65625 l 0,-0.390625 -0.234375,0 0,0.375 c 0,0.078125 0,0.40625 -0.265625,0.40625 -0.25,0 -0.25,-0.328125 -0.25,-0.40625 z M 2.5625,-0.984375 c 0,0.671875 -0.59375,0.859375 -0.90625,0.859375 -0.359375,0 -0.6875,-0.234375 -0.6875,-0.578125 0,-0.390625 0.328125,-0.921875 1.59375,-0.96875 z m 0,0"
               style="stroke:none"
               inkscape:connector-curvature="0" />
          </symbol>
          <symbol
             id="textext-87cc7d99-3"
             overflow="visible"
             style="overflow:visible">
            <path
               id="path11686"
               d="m 4.53125,-1.828125 -0.234375,0 C 4.21875,-1.15625 4.125,-0.25 2.796875,-0.25 l -0.6875,0 c -0.328125,0 -0.34375,-0.0625 -0.34375,-0.265625 l 0,-3.671875 c 0,-0.234375 0,-0.328125 0.65625,-0.328125 l 0.25,0 0,-0.25 C 2.515625,-4.75 1.625,-4.734375 1.453125,-4.734375 c -0.265625,0 -1.0625,-0.03125 -1.0625,-0.03125 l 0,0.25 0.171875,0 c 0.53125,0 0.546875,0.078125 0.546875,0.328125 l 0,3.625 c 0,0.234375 -0.015625,0.3125 -0.546875,0.3125 l -0.171875,0 0,0.25 3.9375,0 z m 0,0"
               style="stroke:none"
               inkscape:connector-curvature="0" />
          </symbol>
          <symbol
             id="textext-87cc7d99-4"
             overflow="visible"
             style="overflow:visible">
            <path
               id="path11689"
               d="m 1.9375,1.09375 c -0.453125,0 -0.515625,0 -0.515625,-0.296875 l 0,-1.125 C 1.453125,-0.296875 1.78125,0.0625 2.359375,0.0625 3.28125,0.0625 4.0625,-0.625 4.0625,-1.5 c 0,-0.859375 -0.703125,-1.578125 -1.59375,-1.578125 -0.390625,0 -0.796875,0.15625 -1.078125,0.4375 l 0,-0.4375 L 0.34375,-3 l 0,0.25 c 0.484375,0 0.515625,0.046875 0.515625,0.328125 l 0,3.21875 c 0,0.296875 -0.0625,0.296875 -0.515625,0.296875 l 0,0.265625 c 0.015625,0 0.5,-0.03125 0.796875,-0.03125 0.25,0 0.734375,0.015625 0.796875,0.03125 z M 1.421875,-2.328125 C 1.625,-2.671875 2.03125,-2.84375 2.390625,-2.84375 c 0.59375,0 1.046875,0.609375 1.046875,1.34375 0,0.796875 -0.53125,1.375 -1.109375,1.375 -0.625,0 -0.890625,-0.53125 -0.90625,-0.578125 z m 0,0"
               style="stroke:none"
               inkscape:connector-curvature="0" />
          </symbol>
          <symbol
             id="textext-87cc7d99-5"
             overflow="visible"
             style="overflow:visible">
            <path
               id="path11692"
               d="m 1.4375,-4.84375 -1.046875,0.078125 0,0.25 c 0.46875,0 0.515625,0.0625 0.515625,0.390625 l 0,3.578125 C 0.90625,-0.25 0.84375,-0.25 0.390625,-0.25 l 0,0.25 c 0.015625,0 0.5,-0.03125 0.78125,-0.03125 0.265625,0 0.515625,0.015625 0.78125,0.03125 l 0,-0.25 C 1.5,-0.25 1.4375,-0.25 1.4375,-0.546875 z m 0,0"
               style="stroke:none"
               inkscape:connector-curvature="0" />
          </symbol>
          <symbol
             id="textext-87cc7d99-6"
             overflow="visible"
             style="overflow:visible">
            <path
               id="path11695"
               d="m 3.59375,-2.109375 c 0,-0.609375 -0.296875,-0.96875 -1.046875,-0.96875 -0.578125,0 -0.9375,0.3125 -1.140625,0.6875 l 0,-0.6875 L 0.375,-3 l 0,0.25 c 0.46875,0 0.53125,0.046875 0.53125,0.390625 l 0,1.8125 C 0.90625,-0.25 0.828125,-0.25 0.375,-0.25 l 0,0.25 C 0.390625,0 0.875,-0.03125 1.171875,-0.03125 1.421875,-0.03125 1.90625,0 1.96875,0 l 0,-0.25 c -0.453125,0 -0.515625,0 -0.515625,-0.296875 l 0,-1.265625 c 0,-0.71875 0.578125,-1.0625 1.03125,-1.0625 0.484375,0 0.546875,0.375 0.546875,0.734375 l 0,1.59375 C 3.03125,-0.25 2.96875,-0.25 2.515625,-0.25 l 0,0.25 C 2.53125,0 3.015625,-0.03125 3.3125,-0.03125 3.5625,-0.03125 4.046875,0 4.109375,0 l 0,-0.25 c -0.453125,0 -0.515625,0 -0.515625,-0.296875 z m 0,0"
               style="stroke:none"
               inkscape:connector-curvature="0" />
          </symbol>
          <symbol
             id="textext-87cc7d99-7"
             overflow="visible"
             style="overflow:visible">
            <path
               id="path11698"
               d="m 3.0625,-1.59375 c 0.15625,0 0.203125,0 0.203125,-0.140625 0,-0.625 -0.34375,-1.375 -1.390625,-1.375 -0.90625,0 -1.609375,0.71875 -1.609375,1.578125 0,0.890625 0.78125,1.59375 1.703125,1.59375 0.9375,0 1.296875,-0.75 1.296875,-0.90625 0,-0.015625 -0.015625,-0.09375 -0.125,-0.09375 -0.09375,0 -0.109375,0.046875 -0.125,0.109375 -0.21875,0.5625 -0.75,0.671875 -1,0.671875 C 1.6875,-0.15625 1.375,-0.296875 1.171875,-0.5625 0.90625,-0.890625 0.90625,-1.3125 0.90625,-1.59375 z M 0.90625,-1.765625 C 0.984375,-2.75 1.609375,-2.90625 1.875,-2.90625 c 0.859375,0 0.890625,0.96875 0.90625,1.140625 z m 0,0"
               style="stroke:none"
               inkscape:connector-curvature="0" />
          </symbol>
          <symbol
             id="textext-87cc7d99-8"
             overflow="visible"
             style="overflow:visible">
            <path
               id="path11701"
               d="m 2.640625,-2.921875 c 0,-0.125 0,-0.1875 -0.09375,-0.1875 -0.03125,0 -0.046875,0 -0.140625,0.078125 -0.015625,0.015625 -0.078125,0.078125 -0.125,0.109375 -0.21875,-0.140625 -0.46875,-0.1875 -0.734375,-0.1875 -1,0 -1.234375,0.53125 -1.234375,0.875 0,0.21875 0.09375,0.40625 0.265625,0.546875 0.265625,0.21875 0.53125,0.265625 0.96875,0.34375 0.34375,0.0625 0.90625,0.15625 0.90625,0.625 0,0.265625 -0.1875,0.59375 -0.859375,0.59375 -0.671875,0 -0.90625,-0.4375 -1.03125,-0.90625 -0.03125,-0.09375 -0.03125,-0.125 -0.125,-0.125 -0.125,0 -0.125,0.046875 -0.125,0.1875 l 0,0.859375 C 0.3125,0 0.3125,0.0625 0.40625,0.0625 0.46875,0.0625 0.609375,-0.078125 0.75,-0.234375 1.046875,0.0625 1.421875,0.0625 1.59375,0.0625 c 0.90625,0 1.25,-0.484375 1.25,-0.96875 0,-0.265625 -0.125,-0.484375 -0.3125,-0.640625 -0.265625,-0.25 -0.578125,-0.3125 -0.828125,-0.34375 -0.546875,-0.109375 -1,-0.1875 -1,-0.5625 0,-0.21875 0.1875,-0.484375 0.84375,-0.484375 0.8125,0 0.84375,0.5625 0.859375,0.765625 0,0.078125 0.09375,0.078125 0.109375,0.078125 0.125,0 0.125,-0.046875 0.125,-0.1875 z m 0,0"
               style="stroke:none"
               inkscape:connector-curvature="0" />
          </symbol>
          <symbol
             id="textext-87cc7d99-9"
             overflow="visible"
             style="overflow:visible">
            <path
               id="path11704"
               d=""
               style="stroke:none"
               inkscape:connector-curvature="0" />
          </symbol>
          <symbol
             id="textext-87cc7d99-10"
             overflow="visible"
             style="overflow:visible">
            <path
               id="path11707"
               d="m 6.84375,-3.265625 c 0.15625,0 0.34375,0 0.34375,-0.1875 C 7.1875,-3.65625 7,-3.65625 6.859375,-3.65625 l -5.96875,0 c -0.140625,0 -0.328125,0 -0.328125,0.203125 0,0.1875 0.1875,0.1875 0.328125,0.1875 z m 0.015625,1.9375 c 0.140625,0 0.328125,0 0.328125,-0.203125 0,-0.1875 -0.1875,-0.1875 -0.34375,-0.1875 l -5.953125,0 c -0.140625,0 -0.328125,0 -0.328125,0.1875 0,0.203125 0.1875,0.203125 0.328125,0.203125 z m 0,0"
               style="stroke:none"
               inkscape:connector-curvature="0" />
          </symbol>
          <symbol
             id="textext-87cc7d99-11"
             overflow="visible"
             style="overflow:visible">
            <path
               id="path11710"
               d="m 3.296875,2.390625 c 0,-0.03125 0,-0.046875 -0.171875,-0.21875 C 1.890625,0.921875 1.5625,-0.96875 1.5625,-2.5 c 0,-1.734375 0.375,-3.46875 1.609375,-4.703125 0.125,-0.125 0.125,-0.140625 0.125,-0.171875 0,-0.078125 -0.03125,-0.109375 -0.09375,-0.109375 -0.109375,0 -1,0.6875 -1.59375,1.953125 -0.5,1.09375 -0.625,2.203125 -0.625,3.03125 0,0.78125 0.109375,1.984375 0.65625,3.125 C 2.25,1.84375 3.09375,2.5 3.203125,2.5 c 0.0625,0 0.09375,-0.03125 0.09375,-0.109375 z m 0,0"
               style="stroke:none"
               inkscape:connector-curvature="0" />
          </symbol>
          <symbol
             id="textext-87cc7d99-12"
             overflow="visible"
             style="overflow:visible">
            <path
               id="path11713"
               d="m 2.875,-2.5 c 0,-0.765625 -0.109375,-1.96875 -0.65625,-3.109375 -0.59375,-1.21875 -1.453125,-1.875 -1.546875,-1.875 -0.0625,0 -0.109375,0.046875 -0.109375,0.109375 0,0.03125 0,0.046875 0.1875,0.234375 0.984375,0.984375 1.546875,2.5625 1.546875,4.640625 0,1.71875 -0.359375,3.46875 -1.59375,4.71875 C 0.5625,2.34375 0.5625,2.359375 0.5625,2.390625 0.5625,2.453125 0.609375,2.5 0.671875,2.5 0.765625,2.5 1.671875,1.8125 2.25,0.546875 2.765625,-0.546875 2.875,-1.65625 2.875,-2.5 z m 0,0"
               style="stroke:none"
               inkscape:connector-curvature="0" />
          </symbol>
        </g>
      </defs>
      <g
         id="textext-87cc7d99-13">
        <g
           id="g11716"
           style="fill:#000000;fill-opacity:1">
          <use
             id="use11718"
             y="130.842"
             x="224.62801"
             xlink:href="#textext-87cc7d99-1"
             width="666.37817"
             height="410.53571" />
          <use
             id="use11720"
             y="130.842"
             x="231.17291"
             xlink:href="#textext-87cc7d99-2"
             width="666.37817"
             height="410.53571" />
        </g>
        <path
           id="path11722"
           transform="matrix(1,0,0,-1,224.628,132.274)"
           d="m 9.0625e-4,5.625e-4 10.51562475,0"
           style="fill:none;stroke:#000000;stroke-width:0.398;stroke-linecap:butt;stroke-linejoin:miter;stroke-miterlimit:10;stroke-opacity:1"
           inkscape:connector-curvature="0" />
        <g
           id="g11724"
           style="fill:#000000;fill-opacity:1">
          <use
             id="use11726"
             y="138.2"
             x="227.89999"
             xlink:href="#textext-87cc7d99-2"
             width="666.37817"
             height="410.53571" />
        </g>
        <g
           id="g11728"
           style="fill:#000000;fill-opacity:1">
          <use
             id="use11730"
             y="134.765"
             x="239.10699"
             xlink:href="#textext-87cc7d99-10"
             width="666.37817"
             height="410.53571" />
        </g>
        <g
           id="g11732"
           style="fill:#000000;fill-opacity:1">
          <use
             id="use11734"
             y="134.765"
             x="249.62552"
             xlink:href="#textext-87cc7d99-11"
             width="666.37817"
             height="410.53571" />
        </g>
        <g
           id="g11736"
           style="fill:#000000;fill-opacity:1">
          <use
             id="use11738"
             y="130.842"
             x="254.69299"
             xlink:href="#textext-87cc7d99-1"
             width="666.37817"
             height="410.53571" />
          <use
             id="use11740"
             y="130.842"
             x="261.23792"
             xlink:href="#textext-87cc7d99-3"
             width="666.37817"
             height="410.53571" />
        </g>
        <path
           id="path11742"
           transform="matrix(1,0,0,-1,254.693,132.274)"
           d="m -0.00159375,5.625e-4 11.47265675,0"
           style="fill:none;stroke:#000000;stroke-width:0.398;stroke-linecap:butt;stroke-linejoin:miter;stroke-miterlimit:10;stroke-opacity:1"
           inkscape:connector-curvature="0" />
        <g
           id="g11744"
           style="fill:#000000;fill-opacity:1">
          <use
             id="use11746"
             y="138.2"
             x="257.965"
             xlink:href="#textext-87cc7d99-3"
             width="666.37817"
             height="410.53571" />
        </g>
        <g
           id="g11748"
           style="fill:#000000;fill-opacity:1">
          <use
             id="use11750"
             y="134.765"
             x="267.35901"
             xlink:href="#textext-87cc7d99-12"
             width="666.37817"
             height="410.53571" />
        </g>
        <g
           id="g11752"
           style="fill:#000000;fill-opacity:1">
          <use
             id="use11754"
             y="136.259"
             x="271.233"
             xlink:href="#textext-87cc7d99-4"
             width="666.37817"
             height="410.53571" />
          <use
             id="use11756"
             y="136.259"
             x="275.63345"
             xlink:href="#textext-87cc7d99-5"
             width="666.37817"
             height="410.53571" />
          <use
             id="use11758"
             y="136.259"
             x="277.88879"
             xlink:href="#textext-87cc7d99-2"
             width="666.37817"
             height="410.53571" />
          <use
             id="use11760"
             y="136.259"
             x="281.86038"
             xlink:href="#textext-87cc7d99-6"
             width="666.37817"
             height="410.53571" />
          <use
             id="use11762"
             y="136.259"
             x="286.26083"
             xlink:href="#textext-87cc7d99-7"
             width="666.37817"
             height="410.53571" />
          <use
             id="use11764"
             y="136.259"
             x="289.80283"
             xlink:href="#textext-87cc7d99-8"
             width="666.37817"
             height="410.53571" />
        </g>
      </g>
    </g>
    <rect
       style="fill:none;stroke:#000000;stroke-width:1;stroke-linecap:round;stroke-miterlimit:4;stroke-opacity:1;stroke-dasharray:none;stroke-dashoffset:0"
       id="rect11912"
       width="50"
       height="120"
       x="377.46344"
       y="1027.1948" />
    <path
       style="fill:none;stroke:#000000;stroke-width:1px;stroke-linecap:butt;stroke-linejoin:miter;stroke-opacity:1;marker-start:url(#Arrow2Lstart);marker-end:none"
       d="m 401.23394,1025.2276 0,-30.00003"
       id="path11914"
       inkscape:connector-curvature="0"
       sodipodi:nodetypes="cc" />
    <path
       style="fill:none;stroke:#000000;stroke-width:1px;stroke-linecap:butt;stroke-linejoin:miter;stroke-opacity:1"
       d="m 410.25033,1016.0472 40,0 0,150 -40,0"
       id="path11916"
       inkscape:connector-curvature="0"
       sodipodi:nodetypes="cccc" />
    <path
       style="fill:none;stroke:#000000;stroke-width:1px;stroke-linecap:butt;stroke-linejoin:miter;stroke-opacity:1;marker-start:url(#Arrow2Lstart)"
       d="m 402.70935,1147.6866 0,30"
       id="path11918"
       inkscape:connector-curvature="0" />
    <path
       style="fill:none;stroke:#000000;stroke-width:1px;stroke-linecap:butt;stroke-linejoin:miter;stroke-opacity:1;marker-mid:none;marker-end:url(#Arrow2Lend)"
       d="m 356.15197,1091.9489 -90,0"
       id="path11920"
       inkscape:connector-curvature="0" />
    <text
       xml:space="preserve"
       style="font-size:16px;font-style:normal;font-variant:normal;font-weight:500;font-stretch:normal;text-align:start;line-height:100%;letter-spacing:0px;word-spacing:0px;writing-mode:lr-tb;text-anchor:start;fill:#000000;fill-opacity:1;stroke:none;font-family:Rekha;-inkscape-font-specification:Rekha Medium"
       x="466.97165"
       y="1096.0472"
       id="text13224"
       sodipodi:linespacing="100%"><tspan
         sodipodi:role="line"
         id="tspan13226"
         x="466.97165"
         y="1096.0472">dilatometer</tspan></text>
  </g>
</svg>
