<?xml version="1.0" encoding="UTF-8" standalone="no"?>
<!-- Created with Inkscape (http://www.inkscape.org/) -->

<svg
   xmlns:ns0="http://www.iki.fi/pav/software/textext/"
   xmlns:dc="http://purl.org/dc/elements/1.1/"
   xmlns:cc="http://creativecommons.org/ns#"
   xmlns:rdf="http://www.w3.org/1999/02/22-rdf-syntax-ns#"
   xmlns:svg="http://www.w3.org/2000/svg"
   xmlns="http://www.w3.org/2000/svg"
   xmlns:xlink="http://www.w3.org/1999/xlink"
   xmlns:sodipodi="http://sodipodi.sourceforge.net/DTD/sodipodi-0.dtd"
   xmlns:inkscape="http://www.inkscape.org/namespaces/inkscape"
   width="304.35199"
   height="202.99121"
   id="svg2"
   version="1.1"
   inkscape:version="0.48.4 r9939"
   sodipodi:docname="New document 42">
  <sodipodi:namedview
     id="base"
     pagecolor="#ffffff"
     bordercolor="#666666"
     borderopacity="1.0"
     inkscape:pageopacity="0.0"
     inkscape:pageshadow="2"
     inkscape:zoom="1.4"
     inkscape:cx="149.32528"
     inkscape:cy="100.71576"
     inkscape:document-units="px"
     inkscape:current-layer="layer1"
     showgrid="true"
     units="in"
     width="11cm"
     inkscape:window-width="1274"
     inkscape:window-height="586"
     inkscape:window-x="0"
     inkscape:window-y="378"
     inkscape:window-maximized="0"
     fit-margin-top="0"
     fit-margin-left="0"
     fit-margin-right="0"
     fit-margin-bottom="0">
    <inkscape:grid
       spacingy="2px"
       spacingx="2px"
       snapvisiblegridlinesonly="true"
       enabled="true"
       visible="true"
       empspacing="5"
       id="grid2984"
       type="xygrid"
       originx="-136.74398px"
       originy="-117.50879px" />
  </sodipodi:namedview>
  <defs
     id="defs4">
    <marker
       inkscape:stockid="Arrow2Mend"
       orient="auto"
       refY="0"
       refX="0"
       id="Arrow2Mend"
       style="overflow:visible">
      <path
         inkscape:connector-curvature="0"
         id="path3966"
         style="fill-rule:evenodd;stroke-width:0.625;stroke-linejoin:round"
         d="M 8.7185878,4.0337352 -2.2072895,0.01601326 8.7185884,-4.0017078 c -1.7454984,2.3720609 -1.7354408,5.6174519 -6e-7,8.035443 z"
         transform="scale(-0.6,-0.6)" />
    </marker>
  </defs>
  <metadata
     id="metadata7">
    <rdf:RDF>
      <cc:Work
         rdf:about="">
        <dc:format>image/svg+xml</dc:format>
        <dc:type
           rdf:resource="http://purl.org/dc/dcmitype/StillImage" />
        <dc:title></dc:title>
      </cc:Work>
    </rdf:RDF>
  </metadata>
  <g
     inkscape:label="Layer 1"
     inkscape:groupmode="layer"
     id="layer1"
     transform="translate(-73.715621,-755.54724)">
    <path
       transform="translate(-63.028358,665.51153)"
       inkscape:connector-curvature="0"
       id="path9750"
       d="m 190,90.535706 0,180.000004 220,0"
       style="fill:none;stroke:#000000;stroke-width:1px;stroke-linecap:butt;stroke-linejoin:miter;stroke-opacity:1" />
    <path
       sodipodi:nodetypes="cc"
       transform="translate(-63.028358,665.51153)"
       inkscape:connector-curvature="0"
       id="path9752"
       d="m 190,100.53571 c 163.63673,6.14583 171.11012,104.07785 180,170"
       style="fill:none;stroke:#000000;stroke-width:1px;stroke-linecap:butt;stroke-linejoin:miter;stroke-opacity:1" />
    <text
       sodipodi:linespacing="100%"
       id="text9754"
       y="866.04724"
       x="156.97165"
       style="font-size:16px;font-style:normal;font-variant:normal;font-weight:500;font-stretch:normal;text-align:start;line-height:100%;letter-spacing:0px;word-spacing:0px;writing-mode:lr-tb;text-anchor:start;fill:#000000;fill-opacity:1;stroke:none;font-family:Rekha;-inkscape-font-specification:Rekha Medium"
       xml:space="preserve"><tspan
         y="866.04724"
         x="156.97165"
         id="tspan9756"
         sodipodi:role="line">superconducting</tspan><tspan
         id="tspan9758"
         y="882.04724"
         x="156.97165"
         sodipodi:role="line">  -Bcs Theory</tspan></text>
    <text
       transform="translate(-63.028358,665.51153)"
       sodipodi:linespacing="100%"
       id="text9760"
       y="221.24998"
       x="397.14285"
       style="font-size:16px;font-style:normal;font-variant:normal;font-weight:500;font-stretch:normal;text-align:start;line-height:100%;letter-spacing:0px;word-spacing:0px;writing-mode:lr-tb;text-anchor:start;fill:#000000;fill-opacity:1;stroke:none;font-family:Rekha;-inkscape-font-specification:Rekha Medium"
       xml:space="preserve"><tspan
         y="221.24998"
         x="397.14285"
         id="tspan9762"
         sodipodi:role="line">normal</tspan><tspan
         id="tspan9764"
         y="237.24998"
         x="397.14285"
         sodipodi:role="line">metal</tspan></text>
    <text
       transform="translate(-63.028358,665.51153)"
       sodipodi:linespacing="100%"
       id="text9766"
       y="105.53571"
       x="166.42857"
       style="font-size:16px;font-style:normal;font-variant:normal;font-weight:500;font-stretch:normal;text-align:start;line-height:100%;letter-spacing:0px;word-spacing:0px;writing-mode:lr-tb;text-anchor:start;fill:#000000;fill-opacity:1;stroke:none;font-family:Rekha;-inkscape-font-specification:Rekha Medium"
       xml:space="preserve"><tspan
         y="105.53571"
         x="166.42857"
         id="tspan9768"
         sodipodi:role="line">1.0</tspan></text>
    <g
       ns0:text="$\\Delta \\over \\Delta_o$"
       ns0:preamble=""
       transform="matrix(2.2404229,0,0,2.2404229,-429.10228,550.29251)"
       id="g9922">
      <defs
         id="defs9924">
        <g
           id="g9926">
          <symbol
             style="overflow:visible"
             overflow="visible"
             id="textext-c52afb90-0">
            <path
               inkscape:connector-curvature="0"
               style="stroke:none"
               d=""
               id="path9929" />
          </symbol>
          <symbol
             style="overflow:visible"
             overflow="visible"
             id="textext-c52afb90-1">
            <path
               inkscape:connector-curvature="0"
               style="stroke:none"
               d="m 3.484375,-4.8125 c -0.0625,-0.125 -0.078125,-0.15625 -0.21875,-0.15625 -0.09375,0 -0.15625,0.015625 -0.21875,0.125 L 0.46875,-0.171875 C 0.421875,-0.09375 0.421875,-0.078125 0.421875,-0.0625 0.421875,0 0.484375,0 0.59375,0 L 5.9375,0 c 0.109375,0 0.171875,0 0.171875,-0.0625 0,-0.015625 0,-0.03125 -0.046875,-0.109375 z m -0.453125,0.53125 2.046875,3.703125 -4.09375,0 z m 0,0"
               id="path9932" />
          </symbol>
          <symbol
             style="overflow:visible"
             overflow="visible"
             id="textext-c52afb90-2">
            <path
               inkscape:connector-curvature="0"
               style="stroke:none"
               d=""
               id="path9935" />
          </symbol>
          <symbol
             style="overflow:visible"
             overflow="visible"
             id="textext-c52afb90-3">
            <path
               inkscape:connector-curvature="0"
               style="stroke:none"
               d="m 3.15625,-1.296875 c 0,-0.5 -0.421875,-0.90625 -1.046875,-0.90625 -0.84375,0 -1.578125,0.671875 -1.578125,1.34375 0,0.515625 0.40625,0.921875 1.046875,0.921875 0.828125,0 1.578125,-0.6875 1.578125,-1.359375 z m -1.578125,1.1875 c -0.234375,0 -0.59375,-0.125 -0.59375,-0.59375 0,-0.140625 0.0625,-0.625 0.34375,-0.96875 0.1875,-0.21875 0.484375,-0.359375 0.765625,-0.359375 0.28125,0 0.59375,0.140625 0.59375,0.578125 0,0.140625 -0.0625,0.609375 -0.296875,0.921875 -0.234375,0.296875 -0.5625,0.421875 -0.8125,0.421875 z m 0,0"
               id="path9938" />
          </symbol>
        </g>
      </defs>
      <g
         id="textext-c52afb90-4">
        <g
           style="fill:#000000;fill-opacity:1"
           id="g9941">
          <use
             height="410.53571"
             width="666.37817"
             xlink:href="#textext-c52afb90-1"
             x="226.627"
             y="130.842"
             id="use9943" />
        </g>
        <path
           inkscape:connector-curvature="0"
           style="fill:none;stroke:#000000;stroke-width:0.398;stroke-linecap:butt;stroke-linejoin:miter;stroke-miterlimit:10;stroke-opacity:1"
           d="m 9.0625e-4,5.625e-4 10.54296875,0"
           transform="matrix(1,0,0,-1,224.628,132.274)"
           id="path9945" />
        <g
           style="fill:#000000;fill-opacity:1"
           id="g9947">
          <use
             height="410.53571"
             width="666.37817"
             xlink:href="#textext-c52afb90-1"
             x="224.62801"
             y="138.2"
             id="use9949" />
        </g>
        <g
           style="fill:#000000;fill-opacity:1"
           id="g9951">
          <use
             height="410.53571"
             width="666.37817"
             xlink:href="#textext-c52afb90-3"
             x="231.173"
             y="139.196"
             id="use9953" />
        </g>
      </g>
    </g>
    <g
       id="g10099"
       transform="matrix(1.5965597,0,0,1.5965597,-48.582677,739.38668)"
       ns0:preamble=""
       ns0:text="$\\mathrm{T/T_c}$">
      <defs
         id="defs10101">
        <g
           id="g10103">
          <symbol
             id="textext-8dd9461e-0"
             overflow="visible"
             style="overflow:visible">
            <path
               id="path10106"
               d=""
               style="stroke:none"
               inkscape:connector-curvature="0" />
          </symbol>
          <symbol
             id="textext-8dd9461e-1"
             overflow="visible"
             style="overflow:visible">
            <path
               id="path10109"
               d="m 6.640625,-6.75 -6.09375,0 -0.1875,2.25 0.25,0 C 0.75,-6.109375 0.890625,-6.4375 2.40625,-6.4375 c 0.171875,0 0.4375,0 0.53125,0.015625 0.21875,0.046875 0.21875,0.15625 0.21875,0.375 l 0,5.265625 c 0,0.328125 0,0.46875 -1.046875,0.46875 l -0.40625,0 0,0.3125 C 2.109375,-0.03125 3.125,-0.03125 3.59375,-0.03125 c 0.453125,0 1.484375,0 1.890625,0.03125 l 0,-0.3125 -0.40625,0 c -1.046875,0 -1.046875,-0.140625 -1.046875,-0.46875 l 0,-5.265625 c 0,-0.1875 0,-0.328125 0.1875,-0.375 0.109375,-0.015625 0.375,-0.015625 0.5625,-0.015625 1.515625,0 1.65625,0.328125 1.796875,1.9375 l 0.25,0 z m 0,0"
               style="stroke:none"
               inkscape:connector-curvature="0" />
          </symbol>
          <symbol
             id="textext-8dd9461e-2"
             overflow="visible"
             style="overflow:visible">
            <path
               id="path10112"
               d=""
               style="stroke:none"
               inkscape:connector-curvature="0" />
          </symbol>
          <symbol
             id="textext-8dd9461e-3"
             overflow="visible"
             style="overflow:visible">
            <path
               id="path10115"
               d="m 4.375,-7.09375 c 0.046875,-0.140625 0.046875,-0.171875 0.046875,-0.1875 0,-0.109375 -0.078125,-0.203125 -0.1875,-0.203125 -0.078125,0 -0.140625,0.03125 -0.171875,0.09375 l -3.46875,9.5 C 0.546875,2.25 0.546875,2.28125 0.546875,2.296875 0.546875,2.40625 0.640625,2.5 0.75,2.5 0.875,2.5 0.90625,2.421875 0.96875,2.25 z m 0,0"
               style="stroke:none"
               inkscape:connector-curvature="0" />
          </symbol>
          <symbol
             id="textext-8dd9461e-4"
             overflow="visible"
             style="overflow:visible">
            <path
               id="path10118"
               d=""
               style="stroke:none"
               inkscape:connector-curvature="0" />
          </symbol>
          <symbol
             id="textext-8dd9461e-5"
             overflow="visible"
             style="overflow:visible">
            <path
               id="path10121"
               d="m 2.703125,-2.78125 c -0.125,0.0625 -0.1875,0.171875 -0.1875,0.3125 0,0.1875 0.125,0.328125 0.328125,0.328125 0.1875,0 0.328125,-0.125 0.328125,-0.34375 0,-0.625 -0.96875,-0.625 -1.15625,-0.625 -1.046875,0 -1.6875,0.796875 -1.6875,1.609375 0,0.875 0.734375,1.5625 1.65625,1.5625 1.03125,0 1.28125,-0.8125 1.28125,-0.90625 0,-0.078125 -0.09375,-0.078125 -0.125,-0.078125 -0.09375,0 -0.09375,0.015625 -0.125,0.125 C 2.859375,-0.375 2.484375,-0.15625 2.0625,-0.15625 c -0.484375,0 -1.109375,-0.359375 -1.109375,-1.359375 0,-0.875 0.4375,-1.375 1.078125,-1.375 0.09375,0 0.421875,0 0.671875,0.109375 z m 0,0"
               style="stroke:none"
               inkscape:connector-curvature="0" />
          </symbol>
        </g>
      </defs>
      <g
         id="textext-8dd9461e-6">
        <g
           id="g10124"
           style="fill:#000000;fill-opacity:1">
          <use
             id="use10126"
             y="134.765"
             x="223.43201"
             xlink:href="#textext-8dd9461e-1"
             width="666.37817"
             height="410.53571" />
        </g>
        <g
           id="g10128"
           style="fill:#000000;fill-opacity:1">
          <use
             id="use10130"
             y="134.765"
             x="230.627"
             xlink:href="#textext-8dd9461e-3"
             width="666.37817"
             height="410.53571" />
        </g>
        <g
           id="g10132"
           style="fill:#000000;fill-opacity:1">
          <use
             id="use10134"
             y="134.765"
             x="235.60899"
             xlink:href="#textext-8dd9461e-1"
             width="666.37817"
             height="410.53571" />
        </g>
        <g
           id="g10136"
           style="fill:#000000;fill-opacity:1">
          <use
             id="use10138"
             y="136.259"
             x="242.804"
             xlink:href="#textext-8dd9461e-5"
             width="666.37817"
             height="410.53571" />
        </g>
      </g>
    </g>
  </g>
</svg>
