<?xml version="1.0" encoding="UTF-8" standalone="no"?>
<!-- Created with Inkscape (http://www.inkscape.org/) -->

<svg
   xmlns:ns0="http://www.iki.fi/pav/software/textext/"
   xmlns:dc="http://purl.org/dc/elements/1.1/"
   xmlns:cc="http://creativecommons.org/ns#"
   xmlns:rdf="http://www.w3.org/1999/02/22-rdf-syntax-ns#"
   xmlns:svg="http://www.w3.org/2000/svg"
   xmlns="http://www.w3.org/2000/svg"
   xmlns:sodipodi="http://sodipodi.sourceforge.net/DTD/sodipodi-0.dtd"
   xmlns:inkscape="http://www.inkscape.org/namespaces/inkscape"
   width="147.37212"
   height="192.63928"
   id="svg2"
   version="1.1"
   inkscape:version="0.48.4 r9939"
   sodipodi:docname="New document 79">
  <sodipodi:namedview
     id="base"
     pagecolor="#ffffff"
     bordercolor="#666666"
     borderopacity="1.0"
     inkscape:pageopacity="0.0"
     inkscape:pageshadow="2"
     inkscape:zoom="2.27"
     inkscape:cx="37.385587"
     inkscape:cy="93.720492"
     inkscape:document-units="px"
     inkscape:current-layer="layer1"
     showgrid="true"
     units="in"
     width="11cm"
     inkscape:window-width="1274"
     inkscape:window-height="606"
     inkscape:window-x="0"
     inkscape:window-y="358"
     inkscape:window-maximized="0"
     fit-margin-top="0"
     fit-margin-left="0"
     fit-margin-right="0"
     fit-margin-bottom="0"
     inkscape:snap-grids="false">
    <inkscape:grid
       type="xygrid"
       id="grid2984"
       empspacing="5"
       visible="true"
       enabled="true"
       snapvisiblegridlinesonly="true"
       spacingx="2px"
       spacingy="2px"
       originx="-248.68367px"
       originy="-157.70446px" />
  </sodipodi:namedview>
  <defs
     id="defs4">
    <marker
       style="overflow:visible"
       id="Arrow2Mend"
       refX="0"
       refY="0"
       orient="auto"
       inkscape:stockid="Arrow2Mend">
      <path
         transform="scale(-0.6,-0.6)"
         d="M 8.7185878,4.0337352 -2.2072895,0.01601326 8.7185884,-4.0017078 c -1.7454984,2.3720609 -1.7354408,5.6174519 -6e-7,8.035443 z"
         style="fill-rule:evenodd;stroke-width:0.625;stroke-linejoin:round"
         id="path3966"
         inkscape:connector-curvature="0" />
    </marker>
  </defs>
  <metadata
     id="metadata7">
    <rdf:RDF>
      <cc:Work
         rdf:about="">
        <dc:format>image/svg+xml</dc:format>
        <dc:type
           rdf:resource="http://purl.org/dc/dcmitype/StillImage" />
        <dc:title></dc:title>
      </cc:Work>
    </rdf:RDF>
  </metadata>
  <g
     transform="translate(-185.65532,-725.70349)"
     id="layer1"
     inkscape:groupmode="layer"
     inkscape:label="Layer 1">
    <path
       style="fill:none;stroke:#000000;stroke-width:1px;stroke-linecap:butt;stroke-linejoin:miter;stroke-opacity:1"
       d="m 290,80.535706 0,140.000004 90,0"
       id="path15702"
       inkscape:connector-curvature="0"
       transform="translate(-63.028358,665.51153)"
       sodipodi:nodetypes="ccc" />
    <path
       style="fill:none;stroke:#000000;stroke-width:1px;stroke-linecap:butt;stroke-linejoin:miter;stroke-opacity:1"
       d="m 250,100.53571 c 0,0 -10,120 40,120 50,0 40,-120 40,-120"
       id="path15704"
       inkscape:connector-curvature="0"
       transform="translate(-63.028358,665.51153)"
       sodipodi:nodetypes="csc" />
    <path
       style="fill:none;stroke:#000000;stroke-width:1px;stroke-linecap:butt;stroke-linejoin:miter;stroke-opacity:1"
       d="m 280,200.53571 20,0"
       id="path15706"
       inkscape:connector-curvature="0"
       transform="translate(-63.028358,665.51153)" />
    <path
       style="fill:none;stroke:#000000;stroke-width:1px;stroke-linecap:butt;stroke-linejoin:miter;stroke-opacity:1"
       d="m 216.97164,860.33295 20,0"
       id="path15708"
       inkscape:connector-curvature="0" />
    <path
       style="fill:none;stroke:#000000;stroke-width:1px;stroke-linecap:butt;stroke-linejoin:miter;stroke-opacity:1"
       d="m 216.97164,846.04724 20,0"
       id="path15710"
       inkscape:connector-curvature="0" />
    <path
       style="fill:none;stroke:#000000;stroke-width:1px;stroke-linecap:butt;stroke-linejoin:miter;stroke-opacity:1"
       d="m 216.97165,840.49973 20,0"
       id="path15712"
       inkscape:connector-curvature="0" />
    <text
       xml:space="preserve"
       style="font-size:16px;font-style:normal;font-variant:normal;font-weight:500;font-stretch:normal;text-align:start;line-height:100%;letter-spacing:0px;word-spacing:0px;writing-mode:lr-tb;text-anchor:start;fill:#000000;fill-opacity:1;stroke:none;font-family:Rekha;-inkscape-font-specification:Rekha Medium"
       x="221.75766"
       y="736.04724"
       id="text15714"
       sodipodi:linespacing="100%"><tspan
         sodipodi:role="line"
         id="tspan15716"
         x="221.75766"
         y="736.04724">E</tspan></text>
    <g
       style="font-style:normal;font-variant:normal;font-weight:normal;font-stretch:normal;letter-spacing:normal;word-spacing:normal;text-anchor:start;fill:none;stroke:#000000;stroke-linecap:butt;stroke-linejoin:miter;stroke-miterlimit:10.43299961;stroke-opacity:1;stroke-dasharray:none;stroke-dashoffset:0"
       ns0:preamble=""
       ns0:text="$\\mathrm{E = {1 \\over 2} k x^2}$"
       word-spacing="normal"
       letter-spacing="normal"
       font-size-adjust="none"
       font-stretch="normal"
       font-weight="normal"
       font-variant="normal"
       font-style="normal"
       stroke-miterlimit="10.433"
       xml:space="preserve"
       transform="matrix(1.7164439,0,0,-1.7164439,-160.31149,2040.5538)"
       id="content"><path
         id="path15785"
         d="m 224.79,658.01 -0.01,-0.03 0,-0.03 0,-0.03 0,-0.03 0,-0.03 0,-0.03 -0.01,-0.02 0,-0.02 -0.01,-0.03 0,-0.02 -0.01,-0.02 -0.01,-0.02 -0.01,-0.01 -0.02,-0.02 -0.01,-0.01 -0.02,-0.02 -0.02,-0.01 -0.02,-0.01 -0.02,-0.01 -0.01,0 -0.01,-0.01 -0.02,0 -0.01,-0.01 -0.02,0 -0.01,-0.01 -0.02,0 -0.02,0 -0.02,-0.01 -0.01,0 -0.03,0 -0.02,-0.01 -0.02,0 -0.02,0 -0.02,0 -0.03,-0.01 -0.02,0 -0.03,0 -0.03,0 -0.03,0 -0.02,0 -0.03,0 -0.04,-0.01 -0.03,0 -0.03,0 -0.04,0 -0.03,0 h -0.24 v -0.31 h 5.74 l 0.42,2.57 h -0.25 c -0.25,-1.53 -0.48,-2.26 -2.19,-2.26 h -1.32 c -0.47,0 -0.49,0.07 -0.49,0.4 v 2.65 h 0.9 c 0.96,0 1.07,-0.31 1.07,-1.16 h 0.25 v 2.63 h -0.25 c 0,-0.85 -0.11,-1.16 -1.07,-1.16 h -0.9 v 2.38 c 0,0.33 0.02,0.4 0.49,0.4 h 1.28 c 1.52,0 1.79,-0.54 1.95,-1.92 h 0.25 l -0.28,2.23 h -5.6 v -0.31 H 224 c 0.76,0 0.79,-0.11 0.79,-0.46 z"
         inkscape:connector-curvature="0"
         style="fill:#000000;stroke-width:0" /><path
         id="path15787"
         d="m 239.82,660.48 0.03,0 0.02,0 0.03,0 0.02,0.01 0.01,0 0.02,0 0.01,0 0.02,0 0.01,0 0.01,0.01 0.02,0 0.01,0 0.01,0.01 0.01,0 0.02,0.01 0.01,0 0.01,0.01 0.01,0.01 0.01,0.01 0.01,0.01 0,0.01 0.01,0 0,0.01 0,0 0.01,0.01 0,0.01 0,0 0.01,0.01 0,0.01 0,0 0,0.01 0,0.01 0,0.01 0,0.01 0.01,0 0,0.01 0,0.01 c 0,0.2 -0.19,0.2 -0.33,0.2 h -5.96 c -0.14,0 -0.33,0 -0.33,-0.2 0,-0.2 0.19,-0.2 0.34,-0.2 z"
         inkscape:connector-curvature="0"
         style="fill:#000000;stroke-width:0" /><path
         id="path15789"
         d="m 239.83,658.56 0.02,0 0.03,0 0.03,0 0.01,0 0.02,0 0.01,0 0.02,0 0.01,0 0.01,0.01 0.02,0 0.01,0 0.01,0.01 0.01,0 0.02,0.01 0.01,0 0.01,0.01 0.01,0 0.01,0.01 0.01,0.01 0.01,0.01 0,0 0,0.01 0.01,0.01 0,0 0,0.01 0.01,0 0,0.01 0,0.01 0.01,0 0,0.01 0,0.01 0,0 0,0.01 0,0.01 0,0.01 0.01,0.01 0,0.01 0,0.01 c 0,0.19 -0.19,0.19 -0.34,0.19 h -5.94 c -0.15,0 -0.34,0 -0.34,-0.19 0,-0.2 0.19,-0.2 0.33,-0.2 z"
         inkscape:connector-curvature="0"
         style="fill:#000000;stroke-width:0" /><path
         id="path15791"
         d="m 247.02,665.58 0,0.01 0,0.01 0,0.01 0,0 0,0.01 0,0.01 0,0.01 0,0 0,0.01 0,0.01 0,0 0,0.01 0,0 0,0.01 0,0.01 0,0 0,0.01 0,0 -0.01,0.01 0,0.01 0,0 0,0.01 -0.01,0.01 0,0 -0.01,0.01 0,0 -0.01,0.01 -0.01,0 0,0 -0.01,0.01 -0.01,0 -0.01,0 0,0 -0.01,0 -0.01,0 0,0 -0.01,0 0,0 -0.01,0 -0.01,0 0,0 -0.01,0 -0.01,0 0,0 -0.01,0 -0.01,0 -0.01,0 -0.01,0 -0.01,0.01 0,0 c -0.45,-0.44 -1.08,-0.45 -1.37,-0.45 v -0.25 c 0.17,0 0.63,0 1.01,0.2 v -3.55 c 0,-0.23 0,-0.32 -0.7,-0.32 h -0.26 v -0.25 c 0.12,0 0.98,0.03 1.24,0.03 0.21,0 1.09,-0.03 1.25,-0.03 v 0.25 h -0.27 c -0.7,0 -0.7,0.09 -0.7,0.32 z"
         inkscape:connector-curvature="0"
         style="fill:#000000;stroke-width:0" /><line
         id="line15793"
         y2="659.72998"
         x2="248.66"
         y1="659.72998"
         x1="244.69"
         style="stroke-width:0.398" /><path
         id="path15795"
         d="m 248.21,655.07 h -0.24 c -0.02,-0.16 -0.09,-0.57 -0.18,-0.64 -0.06,-0.04 -0.59,-0.04 -0.69,-0.04 h -1.28 c 0.73,0.65 0.97,0.84 1.39,1.17 0.52,0.41 1,0.84 1,1.5 0,0.84 -0.74,1.36 -1.63,1.36 -0.87,0 -1.45,-0.61 -1.45,-1.25 0,-0.35 0.3,-0.39 0.37,-0.39 0.17,0 0.37,0.12 0.37,0.37 0,0.13 -0.05,0.37 -0.41,0.37 0.21,0.49 0.69,0.65 1.01,0.65 0.7,0 1.06,-0.55 1.06,-1.11 0,-0.6 -0.43,-1.08 -0.65,-1.33 l -1.68,-1.66 c -0.07,-0.06 -0.07,-0.08 -0.07,-0.27 H 248 z"
         inkscape:connector-curvature="0"
         style="fill:#000000;stroke-width:0" /><path
         id="path15797"
         d="m 250.91,657.99 0,-0.02 0,-0.02 0,-0.04 0,-0.03 0,-0.04 -0.01,-0.03 0,-0.03 -0.01,-0.02 0,-0.03 -0.01,-0.02 -0.01,-0.02 -0.01,-0.02 -0.02,-0.02 -0.01,-0.01 -0.02,-0.02 -0.02,-0.01 -0.02,-0.01 -0.02,-0.01 -0.02,-0.01 -0.03,-0.01 -0.02,0 -0.04,-0.01 -0.03,0 -0.03,-0.01 -0.04,0 -0.02,0 -0.02,0 -0.02,0 -0.02,0 -0.03,0 -0.02,-0.01 -0.02,0 -0.03,0 -0.02,0 -0.03,0 -0.03,0 -0.02,0 -0.03,0 -0.03,0 -0.03,0 -0.03,0 v -0.31 c 0.32,0.01 0.79,0.04 1.08,0.04 0.3,0 0.7,-0.01 1.1,-0.04 v 0.31 c -0.67,0 -0.78,0 -0.78,0.45 v 1.02 l 0.64,0.55 c 0.76,-1.05 1.18,-1.61 1.18,-1.79 0,-0.19 -0.17,-0.23 -0.36,-0.23 v -0.31 c 0.28,0.01 0.87,0.04 1.08,0.04 0.29,0 0.57,-0.01 0.86,-0.04 v 0.31 c -0.37,0 -0.59,0 -0.96,0.53 l -1.27,1.78 c -0.01,0.02 -0.06,0.08 -0.06,0.11 0,0.04 0.71,0.63 0.81,0.71 0.63,0.51 1.04,0.53 1.25,0.54 v 0.31 c -0.28,-0.03 -0.42,-0.03 -0.69,-0.03 -0.36,0 -0.98,0.02 -1.12,0.03 v -0.31 c 0.19,-0.01 0.29,-0.12 0.29,-0.25 0,-0.2 -0.14,-0.32 -0.22,-0.39 l -1.4,-1.21 v 4.77 l -1.43,-0.11 v -0.31 c 0.69,0 0.77,-0.07 0.77,-0.55 z"
         inkscape:connector-curvature="0"
         style="fill:#000000;stroke-width:0" /><path
         id="path15799"
         d="m 257.97,659.57 0.06,0.07 0.06,0.08 0.06,0.07 0.06,0.08 0.12,0.15 0.06,0.08 0.06,0.08 0.06,0.07 0.06,0.07 0.06,0.07 0.06,0.07 0.02,0.03 0.03,0.03 0.03,0.04 0.02,0.03 0.03,0.02 0.02,0.03 0.02,0.03 0.03,0.02 c 0.31,0.36 0.71,0.51 1.18,0.52 v 0.31 c -0.26,-0.02 -0.56,-0.03 -0.81,-0.03 -0.3,0 -0.83,0.02 -0.96,0.03 v -0.31 c 0.21,-0.02 0.29,-0.15 0.29,-0.31 0,-0.16 -0.1,-0.29 -0.15,-0.35 l -0.62,-0.77 -0.77,1 c -0.09,0.1 -0.09,0.12 -0.09,0.18 0,0.15 0.15,0.24 0.34,0.25 v 0.31 c -0.25,-0.01 -0.91,-0.03 -1.07,-0.03 -0.21,0 -0.68,0.01 -0.94,0.03 v -0.31 c 0.69,0 0.7,-0.01 1.17,-0.61 l 0.98,-1.28 -0.93,-1.18 c -0.48,-0.58 -1.06,-0.6 -1.27,-0.6 v -0.31 c 0.25,0.03 0.56,0.04 0.82,0.04 0.29,0 0.71,-0.03 0.95,-0.04 v 0.31 c -0.22,0.03 -0.29,0.16 -0.29,0.31 0,0.22 0.29,0.55 0.89,1.26 l 0.76,-0.99 c 0.08,-0.11 0.21,-0.27 0.21,-0.33 0,-0.09 -0.09,-0.24 -0.36,-0.25 v -0.31 c 0.3,0.01 0.86,0.04 1.08,0.04 0.26,0 0.65,-0.01 0.95,-0.04 v 0.31 c -0.54,0 -0.72,0.02 -0.95,0.31 z"
         inkscape:connector-curvature="0"
         style="fill:#000000;stroke-width:0" /><path
         id="path15801"
         d="m 263.89,662.12 h -0.24 c -0.02,-0.16 -0.09,-0.57 -0.18,-0.64 -0.05,-0.04 -0.59,-0.04 -0.69,-0.04 h -1.28 c 0.73,0.65 0.98,0.84 1.39,1.17 0.52,0.41 1,0.84 1,1.5 0,0.84 -0.74,1.36 -1.63,1.36 -0.86,0 -1.45,-0.61 -1.45,-1.25 0,-0.35 0.3,-0.39 0.37,-0.39 0.17,0 0.37,0.12 0.37,0.37 0,0.13 -0.05,0.37 -0.41,0.37 0.22,0.5 0.69,0.65 1.02,0.65 0.69,0 1.05,-0.54 1.05,-1.11 0,-0.6 -0.43,-1.08 -0.65,-1.33 l -1.68,-1.66 c -0.07,-0.06 -0.07,-0.07 -0.07,-0.27 h 2.87 z"
         inkscape:connector-curvature="0"
         style="fill:#000000;stroke-width:0" /></g>    <text
       xml:space="preserve"
       style="font-size:16px;font-style:normal;font-variant:normal;font-weight:500;font-stretch:normal;text-align:start;line-height:100%;letter-spacing:0px;word-spacing:0px;writing-mode:lr-tb;text-anchor:start;fill:#000000;fill-opacity:1;stroke:none;font-family:Rekha;-inkscape-font-specification:Rekha Medium"
       x="325.54306"
       y="890.33295"
       id="text15827"
       sodipodi:linespacing="100%"><tspan
         sodipodi:role="line"
         id="tspan15829"
         x="325.54306"
         y="890.33295">x</tspan></text>
  </g>
</svg>
