<?xml version="1.0" encoding="UTF-8" standalone="no"?>
<!-- Created with Inkscape (http://www.inkscape.org/) -->

<svg
   xmlns:ns0="http://www.iki.fi/pav/software/textext/"
   xmlns:dc="http://purl.org/dc/elements/1.1/"
   xmlns:cc="http://creativecommons.org/ns#"
   xmlns:rdf="http://www.w3.org/1999/02/22-rdf-syntax-ns#"
   xmlns:svg="http://www.w3.org/2000/svg"
   xmlns="http://www.w3.org/2000/svg"
   xmlns:sodipodi="http://sodipodi.sourceforge.net/DTD/sodipodi-0.dtd"
   xmlns:inkscape="http://www.inkscape.org/namespaces/inkscape"
   width="406.75247"
   height="221.84702"
   id="svg2"
   version="1.1"
   inkscape:version="0.91 r13725"
   sodipodi:docname="figure125edit1.svg">
  <sodipodi:namedview
     id="base"
     pagecolor="#ffffff"
     bordercolor="#666666"
     borderopacity="1.0"
     inkscape:pageopacity="0.0"
     inkscape:pageshadow="2"
     inkscape:zoom="1.5"
     inkscape:cx="151.36223"
     inkscape:cy="157.38244"
     inkscape:document-units="px"
     inkscape:current-layer="layer1"
     showgrid="true"
     units="in"
     width="11cm"
     inkscape:window-width="1536"
     inkscape:window-height="803"
     inkscape:window-x="-8"
     inkscape:window-y="-8"
     inkscape:window-maximized="1"
     fit-margin-top="0"
     fit-margin-left="0"
     fit-margin-right="0"
     fit-margin-bottom="0"
     inkscape:snap-grids="false">
    <inkscape:grid
       originy="-109.48102"
       originx="-144.57554"
       spacingy="2px"
       spacingx="2px"
       snapvisiblegridlinesonly="true"
       enabled="true"
       visible="true"
       empspacing="5"
       id="grid2984"
       type="xygrid" />
  </sodipodi:namedview>
  <defs
     id="defs4">
    <marker
       style="overflow:visible"
       id="Arrow2Lstart"
       refX="0"
       refY="0"
       orient="auto"
       inkscape:stockid="Arrow2Lstart">
      <path
         inkscape:connector-curvature="0"
         transform="matrix(1.1,0,0,1.1,1.1,0)"
         d="M 8.7185878,4.0337352 -2.2072895,0.01601326 8.7185884,-4.0017078 c -1.7454984,2.3720609 -1.7354408,5.6174519 -6e-7,8.035443 z"
         style="fill-rule:evenodd;stroke-width:0.625;stroke-linejoin:round"
         id="path4495" />
    </marker>
    <marker
       style="overflow:visible"
       id="Arrow2Lend"
       refX="0"
       refY="0"
       orient="auto"
       inkscape:stockid="Arrow2Lend">
      <path
         inkscape:connector-curvature="0"
         transform="matrix(-1.1,0,0,-1.1,-1.1,0)"
         d="M 8.7185878,4.0337352 -2.2072895,0.01601326 8.7185884,-4.0017078 c -1.7454984,2.3720609 -1.7354408,5.6174519 -6e-7,8.035443 z"
         style="fill-rule:evenodd;stroke-width:0.625;stroke-linejoin:round"
         id="path4498" />
    </marker>
    <marker
       inkscape:stockid="Arrow2Mend"
       orient="auto"
       refY="0"
       refX="0"
       id="Arrow2Mend"
       style="overflow:visible">
      <path
         inkscape:connector-curvature="0"
         id="path3966"
         style="fill-rule:evenodd;stroke-width:0.625;stroke-linejoin:round"
         d="M 8.7185878,4.0337352 -2.2072895,0.01601326 8.7185884,-4.0017078 c -1.7454984,2.3720609 -1.7354408,5.6174519 -6e-7,8.035443 z"
         transform="scale(-0.6,-0.6)" />
    </marker>
    <marker
       style="overflow:visible"
       id="Arrow2Lend-5"
       refX="0"
       refY="0"
       orient="auto"
       inkscape:stockid="Arrow2Lend">
      <path
         inkscape:connector-curvature="0"
         transform="matrix(-1.1,0,0,-1.1,-1.1,0)"
         d="M 8.7185878,4.0337352 -2.2072895,0.01601326 8.7185884,-4.0017078 c -1.7454984,2.3720609 -1.7354408,5.6174519 -6e-7,8.035443 z"
         style="fill-rule:evenodd;stroke-width:0.625;stroke-linejoin:round"
         id="path4498-1" />
    </marker>
    <marker
       style="overflow:visible"
       id="marker4532"
       refX="0"
       refY="0"
       orient="auto"
       inkscape:stockid="Arrow2Lend">
      <path
         inkscape:connector-curvature="0"
         transform="matrix(-1.1,0,0,-1.1,-1.1,0)"
         d="M 8.7185878,4.0337352 -2.2072895,0.01601326 8.7185884,-4.0017078 c -1.7454984,2.3720609 -1.7354408,5.6174519 -6e-7,8.035443 z"
         style="fill-rule:evenodd;stroke-width:0.625;stroke-linejoin:round"
         id="path4534" />
    </marker>
    <marker
       style="overflow:visible"
       id="Arrow2Lend-5-6"
       refX="0"
       refY="0"
       orient="auto"
       inkscape:stockid="Arrow2Lend">
      <path
         inkscape:connector-curvature="0"
         transform="matrix(-1.1,0,0,-1.1,-1.1,0)"
         d="M 8.7185878,4.0337352 -2.2072895,0.01601326 8.7185884,-4.0017078 c -1.7454984,2.3720609 -1.7354408,5.6174519 -6e-7,8.035443 z"
         style="fill-rule:evenodd;stroke-width:0.625;stroke-linejoin:round"
         id="path4498-1-3" />
    </marker>
    <marker
       style="overflow:visible"
       id="Arrow2Lend-5-2"
       refX="0"
       refY="0"
       orient="auto"
       inkscape:stockid="Arrow2Lend">
      <path
         inkscape:connector-curvature="0"
         transform="matrix(-1.1,0,0,-1.1,-1.1,0)"
         d="M 8.7185878,4.0337352 -2.2072895,0.01601326 8.7185884,-4.0017078 c -1.7454984,2.3720609 -1.7354408,5.6174519 -6e-7,8.035443 z"
         style="fill-rule:evenodd;stroke-width:0.625;stroke-linejoin:round"
         id="path4498-1-0" />
    </marker>
  </defs>
  <metadata
     id="metadata7">
    <rdf:RDF>
      <cc:Work
         rdf:about="">
        <dc:format>image/svg+xml</dc:format>
        <dc:type
           rdf:resource="http://purl.org/dc/dcmitype/StillImage" />
        <dc:title></dc:title>
      </cc:Work>
    </rdf:RDF>
  </metadata>
  <g
     inkscape:label="Layer 1"
     inkscape:groupmode="layer"
     id="layer1"
     transform="translate(-81.547182,-744.71922)">
    <path
       transform="translate(-63.028358,665.51153)"
       inkscape:connector-curvature="0"
       id="path13961"
       d="m 180,80.535706 0,180.000004 370,0"
       style="fill:none;stroke:#000000;stroke-width:1px;stroke-linecap:butt;stroke-linejoin:miter;stroke-opacity:1;marker-start:url(#Arrow2Lstart);marker-end:url(#Arrow2Lend)" />
    <path
       sodipodi:nodetypes="csssccscccc"
       transform="translate(-63.028358,665.51153)"
       inkscape:connector-curvature="0"
       id="path13963"
       d="m 180,130.53571 70,0 c 20,0 0,40 20,40 l 50,0 c 7.83333,0 5.66667,-19.83333 10,-20 4.83333,0 0,59.99999 10,60 0,0 44.67312,0.0606 50,0 7.64678,-0.087 6.33333,-29.83333 10,-30 6.83333,0.16667 -0.33333,121.83333 10,120 8.18115,-1.58712 8.89205,-38.46583 50,-40 l 90,0"
       style="fill:none;stroke:#000000;stroke-width:1px;stroke-linecap:butt;stroke-linejoin:miter;stroke-opacity:1" />
    <path
       transform="translate(-63.028358,665.51153)"
       inkscape:connector-curvature="0"
       id="path13965"
       d="m 270,170.53571 -80,0"
       style="fill:none;stroke:#000000;stroke-width:1;stroke-linecap:butt;stroke-linejoin:miter;stroke-miterlimit:4;stroke-dasharray:8, 8;stroke-dashoffset:0;stroke-opacity:1" />
    <path
       transform="translate(-63.028358,665.51153)"
       inkscape:connector-curvature="0"
       id="path13967"
       d="m 340,210.53571 -70,0"
       style="fill:none;stroke:#000000;stroke-width:1;stroke-linecap:butt;stroke-linejoin:miter;stroke-miterlimit:4;stroke-dasharray:8, 8;stroke-dashoffset:0;stroke-opacity:1" />
    <path
       inkscape:connector-curvature="0"
       id="path13969"
       d="m 266.97164,891.8046 0,-16.02153"
       style="fill:none;stroke:#000000;stroke-width:0.89502883px;stroke-linecap:butt;stroke-linejoin:miter;stroke-opacity:1;marker-end:url(#Arrow2Lend)" />
    <path
       inkscape:connector-curvature="0"
       id="path13971"
       d="m 266.97164,908.87567 0,17.34769"
       style="fill:none;stroke:#000000;stroke-width:0.93133473px;stroke-linecap:butt;stroke-linejoin:miter;stroke-opacity:1;marker-end:url(#Arrow2Lend)" />
    <g
       ns0:preamble=""
       ns0:text="$\\mathrm{\\alpha_{dipolar}}$"
       word-spacing="normal"
       letter-spacing="normal"
       font-size-adjust="none"
       font-stretch="normal"
       font-weight="normal"
       font-variant="normal"
       font-style="normal"
       stroke-miterlimit="10.433"
       xml:space="preserve"
       transform="matrix(2.0718201,0,0,-2.0718201,-338.40149,2178.5649)"
       id="content"
       style="font-style:normal;font-variant:normal;font-weight:normal;font-stretch:normal;letter-spacing:normal;word-spacing:normal;text-anchor:start;fill:none;stroke:#000000;stroke-linecap:butt;stroke-linejoin:miter;stroke-miterlimit:10.43299961;stroke-dasharray:none;stroke-dashoffset:0;stroke-opacity:1"><path
         id="path14874"
         d="m 228.18,659.58 0,0.07 0,0.07 -0.01,0.07 0,0.07 -0.02,0.13 -0.01,0.12 -0.03,0.12 -0.02,0.12 -0.03,0.1 -0.04,0.11 -0.04,0.09 -0.04,0.1 -0.04,0.08 -0.05,0.08 -0.06,0.08 -0.05,0.07 -0.06,0.07 -0.06,0.06 -0.06,0.05 -0.06,0.06 -0.07,0.05 -0.06,0.04 -0.07,0.04 -0.07,0.04 -0.07,0.03 -0.07,0.03 -0.08,0.02 -0.07,0.02 -0.07,0.02 -0.07,0.01 -0.07,0.01 -0.07,0.01 -0.07,0 -0.07,0.01 c -1.37,0 -2.68,-1.42 -2.68,-2.83 0,-0.92 0.6,-1.67 1.61,-1.67 l 0.02,0.21 c -0.59,0 -0.89,0.45 -0.89,1.09 0,0.48 0.26,1.56 0.57,2.06 0.47,0.73 1.01,0.92 1.36,0.92 0.98,0 0.98,-1.3 0.98,-2.08 0,-0.37 0,-0.94 0.02,-1.11 l 0,0 c -0.87,-0.77 -1.64,-0.88 -2.04,-0.88 l -0.02,-0.21 c 0.63,0 1.34,0.22 2.1,0.83 0.13,-0.53 0.46,-0.83 0.91,-0.83 0.52,0 0.83,0.54 0.83,0.7 0,0.07 -0.06,0.1 -0.12,0.1 -0.07,0 -0.1,-0.03 -0.13,-0.1 -0.18,-0.49 -0.53,-0.49 -0.55,-0.49 -0.31,0 -0.31,0.78 -0.31,1.02 0,0.21 0,0.23 0.1,0.35 0.93,1.17 1.14,2.32 1.14,2.33 0,0.02 -0.01,0.1 -0.12,0.1 -0.1,0 -0.1,-0.03 -0.15,-0.21 -0.18,-0.63 -0.5,-1.38 -0.97,-1.97 z"
         inkscape:connector-curvature="0"
         style="fill:#000000;stroke-width:0" /><path
         id="path14876"
         d="m 232.28,660.49 0,-0.25 c 0.47,0 0.53,-0.05 0.53,-0.39 l 0,-1.44 c -0.26,0.25 -0.6,0.4 -0.98,0.4 l 0.04,-0.2 c 0.33,0 0.63,-0.15 0.83,-0.4 0.08,-0.11 0.08,-0.12 0.08,-0.25 l 0,-1.49 c -0.18,-0.33 -0.54,-0.6 -0.99,-0.6 -0.39,0 -0.67,0.23 -0.81,0.43 -0.14,0.21 -0.22,0.48 -0.22,0.93 0,0.16 0,0.68 0.28,1.01 0.28,0.31 0.62,0.37 0.83,0.37 l -0.04,0.2 c -0.93,0 -1.71,-0.7 -1.71,-1.57 0,-0.87 0.74,-1.57 1.63,-1.57 0.57,0 0.91,0.31 1.03,0.43 l 0,-0.43 1.07,0.07 0,0.25 c -0.47,0 -0.52,0.05 -0.52,0.39 l 0,4.19 z"
         inkscape:connector-curvature="0"
         style="fill:#000000;stroke-width:0" /><path
         id="path14878"
         d="m 235.68,660.03 -0.01,0.02 0,0.02 0,0.02 0,0.02 -0.01,0.01 0,0.02 -0.01,0.02 0,0.02 -0.01,0.02 -0.01,0.01 -0.01,0.02 -0.01,0.02 -0.01,0.01 -0.01,0.02 -0.02,0.01 -0.01,0.02 -0.01,0.01 -0.02,0.01 -0.01,0.01 -0.02,0.02 -0.01,0.01 -0.02,0.01 -0.02,0.01 -0.02,0 -0.01,0.01 -0.02,0.01 -0.02,0 -0.02,0.01 -0.02,0 -0.03,0.01 -0.02,0 -0.02,0 c -0.21,0 -0.4,-0.17 -0.4,-0.4 0,-0.25 0.21,-0.4 0.4,-0.4 0.22,0 0.41,0.17 0.41,0.4 z"
         inkscape:connector-curvature="0"
         style="fill:#000000;stroke-width:0" /><path
         id="path14880"
         d="m 234.62,658.73 0,-0.25 c 0.43,0 0.5,-0.04 0.5,-0.38 l 0,-1.81 c 0,-0.3 -0.07,-0.3 -0.52,-0.3 l 0,-0.25 c 0.01,0 0.5,0.03 0.78,0.03 0.24,0 0.49,-0.01 0.73,-0.03 l 0,0.25 c -0.4,0 -0.47,0 -0.47,0.29 l 0,2.53 z"
         inkscape:connector-curvature="0"
         style="fill:#000000;stroke-width:0" /><path
         id="path14882"
         d="m 238.4,654.64 -0.02,0 -0.02,0 -0.02,0 -0.02,0 -0.02,0 -0.02,0 -0.02,0 -0.02,0 -0.01,0 -0.02,0 -0.01,0 -0.02,0 -0.01,0 -0.02,0.01 -0.01,0 -0.02,0 -0.01,0 -0.01,0 -0.02,0 -0.03,0 -0.02,0.01 -0.02,0 -0.01,0.01 -0.02,0 -0.01,0.01 -0.02,0.01 -0.01,0.01 -0.01,0 -0.01,0.02 -0.01,0.01 -0.01,0.01 0,0.01 -0.01,0.02 0,0.01 -0.01,0.02 0,0.02 0,0.02 0,0.02 0,0.03 0,0.02 0,0.03 0,1.14 c 0.03,-0.04 0.36,-0.41 0.94,-0.41 l -0.04,0.2 c -0.61,0 -0.88,0.53 -0.9,0.57 l 0,1.62 c 0.2,0.34 0.61,0.53 0.98,0.53 0.58,0 1.03,-0.62 1.03,-1.35 0,-0.79 -0.52,-1.37 -1.11,-1.37 l 0.04,-0.2 c 0.92,0 1.71,0.69 1.71,1.57 0,0.86 -0.71,1.57 -1.6,1.57 -0.39,0 -0.8,-0.15 -1.08,-0.43 l 0,0.43 -1.05,-0.08 0,-0.25 c 0.49,0 0.52,-0.03 0.52,-0.33 l 0,-3.21 c 0,-0.3 -0.06,-0.3 -0.52,-0.3 l 0,-0.25 c 0.02,0 0.5,0.03 0.8,0.03 0.25,0 0.73,-0.02 0.8,-0.03 z"
         inkscape:connector-curvature="0"
         style="fill:#000000;stroke-width:0" /><path
         id="path14884"
         d="m 244.76,657.22 0,0.08 -0.01,0.08 -0.01,0.08 -0.01,0.08 -0.02,0.08 -0.02,0.07 -0.03,0.08 -0.03,0.07 -0.03,0.07 -0.04,0.07 -0.04,0.07 -0.04,0.07 -0.05,0.06 -0.05,0.06 -0.06,0.06 -0.05,0.06 -0.06,0.05 -0.06,0.05 -0.07,0.05 -0.06,0.05 -0.07,0.04 -0.07,0.04 -0.08,0.04 -0.07,0.03 -0.08,0.03 -0.08,0.03 -0.08,0.02 -0.09,0.02 -0.08,0.01 -0.09,0.01 -0.09,0.01 -0.09,0 0,-0.19 c 0.42,0 0.71,-0.2 0.86,-0.41 0.2,-0.27 0.22,-0.62 0.22,-0.96 0,-0.33 -0.02,-0.7 -0.23,-0.98 -0.18,-0.27 -0.5,-0.41 -0.85,-0.41 l 0,0 c -0.25,0 -0.63,0.09 -0.86,0.43 -0.19,0.28 -0.21,0.65 -0.21,0.96 0,0.3 0.01,0.71 0.25,1.01 0.18,0.2 0.47,0.36 0.82,0.36 l 0,0.19 c -0.96,0 -1.7,-0.75 -1.7,-1.62 0,-0.86 0.77,-1.55 1.7,-1.55 0.94,0 1.71,0.69 1.71,1.55 z"
         inkscape:connector-curvature="0"
         style="fill:#000000;stroke-width:0" /><path
         id="path14886"
         d="m 246.48,660.57 -1.04,-0.08 0,-0.25 c 0.47,0 0.52,-0.05 0.52,-0.39 l 0,-3.56 c 0,-0.3 -0.07,-0.3 -0.52,-0.3 l 0,-0.25 c 0.01,0 0.5,0.03 0.78,0.03 0.26,0 0.52,-0.01 0.79,-0.03 l 0,0.25 c -0.46,0 -0.53,0 -0.53,0.3 z"
         inkscape:connector-curvature="0"
         style="fill:#000000;stroke-width:0" /><path
         id="path14888"
         d="m 250.41,657.6 0,0.07 0,0.07 0,0.06 0,0.06 -0.01,0.03 0,0.03 0,0.03 -0.01,0.03 0,0.03 -0.01,0.03 0,0.02 -0.01,0.03 -0.01,0.03 -0.01,0.02 -0.01,0.03 -0.01,0.03 -0.01,0.02 -0.01,0.03 -0.02,0.02 -0.01,0.03 -0.02,0.02 -0.02,0.03 -0.02,0.02 -0.02,0.03 -0.03,0.02 -0.02,0.03 -0.03,0.02 -0.03,0.02 c -0.29,0.24 -0.62,0.35 -1.03,0.35 -0.66,0 -1.13,-0.25 -1.13,-0.67 0,-0.22 0.15,-0.34 0.33,-0.34 0.19,0 0.33,0.14 0.33,0.32 0,0.12 -0.05,0.27 -0.24,0.32 0.25,0.18 0.65,0.18 0.69,0.18 0.39,0 0.82,-0.26 0.82,-0.84 l 0,-0.22 0,-0.18 0,-0.69 c 0,-0.67 -0.59,-0.85 -0.9,-0.85 -0.35,0 -0.69,0.23 -0.69,0.57 0,0.39 0.34,0.92 1.59,0.97 l 0,0.18 c -0.38,-0.01 -0.84,-0.03 -1.35,-0.22 -0.63,-0.23 -0.82,-0.61 -0.82,-0.93 0,-0.6 0.72,-0.77 1.22,-0.77 0.55,0 0.88,0.31 1.03,0.59 0.02,-0.29 0.21,-0.55 0.53,-0.55 0.02,0 0.69,0 0.69,0.66 l 0,0.38 -0.23,0 0,-0.38 c 0,-0.07 0,-0.4 -0.26,-0.4 -0.26,0 -0.26,0.33 -0.26,0.42 z"
         inkscape:connector-curvature="0"
         style="fill:#000000;stroke-width:0" /><path
         id="path14890"
         d="m 252.66,657.33 0,0.05 0.01,0.06 0,0.05 0,0.06 0.01,0.06 0.01,0.05 0.01,0.06 0.01,0.05 0.02,0.06 0.02,0.05 0.01,0.06 0.02,0.05 0.02,0.05 0.03,0.05 0.02,0.05 0.03,0.05 0.03,0.04 0.03,0.05 0.03,0.04 0.04,0.04 0.04,0.04 0.04,0.03 0.04,0.03 0.04,0.03 0.05,0.03 0.04,0.02 0.05,0.02 0.05,0.02 0.06,0.02 0.06,0 0.05,0.01 0.07,0 c -0.07,-0.05 -0.12,-0.14 -0.12,-0.25 0,-0.23 0.18,-0.32 0.31,-0.32 0.17,0 0.32,0.11 0.32,0.32 0,0.24 -0.22,0.45 -0.55,0.45 -0.35,0 -0.73,-0.22 -0.94,-0.75 l -0.01,0 0,0.75 -0.99,-0.08 0,-0.25 c 0.46,0 0.52,-0.05 0.52,-0.39 l 0,-1.8 c 0,-0.3 -0.07,-0.3 -0.52,-0.3 l 0,-0.25 c 0.03,0 0.5,0.03 0.79,0.03 0.3,0 0.61,-0.01 0.91,-0.03 l 0,0.25 -0.14,0 c -0.52,0 -0.52,0.08 -0.52,0.31 z"
         inkscape:connector-curvature="0"
         style="fill:#000000;stroke-width:0" /></g>    <g
       id="g14987"
       transform="matrix(2.3070431,0,0,-2.3070431,-310.46802,2372.9537)"
       xml:space="preserve"
       stroke-miterlimit="10.433"
       font-style="normal"
       font-variant="normal"
       font-weight="normal"
       font-stretch="normal"
       font-size-adjust="none"
       letter-spacing="normal"
       word-spacing="normal"
       ns0:text="$\\mathrm{\\alpha_{ionic}}$"
       ns0:preamble=""
       style="font-style:normal;font-variant:normal;font-weight:normal;font-stretch:normal;letter-spacing:normal;word-spacing:normal;text-anchor:start;fill:none;stroke:#000000;stroke-linecap:butt;stroke-linejoin:miter;stroke-miterlimit:10.43299961;stroke-dasharray:none;stroke-dashoffset:0;stroke-opacity:1"><path
         style="fill:#000000;stroke-width:0"
         inkscape:connector-curvature="0"
         d="m 228.18,659.58 0,0.07 0,0.07 -0.01,0.07 0,0.07 -0.02,0.13 -0.01,0.12 -0.03,0.12 -0.02,0.12 -0.03,0.1 -0.04,0.11 -0.04,0.09 -0.04,0.1 -0.04,0.08 -0.05,0.08 -0.06,0.08 -0.05,0.07 -0.06,0.07 -0.06,0.06 -0.06,0.05 -0.06,0.06 -0.07,0.05 -0.06,0.04 -0.07,0.04 -0.07,0.04 -0.07,0.03 -0.07,0.03 -0.08,0.02 -0.07,0.02 -0.07,0.02 -0.07,0.01 -0.07,0.01 -0.07,0.01 -0.07,0 -0.07,0.01 c -1.37,0 -2.68,-1.42 -2.68,-2.83 0,-0.92 0.6,-1.67 1.61,-1.67 l 0.02,0.21 c -0.59,0 -0.89,0.45 -0.89,1.09 0,0.48 0.26,1.56 0.57,2.06 0.47,0.73 1.01,0.92 1.36,0.92 0.98,0 0.98,-1.3 0.98,-2.08 0,-0.37 0,-0.94 0.02,-1.11 l 0,0 c -0.87,-0.77 -1.64,-0.88 -2.04,-0.88 l -0.02,-0.21 c 0.63,0 1.34,0.22 2.1,0.83 0.13,-0.53 0.46,-0.83 0.91,-0.83 0.52,0 0.83,0.54 0.83,0.7 0,0.07 -0.06,0.1 -0.12,0.1 -0.07,0 -0.1,-0.03 -0.13,-0.1 -0.18,-0.49 -0.53,-0.49 -0.55,-0.49 -0.31,0 -0.31,0.78 -0.31,1.02 0,0.21 0,0.23 0.1,0.35 0.93,1.17 1.14,2.32 1.14,2.33 0,0.02 -0.01,0.1 -0.12,0.1 -0.1,0 -0.1,-0.03 -0.15,-0.21 -0.18,-0.63 -0.5,-1.38 -0.97,-1.97 z"
         id="path14989" /><path
         style="fill:#000000;stroke-width:0"
         inkscape:connector-curvature="0"
         d="m 231.27,660.03 0,0.02 0,0.02 0,0.02 0,0.02 -0.01,0.01 0,0.02 -0.01,0.02 0,0.02 -0.01,0.02 -0.01,0.01 -0.01,0.02 -0.01,0.02 -0.01,0.01 -0.01,0.02 -0.02,0.01 -0.01,0.02 -0.01,0.01 -0.02,0.01 -0.01,0.01 -0.02,0.02 -0.01,0.01 -0.02,0.01 -0.02,0.01 -0.02,0 -0.01,0.01 -0.02,0.01 -0.02,0 -0.02,0.01 -0.02,0 -0.03,0.01 -0.02,0 -0.02,0 c -0.21,0 -0.4,-0.17 -0.4,-0.4 0,-0.25 0.21,-0.4 0.4,-0.4 0.22,0 0.4,0.17 0.4,0.4 z"
         id="path14991" /><path
         style="fill:#000000;stroke-width:0"
         inkscape:connector-curvature="0"
         d="m 230.22,658.73 0,-0.25 c 0.43,0 0.5,-0.04 0.5,-0.38 l 0,-1.81 c 0,-0.3 -0.07,-0.3 -0.52,-0.3 l 0,-0.25 c 0.01,0 0.5,0.03 0.78,0.03 0.24,0 0.49,-0.01 0.73,-0.03 l 0,0.25 c -0.4,0 -0.47,0 -0.47,0.29 l 0,2.53 z"
         id="path14993" /><path
         style="fill:#000000;stroke-width:0"
         inkscape:connector-curvature="0"
         d="m 235.74,657.22 0,0.08 0,0.08 -0.02,0.08 -0.01,0.08 -0.02,0.08 -0.02,0.07 -0.03,0.08 -0.03,0.07 -0.03,0.07 -0.04,0.07 -0.04,0.07 -0.04,0.07 -0.05,0.06 -0.05,0.06 -0.05,0.06 -0.06,0.06 -0.06,0.05 -0.06,0.05 -0.06,0.05 -0.07,0.05 -0.07,0.04 -0.07,0.04 -0.07,0.04 -0.08,0.03 -0.08,0.03 -0.08,0.03 -0.08,0.02 -0.08,0.02 -0.09,0.01 -0.08,0.01 -0.09,0.01 -0.09,0 0,-0.19 c 0.41,0 0.7,-0.2 0.86,-0.41 0.19,-0.27 0.21,-0.62 0.21,-0.96 0,-0.33 -0.02,-0.7 -0.22,-0.98 -0.19,-0.27 -0.51,-0.41 -0.85,-0.41 l 0,0 c -0.26,0 -0.64,0.09 -0.86,0.43 -0.19,0.28 -0.21,0.65 -0.21,0.96 0,0.3 0,0.71 0.25,1.01 0.17,0.2 0.46,0.36 0.82,0.36 l 0,0.19 c -0.96,0 -1.71,-0.75 -1.71,-1.62 0,-0.86 0.77,-1.55 1.71,-1.55 0.94,0 1.7,0.69 1.7,1.55 z"
         id="path14995" /><path
         style="fill:#000000;stroke-width:0"
         inkscape:connector-curvature="0"
         d="m 239.62,657.85 0,0.05 0,0.06 -0.01,0.05 -0.01,0.05 0,0.05 -0.01,0.05 -0.02,0.05 -0.01,0.04 -0.02,0.05 -0.01,0.04 -0.02,0.04 -0.03,0.04 -0.02,0.03 -0.03,0.04 -0.02,0.03 -0.03,0.03 -0.04,0.03 -0.03,0.03 -0.04,0.03 -0.04,0.02 -0.04,0.03 -0.04,0.02 -0.05,0.02 -0.05,0.01 -0.05,0.02 -0.05,0.01 -0.06,0.01 -0.06,0.01 -0.06,0.01 -0.06,0 -0.07,0.01 -0.07,0 c -0.57,0 -0.94,-0.32 -1.13,-0.68 l -0.01,0 0,0.68 -1.02,-0.08 0,-0.25 c 0.47,0 0.52,-0.05 0.52,-0.39 l 0,-1.8 c 0,-0.3 -0.07,-0.3 -0.52,-0.3 l 0,-0.25 c 0.01,0 0.5,0.03 0.79,0.03 0.26,0 0.74,-0.02 0.8,-0.03 l 0,0.25 c -0.45,0 -0.52,0 -0.52,0.3 l 0,1.25 c 0,0.73 0.58,1.07 1.04,1.07 0.49,0 0.55,-0.38 0.55,-0.73 l 0,-1.59 c 0,-0.3 -0.07,-0.3 -0.52,-0.3 l 0,-0.25 c 0.01,0 0.5,0.03 0.79,0.03 0.26,0 0.74,-0.02 0.8,-0.03 l 0,0.25 c -0.45,0 -0.52,0 -0.52,0.3 z"
         id="path14997" /><path
         style="fill:#000000;stroke-width:0"
         inkscape:connector-curvature="0"
         d="m 241.9,660.03 0,0.02 0,0.02 0,0.02 -0.01,0.02 0,0.01 0,0.02 -0.01,0.02 -0.01,0.02 -0.01,0.02 0,0.01 -0.01,0.02 -0.01,0.02 -0.01,0.01 -0.02,0.02 -0.01,0.01 -0.01,0.02 -0.01,0.01 -0.02,0.01 -0.01,0.01 -0.02,0.02 -0.02,0.01 -0.01,0.01 -0.02,0.01 -0.02,0 -0.02,0.01 -0.02,0.01 -0.02,0 -0.02,0.01 -0.02,0 -0.02,0.01 -0.02,0 -0.02,0 c -0.21,0 -0.4,-0.17 -0.4,-0.4 0,-0.25 0.2,-0.4 0.4,-0.4 0.22,0 0.4,0.17 0.4,0.4 z"
         id="path14999" /><path
         style="fill:#000000;stroke-width:0"
         inkscape:connector-curvature="0"
         d="m 240.84,658.73 0,-0.25 c 0.44,0 0.51,-0.04 0.51,-0.38 l 0,-1.81 c 0,-0.3 -0.08,-0.3 -0.53,-0.3 l 0,-0.25 c 0.02,0 0.5,0.03 0.78,0.03 0.25,0 0.5,-0.01 0.74,-0.03 l 0,0.25 c -0.4,0 -0.47,0 -0.47,0.29 l 0,2.53 z"
         id="path15001" /><path
         style="fill:#000000;stroke-width:0"
         inkscape:connector-curvature="0"
         d="m 245.4,658.52 -0.01,-0.01 -0.02,-0.01 -0.01,0 -0.01,-0.01 -0.01,0 -0.01,-0.01 -0.01,-0.01 -0.01,-0.01 -0.01,0 0,-0.01 -0.01,-0.01 -0.01,-0.01 -0.01,-0.01 0,-0.01 -0.01,-0.01 -0.01,-0.01 0,-0.01 -0.01,-0.01 0,-0.01 -0.01,-0.01 0,-0.01 -0.01,-0.01 0,-0.01 -0.01,-0.01 0,-0.01 0,-0.01 0,-0.02 0,-0.01 -0.01,-0.01 0,-0.01 0,-0.02 0,-0.01 c 0,-0.19 0.13,-0.33 0.33,-0.33 0.19,0 0.33,0.12 0.33,0.34 0,0.62 -0.96,0.62 -1.16,0.62 -1.04,0 -1.69,-0.8 -1.69,-1.6 0,-0.87 0.74,-1.57 1.66,-1.57 1.03,0 1.28,0.82 1.28,0.91 0,0.08 -0.09,0.08 -0.12,0.08 -0.09,0 -0.1,-0.02 -0.13,-0.12 -0.16,-0.43 -0.53,-0.65 -0.95,-0.65 -0.48,0 -1.11,0.36 -1.11,1.36 0,0.88 0.43,1.37 1.08,1.37 0.09,0 0.43,0 0.68,-0.1 z"
         id="path15003" /></g>    <g
       transform="matrix(0.76479465,0,0,0.76479465,91.605813,641.61593)"
       id="g4407">
      <g
         style="font-style:normal;font-variant:normal;font-weight:normal;font-stretch:normal;letter-spacing:normal;word-spacing:normal;text-anchor:start;fill:none;fill-opacity:1;fill-rule:evenodd;stroke:#000000;stroke-linecap:butt;stroke-linejoin:miter;stroke-miterlimit:10.43299961;stroke-dasharray:none;stroke-dashoffset:0;stroke-opacity:1"
         id="g4409"
         transform="matrix(0.6035138,0,0,-0.6035138,-105.61491,585.01401)"
         xml:space="preserve"
         stroke-miterlimit="10.433"
         font-style="normal"
         font-variant="normal"
         font-weight="normal"
         font-stretch="normal"
         font-size-adjust="none"
         letter-spacing="normal"
         word-spacing="normal"><path
           style="fill:#000000;stroke-width:0"
           inkscape:connector-curvature="0"
           d="m 479.29,417.96 -0.01,0.37 -0.01,0.35 -0.02,0.35 -0.02,0.34 -0.06,0.65 -0.09,0.63 -0.11,0.59 -0.14,0.57 -0.15,0.54 -0.18,0.51 -0.19,0.49 -0.21,0.45 -0.23,0.44 -0.25,0.4 -0.26,0.38 -0.27,0.36 -0.29,0.33 -0.3,0.31 -0.31,0.29 -0.31,0.26 -0.33,0.24 -0.34,0.22 -0.34,0.2 -0.35,0.18 -0.35,0.16 -0.36,0.14 -0.35,0.12 -0.36,0.11 -0.37,0.09 -0.36,0.06 -0.36,0.06 -0.35,0.04 -0.35,0.02 -0.35,0 -0.05,-1.09 c 4.94,0 4.94,-6.53 4.94,-10.41 0,-1.84 0,-4.73 0.09,-5.57 l 0,0 c -4.37,-3.85 -8.22,-4.39 -10.2,-4.39 -3,0 -4.49,2.25 -4.49,5.43 0,2.44 1.3,7.82 2.89,10.36 2.33,3.64 5.04,4.58 6.77,4.58 l 0.05,1.09 c -6.82,0 -13.39,-7.12 -13.39,-14.14 0,-4.64 2.98,-8.42 8.06,-8.42 3.14,0 6.73,1.14 10.51,4.19 0.66,-2.64 2.3,-4.19 4.54,-4.19 2.64,0 4.18,2.74 4.18,3.53 0,0.36 -0.29,0.5 -0.59,0.5 -0.36,0 -0.5,-0.14 -0.66,-0.5 -0.89,-2.43 -2.68,-2.43 -2.78,-2.43 -1.54,0 -1.54,3.89 -1.54,5.07 0,1.05 0,1.16 0.5,1.75 4.68,5.88 5.73,11.66 5.73,11.71 0,0.11 -0.06,0.5 -0.61,0.5 -0.5,0 -0.5,-0.14 -0.75,-1.05 -0.89,-3.14 -2.53,-6.92 -4.87,-9.86 z"
           id="path4411" /><path
           style="fill:#000000;stroke-width:0"
           inkscape:connector-curvature="0"
           d="m 502.77,406.7 0.07,0 0.06,0 0.06,0 0.06,0 0.06,0 0.05,0 0.05,0.01 0.05,0 0.05,0.01 0.04,0 0.04,0.01 0.04,0.01 0.04,0.01 0.04,0.01 0.03,0.02 0.03,0.02 0.03,0.02 0.02,0.02 0.02,0.02 0.03,0.03 0.02,0.03 0.01,0.03 0.01,0.02 0.01,0.02 0.01,0.02 0,0.02 0.01,0.02 0.01,0.02 0,0.02 0.01,0.03 0,0.02 0,0.03 0.01,0.02 0,0.03 0,0.03 0.01,0.03 0,0.03 0,0.03 0,0.04 0,0.03 0,0.03 0,0.04 c 0,3.06 -1.71,6.83 -6.9,6.83 -4.56,0 -8.05,-3.63 -8.05,-7.92 0,-4.43 3.88,-7.97 8.5,-7.97 4.7,0 6.45,3.76 6.45,4.53 0,0.14 -0.07,0.48 -0.59,0.48 -0.45,0 -0.53,-0.22 -0.62,-0.56 -1.1,-2.81 -3.74,-3.34 -4.99,-3.34 -1.64,0 -3.2,0.73 -4.25,2.06 -1.3,1.62 -1.33,3.75 -1.33,5.11 l 0.03,0.91 c 0.39,4.92 3.52,5.71 4.85,5.71 4.28,0 4.42,-4.84 4.47,-5.71 l -9.32,0 -0.03,-0.91 z"
           id="path4413" /><path
           style="fill:#000000;stroke-width:0"
           inkscape:connector-curvature="0"
           d="m 512.37,422.95 -5.22,-0.39 0,-1.25 c 2.33,0 2.61,-0.25 2.61,-1.95 l 0,-17.85 c 0,-1.5 -0.34,-1.5 -2.61,-1.5 l 0,-1.25 c 0.06,0 2.5,0.14 3.91,0.14 1.31,0 2.61,-0.03 3.94,-0.14 l 0,1.25 c -2.27,0 -2.63,0 -2.63,1.5 z"
           id="path4415" /><path
           style="fill:#000000;stroke-width:0"
           inkscape:connector-curvature="0"
           d="m 531.8,406.7 0.07,0 0.07,0 0.06,0 0.06,0 0.05,0 0.06,0 0.05,0.01 0.05,0 0.04,0.01 0.05,0 0.04,0.01 0.04,0.01 0.04,0.01 0.03,0.01 0.03,0.02 0.03,0.02 0.03,0.02 0.03,0.02 0.02,0.02 0.02,0.03 0.02,0.03 0.02,0.03 0.01,0.02 0,0.02 0.01,0.02 0.01,0.02 0,0.02 0.01,0.02 0.01,0.02 0,0.03 0.01,0.02 0,0.03 0,0.02 0.01,0.03 0,0.03 0,0.03 0,0.03 0.01,0.03 0,0.04 0,0.03 0,0.03 0,0.04 c 0,3.06 -1.72,6.83 -6.91,6.83 -4.56,0 -8.04,-3.63 -8.04,-7.92 0,-4.43 3.87,-7.97 8.5,-7.97 4.7,0 6.45,3.76 6.45,4.53 0,0.14 -0.08,0.48 -0.59,0.48 -0.46,0 -0.54,-0.22 -0.63,-0.56 -1.09,-2.81 -3.73,-3.34 -4.98,-3.34 -1.64,0 -3.21,0.73 -4.25,2.06 -1.3,1.62 -1.33,3.75 -1.33,5.11 l 0.03,0.91 c 0.39,4.92 3.51,5.71 4.84,5.71 4.28,0 4.42,-4.84 4.47,-5.71 l -9.31,0 -0.03,-0.91 z"
           id="path4417" /><path
           style="fill:#000000;stroke-width:0"
           inkscape:connector-curvature="0"
           d="m 547.78,412.67 -0.06,-0.03 -0.05,-0.03 -0.06,-0.03 -0.05,-0.03 -0.05,-0.03 -0.05,-0.04 -0.05,-0.04 -0.04,-0.03 -0.05,-0.04 -0.04,-0.04 -0.04,-0.05 -0.04,-0.04 -0.04,-0.04 -0.03,-0.05 -0.04,-0.05 -0.03,-0.05 -0.03,-0.04 -0.03,-0.06 -0.02,-0.05 -0.03,-0.05 -0.02,-0.05 -0.02,-0.06 -0.02,-0.06 -0.01,-0.05 -0.02,-0.06 -0.01,-0.06 -0.01,-0.06 -0.01,-0.06 -0.01,-0.06 0,-0.07 -0.01,-0.06 0,-0.06 c 0,-0.96 0.66,-1.64 1.64,-1.64 0.94,0 1.68,0.59 1.68,1.7 0,3.11 -4.85,3.11 -5.83,3.11 -5.22,0 -8.46,-4.02 -8.46,-8.02 0,-4.39 3.72,-7.87 8.29,-7.87 5.2,0 6.42,4.11 6.42,4.53 0,0.41 -0.46,0.41 -0.6,0.41 -0.45,0 -0.48,-0.1 -0.67,-0.6 -0.76,-2.15 -2.61,-3.23 -4.73,-3.23 -2.41,0 -5.53,1.78 -5.53,6.79 0,4.43 2.15,6.86 5.39,6.86 0.45,0 2.12,0 3.37,-0.51 z"
           id="path4419" /><path
           style="fill:#000000;stroke-width:0"
           inkscape:connector-curvature="0"
           d="m 558.99,412.53 5.44,0 0,1.25 -5.44,0 0,6.4 -1.19,0 c -0.03,-3.12 -1.45,-6.57 -4.79,-6.68 l 0,-0.97 3.23,0 0,-9.41 c 0,-3.91 2.92,-4.7 4.88,-4.7 2.34,0 3.93,1.98 3.93,4.73 l 0,1.92 -1.18,0 0,-1.89 c 0,-2.36 -1.11,-3.65 -2.47,-3.65 -2.41,0 -2.41,2.92 -2.41,3.56 z"
           id="path4421" /><path
           style="fill:#000000;stroke-width:0"
           inkscape:connector-curvature="0"
           d="m 574.53,406.7 0,0.28 0.01,0.28 0.02,0.28 0.03,0.28 0.04,0.28 0.04,0.29 0.06,0.28 0.06,0.28 0.07,0.27 0.08,0.28 0.09,0.27 0.1,0.26 0.11,0.26 0.12,0.25 0.12,0.25 0.14,0.24 0.15,0.23 0.15,0.22 0.17,0.21 0.18,0.19 0.18,0.19 0.2,0.18 0.2,0.16 0.22,0.15 0.23,0.13 0.24,0.12 0.25,0.1 0.26,0.09 0.27,0.06 0.28,0.05 0.29,0.03 0.31,0.01 c -0.31,-0.25 -0.6,-0.7 -0.6,-1.25 0,-1.15 0.91,-1.61 1.57,-1.61 0.84,0 1.61,0.57 1.61,1.61 0,1.19 -1.13,2.22 -2.77,2.22 -1.73,0 -3.66,-1.08 -4.7,-3.72 l -0.03,0 0,3.72 -4.99,-0.37 0,-1.25 c 2.35,0 2.63,-0.25 2.63,-1.96 l 0,-9.03 c 0,-1.5 -0.36,-1.5 -2.63,-1.5 l 0,-1.25 c 0.18,0 2.55,0.14 3.97,0.14 1.5,0 3.05,-0.08 4.53,-0.14 l 0,1.25 -0.69,0 c -2.57,0 -2.57,0.39 -2.57,1.58 z"
           id="path4423" /><path
           style="fill:#000000;stroke-width:0"
           inkscape:connector-curvature="0"
           d="m 601.63,406.18 -0.02,0.41 -0.03,0.4 -0.05,0.4 -0.07,0.39 -0.1,0.39 -0.11,0.38 -0.13,0.38 -0.15,0.36 -0.17,0.36 -0.19,0.35 -0.2,0.34 -0.22,0.33 -0.24,0.32 -0.25,0.31 -0.26,0.3 -0.28,0.28 -0.3,0.27 -0.31,0.26 -0.32,0.25 -0.33,0.23 -0.35,0.21 -0.36,0.2 -0.37,0.19 -0.38,0.16 -0.39,0.15 -0.4,0.13 -0.41,0.12 -0.41,0.09 -0.43,0.07 -0.43,0.06 -0.44,0.03 -0.45,0.01 0,-0.99 c 2.06,0 3.53,-0.96 4.3,-2.04 0.96,-1.36 1.07,-3.11 1.07,-4.78 0,-1.68 -0.11,-3.52 -1.12,-4.96 -0.94,-1.31 -2.53,-2.01 -4.25,-2.01 l 0,0 c -1.28,0 -3.17,0.42 -4.31,2.12 -0.94,1.44 -1.05,3.24 -1.05,4.85 0,1.5 0.03,3.56 1.25,5.04 0.87,1.02 2.34,1.78 4.11,1.78 l 0,0.99 c -4.8,0 -8.53,-3.77 -8.53,-8.13 0,-4.32 3.83,-7.76 8.53,-7.76 4.7,0 8.55,3.44 8.55,7.76 z"
           id="path4425" /><path
           style="fill:#000000;stroke-width:0"
           inkscape:connector-curvature="0"
           d="m 620.92,409.32 0,0.28 -0.02,0.28 -0.02,0.26 -0.03,0.26 -0.04,0.25 -0.05,0.24 -0.06,0.24 -0.07,0.22 -0.08,0.22 -0.09,0.21 -0.1,0.2 -0.1,0.19 -0.12,0.19 -0.13,0.17 -0.15,0.17 -0.15,0.16 -0.16,0.15 -0.17,0.14 -0.19,0.13 -0.19,0.12 -0.21,0.12 -0.22,0.1 -0.23,0.09 -0.25,0.09 -0.25,0.07 -0.27,0.07 -0.28,0.05 -0.29,0.05 -0.31,0.03 -0.31,0.03 -0.33,0.02 -0.35,0 c -2.86,0 -4.7,-1.56 -5.68,-3.37 l -0.04,0 0,3.37 -5.12,-0.37 0,-1.25 c 2.34,0 2.62,-0.25 2.62,-1.96 l 0,-9.03 c 0,-1.5 -0.35,-1.5 -2.62,-1.5 l 0,-1.25 c 0.08,0 2.52,0.14 3.98,0.14 1.29,0 3.69,-0.11 4,-0.14 l 0,1.25 c -2.26,0 -2.61,0 -2.61,1.5 l 0,6.28 c 0,3.66 2.9,5.36 5.19,5.36 2.44,0 2.75,-1.92 2.75,-3.69 l 0,-7.95 c 0,-1.5 -0.34,-1.5 -2.61,-1.5 l 0,-1.25 c 0.08,0 2.52,0.14 3.97,0.14 1.3,0 3.7,-0.11 4.02,-0.14 l 0,1.25 c -2.27,0 -2.63,0 -2.63,1.5 z"
           id="path4427" /><path
           style="fill:#000000;stroke-width:0"
           inkscape:connector-curvature="0"
           d="m 632.3,420.26 0,0.1 -0.01,0.09 -0.01,0.1 -0.02,0.09 -0.02,0.09 -0.02,0.09 -0.03,0.09 -0.04,0.09 -0.04,0.09 -0.04,0.08 -0.05,0.08 -0.05,0.09 -0.05,0.07 -0.06,0.08 -0.06,0.07 -0.07,0.07 -0.07,0.07 -0.07,0.07 -0.08,0.06 -0.08,0.06 -0.08,0.05 -0.08,0.05 -0.09,0.05 -0.09,0.04 -0.1,0.04 -0.09,0.03 -0.1,0.03 -0.1,0.02 -0.11,0.02 -0.1,0.01 -0.11,0.01 -0.11,0.01 c -1.05,0 -1.99,-0.83 -1.99,-1.99 0,-1.25 1.02,-2.01 1.99,-2.01 1.13,0 2.03,0.86 2.03,2.01 z"
           id="path4429" /><path
           style="fill:#000000;stroke-width:0"
           inkscape:connector-curvature="0"
           d="m 627,413.75 0,-1.25 c 2.19,0 2.5,-0.22 2.5,-1.93 l 0,-9.06 c 0,-1.5 -0.34,-1.5 -2.6,-1.5 l 0,-1.25 c 0.06,0 2.5,0.14 3.9,0.14 1.22,0 2.47,-0.03 3.69,-0.14 l 0,1.25 c -2.02,0 -2.38,0 -2.38,1.47 l 0,12.64 z"
           id="path4431" /><path
           style="fill:#000000;stroke-width:0"
           inkscape:connector-curvature="0"
           d="m 649.77,412.67 -0.06,-0.03 -0.06,-0.03 -0.05,-0.03 -0.06,-0.03 -0.05,-0.03 -0.05,-0.04 -0.04,-0.04 -0.05,-0.03 -0.04,-0.04 -0.05,-0.04 -0.04,-0.05 -0.04,-0.04 -0.03,-0.04 -0.04,-0.05 -0.03,-0.05 -0.03,-0.05 -0.03,-0.04 -0.03,-0.06 -0.03,-0.05 -0.02,-0.05 -0.02,-0.05 -0.02,-0.06 -0.02,-0.06 -0.02,-0.05 -0.01,-0.06 -0.02,-0.06 -0.01,-0.06 -0.01,-0.06 0,-0.06 -0.01,-0.07 0,-0.06 0,-0.06 c 0,-0.96 0.65,-1.64 1.64,-1.64 0.94,0 1.67,0.59 1.67,1.7 0,3.11 -4.84,3.11 -5.83,3.11 -5.22,0 -8.45,-4.02 -8.45,-8.02 0,-4.39 3.72,-7.87 8.28,-7.87 5.2,0 6.42,4.11 6.42,4.53 0,0.41 -0.45,0.41 -0.59,0.41 -0.46,0 -0.49,-0.1 -0.67,-0.6 -0.77,-2.15 -2.61,-3.23 -4.74,-3.23 -2.4,0 -5.53,1.78 -5.53,6.79 0,4.43 2.16,6.86 5.39,6.86 0.45,0 2.13,0 3.38,-0.51 z"
           id="path4433" /></g>    </g>
    <path
       inkscape:connector-curvature="0"
       id="path13969-9"
       d="m 233.64359,847.97767 0,-11.20835"
       style="fill:none;stroke:#000000;stroke-width:0.7486105px;stroke-linecap:butt;stroke-linejoin:miter;stroke-opacity:1;marker-end:url(#Arrow2Lend-5)" />
    <path
       inkscape:connector-curvature="0"
       id="path13971-8"
       d="m 233.8793,863.39882 0,12.5178"
       style="fill:none;stroke:#000000;stroke-width:0.79113227px;stroke-linecap:butt;stroke-linejoin:miter;stroke-opacity:1;marker-end:url(#Arrow2Lend-5)" />
    <path
       inkscape:connector-curvature="0"
       id="path13969-9-4"
       d="m 158.24846,809.32583 0,-11.20835"
       style="fill:none;stroke:#000000;stroke-width:0.7486105px;stroke-linecap:butt;stroke-linejoin:miter;stroke-opacity:1;marker-end:url(#Arrow2Lend-5-6)" />
    <path
       inkscape:connector-curvature="0"
       id="path13971-8-8"
       d="m 158.22135,822.3676 0,12.5178"
       style="fill:none;stroke:#000000;stroke-width:0.79113227px;stroke-linecap:butt;stroke-linejoin:miter;stroke-opacity:1;marker-end:url(#Arrow2Lend-5-2)" />
    <g
       transform="translate(112,622.66667)"
       id="g4873">
      <g
         style="font-style:normal;font-variant:normal;font-weight:normal;font-stretch:normal;letter-spacing:normal;word-spacing:normal;text-anchor:start;fill:none;fill-opacity:1;fill-rule:evenodd;stroke:#000000;stroke-linecap:butt;stroke-linejoin:miter;stroke-miterlimit:10.43299961;stroke-dasharray:none;stroke-dashoffset:0;stroke-opacity:1"
         id="g4875"
         transform="matrix(0.6035138,0,0,-0.6035138,-105.61491,585.01401)"
         xml:space="preserve"
         stroke-miterlimit="10.433"
         font-style="normal"
         font-variant="normal"
         font-weight="normal"
         font-stretch="normal"
         font-size-adjust="none"
         letter-spacing="normal"
         word-spacing="normal"><path
           style="fill:#000000;stroke-width:0"
           inkscape:connector-curvature="0"
           d="m 485.66,424.73 0,0.21 -0.01,0.2 -0.01,0.2 -0.02,0.19 -0.02,0.18 -0.03,0.18 -0.03,0.17 -0.04,0.16 -0.04,0.16 -0.04,0.16 -0.05,0.14 -0.05,0.14 -0.05,0.13 -0.06,0.13 -0.07,0.12 -0.06,0.12 -0.07,0.1 -0.07,0.1 -0.08,0.1 -0.08,0.09 -0.08,0.08 -0.08,0.07 -0.08,0.07 -0.09,0.06 -0.09,0.05 -0.09,0.05 -0.1,0.04 -0.09,0.03 -0.1,0.02 -0.1,0.02 -0.1,0.01 -0.1,0 c -1.3,0 -2.64,-1.18 -2.64,-2.34 0,-0.48 0.23,-1.03 0.73,-1.48 0.86,-0.75 1.75,-2.1 1.75,-4.19 0,-2 -0.95,-4.83 -2.48,-7.13 -1.5,-2.14 -3.35,-3.82 -5.69,-3.82 -2.85,0 -4.39,1.78 -4.83,4.46 0.55,1.3 1.69,4.49 1.69,5.9 0,0.59 -0.25,1.09 -0.89,1.09 -0.41,0 -0.96,-0.11 -1.35,-0.84 -0.54,-1 -1.15,-4.24 -1.15,-6.04 -1.64,-2.34 -3.63,-4.57 -6.77,-4.57 -3.3,0 -4.34,2.93 -4.34,5.71 0,6.24 5.09,11.47 5.09,12.11 0,0.55 -0.41,0.96 -0.95,0.96 -0.66,0 -1,-0.66 -1.3,-1.11 -2.55,-3.69 -4.44,-9.61 -4.44,-14.14 0,-3.44 1.16,-7.13 5.24,-7.13 3.53,0 5.87,2.49 7.67,5.24 0.45,-2.89 2.39,-5.24 5.48,-5.24 3.89,0 6.29,3.03 8.07,6.78 1.2,2.44 3.09,9.21 3.09,12.3 z"
           id="path4877" /></g>    </g>
    <g
       id="g5015"
       transform="matrix(0,-0.66531323,0.66531323,0,-129.56963,989.24579)">
      <g
         word-spacing="normal"
         letter-spacing="normal"
         font-size-adjust="none"
         font-stretch="normal"
         font-weight="normal"
         font-variant="normal"
         font-style="normal"
         stroke-miterlimit="10.433"
         xml:space="preserve"
         transform="matrix(0.6035138,0,0,-0.6035138,-105.61491,585.01401)"
         id="g5017"
         style="font-style:normal;font-variant:normal;font-weight:normal;font-stretch:normal;letter-spacing:normal;word-spacing:normal;text-anchor:start;fill:none;fill-opacity:1;fill-rule:evenodd;stroke:#000000;stroke-linecap:butt;stroke-linejoin:miter;stroke-miterlimit:10.43299961;stroke-dasharray:none;stroke-dashoffset:0;stroke-opacity:1"><path
           id="path5019"
           d="m 477.19,423.14 0.45,0.12 0.44,0.12 0.44,0.14 0.43,0.15 0.42,0.16 0.42,0.17 0.4,0.18 0.4,0.19 0.39,0.19 0.37,0.21 0.37,0.22 0.35,0.22 0.34,0.23 0.33,0.24 0.32,0.25 0.3,0.26 0.29,0.27 0.27,0.27 0.26,0.28 0.24,0.29 0.23,0.29 0.21,0.31 0.19,0.3 0.18,0.32 0.15,0.32 0.14,0.33 0.12,0.33 0.09,0.35 0.08,0.34 0.06,0.35 0.03,0.36 0.01,0.36 c 0,4.78 -5.67,8.97 -13,8.97 l -15.64,0 0,-1.55 1.19,0 c 3.84,0 3.93,-0.54 3.93,-2.34 l 0,-26.25 c 0,-1.8 -0.09,-2.34 -3.93,-2.34 l -1.19,0 0,-1.55 c 1.78,0.16 5.33,0.16 7.27,0.16 1.93,0 5.48,0 7.28,-0.16 l 0,1.55 -1.21,0 c -3.82,0 -3.93,0.54 -3.93,2.34 l 0,12.59 0,1.11 0,12.89 c 0,1.16 0,1.75 1.09,1.91 0.5,0.09 1.95,0.09 2.95,0.09 4.47,0 10.07,-0.2 10.07,-7.42 0,-3.44 -1.21,-7.47 -8.58,-7.47 l -5.53,0 0,-1.11 5.73,0 c 0.8,0 2.89,0 4.63,-1.68 1.9,-1.8 1.9,-3.35 1.9,-6.68 0,-3.25 0,-5.23 2.03,-7.12 2.05,-1.8 4.78,-2.09 6.28,-2.09 3.89,0 4.74,4.07 4.74,5.48 0,0.3 0,0.84 -0.64,0.84 -0.55,0 -0.55,-0.45 -0.61,-0.79 -0.3,-3.55 -2.03,-4.44 -3.28,-4.44 -2.44,0 -2.85,2.55 -3.55,7.17 l -0.64,3.99 c -0.89,3.18 -3.34,4.84 -6.08,5.78 z"
           inkscape:connector-curvature="0"
           style="fill:#000000;stroke-width:0" /><path
           id="path5021"
           d="m 497.77,417.71 0.05,1.05 c 0.29,7.42 4.48,8.66 6.18,8.66 5.13,0 5.63,-6.72 5.63,-8.66 l -11.81,0 -0.05,-1.05 13.91,0 c 1.09,0 1.23,0 1.23,1.05 0,4.92 -2.69,9.75 -8.91,9.75 -5.78,0 -10.37,-5.12 -10.37,-11.36 0,-6.67 5.23,-11.5 10.97,-11.5 6.08,0 8.31,5.53 8.31,6.47 0,0.5 -0.39,0.61 -0.64,0.61 -0.45,0 -0.55,-0.3 -0.66,-0.7 -1.73,-5.13 -6.22,-5.13 -6.72,-5.13 -2.5,0 -4.48,1.49 -5.62,3.33 -1.5,2.39 -1.5,5.69 -1.5,7.48 z"
           inkscape:connector-curvature="0"
           style="fill:#000000;stroke-width:0" /><path
           id="path5023"
           d="m 528.41,436.93 0,0.19 0.02,0.2 0.02,0.2 0.03,0.21 0.04,0.21 0.05,0.22 0.06,0.21 0.07,0.22 0.08,0.22 0.1,0.22 0.11,0.22 0.12,0.22 0.13,0.22 0.15,0.21 0.17,0.21 0.18,0.21 0.19,0.2 0.22,0.2 0.23,0.19 0.24,0.18 0.27,0.18 0.28,0.16 0.31,0.16 0.32,0.15 0.34,0.13 0.36,0.13 0.39,0.11 0.4,0.1 0.22,0.05 0.21,0.04 0.22,0.03 0.23,0.04 0.24,0.03 0.24,0.02 0.24,0.03 0.26,0.01 c 0.25,0.05 0.45,0.25 0.45,0.55 0,0.55 -0.41,0.55 -0.95,0.55 -4.99,0 -9.52,-2.53 -9.57,-6.22 l 0,-11.36 c 0,-1.94 0,-3.55 -2,-5.19 -1.73,-1.43 -3.64,-1.54 -4.73,-1.59 -0.25,-0.05 -0.44,-0.25 -0.44,-0.55 0,-0.5 0.3,-0.5 0.8,-0.54 3.28,-0.21 5.67,-1.99 6.22,-4.44 0.15,-0.55 0.15,-0.64 0.15,-2.44 l 0,-9.86 c 0,-2.09 0,-3.69 2.39,-5.58 1.94,-1.5 5.24,-2.04 7.18,-2.04 0.54,0 0.95,0 0.95,0.54 0,0.5 -0.32,0.5 -0.8,0.55 -3.14,0.2 -5.59,1.8 -6.23,4.33 -0.16,0.45 -0.16,0.54 -0.16,2.34 l 0,10.47 c 0,2.3 -0.39,3.14 -1.98,4.73 -1.05,1.05 -2.5,1.55 -3.9,1.94 4.1,1.14 5.88,3.44 5.88,6.33 z"
           inkscape:connector-curvature="0"
           style="fill:#000000;stroke-width:0" /><path
           id="path5025"
           d="m 563.04,417.96 0,0.37 -0.01,0.35 -0.02,0.35 -0.02,0.34 -0.07,0.65 -0.09,0.63 -0.11,0.59 -0.13,0.57 -0.16,0.54 -0.17,0.51 -0.2,0.49 -0.21,0.45 -0.23,0.44 -0.24,0.4 -0.26,0.38 -0.28,0.36 -0.28,0.33 -0.3,0.31 -0.31,0.29 -0.32,0.26 -0.33,0.24 -0.33,0.22 -0.35,0.2 -0.34,0.18 -0.36,0.16 -0.35,0.14 -0.36,0.12 -0.36,0.11 -0.36,0.09 -0.36,0.06 -0.36,0.06 -0.36,0.04 -0.35,0.02 -0.35,0 -0.05,-1.09 c 4.94,0 4.94,-6.53 4.94,-10.41 0,-1.84 0,-4.73 0.1,-5.57 l 0,0 c -4.38,-3.85 -8.22,-4.39 -10.21,-4.39 -3,0 -4.48,2.25 -4.48,5.43 0,2.44 1.29,7.82 2.89,10.36 2.33,3.64 5.03,4.58 6.76,4.58 l 0.05,1.09 c -6.81,0 -13.39,-7.12 -13.39,-14.14 0,-4.64 2.98,-8.42 8.06,-8.42 3.14,0 6.74,1.14 10.52,4.19 0.65,-2.64 2.3,-4.19 4.53,-4.19 2.64,0 4.19,2.74 4.19,3.53 0,0.36 -0.3,0.5 -0.6,0.5 -0.36,0 -0.5,-0.14 -0.65,-0.5 -0.89,-2.43 -2.69,-2.43 -2.78,-2.43 -1.55,0 -1.55,3.89 -1.55,5.07 0,1.05 0,1.16 0.5,1.75 4.69,5.88 5.73,11.66 5.73,11.71 0,0.11 -0.06,0.5 -0.61,0.5 -0.5,0 -0.5,-0.14 -0.75,-1.05 -0.89,-3.14 -2.53,-6.92 -4.87,-9.86 z"
           inkscape:connector-curvature="0"
           style="fill:#000000;stroke-width:0" /><path
           id="path5027"
           d="m 582.2,400.37 0,-0.19 -0.02,-0.2 -0.02,-0.2 -0.03,-0.21 -0.04,-0.21 -0.05,-0.21 -0.06,-0.22 -0.07,-0.22 -0.08,-0.22 -0.1,-0.22 -0.11,-0.22 -0.12,-0.22 -0.13,-0.21 -0.15,-0.22 -0.17,-0.21 -0.18,-0.21 -0.2,-0.2 -0.21,-0.19 -0.23,-0.19 -0.25,-0.19 -0.26,-0.17 -0.28,-0.17 -0.31,-0.15 -0.32,-0.15 -0.34,-0.14 -0.36,-0.12 -0.39,-0.12 -0.4,-0.1 -0.22,-0.04 -0.21,-0.04 -0.23,-0.04 -0.22,-0.03 -0.24,-0.03 -0.24,-0.03 -0.24,-0.02 -0.25,-0.02 c -0.25,-0.05 -0.44,-0.25 -0.44,-0.55 0,-0.54 0.54,-0.54 0.98,-0.54 4.84,0 9.47,2.43 9.52,6.21 l 0,11.36 c 0,1.96 0,3.55 2,5.19 1.75,1.45 3.64,1.55 4.73,1.6 0.25,0.04 0.46,0.25 0.46,0.54 0,0.5 -0.32,0.5 -0.8,0.55 -3.3,0.2 -5.69,2 -6.24,4.44 -0.15,0.54 -0.15,0.64 -0.15,2.43 l 0,9.88 c 0,2.08 0,3.69 -2.39,5.58 -1.99,1.54 -5.42,2.03 -7.13,2.03 -0.44,0 -0.98,0 -0.98,-0.55 0,-0.5 0.29,-0.5 0.79,-0.55 3.13,-0.18 5.58,-1.79 6.22,-4.32 0.16,-0.46 0.16,-0.55 0.16,-2.35 l 0,-10.47 c 0,-2.28 0.39,-3.12 1.98,-4.73 1.05,-1.03 2.5,-1.53 3.89,-1.94 -4.07,-1.14 -5.87,-3.44 -5.87,-6.33 z"
           inkscape:connector-curvature="0"
           style="fill:#000000;stroke-width:0" /></g>    </g>
  </g>
</svg>
