<?xml version="1.0" encoding="UTF-8" standalone="no"?>
<!-- Created with Inkscape (http://www.inkscape.org/) -->

<svg
   xmlns:ns0="http://www.iki.fi/pav/software/textext/"
   xmlns:dc="http://purl.org/dc/elements/1.1/"
   xmlns:cc="http://creativecommons.org/ns#"
   xmlns:rdf="http://www.w3.org/1999/02/22-rdf-syntax-ns#"
   xmlns:svg="http://www.w3.org/2000/svg"
   xmlns="http://www.w3.org/2000/svg"
   xmlns:sodipodi="http://sodipodi.sourceforge.net/DTD/sodipodi-0.dtd"
   xmlns:inkscape="http://www.inkscape.org/namespaces/inkscape"
   width="307.49219"
   height="149.47047"
   id="svg2"
   version="1.1"
   inkscape:version="0.91 r13725"
   sodipodi:docname="figure108.svg">
  <sodipodi:namedview
     id="base"
     pagecolor="#ffffff"
     bordercolor="#666666"
     borderopacity="1.0"
     inkscape:pageopacity="0.0"
     inkscape:pageshadow="2"
     inkscape:zoom="1.22"
     inkscape:cx="-30.21594"
     inkscape:cy="53.543858"
     inkscape:document-units="px"
     inkscape:current-layer="layer1"
     showgrid="true"
     units="in"
     width="11cm"
     inkscape:window-width="1536"
     inkscape:window-height="803"
     inkscape:window-x="-8"
     inkscape:window-y="-8"
     inkscape:window-maximized="1"
     fit-margin-top="0"
     fit-margin-left="0"
     fit-margin-right="0"
     fit-margin-bottom="0"
     inkscape:snap-grids="true">
    <inkscape:grid
       spacingy="2px"
       spacingx="2px"
       snapvisiblegridlinesonly="true"
       enabled="true"
       visible="true"
       empspacing="5"
       id="grid2984"
       type="xygrid"
       originx="-189.5"
       originy="-163.7578" />
  </sodipodi:namedview>
  <defs
     id="defs4">
    <marker
       inkscape:stockid="Arrow2Lend"
       orient="auto"
       refY="0"
       refX="0"
       id="Arrow2Lend"
       style="overflow:visible">
      <path
         id="path3968"
         style="fill-rule:evenodd;stroke-width:0.625;stroke-linejoin:round"
         d="M 8.7185878,4.0337352 -2.2072895,0.01601326 8.7185884,-4.0017078 c -1.7454984,2.3720609 -1.7354408,5.6174519 -6e-7,8.035443 z"
         transform="matrix(-1.1,0,0,-1.1,-1.1,0)"
         inkscape:connector-curvature="0" />
    </marker>
    <marker
       inkscape:stockid="Arrow2Mend"
       orient="auto"
       refY="0"
       refX="0"
       id="Arrow2Mend"
       style="overflow:visible">
      <path
         inkscape:connector-curvature="0"
         id="path3966"
         style="fill-rule:evenodd;stroke-width:0.625;stroke-linejoin:round"
         d="M 8.7185878,4.0337352 -2.2072895,0.01601326 8.7185884,-4.0017078 c -1.7454984,2.3720609 -1.7354408,5.6174519 -6e-7,8.035443 z"
         transform="scale(-0.6,-0.6)" />
    </marker>
  </defs>
  <metadata
     id="metadata7">
    <rdf:RDF>
      <cc:Work
         rdf:about="">
        <dc:format>image/svg+xml</dc:format>
        <dc:type
           rdf:resource="http://purl.org/dc/dcmitype/StillImage" />
        <dc:title></dc:title>
      </cc:Work>
    </rdf:RDF>
  </metadata>
  <g
     inkscape:label="Layer 1"
     inkscape:groupmode="layer"
     id="layer1"
     transform="translate(-126.47164,-762.81896)">
    <path
       sodipodi:nodetypes="ccccc"
       transform="translate(-63.028358,665.51153)"
       inkscape:connector-curvature="0"
       id="path9381"
       d="m 190,140.53571 0,70 180,0 0,-70 z"
       style="fill:none;stroke:#000000;stroke-width:1px;stroke-linecap:butt;stroke-linejoin:miter;stroke-opacity:1" />
    <path
       sodipodi:nodetypes="csssssssssc"
       transform="translate(-63.028358,665.51153)"
       inkscape:connector-curvature="0"
       id="path9383"
       d="m 190,170.53571 c 0,0 0,20 10,20 20,0 0,-30 20,-30 20,0 0.0596,29.75001 20,30 20.05965,0.25149 0,-30 20,-30 20,0 0,30 20,30 20.18053,0 0,-30 20,-30 20,0 0,30 20,30 20,0 0,-30 20,-30 20,0 0,30.00001 20,30 9.36484,0 10,-20 10,-20"
       style="fill:none;stroke:#000000;stroke-width:1px;stroke-linecap:butt;stroke-linejoin:miter;stroke-opacity:1" />
    <path
       sodipodi:nodetypes="cc"
       transform="translate(-63.028358,665.51153)"
       inkscape:connector-curvature="0"
       id="path9385"
       d="m 190,110.53571 0,20"
       style="fill:none;stroke:#000000;stroke-width:1px;stroke-linecap:butt;stroke-linejoin:miter;stroke-opacity:1" />
    <path
       sodipodi:nodetypes="cc"
       transform="translate(-63.028358,665.51153)"
       inkscape:connector-curvature="0"
       id="path9387"
       d="m 190,120.53571 180,0"
       style="fill:none;stroke:#000000;stroke-width:1px;stroke-linecap:butt;stroke-linejoin:miter;stroke-opacity:1" />
    <path
       sodipodi:nodetypes="cc"
       transform="translate(-63.028358,665.51153)"
       inkscape:connector-curvature="0"
       id="path9389"
       d="m 370,110.53571 0,20"
       style="fill:none;stroke:#000000;stroke-width:1px;stroke-linecap:butt;stroke-linejoin:miter;stroke-opacity:1" />
    <g
       ns0:preamble=""
       ns0:text="$\\ell$"
       word-spacing="normal"
       letter-spacing="normal"
       font-size-adjust="none"
       font-stretch="normal"
       font-weight="normal"
       font-variant="normal"
       font-style="normal"
       stroke-miterlimit="10.433"
       xml:space="preserve"
       transform="matrix(2.5950029,0,0,-2.5950029,-364.02859,2486.5237)"
       id="content"
       style="font-style:normal;font-variant:normal;font-weight:normal;font-stretch:normal;letter-spacing:normal;word-spacing:normal;text-anchor:start;fill:none;stroke:#000000;stroke-linecap:butt;stroke-linejoin:miter;stroke-miterlimit:10.43299961;stroke-dasharray:none;stroke-dashoffset:0;stroke-opacity:1"><path
         id="path9405"
         d="m 223.59,658.22 0,-0.01 -0.01,0 0,-0.01 -0.01,0 0,-0.01 0,-0.01 -0.01,0 0,-0.01 -0.01,0 0,-0.01 0,0 0,0 0,-0.01 0,0 0,0 -0.01,-0.01 0,0 0,0 0,-0.01 0,0 0,0 0,-0.01 0,0 c 0,-0.05 0.06,-0.13 0.12,-0.13 0.05,0 0.08,0.03 0.36,0.31 0.08,0.07 0.28,0.26 0.36,0.34 0.1,-0.79 0.38,-1.52 1.11,-1.52 0.4,0 0.75,0.22 0.96,0.37 0.14,0.1 0.6,0.49 0.6,0.59 0,0.03 -0.03,0.12 -0.12,0.12 -0.03,0 -0.04,-0.01 -0.13,-0.09 -0.63,-0.63 -1,-0.78 -1.29,-0.78 -0.45,0 -0.61,0.52 -0.61,1.3 0,0.05 0.02,0.51 0.05,0.56 0.02,0.03 0.02,0.05 0.22,0.25 0.81,0.8 2.22,2.48 2.22,4.02 0,0.17 0,0.78 -0.59,0.78 l 0.02,-0.22 c 0.33,0 0.33,-0.36 0.33,-0.52 0,-1.66 -1.67,-3.39 -2.15,-3.89 l 0,0 c 0.02,0.11 0.45,2.31 1.02,3.48 0.27,0.53 0.48,0.93 0.8,0.93 l -0.02,0.22 c -0.82,0 -1.56,-1.64 -1.66,-1.87 -0.47,-1.08 -0.78,-2.24 -0.78,-3.43 z"
         inkscape:connector-curvature="0"
         style="fill:#000000;stroke-width:0" /></g>    <path
       style="fill:none;stroke:#000000;stroke-width:1px;stroke-linecap:butt;stroke-linejoin:miter;stroke-opacity:1;marker-end:url(#Arrow2Lend)"
       d="m 400,210.53571 -40,-20"
       id="path9420"
       inkscape:connector-curvature="0"
       transform="translate(-63.028358,665.51153)" />
    <text
       xml:space="preserve"
       style="font-style:normal;font-variant:normal;font-weight:500;font-stretch:normal;font-size:16px;line-height:100%;font-family:Rekha;-inkscape-font-specification:'Rekha Medium';text-align:start;letter-spacing:0px;word-spacing:0px;writing-mode:lr-tb;text-anchor:start;fill:#000000;fill-opacity:1;stroke:none"
       x="336.97165"
       y="876.04724"
       id="text9422"
       sodipodi:linespacing="100%"><tspan
         sodipodi:role="line"
         id="tspan9424"
         x="336.97165"
         y="876.04724">these will</tspan><tspan
         sodipodi:role="line"
         x="336.97165"
         y="892.04724"
         id="tspan9432">be amplified</tspan></text>
    <text
       xml:space="preserve"
       style="font-style:normal;font-variant:normal;font-weight:500;font-stretch:normal;font-size:16px;line-height:100%;font-family:Rekha;-inkscape-font-specification:'Rekha Medium';text-align:start;letter-spacing:0px;word-spacing:0px;writing-mode:lr-tb;text-anchor:start;fill:#000000;fill-opacity:1;stroke:none"
       x="156.97165"
       y="896.04724"
       id="text9426"
       sodipodi:linespacing="100%"><tspan
         sodipodi:role="line"
         id="tspan9428"
         x="156.97165"
         y="896.04724">standing waves are </tspan><tspan
         sodipodi:role="line"
         x="156.97165"
         y="912.04724"
         id="tspan9430">     formed</tspan></text>
  </g>
</svg>
