<?xml version="1.0" encoding="UTF-8" standalone="no"?>
<!-- Created with Inkscape (http://www.inkscape.org/) -->

<svg
   xmlns:dc="http://purl.org/dc/elements/1.1/"
   xmlns:cc="http://creativecommons.org/ns#"
   xmlns:rdf="http://www.w3.org/1999/02/22-rdf-syntax-ns#"
   xmlns:svg="http://www.w3.org/2000/svg"
   xmlns="http://www.w3.org/2000/svg"
   xmlns:sodipodi="http://sodipodi.sourceforge.net/DTD/sodipodi-0.dtd"
   xmlns:inkscape="http://www.inkscape.org/namespaces/inkscape"
   width="333.31122"
   height="240.97328"
   id="svg2"
   version="1.1"
   inkscape:version="0.91 r13725"
   sodipodi:docname="figure179edit1.svg">
  <sodipodi:namedview
     id="base"
     pagecolor="#ffffff"
     bordercolor="#666666"
     borderopacity="1.0"
     inkscape:pageopacity="0.0"
     inkscape:pageshadow="2"
     inkscape:zoom="1.9924569"
     inkscape:cx="114.79362"
     inkscape:cy="139.25564"
     inkscape:document-units="px"
     inkscape:current-layer="layer1"
     showgrid="true"
     units="in"
     width="11cm"
     inkscape:window-width="1536"
     inkscape:window-height="803"
     inkscape:window-x="-8"
     inkscape:window-y="-8"
     inkscape:window-maximized="1"
     fit-margin-top="0"
     fit-margin-left="0"
     fit-margin-right="0"
     fit-margin-bottom="0"
     inkscape:snap-grids="false">
    <inkscape:grid
       originy="-130.93848"
       originx="-61.376648"
       type="xygrid"
       id="grid2984"
       empspacing="5"
       visible="true"
       enabled="true"
       snapvisiblegridlinesonly="true"
       spacingx="2px"
       spacingy="2px" />
  </sodipodi:namedview>
  <defs
     id="defs4">
    <marker
       inkscape:stockid="Arrow2Lstart"
       orient="auto"
       refY="0"
       refX="0"
       id="Arrow2Lstart"
       style="overflow:visible">
      <path
         inkscape:connector-curvature="0"
         id="path3878"
         style="fill-rule:evenodd;stroke-width:0.625;stroke-linejoin:round"
         d="M 8.7185878,4.0337352 -2.2072895,0.01601326 8.7185884,-4.0017078 c -1.7454984,2.3720609 -1.7354408,5.6174519 -6e-7,8.035443 z"
         transform="matrix(1.1,0,0,1.1,1.1,0)" />
    </marker>
    <marker
       inkscape:stockid="Arrow2Lend"
       orient="auto"
       refY="0"
       refX="0"
       id="Arrow2Lend"
       style="overflow:visible">
      <path
         inkscape:connector-curvature="0"
         id="path3881"
         style="fill-rule:evenodd;stroke-width:0.625;stroke-linejoin:round"
         d="M 8.7185878,4.0337352 -2.2072895,0.01601326 8.7185884,-4.0017078 c -1.7454984,2.3720609 -1.7354408,5.6174519 -6e-7,8.035443 z"
         transform="matrix(-1.1,0,0,-1.1,-1.1,0)" />
    </marker>
    <marker
       style="overflow:visible"
       id="Arrow2Mend"
       refX="0"
       refY="0"
       orient="auto"
       inkscape:stockid="Arrow2Mend">
      <path
         transform="scale(-0.6,-0.6)"
         d="M 8.7185878,4.0337352 -2.2072895,0.01601326 8.7185884,-4.0017078 c -1.7454984,2.3720609 -1.7354408,5.6174519 -6e-7,8.035443 z"
         style="fill-rule:evenodd;stroke-width:0.625;stroke-linejoin:round"
         id="path3966"
         inkscape:connector-curvature="0" />
    </marker>
  </defs>
  <metadata
     id="metadata7">
    <rdf:RDF>
      <cc:Work
         rdf:about="">
        <dc:format>image/svg+xml</dc:format>
        <dc:type
           rdf:resource="http://purl.org/dc/dcmitype/StillImage" />
        <dc:title></dc:title>
      </cc:Work>
    </rdf:RDF>
  </metadata>
  <g
     transform="translate(1.6517071,-704.13549)"
     id="layer1"
     inkscape:groupmode="layer"
     inkscape:label="Layer 1">
    <path
       style="fill:none;stroke:#000000;stroke-width:1px;stroke-linecap:butt;stroke-linejoin:miter;stroke-opacity:1;marker-start:url(#Arrow2Lstart);marker-end:url(#Arrow2Lend)"
       d="m 130,39.951977 0,200.583733 263.35984,0"
       id="path4800"
       inkscape:connector-curvature="0"
       transform="translate(-63.028358,665.51153)"
       sodipodi:nodetypes="ccc" />
    <path
       style="fill:none;stroke:#000000;stroke-width:1px;stroke-linecap:butt;stroke-linejoin:miter;stroke-opacity:1"
       d="m 66.561005,855.98421 10,0"
       id="path4804"
       inkscape:connector-curvature="0"
       sodipodi:nodetypes="cc" />
    <path
       style="fill:none;stroke:#000000;stroke-width:1px;stroke-linecap:butt;stroke-linejoin:miter;stroke-opacity:1"
       d="m 66.561005,796.28125 10,0"
       id="path4806"
       inkscape:connector-curvature="0"
       sodipodi:nodetypes="cc" />
    <path
       style="fill:none;stroke:#000000;stroke-width:1px;stroke-linecap:butt;stroke-linejoin:miter;stroke-opacity:1"
       d="m 67.382279,737.16897 10,0"
       id="path4808"
       inkscape:connector-curvature="0"
       sodipodi:nodetypes="cc" />
    <path
       style="fill:none;stroke:#000000;stroke-width:1px;stroke-linecap:butt;stroke-linejoin:miter;stroke-opacity:1"
       d="m 123.31885,905.6366 0,-10"
       id="path4810"
       inkscape:connector-curvature="0"
       sodipodi:nodetypes="cc" />
    <path
       style="fill:none;stroke:#000000;stroke-width:1px;stroke-linecap:butt;stroke-linejoin:miter;stroke-opacity:1"
       d="m 166.85805,905.7481 0,-10"
       id="path4812"
       inkscape:connector-curvature="0" />
    <path
       style="fill:none;stroke:#000000;stroke-width:1px;stroke-linecap:butt;stroke-linejoin:miter;stroke-opacity:1"
       d="m 212.09003,905.74809 0,-10"
       id="path4814"
       inkscape:connector-curvature="0" />
    <path
       style="fill:none;stroke:#000000;stroke-width:1px;stroke-linecap:butt;stroke-linejoin:miter;stroke-opacity:1"
       d="m 257.11635,906.35088 0,-10"
       id="path4816"
       inkscape:connector-curvature="0" />
    <text
       xml:space="preserve"
       style="font-style:normal;font-variant:normal;font-weight:500;font-stretch:normal;font-size:16px;line-height:100%;font-family:Rekha;-inkscape-font-specification:'Rekha Medium';text-align:start;letter-spacing:0px;word-spacing:0px;writing-mode:lr-tb;text-anchor:start;fill:#000000;fill-opacity:1;stroke:none"
       x="112.86527"
       y="893.30963"
       id="text4818"
       sodipodi:linespacing="100%"><tspan
         sodipodi:role="line"
         id="tspan4820"
         x="112.86527"
         y="893.30963">Mn</tspan></text>
    <text
       xml:space="preserve"
       style="font-style:normal;font-variant:normal;font-weight:500;font-stretch:normal;font-size:16px;line-height:100%;font-family:Rekha;-inkscape-font-specification:'Rekha Medium';text-align:start;letter-spacing:0px;word-spacing:0px;writing-mode:lr-tb;text-anchor:start;fill:#000000;fill-opacity:1;stroke:none"
       x="158.47002"
       y="892.89899"
       id="text4822"
       sodipodi:linespacing="100%"><tspan
         sodipodi:role="line"
         id="tspan4824"
         x="158.47002"
         y="892.89899">Fe</tspan></text>
    <text
       xml:space="preserve"
       style="font-style:normal;font-variant:normal;font-weight:500;font-stretch:normal;font-size:16px;line-height:100%;font-family:Rekha;-inkscape-font-specification:'Rekha Medium';text-align:start;letter-spacing:0px;word-spacing:0px;writing-mode:lr-tb;text-anchor:start;fill:#000000;fill-opacity:1;stroke:none"
       x="204.0972"
       y="892.81531"
       id="text4826"
       sodipodi:linespacing="100%"><tspan
         sodipodi:role="line"
         id="tspan4828"
         x="204.0972"
         y="892.81531">Co</tspan></text>
    <text
       xml:space="preserve"
       style="font-style:normal;font-variant:normal;font-weight:500;font-stretch:normal;font-size:16px;line-height:100%;font-family:Rekha;-inkscape-font-specification:'Rekha Medium';text-align:start;letter-spacing:0px;word-spacing:0px;writing-mode:lr-tb;text-anchor:start;fill:#000000;fill-opacity:1;stroke:none"
       x="249.58018"
       y="894.81531"
       id="text4830"
       sodipodi:linespacing="100%"><tspan
         sodipodi:role="line"
         id="tspan4832"
         x="249.58018"
         y="894.81531">Ni</tspan></text>
    <text
       xml:space="preserve"
       style="font-style:normal;font-variant:normal;font-weight:500;font-stretch:normal;font-size:16px;line-height:100%;font-family:Rekha;-inkscape-font-specification:'Rekha Medium';text-align:start;letter-spacing:0px;word-spacing:0px;writing-mode:lr-tb;text-anchor:start;fill:#000000;fill-opacity:1;stroke:none"
       x="119.16853"
       y="922.4848"
       id="text4834"
       sodipodi:linespacing="100%"><tspan
         sodipodi:role="line"
         id="tspan4836"
         x="119.16853"
         y="922.4848">7</tspan></text>
    <text
       xml:space="preserve"
       style="font-style:normal;font-variant:normal;font-weight:500;font-stretch:normal;font-size:16px;line-height:100%;font-family:Rekha;-inkscape-font-specification:'Rekha Medium';text-align:start;letter-spacing:0px;word-spacing:0px;writing-mode:lr-tb;text-anchor:start;fill:#000000;fill-opacity:1;stroke:none"
       x="163.44522"
       y="921.76605"
       id="text4838"
       sodipodi:linespacing="100%"><tspan
         sodipodi:role="line"
         id="tspan4840"
         x="163.44522"
         y="921.76605">8</tspan></text>
    <text
       xml:space="preserve"
       style="font-style:normal;font-variant:normal;font-weight:500;font-stretch:normal;font-size:16px;line-height:100%;font-family:Rekha;-inkscape-font-specification:'Rekha Medium';text-align:start;letter-spacing:0px;word-spacing:0px;writing-mode:lr-tb;text-anchor:start;fill:#000000;fill-opacity:1;stroke:none"
       x="208.55777"
       y="922.43976"
       id="text4842"
       sodipodi:linespacing="100%"><tspan
         sodipodi:role="line"
         id="tspan4844"
         x="208.55777"
         y="922.43976">9</tspan></text>
    <path
       style="fill:none;stroke:#000000;stroke-width:1px;stroke-linecap:butt;stroke-linejoin:miter;stroke-opacity:1"
       d="m 76.971642,905.6366 0,-10"
       id="path4846"
       inkscape:connector-curvature="0"
       sodipodi:nodetypes="cc" />
    <text
       xml:space="preserve"
       style="font-style:normal;font-variant:normal;font-weight:500;font-stretch:normal;font-size:16px;line-height:100%;font-family:Rekha;-inkscape-font-specification:'Rekha Medium';text-align:start;letter-spacing:0px;word-spacing:0px;writing-mode:lr-tb;text-anchor:start;fill:#000000;fill-opacity:1;stroke:none"
       x="69.435463"
       y="894.40466"
       id="text4848"
       sodipodi:linespacing="100%"><tspan
         sodipodi:role="line"
         id="tspan4850"
         x="69.435463"
         y="894.40466">Cr</tspan></text>
    <path
       style="fill:none;stroke:#000000;stroke-width:1;stroke-linecap:butt;stroke-linejoin:miter;stroke-miterlimit:4;stroke-dasharray:6, 6;stroke-dashoffset:0;stroke-opacity:1"
       d="m 154.02307,221.73323 c 0.70787,2.83148 19.69301,-24.86751 43.72248,-50.46643 30.72269,-32.7293 40.16171,-56.61597 46.42006,-58.13049 11.76966,-2.84826 19.34462,36.53597 39.81428,62.29383 25.94413,32.64662 71.62177,63.3379 71.62177,63.3379"
       id="path4915"
       inkscape:connector-curvature="0"
       transform="translate(-63.028358,665.51153)"
       sodipodi:nodetypes="csssc" />
    <path
       sodipodi:type="arc"
       style="fill:#000000;stroke:#000000;stroke-width:1.56666315;stroke-miterlimit:4;stroke-dasharray:none;stroke-dashoffset:0;stroke-opacity:1"
       id="path4852"
       sodipodi:cx="122.57111"
       sodipodi:cy="850.80878"
       sodipodi:rx="3.2166495"
       sodipodi:ry="3.2166495"
       d="m 119.35712,850.93951 a 3.2166495,3.2166495 0 0 1 3.0828,-3.34471 3.2166495,3.2166495 0 0 1 3.34515,3.08232 3.2166495,3.2166495 0 0 1 -3.08184,3.34559 3.2166495,3.2166495 0 0 1 -3.34603,-3.08135"
       sodipodi:start="3.1009386"
       sodipodi:end="3.1003632"
       sodipodi:open="true" />
    <path
       sodipodi:type="arc"
       style="fill:#000000;stroke:#000000;stroke-width:1.56666315;stroke-miterlimit:4;stroke-dasharray:none;stroke-dashoffset:0;stroke-opacity:1"
       id="path4852-8"
       sodipodi:cx="166.98651"
       sodipodi:cy="796.99542"
       sodipodi:rx="3.2166495"
       sodipodi:ry="3.2166495"
       d="m 163.77252,797.12616 a 3.2166495,3.2166495 0 0 1 3.0828,-3.34471 3.2166495,3.2166495 0 0 1 3.34515,3.08231 3.2166495,3.2166495 0 0 1 -3.08184,3.3456 3.2166495,3.2166495 0 0 1 -3.34603,-3.08135"
       sodipodi:start="3.1009386"
       sodipodi:end="3.1003632"
       sodipodi:open="true" />
    <path
       sodipodi:type="arc"
       style="fill:#000000;stroke:#000000;stroke-width:1.56666315;stroke-miterlimit:4;stroke-dasharray:none;stroke-dashoffset:0;stroke-opacity:1"
       id="path4852-8-2"
       sodipodi:cx="210.57787"
       sodipodi:cy="824.78204"
       sodipodi:rx="3.2166495"
       sodipodi:ry="3.2166495"
       d="m 207.36387,824.91278 a 3.2166495,3.2166495 0 0 1 3.0828,-3.34471 3.2166495,3.2166495 0 0 1 3.34515,3.08231 3.2166495,3.2166495 0 0 1 -3.08183,3.3456 3.2166495,3.2166495 0 0 1 -3.34604,-3.08135"
       sodipodi:start="3.1009386"
       sodipodi:end="3.1003632"
       sodipodi:open="true" />
    <path
       sodipodi:type="arc"
       style="fill:#000000;stroke:#000000;stroke-width:1.56666315;stroke-miterlimit:4;stroke-dasharray:none;stroke-dashoffset:0;stroke-opacity:1"
       id="path4852-8-1"
       sodipodi:cx="257.32846"
       sodipodi:cy="876.53845"
       sodipodi:rx="3.2166495"
       sodipodi:ry="3.2166495"
       d="m 254.11447,876.66919 a 3.2166495,3.2166495 0 0 1 3.08279,-3.34471 3.2166495,3.2166495 0 0 1 3.34515,3.08231 3.2166495,3.2166495 0 0 1 -3.08183,3.3456 3.2166495,3.2166495 0 0 1 -3.34604,-3.08135"
       sodipodi:start="3.1009386"
       sodipodi:end="3.1003632"
       sodipodi:open="true" />
    <path
       sodipodi:type="arc"
       style="fill:#000000;stroke:#000000;stroke-width:1.56666315;stroke-miterlimit:4;stroke-dasharray:none;stroke-dashoffset:0;stroke-opacity:1"
       id="path4852-8-1-3"
       sodipodi:cx="183.29384"
       sodipodi:cy="777.20105"
       sodipodi:rx="3.2166495"
       sodipodi:ry="3.2166495"
       d="m 180.07985,777.33178 a 3.2166495,3.2166495 0 0 1 3.08279,-3.3447 3.2166495,3.2166495 0 0 1 3.34515,3.08231 3.2166495,3.2166495 0 0 1 -3.08183,3.34559 3.2166495,3.2166495 0 0 1 -3.34604,-3.08135"
       sodipodi:start="3.1009386"
       sodipodi:end="3.1003632"
       sodipodi:open="true" />
    <text
       xml:space="preserve"
       style="font-style:normal;font-variant:normal;font-weight:500;font-stretch:normal;font-size:16px;line-height:100%;font-family:Rekha;-inkscape-font-specification:'Rekha Medium';text-align:start;letter-spacing:0px;word-spacing:0px;writing-mode:lr-tb;text-anchor:start;fill:#000000;fill-opacity:1;stroke:none"
       x="51.10099"
       y="860.49835"
       id="text4917"
       sodipodi:linespacing="100%"><tspan
         sodipodi:role="line"
         id="tspan4919"
         x="51.10099"
         y="860.49835">1</tspan></text>
    <text
       xml:space="preserve"
       style="font-style:normal;font-variant:normal;font-weight:500;font-stretch:normal;font-size:16px;line-height:100%;font-family:Rekha;-inkscape-font-specification:'Rekha Medium';text-align:start;letter-spacing:0px;word-spacing:0px;writing-mode:lr-tb;text-anchor:start;fill:#000000;fill-opacity:1;stroke:none"
       x="52.281631"
       y="800.13373"
       id="text4921"
       sodipodi:linespacing="100%"><tspan
         sodipodi:role="line"
         id="tspan4923"
         x="52.281631"
         y="800.13373">2</tspan></text>
    <text
       xml:space="preserve"
       style="font-style:normal;font-variant:normal;font-weight:500;font-stretch:normal;font-size:16px;line-height:100%;font-family:Rekha;-inkscape-font-specification:'Rekha Medium';text-align:start;letter-spacing:0px;word-spacing:0px;writing-mode:lr-tb;text-anchor:start;fill:#000000;fill-opacity:1;stroke:none"
       x="52.991409"
       y="741.22168"
       id="text4925"
       sodipodi:linespacing="100%"><tspan
         sodipodi:role="line"
         id="tspan4927"
         x="52.991409"
         y="741.22168">3</tspan></text>
    <path
       style="fill:none;stroke:#000000;stroke-width:1px;stroke-linecap:butt;stroke-linejoin:miter;stroke-opacity:1;marker-start:url(#Arrow2Lstart);marker-end:none"
       d="m 323.66139,205.4082 9.93697,-15.61524"
       id="path4929"
       inkscape:connector-curvature="0"
       transform="translate(-63.028358,665.51153)" />
    <text
       xml:space="preserve"
       style="font-style:normal;font-variant:normal;font-weight:500;font-stretch:normal;font-size:16px;line-height:100%;font-family:Rekha;-inkscape-font-specification:'Rekha Medium';text-align:start;letter-spacing:0px;word-spacing:0px;writing-mode:lr-tb;text-anchor:start;fill:#000000;fill-opacity:1;stroke:none"
       x="272.69937"
       y="854.59473"
       id="text4931"
       sodipodi:linespacing="100%"><tspan
         sodipodi:role="line"
         id="tspan4933"
         x="272.69937"
         y="854.59473">0.6</tspan></text>
    <text
       xml:space="preserve"
       style="font-style:normal;font-variant:normal;font-weight:500;font-stretch:normal;font-size:16px;line-height:100%;font-family:Rekha;-inkscape-font-specification:'Rekha Medium';text-align:start;letter-spacing:0px;word-spacing:0px;writing-mode:lr-tb;text-anchor:start;fill:#000000;fill-opacity:1;stroke:none"
       x="91.644768"
       y="944.86658"
       id="text6007"
       sodipodi:linespacing="100%"><tspan
         sodipodi:role="line"
         id="tspan6009"
         x="91.644768"
         y="944.86658">3d Electron Concentration</tspan></text>
    <g
       id="g4282"
       transform="matrix(1.6685379,0,0,1.6685379,-164.60626,697.48713)">
      <g
         word-spacing="normal"
         letter-spacing="normal"
         font-size-adjust="none"
         font-stretch="normal"
         font-weight="normal"
         font-variant="normal"
         font-style="normal"
         stroke-miterlimit="10.433"
         xml:space="preserve"
         transform="matrix(0.35281897,0,0,-0.35281897,-61.74332,208.78997)"
         id="content"
         style="font-style:normal;font-variant:normal;font-weight:normal;font-stretch:normal;letter-spacing:normal;word-spacing:normal;text-anchor:start;fill:none;fill-opacity:1;fill-rule:evenodd;stroke:#000000;stroke-linecap:butt;stroke-linejoin:miter;stroke-miterlimit:10.43299961;stroke-dasharray:none;stroke-dashoffset:0;stroke-opacity:1"><path
           id="path4285"
           d="m 478.16,422.79 -0.02,-0.05 -0.01,-0.04 -0.01,-0.05 -0.01,-0.04 0,-0.04 -0.01,-0.04 -0.01,-0.03 -0.01,-0.04 0,-0.03 -0.01,-0.03 0,-0.03 -0.01,-0.03 0,-0.03 -0.01,-0.02 0,-0.03 0,-0.02 -0.01,-0.02 0,-0.02 0,-0.02 0,-0.02 0,-0.01 -0.01,-0.01 0,-0.02 0,-0.01 0,-0.01 0,-0.01 0,-0.01 0,-0.01 0,0 0,-0.01 0,0 0,-0.01 c 0,-0.76 0.63,-1.1 1.17,-1.1 1.27,0 1.53,1.14 1.68,1.73 0.07,0.17 0.76,2.97 1.6,6.37 1.08,-0.71 2.47,-1 3.74,-1 2.98,0 4.94,2.44 5.01,2.5 0.66,-2.4 3.07,-2.5 3.58,-2.5 1.27,0 2.13,0.77 2.77,1.85 0.76,1.36 1.22,3.34 1.22,3.48 0,0.46 -0.46,0.46 -0.57,0.46 -0.48,0 -0.53,-0.14 -0.76,-1.08 -0.42,-1.67 -1.08,-3.74 -2.55,-3.74 -0.9,0 -1.15,0.77 -1.15,1.71 0,0.59 0.28,1.86 0.53,2.76 0.25,0.94 0.59,2.36 0.76,3.13 l 0.8,3.11 c 0.22,0.87 0.59,2.4 0.59,2.57 0,0.69 -0.54,1.11 -1.14,1.11 -0.39,0 -1.04,-0.17 -1.43,-0.82 -0.11,-0.22 -0.38,-1.33 -0.57,-2.04 l -0.72,-2.89 -1.07,-4.36 c -0.25,-0.85 -0.25,-0.93 -0.57,-1.39 -1.07,-1.53 -2.61,-2.89 -4.61,-2.89 -2.84,0 -2.84,2.47 -2.84,3.11 0,0.91 0.09,1.36 0.59,3.24 0.35,1.53 0.41,1.78 0.77,3.14 l 0.48,1.95 c 0.18,0.72 0.52,2.05 0.52,2.19 0,0.62 -0.48,1.11 -1.19,1.11 -1.25,0 -1.56,-1.22 -1.67,-1.63 z"
           inkscape:connector-curvature="0"
           style="fill:#000000;stroke-width:0" /><polyline
           id="polyline4287"
           points="462,418 515.76,418 515.76,420.04 462,420.04 "
           style="fill:#000000;fill-rule:nonzero;stroke-width:0" /><path
           id="path4289"
           d="m 463.39,383.43 -0.01,-0.05 -0.01,-0.04 -0.01,-0.05 -0.01,-0.04 0,-0.04 -0.01,-0.04 -0.01,-0.03 -0.01,-0.04 0,-0.03 -0.01,-0.03 0,-0.03 -0.01,-0.03 0,-0.03 -0.01,-0.02 0,-0.03 0,-0.02 -0.01,-0.02 0,-0.02 0,-0.02 0,-0.01 0,-0.02 -0.01,-0.01 0,-0.02 0,-0.01 0,-0.01 0,-0.01 0,-0.01 0,-0.01 0,0 0,-0.01 0,0 0,0 c 0,-0.77 0.62,-1.11 1.17,-1.11 1.27,0 1.53,1.14 1.67,1.73 0.08,0.17 0.77,2.97 1.61,6.38 1.08,-0.72 2.47,-1 3.74,-1 2.98,0 4.93,2.43 5.01,2.5 0.66,-2.41 3.07,-2.5 3.58,-2.5 1.27,0 2.13,0.76 2.77,1.84 0.76,1.36 1.22,3.34 1.22,3.48 0,0.46 -0.46,0.46 -0.57,0.46 -0.48,0 -0.53,-0.14 -0.76,-1.08 -0.42,-1.67 -1.08,-3.74 -2.55,-3.74 -0.91,0 -1.16,0.77 -1.16,1.71 0,0.59 0.29,1.86 0.54,2.76 0.25,0.94 0.59,2.36 0.76,3.13 l 0.8,3.11 c 0.22,0.87 0.59,2.4 0.59,2.58 0,0.68 -0.55,1.1 -1.14,1.1 -0.39,0 -1.05,-0.17 -1.44,-0.82 -0.11,-0.22 -0.37,-1.33 -0.56,-2.03 l -0.72,-2.9 -1.08,-4.35 c -0.25,-0.86 -0.25,-0.94 -0.56,-1.4 -1.08,-1.53 -2.61,-2.89 -4.61,-2.89 -2.84,0 -2.84,2.47 -2.84,3.11 0,0.91 0.09,1.36 0.59,3.24 0.35,1.53 0.41,1.78 0.77,3.14 l 0.48,1.95 c 0.17,0.72 0.52,2.05 0.52,2.19 0,0.62 -0.49,1.11 -1.19,1.11 -1.25,0 -1.56,-1.22 -1.67,-1.63 z"
           inkscape:connector-curvature="0"
           style="fill:#000000;stroke-width:0" /><path
           id="path4291"
           d="m 491.93,386.06 -0.01,-0.07 -0.02,-0.06 -0.02,-0.06 -0.01,-0.06 -0.02,-0.06 -0.02,-0.05 -0.02,-0.05 -0.02,-0.05 -0.02,-0.04 -0.03,-0.05 -0.03,-0.04 -0.03,-0.03 -0.03,-0.04 -0.04,-0.03 -0.04,-0.03 -0.05,-0.03 -0.06,-0.02 -0.05,-0.03 -0.07,-0.02 -0.07,-0.02 -0.03,0 -0.04,-0.01 -0.04,-0.01 -0.05,-0.01 -0.04,-0.01 -0.05,0 -0.05,-0.01 -0.04,0 -0.06,-0.01 -0.05,0 -0.06,-0.01 -0.06,0 -0.06,-0.01 -0.06,0 -0.06,0 -0.07,-0.01 -0.07,0 -0.07,0 -0.08,0 -0.07,0 -0.08,0 -0.08,0 -0.09,0 -0.09,0 c -0.65,0 -1.04,0 -1.04,-0.71 0,-0.42 0.39,-0.42 0.83,-0.42 l 10.82,0 c 4.49,0 8.13,2.8 8.13,5.28 0,1.55 -1.45,3.22 -4.85,3.64 2.47,0.31 5.99,1.97 5.99,4.46 0,2.09 -2.47,3.64 -5.86,3.64 l -0.44,-1.13 c 2.47,0 3.64,-1.26 3.64,-2.59 0,-2.02 -2.7,-4.03 -6.18,-4.03 l -4.71,0 -0.23,-0.85 6.08,0 c 2.54,0 3.81,-1.47 3.81,-3.04 0,-2.41 -2.95,-4.25 -6.05,-4.25 l -4.81,0 c -0.19,0 -0.55,0 -0.8,0.04 0.03,0.21 0.03,0.25 0.08,0.46 l 1.69,6.79 0.23,0.85 1.44,5.81 c 0.2,0.76 0.2,0.81 1.25,0.81 l 4.56,0 0.44,1.13 -10.2,0 c -0.47,0 -0.88,0 -0.88,-0.71 0,-0.42 0.33,-0.42 0.92,-0.42 0.25,0 1.08,0 1.6,-0.14 0,-0.31 0,-0.36 -0.08,-0.62 z"
           inkscape:connector-curvature="0"
           style="fill:#000000;stroke-width:0" /></g>    </g>
  </g>
</svg>
