<?xml version="1.0" encoding="UTF-8" standalone="no"?>
<!-- Created with Inkscape (http://www.inkscape.org/) -->

<svg
   xmlns:ns0="http://www.iki.fi/pav/software/textext/"
   xmlns:dc="http://purl.org/dc/elements/1.1/"
   xmlns:cc="http://creativecommons.org/ns#"
   xmlns:rdf="http://www.w3.org/1999/02/22-rdf-syntax-ns#"
   xmlns:svg="http://www.w3.org/2000/svg"
   xmlns="http://www.w3.org/2000/svg"
   xmlns:sodipodi="http://sodipodi.sourceforge.net/DTD/sodipodi-0.dtd"
   xmlns:inkscape="http://www.inkscape.org/namespaces/inkscape"
   width="437.28268"
   height="231.17188"
   id="svg2"
   version="1.1"
   inkscape:version="0.48.4 r9939"
   sodipodi:docname="New document 69">
  <sodipodi:namedview
     id="base"
     pagecolor="#ffffff"
     bordercolor="#666666"
     borderopacity="1.0"
     inkscape:pageopacity="0.0"
     inkscape:pageshadow="2"
     inkscape:zoom="1.5"
     inkscape:cx="246.03867"
     inkscape:cy="123.65738"
     inkscape:document-units="px"
     inkscape:current-layer="layer1"
     showgrid="true"
     units="in"
     width="11cm"
     inkscape:window-width="1274"
     inkscape:window-height="537"
     inkscape:window-x="0"
     inkscape:window-y="427"
     inkscape:window-maximized="0"
     fit-margin-top="0"
     fit-margin-left="0"
     fit-margin-right="0"
     fit-margin-bottom="0"
     inkscape:snap-grids="false">
    <inkscape:grid
       type="xygrid"
       id="grid2984"
       empspacing="5"
       visible="true"
       enabled="true"
       snapvisiblegridlinesonly="true"
       spacingx="2px"
       spacingy="2px"
       originx="-128.86836px"
       originy="-109.5px" />
  </sodipodi:namedview>
  <defs
     id="defs4">
    <marker
       inkscape:stockid="Arrow2Lstart"
       orient="auto"
       refY="0"
       refX="0"
       id="Arrow2Lstart"
       style="overflow:visible">
      <path
         id="path4495"
         style="fill-rule:evenodd;stroke-width:0.625;stroke-linejoin:round"
         d="M 8.7185878,4.0337352 -2.2072895,0.01601326 8.7185884,-4.0017078 c -1.7454984,2.3720609 -1.7354408,5.6174519 -6e-7,8.035443 z"
         transform="matrix(1.1,0,0,1.1,1.1,0)"
         inkscape:connector-curvature="0" />
    </marker>
    <marker
       inkscape:stockid="Arrow2Lend"
       orient="auto"
       refY="0"
       refX="0"
       id="Arrow2Lend"
       style="overflow:visible">
      <path
         id="path4498"
         style="fill-rule:evenodd;stroke-width:0.625;stroke-linejoin:round"
         d="M 8.7185878,4.0337352 -2.2072895,0.01601326 8.7185884,-4.0017078 c -1.7454984,2.3720609 -1.7354408,5.6174519 -6e-7,8.035443 z"
         transform="matrix(-1.1,0,0,-1.1,-1.1,0)"
         inkscape:connector-curvature="0" />
    </marker>
    <marker
       style="overflow:visible"
       id="Arrow2Mend"
       refX="0"
       refY="0"
       orient="auto"
       inkscape:stockid="Arrow2Mend">
      <path
         transform="scale(-0.6,-0.6)"
         d="M 8.7185878,4.0337352 -2.2072895,0.01601326 8.7185884,-4.0017078 c -1.7454984,2.3720609 -1.7354408,5.6174519 -6e-7,8.035443 z"
         style="fill-rule:evenodd;stroke-width:0.625;stroke-linejoin:round"
         id="path3966"
         inkscape:connector-curvature="0" />
    </marker>
  </defs>
  <metadata
     id="metadata7">
    <rdf:RDF>
      <cc:Work
         rdf:about="">
        <dc:format>image/svg+xml</dc:format>
        <dc:type
           rdf:resource="http://purl.org/dc/dcmitype/StillImage" />
        <dc:title></dc:title>
      </cc:Work>
    </rdf:RDF>
  </metadata>
  <g
     transform="translate(-65.840004,-735.37537)"
     id="layer1"
     inkscape:groupmode="layer"
     inkscape:label="Layer 1">
    <path
       style="fill:none;stroke:#000000;stroke-width:1px;stroke-linecap:butt;stroke-linejoin:miter;stroke-opacity:1;marker-start:url(#Arrow2Lstart);marker-end:url(#Arrow2Lend)"
       d="m 180,80.535706 0,180.000004 370,0"
       id="path13961"
       inkscape:connector-curvature="0"
       transform="translate(-63.028358,665.51153)" />
    <path
       style="fill:none;stroke:#000000;stroke-width:1px;stroke-linecap:butt;stroke-linejoin:miter;stroke-opacity:1"
       d="m 180,130.53571 c 0,0 50,0 70,0 20,0 0,40 20,40 20,0 35.85786,0 50,0 10,-1e-5 0,-20 10,-20 10,0 0,59.99999 10,60 20,0 40,0 50,0 10,0 0,-30 10,-30 10,0 0,120 10,120 l 10,0 c 10,-10e-6 0,-40.00001 40,-40 23.85881,0 75,0 90,0"
       id="path13963"
       inkscape:connector-curvature="0"
       transform="translate(-63.028358,665.51153)"
       sodipodi:nodetypes="cssscccccssc" />
    <path
       style="fill:none;stroke:#000000;stroke-width:1;stroke-linecap:butt;stroke-linejoin:miter;stroke-miterlimit:4;stroke-opacity:1;stroke-dasharray:8, 8;stroke-dashoffset:0"
       d="m 270,170.53571 -80,0"
       id="path13965"
       inkscape:connector-curvature="0"
       transform="translate(-63.028358,665.51153)" />
    <path
       style="fill:none;stroke:#000000;stroke-width:1;stroke-linecap:butt;stroke-linejoin:miter;stroke-miterlimit:4;stroke-opacity:1;stroke-dasharray:8, 8;stroke-dashoffset:0"
       d="m 340,210.53571 -70,0"
       id="path13967"
       inkscape:connector-curvature="0"
       transform="translate(-63.028358,665.51153)" />
    <path
       style="fill:none;stroke:#000000;stroke-width:1px;stroke-linecap:butt;stroke-linejoin:miter;stroke-opacity:1;marker-end:url(#Arrow2Lend)"
       d="m 330,230.53571 0,-20"
       id="path13969"
       inkscape:connector-curvature="0"
       transform="translate(-63.028358,665.51153)" />
    <path
       style="fill:none;stroke:#000000;stroke-width:1px;stroke-linecap:butt;stroke-linejoin:miter;stroke-opacity:1;marker-end:url(#Arrow2Lend)"
       d="m 330,240.53571 0,20"
       id="path13971"
       inkscape:connector-curvature="0"
       transform="translate(-63.028358,665.51153)" />
    <g
       style="font-style:normal;font-variant:normal;font-weight:normal;font-stretch:normal;letter-spacing:normal;word-spacing:normal;text-anchor:start;fill:none;stroke:#000000;stroke-linecap:butt;stroke-linejoin:miter;stroke-miterlimit:10.43299961;stroke-opacity:1;stroke-dasharray:none;stroke-dashoffset:0"
       id="content"
       transform="matrix(1.7047682,0,0,-1.7047682,-247.75531,1940.9625)"
       xml:space="preserve"
       stroke-miterlimit="10.433"
       font-style="normal"
       font-variant="normal"
       font-weight="normal"
       font-stretch="normal"
       font-size-adjust="none"
       letter-spacing="normal"
       word-spacing="normal"
       ns0:text="$\\mathrm{\\alpha_{dipolar}}$"
       ns0:preamble=""><path
         style="fill:#000000;stroke-width:0"
         inkscape:connector-curvature="0"
         d="m 228.18,659.58 0,0.07 0,0.07 -0.01,0.07 0,0.07 -0.02,0.13 -0.01,0.12 -0.03,0.12 -0.02,0.12 -0.03,0.1 -0.04,0.11 -0.04,0.09 -0.04,0.1 -0.04,0.08 -0.05,0.08 -0.06,0.08 -0.05,0.07 -0.06,0.07 -0.06,0.06 -0.06,0.05 -0.06,0.06 -0.07,0.05 -0.06,0.04 -0.07,0.04 -0.07,0.04 -0.07,0.03 -0.07,0.03 -0.08,0.02 -0.07,0.02 -0.07,0.02 -0.07,0.01 -0.07,0.01 -0.07,0.01 -0.07,0 -0.07,0.01 c -1.37,0 -2.68,-1.42 -2.68,-2.83 0,-0.92 0.6,-1.67 1.61,-1.67 l 0.02,0.21 c -0.59,0 -0.89,0.45 -0.89,1.09 0,0.48 0.26,1.56 0.57,2.06 0.47,0.73 1.01,0.92 1.36,0.92 0.98,0 0.98,-1.3 0.98,-2.08 0,-0.37 0,-0.94 0.02,-1.11 h 0 c -0.87,-0.77 -1.64,-0.88 -2.04,-0.88 l -0.02,-0.21 c 0.63,0 1.34,0.22 2.1,0.83 0.13,-0.53 0.46,-0.83 0.91,-0.83 0.52,0 0.83,0.54 0.83,0.7 0,0.07 -0.06,0.1 -0.12,0.1 -0.07,0 -0.1,-0.03 -0.13,-0.1 -0.18,-0.49 -0.53,-0.49 -0.55,-0.49 -0.31,0 -0.31,0.78 -0.31,1.02 0,0.21 0,0.23 0.1,0.35 0.93,1.17 1.14,2.32 1.14,2.33 0,0.02 -0.01,0.1 -0.12,0.1 -0.1,0 -0.1,-0.03 -0.15,-0.21 -0.18,-0.63 -0.5,-1.38 -0.97,-1.97 z"
         id="path14874" /><path
         style="fill:#000000;stroke-width:0"
         inkscape:connector-curvature="0"
         d="m 232.28,660.49 v -0.25 c 0.47,0 0.53,-0.05 0.53,-0.39 v -1.44 c -0.26,0.25 -0.6,0.4 -0.98,0.4 l 0.04,-0.2 c 0.33,0 0.63,-0.15 0.83,-0.4 0.08,-0.11 0.08,-0.12 0.08,-0.25 v -1.49 c -0.18,-0.33 -0.54,-0.6 -0.99,-0.6 -0.39,0 -0.67,0.23 -0.81,0.43 -0.14,0.21 -0.22,0.48 -0.22,0.93 0,0.16 0,0.68 0.28,1.01 0.28,0.31 0.62,0.37 0.83,0.37 l -0.04,0.2 c -0.93,0 -1.71,-0.7 -1.71,-1.57 0,-0.87 0.74,-1.57 1.63,-1.57 0.57,0 0.91,0.31 1.03,0.43 v -0.43 l 1.07,0.07 v 0.25 c -0.47,0 -0.52,0.05 -0.52,0.39 v 4.19 z"
         id="path14876" /><path
         style="fill:#000000;stroke-width:0"
         inkscape:connector-curvature="0"
         d="m 235.68,660.03 -0.01,0.02 0,0.02 0,0.02 0,0.02 -0.01,0.01 0,0.02 -0.01,0.02 0,0.02 -0.01,0.02 -0.01,0.01 -0.01,0.02 -0.01,0.02 -0.01,0.01 -0.01,0.02 -0.02,0.01 -0.01,0.02 -0.01,0.01 -0.02,0.01 -0.01,0.01 -0.02,0.02 -0.01,0.01 -0.02,0.01 -0.02,0.01 -0.02,0 -0.01,0.01 -0.02,0.01 -0.02,0 -0.02,0.01 -0.02,0 -0.03,0.01 -0.02,0 -0.02,0 c -0.21,0 -0.4,-0.17 -0.4,-0.4 0,-0.25 0.21,-0.4 0.4,-0.4 0.22,0 0.41,0.17 0.41,0.4 z"
         id="path14878" /><path
         style="fill:#000000;stroke-width:0"
         inkscape:connector-curvature="0"
         d="m 234.62,658.73 v -0.25 c 0.43,0 0.5,-0.04 0.5,-0.38 v -1.81 c 0,-0.3 -0.07,-0.3 -0.52,-0.3 v -0.25 c 0.01,0 0.5,0.03 0.78,0.03 0.24,0 0.49,-0.01 0.73,-0.03 v 0.25 c -0.4,0 -0.47,0 -0.47,0.29 v 2.53 z"
         id="path14880" /><path
         style="fill:#000000;stroke-width:0"
         inkscape:connector-curvature="0"
         d="m 238.4,654.64 -0.02,0 -0.02,0 -0.02,0 -0.02,0 -0.02,0 -0.02,0 -0.02,0 -0.02,0 -0.01,0 -0.02,0 -0.01,0 -0.02,0 -0.01,0 -0.02,0.01 -0.01,0 -0.02,0 -0.01,0 -0.01,0 -0.02,0 -0.03,0 -0.02,0.01 -0.02,0 -0.01,0.01 -0.02,0 -0.01,0.01 -0.02,0.01 -0.01,0.01 -0.01,0 -0.01,0.02 -0.01,0.01 -0.01,0.01 0,0.01 -0.01,0.02 0,0.01 -0.01,0.02 0,0.02 0,0.02 0,0.02 0,0.03 0,0.02 0,0.03 v 1.14 c 0.03,-0.04 0.36,-0.41 0.94,-0.41 l -0.04,0.2 c -0.61,0 -0.88,0.53 -0.9,0.57 v 1.62 c 0.2,0.34 0.61,0.53 0.98,0.53 0.58,0 1.03,-0.62 1.03,-1.35 0,-0.79 -0.52,-1.37 -1.11,-1.37 l 0.04,-0.2 c 0.92,0 1.71,0.69 1.71,1.57 0,0.86 -0.71,1.57 -1.6,1.57 -0.39,0 -0.8,-0.15 -1.08,-0.43 v 0.43 l -1.05,-0.08 v -0.25 c 0.49,0 0.52,-0.03 0.52,-0.33 v -3.21 c 0,-0.3 -0.06,-0.3 -0.52,-0.3 v -0.25 c 0.02,0 0.5,0.03 0.8,0.03 0.25,0 0.73,-0.02 0.8,-0.03 z"
         id="path14882" /><path
         style="fill:#000000;stroke-width:0"
         inkscape:connector-curvature="0"
         d="m 244.76,657.22 0,0.08 -0.01,0.08 -0.01,0.08 -0.01,0.08 -0.02,0.08 -0.02,0.07 -0.03,0.08 -0.03,0.07 -0.03,0.07 -0.04,0.07 -0.04,0.07 -0.04,0.07 -0.05,0.06 -0.05,0.06 -0.06,0.06 -0.05,0.06 -0.06,0.05 -0.06,0.05 -0.07,0.05 -0.06,0.05 -0.07,0.04 -0.07,0.04 -0.08,0.04 -0.07,0.03 -0.08,0.03 -0.08,0.03 -0.08,0.02 -0.09,0.02 -0.08,0.01 -0.09,0.01 -0.09,0.01 -0.09,0 v -0.19 c 0.42,0 0.71,-0.2 0.86,-0.41 0.2,-0.27 0.22,-0.62 0.22,-0.96 0,-0.33 -0.02,-0.7 -0.23,-0.98 -0.18,-0.27 -0.5,-0.41 -0.85,-0.41 h 0 c -0.25,0 -0.63,0.09 -0.86,0.43 -0.19,0.28 -0.21,0.65 -0.21,0.96 0,0.3 0.01,0.71 0.25,1.01 0.18,0.2 0.47,0.36 0.82,0.36 v 0.19 c -0.96,0 -1.7,-0.75 -1.7,-1.62 0,-0.86 0.77,-1.55 1.7,-1.55 0.94,0 1.71,0.69 1.71,1.55 z"
         id="path14884" /><path
         style="fill:#000000;stroke-width:0"
         inkscape:connector-curvature="0"
         d="m 246.48,660.57 -1.04,-0.08 v -0.25 c 0.47,0 0.52,-0.05 0.52,-0.39 v -3.56 c 0,-0.3 -0.07,-0.3 -0.52,-0.3 v -0.25 c 0.01,0 0.5,0.03 0.78,0.03 0.26,0 0.52,-0.01 0.79,-0.03 v 0.25 c -0.46,0 -0.53,0 -0.53,0.3 z"
         id="path14886" /><path
         style="fill:#000000;stroke-width:0"
         inkscape:connector-curvature="0"
         d="m 250.41,657.6 0,0.07 0,0.07 0,0.06 0,0.06 -0.01,0.03 0,0.03 0,0.03 -0.01,0.03 0,0.03 -0.01,0.03 0,0.02 -0.01,0.03 -0.01,0.03 -0.01,0.02 -0.01,0.03 -0.01,0.03 -0.01,0.02 -0.01,0.03 -0.02,0.02 -0.01,0.03 -0.02,0.02 -0.02,0.03 -0.02,0.02 -0.02,0.03 -0.03,0.02 -0.02,0.03 -0.03,0.02 -0.03,0.02 c -0.29,0.24 -0.62,0.35 -1.03,0.35 -0.66,0 -1.13,-0.25 -1.13,-0.67 0,-0.22 0.15,-0.34 0.33,-0.34 0.19,0 0.33,0.14 0.33,0.32 0,0.12 -0.05,0.27 -0.24,0.32 0.25,0.18 0.65,0.18 0.69,0.18 0.39,0 0.82,-0.26 0.82,-0.84 v -0.22 -0.18 -0.69 c 0,-0.67 -0.59,-0.85 -0.9,-0.85 -0.35,0 -0.69,0.23 -0.69,0.57 0,0.39 0.34,0.92 1.59,0.97 v 0.18 c -0.38,-0.01 -0.84,-0.03 -1.35,-0.22 -0.63,-0.23 -0.82,-0.61 -0.82,-0.93 0,-0.6 0.72,-0.77 1.22,-0.77 0.55,0 0.88,0.31 1.03,0.59 0.02,-0.29 0.21,-0.55 0.53,-0.55 0.02,0 0.69,0 0.69,0.66 v 0.38 h -0.23 v -0.38 c 0,-0.07 0,-0.4 -0.26,-0.4 -0.26,0 -0.26,0.33 -0.26,0.42 z"
         id="path14888" /><path
         style="fill:#000000;stroke-width:0"
         inkscape:connector-curvature="0"
         d="m 252.66,657.33 0,0.05 0.01,0.06 0,0.05 0,0.06 0.01,0.06 0.01,0.05 0.01,0.06 0.01,0.05 0.02,0.06 0.02,0.05 0.01,0.06 0.02,0.05 0.02,0.05 0.03,0.05 0.02,0.05 0.03,0.05 0.03,0.04 0.03,0.05 0.03,0.04 0.04,0.04 0.04,0.04 0.04,0.03 0.04,0.03 0.04,0.03 0.05,0.03 0.04,0.02 0.05,0.02 0.05,0.02 0.06,0.02 0.06,0 0.05,0.01 0.07,0 c -0.07,-0.05 -0.12,-0.14 -0.12,-0.25 0,-0.23 0.18,-0.32 0.31,-0.32 0.17,0 0.32,0.11 0.32,0.32 0,0.24 -0.22,0.45 -0.55,0.45 -0.35,0 -0.73,-0.22 -0.94,-0.75 h -0.01 v 0.75 l -0.99,-0.08 v -0.25 c 0.46,0 0.52,-0.05 0.52,-0.39 v -1.8 c 0,-0.3 -0.07,-0.3 -0.52,-0.3 v -0.25 c 0.03,0 0.5,0.03 0.79,0.03 0.3,0 0.61,-0.01 0.91,-0.03 v 0.25 h -0.14 c -0.52,0 -0.52,0.08 -0.52,0.31 z"
         id="path14890" /></g>    <g
       style="font-style:normal;font-variant:normal;font-weight:normal;font-stretch:normal;letter-spacing:normal;word-spacing:normal;text-anchor:start;fill:none;stroke:#000000;stroke-linecap:butt;stroke-linejoin:miter;stroke-miterlimit:10.43299961;stroke-opacity:1;stroke-dasharray:none;stroke-dashoffset:0"
       ns0:preamble=""
       ns0:text="$\\mathrm{\\alpha_{ionic}}$"
       word-spacing="normal"
       letter-spacing="normal"
       font-size-adjust="none"
       font-stretch="normal"
       font-weight="normal"
       font-variant="normal"
       font-style="normal"
       stroke-miterlimit="10.433"
       xml:space="preserve"
       transform="matrix(1.7047682,0,0,-1.7047682,-165.75531,1978.2958)"
       id="g14987"><path
         id="path14989"
         d="m 228.18,659.58 0,0.07 0,0.07 -0.01,0.07 0,0.07 -0.02,0.13 -0.01,0.12 -0.03,0.12 -0.02,0.12 -0.03,0.1 -0.04,0.11 -0.04,0.09 -0.04,0.1 -0.04,0.08 -0.05,0.08 -0.06,0.08 -0.05,0.07 -0.06,0.07 -0.06,0.06 -0.06,0.05 -0.06,0.06 -0.07,0.05 -0.06,0.04 -0.07,0.04 -0.07,0.04 -0.07,0.03 -0.07,0.03 -0.08,0.02 -0.07,0.02 -0.07,0.02 -0.07,0.01 -0.07,0.01 -0.07,0.01 -0.07,0 -0.07,0.01 c -1.37,0 -2.68,-1.42 -2.68,-2.83 0,-0.92 0.6,-1.67 1.61,-1.67 l 0.02,0.21 c -0.59,0 -0.89,0.45 -0.89,1.09 0,0.48 0.26,1.56 0.57,2.06 0.47,0.73 1.01,0.92 1.36,0.92 0.98,0 0.98,-1.3 0.98,-2.08 0,-0.37 0,-0.94 0.02,-1.11 h 0 c -0.87,-0.77 -1.64,-0.88 -2.04,-0.88 l -0.02,-0.21 c 0.63,0 1.34,0.22 2.1,0.83 0.13,-0.53 0.46,-0.83 0.91,-0.83 0.52,0 0.83,0.54 0.83,0.7 0,0.07 -0.06,0.1 -0.12,0.1 -0.07,0 -0.1,-0.03 -0.13,-0.1 -0.18,-0.49 -0.53,-0.49 -0.55,-0.49 -0.31,0 -0.31,0.78 -0.31,1.02 0,0.21 0,0.23 0.1,0.35 0.93,1.17 1.14,2.32 1.14,2.33 0,0.02 -0.01,0.1 -0.12,0.1 -0.1,0 -0.1,-0.03 -0.15,-0.21 -0.18,-0.63 -0.5,-1.38 -0.97,-1.97 z"
         inkscape:connector-curvature="0"
         style="fill:#000000;stroke-width:0" /><path
         id="path14991"
         d="m 231.27,660.03 0,0.02 0,0.02 0,0.02 0,0.02 -0.01,0.01 0,0.02 -0.01,0.02 0,0.02 -0.01,0.02 -0.01,0.01 -0.01,0.02 -0.01,0.02 -0.01,0.01 -0.01,0.02 -0.02,0.01 -0.01,0.02 -0.01,0.01 -0.02,0.01 -0.01,0.01 -0.02,0.02 -0.01,0.01 -0.02,0.01 -0.02,0.01 -0.02,0 -0.01,0.01 -0.02,0.01 -0.02,0 -0.02,0.01 -0.02,0 -0.03,0.01 -0.02,0 -0.02,0 c -0.21,0 -0.4,-0.17 -0.4,-0.4 0,-0.25 0.21,-0.4 0.4,-0.4 0.22,0 0.4,0.17 0.4,0.4 z"
         inkscape:connector-curvature="0"
         style="fill:#000000;stroke-width:0" /><path
         id="path14993"
         d="m 230.22,658.73 v -0.25 c 0.43,0 0.5,-0.04 0.5,-0.38 v -1.81 c 0,-0.3 -0.07,-0.3 -0.52,-0.3 v -0.25 c 0.01,0 0.5,0.03 0.78,0.03 0.24,0 0.49,-0.01 0.73,-0.03 v 0.25 c -0.4,0 -0.47,0 -0.47,0.29 v 2.53 z"
         inkscape:connector-curvature="0"
         style="fill:#000000;stroke-width:0" /><path
         id="path14995"
         d="m 235.74,657.22 0,0.08 0,0.08 -0.02,0.08 -0.01,0.08 -0.02,0.08 -0.02,0.07 -0.03,0.08 -0.03,0.07 -0.03,0.07 -0.04,0.07 -0.04,0.07 -0.04,0.07 -0.05,0.06 -0.05,0.06 -0.05,0.06 -0.06,0.06 -0.06,0.05 -0.06,0.05 -0.06,0.05 -0.07,0.05 -0.07,0.04 -0.07,0.04 -0.07,0.04 -0.08,0.03 -0.08,0.03 -0.08,0.03 -0.08,0.02 -0.08,0.02 -0.09,0.01 -0.08,0.01 -0.09,0.01 -0.09,0 v -0.19 c 0.41,0 0.7,-0.2 0.86,-0.41 0.19,-0.27 0.21,-0.62 0.21,-0.96 0,-0.33 -0.02,-0.7 -0.22,-0.98 -0.19,-0.27 -0.51,-0.41 -0.85,-0.41 h 0 c -0.26,0 -0.64,0.09 -0.86,0.43 -0.19,0.28 -0.21,0.65 -0.21,0.96 0,0.3 0,0.71 0.25,1.01 0.17,0.2 0.46,0.36 0.82,0.36 v 0.19 c -0.96,0 -1.71,-0.75 -1.71,-1.62 0,-0.86 0.77,-1.55 1.71,-1.55 0.94,0 1.7,0.69 1.7,1.55 z"
         inkscape:connector-curvature="0"
         style="fill:#000000;stroke-width:0" /><path
         id="path14997"
         d="m 239.62,657.85 0,0.05 0,0.06 -0.01,0.05 -0.01,0.05 0,0.05 -0.01,0.05 -0.02,0.05 -0.01,0.04 -0.02,0.05 -0.01,0.04 -0.02,0.04 -0.03,0.04 -0.02,0.03 -0.03,0.04 -0.02,0.03 -0.03,0.03 -0.04,0.03 -0.03,0.03 -0.04,0.03 -0.04,0.02 -0.04,0.03 -0.04,0.02 -0.05,0.02 -0.05,0.01 -0.05,0.02 -0.05,0.01 -0.06,0.01 -0.06,0.01 -0.06,0.01 -0.06,0 -0.07,0.01 -0.07,0 c -0.57,0 -0.94,-0.32 -1.13,-0.68 h -0.01 v 0.68 l -1.02,-0.08 v -0.25 c 0.47,0 0.52,-0.05 0.52,-0.39 v -1.8 c 0,-0.3 -0.07,-0.3 -0.52,-0.3 v -0.25 c 0.01,0 0.5,0.03 0.79,0.03 0.26,0 0.74,-0.02 0.8,-0.03 v 0.25 c -0.45,0 -0.52,0 -0.52,0.3 v 1.25 c 0,0.73 0.58,1.07 1.04,1.07 0.49,0 0.55,-0.38 0.55,-0.73 v -1.59 c 0,-0.3 -0.07,-0.3 -0.52,-0.3 v -0.25 c 0.01,0 0.5,0.03 0.79,0.03 0.26,0 0.74,-0.02 0.8,-0.03 v 0.25 c -0.45,0 -0.52,0 -0.52,0.3 z"
         inkscape:connector-curvature="0"
         style="fill:#000000;stroke-width:0" /><path
         id="path14999"
         d="m 241.9,660.03 0,0.02 0,0.02 0,0.02 -0.01,0.02 0,0.01 0,0.02 -0.01,0.02 -0.01,0.02 -0.01,0.02 0,0.01 -0.01,0.02 -0.01,0.02 -0.01,0.01 -0.02,0.02 -0.01,0.01 -0.01,0.02 -0.01,0.01 -0.02,0.01 -0.01,0.01 -0.02,0.02 -0.02,0.01 -0.01,0.01 -0.02,0.01 -0.02,0 -0.02,0.01 -0.02,0.01 -0.02,0 -0.02,0.01 -0.02,0 -0.02,0.01 -0.02,0 -0.02,0 c -0.21,0 -0.4,-0.17 -0.4,-0.4 0,-0.25 0.2,-0.4 0.4,-0.4 0.22,0 0.4,0.17 0.4,0.4 z"
         inkscape:connector-curvature="0"
         style="fill:#000000;stroke-width:0" /><path
         id="path15001"
         d="m 240.84,658.73 v -0.25 c 0.44,0 0.51,-0.04 0.51,-0.38 v -1.81 c 0,-0.3 -0.08,-0.3 -0.53,-0.3 v -0.25 c 0.02,0 0.5,0.03 0.78,0.03 0.25,0 0.5,-0.01 0.74,-0.03 v 0.25 c -0.4,0 -0.47,0 -0.47,0.29 v 2.53 z"
         inkscape:connector-curvature="0"
         style="fill:#000000;stroke-width:0" /><path
         id="path15003"
         d="m 245.4,658.52 -0.01,-0.01 -0.02,-0.01 -0.01,0 -0.01,-0.01 -0.01,0 -0.01,-0.01 -0.01,-0.01 -0.01,-0.01 -0.01,0 0,-0.01 -0.01,-0.01 -0.01,-0.01 -0.01,-0.01 0,-0.01 -0.01,-0.01 -0.01,-0.01 0,-0.01 -0.01,-0.01 0,-0.01 -0.01,-0.01 0,-0.01 -0.01,-0.01 0,-0.01 -0.01,-0.01 0,-0.01 0,-0.01 0,-0.02 0,-0.01 -0.01,-0.01 0,-0.01 0,-0.02 0,-0.01 c 0,-0.19 0.13,-0.33 0.33,-0.33 0.19,0 0.33,0.12 0.33,0.34 0,0.62 -0.96,0.62 -1.16,0.62 -1.04,0 -1.69,-0.8 -1.69,-1.6 0,-0.87 0.74,-1.57 1.66,-1.57 1.03,0 1.28,0.82 1.28,0.91 0,0.08 -0.09,0.08 -0.12,0.08 -0.09,0 -0.1,-0.02 -0.13,-0.12 -0.16,-0.43 -0.53,-0.65 -0.95,-0.65 -0.48,0 -1.11,0.36 -1.11,1.36 0,0.88 0.43,1.37 1.08,1.37 0.09,0 0.43,0 0.68,-0.1 z"
         inkscape:connector-curvature="0"
         style="fill:#000000;stroke-width:0" /></g>    <g
       id="g15115"
       transform="matrix(1.7047682,0,0,-1.7047682,-139.08864,2022.9625)"
       xml:space="preserve"
       stroke-miterlimit="10.433"
       font-style="normal"
       font-variant="normal"
       font-weight="normal"
       font-stretch="normal"
       font-size-adjust="none"
       letter-spacing="normal"
       word-spacing="normal"
       ns0:text="$\\mathrm{\\alpha_{e}}$"
       ns0:preamble=""
       style="font-style:normal;font-variant:normal;font-weight:normal;font-stretch:normal;letter-spacing:normal;word-spacing:normal;text-anchor:start;fill:none;stroke:#000000;stroke-linecap:butt;stroke-linejoin:miter;stroke-miterlimit:10.43299961;stroke-opacity:1;stroke-dasharray:none;stroke-dashoffset:0"><path
         style="fill:#000000;stroke-width:0"
         inkscape:connector-curvature="0"
         d="m 228.18,659.58 0,0.07 0,0.07 -0.01,0.07 0,0.07 -0.02,0.13 -0.01,0.12 -0.03,0.12 -0.02,0.12 -0.03,0.1 -0.04,0.11 -0.04,0.09 -0.04,0.1 -0.04,0.08 -0.05,0.08 -0.06,0.08 -0.05,0.07 -0.06,0.07 -0.06,0.06 -0.06,0.05 -0.06,0.06 -0.07,0.05 -0.06,0.04 -0.07,0.04 -0.07,0.04 -0.07,0.03 -0.07,0.03 -0.08,0.02 -0.07,0.02 -0.07,0.02 -0.07,0.01 -0.07,0.01 -0.07,0.01 -0.07,0 -0.07,0.01 c -1.37,0 -2.68,-1.42 -2.68,-2.83 0,-0.92 0.6,-1.67 1.61,-1.67 l 0.02,0.21 c -0.59,0 -0.89,0.45 -0.89,1.09 0,0.48 0.26,1.56 0.57,2.06 0.47,0.73 1.01,0.92 1.36,0.92 0.98,0 0.98,-1.3 0.98,-2.08 0,-0.37 0,-0.94 0.02,-1.11 h 0 c -0.87,-0.77 -1.64,-0.88 -2.04,-0.88 l -0.02,-0.21 c 0.63,0 1.34,0.22 2.1,0.83 0.13,-0.53 0.46,-0.83 0.91,-0.83 0.52,0 0.83,0.54 0.83,0.7 0,0.07 -0.06,0.1 -0.12,0.1 -0.07,0 -0.1,-0.03 -0.13,-0.1 -0.18,-0.49 -0.53,-0.49 -0.55,-0.49 -0.31,0 -0.31,0.78 -0.31,1.02 0,0.21 0,0.23 0.1,0.35 0.93,1.17 1.14,2.32 1.14,2.33 0,0.02 -0.01,0.1 -0.12,0.1 -0.1,0 -0.1,-0.03 -0.15,-0.21 -0.18,-0.63 -0.5,-1.38 -0.97,-1.97 z"
         id="path15117" /><path
         style="fill:#000000;stroke-width:0"
         inkscape:connector-curvature="0"
         d="m 232.87,657.33 0.01,0 0.02,0 0.01,0 0.01,0 0.01,0 0.01,0 0.01,0 0.01,0 0.01,0 0.01,0 0.01,0 0.01,0 0,0.01 0.01,0 0.01,0 0,0.01 0.01,0 0,0 0.01,0.01 0,0 0,0.01 0.01,0.01 0,0 0,0.01 0,0 0.01,0 0,0.01 0,0 0,0.01 0,0 0,0.01 0,0 0,0.01 0,0 0,0.01 0,0.01 0,0 0,0.01 0,0.01 0,0 0,0.01 c 0,0.61 -0.34,1.36 -1.38,1.36 -0.91,0 -1.6,-0.72 -1.6,-1.58 0,-0.88 0.77,-1.59 1.7,-1.59 0.94,0 1.28,0.75 1.28,0.91 0,0.02 -0.01,0.09 -0.11,0.09 -0.1,0 -0.11,-0.04 -0.13,-0.11 -0.22,-0.56 -0.75,-0.67 -1,-0.67 -0.32,0 -0.64,0.15 -0.84,0.41 -0.26,0.33 -0.27,0.75 -0.27,1.03 l 0.01,0.18 c 0.07,0.98 0.7,1.14 0.96,1.14 0.86,0 0.89,-0.97 0.9,-1.14 h -1.86 l -0.01,-0.18 z"
         id="path15119" /></g>    <text
       sodipodi:linespacing="100%"
       id="text15157"
       y="906.04724"
       x="276.97165"
       style="font-size:16px;font-style:normal;font-variant:normal;font-weight:500;font-stretch:normal;text-align:start;line-height:100%;letter-spacing:0px;word-spacing:0px;writing-mode:lr-tb;text-anchor:start;fill:#000000;fill-opacity:1;stroke:none;font-family:Rekha;-inkscape-font-specification:Rekha Medium"
       xml:space="preserve"><tspan
         y="906.04724"
         x="276.97165"
         id="tspan15159"
         sodipodi:role="line">electronic</tspan></text>
    <g
       style="font-style:normal;font-variant:normal;font-weight:normal;font-stretch:normal;letter-spacing:normal;word-spacing:normal;text-anchor:start;fill:none;stroke:#000000;stroke-linecap:butt;stroke-linejoin:miter;stroke-miterlimit:10.43299961;stroke-opacity:1;stroke-dasharray:none;stroke-dashoffset:0"
       ns0:preamble=""
       ns0:text="$\\mathrm{\\alpha (???)}$"
       word-spacing="normal"
       letter-spacing="normal"
       font-size-adjust="none"
       font-stretch="normal"
       font-weight="normal"
       font-variant="normal"
       font-style="normal"
       stroke-miterlimit="10.433"
       xml:space="preserve"
       transform="matrix(1.7047682,0,0,-1.7047682,-315.75531,1961.6292)"
       id="g15225"><path
         id="path15227"
         d="m 228.18,659.58 0,0.07 0,0.07 -0.01,0.07 0,0.07 -0.02,0.13 -0.01,0.12 -0.03,0.12 -0.02,0.12 -0.03,0.1 -0.04,0.11 -0.04,0.09 -0.04,0.1 -0.04,0.08 -0.05,0.08 -0.06,0.08 -0.05,0.07 -0.06,0.07 -0.06,0.06 -0.06,0.05 -0.06,0.06 -0.07,0.05 -0.06,0.04 -0.07,0.04 -0.07,0.04 -0.07,0.03 -0.07,0.03 -0.08,0.02 -0.07,0.02 -0.07,0.02 -0.07,0.01 -0.07,0.01 -0.07,0.01 -0.07,0 -0.07,0.01 c -1.37,0 -2.68,-1.42 -2.68,-2.83 0,-0.92 0.6,-1.67 1.61,-1.67 l 0.02,0.21 c -0.59,0 -0.89,0.45 -0.89,1.09 0,0.48 0.26,1.56 0.57,2.06 0.47,0.73 1.01,0.92 1.36,0.92 0.98,0 0.98,-1.3 0.98,-2.08 0,-0.37 0,-0.94 0.02,-1.11 h 0 c -0.87,-0.77 -1.64,-0.88 -2.04,-0.88 l -0.02,-0.21 c 0.63,0 1.34,0.22 2.1,0.83 0.13,-0.53 0.46,-0.83 0.91,-0.83 0.52,0 0.83,0.54 0.83,0.7 0,0.07 -0.06,0.1 -0.12,0.1 -0.07,0 -0.1,-0.03 -0.13,-0.1 -0.18,-0.49 -0.53,-0.49 -0.55,-0.49 -0.31,0 -0.31,0.78 -0.31,1.02 0,0.21 0,0.23 0.1,0.35 0.93,1.17 1.14,2.32 1.14,2.33 0,0.02 -0.01,0.1 -0.12,0.1 -0.1,0 -0.1,-0.03 -0.15,-0.21 -0.18,-0.63 -0.5,-1.38 -0.97,-1.97 z"
         inkscape:connector-curvature="0"
         style="fill:#000000;stroke-width:0" /><path
         id="path15229"
         d="m 233.13,654.85 0,0.01 0,0 0,0 0,0.01 0,0 0,0 0,0.01 0,0 0,0 0,0.01 -0.01,0 0,0.01 0,0 -0.01,0.01 0,0 -0.01,0.01 0,0.01 -0.01,0 0,0.01 0,0 -0.01,0.01 0,0 0,0 -0.01,0.01 0,0 -0.01,0.01 0,0 -0.01,0.01 0,0 -0.01,0.01 0,0 -0.01,0.01 0,0.01 -0.01,0 0,0.01 -0.01,0.01 -0.01,0 0,0.01 -0.01,0.01 -0.01,0 -0.01,0.01 0,0.01 c -1.25,1.25 -1.57,3.13 -1.57,4.65 0,1.73 0.38,3.45 1.61,4.7 0.12,0.12 0.12,0.14 0.12,0.17 0,0.07 -0.03,0.09 -0.09,0.09 -0.1,0 -1,-0.67 -1.59,-1.93 -0.5,-1.09 -0.62,-2.2 -0.62,-3.03 0,-0.78 0.11,-1.98 0.65,-3.1 0.6,-1.22 1.46,-1.87 1.56,-1.87 0.06,0 0.09,0.03 0.09,0.1 z"
         inkscape:connector-curvature="0"
         style="fill:#000000;stroke-width:0" /><path
         id="path15231"
         d="m 236.05,659.71 0.01,0.11 0,0.12 0.02,0.11 0.02,0.1 0.02,0.11 0.03,0.1 0.03,0.09 0.03,0.1 0.04,0.09 0.04,0.08 0.04,0.09 0.05,0.08 0.05,0.08 0.05,0.08 0.05,0.07 0.05,0.07 0.05,0.07 0.06,0.06 0.05,0.06 0.06,0.06 0.05,0.05 0.06,0.06 0.05,0.05 0.06,0.04 0.05,0.05 0.05,0.04 0.05,0.04 0.04,0.04 0.05,0.03 0.04,0.03 0.03,0.03 0.04,0.02 c 0.27,0.2 0.48,0.56 0.48,0.98 0,0.57 -0.4,1.34 -1.89,1.34 -1.07,0 -1.69,-0.68 -1.69,-1.32 0,-0.34 0.23,-0.48 0.46,-0.48 0.28,0 0.46,0.2 0.46,0.46 0,0.44 -0.42,0.44 -0.56,0.44 0.31,0.53 0.89,0.68 1.3,0.68 1.09,0 1.09,-0.68 1.09,-1.06 0,-0.59 -0.16,-0.77 -0.34,-0.95 -0.66,-0.71 -0.87,-1.63 -0.87,-2.23 v -0.45 c 0,-0.18 0,-0.24 0.12,-0.24 0.12,0 0.12,0.09 0.12,0.27 z"
         inkscape:connector-curvature="0"
         style="fill:#000000;stroke-width:0" /><path
         id="path15233"
         d="m 236.45,657.76 0,0.03 0,0.03 0,0.02 -0.01,0.03 0,0.02 -0.01,0.03 -0.01,0.02 -0.01,0.03 -0.01,0.02 -0.01,0.02 -0.01,0.02 -0.02,0.03 -0.01,0.02 -0.02,0.02 -0.02,0.01 -0.01,0.02 -0.02,0.02 -0.02,0.02 -0.02,0.01 -0.02,0.02 -0.02,0.01 -0.02,0.01 -0.03,0.02 -0.02,0.01 -0.02,0.01 -0.03,0 -0.02,0.01 -0.03,0.01 -0.03,0 -0.02,0.01 -0.03,0 -0.02,0 c -0.29,0 -0.53,-0.24 -0.53,-0.53 0,-0.29 0.24,-0.53 0.53,-0.53 0.28,0 0.52,0.24 0.52,0.53 z"
         inkscape:connector-curvature="0"
         style="fill:#000000;stroke-width:0" /><path
         id="path15235"
         d="m 240.76,659.71 0,0.11 0.01,0.12 0.01,0.11 0.02,0.1 0.02,0.11 0.03,0.1 0.03,0.09 0.04,0.1 0.03,0.09 0.04,0.08 0.05,0.09 0.04,0.08 0.05,0.08 0.05,0.08 0.05,0.07 0.06,0.07 0.05,0.07 0.05,0.06 0.06,0.06 0.05,0.06 0.06,0.05 0.05,0.06 0.06,0.05 0.05,0.04 0.05,0.05 0.05,0.04 0.05,0.04 0.05,0.04 0.04,0.03 0.04,0.03 0.04,0.03 0.03,0.02 c 0.27,0.2 0.48,0.56 0.48,0.98 0,0.57 -0.4,1.34 -1.88,1.34 -1.07,0 -1.69,-0.68 -1.69,-1.32 0,-0.34 0.23,-0.48 0.46,-0.48 0.27,0 0.45,0.2 0.45,0.46 0,0.44 -0.41,0.44 -0.55,0.44 0.31,0.53 0.88,0.68 1.3,0.68 1.08,0 1.08,-0.68 1.08,-1.06 0,-0.59 -0.15,-0.77 -0.33,-0.95 -0.66,-0.71 -0.88,-1.63 -0.88,-2.23 v -0.45 c 0,-0.18 0,-0.24 0.12,-0.24 0.13,0 0.13,0.09 0.13,0.27 z"
         inkscape:connector-curvature="0"
         style="fill:#000000;stroke-width:0" /><path
         id="path15237"
         d="m 241.16,657.76 0,0.03 -0.01,0.03 0,0.02 0,0.03 -0.01,0.02 -0.01,0.03 -0.01,0.02 0,0.03 -0.02,0.02 -0.01,0.02 -0.01,0.02 -0.01,0.03 -0.02,0.02 -0.01,0.02 -0.02,0.01 -0.02,0.02 -0.02,0.02 -0.02,0.02 -0.02,0.01 -0.02,0.02 -0.02,0.01 -0.02,0.01 -0.02,0.02 -0.03,0.01 -0.02,0.01 -0.02,0 -0.03,0.01 -0.02,0.01 -0.03,0 -0.03,0.01 -0.02,0 -0.03,0 c -0.29,0 -0.53,-0.24 -0.53,-0.53 0,-0.29 0.24,-0.53 0.53,-0.53 0.29,0 0.53,0.24 0.53,0.53 z"
         inkscape:connector-curvature="0"
         style="fill:#000000;stroke-width:0" /><path
         id="path15239"
         d="m 245.46,659.71 0.01,0.11 0,0.12 0.02,0.11 0.02,0.1 0.02,0.11 0.02,0.1 0.03,0.09 0.04,0.1 0.04,0.09 0.04,0.08 0.04,0.09 0.05,0.08 0.04,0.08 0.05,0.08 0.06,0.07 0.05,0.07 0.05,0.07 0.06,0.06 0.05,0.06 0.06,0.06 0.05,0.05 0.06,0.06 0.05,0.05 0.05,0.04 0.06,0.05 0.05,0.04 0.04,0.04 0.05,0.04 0.04,0.03 0.04,0.03 0.04,0.03 0.04,0.02 c 0.26,0.2 0.47,0.56 0.47,0.98 0,0.57 -0.39,1.34 -1.88,1.34 -1.07,0 -1.69,-0.68 -1.69,-1.32 0,-0.34 0.23,-0.48 0.46,-0.48 0.28,0 0.46,0.2 0.46,0.46 0,0.44 -0.42,0.44 -0.56,0.44 0.31,0.53 0.89,0.68 1.3,0.68 1.09,0 1.09,-0.68 1.09,-1.06 0,-0.59 -0.16,-0.77 -0.34,-0.95 -0.66,-0.71 -0.88,-1.63 -0.88,-2.23 v -0.45 c 0,-0.18 0,-0.24 0.12,-0.24 0.13,0 0.13,0.09 0.13,0.27 z"
         inkscape:connector-curvature="0"
         style="fill:#000000;stroke-width:0" /><path
         id="path15241"
         d="m 245.86,657.76 0,0.03 0,0.03 -0.01,0.02 0,0.03 -0.01,0.02 0,0.03 -0.01,0.02 -0.01,0.03 -0.01,0.02 -0.01,0.02 -0.02,0.02 -0.01,0.03 -0.01,0.02 -0.02,0.02 -0.02,0.01 -0.01,0.02 -0.02,0.02 -0.02,0.02 -0.02,0.01 -0.02,0.02 -0.02,0.01 -0.03,0.01 -0.02,0.02 -0.02,0.01 -0.03,0.01 -0.02,0 -0.03,0.01 -0.02,0.01 -0.03,0 -0.02,0.01 -0.03,0 -0.03,0 c -0.29,0 -0.52,-0.24 -0.52,-0.53 0,-0.29 0.23,-0.53 0.52,-0.53 0.29,0 0.53,0.24 0.53,0.53 z"
         inkscape:connector-curvature="0"
         style="fill:#000000;stroke-width:0" /><path
         id="path15243"
         d="m 250.71,659.72 -0.01,0.07 0,0.08 0,0.08 0,0.08 -0.01,0.17 -0.01,0.17 -0.02,0.18 -0.02,0.19 -0.03,0.2 -0.03,0.2 -0.04,0.2 -0.04,0.21 -0.06,0.21 -0.06,0.21 -0.07,0.21 -0.08,0.21 -0.04,0.11 -0.04,0.11 -0.05,0.1 -0.05,0.11 c -0.6,1.22 -1.45,1.86 -1.55,1.86 -0.06,0 -0.1,-0.03 -0.1,-0.09 0,-0.03 0,-0.05 0.19,-0.23 0.97,-0.99 1.54,-2.57 1.54,-4.64 0,-1.7 -0.37,-3.45 -1.6,-4.7 -0.13,-0.12 -0.13,-0.14 -0.13,-0.17 0,-0.06 0.04,-0.1 0.1,-0.1 0.1,0 0.99,0.68 1.58,1.94 0.51,1.09 0.63,2.19 0.63,3.03 z"
         inkscape:connector-curvature="0"
         style="fill:#000000;stroke-width:0" /></g>    <text
       xml:space="preserve"
       style="font-size:16px;font-style:normal;font-variant:normal;font-weight:500;font-stretch:normal;text-align:start;line-height:100%;letter-spacing:0px;word-spacing:0px;writing-mode:lr-tb;text-anchor:start;fill:#000000;fill-opacity:1;stroke:none;font-family:Rekha;-inkscape-font-specification:Rekha Medium"
       x="126.97164"
       y="746.04724"
       id="text15665"
       sodipodi:linespacing="100%"><tspan
         sodipodi:role="line"
         id="tspan15667"
         x="126.97164"
         y="746.04724">Atomic</tspan><tspan
         sodipodi:role="line"
         x="126.97164"
         y="762.04724"
         id="tspan15669">Polarizability</tspan></text>
    <text
       xml:space="preserve"
       style="font-size:16px;font-style:normal;font-variant:normal;font-weight:500;font-stretch:normal;text-align:start;line-height:100%;letter-spacing:0px;word-spacing:0px;writing-mode:lr-tb;text-anchor:start;fill:#000000;fill-opacity:1;stroke:none;font-family:Rekha;-inkscape-font-specification:Rekha Medium"
       x="495.63831"
       y="929.38055"
       id="text15671"
       sodipodi:linespacing="100%"><tspan
         sodipodi:role="line"
         id="tspan15673"
         x="495.63831"
         y="929.38055">u</tspan></text>
  </g>
</svg>
