<?xml version="1.0" encoding="UTF-8" standalone="no"?>
<!-- Created with Inkscape (http://www.inkscape.org/) -->

<svg
   xmlns:ns0="http://www.iki.fi/pav/software/textext/"
   xmlns:dc="http://purl.org/dc/elements/1.1/"
   xmlns:cc="http://creativecommons.org/ns#"
   xmlns:rdf="http://www.w3.org/1999/02/22-rdf-syntax-ns#"
   xmlns:svg="http://www.w3.org/2000/svg"
   xmlns="http://www.w3.org/2000/svg"
   xmlns:sodipodi="http://sodipodi.sourceforge.net/DTD/sodipodi-0.dtd"
   xmlns:inkscape="http://www.inkscape.org/namespaces/inkscape"
   width="412.14255"
   height="166.90175"
   id="svg2"
   version="1.1"
   inkscape:version="0.91 r13725"
   sodipodi:docname="figure73.svg">
  <sodipodi:namedview
     id="base"
     pagecolor="#ffffff"
     bordercolor="#666666"
     borderopacity="1.0"
     inkscape:pageopacity="0.0"
     inkscape:pageshadow="2"
     inkscape:zoom="1.85"
     inkscape:cx="201.99108"
     inkscape:cy="49.313281"
     inkscape:document-units="px"
     inkscape:current-layer="layer1"
     showgrid="true"
     units="in"
     width="11cm"
     inkscape:window-width="1536"
     inkscape:window-height="803"
     inkscape:window-x="-8"
     inkscape:window-y="-8"
     inkscape:window-maximized="1"
     fit-margin-top="0"
     fit-margin-left="0"
     fit-margin-right="0"
     fit-margin-bottom="0">
    <inkscape:grid
       spacingy="2px"
       spacingx="2px"
       snapvisiblegridlinesonly="true"
       enabled="true"
       visible="true"
       empspacing="5"
       id="grid2984"
       type="xygrid"
       originx="-174.18369"
       originy="-164.73106" />
  </sodipodi:namedview>
  <defs
     id="defs4">
    <marker
       style="overflow:visible"
       id="Arrow2Lend"
       refX="0"
       refY="0"
       orient="auto"
       inkscape:stockid="Arrow2Lend">
      <path
         transform="matrix(-1.1,0,0,-1.1,-1.1,0)"
         d="M 8.7185878,4.0337352 -2.2072895,0.01601326 8.7185884,-4.0017078 c -1.7454984,2.3720609 -1.7354408,5.6174519 -6e-7,8.035443 z"
         style="fill-rule:evenodd;stroke-width:0.625;stroke-linejoin:round"
         id="path4191"
         inkscape:connector-curvature="0" />
    </marker>
    <marker
       style="overflow:visible"
       id="Arrow2Lstart"
       refX="0"
       refY="0"
       orient="auto"
       inkscape:stockid="Arrow2Lstart">
      <path
         transform="matrix(1.1,0,0,1.1,1.1,0)"
         d="M 8.7185878,4.0337352 -2.2072895,0.01601326 8.7185884,-4.0017078 c -1.7454984,2.3720609 -1.7354408,5.6174519 -6e-7,8.035443 z"
         style="fill-rule:evenodd;stroke-width:0.625;stroke-linejoin:round"
         id="path4188"
         inkscape:connector-curvature="0" />
    </marker>
    <marker
       inkscape:stockid="Arrow2Mend"
       orient="auto"
       refY="0"
       refX="0"
       id="Arrow2Mend"
       style="overflow:visible">
      <path
         inkscape:connector-curvature="0"
         id="path3966"
         style="fill-rule:evenodd;stroke-width:0.625;stroke-linejoin:round"
         d="M 8.7185878,4.0337352 -2.2072895,0.01601326 8.7185884,-4.0017078 c -1.7454984,2.3720609 -1.7354408,5.6174519 -6e-7,8.035443 z"
         transform="scale(-0.6,-0.6)" />
    </marker>
  </defs>
  <metadata
     id="metadata7">
    <rdf:RDF>
      <cc:Work
         rdf:about="">
        <dc:format>image/svg+xml</dc:format>
        <dc:type
           rdf:resource="http://purl.org/dc/dcmitype/StillImage" />
        <dc:title></dc:title>
      </cc:Work>
    </rdf:RDF>
  </metadata>
  <g
     inkscape:label="Layer 1"
     inkscape:groupmode="layer"
     id="layer1"
     transform="translate(-111.15533,-744.41443)">
    <path
       transform="translate(-63.028358,665.51153)"
       inkscape:connector-curvature="0"
       id="path13326"
       d="m 280,80.535706 0,160.000004"
       style="fill:none;stroke:#000000;stroke-width:1px;stroke-linecap:butt;stroke-linejoin:miter;stroke-opacity:1;marker-start:url(#Arrow2Lstart)" />
    <path
       sodipodi:nodetypes="cc"
       transform="translate(-63.028358,665.51153)"
       inkscape:connector-curvature="0"
       id="path13328"
       d="m 230,170.53571 220,0"
       style="fill:none;stroke:#000000;stroke-width:1;stroke-linecap:butt;stroke-linejoin:miter;stroke-miterlimit:4;stroke-dasharray:8, 8;stroke-dashoffset:0;stroke-opacity:1" />
    <path
       sodipodi:nodetypes="cc"
       transform="translate(-63.028358,665.51153)"
       inkscape:connector-curvature="0"
       id="path13330"
       d="m 280,120.53571 c 10,50 130,40 170,40"
       style="fill:none;stroke:#000000;stroke-width:1px;stroke-linecap:butt;stroke-linejoin:miter;stroke-opacity:1" />
    <path
       transform="translate(-63.028358,665.51153)"
       inkscape:connector-curvature="0"
       id="path13350"
       d="m 280,120.53571 170,0"
       style="fill:none;stroke:#000000;stroke-width:1;stroke-linecap:butt;stroke-linejoin:miter;stroke-miterlimit:4;stroke-dasharray:8, 8;stroke-dashoffset:0;stroke-opacity:1"
       sodipodi:nodetypes="cc" />
    <path
       transform="translate(-63.028358,665.51153)"
       inkscape:connector-curvature="0"
       id="path13352"
       d="m 420,160.53571 0,-40"
       style="fill:none;stroke:#000000;stroke-width:1px;stroke-linecap:butt;stroke-linejoin:miter;stroke-opacity:1;marker-start:url(#Arrow2Lstart);marker-end:url(#Arrow2Lend)"
       sodipodi:nodetypes="cc" />
    <text
       sodipodi:linespacing="100%"
       id="text14428"
       y="756.04724"
       x="186.97165"
       style="font-style:normal;font-variant:normal;font-weight:500;font-stretch:normal;font-size:16px;line-height:100%;font-family:Rekha;-inkscape-font-specification:'Rekha Medium';text-align:start;letter-spacing:0px;word-spacing:0px;writing-mode:lr-tb;text-anchor:start;fill:#000000;fill-opacity:1;stroke:none"
       xml:space="preserve"><tspan
         y="756.04724"
         x="186.97165"
         id="tspan14430"
         sodipodi:role="line">E</tspan></text>
    <text
       sodipodi:linespacing="100%"
       id="text14432"
       y="876.04724"
       x="146.97163"
       style="font-style:normal;font-variant:normal;font-weight:500;font-stretch:normal;font-size:16px;line-height:100%;font-family:Rekha;-inkscape-font-specification:'Rekha Medium';text-align:start;letter-spacing:0px;word-spacing:0px;writing-mode:lr-tb;text-anchor:start;fill:#000000;fill-opacity:1;stroke:none"
       xml:space="preserve"><tspan
         y="876.04724"
         x="146.97163"
         id="tspan14434"
         sodipodi:role="line">metal</tspan></text>
    <g
       ns0:preamble=""
       ns0:text="$\\mathrm{\\phi_B}$"
       word-spacing="normal"
       letter-spacing="normal"
       font-size-adjust="none"
       font-stretch="normal"
       font-weight="normal"
       font-variant="normal"
       font-style="normal"
       stroke-miterlimit="10.433"
       xml:space="preserve"
       transform="matrix(1.6781887,0,0,-1.8462577,-4.354407,2023.301)"
       id="content"
       style="font-style:normal;font-variant:normal;font-weight:normal;font-stretch:normal;letter-spacing:normal;word-spacing:normal;text-anchor:start;fill:none;stroke:#000000;stroke-linecap:butt;stroke-linejoin:miter;stroke-miterlimit:10.43299961;stroke-dasharray:none;stroke-dashoffset:0;stroke-opacity:1"><path
         id="path14459"
         d="m 227.78,663.89 0,0 0,0 0,0 0,0.01 0,0 0,0 0,0 0,0 0,0.01 0,0 0,0 0,0.01 0.01,0 0,0.01 0,0.01 0,0 0,0.01 0,0 0,0.01 0.01,0.02 0,0 0,0.01 0,0 0,0.01 0,0 0.01,0.01 0,0 0,0.01 0,0 0,0 0,0 0,0 0,0 0,0.01 0,0 0,0 0,0 0,0 0,0 c 0,0.01 0,0.1 -0.12,0.1 -0.1,0 -0.11,-0.03 -0.15,-0.2 l -0.58,-2.29 c -1.58,-0.05 -3.04,-1.37 -3.04,-2.73 0,-0.94 0.7,-1.73 1.91,-1.79 l 0.05,0.21 c -0.6,0.03 -1.31,0.38 -1.31,1.38 0,1.19 0.85,2.58 2.33,2.71 l -1.02,-4.09 -0.05,-0.21 c -0.08,-0.31 -0.15,-0.63 -0.23,-0.94 -0.12,-0.46 -0.22,-0.84 -0.22,-0.87 0,-0.1 0.07,-0.11 0.12,-0.11 0.05,0 0.07,0.01 0.1,0.04 0.02,0.02 0.08,0.26 0.11,0.4 l 0.38,1.48 0.05,0.21 1.02,4.09 c 0.76,-0.04 1.33,-0.5 1.33,-1.37 0,-1.18 -0.86,-2.6 -2.35,-2.72 l -0.05,-0.21 c 1.6,0.04 3.04,1.39 3.04,2.72 0,0.78 -0.52,1.7 -1.91,1.8 z"
         inkscape:connector-curvature="0"
         style="fill:#000000;stroke-width:0" /><path
         id="path14461"
         d="m 229.79,660.49 0,-0.25 0.16,0 c 0.54,0 0.55,-0.07 0.55,-0.31 l 0,-3.63 c 0,-0.23 -0.01,-0.31 -0.55,-0.31 l -0.16,0 0,-0.25 2.95,0 c 0.98,0 1.7,0.61 1.7,1.27 0,0.61 -0.62,1.12 -1.46,1.21 0.68,0.13 1.25,0.55 1.25,1.09 0,0.62 -0.73,1.18 -1.7,1.18 l -0.05,-0.25 c 0.69,0 1.05,-0.49 1.05,-0.93 0,-0.49 -0.46,-1 -1.27,-1 l -1.14,0 0,-0.2 1.48,0 c 0.74,0 1.12,-0.6 1.12,-1.08 0,-0.52 -0.46,-1.04 -1.23,-1.04 l -1.04,0 c -0.33,0 -0.33,0.06 -0.33,0.27 l 0,1.85 0,0.2 0,1.66 c 0,0.21 0,0.27 0.33,0.27 l 1.03,0 0.05,0.25 z"
         inkscape:connector-curvature="0"
         style="fill:#000000;stroke-width:0" /></g>    <text
       xml:space="preserve"
       style="font-style:normal;font-variant:normal;font-weight:500;font-stretch:normal;font-size:16px;line-height:100%;font-family:Rekha;-inkscape-font-specification:'Rekha Medium';text-align:start;letter-spacing:0px;word-spacing:0px;writing-mode:lr-tb;text-anchor:start;fill:#000000;fill-opacity:1;stroke:none"
       x="399.13382"
       y="810.64185"
       id="text16025"
       sodipodi:linespacing="100%"><tspan
         sodipodi:role="line"
         id="tspan16027"
         x="399.13382"
         y="810.64185">(Barrier height)</tspan></text>
    <path
       sodipodi:nodetypes="cc"
       inkscape:connector-curvature="0"
       id="path13330-0"
       d="m 216.97164,846.76153 c 10,50 130,40 170,40"
       style="fill:none;stroke:#000000;stroke-width:1px;stroke-linecap:butt;stroke-linejoin:miter;stroke-opacity:1" />
    <text
       xml:space="preserve"
       style="font-style:normal;font-variant:normal;font-weight:500;font-stretch:normal;font-size:16px;line-height:100%;font-family:Rekha;-inkscape-font-specification:'Rekha Medium';text-align:start;letter-spacing:0px;word-spacing:0px;writing-mode:lr-tb;text-anchor:start;fill:#000000;fill-opacity:1;stroke:none"
       x="143.18784"
       y="826.04724"
       id="text16047"
       sodipodi:linespacing="100%"><tspan
         sodipodi:role="line"
         id="tspan16049"
         x="143.18784"
         y="826.04724">tunnel</tspan></text>
    <path
       sodipodi:type="arc"
       style="opacity:0.96116507;fill:none;stroke:#000000;stroke-width:1;stroke-miterlimit:4;stroke-dasharray:none;stroke-dashoffset:0;stroke-opacity:1"
       id="path16051"
       sodipodi:cx="-124.5"
       sodipodi:cy="116.32802"
       sodipodi:rx="5"
       sodipodi:ry="5"
       d="m -129.49366,116.57967 a 5,5 0 0 1 4.66365,-5.24075 5,5 0 0 1 5.31331,4.58081 5,5 0 0 1 -4.49683,5.38457 5,5 0 0 1 -5.4545,-4.41175"
       transform="matrix(0.81294819,0,0,0.81294819,433.10138,727.17817)"
       sodipodi:start="3.0912408"
       sodipodi:end="3.0284453"
       sodipodi:open="true" />
    <path
       style="fill:none;stroke:#000000;stroke-width:1px;stroke-linecap:butt;stroke-linejoin:miter;stroke-opacity:1;marker-end:url(#Arrow2Lend)"
       d="m 326.56012,821.80856 -130,0"
       id="path16579"
       inkscape:connector-curvature="0"
       sodipodi:nodetypes="cc" />
    <text
       xml:space="preserve"
       style="font-style:normal;font-variant:normal;font-weight:500;font-stretch:normal;font-size:16px;line-height:100%;font-family:Rekha;-inkscape-font-specification:'Rekha Medium';text-align:start;letter-spacing:0px;word-spacing:0px;writing-mode:lr-tb;text-anchor:start;fill:#000000;fill-opacity:1;stroke:none"
       x="123.45679"
       y="166.35477"
       id="text16767"
       sodipodi:linespacing="100%"
       transform="translate(166.47164,744.71922)"><tspan
         sodipodi:role="line"
         id="tspan16769"
         x="123.45679"
         y="166.35477">semiconductor</tspan></text>
    <g
       id="g16882"
       transform="matrix(1.6781887,0,0,-1.8462577,16.18613,2106.0037)"
       xml:space="preserve"
       stroke-miterlimit="10.433"
       font-style="normal"
       font-variant="normal"
       font-weight="normal"
       font-stretch="normal"
       font-size-adjust="none"
       letter-spacing="normal"
       word-spacing="normal"
       ns0:text="$\\mathrm{E_v}$"
       ns0:preamble=""
       style="font-style:normal;font-variant:normal;font-weight:normal;font-stretch:normal;letter-spacing:normal;word-spacing:normal;text-anchor:start;fill:none;stroke:#000000;stroke-linecap:butt;stroke-linejoin:miter;stroke-miterlimit:10.43299961;stroke-dasharray:none;stroke-dashoffset:0;stroke-opacity:1"><path
         style="fill:#000000;stroke-width:0"
         inkscape:connector-curvature="0"
         d="m 224.79,658.01 -0.01,-0.03 0,-0.03 0,-0.03 0,-0.03 0,-0.03 0,-0.03 -0.01,-0.02 0,-0.02 -0.01,-0.03 0,-0.02 -0.01,-0.02 -0.01,-0.02 -0.01,-0.01 -0.02,-0.02 -0.01,-0.01 -0.02,-0.02 -0.02,-0.01 -0.02,-0.01 -0.02,-0.01 -0.01,0 -0.01,-0.01 -0.02,0 -0.01,-0.01 -0.02,0 -0.01,-0.01 -0.02,0 -0.02,0 -0.02,-0.01 -0.01,0 -0.03,0 -0.02,-0.01 -0.02,0 -0.02,0 -0.02,0 -0.03,-0.01 -0.02,0 -0.03,0 -0.03,0 -0.03,0 -0.02,0 -0.03,0 -0.04,-0.01 -0.03,0 -0.03,0 -0.04,0 -0.03,0 -0.24,0 0,-0.31 5.74,0 0.42,2.57 -0.25,0 c -0.25,-1.53 -0.48,-2.26 -2.19,-2.26 l -1.32,0 c -0.47,0 -0.49,0.07 -0.49,0.4 l 0,2.65 0.9,0 c 0.96,0 1.07,-0.31 1.07,-1.16 l 0.25,0 0,2.63 -0.25,0 c 0,-0.85 -0.11,-1.16 -1.07,-1.16 l -0.9,0 0,2.38 c 0,0.33 0.02,0.4 0.49,0.4 l 1.28,0 c 1.52,0 1.79,-0.54 1.95,-1.92 l 0.25,0 -0.28,2.23 -5.6,0 0,-0.31 0.24,0 c 0.76,0 0.79,-0.11 0.79,-0.46 z"
         id="path16884" /><path
         style="fill:#000000;stroke-width:0"
         inkscape:connector-curvature="0"
         d="m 233.51,658.06 0.01,0.02 0.01,0.02 0.01,0.01 0.01,0.02 0.01,0.02 0.01,0.02 0.02,0.03 0.02,0.03 0.03,0.02 0.02,0.03 0.02,0.02 0.03,0.02 0.02,0.02 0.02,0.02 0.03,0.02 0.02,0.01 0.02,0.02 0.03,0.01 0.02,0.01 0.02,0.01 0.03,0.01 0.02,0.01 0.02,0 0.02,0.01 0.03,0 0.02,0.01 0.02,0 0.01,0 0.02,0 0.02,0.01 0.02,0 0.01,0 0.01,0 0.02,0 0.01,0 0,0.25 c -0.18,-0.02 -0.36,-0.03 -0.53,-0.03 -0.19,0 -0.45,0.01 -0.63,0.03 l 0,-0.25 c 0.29,-0.02 0.29,-0.25 0.29,-0.27 0,-0.03 -0.01,-0.1 -0.06,-0.2 l -0.78,-1.72 -0.87,1.9 c 0,0 -0.04,0.08 -0.04,0.13 0,0.16 0.24,0.16 0.35,0.16 l 0,0.25 c -0.01,0 -0.5,-0.03 -0.79,-0.03 -0.21,0 -0.48,0.01 -0.68,0.03 l 0,-0.25 c 0.38,0 0.47,-0.02 0.57,-0.25 l 1.1,-2.42 c 0.03,-0.09 0.08,-0.15 0.19,-0.15 0.14,0 0.17,0.06 0.2,0.14 z"
         id="path16886" /></g>    <g
       style="font-style:normal;font-variant:normal;font-weight:normal;font-stretch:normal;letter-spacing:normal;word-spacing:normal;text-anchor:start;fill:none;stroke:#000000;stroke-linecap:butt;stroke-linejoin:miter;stroke-miterlimit:10.43299961;stroke-dasharray:none;stroke-dashoffset:0;stroke-opacity:1"
       ns0:preamble=""
       ns0:text="$\\mathrm{\\phi_{fs}}$"
       word-spacing="normal"
       letter-spacing="normal"
       font-size-adjust="none"
       font-stretch="normal"
       font-weight="normal"
       font-variant="normal"
       font-style="normal"
       stroke-miterlimit="10.433"
       xml:space="preserve"
       transform="matrix(1.6781887,0,0,-1.8462577,0.51045848,2064.3821)"
       id="g16967"><path
         style="fill:#000000;stroke-width:0"
         inkscape:connector-curvature="0"
         id="path16969"
         d="m 227.78,663.89 0,0 0,0 0,0 0,0.01 0,0 0,0 0,0 0,0 0,0.01 0,0 0,0 0,0.01 0.01,0 0,0.01 0,0.01 0,0 0,0.01 0,0 0,0.01 0.01,0.02 0,0 0,0.01 0,0 0,0.01 0,0 0.01,0.01 0,0 0,0.01 0,0 0,0 0,0 0,0 0,0 0,0.01 0,0 0,0 0,0 0,0 0,0 c 0,0.01 0,0.1 -0.12,0.1 -0.1,0 -0.11,-0.03 -0.15,-0.2 l -0.58,-2.29 c -1.58,-0.05 -3.04,-1.37 -3.04,-2.73 0,-0.94 0.7,-1.73 1.91,-1.79 l 0.05,0.21 c -0.6,0.03 -1.31,0.38 -1.31,1.38 0,1.19 0.85,2.58 2.33,2.71 l -1.02,-4.09 -0.05,-0.21 c -0.08,-0.31 -0.15,-0.63 -0.23,-0.94 -0.12,-0.46 -0.22,-0.84 -0.22,-0.87 0,-0.1 0.07,-0.11 0.12,-0.11 0.05,0 0.07,0.01 0.1,0.04 0.02,0.02 0.08,0.26 0.11,0.4 l 0.38,1.48 0.05,0.21 1.02,4.09 c 0.76,-0.04 1.33,-0.5 1.33,-1.37 0,-1.18 -0.86,-2.6 -2.35,-2.72 l -0.05,-0.21 c 1.6,0.04 3.04,1.39 3.04,2.72 0,0.78 -0.52,1.7 -1.91,1.8 z" /><path
         style="fill:#000000;stroke-width:0"
         inkscape:connector-curvature="0"
         id="path16971"
         d="m 230.8,658.49 0.87,0 0,0.25 -0.9,0 0,0.78 c 0,0.63 0.38,0.92 0.68,0.92 0.06,0 0.13,-0.01 0.2,-0.03 -0.1,-0.06 -0.15,-0.17 -0.15,-0.28 0,-0.19 0.13,-0.32 0.32,-0.32 0.19,0 0.32,0.13 0.32,0.32 0,0.3 -0.3,0.51 -0.68,0.51 -0.55,0 -1.18,-0.39 -1.18,-1.12 l 0,-0.78 -0.6,0 0,-0.25 0.6,0 0,-2.2 c 0,-0.3 -0.07,-0.3 -0.52,-0.3 l 0,-0.25 c 0.03,0 0.51,0.03 0.79,0.03 0.3,0 0.61,-0.01 0.91,-0.03 l 0,0.25 -0.14,0 c -0.52,0 -0.52,0.08 -0.52,0.31 z" /><path
         style="fill:#000000;stroke-width:0"
         inkscape:connector-curvature="0"
         id="path16973"
         d="m 234.48,658.66 0,0.01 0,0.01 0,0.01 0,0.01 0,0.01 0,0.01 0,0.01 0,0.01 0,0.01 0,0.01 -0.01,0 0,0.01 0,0.01 0,0 0,0.01 0,0.01 -0.01,0 0,0.01 0,0 -0.01,0.01 0,0 0,0 -0.01,0.01 0,0 -0.01,0 0,0.01 -0.01,0 0,0 -0.01,0 0,0 0,0 -0.01,0 0,0 -0.01,0 0,0 -0.01,0 0,0 c -0.03,0 -0.05,0 -0.14,-0.08 -0.01,-0.01 -0.08,-0.07 -0.12,-0.1 -0.21,0.14 -0.48,0.18 -0.74,0.18 -0.99,0 -1.23,-0.52 -1.23,-0.87 0,-0.22 0.1,-0.4 0.27,-0.54 0.26,-0.23 0.53,-0.28 0.96,-0.35 0.35,-0.06 0.91,-0.16 0.91,-0.62 0,-0.27 -0.19,-0.59 -0.86,-0.59 -0.67,0 -0.91,0.43 -1.03,0.91 -0.03,0.09 -0.03,0.12 -0.13,0.12 -0.12,0 -0.12,-0.05 -0.12,-0.19 l 0,-0.86 c 0,-0.12 0,-0.18 0.1,-0.18 0.06,0 0.19,0.15 0.33,0.3 0.31,-0.29 0.69,-0.3 0.85,-0.3 0.91,0 1.24,0.49 1.24,0.98 0,0.27 -0.12,0.47 -0.3,0.64 -0.26,0.24 -0.58,0.3 -0.83,0.34 -0.55,0.1 -1,0.18 -1,0.55 0,0.22 0.18,0.49 0.84,0.49 0.81,0 0.85,-0.56 0.86,-0.76 0.01,-0.08 0.09,-0.08 0.12,-0.08 0.12,0 0.12,0.05 0.12,0.19 z" /></g>    <g
       id="g17056"
       transform="matrix(1.6781887,0,0,-1.8462577,16.186137,2047.0848)"
       xml:space="preserve"
       stroke-miterlimit="10.433"
       font-style="normal"
       font-variant="normal"
       font-weight="normal"
       font-stretch="normal"
       font-size-adjust="none"
       letter-spacing="normal"
       word-spacing="normal"
       ns0:text="$\\mathrm{E_c}$"
       ns0:preamble=""
       style="font-style:normal;font-variant:normal;font-weight:normal;font-stretch:normal;letter-spacing:normal;word-spacing:normal;text-anchor:start;fill:none;stroke:#000000;stroke-linecap:butt;stroke-linejoin:miter;stroke-miterlimit:10.43299961;stroke-dasharray:none;stroke-dashoffset:0;stroke-opacity:1"><path
         style="fill:#000000;stroke-width:0"
         inkscape:connector-curvature="0"
         d="m 224.79,658.01 -0.01,-0.03 0,-0.03 0,-0.03 0,-0.03 0,-0.03 0,-0.03 -0.01,-0.02 0,-0.02 -0.01,-0.03 0,-0.02 -0.01,-0.02 -0.01,-0.02 -0.01,-0.01 -0.02,-0.02 -0.01,-0.01 -0.02,-0.02 -0.02,-0.01 -0.02,-0.01 -0.02,-0.01 -0.01,0 -0.01,-0.01 -0.02,0 -0.01,-0.01 -0.02,0 -0.01,-0.01 -0.02,0 -0.02,0 -0.02,-0.01 -0.01,0 -0.03,0 -0.02,-0.01 -0.02,0 -0.02,0 -0.02,0 -0.03,-0.01 -0.02,0 -0.03,0 -0.03,0 -0.03,0 -0.02,0 -0.03,0 -0.04,-0.01 -0.03,0 -0.03,0 -0.04,0 -0.03,0 -0.24,0 0,-0.31 5.74,0 0.42,2.57 -0.25,0 c -0.25,-1.53 -0.48,-2.26 -2.19,-2.26 l -1.32,0 c -0.47,0 -0.49,0.07 -0.49,0.4 l 0,2.65 0.9,0 c 0.96,0 1.07,-0.31 1.07,-1.16 l 0.25,0 0,2.63 -0.25,0 c 0,-0.85 -0.11,-1.16 -1.07,-1.16 l -0.9,0 0,2.38 c 0,0.33 0.02,0.4 0.49,0.4 l 1.28,0 c 1.52,0 1.79,-0.54 1.95,-1.92 l 0.25,0 -0.28,2.23 -5.6,0 0,-0.31 0.24,0 c 0.76,0 0.79,-0.11 0.79,-0.46 z"
         id="path17058" /><path
         style="fill:#000000;stroke-width:0"
         inkscape:connector-curvature="0"
         d="m 232.92,658.52 -0.01,-0.01 -0.01,-0.01 -0.01,0 -0.01,-0.01 -0.01,0 -0.01,-0.01 -0.01,-0.01 -0.01,-0.01 -0.01,0 -0.01,-0.01 -0.01,-0.01 -0.01,-0.01 0,-0.01 -0.01,-0.01 -0.01,-0.01 0,-0.01 -0.01,-0.01 -0.01,-0.01 0,-0.01 -0.01,-0.01 0,-0.01 0,-0.01 -0.01,-0.01 0,-0.01 0,-0.01 -0.01,-0.01 0,-0.02 0,-0.01 0,-0.01 0,-0.01 0,-0.02 0,-0.01 c 0,-0.19 0.13,-0.33 0.32,-0.33 0.19,0 0.34,0.12 0.34,0.34 0,0.62 -0.97,0.62 -1.16,0.62 -1.05,0 -1.7,-0.8 -1.7,-1.6 0,-0.87 0.75,-1.57 1.66,-1.57 1.04,0 1.28,0.82 1.28,0.91 0,0.08 -0.09,0.08 -0.12,0.08 -0.09,0 -0.09,-0.02 -0.13,-0.12 -0.15,-0.43 -0.52,-0.65 -0.95,-0.65 -0.48,0 -1.1,0.36 -1.1,1.36 0,0.88 0.43,1.37 1.08,1.37 0.09,0 0.42,0 0.67,-0.1 z"
         id="path17060" /></g>    <g
       style="font-style:normal;font-variant:normal;font-weight:normal;font-stretch:normal;letter-spacing:normal;word-spacing:normal;text-anchor:start;fill:none;stroke:#000000;stroke-linecap:butt;stroke-linejoin:miter;stroke-miterlimit:10.43299961;stroke-dasharray:none;stroke-dashoffset:0;stroke-opacity:1"
       ns0:preamble=""
       ns0:text="$\\mathrm{\\phi_{fm}}$"
       word-spacing="normal"
       letter-spacing="normal"
       font-size-adjust="none"
       font-stretch="normal"
       font-weight="normal"
       font-variant="normal"
       font-style="normal"
       stroke-miterlimit="10.433"
       xml:space="preserve"
       transform="matrix(1.6781887,0,0,-1.8462577,-264.62468,2054.6524)"
       id="g17173"><path
         id="path17175"
         d="m 227.78,663.89 0,0 0,0 0,0 0,0.01 0,0 0,0 0,0 0,0 0,0.01 0,0 0,0 0,0.01 0.01,0 0,0.01 0,0.01 0,0 0,0.01 0,0 0,0.01 0.01,0.02 0,0 0,0.01 0,0 0,0.01 0,0 0.01,0.01 0,0 0,0.01 0,0 0,0 0,0 0,0 0,0 0,0.01 0,0 0,0 0,0 0,0 0,0 c 0,0.01 0,0.1 -0.12,0.1 -0.1,0 -0.11,-0.03 -0.15,-0.2 l -0.58,-2.29 c -1.58,-0.05 -3.04,-1.37 -3.04,-2.73 0,-0.94 0.7,-1.73 1.91,-1.79 l 0.05,0.21 c -0.6,0.03 -1.31,0.38 -1.31,1.38 0,1.19 0.85,2.58 2.33,2.71 l -1.02,-4.09 -0.05,-0.21 c -0.08,-0.31 -0.15,-0.63 -0.23,-0.94 -0.12,-0.46 -0.22,-0.84 -0.22,-0.87 0,-0.1 0.07,-0.11 0.12,-0.11 0.05,0 0.07,0.01 0.1,0.04 0.02,0.02 0.08,0.26 0.11,0.4 l 0.38,1.48 0.05,0.21 1.02,4.09 c 0.76,-0.04 1.33,-0.5 1.33,-1.37 0,-1.18 -0.86,-2.6 -2.35,-2.72 l -0.05,-0.21 c 1.6,0.04 3.04,1.39 3.04,2.72 0,0.78 -0.52,1.7 -1.91,1.8 z"
         inkscape:connector-curvature="0"
         style="fill:#000000;stroke-width:0" /><path
         id="path17177"
         d="m 230.8,658.49 0.87,0 0,0.25 -0.9,0 0,0.78 c 0,0.63 0.38,0.92 0.68,0.92 0.06,0 0.13,-0.01 0.2,-0.03 -0.1,-0.06 -0.15,-0.17 -0.15,-0.28 0,-0.19 0.13,-0.32 0.32,-0.32 0.19,0 0.32,0.13 0.32,0.32 0,0.3 -0.3,0.51 -0.68,0.51 -0.55,0 -1.18,-0.39 -1.18,-1.12 l 0,-0.78 -0.6,0 0,-0.25 0.6,0 0,-2.2 c 0,-0.3 -0.07,-0.3 -0.52,-0.3 l 0,-0.25 c 0.03,0 0.51,0.03 0.79,0.03 0.3,0 0.61,-0.01 0.91,-0.03 l 0,0.25 -0.14,0 c -0.52,0 -0.52,0.08 -0.52,0.31 z"
         inkscape:connector-curvature="0"
         style="fill:#000000;stroke-width:0" /><path
         id="path17179"
         d="m 237.56,657.85 0,0.05 0,0.06 -0.01,0.05 0,0.05 -0.01,0.05 -0.01,0.05 -0.01,0.05 -0.02,0.04 -0.01,0.05 -0.02,0.04 -0.02,0.04 -0.02,0.04 -0.03,0.03 -0.02,0.04 -0.03,0.03 -0.03,0.03 -0.03,0.03 -0.04,0.03 -0.03,0.03 -0.04,0.02 -0.05,0.03 -0.04,0.02 -0.05,0.02 -0.04,0.01 -0.06,0.02 -0.05,0.01 -0.05,0.01 -0.06,0.01 -0.06,0.01 -0.07,0 -0.06,0.01 -0.07,0 c -0.55,0 -0.93,-0.3 -1.12,-0.65 -0.14,0.5 -0.51,0.65 -1.02,0.65 -0.57,0 -0.94,-0.32 -1.14,-0.68 l 0,0 0,0.68 -1.03,-0.08 0,-0.25 c 0.47,0 0.53,-0.05 0.53,-0.39 l 0,-1.8 c 0,-0.3 -0.07,-0.3 -0.53,-0.3 l 0,-0.25 c 0.02,0 0.51,0.03 0.8,0.03 0.26,0 0.74,-0.02 0.8,-0.03 l 0,0.25 c -0.45,0 -0.52,0 -0.52,0.3 l 0,1.25 c 0,0.73 0.58,1.07 1.03,1.07 0.49,0 0.56,-0.38 0.56,-0.73 l 0,-1.59 c 0,-0.3 -0.08,-0.3 -0.53,-0.3 l 0,-0.25 c 0.02,0 0.5,0.03 0.8,0.03 0.25,0 0.73,-0.02 0.8,-0.03 l 0,0.25 c -0.46,0 -0.52,0 -0.52,0.3 l 0,1.25 c 0,0.73 0.57,1.07 1.03,1.07 0.49,0 0.55,-0.38 0.55,-0.73 l 0,-1.59 c 0,-0.3 -0.07,-0.3 -0.52,-0.3 l 0,-0.25 c 0.01,0 0.5,0.03 0.79,0.03 0.26,0 0.74,-0.02 0.81,-0.03 l 0,0.25 c -0.46,0 -0.53,0 -0.53,0.3 z"
         inkscape:connector-curvature="0"
         style="fill:#000000;stroke-width:0" /></g>  </g>
</svg>
