<?xml version="1.0" encoding="UTF-8" standalone="no"?>
<!-- Created with Inkscape (http://www.inkscape.org/) -->

<svg
   xmlns:ns0="http://www.iki.fi/pav/software/textext/"
   xmlns:dc="http://purl.org/dc/elements/1.1/"
   xmlns:cc="http://creativecommons.org/ns#"
   xmlns:rdf="http://www.w3.org/1999/02/22-rdf-syntax-ns#"
   xmlns:svg="http://www.w3.org/2000/svg"
   xmlns="http://www.w3.org/2000/svg"
   xmlns:sodipodi="http://sodipodi.sourceforge.net/DTD/sodipodi-0.dtd"
   xmlns:inkscape="http://www.inkscape.org/namespaces/inkscape"
   width="288.09317"
   height="263.84479"
   id="svg2"
   version="1.1"
   inkscape:version="0.48.4 r9939"
   sodipodi:docname="New document 10">
  <sodipodi:namedview
     id="base"
     pagecolor="#ffffff"
     bordercolor="#666666"
     borderopacity="1.0"
     inkscape:pageopacity="0.0"
     inkscape:pageshadow="2"
     inkscape:zoom="1.4088798"
     inkscape:cx="134.00783"
     inkscape:cy="172.01985"
     inkscape:document-units="px"
     inkscape:current-layer="layer1"
     showgrid="true"
     units="in"
     width="11cm"
     inkscape:window-width="1274"
     inkscape:window-height="529"
     inkscape:window-x="0"
     inkscape:window-y="435"
     inkscape:window-maximized="0"
     fit-margin-top="0"
     fit-margin-left="0"
     fit-margin-right="0"
     fit-margin-bottom="0"
     inkscape:snap-grids="false">
    <inkscape:grid
       spacingy="2px"
       spacingx="2px"
       snapvisiblegridlinesonly="true"
       enabled="true"
       visible="true"
       empspacing="5"
       id="grid2984"
       type="xygrid"
       originx="-72.406838px"
       originy="-128.96191px" />
  </sodipodi:namedview>
  <defs
     id="defs4">
    <marker
       style="overflow:visible"
       id="Arrow2Lstart"
       refX="0"
       refY="0"
       orient="auto"
       inkscape:stockid="Arrow2Lstart">
      <path
         transform="matrix(1.1,0,0,1.1,1.1,0)"
         d="M 8.7185878,4.0337352 -2.2072895,0.01601326 8.7185884,-4.0017078 c -1.7454984,2.3720609 -1.7354408,5.6174519 -6e-7,8.035443 z"
         style="fill-rule:evenodd;stroke-width:0.625;stroke-linejoin:round"
         id="path3878"
         inkscape:connector-curvature="0" />
    </marker>
    <marker
       style="overflow:visible"
       id="Arrow2Lend"
       refX="0"
       refY="0"
       orient="auto"
       inkscape:stockid="Arrow2Lend">
      <path
         transform="matrix(-1.1,0,0,-1.1,-1.1,0)"
         d="M 8.7185878,4.0337352 -2.2072895,0.01601326 8.7185884,-4.0017078 c -1.7454984,2.3720609 -1.7354408,5.6174519 -6e-7,8.035443 z"
         style="fill-rule:evenodd;stroke-width:0.625;stroke-linejoin:round"
         id="path3881"
         inkscape:connector-curvature="0" />
    </marker>
    <marker
       inkscape:stockid="Arrow2Mend"
       orient="auto"
       refY="0"
       refX="0"
       id="Arrow2Mend"
       style="overflow:visible">
      <path
         inkscape:connector-curvature="0"
         id="path3966"
         style="fill-rule:evenodd;stroke-width:0.625;stroke-linejoin:round"
         d="M 8.7185878,4.0337352 -2.2072895,0.01601326 8.7185884,-4.0017078 c -1.7454984,2.3720609 -1.7354408,5.6174519 -6e-7,8.035443 z"
         transform="scale(-0.6,-0.6)" />
    </marker>
  </defs>
  <metadata
     id="metadata7">
    <rdf:RDF>
      <cc:Work
         rdf:about="">
        <dc:format>image/svg+xml</dc:format>
        <dc:type
           rdf:resource="http://purl.org/dc/dcmitype/StillImage" />
        <dc:title></dc:title>
      </cc:Work>
    </rdf:RDF>
  </metadata>
  <g
     inkscape:label="Layer 1"
     inkscape:groupmode="layer"
     id="layer1"
     transform="translate(-9.3784804,-683.24054)">
    <path
       sodipodi:nodetypes="ccc"
       transform="translate(-63.028358,665.51153)"
       inkscape:connector-curvature="0"
       id="path4800"
       d="m 130,60.535706 0,180.000004 230,0"
       style="fill:none;stroke:#000000;stroke-width:1px;stroke-linecap:butt;stroke-linejoin:miter;stroke-opacity:1" />
    <path
       sodipodi:nodetypes="cc"
       inkscape:connector-curvature="0"
       id="path4804"
       d="m 66.561005,855.98421 10,0"
       style="fill:none;stroke:#000000;stroke-width:1px;stroke-linecap:butt;stroke-linejoin:miter;stroke-opacity:1" />
    <path
       sodipodi:nodetypes="cc"
       inkscape:connector-curvature="0"
       id="path4806"
       d="m 66.561005,796.28125 10,0"
       style="fill:none;stroke:#000000;stroke-width:1px;stroke-linecap:butt;stroke-linejoin:miter;stroke-opacity:1" />
    <path
       sodipodi:nodetypes="cc"
       inkscape:connector-curvature="0"
       id="path4808"
       d="m 67.382279,737.16897 10,0"
       style="fill:none;stroke:#000000;stroke-width:1px;stroke-linecap:butt;stroke-linejoin:miter;stroke-opacity:1" />
    <path
       sodipodi:nodetypes="cc"
       inkscape:connector-curvature="0"
       id="path4810"
       d="m 123.31885,905.6366 0,-10"
       style="fill:none;stroke:#000000;stroke-width:1px;stroke-linecap:butt;stroke-linejoin:miter;stroke-opacity:1" />
    <path
       inkscape:connector-curvature="0"
       id="path4812"
       d="m 166.85805,905.7481 0,-10"
       style="fill:none;stroke:#000000;stroke-width:1px;stroke-linecap:butt;stroke-linejoin:miter;stroke-opacity:1" />
    <path
       inkscape:connector-curvature="0"
       id="path4814"
       d="m 212.09003,905.74809 0,-10"
       style="fill:none;stroke:#000000;stroke-width:1px;stroke-linecap:butt;stroke-linejoin:miter;stroke-opacity:1" />
    <path
       inkscape:connector-curvature="0"
       id="path4816"
       d="m 257.11635,906.35088 0,-10"
       style="fill:none;stroke:#000000;stroke-width:1px;stroke-linecap:butt;stroke-linejoin:miter;stroke-opacity:1" />
    <text
       sodipodi:linespacing="100%"
       id="text4818"
       y="894.81531"
       x="112.86527"
       style="font-size:16px;font-style:normal;font-variant:normal;font-weight:500;font-stretch:normal;text-align:start;line-height:100%;letter-spacing:0px;word-spacing:0px;writing-mode:lr-tb;text-anchor:start;fill:#000000;fill-opacity:1;stroke:none;font-family:Rekha;-inkscape-font-specification:Rekha Medium"
       xml:space="preserve"><tspan
         y="894.81531"
         x="112.86527"
         id="tspan4820"
         sodipodi:role="line">Mn</tspan></text>
    <text
       sodipodi:linespacing="100%"
       id="text4822"
       y="894.40466"
       x="155.4738"
       style="font-size:16px;font-style:normal;font-variant:normal;font-weight:500;font-stretch:normal;text-align:start;line-height:100%;letter-spacing:0px;word-spacing:0px;writing-mode:lr-tb;text-anchor:start;fill:#000000;fill-opacity:1;stroke:none;font-family:Rekha;-inkscape-font-specification:Rekha Medium"
       xml:space="preserve"><tspan
         y="894.40466"
         x="155.4738"
         id="tspan4824"
         sodipodi:role="line">Fe</tspan></text>
    <text
       sodipodi:linespacing="100%"
       id="text4826"
       y="894.81531"
       x="204.0972"
       style="font-size:16px;font-style:normal;font-variant:normal;font-weight:500;font-stretch:normal;text-align:start;line-height:100%;letter-spacing:0px;word-spacing:0px;writing-mode:lr-tb;text-anchor:start;fill:#000000;fill-opacity:1;stroke:none;font-family:Rekha;-inkscape-font-specification:Rekha Medium"
       xml:space="preserve"><tspan
         y="894.81531"
         x="204.0972"
         id="tspan4828"
         sodipodi:role="line">Co</tspan></text>
    <text
       sodipodi:linespacing="100%"
       id="text4830"
       y="894.81531"
       x="249.58018"
       style="font-size:16px;font-style:normal;font-variant:normal;font-weight:500;font-stretch:normal;text-align:start;line-height:100%;letter-spacing:0px;word-spacing:0px;writing-mode:lr-tb;text-anchor:start;fill:#000000;fill-opacity:1;stroke:none;font-family:Rekha;-inkscape-font-specification:Rekha Medium"
       xml:space="preserve"><tspan
         y="894.81531"
         x="249.58018"
         id="tspan4832"
         sodipodi:role="line">Ni</tspan></text>
    <text
       sodipodi:linespacing="100%"
       id="text4834"
       y="922.4848"
       x="119.16853"
       style="font-size:16px;font-style:normal;font-variant:normal;font-weight:500;font-stretch:normal;text-align:start;line-height:100%;letter-spacing:0px;word-spacing:0px;writing-mode:lr-tb;text-anchor:start;fill:#000000;fill-opacity:1;stroke:none;font-family:Rekha;-inkscape-font-specification:Rekha Medium"
       xml:space="preserve"><tspan
         y="922.4848"
         x="119.16853"
         id="tspan4836"
         sodipodi:role="line">7</tspan></text>
    <text
       sodipodi:linespacing="100%"
       id="text4838"
       y="921.76605"
       x="163.44522"
       style="font-size:16px;font-style:normal;font-variant:normal;font-weight:500;font-stretch:normal;text-align:start;line-height:100%;letter-spacing:0px;word-spacing:0px;writing-mode:lr-tb;text-anchor:start;fill:#000000;fill-opacity:1;stroke:none;font-family:Rekha;-inkscape-font-specification:Rekha Medium"
       xml:space="preserve"><tspan
         y="921.76605"
         x="163.44522"
         id="tspan4840"
         sodipodi:role="line">8</tspan></text>
    <text
       sodipodi:linespacing="100%"
       id="text4842"
       y="922.43976"
       x="208.55777"
       style="font-size:16px;font-style:normal;font-variant:normal;font-weight:500;font-stretch:normal;text-align:start;line-height:100%;letter-spacing:0px;word-spacing:0px;writing-mode:lr-tb;text-anchor:start;fill:#000000;fill-opacity:1;stroke:none;font-family:Rekha;-inkscape-font-specification:Rekha Medium"
       xml:space="preserve"><tspan
         y="922.43976"
         x="208.55777"
         id="tspan4844"
         sodipodi:role="line">9</tspan></text>
    <path
       sodipodi:nodetypes="cc"
       inkscape:connector-curvature="0"
       id="path4846"
       d="m 76.971642,905.6366 0,-10"
       style="fill:none;stroke:#000000;stroke-width:1px;stroke-linecap:butt;stroke-linejoin:miter;stroke-opacity:1" />
    <text
       sodipodi:linespacing="100%"
       id="text4848"
       y="894.40466"
       x="69.435463"
       style="font-size:16px;font-style:normal;font-variant:normal;font-weight:500;font-stretch:normal;text-align:start;line-height:100%;letter-spacing:0px;word-spacing:0px;writing-mode:lr-tb;text-anchor:start;fill:#000000;fill-opacity:1;stroke:none;font-family:Rekha;-inkscape-font-specification:Rekha Medium"
       xml:space="preserve"><tspan
         y="894.40466"
         x="69.435463"
         id="tspan4850"
         sodipodi:role="line">Cr</tspan></text>
    <path
       sodipodi:open="true"
       sodipodi:end="9.3835485"
       sodipodi:start="3.1009386"
       transform="translate(-267.23199,633.15289)"
       d="m 382.3048,224.18992 c -0.0461,-1.133 0.83504,-2.08885 1.96805,-2.13493 1.133,-0.0461 2.08884,0.83503 2.13493,1.96804 0.0461,1.133 -0.83503,2.08885 -1.96804,2.13493 -1.13254,0.0461 -2.08817,-0.83434 -2.13489,-1.96686"
       sodipodi:ry="2.0531852"
       sodipodi:rx="2.0531852"
       sodipodi:cy="224.10648"
       sodipodi:cx="384.35629"
       id="path4852"
       style="fill:#000000;stroke:#000000;stroke-width:1;stroke-miterlimit:4;stroke-opacity:1;stroke-dasharray:none;stroke-dashoffset:0"
       sodipodi:type="arc" />
    <path
       sodipodi:open="true"
       sodipodi:end="9.3835485"
       sodipodi:start="3.1009386"
       transform="translate(-217.31091,572.83008)"
       d="m 382.3048,224.18992 c -0.0461,-1.133 0.83504,-2.08885 1.96805,-2.13493 1.133,-0.0461 2.08884,0.83503 2.13493,1.96804 0.0461,1.133 -0.83503,2.08885 -1.96804,2.13493 -1.13254,0.0461 -2.08817,-0.83434 -2.13489,-1.96686"
       sodipodi:ry="2.0531852"
       sodipodi:rx="2.0531852"
       sodipodi:cy="224.10648"
       sodipodi:cx="384.35629"
       id="path4852-8"
       style="fill:#000000;stroke:#000000;stroke-width:1;stroke-miterlimit:4;stroke-opacity:1;stroke-dasharray:none;stroke-dashoffset:0"
       sodipodi:type="arc" />
    <path
       sodipodi:open="true"
       sodipodi:end="9.3835485"
       sodipodi:start="3.1009386"
       transform="translate(-173.21766,602.12239)"
       d="m 382.3048,224.18992 c -0.0461,-1.133 0.83504,-2.08885 1.96805,-2.13493 1.133,-0.0461 2.08884,0.83503 2.13493,1.96804 0.0461,1.133 -0.83503,2.08885 -1.96804,2.13493 -1.13254,0.0461 -2.08817,-0.83434 -2.13489,-1.96686"
       sodipodi:ry="2.0531852"
       sodipodi:rx="2.0531852"
       sodipodi:cy="224.10648"
       sodipodi:cx="384.35629"
       id="path4852-8-2"
       style="fill:#000000;stroke:#000000;stroke-width:1;stroke-miterlimit:4;stroke-opacity:1;stroke-dasharray:none;stroke-dashoffset:0"
       sodipodi:type="arc" />
    <path
       sodipodi:open="true"
       sodipodi:end="9.3835485"
       sodipodi:start="3.1009386"
       transform="translate(-127.47085,652.37309)"
       d="m 382.3048,224.18992 c -0.0461,-1.133 0.83504,-2.08885 1.96805,-2.13493 1.133,-0.0461 2.08884,0.83503 2.13493,1.96804 0.0461,1.133 -0.83503,2.08885 -1.96804,2.13493 -1.13254,0.0461 -2.08817,-0.83434 -2.13489,-1.96686"
       sodipodi:ry="2.0531852"
       sodipodi:rx="2.0531852"
       sodipodi:cy="224.10648"
       sodipodi:cx="384.35629"
       id="path4852-8-1"
       style="fill:#000000;stroke:#000000;stroke-width:1;stroke-miterlimit:4;stroke-opacity:1;stroke-dasharray:none;stroke-dashoffset:0"
       sodipodi:type="arc" />
    <path
       sodipodi:open="true"
       sodipodi:end="9.3835485"
       sodipodi:start="3.1009386"
       transform="translate(-202.50926,554.54137)"
       d="m 382.3048,224.18992 c -0.0461,-1.133 0.83504,-2.08885 1.96805,-2.13493 1.133,-0.0461 2.08884,0.83503 2.13493,1.96804 0.0461,1.133 -0.83503,2.08885 -1.96804,2.13493 -1.13254,0.0461 -2.08817,-0.83434 -2.13489,-1.96686"
       sodipodi:ry="2.0531852"
       sodipodi:rx="2.0531852"
       sodipodi:cy="224.10648"
       sodipodi:cx="384.35629"
       id="path4852-8-1-3"
       style="fill:#000000;stroke:#000000;stroke-width:1;stroke-miterlimit:4;stroke-opacity:1;stroke-dasharray:none;stroke-dashoffset:0"
       sodipodi:type="arc" />
    <path
       sodipodi:nodetypes="csssc"
       transform="translate(-63.028358,665.51153)"
       inkscape:connector-curvature="0"
       id="path4915"
       d="m 154.02307,221.73323 c 0.70787,2.83148 19.69301,-24.86751 43.72248,-50.46643 30.72269,-32.7293 40.16171,-56.61597 46.42006,-58.13049 11.76966,-2.84826 19.34462,36.53597 39.81428,62.29383 25.94413,32.64662 71.62177,63.3379 71.62177,63.3379"
       style="fill:none;stroke:#000000;stroke-width:1px;stroke-linecap:butt;stroke-linejoin:miter;stroke-opacity:1" />
    <text
       sodipodi:linespacing="100%"
       id="text4917"
       y="852.49835"
       x="69.10099"
       style="font-size:16px;font-style:normal;font-variant:normal;font-weight:500;font-stretch:normal;text-align:start;line-height:100%;letter-spacing:0px;word-spacing:0px;writing-mode:lr-tb;text-anchor:start;fill:#000000;fill-opacity:1;stroke:none;font-family:Rekha;-inkscape-font-specification:Rekha Medium"
       xml:space="preserve"><tspan
         y="852.49835"
         x="69.10099"
         id="tspan4919"
         sodipodi:role="line">1</tspan></text>
    <text
       sodipodi:linespacing="100%"
       id="text4921"
       y="792.13373"
       x="68.281631"
       style="font-size:16px;font-style:normal;font-variant:normal;font-weight:500;font-stretch:normal;text-align:start;line-height:100%;letter-spacing:0px;word-spacing:0px;writing-mode:lr-tb;text-anchor:start;fill:#000000;fill-opacity:1;stroke:none;font-family:Rekha;-inkscape-font-specification:Rekha Medium"
       xml:space="preserve"><tspan
         y="792.13373"
         x="68.281631"
         id="tspan4923"
         sodipodi:role="line">2</tspan></text>
    <text
       sodipodi:linespacing="100%"
       id="text4925"
       y="733.22168"
       x="68.991409"
       style="font-size:16px;font-style:normal;font-variant:normal;font-weight:500;font-stretch:normal;text-align:start;line-height:100%;letter-spacing:0px;word-spacing:0px;writing-mode:lr-tb;text-anchor:start;fill:#000000;fill-opacity:1;stroke:none;font-family:Rekha;-inkscape-font-specification:Rekha Medium"
       xml:space="preserve"><tspan
         y="733.22168"
         x="68.991409"
         id="tspan4927"
         sodipodi:role="line">3</tspan></text>
    <path
       transform="translate(-63.028358,665.51153)"
       inkscape:connector-curvature="0"
       id="path4929"
       d="m 323.66139,205.4082 9.93697,-15.61524"
       style="fill:none;stroke:#000000;stroke-width:1px;stroke-linecap:butt;stroke-linejoin:miter;stroke-opacity:1;marker-start:url(#Arrow2Lstart);marker-end:none" />
    <text
       sodipodi:linespacing="100%"
       id="text4931"
       y="854.59473"
       x="272.69937"
       style="font-size:16px;font-style:normal;font-variant:normal;font-weight:500;font-stretch:normal;text-align:start;line-height:100%;letter-spacing:0px;word-spacing:0px;writing-mode:lr-tb;text-anchor:start;fill:#000000;fill-opacity:1;stroke:none;font-family:Rekha;-inkscape-font-specification:Rekha Medium"
       xml:space="preserve"><tspan
         y="854.59473"
         x="272.69937"
         id="tspan4933"
         sodipodi:role="line">0.6</tspan></text>
    <text
       sodipodi:linespacing="100%"
       id="text6007"
       y="946.86658"
       x="123.64477"
       style="font-size:16px;font-style:normal;font-variant:normal;font-weight:500;font-stretch:normal;text-align:start;line-height:100%;letter-spacing:0px;word-spacing:0px;writing-mode:lr-tb;text-anchor:start;fill:#000000;fill-opacity:1;stroke:none;font-family:Rekha;-inkscape-font-specification:Rekha Medium"
       xml:space="preserve"><tspan
         y="946.86658"
         x="123.64477"
         id="tspan6009"
         sodipodi:role="line">3d electron conc.</tspan></text>
    <text
       sodipodi:linespacing="100%"
       id="text6011"
       y="749.54669"
       x="174.03941"
       style="font-size:16px;font-style:normal;font-variant:normal;font-weight:500;font-stretch:normal;text-align:start;line-height:100%;letter-spacing:0px;word-spacing:0px;writing-mode:lr-tb;text-anchor:start;fill:#000000;fill-opacity:1;stroke:none;font-family:Rekha;-inkscape-font-specification:Rekha Medium"
       xml:space="preserve"><tspan
         y="749.54669"
         x="174.03941"
         id="tspan6013"
         sodipodi:role="line">from alloys</tspan></text>
    <text
       sodipodi:linespacing="100%"
       id="text6015"
       y="704.12054"
       x="108.02953"
       style="font-size:16px;font-style:normal;font-variant:normal;font-weight:500;font-stretch:normal;text-align:start;line-height:100%;letter-spacing:0px;word-spacing:0px;writing-mode:lr-tb;text-anchor:start;fill:#000000;fill-opacity:1;stroke:none;font-family:Rekha;-inkscape-font-specification:Rekha Medium"
       xml:space="preserve"><tspan
         y="704.12054"
         x="108.02953"
         id="tspan6017"
         sodipodi:role="line">Ferromagnetism of alloys</tspan></text>
    <text
       transform="matrix(0,-1,1,0,0,0)"
       sodipodi:linespacing="100%"
       id="text6019"
       y="48.938351"
       x="-906.77179"
       style="font-size:16px;font-style:normal;font-variant:normal;font-weight:500;font-stretch:normal;text-align:start;line-height:100%;letter-spacing:0px;word-spacing:0px;writing-mode:lr-tb;text-anchor:start;fill:#000000;fill-opacity:1;stroke:none;font-family:Rekha;-inkscape-font-specification:Rekha Medium"
       xml:space="preserve"><tspan
         y="48.938351"
         x="-906.77179"
         id="tspan6021"
         sodipodi:role="line">Atomic moment (Bohrmagnetism)</tspan></text>
    <g
       ns0:preamble=""
       ns0:text="$\\mathrm{\\mu_B}$"
       word-spacing="normal"
       letter-spacing="normal"
       font-size-adjust="none"
       font-stretch="normal"
       font-weight="normal"
       font-variant="normal"
       font-style="normal"
       stroke-miterlimit="10.433"
       xml:space="preserve"
       transform="matrix(2.117371,-0.63487081,-0.63487081,-2.117371,-47.61004,2231.88)"
       id="content"
       style="font-style:normal;font-variant:normal;font-weight:normal;font-stretch:normal;letter-spacing:normal;word-spacing:normal;text-anchor:start;fill:none;stroke:#000000;stroke-linecap:butt;stroke-linejoin:miter;stroke-miterlimit:10.43299961;stroke-opacity:1;stroke-dasharray:none;stroke-dashoffset:0"><path
         id="path6084"
         d="m 225.73,660.72 0,0.02 0.01,0.02 0.01,0.02 0,0.03 0.01,0.02 0,0.02 0.01,0.05 0.02,0.05 0.01,0.05 0.01,0.05 0.01,0.05 0.01,0.02 0,0.03 0.01,0.02 0.01,0.02 0,0.02 0,0.02 0.01,0.02 0,0.02 0.01,0.01 0,0.02 0,0.01 0,0.01 0.01,0.02 0,0 0,0.01 0,0.01 0,0 c 0,0.17 -0.12,0.27 -0.29,0.27 -0.03,0 -0.31,-0.01 -0.4,-0.36 l -1.43,-5.75 c -0.03,-0.12 -0.03,-0.14 -0.03,-0.16 0,-0.15 0.11,-0.27 0.28,-0.27 0.21,0 0.33,0.18 0.35,0.21 0.04,0.09 0.17,0.6 0.54,2.13 0.32,-0.27 0.77,-0.3 0.97,-0.3 0.7,0 1.08,0.44 1.32,0.72 0.09,-0.45 0.46,-0.72 0.9,-0.72 0.35,0 0.57,0.22 0.73,0.54 0.17,0.36 0.3,0.97 0.3,0.99 0,0.1 -0.09,0.1 -0.12,0.1 -0.1,0 -0.11,-0.04 -0.14,-0.18 -0.16,-0.65 -0.34,-1.24 -0.75,-1.24 -0.27,0 -0.3,0.26 -0.3,0.46 0,0.22 0.12,0.69 0.2,1.03 l 0.28,1.08 c 0.03,0.15 0.13,0.52 0.17,0.67 0.05,0.23 0.15,0.61 0.15,0.67 0,0.18 -0.14,0.27 -0.29,0.27 -0.05,0 -0.31,-0.01 -0.39,-0.35 l -0.47,-1.86 c -0.12,-0.5 -0.23,-0.91 -0.26,-1.01 -0.01,-0.05 -0.49,-0.96 -1.29,-0.96 -0.5,0 -0.74,0.33 -0.74,0.87 0,0.29 0.07,0.57 0.14,0.84 z"
         inkscape:connector-curvature="0"
         style="fill:#000000;stroke-width:0" /><path
         id="path6086"
         d="m 229.85,660.49 v -0.25 h 0.17 c 0.54,0 0.55,-0.07 0.55,-0.31 v -3.63 c 0,-0.23 -0.01,-0.31 -0.55,-0.31 h -0.17 v -0.25 h 2.96 c 0.98,0 1.7,0.61 1.7,1.27 0,0.61 -0.62,1.12 -1.47,1.21 0.69,0.13 1.26,0.55 1.26,1.09 0,0.62 -0.73,1.18 -1.7,1.18 l -0.05,-0.25 c 0.69,0 1.05,-0.49 1.05,-0.93 0,-0.49 -0.47,-1 -1.27,-1 h -1.15 v -0.2 h 1.49 c 0.73,0 1.12,-0.6 1.12,-1.08 0,-0.52 -0.46,-1.04 -1.23,-1.04 h -1.04 c -0.33,0 -0.34,0.06 -0.34,0.27 v 1.85 0.2 1.66 c 0,0.21 0.01,0.27 0.34,0.27 h 1.03 l 0.05,0.25 z"
         inkscape:connector-curvature="0"
         style="fill:#000000;stroke-width:0" /></g>    <path
       style="fill:none;stroke:#000000;stroke-width:1px;stroke-linecap:butt;stroke-linejoin:miter;stroke-opacity:1"
       d="m 170,40.535706 170,0"
       id="path6149"
       inkscape:connector-curvature="0"
       transform="translate(-63.028358,665.51153)" />
  </g>
</svg>
