<?xml version="1.0" encoding="UTF-8" standalone="no"?>
<!-- Created with Inkscape (http://www.inkscape.org/) -->

<svg
   xmlns:ns0="http://www.iki.fi/pav/software/textext/"
   xmlns:dc="http://purl.org/dc/elements/1.1/"
   xmlns:cc="http://creativecommons.org/ns#"
   xmlns:rdf="http://www.w3.org/1999/02/22-rdf-syntax-ns#"
   xmlns:svg="http://www.w3.org/2000/svg"
   xmlns="http://www.w3.org/2000/svg"
   xmlns:sodipodi="http://sodipodi.sourceforge.net/DTD/sodipodi-0.dtd"
   xmlns:inkscape="http://www.inkscape.org/namespaces/inkscape"
   width="371.14719"
   height="170.89062"
   id="svg2"
   version="1.1"
   inkscape:version="0.48.4 r9939"
   sodipodi:docname="New document 27">
  <sodipodi:namedview
     id="base"
     pagecolor="#ffffff"
     bordercolor="#666666"
     borderopacity="1.0"
     inkscape:pageopacity="0.0"
     inkscape:pageshadow="2"
     inkscape:zoom="1.4"
     inkscape:cx="149.43517"
     inkscape:cy="53.135976"
     inkscape:document-units="px"
     inkscape:current-layer="layer1"
     showgrid="true"
     units="in"
     width="11cm"
     inkscape:window-width="1274"
     inkscape:window-height="554"
     inkscape:window-x="0"
     inkscape:window-y="410"
     inkscape:window-maximized="0"
     fit-margin-top="0"
     fit-margin-left="0"
     fit-margin-right="0"
     fit-margin-bottom="0">
    <inkscape:grid
       spacingy="2px"
       spacingx="2px"
       snapvisiblegridlinesonly="true"
       enabled="true"
       visible="true"
       empspacing="5"
       id="grid2984"
       type="xygrid"
       originx="-136.63409px"
       originy="-159.78124px" />
  </sodipodi:namedview>
  <defs
     id="defs4">
    <marker
       inkscape:stockid="Arrow2Mend"
       orient="auto"
       refY="0"
       refX="0"
       id="Arrow2Mend"
       style="overflow:visible">
      <path
         inkscape:connector-curvature="0"
         id="path3966"
         style="fill-rule:evenodd;stroke-width:0.625;stroke-linejoin:round"
         d="M 8.7185878,4.0337352 -2.2072895,0.01601326 8.7185884,-4.0017078 c -1.7454984,2.3720609 -1.7354408,5.6174519 -6e-7,8.035443 z"
         transform="scale(-0.6,-0.6)" />
    </marker>
  </defs>
  <metadata
     id="metadata7">
    <rdf:RDF>
      <cc:Work
         rdf:about="">
        <dc:format>image/svg+xml</dc:format>
        <dc:type
           rdf:resource="http://purl.org/dc/dcmitype/StillImage" />
        <dc:title></dc:title>
      </cc:Work>
    </rdf:RDF>
  </metadata>
  <g
     inkscape:label="Layer 1"
     inkscape:groupmode="layer"
     id="layer1"
     transform="translate(-73.605728,-745.37537)">
    <path
       transform="translate(-63.028358,665.51153)"
       inkscape:connector-curvature="0"
       id="path7544"
       d="m 190,80.535706 0,150.000004 230,0"
       style="fill:none;stroke:#000000;stroke-width:1px;stroke-linecap:butt;stroke-linejoin:miter;stroke-opacity:1" />
    <path
       transform="translate(-63.028358,665.51153)"
       inkscape:connector-curvature="0"
       id="path7546"
       d="M 260,230.53571 370,80.535706"
       style="fill:none;stroke:#000000;stroke-width:1px;stroke-linecap:butt;stroke-linejoin:miter;stroke-opacity:1" />
    <text
       sodipodi:linespacing="100%"
       id="text7548"
       y="756.04724"
       x="146.97165"
       style="font-size:16px;font-style:normal;font-variant:normal;font-weight:500;font-stretch:normal;text-align:start;line-height:100%;letter-spacing:0px;word-spacing:0px;writing-mode:lr-tb;text-anchor:start;fill:#000000;fill-opacity:1;stroke:none;font-family:Rekha;-inkscape-font-specification:Rekha Medium"
       xml:space="preserve"><tspan
         y="756.04724"
         x="146.97165"
         id="tspan7550"
         sodipodi:role="line">ferromagnetic</tspan></text>
    <text
       sodipodi:linespacing="100%"
       id="text7552"
       y="796.04724"
       x="146.97165"
       style="font-size:16px;font-style:normal;font-variant:normal;font-weight:500;font-stretch:normal;text-align:start;line-height:100%;letter-spacing:0px;word-spacing:0px;writing-mode:lr-tb;text-anchor:start;fill:#000000;fill-opacity:1;stroke:none;font-family:Rekha;-inkscape-font-specification:Rekha Medium"
       xml:space="preserve"><tspan
         y="796.04724"
         x="146.97165"
         id="tspan7554"
         sodipodi:role="line">ordered</tspan></text>
    <text
       sodipodi:linespacing="100%"
       id="text7556"
       y="816.04724"
       x="276.97165"
       style="font-size:16px;font-style:normal;font-variant:normal;font-weight:500;font-stretch:normal;text-align:start;line-height:100%;letter-spacing:0px;word-spacing:0px;writing-mode:lr-tb;text-anchor:start;fill:#000000;fill-opacity:1;stroke:none;font-family:Rekha;-inkscape-font-specification:Rekha Medium"
       xml:space="preserve"><tspan
         y="816.04724"
         x="276.97165"
         id="tspan7558"
         sodipodi:role="line">disordered (paramagnetic)</tspan></text>
    <g
       ns0:preamble=""
       ns0:text="$1 / \\chi$"
       word-spacing="normal"
       letter-spacing="normal"
       font-size-adjust="none"
       font-stretch="normal"
       font-weight="normal"
       font-variant="normal"
       font-style="normal"
       stroke-miterlimit="10.433"
       xml:space="preserve"
       transform="matrix(1.9059699,0,0,-1.9059699,-353.94144,2066.4658)"
       id="content"
       style="font-style:normal;font-variant:normal;font-weight:normal;font-stretch:normal;letter-spacing:normal;word-spacing:normal;text-anchor:start;fill:none;stroke:#000000;stroke-linecap:butt;stroke-linejoin:miter;stroke-miterlimit:10.43299961;stroke-opacity:1;stroke-dasharray:none;stroke-dashoffset:0"><path
         id="path7577"
         d="m 226.36,663.59 0,0.01 0,0.01 0,0.02 0,0.01 0,0 0,0.01 0,0.01 0,0.01 0,0.01 0,0.01 0,0.01 0,0.01 0,0 -0.01,0.01 0,0.01 0,0 0,0.01 0,0.01 0,0.01 0,0.01 -0.01,0.01 0,0.01 0,0.01 -0.01,0 0,0.01 -0.01,0.01 0,0 -0.01,0.01 -0.01,0 -0.01,0.01 0,0 -0.01,0 0,0 -0.01,0 0,0 -0.01,0 -0.01,0.01 0,0 -0.01,0 -0.01,0 0,0 -0.01,0 -0.01,0 -0.01,0 0,0 -0.01,0 -0.01,0 -0.01,0 -0.01,0 -0.01,0 -0.01,0 -0.01,0 c -0.62,-0.63 -1.49,-0.63 -1.81,-0.63 v -0.31 c 0.2,0 0.78,0 1.3,0.25 v -5.14 c 0,-0.36 -0.03,-0.48 -0.92,-0.48 h -0.32 v -0.31 c 0.35,0.04 1.21,0.04 1.61,0.04 0.4,0 1.26,0 1.61,-0.04 v 0.31 h -0.32 c -0.89,0 -0.92,0.11 -0.92,0.48 z"
         inkscape:connector-curvature="0"
         style="fill:#000000;stroke-width:0" /><path
         id="path7579"
         d="m 232.78,664.31 0,0 0.01,0.01 0,0.01 0,0 0,0.01 0,0 0.01,0.01 0,0.01 0,0.01 0.01,0.01 0,0.01 0,0.01 0,0 0.01,0.01 0,0.01 0,0.01 0,0 0,0.01 0,0 0.01,0.01 0,0 0,0.01 0,0 0,0 0,0.01 0,0 0,0 0,0.01 0,0 0,0 0,0 0,0 0,0 0,0.01 0,0 c 0,0.11 -0.09,0.19 -0.2,0.19 -0.07,0 -0.14,-0.02 -0.17,-0.08 l -3.45,-9.47 c -0.05,-0.13 -0.05,-0.17 -0.05,-0.18 0,-0.11 0.09,-0.2 0.2,-0.2 0.13,0 0.16,0.07 0.22,0.24 z"
         inkscape:connector-curvature="0"
         style="fill:#000000;stroke-width:0" /><path
         id="path7581"
         d="m 239.2,661.24 0,0 0,0.01 0.01,0 0,0.01 0.01,0 0,0.01 0.01,0 0,0.01 0,0 0.01,0 0,0.01 0.01,0 0,0 0,0.01 0.01,0 0,0.01 0,0 0,0 0.01,0 0,0.01 0,0 0.01,0.01 0,0 0,0.01 0.01,0 0,0.01 0,0 0,0.01 0.01,0 0,0 0,0.01 0,0 0,0 0,0 0,0.01 0,0 0,0.01 0,0 0,0.01 c 0,0.06 -0.04,0.12 -0.12,0.12 -0.06,0 -0.09,-0.05 -0.15,-0.12 l -2.28,-2.54 c -0.4,1.27 -0.48,1.51 -0.71,2.04 -0.11,0.23 -0.33,0.73 -1.2,0.73 -0.58,0 -0.84,-0.52 -0.84,-0.66 0,-0.01 0,-0.1 0.12,-0.1 0.09,0 0.11,0.06 0.13,0.11 0.15,0.39 0.47,0.43 0.53,0.43 0.3,0 0.59,-0.76 0.76,-1.19 0.32,-0.79 0.64,-1.94 0.64,-1.97 0,-0.01 0,-0.03 -0.08,-0.11 l -2.29,-2.55 c -0.11,-0.11 -0.11,-0.13 -0.11,-0.16 0,-0.06 0.06,-0.12 0.12,-0.12 0.07,0 0.12,0.07 0.16,0.11 l 2.28,2.55 c 0.32,-1.03 0.44,-1.42 0.68,-1.98 0.13,-0.29 0.34,-0.79 1.23,-0.79 0.58,0 0.85,0.52 0.85,0.64 0,0.05 -0.02,0.11 -0.12,0.11 -0.1,0 -0.11,-0.04 -0.14,-0.14 -0.09,-0.23 -0.34,-0.39 -0.53,-0.39 -0.51,0 -1.18,2.4 -1.4,3.17 z"
         inkscape:connector-curvature="0"
         style="fill:#000000;stroke-width:0" /></g>    <g
       style="font-style:normal;font-variant:normal;font-weight:normal;font-stretch:normal;letter-spacing:normal;word-spacing:normal;text-anchor:start;fill:none;stroke:#000000;stroke-linecap:butt;stroke-linejoin:miter;stroke-miterlimit:10.43299961;stroke-opacity:1;stroke-dasharray:none;stroke-dashoffset:0"
       ns0:preamble=""
       ns0:text="$\\mathrm{^oK}$"
       word-spacing="normal"
       letter-spacing="normal"
       font-size-adjust="none"
       font-stretch="normal"
       font-weight="normal"
       font-variant="normal"
       font-style="normal"
       stroke-miterlimit="10.433"
       xml:space="preserve"
       transform="matrix(1.781962,0,0,-1.781962,-41.200861,2086.3927)"
       id="g7698"><path
         id="path7700"
         d="m 227.12,662.33 -0.01,0.08 0,0.08 -0.01,0.08 -0.02,0.08 -0.02,0.08 -0.02,0.07 -0.03,0.08 -0.03,0.07 -0.03,0.07 -0.04,0.07 -0.04,0.07 -0.04,0.07 -0.05,0.06 -0.05,0.06 -0.05,0.06 -0.06,0.06 -0.06,0.05 -0.06,0.05 -0.06,0.05 -0.07,0.05 -0.07,0.04 -0.07,0.04 -0.07,0.04 -0.08,0.03 -0.08,0.03 -0.08,0.03 -0.08,0.02 -0.08,0.02 -0.09,0.01 -0.08,0.01 -0.09,0.01 -0.09,0 v -0.19 c 0.41,0 0.7,-0.2 0.86,-0.41 0.19,-0.27 0.21,-0.62 0.21,-0.95 0,-0.34 -0.02,-0.71 -0.22,-0.99 -0.19,-0.27 -0.51,-0.41 -0.85,-0.41 h 0 c -0.26,0 -0.63,0.09 -0.86,0.43 -0.19,0.28 -0.21,0.65 -0.21,0.97 0,0.29 0,0.7 0.25,1 0.17,0.2 0.46,0.36 0.82,0.36 v 0.19 c -0.96,0 -1.71,-0.75 -1.71,-1.62 0,-0.86 0.77,-1.55 1.71,-1.55 0.94,0 1.71,0.69 1.71,1.55 z"
         inkscape:connector-curvature="0"
         style="fill:#000000;stroke-width:0" /><path
         id="path7702"
         d="m 231.88,661.4 1.79,1.72 c 0.08,0.08 0.61,0.58 1.41,0.59 v 0.31 c -0.25,-0.03 -0.57,-0.03 -0.84,-0.03 -0.36,0 -0.93,0 -1.26,0.03 v -0.31 c 0.39,-0.01 0.45,-0.24 0.45,-0.33 0,-0.16 -0.1,-0.25 -0.18,-0.32 l -3.11,-2.97 v 3.15 c 0,0.36 0.02,0.47 0.79,0.47 h 0.23 v 0.31 c -0.34,-0.03 -1.08,-0.03 -1.46,-0.03 -0.38,0 -1.12,0 -1.47,0.03 v -0.31 h 0.24 c 0.76,0 0.78,-0.11 0.78,-0.47 v -5.23 c 0,-0.36 -0.02,-0.47 -0.78,-0.47 h -0.24 v -0.31 c 0.35,0.04 1.08,0.04 1.46,0.04 0.38,0 1.13,0 1.47,-0.04 v 0.31 h -0.23 c -0.77,0 -0.79,0.11 -0.79,0.47 v 1.74 l 1.15,1.09 1.81,-2.66 c 0.05,-0.09 0.14,-0.22 0.14,-0.34 0,-0.3 -0.38,-0.3 -0.58,-0.3 v -0.31 c 0.35,0.04 1.04,0.04 1.42,0.04 0.35,0 0.73,-0.01 1.14,-0.04 v 0.31 c -0.53,0 -0.74,0.04 -1.04,0.48 z"
         inkscape:connector-curvature="0"
         style="fill:#000000;stroke-width:0" /></g>    <text
       xml:space="preserve"
       style="font-size:16px;font-style:normal;font-variant:normal;font-weight:500;font-stretch:normal;text-align:start;line-height:100%;letter-spacing:0px;word-spacing:0px;writing-mode:lr-tb;text-anchor:start;fill:#000000;fill-opacity:1;stroke:none;font-family:Rekha;-inkscape-font-specification:Rekha Medium"
       x="336.97165"
       y="916.04724"
       id="text7725"
       sodipodi:linespacing="100%"><tspan
         sodipodi:role="line"
         id="tspan7727"
         x="336.97165"
         y="916.04724"
         style="font-size:20px">T</tspan></text>
    <text
       xml:space="preserve"
       style="font-size:16px;font-style:normal;font-variant:normal;font-weight:500;font-stretch:normal;text-align:start;line-height:100%;letter-spacing:0px;word-spacing:0px;writing-mode:lr-tb;text-anchor:start;fill:#000000;fill-opacity:1;stroke:none;font-family:Rekha;-inkscape-font-specification:Rekha Medium"
       x="176.97165"
       y="916.04724"
       id="text7729"
       sodipodi:linespacing="100%"><tspan
         sodipodi:role="line"
         id="tspan7731"
         x="176.97165"
         y="916.04724">1040 K</tspan></text>
  </g>
</svg>
