<?xml version="1.0" encoding="UTF-8" standalone="no"?>
<!-- Created with Inkscape (http://www.inkscape.org/) -->

<svg
   xmlns:ns0="http://www.iki.fi/pav/software/textext/"
   xmlns:dc="http://purl.org/dc/elements/1.1/"
   xmlns:cc="http://creativecommons.org/ns#"
   xmlns:rdf="http://www.w3.org/1999/02/22-rdf-syntax-ns#"
   xmlns:svg="http://www.w3.org/2000/svg"
   xmlns="http://www.w3.org/2000/svg"
   xmlns:sodipodi="http://sodipodi.sourceforge.net/DTD/sodipodi-0.dtd"
   xmlns:inkscape="http://www.inkscape.org/namespaces/inkscape"
   width="388.16342"
   height="206.98355"
   id="svg2"
   version="1.1"
   inkscape:version="0.48.4 r9939"
   sodipodi:docname="New document 41">
  <sodipodi:namedview
     id="base"
     pagecolor="#ffffff"
     bordercolor="#666666"
     borderopacity="1.0"
     inkscape:pageopacity="0.0"
     inkscape:pageshadow="2"
     inkscape:zoom="1.85"
     inkscape:cx="242.04929"
     inkscape:cy="59.483168"
     inkscape:document-units="px"
     inkscape:current-layer="layer1"
     showgrid="true"
     units="in"
     width="11cm"
     inkscape:window-width="1274"
     inkscape:window-height="565"
     inkscape:window-x="0"
     inkscape:window-y="399"
     inkscape:window-maximized="0"
     fit-margin-top="0"
     fit-margin-left="0"
     fit-margin-right="0"
     fit-margin-bottom="0"
     inkscape:snap-grids="false">
    <inkscape:grid
       type="xygrid"
       id="grid2984"
       empspacing="5"
       visible="true"
       enabled="true"
       snapvisiblegridlinesonly="true"
       spacingx="2px"
       spacingy="2px"
       originx="-134.24155px"
       originy="-137.7424px" />
  </sodipodi:namedview>
  <defs
     id="defs4">
    <marker
       inkscape:stockid="Arrow2Lstart"
       orient="auto"
       refY="0"
       refX="0"
       id="Arrow2Lstart"
       style="overflow:visible">
      <path
         id="path3878"
         style="fill-rule:evenodd;stroke-width:0.625;stroke-linejoin:round"
         d="M 8.7185878,4.0337352 -2.2072895,0.01601326 8.7185884,-4.0017078 c -1.7454984,2.3720609 -1.7354408,5.6174519 -6e-7,8.035443 z"
         transform="matrix(1.1,0,0,1.1,1.1,0)"
         inkscape:connector-curvature="0" />
    </marker>
    <marker
       style="overflow:visible"
       id="Arrow2Mend"
       refX="0"
       refY="0"
       orient="auto"
       inkscape:stockid="Arrow2Mend">
      <path
         transform="scale(-0.6,-0.6)"
         d="M 8.7185878,4.0337352 -2.2072895,0.01601326 8.7185884,-4.0017078 c -1.7454984,2.3720609 -1.7354408,5.6174519 -6e-7,8.035443 z"
         style="fill-rule:evenodd;stroke-width:0.625;stroke-linejoin:round"
         id="path3966"
         inkscape:connector-curvature="0" />
    </marker>
  </defs>
  <metadata
     id="metadata7">
    <rdf:RDF>
      <cc:Work
         rdf:about="">
        <dc:format>image/svg+xml</dc:format>
        <dc:type
           rdf:resource="http://purl.org/dc/dcmitype/StillImage" />
        <dc:title></dc:title>
      </cc:Work>
    </rdf:RDF>
  </metadata>
  <g
     transform="translate(-71.213196,-731.32129)"
     id="layer1"
     inkscape:groupmode="layer"
     inkscape:label="Layer 1">
    <path
       style="fill:none;stroke:#000000;stroke-width:1px;stroke-linecap:butt;stroke-linejoin:miter;stroke-opacity:1"
       d="m 210,110.53571 0,140 240,0"
       id="path10207"
       inkscape:connector-curvature="0"
       transform="translate(-63.028358,665.51153)"
       sodipodi:nodetypes="ccc" />
    <path
       style="fill:none;stroke:#000000;stroke-width:1px;stroke-linecap:butt;stroke-linejoin:miter;stroke-opacity:1"
       d="m 310,250.53571 c 0,0 10,-140 50,-140 40,0 50,140 50,140"
       id="path10209"
       inkscape:connector-curvature="0"
       transform="translate(-63.028358,665.51153)"
       sodipodi:nodetypes="csc" />
    <path
       style="fill:none;stroke:#000000;stroke-width:1px;stroke-linecap:butt;stroke-linejoin:miter;stroke-opacity:1"
       d="m 342,122.53571 58,58"
       id="path10211"
       inkscape:connector-curvature="0"
       transform="translate(-63.028358,665.51153)"
       sodipodi:nodetypes="cc" />
    <path
       style="fill:none;stroke:#000000;stroke-width:1px;stroke-linecap:butt;stroke-linejoin:miter;stroke-opacity:1"
       d="m 352,112.53571 41.10619,41.54867"
       id="path10213"
       inkscape:connector-curvature="0"
       transform="translate(-63.028358,665.51153)"
       sodipodi:nodetypes="cc" />
    <path
       style="fill:none;stroke:#000000;stroke-width:1px;stroke-linecap:butt;stroke-linejoin:miter;stroke-opacity:1"
       d="m 346,116.53571 51.10619,50.88496"
       id="path10215"
       inkscape:connector-curvature="0"
       transform="translate(-63.028358,665.51153)"
       sodipodi:nodetypes="cc" />
    <path
       style="fill:none;stroke:#000000;stroke-width:1px;stroke-linecap:butt;stroke-linejoin:miter;stroke-opacity:1"
       d="m 338,128.53571 64.44248,64"
       id="path10217"
       inkscape:connector-curvature="0"
       transform="translate(-63.028358,665.51153)"
       sodipodi:nodetypes="cc" />
    <path
       style="fill:none;stroke:#000000;stroke-width:1px;stroke-linecap:butt;stroke-linejoin:miter;stroke-opacity:1"
       d="m 334,134.53571 70.44248,70.44248"
       id="path10219"
       inkscape:connector-curvature="0"
       transform="translate(-63.028358,665.51153)"
       sodipodi:nodetypes="cc" />
    <path
       style="fill:none;stroke:#000000;stroke-width:1px;stroke-linecap:butt;stroke-linejoin:miter;stroke-opacity:1"
       d="M 331.33628,141.65075 406,216.53571"
       id="path10221"
       inkscape:connector-curvature="0"
       transform="translate(-63.028358,665.51153)"
       sodipodi:nodetypes="cc" />
    <path
       style="fill:none;stroke:#000000;stroke-width:1px;stroke-linecap:butt;stroke-linejoin:miter;stroke-opacity:1"
       d="m 360,110.53571 27.11504,26.89381"
       id="path10223"
       inkscape:connector-curvature="0"
       transform="translate(-63.028358,665.51153)"
       sodipodi:nodetypes="cc" />
    <path
       style="fill:none;stroke:#000000;stroke-width:1px;stroke-linecap:butt;stroke-linejoin:miter;stroke-opacity:1"
       d="m 328,148.53571 80,80"
       id="path10225"
       inkscape:connector-curvature="0"
       transform="translate(-63.028358,665.51153)"
       sodipodi:nodetypes="cc" />
    <path
       style="fill:none;stroke:#000000;stroke-width:1px;stroke-linecap:butt;stroke-linejoin:miter;stroke-opacity:1"
       d="m 326,156.53571 82.89381,82.67257"
       id="path10227"
       inkscape:connector-curvature="0"
       transform="translate(-63.028358,665.51153)"
       sodipodi:nodetypes="cc" />
    <path
       style="fill:none;stroke:#000000;stroke-width:1px;stroke-linecap:butt;stroke-linejoin:miter;stroke-opacity:1"
       d="m 324,164.53571 86,86"
       id="path10229"
       inkscape:connector-curvature="0"
       transform="translate(-63.028358,665.51153)"
       sodipodi:nodetypes="cc" />
    <path
       style="fill:none;stroke:#000000;stroke-width:1px;stroke-linecap:butt;stroke-linejoin:miter;stroke-opacity:1"
       d="m 322,172.53571 78,78"
       id="path10231"
       inkscape:connector-curvature="0"
       transform="translate(-63.028358,665.51153)"
       sodipodi:nodetypes="cc" />
    <path
       style="fill:none;stroke:#000000;stroke-width:1px;stroke-linecap:butt;stroke-linejoin:miter;stroke-opacity:1"
       d="m 320,180.53571 70,70"
       id="path10233"
       inkscape:connector-curvature="0"
       transform="translate(-63.028358,665.51153)" />
    <path
       style="fill:none;stroke:#000000;stroke-width:1px;stroke-linecap:butt;stroke-linejoin:miter;stroke-opacity:1"
       d="m 380,250.53571 -62,-62"
       id="path10235"
       inkscape:connector-curvature="0"
       transform="translate(-63.028358,665.51153)"
       sodipodi:nodetypes="cc" />
    <path
       style="fill:none;stroke:#000000;stroke-width:1px;stroke-linecap:butt;stroke-linejoin:miter;stroke-opacity:1"
       d="M 370,250.53571 316.88496,197.19943"
       id="path10237"
       inkscape:connector-curvature="0"
       transform="translate(-63.028358,665.51153)"
       sodipodi:nodetypes="cc" />
    <path
       style="fill:none;stroke:#000000;stroke-width:1px;stroke-linecap:butt;stroke-linejoin:miter;stroke-opacity:1"
       d="M 360,250.53571 314.89381,205.42952"
       id="path10239"
       inkscape:connector-curvature="0"
       transform="translate(-63.028358,665.51153)"
       sodipodi:nodetypes="cc" />
    <path
       style="fill:none;stroke:#000000;stroke-width:1px;stroke-linecap:butt;stroke-linejoin:miter;stroke-opacity:1"
       d="m 350,250.53571 -36,-36"
       id="path10241"
       inkscape:connector-curvature="0"
       transform="translate(-63.028358,665.51153)"
       sodipodi:nodetypes="cc" />
    <path
       style="fill:none;stroke:#000000;stroke-width:1px;stroke-linecap:butt;stroke-linejoin:miter;stroke-opacity:1"
       d="M 340,250.53571 312.66372,223.6419"
       id="path10243"
       inkscape:connector-curvature="0"
       transform="translate(-63.028358,665.51153)"
       sodipodi:nodetypes="cc" />
    <path
       style="fill:none;stroke:#000000;stroke-width:1px;stroke-linecap:butt;stroke-linejoin:miter;stroke-opacity:1"
       d="m 330,250.53571 -18,-18"
       id="path10245"
       inkscape:connector-curvature="0"
       transform="translate(-63.028358,665.51153)"
       sodipodi:nodetypes="cc" />
    <path
       style="fill:none;stroke:#000000;stroke-width:1px;stroke-linecap:butt;stroke-linejoin:miter;stroke-opacity:1"
       d="m 320,250.53571 -9.11504,-9.33628"
       id="path10247"
       inkscape:connector-curvature="0"
       transform="translate(-63.028358,665.51153)"
       sodipodi:nodetypes="cc" />
    <path
       style="fill:none;stroke:#000000;stroke-width:1px;stroke-linecap:butt;stroke-linejoin:miter;stroke-opacity:1"
       d="m 360,250.53571 c 10.48428,-51.47519 64.84453,-68.82463 140,-70"
       id="path10249"
       inkscape:connector-curvature="0"
       transform="translate(-63.028358,665.51153)"
       sodipodi:nodetypes="cc" />
    <text
       xml:space="preserve"
       style="font-size:16px;font-style:normal;font-variant:normal;font-weight:500;font-stretch:normal;text-align:start;line-height:100%;letter-spacing:0px;word-spacing:0px;writing-mode:lr-tb;text-anchor:start;fill:#000000;fill-opacity:1;stroke:none;font-family:Rekha;-inkscape-font-specification:Rekha Medium"
       x="337.2973"
       y="101.34652"
       id="text10251"
       sodipodi:linespacing="100%"
       transform="translate(-63.028358,665.51153)"><tspan
         sodipodi:role="line"
         id="tspan10253"
         x="337.2973"
         y="101.34652">d band</tspan></text>
    <text
       xml:space="preserve"
       style="font-size:16px;font-style:normal;font-variant:normal;font-weight:500;font-stretch:normal;text-align:start;line-height:100%;letter-spacing:0px;word-spacing:0px;writing-mode:lr-tb;text-anchor:start;fill:#000000;fill-opacity:1;stroke:none;font-family:Rekha;-inkscape-font-specification:Rekha Medium"
       x="415.07974"
       y="816.04724"
       id="text10255"
       sodipodi:linespacing="100%"><tspan
         sodipodi:role="line"
         id="tspan10257"
         x="415.07974"
         y="816.04724">s band</tspan></text>
    <text
       xml:space="preserve"
       style="font-size:16px;font-style:normal;font-variant:normal;font-weight:500;font-stretch:normal;text-align:start;line-height:100%;letter-spacing:0px;word-spacing:0px;writing-mode:lr-tb;text-anchor:start;fill:#000000;fill-opacity:1;stroke:none;font-family:Rekha;-inkscape-font-specification:Rekha Medium"
       x="75.890564"
       y="741.99316"
       id="text10259"
       sodipodi:linespacing="100%"><tspan
         sodipodi:role="line"
         id="tspan10261"
         x="75.890564"
         y="741.99316">Bond medal</tspan></text>
    <text
       xml:space="preserve"
       style="font-size:16px;font-style:normal;font-variant:normal;font-weight:500;font-stretch:normal;text-align:start;line-height:100%;letter-spacing:0px;word-spacing:0px;writing-mode:lr-tb;text-anchor:start;fill:#000000;fill-opacity:1;stroke:none;font-family:Rekha;-inkscape-font-specification:Rekha Medium"
       x="71.025696"
       y="766.58777"
       id="text10263"
       sodipodi:linespacing="100%"><tspan
         sodipodi:role="line"
         id="tspan10265"
         x="71.025696"
         y="766.58777">Ni magnetism</tspan></text>
    <text
       xml:space="preserve"
       style="font-size:16px;font-style:normal;font-variant:normal;font-weight:500;font-stretch:normal;text-align:start;line-height:100%;letter-spacing:0px;word-spacing:0px;writing-mode:lr-tb;text-anchor:start;fill:#000000;fill-opacity:1;stroke:none;font-family:Rekha;-inkscape-font-specification:Rekha Medium"
       x="81.83651"
       y="794.4256"
       id="text10267"
       sodipodi:linespacing="100%"><tspan
         sodipodi:role="line"
         id="tspan10269"
         x="81.83651"
         y="794.4256">Ni</tspan></text>
    <text
       xml:space="preserve"
       style="font-size:16px;font-style:normal;font-variant:normal;font-weight:500;font-stretch:normal;text-align:start;line-height:100%;letter-spacing:0px;word-spacing:0px;writing-mode:lr-tb;text-anchor:start;fill:#000000;fill-opacity:1;stroke:none;font-family:Rekha;-inkscape-font-specification:Rekha Medium"
       x="165.40541"
       y="187.83299"
       id="text10271"
       sodipodi:linespacing="100%"
       transform="translate(-63.028358,665.51153)"><tspan
         sodipodi:role="line"
         id="tspan10273"
         x="165.40541"
         y="187.83299" /></text>
    <g
       style="font-style:normal;font-variant:normal;font-weight:normal;font-stretch:normal;letter-spacing:normal;word-spacing:normal;text-anchor:start;fill:none;stroke:#000000;stroke-linecap:butt;stroke-linejoin:miter;stroke-miterlimit:10.43299961;stroke-opacity:1;stroke-dasharray:none;stroke-dashoffset:0"
       id="content"
       transform="matrix(1.500326,-0.70677488,-0.70677488,-1.500326,234.65397,1995.9942)"
       xml:space="preserve"
       stroke-miterlimit="10.433"
       font-style="normal"
       font-variant="normal"
       font-weight="normal"
       font-stretch="normal"
       font-size-adjust="none"
       letter-spacing="normal"
       word-spacing="normal"
       ns0:text="$\\mathrm{D(\\epsilon)}$"
       ns0:preamble=""><path
         style="fill:#000000;stroke-width:0"
         inkscape:connector-curvature="0"
         d="m 223.78,664.02 v -0.31 h 0.24 c 0.77,0 0.78,-0.11 0.78,-0.47 v -5.23 c 0,-0.36 -0.01,-0.47 -0.78,-0.47 h -0.24 v -0.31 h 3.64 l -0.27,0.31 h -1 c -0.47,0 -0.49,0.07 -0.49,0.4 v 5.38 c 0,0.32 0.02,0.39 0.49,0.39 h 0.99 c 0.62,0 1.31,-0.22 1.81,-0.92 0.43,-0.59 0.52,-1.44 0.52,-2.22 0,-1.1 -0.19,-1.7 -0.55,-2.18 -0.19,-0.27 -0.76,-0.85 -1.77,-0.85 l 0.27,-0.31 c 1.67,0 3.05,1.48 3.05,3.34 0,1.89 -1.35,3.45 -3.05,3.45 z"
         id="path10318" /><path
         style="fill:#000000;stroke-width:0"
         inkscape:connector-curvature="0"
         d="m 234.34,654.85 0,0.01 0,0 0,0 -0.01,0.01 0,0 0,0 0,0.01 0,0 0,0 0,0.01 -0.01,0 0,0.01 0,0 -0.01,0.01 0,0 0,0.01 -0.01,0.01 -0.01,0 0,0.01 0,0 -0.01,0.01 0,0 0,0 -0.01,0.01 0,0 -0.01,0.01 0,0 0,0.01 -0.01,0 0,0.01 -0.01,0 -0.01,0.01 0,0.01 -0.01,0 0,0.01 -0.01,0.01 -0.01,0 0,0.01 -0.01,0.01 -0.01,0 -0.01,0.01 0,0.01 c -1.25,1.25 -1.57,3.13 -1.57,4.65 0,1.73 0.38,3.45 1.61,4.7 0.13,0.12 0.13,0.14 0.13,0.17 0,0.07 -0.04,0.09 -0.1,0.09 -0.1,0 -1,-0.67 -1.59,-1.93 -0.5,-1.09 -0.62,-2.2 -0.62,-3.03 0,-0.78 0.11,-1.98 0.65,-3.1 0.6,-1.22 1.46,-1.87 1.56,-1.87 0.06,0 0.1,0.03 0.1,0.1 z"
         id="path10320" /><path
         style="fill:#000000;stroke-width:0"
         inkscape:connector-curvature="0"
         d="m 237.88,659.48 0.03,0 0.03,0 0.03,0 0.02,0 0.01,0 0.02,0 0.01,0.01 0.01,0 0.02,0 0.01,0 0.02,0 0.01,0.01 0.01,0 0.01,0.01 0.01,0 0.01,0.01 0.01,0 0.01,0.01 0.01,0 0.01,0.01 0.01,0.01 0.01,0.01 0,0.01 0,0 0.01,0.01 0,0 0,0.01 0,0 0,0.01 0.01,0.01 0,0 0,0.01 0,0.01 0,0 0,0.01 0,0.01 c 0,0.14 -0.12,0.14 -0.29,0.14 h -1.61 c 0.24,0.84 0.8,1.42 1.7,1.42 h 0.31 c 0.17,0 0.33,0 0.33,0.17 0,0.14 -0.13,0.14 -0.3,0.14 h -0.35 c -1.29,0 -2.63,-1 -2.63,-2.52 0,-1.09 0.75,-1.87 1.8,-1.87 0.65,0 1.3,0.39 1.3,0.5 0,0.03 -0.01,0.14 -0.1,0.14 -0.02,0 -0.04,0 -0.13,-0.06 -0.31,-0.2 -0.68,-0.37 -1.04,-0.37 -0.58,0 -1.08,0.42 -1.08,1.3 0,0.34 0.08,0.72 0.11,0.84 z"
         id="path10322" /><path
         style="fill:#000000;stroke-width:0"
         inkscape:connector-curvature="0"
         d="m 241.84,659.72 0,0.07 -0.01,0.08 0,0.08 0,0.08 -0.01,0.17 -0.01,0.17 -0.02,0.18 -0.02,0.19 -0.02,0.2 -0.04,0.2 -0.04,0.2 -0.04,0.21 -0.06,0.21 -0.06,0.21 -0.07,0.21 -0.07,0.21 -0.05,0.11 -0.04,0.11 -0.05,0.1 -0.05,0.11 c -0.6,1.22 -1.45,1.86 -1.55,1.86 -0.06,0 -0.1,-0.03 -0.1,-0.09 0,-0.03 0,-0.05 0.19,-0.23 0.97,-0.99 1.54,-2.57 1.54,-4.64 0,-1.7 -0.37,-3.45 -1.6,-4.7 -0.13,-0.12 -0.13,-0.14 -0.13,-0.17 0,-0.06 0.04,-0.1 0.1,-0.1 0.1,0 0.99,0.68 1.58,1.94 0.51,1.09 0.63,2.19 0.63,3.03 z"
         id="path10324" /></g>    <g
       style="font-style:normal;font-variant:normal;font-weight:normal;font-stretch:normal;letter-spacing:normal;word-spacing:normal;text-anchor:start;fill:none;stroke:#000000;stroke-linecap:butt;stroke-linejoin:miter;stroke-miterlimit:10.43299961;stroke-opacity:1;stroke-dasharray:none;stroke-dashoffset:0"
       id="g10546"
       transform="matrix(2.3544296,0,0,-2.3544296,-146.50003,2482.1985)"
       xml:space="preserve"
       stroke-miterlimit="10.433"
       font-style="normal"
       font-variant="normal"
       font-weight="normal"
       font-stretch="normal"
       font-size-adjust="none"
       letter-spacing="normal"
       word-spacing="normal"
       ns0:text="$\\epsilon$"
       ns0:preamble=""><path
         style="fill:#000000;stroke-width:0"
         inkscape:connector-curvature="0"
         d="m 226.4,659.48 0.03,0 0.03,0 0.03,0 0.01,0 0.02,0 0.01,0 0.02,0.01 0.01,0 0.01,0 0.02,0 0.01,0 0.01,0.01 0.02,0 0.01,0.01 0.01,0 0.01,0.01 0.01,0 0.01,0.01 0.01,0 0.01,0.01 0,0.01 0.01,0.01 0,0.01 0.01,0 0,0.01 0,0 0,0.01 0.01,0 0,0.01 0,0.01 0,0 0,0.01 0,0.01 0,0 0,0.01 0.01,0.01 c 0,0.14 -0.12,0.14 -0.29,0.14 h -1.61 c 0.23,0.84 0.79,1.42 1.7,1.42 h 0.31 c 0.16,0 0.32,0 0.32,0.17 0,0.14 -0.13,0.14 -0.3,0.14 h -0.34 c -1.3,0 -2.63,-1 -2.63,-2.52 0,-1.09 0.75,-1.87 1.8,-1.87 0.65,0 1.29,0.39 1.29,0.5 0,0.03 -0.01,0.14 -0.1,0.14 -0.02,0 -0.04,0 -0.13,-0.06 -0.3,-0.2 -0.67,-0.37 -1.04,-0.37 -0.58,0 -1.07,0.42 -1.07,1.3 0,0.34 0.08,0.72 0.11,0.84 z"
         id="path10548" /></g>    <g
       style="font-style:normal;font-variant:normal;font-weight:normal;font-stretch:normal;letter-spacing:normal;word-spacing:normal;text-anchor:start;fill:none;stroke:#000000;stroke-linecap:butt;stroke-linejoin:miter;stroke-miterlimit:10.43299961;stroke-opacity:1;stroke-dasharray:none;stroke-dashoffset:0"
       ns0:preamble=""
       ns0:text="$\\epsilon_F$"
       word-spacing="normal"
       letter-spacing="normal"
       font-size-adjust="none"
       font-stretch="normal"
       font-weight="normal"
       font-variant="normal"
       font-style="normal"
       stroke-miterlimit="10.433"
       xml:space="preserve"
       transform="matrix(2.3544296,0,0,-2.3544296,-184.87841,2482.1985)"
       id="g10667"><path
         id="path10669"
         d="m 226.4,659.48 0.03,0 0.03,0 0.03,0 0.01,0 0.02,0 0.01,0 0.02,0.01 0.01,0 0.01,0 0.02,0 0.01,0 0.01,0.01 0.02,0 0.01,0.01 0.01,0 0.01,0.01 0.01,0 0.01,0.01 0.01,0 0.01,0.01 0,0.01 0.01,0.01 0,0.01 0.01,0 0,0.01 0,0 0,0.01 0.01,0 0,0.01 0,0.01 0,0 0,0.01 0,0.01 0,0 0,0.01 0.01,0.01 c 0,0.14 -0.12,0.14 -0.29,0.14 h -1.61 c 0.23,0.84 0.79,1.42 1.7,1.42 h 0.31 c 0.16,0 0.32,0 0.32,0.17 0,0.14 -0.13,0.14 -0.3,0.14 h -0.34 c -1.3,0 -2.63,-1 -2.63,-2.52 0,-1.09 0.75,-1.87 1.8,-1.87 0.65,0 1.29,0.39 1.29,0.5 0,0.03 -0.01,0.14 -0.1,0.14 -0.02,0 -0.04,0 -0.13,-0.06 -0.3,-0.2 -0.67,-0.37 -1.04,-0.37 -0.58,0 -1.07,0.42 -1.07,1.3 0,0.34 0.08,0.72 0.11,0.84 z"
         inkscape:connector-curvature="0"
         style="fill:#000000;stroke-width:0" /><path
         id="path10671"
         d="m 229.86,657.98 h 0.74 c 0.53,0 0.62,-0.08 0.62,-0.31 0,-0.11 0,-0.12 -0.05,-0.32 -0.01,-0.04 -0.02,-0.06 -0.02,-0.08 0,-0.07 0.05,-0.1 0.12,-0.1 0.09,0 0.1,0.03 0.13,0.16 l 0.38,1.47 c 0.01,0.02 0.03,0.13 0.03,0.14 0,0.07 -0.05,0.1 -0.12,0.1 -0.1,0 -0.1,-0.04 -0.14,-0.16 -0.14,-0.54 -0.34,-0.65 -0.93,-0.65 h -0.7 l 0.44,1.75 c 0.05,0.21 0.06,0.23 0.35,0.23 h 1.07 c 0.93,0 1.1,-0.22 1.1,-0.8 0,-0.23 -0.03,-0.37 -0.03,-0.43 0,-0.05 0.02,-0.12 0.12,-0.12 0.1,0 0.11,0.07 0.13,0.18 l 0.12,1.21 c 0.02,0.21 -0.03,0.21 -0.2,0.21 h -3.72 c -0.13,0 -0.22,0 -0.22,-0.15 0,-0.1 0.08,-0.1 0.22,-0.1 0.01,0 0.14,0 0.27,-0.01 0.14,-0.02 0.16,-0.03 0.16,-0.1 0,-0.05 -0.02,-0.12 -0.03,-0.15 l -0.91,-3.64 c -0.07,-0.27 -0.08,-0.32 -0.62,-0.32 -0.12,0 -0.21,0 -0.21,-0.15 0,-0.06 0.05,-0.1 0.11,-0.1 0.2,0 0.72,0.03 0.92,0.03 l 0.53,-0.01 c 0.19,0 0.38,-0.02 0.55,-0.02 0.05,0 0.16,0 0.16,0.15 0,0.1 -0.09,0.1 -0.25,0.1 -0.01,0 -0.19,0 -0.36,0.02 -0.14,0.01 -0.22,0.02 -0.22,0.11 0,0.03 0,0.05 0.03,0.13 z"
         inkscape:connector-curvature="0"
         style="fill:#000000;stroke-width:0" /></g>    <path
       style="fill:none;stroke:#000000;stroke-width:1px;stroke-linecap:butt;stroke-linejoin:miter;stroke-opacity:1;marker-start:url(#Arrow2Lstart);marker-end:none"
       d="m 472.16216,177.83301 8.91892,-22.97298"
       id="path10723"
       inkscape:connector-curvature="0"
       transform="translate(-63.028358,665.51153)"
       sodipodi:nodetypes="cc" />
    <path
       style="fill:none;stroke:#000000;stroke-width:1px;stroke-linecap:butt;stroke-linejoin:miter;stroke-opacity:1"
       d="m 75.07975,745.23643 80,0"
       id="path11607"
       inkscape:connector-curvature="0" />
  </g>
</svg>
