<?xml version="1.0" encoding="UTF-8" standalone="no"?>
<!-- Created with Inkscape (http://www.inkscape.org/) -->

<svg
   xmlns:ns0="http://www.iki.fi/pav/software/textext/"
   xmlns:dc="http://purl.org/dc/elements/1.1/"
   xmlns:cc="http://creativecommons.org/ns#"
   xmlns:rdf="http://www.w3.org/1999/02/22-rdf-syntax-ns#"
   xmlns:svg="http://www.w3.org/2000/svg"
   xmlns="http://www.w3.org/2000/svg"
   xmlns:sodipodi="http://sodipodi.sourceforge.net/DTD/sodipodi-0.dtd"
   xmlns:inkscape="http://www.inkscape.org/namespaces/inkscape"
   width="214.80875"
   height="80.523193"
   id="svg2"
   version="1.1"
   inkscape:version="0.91 r13725"
   sodipodi:docname="figure96edit1.svg">
  <sodipodi:namedview
     id="base"
     pagecolor="#ffffff"
     bordercolor="#666666"
     borderopacity="1.0"
     inkscape:pageopacity="0.0"
     inkscape:pageshadow="2"
     inkscape:zoom="2.8"
     inkscape:cx="99.022168"
     inkscape:cy="68.047355"
     inkscape:document-units="px"
     inkscape:current-layer="layer1"
     showgrid="true"
     units="in"
     width="11cm"
     inkscape:window-width="1536"
     inkscape:window-height="803"
     inkscape:window-x="-8"
     inkscape:window-y="-8"
     inkscape:window-maximized="1"
     fit-margin-top="0"
     fit-margin-left="0"
     fit-margin-right="0"
     fit-margin-bottom="0">
    <inkscape:grid
       type="xygrid"
       id="grid2984"
       empspacing="5"
       visible="true"
       enabled="true"
       snapvisiblegridlinesonly="true"
       spacingx="2px"
       spacingy="2px"
       originx="-164.15248"
       originy="-198.56192" />
  </sodipodi:namedview>
  <defs
     id="defs4">
    <marker
       inkscape:stockid="Arrow2Lend"
       orient="auto"
       refY="0"
       refX="0"
       id="Arrow2Lend"
       style="overflow:visible"
       inkscape:isstock="true">
      <path
         id="path4190"
         style="fill:#000000;fill-opacity:1;fill-rule:evenodd;stroke:#000000;stroke-width:0.625;stroke-linejoin:round;stroke-opacity:1"
         d="M 8.7185878,4.0337352 -2.2072895,0.01601326 8.7185884,-4.0017078 c -1.7454984,2.3720609 -1.7354408,5.6174519 -6e-7,8.035443 z"
         transform="matrix(-1.1,0,0,-1.1,-1.1,0)"
         inkscape:connector-curvature="0" />
    </marker>
    <marker
       style="overflow:visible"
       id="Arrow2Mend"
       refX="0"
       refY="0"
       orient="auto"
       inkscape:stockid="Arrow2Mend">
      <path
         transform="scale(-0.6,-0.6)"
         d="M 8.7185878,4.0337352 -2.2072895,0.01601326 8.7185884,-4.0017078 c -1.7454984,2.3720609 -1.7354408,5.6174519 -6e-7,8.035443 z"
         style="fill-rule:evenodd;stroke-width:0.625;stroke-linejoin:round"
         id="path3966"
         inkscape:connector-curvature="0" />
    </marker>
    <marker
       inkscape:stockid="Arrow2Lend"
       orient="auto"
       refY="0"
       refX="0"
       id="Arrow2Lend-0"
       style="overflow:visible"
       inkscape:isstock="true">
      <path
         inkscape:connector-curvature="0"
         id="path4190-7"
         style="fill:#000000;fill-opacity:1;fill-rule:evenodd;stroke:#000000;stroke-width:0.625;stroke-linejoin:round;stroke-opacity:1"
         d="M 8.7185878,4.0337352 -2.2072895,0.01601326 8.7185884,-4.0017078 c -1.7454984,2.3720609 -1.7354408,5.6174519 -6e-7,8.035443 z"
         transform="matrix(-1.1,0,0,-1.1,-1.1,0)" />
    </marker>
    <marker
       inkscape:stockid="Arrow2Lend"
       orient="auto"
       refY="0"
       refX="0"
       id="Arrow2Lend-5"
       style="overflow:visible"
       inkscape:isstock="true">
      <path
         inkscape:connector-curvature="0"
         id="path4190-3"
         style="fill:#000000;fill-opacity:1;fill-rule:evenodd;stroke:#000000;stroke-width:0.625;stroke-linejoin:round;stroke-opacity:1"
         d="M 8.7185878,4.0337352 -2.2072895,0.01601326 8.7185884,-4.0017078 c -1.7454984,2.3720609 -1.7354408,5.6174519 -6e-7,8.035443 z"
         transform="matrix(-1.1,0,0,-1.1,-1.1,0)" />
    </marker>
  </defs>
  <metadata
     id="metadata7">
    <rdf:RDF>
      <cc:Work
         rdf:about="">
        <dc:format>image/svg+xml</dc:format>
        <dc:type
           rdf:resource="http://purl.org/dc/dcmitype/StillImage" />
        <dc:title></dc:title>
      </cc:Work>
    </rdf:RDF>
  </metadata>
  <g
     id="layer1"
     inkscape:groupmode="layer"
     inkscape:label="Layer 1"
     transform="translate(-101.12412,-796.96213)">
    <path
       style="fill:none;stroke:#000000;stroke-width:1px;stroke-linecap:butt;stroke-linejoin:miter;stroke-opacity:1"
       d="m 200,140.53571 150,0"
       id="path24005"
       inkscape:connector-curvature="0"
       transform="translate(-63.028358,665.51153)"
       sodipodi:nodetypes="cc" />
    <path
       style="fill:none;stroke:#000000;stroke-width:1px;stroke-linecap:butt;stroke-linejoin:miter;stroke-opacity:1"
       d="m 136.97164,866.04724 150,0"
       id="path24007"
       inkscape:connector-curvature="0"
       sodipodi:nodetypes="cc" />
    <g
       style="font-style:normal;font-variant:normal;font-weight:normal;font-stretch:normal;letter-spacing:normal;word-spacing:normal;text-anchor:start;fill:none;stroke:#000000;stroke-linecap:butt;stroke-linejoin:miter;stroke-miterlimit:10.43299961;stroke-dasharray:none;stroke-dashoffset:0;stroke-opacity:1"
       id="content"
       transform="matrix(1.997009,0,0,-1.997009,-150.94787,2127.004)"
       xml:space="preserve"
       stroke-miterlimit="10.433"
       font-style="normal"
       font-variant="normal"
       font-weight="normal"
       font-stretch="normal"
       font-size-adjust="none"
       letter-spacing="normal"
       word-spacing="normal"
       ns0:text="$\\mathrm{E_3}$"
       ns0:preamble=""><path
         style="fill:#000000;stroke-width:0"
         inkscape:connector-curvature="0"
         d="m 224.79,658.01 -0.01,-0.03 0,-0.03 0,-0.03 0,-0.03 0,-0.03 0,-0.03 -0.01,-0.02 0,-0.02 -0.01,-0.03 0,-0.02 -0.01,-0.02 -0.01,-0.02 -0.01,-0.01 -0.02,-0.02 -0.01,-0.01 -0.02,-0.02 -0.02,-0.01 -0.02,-0.01 -0.02,-0.01 -0.01,0 -0.01,-0.01 -0.02,0 -0.01,-0.01 -0.02,0 -0.01,-0.01 -0.02,0 -0.02,0 -0.02,-0.01 -0.01,0 -0.03,0 -0.02,-0.01 -0.02,0 -0.02,0 -0.02,0 -0.03,-0.01 -0.02,0 -0.03,0 -0.03,0 -0.03,0 -0.02,0 -0.03,0 -0.04,-0.01 -0.03,0 -0.03,0 -0.04,0 -0.03,0 -0.24,0 0,-0.31 5.74,0 0.42,2.57 -0.25,0 c -0.25,-1.53 -0.48,-2.26 -2.19,-2.26 l -1.32,0 c -0.47,0 -0.49,0.07 -0.49,0.4 l 0,2.65 0.9,0 c 0.96,0 1.07,-0.31 1.07,-1.16 l 0.25,0 0,2.63 -0.25,0 c 0,-0.85 -0.11,-1.16 -1.07,-1.16 l -0.9,0 0,2.38 c 0,0.33 0.02,0.4 0.49,0.4 l 1.28,0 c 1.52,0 1.79,-0.54 1.95,-1.92 l 0.25,0 -0.28,2.23 -5.6,0 0,-0.31 0.24,0 c 0.76,0 0.79,-0.11 0.79,-0.46 z"
         id="path24020" /><path
         style="fill:#000000;stroke-width:0"
         inkscape:connector-curvature="0"
         d="m 232.11,658.06 0.05,0 0.05,0 0.05,-0.01 0.05,0 0.05,-0.01 0.04,-0.02 0.05,-0.01 0.04,-0.02 0.04,-0.02 0.04,-0.02 0.04,-0.02 0.04,-0.02 0.03,-0.03 0.04,-0.03 0.03,-0.03 0.03,-0.04 0.03,-0.03 0.03,-0.04 0.03,-0.04 0.02,-0.05 0.03,-0.04 0.02,-0.05 0.02,-0.05 0.02,-0.05 0.01,-0.05 0.02,-0.06 0.01,-0.05 0.01,-0.06 0.01,-0.07 0,-0.06 0.01,-0.07 0,-0.07 c 0,-0.86 -0.51,-1.12 -0.91,-1.12 -0.28,0 -0.89,0.08 -1.18,0.49 0.33,0.02 0.4,0.24 0.4,0.39 0,0.22 -0.17,0.38 -0.38,0.38 -0.2,0 -0.39,-0.11 -0.39,-0.4 0,-0.65 0.72,-1.08 1.56,-1.08 0.97,0 1.64,0.65 1.64,1.34 0,0.55 -0.44,1.09 -1.21,1.25 0.73,0.26 1,0.78 1,1.21 0,0.55 -0.64,0.96 -1.41,0.96 -0.77,0 -1.37,-0.38 -1.37,-0.93 0,-0.24 0.16,-0.37 0.37,-0.37 0.21,0 0.35,0.16 0.35,0.35 0,0.2 -0.14,0.35 -0.35,0.36 0.24,0.31 0.72,0.39 0.98,0.39 0.31,0 0.75,-0.16 0.75,-0.76 0,-0.29 -0.1,-0.61 -0.28,-0.83 -0.23,-0.26 -0.42,-0.28 -0.77,-0.3 -0.17,-0.01 -0.19,-0.01 -0.22,-0.02 -0.02,0 -0.07,-0.01 -0.07,-0.09 0,-0.1 0.06,-0.1 0.18,-0.1 z"
         id="path24022" /></g>    <g
       style="font-style:normal;font-variant:normal;font-weight:normal;font-stretch:normal;letter-spacing:normal;word-spacing:normal;text-anchor:start;fill:none;stroke:#000000;stroke-linecap:butt;stroke-linejoin:miter;stroke-miterlimit:10.43299961;stroke-dasharray:none;stroke-dashoffset:0;stroke-opacity:1"
       ns0:preamble=""
       ns0:text="$\\mathrm{E_1}$"
       word-spacing="normal"
       letter-spacing="normal"
       font-size-adjust="none"
       font-stretch="normal"
       font-weight="normal"
       font-variant="normal"
       font-style="normal"
       stroke-miterlimit="10.433"
       xml:space="preserve"
       transform="matrix(1.997009,0,0,-1.997009,-150.94787,2187.004)"
       id="g24072"><path
         id="path24074"
         d="m 224.79,658.01 -0.01,-0.03 0,-0.03 0,-0.03 0,-0.03 0,-0.03 0,-0.03 -0.01,-0.02 0,-0.02 -0.01,-0.03 0,-0.02 -0.01,-0.02 -0.01,-0.02 -0.01,-0.01 -0.02,-0.02 -0.01,-0.01 -0.02,-0.02 -0.02,-0.01 -0.02,-0.01 -0.02,-0.01 -0.01,0 -0.01,-0.01 -0.02,0 -0.01,-0.01 -0.02,0 -0.01,-0.01 -0.02,0 -0.02,0 -0.02,-0.01 -0.01,0 -0.03,0 -0.02,-0.01 -0.02,0 -0.02,0 -0.02,0 -0.03,-0.01 -0.02,0 -0.03,0 -0.03,0 -0.03,0 -0.02,0 -0.03,0 -0.04,-0.01 -0.03,0 -0.03,0 -0.04,0 -0.03,0 -0.24,0 0,-0.31 5.74,0 0.42,2.57 -0.25,0 c -0.25,-1.53 -0.48,-2.26 -2.19,-2.26 l -1.32,0 c -0.47,0 -0.49,0.07 -0.49,0.4 l 0,2.65 0.9,0 c 0.96,0 1.07,-0.31 1.07,-1.16 l 0.25,0 0,2.63 -0.25,0 c 0,-0.85 -0.11,-1.16 -1.07,-1.16 l -0.9,0 0,2.38 c 0,0.33 0.02,0.4 0.49,0.4 l 1.28,0 c 1.52,0 1.79,-0.54 1.95,-1.92 l 0.25,0 -0.28,2.23 -5.6,0 0,-0.31 0.24,0 c 0.76,0 0.79,-0.11 0.79,-0.46 z"
         inkscape:connector-curvature="0"
         style="fill:#000000;stroke-width:0" /><path
         id="path24076"
         d="m 232.54,660.16 0,0.01 0,0.01 0,0.01 0,0.01 0,0 0,0.01 0,0.01 0,0.01 0,0 0,0.01 0,0.01 0,0 0,0.01 0,0 0,0.01 0,0 0,0.01 0,0 0,0.01 -0.01,0.01 0,0.01 0,0 -0.01,0.01 0,0.01 -0.01,0 0,0.01 -0.01,0 0,0 -0.01,0.01 -0.01,0 -0.01,0 -0.01,0 0,0 -0.01,0 0,0 -0.01,0.01 -0.01,0 0,0 -0.01,0 -0.01,0 0,0 -0.01,0 -0.01,0 0,0 -0.01,0 -0.01,0 -0.01,0 -0.01,0 0,0 -0.01,0 c -0.45,-0.44 -1.08,-0.45 -1.37,-0.45 l 0,-0.25 c 0.17,0 0.63,0 1.01,0.2 l 0,-3.55 c 0,-0.23 0,-0.32 -0.69,-0.32 l -0.27,0 0,-0.25 c 0.13,0.01 0.98,0.03 1.24,0.03 0.22,0 1.09,-0.02 1.25,-0.03 l 0,0.25 -0.27,0 c -0.7,0 -0.7,0.09 -0.7,0.32 z"
         inkscape:connector-curvature="0"
         style="fill:#000000;stroke-width:0" /></g>    <path
       style="fill:none;stroke:#000000;stroke-width:1.05292058;stroke-linecap:butt;stroke-linejoin:miter;stroke-miterlimit:4;stroke-dasharray:none;stroke-opacity:1;marker-end:url(#Arrow2Lend)"
       d="m 196.1145,809.66843 0,52.26454"
       id="path24007-9"
       inkscape:connector-curvature="0"
       sodipodi:nodetypes="cc" />
    <path
       style="fill:none;stroke:#000000;stroke-width:1.05292058;stroke-linecap:butt;stroke-linejoin:miter;stroke-miterlimit:4;stroke-dasharray:none;stroke-opacity:1;marker-end:url(#Arrow2Lend-0)"
       d="m 232.1145,809.66843 0,52.26454"
       id="path24007-9-1"
       inkscape:connector-curvature="0"
       sodipodi:nodetypes="cc" />
    <path
       style="fill:#000000;fill-opacity:1;stroke:#000000;stroke-width:0.54508388;stroke-miterlimit:4;stroke-dasharray:none;stroke-dashoffset:0;stroke-opacity:1"
       id="path4736"
       sodipodi:type="arc"
       sodipodi:cx="196.18475"
       sodipodi:cy="799.96191"
       sodipodi:rx="2.7238264"
       sodipodi:ry="2.7270131"
       sodipodi:start="0.15353993"
       sodipodi:end="0.14873958"
       d="m 198.87654,800.37898 a 2.7238264,2.7270131 0 0 1 -3.10513,2.27836 2.7238264,2.7270131 0 0 1 -2.27943,-3.10602 2.7238264,2.7270131 0 0 1 3.09965,-2.28582 2.7238264,2.7270131 0 0 1 2.28688,3.10053 l -2.69376,-0.40412 z" />
    <path
       style="fill:#000000;fill-opacity:1;stroke:#000000;stroke-width:0.54508388;stroke-miterlimit:4;stroke-dasharray:none;stroke-dashoffset:0;stroke-opacity:1"
       id="path4736-2"
       sodipodi:type="arc"
       sodipodi:cx="231.89162"
       sodipodi:cy="799.96191"
       sodipodi:rx="2.7238264"
       sodipodi:ry="2.7270131"
       sodipodi:start="0.15353993"
       sodipodi:end="0.14873958"
       d="m 234.5834,800.37898 a 2.7238264,2.7270131 0 0 1 -3.10513,2.27836 2.7238264,2.7270131 0 0 1 -2.27943,-3.10602 2.7238264,2.7270131 0 0 1 3.09966,-2.28582 2.7238264,2.7270131 0 0 1 2.28687,3.10053 l -2.69375,-0.40412 z" />
    <text
       xml:space="preserve"
       style="font-style:normal;font-weight:normal;font-size:40px;line-height:125%;font-family:sans-serif;letter-spacing:0px;word-spacing:0px;fill:#000000;fill-opacity:1;stroke:none;stroke-width:1px;stroke-linecap:butt;stroke-linejoin:miter;stroke-opacity:1"
       x="100.54307"
       y="831.04724"
       id="text4819"
       sodipodi:linespacing="125%"><tspan
         sodipodi:role="line"
         id="tspan4821"
         x="100.54307"
         y="831.04724"
         style="font-size:17.5px">finite</tspan><tspan
         sodipodi:role="line"
         x="100.54307"
         y="852.92224"
         style="font-size:17.5px"
         id="tspan4823">lifetime</tspan></text>
  </g>
</svg>
