<?xml version="1.0" encoding="UTF-8" standalone="no"?>
<!-- Created with Inkscape (http://www.inkscape.org/) -->

<svg
   xmlns:dc="http://purl.org/dc/elements/1.1/"
   xmlns:cc="http://creativecommons.org/ns#"
   xmlns:rdf="http://www.w3.org/1999/02/22-rdf-syntax-ns#"
   xmlns:svg="http://www.w3.org/2000/svg"
   xmlns="http://www.w3.org/2000/svg"
   xmlns:sodipodi="http://sodipodi.sourceforge.net/DTD/sodipodi-0.dtd"
   xmlns:inkscape="http://www.inkscape.org/namespaces/inkscape"
   width="315.05133"
   height="131.00015"
   id="svg2"
   version="1.1"
   inkscape:version="0.48.4 r9939"
   sodipodi:docname="New document 10">
  <sodipodi:namedview
     id="base"
     pagecolor="#ffffff"
     bordercolor="#666666"
     borderopacity="1.0"
     inkscape:pageopacity="0.0"
     inkscape:pageshadow="2"
     inkscape:zoom="1.4"
     inkscape:cx="85.497831"
     inkscape:cy="43.445953"
     inkscape:document-units="px"
     inkscape:current-layer="layer1"
     showgrid="true"
     units="in"
     width="11cm"
     inkscape:window-width="1274"
     inkscape:window-height="570"
     inkscape:window-x="0"
     inkscape:window-y="394"
     inkscape:window-maximized="0"
     fit-margin-top="0"
     fit-margin-left="0"
     fit-margin-right="0"
     fit-margin-bottom="0"
     inkscape:snap-grids="false">
    <inkscape:grid
       type="xygrid"
       id="grid2984"
       empspacing="5"
       visible="true"
       enabled="true"
       snapvisiblegridlinesonly="true"
       spacingx="2px"
       spacingy="2px"
       originx="-79.5px"
       originy="-203.78564px" />
  </sodipodi:namedview>
  <defs
     id="defs4">
    <marker
       inkscape:stockid="Arrow2Lstart"
       orient="auto"
       refY="0"
       refX="0"
       id="Arrow2Lstart"
       style="overflow:visible">
      <path
         id="path4163"
         style="fill-rule:evenodd;stroke-width:0.625;stroke-linejoin:round"
         d="M 8.7185878,4.0337352 -2.2072895,0.01601326 8.7185884,-4.0017078 c -1.7454984,2.3720609 -1.7354408,5.6174519 -6e-7,8.035443 z"
         transform="matrix(1.1,0,0,1.1,1.1,0)"
         inkscape:connector-curvature="0" />
    </marker>
    <marker
       inkscape:stockid="Arrow2Lend"
       orient="auto"
       refY="0"
       refX="0"
       id="Arrow2Lend"
       style="overflow:visible">
      <path
         id="path4166"
         style="fill-rule:evenodd;stroke-width:0.625;stroke-linejoin:round"
         d="M 8.7185878,4.0337352 -2.2072895,0.01601326 8.7185884,-4.0017078 c -1.7454984,2.3720609 -1.7354408,5.6174519 -6e-7,8.035443 z"
         transform="matrix(-1.1,0,0,-1.1,-1.1,0)"
         inkscape:connector-curvature="0" />
    </marker>
    <marker
       style="overflow:visible"
       id="Arrow2Mend"
       refX="0"
       refY="0"
       orient="auto"
       inkscape:stockid="Arrow2Mend">
      <path
         transform="scale(-0.6,-0.6)"
         d="M 8.7185878,4.0337352 -2.2072895,0.01601326 8.7185884,-4.0017078 c -1.7454984,2.3720609 -1.7354408,5.6174519 -6e-7,8.035443 z"
         style="fill-rule:evenodd;stroke-width:0.625;stroke-linejoin:round"
         id="path3966"
         inkscape:connector-curvature="0" />
    </marker>
    <marker
       inkscape:stockid="Arrow2Lend"
       orient="auto"
       refY="0"
       refX="0"
       id="Arrow2Lend-5"
       style="overflow:visible">
      <path
         inkscape:connector-curvature="0"
         id="path4166-9"
         style="fill-rule:evenodd;stroke-width:0.625;stroke-linejoin:round"
         d="M 8.7185878,4.0337352 -2.2072895,0.01601326 8.7185884,-4.0017078 c -1.7454984,2.3720609 -1.7354408,5.6174519 -6e-7,8.035443 z"
         transform="matrix(-1.1,0,0,-1.1,-1.1,0)" />
    </marker>
  </defs>
  <metadata
     id="metadata7">
    <rdf:RDF>
      <cc:Work
         rdf:about="">
        <dc:format>image/svg+xml</dc:format>
        <dc:type
           rdf:resource="http://purl.org/dc/dcmitype/StillImage" />
        <dc:title></dc:title>
      </cc:Work>
    </rdf:RDF>
  </metadata>
  <g
     transform="translate(-16.471642,-741.26145)"
     id="layer1"
     inkscape:groupmode="layer"
     inkscape:label="Layer 1">
    <path
       style="fill:none;stroke:#000000;stroke-width:1px;stroke-linecap:butt;stroke-linejoin:miter;stroke-opacity:1"
       d="m 80,90.535706 c 0,0 60,-1e-5 90,0 30,0 10,40.000004 30,40.000004 30,-1e-5 90,0 90,0"
       id="path4979"
       inkscape:connector-curvature="0"
       transform="translate(-63.028358,665.51153)"
       sodipodi:nodetypes="cssc" />
    <path
       sodipodi:type="arc"
       style="fill:none;stroke:#000000;stroke-width:1;stroke-miterlimit:4;stroke-opacity:1;stroke-dasharray:none;stroke-dashoffset:0"
       id="path4981"
       sodipodi:cx="85"
       sodipodi:cy="145.53571"
       sodipodi:rx="5"
       sodipodi:ry="5"
       d="m 80.004131,145.73892 c -0.112232,-2.75914 2.033513,-5.08685 4.792655,-5.19908 2.759142,-0.11224 5.086851,2.03351 5.199083,4.79265 0.112232,2.75914 -2.033513,5.08685 -4.792655,5.19908 -2.721531,0.11071 -5.030979,-1.97731 -5.194226,-4.69619"
       transform="translate(64.1145,639.79725)"
       sodipodi:start="3.1009386"
       sodipodi:end="9.3648081"
       sodipodi:open="true" />
    <path
       transform="translate(19.828785,601.22582)"
       sodipodi:type="arc"
       style="fill:#000000;stroke:#000000;stroke-width:1;stroke-miterlimit:4;stroke-opacity:1;stroke-dasharray:none;stroke-dashoffset:0"
       id="path4981-6"
       sodipodi:cx="85"
       sodipodi:cy="145.53571"
       sodipodi:rx="5"
       sodipodi:ry="5"
       d="m 80.004131,145.73892 c -0.112232,-2.75914 2.033513,-5.08685 4.792655,-5.19908 2.759142,-0.11224 5.086851,2.03351 5.199083,4.79265 0.112232,2.75914 -2.033513,5.08685 -4.792655,5.19908 -2.721531,0.11071 -5.030979,-1.97731 -5.194226,-4.69619"
       sodipodi:start="3.1009386"
       sodipodi:end="9.3648081"
       sodipodi:open="true" />
    <path
       style="fill:none;stroke:#000000;stroke-width:1px;stroke-linecap:butt;stroke-linejoin:miter;stroke-opacity:1;marker-end:url(#Arrow2Lend)"
       d="M 205.71429,111.25 C 203.29971,94.071941 204.26802,81.911788 180,80.535706"
       id="path5515"
       inkscape:connector-curvature="0"
       transform="translate(-63.028358,665.51153)"
       sodipodi:nodetypes="cc" />
    <path
       style="fill:none;stroke:#000000;stroke-width:1;stroke-linecap:butt;stroke-linejoin:miter;stroke-miterlimit:4;stroke-opacity:1;stroke-dasharray:6, 6;stroke-dashoffset:0"
       d="m 290,140.53571 -210,0"
       id="path5703"
       inkscape:connector-curvature="0"
       transform="translate(-63.028358,665.51153)" />
    <path
       style="fill:none;stroke:#000000;stroke-width:1px;stroke-linecap:butt;stroke-linejoin:miter;stroke-opacity:1"
       d="m 16.971642,816.04724 c 0,0 60,-10e-6 89.999998,0 30,0 10,40.00001 30,40.00001 30,-10e-6 90,0 90,0"
       id="path4979-5"
       inkscape:connector-curvature="0"
       sodipodi:nodetypes="cssc" />
    <path
       sodipodi:type="arc"
       style="fill:none;stroke:#000000;stroke-width:1;stroke-miterlimit:4;stroke-opacity:1;stroke-dasharray:none;stroke-dashoffset:0"
       id="path5723"
       sodipodi:cx="135"
       sodipodi:cy="185.53571"
       sodipodi:rx="5"
       sodipodi:ry="5"
       d="m 130.00413,185.73892 c -0.11223,-2.75914 2.03351,-5.08685 4.79266,-5.19908 2.75914,-0.11224 5.08685,2.03351 5.19908,4.79265 0.11223,2.75914 -2.03351,5.08685 -4.79266,5.19908 -2.72153,0.11071 -5.03097,-1.97731 -5.19422,-4.69619"
       transform="translate(-57.314072,641.9401)"
       sodipodi:start="3.1009386"
       sodipodi:end="9.3648081"
       sodipodi:open="true" />
    <path
       transform="translate(-38.02836,641.9401)"
       sodipodi:type="arc"
       style="fill:none;stroke:#000000;stroke-width:1;stroke-miterlimit:4;stroke-opacity:1;stroke-dasharray:none;stroke-dashoffset:0"
       id="path5723-5"
       sodipodi:cx="135"
       sodipodi:cy="185.53571"
       sodipodi:rx="5"
       sodipodi:ry="5"
       d="m 130.00413,185.73892 c -0.11223,-2.75914 2.03351,-5.08685 4.79266,-5.19908 2.75914,-0.11224 5.08685,2.03351 5.19908,4.79265 0.11223,2.75914 -2.03351,5.08685 -4.79266,5.19908 -2.72153,0.11071 -5.03097,-1.97731 -5.19422,-4.69619"
       sodipodi:start="3.1009386"
       sodipodi:end="9.3648081"
       sodipodi:open="true" />
    <path
       transform="translate(16.97164,681.22582)"
       sodipodi:type="arc"
       style="fill:none;stroke:#000000;stroke-width:1;stroke-miterlimit:4;stroke-opacity:1;stroke-dasharray:none;stroke-dashoffset:0"
       id="path5723-4"
       sodipodi:cx="135"
       sodipodi:cy="185.53571"
       sodipodi:rx="5"
       sodipodi:ry="5"
       d="m 130.00413,185.73892 c -0.11223,-2.75914 2.03351,-5.08685 4.79266,-5.19908 2.75914,-0.11224 5.08685,2.03351 5.19908,4.79265 0.11223,2.75914 -2.03351,5.08685 -4.79266,5.19908 -2.72153,0.11071 -5.03097,-1.97731 -5.19422,-4.69619"
       sodipodi:start="3.1009386"
       sodipodi:end="9.3648081"
       sodipodi:open="true" />
    <path
       style="fill:none;stroke:#000000;stroke-width:1px;stroke-linecap:butt;stroke-linejoin:miter;stroke-opacity:1;marker-end:url(#Arrow2Lend)"
       d="m 110.43246,834.90049 c 2.41458,17.17806 1.44627,29.33821 25.71429,30.71429"
       id="path5515-1"
       inkscape:connector-curvature="0"
       sodipodi:nodetypes="cc" />
    <path
       style="fill:none;stroke:#000000;stroke-width:1px;stroke-linecap:butt;stroke-linejoin:miter;stroke-opacity:1;marker-end:url(#Arrow2Lend-5)"
       d="m 220,140.53571 0,50"
       id="path5774"
       inkscape:connector-curvature="0"
       transform="translate(-63.028358,665.51153)" />
    <path
       style="fill:none;stroke:#000000;stroke-width:1px;stroke-linecap:butt;stroke-linejoin:miter;stroke-opacity:1;marker-start:url(#Arrow2Lstart);marker-end:url(#Arrow2Lend-5)"
       d="m 150,90.535706 0,50.000004"
       id="path5776"
       inkscape:connector-curvature="0"
       transform="translate(-63.028358,665.51153)" />
    <path
       style="fill:none;stroke:#000000;stroke-width:1px;stroke-linecap:butt;stroke-linejoin:miter;stroke-opacity:1;marker-end:url(#Arrow2Lend-5)"
       d="m 230,170.53571 c 0,0 10,-20 20,-10 10,10 12.85714,15.71429 20,10 11.04315,-8.83452 11.42856,-17.85714 22.14285,-9.28571 11.04315,8.83452 14.58323,18.45508 24.28573,6.42857 7.48125,-9.27322 8.27895,-16.84317 20.71428,-5 13.10069,11.24343 14.59232,5.75045 28.57143,5.71428"
       id="path6530"
       inkscape:connector-curvature="0"
       transform="translate(-63.028358,665.51153)"
       sodipodi:nodetypes="csssscc" />
    <text
       xml:space="preserve"
       style="font-size:16px;font-style:normal;font-variant:normal;font-weight:500;font-stretch:normal;text-align:start;line-height:100%;letter-spacing:0px;word-spacing:0px;writing-mode:lr-tb;text-anchor:start;fill:#000000;fill-opacity:1;stroke:none;font-family:Rekha;-inkscape-font-specification:Rekha Medium"
       x="316.25735"
       y="836.76154"
       id="text7096"
       sodipodi:linespacing="100%"><tspan
         sodipodi:role="line"
         id="tspan7098"
         x="316.25735"
         y="836.76154">hv</tspan></text>
  </g>
</svg>
