<?xml version="1.0" encoding="UTF-8" standalone="no"?>
<!-- Created with Inkscape (http://www.inkscape.org/) -->

<svg
   xmlns:ns0="http://www.iki.fi/pav/software/textext/"
   xmlns:dc="http://purl.org/dc/elements/1.1/"
   xmlns:cc="http://creativecommons.org/ns#"
   xmlns:rdf="http://www.w3.org/1999/02/22-rdf-syntax-ns#"
   xmlns:svg="http://www.w3.org/2000/svg"
   xmlns="http://www.w3.org/2000/svg"
   xmlns:sodipodi="http://sodipodi.sourceforge.net/DTD/sodipodi-0.dtd"
   xmlns:inkscape="http://www.inkscape.org/namespaces/inkscape"
   width="455.83929"
   height="200.5092"
   id="svg2"
   version="1.1"
   inkscape:version="0.48.4 r9939"
   sodipodi:docname="New document 41">
  <sodipodi:namedview
     id="base"
     pagecolor="#ffffff"
     bordercolor="#666666"
     borderopacity="1.0"
     inkscape:pageopacity="0.0"
     inkscape:pageshadow="2"
     inkscape:zoom="1.06"
     inkscape:cx="313.78329"
     inkscape:cy="82.081103"
     inkscape:document-units="px"
     inkscape:current-layer="layer1"
     showgrid="true"
     units="in"
     width="11cm"
     inkscape:window-width="1274"
     inkscape:window-height="546"
     inkscape:window-x="0"
     inkscape:window-y="418"
     inkscape:window-maximized="0"
     fit-margin-top="0"
     fit-margin-left="0"
     fit-margin-right="0"
     fit-margin-bottom="0"
     inkscape:snap-grids="true"
     inkscape:snap-midpoints="false">
    <inkscape:grid
       spacingy="2px"
       spacingx="2px"
       snapvisiblegridlinesonly="true"
       enabled="true"
       visible="true"
       empspacing="5"
       id="grid2984"
       type="xygrid"
       originx="-129.5px"
       originy="-129.5px" />
  </sodipodi:namedview>
  <defs
     id="defs4">
    <marker
       style="overflow:visible"
       id="Arrow2Lend"
       refX="0"
       refY="0"
       orient="auto"
       inkscape:stockid="Arrow2Lend">
      <path
         transform="matrix(-1.1,0,0,-1.1,-1.1,0)"
         d="M 8.7185878,4.0337352 -2.2072895,0.01601326 8.7185884,-4.0017078 c -1.7454984,2.3720609 -1.7354408,5.6174519 -6e-7,8.035443 z"
         style="fill-rule:evenodd;stroke-width:0.625;stroke-linejoin:round"
         id="path4007"
         inkscape:connector-curvature="0" />
    </marker>
    <marker
       style="overflow:visible"
       id="Arrow2Lstart"
       refX="0"
       refY="0"
       orient="auto"
       inkscape:stockid="Arrow2Lstart">
      <path
         transform="matrix(1.1,0,0,1.1,1.1,0)"
         d="M 8.7185878,4.0337352 -2.2072895,0.01601326 8.7185884,-4.0017078 c -1.7454984,2.3720609 -1.7354408,5.6174519 -6e-7,8.035443 z"
         style="fill-rule:evenodd;stroke-width:0.625;stroke-linejoin:round"
         id="path4004"
         inkscape:connector-curvature="0" />
    </marker>
    <marker
       inkscape:stockid="Arrow2Mend"
       orient="auto"
       refY="0"
       refX="0"
       id="Arrow2Mend"
       style="overflow:visible">
      <path
         inkscape:connector-curvature="0"
         id="path3966"
         style="fill-rule:evenodd;stroke-width:0.625;stroke-linejoin:round"
         d="M 8.7185878,4.0337352 -2.2072895,0.01601326 8.7185884,-4.0017078 c -1.7454984,2.3720609 -1.7354408,5.6174519 -6e-7,8.035443 z"
         transform="scale(-0.6,-0.6)" />
    </marker>
  </defs>
  <metadata
     id="metadata7">
    <rdf:RDF>
      <cc:Work
         rdf:about="">
        <dc:format>image/svg+xml</dc:format>
        <dc:type
           rdf:resource="http://purl.org/dc/dcmitype/StillImage" />
        <dc:title></dc:title>
      </cc:Work>
    </rdf:RDF>
  </metadata>
  <g
     inkscape:label="Layer 1"
     inkscape:groupmode="layer"
     id="layer1"
     transform="translate(-66.471642,-746.03804)">
    <path
       transform="translate(-63.028358,665.51153)"
       inkscape:connector-curvature="0"
       id="path8898"
       d="m 170,90.535706 0,190.000004"
       style="fill:none;stroke:#000000;stroke-width:1px;stroke-linecap:butt;stroke-linejoin:miter;stroke-opacity:1;marker-start:url(#Arrow2Lstart)" />
    <path
       sodipodi:nodetypes="cc"
       transform="translate(-63.028358,665.51153)"
       inkscape:connector-curvature="0"
       id="path8900"
       d="m 130,240.53571 370,0"
       style="fill:none;stroke:#000000;stroke-width:1px;stroke-linecap:butt;stroke-linejoin:miter;stroke-opacity:1;marker-start:none;marker-end:url(#Arrow2Lend)" />
    <path
       sodipodi:nodetypes="cc"
       inkscape:connector-curvature="0"
       id="path8902"
       d="m 106.97164,906.04724 c 0,-160 240,-140 300,-140"
       style="fill:none;stroke:#000000;stroke-width:1px;stroke-linecap:butt;stroke-linejoin:miter;stroke-opacity:1" />
    <path
       sodipodi:nodetypes="cc"
       transform="translate(-63.028358,665.51153)"
       inkscape:connector-curvature="0"
       id="path8904"
       d="m 470,160.53571 c -210,0 -300,0 -300,80"
       style="fill:none;stroke:#000000;stroke-width:1px;stroke-linecap:butt;stroke-linejoin:miter;stroke-opacity:1" />
    <path
       sodipodi:nodetypes="cc"
       transform="translate(-63.028358,665.51153)"
       inkscape:connector-curvature="0"
       id="path8906"
       d="m 470,200.53249 c -170,0 -300,-9.99678 -300,40.00322"
       style="fill:none;stroke:#000000;stroke-width:1px;stroke-linecap:butt;stroke-linejoin:miter;stroke-opacity:1" />
    <path
       transform="translate(-63.028358,665.51153)"
       inkscape:connector-curvature="0"
       id="path8908"
       d="m 500,110.53571 0,90"
       style="fill:none;stroke:#000000;stroke-width:1px;stroke-linecap:butt;stroke-linejoin:miter;stroke-opacity:1;marker-start:none;marker-end:url(#Arrow2Lend)" />
    <text
       transform="translate(-63.028358,665.51153)"
       sodipodi:linespacing="100%"
       id="text10724"
       y="91.964279"
       x="325"
       style="font-size:16px;font-style:normal;font-variant:normal;font-weight:500;font-stretch:normal;text-align:start;line-height:100%;letter-spacing:0px;word-spacing:0px;writing-mode:lr-tb;text-anchor:start;fill:#000000;fill-opacity:1;stroke:none;font-family:Rekha;-inkscape-font-specification:Rekha Medium"
       xml:space="preserve"><tspan
         y="91.964279"
         x="325"
         id="tspan10726"
         sodipodi:role="line" /></text>
    <text
       transform="translate(-63.028358,665.51153)"
       sodipodi:linespacing="100%"
       id="text10728"
       y="131.96428"
       x="520.71429"
       style="font-size:16px;font-style:normal;font-variant:normal;font-weight:500;font-stretch:normal;text-align:start;line-height:100%;letter-spacing:0px;word-spacing:0px;writing-mode:lr-tb;text-anchor:start;fill:#000000;fill-opacity:1;stroke:none;font-family:Rekha;-inkscape-font-specification:Rekha Medium"
       xml:space="preserve"><tspan
         y="131.96428"
         x="520.71429"
         id="tspan10730"
         sodipodi:role="line">increasing</tspan><tspan
         id="tspan10732"
         y="147.96428"
         x="520.71429"
         sodipodi:role="line">drain bias</tspan></text>
    <g
       ns0:preamble=""
       ns0:text="$V_{GS} = 0$"
       word-spacing="normal"
       letter-spacing="normal"
       font-size-adjust="none"
       font-stretch="normal"
       font-weight="normal"
       font-variant="normal"
       font-style="normal"
       stroke-miterlimit="10.433"
       xml:space="preserve"
       transform="matrix(1.6189307,0,0,-1.6189307,-91.008334,1821.0404)"
       id="content"
       style="font-style:normal;font-variant:normal;font-weight:normal;font-stretch:normal;letter-spacing:normal;word-spacing:normal;text-anchor:start;fill:none;stroke:#000000;stroke-linecap:butt;stroke-linejoin:miter;stroke-miterlimit:10.43299961;stroke-opacity:1;stroke-dasharray:none;stroke-dashoffset:0"><path
         id="path10758"
         d="m 229.68,662.89 0.05,0.07 0.04,0.06 0.05,0.07 0.04,0.05 0.04,0.06 0.05,0.05 0.04,0.05 0.04,0.04 0.05,0.04 0.04,0.04 0.04,0.03 0.04,0.03 0.04,0.03 0.04,0.03 0.04,0.02 0.04,0.02 0.04,0.02 0.04,0.02 0.04,0.01 0.04,0.02 0.04,0.01 0.03,0.01 0.04,0.01 0.04,0 0.03,0.01 0.04,0 0.07,0.01 0.07,0.01 0.07,0 c 0.12,0.01 0.13,0.18 0.13,0.19 0,0.08 -0.05,0.12 -0.13,0.12 -0.25,0 -0.54,-0.03 -0.81,-0.03 -0.33,0 -0.67,0.03 -0.99,0.03 -0.06,0 -0.19,0 -0.19,-0.19 0,-0.11 0.09,-0.12 0.16,-0.12 0.27,-0.02 0.46,-0.12 0.46,-0.33 0,-0.15 -0.15,-0.36 -0.15,-0.37 l -3.05,-4.85 -0.68,5.25 c 0,0.17 0.23,0.3 0.69,0.3 0.14,0 0.25,0 0.25,0.2 0,0.09 -0.08,0.11 -0.14,0.11 -0.4,0 -0.83,-0.03 -1.24,-0.03 -0.18,0 -0.36,0.01 -0.55,0.01 -0.17,0 -0.36,0.02 -0.53,0.02 -0.07,0 -0.19,0 -0.19,-0.19 0,-0.12 0.09,-0.12 0.25,-0.12 0.55,0 0.56,-0.09 0.6,-0.34 l 0.78,-6.13 c 0.03,-0.19 0.07,-0.22 0.2,-0.22 0.16,0 0.2,0.05 0.28,0.18 z"
         inkscape:connector-curvature="0"
         style="fill:#000000;stroke-width:0" /><path
         id="path10760"
         d="m 235.12,660.54 -0.01,0 0,0.01 0,0 0,0 0,0.01 0,0 0,0 0,0.01 0,0 0,0.01 0,0 -0.01,0 0,0.01 0,0 0,0 0,0.01 -0.01,0 0,0 0,0.01 -0.01,0 0,0 0,0.01 -0.01,0 0,0 -0.01,0 0,0 -0.01,0.01 0,0 0,0 -0.01,0 0,0 0,0 -0.01,0 0,0 0,0 -0.01,0 c -0.04,0 -0.06,-0.02 -0.12,-0.08 l -0.51,-0.54 c -0.06,0.08 -0.45,0.62 -1.31,0.62 -1.69,0 -3.35,-1.5 -3.35,-3.07 0,-1.08 0.82,-1.96 2.16,-1.96 0.61,0 1.26,0.16 1.62,0.55 0.07,-0.15 0.26,-0.4 0.34,-0.4 0.07,0 0.08,0.03 0.12,0.17 l 0.13,0.54 c 0.03,0.12 0.13,0.54 0.15,0.62 0.09,0.32 0.09,0.32 0.5,0.33 0.05,0 0.16,0 0.16,0.15 0,0.06 -0.05,0.1 -0.11,0.1 -0.23,0 -0.52,-0.03 -0.76,-0.03 -0.18,0 -0.41,0 -0.58,0.01 -0.18,0.01 -0.38,0.02 -0.55,0.02 -0.05,0 -0.16,0 -0.16,-0.15 0,-0.1 0.08,-0.1 0.26,-0.1 0.13,0 0.27,0 0.4,-0.01 0.22,-0.02 0.23,-0.05 0.23,-0.14 0,-0.02 0,-0.04 -0.05,-0.22 -0.05,-0.19 -0.13,-0.51 -0.15,-0.58 -0.2,-0.42 -0.85,-0.61 -1.4,-0.61 -0.69,0 -1.61,0.34 -1.61,1.51 0,0.74 0.35,1.68 0.87,2.2 0.72,0.71 1.46,0.82 1.85,0.82 0.81,0 1.28,-0.59 1.28,-1.36 0,-0.2 -0.02,-0.25 -0.02,-0.29 0,-0.09 0.09,-0.09 0.13,-0.09 0.11,0 0.11,0.02 0.14,0.15 z"
         inkscape:connector-curvature="0"
         style="fill:#000000;stroke-width:0" /><path
         id="path10762"
         d="m 240.39,660.54 0,0 0,0.01 0,0 0,0 0,0.01 0,0 0,0 0,0.01 0,0 -0.01,0.01 0,0 0,0 0,0.01 0,0 -0.01,0 0,0.01 0,0 0,0 -0.01,0.01 0,0 0,0 -0.01,0.01 0,0 -0.01,0 0,0 -0.01,0 0,0.01 -0.01,0 0,0 0,0 0,0 -0.01,0 0,0 0,0 -0.01,0 0,0 c -0.04,0 -0.05,-0.01 -0.14,-0.1 l -0.34,-0.39 c -0.26,0.36 -0.7,0.49 -1.13,0.49 -0.98,0 -1.85,-0.79 -1.85,-1.59 0,-0.11 0.02,-0.38 0.23,-0.64 0.24,-0.28 0.49,-0.34 0.97,-0.45 0.14,-0.04 0.48,-0.12 0.59,-0.14 0.22,-0.06 0.65,-0.21 0.65,-0.73 0,-0.57 -0.6,-1.23 -1.39,-1.23 -0.61,0 -1.35,0.22 -1.35,0.99 0,0.07 0.01,0.22 0.04,0.35 0.01,0.03 0.01,0.03 0.01,0.04 0,0.09 -0.08,0.09 -0.11,0.09 -0.1,0 -0.11,-0.01 -0.13,-0.14 l -0.36,-1.39 c -0.01,-0.03 -0.02,-0.07 -0.02,-0.11 0,-0.04 0.03,-0.08 0.1,-0.08 0.04,0 0.05,0.01 0.14,0.1 0.07,0.08 0.25,0.31 0.33,0.39 0.37,-0.41 0.91,-0.49 1.33,-0.49 1.05,0 1.9,0.91 1.9,1.73 0,0.3 -0.12,0.58 -0.28,0.74 -0.24,0.25 -0.34,0.28 -1.24,0.49 -0.15,0.03 -0.38,0.09 -0.44,0.11 -0.18,0.06 -0.47,0.24 -0.47,0.63 0,0.55 0.62,1.11 1.34,1.11 0.76,0 1.12,-0.43 1.12,-1.09 0,-0.09 -0.03,-0.25 -0.03,-0.31 0,-0.1 0.08,-0.1 0.12,-0.1 0.1,0 0.11,0.04 0.14,0.16 z"
         inkscape:connector-curvature="0"
         style="fill:#000000;stroke-width:0" /><path
         id="path10764"
         d="m 250.82,660.48 0.03,0 0.03,0 0.03,0 0.01,0.01 0.02,0 0.01,0 0.01,0 0.02,0 0.01,0 0.02,0.01 0.01,0 0.01,0 0.01,0.01 0.02,0 0.01,0.01 0.01,0 0.01,0.01 0.01,0.01 0.01,0.01 0.01,0.01 0.01,0.01 0,0 0,0.01 0.01,0 0,0.01 0,0.01 0.01,0 0,0.01 0,0.01 0,0 0,0.01 0,0.01 0.01,0.01 0,0.01 0,0 0,0.01 0,0.01 c 0,0.2 -0.19,0.2 -0.33,0.2 h -5.96 c -0.14,0 -0.33,0 -0.33,-0.2 0,-0.2 0.19,-0.2 0.34,-0.2 z"
         inkscape:connector-curvature="0"
         style="fill:#000000;stroke-width:0" /><path
         id="path10766"
         d="m 250.83,658.56 0.01,0 0.02,0 0.02,0 0.03,0 0.02,0 0.01,0 0.01,0 0.02,0 0.01,0 0.01,0.01 0.02,0 0.01,0 0.01,0.01 0.02,0 0.01,0.01 0.01,0 0.01,0.01 0.01,0 0.01,0.01 0.01,0.01 0.01,0.01 0,0 0.01,0.01 0,0.01 0,0 0.01,0.01 0,0 0,0.01 0.01,0.01 0,0 0,0.01 0,0.01 0,0 0,0.01 0.01,0.01 0,0.01 0,0.01 0,0.01 0,0.01 c 0,0.19 -0.19,0.19 -0.34,0.19 h -5.94 c -0.15,0 -0.34,0 -0.34,-0.19 0,-0.2 0.19,-0.2 0.33,-0.2 z"
         inkscape:connector-curvature="0"
         style="fill:#000000;stroke-width:0" /><path
         id="path10768"
         d="m 259.08,660.41 0,0.15 0,0.15 -0.01,0.15 0,0.15 -0.01,0.15 -0.01,0.14 -0.02,0.15 -0.02,0.15 -0.02,0.14 -0.03,0.15 -0.03,0.14 -0.04,0.15 -0.04,0.14 -0.05,0.14 -0.06,0.14 -0.03,0.07 -0.03,0.07 c -0.45,0.95 -1.27,1.11 -1.69,1.11 -0.6,0 -1.32,-0.26 -1.73,-1.18 -0.32,-0.69 -0.37,-1.46 -0.37,-2.26 0,-0.74 0.04,-1.63 0.45,-2.39 0.43,-0.8 1.15,-1 1.64,-1 v 0.21 c -0.39,0 -0.97,0.25 -1.15,1.21 -0.11,0.59 -0.11,1.51 -0.11,2.09 0,0.64 0,1.29 0.08,1.83 0.19,1.18 0.93,1.27 1.18,1.27 0.33,0 0.99,-0.18 1.17,-1.16 0.1,-0.56 0.1,-1.31 0.1,-1.94 0,-0.74 0,-1.42 -0.11,-2.05 -0.14,-0.95 -0.71,-1.25 -1.16,-1.25 h 0 v -0.21 c 0.54,0 1.29,0.2 1.73,1.15 0.32,0.68 0.37,1.46 0.37,2.24 z"
         inkscape:connector-curvature="0"
         style="fill:#000000;stroke-width:0" /></g>    <g
       id="g10871"
       transform="matrix(1.6189307,0,0,-1.6189307,48.512472,1994.5573)"
       xml:space="preserve"
       stroke-miterlimit="10.433"
       font-style="normal"
       font-variant="normal"
       font-weight="normal"
       font-stretch="normal"
       font-size-adjust="none"
       letter-spacing="normal"
       word-spacing="normal"
       ns0:text="$V_{DS}$"
       ns0:preamble=""
       style="font-style:normal;font-variant:normal;font-weight:normal;font-stretch:normal;letter-spacing:normal;word-spacing:normal;text-anchor:start;fill:none;stroke:#000000;stroke-linecap:butt;stroke-linejoin:miter;stroke-miterlimit:10.43299961;stroke-opacity:1;stroke-dasharray:none;stroke-dashoffset:0"><path
         style="fill:#000000;stroke-width:0"
         inkscape:connector-curvature="0"
         d="m 229.68,662.89 0.05,0.07 0.04,0.06 0.05,0.07 0.04,0.05 0.04,0.06 0.05,0.05 0.04,0.05 0.04,0.04 0.05,0.04 0.04,0.04 0.04,0.03 0.04,0.03 0.04,0.03 0.04,0.03 0.04,0.02 0.04,0.02 0.04,0.02 0.04,0.02 0.04,0.01 0.04,0.02 0.04,0.01 0.03,0.01 0.04,0.01 0.04,0 0.03,0.01 0.04,0 0.07,0.01 0.07,0.01 0.07,0 c 0.12,0.01 0.13,0.18 0.13,0.19 0,0.08 -0.05,0.12 -0.13,0.12 -0.25,0 -0.54,-0.03 -0.81,-0.03 -0.33,0 -0.67,0.03 -0.99,0.03 -0.06,0 -0.19,0 -0.19,-0.19 0,-0.11 0.09,-0.12 0.16,-0.12 0.27,-0.02 0.46,-0.12 0.46,-0.33 0,-0.15 -0.15,-0.36 -0.15,-0.37 l -3.05,-4.85 -0.68,5.25 c 0,0.17 0.23,0.3 0.69,0.3 0.14,0 0.25,0 0.25,0.2 0,0.09 -0.08,0.11 -0.14,0.11 -0.4,0 -0.83,-0.03 -1.24,-0.03 -0.18,0 -0.36,0.01 -0.55,0.01 -0.17,0 -0.36,0.02 -0.53,0.02 -0.07,0 -0.19,0 -0.19,-0.19 0,-0.12 0.09,-0.12 0.25,-0.12 0.55,0 0.56,-0.09 0.6,-0.34 l 0.78,-6.13 c 0.03,-0.19 0.07,-0.22 0.2,-0.22 0.16,0 0.2,0.05 0.28,0.18 z"
         id="path10873" /><path
         style="fill:#000000;stroke-width:0"
         inkscape:connector-curvature="0"
         d="m 230.56,656.28 -0.01,-0.02 0,-0.02 0,-0.02 -0.01,-0.02 0,-0.01 -0.01,-0.02 -0.01,-0.02 0,-0.01 -0.01,-0.02 -0.01,-0.01 -0.01,-0.01 0,-0.01 -0.02,-0.01 -0.01,-0.01 -0.01,-0.01 -0.01,-0.01 -0.02,-0.01 -0.02,-0.01 -0.01,0 -0.02,-0.01 -0.02,0 -0.01,0 -0.01,-0.01 -0.01,0 -0.01,0 -0.02,0 -0.01,0 -0.02,-0.01 -0.01,0 -0.02,0 -0.01,0 -0.02,0 -0.02,0 -0.01,0 -0.02,-0.01 -0.02,0 -0.02,0 -0.02,0 -0.02,0 -0.03,0 -0.02,0 -0.02,0 -0.03,0 -0.02,0 c -0.13,0 -0.21,0 -0.21,-0.15 0,-0.1 0.08,-0.1 0.21,-0.1 h 2.48 l -0.12,0.25 h -0.95 c -0.21,0 -0.22,0.01 -0.22,0.07 0,0.01 0,0.04 0.03,0.15 l 0.95,3.79 c 0.06,0.22 0.06,0.24 0.36,0.24 h 0.89 c 0.78,0 1.43,-0.39 1.43,-1.33 0,-0.17 -0.07,-1.37 -0.76,-2.16 -0.28,-0.31 -0.88,-0.76 -1.73,-0.76 l 0.12,-0.25 c 1.55,0 3.03,1.42 3.03,2.93 0,1.02 -0.7,1.82 -1.84,1.82 h -2.53 c -0.14,0 -0.22,0 -0.22,-0.15 0,-0.1 0.07,-0.1 0.23,-0.1 0.11,0 0.14,0 0.26,-0.01 0.14,-0.02 0.15,-0.03 0.15,-0.1 0,-0.02 0,-0.05 -0.02,-0.15 z"
         id="path10875" /><path
         style="fill:#000000;stroke-width:0"
         inkscape:connector-curvature="0"
         d="m 240.92,660.54 0,0 0,0.01 0,0 0,0 0,0.01 0,0 0,0 -0.01,0.01 0,0 0,0.01 0,0 0,0 0,0.01 -0.01,0 0,0 0,0.01 0,0 -0.01,0 0,0.01 0,0 -0.01,0 0,0.01 0,0 -0.01,0 0,0 -0.01,0 0,0.01 -0.01,0 0,0 0,0 -0.01,0 0,0 0,0 0,0 -0.01,0 0,0 c -0.04,0 -0.05,-0.01 -0.14,-0.1 l -0.34,-0.39 c -0.27,0.36 -0.7,0.49 -1.13,0.49 -0.98,0 -1.85,-0.79 -1.85,-1.59 0,-0.11 0.02,-0.38 0.23,-0.64 0.23,-0.28 0.49,-0.34 0.97,-0.45 0.14,-0.04 0.48,-0.12 0.59,-0.14 0.22,-0.06 0.64,-0.21 0.64,-0.73 0,-0.57 -0.59,-1.23 -1.38,-1.23 -0.61,0 -1.35,0.22 -1.35,0.99 0,0.07 0.01,0.22 0.04,0.35 0.01,0.03 0.01,0.03 0.01,0.04 0,0.09 -0.09,0.09 -0.11,0.09 -0.1,0 -0.11,-0.01 -0.14,-0.14 l -0.35,-1.39 c -0.01,-0.03 -0.02,-0.07 -0.02,-0.11 0,-0.04 0.02,-0.08 0.09,-0.08 0.05,0 0.05,0.01 0.14,0.1 0.08,0.08 0.26,0.31 0.34,0.39 0.37,-0.41 0.91,-0.49 1.33,-0.49 1.05,0 1.9,0.91 1.9,1.73 0,0.3 -0.13,0.58 -0.28,0.74 -0.24,0.25 -0.35,0.28 -1.25,0.49 -0.14,0.03 -0.37,0.09 -0.43,0.11 -0.18,0.06 -0.47,0.24 -0.47,0.63 0,0.55 0.62,1.11 1.34,1.11 0.75,0 1.12,-0.43 1.12,-1.09 0,-0.09 -0.03,-0.25 -0.03,-0.31 0,-0.1 0.08,-0.1 0.12,-0.1 0.1,0 0.11,0.04 0.14,0.16 z"
         id="path10877" /></g>    <g
       style="font-style:normal;font-variant:normal;font-weight:normal;font-stretch:normal;letter-spacing:normal;word-spacing:normal;text-anchor:start;fill:none;stroke:#000000;stroke-linecap:butt;stroke-linejoin:miter;stroke-miterlimit:10.43299961;stroke-opacity:1;stroke-dasharray:none;stroke-dashoffset:0"
       ns0:preamble=""
       ns0:text="$I_D$"
       word-spacing="normal"
       letter-spacing="normal"
       font-size-adjust="none"
       font-stretch="normal"
       font-weight="normal"
       font-variant="normal"
       font-style="normal"
       stroke-miterlimit="10.433"
       xml:space="preserve"
       transform="matrix(1.6189307,0,0,-1.6189307,-295.76819,1827.4154)"
       id="g10972"><path
         id="path10974"
         d="m 227.15,663.26 0.01,0.03 0.01,0.03 0.01,0.03 0.01,0.03 0,0.02 0.01,0.03 0.01,0.02 0.01,0.03 0.01,0.02 0.01,0.02 0.02,0.02 0.01,0.02 0.02,0.01 0.01,0.02 0.02,0.01 0.02,0.02 0.03,0.01 0.02,0.01 0.03,0.01 0.03,0.01 0.03,0.01 0.02,0 0.02,0.01 0.02,0 0.02,0 0.02,0.01 0.02,0 0.02,0 0.02,0.01 0.03,0 0.02,0 0.03,0 0.02,0 0.03,0.01 0.03,0 0.03,0 0.03,0 0.03,0 0.03,0 0.03,0 0.04,0 0.03,0 0.04,0 c 0.24,0 0.32,0 0.32,0.19 0,0.12 -0.11,0.12 -0.15,0.12 -0.29,0 -1.03,-0.03 -1.32,-0.03 -0.29,0 -1.02,0.03 -1.32,0.03 -0.07,0 -0.2,0 -0.2,-0.2 0,-0.11 0.09,-0.11 0.28,-0.11 0.42,0 0.69,0 0.69,-0.19 0,-0.05 0,-0.07 -0.02,-0.16 l -1.35,-5.35 c -0.09,-0.37 -0.11,-0.47 -0.9,-0.47 -0.23,0 -0.32,0 -0.32,-0.2 0,-0.11 0.12,-0.11 0.15,-0.11 0.29,0 1.01,0.04 1.3,0.04 0.3,0 1.04,-0.04 1.34,-0.04 0.08,0 0.2,0 0.2,0.19 0,0.12 -0.08,0.12 -0.3,0.12 -0.18,0 -0.23,0 -0.43,0.02 -0.21,0.02 -0.25,0.06 -0.25,0.17 0,0.08 0.02,0.16 0.04,0.23 z"
         inkscape:connector-curvature="0"
         style="fill:#000000;stroke-width:0" /><path
         id="path10976"
         d="m 229.13,656.28 -0.01,-0.02 0,-0.02 -0.01,-0.02 0,-0.02 -0.01,-0.01 0,-0.02 -0.01,-0.02 0,-0.01 -0.01,-0.02 -0.01,-0.01 -0.01,-0.01 -0.01,-0.01 -0.01,-0.01 -0.01,-0.01 -0.01,-0.01 -0.02,-0.01 -0.01,-0.01 -0.02,-0.01 -0.02,0 -0.02,-0.01 -0.01,0 -0.01,0 -0.01,-0.01 -0.01,0 -0.02,0 -0.01,0 -0.01,0 -0.02,-0.01 -0.01,0 -0.02,0 -0.01,0 -0.02,0 -0.02,0 -0.02,0 -0.02,-0.01 -0.01,0 -0.02,0 -0.03,0 -0.02,0 -0.02,0 -0.02,0 -0.03,0 -0.02,0 -0.03,0 c -0.12,0 -0.2,0 -0.2,-0.15 0,-0.1 0.08,-0.1 0.2,-0.1 H 231 l -0.12,0.25 h -0.95 c -0.22,0 -0.22,0.01 -0.22,0.07 0,0.01 0,0.04 0.02,0.15 l 0.96,3.79 c 0.05,0.22 0.06,0.24 0.35,0.24 h 0.89 c 0.78,0 1.44,-0.39 1.44,-1.33 0,-0.17 -0.07,-1.37 -0.77,-2.16 -0.27,-0.31 -0.87,-0.76 -1.72,-0.76 l 0.12,-0.25 c 1.55,0 3.03,1.42 3.03,2.93 0,1.02 -0.7,1.82 -1.84,1.82 h -2.53 c -0.14,0 -0.23,0 -0.23,-0.15 0,-0.1 0.08,-0.1 0.23,-0.1 0.12,0 0.14,0 0.27,-0.01 0.14,-0.02 0.15,-0.03 0.15,-0.1 0,-0.02 0,-0.05 -0.03,-0.15 z"
         inkscape:connector-curvature="0"
         style="fill:#000000;stroke-width:0" /></g>  </g>
</svg>
