<?xml version="1.0" encoding="UTF-8" standalone="no"?>
<!-- Created with Inkscape (http://www.inkscape.org/) -->

<svg
   xmlns:ns0="http://www.iki.fi/pav/software/textext/"
   xmlns:dc="http://purl.org/dc/elements/1.1/"
   xmlns:cc="http://creativecommons.org/ns#"
   xmlns:rdf="http://www.w3.org/1999/02/22-rdf-syntax-ns#"
   xmlns:svg="http://www.w3.org/2000/svg"
   xmlns="http://www.w3.org/2000/svg"
   xmlns:xlink="http://www.w3.org/1999/xlink"
   xmlns:sodipodi="http://sodipodi.sourceforge.net/DTD/sodipodi-0.dtd"
   xmlns:inkscape="http://www.inkscape.org/namespaces/inkscape"
   width="320.40445"
   height="221.21429"
   id="svg2"
   version="1.1"
   inkscape:version="0.48.4 r9939"
   sodipodi:docname="New document 24">
  <sodipodi:namedview
     id="base"
     pagecolor="#ffffff"
     bordercolor="#666666"
     borderopacity="1.0"
     inkscape:pageopacity="0.0"
     inkscape:pageshadow="2"
     inkscape:zoom="1.4"
     inkscape:cx="153.62996"
     inkscape:cy="119.32977"
     inkscape:document-units="px"
     inkscape:current-layer="layer1"
     showgrid="true"
     units="in"
     width="11cm"
     inkscape:window-width="1274"
     inkscape:window-height="540"
     inkscape:window-x="0"
     inkscape:window-y="424"
     inkscape:window-maximized="0"
     fit-margin-top="0"
     fit-margin-left="0"
     fit-margin-right="0"
     fit-margin-bottom="0">
    <inkscape:grid
       type="xygrid"
       id="grid2984"
       empspacing="5"
       visible="true"
       enabled="true"
       snapvisiblegridlinesonly="true"
       spacingx="2px"
       spacingy="2px"
       originx="-132.4393px"
       originy="-89.285706px" />
  </sodipodi:namedview>
  <defs
     id="defs4">
    <marker
       style="overflow:visible"
       id="Arrow2Mend"
       refX="0"
       refY="0"
       orient="auto"
       inkscape:stockid="Arrow2Mend">
      <path
         transform="scale(-0.6,-0.6)"
         d="M 8.7185878,4.0337352 -2.2072895,0.01601326 8.7185884,-4.0017078 c -1.7454984,2.3720609 -1.7354408,5.6174519 -6e-7,8.035443 z"
         style="fill-rule:evenodd;stroke-width:0.625;stroke-linejoin:round"
         id="path3966"
         inkscape:connector-curvature="0" />
    </marker>
  </defs>
  <metadata
     id="metadata7">
    <rdf:RDF>
      <cc:Work
         rdf:about="">
        <dc:format>image/svg+xml</dc:format>
        <dc:type
           rdf:resource="http://purl.org/dc/dcmitype/StillImage" />
        <dc:title></dc:title>
      </cc:Work>
    </rdf:RDF>
  </metadata>
  <g
     transform="translate(-69.410942,-765.54724)"
     id="layer1"
     inkscape:groupmode="layer"
     inkscape:label="Layer 1">
    <path
       style="fill:none;stroke:#000000;stroke-width:1px;stroke-linecap:butt;stroke-linejoin:miter;stroke-opacity:1"
       d="m 180,100.53571 0,180 210,0"
       id="path7070"
       inkscape:connector-curvature="0"
       transform="translate(-63.028358,665.51153)" />
    <path
       style="fill:none;stroke:#000000;stroke-width:1px;stroke-linecap:butt;stroke-linejoin:miter;stroke-opacity:1"
       d="m 230,280.53571 0,-30 c 81.737,-12.21774 100.62564,-56.7553 120,-140"
       id="path7074"
       inkscape:connector-curvature="0"
       transform="translate(-63.028358,665.51153)"
       sodipodi:nodetypes="ccc" />
    <path
       style="fill:none;stroke:#000000;stroke-width:1px;stroke-linecap:butt;stroke-linejoin:miter;stroke-opacity:1"
       d="m 190,180.53571 c 82.38829,0.5125 104.52642,-31.97561 130,-70"
       id="path7076"
       inkscape:connector-curvature="0"
       transform="translate(-63.028358,665.51153)"
       sodipodi:nodetypes="cc" />
    <text
       xml:space="preserve"
       style="font-size:16px;font-style:normal;font-variant:normal;font-weight:500;font-stretch:normal;text-align:start;line-height:100%;letter-spacing:0px;word-spacing:0px;writing-mode:lr-tb;text-anchor:start;fill:#000000;fill-opacity:1;stroke:none;font-family:Rekha;-inkscape-font-specification:Rekha Medium"
       x="146.97165"
       y="816.04724"
       id="text7078"
       sodipodi:linespacing="100%"><tspan
         sodipodi:role="line"
         id="tspan7080"
         x="146.97165"
         y="816.04724">metal</tspan></text>
    <text
       xml:space="preserve"
       style="font-size:16px;font-style:normal;font-variant:normal;font-weight:500;font-stretch:normal;text-align:start;line-height:100%;letter-spacing:0px;word-spacing:0px;writing-mode:lr-tb;text-anchor:start;fill:#000000;fill-opacity:1;stroke:none;font-family:Rekha;-inkscape-font-specification:Rekha Medium"
       x="286.97165"
       y="856.04724"
       id="text7082"
       sodipodi:linespacing="100%"><tspan
         sodipodi:role="line"
         id="tspan7084"
         x="286.97165"
         y="856.04724">superconducting</tspan><tspan
         sodipodi:role="line"
         x="286.97165"
         y="872.04724"
         id="tspan7086">material</tspan></text>
    <text
       xml:space="preserve"
       style="font-size:16px;font-style:normal;font-variant:normal;font-weight:500;font-stretch:normal;text-align:start;line-height:100%;letter-spacing:0px;word-spacing:0px;writing-mode:lr-tb;text-anchor:start;fill:#000000;fill-opacity:1;stroke:none;font-family:Rekha;-inkscape-font-specification:Rekha Medium"
       x="177.14285"
       y="299.82141"
       id="text7088"
       sodipodi:linespacing="100%"
       transform="translate(-63.028358,665.51153)"><tspan
         sodipodi:role="line"
         id="tspan7090"
         x="177.14285"
         y="299.82141">0</tspan></text>
    <text
       xml:space="preserve"
       style="font-size:16px;font-style:normal;font-variant:normal;font-weight:500;font-stretch:normal;text-align:start;line-height:100%;letter-spacing:0px;word-spacing:0px;writing-mode:lr-tb;text-anchor:start;fill:#000000;fill-opacity:1;stroke:none;font-family:Rekha;-inkscape-font-specification:Rekha Medium"
       x="279.28571"
       y="321.25"
       id="text7092"
       sodipodi:linespacing="100%"
       transform="translate(-63.028358,665.51153)"><tspan
         sodipodi:role="line"
         id="tspan7094"
         x="279.28571"
         y="321.25">T</tspan></text>
    <g
       transform="matrix(1.5159469,0,0,1.5159469,-178.3216,763.95106)"
       ns0:text="$\\mathrm{T_c}$"
       ns0:preamble=""
       id="g7116">
      <defs
         id="defs7118">
        <g
           id="g7120">
          <symbol
             style="overflow:visible"
             overflow="visible"
             id="textext-71d868af-0">
            <path
               inkscape:connector-curvature="0"
               style="stroke:none"
               d=""
               id="path7123" />
          </symbol>
          <symbol
             style="overflow:visible"
             overflow="visible"
             id="textext-71d868af-1">
            <path
               inkscape:connector-curvature="0"
               style="stroke:none"
               d="m 6.640625,-6.75 -6.09375,0 -0.1875,2.25 0.25,0 C 0.75,-6.109375 0.890625,-6.4375 2.40625,-6.4375 c 0.171875,0 0.4375,0 0.53125,0.015625 0.21875,0.046875 0.21875,0.15625 0.21875,0.375 l 0,5.265625 c 0,0.328125 0,0.46875 -1.046875,0.46875 l -0.40625,0 0,0.3125 C 2.109375,-0.03125 3.125,-0.03125 3.59375,-0.03125 c 0.453125,0 1.484375,0 1.890625,0.03125 l 0,-0.3125 -0.40625,0 c -1.046875,0 -1.046875,-0.140625 -1.046875,-0.46875 l 0,-5.265625 c 0,-0.1875 0,-0.328125 0.1875,-0.375 0.109375,-0.015625 0.375,-0.015625 0.5625,-0.015625 1.515625,0 1.65625,0.328125 1.796875,1.9375 l 0.25,0 z m 0,0"
               id="path7126" />
          </symbol>
          <symbol
             style="overflow:visible"
             overflow="visible"
             id="textext-71d868af-2">
            <path
               inkscape:connector-curvature="0"
               style="stroke:none"
               d=""
               id="path7129" />
          </symbol>
          <symbol
             style="overflow:visible"
             overflow="visible"
             id="textext-71d868af-3">
            <path
               inkscape:connector-curvature="0"
               style="stroke:none"
               d="m 2.703125,-2.78125 c -0.125,0.0625 -0.1875,0.171875 -0.1875,0.3125 0,0.1875 0.125,0.328125 0.328125,0.328125 0.1875,0 0.328125,-0.125 0.328125,-0.34375 0,-0.625 -0.96875,-0.625 -1.15625,-0.625 -1.046875,0 -1.6875,0.796875 -1.6875,1.609375 0,0.875 0.734375,1.5625 1.65625,1.5625 1.03125,0 1.28125,-0.8125 1.28125,-0.90625 0,-0.078125 -0.09375,-0.078125 -0.125,-0.078125 -0.09375,0 -0.09375,0.015625 -0.125,0.125 C 2.859375,-0.375 2.484375,-0.15625 2.0625,-0.15625 c -0.484375,0 -1.109375,-0.359375 -1.109375,-1.359375 0,-0.875 0.4375,-1.375 1.078125,-1.375 0.09375,0 0.421875,0 0.671875,0.109375 z m 0,0"
               id="path7132" />
          </symbol>
        </g>
      </defs>
      <g
         id="textext-71d868af-4">
        <g
           style="fill:#000000;fill-opacity:1"
           id="g7135">
          <use
             height="410.53571"
             width="666.37817"
             xlink:href="#textext-71d868af-1"
             x="223.43201"
             y="134.765"
             id="use7137" />
        </g>
        <g
           style="fill:#000000;fill-opacity:1"
           id="g7139">
          <use
             height="410.53571"
             width="666.37817"
             xlink:href="#textext-71d868af-3"
             x="230.627"
             y="136.259"
             id="use7141" />
        </g>
      </g>
    </g>
    <g
       id="g7276"
       transform="matrix(2.0601646,0,0,2.0601646,-391.50738,584.43609)"
       ns0:preamble=""
       ns0:text="$\\rho$">
      <defs
         id="defs7278">
        <g
           id="g7280">
          <symbol
             id="textext-e8a94176-0"
             overflow="visible"
             style="overflow:visible">
            <path
               id="path7283"
               d=""
               style="stroke:none"
               inkscape:connector-curvature="0" />
          </symbol>
          <symbol
             id="textext-e8a94176-1"
             overflow="visible"
             style="overflow:visible">
            <path
               id="path7286"
               d="m 0.328125,1.71875 c -0.03125,0.125 -0.03125,0.140625 -0.03125,0.171875 0,0.140625 0.109375,0.265625 0.28125,0.265625 0.203125,0 0.328125,-0.1875 0.34375,-0.21875 0.0625,-0.078125 0.375,-1.421875 0.640625,-2.5 0.203125,0.40625 0.515625,0.671875 0.984375,0.671875 C 3.71875,0.109375 5,-1.296875 5,-2.78125 c 0,-1.0625 -0.65625,-1.625 -1.375,-1.625 -0.96875,0 -2.015625,1 -2.3125,2.21875 z m 2.21875,-1.828125 C 1.84375,-0.109375 1.6875,-0.90625 1.6875,-1 c 0,-0.03125 0.046875,-0.234375 0.078125,-0.359375 0.28125,-1.125 0.375,-1.484375 0.59375,-1.875 0.4375,-0.734375 0.9375,-0.953125 1.234375,-0.953125 0.375,0 0.6875,0.296875 0.6875,0.984375 0,0.546875 -0.28125,1.65625 -0.546875,2.140625 -0.328125,0.640625 -0.8125,0.953125 -1.1875,0.953125 z m 0,0"
               style="stroke:none"
               inkscape:connector-curvature="0" />
          </symbol>
        </g>
      </defs>
      <g
         id="textext-e8a94176-2">
        <g
           id="g7289"
           style="fill:#000000;fill-opacity:1">
          <use
             id="use7291"
             y="134.765"
             x="223.43201"
             xlink:href="#textext-e8a94176-1"
             width="666.37817"
             height="410.53571" />
        </g>
      </g>
    </g>
  </g>
</svg>
