<?xml version="1.0" encoding="UTF-8" standalone="no"?>
<!-- Created with Inkscape (http://www.inkscape.org/) -->

<svg
   xmlns:ns0="http://www.iki.fi/pav/software/textext/"
   xmlns:dc="http://purl.org/dc/elements/1.1/"
   xmlns:cc="http://creativecommons.org/ns#"
   xmlns:rdf="http://www.w3.org/1999/02/22-rdf-syntax-ns#"
   xmlns:svg="http://www.w3.org/2000/svg"
   xmlns="http://www.w3.org/2000/svg"
   xmlns:sodipodi="http://sodipodi.sourceforge.net/DTD/sodipodi-0.dtd"
   xmlns:inkscape="http://www.inkscape.org/namespaces/inkscape"
   width="221"
   height="164.41518"
   id="svg2"
   version="1.1"
   inkscape:version="0.48.4 r9939"
   sodipodi:docname="New document 77">
  <sodipodi:namedview
     id="base"
     pagecolor="#ffffff"
     bordercolor="#666666"
     borderopacity="1.0"
     inkscape:pageopacity="0.0"
     inkscape:pageshadow="2"
     inkscape:zoom="1.4"
     inkscape:cx="128.51598"
     inkscape:cy="126.31693"
     inkscape:document-units="px"
     inkscape:current-layer="layer1"
     showgrid="true"
     units="in"
     width="11cm"
     inkscape:window-width="1274"
     inkscape:window-height="522"
     inkscape:window-x="0"
     inkscape:window-y="442"
     inkscape:window-maximized="0"
     fit-margin-top="0"
     fit-margin-left="0"
     fit-margin-right="0"
     fit-margin-bottom="0"
     inkscape:snap-grids="false">
    <inkscape:grid
       spacingy="2px"
       spacingx="2px"
       snapvisiblegridlinesonly="true"
       enabled="true"
       visible="true"
       empspacing="5"
       id="grid2984"
       type="xygrid"
       originx="-189.5px"
       originy="-139.5px" />
  </sodipodi:namedview>
  <defs
     id="defs4">
    <marker
       inkscape:stockid="Arrow2Lend"
       orient="auto"
       refY="0"
       refX="0"
       id="Arrow2Lend"
       style="overflow:visible">
      <path
         id="path3800"
         style="fill-rule:evenodd;stroke-width:0.625;stroke-linejoin:round"
         d="M 8.7185878,4.0337352 -2.2072895,0.01601326 8.7185884,-4.0017078 c -1.7454984,2.3720609 -1.7354408,5.6174519 -6e-7,8.035443 z"
         transform="matrix(-1.1,0,0,-1.1,-1.1,0)"
         inkscape:connector-curvature="0" />
    </marker>
    <marker
       inkscape:stockid="Arrow2Mend"
       orient="auto"
       refY="0"
       refX="0"
       id="Arrow2Mend"
       style="overflow:visible">
      <path
         inkscape:connector-curvature="0"
         id="path3966"
         style="fill-rule:evenodd;stroke-width:0.625;stroke-linejoin:round"
         d="M 8.7185878,4.0337352 -2.2072895,0.01601326 8.7185884,-4.0017078 c -1.7454984,2.3720609 -1.7354408,5.6174519 -6e-7,8.035443 z"
         transform="scale(-0.6,-0.6)" />
    </marker>
  </defs>
  <metadata
     id="metadata7">
    <rdf:RDF>
      <cc:Work
         rdf:about="">
        <dc:format>image/svg+xml</dc:format>
        <dc:type
           rdf:resource="http://purl.org/dc/dcmitype/StillImage" />
        <dc:title></dc:title>
      </cc:Work>
    </rdf:RDF>
  </metadata>
  <g
     inkscape:label="Layer 1"
     inkscape:groupmode="layer"
     id="layer1"
     transform="translate(-126.47164,-772.13206)">
    <path
       sodipodi:open="true"
       sodipodi:end="9.3835485"
       sodipodi:start="3.1009386"
       transform="translate(-63.028358,665.51153)"
       d="m 240.04958,192.97428 c -1.34679,-33.10971 24.40214,-61.04221 57.51185,-62.389 33.1097,-1.34678 61.04221,24.40215 62.38899,57.51185 1.34679,33.10971 -24.40214,61.04221 -57.51185,62.389 -33.09623,1.34624 -61.0223,-24.3819 -62.38758,-57.47736"
       sodipodi:ry="60"
       sodipodi:rx="60"
       sodipodi:cy="190.53571"
       sodipodi:cx="300"
       id="path16944"
       style="fill:none;stroke:#000000;stroke-width:1;stroke-miterlimit:4;stroke-opacity:1;stroke-dasharray:none;stroke-dashoffset:0"
       sodipodi:type="arc" />
    <path
       transform="translate(-63.028358,665.51153)"
       inkscape:connector-curvature="0"
       id="path17460"
       d="m 300,110.53571 0,160"
       style="fill:none;stroke:#000000;stroke-width:1px;stroke-linecap:butt;stroke-linejoin:miter;stroke-opacity:1" />
    <path
       sodipodi:nodetypes="cc"
       transform="translate(-63.028358,665.51153)"
       inkscape:connector-curvature="0"
       id="path17462"
       d="m 190,190.53571 220,0"
       style="fill:none;stroke:#000000;stroke-width:1px;stroke-linecap:butt;stroke-linejoin:miter;stroke-opacity:1" />
    <path
       transform="translate(-63.028358,665.51153)"
       inkscape:connector-curvature="0"
       id="path17464"
       d="m 300,190.53571 42.14286,-41.42857"
       style="fill:none;stroke:#000000;stroke-width:1px;stroke-linecap:butt;stroke-linejoin:miter;stroke-opacity:1;marker-end:url(#Arrow2Lend)"
       sodipodi:nodetypes="cc" />
    <text
       transform="translate(-63.028358,665.51153)"
       sodipodi:linespacing="100%"
       id="text17466"
       y="116.96428"
       x="310.71429"
       style="font-size:16px;font-style:normal;font-variant:normal;font-weight:500;font-stretch:normal;text-align:start;line-height:100%;letter-spacing:0px;word-spacing:0px;writing-mode:lr-tb;text-anchor:start;fill:#000000;fill-opacity:1;stroke:none;font-family:Rekha;-inkscape-font-specification:Rekha Medium"
       xml:space="preserve"><tspan
         y="116.96428"
         x="310.71429"
         id="tspan17468"
         sodipodi:role="line">K</tspan></text>
    <g
       ns0:preamble=""
       ns0:text="$\\mathrm{K_{???}}$"
       word-spacing="normal"
       letter-spacing="normal"
       font-size-adjust="none"
       font-stretch="normal"
       font-weight="normal"
       font-variant="normal"
       font-style="normal"
       stroke-miterlimit="10.433"
       xml:space="preserve"
       transform="matrix(1.5503691,0,0,-1.5503691,-59.579166,1829.0276)"
       id="content"
       style="font-style:normal;font-variant:normal;font-weight:normal;font-stretch:normal;letter-spacing:normal;word-spacing:normal;text-anchor:start;fill:none;stroke:#000000;stroke-linecap:butt;stroke-linejoin:miter;stroke-miterlimit:10.43299961;stroke-opacity:1;stroke-dasharray:none;stroke-dashoffset:0"><path
         id="path17485"
         d="m 227.41,661.4 1.79,1.72 c 0.08,0.08 0.61,0.58 1.42,0.59 v 0.31 c -0.26,-0.03 -0.58,-0.03 -0.85,-0.03 -0.36,0 -0.93,0 -1.26,0.03 v -0.31 c 0.39,-0.01 0.45,-0.24 0.45,-0.33 0,-0.16 -0.1,-0.25 -0.17,-0.32 l -3.12,-2.97 v 3.15 c 0,0.36 0.02,0.47 0.79,0.47 h 0.24 v 0.31 c -0.35,-0.03 -1.09,-0.03 -1.47,-0.03 -0.38,0 -1.12,0 -1.47,0.03 v -0.31 H 224 c 0.76,0 0.79,-0.11 0.79,-0.47 v -5.23 c 0,-0.36 -0.03,-0.47 -0.79,-0.47 h -0.24 v -0.31 c 0.35,0.04 1.09,0.04 1.46,0.04 0.38,0 1.13,0 1.48,-0.04 v 0.31 h -0.24 c -0.77,0 -0.79,0.11 -0.79,0.47 v 1.74 l 1.15,1.09 1.81,-2.66 c 0.05,-0.09 0.14,-0.22 0.14,-0.34 0,-0.3 -0.38,-0.3 -0.58,-0.3 v -0.31 c 0.35,0.04 1.04,0.04 1.42,0.04 0.35,0 0.73,-0.01 1.15,-0.04 v 0.31 c -0.54,0 -0.75,0.04 -1.05,0.48 z"
         inkscape:connector-curvature="0"
         style="fill:#000000;stroke-width:0" /><path
         id="path17487"
         d="m 233.07,657.52 0,0.06 0,0.05 0.01,0.06 0.01,0.06 0.01,0.05 0.01,0.05 0.01,0.06 0.02,0.05 0.02,0.05 0.02,0.05 0.02,0.05 0.03,0.05 0.02,0.05 0.03,0.05 0.03,0.05 0.03,0.04 0.03,0.05 0.03,0.05 0.04,0.04 0.04,0.04 0.03,0.04 0.04,0.05 0.04,0.04 0.05,0.04 0.04,0.03 0.04,0.04 0.05,0.04 0.04,0.03 0.05,0.04 0.05,0.03 0.04,0.03 0.05,0.03 c 0.13,0.09 0.44,0.3 0.44,0.73 0,0.37 -0.27,0.94 -1.45,0.94 -0.86,0 -1.32,-0.46 -1.32,-0.93 0,-0.28 0.23,-0.35 0.33,-0.35 0.13,0 0.33,0.1 0.33,0.34 0,0.04 0,0.3 -0.33,0.32 0.13,0.2 0.45,0.42 0.96,0.42 0.8,0 0.85,-0.4 0.85,-0.72 0,-0.36 -0.14,-0.5 -0.25,-0.6 -0.47,-0.42 -0.73,-1.03 -0.73,-1.56 v -0.3 c 0,-0.14 0,-0.17 0.12,-0.17 0.12,0 0.12,0.05 0.12,0.19 z"
         inkscape:connector-curvature="0"
         style="fill:#000000;stroke-width:0" /><path
         id="path17489"
         d="m 233.35,656.14 0,0.02 -0.01,0.02 0,0.02 0,0.02 -0.01,0.02 0,0.02 -0.01,0.02 -0.01,0.02 -0.01,0.02 0,0.02 -0.01,0.02 -0.02,0.01 -0.01,0.02 -0.01,0.01 -0.01,0.02 -0.02,0.01 -0.01,0.01 -0.01,0.02 -0.02,0.01 -0.02,0.01 -0.01,0.01 -0.02,0.01 -0.02,0 -0.01,0.01 -0.02,0.01 -0.02,0 -0.02,0.01 -0.01,0 -0.02,0.01 -0.02,0 -0.02,0 -0.02,0 c -0.24,0 -0.4,-0.19 -0.4,-0.4 0,-0.24 0.19,-0.4 0.39,-0.4 0.25,0 0.41,0.2 0.41,0.4 z"
         inkscape:connector-curvature="0"
         style="fill:#000000;stroke-width:0" /><path
         id="path17491"
         d="m 236.82,657.52 0.01,0.06 0,0.05 0.01,0.06 0,0.06 0.01,0.05 0.02,0.05 0.01,0.06 0.02,0.05 0.02,0.05 0.02,0.05 0.02,0.05 0.02,0.05 0.03,0.05 0.03,0.05 0.03,0.05 0.03,0.04 0.03,0.05 0.03,0.05 0.04,0.04 0.03,0.04 0.04,0.04 0.04,0.05 0.04,0.04 0.04,0.04 0.04,0.03 0.05,0.04 0.04,0.04 0.05,0.03 0.04,0.04 0.05,0.03 0.05,0.03 0.05,0.03 c 0.13,0.09 0.44,0.3 0.44,0.73 0,0.37 -0.27,0.94 -1.46,0.94 -0.86,0 -1.31,-0.46 -1.31,-0.93 0,-0.28 0.22,-0.35 0.33,-0.35 0.13,0 0.33,0.1 0.33,0.34 0,0.04 0,0.3 -0.33,0.32 0.12,0.2 0.45,0.42 0.96,0.42 0.79,0 0.84,-0.4 0.84,-0.72 0,-0.36 -0.14,-0.5 -0.25,-0.6 -0.46,-0.42 -0.72,-1.03 -0.72,-1.56 v -0.3 c 0,-0.14 0,-0.17 0.12,-0.17 0.11,0 0.11,0.05 0.11,0.19 z"
         inkscape:connector-curvature="0"
         style="fill:#000000;stroke-width:0" /><path
         id="path17493"
         d="m 237.1,656.14 0,0.02 0,0.02 0,0.02 0,0.02 -0.01,0.02 -0.01,0.02 0,0.02 -0.01,0.02 -0.01,0.02 -0.01,0.02 -0.01,0.02 -0.01,0.01 -0.01,0.02 -0.01,0.01 -0.02,0.02 -0.01,0.01 -0.01,0.01 -0.02,0.02 -0.01,0.01 -0.02,0.01 -0.01,0.01 -0.02,0.01 -0.02,0 -0.02,0.01 -0.01,0.01 -0.02,0 -0.02,0.01 -0.02,0 -0.02,0.01 -0.02,0 -0.01,0 -0.02,0 c -0.25,0 -0.41,-0.19 -0.41,-0.4 0,-0.24 0.2,-0.4 0.4,-0.4 0.24,0 0.4,0.2 0.4,0.4 z"
         inkscape:connector-curvature="0"
         style="fill:#000000;stroke-width:0" /><path
         id="path17495"
         d="m 240.58,657.52 0,0.06 0.01,0.05 0,0.06 0.01,0.06 0.01,0.05 0.01,0.05 0.02,0.06 0.01,0.05 0.02,0.05 0.02,0.05 0.03,0.05 0.02,0.05 0.03,0.05 0.02,0.05 0.03,0.05 0.03,0.04 0.04,0.05 0.03,0.05 0.03,0.04 0.04,0.04 0.04,0.04 0.04,0.05 0.04,0.04 0.04,0.04 0.04,0.03 0.05,0.04 0.04,0.04 0.05,0.03 0.04,0.04 0.05,0.03 0.05,0.03 0.04,0.03 c 0.14,0.09 0.44,0.3 0.44,0.73 0,0.37 -0.27,0.94 -1.45,0.94 -0.86,0 -1.32,-0.46 -1.32,-0.93 0,-0.28 0.23,-0.35 0.34,-0.35 0.13,0 0.32,0.1 0.32,0.34 0,0.04 0,0.3 -0.32,0.32 0.12,0.2 0.44,0.42 0.96,0.42 0.79,0 0.84,-0.4 0.84,-0.72 0,-0.36 -0.14,-0.5 -0.25,-0.6 -0.47,-0.42 -0.72,-1.03 -0.72,-1.56 v -0.3 c 0,-0.14 0,-0.17 0.11,-0.17 0.12,0 0.12,0.05 0.12,0.19 z"
         inkscape:connector-curvature="0"
         style="fill:#000000;stroke-width:0" /><path
         id="path17497"
         d="m 240.86,656.14 0,0.02 0,0.02 0,0.02 -0.01,0.02 0,0.02 -0.01,0.02 -0.01,0.02 0,0.02 -0.01,0.02 -0.01,0.02 -0.01,0.02 -0.01,0.01 -0.01,0.02 -0.02,0.01 -0.01,0.02 -0.01,0.01 -0.02,0.01 -0.01,0.02 -0.02,0.01 -0.01,0.01 -0.02,0.01 -0.01,0.01 -0.02,0 -0.02,0.01 -0.02,0.01 -0.01,0 -0.02,0.01 -0.02,0 -0.02,0.01 -0.02,0 -0.02,0 -0.02,0 c -0.24,0 -0.4,-0.19 -0.4,-0.4 0,-0.24 0.2,-0.4 0.4,-0.4 0.24,0 0.4,0.2 0.4,0.4 z"
         inkscape:connector-curvature="0"
         style="fill:#000000;stroke-width:0" /></g>  </g>
</svg>
