<?xml version="1.0" encoding="UTF-8" standalone="no"?>
<!-- Created with Inkscape (http://www.inkscape.org/) -->

<svg
   xmlns:ns0="http://www.iki.fi/pav/software/textext/"
   xmlns:dc="http://purl.org/dc/elements/1.1/"
   xmlns:cc="http://creativecommons.org/ns#"
   xmlns:rdf="http://www.w3.org/1999/02/22-rdf-syntax-ns#"
   xmlns:svg="http://www.w3.org/2000/svg"
   xmlns="http://www.w3.org/2000/svg"
   xmlns:sodipodi="http://sodipodi.sourceforge.net/DTD/sodipodi-0.dtd"
   xmlns:inkscape="http://www.inkscape.org/namespaces/inkscape"
   width="308.25122"
   height="218.52008"
   id="svg2"
   version="1.1"
   inkscape:version="0.48.4 r9939"
   sodipodi:docname="New document 59">
  <sodipodi:namedview
     id="base"
     pagecolor="#ffffff"
     bordercolor="#666666"
     borderopacity="1.0"
     inkscape:pageopacity="0.0"
     inkscape:pageshadow="2"
     inkscape:zoom="1.4"
     inkscape:cx="225.85498"
     inkscape:cy="80.65348"
     inkscape:document-units="px"
     inkscape:current-layer="layer1"
     showgrid="true"
     units="in"
     width="11cm"
     inkscape:window-width="1274"
     inkscape:window-height="538"
     inkscape:window-x="0"
     inkscape:window-y="426"
     inkscape:window-maximized="0"
     fit-margin-top="0"
     fit-margin-left="0"
     fit-margin-right="0"
     fit-margin-bottom="0"
     inkscape:snap-grids="false">
    <inkscape:grid
       type="xygrid"
       id="grid2984"
       empspacing="5"
       visible="true"
       enabled="true"
       snapvisiblegridlinesonly="true"
       spacingx="2px"
       spacingy="2px"
       originx="-60.214281px"
       originy="-91.979912px" />
  </sodipodi:namedview>
  <defs
     id="defs4">
    <marker
       inkscape:stockid="Arrow2Lend"
       orient="auto"
       refY="0"
       refX="0"
       id="Arrow2Lend"
       style="overflow:visible">
      <path
         id="path4007"
         style="fill-rule:evenodd;stroke-width:0.625;stroke-linejoin:round"
         d="M 8.7185878,4.0337352 -2.2072895,0.01601326 8.7185884,-4.0017078 c -1.7454984,2.3720609 -1.7354408,5.6174519 -6e-7,8.035443 z"
         transform="matrix(-1.1,0,0,-1.1,-1.1,0)"
         inkscape:connector-curvature="0" />
    </marker>
    <marker
       inkscape:stockid="Arrow2Lstart"
       orient="auto"
       refY="0"
       refX="0"
       id="Arrow2Lstart"
       style="overflow:visible">
      <path
         id="path4004"
         style="fill-rule:evenodd;stroke-width:0.625;stroke-linejoin:round"
         d="M 8.7185878,4.0337352 -2.2072895,0.01601326 8.7185884,-4.0017078 c -1.7454984,2.3720609 -1.7354408,5.6174519 -6e-7,8.035443 z"
         transform="matrix(1.1,0,0,1.1,1.1,0)"
         inkscape:connector-curvature="0" />
    </marker>
    <marker
       style="overflow:visible"
       id="Arrow2Mend"
       refX="0"
       refY="0"
       orient="auto"
       inkscape:stockid="Arrow2Mend">
      <path
         transform="scale(-0.6,-0.6)"
         d="M 8.7185878,4.0337352 -2.2072895,0.01601326 8.7185884,-4.0017078 c -1.7454984,2.3720609 -1.7354408,5.6174519 -6e-7,8.035443 z"
         style="fill-rule:evenodd;stroke-width:0.625;stroke-linejoin:round"
         id="path3966"
         inkscape:connector-curvature="0" />
    </marker>
  </defs>
  <metadata
     id="metadata7">
    <rdf:RDF>
      <cc:Work
         rdf:about="">
        <dc:format>image/svg+xml</dc:format>
        <dc:type
           rdf:resource="http://purl.org/dc/dcmitype/StillImage" />
        <dc:title></dc:title>
      </cc:Work>
    </rdf:RDF>
  </metadata>
  <g
     transform="translate(2.8140766,-765.54724)"
     id="layer1"
     inkscape:groupmode="layer"
     inkscape:label="Layer 1">
    <path
       style="fill:none;stroke:#000000;stroke-width:1px;stroke-linecap:butt;stroke-linejoin:miter;stroke-opacity:1"
       d="m 170,100.53571 0,150"
       id="path11759"
       inkscape:connector-curvature="0"
       transform="translate(-63.028358,665.51153)" />
    <path
       style="fill:none;stroke:#000000;stroke-width:1px;stroke-linecap:butt;stroke-linejoin:miter;stroke-opacity:1"
       d="m 210,100.53571 0,150"
       id="path11761"
       inkscape:connector-curvature="0"
       transform="translate(-63.028358,665.51153)" />
    <path
       style="fill:none;stroke:#000000;stroke-width:1px;stroke-linecap:butt;stroke-linejoin:miter;stroke-opacity:1;marker-end:url(#Arrow2Lend)"
       d="m -2.3140766,840.33296 c 0,0 10.7142939,-35 21.4285736,-18.57143 10.71429,16.42857 14.285713,31.42857 23.571434,14.99999 8.645006,-15.295 19.285711,-31.42856 29.285715,-8.57143 9.721539,22.22064 19.999998,16.42858 27.142855,-0.71428 12.605479,-36.08099 36.769849,65.72219 52.142849,42.14286 15,-27.14286 22.29696,-33.607 32.14286,-19.28571 7.85715,11.42856 11.42858,32.14285 21.42858,19.99999 10,-12.14286 19.31296,-36.28517 34.28572,-17.85714 9.2857,11.42857 10.70486,35.29716 21.42855,11.42857 9.84019,-21.90209 15.70649,-19.76726 27.85715,-6.42857 2.86239,3.14226 15.71428,2.14286 15.71428,2.14286"
       id="path11763"
       inkscape:connector-curvature="0"
       sodipodi:nodetypes="csssccsssssc" />
    <path
       style="fill:none;stroke:#000000;stroke-width:1px;stroke-linecap:butt;stroke-linejoin:miter;stroke-opacity:1;marker-start:url(#Arrow2Lstart)"
       d="M 190.71429,238.39285 C 189.14457,257.52783 187.06845,276.43262 165,286.24999"
       id="path11765"
       inkscape:connector-curvature="0"
       transform="translate(-63.028358,665.51153)"
       sodipodi:nodetypes="cc" />
    <text
       xml:space="preserve"
       style="font-size:16px;font-style:normal;font-variant:normal;font-weight:500;font-stretch:normal;text-align:start;line-height:100%;letter-spacing:0px;word-spacing:0px;writing-mode:lr-tb;text-anchor:start;fill:#000000;fill-opacity:1;stroke:none;font-family:Rekha;-inkscape-font-specification:Rekha Medium"
       x="29.828781"
       y="965.33295"
       id="text12655"
       sodipodi:linespacing="100%"><tspan
         sodipodi:role="line"
         id="tspan12657"
         x="29.828781"
         y="965.33295">insulating region</tspan><tspan
         sodipodi:role="line"
         x="29.828781"
         y="981.33295"
         id="tspan12659">  (barrier)</tspan></text>
    <g
       style="font-style:normal;font-variant:normal;font-weight:normal;font-stretch:normal;letter-spacing:normal;word-spacing:normal;text-anchor:start;fill:none;stroke:#000000;stroke-linecap:butt;stroke-linejoin:miter;stroke-miterlimit:10.43299961;stroke-opacity:1;stroke-dasharray:none;stroke-dashoffset:0"
       id="content"
       transform="matrix(1.6127163,0,0,-1.6127163,-346.46675,1865.681)"
       xml:space="preserve"
       stroke-miterlimit="10.433"
       font-style="normal"
       font-variant="normal"
       font-weight="normal"
       font-stretch="normal"
       font-size-adjust="none"
       letter-spacing="normal"
       word-spacing="normal"
       ns0:text="$e^{-iK_1X}$"
       ns0:preamble=""><path
         style="fill:#000000;stroke-width:0"
         inkscape:connector-curvature="0"
         d="m 225.29,659.53 0.03,0 0.03,0 0.03,0 0.04,0 0.04,0 0.04,0 0.04,0 0.04,0.01 0.05,0 0.04,0 0.05,0 0.05,0.01 0.05,0 0.05,0.01 0.11,0.01 0.1,0.01 0.11,0.01 0.11,0.02 0.11,0.02 0.1,0.03 0.06,0.01 0.05,0.02 0.05,0.01 0.05,0.02 0.05,0.02 0.05,0.02 c 0.69,0.3 0.74,0.88 0.74,1.02 0,0.44 -0.38,0.85 -1.06,0.85 v -0.22 c 0.46,0 0.73,-0.29 0.73,-0.63 0,-1.03 -1.59,-1.03 -2,-1.03 h -0.41 c 0.39,1.51 1.42,1.66 1.68,1.66 v 0.22 c -1.11,0 -2.61,-0.97 -2.61,-2.71 0,-1.01 0.59,-1.79 1.56,-1.79 1.42,0 2.26,1.05 2.26,1.17 0,0.06 -0.06,0.13 -0.12,0.13 -0.05,0 -0.07,-0.02 -0.13,-0.1 -0.78,-0.99 -1.87,-0.99 -1.99,-0.99 -0.77,0 -0.86,0.84 -0.86,1.16 0,0.12 0.01,0.42 0.15,1.03 z"
         id="path12681" /><path
         style="fill:#000000;stroke-width:0"
         inkscape:connector-curvature="0"
         d="m 233.25,662.42 0.01,0 0.01,0 0.02,0 0.01,0 0.02,0 0.01,0 0.01,0 0.01,0.01 0.02,0 0.01,0 0.01,0 0.01,0 0.01,0.01 0.01,0 0.01,0 0.01,0.01 0.01,0 0.01,0.01 0.01,0 0.01,0.01 0.01,0.01 0.01,0 0,0.01 0,0 0.01,0.01 0,0 0,0.01 0,0 0.01,0.01 0,0 0,0.01 0,0 0.01,0.01 0,0.01 0,0 0,0.01 0,0.01 0,0 0,0.01 0,0.01 c 0,0.17 -0.16,0.17 -0.28,0.17 h -4.15 c -0.11,0 -0.28,0 -0.28,-0.16 0,-0.18 0.16,-0.18 0.28,-0.18 z"
         id="path12683" /><path
         style="fill:#000000;stroke-width:0"
         inkscape:connector-curvature="0"
         d="m 236.55,665.2 0,0.01 0,0.01 0,0.01 0,0.01 0,0.01 0,0.01 -0.01,0.01 0,0.02 -0.01,0.01 0,0.01 -0.01,0.01 0,0.01 -0.01,0.01 -0.01,0.01 0,0.01 -0.01,0.01 -0.01,0.01 -0.01,0.01 -0.01,0.01 -0.01,0.01 -0.01,0 -0.01,0.01 -0.02,0.01 -0.01,0.01 -0.01,0 -0.02,0.01 -0.01,0 -0.02,0 -0.01,0.01 -0.02,0 -0.02,0 -0.01,0 c -0.19,0 -0.39,-0.18 -0.39,-0.38 0,-0.12 0.09,-0.26 0.27,-0.26 0.21,0 0.39,0.19 0.39,0.38 z"
         id="path12685" /><path
         style="fill:#000000;stroke-width:0"
         inkscape:connector-curvature="0"
         d="m 235.13,661.66 0,-0.01 -0.01,-0.02 -0.01,-0.03 0,-0.02 -0.01,-0.02 0,-0.01 -0.01,-0.02 0,-0.02 -0.01,-0.02 0,-0.02 0,-0.01 0,-0.01 -0.01,-0.01 0,-0.01 0,-0.01 0,-0.02 0,-0.01 0,-0.01 0,-0.01 c 0,-0.32 0.28,-0.59 0.66,-0.59 0.7,0 1.01,0.96 1.01,1.06 0,0.1 -0.09,0.1 -0.12,0.1 -0.09,0 -0.1,-0.05 -0.13,-0.12 -0.16,-0.56 -0.47,-0.84 -0.74,-0.84 -0.14,0 -0.17,0.09 -0.17,0.24 0,0.16 0.05,0.29 0.11,0.44 0.07,0.19 0.15,0.38 0.22,0.56 0.07,0.17 0.32,0.8 0.35,0.88 0.02,0.07 0.04,0.16 0.04,0.23 0,0.32 -0.28,0.59 -0.67,0.59 -0.68,0 -1.01,-0.95 -1.01,-1.07 0,-0.09 0.1,-0.09 0.12,-0.09 0.1,0 0.11,0.04 0.13,0.12 0.18,0.59 0.49,0.84 0.74,0.84 0.12,0 0.18,-0.05 0.18,-0.24 0,-0.16 -0.04,-0.26 -0.22,-0.7 z"
         id="path12687" /><path
         style="fill:#000000;stroke-width:0"
         inkscape:connector-curvature="0"
         d="m 241.1,663.65 0,0 0,0.01 -0.01,0 0,0.01 0,0 0,0 -0.01,0.01 0,0 0,0.01 0,0 0,0 0,0.01 -0.01,0 0,0 0,0 0,0.01 0,0 0,0 0,0 -0.01,0.01 0,0 0,0 0,0 0,0 0,0 0,0 0,0.01 0,0 0,0 0,0 0,0 0,0 c 0,0.01 0.01,0.02 0.17,0.13 l 0.7,0.5 c 0.92,0.64 1.35,0.95 1.84,0.99 0.08,0.01 0.16,0.01 0.16,0.15 0,0.06 -0.04,0.09 -0.09,0.09 -0.14,0 -0.32,-0.02 -0.48,-0.02 -0.18,0 -0.65,0.03 -0.84,0.03 -0.04,0 -0.14,0 -0.14,-0.15 0,-0.01 0,-0.09 0.1,-0.1 0.08,-0.01 0.17,-0.02 0.17,-0.1 0,-0.12 -0.21,-0.28 -0.3,-0.34 l -2.91,-2.04 0.55,2.19 c 0.07,0.23 0.07,0.29 0.62,0.29 0.11,0 0.21,0 0.21,0.15 0,0.06 -0.05,0.1 -0.12,0.1 -0.2,0 -0.71,-0.03 -0.91,-0.03 -0.12,0 -0.36,0 -0.48,0.01 -0.14,0.01 -0.31,0.02 -0.44,0.02 -0.04,0 -0.14,0 -0.14,-0.15 0,-0.1 0.07,-0.1 0.23,-0.1 0.11,0 0.14,0 0.26,-0.01 0.14,-0.02 0.15,-0.03 0.15,-0.1 0,-0.02 0,-0.05 -0.02,-0.15 l -0.93,-3.7 c -0.06,-0.23 -0.07,-0.29 -0.61,-0.29 -0.13,0 -0.21,0 -0.21,-0.15 0,-0.01 0,-0.1 0.11,-0.1 0.2,0 0.7,0.03 0.9,0.03 0.12,0 0.37,0 0.49,-0.01 0.13,-0.01 0.31,-0.02 0.44,-0.02 0.04,0 0.15,0 0.15,0.15 0,0.1 -0.09,0.1 -0.23,0.1 0,0 -0.14,0 -0.26,0.01 -0.16,0.02 -0.16,0.04 -0.16,0.11 0,0.06 0.07,0.31 0.33,1.33 l 1.15,0.82 1.01,-1.96 c 0.05,-0.09 0.05,-0.09 0.05,-0.13 0,-0.16 -0.19,-0.18 -0.32,-0.18 -0.08,0 -0.18,0 -0.18,-0.15 0,-0.01 0.01,-0.1 0.12,-0.1 0.19,0 0.69,0.03 0.89,0.03 0.21,0 0.49,-0.03 0.68,-0.03 0.09,0 0.14,0.05 0.14,0.15 0,0.1 -0.09,0.1 -0.16,0.1 -0.12,0 -0.34,0.01 -0.46,0.23 z"
         id="path12689" /><path
         style="fill:#000000;stroke-width:0"
         inkscape:connector-curvature="0"
         d="m 245.79,663.01 0,0.01 0,0.01 0,0 0,0.01 0,0.01 0,0 0,0.01 0,0 0,0.01 0,0 0,0.01 0,0 0,0.01 0,0 0,0.01 0,0 0,0 -0.01,0.01 0,0 0,0 0,0.01 0,0.01 -0.01,0 0,0.01 0,0 -0.01,0 0,0.01 -0.01,0 0,0 -0.01,0 -0.01,0.01 0,0 -0.01,0 -0.01,0 0,0 -0.01,0 0,0 -0.01,0 0,0 -0.01,0 0,0 -0.01,0 0,0 -0.01,0 -0.01,0 0,0 -0.01,0 -0.01,0 0,0 -0.01,0 -0.01,0 c -0.35,-0.32 -0.9,-0.32 -1,-0.32 h -0.09 v -0.21 h 0.09 c 0.11,0 0.43,0.01 0.72,0.14 v -2.49 c 0,-0.15 0,-0.21 -0.52,-0.21 h -0.25 v -0.22 c 0.27,0.02 0.71,0.02 1,0.02 0.29,0 0.73,0 1.01,-0.02 v 0.22 h -0.25 c -0.53,0 -0.53,0.06 -0.53,0.21 z"
         id="path12691" /><path
         style="fill:#000000;stroke-width:0"
         inkscape:connector-curvature="0"
         d="m 251.57,663.51 0.66,0.66 c 0.89,0.87 1.17,1.15 1.79,1.18 0.09,0.01 0.18,0.01 0.18,0.15 0,0.08 -0.08,0.1 -0.1,0.1 -0.2,0 -0.45,-0.03 -0.65,-0.03 -0.19,0 -0.63,0.03 -0.81,0.03 -0.06,0 -0.14,-0.02 -0.14,-0.15 0,-0.01 0,-0.09 0.1,-0.1 0.06,-0.01 0.24,-0.02 0.24,-0.17 0,-0.11 -0.11,-0.22 -0.18,-0.29 -0.05,-0.05 -0.93,-0.91 -1.19,-1.17 l -0.71,1.36 c -0.01,0.02 -0.03,0.07 -0.03,0.1 0,0.04 0.13,0.16 0.37,0.17 0.05,0 0.14,0.01 0.14,0.15 0,0.01 0,0.1 -0.11,0.1 -0.15,0 -0.33,-0.02 -0.47,-0.02 -0.15,0 -0.31,-0.01 -0.45,-0.01 -0.12,0 -0.29,0 -0.42,0.01 -0.11,0.01 -0.26,0.02 -0.37,0.02 -0.04,0 -0.15,0 -0.15,-0.15 0,-0.1 0.09,-0.1 0.21,-0.1 0.4,0 0.43,-0.07 0.5,-0.21 l 0.98,-1.92 -0.39,-0.39 c -0.13,-0.12 -0.46,-0.43 -0.59,-0.57 -0.85,-0.84 -1.13,-1.13 -1.76,-1.16 -0.1,-0.01 -0.17,-0.01 -0.17,-0.15 0,-0.03 0.02,-0.1 0.1,-0.1 0.2,0 0.43,0.03 0.64,0.03 0.12,0 0.3,0 0.41,-0.01 0.13,-0.01 0.28,-0.02 0.4,-0.02 0.03,0 0.15,0 0.15,0.15 0,0.09 -0.09,0.1 -0.13,0.1 -0.07,0.01 -0.22,0.03 -0.22,0.18 0,0.11 0.1,0.2 0.25,0.35 l 1.41,1.38 0.85,-1.64 c 0.03,-0.07 0.04,-0.09 0.04,-0.09 0,-0.05 -0.13,-0.16 -0.37,-0.18 -0.06,-0.01 -0.15,-0.01 -0.15,-0.15 0,-0.01 0,-0.1 0.11,-0.1 0.15,0 0.32,0.02 0.47,0.02 0.15,0 0.31,0.01 0.45,0.01 0.12,0 0.29,0 0.41,-0.01 0.12,-0.01 0.27,-0.02 0.38,-0.02 0.04,0 0.15,0 0.15,0.15 0,0.1 -0.1,0.1 -0.21,0.1 -0.4,0 -0.43,0.08 -0.5,0.2 z"
         id="path12693" /></g>    <g
       style="font-style:normal;font-variant:normal;font-weight:normal;font-stretch:normal;letter-spacing:normal;word-spacing:normal;text-anchor:start;fill:none;stroke:#000000;stroke-linecap:butt;stroke-linejoin:miter;stroke-miterlimit:10.43299961;stroke-opacity:1;stroke-dasharray:none;stroke-dashoffset:0"
       id="content-3"
       transform="matrix(1.6127163,0,0,-1.6127163,-193.54013,1865.4985)"
       xml:space="preserve"
       stroke-miterlimit="10.433"
       font-style="normal"
       font-variant="normal"
       font-weight="normal"
       font-stretch="normal"
       font-size-adjust="none"
       letter-spacing="normal"
       word-spacing="normal"
       ns0:text="$e^{-iK_1X}$"
       ns0:preamble=""><path
         style="fill:#000000;stroke-width:0"
         inkscape:connector-curvature="0"
         d="m 225.29,659.53 0.03,0 0.03,0 0.03,0 0.04,0 0.04,0 0.04,0 0.04,0 0.04,0.01 0.05,0 0.04,0 0.05,0 0.05,0.01 0.05,0 0.05,0.01 0.11,0.01 0.1,0.01 0.11,0.01 0.11,0.02 0.11,0.02 0.1,0.03 0.06,0.01 0.05,0.02 0.05,0.01 0.05,0.02 0.05,0.02 0.05,0.02 c 0.69,0.3 0.74,0.88 0.74,1.02 0,0.44 -0.38,0.85 -1.06,0.85 v -0.22 c 0.46,0 0.73,-0.29 0.73,-0.63 0,-1.03 -1.59,-1.03 -2,-1.03 h -0.41 c 0.39,1.51 1.42,1.66 1.68,1.66 v 0.22 c -1.11,0 -2.61,-0.97 -2.61,-2.71 0,-1.01 0.59,-1.79 1.56,-1.79 1.42,0 2.26,1.05 2.26,1.17 0,0.06 -0.06,0.13 -0.12,0.13 -0.05,0 -0.07,-0.02 -0.13,-0.1 -0.78,-0.99 -1.87,-0.99 -1.99,-0.99 -0.77,0 -0.86,0.84 -0.86,1.16 0,0.12 0.01,0.42 0.15,1.03 z"
         id="path12681-0" /><path
         style="fill:#000000;stroke-width:0"
         inkscape:connector-curvature="0"
         d="m 233.25,662.42 0.01,0 0.01,0 0.02,0 0.01,0 0.02,0 0.01,0 0.01,0 0.01,0.01 0.02,0 0.01,0 0.01,0 0.01,0 0.01,0.01 0.01,0 0.01,0 0.01,0.01 0.01,0 0.01,0.01 0.01,0 0.01,0.01 0.01,0.01 0.01,0 0,0.01 0,0 0.01,0.01 0,0 0,0.01 0,0 0.01,0.01 0,0 0,0.01 0,0 0.01,0.01 0,0.01 0,0 0,0.01 0,0.01 0,0 0,0.01 0,0.01 c 0,0.17 -0.16,0.17 -0.28,0.17 h -4.15 c -0.11,0 -0.28,0 -0.28,-0.16 0,-0.18 0.16,-0.18 0.28,-0.18 z"
         id="path12683-6" /><path
         style="fill:#000000;stroke-width:0"
         inkscape:connector-curvature="0"
         d="m 236.55,665.2 0,0.01 0,0.01 0,0.01 0,0.01 0,0.01 0,0.01 -0.01,0.01 0,0.02 -0.01,0.01 0,0.01 -0.01,0.01 0,0.01 -0.01,0.01 -0.01,0.01 0,0.01 -0.01,0.01 -0.01,0.01 -0.01,0.01 -0.01,0.01 -0.01,0.01 -0.01,0 -0.01,0.01 -0.02,0.01 -0.01,0.01 -0.01,0 -0.02,0.01 -0.01,0 -0.02,0 -0.01,0.01 -0.02,0 -0.02,0 -0.01,0 c -0.19,0 -0.39,-0.18 -0.39,-0.38 0,-0.12 0.09,-0.26 0.27,-0.26 0.21,0 0.39,0.19 0.39,0.38 z"
         id="path12685-8" /><path
         style="fill:#000000;stroke-width:0"
         inkscape:connector-curvature="0"
         d="m 235.13,661.66 0,-0.01 -0.01,-0.02 -0.01,-0.03 0,-0.02 -0.01,-0.02 0,-0.01 -0.01,-0.02 0,-0.02 -0.01,-0.02 0,-0.02 0,-0.01 0,-0.01 -0.01,-0.01 0,-0.01 0,-0.01 0,-0.02 0,-0.01 0,-0.01 0,-0.01 c 0,-0.32 0.28,-0.59 0.66,-0.59 0.7,0 1.01,0.96 1.01,1.06 0,0.1 -0.09,0.1 -0.12,0.1 -0.09,0 -0.1,-0.05 -0.13,-0.12 -0.16,-0.56 -0.47,-0.84 -0.74,-0.84 -0.14,0 -0.17,0.09 -0.17,0.24 0,0.16 0.05,0.29 0.11,0.44 0.07,0.19 0.15,0.38 0.22,0.56 0.07,0.17 0.32,0.8 0.35,0.88 0.02,0.07 0.04,0.16 0.04,0.23 0,0.32 -0.28,0.59 -0.67,0.59 -0.68,0 -1.01,-0.95 -1.01,-1.07 0,-0.09 0.1,-0.09 0.12,-0.09 0.1,0 0.11,0.04 0.13,0.12 0.18,0.59 0.49,0.84 0.74,0.84 0.12,0 0.18,-0.05 0.18,-0.24 0,-0.16 -0.04,-0.26 -0.22,-0.7 z"
         id="path12687-1" /><path
         style="fill:#000000;stroke-width:0"
         inkscape:connector-curvature="0"
         d="m 241.1,663.65 0,0 0,0.01 -0.01,0 0,0.01 0,0 0,0 -0.01,0.01 0,0 0,0.01 0,0 0,0 0,0.01 -0.01,0 0,0 0,0 0,0.01 0,0 0,0 0,0 -0.01,0.01 0,0 0,0 0,0 0,0 0,0 0,0 0,0.01 0,0 0,0 0,0 0,0 0,0 c 0,0.01 0.01,0.02 0.17,0.13 l 0.7,0.5 c 0.92,0.64 1.35,0.95 1.84,0.99 0.08,0.01 0.16,0.01 0.16,0.15 0,0.06 -0.04,0.09 -0.09,0.09 -0.14,0 -0.32,-0.02 -0.48,-0.02 -0.18,0 -0.65,0.03 -0.84,0.03 -0.04,0 -0.14,0 -0.14,-0.15 0,-0.01 0,-0.09 0.1,-0.1 0.08,-0.01 0.17,-0.02 0.17,-0.1 0,-0.12 -0.21,-0.28 -0.3,-0.34 l -2.91,-2.04 0.55,2.19 c 0.07,0.23 0.07,0.29 0.62,0.29 0.11,0 0.21,0 0.21,0.15 0,0.06 -0.05,0.1 -0.12,0.1 -0.2,0 -0.71,-0.03 -0.91,-0.03 -0.12,0 -0.36,0 -0.48,0.01 -0.14,0.01 -0.31,0.02 -0.44,0.02 -0.04,0 -0.14,0 -0.14,-0.15 0,-0.1 0.07,-0.1 0.23,-0.1 0.11,0 0.14,0 0.26,-0.01 0.14,-0.02 0.15,-0.03 0.15,-0.1 0,-0.02 0,-0.05 -0.02,-0.15 l -0.93,-3.7 c -0.06,-0.23 -0.07,-0.29 -0.61,-0.29 -0.13,0 -0.21,0 -0.21,-0.15 0,-0.01 0,-0.1 0.11,-0.1 0.2,0 0.7,0.03 0.9,0.03 0.12,0 0.37,0 0.49,-0.01 0.13,-0.01 0.31,-0.02 0.44,-0.02 0.04,0 0.15,0 0.15,0.15 0,0.1 -0.09,0.1 -0.23,0.1 0,0 -0.14,0 -0.26,0.01 -0.16,0.02 -0.16,0.04 -0.16,0.11 0,0.06 0.07,0.31 0.33,1.33 l 1.15,0.82 1.01,-1.96 c 0.05,-0.09 0.05,-0.09 0.05,-0.13 0,-0.16 -0.19,-0.18 -0.32,-0.18 -0.08,0 -0.18,0 -0.18,-0.15 0,-0.01 0.01,-0.1 0.12,-0.1 0.19,0 0.69,0.03 0.89,0.03 0.21,0 0.49,-0.03 0.68,-0.03 0.09,0 0.14,0.05 0.14,0.15 0,0.1 -0.09,0.1 -0.16,0.1 -0.12,0 -0.34,0.01 -0.46,0.23 z"
         id="path12689-2" /><path
         style="fill:#000000;stroke-width:0"
         inkscape:connector-curvature="0"
         d="m 245.79,663.01 0,0.01 0,0.01 0,0 0,0.01 0,0.01 0,0 0,0.01 0,0 0,0.01 0,0 0,0.01 0,0 0,0.01 0,0 0,0.01 0,0 0,0 -0.01,0.01 0,0 0,0 0,0.01 0,0.01 -0.01,0 0,0.01 0,0 -0.01,0 0,0.01 -0.01,0 0,0 -0.01,0 -0.01,0.01 0,0 -0.01,0 -0.01,0 0,0 -0.01,0 0,0 -0.01,0 0,0 -0.01,0 0,0 -0.01,0 0,0 -0.01,0 -0.01,0 0,0 -0.01,0 -0.01,0 0,0 -0.01,0 -0.01,0 c -0.35,-0.32 -0.9,-0.32 -1,-0.32 h -0.09 v -0.21 h 0.09 c 0.11,0 0.43,0.01 0.72,0.14 v -2.49 c 0,-0.15 0,-0.21 -0.52,-0.21 h -0.25 v -0.22 c 0.27,0.02 0.71,0.02 1,0.02 0.29,0 0.73,0 1.01,-0.02 v 0.22 h -0.25 c -0.53,0 -0.53,0.06 -0.53,0.21 z"
         id="path12691-1" /><path
         style="fill:#000000;stroke-width:0"
         inkscape:connector-curvature="0"
         d="m 251.57,663.51 0.66,0.66 c 0.89,0.87 1.17,1.15 1.79,1.18 0.09,0.01 0.18,0.01 0.18,0.15 0,0.08 -0.08,0.1 -0.1,0.1 -0.2,0 -0.45,-0.03 -0.65,-0.03 -0.19,0 -0.63,0.03 -0.81,0.03 -0.06,0 -0.14,-0.02 -0.14,-0.15 0,-0.01 0,-0.09 0.1,-0.1 0.06,-0.01 0.24,-0.02 0.24,-0.17 0,-0.11 -0.11,-0.22 -0.18,-0.29 -0.05,-0.05 -0.93,-0.91 -1.19,-1.17 l -0.71,1.36 c -0.01,0.02 -0.03,0.07 -0.03,0.1 0,0.04 0.13,0.16 0.37,0.17 0.05,0 0.14,0.01 0.14,0.15 0,0.01 0,0.1 -0.11,0.1 -0.15,0 -0.33,-0.02 -0.47,-0.02 -0.15,0 -0.31,-0.01 -0.45,-0.01 -0.12,0 -0.29,0 -0.42,0.01 -0.11,0.01 -0.26,0.02 -0.37,0.02 -0.04,0 -0.15,0 -0.15,-0.15 0,-0.1 0.09,-0.1 0.21,-0.1 0.4,0 0.43,-0.07 0.5,-0.21 l 0.98,-1.92 -0.39,-0.39 c -0.13,-0.12 -0.46,-0.43 -0.59,-0.57 -0.85,-0.84 -1.13,-1.13 -1.76,-1.16 -0.1,-0.01 -0.17,-0.01 -0.17,-0.15 0,-0.03 0.02,-0.1 0.1,-0.1 0.2,0 0.43,0.03 0.64,0.03 0.12,0 0.3,0 0.41,-0.01 0.13,-0.01 0.28,-0.02 0.4,-0.02 0.03,0 0.15,0 0.15,0.15 0,0.09 -0.09,0.1 -0.13,0.1 -0.07,0.01 -0.22,0.03 -0.22,0.18 0,0.11 0.1,0.2 0.25,0.35 l 1.41,1.38 0.85,-1.64 c 0.03,-0.07 0.04,-0.09 0.04,-0.09 0,-0.05 -0.13,-0.16 -0.37,-0.18 -0.06,-0.01 -0.15,-0.01 -0.15,-0.15 0,-0.01 0,-0.1 0.11,-0.1 0.15,0 0.32,0.02 0.47,0.02 0.15,0 0.31,0.01 0.45,0.01 0.12,0 0.29,0 0.41,-0.01 0.12,-0.01 0.27,-0.02 0.38,-0.02 0.04,0 0.15,0 0.15,0.15 0,0.1 -0.1,0.1 -0.21,0.1 -0.4,0 -0.43,0.08 -0.5,0.2 z"
         id="path12693-7" /></g>    <g
       style="font-style:normal;font-variant:normal;font-weight:normal;font-stretch:normal;letter-spacing:normal;word-spacing:normal;text-anchor:start;fill:none;stroke:#000000;stroke-linecap:butt;stroke-linejoin:miter;stroke-miterlimit:10.43299961;stroke-opacity:1;stroke-dasharray:none;stroke-dashoffset:0"
       ns0:preamble=""
       ns0:text="$e^{-K_2X}$"
       word-spacing="normal"
       letter-spacing="normal"
       font-size-adjust="none"
       font-stretch="normal"
       font-weight="normal"
       font-variant="normal"
       font-style="normal"
       stroke-miterlimit="10.433"
       xml:space="preserve"
       transform="matrix(1.288153,0,0,-1.288153,-179.44506,1649.4691)"
       id="g12833"><path
         id="path12835"
         d="m 225.29,659.53 0.03,0 0.03,0 0.03,0 0.04,0 0.04,0 0.04,0 0.04,0 0.04,0.01 0.05,0 0.04,0 0.05,0 0.05,0.01 0.05,0 0.05,0.01 0.11,0.01 0.1,0.01 0.11,0.01 0.11,0.02 0.11,0.02 0.1,0.03 0.06,0.01 0.05,0.02 0.05,0.01 0.05,0.02 0.05,0.02 0.05,0.02 c 0.69,0.3 0.74,0.88 0.74,1.02 0,0.44 -0.38,0.85 -1.06,0.85 v -0.22 c 0.46,0 0.73,-0.29 0.73,-0.63 0,-1.03 -1.59,-1.03 -2,-1.03 h -0.41 c 0.39,1.51 1.42,1.66 1.68,1.66 v 0.22 c -1.11,0 -2.61,-0.97 -2.61,-2.71 0,-1.01 0.59,-1.79 1.56,-1.79 1.42,0 2.26,1.05 2.26,1.17 0,0.06 -0.06,0.13 -0.12,0.13 -0.05,0 -0.07,-0.02 -0.13,-0.1 -0.78,-0.99 -1.87,-0.99 -1.99,-0.99 -0.77,0 -0.86,0.84 -0.86,1.16 0,0.12 0.01,0.42 0.15,1.03 z"
         inkscape:connector-curvature="0"
         style="fill:#000000;stroke-width:0" /><path
         id="path12837"
         d="m 233.25,662.42 0.01,0 0.01,0 0.02,0 0.01,0 0.02,0 0.01,0 0.01,0 0.01,0.01 0.02,0 0.01,0 0.01,0 0.01,0 0.01,0.01 0.01,0 0.01,0 0.01,0.01 0.01,0 0.01,0.01 0.01,0 0.01,0.01 0.01,0.01 0.01,0 0,0.01 0,0 0.01,0.01 0,0 0,0.01 0,0 0.01,0.01 0,0 0,0.01 0,0 0.01,0.01 0,0.01 0,0 0,0.01 0,0.01 0,0 0,0.01 0,0.01 c 0,0.17 -0.16,0.17 -0.28,0.17 h -4.15 c -0.11,0 -0.28,0 -0.28,-0.16 0,-0.18 0.16,-0.18 0.28,-0.18 z"
         inkscape:connector-curvature="0"
         style="fill:#000000;stroke-width:0" /><path
         id="path12839"
         d="m 238.28,663.65 0,0 0,0.01 -0.01,0 0,0.01 0,0 0,0 0,0.01 -0.01,0 0,0.01 0,0 0,0 0,0.01 -0.01,0 0,0 0,0 0,0.01 0,0 0,0 0,0 0,0.01 -0.01,0 0,0 0,0 0,0 0,0 0,0 0,0.01 0,0 0,0 0,0 0,0 0,0 c 0,0.01 0.01,0.02 0.17,0.13 l 0.7,0.5 c 0.92,0.64 1.35,0.95 1.85,0.99 0.07,0.01 0.16,0.01 0.16,0.15 0,0.06 -0.05,0.09 -0.09,0.09 -0.15,0 -0.33,-0.02 -0.49,-0.02 -0.18,0 -0.65,0.03 -0.84,0.03 -0.04,0 -0.14,0 -0.14,-0.15 0,-0.01 0,-0.09 0.1,-0.1 0.08,-0.01 0.18,-0.02 0.18,-0.1 0,-0.12 -0.22,-0.28 -0.31,-0.34 l -2.91,-2.04 0.55,2.19 c 0.07,0.23 0.07,0.29 0.62,0.29 0.11,0 0.21,0 0.21,0.15 0,0.06 -0.05,0.1 -0.12,0.1 -0.2,0 -0.71,-0.03 -0.91,-0.03 -0.12,0 -0.36,0 -0.48,0.01 -0.14,0.01 -0.31,0.02 -0.44,0.02 -0.04,0 -0.14,0 -0.14,-0.15 0,-0.1 0.07,-0.1 0.23,-0.1 0.11,0 0.14,0 0.26,-0.01 0.14,-0.02 0.15,-0.03 0.15,-0.1 0,-0.02 0,-0.05 -0.02,-0.15 l -0.93,-3.7 c -0.06,-0.23 -0.07,-0.29 -0.61,-0.29 -0.13,0 -0.21,0 -0.21,-0.15 0,-0.01 0,-0.1 0.11,-0.1 0.2,0 0.7,0.03 0.9,0.03 0.12,0 0.37,0 0.49,-0.01 0.13,-0.01 0.31,-0.02 0.44,-0.02 0.04,0 0.15,0 0.15,0.15 0,0.1 -0.09,0.1 -0.22,0.1 -0.01,0 -0.14,0 -0.27,0.01 -0.16,0.02 -0.16,0.04 -0.16,0.11 0,0.06 0.07,0.31 0.33,1.33 l 1.15,0.82 1.01,-1.96 c 0.05,-0.09 0.05,-0.09 0.05,-0.13 0,-0.16 -0.19,-0.18 -0.32,-0.18 -0.08,0 -0.18,0 -0.18,-0.15 0,-0.01 0.01,-0.1 0.12,-0.1 0.19,0 0.7,0.03 0.89,0.03 0.21,0 0.49,-0.03 0.68,-0.03 0.09,0 0.14,0.05 0.14,0.15 0,0.1 -0.09,0.1 -0.16,0.1 -0.12,0 -0.34,0.01 -0.46,0.23 z"
         inkscape:connector-curvature="0"
         style="fill:#000000;stroke-width:0" /><path
         id="path12841"
         d="m 243.92,660.81 h -0.21 c -0.01,-0.09 -0.06,-0.4 -0.14,-0.45 -0.04,-0.03 -0.46,-0.03 -0.53,-0.03 h -0.98 c 0.33,0.24 0.7,0.52 1,0.72 0.44,0.31 0.86,0.6 0.86,1.12 0,0.64 -0.6,0.99 -1.31,0.99 -0.67,0 -1.16,-0.38 -1.16,-0.87 0,-0.26 0.21,-0.31 0.28,-0.31 0.14,0 0.3,0.09 0.3,0.3 0,0.18 -0.13,0.28 -0.29,0.29 0.14,0.22 0.43,0.37 0.76,0.37 0.49,0 0.89,-0.28 0.89,-0.77 0,-0.42 -0.29,-0.74 -0.67,-1.06 l -1.22,-1.03 c -0.04,-0.04 -0.05,-0.04 -0.05,-0.08 v -0.15 h 2.31 z"
         inkscape:connector-curvature="0"
         style="fill:#000000;stroke-width:0" /><path
         id="path12843"
         d="m 248.75,663.51 0.66,0.66 c 0.89,0.87 1.17,1.15 1.79,1.18 0.09,0.01 0.18,0.01 0.18,0.15 0,0.08 -0.08,0.1 -0.1,0.1 -0.2,0 -0.44,-0.03 -0.65,-0.03 -0.18,0 -0.63,0.03 -0.81,0.03 -0.06,0 -0.14,-0.02 -0.14,-0.15 0,-0.01 0,-0.09 0.1,-0.1 0.07,-0.01 0.24,-0.02 0.24,-0.17 0,-0.11 -0.11,-0.22 -0.17,-0.29 -0.06,-0.05 -0.94,-0.91 -1.2,-1.17 l -0.71,1.36 c -0.01,0.02 -0.03,0.07 -0.03,0.1 0,0.04 0.13,0.16 0.37,0.17 0.05,0 0.15,0.01 0.15,0.15 0,0.01 -0.01,0.1 -0.12,0.1 -0.15,0 -0.32,-0.02 -0.47,-0.02 -0.15,0 -0.31,-0.01 -0.45,-0.01 -0.12,0 -0.29,0 -0.41,0.01 -0.12,0.01 -0.27,0.02 -0.38,0.02 -0.03,0 -0.15,0 -0.15,-0.15 0,-0.1 0.09,-0.1 0.21,-0.1 0.4,0 0.44,-0.07 0.5,-0.21 l 0.98,-1.92 -0.39,-0.39 c -0.13,-0.12 -0.46,-0.43 -0.59,-0.57 -0.84,-0.84 -1.13,-1.13 -1.76,-1.16 -0.1,-0.01 -0.17,-0.01 -0.17,-0.15 0,-0.03 0.02,-0.1 0.1,-0.1 0.2,0 0.43,0.03 0.64,0.03 0.12,0 0.3,0 0.41,-0.01 0.13,-0.01 0.28,-0.02 0.4,-0.02 0.04,0 0.15,0 0.15,0.15 0,0.09 -0.09,0.1 -0.13,0.1 -0.07,0.01 -0.21,0.03 -0.21,0.18 0,0.11 0.09,0.2 0.24,0.35 l 1.41,1.38 0.85,-1.64 c 0.03,-0.07 0.04,-0.09 0.04,-0.09 0,-0.05 -0.13,-0.16 -0.37,-0.18 -0.06,-0.01 -0.15,-0.01 -0.15,-0.15 0,-0.01 0,-0.1 0.11,-0.1 0.15,0 0.32,0.02 0.47,0.02 0.15,0 0.31,0.01 0.45,0.01 0.12,0 0.29,0 0.41,-0.01 0.12,-0.01 0.27,-0.02 0.38,-0.02 0.04,0 0.15,0 0.15,0.15 0,0.1 -0.09,0.1 -0.2,0.1 -0.41,0 -0.44,0.08 -0.51,0.2 z"
         inkscape:connector-curvature="0"
         style="fill:#000000;stroke-width:0" /></g>  </g>
</svg>
