<?xml version="1.0" encoding="UTF-8" standalone="no"?>
<!-- Created with Inkscape (http://www.inkscape.org/) -->

<svg
   xmlns:dc="http://purl.org/dc/elements/1.1/"
   xmlns:cc="http://creativecommons.org/ns#"
   xmlns:rdf="http://www.w3.org/1999/02/22-rdf-syntax-ns#"
   xmlns:svg="http://www.w3.org/2000/svg"
   xmlns="http://www.w3.org/2000/svg"
   xmlns:sodipodi="http://sodipodi.sourceforge.net/DTD/sodipodi-0.dtd"
   xmlns:inkscape="http://www.inkscape.org/namespaces/inkscape"
   width="263.19086"
   height="214.46371"
   id="svg2"
   version="1.1"
   inkscape:version="0.91 r13725"
   sodipodi:docname="figure105edit1.svg">
  <sodipodi:namedview
     id="base"
     pagecolor="#ffffff"
     bordercolor="#666666"
     borderopacity="1.0"
     inkscape:pageopacity="0.0"
     inkscape:pageshadow="2"
     inkscape:zoom="2.5786034"
     inkscape:cx="57.55702"
     inkscape:cy="142.91955"
     inkscape:document-units="px"
     inkscape:current-layer="layer1"
     showgrid="true"
     units="in"
     width="11cm"
     inkscape:window-width="1536"
     inkscape:window-height="803"
     inkscape:window-x="-8"
     inkscape:window-y="-8"
     inkscape:window-maximized="1"
     fit-margin-top="0"
     fit-margin-left="0"
     fit-margin-right="0"
     fit-margin-bottom="0">
    <inkscape:grid
       type="xygrid"
       id="grid2984"
       empspacing="5"
       visible="true"
       enabled="true"
       snapvisiblegridlinesonly="true"
       spacingx="2px"
       spacingy="2px"
       originx="-158.48085"
       originy="-105.43486" />
  </sodipodi:namedview>
  <defs
     id="defs4">
    <marker
       inkscape:isstock="true"
       style="overflow:visible"
       id="marker5645"
       refX="0"
       refY="0"
       orient="auto"
       inkscape:stockid="Arrow2Lend">
      <path
         inkscape:connector-curvature="0"
         transform="matrix(-1.1,0,0,-1.1,-1.1,0)"
         d="M 8.7185878,4.0337352 -2.2072895,0.01601326 8.7185884,-4.0017078 c -1.7454984,2.3720609 -1.7354408,5.6174519 -6e-7,8.035443 z"
         style="fill:#000000;fill-opacity:1;fill-rule:evenodd;stroke:#000000;stroke-width:0.625;stroke-linejoin:round;stroke-opacity:1"
         id="path5647" />
    </marker>
    <marker
       inkscape:stockid="Arrow2Lstart"
       orient="auto"
       refY="0"
       refX="0"
       id="Arrow2Lstart"
       style="overflow:visible"
       inkscape:isstock="true">
      <path
         id="path4874"
         style="fill:#000000;fill-opacity:1;fill-rule:evenodd;stroke:#000000;stroke-width:0.625;stroke-linejoin:round;stroke-opacity:1"
         d="M 8.7185878,4.0337352 -2.2072895,0.01601326 8.7185884,-4.0017078 c -1.7454984,2.3720609 -1.7354408,5.6174519 -6e-7,8.035443 z"
         transform="matrix(1.1,0,0,1.1,1.1,0)"
         inkscape:connector-curvature="0" />
    </marker>
    <marker
       inkscape:stockid="Arrow2Lend"
       orient="auto"
       refY="0"
       refX="0"
       id="Arrow2Lend"
       style="overflow:visible"
       inkscape:isstock="true"
       inkscape:collect="always">
      <path
         id="path4877"
         style="fill:#000000;fill-opacity:1;fill-rule:evenodd;stroke:#000000;stroke-width:0.625;stroke-linejoin:round;stroke-opacity:1"
         d="M 8.7185878,4.0337352 -2.2072895,0.01601326 8.7185884,-4.0017078 c -1.7454984,2.3720609 -1.7354408,5.6174519 -6e-7,8.035443 z"
         transform="matrix(-1.1,0,0,-1.1,-1.1,0)"
         inkscape:connector-curvature="0" />
    </marker>
    <marker
       style="overflow:visible"
       id="Arrow2Mend"
       refX="0"
       refY="0"
       orient="auto"
       inkscape:stockid="Arrow2Mend">
      <path
         transform="scale(-0.6,-0.6)"
         d="M 8.7185878,4.0337352 -2.2072895,0.01601326 8.7185884,-4.0017078 c -1.7454984,2.3720609 -1.7354408,5.6174519 -6e-7,8.035443 z"
         style="fill-rule:evenodd;stroke-width:0.625;stroke-linejoin:round"
         id="path3966"
         inkscape:connector-curvature="0" />
    </marker>
  </defs>
  <metadata
     id="metadata7">
    <rdf:RDF>
      <cc:Work
         rdf:about="">
        <dc:format>image/svg+xml</dc:format>
        <dc:type
           rdf:resource="http://purl.org/dc/dcmitype/StillImage" />
        <dc:title></dc:title>
      </cc:Work>
    </rdf:RDF>
  </metadata>
  <g
     transform="translate(-95.452491,-756.14866)"
     id="layer1"
     inkscape:groupmode="layer"
     inkscape:label="Layer 1">
    <path
       style="fill:none;stroke:#000000;stroke-width:1px;stroke-linecap:butt;stroke-linejoin:miter;stroke-opacity:1;marker-start:url(#Arrow2Lstart);marker-end:url(#Arrow2Lend)"
       d="M 199.61219,92.308789 200,250.53571 l 220,0"
       id="path6992"
       inkscape:connector-curvature="0"
       transform="translate(-63.028358,665.51153)"
       sodipodi:nodetypes="ccc" />
    <path
       style="fill:none;stroke:#000000;stroke-width:1px;stroke-linecap:butt;stroke-linejoin:miter;stroke-opacity:1"
       d="m 200,220.53571 190,-120"
       id="path6994"
       inkscape:connector-curvature="0"
       transform="translate(-63.028358,665.51153)" />
    <path
       style="fill:none;stroke:#000000;stroke-width:1px;stroke-linecap:butt;stroke-linejoin:miter;stroke-opacity:1"
       d="m 296.97164,910.33295 0,10"
       id="path6998"
       inkscape:connector-curvature="0" />
    <path
       sodipodi:type="arc"
       style="fill:#000000;fill-opacity:1;fill-rule:nonzero;stroke:#000000;stroke-width:1;stroke-miterlimit:4;stroke-dasharray:none;stroke-dashoffset:0;stroke-opacity:1"
       id="path7000"
       sodipodi:cx="95"
       sodipodi:cy="195.53571"
       sodipodi:rx="5"
       sodipodi:ry="5"
       d="m 90.004131,195.73892 a 5,5 0 0 1 4.768532,-5.19804 5,5 0 0 1 5.22101,4.74337 5,5 0 0 1 -4.718108,5.24386 5,5 0 0 1 -5.266577,-4.69273"
       transform="translate(95.543071,656.22581)"
       sodipodi:start="3.1009386"
       sodipodi:end="3.0816228"
       sodipodi:open="true" />
    <path
       transform="translate(164.1145,613.36867)"
       sodipodi:type="arc"
       style="fill:#000000;fill-opacity:1;fill-rule:nonzero;stroke:#000000;stroke-width:1;stroke-miterlimit:4;stroke-dasharray:none;stroke-dashoffset:0;stroke-opacity:1"
       id="path7000-0"
       sodipodi:cx="95"
       sodipodi:cy="195.53571"
       sodipodi:rx="5"
       sodipodi:ry="5"
       d="m 90.004131,195.73892 a 5,5 0 0 1 4.768532,-5.19804 5,5 0 0 1 5.22101,4.74337 5,5 0 0 1 -4.718108,5.24386 5,5 0 0 1 -5.266577,-4.69273"
       sodipodi:start="3.1009386"
       sodipodi:end="3.0816228"
       sodipodi:open="true" />
    <path
       transform="translate(186.25735,598.36867)"
       sodipodi:type="arc"
       style="fill:#000000;fill-opacity:1;fill-rule:nonzero;stroke:#000000;stroke-width:1;stroke-miterlimit:4;stroke-dasharray:none;stroke-dashoffset:0;stroke-opacity:1"
       id="path7000-6"
       sodipodi:cx="95"
       sodipodi:cy="195.53571"
       sodipodi:rx="5"
       sodipodi:ry="5"
       d="m 90.004131,195.73892 a 5,5 0 0 1 4.768532,-5.19804 5,5 0 0 1 5.22101,4.74337 5,5 0 0 1 -4.718108,5.24386 5,5 0 0 1 -5.266577,-4.69273"
       sodipodi:start="3.1009386"
       sodipodi:end="3.0816228"
       sodipodi:open="true" />
    <path
       transform="translate(120.54307,639.79725)"
       sodipodi:type="arc"
       style="fill:#000000;fill-opacity:1;fill-rule:nonzero;stroke:#000000;stroke-width:1;stroke-miterlimit:4;stroke-dasharray:none;stroke-dashoffset:0;stroke-opacity:1"
       id="path7000-4"
       sodipodi:cx="95"
       sodipodi:cy="195.53571"
       sodipodi:rx="5"
       sodipodi:ry="5"
       d="m 90.004131,195.73892 a 5,5 0 0 1 4.768532,-5.19804 5,5 0 0 1 5.22101,4.74337 5,5 0 0 1 -4.718108,5.24386 5,5 0 0 1 -5.266577,-4.69273"
       sodipodi:start="3.1009386"
       sodipodi:end="3.0816228"
       sodipodi:open="true" />
    <text
       transform="translate(-63.028358,665.51153)"
       sodipodi:linespacing="100%"
       id="text7751"
       y="256.96429"
       x="187.85715"
       style="font-style:normal;font-variant:normal;font-weight:500;font-stretch:normal;font-size:16px;line-height:100%;font-family:Rekha;-inkscape-font-specification:'Rekha Medium';text-align:start;letter-spacing:0px;word-spacing:0px;writing-mode:lr-tb;text-anchor:start;fill:#000000;fill-opacity:1;stroke:none"
       xml:space="preserve"><tspan
         y="256.96429"
         x="187.85715"
         id="tspan7753"
         sodipodi:role="line">0</tspan></text>
    <text
       sodipodi:linespacing="100%"
       id="text7759"
       y="939.77795"
       x="196.32137"
       style="font-style:normal;font-variant:normal;font-weight:500;font-stretch:normal;font-size:16px;line-height:100%;font-family:Rekha;-inkscape-font-specification:'Rekha Medium';text-align:start;letter-spacing:0px;word-spacing:0px;writing-mode:lr-tb;text-anchor:start;fill:#000000;fill-opacity:1;stroke:none"
       xml:space="preserve"><tspan
         y="939.77795"
         x="196.32137"
         id="tspan7761"
         sodipodi:role="line">100</tspan></text>
    <text
       sodipodi:linespacing="100%"
       id="text7763"
       y="939.78186"
       x="282.1506"
       style="font-style:normal;font-variant:normal;font-weight:500;font-stretch:normal;font-size:16px;line-height:100%;font-family:Rekha;-inkscape-font-specification:'Rekha Medium';text-align:start;letter-spacing:0px;word-spacing:0px;writing-mode:lr-tb;text-anchor:start;fill:#000000;fill-opacity:1;stroke:none"
       xml:space="preserve"><tspan
         y="939.78186"
         x="282.1506"
         id="tspan7765"
         sodipodi:role="line">200</tspan></text>
    <g
       id="g5193"
       transform="matrix(0.54793172,0,0,0.54793172,-26.995463,712.32406)">
      <g
         word-spacing="normal"
         letter-spacing="normal"
         font-size-adjust="none"
         font-stretch="normal"
         font-weight="normal"
         font-variant="normal"
         font-style="normal"
         stroke-miterlimit="10.433"
         xml:space="preserve"
         transform="matrix(1.0629921,0,0,-1.0629921,-186.02362,789.27165)"
         id="g5195"
         style="font-style:normal;font-variant:normal;font-weight:normal;font-stretch:normal;letter-spacing:normal;word-spacing:normal;text-anchor:start;fill:none;fill-opacity:1;fill-rule:evenodd;stroke:#000000;stroke-linecap:butt;stroke-linejoin:miter;stroke-miterlimit:10.43299961;stroke-dasharray:none;stroke-dashoffset:0;stroke-opacity:1"><path
           id="path5197"
           d="m 466.29,400.37 -0.01,-0.19 -0.01,-0.2 -0.02,-0.2 -0.03,-0.21 -0.04,-0.21 -0.05,-0.21 -0.06,-0.22 -0.07,-0.22 -0.09,-0.22 -0.09,-0.22 -0.11,-0.22 -0.12,-0.22 -0.14,-0.21 -0.15,-0.22 -0.16,-0.21 -0.18,-0.21 -0.2,-0.2 -0.21,-0.19 -0.23,-0.19 -0.25,-0.19 -0.26,-0.17 -0.29,-0.17 -0.3,-0.15 -0.32,-0.15 -0.35,-0.14 -0.36,-0.12 -0.38,-0.12 -0.41,-0.1 -0.21,-0.04 -0.22,-0.04 -0.22,-0.04 -0.23,-0.03 -0.23,-0.03 -0.24,-0.03 -0.25,-0.02 -0.25,-0.02 c -0.25,-0.05 -0.44,-0.25 -0.44,-0.55 0,-0.54 0.55,-0.54 0.99,-0.54 4.84,0 9.47,2.43 9.51,6.21 l 0,11.36 c 0,1.96 0,3.55 2,5.19 1.75,1.45 3.64,1.55 4.74,1.6 0.25,0.04 0.45,0.25 0.45,0.54 0,0.5 -0.31,0.5 -0.8,0.55 -3.29,0.2 -5.68,2 -6.23,4.44 -0.16,0.54 -0.16,0.64 -0.16,2.43 l 0,9.88 c 0,2.08 0,3.69 -2.39,5.58 -1.98,1.54 -5.42,2.03 -7.12,2.03 -0.44,0 -0.99,0 -0.99,-0.55 0,-0.5 0.3,-0.5 0.8,-0.55 3.13,-0.18 5.58,-1.79 6.22,-4.32 0.16,-0.46 0.16,-0.55 0.16,-2.35 l 0,-10.47 c 0,-2.28 0.39,-3.12 1.98,-4.73 1.05,-1.03 2.5,-1.53 3.89,-1.94 -4.08,-1.14 -5.87,-3.44 -5.87,-6.33 z"
           inkscape:connector-curvature="0"
           style="fill:#000000;stroke-width:0" /></g>    </g>
    <g
       id="g5258"
       transform="matrix(0.35412338,0,0,0.35412338,46.690812,778.59427)">
      <g
         word-spacing="normal"
         letter-spacing="normal"
         font-size-adjust="none"
         font-stretch="normal"
         font-weight="normal"
         font-variant="normal"
         font-style="normal"
         stroke-miterlimit="10.433"
         xml:space="preserve"
         transform="matrix(1.0629921,0,0,-1.0629921,-186.02362,789.27165)"
         id="g5260"
         style="font-style:normal;font-variant:normal;font-weight:normal;font-stretch:normal;letter-spacing:normal;word-spacing:normal;text-anchor:start;fill:none;fill-opacity:1;fill-rule:evenodd;stroke:#000000;stroke-linecap:butt;stroke-linejoin:miter;stroke-miterlimit:10.43299961;stroke-dasharray:none;stroke-dashoffset:0;stroke-opacity:1"><path
           id="path5262"
           d="m 479.29,417.96 -0.01,0.37 -0.01,0.35 -0.02,0.35 -0.02,0.34 -0.06,0.65 -0.09,0.63 -0.11,0.59 -0.14,0.57 -0.15,0.54 -0.18,0.51 -0.19,0.49 -0.21,0.45 -0.23,0.44 -0.25,0.4 -0.26,0.38 -0.27,0.36 -0.29,0.33 -0.3,0.31 -0.31,0.29 -0.31,0.26 -0.33,0.24 -0.34,0.22 -0.34,0.2 -0.35,0.18 -0.35,0.16 -0.36,0.14 -0.35,0.12 -0.36,0.11 -0.37,0.09 -0.36,0.06 -0.36,0.06 -0.35,0.04 -0.35,0.02 -0.35,0 -0.05,-1.09 c 4.94,0 4.94,-6.53 4.94,-10.41 0,-1.84 0,-4.73 0.09,-5.57 l 0,0 c -4.37,-3.85 -8.22,-4.39 -10.2,-4.39 -3,0 -4.49,2.25 -4.49,5.43 0,2.44 1.3,7.82 2.89,10.36 2.33,3.64 5.04,4.58 6.77,4.58 l 0.05,1.09 c -6.82,0 -13.39,-7.12 -13.39,-14.14 0,-4.64 2.98,-8.42 8.06,-8.42 3.14,0 6.73,1.14 10.51,4.19 0.66,-2.64 2.3,-4.19 4.54,-4.19 2.64,0 4.18,2.74 4.18,3.53 0,0.36 -0.29,0.5 -0.59,0.5 -0.36,0 -0.5,-0.14 -0.66,-0.5 -0.89,-2.43 -2.68,-2.43 -2.78,-2.43 -1.54,0 -1.54,3.89 -1.54,5.07 0,1.05 0,1.16 0.5,1.75 4.68,5.88 5.73,11.66 5.73,11.71 0,0.11 -0.06,0.5 -0.61,0.5 -0.5,0 -0.5,-0.14 -0.75,-1.05 -0.89,-3.14 -2.53,-6.92 -4.87,-9.86 z"
           inkscape:connector-curvature="0"
           style="fill:#000000;stroke-width:0" /><path
           id="path5264"
           d="m 509.55,441.67 0.02,0.03 0.01,0.03 0.01,0.03 0.01,0.03 0.01,0.02 0.01,0.03 0.01,0.03 0.01,0.02 0.01,0.05 0.02,0.05 0.02,0.04 0.01,0.05 0.01,0.04 0.01,0.04 0.01,0.03 0.01,0.04 0.01,0.03 0.01,0.03 0.01,0.03 0,0.02 0.01,0.03 0,0.02 0.01,0.02 0,0.02 0,0.02 0.01,0.02 0,0.01 0,0.02 0,0.01 0,0.01 0,0.01 0,0.01 0,0.01 0,0.01 0,0.01 0,0 c 0,0.55 -0.45,0.99 -1,0.99 -0.34,0 -0.7,-0.14 -0.84,-0.44 l -17.3,-47.48 c -0.25,-0.64 -0.25,-0.85 -0.25,-0.89 0,-0.55 0.46,-1 1,-1 0.66,0 0.8,0.34 1.1,1.18 z"
           inkscape:connector-curvature="0"
           style="fill:#000000;stroke-width:0" /><path
           id="path5266"
           d="m 541.28,434.54 -0.01,0.35 -0.02,0.35 -0.04,0.33 -0.06,0.34 -0.07,0.33 -0.08,0.32 -0.1,0.32 -0.11,0.31 -0.13,0.3 -0.14,0.29 -0.15,0.29 -0.17,0.27 -0.18,0.27 -0.19,0.26 -0.21,0.25 -0.21,0.24 -0.23,0.22 -0.24,0.22 -0.25,0.2 -0.27,0.2 -0.27,0.17 -0.28,0.17 -0.3,0.15 -0.3,0.14 -0.31,0.12 -0.33,0.11 -0.33,0.09 -0.34,0.08 -0.35,0.06 -0.36,0.05 -0.36,0.02 -0.38,0.01 c -2.89,0 -4.28,-0.8 -6.03,-2.09 -2.73,-1.99 -5.48,-6.83 -6.42,-10.61 l -7.92,-31.64 c -0.07,-0.19 0.18,-0.5 0.59,-0.5 0.39,0 0.55,0.11 0.59,0.25 l 3.49,13.75 c 0.95,-2.99 3.14,-4.83 6.78,-4.83 l -0.16,1.09 c -3.78,0 -5.67,2.89 -5.67,6.44 0,0.48 0,1.23 0.25,2.19 l 3.19,12.61 c 1.09,4.28 4.69,12.2 10.65,12.2 2.9,0 4.65,-1.55 4.65,-4.53 l 0,0 c 0,-3.5 -1.9,-7.08 -4.49,-8.63 -1.34,0.5 -2.34,0.6 -3.84,0.6 -1.05,0 -3.83,0.04 -3.83,-1.6 -0.05,-1.39 2.53,-1.23 3.44,-1.23 l 0.14,1.09 c -0.69,0 -1.69,-0.06 -2.19,0.19 0.11,0.5 1.89,0.41 2.44,0.41 1.05,0 1.5,0 2.14,-0.25 l 0,0 c -0.64,-0.25 -1.19,-0.35 -2.39,-0.35 l -0.14,-1.09 c 1.84,0 2.59,0.05 4.07,0.64 1.9,-1.8 2.15,-3.34 2.21,-5.62 0.09,-2.9 -1.11,-6.63 -2.5,-8.58 -1.94,-2.69 -5.28,-4.49 -8.13,-4.49 l 0.16,-1.09 c 3.64,0 7.38,1.75 9.61,3.94 2.39,2.29 4,5.48 4,9.17 0,3.58 -1.85,6.17 -3.64,7.42 2.89,1.64 5.72,4.73 5.72,8.31 z"
           inkscape:connector-curvature="0"
           style="fill:#000000;stroke-width:0" /></g>    </g>
    <g
       id="g5343"
       transform="matrix(0,-0.2907349,0.2907349,0,6.4216803,960.61982)">
      <g
         word-spacing="normal"
         letter-spacing="normal"
         font-size-adjust="none"
         font-stretch="normal"
         font-weight="normal"
         font-variant="normal"
         font-style="normal"
         stroke-miterlimit="10.433"
         xml:space="preserve"
         transform="matrix(1.0629921,0,0,-1.0629921,-186.02362,789.27165)"
         id="g5345"
         style="font-style:normal;font-variant:normal;font-weight:normal;font-stretch:normal;letter-spacing:normal;word-spacing:normal;text-anchor:start;fill:none;fill-opacity:1;fill-rule:evenodd;stroke:#000000;stroke-linecap:butt;stroke-linejoin:miter;stroke-miterlimit:10.43299961;stroke-dasharray:none;stroke-dashoffset:0;stroke-opacity:1"><path
           id="path5347"
           d="m 475.3,437.34 0,0.09 -0.01,0.08 -0.01,0.09 -0.01,0.09 -0.02,0.08 -0.02,0.08 -0.03,0.09 -0.03,0.08 -0.03,0.07 -0.04,0.08 -0.04,0.08 -0.04,0.07 -0.05,0.07 -0.05,0.07 -0.06,0.07 -0.06,0.06 -0.06,0.06 -0.07,0.06 -0.07,0.05 -0.07,0.06 -0.08,0.04 -0.07,0.05 -0.09,0.04 -0.08,0.04 -0.09,0.03 -0.09,0.03 -0.1,0.03 -0.1,0.02 -0.1,0.01 -0.1,0.02 -0.11,0 -0.11,0.01 c -1.16,0 -2.64,-1.16 -2.64,-2.64 0,-1 0.69,-1.8 1.84,-1.8 1.35,0 2.69,1.3 2.69,2.64 z"
           inkscape:connector-curvature="0"
           style="fill:#000000;stroke-width:0" /><path
           id="path5349"
           d="m 465.29,403.71 -0.1,-0.35 -0.1,-0.35 -0.11,-0.34 -0.12,-0.33 -0.12,-0.33 -0.14,-0.32 -0.14,-0.31 -0.14,-0.3 -0.16,-0.3 -0.16,-0.29 -0.16,-0.28 -0.18,-0.26 -0.18,-0.26 -0.18,-0.25 -0.2,-0.24 -0.19,-0.23 -0.2,-0.22 -0.21,-0.2 -0.21,-0.19 -0.22,-0.19 -0.22,-0.16 -0.23,-0.16 -0.23,-0.14 -0.23,-0.13 -0.24,-0.12 -0.24,-0.1 -0.25,-0.08 -0.25,-0.08 -0.25,-0.05 -0.25,-0.04 -0.26,-0.03 -0.26,-0.01 c -0.3,0 -1.05,0 -1.95,0.46 1.5,0.36 2.25,1.64 2.25,2.64 0,0.79 -0.55,1.75 -1.89,1.75 -1.25,0 -2.69,-1.05 -2.69,-2.85 0,-2 1.98,-3.09 4.37,-3.09 3.49,0 8.13,2.64 9.38,7.58 l 4.58,18.23 c 0.25,1 0.25,1.69 0.25,1.85 0,2.84 -2.1,4.57 -4.58,4.57 -5.09,0 -7.92,-7.21 -7.92,-7.67 0,-0.5 0.48,-0.5 0.59,-0.5 0.45,0 0.5,0.07 0.89,1 1.25,3.05 3.55,6.08 6.28,6.08 0.71,0 1.6,-0.2 1.6,-2.28 0,-1.16 -0.16,-1.7 -0.35,-2.55 z"
           inkscape:connector-curvature="0"
           style="fill:#000000;stroke-width:0" /><path
           id="path5351"
           d="m 484.62,412.53 3.54,0 c 0.66,0 1.11,0 1.11,0.76 0,0.49 -0.45,0.49 -1.03,0.49 l -3.31,0 1.28,5.15 c 0.03,0.18 0.11,0.35 0.11,0.49 0,0.64 -0.48,1.12 -1.19,1.12 -0.87,0 -1.39,-0.59 -1.64,-1.5 -0.23,-0.87 0.22,0.8 -1.33,-5.26 l -3.54,0 c -0.66,0 -1.11,0 -1.11,-0.77 0,-0.48 0.4,-0.48 1.04,-0.48 l 3.3,0 -2.05,-8.22 c -0.21,-0.88 -0.53,-2.13 -0.53,-2.58 0,-2.06 1.75,-3.31 3.74,-3.31 3.87,0 6.06,4.87 6.06,5.33 0,0.45 -0.45,0.45 -0.56,0.45 -0.41,0 -0.46,-0.08 -0.72,-0.66 -0.99,-2.2 -2.77,-4.15 -4.67,-4.15 -0.74,0 -1.22,0.45 -1.22,1.7 0,0.36 0.14,1.09 0.2,1.44 z"
           inkscape:connector-curvature="0"
           style="fill:#000000;stroke-width:0" /><path
           id="path5353"
           d="m 501.95,421.9 0,0.01 0,0 0,0 0,0.01 0,0 0.01,0.01 0,0.01 0,0 0,0.01 0,0.01 0.01,0.01 0.01,0.02 0,0.02 0.01,0.02 0,0.02 0.01,0.02 0,0.02 0.01,0.03 0.01,0.02 0.01,0.05 0.01,0.04 0,0.03 0.01,0.02 0,0.02 0.01,0.02 0,0.02 0.01,0.02 0,0.02 0.01,0.01 0,0.01 0,0.01 0,0 0,0.01 0,0 0,0.01 0,0 0,0.01 0.01,0 0,0 0,0.01 0,0 c 0,0.19 -0.14,0.5 -0.57,0.5 -0.68,0 -3.57,-0.28 -4.45,-0.36 -0.28,-0.03 -0.77,-0.06 -0.77,-0.8 0,-0.48 0.49,-0.48 0.91,-0.48 1.67,0 1.67,-0.25 1.67,-0.53 0,-0.24 -0.08,-0.46 -0.14,-0.77 l -4.92,-19.72 c -0.17,-0.62 -0.17,-0.68 -0.17,-0.76 0,-0.52 0.42,-1.11 1.19,-1.11 0.39,0 1.04,0.17 1.43,0.9 0.1,0.21 0.41,1.46 0.58,2.19 l 0.81,3.11 c 0.1,0.52 0.46,1.84 0.55,2.36 0.36,1.33 0.36,1.36 1.05,2.48 1.12,1.71 2.86,3.69 5.58,3.69 1.95,0 2.06,-1.61 2.06,-2.44 0,-2.09 -1.5,-5.95 -2.06,-7.42 -0.38,-0.98 -0.52,-1.29 -0.52,-1.89 0,-1.84 1.53,-2.98 3.3,-2.98 3.5,0 5.03,4.79 5.03,5.33 0,0.45 -0.45,0.45 -0.56,0.45 -0.49,0 -0.54,-0.2 -0.66,-0.59 -0.81,-2.79 -2.34,-4.22 -3.7,-4.22 -0.74,0 -0.88,0.48 -0.88,1.22 0,0.79 0.19,1.25 0.81,2.82 0.41,1.08 1.85,4.77 1.85,6.72 0,0.56 0,2.03 -1.3,3.03 -0.59,0.46 -1.59,0.94 -3.23,0.94 -2.55,0 -4.39,-1.39 -5.68,-2.89 z"
           inkscape:connector-curvature="0"
           style="fill:#000000;stroke-width:0" /><polygon
           id="polygon5355"
           points="538.64,441.57 543.47,441.57 543.47,443.56 536.64,443.56 536.64,393.75 543.47,393.75 543.47,395.73 538.64,395.73 "
           style="fill:#000000;stroke-width:0" /><path
           id="path5357"
           d="m 564.39,440.87 -0.03,0.06 -0.02,0.06 -0.02,0.06 -0.02,0.05 -0.02,0.06 -0.02,0.05 -0.02,0.05 -0.02,0.04 -0.03,0.05 -0.02,0.04 -0.02,0.05 -0.02,0.04 -0.03,0.03 -0.02,0.04 -0.03,0.03 -0.03,0.04 -0.03,0.03 -0.03,0.03 -0.03,0.02 -0.04,0.03 -0.04,0.02 -0.04,0.02 -0.04,0.02 -0.04,0.02 -0.05,0.01 -0.05,0.01 -0.06,0.02 -0.06,0 -0.06,0.01 -0.06,0.01 -0.07,0 -0.04,0 -0.03,0 c -0.8,0 -0.96,-0.3 -1.21,-1 l -10.31,-29.8 c -0.89,-2.53 -2.89,-3.28 -5.58,-3.32 l 0,-1.55 c 1.14,0.05 3.28,0.16 5.08,0.16 1.55,0 4.14,-0.11 5.74,-0.16 l 0,1.55 c -2.49,0 -3.74,1.25 -3.74,2.53 0,0.15 0.05,0.65 0.09,0.75 l 2.3,6.53 0.55,1.55 5.58,16.18 5.62,-16.18 -11.2,0 -0.55,-1.55 12.3,0 2.64,-7.63 c 0.06,-0.2 0.16,-0.5 0.16,-0.68 0,-1.5 -2.8,-1.5 -4.15,-1.5 l 0,-1.55 c 1.8,0.16 5.28,0.16 7.19,0.16 2.14,0 4.42,-0.07 6.52,-0.16 l 0,1.55 -0.89,0 c -3,0 -3.69,0.34 -4.24,1.98 z"
           inkscape:connector-curvature="0"
           style="fill:#000000;stroke-width:0" /><path
           id="path5359"
           d="m 603.7,441.67 0.01,0.03 0.02,0.03 0.01,0.03 0.01,0.03 0.01,0.02 0.01,0.03 0.01,0.03 0.01,0.02 0,0.03 0.01,0.02 0.01,0.02 0.01,0.03 0.01,0.04 0.02,0.04 0.01,0.04 0.01,0.04 0.01,0.03 0.01,0.03 0.01,0.03 0.01,0.03 0.01,0.03 0,0.03 0.01,0.02 0,0.02 0.01,0.02 0,0.02 0,0.02 0.01,0.02 0,0.01 0,0.02 0,0.01 0,0.02 0,0.01 0,0.01 0,0.02 0,0.02 c 0,0.55 -0.45,0.99 -1,0.99 -0.7,0 -0.9,-0.49 -1.04,-0.99 l -16.99,-46.93 c -0.25,-0.64 -0.25,-0.8 -0.25,-0.89 0,-0.55 0.44,-1 0.99,-1 0.7,0 0.9,0.5 1.04,1 z"
           inkscape:connector-curvature="0"
           style="fill:#000000;stroke-width:0" /><path
           id="path5361"
           d="m 612.66,417.06 0,0.38 0.01,0.36 0.02,0.36 0.02,0.35 0.02,0.34 0.03,0.34 0.04,0.32 0.04,0.32 0.05,0.31 0.05,0.3 0.05,0.29 0.07,0.29 0.13,0.55 0.15,0.51 0.17,0.49 0.18,0.46 0.2,0.43 0.2,0.4 0.23,0.38 0.23,0.35 0.24,0.32 0.25,0.3 0.25,0.28 0.27,0.26 0.27,0.23 0.27,0.21 0.28,0.19 0.28,0.16 0.29,0.15 0.28,0.13 0.28,0.12 0.28,0.09 0.28,0.08 0.28,0.06 0.27,0.05 0.26,0.03 0.26,0.02 0.26,0.01 c 0.43,0 3.57,-0.05 5.32,-1.85 -2.04,-0.15 -2.34,-1.64 -2.34,-2.29 0,-1.3 0.89,-2.3 2.3,-2.3 1.28,0 2.28,0.86 2.28,2.34 0,3.39 -3.78,5.33 -7.63,5.33 -6.22,0 -10.81,-5.37 -10.81,-11.55 0,-6.37 4.94,-11.31 10.72,-11.31 6.67,0 8.26,5.99 8.26,6.47 0,0.5 -0.5,0.5 -0.64,0.5 -0.45,0 -0.54,-0.19 -0.65,-0.5 -1.44,-4.62 -4.68,-5.22 -6.52,-5.22 -2.64,0 -7.03,2.14 -7.03,10.16 z"
           inkscape:connector-curvature="0"
           style="fill:#000000;stroke-width:0" /><path
           id="path5363"
           d="m 634.4,423.34 0,-13.36 c 0,-2.23 -0.55,-2.23 -3.9,-2.23 l 0,-1.55 c 1.75,0.05 4.28,0.16 5.63,0.16 1.3,0 3.89,-0.11 5.58,-0.16 l 0,1.55 c -3.33,0 -3.88,0 -3.88,2.23 l 0,9.17 c 0,5.19 3.53,7.97 6.72,7.97 3.14,0 3.69,-2.69 3.69,-5.53 l 0,-11.61 c 0,-2.23 -0.55,-2.23 -3.89,-2.23 l 0,-1.55 c 1.75,0.05 4.3,0.16 5.64,0.16 1.29,0 3.87,-0.11 5.58,-0.16 l 0,1.55 c -3.35,0 -3.89,0 -3.89,2.23 l 0,9.17 c 0,5.19 3.54,7.97 6.73,7.97 3.14,0 3.69,-2.69 3.69,-5.53 l 0,-11.61 c 0,-2.23 -0.55,-2.23 -3.89,-2.23 l 0,-1.55 c 1.73,0.05 4.28,0.16 5.62,0.16 1.3,0 3.89,-0.11 5.58,-0.16 l 0,1.55 c -2.58,0 -3.83,0 -3.88,1.5 l 0,9.51 c 0,4.28 0,5.83 -1.54,7.61 -0.71,0.86 -2.34,1.84 -5.24,1.84 -4.18,0 -6.37,-2.98 -7.22,-4.87 -0.7,4.33 -4.38,4.87 -6.62,4.87 -3.64,0 -5.98,-2.14 -7.38,-5.21 l 0,5.21 -7.03,-0.54 0,-1.55 c 3.49,0 3.9,-0.34 3.9,-2.78 z"
           inkscape:connector-curvature="0"
           style="fill:#000000;stroke-width:0" /><path
           id="path5365"
           d="m 688.15,437.63 -1.18,0 c -0.1,-0.77 -0.46,-2.83 -0.91,-3.18 -0.27,-0.2 -2.96,-0.2 -3.44,-0.2 l -6.42,0 c 3.65,3.23 4.87,4.2 6.97,5.84 2.58,2.07 4.98,4.22 4.98,7.54 0,4.21 -3.68,6.79 -8.15,6.79 -4.32,0 -7.25,-3.03 -7.25,-6.23 0,-1.78 1.5,-1.96 1.85,-1.96 0.83,0 1.85,0.6 1.85,1.85 0,0.62 -0.25,1.84 -2.06,1.84 1.08,2.47 3.45,3.24 5.09,3.24 3.49,0 5.3,-2.71 5.3,-5.53 0,-3.04 -2.16,-5.44 -3.28,-6.69 l -8.4,-8.3 c -0.35,-0.31 -0.35,-0.39 -0.35,-1.36 l 14.35,0 z"
           inkscape:connector-curvature="0"
           style="fill:#000000;stroke-width:0" /><polygon
           id="polygon5367"
           points="698.8,441.57 698.8,395.73 693.97,395.73 693.97,393.75 700.8,393.75 700.8,443.56 693.97,443.56 693.97,441.57 "
           style="fill:#000000;stroke-width:0" /></g>    </g>
    <g
       id="g5494"
       transform="matrix(0.3291451,0,0,0.3291451,110.26593,848.59219)">
      <g
         word-spacing="normal"
         letter-spacing="normal"
         font-size-adjust="none"
         font-stretch="normal"
         font-weight="normal"
         font-variant="normal"
         font-style="normal"
         stroke-miterlimit="10.433"
         xml:space="preserve"
         transform="matrix(1.0629921,0,0,-1.0629921,-186.02362,789.27165)"
         id="g5496"
         style="font-style:normal;font-variant:normal;font-weight:normal;font-stretch:normal;letter-spacing:normal;word-spacing:normal;text-anchor:start;fill:none;fill-opacity:1;fill-rule:evenodd;stroke:#000000;stroke-linecap:butt;stroke-linejoin:miter;stroke-miterlimit:10.43299961;stroke-dasharray:none;stroke-dashoffset:0;stroke-opacity:1"><path
           id="path5498"
           d="m 470.16,438.09 0,0.05 0,0.06 0,0.05 0,0.05 0,0.05 0,0.05 0,0.04 0,0.05 0,0.04 0,0.04 -0.01,0.04 0,0.04 0,0.04 0,0.03 0,0.04 -0.01,0.03 -0.01,0.07 0,0.06 -0.02,0.05 -0.01,0.05 -0.02,0.05 -0.02,0.04 -0.02,0.04 -0.02,0.03 -0.03,0.03 -0.03,0.03 -0.04,0.03 -0.04,0.02 -0.04,0.02 -0.03,0.01 -0.02,0.01 -0.03,0 -0.02,0.01 -0.03,0.01 -0.03,0 -0.03,0.01 -0.03,0 -0.04,0.01 -0.03,0 -0.04,0 -0.03,0.01 -0.04,0 -0.04,0 -0.05,0 -0.04,0 -0.04,0 -0.05,0.01 -0.05,0 -0.05,0 -0.05,0 -0.05,0 c -3.09,-3.19 -7.47,-3.19 -9.06,-3.19 l 0,-1.55 c 1,0 3.93,0 6.51,1.3 l 0,-25.81 c 0,-1.8 -0.14,-2.39 -4.62,-2.39 l -1.6,0 0,-1.55 c 1.75,0.16 6.08,0.16 8.07,0.16 2,0 6.32,0 8.07,-0.16 l 0,1.55 -1.59,0 c -4.48,0 -4.64,0.54 -4.64,2.39 z"
           inkscape:connector-curvature="0"
           style="fill:#000000;stroke-width:0" /><path
           id="path5500"
           d="m 502.35,441.67 0.01,0.03 0.01,0.03 0.02,0.03 0.01,0.03 0.01,0.02 0.01,0.03 0.01,0.03 0,0.02 0.02,0.05 0.02,0.05 0.01,0.04 0.02,0.05 0.01,0.04 0.01,0.04 0.01,0.03 0.01,0.04 0.01,0.03 0.01,0.03 0,0.03 0.01,0.02 0.01,0.03 0,0.02 0.01,0.02 0,0.02 0,0.02 0,0.02 0.01,0.01 0,0.02 0,0.01 0,0.01 0,0.01 0,0.01 0,0.01 0,0.01 0,0.01 0,0 c 0,0.55 -0.45,0.99 -1,0.99 -0.34,0 -0.7,-0.14 -0.84,-0.44 l -17.3,-47.48 c -0.25,-0.64 -0.25,-0.85 -0.25,-0.89 0,-0.55 0.45,-1 1,-1 0.66,0 0.8,0.34 1.09,1.18 z"
           inkscape:connector-curvature="0"
           style="fill:#000000;stroke-width:0" /><path
           id="path5502"
           d="m 518.29,440.23 0,0 0,0.01 0,0 0,0.01 0,0.02 0,0.01 0,0.02 0,0.02 -0.01,0.02 0,0.02 -0.01,0.02 0,0.02 -0.01,0.02 -0.01,0.03 -0.01,0.02 -0.01,0.03 -0.02,0.02 -0.02,0.03 -0.01,0.02 -0.02,0.02 -0.03,0.03 -0.01,0.01 -0.01,0.01 -0.02,0.01 -0.01,0.01 -0.02,0.01 -0.01,0.01 -0.02,0.01 -0.01,0.01 -0.02,0.01 -0.02,0.01 -0.02,0 -0.02,0.01 -0.02,0.01 -0.02,0 -0.02,0.01 -0.03,0.01 -0.02,0 -0.03,0 -0.02,0.01 -0.03,0 -0.02,0 -0.03,0.01 -0.03,0 -0.03,0 c -1.14,0 -4.79,-0.41 -6.08,-0.5 -0.39,-0.05 -0.94,-0.1 -0.94,-1.05 0,-0.55 0.49,-0.55 1.24,-0.55 2.39,0 2.45,-0.45 2.45,-0.84 l -0.16,-1 -6.28,-24.91 c -0.14,-0.54 -0.25,-0.9 -0.25,-1.7 0,-2.83 2.2,-4.58 4.53,-4.58 1.66,0 2.89,1 3.75,2.78 0.89,1.91 1.49,4.8 1.49,4.89 0,0.5 -0.44,0.5 -0.6,0.5 -0.5,0 -0.54,-0.2 -0.7,-0.9 -0.84,-3.24 -1.78,-6.17 -3.78,-6.17 -1.5,0 -1.5,1.59 -1.5,2.29 0,1.19 0.06,1.44 0.3,2.39 z"
           inkscape:connector-curvature="0"
           style="fill:#000000;stroke-width:0" /><path
           id="path5504"
           d="m 531.39,440.65 0.03,0.06 0.02,0.05 0.02,0.05 0.03,0.05 0.02,0.04 0.01,0.05 0.02,0.04 0.02,0.04 0.01,0.05 0.02,0.04 0.01,0.03 0.01,0.04 0.01,0.04 0.01,0.03 0.01,0.04 0.01,0.03 0.01,0.03 0.01,0.03 0,0.03 0.01,0.03 0,0.03 0.01,0.03 0,0.03 0,0.02 0.01,0.06 0,0.05 0,0.04 0,0.05 c 0,1.08 -0.98,1.92 -2.06,1.92 -1.33,0 -1.73,-1.09 -1.91,-1.64 l -4.6,-15.09 c -0.04,-0.06 -0.18,-0.52 -0.18,-0.56 0,-0.41 1.08,-0.77 1.36,-0.77 0.25,0 0.28,0.08 0.52,0.59 z"
           inkscape:connector-curvature="0"
           style="fill:#000000;stroke-width:0" /><polygon
           id="polygon5506"
           points="561.7,395.73 556.88,395.73 556.88,441.57 561.7,441.57 561.7,443.56 554.88,443.56 554.88,393.75 561.7,393.75 "
           style="fill:#000000;stroke-width:0" /><path
           id="path5508"
           d="m 568.63,417.06 0,0.38 0.01,0.36 0.01,0.36 0.02,0.35 0.03,0.34 0.03,0.34 0.03,0.32 0.05,0.32 0.04,0.31 0.05,0.3 0.06,0.29 0.06,0.29 0.13,0.55 0.16,0.51 0.16,0.49 0.19,0.46 0.19,0.43 0.21,0.4 0.22,0.38 0.23,0.35 0.24,0.32 0.25,0.3 0.26,0.28 0.26,0.26 0.27,0.23 0.28,0.21 0.28,0.19 0.28,0.16 0.28,0.15 0.28,0.13 0.29,0.12 0.28,0.09 0.28,0.08 0.27,0.06 0.27,0.05 0.27,0.03 0.26,0.02 0.25,0.01 c 0.44,0 3.58,-0.05 5.33,-1.85 -2.05,-0.15 -2.35,-1.64 -2.35,-2.29 0,-1.3 0.89,-2.3 2.3,-2.3 1.28,0 2.28,0.86 2.28,2.34 0,3.39 -3.78,5.33 -7.62,5.33 -6.22,0 -10.82,-5.37 -10.82,-11.55 0,-6.37 4.94,-11.31 10.72,-11.31 6.68,0 8.27,5.99 8.27,6.47 0,0.5 -0.5,0.5 -0.64,0.5 -0.45,0 -0.55,-0.19 -0.66,-0.5 -1.44,-4.62 -4.67,-5.22 -6.51,-5.22 -2.64,0 -7.03,2.14 -7.03,10.16 z"
           inkscape:connector-curvature="0"
           style="fill:#000000;stroke-width:0" /><path
           id="path5510"
           d="m 590.36,423.34 0,-13.36 c 0,-2.23 -0.55,-2.23 -3.89,-2.23 l 0,-1.55 c 1.75,0.05 4.28,0.16 5.62,0.16 1.3,0 3.89,-0.11 5.58,-0.16 l 0,1.55 c -3.33,0 -3.87,0 -3.87,2.23 l 0,9.17 c 0,5.19 3.53,7.97 6.72,7.97 3.14,0 3.68,-2.69 3.68,-5.53 l 0,-11.61 c 0,-2.23 -0.54,-2.23 -3.89,-2.23 l 0,-1.55 c 1.75,0.05 4.3,0.16 5.64,0.16 1.3,0 3.88,-0.11 5.58,-0.16 l 0,1.55 c -3.34,0 -3.89,0 -3.89,2.23 l 0,9.17 c 0,5.19 3.55,7.97 6.74,7.97 3.14,0 3.68,-2.69 3.68,-5.53 l 0,-11.61 c 0,-2.23 -0.54,-2.23 -3.89,-2.23 l 0,-1.55 c 1.74,0.05 4.28,0.16 5.63,0.16 1.29,0 3.89,-0.11 5.58,-0.16 l 0,1.55 c -2.58,0 -3.83,0 -3.88,1.5 l 0,9.51 c 0,4.28 0,5.83 -1.55,7.61 -0.7,0.86 -2.34,1.84 -5.23,1.84 -4.19,0 -6.38,-2.98 -7.22,-4.87 -0.7,4.33 -4.39,4.87 -6.62,4.87 -3.65,0 -5.99,-2.14 -7.38,-5.21 l 0,5.21 -7.03,-0.54 0,-1.55 c 3.48,0 3.89,-0.34 3.89,-2.78 z"
           inkscape:connector-curvature="0"
           style="fill:#000000;stroke-width:0" /><path
           id="path5512"
           d="m 652.44,432.07 0.05,0 0.06,0 0.11,0.01 0.12,0 0.06,0 0.06,0.01 0.05,0 0.06,0.01 0.06,0.01 0.06,0.01 0.06,0.01 0.05,0.01 0.05,0.02 0.06,0.02 0.05,0.02 0.05,0.02 0.05,0.03 0.04,0.03 0.04,0.03 0.04,0.04 0.04,0.04 0.02,0.02 0.01,0.02 0.02,0.02 0.01,0.03 0.02,0.02 0.01,0.03 0.01,0.02 0.02,0.03 0.01,0.03 0.01,0.03 0,0.03 0.01,0.03 0.01,0.04 0,0.03 0.01,0.03 0,0.04 0,0.04 0,0.04 c 0,0.86 -0.8,0.86 -1.39,0.86 l -20.76,0 c -0.57,0 -1.4,0 -1.4,-0.83 0,-0.88 0.8,-0.88 1.4,-0.88 z"
           inkscape:connector-curvature="0"
           style="fill:#000000;stroke-width:0" /><path
           id="path5514"
           d="m 669.27,446.36 0,0.04 0,0.04 0,0.04 0,0.04 0,0.04 0,0.04 0,0.04 0,0.03 -0.01,0.04 0,0.03 0,0.03 0,0.03 0,0.03 -0.01,0.03 0,0.03 -0.01,0.02 0,0.03 0,0.02 -0.01,0.02 0,0.03 -0.02,0.04 -0.01,0.04 -0.02,0.03 -0.02,0.03 -0.02,0.03 -0.02,0.03 -0.03,0.02 -0.03,0.02 -0.04,0.01 -0.03,0.02 -0.04,0.01 -0.05,0.01 -0.05,0.01 -0.02,0.01 -0.03,0 -0.03,0 -0.02,0.01 -0.03,0 -0.03,0 -0.04,0 -0.03,0 -0.03,0.01 -0.04,0 -0.04,0 -0.03,0 -0.04,0 -0.04,0 -0.04,0 -0.05,0 -0.04,0 -0.05,0 c -2.23,-2.2 -5.39,-2.23 -6.82,-2.23 l 0,-1.25 c 0.84,0 3.13,0 5.04,0.96 l 0,-17.76 c 0,-1.16 0,-1.61 -3.48,-1.61 l -1.31,0 0,-1.25 c 0.62,0.03 4.9,0.14 6.2,0.14 1.08,0 5.47,-0.11 6.23,-0.14 l 0,1.25 -1.33,0 c -3.48,0 -3.48,0.45 -3.48,1.61 z"
           inkscape:connector-curvature="0"
           style="fill:#000000;stroke-width:0" /><polygon
           id="polygon5516"
           points="681.13,443.56 681.13,441.57 685.96,441.57 685.96,395.73 681.13,395.73 681.13,393.75 687.96,393.75 687.96,443.56 "
           style="fill:#000000;stroke-width:0" /></g>    </g>
    <path
       style="fill:none;fill-rule:evenodd;stroke:#000000;stroke-width:1px;stroke-linecap:butt;stroke-linejoin:miter;stroke-opacity:1"
       d="m 126.97164,846.04723 20,0"
       id="path5614"
       inkscape:connector-curvature="0" />
    <path
       style="fill:none;fill-rule:evenodd;stroke:#000000;stroke-width:1px;stroke-linecap:butt;stroke-linejoin:miter;stroke-opacity:1"
       d="m 212.18184,924.01776 0,-20"
       id="path5614-8"
       inkscape:connector-curvature="0" />
    <path
       style="fill:none;fill-rule:evenodd;stroke:#000000;stroke-width:1px;stroke-linecap:butt;stroke-linejoin:miter;stroke-opacity:1"
       d="m 296.97164,906.04723 0,20"
       id="path5614-86"
       inkscape:connector-curvature="0" />
    <path
       style="fill:none;fill-rule:evenodd;stroke:#000000;stroke-width:1px;stroke-linecap:butt;stroke-linejoin:miter;stroke-opacity:1;marker-end:url(#Arrow2Mend)"
       d="m 166.06852,826.04723 c -1.16544,9.65722 -7.48441,15.10878 -15.48441,19.10878"
       id="path5637"
       inkscape:connector-curvature="0"
       sodipodi:nodetypes="cc" />
    <g
       id="g5735"
       transform="matrix(0.27135257,0,0,0.27135257,60.262827,725.36008)">
      <g
         word-spacing="normal"
         letter-spacing="normal"
         font-size-adjust="none"
         font-stretch="normal"
         font-weight="normal"
         font-variant="normal"
         font-style="normal"
         stroke-miterlimit="10.433"
         xml:space="preserve"
         transform="matrix(1.0629921,0,0,-1.0629921,-186.02362,789.27165)"
         id="g5737"
         style="font-style:normal;font-variant:normal;font-weight:normal;font-stretch:normal;letter-spacing:normal;word-spacing:normal;text-anchor:start;fill:none;fill-opacity:1;fill-rule:evenodd;stroke:#000000;stroke-linecap:butt;stroke-linejoin:miter;stroke-miterlimit:10.43299961;stroke-dasharray:none;stroke-dashoffset:0;stroke-opacity:1"><path
           id="path5739"
           d="m 477.89,416.21 -0.01,0.56 -0.03,0.54 -0.06,0.54 -0.08,0.53 -0.1,0.53 -0.13,0.51 -0.14,0.5 -0.17,0.5 -0.18,0.48 -0.21,0.47 -0.22,0.46 -0.24,0.44 -0.26,0.43 -0.28,0.41 -0.29,0.4 -0.31,0.38 -0.33,0.36 -0.34,0.35 -0.36,0.32 -0.37,0.31 -0.38,0.29 -0.4,0.26 -0.41,0.25 -0.42,0.22 -0.43,0.2 -0.44,0.17 -0.46,0.15 -0.46,0.13 -0.48,0.09 -0.48,0.07 -0.49,0.05 -0.5,0.01 c -2.39,0 -4.54,-0.8 -6.33,-2.53 l 0,9.7 c 1,-0.29 2.64,-0.64 4.23,-0.64 6.13,0 9.61,4.53 9.61,5.19 0,0.3 -0.14,0.55 -0.5,0.55 -0.05,0 -0.14,0 -0.39,-0.16 -1,-0.45 -3.44,-1.44 -6.78,-1.44 -1.98,0 -4.28,0.35 -6.63,1.39 -0.39,0.14 -0.5,0.14 -0.59,0.14 -0.5,0 -0.5,-0.39 -0.5,-1.18 l 0,-14.75 c 0,-0.89 0,-1.3 0.7,-1.3 0.35,0 0.44,0.16 0.64,0.45 0.55,0.8 2.4,3.49 6.43,3.49 2.59,0 3.84,-2.3 4.23,-3.19 0.81,-1.84 0.91,-3.78 0.91,-6.28 0,-1.74 0,-4.74 -1.21,-6.83 -1.18,-1.94 -3.03,-3.23 -5.32,-3.23 -3.64,0 -6.47,2.64 -7.33,5.57 0.15,-0.04 0.31,-0.09 0.86,-0.09 1.64,0 2.48,1.25 2.48,2.44 0,1.2 -0.84,2.44 -2.48,2.44 -0.71,0 -2.46,-0.35 -2.46,-2.65 0,-4.28 3.44,-9.1 9.04,-9.1 5.76,0 10.85,4.78 10.85,11.1 z"
           inkscape:connector-curvature="0"
           style="fill:#000000;stroke-width:0" /><path
           id="path5741"
           d="m 510.89,420.04 -9.95,9.92 c -0.61,0.6 -0.71,0.71 -1.11,0.71 -0.49,0 -0.99,-0.46 -0.99,-1 0,-0.36 0.1,-0.46 0.64,-1 l 9.97,-10.02 -9.97,-10.01 c -0.54,-0.55 -0.64,-0.64 -0.64,-1 0,-0.55 0.5,-0.99 0.99,-0.99 0.4,0 0.5,0.1 1.11,0.69 l 9.9,9.92 10.32,-10.31 c 0.11,-0.05 0.45,-0.3 0.75,-0.3 0.59,0 1,0.44 1,0.99 0,0.11 0,0.31 -0.16,0.56 -0.05,0.09 -7.97,7.92 -10.45,10.45 l 9.11,9.13 c 0.25,0.29 1,0.93 1.25,1.23 0.04,0.11 0.25,0.3 0.25,0.66 0,0.54 -0.41,1 -1,1 -0.39,0 -0.6,-0.21 -1.14,-0.75 z"
           inkscape:connector-curvature="0"
           style="fill:#000000;stroke-width:0" /><path
           id="path5743"
           d="m 555.96,438.09 0,0.05 0,0.06 0,0.05 0,0.05 0,0.05 0,0.05 0,0.04 -0.01,0.05 0,0.04 0,0.04 0,0.04 0,0.04 0,0.04 0,0.03 -0.01,0.04 0,0.03 -0.01,0.07 -0.01,0.06 -0.01,0.05 -0.01,0.05 -0.02,0.05 -0.02,0.04 -0.02,0.04 -0.03,0.03 -0.02,0.03 -0.04,0.03 -0.03,0.03 -0.04,0.02 -0.05,0.02 -0.02,0.01 -0.02,0.01 -0.03,0 -0.03,0.01 -0.02,0.01 -0.03,0 -0.04,0.01 -0.03,0 -0.03,0.01 -0.04,0 -0.03,0 -0.04,0.01 -0.04,0 -0.04,0 -0.04,0 -0.04,0 -0.05,0 -0.04,0.01 -0.05,0 -0.05,0 -0.05,0 -0.05,0 c -3.1,-3.19 -7.47,-3.19 -9.07,-3.19 l 0,-1.55 c 1,0 3.94,0 6.52,1.3 l 0,-25.81 c 0,-1.8 -0.14,-2.39 -4.62,-2.39 l -1.6,0 0,-1.55 c 1.75,0.16 6.08,0.16 8.06,0.16 2,0 6.33,0 8.08,-0.16 l 0,1.55 -1.59,0 c -4.49,0 -4.64,0.54 -4.64,2.39 z"
           inkscape:connector-curvature="0"
           style="fill:#000000;stroke-width:0" /><path
           id="path5745"
           d="m 589.2,422.14 -0.01,0.74 -0.01,0.75 -0.02,0.75 -0.03,0.74 -0.05,0.75 -0.06,0.74 -0.07,0.74 -0.1,0.73 -0.11,0.73 -0.14,0.73 -0.17,0.72 -0.18,0.72 -0.22,0.72 -0.25,0.7 -0.27,0.7 -0.16,0.35 -0.15,0.34 c -2.29,4.8 -6.38,5.6 -8.47,5.6 -2.99,0 -6.63,-1.3 -8.68,-5.94 -1.59,-3.44 -1.84,-7.33 -1.84,-11.31 0,-3.74 0.2,-8.22 2.25,-12 2.14,-4.03 5.78,-5.03 8.22,-5.03 l 0,1.09 c -1.94,0 -4.89,1.25 -5.78,6.03 -0.55,2.98 -0.55,7.56 -0.55,10.52 0,3.18 0,6.46 0.41,9.15 0.94,5.94 4.67,6.38 5.92,6.38 1.64,0 4.94,-0.89 5.87,-5.83 0.5,-2.78 0.5,-6.58 0.5,-9.7 0,-3.75 0,-7.13 -0.54,-10.32 -0.75,-4.73 -3.6,-6.23 -5.83,-6.23 l 0,0 0,-1.09 c 2.69,0 6.47,1.04 8.67,5.78 1.6,3.43 1.85,7.31 1.85,11.25 z"
           inkscape:connector-curvature="0"
           style="fill:#000000;stroke-width:0" /><path
           id="path5747"
           d="m 600.75,435.84 0.26,-0.01 0.24,-0.01 0.25,-0.03 0.24,-0.04 0.23,-0.05 0.22,-0.06 0.23,-0.07 0.21,-0.08 0.21,-0.1 0.2,-0.1 0.2,-0.12 0.19,-0.12 0.18,-0.14 0.17,-0.15 0.17,-0.16 0.16,-0.17 0.15,-0.18 0.14,-0.19 0.14,-0.21 0.12,-0.21 0.12,-0.23 0.11,-0.23 0.1,-0.25 0.09,-0.25 0.08,-0.27 0.07,-0.28 0.06,-0.29 0.05,-0.3 0.04,-0.31 0.02,-0.32 0.02,-0.34 0.01,-0.34 c 0,-4.33 -2.52,-5.61 -4.53,-5.61 -1.4,0 -4.47,0.38 -5.93,2.44 1.63,0.06 2.02,1.22 2.02,1.95 0,1.11 -0.84,1.91 -1.92,1.91 -0.97,0 -1.96,-0.6 -1.96,-2.02 0,-3.28 3.63,-5.4 7.85,-5.4 4.84,0 8.19,3.25 8.19,6.73 0,2.72 -2.22,5.44 -6.07,6.23 3.66,1.33 4.99,3.94 4.99,6.07 0,2.75 -3.17,4.81 -7.04,4.81 -3.87,0 -6.82,-1.89 -6.82,-4.67 0,-1.19 0.76,-1.85 1.81,-1.85 1.08,0 1.76,0.8 1.76,1.77 0,1.02 -0.68,1.75 -1.76,1.81 1.22,1.55 3.61,1.92 4.91,1.92 1.56,0 3.76,-0.76 3.76,-3.79 0,-1.47 -0.48,-3.07 -1.39,-4.14 -1.15,-1.33 -2.12,-1.41 -3.87,-1.5 -0.88,-0.08 -0.94,-0.08 -1.11,-0.11 -0.08,0 -0.36,-0.07 -0.36,-0.46 0,-0.48 0.31,-0.48 0.9,-0.48 z"
           inkscape:connector-curvature="0"
           style="fill:#000000;stroke-width:0" /><path
           id="path5749"
           d="m 647.19,440.87 -0.03,0.06 -0.02,0.06 -0.02,0.06 -0.02,0.05 -0.02,0.06 -0.02,0.05 -0.02,0.05 -0.02,0.04 -0.03,0.05 -0.02,0.04 -0.02,0.05 -0.02,0.04 -0.03,0.03 -0.02,0.04 -0.03,0.03 -0.03,0.04 -0.03,0.03 -0.03,0.03 -0.03,0.02 -0.04,0.03 -0.04,0.02 -0.04,0.02 -0.04,0.02 -0.04,0.02 -0.05,0.01 -0.05,0.01 -0.06,0.02 -0.06,0 -0.06,0.01 -0.06,0.01 -0.07,0 -0.04,0 -0.03,0 c -0.8,0 -0.96,-0.3 -1.21,-1 l -10.31,-29.8 c -0.89,-2.53 -2.89,-3.28 -5.58,-3.32 l 0,-1.55 c 1.14,0.05 3.28,0.16 5.08,0.16 1.55,0 4.14,-0.11 5.74,-0.16 l 0,1.55 c -2.49,0 -3.74,1.25 -3.74,2.53 0,0.15 0.05,0.65 0.1,0.75 l 2.29,6.53 0.55,1.55 5.58,16.18 5.62,-16.18 -11.2,0 -0.55,-1.55 12.3,0 2.64,-7.63 c 0.06,-0.2 0.16,-0.5 0.16,-0.68 0,-1.5 -2.8,-1.5 -4.14,-1.5 l 0,-1.55 c 1.79,0.16 5.28,0.16 7.18,0.16 2.14,0 4.42,-0.07 6.52,-0.16 l 0,1.55 -0.89,0 c -3,0 -3.69,0.34 -4.24,1.98 z"
           inkscape:connector-curvature="0"
           style="fill:#000000;stroke-width:0" /><path
           id="path5751"
           d="m 686.5,441.67 0.02,0.03 0.01,0.03 0.01,0.03 0.01,0.03 0.01,0.02 0.01,0.03 0.01,0.03 0.01,0.02 0.01,0.03 0,0.02 0.01,0.02 0.01,0.03 0.01,0.04 0.02,0.04 0.01,0.04 0.01,0.04 0.01,0.03 0.01,0.03 0.01,0.03 0.01,0.03 0.01,0.03 0,0.03 0.01,0.02 0,0.02 0.01,0.02 0,0.02 0,0.02 0.01,0.02 0,0.01 0,0.02 0,0.01 0,0.02 0,0.01 0,0.01 0,0.02 0,0.02 c 0,0.55 -0.45,0.99 -1,0.99 -0.7,0 -0.9,-0.49 -1.04,-0.99 l -16.99,-46.93 c -0.25,-0.64 -0.25,-0.8 -0.25,-0.89 0,-0.55 0.44,-1 0.99,-1 0.7,0 0.9,0.5 1.04,1 z"
           inkscape:connector-curvature="0"
           style="fill:#000000;stroke-width:0" /><path
           id="path5753"
           d="m 695.46,417.06 0,0.38 0.01,0.36 0.02,0.36 0.02,0.35 0.02,0.34 0.03,0.34 0.04,0.32 0.04,0.32 0.05,0.31 0.05,0.3 0.06,0.29 0.06,0.29 0.13,0.55 0.15,0.51 0.17,0.49 0.18,0.46 0.2,0.43 0.21,0.4 0.22,0.38 0.23,0.35 0.24,0.32 0.25,0.3 0.26,0.28 0.26,0.26 0.27,0.23 0.27,0.21 0.28,0.19 0.28,0.16 0.29,0.15 0.28,0.13 0.28,0.12 0.28,0.09 0.28,0.08 0.28,0.06 0.27,0.05 0.26,0.03 0.26,0.02 0.26,0.01 c 0.43,0 3.57,-0.05 5.32,-1.85 -2.04,-0.15 -2.34,-1.64 -2.34,-2.29 0,-1.3 0.89,-2.3 2.3,-2.3 1.28,0 2.28,0.86 2.28,2.34 0,3.39 -3.78,5.33 -7.63,5.33 -6.22,0 -10.81,-5.37 -10.81,-11.55 0,-6.37 4.94,-11.31 10.72,-11.31 6.67,0 8.26,5.99 8.26,6.47 0,0.5 -0.5,0.5 -0.64,0.5 -0.45,0 -0.54,-0.19 -0.65,-0.5 -1.44,-4.62 -4.67,-5.22 -6.52,-5.22 -2.64,0 -7.03,2.14 -7.03,10.16 z"
           inkscape:connector-curvature="0"
           style="fill:#000000;stroke-width:0" /><path
           id="path5755"
           d="m 717.2,423.34 0,-13.36 c 0,-2.23 -0.55,-2.23 -3.9,-2.23 l 0,-1.55 c 1.75,0.05 4.29,0.16 5.63,0.16 1.3,0 3.89,-0.11 5.58,-0.16 l 0,1.55 c -3.33,0 -3.88,0 -3.88,2.23 l 0,9.17 c 0,5.19 3.53,7.97 6.72,7.97 3.14,0 3.69,-2.69 3.69,-5.53 l 0,-11.61 c 0,-2.23 -0.55,-2.23 -3.89,-2.23 l 0,-1.55 c 1.75,0.05 4.3,0.16 5.64,0.16 1.3,0 3.87,-0.11 5.58,-0.16 l 0,1.55 c -3.35,0 -3.89,0 -3.89,2.23 l 0,9.17 c 0,5.19 3.54,7.97 6.73,7.97 3.14,0 3.69,-2.69 3.69,-5.53 l 0,-11.61 c 0,-2.23 -0.55,-2.23 -3.89,-2.23 l 0,-1.55 c 1.73,0.05 4.28,0.16 5.62,0.16 1.3,0 3.89,-0.11 5.58,-0.16 l 0,1.55 c -2.58,0 -3.83,0 -3.87,1.5 l 0,9.51 c 0,4.28 0,5.83 -1.55,7.61 -0.7,0.86 -2.34,1.84 -5.24,1.84 -4.18,0 -6.37,-2.98 -7.21,-4.87 -0.71,4.33 -4.39,4.87 -6.63,4.87 -3.64,0 -5.98,-2.14 -7.37,-5.21 l 0,5.21 -7.04,-0.54 0,-1.55 c 3.49,0 3.9,-0.34 3.9,-2.78 z"
           inkscape:connector-curvature="0"
           style="fill:#000000;stroke-width:0" /><path
           id="path5757"
           d="m 770.83,437.63 -1.18,0 c -0.1,-0.77 -0.46,-2.83 -0.91,-3.18 -0.27,-0.2 -2.96,-0.2 -3.44,-0.2 l -6.42,0 c 3.65,3.23 4.87,4.2 6.97,5.84 2.58,2.07 4.98,4.22 4.98,7.54 0,4.21 -3.68,6.79 -8.15,6.79 -4.32,0 -7.25,-3.03 -7.25,-6.23 0,-1.78 1.5,-1.96 1.85,-1.96 0.83,0 1.85,0.6 1.85,1.85 0,0.62 -0.25,1.84 -2.06,1.84 1.08,2.47 3.45,3.24 5.09,3.24 3.49,0 5.3,-2.71 5.3,-5.53 0,-3.04 -2.16,-5.44 -3.28,-6.69 l -8.4,-8.3 c -0.35,-0.31 -0.35,-0.39 -0.35,-1.36 l 14.35,0 z"
           inkscape:connector-curvature="0"
           style="fill:#000000;stroke-width:0" /></g>    </g>
  </g>
</svg>
