<?xml version="1.0" encoding="UTF-8" standalone="no"?>
<!-- Created with Inkscape (http://www.inkscape.org/) -->

<svg
   xmlns:ns0="http://www.iki.fi/pav/software/textext/"
   xmlns:dc="http://purl.org/dc/elements/1.1/"
   xmlns:cc="http://creativecommons.org/ns#"
   xmlns:rdf="http://www.w3.org/1999/02/22-rdf-syntax-ns#"
   xmlns:svg="http://www.w3.org/2000/svg"
   xmlns="http://www.w3.org/2000/svg"
   xmlns:sodipodi="http://sodipodi.sourceforge.net/DTD/sodipodi-0.dtd"
   xmlns:inkscape="http://www.inkscape.org/namespaces/inkscape"
   width="431.23438"
   height="165.17699"
   id="svg2"
   version="1.1"
   inkscape:version="0.48.4 r9939"
   sodipodi:docname="New document 24">
  <sodipodi:namedview
     id="base"
     pagecolor="#ffffff"
     bordercolor="#666666"
     borderopacity="1.0"
     inkscape:pageopacity="0.0"
     inkscape:pageshadow="2"
     inkscape:zoom="1.2316035"
     inkscape:cx="206.82849"
     inkscape:cy="91.894946"
     inkscape:document-units="px"
     inkscape:current-layer="layer1"
     showgrid="true"
     units="in"
     width="11cm"
     inkscape:window-width="1274"
     inkscape:window-height="552"
     inkscape:window-x="0"
     inkscape:window-y="412"
     inkscape:window-maximized="0"
     fit-margin-top="0"
     fit-margin-left="0"
     fit-margin-right="0"
     fit-margin-bottom="0">
    <inkscape:grid
       spacingy="2px"
       spacingx="2px"
       snapvisiblegridlinesonly="true"
       enabled="true"
       visible="true"
       empspacing="5"
       id="grid2984"
       type="xygrid"
       originx="-30px"
       originy="-165.49489px" />
  </sodipodi:namedview>
  <defs
     id="defs4">
    <marker
       style="overflow:visible"
       id="Arrow2Lend"
       refX="0"
       refY="0"
       orient="auto"
       inkscape:stockid="Arrow2Lend">
      <path
         transform="matrix(-1.1,0,0,-1.1,-1.1,0)"
         d="M 8.7185878,4.0337352 -2.2072895,0.01601326 8.7185884,-4.0017078 c -1.7454984,2.3720609 -1.7354408,5.6174519 -6e-7,8.035443 z"
         style="fill-rule:evenodd;stroke-width:0.625;stroke-linejoin:round"
         id="path4498"
         inkscape:connector-curvature="0" />
    </marker>
    <marker
       inkscape:stockid="Arrow2Mend"
       orient="auto"
       refY="0"
       refX="0"
       id="Arrow2Mend"
       style="overflow:visible">
      <path
         inkscape:connector-curvature="0"
         id="path3966"
         style="fill-rule:evenodd;stroke-width:0.625;stroke-linejoin:round"
         d="M 8.7185878,4.0337352 -2.2072895,0.01601326 8.7185884,-4.0017078 c -1.7454984,2.3720609 -1.7354408,5.6174519 -6e-7,8.035443 z"
         transform="scale(-0.6,-0.6)" />
    </marker>
  </defs>
  <metadata
     id="metadata7">
    <rdf:RDF>
      <cc:Work
         rdf:about="">
        <dc:format>image/svg+xml</dc:format>
        <dc:type
           rdf:resource="http://purl.org/dc/dcmitype/StillImage" />
        <dc:title></dc:title>
      </cc:Work>
    </rdf:RDF>
  </metadata>
  <g
     inkscape:label="Layer 1"
     inkscape:groupmode="layer"
     id="layer1"
     transform="translate(33.028358,-745.37537)">
    <g
       transform="translate(30.160459,-36.623415)"
       id="g7280">
      <path
         style="fill:none;stroke:#000000;stroke-width:1px;stroke-linecap:butt;stroke-linejoin:miter;stroke-opacity:1"
         d="m 110,160.53571 0,20"
         id="path7268"
         inkscape:connector-curvature="0"
         transform="translate(-63.028358,665.51153)" />
      <path
         style="fill:none;stroke:#000000;stroke-width:1px;stroke-linecap:butt;stroke-linejoin:miter;stroke-opacity:1"
         d="m 100,170.53571 20,0"
         id="path7270"
         inkscape:connector-curvature="0"
         transform="translate(-63.028358,665.51153)" />
    </g>
    <path
       inkscape:connector-curvature="0"
       id="path7272"
       d="m 67.132101,839.11826 20,0"
       style="fill:none;stroke:#000000;stroke-width:1px;stroke-linecap:butt;stroke-linejoin:miter;stroke-opacity:1" />
    <g
       id="g7284"
       transform="translate(59.978902,25.635293)">
      <path
         style="fill:none;stroke:#000000;stroke-width:1px;stroke-linecap:butt;stroke-linejoin:miter;stroke-opacity:1"
         d="m 250,120.53571 0,20"
         id="path7274"
         inkscape:connector-curvature="0"
         transform="translate(-63.028358,665.51153)" />
      <path
         style="fill:none;stroke:#000000;stroke-width:1px;stroke-linecap:butt;stroke-linejoin:miter;stroke-opacity:1"
         d="m 240,130.53571 20,0"
         id="path7276"
         inkscape:connector-curvature="0"
         transform="translate(-63.028358,665.51153)" />
    </g>
    <path
       inkscape:connector-curvature="0"
       id="path7278"
       d="m 268.10958,821.32924 20,0"
       style="fill:none;stroke:#000000;stroke-width:1px;stroke-linecap:butt;stroke-linejoin:miter;stroke-opacity:1" />
    <path
       sodipodi:open="true"
       sodipodi:end="9.3835485"
       sodipodi:start="3.1009386"
       transform="translate(-82.417225,675.20596)"
       d="m 130.02479,147.77106 c -0.6734,-30.35056 12.20107,-55.955356 28.75592,-57.18991 16.55486,-1.234554 30.52111,22.36864 31.1945,52.7192 0.6734,30.35056 -12.20107,55.95536 -28.75592,57.18991 -16.54812,1.23405 -30.51115,-22.35008 -31.1938,-52.68758"
       sodipodi:ry="55"
       sodipodi:rx="30"
       sodipodi:cy="145.53571"
       sodipodi:cx="160"
       id="path7288"
       style="fill:none;stroke:#000000;stroke-width:1;stroke-miterlimit:4;stroke-opacity:1;stroke-dasharray:none;stroke-dashoffset:8.4"
       sodipodi:type="arc" />
    <path
       transform="translate(-63.028358,665.51153)"
       inkscape:connector-curvature="0"
       id="path7290"
       d="m 210,210.53571 0,-110"
       style="fill:none;stroke:#000000;stroke-width:1px;stroke-linecap:butt;stroke-linejoin:miter;stroke-opacity:1;marker-end:url(#Arrow2Lend)" />
    <g
       ns0:preamble=""
       ns0:text="$\\varepsilon$"
       word-spacing="normal"
       letter-spacing="normal"
       font-size-adjust="none"
       font-stretch="normal"
       font-weight="normal"
       font-variant="normal"
       font-style="normal"
       stroke-miterlimit="10.433"
       xml:space="preserve"
       transform="matrix(3.8730533,0,0,-3.8730533,-707.26365,3334.7046)"
       id="content"
       style="font-style:normal;font-variant:normal;font-weight:normal;font-stretch:normal;letter-spacing:normal;word-spacing:normal;text-anchor:start;fill:none;stroke:#000000;stroke-linecap:butt;stroke-linejoin:miter;stroke-miterlimit:10.43299961;stroke-opacity:1;stroke-dasharray:none;stroke-dashoffset:0"><path
         id="path8013"
         d="m 224.84,659.49 0.03,-0.01 0.03,-0.01 0.03,-0.02 0.03,-0.01 0.03,-0.01 0.03,0 0.02,-0.01 0.03,-0.01 0.03,-0.01 0.03,0 0.06,-0.02 0.05,0 0.06,-0.01 0.05,-0.01 0.05,0 0.05,0 0.05,-0.01 0.05,0 0.05,0 0.04,0 0.05,0 v 0.22 c -0.22,0 -0.34,0 -0.53,0.05 h 0 c 0.23,0.08 0.44,0.09 0.61,0.09 0.25,0 0.29,-0.01 0.47,-0.06 -0.15,-0.07 -0.17,-0.08 -0.55,-0.08 v -0.22 c 0.26,0 0.81,0 0.81,0.31 0,0.24 -0.35,0.27 -0.73,0.27 -0.21,0 -0.56,-0.02 -0.92,-0.19 -0.23,0.12 -0.4,0.31 -0.4,0.57 0,0.61 0.97,0.97 1.87,0.97 0.16,0 0.52,0 0.91,-0.28 0.11,-0.08 0.13,-0.1 0.2,-0.1 0.13,0 0.27,0.13 0.27,0.27 0,0.19 -0.61,0.56 -1.28,0.56 -1.15,0 -2.22,-0.66 -2.22,-1.42 0,-0.42 0.36,-0.67 0.4,-0.7 -0.59,-0.33 -0.91,-0.89 -0.91,-1.34 0,-0.65 0.57,-1.25 1.62,-1.25 1.32,0 1.87,0.87 1.87,1.02 0,0.06 -0.05,0.1 -0.11,0.1 -0.05,0 -0.08,-0.04 -0.1,-0.07 -0.13,-0.23 -0.37,-0.6 -1.57,-0.6 -0.61,0 -1.45,0.15 -1.45,0.86 0,0.33 0.28,0.86 0.89,1.16 z"
         inkscape:connector-curvature="0"
         style="fill:#000000;stroke-width:0" /></g>    <path
       sodipodi:type="arc"
       style="fill:none;stroke:#000000;stroke-width:1;stroke-miterlimit:4;stroke-opacity:1;stroke-dasharray:none;stroke-dashoffset:8.4"
       id="path8035"
       sodipodi:cx="335"
       sodipodi:cy="165.53571"
       sodipodi:rx="55"
       sodipodi:ry="55"
       d="m 280.04544,167.77106 c -1.23455,-30.35056 22.36864,-55.95536 52.7192,-57.18991 30.35057,-1.23455 55.95536,22.36864 57.18992,52.7192 1.23455,30.35056 -22.36864,55.95536 -52.7192,57.18991 -30.33822,1.23405 -55.93711,-22.35008 -57.18862,-52.68758"
       transform="translate(-72.771753,656.58008)"
       sodipodi:start="3.1009386"
       sodipodi:end="9.3835485"
       sodipodi:open="true" />
    <text
       xml:space="preserve"
       style="font-size:16px;font-style:normal;font-variant:normal;font-weight:500;font-stretch:normal;text-align:start;line-height:100%;letter-spacing:0px;word-spacing:0px;writing-mode:lr-tb;text-anchor:start;fill:#000000;fill-opacity:1;stroke:none;font-family:Rekha;-inkscape-font-specification:Rekha Medium"
       x="156.97165"
       y="876.04724"
       id="text8037"
       sodipodi:linespacing="100%"><tspan
         sodipodi:role="line"
         id="tspan8039"
         x="156.97165"
         y="876.04724">1</tspan></text>
    <text
       xml:space="preserve"
       style="font-size:16px;font-style:normal;font-variant:normal;font-weight:500;font-stretch:normal;text-align:start;line-height:100%;letter-spacing:0px;word-spacing:0px;writing-mode:lr-tb;text-anchor:start;fill:#000000;fill-opacity:1;stroke:none;font-family:Rekha;-inkscape-font-specification:Rekha Medium"
       x="-33.028358"
       y="756.04724"
       id="text8041"
       sodipodi:linespacing="100%"><tspan
         sodipodi:role="line"
         id="tspan8043"
         x="-33.028358"
         y="756.04724"> electric</tspan><tspan
         sodipodi:role="line"
         x="-33.028358"
         y="772.04724"
         id="tspan8045">dipole</tspan></text>
    <text
       xml:space="preserve"
       style="font-size:16px;font-style:normal;font-variant:normal;font-weight:500;font-stretch:normal;text-align:start;line-height:100%;letter-spacing:0px;word-spacing:0px;writing-mode:lr-tb;text-anchor:start;fill:#000000;fill-opacity:1;stroke:none;font-family:Rekha;-inkscape-font-specification:Rekha Medium"
       x="36.971642"
       y="906.04724"
       id="text8047"
       sodipodi:linespacing="100%"><tspan
         sodipodi:role="line"
         id="tspan8049"
         x="36.971642"
         y="906.04724">&quot;electronic&quot;</tspan></text>
    <text
       xml:space="preserve"
       style="font-size:16px;font-style:normal;font-variant:normal;font-weight:500;font-stretch:normal;text-align:start;line-height:100%;letter-spacing:0px;word-spacing:0px;writing-mode:lr-tb;text-anchor:start;fill:#000000;fill-opacity:1;stroke:none;font-family:Rekha;-inkscape-font-specification:Rekha Medium"
       x="292.30185"
       y="241.65019"
       id="text8051"
       sodipodi:linespacing="100%"
       transform="translate(-63.028358,665.51153)"><tspan
         sodipodi:role="line"
         id="tspan8053"
         x="292.30185"
         y="241.65019">polarized</tspan></text>
    <text
       xml:space="preserve"
       style="font-size:16px;font-style:normal;font-variant:normal;font-weight:500;font-stretch:normal;text-align:start;line-height:100%;letter-spacing:0px;word-spacing:0px;writing-mode:lr-tb;text-anchor:start;fill:#000000;fill-opacity:1;stroke:none;font-family:Rekha;-inkscape-font-specification:Rekha Medium"
       x="-3.028358"
       y="826.04724"
       id="text8055"
       sodipodi:linespacing="100%"><tspan
         sodipodi:role="line"
         id="tspan8057"
         x="-3.028358"
         y="826.04724">field</tspan></text>
    <text
       xml:space="preserve"
       style="font-size:16px;font-style:normal;font-variant:normal;font-weight:500;font-stretch:normal;text-align:start;line-height:100%;letter-spacing:0px;word-spacing:0px;writing-mode:lr-tb;text-anchor:start;fill:#000000;fill-opacity:1;stroke:none;font-family:Rekha;-inkscape-font-specification:Rekha Medium"
       x="346.97165"
       y="826.04724"
       id="text8059"
       sodipodi:linespacing="100%"><tspan
         sodipodi:role="line"
         id="tspan8061"
         x="346.97165"
         y="826.04724">be field</tspan></text>
    <path
       style="fill:none;stroke:#000000;stroke-width:1px;stroke-linecap:butt;stroke-linejoin:miter;stroke-opacity:1;marker-end:url(#Arrow2Lend)"
       d="m 175.34774,901.73089 40,0"
       id="path8063"
       inkscape:connector-curvature="0" />
  </g>
</svg>
