<?xml version="1.0" encoding="UTF-8" standalone="no"?>
<!-- Created with Inkscape (http://www.inkscape.org/) -->

<svg
   xmlns:ns0="http://www.iki.fi/pav/software/textext/"
   xmlns:dc="http://purl.org/dc/elements/1.1/"
   xmlns:cc="http://creativecommons.org/ns#"
   xmlns:rdf="http://www.w3.org/1999/02/22-rdf-syntax-ns#"
   xmlns:svg="http://www.w3.org/2000/svg"
   xmlns="http://www.w3.org/2000/svg"
   xmlns:xlink="http://www.w3.org/1999/xlink"
   xmlns:sodipodi="http://sodipodi.sourceforge.net/DTD/sodipodi-0.dtd"
   xmlns:inkscape="http://www.inkscape.org/namespaces/inkscape"
   width="308.95892"
   height="184.90189"
   id="svg2"
   version="1.1"
   inkscape:version="0.48.4 r9939"
   sodipodi:docname="New document 32">
  <sodipodi:namedview
     id="base"
     pagecolor="#ffffff"
     bordercolor="#666666"
     borderopacity="1.0"
     inkscape:pageopacity="0.0"
     inkscape:pageshadow="2"
     inkscape:zoom="1.06"
     inkscape:cx="-13.934991"
     inkscape:cy="124.20164"
     inkscape:document-units="px"
     inkscape:current-layer="layer1"
     showgrid="true"
     units="in"
     width="11cm"
     inkscape:window-width="1274"
     inkscape:window-height="579"
     inkscape:window-x="0"
     inkscape:window-y="385"
     inkscape:window-maximized="0"
     fit-margin-top="0"
     fit-margin-left="0"
     fit-margin-right="0"
     fit-margin-bottom="0"
     inkscape:snap-grids="false">
    <inkscape:grid
       type="xygrid"
       id="grid2984"
       empspacing="5"
       visible="true"
       enabled="true"
       snapvisiblegridlinesonly="true"
       spacingx="2px"
       spacingy="2px"
       originx="-89.707588px"
       originy="-145.59812px" />
  </sodipodi:namedview>
  <defs
     id="defs4">
    <marker
       inkscape:stockid="Arrow2Lend"
       orient="auto"
       refY="0"
       refX="0"
       id="Arrow2Lend"
       style="overflow:visible">
      <path
         id="path4665"
         style="fill-rule:evenodd;stroke-width:0.625;stroke-linejoin:round"
         d="M 8.7185878,4.0337352 -2.2072895,0.01601326 8.7185884,-4.0017078 c -1.7454984,2.3720609 -1.7354408,5.6174519 -6e-7,8.035443 z"
         transform="matrix(-1.1,0,0,-1.1,-1.1,0)"
         inkscape:connector-curvature="0" />
    </marker>
    <marker
       style="overflow:visible"
       id="Arrow2Mend"
       refX="0"
       refY="0"
       orient="auto"
       inkscape:stockid="Arrow2Mend">
      <path
         transform="scale(-0.6,-0.6)"
         d="M 8.7185878,4.0337352 -2.2072895,0.01601326 8.7185884,-4.0017078 c -1.7454984,2.3720609 -1.7354408,5.6174519 -6e-7,8.035443 z"
         style="fill-rule:evenodd;stroke-width:0.625;stroke-linejoin:round"
         id="path3966"
         inkscape:connector-curvature="0" />
    </marker>
  </defs>
  <metadata
     id="metadata7">
    <rdf:RDF>
      <cc:Work
         rdf:about="">
        <dc:format>image/svg+xml</dc:format>
        <dc:type
           rdf:resource="http://purl.org/dc/dcmitype/StillImage" />
        <dc:title></dc:title>
      </cc:Work>
    </rdf:RDF>
  </metadata>
  <g
     transform="translate(-26.67923,-745.54724)"
     id="layer1"
     inkscape:groupmode="layer"
     inkscape:label="Layer 1">
    <path
       style="fill:none;stroke:#000000;stroke-width:1px;stroke-linecap:butt;stroke-linejoin:miter;stroke-opacity:1"
       d="m 130,130.53571 240,0"
       id="path8929"
       inkscape:connector-curvature="0"
       transform="translate(-63.028358,665.51153)" />
    <path
       style="fill:none;stroke:#000000;stroke-width:1px;stroke-linecap:butt;stroke-linejoin:miter;stroke-opacity:1"
       d="m 130,240.53571 240,0"
       id="path8931"
       inkscape:connector-curvature="0"
       transform="translate(-63.028358,665.51153)" />
    <path
       style="fill:none;stroke:#000000;stroke-width:1px;stroke-linecap:butt;stroke-linejoin:miter;stroke-opacity:1;marker-end:url(#Arrow2Lend)"
       d="m 160,260.53571 180,0"
       id="path8933"
       inkscape:connector-curvature="0"
       transform="translate(-63.028358,665.51153)" />
    <path
       style="fill:none;stroke:#000000;stroke-width:1px;stroke-linecap:butt;stroke-linejoin:miter;stroke-opacity:1"
       d="m 150,170.53571 20,0"
       id="path8935"
       inkscape:connector-curvature="0"
       transform="translate(-63.028358,665.51153)"
       sodipodi:nodetypes="cc" />
    <path
       style="fill:none;stroke:#000000;stroke-width:1px;stroke-linecap:butt;stroke-linejoin:miter;stroke-opacity:1;marker-end:url(#Arrow2Lend)"
       d="m 160,170.53571 0,-60"
       id="path8937"
       inkscape:connector-curvature="0"
       transform="translate(-63.028358,665.51153)" />
    <path
       style="fill:none;stroke:#000000;stroke-width:1px;stroke-linecap:butt;stroke-linejoin:miter;stroke-opacity:1"
       d="m 190,160.53571 20,0"
       id="path8939"
       inkscape:connector-curvature="0"
       transform="translate(-63.028358,665.51153)" />
    <path
       style="fill:none;stroke:#000000;stroke-width:1px;stroke-linecap:butt;stroke-linejoin:miter;stroke-opacity:1;marker-end:url(#Arrow2Lend)"
       d="m 200,130.53571 0,30"
       id="path8941"
       inkscape:connector-curvature="0"
       transform="translate(-63.028358,665.51153)" />
    <text
       xml:space="preserve"
       style="font-size:16px;font-style:normal;font-variant:normal;font-weight:500;font-stretch:normal;text-align:start;line-height:100%;letter-spacing:0px;word-spacing:0px;writing-mode:lr-tb;text-anchor:start;fill:#000000;fill-opacity:1;stroke:none;font-family:Rekha;-inkscape-font-specification:Rekha Medium"
       x="89.285713"
       y="165.53571"
       id="text8943"
       sodipodi:linespacing="100%"
       transform="translate(-63.028358,665.51153)"><tspan
         sodipodi:role="line"
         id="tspan8945"
         x="89.285713"
         y="165.53571">donor</tspan></text>
    <text
       xml:space="preserve"
       style="font-size:16px;font-style:normal;font-variant:normal;font-weight:500;font-stretch:normal;text-align:start;line-height:100%;letter-spacing:0px;word-spacing:0px;writing-mode:lr-tb;text-anchor:start;fill:#000000;fill-opacity:1;stroke:none;font-family:Rekha;-inkscape-font-specification:Rekha Medium"
       x="208.15764"
       y="850.19818"
       id="text8947"
       sodipodi:linespacing="100%"><tspan
         sodipodi:role="line"
         id="tspan8949"
         x="208.15764"
         y="850.19818">defect states</tspan><tspan
         sodipodi:role="line"
         x="208.15764"
         y="866.19818"
         id="tspan8951">in the ??? </tspan></text>
    <text
       xml:space="preserve"
       style="font-size:16px;font-style:normal;font-variant:normal;font-weight:500;font-stretch:normal;text-align:start;line-height:100%;letter-spacing:0px;word-spacing:0px;writing-mode:lr-tb;text-anchor:start;fill:#000000;fill-opacity:1;stroke:none;font-family:Rekha;-inkscape-font-specification:Rekha Medium"
       x="81.971642"
       y="760.33295"
       id="text8953"
       sodipodi:linespacing="100%"><tspan
         sodipodi:role="line"
         id="tspan8955"
         x="81.971642"
         y="760.33295">light</tspan></text>
    <text
       xml:space="preserve"
       style="font-size:16px;font-style:normal;font-variant:normal;font-weight:500;font-stretch:normal;text-align:start;line-height:100%;letter-spacing:0px;word-spacing:0px;writing-mode:lr-tb;text-anchor:start;fill:#000000;fill-opacity:1;stroke:none;font-family:Rekha;-inkscape-font-specification:Rekha Medium"
       x="134.1145"
       y="760.33295"
       id="text8957"
       sodipodi:linespacing="100%"><tspan
         sodipodi:role="line"
         id="tspan8959"
         x="134.1145"
         y="760.33295">no light</tspan></text>
    <path
       style="fill:none;stroke:#000000;stroke-width:1px;stroke-linecap:butt;stroke-linejoin:miter;stroke-opacity:1"
       d="m 180,100.53571 0,-20.000004"
       id="path8961"
       inkscape:connector-curvature="0"
       transform="translate(-63.028358,665.51153)" />
    <path
       style="fill:none;stroke:#000000;stroke-width:1px;stroke-linecap:butt;stroke-linejoin:miter;stroke-opacity:1"
       d="m 140,100.53571 0,-20.000004"
       id="path8963"
       inkscape:connector-curvature="0"
       transform="translate(-63.028358,665.51153)" />
    <path
       style="fill:none;stroke:#000000;stroke-width:1px;stroke-linecap:butt;stroke-linejoin:miter;stroke-opacity:1;marker-end:url(#Arrow2Lend)"
       d="m 180,110.53571 20,0"
       id="path8965"
       inkscape:connector-curvature="0"
       transform="translate(-63.028358,665.51153)" />
    <path
       sodipodi:type="arc"
       style="fill:#000000;stroke:#000000;stroke-width:1;stroke-linecap:round;stroke-miterlimit:4;stroke-opacity:1;stroke-dasharray:none;stroke-dashoffset:0"
       id="path10035"
       sodipodi:cx="5"
       sodipodi:cy="215.53571"
       sodipodi:rx="5"
       sodipodi:ry="5"
       d="m 0.00413131,215.73892 c -0.11223215,-2.75914 2.03351229,-5.08685 4.79265439,-5.19908 2.7591421,-0.11224 5.0868508,2.03351 5.199083,4.79265 0.1122323,2.75914 -2.0335123,5.08685 -4.7926544,5.19908 -2.7553015,0.11208 -5.08117256,-2.02774 -5.1986732,-4.78281"
       transform="matrix(0.67532929,0,0,0.67532929,103.23785,630.84681)"
       sodipodi:start="3.1009386"
       sodipodi:end="9.382155"
       sodipodi:open="true" />
    <g
       id="g10043"
       transform="translate(114.15094,-15.09434)">
      <path
         sodipodi:open="true"
         sodipodi:end="9.382155"
         sodipodi:start="3.1009386"
         transform="translate(-63.028358,665.51153)"
         d="m 30.004131,175.73892 c -0.112232,-2.75914 2.033513,-5.08685 4.792655,-5.19908 2.759142,-0.11224 5.086851,2.03351 5.199083,4.79265 0.112232,2.75914 -2.033513,5.08685 -4.792655,5.19908 -2.755301,0.11208 -5.081172,-2.02774 -5.198673,-4.78281"
         sodipodi:ry="5"
         sodipodi:rx="5"
         sodipodi:cy="175.53571"
         sodipodi:cx="35"
         id="path10037"
         style="fill:none;stroke:#000000;stroke-width:1;stroke-linecap:round;stroke-miterlimit:4;stroke-opacity:1;stroke-dasharray:none;stroke-dashoffset:0"
         sodipodi:type="arc" />
      <text
         sodipodi:linespacing="100%"
         id="text10039"
         y="844.86127"
         x="-32.314072"
         style="font-size:16px;font-style:normal;font-variant:normal;font-weight:500;font-stretch:normal;text-align:start;line-height:100%;letter-spacing:0px;word-spacing:0px;writing-mode:lr-tb;text-anchor:start;fill:#000000;fill-opacity:1;stroke:none;font-family:Rekha;-inkscape-font-specification:Rekha Medium"
         xml:space="preserve"><tspan
           y="844.86127"
           x="-32.314072"
           id="tspan10041"
           sodipodi:role="line">+</tspan></text>
    </g>
    <path
       style="fill:none;stroke:#000000;stroke-width:1px;stroke-linecap:butt;stroke-linejoin:miter;stroke-opacity:1;marker-end:url(#Arrow2Lend)"
       d="m 264.15094,181.29042 c -14.26781,-15.76783 -31.45113,-16.95817 -48.1132,-20.75471"
       id="path10048"
       inkscape:connector-curvature="0"
       transform="translate(-63.028358,665.51153)"
       sodipodi:nodetypes="cc" />
    <text
       xml:space="preserve"
       style="font-size:16px;font-style:normal;font-variant:normal;font-weight:500;font-stretch:normal;text-align:start;line-height:100%;letter-spacing:0px;word-spacing:0px;writing-mode:lr-tb;text-anchor:start;fill:#000000;fill-opacity:1;stroke:none;font-family:Rekha;-inkscape-font-specification:Rekha Medium"
       x="284.14145"
       y="929.8208"
       id="text10234"
       sodipodi:linespacing="100%"><tspan
         sodipodi:role="line"
         id="tspan10236"
         x="284.14145"
         y="929.8208">Y</tspan></text>
    <g
       transform="matrix(1.9708221,0,0,1.9708221,-127.60863,537.0713)"
       ns0:text="$\\mathrm{E_c}$"
       ns0:preamble=""
       id="g10459">
      <defs
         id="defs10461">
        <g
           id="g10463">
          <symbol
             style="overflow:visible"
             overflow="visible"
             id="textext-c352f9b0-0">
            <path
               inkscape:connector-curvature="0"
               style="stroke:none"
               d=""
               id="path10466" />
          </symbol>
          <symbol
             style="overflow:visible"
             overflow="visible"
             id="textext-c352f9b0-1">
            <path
               inkscape:connector-curvature="0"
               style="stroke:none"
               d="m 1.359375,-0.78125 c 0,0.359375 -0.03125,0.46875 -0.796875,0.46875 l -0.234375,0 0,0.3125 5.75,0 L 6.5,-2.578125 l -0.25,0 C 6,-1.03125 5.765625,-0.3125 4.0625,-0.3125 l -1.328125,0 C 2.265625,-0.3125 2.25,-0.375 2.25,-0.703125 l 0,-2.671875 0.890625,0 c 0.96875,0 1.078125,0.328125 1.078125,1.171875 l 0.25,0 0,-2.640625 -0.25,0 c 0,0.859375 -0.109375,1.171875 -1.078125,1.171875 l -0.890625,0 0,-2.40625 c 0,-0.328125 0.015625,-0.390625 0.484375,-0.390625 l 1.28125,0 c 1.53125,0 1.796875,0.546875 1.953125,1.9375 l 0.25,0 -0.28125,-2.25 -5.609375,0 0,0.3125 0.234375,0 c 0.765625,0 0.796875,0.109375 0.796875,0.46875 z m 0,0"
               id="path10469" />
          </symbol>
          <symbol
             style="overflow:visible"
             overflow="visible"
             id="textext-c352f9b0-2">
            <path
               inkscape:connector-curvature="0"
               style="stroke:none"
               d=""
               id="path10472" />
          </symbol>
          <symbol
             style="overflow:visible"
             overflow="visible"
             id="textext-c352f9b0-3">
            <path
               inkscape:connector-curvature="0"
               style="stroke:none"
               d="m 2.703125,-2.78125 c -0.125,0.0625 -0.1875,0.171875 -0.1875,0.3125 0,0.1875 0.125,0.328125 0.328125,0.328125 0.1875,0 0.328125,-0.125 0.328125,-0.34375 0,-0.625 -0.96875,-0.625 -1.15625,-0.625 -1.046875,0 -1.6875,0.796875 -1.6875,1.609375 0,0.875 0.734375,1.5625 1.65625,1.5625 1.03125,0 1.28125,-0.8125 1.28125,-0.90625 0,-0.078125 -0.09375,-0.078125 -0.125,-0.078125 -0.09375,0 -0.09375,0.015625 -0.125,0.125 C 2.859375,-0.375 2.484375,-0.15625 2.0625,-0.15625 c -0.484375,0 -1.109375,-0.359375 -1.109375,-1.359375 0,-0.875 0.4375,-1.375 1.078125,-1.375 0.09375,0 0.421875,0 0.671875,0.109375 z m 0,0"
               id="path10475" />
          </symbol>
        </g>
      </defs>
      <g
         id="textext-c352f9b0-4">
        <g
           style="fill:#000000;fill-opacity:1"
           id="g10478">
          <use
             height="410.53571"
             width="666.37817"
             xlink:href="#textext-c352f9b0-1"
             x="223.43201"
             y="134.765"
             id="use10480" />
        </g>
        <g
           style="fill:#000000;fill-opacity:1"
           id="g10482">
          <use
             height="410.53571"
             width="666.37817"
             xlink:href="#textext-c352f9b0-3"
             x="230.21201"
             y="136.259"
             id="use10484" />
        </g>
      </g>
    </g>
    <g
       id="g10653"
       transform="matrix(1.9708221,0,0,1.9708221,-125.85965,646.73)"
       ns0:preamble=""
       ns0:text="$\\mathrm{E_v}$">
      <defs
         id="defs10655">
        <g
           id="g10657">
          <symbol
             id="textext-8a894f4d-0"
             overflow="visible"
             style="overflow:visible">
            <path
               id="path10660"
               d=""
               style="stroke:none"
               inkscape:connector-curvature="0" />
          </symbol>
          <symbol
             id="textext-8a894f4d-1"
             overflow="visible"
             style="overflow:visible">
            <path
               id="path10663"
               d="m 1.359375,-0.78125 c 0,0.359375 -0.03125,0.46875 -0.796875,0.46875 l -0.234375,0 0,0.3125 5.75,0 L 6.5,-2.578125 l -0.25,0 C 6,-1.03125 5.765625,-0.3125 4.0625,-0.3125 l -1.328125,0 C 2.265625,-0.3125 2.25,-0.375 2.25,-0.703125 l 0,-2.671875 0.890625,0 c 0.96875,0 1.078125,0.328125 1.078125,1.171875 l 0.25,0 0,-2.640625 -0.25,0 c 0,0.859375 -0.109375,1.171875 -1.078125,1.171875 l -0.890625,0 0,-2.40625 c 0,-0.328125 0.015625,-0.390625 0.484375,-0.390625 l 1.28125,0 c 1.53125,0 1.796875,0.546875 1.953125,1.9375 l 0.25,0 -0.28125,-2.25 -5.609375,0 0,0.3125 0.234375,0 c 0.765625,0 0.796875,0.109375 0.796875,0.46875 z m 0,0"
               style="stroke:none"
               inkscape:connector-curvature="0" />
          </symbol>
          <symbol
             id="textext-8a894f4d-2"
             overflow="visible"
             style="overflow:visible">
            <path
               id="path10666"
               d=""
               style="stroke:none"
               inkscape:connector-curvature="0" />
          </symbol>
          <symbol
             id="textext-8a894f4d-3"
             overflow="visible"
             style="overflow:visible">
            <path
               id="path10669"
               d="M 3.296875,-2.328125 C 3.5,-2.75 3.84375,-2.75 3.953125,-2.75 l 0,-0.25 c -0.171875,0.015625 -0.34375,0.03125 -0.53125,0.03125 -0.1875,0 -0.4375,-0.015625 -0.625,-0.03125 l 0,0.25 c 0.296875,0.015625 0.296875,0.234375 0.296875,0.265625 0,0.03125 -0.015625,0.09375 -0.0625,0.203125 L 2.25,-0.5625 1.375,-2.453125 C 1.375,-2.46875 1.34375,-2.546875 1.34375,-2.59375 1.34375,-2.75 1.578125,-2.75 1.6875,-2.75 l 0,-0.25 c -0.015625,0 -0.5,0.03125 -0.78125,0.03125 -0.21875,0 -0.484375,-0.015625 -0.6875,-0.03125 l 0,0.25 c 0.375,0 0.46875,0.015625 0.5625,0.25 l 1.109375,2.421875 C 1.921875,0 1.96875,0.0625 2.078125,0.0625 2.21875,0.0625 2.25,0 2.28125,-0.0625 z m 0,0"
               style="stroke:none"
               inkscape:connector-curvature="0" />
          </symbol>
        </g>
      </defs>
      <g
         id="textext-8a894f4d-4">
        <g
           id="g10672"
           style="fill:#000000;fill-opacity:1">
          <use
             id="use10674"
             y="134.765"
             x="223.43201"
             xlink:href="#textext-8a894f4d-1"
             width="666.37817"
             height="410.53571" />
        </g>
        <g
           id="g10676"
           style="fill:#000000;fill-opacity:1">
          <use
             id="use10678"
             y="136.259"
             x="230.21201"
             xlink:href="#textext-8a894f4d-3"
             width="666.37817"
             height="410.53571" />
        </g>
      </g>
    </g>
  </g>
</svg>
