<?xml version="1.0" encoding="UTF-8" standalone="no"?>
<!-- Created with Inkscape (http://www.inkscape.org/) -->

<svg
   xmlns:ns0="http://www.iki.fi/pav/software/textext/"
   xmlns:dc="http://purl.org/dc/elements/1.1/"
   xmlns:cc="http://creativecommons.org/ns#"
   xmlns:rdf="http://www.w3.org/1999/02/22-rdf-syntax-ns#"
   xmlns:svg="http://www.w3.org/2000/svg"
   xmlns="http://www.w3.org/2000/svg"
   xmlns:sodipodi="http://sodipodi.sourceforge.net/DTD/sodipodi-0.dtd"
   xmlns:inkscape="http://www.inkscape.org/namespaces/inkscape"
   width="203.61192"
   height="251.56898"
   id="svg2"
   version="1.1"
   inkscape:version="0.91 r13725"
   sodipodi:docname="figure75.svg">
  <sodipodi:namedview
     id="base"
     pagecolor="#ffffff"
     bordercolor="#666666"
     borderopacity="1.0"
     inkscape:pageopacity="0.0"
     inkscape:pageshadow="2"
     inkscape:zoom="1.4"
     inkscape:cx="-65.59556"
     inkscape:cy="94.793512"
     inkscape:document-units="px"
     inkscape:current-layer="layer1"
     showgrid="true"
     units="in"
     width="11cm"
     inkscape:window-width="1536"
     inkscape:window-height="803"
     inkscape:window-x="-8"
     inkscape:window-y="-8"
     inkscape:window-maximized="1"
     fit-margin-top="0"
     fit-margin-left="0"
     fit-margin-right="0"
     fit-margin-bottom="0">
    <inkscape:grid
       type="xygrid"
       id="grid2984"
       empspacing="5"
       visible="true"
       enabled="true"
       snapvisiblegridlinesonly="true"
       spacingx="2px"
       spacingy="2px"
       originx="-167.7161"
       originy="-79.759034" />
  </sodipodi:namedview>
  <defs
     id="defs4">
    <marker
       inkscape:stockid="Arrow2Lend"
       orient="auto"
       refY="0"
       refX="0"
       id="Arrow2Lend"
       style="overflow:visible">
      <path
         id="path4191"
         style="fill-rule:evenodd;stroke-width:0.625;stroke-linejoin:round"
         d="M 8.7185878,4.0337352 -2.2072895,0.01601326 8.7185884,-4.0017078 c -1.7454984,2.3720609 -1.7354408,5.6174519 -6e-7,8.035443 z"
         transform="matrix(-1.1,0,0,-1.1,-1.1,0)"
         inkscape:connector-curvature="0" />
    </marker>
    <marker
       inkscape:stockid="Arrow2Lstart"
       orient="auto"
       refY="0"
       refX="0"
       id="Arrow2Lstart"
       style="overflow:visible">
      <path
         id="path4188"
         style="fill-rule:evenodd;stroke-width:0.625;stroke-linejoin:round"
         d="M 8.7185878,4.0337352 -2.2072895,0.01601326 8.7185884,-4.0017078 c -1.7454984,2.3720609 -1.7354408,5.6174519 -6e-7,8.035443 z"
         transform="matrix(1.1,0,0,1.1,1.1,0)"
         inkscape:connector-curvature="0" />
    </marker>
    <marker
       style="overflow:visible"
       id="Arrow2Mend"
       refX="0"
       refY="0"
       orient="auto"
       inkscape:stockid="Arrow2Mend">
      <path
         transform="scale(-0.6,-0.6)"
         d="M 8.7185878,4.0337352 -2.2072895,0.01601326 8.7185884,-4.0017078 c -1.7454984,2.3720609 -1.7354408,5.6174519 -6e-7,8.035443 z"
         style="fill-rule:evenodd;stroke-width:0.625;stroke-linejoin:round"
         id="path3966"
         inkscape:connector-curvature="0" />
    </marker>
  </defs>
  <metadata
     id="metadata7">
    <rdf:RDF>
      <cc:Work
         rdf:about="">
        <dc:format>image/svg+xml</dc:format>
        <dc:type
           rdf:resource="http://purl.org/dc/dcmitype/StillImage" />
        <dc:title></dc:title>
      </cc:Work>
    </rdf:RDF>
  </metadata>
  <g
     transform="translate(-104.68774,-744.71922)"
     id="layer1"
     inkscape:groupmode="layer"
     inkscape:label="Layer 1">
    <path
       style="fill:none;stroke:#000000;stroke-width:1px;stroke-linecap:butt;stroke-linejoin:miter;stroke-opacity:1;marker-start:url(#Arrow2Lstart);marker-end:url(#Arrow2Lend)"
       d="m 200,80.535706 0,200.000004 170,0"
       id="path18992"
       inkscape:connector-curvature="0"
       transform="translate(-63.028358,665.51153)" />
    <path
       style="fill:none;stroke:#000000;stroke-width:1px;stroke-linecap:butt;stroke-linejoin:miter;stroke-opacity:1"
       d="M 260,280.53571 320,80.535706"
       id="path18994"
       inkscape:connector-curvature="0"
       transform="translate(-63.028358,665.51153)" />
    <path
       sodipodi:type="arc"
       style="opacity:0.96116507;fill:none;stroke:#000000;stroke-width:1;stroke-miterlimit:4;stroke-dasharray:none;stroke-dashoffset:0;stroke-opacity:1"
       id="path18996"
       sodipodi:cx="15"
       sodipodi:cy="195.53571"
       sodipodi:rx="5"
       sodipodi:ry="5"
       d="m 10.006337,195.78736 a 5,5 0 0 1 4.663649,-5.24075 5,5 0 0 1 5.313316,4.5808 5,5 0 0 1 -4.49683,5.38457 5,5 0 0 1 -5.4545,-4.41174"
       transform="translate(199.1145,692.65439)"
       sodipodi:start="3.0912408"
       sodipodi:end="3.0284453"
       sodipodi:open="true" />
    <path
       transform="translate(207.68593,665.51153)"
       sodipodi:type="arc"
       style="opacity:0.96116507;fill:none;stroke:#000000;stroke-width:1;stroke-miterlimit:4;stroke-dasharray:none;stroke-dashoffset:0;stroke-opacity:1"
       id="path18996-2"
       sodipodi:cx="15"
       sodipodi:cy="195.53571"
       sodipodi:rx="5"
       sodipodi:ry="5"
       d="m 10.006337,195.78736 a 5,5 0 0 1 4.663649,-5.24075 5,5 0 0 1 5.313316,4.5808 5,5 0 0 1 -4.49683,5.38457 5,5 0 0 1 -5.4545,-4.41174"
       sodipodi:start="3.0912408"
       sodipodi:end="3.0284453"
       sodipodi:open="true" />
    <path
       transform="translate(215.54307,639.08296)"
       sodipodi:type="arc"
       style="opacity:0.96116507;fill:none;stroke:#000000;stroke-width:1;stroke-miterlimit:4;stroke-dasharray:none;stroke-dashoffset:0;stroke-opacity:1"
       id="path18996-5"
       sodipodi:cx="15"
       sodipodi:cy="195.53571"
       sodipodi:rx="5"
       sodipodi:ry="5"
       d="m 10.006337,195.78736 a 5,5 0 0 1 4.663649,-5.24075 5,5 0 0 1 5.313316,4.5808 5,5 0 0 1 -4.49683,5.38457 5,5 0 0 1 -5.4545,-4.41174"
       sodipodi:start="3.0912408"
       sodipodi:end="3.0284453"
       sodipodi:open="true" />
    <path
       transform="translate(223.40021,612.65438)"
       sodipodi:type="arc"
       style="opacity:0.96116507;fill:none;stroke:#000000;stroke-width:1;stroke-miterlimit:4;stroke-dasharray:none;stroke-dashoffset:0;stroke-opacity:1"
       id="path18996-7"
       sodipodi:cx="15"
       sodipodi:cy="195.53571"
       sodipodi:rx="5"
       sodipodi:ry="5"
       d="m 10.006337,195.78736 a 5,5 0 0 1 4.663649,-5.24075 5,5 0 0 1 5.313316,4.5808 5,5 0 0 1 -4.49683,5.38457 5,5 0 0 1 -5.4545,-4.41174"
       sodipodi:start="3.0912408"
       sodipodi:end="3.0284453"
       sodipodi:open="true" />
    <path
       transform="translate(231.25735,586.22582)"
       sodipodi:type="arc"
       style="opacity:0.96116507;fill:none;stroke:#000000;stroke-width:1;stroke-miterlimit:4;stroke-dasharray:none;stroke-dashoffset:0;stroke-opacity:1"
       id="path18996-9"
       sodipodi:cx="15"
       sodipodi:cy="195.53571"
       sodipodi:rx="5"
       sodipodi:ry="5"
       d="m 10.006337,195.78736 a 5,5 0 0 1 4.663649,-5.24075 5,5 0 0 1 5.313316,4.5808 5,5 0 0 1 -4.49683,5.38457 5,5 0 0 1 -5.4545,-4.41174"
       sodipodi:start="3.0912408"
       sodipodi:end="3.0284453"
       sodipodi:open="true" />
    <path
       transform="translate(238.40021,561.9401)"
       sodipodi:type="arc"
       style="opacity:0.96116507;fill:none;stroke:#000000;stroke-width:1;stroke-miterlimit:4;stroke-dasharray:none;stroke-dashoffset:0;stroke-opacity:1"
       id="path18996-71"
       sodipodi:cx="15"
       sodipodi:cy="195.53571"
       sodipodi:rx="5"
       sodipodi:ry="5"
       d="m 10.006337,195.78736 a 5,5 0 0 1 4.663649,-5.24075 5,5 0 0 1 5.313316,4.5808 5,5 0 0 1 -4.49683,5.38457 5,5 0 0 1 -5.4545,-4.41174"
       sodipodi:start="3.0912408"
       sodipodi:end="3.0284453"
       sodipodi:open="true" />
    <g
       style="font-style:normal;font-variant:normal;font-weight:normal;font-stretch:normal;letter-spacing:normal;word-spacing:normal;text-anchor:start;fill:none;stroke:#000000;stroke-linecap:butt;stroke-linejoin:miter;stroke-miterlimit:10.43299961;stroke-dasharray:none;stroke-dashoffset:0;stroke-opacity:1"
       id="content"
       transform="matrix(1.949848,0,0,-1.949848,-250.54712,2244.3941)"
       xml:space="preserve"
       stroke-miterlimit="10.433"
       font-style="normal"
       font-variant="normal"
       font-weight="normal"
       font-stretch="normal"
       font-size-adjust="none"
       letter-spacing="normal"
       word-spacing="normal"
       ns0:text="$\\phi_B$"
       ns0:preamble=""><path
         style="fill:#000000;stroke-width:0"
         inkscape:connector-curvature="0"
         d="m 227.78,663.89 0,0 0,0 0,0 0,0.01 0,0 0,0 0,0 0,0 0,0.01 0,0 0,0 0,0.01 0.01,0 0,0.01 0,0.01 0,0 0,0.01 0,0 0,0.01 0.01,0.02 0,0 0,0.01 0,0 0,0.01 0,0 0.01,0.01 0,0 0,0.01 0,0 0,0 0,0 0,0 0,0 0,0.01 0,0 0,0 0,0 0,0 0,0 c 0,0.01 0,0.1 -0.12,0.1 -0.1,0 -0.11,-0.03 -0.15,-0.2 l -0.58,-2.29 c -1.58,-0.05 -3.04,-1.37 -3.04,-2.73 0,-0.94 0.7,-1.73 1.91,-1.79 l 0.05,0.21 c -0.6,0.03 -1.31,0.38 -1.31,1.38 0,1.19 0.85,2.58 2.33,2.71 l -1.02,-4.09 -0.05,-0.21 c -0.08,-0.31 -0.15,-0.63 -0.23,-0.94 -0.12,-0.46 -0.22,-0.84 -0.22,-0.87 0,-0.1 0.07,-0.11 0.12,-0.11 0.05,0 0.07,0.01 0.1,0.04 0.02,0.02 0.08,0.26 0.11,0.4 l 0.38,1.48 0.05,0.21 1.02,4.09 c 0.76,-0.04 1.33,-0.5 1.33,-1.37 0,-1.18 -0.86,-2.6 -2.35,-2.72 l -0.05,-0.21 c 1.6,0.04 3.04,1.39 3.04,2.72 0,0.78 -0.52,1.7 -1.91,1.8 z"
         id="path19061" /><path
         style="fill:#000000;stroke-width:0"
         inkscape:connector-curvature="0"
         d="m 230.69,656.28 0,-0.02 -0.01,-0.02 -0.01,-0.02 0,-0.02 -0.01,-0.01 0,-0.02 -0.01,-0.02 -0.01,-0.01 0,-0.02 -0.01,-0.01 -0.01,-0.01 -0.01,-0.01 -0.01,-0.01 -0.01,-0.01 -0.01,-0.01 -0.02,-0.01 -0.01,-0.01 -0.02,-0.01 -0.02,0 -0.02,-0.01 -0.02,0 -0.01,-0.01 -0.01,0 -0.02,0 -0.01,0 -0.01,0 -0.02,-0.01 -0.01,0 -0.02,0 -0.01,0 -0.02,0 -0.02,0 -0.02,0 -0.01,-0.01 -0.02,0 -0.02,0 -0.02,0 -0.03,0 -0.02,0 -0.02,0 -0.02,0 -0.03,0 -0.02,0 c -0.12,0 -0.21,0 -0.21,-0.15 0,-0.1 0.08,-0.1 0.21,-0.1 l 2.69,0 c 1.17,0 2.07,0.8 2.07,1.49 0,0.49 -0.45,0.92 -1.19,0.99 0.84,0.16 1.55,0.69 1.55,1.28 0,0.53 -0.54,0.99 -1.44,0.99 l -0.12,-0.25 c 0.71,0 0.87,-0.47 0.87,-0.73 0,-0.56 -0.63,-1.2 -1.56,-1.2 l -1.14,0 -0.05,-0.2 1.47,0 c 0.66,0 0.91,-0.43 0.91,-0.83 0,-0.69 -0.71,-1.29 -1.55,-1.29 l -1.12,0 c -0.21,0 -0.22,0.01 -0.22,0.07 0,0.01 0,0.04 0.03,0.15 l 0.48,1.9 0.05,0.2 0.42,1.69 c 0.06,0.22 0.06,0.24 0.36,0.24 l 1.05,0 0.12,0.25 -2.54,0 c -0.13,0 -0.22,0 -0.22,-0.15 0,-0.1 0.08,-0.1 0.22,-0.1 0.01,0 0.14,0 0.27,-0.01 0.14,-0.02 0.16,-0.03 0.16,-0.1 0,-0.02 0,-0.05 -0.03,-0.15 z"
         id="path19063" /></g>    <text
       sodipodi:linespacing="100%"
       id="text19082"
       y="993.19006"
       x="160.54308"
       style="font-style:normal;font-variant:normal;font-weight:500;font-stretch:normal;font-size:12.5px;line-height:100%;font-family:Rekha;-inkscape-font-specification:'Rekha Medium';text-align:start;letter-spacing:0px;word-spacing:0px;writing-mode:lr-tb;text-anchor:start;fill:#000000;fill-opacity:1;stroke:none"
       xml:space="preserve"><tspan
         y="993.19006"
         x="160.54308"
         id="tspan19084"
         sodipodi:role="line"
         style="font-size:15px">Photon Energy</tspan></text>
    <text
       xml:space="preserve"
       style="font-style:normal;font-weight:normal;font-size:15px;line-height:125%;font-family:sans-serif;letter-spacing:0px;word-spacing:0px;fill:#000000;fill-opacity:1;stroke:none;stroke-width:1px;stroke-linecap:butt;stroke-linejoin:miter;stroke-opacity:1"
       x="-922.98199"
       y="120.18481"
       id="text4190"
       sodipodi:linespacing="125%"
       transform="matrix(0,-1,1,0,0,0)"><tspan
         sodipodi:role="line"
         id="tspan4196"
         x="-922.98199"
         y="120.18481">Response<tspan
   style="font-size:12.5px;baseline-shift:super"
   id="tspan4200">1/2</tspan> (μA<tspan
   style="font-size:12.5px;baseline-shift:super"
   id="tspan4198">1/2</tspan>)</tspan></text>
  </g>
</svg>
