<?xml version="1.0" encoding="UTF-8" standalone="no"?>
<!-- Created with Inkscape (http://www.inkscape.org/) -->

<svg
   xmlns:dc="http://purl.org/dc/elements/1.1/"
   xmlns:cc="http://creativecommons.org/ns#"
   xmlns:rdf="http://www.w3.org/1999/02/22-rdf-syntax-ns#"
   xmlns:svg="http://www.w3.org/2000/svg"
   xmlns="http://www.w3.org/2000/svg"
   xmlns:sodipodi="http://sodipodi.sourceforge.net/DTD/sodipodi-0.dtd"
   xmlns:inkscape="http://www.inkscape.org/namespaces/inkscape"
   width="115.85378mm"
   height="17.059547mm"
   viewBox="0 0 410.5055 60.447215"
   id="svg2"
   version="1.1"
   inkscape:version="0.91 r13725"
   sodipodi:docname="figure161b.svg">
  <sodipodi:namedview
     id="base"
     pagecolor="#ffffff"
     bordercolor="#666666"
     borderopacity="1.0"
     inkscape:pageopacity="0.0"
     inkscape:pageshadow="2"
     inkscape:zoom="1.4"
     inkscape:cx="250.05028"
     inkscape:cy="-7.1428582"
     inkscape:document-units="px"
     inkscape:current-layer="layer1"
     showgrid="false"
     inkscape:window-width="1536"
     inkscape:window-height="803"
     inkscape:window-x="-8"
     inkscape:window-y="-8"
     inkscape:window-maximized="1"
     fit-margin-top="0"
     fit-margin-left="0"
     fit-margin-right="0"
     fit-margin-bottom="0" />
  <defs
     id="defs4" />
  <metadata
     id="metadata7">
    <rdf:RDF>
      <cc:Work
         rdf:about="">
        <dc:format>image/svg+xml</dc:format>
        <dc:type
           rdf:resource="http://purl.org/dc/dcmitype/StillImage" />
        <dc:title></dc:title>
      </cc:Work>
    </rdf:RDF>
  </metadata>
  <g
     id="layer1"
     inkscape:groupmode="layer"
     inkscape:label="Layer 1"
     transform="translate(-106.83315,-464.77214)">
    <path
       inkscape:connector-curvature="0"
       id="path3336"
       d="m 230,525.21935 0,-60 -12.14286,24.28571"
       style="fill:none;fill-rule:evenodd;stroke:#000000;stroke-width:2;stroke-linecap:butt;stroke-linejoin:miter;stroke-miterlimit:4;stroke-dasharray:none;stroke-opacity:1" />
    <text
       sodipodi:linespacing="125%"
       id="text3377"
       y="513.45404"
       x="103.57143"
       style="font-style:normal;font-weight:normal;font-size:40px;line-height:125%;font-family:sans-serif;letter-spacing:0px;word-spacing:0px;fill:#000000;fill-opacity:1;stroke:none;stroke-width:1px;stroke-linecap:butt;stroke-linejoin:miter;stroke-opacity:1"
       xml:space="preserve"><tspan
         y="513.45404"
         x="103.57143"
         id="tspan3379"
         sodipodi:role="line">3d<tspan
   style="font-size:64.99999762%;baseline-shift:super"
   id="tspan4155">1</tspan></tspan></text>
    <g
       id="g3397"
       transform="translate(3.714286,151.88267)">
      <g
         word-spacing="normal"
         letter-spacing="normal"
         font-size-adjust="none"
         font-stretch="normal"
         font-weight="normal"
         font-variant="normal"
         font-style="normal"
         stroke-miterlimit="10.433"
         xml:space="preserve"
         transform="matrix(1.0629921,0,0,-1.0629921,-186.02362,789.27165)"
         id="content"
         style="font-style:normal;font-variant:normal;font-weight:normal;font-stretch:normal;letter-spacing:normal;word-spacing:normal;text-anchor:start;fill:none;fill-opacity:1;fill-rule:evenodd;stroke:#000000;stroke-linecap:butt;stroke-linejoin:miter;stroke-miterlimit:10.43299961;stroke-dasharray:none;stroke-dashoffset:0;stroke-opacity:1"><path
           id="path3400"
           d="m 491.69,422.5 0.4,-0.34 0.4,-0.31 0.42,-0.31 0.41,-0.3 0.42,-0.28 0.42,-0.27 0.42,-0.26 0.42,-0.25 0.41,-0.23 0.4,-0.23 0.39,-0.21 0.39,-0.19 0.37,-0.19 0.35,-0.17 0.18,-0.08 0.16,-0.08 0.17,-0.08 0.15,-0.07 c -1.79,-0.79 -4.23,-2.09 -6.28,-3.83 l -31.64,0 c -0.84,0 -1.8,0 -1.8,-1 0,-1 0.91,-1 1.75,-1 l 29.44,0 c -2.39,-2.29 -4.97,-6.67 -4.97,-7.32 0,-0.55 0.64,-0.55 0.94,-0.55 0.41,0 0.75,0 0.95,0.41 1.05,1.89 2.44,4.53 5.68,7.42 3.43,3.03 6.78,4.37 9.37,5.12 0.84,0.3 0.89,0.36 0.98,0.46 0.11,0.04 0.11,0.2 0.11,0.29 0,0.11 0,0.21 -0.04,0.3 l -0.16,0.11 c -0.09,0.05 -0.16,0.09 -1.09,0.39 -6.74,2 -11.71,6.53 -14.5,11.86 -0.55,1 -0.6,1.05 -1.3,1.05 -0.3,0 -0.94,0 -0.94,-0.55 0,-0.66 2.53,-4.99 4.97,-7.33 l -29.44,0 c -0.84,0 -1.75,0 -1.75,-1 0,-0.98 0.96,-0.98 1.8,-0.98 z"
           inkscape:connector-curvature="0"
           style="fill:#000000;stroke-width:0" /></g>    </g>
    <text
       sodipodi:linespacing="125%"
       id="text3377-3"
       y="510.70746"
       x="390.75662"
       style="font-style:normal;font-weight:normal;font-size:40px;line-height:125%;font-family:sans-serif;letter-spacing:0px;word-spacing:0px;fill:#000000;fill-opacity:1;stroke:none;stroke-width:1px;stroke-linecap:butt;stroke-linejoin:miter;stroke-opacity:1"
       xml:space="preserve"><tspan
         y="510.70746"
         x="390.75662"
         id="tspan3379-6"
         sodipodi:role="line">S=1/2</tspan></text>
  </g>
</svg>
