<?xml version="1.0" encoding="UTF-8" standalone="no"?>
<!-- Created with Inkscape (http://www.inkscape.org/) -->

<svg
   xmlns:ns0="http://www.iki.fi/pav/software/textext/"
   xmlns:dc="http://purl.org/dc/elements/1.1/"
   xmlns:cc="http://creativecommons.org/ns#"
   xmlns:rdf="http://www.w3.org/1999/02/22-rdf-syntax-ns#"
   xmlns:svg="http://www.w3.org/2000/svg"
   xmlns="http://www.w3.org/2000/svg"
   xmlns:sodipodi="http://sodipodi.sourceforge.net/DTD/sodipodi-0.dtd"
   xmlns:inkscape="http://www.inkscape.org/namespaces/inkscape"
   width="320.99033"
   height="194.90189"
   id="svg2"
   version="1.1"
   inkscape:version="0.48.4 r9939"
   sodipodi:docname="New document 1">
  <sodipodi:namedview
     id="base"
     pagecolor="#ffffff"
     bordercolor="#666666"
     borderopacity="1.0"
     inkscape:pageopacity="0.0"
     inkscape:pageshadow="2"
     inkscape:zoom="1.4"
     inkscape:cx="115.55048"
     inkscape:cy="95.299035"
     inkscape:document-units="px"
     inkscape:current-layer="layer1"
     showgrid="true"
     units="in"
     width="11cm"
     inkscape:window-width="1274"
     inkscape:window-height="536"
     inkscape:window-x="0"
     inkscape:window-y="428"
     inkscape:window-maximized="0"
     fit-margin-top="0"
     fit-margin-left="0"
     fit-margin-right="0"
     fit-margin-bottom="0"
     inkscape:snap-grids="false">
    <inkscape:grid
       spacingy="2px"
       spacingx="2px"
       snapvisiblegridlinesonly="true"
       enabled="true"
       visible="true"
       empspacing="5"
       id="grid2984"
       type="xygrid"
       originx="-110.33769px"
       originy="-135.59812px" />
  </sodipodi:namedview>
  <defs
     id="defs4">
    <marker
       inkscape:stockid="Arrow2Lend"
       orient="auto"
       refY="0"
       refX="0"
       id="Arrow2Lend"
       style="overflow:visible">
      <path
         id="path3881"
         style="fill-rule:evenodd;stroke-width:0.625;stroke-linejoin:round"
         d="M 8.7185878,4.0337352 -2.2072895,0.01601326 8.7185884,-4.0017078 c -1.7454984,2.3720609 -1.7354408,5.6174519 -6e-7,8.035443 z"
         transform="matrix(-1.1,0,0,-1.1,-1.1,0)"
         inkscape:connector-curvature="0" />
    </marker>
    <marker
       inkscape:stockid="Arrow2Mend"
       orient="auto"
       refY="0"
       refX="0"
       id="Arrow2Mend"
       style="overflow:visible">
      <path
         inkscape:connector-curvature="0"
         id="path3966"
         style="fill-rule:evenodd;stroke-width:0.625;stroke-linejoin:round"
         d="M 8.7185878,4.0337352 -2.2072895,0.01601326 8.7185884,-4.0017078 c -1.7454984,2.3720609 -1.7354408,5.6174519 -6e-7,8.035443 z"
         transform="scale(-0.6,-0.6)" />
    </marker>
  </defs>
  <metadata
     id="metadata7">
    <rdf:RDF>
      <cc:Work
         rdf:about="">
        <dc:format>image/svg+xml</dc:format>
        <dc:type
           rdf:resource="http://purl.org/dc/dcmitype/StillImage" />
        <dc:title></dc:title>
      </cc:Work>
    </rdf:RDF>
  </metadata>
  <g
     inkscape:label="Layer 1"
     inkscape:groupmode="layer"
     id="layer1"
     transform="translate(-47.309328,-745.54724)">
    <path
       transform="translate(-63.028358,665.51153)"
       inkscape:connector-curvature="0"
       id="path2985"
       d="m 170,90.535706 0,180.000004 260,0"
       style="fill:none;stroke:#000000;stroke-width:1px;stroke-linecap:butt;stroke-linejoin:miter;stroke-opacity:1;marker-end:url(#Arrow2Lend)" />
    <path
       sodipodi:nodetypes="cc"
       transform="translate(-63.028358,665.51153)"
       inkscape:connector-curvature="0"
       id="path2987"
       d="m 170,120.53571 c 143.15203,-5.18226 182.0508,46.58507 190,150"
       style="fill:none;stroke:#000000;stroke-width:1px;stroke-linecap:butt;stroke-linejoin:miter;stroke-opacity:1" />
    <path
       sodipodi:nodetypes="ccc"
       transform="translate(-63.028358,665.51153)"
       inkscape:connector-curvature="0"
       id="path2989"
       d="m 190,110.53571 0,-30.000004 -5,10"
       style="fill:none;stroke:#000000;stroke-width:1px;stroke-linecap:butt;stroke-linejoin:miter;stroke-opacity:1" />
    <path
       sodipodi:nodetypes="ccc"
       inkscape:connector-curvature="0"
       id="path2989-0"
       d="m 136.6145,776.76152 0,-30 5,10"
       style="fill:none;stroke:#000000;stroke-width:1px;stroke-linecap:butt;stroke-linejoin:miter;stroke-opacity:1" />
    <text
       transform="translate(-63.028358,665.51153)"
       sodipodi:linespacing="100%"
       id="text3009"
       y="100.53571"
       x="219.28571"
       style="font-size:16px;font-style:normal;font-variant:normal;font-weight:500;font-stretch:normal;text-align:start;line-height:100%;letter-spacing:0px;word-spacing:0px;writing-mode:lr-tb;text-anchor:start;fill:#000000;fill-opacity:1;stroke:none;font-family:Rekha;-inkscape-font-specification:Rekha Medium"
       xml:space="preserve"><tspan
         y="100.53571"
         x="219.28571"
         id="tspan3011"
         sodipodi:role="line">ordered</tspan></text>
    <text
       sodipodi:linespacing="100%"
       id="text3013"
       y="858.19006"
       x="315.54309"
       style="font-size:16px;font-style:normal;font-variant:normal;font-weight:500;font-stretch:normal;text-align:start;line-height:100%;letter-spacing:0px;word-spacing:0px;writing-mode:lr-tb;text-anchor:start;fill:#000000;fill-opacity:1;stroke:none;font-family:Rekha;-inkscape-font-specification:Rekha Medium"
       xml:space="preserve"><tspan
         y="858.19006"
         x="315.54309"
         id="tspan3015"
         sodipodi:role="line">???</tspan></text>
    <g
       ns0:preamble=""
       ns0:text="$\\mathrm{{M(T)} \\over {M(O)}}$"
       word-spacing="normal"
       letter-spacing="normal"
       font-size-adjust="none"
       font-stretch="normal"
       font-weight="normal"
       font-variant="normal"
       font-style="normal"
       stroke-miterlimit="10.433"
       xml:space="preserve"
       transform="matrix(1.9749408,-0.34368025,-0.34368025,-1.9749408,-168.44709,2181.456)"
       id="content"
       style="font-style:normal;font-variant:normal;font-weight:normal;font-stretch:normal;letter-spacing:normal;word-spacing:normal;text-anchor:start;fill:none;stroke:#000000;stroke-linecap:butt;stroke-linejoin:miter;stroke-miterlimit:10.43299961;stroke-opacity:1;stroke-dasharray:none;stroke-dashoffset:0"><path
         id="path3034"
         d="m 226.76,666.56 -0.01,0.02 0,0.01 -0.01,0.01 -0.01,0.01 0,0.02 -0.01,0 0,0.01 -0.01,0.01 -0.01,0.01 0,0.01 -0.01,0 -0.01,0.01 0,0 -0.01,0.01 -0.01,0 0,0.01 -0.01,0 -0.01,0 -0.01,0.01 -0.01,0 0,0 -0.01,0 -0.01,0 -0.01,0 -0.01,0.01 -0.01,0 -0.01,0 -0.02,0 -0.01,0 -0.01,0 -0.01,0 -0.02,0 h -1.22 v -0.25 h 0.17 c 0.54,0 0.55,-0.07 0.55,-0.32 v -3.43 c 0,-0.19 0,-0.5 -0.72,-0.5 v -0.25 c 0.29,0.02 0.57,0.03 0.85,0.03 0.29,0 0.57,-0.01 0.85,-0.03 v 0.25 c -0.71,0 -0.71,0.31 -0.71,0.5 v 3.66 l 0,0.01 1.81,-4.26 c 0.04,-0.09 0.07,-0.16 0.18,-0.16 0.05,0 0.11,0.02 0.16,0.14 l 1.84,4.35 0.01,-0.01 v -3.92 c 0,-0.24 -0.01,-0.31 -0.55,-0.31 h -0.17 v -0.25 c 0.34,0.01 0.73,0.03 1.01,0.03 0.29,0 0.68,-0.02 1.01,-0.03 v 0.25 h -0.16 c -0.54,0 -0.55,0.07 -0.55,0.31 v 3.62 c 0,0.24 0.01,0.32 0.55,0.32 h 0.16 v 0.25 h -1.21 c -0.14,0 -0.2,0 -0.26,-0.14 l -1.67,-3.94 z"
         inkscape:connector-curvature="0"
         style="fill:#000000;stroke-width:0" /><path
         id="path3036"
         d="m 234.48,667.18 -0.12,-0.09 -0.11,-0.09 -0.11,-0.09 -0.11,-0.1 -0.1,-0.1 -0.09,-0.1 -0.09,-0.11 -0.09,-0.1 -0.08,-0.11 -0.07,-0.11 -0.07,-0.11 -0.07,-0.11 -0.06,-0.12 -0.06,-0.11 -0.05,-0.12 -0.05,-0.11 -0.05,-0.12 -0.04,-0.11 -0.03,-0.12 -0.04,-0.12 -0.03,-0.11 -0.03,-0.12 -0.02,-0.11 -0.02,-0.12 -0.02,-0.11 -0.02,-0.11 -0.01,-0.11 -0.01,-0.11 -0.01,-0.11 0,-0.1 -0.01,-0.11 0,-0.1 c 0,-0.98 0.29,-2.5 1.67,-3.47 0.06,0 0.14,0 0.14,0.08 0,0.04 -0.02,0.06 -0.07,0.1 -0.93,0.84 -1.27,2.02 -1.27,3.29 0,1.87 0.72,2.79 1.29,3.31 0.03,0.02 0.05,0.05 0.05,0.08 0,0.08 -0.08,0.08 -0.14,0.08 z"
         inkscape:connector-curvature="0"
         style="fill:#000000;stroke-width:0" /><path
         id="path3038"
         d="m 240.31,666.67 h -4.71 l -0.14,-1.6 h 0.23 c 0.1,1.2 0.3,1.35 1.38,1.35 0.14,0 0.34,0 0.41,-0.01 0.15,-0.03 0.15,-0.1 0.15,-0.26 v -3.61 c 0,-0.23 0,-0.32 -0.72,-0.32 h -0.3 v -0.25 c 0.34,0.03 0.99,0.03 1.35,0.03 0.37,0 1.01,0 1.35,-0.03 v 0.25 h -0.29 c -0.73,0 -0.73,0.09 -0.73,0.32 v 3.61 c 0,0.16 0,0.23 0.16,0.26 0.06,0.01 0.27,0.01 0.41,0.01 0.39,0 0.68,0 0.93,-0.14 0.31,-0.19 0.36,-0.63 0.37,-0.67 l 0.06,-0.54 h 0.24 z"
         inkscape:connector-curvature="0"
         style="fill:#000000;stroke-width:0" /><path
         id="path3040"
         d="m 241.44,667.18 -0.01,0 0,0 -0.01,0 0,0 -0.01,0 0,0 -0.01,0 0,0 -0.01,0 -0.01,0 0,0 -0.01,0 0,0 -0.01,0 0,-0.01 -0.01,0 0,0 -0.01,0 0,0 -0.01,-0.01 0,0 -0.01,0 0,-0.01 0,0 0,0 0,0 -0.01,-0.01 0,0 0,0 0,0 0,-0.01 0,0 0,0 0,-0.01 0,0 0,0 -0.01,-0.01 0,0 0,0 0,-0.01 0,0 c 0,-0.03 0.02,-0.06 0.07,-0.1 0.6,-0.55 1.26,-1.49 1.26,-3.29 0,-1.45 -0.45,-2.55 -1.2,-3.23 -0.12,-0.12 -0.13,-0.13 -0.13,-0.16 0,-0.04 0.02,-0.08 0.1,-0.08 0.08,0 0.74,0.46 1.2,1.33 0.31,0.57 0.51,1.32 0.51,2.14 0,0.98 -0.29,2.5 -1.67,3.47 z"
         inkscape:connector-curvature="0"
         style="fill:#000000;stroke-width:0" /><line
         id="line3042"
         y2="659.63"
         x2="244.14"
         y1="659.63"
         x1="224.63"
         style="stroke-width:0.398" /><path
         id="path3044"
         d="m 226.54,658.3 0,0.01 -0.01,0.01 0,0.02 -0.01,0.01 -0.01,0.01 0,0.01 -0.01,0.01 0,0 -0.01,0.01 -0.01,0.01 0,0.01 -0.01,0 -0.01,0.01 0,0 -0.01,0.01 -0.01,0 -0.01,0 0,0.01 -0.01,0 -0.01,0 -0.01,0 -0.01,0 -0.01,0.01 -0.01,0 -0.01,0 -0.01,0 -0.01,0 -0.01,0 -0.01,0 -0.01,0 -0.02,0 -0.01,0 h -1.22 v -0.25 h 0.17 c 0.53,0 0.55,-0.07 0.55,-0.31 v -3.44 c 0,-0.19 0,-0.5 -0.72,-0.5 v -0.25 c 0.29,0.02 0.56,0.03 0.85,0.03 0.29,0 0.56,-0.01 0.85,-0.03 v 0.25 c -0.72,0 -0.72,0.31 -0.72,0.5 v 3.67 l 0.01,0 1.81,-4.26 c 0.03,-0.08 0.07,-0.16 0.17,-0.16 0.05,0 0.12,0.02 0.17,0.15 l 1.84,4.34 0.01,-0.01 v -3.92 c 0,-0.23 -0.02,-0.31 -0.55,-0.31 h -0.17 v -0.25 c 0.33,0.01 0.72,0.03 1.01,0.03 0.28,0 0.67,-0.02 1.01,-0.03 v 0.25 h -0.17 c -0.53,0 -0.55,0.07 -0.55,0.31 v 3.63 c 0,0.23 0.02,0.31 0.55,0.31 h 0.17 v 0.25 h -1.21 c -0.14,0 -0.21,0 -0.26,-0.14 l -1.67,-3.94 z"
         inkscape:connector-curvature="0"
         style="fill:#000000;stroke-width:0" /><path
         id="path3046"
         d="m 234.27,658.91 -0.12,-0.08 -0.12,-0.1 -0.11,-0.09 -0.1,-0.1 -0.1,-0.1 -0.1,-0.1 -0.09,-0.1 -0.08,-0.11 -0.08,-0.11 -0.08,-0.11 -0.07,-0.11 -0.06,-0.11 -0.06,-0.12 -0.06,-0.11 -0.05,-0.11 -0.05,-0.12 -0.05,-0.12 -0.04,-0.11 -0.04,-0.12 -0.03,-0.12 -0.03,-0.11 -0.03,-0.12 -0.03,-0.11 -0.02,-0.12 -0.02,-0.11 -0.01,-0.11 -0.02,-0.11 -0.01,-0.11 0,-0.11 -0.01,-0.1 0,-0.1 0,-0.1 c 0,-0.98 0.29,-2.51 1.67,-3.48 0.05,0 0.14,0 0.14,0.08 0,0.04 -0.02,0.06 -0.07,0.11 -0.93,0.83 -1.27,2.01 -1.27,3.28 0,1.88 0.72,2.79 1.29,3.31 0.03,0.03 0.05,0.05 0.05,0.08 0,0.08 -0.09,0.08 -0.14,0.08 z"
         inkscape:connector-curvature="0"
         style="fill:#000000;stroke-width:0" /><path
         id="path3048"
         d="m 240.52,656.05 0,0.13 -0.01,0.13 -0.02,0.12 -0.02,0.13 -0.03,0.12 -0.03,0.12 -0.04,0.12 -0.05,0.11 -0.05,0.12 -0.06,0.11 -0.06,0.1 -0.06,0.1 -0.08,0.1 -0.07,0.1 -0.08,0.09 -0.09,0.09 -0.09,0.09 -0.09,0.08 -0.1,0.07 -0.1,0.07 -0.1,0.07 -0.11,0.06 -0.11,0.06 -0.11,0.05 -0.12,0.04 -0.12,0.04 -0.12,0.04 -0.12,0.03 -0.13,0.02 -0.13,0.02 -0.13,0.01 -0.13,0 v -0.22 c 0.79,0 1.82,-0.59 1.82,-2.21 0,-1.71 -1.01,-2.37 -1.82,-2.37 h 0 c -0.82,0 -1.82,0.66 -1.82,2.37 0,1.62 1.02,2.21 1.82,2.21 v 0.22 c -1.43,0 -2.56,-1.15 -2.56,-2.54 0,-1.36 1.13,-2.49 2.56,-2.49 1.43,0 2.56,1.13 2.56,2.49 z"
         inkscape:connector-curvature="0"
         style="fill:#000000;stroke-width:0" /><path
         id="path3050"
         d="m 241.65,658.91 0,0 -0.01,0 0,0 -0.01,0 0,0 -0.01,0 0,0 -0.01,0 -0.01,0 0,0 -0.01,0 0,0 -0.01,0 0,0 -0.01,0 0,-0.01 -0.01,0 0,0 -0.01,0 0,-0.01 -0.01,0 0,0 0,-0.01 -0.01,0 0,0 0,0 0,0 0,-0.01 0,0 0,0 -0.01,0 0,-0.01 0,0 0,0 0,-0.01 0,0 0,0 0,-0.01 0,0 0,0 0,-0.01 c 0,-0.03 0.02,-0.05 0.06,-0.1 0.6,-0.55 1.27,-1.49 1.27,-3.28 0,-1.46 -0.45,-2.56 -1.2,-3.24 -0.12,-0.12 -0.13,-0.12 -0.13,-0.16 0,-0.03 0.02,-0.08 0.09,-0.08 0.08,0 0.74,0.46 1.21,1.33 0.3,0.57 0.5,1.32 0.5,2.14 0,0.98 -0.29,2.5 -1.67,3.47 z"
         inkscape:connector-curvature="0"
         style="fill:#000000;stroke-width:0" /></g>    <path
       style="fill:none;stroke:#000000;stroke-width:1px;stroke-linecap:butt;stroke-linejoin:miter;stroke-opacity:1;marker-end:url(#Arrow2Lend)"
       d="m 310.54307,887.47581 -15,17.14286"
       id="path3076"
       inkscape:connector-curvature="0" />
    <path
       style="fill:none;stroke:#000000;stroke-width:1px;stroke-linecap:butt;stroke-linejoin:miter;stroke-opacity:1;marker-end:url(#Arrow2Lend)"
       d="m 321.97164,908.90438 19.28571,16.42857"
       id="path3078"
       inkscape:connector-curvature="0" />
    <path
       style="fill:none;stroke:#000000;stroke-width:1px;stroke-linecap:butt;stroke-linejoin:miter;stroke-opacity:1"
       d="m 306.92013,912.45359 17.96016,-18.52698 -11.23801,2.98519"
       id="path3080"
       inkscape:connector-curvature="0" />
  </g>
</svg>
