<?xml version="1.0" encoding="UTF-8" standalone="no"?>
<!-- Created with Inkscape (http://www.inkscape.org/) -->

<svg
   xmlns:ns0="http://www.iki.fi/pav/software/textext/"
   xmlns:dc="http://purl.org/dc/elements/1.1/"
   xmlns:cc="http://creativecommons.org/ns#"
   xmlns:rdf="http://www.w3.org/1999/02/22-rdf-syntax-ns#"
   xmlns:svg="http://www.w3.org/2000/svg"
   xmlns="http://www.w3.org/2000/svg"
   xmlns:xlink="http://www.w3.org/1999/xlink"
   xmlns:sodipodi="http://sodipodi.sourceforge.net/DTD/sodipodi-0.dtd"
   xmlns:inkscape="http://www.inkscape.org/namespaces/inkscape"
   width="358.92358"
   height="161"
   id="svg2"
   version="1.1"
   inkscape:version="0.48.4 r9939"
   sodipodi:docname="New document 39">
  <sodipodi:namedview
     id="base"
     pagecolor="#ffffff"
     bordercolor="#666666"
     borderopacity="1.0"
     inkscape:pageopacity="0.0"
     inkscape:pageshadow="2"
     inkscape:zoom="1.4"
     inkscape:cx="122.85221"
     inkscape:cy="78.446861"
     inkscape:document-units="px"
     inkscape:current-layer="layer1"
     showgrid="true"
     units="in"
     width="11cm"
     inkscape:window-width="1274"
     inkscape:window-height="598"
     inkscape:window-x="0"
     inkscape:window-y="366"
     inkscape:window-maximized="0"
     fit-margin-top="0"
     fit-margin-left="0"
     fit-margin-right="0"
     fit-margin-bottom="0">
    <inkscape:grid
       spacingy="2px"
       spacingx="2px"
       snapvisiblegridlinesonly="true"
       enabled="true"
       visible="true"
       empspacing="5"
       id="grid2984"
       type="xygrid"
       originx="-163.21705px"
       originy="-149.5px" />
  </sodipodi:namedview>
  <defs
     id="defs4">
    <marker
       inkscape:stockid="Arrow2Mend"
       orient="auto"
       refY="0"
       refX="0"
       id="Arrow2Mend"
       style="overflow:visible">
      <path
         inkscape:connector-curvature="0"
         id="path3966"
         style="fill-rule:evenodd;stroke-width:0.625;stroke-linejoin:round"
         d="M 8.7185878,4.0337352 -2.2072895,0.01601326 8.7185884,-4.0017078 c -1.7454984,2.3720609 -1.7354408,5.6174519 -6e-7,8.035443 z"
         transform="scale(-0.6,-0.6)" />
    </marker>
  </defs>
  <metadata
     id="metadata7">
    <rdf:RDF>
      <cc:Work
         rdf:about="">
        <dc:format>image/svg+xml</dc:format>
        <dc:type
           rdf:resource="http://purl.org/dc/dcmitype/StillImage" />
        <dc:title></dc:title>
      </cc:Work>
    </rdf:RDF>
  </metadata>
  <g
     inkscape:label="Layer 1"
     inkscape:groupmode="layer"
     id="layer1"
     transform="translate(-100.18869,-765.54724)">
    <path
       transform="translate(-63.028358,665.51153)"
       inkscape:connector-curvature="0"
       id="path9036"
       d="m 190,100.53571 0,160"
       style="fill:none;stroke:#000000;stroke-width:1px;stroke-linecap:butt;stroke-linejoin:miter;stroke-opacity:1" />
    <path
       sodipodi:nodetypes="cc"
       transform="translate(-63.028358,665.51153)"
       inkscape:connector-curvature="0"
       id="path9038"
       d="m 190,210.53571 200,0"
       style="fill:none;stroke:#000000;stroke-width:1px;stroke-linecap:butt;stroke-linejoin:miter;stroke-opacity:1" />
    <path
       sodipodi:nodetypes="cc"
       transform="translate(-63.028358,665.51153)"
       inkscape:connector-curvature="0"
       id="path9040"
       d="m 190,210.53571 c 34.28427,-0.67878 60,-30 60,-110"
       style="fill:none;stroke:#000000;stroke-width:1px;stroke-linecap:butt;stroke-linejoin:miter;stroke-opacity:1" />
    <path
       sodipodi:nodetypes="csssc"
       transform="translate(-63.028358,665.51153)"
       inkscape:connector-curvature="0"
       id="path9042"
       d="m 230,190.53571 c 0,0 10,-20 30,-20 30,0 30,40 60,40 15,0 21.25,-15 30,-30 8.75,-15 30,-30 30,-30"
       style="fill:none;stroke:#000000;stroke-width:1px;stroke-linecap:butt;stroke-linejoin:miter;stroke-opacity:1" />
    <g
       id="g9056"
       ns0:preamble=""
       ns0:text="$\\mathrm{\\hat{F}}$"
       transform="matrix(2.1180124,0,0,2.1180124,-373.73804,500.60036)">
      <defs
         id="defs9058">
        <g
           id="g9060">
          <symbol
             id="textext-d683c911-0"
             overflow="visible"
             style="overflow:visible">
            <path
               id="path9063"
               d=""
               style="stroke:none"
               inkscape:connector-curvature="0" />
          </symbol>
          <symbol
             id="textext-d683c911-1"
             overflow="visible"
             style="overflow:visible">
            <path
               id="path9066"
               d="M 2.5,-6.921875 1.15625,-5.5625 1.328125,-5.390625 2.5,-6.40625 3.640625,-5.390625 3.8125,-5.5625 z m 0,0"
               style="stroke:none"
               inkscape:connector-curvature="0" />
          </symbol>
          <symbol
             id="textext-d683c911-2"
             overflow="visible"
             style="overflow:visible">
            <path
               id="path9069"
               d="m 5.796875,-6.78125 -5.46875,0 0,0.3125 0.234375,0 c 0.765625,0 0.796875,0.109375 0.796875,0.46875 l 0,5.21875 c 0,0.359375 -0.03125,0.46875 -0.796875,0.46875 l -0.234375,0 0,0.3125 c 0.34375,-0.03125 1.125,-0.03125 1.515625,-0.03125 0.40625,0 1.3125,0 1.671875,0.03125 l 0,-0.3125 -0.328125,0 C 2.25,-0.3125 2.25,-0.4375 2.25,-0.78125 l 0,-2.453125 0.84375,0 c 0.96875,0 1.0625,0.3125 1.0625,1.15625 l 0.25,0 0,-2.640625 -0.25,0 c 0,0.84375 -0.09375,1.171875 -1.0625,1.171875 l -0.84375,0 0,-2.53125 c 0,-0.328125 0.015625,-0.390625 0.484375,-0.390625 l 1.1875,0 c 1.5,0 1.75,0.5625 1.90625,1.9375 l 0.25,0 z m 0,0"
               style="stroke:none"
               inkscape:connector-curvature="0" />
          </symbol>
        </g>
      </defs>
      <g
         id="textext-d683c911-3">
        <g
           id="g9072"
           style="fill:#000000;fill-opacity:1">
          <use
             id="use9074"
             y="132.246"
             x="224.19299"
             xlink:href="#textext-d683c911-1"
             width="666.37817"
             height="410.53571" />
        </g>
        <g
           id="g9076"
           style="fill:#000000;fill-opacity:1">
          <use
             id="use9078"
             y="134.765"
             x="223.43201"
             xlink:href="#textext-d683c911-2"
             width="666.37817"
             height="410.53571" />
        </g>
      </g>
    </g>
    <text
       xml:space="preserve"
       style="font-size:16px;font-style:normal;font-variant:normal;font-weight:500;font-stretch:normal;text-align:start;line-height:100%;letter-spacing:0px;word-spacing:0px;writing-mode:lr-tb;text-anchor:start;fill:#000000;fill-opacity:1;stroke:none;font-family:Rekha;-inkscape-font-specification:Rekha Medium"
       x="400.71429"
       y="217.67856"
       id="text9104"
       sodipodi:linespacing="100%"
       transform="translate(-63.028358,665.51153)"><tspan
         sodipodi:role="line"
         id="tspan9106"
         x="400.71429"
         y="217.67856"
         style="font-size:20px">P</tspan></text>
    <g
       transform="matrix(1.7372767,0,0,1.7372767,-182.13904,544.90324)"
       ns0:text="$\\mathrm{T &gt; T_o}$"
       ns0:preamble=""
       id="g9136">
      <defs
         id="defs9138">
        <g
           id="g9140">
          <symbol
             style="overflow:visible"
             overflow="visible"
             id="textext-7d89b903-0">
            <path
               inkscape:connector-curvature="0"
               style="stroke:none"
               d=""
               id="path9143" />
          </symbol>
          <symbol
             style="overflow:visible"
             overflow="visible"
             id="textext-7d89b903-1">
            <path
               inkscape:connector-curvature="0"
               style="stroke:none"
               d="m 6.640625,-6.75 -6.09375,0 -0.1875,2.25 0.25,0 C 0.75,-6.109375 0.890625,-6.4375 2.40625,-6.4375 c 0.171875,0 0.4375,0 0.53125,0.015625 0.21875,0.046875 0.21875,0.15625 0.21875,0.375 l 0,5.265625 c 0,0.328125 0,0.46875 -1.046875,0.46875 l -0.40625,0 0,0.3125 C 2.109375,-0.03125 3.125,-0.03125 3.59375,-0.03125 c 0.453125,0 1.484375,0 1.890625,0.03125 l 0,-0.3125 -0.40625,0 c -1.046875,0 -1.046875,-0.140625 -1.046875,-0.46875 l 0,-5.265625 c 0,-0.1875 0,-0.328125 0.1875,-0.375 0.109375,-0.015625 0.375,-0.015625 0.5625,-0.015625 1.515625,0 1.65625,0.328125 1.796875,1.9375 l 0.25,0 z m 0,0"
               id="path9146" />
          </symbol>
          <symbol
             style="overflow:visible"
             overflow="visible"
             id="textext-7d89b903-2">
            <path
               inkscape:connector-curvature="0"
               style="stroke:none"
               d=""
               id="path9149" />
          </symbol>
          <symbol
             style="overflow:visible"
             overflow="visible"
             id="textext-7d89b903-3">
            <path
               inkscape:connector-curvature="0"
               style="stroke:none"
               d="M 6.734375,-2.265625 C 6.84375,-2.328125 6.921875,-2.375 6.921875,-2.5 c 0,-0.109375 -0.078125,-0.15625 -0.1875,-0.21875 L 1.203125,-5.3125 C 1.078125,-5.390625 1.0625,-5.390625 1.03125,-5.390625 c -0.109375,0 -0.203125,0.09375 -0.203125,0.203125 0,0.09375 0.046875,0.15625 0.1875,0.21875 L 6.25,-2.5 1.015625,-0.015625 c -0.140625,0.0625 -0.1875,0.125 -0.1875,0.21875 0,0.109375 0.09375,0.203125 0.203125,0.203125 0.03125,0 0.046875,0 0.171875,-0.078125 z m 0,0"
               id="path9152" />
          </symbol>
          <symbol
             style="overflow:visible"
             overflow="visible"
             id="textext-7d89b903-4">
            <path
               inkscape:connector-curvature="0"
               style="stroke:none"
               d=""
               id="path9155" />
          </symbol>
          <symbol
             style="overflow:visible"
             overflow="visible"
             id="textext-7d89b903-5">
            <path
               inkscape:connector-curvature="0"
               style="stroke:none"
               d="m 3.6875,-1.484375 c 0,-0.875 -0.75,-1.625 -1.703125,-1.625 -0.96875,0 -1.71875,0.75 -1.71875,1.625 0,0.859375 0.765625,1.546875 1.71875,1.546875 0.9375,0 1.703125,-0.6875 1.703125,-1.546875 z M 1.984375,-0.15625 c -0.265625,0 -0.640625,-0.078125 -0.875,-0.421875 -0.1875,-0.28125 -0.203125,-0.640625 -0.203125,-0.96875 0,-0.296875 0,-0.71875 0.25,-1.015625 0.171875,-0.203125 0.46875,-0.34375 0.828125,-0.34375 0.40625,0 0.703125,0.1875 0.859375,0.40625 0.1875,0.265625 0.203125,0.625 0.203125,0.953125 0,0.328125 -0.015625,0.703125 -0.21875,0.984375 -0.1875,0.265625 -0.5,0.40625 -0.84375,0.40625 z m 0,0"
               id="path9158" />
          </symbol>
        </g>
      </defs>
      <g
         id="textext-7d89b903-6">
        <g
           style="fill:#000000;fill-opacity:1"
           id="g9161">
          <use
             height="410.53571"
             width="666.37817"
             xlink:href="#textext-7d89b903-1"
             x="223.43201"
             y="134.765"
             id="use9163" />
        </g>
        <g
           style="fill:#000000;fill-opacity:1"
           id="g9165">
          <use
             height="410.53571"
             width="666.37817"
             xlink:href="#textext-7d89b903-3"
             x="233.395"
             y="134.765"
             id="use9167" />
        </g>
        <g
           style="fill:#000000;fill-opacity:1"
           id="g9169">
          <use
             height="410.53571"
             width="666.37817"
             xlink:href="#textext-7d89b903-1"
             x="243.911"
             y="134.765"
             id="use9171" />
        </g>
        <g
           style="fill:#000000;fill-opacity:1"
           id="g9173">
          <use
             height="410.53571"
             width="666.37817"
             xlink:href="#textext-7d89b903-5"
             x="251.106"
             y="136.259"
             id="use9175" />
        </g>
      </g>
    </g>
    <g
       id="g9366"
       transform="matrix(1.7372767,0,0,1.7372767,-59.996184,586.33181)"
       ns0:preamble=""
       ns0:text="$\\mathrm{T &lt; T_o}$">
      <defs
         id="defs9368">
        <g
           id="g9370">
          <symbol
             id="textext-743f34cc-0"
             overflow="visible"
             style="overflow:visible">
            <path
               id="path9373"
               d=""
               style="stroke:none"
               inkscape:connector-curvature="0" />
          </symbol>
          <symbol
             id="textext-743f34cc-1"
             overflow="visible"
             style="overflow:visible">
            <path
               id="path9376"
               d="m 6.640625,-6.75 -6.09375,0 -0.1875,2.25 0.25,0 C 0.75,-6.109375 0.890625,-6.4375 2.40625,-6.4375 c 0.171875,0 0.4375,0 0.53125,0.015625 0.21875,0.046875 0.21875,0.15625 0.21875,0.375 l 0,5.265625 c 0,0.328125 0,0.46875 -1.046875,0.46875 l -0.40625,0 0,0.3125 C 2.109375,-0.03125 3.125,-0.03125 3.59375,-0.03125 c 0.453125,0 1.484375,0 1.890625,0.03125 l 0,-0.3125 -0.40625,0 c -1.046875,0 -1.046875,-0.140625 -1.046875,-0.46875 l 0,-5.265625 c 0,-0.1875 0,-0.328125 0.1875,-0.375 0.109375,-0.015625 0.375,-0.015625 0.5625,-0.015625 1.515625,0 1.65625,0.328125 1.796875,1.9375 l 0.25,0 z m 0,0"
               style="stroke:none"
               inkscape:connector-curvature="0" />
          </symbol>
          <symbol
             id="textext-743f34cc-2"
             overflow="visible"
             style="overflow:visible">
            <path
               id="path9379"
               d=""
               style="stroke:none"
               inkscape:connector-curvature="0" />
          </symbol>
          <symbol
             id="textext-743f34cc-3"
             overflow="visible"
             style="overflow:visible">
            <path
               id="path9382"
               d="m 6.734375,-4.96875 c 0.109375,-0.0625 0.1875,-0.109375 0.1875,-0.21875 0,-0.109375 -0.09375,-0.203125 -0.203125,-0.203125 -0.03125,0 -0.046875,0 -0.171875,0.078125 l -5.53125,2.59375 c -0.109375,0.0625 -0.1875,0.109375 -0.1875,0.21875 0,0.125 0.078125,0.171875 0.1875,0.234375 l 5.53125,2.59375 C 6.671875,0.40625 6.6875,0.40625 6.71875,0.40625 c 0.109375,0 0.203125,-0.09375 0.203125,-0.203125 0,-0.109375 -0.078125,-0.15625 -0.1875,-0.21875 L 1.5,-2.5 z m 0,0"
               style="stroke:none"
               inkscape:connector-curvature="0" />
          </symbol>
          <symbol
             id="textext-743f34cc-4"
             overflow="visible"
             style="overflow:visible">
            <path
               id="path9385"
               d=""
               style="stroke:none"
               inkscape:connector-curvature="0" />
          </symbol>
          <symbol
             id="textext-743f34cc-5"
             overflow="visible"
             style="overflow:visible">
            <path
               id="path9388"
               d="m 3.6875,-1.484375 c 0,-0.875 -0.75,-1.625 -1.703125,-1.625 -0.96875,0 -1.71875,0.75 -1.71875,1.625 0,0.859375 0.765625,1.546875 1.71875,1.546875 0.9375,0 1.703125,-0.6875 1.703125,-1.546875 z M 1.984375,-0.15625 c -0.265625,0 -0.640625,-0.078125 -0.875,-0.421875 -0.1875,-0.28125 -0.203125,-0.640625 -0.203125,-0.96875 0,-0.296875 0,-0.71875 0.25,-1.015625 0.171875,-0.203125 0.46875,-0.34375 0.828125,-0.34375 0.40625,0 0.703125,0.1875 0.859375,0.40625 0.1875,0.265625 0.203125,0.625 0.203125,0.953125 0,0.328125 -0.015625,0.703125 -0.21875,0.984375 -0.1875,0.265625 -0.5,0.40625 -0.84375,0.40625 z m 0,0"
               style="stroke:none"
               inkscape:connector-curvature="0" />
          </symbol>
        </g>
      </defs>
      <g
         id="textext-743f34cc-6">
        <g
           id="g9391"
           style="fill:#000000;fill-opacity:1">
          <use
             id="use9393"
             y="134.765"
             x="223.43201"
             xlink:href="#textext-743f34cc-1"
             width="666.37817"
             height="410.53571" />
        </g>
        <g
           id="g9395"
           style="fill:#000000;fill-opacity:1">
          <use
             id="use9397"
             y="134.765"
             x="233.395"
             xlink:href="#textext-743f34cc-3"
             width="666.37817"
             height="410.53571" />
        </g>
        <g
           id="g9399"
           style="fill:#000000;fill-opacity:1">
          <use
             id="use9401"
             y="134.765"
             x="243.911"
             xlink:href="#textext-743f34cc-1"
             width="666.37817"
             height="410.53571" />
        </g>
        <g
           id="g9403"
           style="fill:#000000;fill-opacity:1">
          <use
             id="use9405"
             y="136.259"
             x="251.106"
             xlink:href="#textext-743f34cc-5"
             width="666.37817"
             height="410.53571" />
        </g>
      </g>
    </g>
    <text
       xml:space="preserve"
       style="font-size:16px;font-style:normal;font-variant:normal;font-weight:500;font-stretch:normal;text-align:start;line-height:100%;letter-spacing:0px;word-spacing:0px;writing-mode:lr-tb;text-anchor:start;fill:#000000;fill-opacity:1;stroke:none;font-family:Rekha;-inkscape-font-specification:Rekha Medium"
       x="366.97165"
       y="866.04724"
       id="text9481"
       sodipodi:linespacing="100%"><tspan
         sodipodi:role="line"
         id="tspan9483"
         x="366.97165"
         y="866.04724">two minimum</tspan></text>
  </g>
</svg>
