<?xml version="1.0" encoding="UTF-8" standalone="no"?>
<!-- Created with Inkscape (http://www.inkscape.org/) -->

<svg
   xmlns:ns0="http://www.iki.fi/pav/software/textext/"
   xmlns:dc="http://purl.org/dc/elements/1.1/"
   xmlns:cc="http://creativecommons.org/ns#"
   xmlns:rdf="http://www.w3.org/1999/02/22-rdf-syntax-ns#"
   xmlns:svg="http://www.w3.org/2000/svg"
   xmlns="http://www.w3.org/2000/svg"
   xmlns:sodipodi="http://sodipodi.sourceforge.net/DTD/sodipodi-0.dtd"
   xmlns:inkscape="http://www.inkscape.org/namespaces/inkscape"
   width="262.23987"
   height="221.17252"
   id="svg2"
   version="1.1"
   inkscape:version="0.48.4 r9939"
   sodipodi:docname="figure61.svg">
  <sodipodi:namedview
     id="base"
     pagecolor="#ffffff"
     bordercolor="#666666"
     borderopacity="1.0"
     inkscape:pageopacity="0.0"
     inkscape:pageshadow="2"
     inkscape:zoom="1.4040232"
     inkscape:cx="96.737695"
     inkscape:cy="116.81904"
     inkscape:document-units="px"
     inkscape:current-layer="layer1"
     showgrid="true"
     units="in"
     width="11cm"
     inkscape:window-width="1274"
     inkscape:window-height="563"
     inkscape:window-x="0"
     inkscape:window-y="401"
     inkscape:window-maximized="0"
     fit-margin-top="0"
     fit-margin-left="0"
     fit-margin-right="0"
     fit-margin-bottom="0"
     inkscape:snap-grids="false">
    <inkscape:grid
       type="xygrid"
       id="grid2984"
       empspacing="5"
       visible="true"
       enabled="true"
       snapvisiblegridlinesonly="true"
       spacingx="2px"
       spacingy="2px"
       originx="-68.260136px"
       originy="-99.499998px" />
  </sodipodi:namedview>
  <defs
     id="defs4">
    <marker
       inkscape:stockid="Arrow2Lstart"
       orient="auto"
       refY="0"
       refX="0"
       id="Arrow2Lstart"
       style="overflow:visible">
      <path
         id="path3805"
         style="fill-rule:evenodd;stroke-width:0.625;stroke-linejoin:round"
         d="M 8.7185878,4.0337352 -2.2072895,0.01601326 8.7185884,-4.0017078 c -1.7454984,2.3720609 -1.7354408,5.6174519 -6e-7,8.035443 z"
         transform="matrix(1.1,0,0,1.1,1.1,0)"
         inkscape:connector-curvature="0" />
    </marker>
    <marker
       inkscape:stockid="Arrow2Lend"
       orient="auto"
       refY="0"
       refX="0"
       id="Arrow2Lend"
       style="overflow:visible">
      <path
         id="path3808"
         style="fill-rule:evenodd;stroke-width:0.625;stroke-linejoin:round"
         d="M 8.7185878,4.0337352 -2.2072895,0.01601326 8.7185884,-4.0017078 c -1.7454984,2.3720609 -1.7354408,5.6174519 -6e-7,8.035443 z"
         transform="matrix(-1.1,0,0,-1.1,-1.1,0)"
         inkscape:connector-curvature="0" />
    </marker>
    <marker
       inkscape:stockid="Arrow1Lend"
       orient="auto"
       refY="0"
       refX="0"
       id="Arrow1Lend"
       style="overflow:visible">
      <path
         id="path3790"
         d="M 0,0 5,-5 -12.5,0 5,5 0,0 z"
         style="fill-rule:evenodd;stroke:#000000;stroke-width:1pt"
         transform="matrix(-0.8,0,0,-0.8,-10,0)"
         inkscape:connector-curvature="0" />
    </marker>
    <marker
       style="overflow:visible"
       id="Arrow2Mend"
       refX="0"
       refY="0"
       orient="auto"
       inkscape:stockid="Arrow2Mend">
      <path
         transform="scale(-0.6,-0.6)"
         d="M 8.7185878,4.0337352 -2.2072895,0.01601326 8.7185884,-4.0017078 c -1.7454984,2.3720609 -1.7354408,5.6174519 -6e-7,8.035443 z"
         style="fill-rule:evenodd;stroke-width:0.625;stroke-linejoin:round"
         id="path3966"
         inkscape:connector-curvature="0" />
    </marker>
  </defs>
  <metadata
     id="metadata7">
    <rdf:RDF>
      <cc:Work
         rdf:about="">
        <dc:format>image/svg+xml</dc:format>
        <dc:type
           rdf:resource="http://purl.org/dc/dcmitype/StillImage" />
        <dc:title></dc:title>
      </cc:Work>
    </rdf:RDF>
  </metadata>
  <g
     transform="translate(-5.2317784,-755.37473)"
     id="layer1"
     inkscape:groupmode="layer"
     inkscape:label="Layer 1">
    <path
       style="fill:none;stroke:#000000;stroke-width:1px;stroke-linecap:butt;stroke-linejoin:miter;stroke-opacity:1"
       d="m 260,160.53571 0,50 -70,0 0,-120.000002 70,0 0,70.000002 70,0 0,140 -210,0 0,-140 60,0 10,0"
       id="path16339"
       inkscape:connector-curvature="0"
       transform="translate(-63.028358,665.51153)"
       sodipodi:nodetypes="cccccccccccc" />
    <path
       style="fill:none;stroke:#000000;stroke-width:1px;stroke-linecap:butt;stroke-linejoin:miter;stroke-opacity:1"
       d="m 200,90.535708 0,120.000002"
       id="path16341"
       inkscape:connector-curvature="0"
       transform="translate(-63.028358,665.51153)"
       sodipodi:nodetypes="cc" />
    <path
       style="fill:none;stroke:#000000;stroke-width:1px;stroke-linecap:butt;stroke-linejoin:miter;stroke-opacity:1;marker-end:url(#Arrow2Lend)"
       d="m 30.693963,766.11373 c 0,0 4.985034,-12.64292 14.467925,-9.46884 7.450849,2.49393 -2.142291,15.85415 6.527103,18.75593 9.482894,3.17407 5.21456,-15.57904 16.278869,-12.62887 9.662408,2.57637 -1.580941,15.2888 8.108518,18.53201 9.482895,3.17407 7.847375,-13.65114 16.032315,-12.1527 10.674587,1.95423 -0.79175,16.31584 10.062647,18.10967 9.28572,1.42857 17.14286,3.57142 17.14286,3.57142"
       id="path16343"
       inkscape:connector-curvature="0"
       sodipodi:nodetypes="cssssscc" />
    <text
       xml:space="preserve"
       style="font-size:20px;font-style:normal;font-variant:normal;font-weight:500;font-stretch:normal;text-align:start;line-height:100%;letter-spacing:0px;word-spacing:0px;writing-mode:lr-tb;text-anchor:start;fill:#000000;fill-opacity:1;stroke:none;font-family:Rekha;-inkscape-font-specification:Rekha Medium"
       x="106.97164"
       y="816.04724"
       id="text17233"
       sodipodi:linespacing="100%"><tspan
         sodipodi:role="line"
         id="tspan17235"
         x="106.97164"
         y="816.04724">+</tspan></text>
    <path
       style="fill:none;stroke:#000000;stroke-width:1px;stroke-linecap:butt;stroke-linejoin:miter;stroke-opacity:1"
       d="m 207.25614,810.75195 10,0"
       id="path17237"
       inkscape:connector-curvature="0" />
    <path
       style="fill:none;stroke:#000000;stroke-width:1px;stroke-linecap:butt;stroke-linejoin:miter;stroke-opacity:1;marker-start:url(#Arrow2Lstart)"
       d="m 131.92365,876.98666 c -1.83955,10.73958 -3.69612,18.98206 -9.51697,25.16512"
       id="path17239"
       inkscape:connector-curvature="0"
       sodipodi:nodetypes="cc" />
    <path
       style="fill:none;stroke:#000000;stroke-width:1px;stroke-linecap:butt;stroke-linejoin:miter;stroke-opacity:1;marker-start:url(#Arrow2Lstart);marker-end:none"
       d="m 234.30209,210.53571 c 2.5796,18.29448 7.15955,22.32899 12.84895,26.4388"
       id="path17241"
       inkscape:connector-curvature="0"
       transform="translate(-63.028358,665.51153)"
       sodipodi:nodetypes="cc" />
    <text
       xml:space="preserve"
       style="font-size:16px;font-style:normal;font-variant:normal;font-weight:500;font-stretch:normal;text-align:start;line-height:100%;letter-spacing:0px;word-spacing:0px;writing-mode:lr-tb;text-anchor:start;fill:#000000;fill-opacity:1;stroke:none;font-family:Rekha;-inkscape-font-specification:Rekha Medium"
       x="114.12269"
       y="911.06152"
       id="text17273"
       sodipodi:linespacing="100%"><tspan
         sodipodi:role="line"
         id="tspan17275"
         x="114.12269"
         y="911.06152">p</tspan></text>
    <path
       style="fill:#ffffff;stroke:#000000;stroke-width:1px;stroke-linecap:butt;stroke-linejoin:miter;stroke-opacity:1"
       d="m 90.5,209.75492 0,20 50,0 0,-20 z"
       id="path21014"
       inkscape:connector-curvature="0"
       transform="translate(46.471642,746.29232)" />
    <g
       style="font-style:normal;font-variant:normal;font-weight:normal;font-stretch:normal;letter-spacing:normal;word-spacing:normal;text-anchor:start;fill:none;stroke:#000000;stroke-linecap:butt;stroke-linejoin:miter;stroke-miterlimit:10.43299961;stroke-opacity:1;stroke-dasharray:none;stroke-dashoffset:0"
       id="content"
       transform="matrix(1.6828753,0,0,-1.6828753,-371.31157,1873.0227)"
       xml:space="preserve"
       stroke-miterlimit="10.433"
       font-style="normal"
       font-variant="normal"
       font-weight="normal"
       font-stretch="normal"
       font-size-adjust="none"
       letter-spacing="normal"
       word-spacing="normal"
       ns0:text="$\\mathrm{h\\nu}$"
       ns0:preamble=""><path
         style="fill:#000000;stroke-width:0"
         inkscape:connector-curvature="0"
         d="m 224.53,657.99 0,-0.02 0,-0.02 -0.01,-0.04 0,-0.03 0,-0.04 0,-0.03 -0.01,-0.03 0,-0.02 -0.01,-0.03 -0.01,-0.02 -0.01,-0.02 -0.01,-0.02 -0.01,-0.02 -0.02,-0.01 -0.01,-0.02 -0.02,-0.01 -0.02,-0.01 -0.02,-0.01 -0.03,-0.01 -0.02,-0.01 -0.03,0 -0.03,-0.01 -0.03,0 -0.04,-0.01 -0.02,0 -0.02,0 -0.02,0 -0.02,0 -0.02,0 -0.02,0 -0.02,0 -0.03,-0.01 -0.02,0 -0.03,0 -0.02,0 -0.03,0 -0.02,0 -0.03,0 -0.03,0 -0.03,0 -0.03,0 -0.03,0 v -0.31 c 0.35,0.01 0.86,0.04 1.13,0.04 0.25,0 0.77,-0.03 1.11,-0.04 v 0.31 c -0.67,0 -0.78,0 -0.78,0.45 v 1.83 c 0,1.03 0.71,1.59 1.35,1.59 0.62,0 0.73,-0.54 0.73,-1.11 v -2.31 c 0,-0.45 -0.11,-0.45 -0.77,-0.45 v -0.31 c 0.34,0.01 0.85,0.04 1.12,0.04 0.26,0 0.78,-0.03 1.12,-0.04 v 0.31 c -0.52,0 -0.77,0 -0.78,0.3 v 1.9 c 0,0.85 0,1.16 -0.31,1.52 -0.14,0.17 -0.47,0.37 -1.04,0.37 -0.84,0 -1.28,-0.6 -1.45,-0.98 v 3.48 l -1.43,-0.11 v -0.31 c 0.7,0 0.78,-0.07 0.78,-0.55 z"
         id="path21044" /><path
         style="fill:#000000;stroke-width:0"
         inkscape:connector-curvature="0"
         d="m 231.2,661.52 0,0 0,0 0,0 0,0 0,0 0,0.01 0,0 -0.01,0 0,0.01 0,0 0,0.01 0,0 0,0.01 0,0 0,0 -0.01,0.01 0,0 0,0.01 -0.01,0 0,0.01 -0.01,0 0,0.01 0,0 0,0 -0.01,0 0,0 0,0.01 -0.01,0 0,0 0,0 -0.01,0 0,0.01 0,0 -0.01,0 0,0 -0.01,0 0,0 -0.01,0 0,0 -0.01,0 0,0 -0.01,0.01 0,0 -0.01,0 0,0 c -0.23,0 -0.96,-0.08 -1.22,-0.1 -0.08,-0.01 -0.19,-0.02 -0.19,-0.2 0,-0.12 0.09,-0.12 0.24,-0.12 0.48,0 0.5,-0.07 0.5,-0.17 0,-0.07 -0.12,-0.54 -0.19,-0.81 l -0.61,-2.43 c -0.04,-0.15 -0.11,-0.43 -0.11,-0.45 0,-0.11 0.1,-0.12 0.16,-0.12 h 0.14 c 0.7,0.12 1.78,0.51 2.81,1.47 1.31,1.22 1.58,2.57 1.58,2.66 0,0.17 -0.12,0.27 -0.29,0.27 -0.08,0 -0.31,-0.04 -0.39,-0.33 -0.63,-2.26 -2.15,-3.37 -3.28,-3.74 z"
         id="path21046" /></g>    <g
       style="font-style:normal;font-variant:normal;font-weight:normal;font-stretch:normal;letter-spacing:normal;word-spacing:normal;text-anchor:start;fill:none;stroke:#000000;stroke-linecap:butt;stroke-linejoin:miter;stroke-miterlimit:10.43299961;stroke-opacity:1;stroke-dasharray:none;stroke-dashoffset:0"
       ns0:preamble=""
       ns0:text="$\\mathrm{R_L}$"
       word-spacing="normal"
       letter-spacing="normal"
       font-size-adjust="none"
       font-stretch="normal"
       font-weight="normal"
       font-variant="normal"
       font-style="normal"
       stroke-miterlimit="10.433"
       xml:space="preserve"
       transform="matrix(1.6828753,0,0,-1.6828753,-224.22197,2077.3493)"
       id="g21128"><path
         id="path21130"
         d="m 227.76,660.61 0.09,0.03 0.09,0.02 0.09,0.03 0.08,0.03 0.09,0.03 0.08,0.03 0.08,0.04 0.08,0.04 0.08,0.04 0.07,0.04 0.07,0.04 0.07,0.05 0.07,0.04 0.07,0.05 0.06,0.05 0.06,0.05 0.06,0.05 0.05,0.06 0.06,0.05 0.04,0.06 0.05,0.06 0.04,0.06 0.04,0.06 0.03,0.07 0.04,0.06 0.02,0.07 0.03,0.06 0.02,0.07 0.01,0.07 0.01,0.07 0.01,0.07 0,0.07 c 0,0.95 -1.13,1.79 -2.6,1.79 h -3.12 v -0.31 h 0.24 c 0.77,0 0.78,-0.11 0.78,-0.47 v -5.23 c 0,-0.36 -0.01,-0.47 -0.78,-0.47 h -0.24 v -0.31 c 0.36,0.04 1.07,0.04 1.45,0.04 0.39,0 1.1,0 1.45,-0.04 v 0.31 h -0.23 c -0.77,0 -0.79,0.11 -0.79,0.47 v 2.51 0.22 2.58 c 0,0.22 0,0.34 0.22,0.37 0.1,0.02 0.39,0.02 0.59,0.02 0.89,0 2.01,-0.04 2.01,-1.48 0,-0.68 -0.24,-1.49 -1.72,-1.49 h -1.1 v -0.22 h 1.14 c 0.16,0 0.58,0 0.93,-0.34 0.38,-0.35 0.38,-0.66 0.38,-1.33 0,-0.64 0,-1.04 0.41,-1.42 0.4,-0.35 0.95,-0.41 1.25,-0.41 0.78,0 0.94,0.81 0.94,1.09 0,0.06 0,0.17 -0.12,0.17 -0.11,0 -0.11,-0.09 -0.12,-0.16 -0.06,-0.71 -0.41,-0.89 -0.66,-0.89 -0.49,0 -0.57,0.51 -0.71,1.43 l -0.13,0.8 c -0.18,0.64 -0.66,0.96 -1.21,1.15 z"
         inkscape:connector-curvature="0"
         style="fill:#000000;stroke-width:0" /><path
         id="path21132"
         d="m 235.3,657.57 h -0.24 c -0.07,-0.68 -0.18,-1.58 -1.49,-1.58 h -0.7 c -0.33,0 -0.33,0.06 -0.33,0.27 v 3.66 c 0,0.23 0,0.32 0.65,0.32 h 0.24 v 0.25 c -0.14,-0.01 -1.03,-0.03 -1.22,-0.03 -0.26,0 -1.05,0.03 -1.05,0.03 v -0.25 h 0.16 c 0.54,0 0.55,-0.07 0.55,-0.31 v -3.63 c 0,-0.23 -0.01,-0.31 -0.55,-0.31 h -0.16 v -0.25 h 3.93 z"
         inkscape:connector-curvature="0"
         style="fill:#000000;stroke-width:0" /></g>    <text
       xml:space="preserve"
       style="font-size:16px;font-style:normal;font-variant:normal;font-weight:500;font-stretch:normal;text-align:start;line-height:100%;letter-spacing:0px;word-spacing:0px;writing-mode:lr-tb;text-anchor:start;fill:#000000;fill-opacity:1;stroke:none;font-family:Rekha;-inkscape-font-specification:Rekha Medium"
       x="186.07047"
       y="910.6106"
       id="text21163"
       sodipodi:linespacing="100%"><tspan
         sodipodi:role="line"
         id="tspan21165"
         x="186.07047"
         y="910.6106">n</tspan></text>
  </g>
</svg>
