<?xml version="1.0" encoding="UTF-8" standalone="no"?>
<!-- Created with Inkscape (http://www.inkscape.org/) -->

<svg
   xmlns:dc="http://purl.org/dc/elements/1.1/"
   xmlns:cc="http://creativecommons.org/ns#"
   xmlns:rdf="http://www.w3.org/1999/02/22-rdf-syntax-ns#"
   xmlns:svg="http://www.w3.org/2000/svg"
   xmlns="http://www.w3.org/2000/svg"
   xmlns:sodipodi="http://sodipodi.sourceforge.net/DTD/sodipodi-0.dtd"
   xmlns:inkscape="http://www.inkscape.org/namespaces/inkscape"
   width="295.81363"
   height="161.00023"
   id="svg2"
   version="1.1"
   inkscape:version="0.91 r13725"
   sodipodi:docname="figure101edit1.svg">
  <sodipodi:namedview
     id="base"
     pagecolor="#ffffff"
     bordercolor="#666666"
     borderopacity="1.0"
     inkscape:pageopacity="0.0"
     inkscape:pageshadow="2"
     inkscape:zoom="1.979899"
     inkscape:cx="231.11852"
     inkscape:cy="98.245145"
     inkscape:document-units="px"
     inkscape:current-layer="layer1"
     showgrid="true"
     units="in"
     width="11cm"
     inkscape:window-width="1536"
     inkscape:window-height="803"
     inkscape:window-x="-8"
     inkscape:window-y="-8"
     inkscape:window-maximized="1"
     fit-margin-top="0"
     fit-margin-left="0"
     fit-margin-right="0"
     fit-margin-bottom="0"
     inkscape:snap-grids="false">
    <inkscape:grid
       originy="-159.49977"
       originx="-139.5"
       spacingy="2px"
       spacingx="2px"
       snapvisiblegridlinesonly="true"
       enabled="true"
       visible="true"
       empspacing="5"
       id="grid2984"
       type="xygrid" />
  </sodipodi:namedview>
  <defs
     id="defs4">
    <marker
       inkscape:stockid="Arrow2Mend"
       orient="auto"
       refY="0"
       refX="0"
       id="Arrow2Mend"
       style="overflow:visible">
      <path
         inkscape:connector-curvature="0"
         id="path3966"
         style="fill-rule:evenodd;stroke-width:0.625;stroke-linejoin:round"
         d="M 8.7185878,4.0337352 -2.2072895,0.01601326 8.7185884,-4.0017078 c -1.7454984,2.3720609 -1.7354408,5.6174519 -6e-7,8.035443 z"
         transform="scale(-0.6,-0.6)" />
    </marker>
    <marker
       style="overflow:visible"
       id="Arrow2Lend-5"
       refX="0"
       refY="0"
       orient="auto"
       inkscape:stockid="Arrow2Lend">
      <path
         transform="matrix(-1.1,0,0,-1.1,-1.1,0)"
         d="M 8.7185878,4.0337352 -2.2072895,0.01601326 8.7185884,-4.0017078 c -1.7454984,2.3720609 -1.7354408,5.6174519 -6e-7,8.035443 z"
         style="fill-rule:evenodd;stroke-width:0.625;stroke-linejoin:round"
         id="path4166-9"
         inkscape:connector-curvature="0" />
    </marker>
    <marker
       inkscape:stockid="Arrow2Mend"
       orient="auto"
       refY="0"
       refX="0"
       id="Arrow2Mend-4"
       style="overflow:visible">
      <path
         inkscape:connector-curvature="0"
         id="path3966-3"
         style="fill-rule:evenodd;stroke-width:0.625;stroke-linejoin:round"
         d="M 8.7185878,4.0337352 -2.2072895,0.01601326 8.7185884,-4.0017078 c -1.7454984,2.3720609 -1.7354408,5.6174519 -6e-7,8.035443 z"
         transform="scale(-0.6,-0.6)" />
    </marker>
  </defs>
  <metadata
     id="metadata7">
    <rdf:RDF>
      <cc:Work
         rdf:about="">
        <dc:format>image/svg+xml</dc:format>
        <dc:type
           rdf:resource="http://purl.org/dc/dcmitype/StillImage" />
        <dc:title></dc:title>
      </cc:Work>
    </rdf:RDF>
  </metadata>
  <g
     inkscape:label="Layer 1"
     inkscape:groupmode="layer"
     id="layer1"
     transform="translate(-76.471642,-755.54724)">
    <path
       transform="translate(-63.028358,665.51153)"
       inkscape:connector-curvature="0"
       id="path2985"
       d="m 140,90.535706 0,10.000004 140,0 0,-10.000004 z"
       style="fill:none;stroke:#000000;stroke-width:1px;stroke-linecap:butt;stroke-linejoin:miter;stroke-opacity:1" />
    <path
       transform="translate(-63.028358,665.51153)"
       inkscape:connector-curvature="0"
       id="path2987"
       d="m 140,110.53571 0,10 140,0 0,-10 z"
       style="fill:none;stroke:#000000;stroke-width:1px;stroke-linecap:butt;stroke-linejoin:miter;stroke-opacity:1" />
    <path
       transform="translate(-63.028358,665.51153)"
       inkscape:connector-curvature="0"
       id="path2989"
       d="m 140,160.53571 140,0"
       style="fill:none;stroke:#000000;stroke-width:1px;stroke-linecap:butt;stroke-linejoin:miter;stroke-opacity:1" />
    <path
       transform="translate(-63.028358,665.51153)"
       inkscape:connector-curvature="0"
       id="path2991"
       d="m 140,240.53571 140,0"
       style="fill:none;stroke:#000000;stroke-width:1px;stroke-linecap:butt;stroke-linejoin:miter;stroke-opacity:1" />
    <path
       transform="translate(-63.028358,665.51153)"
       inkscape:connector-curvature="0"
       id="path2993"
       d="m 150,240.53571 0,-120"
       style="fill:none;stroke:#000000;stroke-width:1px;stroke-linecap:butt;stroke-linejoin:miter;stroke-opacity:1;marker-end:url(#Arrow2Lend-5)" />
    <path
       transform="translate(-63.028358,665.51153)"
       inkscape:connector-curvature="0"
       id="path2995"
       d="m 160,240.53571 0,-140"
       style="fill:none;stroke:#000000;stroke-width:1px;stroke-linecap:butt;stroke-linejoin:miter;stroke-opacity:1;marker-end:url(#Arrow2Lend-5)" />
    <path
       transform="translate(-63.028358,665.51153)"
       inkscape:connector-curvature="0"
       id="path2997"
       d="m 180,120.53571 0,40"
       style="fill:none;stroke:#000000;stroke-width:1px;stroke-linecap:butt;stroke-linejoin:miter;stroke-opacity:1;marker-end:url(#Arrow2Lend-5)" />
    <path
       sodipodi:nodetypes="cc"
       transform="translate(-63.028358,665.51153)"
       inkscape:connector-curvature="0"
       id="path2999"
       d="m 240,100.53571 0,60"
       style="fill:none;stroke:#000000;stroke-width:1px;stroke-linecap:butt;stroke-linejoin:miter;stroke-opacity:1;marker-end:url(#Arrow2Lend-5)" />
    <path
       transform="translate(-63.028358,665.51153)"
       inkscape:connector-curvature="0"
       id="path3001"
       d="m 210,160.53571 0,80"
       style="fill:none;stroke:#000000;stroke-width:1px;stroke-linecap:butt;stroke-linejoin:miter;stroke-opacity:1;marker-end:url(#Arrow2Lend-5)" />
    <text
       sodipodi:linespacing="100%"
       id="text3112"
       y="871.19006"
       x="253.54309"
       style="font-style:normal;font-variant:normal;font-weight:500;font-stretch:normal;font-size:16px;line-height:100%;font-family:Rekha;-inkscape-font-specification:'Rekha Medium';text-align:start;letter-spacing:0px;word-spacing:0px;writing-mode:lr-tb;text-anchor:start;fill:#000000;fill-opacity:1;stroke:none"
       xml:space="preserve"><tspan
         y="871.19006"
         x="253.54309"
         id="tspan3114"
         sodipodi:role="line">laser transition</tspan></text>
    <text
       sodipodi:linespacing="100%"
       id="text3116"
       y="774.97571"
       x="233.93593"
       style="font-style:normal;font-variant:normal;font-weight:500;font-stretch:normal;font-size:16px;line-height:100%;font-family:Rekha;-inkscape-font-specification:'Rekha Medium';text-align:start;letter-spacing:0px;word-spacing:0px;writing-mode:lr-tb;text-anchor:start;fill:#000000;fill-opacity:1;stroke:none"
       xml:space="preserve"><tspan
         y="774.97571"
         x="233.93593"
         id="tspan3118"
         sodipodi:role="line">pump levels</tspan></text>
    <text
       transform="translate(-63.028358,665.51153)"
       sodipodi:linespacing="100%"
       id="text3120"
       y="106.96428"
       x="524.28571"
       style="font-style:normal;font-variant:normal;font-weight:500;font-stretch:normal;font-size:16px;line-height:100%;font-family:Rekha;-inkscape-font-specification:'Rekha Medium';text-align:start;letter-spacing:0px;word-spacing:0px;writing-mode:lr-tb;text-anchor:start;fill:#000000;fill-opacity:1;stroke:none"
       xml:space="preserve"><tspan
         y="106.96428"
         x="524.28571"
         id="tspan3122"
         sodipodi:role="line" /></text>
    <path
       sodipodi:open="true"
       sodipodi:end="3.0816228"
       sodipodi:start="3.1009386"
       d="m 342.69418,770.31079 a 10,10 0 0 1 9.53706,-10.39609 10,10 0 0 1 10.44202,9.48675 10,10 0 0 1 -9.43622,10.48771 10,10 0 0 1 -10.53315,-9.38546"
       sodipodi:ry="10"
       sodipodi:rx="10"
       sodipodi:cy="769.90436"
       sodipodi:cx="352.68591"
       id="path3124"
       style="fill:none;stroke:#000000;stroke-width:1;stroke-miterlimit:4;stroke-dasharray:none;stroke-dashoffset:0;stroke-opacity:1"
       sodipodi:type="arc" />
    <text
       sodipodi:linespacing="100%"
       id="text3126"
       y="775.95807"
       x="347.61957"
       style="font-style:normal;font-variant:normal;font-weight:500;font-stretch:normal;font-size:16px;line-height:100%;font-family:Rekha;-inkscape-font-specification:'Rekha Medium';text-align:start;letter-spacing:0px;word-spacing:0px;writing-mode:lr-tb;text-anchor:start;fill:#000000;fill-opacity:1;stroke:none"
       xml:space="preserve"><tspan
         y="775.95807"
         x="347.61957"
         id="tspan3128"
         sodipodi:role="line">3</tspan></text>
    <text
       sodipodi:linespacing="100%"
       id="text3130"
       y="831.84833"
       x="227.39008"
       style="font-style:normal;font-variant:normal;font-weight:500;font-stretch:normal;font-size:16px;line-height:100%;font-family:Rekha;-inkscape-font-specification:'Rekha Medium';text-align:start;letter-spacing:0px;word-spacing:0px;writing-mode:lr-tb;text-anchor:start;fill:#000000;fill-opacity:1;stroke:none"
       xml:space="preserve"><tspan
         y="831.84833"
         x="227.39008"
         id="tspan3132"
         sodipodi:role="line">2</tspan></text>
    <text
       sodipodi:linespacing="100%"
       id="text3134"
       y="911.80493"
       x="227.85182"
       style="font-style:normal;font-variant:normal;font-weight:500;font-stretch:normal;font-size:16px;line-height:100%;font-family:Rekha;-inkscape-font-specification:'Rekha Medium';text-align:start;letter-spacing:0px;word-spacing:0px;writing-mode:lr-tb;text-anchor:start;fill:#000000;fill-opacity:1;stroke:none"
       xml:space="preserve"><tspan
         y="911.80493"
         x="227.85182"
         id="tspan3136"
         sodipodi:role="line">1</tspan></text>
    <path
       sodipodi:open="true"
       sodipodi:end="3.0816228"
       sodipodi:start="3.1009386"
       transform="translate(-77.314072,675.51153)"
       d="m 300.00826,150.94213 a 10,10 0 0 1 9.53707,-10.39608 10,10 0 0 1 10.44202,9.48675 10,10 0 0 1 -9.43622,10.48771 10,10 0 0 1 -10.53315,-9.38547"
       sodipodi:ry="10"
       sodipodi:rx="10"
       sodipodi:cy="150.53571"
       sodipodi:cx="310"
       id="path3124-9"
       style="fill:none;stroke:#000000;stroke-width:1;stroke-miterlimit:4;stroke-dasharray:none;stroke-dashoffset:0;stroke-opacity:1"
       sodipodi:type="arc" />
    <path
       sodipodi:open="true"
       sodipodi:end="3.0816228"
       sodipodi:start="3.1009386"
       transform="translate(-76.599786,755.51153)"
       d="m 300.00826,150.94213 a 10,10 0 0 1 9.53707,-10.39608 10,10 0 0 1 10.44202,9.48675 10,10 0 0 1 -9.43622,10.48771 10,10 0 0 1 -10.53315,-9.38547"
       sodipodi:ry="10"
       sodipodi:rx="10"
       sodipodi:cy="150.53571"
       sodipodi:cx="310"
       id="path3124-4"
       style="fill:none;stroke:#000000;stroke-width:1;stroke-miterlimit:4;stroke-dasharray:none;stroke-dashoffset:0;stroke-opacity:1"
       sodipodi:type="arc" />
    <g
       transform="translate(93.583636,837.42309)"
       id="g5890">
      <path
         id="path5265"
         title="sin(x)"
         d="m 73.71583,27.749743 0,0 c 3.03134,-6.588608 6.0627,-12.19469 9.09404,-10.734349 3.03135,1.460335 6.0627,9.57289 9.09405,15.511587 3.03135,5.938697 6.0627,7.934352 9.09405,3.831043 3.03135,-4.103302 6.06269,-13.10401 9.09404,-17.216565 3.03135,-4.112549 6.0627,-2.102516 9.09405,3.83105 3.03135,5.933565 6.0627,14.039719 9.09405,15.511586 3.03134,1.471871 7.54573,-10.795928 9.09404,-10.734352 l 0,0"
         style="fill:#ffffff;fill-opacity:1;stroke:#000000;stroke-width:1;stroke-miterlimit:4;stroke-dasharray:none;stroke-dashoffset:0;stroke-opacity:1"
         inkscape:connector-curvature="0"
         sodipodi:nodetypes="ccsssssscc" />
      <path
         style="fill:none;fill-rule:evenodd;stroke:#000000;stroke-width:1px;stroke-linecap:butt;stroke-linejoin:miter;stroke-opacity:1;marker-end:url(#Arrow2Mend-4)"
         d="m 137.23052,27.758693 10,0 0,0"
         id="path5755"
         inkscape:connector-curvature="0" />
    </g>
    <g
       id="g4224"
       transform="matrix(2.400422,0,0,2.400422,62.596013,469.84225)"
       inkscape:transform-center-x="3.4291769"
       inkscape:transform-center-y="-264.04643">
      <g
         word-spacing="normal"
         letter-spacing="normal"
         font-size-adjust="none"
         font-stretch="normal"
         font-weight="normal"
         font-variant="normal"
         font-style="normal"
         stroke-miterlimit="10.433"
         xml:space="preserve"
         transform="matrix(0.23000033,0,0,-0.23000033,-40.250057,221.86022)"
         id="content"
         style="font-style:normal;font-variant:normal;font-weight:normal;font-stretch:normal;letter-spacing:normal;word-spacing:normal;text-anchor:start;fill:none;fill-opacity:1;fill-rule:evenodd;stroke:#000000;stroke-linecap:butt;stroke-linejoin:miter;stroke-miterlimit:10.43299961;stroke-dasharray:none;stroke-dashoffset:0;stroke-opacity:1"><path
           id="path4227"
           d="m 466.29,400.37 -0.01,-0.19 -0.01,-0.2 -0.02,-0.2 -0.03,-0.21 -0.04,-0.21 -0.05,-0.21 -0.06,-0.22 -0.07,-0.22 -0.09,-0.22 -0.09,-0.22 -0.11,-0.22 -0.12,-0.22 -0.14,-0.21 -0.15,-0.22 -0.16,-0.21 -0.18,-0.21 -0.2,-0.2 -0.21,-0.19 -0.23,-0.19 -0.25,-0.19 -0.26,-0.17 -0.29,-0.17 -0.3,-0.15 -0.32,-0.15 -0.35,-0.14 -0.36,-0.12 -0.38,-0.12 -0.41,-0.1 -0.21,-0.04 -0.22,-0.04 -0.22,-0.04 -0.23,-0.03 -0.23,-0.03 -0.24,-0.03 -0.25,-0.02 -0.25,-0.02 c -0.25,-0.05 -0.44,-0.25 -0.44,-0.55 0,-0.54 0.55,-0.54 0.99,-0.54 4.84,0 9.47,2.43 9.51,6.21 l 0,11.36 c 0,1.96 0,3.55 2,5.19 1.75,1.45 3.64,1.55 4.74,1.6 0.25,0.04 0.45,0.25 0.45,0.54 0,0.5 -0.31,0.5 -0.8,0.55 -3.29,0.2 -5.68,2 -6.23,4.44 -0.16,0.54 -0.16,0.64 -0.16,2.43 l 0,9.88 c 0,2.08 0,3.69 -2.39,5.58 -1.98,1.54 -5.42,2.03 -7.12,2.03 -0.44,0 -0.99,0 -0.99,-0.55 0,-0.5 0.3,-0.5 0.8,-0.55 3.13,-0.18 5.58,-1.79 6.22,-4.32 0.16,-0.46 0.16,-0.55 0.16,-2.35 l 0,-10.47 c 0,-2.28 0.39,-3.12 1.98,-4.73 1.05,-1.03 2.5,-1.53 3.89,-1.94 -4.08,-1.14 -5.87,-3.44 -5.87,-6.33 z"
           inkscape:connector-curvature="0"
           style="fill:#000000;stroke-width:0" /></g>    </g>
  </g>
</svg>
