<?xml version="1.0" encoding="UTF-8" standalone="no"?>
<!-- Created with Inkscape (http://www.inkscape.org/) -->

<svg
   xmlns:dc="http://purl.org/dc/elements/1.1/"
   xmlns:cc="http://creativecommons.org/ns#"
   xmlns:rdf="http://www.w3.org/1999/02/22-rdf-syntax-ns#"
   xmlns:svg="http://www.w3.org/2000/svg"
   xmlns="http://www.w3.org/2000/svg"
   xmlns:sodipodi="http://sodipodi.sourceforge.net/DTD/sodipodi-0.dtd"
   xmlns:inkscape="http://www.inkscape.org/namespaces/inkscape"
   id="svg2"
   version="1.1"
   inkscape:version="0.48.3.1 r9886"
   width="632.5"
   height="515"
   xml:space="preserve"
   sodipodi:docname="43_4.eps"><metadata
     id="metadata8"><rdf:RDF><cc:Work
         rdf:about=""><dc:format>image/svg+xml</dc:format><dc:type
           rdf:resource="http://purl.org/dc/dcmitype/StillImage" /><dc:title></dc:title></cc:Work></rdf:RDF></metadata><defs
     id="defs6"><clipPath
       clipPathUnits="userSpaceOnUse"
       id="clipPath18"><path
         d="m 3.33203,4.16797 5056.66997,0 0,4115.83003 -5056.66997,0 0,-4115.83003 z"
         id="path20" /></clipPath><clipPath
       clipPathUnits="userSpaceOnUse"
       id="clipPath192"><path
         d="m 656.668,3462.5 0,-2937.5 4268.332,0 0,2937.5 -4268.332,0 z"
         id="path194" /></clipPath><clipPath
       clipPathUnits="userSpaceOnUse"
       id="clipPath220"><path
         d="m 3,4 0,4116 5057,0 L 5060,4 3,4 z"
         id="path222" /></clipPath><clipPath
       clipPathUnits="userSpaceOnUse"
       id="clipPath254"><path
         d="m 559.168,3985.83 0,-3521.662 4464.162,0 0,3521.662 -4464.162,0 z"
         id="path256" /></clipPath></defs><sodipodi:namedview
     pagecolor="#ffffff"
     bordercolor="#666666"
     borderopacity="1"
     objecttolerance="10"
     gridtolerance="10"
     guidetolerance="10"
     inkscape:pageopacity="0"
     inkscape:pageshadow="2"
     inkscape:window-width="640"
     inkscape:window-height="480"
     id="namedview4"
     showgrid="false"
     inkscape:zoom="0.45825243"
     inkscape:cx="316.25"
     inkscape:cy="257.5"
     inkscape:window-x="1624"
     inkscape:window-y="217"
     inkscape:window-maximized="0"
     inkscape:current-layer="g10" /><g
     id="g10"
     inkscape:groupmode="layer"
     inkscape:label="ink_ext_XXXXXX"
     transform="matrix(1.25,0,0,-1.25,0,515)"><g
       id="g12"
       transform="scale(0.1,0.1)"><g
         id="g14"><g
           id="g16"
           clip-path="url(#clipPath18)"><path
             d="m 0,0 5570.83,0 0,4310 L 0,4310 0,0 z"
             style="fill:#ffffff;fill-opacity:1;fill-rule:nonzero;stroke:none"
             id="path22" /><path
             d="m 559.168,465 4463.33,0 0,3520.83 -4463.33,0 0,-3520.83 z"
             style="fill:#ffffff;fill-opacity:1;fill-rule:evenodd;stroke:none"
             id="path24" /><path
             d="m 559.168,465 0,3520.83 4463.332,0 0,-3520.83 -4463.332,0"
             style="fill:none;stroke:#ffffff;stroke-opacity:1;stroke-width:5;stroke-linecap:butt;stroke-linejoin:round;stroke-miterlimit:10;stroke-dasharray:none"
             id="path26" /><path
             d="m 559.168,3985.83 4463.332,0"
             style="fill:none;stroke:#000000;stroke-opacity:1;stroke-width:5;stroke-linecap:butt;stroke-linejoin:round;stroke-miterlimit:10;stroke-dasharray:none"
             id="path28" /><path
             d="M 559.168,465 5022.5,465"
             style="fill:none;stroke:#000000;stroke-opacity:1;stroke-width:5;stroke-linecap:butt;stroke-linejoin:round;stroke-miterlimit:10;stroke-dasharray:none"
             id="path30" /><path
             d="m 5022.5,465 0,3520.83"
             style="fill:none;stroke:#000000;stroke-opacity:1;stroke-width:5;stroke-linecap:butt;stroke-linejoin:round;stroke-miterlimit:10;stroke-dasharray:none"
             id="path32" /><path
             d="m 559.168,465 0,3520.83"
             style="fill:none;stroke:#000000;stroke-opacity:1;stroke-width:5;stroke-linecap:butt;stroke-linejoin:round;stroke-miterlimit:10;stroke-dasharray:none"
             id="path34" /><path
             d="M 559.168,465 5022.5,465"
             style="fill:none;stroke:#000000;stroke-opacity:1;stroke-width:5;stroke-linecap:butt;stroke-linejoin:round;stroke-miterlimit:10;stroke-dasharray:none"
             id="path36" /><path
             d="m 559.168,465 0,3520.83"
             style="fill:none;stroke:#000000;stroke-opacity:1;stroke-width:5;stroke-linecap:butt;stroke-linejoin:round;stroke-miterlimit:10;stroke-dasharray:none"
             id="path38" /><path
             d="m 837.5,465 0,45"
             style="fill:none;stroke:#000000;stroke-opacity:1;stroke-width:5;stroke-linecap:butt;stroke-linejoin:round;stroke-miterlimit:10;stroke-dasharray:none"
             id="path40" /><path
             d="m 837.5,3985.83 0,-44.16"
             style="fill:none;stroke:#000000;stroke-opacity:1;stroke-width:5;stroke-linecap:butt;stroke-linejoin:round;stroke-miterlimit:10;stroke-dasharray:none"
             id="path42" /><g
             id="g44"
             transform="scale(10,10)"><text
               transform="matrix(1,0,0,-1,68.75,26.9168)"
               id="text46"><tspan
                 style="fill:#000000;fill-opacity:1;fill-rule:nonzero;stroke:none;font-family:Helvetica;font-variant:normal;font-weight:normal;font-size:18;writing-mode:lr;-inkscape-font-specification:Helvetica"
                 x="0 10.008 20.016"
                 y="0"
                 sodipodi:role="line"
                 id="tspan48">130</tspan></text>
</g><path
             d="m 1395.83,465 0,45"
             style="fill:none;stroke:#000000;stroke-opacity:1;stroke-width:5;stroke-linecap:butt;stroke-linejoin:round;stroke-miterlimit:10;stroke-dasharray:none"
             id="path50" /><path
             d="m 1395.83,3985.83 0,-44.16"
             style="fill:none;stroke:#000000;stroke-opacity:1;stroke-width:5;stroke-linecap:butt;stroke-linejoin:round;stroke-miterlimit:10;stroke-dasharray:none"
             id="path52" /><g
             id="g54"
             transform="scale(10,10)"><text
               transform="matrix(1,0,0,-1,124.583,26.9168)"
               id="text56"><tspan
                 style="fill:#000000;fill-opacity:1;fill-rule:nonzero;stroke:none;font-family:Helvetica;font-variant:normal;font-weight:normal;font-size:18;writing-mode:lr;-inkscape-font-specification:Helvetica"
                 x="0 10.008 20.016"
                 y="0"
                 sodipodi:role="line"
                 id="tspan58">140</tspan></text>
</g><path
             d="m 1953.33,465 0,45"
             style="fill:none;stroke:#000000;stroke-opacity:1;stroke-width:5;stroke-linecap:butt;stroke-linejoin:round;stroke-miterlimit:10;stroke-dasharray:none"
             id="path60" /><path
             d="m 1953.33,3985.83 0,-44.16"
             style="fill:none;stroke:#000000;stroke-opacity:1;stroke-width:5;stroke-linecap:butt;stroke-linejoin:round;stroke-miterlimit:10;stroke-dasharray:none"
             id="path62" /><g
             id="g64"
             transform="scale(10,10)"><text
               transform="matrix(1,0,0,-1,180.333,26.9168)"
               id="text66"><tspan
                 style="fill:#000000;fill-opacity:1;fill-rule:nonzero;stroke:none;font-family:Helvetica;font-variant:normal;font-weight:normal;font-size:18;writing-mode:lr;-inkscape-font-specification:Helvetica"
                 x="0 10.008 20.016"
                 y="0"
                 sodipodi:role="line"
                 id="tspan68">150</tspan></text>
</g><path
             d="m 2511.67,465 0,45"
             style="fill:none;stroke:#000000;stroke-opacity:1;stroke-width:5;stroke-linecap:butt;stroke-linejoin:round;stroke-miterlimit:10;stroke-dasharray:none"
             id="path70" /><path
             d="m 2511.67,3985.83 0,-44.16"
             style="fill:none;stroke:#000000;stroke-opacity:1;stroke-width:5;stroke-linecap:butt;stroke-linejoin:round;stroke-miterlimit:10;stroke-dasharray:none"
             id="path72" /><g
             id="g74"
             transform="scale(10,10)"><text
               transform="matrix(1,0,0,-1,236.167,26.9168)"
               id="text76"><tspan
                 style="fill:#000000;fill-opacity:1;fill-rule:nonzero;stroke:none;font-family:Helvetica;font-variant:normal;font-weight:normal;font-size:18;writing-mode:lr;-inkscape-font-specification:Helvetica"
                 x="0 10.008 20.016"
                 y="0"
                 sodipodi:role="line"
                 id="tspan78">160</tspan></text>
</g><path
             d="m 3069.17,465 0,45"
             style="fill:none;stroke:#000000;stroke-opacity:1;stroke-width:5;stroke-linecap:butt;stroke-linejoin:round;stroke-miterlimit:10;stroke-dasharray:none"
             id="path80" /><path
             d="m 3069.17,3985.83 0,-44.16"
             style="fill:none;stroke:#000000;stroke-opacity:1;stroke-width:5;stroke-linecap:butt;stroke-linejoin:round;stroke-miterlimit:10;stroke-dasharray:none"
             id="path82" /><g
             id="g84"
             transform="scale(10,10)"><text
               transform="matrix(1,0,0,-1,291.917,26.9168)"
               id="text86"><tspan
                 style="fill:#000000;fill-opacity:1;fill-rule:nonzero;stroke:none;font-family:Helvetica;font-variant:normal;font-weight:normal;font-size:18;writing-mode:lr;-inkscape-font-specification:Helvetica"
                 x="0 10.008 20.016"
                 y="0"
                 sodipodi:role="line"
                 id="tspan88">170</tspan></text>
</g><path
             d="m 3627.5,465 0,45"
             style="fill:none;stroke:#000000;stroke-opacity:1;stroke-width:5;stroke-linecap:butt;stroke-linejoin:round;stroke-miterlimit:10;stroke-dasharray:none"
             id="path90" /><path
             d="m 3627.5,3985.83 0,-44.16"
             style="fill:none;stroke:#000000;stroke-opacity:1;stroke-width:5;stroke-linecap:butt;stroke-linejoin:round;stroke-miterlimit:10;stroke-dasharray:none"
             id="path92" /><g
             id="g94"
             transform="scale(10,10)"><text
               transform="matrix(1,0,0,-1,347.75,26.9168)"
               id="text96"><tspan
                 style="fill:#000000;fill-opacity:1;fill-rule:nonzero;stroke:none;font-family:Helvetica;font-variant:normal;font-weight:normal;font-size:18;writing-mode:lr;-inkscape-font-specification:Helvetica"
                 x="0 10.008 20.016"
                 y="0"
                 sodipodi:role="line"
                 id="tspan98">180</tspan></text>
</g><path
             d="m 4185,465 0,45"
             style="fill:none;stroke:#000000;stroke-opacity:1;stroke-width:5;stroke-linecap:butt;stroke-linejoin:round;stroke-miterlimit:10;stroke-dasharray:none"
             id="path100" /><path
             d="m 4185,3985.83 0,-44.16"
             style="fill:none;stroke:#000000;stroke-opacity:1;stroke-width:5;stroke-linecap:butt;stroke-linejoin:round;stroke-miterlimit:10;stroke-dasharray:none"
             id="path102" /><g
             id="g104"
             transform="scale(10,10)"><text
               transform="matrix(1,0,0,-1,403.5,26.9168)"
               id="text106"><tspan
                 style="fill:#000000;fill-opacity:1;fill-rule:nonzero;stroke:none;font-family:Helvetica;font-variant:normal;font-weight:normal;font-size:18;writing-mode:lr;-inkscape-font-specification:Helvetica"
                 x="0 10.008 20.016"
                 y="0"
                 sodipodi:role="line"
                 id="tspan108">190</tspan></text>
</g><path
             d="m 4743.33,465 0,45"
             style="fill:none;stroke:#000000;stroke-opacity:1;stroke-width:5;stroke-linecap:butt;stroke-linejoin:round;stroke-miterlimit:10;stroke-dasharray:none"
             id="path110" /><path
             d="m 4743.33,3985.83 0,-44.16"
             style="fill:none;stroke:#000000;stroke-opacity:1;stroke-width:5;stroke-linecap:butt;stroke-linejoin:round;stroke-miterlimit:10;stroke-dasharray:none"
             id="path112" /><g
             id="g114"
             transform="scale(10,10)"><text
               transform="matrix(1,0,0,-1,459.333,26.9168)"
               id="text116"><tspan
                 style="fill:#000000;fill-opacity:1;fill-rule:nonzero;stroke:none;font-family:Helvetica;font-variant:normal;font-weight:normal;font-size:18;writing-mode:lr;-inkscape-font-specification:Helvetica"
                 x="0 10.008 20.016"
                 y="0"
                 sodipodi:role="line"
                 id="tspan118">200</tspan></text>
</g><path
             d="m 559.168,465 44.164,0"
             style="fill:none;stroke:#000000;stroke-opacity:1;stroke-width:5;stroke-linecap:butt;stroke-linejoin:round;stroke-miterlimit:10;stroke-dasharray:none"
             id="path120" /><path
             d="m 5022.5,465 -45,0"
             style="fill:none;stroke:#000000;stroke-opacity:1;stroke-width:5;stroke-linecap:butt;stroke-linejoin:round;stroke-miterlimit:10;stroke-dasharray:none"
             id="path122" /><g
             id="g124"
             transform="scale(10,10)"><text
               transform="matrix(1,0,0,-1,32.5,39.8332)"
               id="text126"><tspan
                 style="fill:#000000;fill-opacity:1;fill-rule:nonzero;stroke:none;font-family:Helvetica;font-variant:normal;font-weight:normal;font-size:18;writing-mode:lr;-inkscape-font-specification:Helvetica"
                 x="0 10.512"
                 y="0"
                 sodipodi:role="line"
                 id="tspan128">−2</tspan></text>
</g><path
             d="m 559.168,1169.17 44.164,0"
             style="fill:none;stroke:#000000;stroke-opacity:1;stroke-width:5;stroke-linecap:butt;stroke-linejoin:round;stroke-miterlimit:10;stroke-dasharray:none"
             id="path130" /><path
             d="m 5022.5,1169.17 -45,0"
             style="fill:none;stroke:#000000;stroke-opacity:1;stroke-width:5;stroke-linecap:butt;stroke-linejoin:round;stroke-miterlimit:10;stroke-dasharray:none"
             id="path132" /><g
             id="g134"
             transform="scale(10,10)"><text
               transform="matrix(1,0,0,-1,32.5,110.25)"
               id="text136"><tspan
                 style="fill:#000000;fill-opacity:1;fill-rule:nonzero;stroke:none;font-family:Helvetica;font-variant:normal;font-weight:normal;font-size:18;writing-mode:lr;-inkscape-font-specification:Helvetica"
                 x="0 10.512"
                 y="0"
                 sodipodi:role="line"
                 id="tspan138">−1</tspan></text>
</g><path
             d="m 559.168,1873.33 44.164,0"
             style="fill:none;stroke:#000000;stroke-opacity:1;stroke-width:5;stroke-linecap:butt;stroke-linejoin:round;stroke-miterlimit:10;stroke-dasharray:none"
             id="path140" /><path
             d="m 5022.5,1873.33 -45,0"
             style="fill:none;stroke:#000000;stroke-opacity:1;stroke-width:5;stroke-linecap:butt;stroke-linejoin:round;stroke-miterlimit:10;stroke-dasharray:none"
             id="path142" /><g
             id="g144"
             transform="scale(10,10)"><text
               transform="matrix(1,0,0,-1,43,180.667)"
               id="text146"><tspan
                 style="fill:#000000;fill-opacity:1;fill-rule:nonzero;stroke:none;font-family:Helvetica;font-variant:normal;font-weight:normal;font-size:18;writing-mode:lr;-inkscape-font-specification:Helvetica"
                 x="0"
                 y="0"
                 id="tspan148">0</tspan></text>
</g><path
             d="m 559.168,2577.5 44.164,0"
             style="fill:none;stroke:#000000;stroke-opacity:1;stroke-width:5;stroke-linecap:butt;stroke-linejoin:round;stroke-miterlimit:10;stroke-dasharray:none"
             id="path150" /><path
             d="m 5022.5,2577.5 -45,0"
             style="fill:none;stroke:#000000;stroke-opacity:1;stroke-width:5;stroke-linecap:butt;stroke-linejoin:round;stroke-miterlimit:10;stroke-dasharray:none"
             id="path152" /><g
             id="g154"
             transform="scale(10,10)"><text
               transform="matrix(1,0,0,-1,43,251.083)"
               id="text156"><tspan
                 style="fill:#000000;fill-opacity:1;fill-rule:nonzero;stroke:none;font-family:Helvetica;font-variant:normal;font-weight:normal;font-size:18;writing-mode:lr;-inkscape-font-specification:Helvetica"
                 x="0"
                 y="0"
                 id="tspan158">1</tspan></text>
</g><path
             d="m 559.168,3281.67 44.164,0"
             style="fill:none;stroke:#000000;stroke-opacity:1;stroke-width:5;stroke-linecap:butt;stroke-linejoin:round;stroke-miterlimit:10;stroke-dasharray:none"
             id="path160" /><path
             d="m 5022.5,3281.67 -45,0"
             style="fill:none;stroke:#000000;stroke-opacity:1;stroke-width:5;stroke-linecap:butt;stroke-linejoin:round;stroke-miterlimit:10;stroke-dasharray:none"
             id="path162" /><g
             id="g164"
             transform="scale(10,10)"><text
               transform="matrix(1,0,0,-1,43,321.5)"
               id="text166"><tspan
                 style="fill:#000000;fill-opacity:1;fill-rule:nonzero;stroke:none;font-family:Helvetica;font-variant:normal;font-weight:normal;font-size:18;writing-mode:lr;-inkscape-font-specification:Helvetica"
                 x="0"
                 y="0"
                 id="tspan168">2</tspan></text>
</g><path
             d="m 559.168,3985.83 44.164,0"
             style="fill:none;stroke:#000000;stroke-opacity:1;stroke-width:5;stroke-linecap:butt;stroke-linejoin:round;stroke-miterlimit:10;stroke-dasharray:none"
             id="path170" /><path
             d="m 5022.5,3985.83 -45,0"
             style="fill:none;stroke:#000000;stroke-opacity:1;stroke-width:5;stroke-linecap:butt;stroke-linejoin:round;stroke-miterlimit:10;stroke-dasharray:none"
             id="path172" /><g
             id="g174"
             transform="scale(10,10)"><text
               transform="matrix(1,0,0,-1,43,391.917)"
               id="text176"><tspan
                 style="fill:#000000;fill-opacity:1;fill-rule:nonzero;stroke:none;font-family:Helvetica;font-variant:normal;font-weight:normal;font-size:18;writing-mode:lr;-inkscape-font-specification:Helvetica"
                 x="0"
                 y="0"
                 id="tspan178">3</tspan></text>
</g><path
             d="m 559.168,3985.83 4463.332,0"
             style="fill:none;stroke:#000000;stroke-opacity:1;stroke-width:5;stroke-linecap:butt;stroke-linejoin:round;stroke-miterlimit:10;stroke-dasharray:none"
             id="path180" /><path
             d="M 559.168,465 5022.5,465"
             style="fill:none;stroke:#000000;stroke-opacity:1;stroke-width:5;stroke-linecap:butt;stroke-linejoin:round;stroke-miterlimit:10;stroke-dasharray:none"
             id="path182" /><path
             d="m 5022.5,465 0,3520.83"
             style="fill:none;stroke:#000000;stroke-opacity:1;stroke-width:5;stroke-linecap:butt;stroke-linejoin:round;stroke-miterlimit:10;stroke-dasharray:none"
             id="path184" /><path
             d="m 559.168,465 0,3520.83"
             style="fill:none;stroke:#000000;stroke-opacity:1;stroke-width:5;stroke-linecap:butt;stroke-linejoin:round;stroke-miterlimit:10;stroke-dasharray:none"
             id="path186" /></g></g><g
         id="g188"><g
           id="g190"
           clip-path="url(#clipPath192)"><path
             d="m 747.5,3281.67 180,0"
             style="fill:none;stroke:#000000;stroke-opacity:1;stroke-width:5;stroke-linecap:butt;stroke-linejoin:round;stroke-miterlimit:10;stroke-dasharray:none"
             id="path196" /><path
             d="m 837.5,3371.67 0,-180"
             style="fill:none;stroke:#000000;stroke-opacity:1;stroke-width:5;stroke-linecap:butt;stroke-linejoin:round;stroke-miterlimit:10;stroke-dasharray:none"
             id="path198" /><path
             d="m 1305.83,2757.5 180,0"
             style="fill:none;stroke:#000000;stroke-opacity:1;stroke-width:5;stroke-linecap:butt;stroke-linejoin:round;stroke-miterlimit:10;stroke-dasharray:none"
             id="path200" /><path
             d="m 1395.83,2847.5 0,-180"
             style="fill:none;stroke:#000000;stroke-opacity:1;stroke-width:5;stroke-linecap:butt;stroke-linejoin:round;stroke-miterlimit:10;stroke-dasharray:none"
             id="path202" /><path
             d="m 2421.67,1873.33 180,0"
             style="fill:none;stroke:#000000;stroke-opacity:1;stroke-width:5;stroke-linecap:butt;stroke-linejoin:round;stroke-miterlimit:10;stroke-dasharray:none"
             id="path204" /><path
             d="m 2511.67,1963.33 0,-180"
             style="fill:none;stroke:#000000;stroke-opacity:1;stroke-width:5;stroke-linecap:butt;stroke-linejoin:round;stroke-miterlimit:10;stroke-dasharray:none"
             id="path206" /><path
             d="m 3537.5,1198.33 180,0"
             style="fill:none;stroke:#000000;stroke-opacity:1;stroke-width:5;stroke-linecap:butt;stroke-linejoin:round;stroke-miterlimit:10;stroke-dasharray:none"
             id="path208" /><path
             d="m 3627.5,1288.33 0,-180"
             style="fill:none;stroke:#000000;stroke-opacity:1;stroke-width:5;stroke-linecap:butt;stroke-linejoin:round;stroke-miterlimit:10;stroke-dasharray:none"
             id="path210" /><path
             d="m 4653.33,706.668 180,0"
             style="fill:none;stroke:#000000;stroke-opacity:1;stroke-width:5;stroke-linecap:butt;stroke-linejoin:round;stroke-miterlimit:10;stroke-dasharray:none"
             id="path212" /><path
             d="m 4743.33,796.668 0,-180"
             style="fill:none;stroke:#000000;stroke-opacity:1;stroke-width:5;stroke-linecap:butt;stroke-linejoin:round;stroke-miterlimit:10;stroke-dasharray:none"
             id="path214" /></g></g><g
         id="g216"><g
           id="g218"
           clip-path="url(#clipPath220)"><g
             id="g224"
             transform="scale(10,10)"><text
               transform="matrix(1,0,0,-1,258.5,6.0832)"
               id="text226"><tspan
                 style="fill:#000000;fill-opacity:1;fill-rule:nonzero;stroke:none;font-family:Helvetica;font-variant:normal;font-weight:normal;font-size:16;writing-mode:lr;-inkscape-font-specification:Helvetica"
                 x="0 9.776 14.224"
                 y="0"
                 sodipodi:role="line"
                 id="tspan228">T (</tspan></text>
<text
               transform="matrix(1,0,0,-1,278,14.0832)"
               id="text230"><tspan
                 style="fill:#000000;fill-opacity:1;fill-rule:nonzero;stroke:none;font-family:Symbol;font-variant:normal;font-weight:normal;font-size:12;writing-mode:lr;-inkscape-font-specification:Symbol"
                 x="0"
                 y="0"
                 id="tspan232">°</tspan></text>
<text
               transform="matrix(1,0,0,-1,282.75,6.0832)"
               id="text234"><tspan
                 style="fill:#000000;fill-opacity:1;fill-rule:nonzero;stroke:none;font-family:Helvetica;font-variant:normal;font-weight:normal;font-size:16;writing-mode:lr;-inkscape-font-specification:Helvetica"
                 x="0 11.552"
                 y="0"
                 sodipodi:role="line"
                 id="tspan236">C)</tspan></text>
<text
               transform="matrix(0,1,1,0,17.25,198.583)"
               id="text238"><tspan
                 style="fill:#000000;fill-opacity:1;fill-rule:nonzero;stroke:none;font-family:Helvetica;font-variant:normal;font-weight:normal;font-size:16;writing-mode:lr;-inkscape-font-specification:Helvetica"
                 x="0 3.552 12.448 21.344 26.672"
                 y="0"
                 sodipodi:role="line"
                 id="tspan240">log(a</tspan></text>
<text
               transform="matrix(0,1,1,0,25.25,234.083)"
               id="text242"><tspan
                 style="fill:#000000;fill-opacity:1;fill-rule:nonzero;stroke:none;font-family:Helvetica;font-variant:normal;font-weight:normal;font-size:12;writing-mode:lr;-inkscape-font-specification:Helvetica"
                 x="0"
                 y="0"
                 id="tspan244">T</tspan></text>
<text
               transform="matrix(0,1,1,0,17.25,241.333)"
               id="text246"><tspan
                 style="fill:#000000;fill-opacity:1;fill-rule:nonzero;stroke:none;font-family:Helvetica;font-variant:normal;font-weight:normal;font-size:16;writing-mode:lr;-inkscape-font-specification:Helvetica"
                 x="0"
                 y="0"
                 id="tspan248">)</tspan></text>
</g></g></g><g
         id="g250"><g
           id="g252"
           clip-path="url(#clipPath254)"><path
             d="m 837.5,3290.83 40,-41.66 39.168,-41.67 39.164,-40.83 40,-40 39.168,-40 39.17,-39.17 40,-39.17 39.16,-38.33 39.17,-38.33 40,-37.5 39.17,-37.5 39.16,-36.67 40,-35.83 39.17,-35.84 39.17,-35.83 40,-35 39.16,-35 39.17,-34.17 40,-34.16 39.17,-33.34 39.16,-33.33 40,-32.5 39.17,-32.5 39.17,-32.5 40,-31.67 39.16,-31.66 39.17,-30.84 40,-30.83 39.17,-30.83 39.16,-30 40,-30 39.17,-29.17 39.17,-29.17 40,-29.16 39.16,-29.17 39.17,-28.33 40,-27.5 39.17,-28.34 39.16,-27.5 40,-27.5 39.17,-26.66 39.17,-26.67 40,-26.67 39.16,-25.83 39.17,-26.67 40,-25 39.17,-25.83 39.16,-25 40,-25 39.17,-25 40,-24.17 39.17,-25 39.16,-24.16 40,-23.34 39.17,-24.16 39.17,-23.34 40,-23.33 39.16,-22.5 39.17,-23.33 40,-22.5 39.17,-22.5 39.16,-21.67 40,-22.5 39.17,-21.67 39.17,-21.66 40,-21.67 39.16,-20.83 39.17,-20.84 40,-20.83 39.17,-20.83 39.16,-20.84 40,-20 39.17,-20 39.17,-20 40,-20 39.16,-20 39.17,-19.16 40,-20 39.17,-19.17 39.16,-18.33 40,-19.17 39.17,-19.168 39.17,-18.332 40,-18.332 39.16,-18.336 L 4230,920 l 40,-17.5 39.17,-18.332 39.16,-17.5 40,-17.5 39.17,-17.5 39.17,-17.5 40,-16.668 39.16,-17.5 39.17,-16.668 40,-16.664 39.17,-16.668 39.16,-16.668 40,-15.832"
             style="fill:none;stroke:#000000;stroke-opacity:1;stroke-width:5;stroke-linecap:butt;stroke-linejoin:round;stroke-miterlimit:10;stroke-dasharray:none"
             id="path258" /></g></g></g></g></svg>