<?xml version="1.0" encoding="UTF-8" standalone="no"?>
<!-- Created with Inkscape (http://www.inkscape.org/) -->

<svg
   xmlns:dc="http://purl.org/dc/elements/1.1/"
   xmlns:cc="http://creativecommons.org/ns#"
   xmlns:rdf="http://www.w3.org/1999/02/22-rdf-syntax-ns#"
   xmlns:svg="http://www.w3.org/2000/svg"
   xmlns="http://www.w3.org/2000/svg"
   xmlns:sodipodi="http://sodipodi.sourceforge.net/DTD/sodipodi-0.dtd"
   xmlns:inkscape="http://www.inkscape.org/namespaces/inkscape"
   width="446.8233"
   height="194.79166"
   id="svg2"
   version="1.1"
   inkscape:version="0.48.4 r9939"
   sodipodi:docname="Amorphous Polymers.svg">
  <sodipodi:namedview
     id="base"
     pagecolor="#ffffff"
     bordercolor="#666666"
     borderopacity="1.0"
     inkscape:pageopacity="0.0"
     inkscape:pageshadow="2"
     inkscape:zoom="1.85"
     inkscape:cx="178.21165"
     inkscape:cy="102.24176"
     inkscape:document-units="px"
     inkscape:current-layer="layer1"
     showgrid="true"
     units="in"
     width="11cm"
     inkscape:window-width="1280"
     inkscape:window-height="967"
     inkscape:window-x="0"
     inkscape:window-y="0"
     inkscape:window-maximized="1"
     fit-margin-top="0"
     fit-margin-left="0"
     fit-margin-right="0"
     fit-margin-bottom="0"
     inkscape:snap-grids="false">
    <inkscape:grid
       type="xygrid"
       id="grid2984"
       empspacing="5"
       visible="true"
       enabled="true"
       snapvisiblegridlinesonly="true"
       spacingx="2px"
       spacingy="2px"
       originx="-23.689946px"
       originy="-138.04003px" />
  </sodipodi:namedview>
  <defs
     id="defs4">
    <marker
       style="overflow:visible"
       id="Arrow2Mend"
       refX="0"
       refY="0"
       orient="auto"
       inkscape:stockid="Arrow2Mend">
      <path
         transform="scale(-0.6,-0.6)"
         d="M 8.7185878,4.0337352 -2.2072895,0.01601326 8.7185884,-4.0017078 c -1.7454984,2.3720609 -1.7354408,5.6174519 -6e-7,8.035443 z"
         style="fill-rule:evenodd;stroke-width:0.625;stroke-linejoin:round"
         id="path3966"
         inkscape:connector-curvature="0" />
    </marker>
  </defs>
  <metadata
     id="metadata7">
    <rdf:RDF>
      <cc:Work
         rdf:about="">
        <dc:format>image/svg+xml</dc:format>
        <dc:type
           rdf:resource="http://purl.org/dc/dcmitype/StillImage" />
        <dc:title />
      </cc:Work>
    </rdf:RDF>
  </metadata>
  <g
     transform="translate(39.338412,-743.21555)"
     id="layer1"
     inkscape:groupmode="layer"
     inkscape:label="Layer 1">
    <path
       style="fill:none;stroke:#000000;stroke-width:1.5;stroke-linecap:butt;stroke-linejoin:miter;stroke-miterlimit:4;stroke-opacity:1;stroke-dasharray:none"
       d="m 24.440154,86.558872 c 0,0 -0.122302,15.999618 5.559846,21.833978 10.588432,10.87207 20.888351,6.04236 31.042471,9.05405 13.488982,4.00081 23.816534,12.0723 33.976831,9.67182 14.054278,-3.32049 4.448494,-34.641565 24.942088,-33.764481 21.41285,0.916427 25.28958,3.687259 47.81853,4.2278 33.25289,-6.926223 52.09326,-19.641761 78.61004,-19.111971 21.05796,-0.355176 5.73358,57.413132 11.79535,61.196912 6.05931,3.78224 8.7645,-2.70269 8.7645,-2.70269"
       id="path23001"
       inkscape:connector-curvature="0"
       transform="translate(-63.028358,665.51153)"
       sodipodi:nodetypes="cssssccsc" />
    <path
       style="fill:none;stroke:#000000;stroke-width:1.5;stroke-linecap:butt;stroke-linejoin:miter;stroke-miterlimit:4;stroke-opacity:1;stroke-dasharray:none"
       d="m 72.857143,113.12258 c 0,0 14.630053,-11.86128 21.216216,-5.94594 8.491811,7.6269 82.032551,22.11283 90.482621,18.26254 8.13443,-3.70647 25.15445,-7.20077 28.8417,-22.41313 2.32302,-23.967533 -49.73456,-26.481668 -64.01544,-13.97683 -12.89576,12.85714 -6.04248,51.46718 -6.04248,57.89575 0,6.42858 -12.36924,17.84908 -32.68339,17.54826 -22.162162,-0.32818 -35.61776,-3.06949 -42.799227,-13.59073 -7.032604,-10.30315 -18.223938,-11.46718 -22.509653,-5.75289 -4.285714,5.71428 1.119691,13.4749 -5.675676,14.40154 -6.330179,0.86321 -4.806949,-4.47876 -4.806949,-4.47876"
       id="path23003"
       inkscape:connector-curvature="0"
       transform="translate(-63.028358,665.51153)"
       sodipodi:nodetypes="cssccsssssc" />
    <path
       style="fill:none;stroke:#000000;stroke-width:1.5;stroke-linecap:butt;stroke-linejoin:miter;stroke-miterlimit:4;stroke-opacity:1;stroke-dasharray:none"
       d="m 64.539211,819.29047 c 0,0 6.48649,0.54054 10.81081,4.32433 4.32432,3.78378 0.55535,16.79887 7.56756,18.91892 9.49839,2.8717 33.263069,-4.0935 36.756759,3.24324 5.4054,11.35135 4.32432,33.51351 -7.02702,38.91892 -7.86929,3.74728 -46.284709,1.29456 -50.270269,-5.40541 C 55.89056,868.38629 12.320974,864.36855 5.0797505,869.0202 c -9.659209,6.20492 -15.4667565,26.86205 -10.810811,32.97298 8.648649,11.35135 59.4594545,11.35135 67.5675715,4.86486 4.71912,-3.77529 2.84982,-43.72552 -4.86487,-47.02703 -5.987169,-2.56221 -10.54753,-4.55172 -19.459459,-8.1081"
       id="path23005"
       inkscape:connector-curvature="0"
       sodipodi:nodetypes="csssssssssc" />
    <path
       style="fill:none;stroke:#000000;stroke-width:1.5;stroke-linecap:butt;stroke-linejoin:miter;stroke-miterlimit:4;stroke-opacity:1;stroke-dasharray:none"
       d="m 152.43244,194.86003 c 0,0 32.97296,5.4054 34.59458,35.67567 1.62163,30.27027 -4.86486,31.35136 4.32433,37.2973 8.91618,5.76929 38.80986,3.94736 42.16216,-1.08108 3.24325,-4.86486 -0.68543,-18.51113 4.86487,-29.72973 5.9346,-11.99538 35.67568,-15.67567 52.97297,-15.13513 17.39826,0.5437 29.72973,14.59459 42.7027,27.56757 12.97297,12.97297 49.72974,13.5135 56.21622,6.48648 4.18033,-4.52867 1.62162,-22.16216 12.43243,-27.02702 8.92735,-4.01731 51.61625,-4.60961 58.37838,-11.8919 7.02703,-7.56757 15.13513,-30.81081 0.54055,-35.67567 -16.48162,-5.49387 -26.48649,-5.40541 -30.27028,-11.35136 -4.0732,-6.40072 -5.16457,-15.78119 -18.91891,-20.54053 -18.96578,-6.56262 -41.45742,-10.70064 -37.29731,-24.32433 3.90851,-12.79971 40,-12.97297 40,-12.97297"
       id="path23007"
       inkscape:connector-curvature="0"
       transform="translate(-63.028358,665.51153)"
       sodipodi:nodetypes="csssssssssssssc" />
    <path
       style="fill:none;stroke:#000000;stroke-width:1px;stroke-linecap:butt;stroke-linejoin:miter;stroke-opacity:1"
       d="m 373.51351,190.53571 c 2.70271,4.32432 12.97298,12.97297 27.02703,11.35135 14.05405,-1.62163 29.62993,-2.81675 37.2973,5.94594 7.56757,8.64865 10.05485,26.48517 4.32433,35.67568 -5.00295,8.02364 -21.86044,10.12036 -26.4865,2.16216 -8.03062,-13.81508 9.72973,-20.54054 9.72973,-20.54054"
       id="path23009"
       inkscape:connector-curvature="0"
       transform="translate(-63.028358,665.51153)"
       sodipodi:nodetypes="cssssc" />
    <path
       style="fill:none;stroke:#000000;stroke-width:1.5;stroke-linecap:butt;stroke-linejoin:miter;stroke-miterlimit:4;stroke-opacity:1;stroke-dasharray:none"
       d="m 192.97298,133.23841 c 0,0 1.62161,5.94595 -2.70271,8.10811 -4.32433,2.16216 -29.27048,8.52346 -27.56757,15.67567 2.70271,11.35136 41.62162,6.48649 55.67568,22.16216 14.05405,15.67568 91.89189,-7.02702 111.35135,11.35136 19.45946,18.37837 31.631,12.86551 29.18919,23.24324 -2.16216,9.18919 -11.35135,18.37838 -21.08108,18.91892 -9.72973,0.54054 -70.27027,2.16216 -78.91892,-7.56757 -15.8841,-14.68843 -14.47502,-20.58122 -16.21622,-31.89189"
       id="path23011"
       inkscape:connector-curvature="0"
       transform="translate(-63.028358,665.51153)"
       sodipodi:nodetypes="csssssscc" />
    <path
       style="fill:none;stroke:#000000;stroke-width:1.5;stroke-linecap:butt;stroke-linejoin:miter;stroke-miterlimit:4;stroke-opacity:1;stroke-dasharray:none"
       d="m 214.05405,169.45462 c -8.1081,1.08108 -14.59459,5.40541 -11.89189,9.72973 2.7027,4.32433 5.94595,1.08109 9.18919,8.10812 3.24324,7.02702 9.72973,47.02702 15.13514,52.43242 5.4054,5.40541 37.2973,2.16217 42.16217,-3.24323 4.39908,-4.88788 0.54053,-23.24324 12.43242,-28.64865 11.85109,-5.38686 61.62163,-16.75676 60,-3.78379 -1.62162,12.97297 -21.08108,13.51351 -29.18919,8.64864 -6.45594,-3.87356 -18.37838,-16.2162 -21.62162,-24.86486 -2.46736,-6.57961 -11.35916,-18.78294 -31.35135,-19.99999 -19.62193,-1.19451 -32.31613,-2.14301 -44.86487,1.62161 z"
       id="path23013"
       inkscape:connector-curvature="0"
       transform="translate(-63.028358,665.51153)"
       sodipodi:nodetypes="csssssssssc" />
    <path
       style="fill:none;stroke:#000000;stroke-width:1.5;stroke-linecap:butt;stroke-linejoin:miter;stroke-miterlimit:4;stroke-opacity:1;stroke-dasharray:none"
       d="m 236.4311,815.50669 c 0,0 -1.62161,10.27027 9.72974,12.97297 11.35135,2.70271 25.55547,0.27927 28.1081,-7.02702 2.69609,-7.71689 -3.78378,-16.21622 -9.72973,-19.45946 -6.45442,-3.52058 -25.40541,-21.62162 -16.75676,-21.62162 8.64865,0 22.70271,1.62162 29.1892,-2.7027 7.45767,-3.86654 22.46984,-10.06787 36.21621,-5.94596 10.91365,3.77218 22.0778,33.16434 0,40.54055 -13.81949,4.61711 -26.74102,15.81057 -22.16216,23.78379 5.6015,9.75392 16.3945,13.80076 29.18919,9.72972 11.89189,-3.78378 15.35436,-6.0246 15.67567,-18.91891 0.37511,-15.05305 -38.37837,-12.97298 -45.94594,-21.62162 -4.84143,-5.53306 3.24324,-15.13514 8.10811,-16.21622"
       id="path23015"
       inkscape:connector-curvature="0"
       sodipodi:nodetypes="cssssccsssssc" />
    <path
       style="fill:none;stroke:#ff0000;stroke-width:1.5;stroke-linecap:butt;stroke-linejoin:miter;stroke-miterlimit:4;stroke-opacity:1;stroke-dasharray:none"
       d="m 244.86486,166.75192 c 0,0 -17.29729,-29.72973 -9.72972,-49.18919 7.56756,-19.459457 7.56757,-27.567565 27.02702,-28.648646 18.77378,-1.042988 29.72973,-2.162162 24.86487,14.594596 -4.86487,16.75676 -6.43937,53.48552 -3.24325,58.91892 5.40541,9.18919 32.97298,14.05405 37.2973,8.64865 6.04048,-7.5506 4.86487,-26.48649 -2.7027,-31.8919 -7.56757,-5.4054 -84.32433,-11.89188 -89.72973,-8.10811 -4.76941,3.33859 -10.27027,10.27028 -21.62163,14.05406 -7.62334,2.54111 -14.05405,-2.16216 -14.05405,-2.16216"
       id="path23017"
       inkscape:connector-curvature="0"
       transform="translate(-63.028358,665.51153)"
       sodipodi:nodetypes="cssssssssc" />
  </g>
</svg>
