<?xml version="1.0" ?><svg height="79.95256mm" version="1.0" viewBox="0 0 977 302" width="258.65449mm" xmlns="http://www.w3.org/2000/svg">
  <g font-family="Helvetica" font-size="12pt" stroke-linecap="round" transform="translate(-103,-36)">
    <ellipse cx="239.74" cy="51.75" fill="#ff0000" rx="9.25" ry="9.25" stroke="#ff0000" stroke-width="2.26634382567"/>
    <ellipse cx="118.51" cy="68.52" fill="#000000" rx="9.24" ry="9.25" stroke="#000000" stroke-width="2.26634382567"/>
    <ellipse cx="129.50" cy="85.52" fill="#000000" rx="9.24" ry="9.25" stroke="#000000" stroke-width="2.26634382567"/>
    <ellipse cx="143.52" cy="99.53" fill="#000000" rx="9.24" ry="9.25" stroke="#000000" stroke-width="2.26634382567"/>
    <ellipse cx="211.51" cy="72.52" fill="#000000" rx="9.24" ry="9.25" stroke="#000000" stroke-width="2.26634382567"/>
    <ellipse cx="417.52" cy="57.53" fill="#000000" rx="9.24" ry="9.25" stroke="#000000" stroke-width="2.26634382567"/>
    <ellipse cx="223.52" cy="58.51" fill="#000000" rx="9.24" ry="9.25" stroke="#000000" stroke-width="2.26634382567"/>
    <ellipse cx="205.50" cy="89.52" fill="#000000" rx="9.24" ry="9.25" stroke="#000000" stroke-width="2.26634382567"/>
    <ellipse cx="196.51" cy="105.54" fill="#000000" rx="9.24" ry="9.25" stroke="#000000" stroke-width="2.26634382567"/>
    <ellipse cx="179.51" cy="108.52" fill="#000000" rx="9.24" ry="9.25" stroke="#000000" stroke-width="2.26634382567"/>
    <ellipse cx="160.51" cy="107.50" fill="#000000" rx="9.24" ry="9.25" stroke="#000000" stroke-width="2.26634382567"/>
    <g stroke="#000000" stroke-width="2.27555555556">
      <polyline fill="none" points="144.22 212.66 144.16 216.06 148.37 209.33 152.35 216.20 156.56 209.48 160.54 216.35 164.75 209.62 168.73 216.49 172.94 209.76 176.92 216.63 181.13 209.91 185.11 216.78 189.32 210.05 188.00 213.43"/>
    </g>
    <g stroke="#000000" stroke-linecap="butt" stroke-width="2.27555555556">
      <line x1="210.27" x2="219.51" y1="196.00" y2="180.00"/>
    </g>
    <g stroke="#000000" stroke-linecap="butt" stroke-width="2.27555555556">
      <line x1="207.21" x2="215.87" y1="226.00" y2="241.00"/>
    </g>
    <text fill="#000000" font-family="Arial" font-size="24pt" x="215.30" y="266.46">R</text>
    <text fill="#ff0000" font-family="Arial" font-size="24pt" x="189.30" y="220.64">C</text>
    <ellipse cx="218.551089588" cy="212.356416465" fill="#ff0000" rx="2.0" ry="2.0" stroke="#ff0000" stroke-width="1"/>
    <text fill="#000000" font-family="Arial" font-size="24pt" x="215.30" y="174.86">H</text>
    <g stroke="#000000" stroke-width="2.26634382567">
      <line x1="468.00" x2="422.22" y1="303.80" y2="330.24"/>
      <line x1="460.60" x2="421.69" y1="298.92" y2="321.39"/>
    </g>
    <g stroke="#000000" stroke-linecap="butt" stroke-width="2.26634382567">
      <line x1="435.00" x2="463.00" y1="171.68" y2="171.68"/>
    </g>
    <g stroke="#000000" stroke-width="2.26634382567">
      <line x1="376.44" x2="422.22" y1="251.00" y2="224.56"/>
    </g>
    <g stroke="#000000" stroke-linecap="butt" stroke-width="2.26634382567">
      <line x1="410.00" x2="382.00" y1="171.68" y2="171.68"/>
    </g>
    <g stroke="#000000" stroke-width="2.26634382567">
      <line x1="376.44" x2="422.22" y1="303.80" y2="330.24"/>
    </g>
    <g stroke="#000000" stroke-width="2.26634382567">
      <line x1="422.22" x2="468.00" y1="224.56" y2="251.00"/>
      <line x1="421.69" x2="460.60" y1="233.41" y2="255.88"/>
    </g>
    <g stroke="#000000" stroke-width="2.26634382567">
      <line x1="376.44" x2="376.44" y1="251.00" y2="303.80"/>
      <line x1="384.37" x2="384.37" y1="254.96" y2="299.84"/>
    </g>
    <g stroke="#ffffff" stroke-linecap="butt" stroke-width="2.26634382567">
      <line x1="422.22" x2="422.22" y1="154.00" y2="143.00"/>
    </g>
    <g stroke="#000000" stroke-width="2.26634382567">
      <line x1="468.00" x2="468.00" y1="251.00" y2="303.80"/>
    </g>
    <g stroke="#000000" stroke-width="2.26634382567">
      <line x1="422.22" x2="422.22" y1="224.56" y2="184.00"/>
    </g>
    <text fill="#000000" font-family="Arial" font-size="24pt" x="358.30" y="178.68">H</text>
    <text fill="#000000" font-family="Arial" font-size="24pt" x="464.30" y="178.68">H</text>
    <text fill="#000000" font-family="Arial" font-size="24pt" x="411.30" y="178.68">C</text>
    <ellipse cx="428.409854722" cy="151.485544794" fill="#000" rx="2.0" ry="2.0" stroke="#000" stroke-width="1"/>
    <text fill="#0000ff" font-family="Arial" font-size="24pt" x="411.30" y="137.77">H</text>
    <ellipse cx="417.219854722" cy="150.998038741" fill="#0000ff" rx="2.0" ry="2.0" stroke="#0000ff" stroke-width="1"/>
    <polyline fill="none" points="594.01,143.99 646.44,143.99" stroke="#000000" stroke-width="2.26634382567"/>
    <polygon fill="#000000" fill-rule="evenodd" points="654.44,143.99 644.44,140.99 646.44,143.99 644.44,146.99" stroke="#000000" stroke-width="1"/>
    <path d="M394.99,126.99 Q356.00,126.01 334.49,133.00Q312.98,139.98 307.49,145.99 Q301.99,152.00 301.50,166.50 Q301.01,181.01 295.00,192.00 Q289.00,202.99 271.49,208.99 Q253.98,215.00 245.94,213.99 " fill="none" stroke="#0000ff" stroke-width="2.26634382567"/>
    <polygon fill="#0000ff" fill-rule="evenodd" points="238.00,213.00 247.55,217.22 245.94,213.99 248.30,211.27" stroke="#0000ff" stroke-width="1"/>
    <ellipse cx="820.49" cy="65.99" fill="#000000" rx="9.25" ry="9.25" stroke="#000000" stroke-width="2.26634382567"/>
    <ellipse cx="699.26" cy="82.76" fill="#000000" rx="9.24" ry="9.25" stroke="#000000" stroke-width="2.26634382567"/>
    <ellipse cx="710.25" cy="99.76" fill="#000000" rx="9.24" ry="9.25" stroke="#000000" stroke-width="2.26634382567"/>
    <ellipse cx="724.27" cy="113.77" fill="#000000" rx="9.24" ry="9.25" stroke="#000000" stroke-width="2.26634382567"/>
    <ellipse cx="792.26" cy="86.76" fill="#000000" rx="9.24" ry="9.25" stroke="#000000" stroke-width="2.26634382567"/>
    <ellipse cx="998.27" cy="71.77" fill="#ff0000" rx="9.24" ry="9.25" stroke="#ff0000" stroke-width="2.26634382567"/>
    <ellipse cx="804.27" cy="72.75" fill="#000000" rx="9.24" ry="9.25" stroke="#000000" stroke-width="2.26634382567"/>
    <ellipse cx="786.25" cy="103.76" fill="#000000" rx="9.24" ry="9.25" stroke="#000000" stroke-width="2.26634382567"/>
    <ellipse cx="777.26" cy="119.78" fill="#000000" rx="9.24" ry="9.25" stroke="#000000" stroke-width="2.26634382567"/>
    <ellipse cx="760.26" cy="122.76" fill="#000000" rx="9.24" ry="9.25" stroke="#000000" stroke-width="2.26634382567"/>
    <ellipse cx="741.26" cy="121.74" fill="#000000" rx="9.24" ry="9.25" stroke="#000000" stroke-width="2.26634382567"/>
    <g stroke="#000000" stroke-linecap="butt" stroke-width="2.26634382567">
      <line x1="792.00" x2="805.00" y1="232.21" y2="232.55"/>
    </g>
    <g stroke="#000000" stroke-width="2.27555555556">
      <polyline fill="none" points="723.98 230.90 723.92 234.30 728.14 227.58 732.11 234.45 736.33 227.72 740.31 234.59 744.52 227.86 748.50 234.73 752.71 228.01 756.69 234.88 760.90 228.15 764.88 235.02 769.09 228.30 767.00 231.66"/>
    </g>
    <g stroke="#000000" stroke-linecap="butt" stroke-width="2.26634382567">
      <line x1="779.85" x2="779.85" y1="214.00" y2="191.00"/>
    </g>
    <g stroke="#000000" stroke-linecap="butt" stroke-width="2.27555555556">
      <line x1="780.19" x2="780.78" y1="244.00" y2="265.00"/>
    </g>
    <text fill="#000000" font-family="Arial" font-size="24pt" x="770.30" y="289.73">R</text>
    <text fill="#000000" font-family="Arial" font-size="24pt" x="768.30" y="186.00">H</text>
    <text fill="#000000" font-family="Arial" font-size="24pt" x="768.30" y="238.88">C</text>
    <text fill="#0000ff" font-family="Arial" font-size="24pt" x="806.30" y="239.88">H</text>
    <g stroke="#000000" stroke-width="2.26634382567">
      <line x1="964.18" x2="964.18" y1="237.25" y2="290.05"/>
      <line x1="972.11" x2="972.11" y1="241.21" y2="286.09"/>
    </g>
    <g stroke="#000000" stroke-linecap="butt" stroke-width="2.26634382567">
      <line x1="997.00" x2="970.00" y1="157.93" y2="157.93"/>
    </g>
    <g stroke="#000000" stroke-width="2.26634382567">
      <line x1="1055.74" x2="1009.96" y1="290.05" y2="316.49"/>
      <line x1="1048.34" x2="1009.42" y1="285.17" y2="307.64"/>
    </g>
    <g stroke="#000000" stroke-width="2.26634382567">
      <line x1="1009.96" x2="1009.96" y1="210.81" y2="170.00"/>
    </g>
    <g stroke="#000000" stroke-width="2.26634382567">
      <line x1="1055.74" x2="1055.74" y1="237.25" y2="290.05"/>
    </g>
    <g stroke="#000000" stroke-linecap="butt" stroke-width="2.26634382567">
      <line x1="1022.00" x2="1050.00" y1="157.93" y2="157.93"/>
    </g>
    <g stroke="#000000" stroke-width="2.26634382567">
      <line x1="1009.96" x2="1055.74" y1="210.81" y2="237.25"/>
      <line x1="1009.42" x2="1048.34" y1="219.66" y2="242.13"/>
    </g>
    <g stroke="#000000" stroke-width="2.26634382567">
      <line x1="964.18" x2="1009.96" y1="290.05" y2="316.49"/>
    </g>
    <g stroke="#000000" stroke-width="2.26634382567">
      <line x1="964.18" x2="1009.96" y1="237.25" y2="210.81"/>
    </g>
    <text fill="#000000" font-family="Arial" font-size="24pt" x="946.30" y="164.93">H</text>
    <text fill="#000000" font-family="Arial" font-size="24pt" x="1051.30" y="164.93">H</text>
    <text fill="#ff0000" font-family="Arial" font-size="24pt" x="998.30" y="164.93">C</text>
    <ellipse cx="1009.95835351" cy="137.982566586" fill="#ff0000" rx="2.0" ry="2.0" stroke="#ff0000" stroke-width="1"/>
  </g>
  <cdml version="0.15" xmlns="http://www.freesoftware.fsf.org/bkchem/cdml">
    <info>
      <author_program version="0.13.0">BKchem</author_program>
    </info>
    <paper crop_margin="5" crop_svg="1" orientation="portrait" replace_minus="0" type="Legal" use_real_minus="0"/>
    <viewport viewport="0.000000 0.000000 640.000000 480.000000"/>
    <standard area_color="" font_family="Arial" font_size="24" line_color="#000" line_width="0.06cm" paper_crop_margin="5" paper_crop_svg="1" paper_orientation="portrait" paper_type="Legal">
      <bond double-ratio="0.85" length="1.4cm" wedge-width="0.18cm" width="0.21cm"/>
      <arrow length="1.6cm"/>
      <atom show_hydrogens="0"/>
    </standard>
    <circle area_color="#ff0000" line_color="#ff0000" width="2.26634382567" x1="6.102cm" x2="6.592cm" y1="1.125cm" y2="1.615cm"/>
    <circle area_color="#000000" line_color="#000000" width="2.26634382567" x1="2.893cm" x2="3.382cm" y1="1.569cm" y2="2.059cm"/>
    <circle area_color="#000000" line_color="#000000" width="2.26634382567" x1="3.184cm" x2="3.673cm" y1="2.019cm" y2="2.509cm"/>
    <circle area_color="#000000" line_color="#000000" width="2.26634382567" x1="3.555cm" x2="4.044cm" y1="2.390cm" y2="2.880cm"/>
    <circle area_color="#000000" line_color="#000000" width="2.26634382567" x1="5.355cm" x2="5.844cm" y1="1.675cm" y2="2.165cm"/>
    <circle area_color="#000000" line_color="#000000" width="2.26634382567" x1="10.809cm" x2="11.298cm" y1="1.278cm" y2="1.768cm"/>
    <circle area_color="#000000" line_color="#000000" width="2.26634382567" x1="5.673cm" x2="6.162cm" y1="1.304cm" y2="1.794cm"/>
    <circle area_color="#000000" line_color="#000000" width="2.26634382567" x1="5.196cm" x2="5.685cm" y1="2.125cm" y2="2.615cm"/>
    <circle area_color="#000000" line_color="#000000" width="2.26634382567" x1="4.958cm" x2="5.447cm" y1="2.549cm" y2="3.039cm"/>
    <circle area_color="#000000" line_color="#000000" width="2.26634382567" x1="4.508cm" x2="4.997cm" y1="2.628cm" y2="3.118cm"/>
    <circle area_color="#000000" line_color="#000000" width="2.26634382567" x1="4.005cm" x2="4.494cm" y1="2.601cm" y2="3.091cm"/>
    <molecule id="molecule29143" name="">
      <query id="atom11167" name="R" pos="center-first">
        <point x="5.997cm" y="6.869cm"/>
      </query>
      <atom id="atom40307" multiplicity="2" name="C" pos="center-first" show="yes" valency="4">
        <font color="#ff0000" family="Arial" size="24"/>
        <point x="5.297cm" y="5.656cm"/>
        <mark auto="0" size="4.0" type="radical" x="5.786cm" y="5.622cm"/>
      </atom>
      <atom id="atom18928" name="H" pos="center-first" valency="1">
        <point x="5.997cm" y="4.444cm"/>
      </atom>
      <atom id="atom72200" name="C" valency="4">
        <point x="3.818cm" y="5.630cm"/>
      </atom>
      <bond color="#000000" double_ratio="0.85" end="atom40307" equithick="1" id="bond1686" line_width="2.27555555556" start="atom72200" type="a1" wedge_width="6.799031477"/>
      <bond double_ratio="0.85" end="atom18928" id="bond8764" line_width="2.27555555556" start="atom40307" type="n1"/>
      <bond double_ratio="0.85" end="atom11167" id="bond54312" line_width="2.27555555556" start="atom40307" type="n1"/>
    </molecule>
    <molecule id="molecule79777" name="">
      <atom id="atom90585" name="C" valency="4">
        <point x="9.966cm" y="6.645cm"/>
      </atom>
      <atom id="atom89627" name="C" valency="4">
        <point x="11.178cm" y="5.945cm"/>
      </atom>
      <atom id="atom68980" name="C" valency="4">
        <point x="12.390cm" y="6.645cm"/>
      </atom>
      <atom id="atom31632" name="C" valency="4">
        <point x="12.390cm" y="8.043cm"/>
      </atom>
      <atom id="atom9896" name="C" valency="4">
        <point x="9.966cm" y="8.043cm"/>
      </atom>
      <atom id="atom64961" name="C" valency="4">
        <point x="11.178cm" y="8.743cm"/>
      </atom>
      <atom id="atom90296" name="H" pos="center-first" valency="1">
        <point x="9.778cm" y="4.545cm"/>
      </atom>
      <atom id="atom21066" name="H" pos="center-first" valency="1">
        <point x="12.578cm" y="4.545cm"/>
      </atom>
      <atom id="atom54195" multiplicity="2" name="C" pos="center-first" show="yes" valency="4">
        <point x="11.178cm" y="4.545cm"/>
        <mark auto="1" size="4" type="radical" x="11.342cm" y="4.010cm"/>
      </atom>
      <atom id="atom2271" multiplicity="2" name="H" pos="center-first" valency="1">
        <font color="#0000ff" family="Arial" size="24"/>
        <point x="11.178cm" y="3.462cm"/>
        <mark auto="1" size="4" type="radical" x="11.046cm" y="3.998cm"/>
      </atom>
      <bond bond_width="-7.93220338983" center="no" double_ratio="0.85" end="atom64961" id="bond38810" line_width="2.26634382567" start="atom31632" type="n2"/>
      <bond double_ratio="0.85" end="atom21066" id="bond54081" line_width="2.26634382567" start="atom54195" type="n1"/>
      <bond double_ratio="0.85" end="atom89627" id="bond7838" line_width="2.26634382567" start="atom90585" type="n1"/>
      <bond double_ratio="0.85" end="atom90296" id="bond45678" line_width="2.26634382567" start="atom54195" type="n1"/>
      <bond double_ratio="0.85" end="atom64961" id="bond39570" line_width="2.26634382567" start="atom9896" type="n1"/>
      <bond bond_width="-7.93220338983" center="no" double_ratio="0.85" end="atom68980" id="bond14350" line_width="2.26634382567" start="atom89627" type="n2"/>
      <bond bond_width="7.93220338983" center="no" double_ratio="0.85" end="atom9896" id="bond60328" line_width="2.26634382567" start="atom90585" type="n2"/>
      <bond color="#ffffff" double_ratio="0.85" end="atom2271" id="bond71824" line_width="2.26634382567" start="atom54195" type="n1"/>
      <bond double_ratio="0.85" end="atom31632" id="bond37169" line_width="2.26634382567" start="atom68980" type="n1"/>
      <bond double_ratio="0.85" end="atom54195" id="bond95334" line_width="2.26634382567" start="atom89627" type="n1"/>
    </molecule>
    <arrow color="#000" end="yes" id="arrow95802" shape="(8, 10, 3)" spline="yes" start="no" type="normal" width="2.26634382567">
      <point x="15.726cm" y="3.812cm"/>
      <point x="17.326cm" y="3.812cm"/>
    </arrow>
    <arrow color="#0000ff" end="yes" id="arrow46936" shape="(8, 10, 3)" spline="yes" start="no" type="normal" width="2.26634382567">
      <point x="10.457cm" y="3.362cm"/>
      <point x="9.425cm" y="3.336cm"/>
      <point x="8.286cm" y="3.706cm"/>
      <point x="7.995cm" y="4.024cm"/>
      <point x="7.969cm" y="4.792cm"/>
      <point x="7.651cm" y="5.374cm"/>
      <point x="6.724cm" y="5.692cm"/>
      <point x="6.301cm" y="5.639cm"/>
    </arrow>
    <circle area_color="#000000" line_color="#000000" width="2.26634382567" x1="21.477cm" x2="21.967cm" y1="1.502cm" y2="1.992cm"/>
    <circle area_color="#000000" line_color="#000000" width="2.26634382567" x1="18.268cm" x2="18.757cm" y1="1.946cm" y2="2.436cm"/>
    <circle area_color="#000000" line_color="#000000" width="2.26634382567" x1="18.559cm" x2="19.048cm" y1="2.396cm" y2="2.886cm"/>
    <circle area_color="#000000" line_color="#000000" width="2.26634382567" x1="18.930cm" x2="19.419cm" y1="2.767cm" y2="3.257cm"/>
    <circle area_color="#000000" line_color="#000000" width="2.26634382567" x1="20.730cm" x2="21.219cm" y1="2.052cm" y2="2.542cm"/>
    <circle area_color="#ff0000" line_color="#ff0000" width="2.26634382567" x1="26.184cm" x2="26.673cm" y1="1.655cm" y2="2.145cm"/>
    <circle area_color="#000000" line_color="#000000" width="2.26634382567" x1="21.048cm" x2="21.537cm" y1="1.681cm" y2="2.171cm"/>
    <circle area_color="#000000" line_color="#000000" width="2.26634382567" x1="20.571cm" x2="21.060cm" y1="2.502cm" y2="2.992cm"/>
    <circle area_color="#000000" line_color="#000000" width="2.26634382567" x1="20.333cm" x2="20.822cm" y1="2.926cm" y2="3.416cm"/>
    <circle area_color="#000000" line_color="#000000" width="2.26634382567" x1="19.883cm" x2="20.372cm" y1="3.005cm" y2="3.495cm"/>
    <circle area_color="#000000" line_color="#000000" width="2.26634382567" x1="19.380cm" x2="19.869cm" y1="2.978cm" y2="3.468cm"/>
    <molecule id="molecule80283" name="">
      <query id="atom51922" name="R" pos="center-first">
        <point x="20.684cm" y="7.485cm"/>
      </query>
      <atom id="atom45142" name="C" valency="4">
        <point x="19.167cm" y="6.113cm"/>
      </atom>
      <atom id="atom95511" name="H" pos="center-first" valency="1">
        <point x="20.646cm" y="4.739cm"/>
      </atom>
      <atom id="atom47924" name="C" pos="center-first" show="yes" valency="4">
        <point x="20.646cm" y="6.139cm"/>
      </atom>
      <atom id="atom98680" name="H" pos="center-first" valency="1">
        <font color="#0000ff" family="Arial" size="24"/>
        <point x="21.649cm" y="6.165cm"/>
      </atom>
      <bond double_ratio="0.85" end="atom98680" id="bond72411" line_width="2.26634382567" start="atom47924" type="n1"/>
      <bond color="#000000" double_ratio="0.85" end="atom47924" equithick="1" id="bond94193" line_width="2.27555555556" start="atom45142" type="a1" wedge_width="6.799031477"/>
      <bond double_ratio="0.85" end="atom95511" id="bond84541" line_width="2.26634382567" start="atom47924" type="n1"/>
      <bond double_ratio="0.85" end="atom51922" id="bond40423" line_width="2.27555555556" start="atom47924" type="n1"/>
    </molecule>
    <molecule id="molecule2056" name="">
      <atom id="atom82951" name="C" valency="4">
        <point x="25.526cm" y="6.281cm"/>
      </atom>
      <atom id="atom68378" name="C" valency="4">
        <point x="26.738cm" y="5.581cm"/>
      </atom>
      <atom id="atom9800" name="C" valency="4">
        <point x="27.950cm" y="6.281cm"/>
      </atom>
      <atom id="atom28623" name="C" valency="4">
        <point x="27.950cm" y="7.679cm"/>
      </atom>
      <atom id="atom27152" name="C" valency="4">
        <point x="25.526cm" y="7.679cm"/>
      </atom>
      <atom id="atom24485" name="C" valency="4">
        <point x="26.738cm" y="8.379cm"/>
      </atom>
      <atom id="atom69468" name="H" pos="center-first" valency="1">
        <point x="25.338cm" y="4.181cm"/>
      </atom>
      <atom id="atom40941" name="H" pos="center-first" valency="1">
        <point x="28.138cm" y="4.181cm"/>
      </atom>
      <atom id="atom18268" multiplicity="2" name="C" pos="center-first" show="yes" valency="4">
        <font color="#ff0000" family="Arial" size="24"/>
        <point x="26.738cm" y="4.181cm"/>
        <mark auto="0" size="4.0" type="radical" x="26.738cm" y="3.653cm"/>
      </atom>
      <bond bond_width="7.93220338983" center="no" double_ratio="0.85" end="atom27152" id="bond38631" line_width="2.26634382567" start="atom82951" type="n2"/>
      <bond double_ratio="0.85" end="atom69468" id="bond32630" line_width="2.26634382567" start="atom18268" type="n1"/>
      <bond bond_width="-7.93220338983" center="no" double_ratio="0.85" end="atom24485" id="bond11076" line_width="2.26634382567" start="atom28623" type="n2"/>
      <bond double_ratio="0.85" end="atom18268" id="bond94423" line_width="2.26634382567" start="atom68378" type="n1"/>
      <bond double_ratio="0.85" end="atom28623" id="bond61964" line_width="2.26634382567" start="atom9800" type="n1"/>
      <bond double_ratio="0.85" end="atom40941" id="bond57774" line_width="2.26634382567" start="atom18268" type="n1"/>
      <bond bond_width="-7.93220338983" center="no" double_ratio="0.85" end="atom9800" id="bond15768" line_width="2.26634382567" start="atom68378" type="n2"/>
      <bond double_ratio="0.85" end="atom24485" id="bond14008" line_width="2.26634382567" start="atom27152" type="n1"/>
      <bond double_ratio="0.85" end="atom68378" id="bond98045" line_width="2.26634382567" start="atom82951" type="n1"/>
    </molecule>
  </cdml>
</svg>