<?xml version="1.0" encoding="UTF-8" standalone="no"?>
<!-- Created with Inkscape (http://www.inkscape.org/) -->

<svg
   xmlns:ns0="http://www.iki.fi/pav/software/textext/"
   xmlns:dc="http://purl.org/dc/elements/1.1/"
   xmlns:cc="http://creativecommons.org/ns#"
   xmlns:rdf="http://www.w3.org/1999/02/22-rdf-syntax-ns#"
   xmlns:svg="http://www.w3.org/2000/svg"
   xmlns="http://www.w3.org/2000/svg"
   xmlns:sodipodi="http://sodipodi.sourceforge.net/DTD/sodipodi-0.dtd"
   xmlns:inkscape="http://www.inkscape.org/namespaces/inkscape"
   width="337.25446"
   height="161"
   id="svg2"
   version="1.1"
   inkscape:version="0.48.4 r9939"
   sodipodi:docname="New document 1">
  <sodipodi:namedview
     id="base"
     pagecolor="#ffffff"
     bordercolor="#666666"
     borderopacity="1.0"
     inkscape:pageopacity="0.0"
     inkscape:pageshadow="2"
     inkscape:zoom="1.4"
     inkscape:cx="61.09375"
     inkscape:cy="46.310385"
     inkscape:document-units="px"
     inkscape:current-layer="layer1"
     showgrid="true"
     units="in"
     width="11cm"
     inkscape:window-width="1274"
     inkscape:window-height="616"
     inkscape:window-x="0"
     inkscape:window-y="348"
     inkscape:window-maximized="0"
     fit-margin-top="0"
     fit-margin-left="0"
     fit-margin-right="0"
     fit-margin-bottom="0"
     inkscape:snap-grids="false">
    <inkscape:grid
       spacingy="2px"
       spacingx="2px"
       snapvisiblegridlinesonly="true"
       enabled="true"
       visible="true"
       empspacing="5"
       id="grid2984"
       type="xygrid"
       originx="-149.5px"
       originy="-169.5px" />
  </sodipodi:namedview>
  <defs
     id="defs4">
    <marker
       style="overflow:visible"
       id="Arrow2Lend"
       refX="0"
       refY="0"
       orient="auto"
       inkscape:stockid="Arrow2Lend">
      <path
         transform="matrix(-1.1,0,0,-1.1,-1.1,0)"
         d="M 8.7185878,4.0337352 -2.2072895,0.01601326 8.7185884,-4.0017078 c -1.7454984,2.3720609 -1.7354408,5.6174519 -6e-7,8.035443 z"
         style="fill-rule:evenodd;stroke-width:0.625;stroke-linejoin:round"
         id="path4041"
         inkscape:connector-curvature="0" />
    </marker>
    <marker
       inkscape:stockid="Arrow2Mend"
       orient="auto"
       refY="0"
       refX="0"
       id="Arrow2Mend"
       style="overflow:visible">
      <path
         inkscape:connector-curvature="0"
         id="path3966"
         style="fill-rule:evenodd;stroke-width:0.625;stroke-linejoin:round"
         d="M 8.7185878,4.0337352 -2.2072895,0.01601326 8.7185884,-4.0017078 c -1.7454984,2.3720609 -1.7354408,5.6174519 -6e-7,8.035443 z"
         transform="scale(-0.6,-0.6)" />
    </marker>
  </defs>
  <metadata
     id="metadata7">
    <rdf:RDF>
      <cc:Work
         rdf:about="">
        <dc:format>image/svg+xml</dc:format>
        <dc:type
           rdf:resource="http://purl.org/dc/dcmitype/StillImage" />
        <dc:title></dc:title>
      </cc:Work>
    </rdf:RDF>
  </metadata>
  <g
     inkscape:label="Layer 1"
     inkscape:groupmode="layer"
     id="layer1"
     transform="translate(-86.471642,-745.54724)">
    <path
       transform="translate(-63.028358,665.51153)"
       inkscape:connector-curvature="0"
       id="path2985"
       d="M 150,220.53571 150,90.535706"
       style="fill:none;stroke:#000000;stroke-width:1px;stroke-linecap:butt;stroke-linejoin:miter;stroke-opacity:1" />
    <path
       transform="translate(-63.028358,665.51153)"
       inkscape:connector-curvature="0"
       id="path2987"
       d="m 170,90.535706 0,130.000004"
       style="fill:none;stroke:#000000;stroke-width:1px;stroke-linecap:butt;stroke-linejoin:miter;stroke-opacity:1" />
    <path
       transform="translate(-63.028358,665.51153)"
       inkscape:connector-curvature="0"
       id="path2989"
       d="m 190,90.535706 0,130.000004"
       style="fill:none;stroke:#000000;stroke-width:1px;stroke-linecap:butt;stroke-linejoin:miter;stroke-opacity:1" />
    <path
       transform="translate(-63.028358,665.51153)"
       inkscape:connector-curvature="0"
       id="path2991"
       d="m 210,90.535706 0,130.000004"
       style="fill:none;stroke:#000000;stroke-width:1px;stroke-linecap:butt;stroke-linejoin:miter;stroke-opacity:1" />
    <path
       transform="translate(-63.028358,665.51153)"
       inkscape:connector-curvature="0"
       id="path2993"
       d="m 230,90.535706 0,130.000004"
       style="fill:none;stroke:#000000;stroke-width:1px;stroke-linecap:butt;stroke-linejoin:miter;stroke-opacity:1" />
    <path
       transform="translate(-63.028358,665.51153)"
       inkscape:connector-curvature="0"
       id="path2995"
       d="m 250,90.535706 0,130.000004"
       style="fill:none;stroke:#000000;stroke-width:1px;stroke-linecap:butt;stroke-linejoin:miter;stroke-opacity:1" />
    <path
       transform="translate(-63.028358,665.51153)"
       inkscape:connector-curvature="0"
       id="path2997"
       d="m 270,90.535706 0,130.000004"
       style="fill:none;stroke:#000000;stroke-width:1px;stroke-linecap:butt;stroke-linejoin:miter;stroke-opacity:1" />
    <path
       sodipodi:nodetypes="ccc"
       transform="translate(-63.028358,665.51153)"
       inkscape:connector-curvature="0"
       id="path2999"
       d="m 290,90.535706 0,130.000004 10,20"
       style="fill:none;stroke:#000000;stroke-width:1px;stroke-linecap:butt;stroke-linejoin:miter;stroke-opacity:1" />
    <path
       sodipodi:nodetypes="csc"
       transform="translate(-63.028358,665.51153)"
       inkscape:connector-curvature="0"
       id="path3001"
       d="m 150,90.535706 c 0,0 0,-10 10,-10 10,-1e-6 10,10 10,10"
       style="fill:none;stroke:#000000;stroke-width:1px;stroke-linecap:butt;stroke-linejoin:miter;stroke-opacity:1" />
    <path
       sodipodi:nodetypes="csc"
       inkscape:connector-curvature="0"
       id="path3001-1"
       d="m 106.97164,886.04724 c 0,0 0,10 10,10 10,0 10,-10 10,-10"
       style="fill:none;stroke:#000000;stroke-width:1px;stroke-linecap:butt;stroke-linejoin:miter;stroke-opacity:1" />
    <path
       sodipodi:nodetypes="csc"
       inkscape:connector-curvature="0"
       id="path3001-2"
       d="m 126.97164,756.04724 c 0,0 0,-10 10,-10 10,0 10,10 10,10"
       style="fill:none;stroke:#000000;stroke-width:1px;stroke-linecap:butt;stroke-linejoin:miter;stroke-opacity:1" />
    <path
       sodipodi:nodetypes="csc"
       inkscape:connector-curvature="0"
       id="path3001-4"
       d="m 146.97164,886.04724 c 0,0 0,10 10,10 10,0 10,-10 10,-10"
       style="fill:none;stroke:#000000;stroke-width:1px;stroke-linecap:butt;stroke-linejoin:miter;stroke-opacity:1" />
    <path
       sodipodi:nodetypes="csc"
       inkscape:connector-curvature="0"
       id="path3001-7"
       d="m 166.97164,756.04724 c 0,0 0,-10 10,-10 10,0 10,10 10,10"
       style="fill:none;stroke:#000000;stroke-width:1px;stroke-linecap:butt;stroke-linejoin:miter;stroke-opacity:1" />
    <path
       sodipodi:nodetypes="csc"
       inkscape:connector-curvature="0"
       id="path3001-42"
       d="m 186.97164,886.04724 c 0,0 0,10 10,10 10,0 10,-10 10,-10"
       style="fill:none;stroke:#000000;stroke-width:1px;stroke-linecap:butt;stroke-linejoin:miter;stroke-opacity:1" />
    <path
       sodipodi:nodetypes="csc"
       inkscape:connector-curvature="0"
       id="path3001-40"
       d="m 206.97164,756.04724 c 0,0 0,-10 10,-10 10,0 10,10 10,10"
       style="fill:none;stroke:#000000;stroke-width:1px;stroke-linecap:butt;stroke-linejoin:miter;stroke-opacity:1" />
    <path
       sodipodi:nodetypes="cc"
       transform="translate(-63.028358,665.51153)"
       inkscape:connector-curvature="0"
       id="path3056"
       d="m 350,80.535706 0,50.000004"
       style="fill:none;stroke:#000000;stroke-width:1px;stroke-linecap:butt;stroke-linejoin:miter;stroke-opacity:1;marker-start:none;marker-end:url(#Arrow2Lend)" />
    <path
       sodipodi:nodetypes="cc"
       transform="translate(-63.028358,665.51153)"
       inkscape:connector-curvature="0"
       id="path3058"
       d="m 350,220.53571 0,-50"
       style="fill:none;stroke:#000000;stroke-width:1px;stroke-linecap:butt;stroke-linejoin:miter;stroke-opacity:1;marker-end:url(#Arrow2Lend)" />
    <text
       sodipodi:linespacing="100%"
       id="text4646"
       y="819.61865"
       x="306.25735"
       style="font-size:16px;font-style:normal;font-variant:normal;font-weight:500;font-stretch:normal;text-align:start;line-height:100%;letter-spacing:0px;word-spacing:0px;writing-mode:lr-tb;text-anchor:start;fill:#000000;fill-opacity:1;stroke:none;font-family:Rekha;-inkscape-font-specification:Rekha Medium"
       xml:space="preserve"><tspan
         y="819.61865"
         x="306.25735"
         id="tspan4648"
         sodipodi:role="line">(crystal thickness)</tspan></text>
    <g
       ns0:preamble=""
       ns0:text="$\\lambda$"
       word-spacing="normal"
       letter-spacing="normal"
       font-size-adjust="none"
       font-stretch="normal"
       font-weight="normal"
       font-variant="normal"
       font-style="normal"
       stroke-miterlimit="10.433"
       xml:space="preserve"
       transform="matrix(2.8873403,0,0,-2.8873403,-366.26017,2724.1536)"
       id="content"
       style="font-style:normal;font-variant:normal;font-weight:normal;font-stretch:normal;letter-spacing:normal;word-spacing:normal;text-anchor:start;fill:none;stroke:#000000;stroke-linecap:butt;stroke-linejoin:miter;stroke-miterlimit:10.43299961;stroke-opacity:1;stroke-dasharray:none;stroke-dashoffset:0"><path
         id="path4680"
         d="m 226.98,660.14 0.04,-0.1 0.04,-0.1 0.08,-0.21 0.08,-0.22 0.08,-0.22 0.07,-0.22 0.08,-0.22 0.08,-0.21 0.03,-0.1 0.04,-0.11 0.03,-0.1 0.04,-0.09 0.03,-0.1 0.04,-0.09 0.03,-0.08 0.03,-0.09 0.03,-0.08 0.03,-0.07 0.02,-0.07 0.03,-0.06 0.02,-0.06 0.02,-0.05 0.03,-0.05 0.02,-0.04 0.01,-0.03 0.02,-0.03 c 0.16,-0.21 0.26,-0.21 0.53,-0.21 h 0.21 c 0.1,0.01 0.11,0.07 0.11,0.09 0,0.04 -0.02,0.06 -0.05,0.09 -0.09,0.11 -0.15,0.26 -0.22,0.46 l -2.03,5.65 c -0.21,0.58 -0.75,0.71 -1.22,0.71 -0.05,0 -0.18,0 -0.18,-0.11 0,-0.08 0.08,-0.1 0.09,-0.1 0.33,-0.06 0.4,-0.12 0.65,-0.79 l 0.96,-2.71 -2.74,-2.72 c -0.12,-0.12 -0.18,-0.18 -0.18,-0.31 0,-0.17 0.14,-0.28 0.3,-0.28 0.16,0 0.25,0.11 0.33,0.2 z"
         inkscape:connector-curvature="0"
         style="fill:#000000;stroke-width:0" /></g>  </g>
</svg>
