<?xml version="1.0" encoding="UTF-8" standalone="no"?>
<!-- Created with Inkscape (http://www.inkscape.org/) -->

<svg
   xmlns:ns0="http://www.iki.fi/pav/software/textext/"
   xmlns:dc="http://purl.org/dc/elements/1.1/"
   xmlns:cc="http://creativecommons.org/ns#"
   xmlns:rdf="http://www.w3.org/1999/02/22-rdf-syntax-ns#"
   xmlns:svg="http://www.w3.org/2000/svg"
   xmlns="http://www.w3.org/2000/svg"
   xmlns:sodipodi="http://sodipodi.sourceforge.net/DTD/sodipodi-0.dtd"
   xmlns:inkscape="http://www.inkscape.org/namespaces/inkscape"
   width="340.42188"
   height="203.89062"
   id="svg2"
   version="1.1"
   inkscape:version="0.48.4 r9939"
   sodipodi:docname="New document 46">
  <sodipodi:namedview
     id="base"
     pagecolor="#ffffff"
     bordercolor="#666666"
     borderopacity="1.0"
     inkscape:pageopacity="0.0"
     inkscape:pageshadow="2"
     inkscape:zoom="1.4"
     inkscape:cx="211.47081"
     inkscape:cy="86.752316"
     inkscape:document-units="px"
     inkscape:current-layer="layer1"
     showgrid="true"
     units="in"
     width="11cm"
     inkscape:window-width="1274"
     inkscape:window-height="571"
     inkscape:window-x="0"
     inkscape:window-y="393"
     inkscape:window-maximized="0"
     fit-margin-top="0"
     fit-margin-left="0"
     fit-margin-right="0"
     fit-margin-bottom="0">
    <inkscape:grid
       type="xygrid"
       id="grid2984"
       empspacing="5"
       visible="true"
       enabled="true"
       snapvisiblegridlinesonly="true"
       spacingx="2px"
       spacingy="2px"
       originx="-130.07812px"
       originy="-116.60937px" />
  </sodipodi:namedview>
  <defs
     id="defs4">
    <marker
       inkscape:stockid="Arrow2Lend"
       orient="auto"
       refY="0"
       refX="0"
       id="Arrow2Lend"
       style="overflow:visible">
      <path
         id="path4041"
         style="fill-rule:evenodd;stroke-width:0.625;stroke-linejoin:round"
         d="M 8.7185878,4.0337352 -2.2072895,0.01601326 8.7185884,-4.0017078 c -1.7454984,2.3720609 -1.7354408,5.6174519 -6e-7,8.035443 z"
         transform="matrix(-1.1,0,0,-1.1,-1.1,0)"
         inkscape:connector-curvature="0" />
    </marker>
    <marker
       style="overflow:visible"
       id="Arrow2Mend"
       refX="0"
       refY="0"
       orient="auto"
       inkscape:stockid="Arrow2Mend">
      <path
         transform="scale(-0.6,-0.6)"
         d="M 8.7185878,4.0337352 -2.2072895,0.01601326 8.7185884,-4.0017078 c -1.7454984,2.3720609 -1.7354408,5.6174519 -6e-7,8.035443 z"
         style="fill-rule:evenodd;stroke-width:0.625;stroke-linejoin:round"
         id="path3966"
         inkscape:connector-curvature="0" />
    </marker>
  </defs>
  <metadata
     id="metadata7">
    <rdf:RDF>
      <cc:Work
         rdf:about="">
        <dc:format>image/svg+xml</dc:format>
        <dc:type
           rdf:resource="http://purl.org/dc/dcmitype/StillImage" />
        <dc:title></dc:title>
      </cc:Work>
    </rdf:RDF>
  </metadata>
  <g
     transform="translate(-67.049767,-755.54724)"
     id="layer1"
     inkscape:groupmode="layer"
     inkscape:label="Layer 1">
    <rect
       style="fill:none;stroke:#000000;stroke-width:1;stroke-miterlimit:4;stroke-opacity:1;stroke-dasharray:none;stroke-dashoffset:0"
       id="rect10287"
       width="260"
       height="180"
       x="210"
       y="90.535706"
       transform="translate(-63.028358,665.51153)" />
    <path
       style="fill:none;stroke:#ff0000;stroke-width:1px;stroke-linecap:butt;stroke-linejoin:miter;stroke-opacity:1"
       d="m 240,220.53571 100,-30 90,-80"
       id="path10803"
       inkscape:connector-curvature="0"
       transform="translate(-63.028358,665.51153)"
       sodipodi:nodetypes="ccc" />
    <path
       style="fill:none;stroke:#000000;stroke-width:1;stroke-linecap:butt;stroke-linejoin:miter;stroke-miterlimit:4;stroke-opacity:1;stroke-dasharray:2, 2;stroke-dashoffset:0"
       d="m 340,100.53571 0,80"
       id="path10805"
       inkscape:connector-curvature="0"
       transform="translate(-63.028358,665.51153)"
       sodipodi:nodetypes="cc" />
    <path
       style="fill:none;stroke:#000000;stroke-width:1px;stroke-linecap:butt;stroke-linejoin:miter;stroke-opacity:1;marker-end:url(#Arrow2Lend)"
       d="m 340,200.53571 0,40"
       id="path10807"
       inkscape:connector-curvature="0"
       transform="translate(-63.028358,665.51153)" />
    <path
       style="fill:none;stroke:#000000;stroke-width:1px;stroke-linecap:butt;stroke-linejoin:miter;stroke-opacity:1;marker-end:url(#Arrow2Lend)"
       d="m 320,120.53571 -40,0"
       id="path10809"
       inkscape:connector-curvature="0"
       transform="translate(-63.028358,665.51153)" />
    <path
       style="fill:none;stroke:#000000;stroke-width:1px;stroke-linecap:butt;stroke-linejoin:miter;stroke-opacity:1;marker-start:none;marker-end:url(#Arrow2Lend)"
       d="m 360,120.53571 40,0"
       id="path10811"
       inkscape:connector-curvature="0"
       transform="translate(-63.028358,665.51153)" />
    <path
       style="fill:none;stroke:#ff2a2a;stroke-width:1;stroke-linecap:butt;stroke-linejoin:miter;stroke-miterlimit:4;stroke-opacity:1;stroke-dasharray:1, 1;stroke-dashoffset:0;marker-start:none"
       d="m 340,190.53571 -80,60"
       id="path10813"
       inkscape:connector-curvature="0"
       transform="translate(-63.028358,665.51153)" />
    <path
       sodipodi:type="arc"
       style="fill:#0000ff;fill-opacity:1;stroke:#0000ff;stroke-width:1;stroke-miterlimit:4;stroke-opacity:1;stroke-dasharray:none;stroke-dashoffset:0"
       id="path11735"
       sodipodi:cx="235"
       sodipodi:cy="205.53571"
       sodipodi:rx="5"
       sodipodi:ry="5"
       d="m 240,205.53571 c 0,2.76142 -2.23858,5 -5,5 -2.76142,0 -5,-2.23858 -5,-5 0,-2.76143 2.23858,-5 5,-5 2.76142,0 5,2.23857 5,5 z"
       transform="translate(-53.742644,679.79724)" />
    <text
       xml:space="preserve"
       style="font-size:16px;font-style:normal;font-variant:normal;font-weight:500;font-stretch:normal;text-align:start;line-height:100%;letter-spacing:0px;word-spacing:0px;writing-mode:lr-tb;text-anchor:start;fill:#000000;fill-opacity:1;stroke:none;font-family:Rekha;-inkscape-font-specification:Rekha Medium"
       x="216.97165"
       y="776.04724"
       id="text11737"
       sodipodi:linespacing="100%"><tspan
         sodipodi:role="line"
         id="tspan11739"
         x="216.97165"
         y="776.04724">Glass</tspan></text>
    <text
       xml:space="preserve"
       style="font-size:16px;font-style:normal;font-variant:normal;font-weight:500;font-stretch:normal;text-align:start;line-height:100%;letter-spacing:0px;word-spacing:0px;writing-mode:lr-tb;text-anchor:start;fill:#000000;fill-opacity:1;stroke:none;font-family:Rekha;-inkscape-font-specification:Rekha Medium"
       x="296.97165"
       y="776.04724"
       id="text11741"
       sodipodi:linespacing="100%"><tspan
         sodipodi:role="line"
         id="tspan11743"
         x="296.97165"
         y="776.04724">Liquid</tspan></text>
    <text
       xml:space="preserve"
       style="font-size:16px;font-style:normal;font-variant:normal;font-weight:500;font-stretch:normal;text-align:start;line-height:100%;letter-spacing:0px;word-spacing:0px;writing-mode:lr-tb;text-anchor:start;fill:#000000;fill-opacity:1;stroke:none;font-family:Rekha;-inkscape-font-specification:Rekha Medium"
       x="66.971642"
       y="826.04724"
       id="text11745"
       sodipodi:linespacing="100%"><tspan
         sodipodi:role="line"
         id="tspan11747"
         x="66.971642"
         y="826.04724">Enthalpy</tspan><tspan
         sodipodi:role="line"
         x="66.971642"
         y="842.04724"
         id="tspan11749">per gram</tspan><tspan
         sodipodi:role="line"
         x="66.971642"
         y="858.04724"
         id="tspan11751">of polymer</tspan></text>
    <text
       xml:space="preserve"
       style="font-size:16px;font-style:normal;font-variant:normal;font-weight:500;font-stretch:normal;text-align:start;line-height:100%;letter-spacing:0px;word-spacing:0px;writing-mode:lr-tb;text-anchor:start;fill:#000000;fill-opacity:1;stroke:none;font-family:Rekha;-inkscape-font-specification:Rekha Medium"
       x="236.97165"
       y="956.04724"
       id="text11753"
       sodipodi:linespacing="100%"><tspan
         sodipodi:role="line"
         id="tspan11755"
         x="236.97165"
         y="956.04724">Temperature</tspan></text>
    <path
       style="fill:none;stroke:#000000;stroke-width:1px;stroke-linecap:butt;stroke-linejoin:miter;stroke-opacity:1"
       d="m 342.68593,799.61867 0,10"
       id="path11757"
       inkscape:connector-curvature="0" />
    <path
       style="fill:none;stroke:#000000;stroke-width:1px;stroke-linecap:butt;stroke-linejoin:miter;stroke-opacity:1"
       d="m 329.1145,813.90438 10,0"
       id="path11759"
       inkscape:connector-curvature="0" />
    <g
       style="font-style:normal;font-variant:normal;font-weight:normal;font-stretch:normal;letter-spacing:normal;word-spacing:normal;text-anchor:start;fill:none;stroke:#000000;stroke-linecap:butt;stroke-linejoin:miter;stroke-miterlimit:10.43299961;stroke-opacity:1;stroke-dasharray:none;stroke-dashoffset:0"
       id="content"
       transform="matrix(1.5186722,0,0,-1.5186722,-67.502222,1920.8062)"
       xml:space="preserve"
       stroke-miterlimit="10.433"
       font-style="normal"
       font-variant="normal"
       font-weight="normal"
       font-stretch="normal"
       font-size-adjust="none"
       letter-spacing="normal"
       word-spacing="normal"
       ns0:text="$\\mathrm{T_g}$"
       ns0:preamble=""><path
         style="fill:#000000;stroke-width:0"
         inkscape:connector-curvature="0"
         d="m 230.06,663.96 h -6.08 l -0.19,-2.24 h 0.25 c 0.14,1.6 0.29,1.93 1.79,1.93 0.18,0 0.44,0 0.54,-0.02 0.21,-0.04 0.21,-0.15 0.21,-0.37 v -5.24 c 0,-0.34 0,-0.48 -1.05,-0.48 h -0.4 v -0.31 c 0.41,0.04 1.43,0.04 1.88,0.04 0.46,0 1.49,0 1.89,-0.04 v 0.31 h -0.39 c -1.05,0 -1.05,0.14 -1.05,0.48 v 5.24 c 0,0.19 0,0.33 0.18,0.37 0.11,0.02 0.38,0.02 0.57,0.02 1.5,0 1.65,-0.33 1.79,-1.93 h 0.25 z"
         id="path11792" /><path
         style="fill:#000000;stroke-width:0"
         inkscape:connector-curvature="0"
         d="m 231.63,656.98 0.01,-0.01 0.01,0 0.01,-0.01 0.02,-0.01 0.01,-0.01 0.01,0 0.02,-0.01 0.02,-0.01 0.01,-0.01 0.02,-0.01 0.02,-0.01 0.02,-0.01 0.02,-0.01 0.02,-0.01 0.02,0 0.03,-0.01 0.02,-0.01 0.03,-0.01 0.02,-0.01 0.03,-0.01 0.03,0 0.02,-0.01 0.03,-0.01 0.03,0 0.04,-0.01 0.03,0 0.03,-0.01 0.03,0 0.04,0 0.04,-0.01 0.03,0 0.04,0 c 0.72,0 1.24,0.48 1.24,1.02 0,0.28 -0.13,0.49 -0.29,0.67 0.31,0.22 0.58,0.23 0.7,0.23 -0.03,-0.02 -0.06,-0.05 -0.06,-0.16 0,-0.14 0.1,-0.23 0.22,-0.23 0.1,0 0.22,0.07 0.22,0.23 0,0.16 -0.13,0.36 -0.41,0.36 -0.1,0 -0.48,-0.02 -0.81,-0.32 -0.21,0.15 -0.5,0.25 -0.8,0.25 l -0.01,-0.21 c 0.68,0 0.68,-0.67 0.68,-0.82 0,-0.11 0,-0.38 -0.14,-0.56 -0.09,-0.12 -0.28,-0.25 -0.53,-0.25 h 0 c -0.69,0 -0.69,0.67 -0.69,0.81 0,0.12 0,0.39 0.14,0.58 0.1,0.11 0.29,0.24 0.54,0.24 l 0.01,0.21 c -0.72,0 -1.24,-0.48 -1.24,-1.03 0,-0.27 0.14,-0.52 0.33,-0.7 -0.06,-0.06 -0.21,-0.29 -0.21,-0.56 0,-0.09 0.02,-0.42 0.29,-0.62 -0.31,-0.1 -0.67,-0.33 -0.67,-0.69 0,-0.51 0.76,-0.89 1.7,-0.89 v 0.2 c -0.73,0 -1.28,0.33 -1.28,0.69 0,0.25 0.23,0.55 0.67,0.55 h 0.41 c 0.62,0 1.49,0 1.49,-0.55 0,-0.37 -0.55,-0.69 -1.29,-0.69 v -0.2 c 0.89,0 1.71,0.34 1.71,0.9 0,0.21 -0.08,0.58 -0.46,0.79 -0.42,0.22 -0.83,0.22 -1.5,0.22 -0.16,0 -0.41,0 -0.46,0 -0.23,0.05 -0.35,0.26 -0.35,0.46 0,0.18 0.05,0.23 0.09,0.29 z"
         id="path11794" /></g>    <g
       style="font-style:normal;font-variant:normal;font-weight:normal;font-stretch:normal;letter-spacing:normal;word-spacing:normal;text-anchor:start;fill:#ff2a2a;fill-opacity:1;fill-rule:evenodd;stroke:#000000;stroke-linecap:butt;stroke-linejoin:miter;stroke-miterlimit:10.43299961;stroke-opacity:1;stroke-dasharray:none;stroke-dashoffset:0"
       ns0:preamble=""
       ns0:text="$\\mathrm{c_p}$"
       word-spacing="normal"
       letter-spacing="normal"
       font-size-adjust="none"
       font-stretch="normal"
       font-weight="normal"
       font-variant="normal"
       font-style="normal"
       stroke-miterlimit="10.433"
       xml:space="preserve"
       transform="matrix(1.5186722,0,0,-1.5186722,7.4977804,1821.5205)"
       id="g11884"><path
         id="path11886"
         d="m 224.6,659.4 0,0.08 0,0.07 0,0.07 0.01,0.07 0,0.07 0.01,0.07 0,0.06 0.01,0.06 0.01,0.06 0.01,0.06 0.01,0.06 0.01,0.06 0.03,0.11 0.03,0.1 0.04,0.1 0.03,0.09 0.04,0.09 0.04,0.08 0.05,0.07 0.04,0.07 0.05,0.07 0.05,0.06 0.05,0.05 0.05,0.05 0.06,0.05 0.05,0.04 0.06,0.04 0.05,0.03 0.06,0.03 0.06,0.03 0.05,0.02 0.06,0.02 0.06,0.01 0.05,0.02 0.05,0.01 0.06,0 0.05,0.01 0.05,0 c 0.09,0 0.72,-0.01 1.06,-0.37 -0.4,-0.03 -0.46,-0.33 -0.46,-0.46 0,-0.26 0.17,-0.45 0.45,-0.45 0.26,0 0.46,0.16 0.46,0.46 0,0.68 -0.75,1.06 -1.52,1.06 -1.24,0 -2.16,-1.07 -2.16,-2.3 0,-1.27 0.99,-2.25 2.14,-2.25 1.33,0 1.65,1.19 1.65,1.29 0,0.1 -0.1,0.1 -0.13,0.1 -0.09,0 -0.11,-0.04 -0.13,-0.1 -0.29,-0.93 -0.93,-1.05 -1.3,-1.05 -0.53,0 -1.4,0.43 -1.4,2.03 z"
         style="fill:#ff2a2a;stroke-width:0"
         inkscape:connector-curvature="0" /><path
         id="path11888"
         d="m 229.8,654.64 -0.02,0 -0.03,0 -0.02,0 -0.01,0 -0.02,0 -0.02,0 -0.02,0 -0.02,0 -0.01,0 -0.02,0 -0.02,0 -0.01,0 -0.02,0 -0.01,0.01 -0.01,0 -0.02,0 -0.01,0 -0.01,0 -0.03,0 -0.02,0 -0.02,0.01 -0.02,0 -0.01,0.01 -0.02,0 -0.01,0.01 -0.02,0.01 -0.01,0.01 -0.01,0 -0.01,0.02 -0.01,0.01 -0.01,0.01 0,0.01 -0.01,0.02 0,0.01 -0.01,0.02 0,0.02 0,0.02 0,0.02 -0.01,0.03 0,0.02 0,0.03 v 1.14 c 0.04,-0.04 0.37,-0.41 0.95,-0.41 l -0.04,0.2 c -0.61,0 -0.89,0.53 -0.91,0.57 v 1.62 c 0.21,0.34 0.62,0.53 0.99,0.53 0.58,0 1.03,-0.62 1.03,-1.35 0,-0.79 -0.52,-1.37 -1.11,-1.37 l 0.04,-0.2 c 0.92,0 1.71,0.69 1.71,1.57 0,0.86 -0.71,1.57 -1.6,1.57 -0.4,0 -0.8,-0.15 -1.08,-0.43 v 0.43 l -1.05,-0.08 v -0.25 c 0.49,0 0.52,-0.03 0.52,-0.33 v -3.21 c 0,-0.3 -0.07,-0.3 -0.52,-0.3 v -0.25 c 0.01,0 0.5,0.03 0.79,0.03 0.26,0 0.74,-0.02 0.81,-0.03 z"
         style="fill:#ff2a2a;stroke-width:0"
         inkscape:connector-curvature="0" /></g>  </g>
</svg>
