<?xml version="1.0" encoding="UTF-8" standalone="no"?>
<!-- Created with Inkscape (http://www.inkscape.org/) -->

<svg
   xmlns:ns0="http://www.iki.fi/pav/software/textext/"
   xmlns:dc="http://purl.org/dc/elements/1.1/"
   xmlns:cc="http://creativecommons.org/ns#"
   xmlns:rdf="http://www.w3.org/1999/02/22-rdf-syntax-ns#"
   xmlns:svg="http://www.w3.org/2000/svg"
   xmlns="http://www.w3.org/2000/svg"
   xmlns:sodipodi="http://sodipodi.sourceforge.net/DTD/sodipodi-0.dtd"
   xmlns:inkscape="http://www.inkscape.org/namespaces/inkscape"
   width="320.25"
   height="225.4725"
   id="svg2"
   version="1.1"
   inkscape:version="0.48.4 r9939"
   sodipodi:docname="Glass Transition Drawing.svg">
  <sodipodi:namedview
     id="base"
     pagecolor="#ffffff"
     bordercolor="#666666"
     borderopacity="1.0"
     inkscape:pageopacity="0.0"
     inkscape:pageshadow="2"
     inkscape:zoom="1.979899"
     inkscape:cx="260.15934"
     inkscape:cy="139.44043"
     inkscape:document-units="px"
     inkscape:current-layer="layer1"
     showgrid="true"
     units="in"
     width="11cm"
     inkscape:window-width="1920"
     inkscape:window-height="1028"
     inkscape:window-x="1280"
     inkscape:window-y="0"
     inkscape:window-maximized="1"
     fit-margin-top="0"
     fit-margin-left="0"
     fit-margin-right="0"
     fit-margin-bottom="0"
     inkscape:snap-grids="true"
     inkscape:snap-to-guides="true"
     inkscape:snap-center="false">
    <inkscape:grid
       type="xygrid"
       id="grid2984"
       empspacing="5"
       visible="true"
       enabled="true"
       snapvisiblegridlinesonly="true"
       spacingx="2px"
       spacingy="2px"
       originx="-190.25px"
       originy="-85.027502px" />
  </sodipodi:namedview>
  <defs
     id="defs4">
    <marker
       inkscape:stockid="Arrow2Lstart"
       orient="auto"
       refY="0"
       refX="0"
       id="Arrow2Lstart"
       style="overflow:visible">
      <path
         id="path3846"
         style="fill-rule:evenodd;stroke-width:0.625;stroke-linejoin:round"
         d="M 8.7185878,4.0337352 -2.2072895,0.01601326 8.7185884,-4.0017078 c -1.7454984,2.3720609 -1.7354408,5.6174519 -6e-7,8.035443 z"
         transform="matrix(1.1,0,0,1.1,1.1,0)"
         inkscape:connector-curvature="0" />
    </marker>
    <marker
       inkscape:stockid="Arrow2Lend"
       orient="auto"
       refY="0"
       refX="0"
       id="Arrow2Lend"
       style="overflow:visible">
      <path
         id="path3849"
         style="fill-rule:evenodd;stroke-width:0.625;stroke-linejoin:round"
         d="M 8.7185878,4.0337352 -2.2072895,0.01601326 8.7185884,-4.0017078 c -1.7454984,2.3720609 -1.7354408,5.6174519 -6e-7,8.035443 z"
         transform="matrix(-1.1,0,0,-1.1,-1.1,0)"
         inkscape:connector-curvature="0" />
    </marker>
    <marker
       style="overflow:visible"
       id="Arrow2Mend"
       refX="0"
       refY="0"
       orient="auto"
       inkscape:stockid="Arrow2Mend">
      <path
         transform="scale(-0.6,-0.6)"
         d="M 8.7185878,4.0337352 -2.2072895,0.01601326 8.7185884,-4.0017078 c -1.7454984,2.3720609 -1.7354408,5.6174519 -6e-7,8.035443 z"
         style="fill-rule:evenodd;stroke-width:0.625;stroke-linejoin:round"
         id="path3966"
         inkscape:connector-curvature="0" />
    </marker>
  </defs>
  <metadata
     id="metadata7">
    <rdf:RDF>
      <cc:Work
         rdf:about="">
        <dc:format>image/svg+xml</dc:format>
        <dc:type
           rdf:resource="http://purl.org/dc/dcmitype/StillImage" />
        <dc:title />
      </cc:Work>
    </rdf:RDF>
  </metadata>
  <g
     transform="translate(-127.22165,-765.54724)"
     id="layer1"
     inkscape:groupmode="layer"
     inkscape:label="Layer 1">
    <rect
       style="fill:none;stroke:#000000;stroke-width:1;stroke-miterlimit:4;stroke-opacity:1;stroke-dasharray:none;stroke-dashoffset:0"
       id="rect7180"
       width="290"
       height="200"
       x="220"
       y="100.53571"
       transform="translate(-63.028358,665.51153)" />
    <path
       style="fill:none;stroke:#ff2a2a;stroke-width:1.5;stroke-linecap:butt;stroke-linejoin:miter;stroke-miterlimit:4;stroke-opacity:1;stroke-dasharray:none"
       d="m 187.68593,906.76153 110,-30"
       id="path7182"
       inkscape:connector-curvature="0"
       sodipodi:nodetypes="cc" />
    <path
       style="fill:none;stroke:#ff0000;stroke-width:1.5;stroke-linecap:butt;stroke-linejoin:miter;stroke-miterlimit:4;stroke-opacity:1;stroke-dasharray:none"
       d="m 187.68593,916.76153 80,-20 130,-90"
       id="path7184"
       inkscape:connector-curvature="0"
       sodipodi:nodetypes="ccc" />
    <path
       style="fill:none;stroke:#ff2a2a;stroke-width:1;stroke-linecap:butt;stroke-linejoin:miter;stroke-miterlimit:4;stroke-opacity:1;stroke-dasharray:1, 1;stroke-dashoffset:0"
       d="m 267.68593,896.76153 -80,50"
       id="path7186"
       inkscape:connector-curvature="0"
       sodipodi:nodetypes="cc" />
    <path
       style="fill:none;stroke:#ff2a2a;stroke-width:1;stroke-linecap:butt;stroke-linejoin:miter;stroke-miterlimit:4;stroke-opacity:1;stroke-dasharray:4, 4;stroke-dashoffset:0"
       d="m 187.68593,946.76153 200,-70"
       id="path7188"
       inkscape:connector-curvature="0"
       sodipodi:nodetypes="cc" />
    <text
       xml:space="preserve"
       style="font-size:16px;font-style:normal;font-variant:normal;font-weight:500;font-stretch:normal;text-align:start;line-height:100%;letter-spacing:0px;word-spacing:0px;writing-mode:lr-tb;text-anchor:start;fill:#000000;fill-opacity:1;stroke:none;font-family:Rekha;-inkscape-font-specification:Rekha Medium"
       x="246.97165"
       y="796.04724"
       id="text7190"
       sodipodi:linespacing="100%"><tspan
         sodipodi:role="line"
         id="tspan7192"
         x="246.97165"
         y="796.04724">Actual Volume</tspan></text>
    <text
       xml:space="preserve"
       style="font-size:16px;font-style:normal;font-variant:normal;font-weight:500;font-stretch:normal;text-align:start;line-height:100%;letter-spacing:0px;word-spacing:0px;writing-mode:lr-tb;text-anchor:start;fill:#000000;fill-opacity:1;stroke:none;font-family:Rekha;-inkscape-font-specification:Rekha Medium"
       x="319.1145"
       y="932.47583"
       id="text7194"
       sodipodi:linespacing="100%"><tspan
         sodipodi:role="line"
         id="tspan7196"
         x="319.1145"
         y="932.47583">Occupied Volume</tspan></text>
    <text
       xml:space="preserve"
       style="font-size:16px;font-style:normal;font-variant:normal;font-weight:500;font-stretch:normal;text-align:start;line-height:100%;letter-spacing:0px;word-spacing:0px;writing-mode:lr-tb;text-anchor:start;fill:#000000;fill-opacity:1;stroke:none;font-family:Rekha;-inkscape-font-specification:Rekha Medium"
       x="126.97165"
       y="856.04724"
       id="text7208"
       sodipodi:linespacing="100%"><tspan
         sodipodi:role="line"
         id="tspan7210"
         x="126.97165"
         y="856.04724">V</tspan></text>
    <text
       xml:space="preserve"
       style="font-size:16px;font-style:normal;font-variant:normal;font-weight:500;font-stretch:normal;text-align:start;line-height:100%;letter-spacing:0px;word-spacing:0px;writing-mode:lr-tb;text-anchor:start;fill:#000000;fill-opacity:1;stroke:none;font-family:Rekha;-inkscape-font-specification:Rekha Medium"
       x="286.97165"
       y="986.04724"
       id="text7212"
       sodipodi:linespacing="100%"><tspan
         sodipodi:role="line"
         id="tspan7214"
         x="286.97165"
         y="986.04724">T</tspan></text>
    <path
       style="fill:none;stroke:#000000;stroke-width:1px;stroke-linecap:butt;stroke-linejoin:miter;stroke-opacity:1;marker-end:url(#Arrow2Lend)"
       d="m 367.00688,916.87525 0,-30"
       id="path7226"
       inkscape:connector-curvature="0"
       sodipodi:nodetypes="cc" />
    <path
       style="fill:none;stroke:#000000;stroke-width:1px;stroke-linecap:butt;stroke-linejoin:miter;stroke-opacity:1;marker-end:url(#Arrow2Lend)"
       d="m 188.79259,973.66096 0,-20"
       id="path7236"
       inkscape:connector-curvature="0" />
    <path
       style="fill:none;stroke:#000000;stroke-width:1px;stroke-linecap:butt;stroke-linejoin:miter;stroke-opacity:1;marker-start:url(#Arrow2Lstart);marker-end:none"
       d="M 420,170.53571 385.71429,134.10714"
       id="path7238"
       inkscape:connector-curvature="0"
       transform="translate(-63.028358,665.51153)"
       sodipodi:nodetypes="cc" />
    <path
       style="fill:none;stroke:#000000;stroke-width:1px;stroke-linecap:butt;stroke-linejoin:miter;stroke-opacity:1;marker-start:url(#Arrow2Lstart);marker-end:url(#Arrow2Lend)"
       d="m 188.40022,919.61866 0,26.42858"
       id="path7234"
       inkscape:connector-curvature="0"
       sodipodi:nodetypes="cc" />
    <g
       style="font-style:normal;font-variant:normal;font-weight:normal;font-stretch:normal;letter-spacing:normal;word-spacing:normal;text-anchor:start;fill:none;stroke:#000000;stroke-linecap:butt;stroke-linejoin:miter;stroke-miterlimit:10.43299961;stroke-opacity:1;stroke-dasharray:none;stroke-dashoffset:0"
       ns0:preamble=""
       ns0:text="$\\mathrm{V_f}$"
       word-spacing="normal"
       letter-spacing="normal"
       font-size-adjust="none"
       font-stretch="normal"
       font-weight="normal"
       font-variant="normal"
       font-style="normal"
       stroke-miterlimit="10.433"
       xml:space="preserve"
       transform="matrix(1.6901311,0,0,-1.6901311,-216.6197,2059.9024)"
       id="content-6"><path
         id="path9382-0"
         d="m 229.61,663.05 0.01,0.03 0.02,0.03 0.01,0.04 0.02,0.03 0.02,0.03 0.01,0.03 0.02,0.03 0.02,0.03 0.02,0.03 0.03,0.03 0.02,0.03 0.03,0.03 0.02,0.02 0.03,0.03 0.03,0.02 0.03,0.02 0.03,0.03 0.04,0.02 0.03,0.02 0.04,0.01 0.04,0.02 0.04,0.02 0.04,0.01 0.05,0.02 0.05,0.01 0.05,0.01 0.05,0.01 0.05,0.01 0.06,0 0.05,0.01 0.06,0 0.07,0 v 0.31 c -0.31,-0.02 -0.71,-0.03 -0.97,-0.03 -0.3,0 -0.88,0.02 -1.13,0.03 v -0.31 c 0.51,-0.01 0.72,-0.27 0.72,-0.49 0,-0.08 -0.03,-0.14 -0.05,-0.2 l -1.82,-4.79 -1.9,5.01 c -0.06,0.14 -0.06,0.16 -0.06,0.18 0,0.29 0.57,0.29 0.82,0.29 v 0.31 c -0.36,-0.03 -1.05,-0.03 -1.43,-0.03 -0.47,0 -0.9,0.02 -1.26,0.03 v -0.31 c 0.65,0 0.84,0 0.98,-0.38 l 2.3,-6.1 c 0.07,-0.18 0.12,-0.21 0.25,-0.21 0.17,0 0.19,0.05 0.24,0.19 z"
         inkscape:connector-curvature="0"
         style="fill:#000000;stroke-width:0" /><path
         id="path9384-2"
         d="m 232.34,658.49 h 0.87 v 0.25 h -0.9 v 0.78 c 0,0.63 0.38,0.92 0.68,0.92 0.06,0 0.13,-0.01 0.2,-0.03 -0.1,-0.06 -0.15,-0.17 -0.15,-0.28 0,-0.19 0.13,-0.32 0.31,-0.32 0.19,0 0.33,0.13 0.33,0.32 0,0.3 -0.3,0.51 -0.69,0.51 -0.55,0 -1.17,-0.39 -1.17,-1.12 v -0.78 h -0.6 v -0.25 h 0.6 v -2.2 c 0,-0.3 -0.07,-0.3 -0.53,-0.3 v -0.25 c 0.04,0 0.51,0.03 0.8,0.03 0.3,0 0.6,-0.01 0.9,-0.03 v 0.25 h -0.14 c -0.51,0 -0.51,0.08 -0.51,0.31 z"
         inkscape:connector-curvature="0"
         style="fill:#000000;stroke-width:0" /></g>    <g
       id="g9521"
       transform="matrix(1.6901311,0,0,-1.6901311,-199.47684,2099.188)"
       xml:space="preserve"
       stroke-miterlimit="10.433"
       font-style="normal"
       font-variant="normal"
       font-weight="normal"
       font-stretch="normal"
       font-size-adjust="none"
       letter-spacing="normal"
       word-spacing="normal"
       ns0:text="$\\mathrm{T_\\infty}$"
       ns0:preamble=""
       style="font-style:normal;font-variant:normal;font-weight:normal;font-stretch:normal;letter-spacing:normal;word-spacing:normal;text-anchor:start;fill:#0000ff;stroke:#000000;stroke-linecap:butt;stroke-linejoin:miter;stroke-miterlimit:10.43299961;stroke-opacity:1;stroke-dasharray:none;stroke-dashoffset:0"><path
         style="fill:#0000ff;stroke-width:0"
         inkscape:connector-curvature="0"
         d="m 230.06,663.96 h -6.08 l -0.19,-2.24 h 0.25 c 0.14,1.6 0.29,1.93 1.79,1.93 0.18,0 0.44,0 0.54,-0.02 0.21,-0.04 0.21,-0.15 0.21,-0.37 v -5.24 c 0,-0.34 0,-0.48 -1.05,-0.48 h -0.4 v -0.31 c 0.41,0.04 1.43,0.04 1.88,0.04 0.46,0 1.49,0 1.89,-0.04 v 0.31 h -0.39 c -1.05,0 -1.05,0.14 -1.05,0.48 v 5.24 c 0,0.19 0,0.33 0.18,0.37 0.11,0.02 0.38,0.02 0.57,0.02 1.5,0 1.65,-0.33 1.79,-1.93 h 0.25 z"
         id="path9523" /><path
         style="fill:#0000ff;stroke-width:0"
         inkscape:connector-curvature="0"
         d="m 234.65,657.65 -0.03,0.04 -0.03,0.03 -0.03,0.04 -0.03,0.03 -0.03,0.04 -0.03,0.03 -0.03,0.03 -0.02,0.03 -0.03,0.02 -0.02,0.03 -0.02,0.03 -0.03,0.02 -0.02,0.02 -0.02,0.02 -0.02,0.03 -0.02,0.02 -0.04,0.03 -0.04,0.04 -0.04,0.04 -0.04,0.03 -0.04,0.03 -0.04,0.04 -0.02,0.01 -0.03,0.02 -0.02,0.02 -0.02,0.01 c -0.43,0.31 -0.87,0.43 -1.26,0.43 -0.86,0 -1.49,-0.74 -1.49,-1.57 h 0.2 c 0,0.66 0.54,1.18 1.18,1.18 0.65,0 1.1,-0.52 1.76,-1.33 h 0 c -0.27,-0.45 -0.88,-1.15 -1.73,-1.15 -0.72,0 -1.21,0.63 -1.21,1.3 h -0.2 c 0,-0.82 0.6,-1.57 1.47,-1.57 0.97,0 1.65,0.79 1.9,1.16 0.37,-0.43 0.48,-0.55 0.74,-0.73 0.43,-0.31 0.87,-0.43 1.26,-0.43 0.86,0 1.49,0.74 1.49,1.57 h -0.2 c 0,-0.66 -0.54,-1.19 -1.18,-1.19 -0.65,0 -1.1,0.53 -1.76,1.34 h 0 c 0.27,0.45 0.88,1.15 1.73,1.15 0.72,0 1.21,-0.63 1.21,-1.3 h 0.2 c 0,0.82 -0.6,1.57 -1.47,1.57 -0.97,0 -1.65,-0.79 -1.9,-1.16 z"
         id="path9525" /></g>    <g
       id="g3070"
       transform="matrix(1.6901311,0,0,-1.6901311,-89.359508,1763.5268)"
       xml:space="preserve"
       stroke-miterlimit="10.433"
       font-style="normal"
       font-variant="normal"
       font-weight="normal"
       font-stretch="normal"
       font-size-adjust="none"
       letter-spacing="normal"
       word-spacing="normal"
       ns0:text="$T_g^f$"
       ns0:preamble="/home/ken/.config/inkscape/textextpreamble.txt"
       style="font-style:normal;font-variant:normal;font-weight:normal;font-stretch:normal;letter-spacing:normal;word-spacing:normal;text-anchor:start;fill:#0000ff;fill-opacity:1;fill-rule:evenodd;stroke:#000000;stroke-linecap:butt;stroke-linejoin:miter;stroke-miterlimit:10.43299961;stroke-opacity:1;stroke-dasharray:none;stroke-dashoffset:0"><path
         style="fill:#000000;stroke-width:0"
         inkscape:connector-curvature="0"
         d="m 227.68,483.27 0.01,0.02 0,0.02 0.01,0.03 0.01,0.02 0,0.02 0.01,0.02 0,0.02 0.01,0.02 0,0.01 0.01,0.02 0.01,0.01 0,0.02 0.01,0.01 0,0.01 0.01,0.01 0.01,0.01 0,0.01 0.01,0.01 0.01,0.01 0,0.01 0.01,0 0.01,0.01 0,0.01 0.01,0 0.01,0.01 0.01,0 0.01,0.01 0.01,0 0.01,0 0.01,0.01 0.01,0 0.01,0 c 0.09,0.02 0.42,0.02 0.63,0.02 1,0 1.45,-0.04 1.45,-0.81 0,-0.15 -0.04,-0.54 -0.08,-0.8 -0.01,-0.04 -0.03,-0.16 -0.03,-0.19 0,-0.05 0.03,-0.12 0.12,-0.12 0.11,0 0.13,0.07 0.15,0.22 l 0.27,1.73 c 0.01,0.04 0.02,0.14 0.02,0.17 0,0.11 -0.1,0.11 -0.27,0.11 h -5.52 c -0.24,0 -0.25,-0.01 -0.32,-0.2 l -0.6,-1.75 c -0.01,-0.02 -0.06,-0.16 -0.06,-0.18 0,-0.06 0.05,-0.1 0.12,-0.1 0.1,0 0.11,0.04 0.17,0.2 0.54,1.54 0.8,1.72 2.27,1.72 h 0.39 c 0.27,0 0.27,-0.04 0.27,-0.12 0,-0.06 -0.03,-0.18 -0.04,-0.21 l -1.33,-5.3 c -0.09,-0.37 -0.12,-0.48 -1.18,-0.48 -0.36,0 -0.42,0 -0.42,-0.19 0,-0.12 0.11,-0.12 0.17,-0.12 0.27,0 0.55,0.03 0.81,0.03 0.28,0 0.57,0.01 0.85,0.01 0.28,0 0.56,-0.01 0.83,-0.01 0.28,0 0.58,-0.03 0.86,-0.03 0.1,0 0.22,0 0.22,0.2 0,0.11 -0.08,0.11 -0.34,0.11 -0.25,0 -0.38,0 -0.64,0.02 -0.28,0.03 -0.36,0.06 -0.36,0.22 0,0.01 0,0.06 0.04,0.21 z"
         id="path3072" /><path
         style="fill:#000000;stroke-width:0"
         inkscape:connector-curvature="0"
         d="m 233.47,483.6 h 0.68 c 0.14,0 0.23,0 0.23,0.15 0,0.1 -0.09,0.1 -0.21,0.1 h -0.65 c 0.16,0.88 0.22,1.2 0.27,1.4 0.04,0.16 0.19,0.3 0.36,0.3 0,0 0.19,0 0.33,-0.08 -0.29,-0.09 -0.31,-0.34 -0.31,-0.38 0,-0.16 0.12,-0.26 0.28,-0.26 0.19,0 0.4,0.16 0.4,0.42 0,0.32 -0.35,0.5 -0.7,0.5 -0.31,0 -0.65,-0.18 -0.84,-0.52 -0.14,-0.26 -0.19,-0.58 -0.34,-1.38 h -0.55 c -0.14,0 -0.23,0 -0.23,-0.15 0,-0.1 0.09,-0.1 0.22,-0.1 h 0.51 c -0.01,-0.04 -0.44,-2.55 -0.61,-3.29 -0.04,-0.15 -0.15,-0.68 -0.49,-0.68 0,0 -0.17,0 -0.3,0.08 0.28,0.09 0.3,0.34 0.3,0.38 0,0.16 -0.12,0.26 -0.28,0.26 -0.19,0 -0.39,-0.16 -0.39,-0.42 0,-0.32 0.32,-0.5 0.67,-0.5 0.45,0 0.75,0.46 0.84,0.61 0.25,0.47 0.41,1.33 0.42,1.41 z"
         id="path3074" /><path
         style="fill:#000000;stroke-width:0"
         inkscape:connector-curvature="0"
         d="m 232.96,477.34 0,0.01 0,0.01 0.01,0.01 0,0 0,0.01 0,0.01 0,0.01 0.01,0 0,0.01 0,0.01 0,0 0,0.01 0,0 0,0.01 0,0 0,0.01 0,0 0,0.01 0.01,0 0,0 0,0.01 0,0 0,0 0,0 0,0 0,0.01 0,0 0,0 0,0 0,0 0,0 0,0 c 0,0.16 -0.13,0.23 -0.24,0.23 -0.16,0 -0.29,-0.14 -0.32,-0.27 -0.12,0.19 -0.36,0.4 -0.72,0.4 v -0.2 c 0.49,0 0.62,-0.52 0.62,-0.59 0,-0.01 0,-0.03 -0.02,-0.1 L 232,475.7 c -0.03,-0.11 -0.03,-0.12 -0.15,-0.26 -0.24,-0.29 -0.58,-0.47 -0.84,-0.47 -0.36,0 -0.52,0.3 -0.52,0.66 0,0.3 0.19,1.08 0.37,1.39 0.29,0.49 0.62,0.62 0.85,0.62 v 0.2 c -0.87,0 -1.78,-0.93 -1.78,-1.93 0,-0.71 0.49,-1.14 1.06,-1.14 0.32,0 0.63,0.16 0.87,0.38 l -0.15,-0.63 c -0.08,-0.29 -0.13,-0.48 -0.39,-0.72 -0.31,-0.25 -0.61,-0.25 -0.78,-0.25 -0.33,0 -0.42,0.02 -0.54,0.05 0.17,0.08 0.22,0.25 0.22,0.34 0,0.17 -0.13,0.26 -0.27,0.26 -0.19,0 -0.4,-0.16 -0.4,-0.42 0,-0.42 0.6,-0.43 0.99,-0.43 1.1,0 1.56,0.56 1.66,0.96 z"
         id="path3076" /></g>    <g
       style="font-style:normal;font-variant:normal;font-weight:normal;font-stretch:normal;letter-spacing:normal;word-spacing:normal;text-anchor:start;fill:#0000ff;fill-opacity:1;fill-rule:evenodd;stroke:#000000;stroke-linecap:butt;stroke-linejoin:miter;stroke-miterlimit:10.43299961;stroke-opacity:1;stroke-dasharray:none;stroke-dashoffset:0"
       ns0:preamble="/home/ken/.config/inkscape/textextpreamble.txt"
       ns0:text="$T_g^s$"
       word-spacing="normal"
       letter-spacing="normal"
       font-size-adjust="none"
       font-stretch="normal"
       font-weight="normal"
       font-variant="normal"
       font-style="normal"
       stroke-miterlimit="10.433"
       xml:space="preserve"
       transform="matrix(1.6901311,0,0,-1.6901311,-120.16916,1763.6283)"
       id="content"><path
         id="path3187"
         d="m 227.68,483.27 0.01,0.02 0,0.02 0.01,0.03 0.01,0.02 0,0.02 0.01,0.02 0,0.02 0.01,0.02 0,0.01 0.01,0.02 0.01,0.01 0,0.02 0.01,0.01 0,0.01 0.01,0.01 0.01,0.01 0,0.01 0.01,0.01 0.01,0.01 0,0.01 0.01,0 0.01,0.01 0,0.01 0.01,0 0.01,0.01 0.01,0 0.01,0.01 0.01,0 0.01,0 0.01,0.01 0.01,0 0.01,0 c 0.09,0.02 0.42,0.02 0.63,0.02 1,0 1.45,-0.04 1.45,-0.81 0,-0.15 -0.04,-0.54 -0.08,-0.8 -0.01,-0.04 -0.03,-0.16 -0.03,-0.19 0,-0.05 0.03,-0.12 0.12,-0.12 0.11,0 0.13,0.07 0.15,0.22 l 0.27,1.73 c 0.01,0.04 0.02,0.14 0.02,0.17 0,0.11 -0.1,0.11 -0.27,0.11 h -5.52 c -0.24,0 -0.25,-0.01 -0.32,-0.2 l -0.6,-1.75 c -0.01,-0.02 -0.06,-0.16 -0.06,-0.18 0,-0.06 0.05,-0.1 0.12,-0.1 0.1,0 0.11,0.04 0.17,0.2 0.54,1.54 0.8,1.72 2.27,1.72 h 0.39 c 0.27,0 0.27,-0.04 0.27,-0.12 0,-0.06 -0.03,-0.18 -0.04,-0.21 l -1.33,-5.3 c -0.09,-0.37 -0.12,-0.48 -1.18,-0.48 -0.36,0 -0.42,0 -0.42,-0.19 0,-0.12 0.11,-0.12 0.17,-0.12 0.27,0 0.55,0.03 0.81,0.03 0.28,0 0.57,0.01 0.85,0.01 0.28,0 0.56,-0.01 0.83,-0.01 0.28,0 0.58,-0.03 0.86,-0.03 0.1,0 0.22,0 0.22,0.2 0,0.11 -0.08,0.11 -0.34,0.11 -0.25,0 -0.38,0 -0.64,0.02 -0.28,0.03 -0.36,0.06 -0.36,0.22 0,0.01 0,0.06 0.04,0.21 z"
         inkscape:connector-curvature="0"
         style="fill:#000000;stroke-width:0" /><path
         id="path3189"
         d="m 233.64,483.47 -0.02,-0.01 -0.01,0 -0.02,-0.01 -0.01,0 -0.02,-0.01 -0.01,-0.01 -0.02,-0.01 -0.01,0 -0.02,-0.01 -0.01,-0.01 -0.01,-0.01 -0.01,-0.01 -0.01,-0.01 -0.01,-0.01 -0.01,-0.01 -0.01,-0.01 -0.01,-0.01 -0.01,-0.01 -0.01,-0.02 -0.01,-0.01 -0.01,-0.01 0,-0.01 -0.01,-0.01 0,-0.02 -0.01,-0.01 0,-0.01 0,-0.02 -0.01,-0.01 0,-0.01 0,-0.01 0,-0.02 0,-0.01 c 0,-0.16 0.14,-0.22 0.23,-0.22 0.07,0 0.33,0.04 0.33,0.39 0,0.46 -0.5,0.61 -0.92,0.61 -1.09,0 -1.29,-0.8 -1.29,-1.02 0,-0.26 0.15,-0.42 0.25,-0.51 0.18,-0.13 0.3,-0.16 0.78,-0.25 0.15,-0.02 0.6,-0.11 0.6,-0.46 0,-0.11 -0.08,-0.38 -0.37,-0.55 -0.27,-0.15 -0.62,-0.15 -0.7,-0.15 -0.28,0 -0.67,0.06 -0.83,0.29 0.22,0.03 0.38,0.2 0.38,0.4 0,0.17 -0.13,0.25 -0.27,0.25 -0.21,0 -0.41,-0.16 -0.41,-0.46 0,-0.42 0.45,-0.68 1.12,-0.68 1.29,0 1.52,0.88 1.52,1.15 0,0.64 -0.7,0.76 -0.96,0.81 -0.06,0.02 -0.24,0.04 -0.28,0.06 -0.26,0.05 -0.38,0.19 -0.38,0.35 0,0.16 0.12,0.34 0.28,0.44 0.19,0.12 0.43,0.13 0.55,0.13 0.14,0 0.51,-0.02 0.66,-0.25 z"
         inkscape:connector-curvature="0"
         style="fill:#000000;stroke-width:0" /><path
         id="path3191"
         d="m 232.96,477.34 0,0.01 0,0.01 0.01,0.01 0,0 0,0.01 0,0.01 0,0.01 0.01,0 0,0.01 0,0.01 0,0 0,0.01 0,0 0,0.01 0,0 0,0.01 0,0 0,0.01 0.01,0 0,0 0,0.01 0,0 0,0 0,0 0,0 0,0.01 0,0 0,0 0,0 0,0 0,0 0,0 c 0,0.16 -0.13,0.23 -0.24,0.23 -0.16,0 -0.29,-0.14 -0.32,-0.27 -0.12,0.19 -0.36,0.4 -0.72,0.4 v -0.2 c 0.49,0 0.62,-0.52 0.62,-0.59 0,-0.01 0,-0.03 -0.02,-0.1 L 232,475.7 c -0.03,-0.11 -0.03,-0.12 -0.15,-0.26 -0.24,-0.29 -0.58,-0.47 -0.84,-0.47 -0.36,0 -0.52,0.3 -0.52,0.66 0,0.3 0.19,1.08 0.37,1.39 0.29,0.49 0.62,0.62 0.85,0.62 v 0.2 c -0.87,0 -1.78,-0.93 -1.78,-1.93 0,-0.71 0.49,-1.14 1.06,-1.14 0.32,0 0.63,0.16 0.87,0.38 l -0.15,-0.63 c -0.08,-0.29 -0.13,-0.48 -0.39,-0.72 -0.31,-0.25 -0.61,-0.25 -0.78,-0.25 -0.33,0 -0.42,0.02 -0.54,0.05 0.17,0.08 0.22,0.25 0.22,0.34 0,0.17 -0.13,0.26 -0.27,0.26 -0.19,0 -0.4,-0.16 -0.4,-0.42 0,-0.42 0.6,-0.43 0.99,-0.43 1.1,0 1.56,0.56 1.66,0.96 z"
         inkscape:connector-curvature="0"
         style="fill:#000000;stroke-width:0" /></g>    <path
       style="fill:none;stroke:#000000;stroke-width:1;stroke-linecap:butt;stroke-linejoin:miter;stroke-miterlimit:4;stroke-opacity:1;stroke-dasharray:2, 1;stroke-dashoffset:0"
       d="m 213.32143,100.5 0,110"
       id="path3235"
       inkscape:connector-curvature="0"
       transform="translate(53.650216,725.54724)" />
    <path
       style="fill:none;stroke:#000000;stroke-width:1;stroke-linecap:butt;stroke-linejoin:miter;stroke-miterlimit:4;stroke-opacity:1;stroke-dasharray:2, 1;stroke-dashoffset:0"
       d="m 243.32143,100.5 0,110"
       id="path3237"
       inkscape:connector-curvature="0"
       transform="translate(53.650216,725.54724)" />
  </g>
</svg>
