<?xml version="1.0" encoding="UTF-8" standalone="no"?>
<!-- Created with Inkscape (http://www.inkscape.org/) -->

<svg
   xmlns:dc="http://purl.org/dc/elements/1.1/"
   xmlns:cc="http://creativecommons.org/ns#"
   xmlns:rdf="http://www.w3.org/1999/02/22-rdf-syntax-ns#"
   xmlns:svg="http://www.w3.org/2000/svg"
   xmlns="http://www.w3.org/2000/svg"
   xmlns:sodipodi="http://sodipodi.sourceforge.net/DTD/sodipodi-0.dtd"
   xmlns:inkscape="http://www.inkscape.org/namespaces/inkscape"
   width="304.49683"
   height="109.97463"
   id="svg2"
   version="1.1"
   inkscape:version="0.48.4 r9939"
   sodipodi:docname="New document 1">
  <sodipodi:namedview
     id="base"
     pagecolor="#ffffff"
     bordercolor="#666666"
     borderopacity="1.0"
     inkscape:pageopacity="0.0"
     inkscape:pageshadow="2"
     inkscape:zoom="1.4"
     inkscape:cx="120.91996"
     inkscape:cy="68.447299"
     inkscape:document-units="px"
     inkscape:current-layer="layer1"
     showgrid="true"
     units="in"
     width="11cm"
     inkscape:window-width="1274"
     inkscape:window-height="624"
     inkscape:window-x="0"
     inkscape:window-y="340"
     inkscape:window-maximized="0"
     fit-margin-top="0"
     fit-margin-left="0"
     fit-margin-right="0"
     fit-margin-bottom="0">
    <inkscape:grid
       type="xygrid"
       id="grid2984"
       empspacing="5"
       visible="true"
       enabled="true"
       snapvisiblegridlinesonly="true"
       spacingx="2px"
       spacingy="2px"
       originx="-141.71875px"
       originy="-150.21286px" />
  </sodipodi:namedview>
  <defs
     id="defs4">
    <marker
       inkscape:stockid="Arrow2Lstart"
       orient="auto"
       refY="0"
       refX="0"
       id="Arrow2Lstart"
       style="overflow:visible">
      <path
         id="path4015"
         style="fill-rule:evenodd;stroke-width:0.625;stroke-linejoin:round"
         d="M 8.7185878,4.0337352 -2.2072895,0.01601326 8.7185884,-4.0017078 c -1.7454984,2.3720609 -1.7354408,5.6174519 -6e-7,8.035443 z"
         transform="matrix(1.1,0,0,1.1,1.1,0)"
         inkscape:connector-curvature="0" />
    </marker>
    <marker
       style="overflow:visible"
       id="Arrow2Mend"
       refX="0"
       refY="0"
       orient="auto"
       inkscape:stockid="Arrow2Mend">
      <path
         transform="scale(-0.6,-0.6)"
         d="M 8.7185878,4.0337352 -2.2072895,0.01601326 8.7185884,-4.0017078 c -1.7454984,2.3720609 -1.7354408,5.6174519 -6e-7,8.035443 z"
         style="fill-rule:evenodd;stroke-width:0.625;stroke-linejoin:round"
         id="path3966"
         inkscape:connector-curvature="0" />
    </marker>
  </defs>
  <metadata
     id="metadata7">
    <rdf:RDF>
      <cc:Work
         rdf:about="">
        <dc:format>image/svg+xml</dc:format>
        <dc:type
           rdf:resource="http://purl.org/dc/dcmitype/StillImage" />
        <dc:title></dc:title>
      </cc:Work>
    </rdf:RDF>
  </metadata>
  <g
     transform="translate(-78.690392,-815.85974)"
     id="layer1"
     inkscape:groupmode="layer"
     inkscape:label="Layer 1">
    <path
       sodipodi:type="arc"
       style="fill:#aa0000;fill-opacity:1;stroke:#aa0000;stroke-width:1;stroke-miterlimit:4;stroke-opacity:1;stroke-dasharray:none;stroke-dashoffset:0"
       id="path2985"
       sodipodi:cx="100"
       sodipodi:cy="150.53571"
       sodipodi:rx="10"
       sodipodi:ry="10"
       d="m 109.88236,152.06508 c -0.84465,5.45788 -5.95386,9.19763 -11.411734,8.35298 -5.457876,-0.84465 -9.197635,-5.95385 -8.352985,-11.41173 0.84465,-5.45787 5.953857,-9.19763 11.411729,-8.35298 5.42809,0.84004 9.16259,5.90093 8.36451,11.33534"
       transform="translate(76.971642,755.51153)"
       sodipodi:start="0.15353994"
       sodipodi:end="6.4290004"
       sodipodi:open="true" />
    <path
       transform="translate(192.68593,728.36868)"
       sodipodi:type="arc"
       style="fill:#aa0000;fill-opacity:1;stroke:#aa0000;stroke-width:1;stroke-miterlimit:4;stroke-opacity:1;stroke-dasharray:none;stroke-dashoffset:0"
       id="path2985-3"
       sodipodi:cx="100"
       sodipodi:cy="150.53571"
       sodipodi:rx="10"
       sodipodi:ry="10"
       d="m 109.88236,152.06508 c -0.84465,5.45788 -5.95386,9.19763 -11.411734,8.35298 -5.457876,-0.84465 -9.197635,-5.95385 -8.352985,-11.41173 0.84465,-5.45787 5.953857,-9.19763 11.411729,-8.35298 5.42809,0.84004 9.16259,5.90093 8.36451,11.33534"
       sodipodi:start="0.15353994"
       sodipodi:end="6.4290004"
       sodipodi:open="true" />
    <path
       transform="translate(183.40021,752.65438)"
       sodipodi:type="arc"
       style="fill:#aa0000;fill-opacity:1;stroke:#aa0000;stroke-width:1;stroke-miterlimit:4;stroke-opacity:1;stroke-dasharray:none;stroke-dashoffset:0"
       id="path2985-1"
       sodipodi:cx="100"
       sodipodi:cy="150.53571"
       sodipodi:rx="10"
       sodipodi:ry="10"
       d="m 109.88236,152.06508 c -0.84465,5.45788 -5.95386,9.19763 -11.411734,8.35298 -5.457876,-0.84465 -9.197635,-5.95385 -8.352985,-11.41173 0.84465,-5.45787 5.953857,-9.19763 11.411729,-8.35298 5.42809,0.84004 9.16259,5.90093 8.36451,11.33534"
       sodipodi:start="0.15353994"
       sodipodi:end="6.4290004"
       sodipodi:open="true" />
    <path
       transform="translate(272.68593,703.36868)"
       sodipodi:type="arc"
       style="fill:#aa0000;fill-opacity:1;stroke:#aa0000;stroke-width:1;stroke-miterlimit:4;stroke-opacity:1;stroke-dasharray:none;stroke-dashoffset:0"
       id="path2985-80"
       sodipodi:cx="100"
       sodipodi:cy="150.53571"
       sodipodi:rx="10"
       sodipodi:ry="10"
       d="m 109.88236,152.06508 c -0.84465,5.45788 -5.95386,9.19763 -11.411734,8.35298 -5.457876,-0.84465 -9.197635,-5.95385 -8.352985,-11.41173 0.84465,-5.45787 5.953857,-9.19763 11.411729,-8.35298 5.42809,0.84004 9.16259,5.90093 8.36451,11.33534"
       sodipodi:start="0.15353994"
       sodipodi:end="6.4290004"
       sodipodi:open="true" />
    <path
       transform="translate(244.1145,711.22582)"
       sodipodi:type="arc"
       style="fill:#aa0000;fill-opacity:1;stroke:#aa0000;stroke-width:1;stroke-miterlimit:4;stroke-opacity:1;stroke-dasharray:none;stroke-dashoffset:0"
       id="path2985-7"
       sodipodi:cx="100"
       sodipodi:cy="150.53571"
       sodipodi:rx="10"
       sodipodi:ry="10"
       d="m 109.88236,152.06508 c -0.84465,5.45788 -5.95386,9.19763 -11.411734,8.35298 -5.457876,-0.84465 -9.197635,-5.95385 -8.352985,-11.41173 0.84465,-5.45787 5.953857,-9.19763 11.411729,-8.35298 5.42809,0.84004 9.16259,5.90093 8.36451,11.33534"
       sodipodi:start="0.15353994"
       sodipodi:end="6.4290004"
       sodipodi:open="true" />
    <path
       transform="translate(216.25736,713.36867)"
       sodipodi:type="arc"
       style="fill:#aa0000;fill-opacity:1;stroke:#aa0000;stroke-width:1;stroke-miterlimit:4;stroke-opacity:1;stroke-dasharray:none;stroke-dashoffset:0"
       id="path2985-14"
       sodipodi:cx="100"
       sodipodi:cy="150.53571"
       sodipodi:rx="10"
       sodipodi:ry="10"
       d="m 109.88236,152.06508 c -0.84465,5.45788 -5.95386,9.19763 -11.411734,8.35298 -5.457876,-0.84465 -9.197635,-5.95385 -8.352985,-11.41173 0.84465,-5.45787 5.953857,-9.19763 11.411729,-8.35298 5.42809,0.84004 9.16259,5.90093 8.36451,11.33534"
       sodipodi:start="0.15353994"
       sodipodi:end="6.4290004"
       sodipodi:open="true" />
    <path
       transform="translate(159.82879,764.79725)"
       sodipodi:type="arc"
       style="fill:#aa0000;fill-opacity:1;stroke:#aa0000;stroke-width:1;stroke-miterlimit:4;stroke-opacity:1;stroke-dasharray:none;stroke-dashoffset:0"
       id="path2985-75"
       sodipodi:cx="100"
       sodipodi:cy="150.53571"
       sodipodi:rx="10"
       sodipodi:ry="10"
       d="m 109.88236,152.06508 c -0.84465,5.45788 -5.95386,9.19763 -11.411734,8.35298 -5.457876,-0.84465 -9.197635,-5.95385 -8.352985,-11.41173 0.84465,-5.45787 5.953857,-9.19763 11.411729,-8.35298 5.42809,0.84004 9.16259,5.90093 8.36451,11.33534"
       sodipodi:start="0.15353994"
       sodipodi:end="6.4290004"
       sodipodi:open="true" />
    <path
       transform="translate(139.1145,746.22581)"
       sodipodi:type="arc"
       style="fill:#aa0000;fill-opacity:1;stroke:#aa0000;stroke-width:1;stroke-miterlimit:4;stroke-opacity:1;stroke-dasharray:none;stroke-dashoffset:0"
       id="path2985-4"
       sodipodi:cx="100"
       sodipodi:cy="150.53571"
       sodipodi:rx="10"
       sodipodi:ry="10"
       d="m 109.88236,152.06508 c -0.84465,5.45788 -5.95386,9.19763 -11.411734,8.35298 -5.457876,-0.84465 -9.197635,-5.95385 -8.352985,-11.41173 0.84465,-5.45787 5.953857,-9.19763 11.411729,-8.35298 5.42809,0.84004 9.16259,5.90093 8.36451,11.33534"
       sodipodi:start="0.15353994"
       sodipodi:end="6.4290004"
       sodipodi:open="true" />
    <path
       transform="translate(119.82879,727.65438)"
       sodipodi:type="arc"
       style="fill:#aa0000;fill-opacity:1;stroke:#aa0000;stroke-width:1;stroke-miterlimit:4;stroke-opacity:1;stroke-dasharray:none;stroke-dashoffset:0"
       id="path2985-85"
       sodipodi:cx="100"
       sodipodi:cy="150.53571"
       sodipodi:rx="10"
       sodipodi:ry="10"
       d="m 109.88236,152.06508 c -0.84465,5.45788 -5.95386,9.19763 -11.411734,8.35298 -5.457876,-0.84465 -9.197635,-5.95385 -8.352985,-11.41173 0.84465,-5.45787 5.953857,-9.19763 11.411729,-8.35298 5.42809,0.84004 9.16259,5.90093 8.36451,11.33534"
       sodipodi:start="0.15353994"
       sodipodi:end="6.4290004"
       sodipodi:open="true" />
    <path
       transform="translate(98.400213,711.22582)"
       sodipodi:type="arc"
       style="fill:#aa0000;fill-opacity:1;stroke:#aa0000;stroke-width:1;stroke-miterlimit:4;stroke-opacity:1;stroke-dasharray:none;stroke-dashoffset:0"
       id="path2985-37"
       sodipodi:cx="100"
       sodipodi:cy="150.53571"
       sodipodi:rx="10"
       sodipodi:ry="10"
       d="m 109.88236,152.06508 c -0.84465,5.45788 -5.95386,9.19763 -11.411734,8.35298 -5.457876,-0.84465 -9.197635,-5.95385 -8.352985,-11.41173 0.84465,-5.45787 5.953857,-9.19763 11.411729,-8.35298 5.42809,0.84004 9.16259,5.90093 8.36451,11.33534"
       sodipodi:start="0.15353994"
       sodipodi:end="6.4290004"
       sodipodi:open="true" />
    <path
       transform="translate(77.685928,728.36867)"
       sodipodi:type="arc"
       style="fill:#aa0000;fill-opacity:1;stroke:#aa0000;stroke-width:1;stroke-miterlimit:4;stroke-opacity:1;stroke-dasharray:none;stroke-dashoffset:0"
       id="path2985-9"
       sodipodi:cx="100"
       sodipodi:cy="150.53571"
       sodipodi:rx="10"
       sodipodi:ry="10"
       d="m 109.88236,152.06508 c -0.84465,5.45788 -5.95386,9.19763 -11.411734,8.35298 -5.457876,-0.84465 -9.197635,-5.95385 -8.352985,-11.41173 0.84465,-5.45787 5.953857,-9.19763 11.411729,-8.35298 5.42809,0.84004 9.16259,5.90093 8.36451,11.33534"
       sodipodi:start="0.15353994"
       sodipodi:end="6.4290004"
       sodipodi:open="true" />
    <path
       style="fill:none;stroke:#aa0000;stroke-width:2;stroke-linecap:butt;stroke-linejoin:miter;stroke-miterlimit:4;stroke-opacity:1;stroke-dasharray:none"
       d="m 177.68593,886.76153 0,10"
       id="path3075"
       inkscape:connector-curvature="0" />
    <path
       style="fill:none;stroke:#aa0000;stroke-width:2;stroke-linecap:butt;stroke-linejoin:miter;stroke-miterlimit:4;stroke-opacity:1;stroke-dasharray:none"
       d="m 190.22225,865.81952 -6.50122,7.5983"
       id="path3075-6"
       inkscape:connector-curvature="0" />
    <path
       style="fill:none;stroke:#aa0000;stroke-width:2;stroke-linecap:butt;stroke-linejoin:miter;stroke-miterlimit:4;stroke-opacity:1;stroke-dasharray:none"
       d="m 213.23638,871.8491 -6.8152,-7.318"
       id="path3075-6-7"
       inkscape:connector-curvature="0" />
    <path
       style="fill:none;stroke:#aa0000;stroke-width:2;stroke-linecap:butt;stroke-linejoin:miter;stroke-miterlimit:4;stroke-opacity:1;stroke-dasharray:none"
       d="m 233.23638,891.8491 -6.8152,-7.318"
       id="path3075-6-7-6"
       inkscape:connector-curvature="0" />
    <path
       style="fill:none;stroke:#aa0000;stroke-width:2;stroke-linecap:butt;stroke-linejoin:miter;stroke-miterlimit:4;stroke-opacity:1;stroke-dasharray:none"
       d="m 253.23638,911.8491 -6.8152,-7.318"
       id="path3075-6-7-1"
       inkscape:connector-curvature="0" />
    <path
       style="fill:none;stroke:#aa0000;stroke-width:2;stroke-linecap:butt;stroke-linejoin:miter;stroke-miterlimit:4;stroke-opacity:1;stroke-dasharray:none"
       d="M 285.40328,896.50918 288.54,887.01386"
       id="path3075-6-7-0"
       inkscape:connector-curvature="0" />
    <path
       style="fill:none;stroke:#aa0000;stroke-width:2;stroke-linecap:butt;stroke-linejoin:miter;stroke-miterlimit:4;stroke-opacity:1;stroke-dasharray:none"
       d="m 268.63426,912.54851 8.10334,-5.85968"
       id="path3075-6-7-1-7"
       inkscape:connector-curvature="0" />
    <path
       style="fill:none;stroke:#aa0000;stroke-width:2;stroke-linecap:butt;stroke-linejoin:miter;stroke-miterlimit:4;stroke-opacity:1;stroke-dasharray:none"
       d="m 299.97425,873.13623 8.2805,-5.60656"
       id="path3075-6-7-0-9"
       inkscape:connector-curvature="0" />
    <path
       style="fill:none;stroke:#aa0000;stroke-width:2;stroke-linecap:butt;stroke-linejoin:miter;stroke-miterlimit:4;stroke-opacity:1;stroke-dasharray:none"
       d="m 325.54773,861.97718 9.9907,-0.43132"
       id="path3075-6-7-0-9-5"
       inkscape:connector-curvature="0" />
    <path
       style="fill:none;stroke:#aa0000;stroke-width:2;stroke-linecap:butt;stroke-linejoin:miter;stroke-miterlimit:4;stroke-opacity:1;stroke-dasharray:none"
       d="m 353.69461,859.88043 9.41122,-3.38068"
       id="path3075-6-7-0-9-5-1"
       inkscape:connector-curvature="0" />
    <path
       style="fill:none;stroke:#000000;stroke-width:1px;stroke-linecap:butt;stroke-linejoin:miter;stroke-opacity:1;marker-start:url(#Arrow2Lstart)"
       d="m 220,200.53571 -50,-40"
       id="path3991"
       inkscape:connector-curvature="0"
       transform="translate(-63.028358,665.51153)" />
    <text
       xml:space="preserve"
       style="font-size:16px;font-style:normal;font-variant:normal;font-weight:500;font-stretch:normal;text-align:start;line-height:100%;letter-spacing:0px;word-spacing:0px;writing-mode:lr-tb;text-anchor:start;fill:#000000;fill-opacity:1;stroke:none;font-family:Rekha;-inkscape-font-specification:Rekha Medium"
       x="76.971642"
       y="826.04724"
       id="text4439"
       sodipodi:linespacing="100%"><tspan
         sodipodi:role="line"
         id="tspan4441"
         x="76.971642"
         y="826.04724">'mer'</tspan></text>
  </g>
</svg>
