<?xml version="1.0" encoding="UTF-8" standalone="no"?>
<!-- Created with Inkscape (http://www.inkscape.org/) -->

<svg
   xmlns:ns0="http://www.iki.fi/pav/software/textext/"
   xmlns:dc="http://purl.org/dc/elements/1.1/"
   xmlns:cc="http://creativecommons.org/ns#"
   xmlns:rdf="http://www.w3.org/1999/02/22-rdf-syntax-ns#"
   xmlns:svg="http://www.w3.org/2000/svg"
   xmlns="http://www.w3.org/2000/svg"
   xmlns:sodipodi="http://sodipodi.sourceforge.net/DTD/sodipodi-0.dtd"
   xmlns:inkscape="http://www.inkscape.org/namespaces/inkscape"
   sodipodi:docname="New document 27"
   inkscape:version="0.48.4 r9939"
   version="1.1"
   id="svg2"
   height="204.75781"
   width="475.27045">
  <sodipodi:namedview
     id="base"
     pagecolor="#ffffff"
     bordercolor="#666666"
     borderopacity="1.0"
     inkscape:pageopacity="0.0"
     inkscape:pageshadow="2"
     inkscape:zoom="1.4"
     inkscape:cx="207.88234"
     inkscape:cy="105.69395"
     inkscape:document-units="px"
     inkscape:current-layer="layer1"
     showgrid="true"
     units="in"
     width="11cm"
     inkscape:window-width="1274"
     inkscape:window-height="568"
     inkscape:window-x="0"
     inkscape:window-y="396"
     inkscape:window-maximized="0"
     fit-margin-top="0"
     fit-margin-left="0"
     fit-margin-right="0"
     fit-margin-bottom="0">
    <inkscape:grid
       spacingy="2px"
       spacingx="2px"
       snapvisiblegridlinesonly="true"
       enabled="true"
       visible="true"
       empspacing="5"
       id="grid2984"
       type="xygrid"
       originx="-78.186921px"
       originy="-115.74217px" />
  </sodipodi:namedview>
  <defs
     id="defs4">
    <marker
       inkscape:stockid="Arrow2Mend"
       orient="auto"
       refY="0"
       refX="0"
       id="Arrow2Mend"
       style="overflow:visible">
      <path
         inkscape:connector-curvature="0"
         id="path3966"
         style="fill-rule:evenodd;stroke-width:0.625;stroke-linejoin:round"
         d="M 8.7185878,4.0337352 -2.2072895,0.01601326 8.7185884,-4.0017078 c -1.7454984,2.3720609 -1.7354408,5.6174519 -6e-7,8.035443 z"
         transform="scale(-0.6,-0.6)" />
    </marker>
  </defs>
  <metadata
     id="metadata7">
    <rdf:RDF>
      <cc:Work
         rdf:about="">
        <dc:format>image/svg+xml</dc:format>
        <dc:type
           rdf:resource="http://purl.org/dc/dcmitype/StillImage" />
        <dc:title></dc:title>
      </cc:Work>
    </rdf:RDF>
  </metadata>
  <g
     inkscape:label="Layer 1"
     inkscape:groupmode="layer"
     id="layer1"
     transform="translate(-15.158563,-755.54724)">
    <path
       transform="translate(-63.028358,665.51153)"
       inkscape:connector-curvature="0"
       id="path7799"
       d="m 180,90.535706 0,50.000004"
       style="fill:none;stroke:#000000;stroke-width:1px;stroke-linecap:butt;stroke-linejoin:miter;stroke-opacity:1"
       sodipodi:nodetypes="cc" />
    <path
       transform="translate(-63.028358,665.51153)"
       inkscape:connector-curvature="0"
       id="path7801"
       d="m 180,170.53571 0,20"
       style="fill:none;stroke:#000000;stroke-width:1px;stroke-linecap:butt;stroke-linejoin:miter;stroke-opacity:1"
       sodipodi:nodetypes="cc" />
    <path
       transform="translate(-63.028358,665.51153)"
       inkscape:connector-curvature="0"
       id="path7803"
       d="m 180,220.53571 0,30 270,0 0,-160.000004"
       style="fill:none;stroke:#000000;stroke-width:1px;stroke-linecap:butt;stroke-linejoin:miter;stroke-opacity:1" />
    <path
       transform="translate(-63.028358,665.51153)"
       inkscape:connector-curvature="0"
       id="path7805"
       d="m 190,210.53571 260,-90"
       style="fill:none;stroke:#41d641;stroke-width:1px;stroke-linecap:butt;stroke-linejoin:miter;stroke-opacity:1" />
    <rect
       y="903.90436"
       x="314.8288"
       height="30"
       width="30"
       id="rect7807"
       style="fill:#800080;fill-opacity:1;stroke:#800080;stroke-width:2;stroke-miterlimit:4;stroke-opacity:1;stroke-dasharray:none;stroke-dashoffset:0" />
    <path
       transform="matrix(1.2380952,0,0,1.2380952,266.73355,549.4316)"
       d="m 60,205.53571 c 0,2.76142 -2.238576,5 -5,5 -2.761424,0 -5,-2.23858 -5,-5 0,-2.76143 2.238576,-5 5,-5 2.761424,0 5,2.23857 5,5 z"
       sodipodi:ry="5"
       sodipodi:rx="5"
       sodipodi:cy="205.53571"
       sodipodi:cx="55"
       id="path7809"
       style="fill:#ff0000;fill-opacity:1;stroke:#ff0000;stroke-width:2;stroke-miterlimit:4;stroke-opacity:1;stroke-dasharray:none;stroke-dashoffset:0"
       sodipodi:type="arc" />
    <g
       ns0:preamble=""
       ns0:text="$\\rho$"
       word-spacing="normal"
       letter-spacing="normal"
       font-size-adjust="none"
       font-stretch="normal"
       font-weight="normal"
       font-variant="normal"
       font-style="normal"
       stroke-miterlimit="10.433"
       xml:space="preserve"
       transform="matrix(2.8237082,0,0,-2.8237082,-613.73253,2679.4772)"
       id="content"
       style="font-style:normal;font-variant:normal;font-weight:normal;font-stretch:normal;letter-spacing:normal;word-spacing:normal;text-anchor:start;fill:none;stroke:#000000;stroke-linecap:butt;stroke-linejoin:miter;stroke-miterlimit:10.43299961;stroke-opacity:1;stroke-dasharray:none;stroke-dashoffset:0"><path
         id="path8340"
         d="m 223.76,655.52 0,-0.01 0,0 0,-0.01 -0.01,-0.01 0,0 0,0 0,-0.01 0,0 0,-0.01 0,0 0,-0.01 0,0 0,-0.01 -0.01,0 0,-0.01 0,0 0,-0.01 0,-0.01 0,0 0,-0.01 0,0 -0.01,-0.01 0,0 0,0 0,-0.01 0,0 0,-0.01 0,0 0,0 0,0 0,-0.01 0,0 0,0 0,0 0,-0.01 0,0 c 0,-0.15 0.11,-0.27 0.28,-0.27 0.21,0 0.33,0.18 0.35,0.21 0.05,0.09 0.37,1.42 0.63,2.49 0.2,-0.4 0.52,-0.66 0.99,-0.66 l -0.01,0.21 c -0.7,0 -0.86,0.8 -0.86,0.89 0,0.04 0.05,0.24 0.08,0.37 0.28,1.11 0.38,1.47 0.6,1.86 0.43,0.73 0.92,0.95 1.23,0.95 0.37,0 0.69,-0.29 0.69,-0.98 0,-0.54 -0.29,-1.65 -0.56,-2.14 -0.33,-0.63 -0.8,-0.95 -1.18,-0.95 h 0 l 0.01,-0.21 c 1.16,0 2.45,1.4 2.45,2.88 0,1.05 -0.66,1.62 -1.39,1.62 -0.96,0 -2.01,-1 -2.3,-2.21 z"
         inkscape:connector-curvature="0"
         style="fill:#000000;stroke-width:0" /></g>    <text
       xml:space="preserve"
       style="font-size:16px;font-style:normal;font-variant:normal;font-weight:500;font-stretch:normal;text-align:start;line-height:100%;letter-spacing:0px;word-spacing:0px;writing-mode:lr-tb;text-anchor:start;fill:#000000;fill-opacity:1;stroke:none;font-family:Rekha;-inkscape-font-specification:Rekha Medium"
       x="36.971642"
       y="826.04724"
       id="text8417"
       sodipodi:linespacing="100%"><tspan
         sodipodi:role="line"
         id="tspan8419"
         x="36.971642"
         y="826.04724"
         style="font-size:20px">(density)</tspan></text>
    <g
       id="g8460"
       transform="matrix(2.0344422,0,0,-2.0344422,-440.00719,2211.5608)"
       xml:space="preserve"
       stroke-miterlimit="10.433"
       font-style="normal"
       font-variant="normal"
       font-weight="normal"
       font-stretch="normal"
       font-size-adjust="none"
       letter-spacing="normal"
       word-spacing="normal"
       ns0:text="$\\rho_{amorphous}$"
       ns0:preamble=""
       style="font-style:normal;font-variant:normal;font-weight:normal;font-stretch:normal;letter-spacing:normal;word-spacing:normal;text-anchor:start;fill:none;stroke:#000000;stroke-linecap:butt;stroke-linejoin:miter;stroke-miterlimit:10.43299961;stroke-opacity:1;stroke-dasharray:none;stroke-dashoffset:0"><path
         style="fill:#000000;stroke-width:0"
         inkscape:connector-curvature="0"
         d="m 223.76,655.52 0,-0.01 0,0 0,-0.01 -0.01,-0.01 0,0 0,0 0,-0.01 0,0 0,-0.01 0,0 0,-0.01 0,0 0,-0.01 -0.01,0 0,-0.01 0,0 0,-0.01 0,-0.01 0,0 0,-0.01 0,0 -0.01,-0.01 0,0 0,0 0,-0.01 0,0 0,-0.01 0,0 0,0 0,0 0,-0.01 0,0 0,0 0,0 0,-0.01 0,0 c 0,-0.15 0.11,-0.27 0.28,-0.27 0.21,0 0.33,0.18 0.35,0.21 0.05,0.09 0.37,1.42 0.63,2.49 0.2,-0.4 0.52,-0.66 0.99,-0.66 l -0.01,0.21 c -0.7,0 -0.86,0.8 -0.86,0.89 0,0.04 0.05,0.24 0.08,0.37 0.28,1.11 0.38,1.47 0.6,1.86 0.43,0.73 0.92,0.95 1.23,0.95 0.37,0 0.69,-0.29 0.69,-0.98 0,-0.54 -0.29,-1.65 -0.56,-2.14 -0.33,-0.63 -0.8,-0.95 -1.18,-0.95 h 0 l 0.01,-0.21 c 1.16,0 2.45,1.4 2.45,2.88 0,1.05 -0.66,1.62 -1.39,1.62 -0.96,0 -2.01,-1 -2.3,-2.21 z"
         id="path8462" /><path
         style="fill:#000000;stroke-width:0"
         inkscape:connector-curvature="0"
         d="m 231.52,658.4 -0.01,0.02 -0.02,0.02 -0.01,0.02 -0.02,0.02 -0.01,0.02 -0.02,0.02 -0.02,0.02 -0.01,0.02 -0.02,0.02 -0.02,0.01 -0.02,0.02 -0.02,0.02 -0.02,0.01 -0.02,0.02 -0.02,0.01 -0.03,0.02 -0.02,0.01 -0.02,0.01 -0.03,0.02 -0.02,0.01 -0.02,0.01 -0.03,0.01 -0.03,0.01 -0.02,0.01 -0.03,0 -0.03,0.01 -0.03,0 -0.02,0.01 -0.03,0 -0.03,0 -0.03,0.01 -0.04,0 v -0.2 c 0.49,0 0.62,-0.53 0.62,-0.6 0,-0.03 -0.01,-0.08 -0.02,-0.1 l -0.32,-1.3 c -0.05,-0.2 -0.21,-0.33 -0.36,-0.47 -0.06,-0.05 -0.34,-0.27 -0.64,-0.27 -0.26,0 -0.51,0.18 -0.51,0.67 0,0.37 0.2,1.13 0.36,1.41 0.32,0.56 0.68,0.66 0.87,0.66 v 0.2 c -0.89,0 -1.79,-0.98 -1.79,-1.98 0,-0.68 0.45,-1.16 1.05,-1.16 0.38,0 0.71,0.22 0.99,0.49 0.13,-0.42 0.54,-0.49 0.72,-0.49 0.25,0 0.42,0.15 0.55,0.37 0.15,0.27 0.24,0.67 0.24,0.69 0,0.1 -0.09,0.1 -0.11,0.1 -0.1,0 -0.11,-0.03 -0.16,-0.22 -0.08,-0.33 -0.21,-0.74 -0.5,-0.74 -0.18,0 -0.23,0.15 -0.23,0.34 0,0.12 0.05,0.37 0.1,0.55 0.05,0.18 0.12,0.47 0.15,0.62 l 0.14,0.53 c 0.05,0.18 0.13,0.51 0.13,0.54 0,0.16 -0.13,0.22 -0.24,0.22 -0.12,0 -0.28,-0.08 -0.32,-0.27 z"
         id="path8464" /><path
         style="fill:#000000;stroke-width:0"
         inkscape:connector-curvature="0"
         d="m 235.93,656.3 -0.01,-0.01 0,-0.01 0,-0.02 -0.01,-0.01 0,-0.02 0,-0.01 -0.01,-0.03 -0.01,-0.04 -0.01,-0.03 -0.01,-0.03 0,-0.01 0,-0.02 -0.01,-0.01 0,-0.02 -0.01,-0.01 0,-0.02 0,-0.01 0,-0.01 -0.01,-0.02 0,-0.01 0,-0.01 0,-0.01 -0.01,-0.01 0,0 0,-0.01 0,-0.01 0,0 0,-0.01 c 0,-0.15 0.13,-0.22 0.24,-0.22 0.12,0 0.23,0.09 0.27,0.15 0.03,0.07 0.09,0.29 0.12,0.44 0.04,0.13 0.11,0.45 0.16,0.62 0.04,0.15 0.08,0.31 0.12,0.47 0.07,0.3 0.07,0.31 0.21,0.53 0.22,0.34 0.57,0.73 1.12,0.73 0.39,0 0.41,-0.32 0.41,-0.48 0,-0.42 -0.3,-1.19 -0.41,-1.48 -0.08,-0.2 -0.11,-0.26 -0.11,-0.38 0,-0.37 0.31,-0.6 0.66,-0.6 0.7,0 1,0.96 1,1.06 0,0.1 -0.08,0.1 -0.11,0.1 -0.09,0 -0.1,-0.05 -0.13,-0.12 -0.16,-0.56 -0.46,-0.84 -0.74,-0.84 -0.14,0 -0.17,0.09 -0.17,0.24 0,0.16 0.03,0.25 0.16,0.56 0.08,0.22 0.37,0.95 0.37,1.35 0,0.11 0,0.4 -0.26,0.6 -0.12,0.09 -0.32,0.19 -0.65,0.19 -0.62,0 -1.01,-0.41 -1.23,-0.71 -0.06,0.6 -0.55,0.71 -0.9,0.71 -0.58,0 -0.97,-0.36 -1.18,-0.64 -0.05,0.49 -0.46,0.64 -0.75,0.64 -0.3,0 -0.46,-0.22 -0.55,-0.38 -0.15,-0.26 -0.25,-0.65 -0.25,-0.69 0,-0.09 0.1,-0.09 0.12,-0.09 0.1,0 0.11,0.02 0.15,0.21 0.11,0.41 0.24,0.75 0.51,0.75 0.18,0 0.23,-0.15 0.23,-0.34 0,-0.13 -0.06,-0.39 -0.11,-0.57 -0.05,-0.19 -0.12,-0.48 -0.15,-0.63 l -0.23,-0.89 c -0.02,-0.09 -0.07,-0.27 -0.07,-0.29 0,-0.15 0.13,-0.22 0.24,-0.22 0.13,0 0.24,0.09 0.27,0.15 0.04,0.07 0.09,0.29 0.13,0.44 0.03,0.13 0.11,0.45 0.15,0.62 0.04,0.15 0.08,0.31 0.12,0.47 0.08,0.28 0.09,0.34 0.29,0.62 0.2,0.28 0.52,0.64 1.05,0.64 0.4,0 0.41,-0.35 0.41,-0.48 0,-0.18 -0.02,-0.27 -0.12,-0.66 z"
         id="path8466" /><path
         style="fill:#000000;stroke-width:0"
         inkscape:connector-curvature="0"
         d="m 243.67,657.59 0,0.07 0,0.07 -0.01,0.07 -0.01,0.06 -0.02,0.07 -0.02,0.06 -0.02,0.06 -0.02,0.06 -0.02,0.05 -0.03,0.06 -0.03,0.05 -0.04,0.05 -0.03,0.04 -0.04,0.05 -0.04,0.04 -0.04,0.04 -0.05,0.04 -0.04,0.03 -0.05,0.03 -0.05,0.04 -0.05,0.02 -0.05,0.03 -0.06,0.02 -0.05,0.03 -0.06,0.01 -0.06,0.02 -0.06,0.01 -0.06,0.02 -0.06,0.01 -0.06,0 -0.07,0.01 -0.06,0 -0.01,-0.2 c 0.38,0 0.7,-0.25 0.7,-0.77 0,-0.17 -0.08,-0.85 -0.39,-1.34 -0.26,-0.41 -0.68,-0.63 -1.03,-0.63 h 0 c -0.35,0 -0.7,0.22 -0.7,0.77 0,0.28 0.14,0.96 0.41,1.36 0.3,0.43 0.7,0.61 1.01,0.61 l 0.01,0.2 c -1.03,0 -2,-0.97 -2,-1.92 0,-0.7 0.5,-1.22 1.26,-1.22 1,0 2,0.92 2,1.92 z"
         id="path8468" /><path
         style="fill:#000000;stroke-width:0"
         inkscape:connector-curvature="0"
         d="m 245.54,657.15 0,0 0,0 0,0.01 0.01,0 0,0.01 0,0 0,0.01 0,0.01 0,0 0.01,0.01 0,0.01 0,0.01 0,0.01 0.01,0.01 0,0.03 0.01,0.02 0.01,0.03 0,0.03 0.01,0.03 0.01,0.03 0.01,0.03 0.01,0.06 0.02,0.06 0,0.03 0.01,0.03 0.01,0.03 0.01,0.03 0,0.02 0.01,0.03 0.01,0.02 0,0.01 0,0.01 0.01,0.01 0,0.01 0,0.01 0,0.01 0,0.01 0.01,0 0,0.01 0,0 0,0.01 0,0 0,0.01 0,0 c 0.02,0.05 0.22,0.4 0.44,0.57 0.08,0.05 0.27,0.19 0.57,0.19 0.07,0 0.24,0 0.38,-0.09 -0.22,-0.07 -0.31,-0.26 -0.31,-0.39 0,-0.15 0.12,-0.25 0.28,-0.25 0.16,0 0.39,0.13 0.39,0.42 0,0.36 -0.38,0.51 -0.74,0.51 -0.36,0 -0.67,-0.15 -0.98,-0.5 -0.12,0.43 -0.55,0.5 -0.71,0.5 -0.26,0 -0.44,-0.16 -0.55,-0.36 -0.16,-0.27 -0.26,-0.67 -0.26,-0.71 0,-0.09 0.1,-0.09 0.12,-0.09 0.1,0 0.11,0.02 0.16,0.21 0.1,0.43 0.23,0.75 0.5,0.75 0.19,0 0.23,-0.15 0.23,-0.34 0,-0.13 -0.06,-0.39 -0.11,-0.57 -0.05,-0.19 -0.12,-0.48 -0.15,-0.63 l -0.22,-0.89 c -0.03,-0.09 -0.07,-0.27 -0.07,-0.29 0,-0.15 0.12,-0.22 0.23,-0.22 0.11,0 0.25,0.06 0.3,0.2 0.02,0.04 0.09,0.35 0.13,0.53 z"
         id="path8470" /><path
         style="fill:#000000;stroke-width:0"
         inkscape:connector-curvature="0"
         d="m 248.34,654.89 0,-0.01 0,-0.02 -0.01,-0.02 0,-0.01 -0.01,-0.02 0,-0.01 -0.01,-0.02 0,-0.01 -0.01,-0.01 0,-0.01 -0.01,-0.01 0,-0.01 -0.01,-0.01 -0.01,-0.01 0,-0.01 -0.01,-0.01 -0.01,0 -0.01,-0.01 -0.01,0 -0.01,-0.01 -0.01,0 -0.01,-0.01 -0.02,0 -0.01,-0.01 -0.02,0 -0.01,0 -0.01,0 -0.01,0 0,0 -0.01,0 -0.01,-0.01 -0.01,0 -0.02,0 -0.01,0 -0.01,0 -0.01,0 -0.01,0 -0.01,0 -0.02,0 c -0.09,0 -0.18,0 -0.18,-0.14 0,-0.08 0.06,-0.11 0.09,-0.11 0.18,0 0.41,0.03 0.6,0.03 0.24,0 0.5,-0.03 0.73,-0.03 0.06,0 0.14,0.02 0.14,0.15 0,0.1 -0.1,0.1 -0.18,0.1 -0.15,0 -0.34,0 -0.34,0.09 0,0.03 0.05,0.21 0.08,0.32 0.08,0.36 0.18,0.74 0.25,1.03 0.09,-0.14 0.3,-0.41 0.72,-0.41 v 0.2 c -0.49,0 -0.62,0.53 -0.62,0.6 0,0.03 0.01,0.08 0.02,0.11 l 0.35,1.39 c 0.4,0.54 0.75,0.64 0.97,0.64 0.28,0 0.51,-0.2 0.51,-0.67 0,-0.29 -0.15,-1 -0.36,-1.4 -0.17,-0.34 -0.51,-0.67 -0.87,-0.67 v -0.2 c 0.85,0 1.79,0.94 1.79,1.98 0,0.81 -0.56,1.16 -1.04,1.16 -0.44,0 -0.81,-0.29 -0.99,-0.49 -0.12,0.4 -0.51,0.49 -0.72,0.49 -0.27,0 -0.44,-0.18 -0.55,-0.37 -0.14,-0.24 -0.25,-0.66 -0.25,-0.7 0,-0.09 0.1,-0.09 0.12,-0.09 0.1,0 0.1,0.02 0.15,0.21 0.1,0.41 0.24,0.75 0.51,0.75 0.18,0 0.23,-0.15 0.23,-0.34 0,-0.07 -0.01,-0.17 -0.02,-0.21 z"
         id="path8472" /><path
         style="fill:#000000;stroke-width:0"
         inkscape:connector-curvature="0"
         d="m 254.11,660.36 0,0 0,0 0,0 0,0 0,0 0,0 0,0.01 0,0 0,0 0,0 0,0.01 0.01,0 0,0 0,0.01 0,0 0,0.01 0,0 0,0.01 0,0.01 0.01,0 0,0.01 0,0 0,0 0,0.01 0,0 0,0.01 0,0 0,0 0,0.01 0,0 0,0 0,0 0.01,0 0,0 0,0.01 0,0 0,0 0,0 0,0 0,0 0,0 c 0,0.03 -0.03,0.1 -0.12,0.1 -0.14,0 -0.71,-0.06 -0.89,-0.07 -0.05,-0.01 -0.15,-0.02 -0.15,-0.16 0,-0.1 0.1,-0.1 0.18,-0.1 0.33,0 0.33,-0.05 0.33,-0.1 0,-0.05 -0.01,-0.1 -0.02,-0.16 l -0.98,-3.93 c -0.04,-0.13 -0.04,-0.14 -0.04,-0.16 0,-0.1 0.08,-0.22 0.24,-0.22 0.07,0 0.21,0.04 0.28,0.18 0.02,0.04 0.09,0.29 0.12,0.44 l 0.16,0.62 c 0.02,0.1 0.09,0.37 0.11,0.47 0.07,0.27 0.07,0.27 0.21,0.5 0.22,0.34 0.57,0.73 1.12,0.73 0.39,0 0.41,-0.32 0.41,-0.48 0,-0.42 -0.3,-1.19 -0.41,-1.48 -0.08,-0.2 -0.11,-0.26 -0.11,-0.38 0,-0.37 0.31,-0.6 0.66,-0.6 0.7,0 1.01,0.96 1.01,1.06 0,0.1 -0.09,0.1 -0.11,0.1 -0.1,0 -0.11,-0.05 -0.14,-0.12 -0.16,-0.56 -0.46,-0.84 -0.74,-0.84 -0.14,0 -0.17,0.09 -0.17,0.24 0,0.16 0.03,0.25 0.16,0.56 0.08,0.22 0.37,0.95 0.37,1.35 0,0.11 0,0.4 -0.26,0.6 -0.12,0.09 -0.32,0.19 -0.65,0.19 -0.5,0 -0.87,-0.28 -1.13,-0.58 z"
         id="path8474" /><path
         style="fill:#000000;stroke-width:0"
         inkscape:connector-curvature="0"
         d="m 260.29,657.59 0,0.07 -0.01,0.07 0,0.07 -0.02,0.06 -0.01,0.07 -0.02,0.06 -0.02,0.06 -0.02,0.06 -0.03,0.05 -0.02,0.06 -0.03,0.05 -0.04,0.05 -0.03,0.04 -0.04,0.05 -0.04,0.04 -0.04,0.04 -0.05,0.04 -0.04,0.03 -0.05,0.03 -0.05,0.04 -0.05,0.02 -0.05,0.03 -0.06,0.02 -0.05,0.03 -0.06,0.01 -0.06,0.02 -0.06,0.01 -0.06,0.02 -0.06,0.01 -0.06,0 -0.07,0.01 -0.06,0 -0.01,-0.2 c 0.38,0 0.7,-0.25 0.7,-0.77 0,-0.17 -0.08,-0.85 -0.39,-1.34 -0.26,-0.41 -0.68,-0.63 -1.03,-0.63 h 0 c -0.35,0 -0.7,0.22 -0.7,0.77 0,0.28 0.13,0.96 0.41,1.36 0.3,0.43 0.7,0.61 1.01,0.61 l 0.01,0.2 c -1.03,0 -2.01,-0.97 -2.01,-1.92 0,-0.7 0.51,-1.22 1.27,-1.22 1,0 2,0.92 2,1.92 z"
         id="path8476" /><path
         style="fill:#000000;stroke-width:0"
         inkscape:connector-curvature="0"
         d="m 263.47,656.87 0,-0.02 -0.01,-0.01 0,-0.02 0,-0.01 -0.01,-0.02 0,-0.01 -0.01,-0.02 0,-0.01 -0.01,-0.04 -0.01,-0.03 0,-0.04 -0.01,-0.01 0,-0.02 -0.01,-0.01 0,-0.02 0,-0.01 -0.01,-0.02 0,-0.01 -0.01,-0.01 0,-0.01 0,-0.02 0,-0.01 -0.01,0 0,-0.01 0,-0.01 0,0 0,0 -0.01,-0.01 0,0 0,0 0,0 0,0 0,0 c -0.13,-0.22 -0.41,-0.59 -0.84,-0.59 -0.48,0 -0.48,0.45 -0.48,0.57 0,0.41 0.19,0.91 0.39,1.41 0.05,0.14 0.09,0.25 0.09,0.36 0,0.36 -0.3,0.6 -0.66,0.6 -0.69,0 -1.01,-0.96 -1.01,-1.07 0,-0.09 0.1,-0.09 0.12,-0.09 0.1,0 0.11,0.04 0.13,0.11 0.16,0.58 0.47,0.85 0.74,0.85 0.12,0 0.18,-0.07 0.18,-0.24 0,-0.16 -0.06,-0.31 -0.13,-0.47 -0.38,-0.96 -0.38,-1.16 -0.38,-1.35 0,-0.11 0,-0.43 0.26,-0.66 0.2,-0.16 0.47,-0.22 0.72,-0.22 0.44,0 0.68,0.24 0.9,0.46 0.16,-0.45 0.62,-0.46 0.71,-0.46 0.23,0 0.42,0.14 0.55,0.37 0.15,0.27 0.25,0.67 0.25,0.69 0,0.1 -0.1,0.1 -0.12,0.1 -0.1,0 -0.1,-0.03 -0.15,-0.22 -0.09,-0.33 -0.22,-0.74 -0.51,-0.74 -0.18,0 -0.23,0.16 -0.23,0.34 0,0.12 0.06,0.37 0.1,0.55 0.05,0.18 0.12,0.47 0.16,0.62 l 0.16,0.62 c 0.04,0.17 0.11,0.48 0.11,0.52 0,0.14 -0.11,0.22 -0.22,0.22 -0.26,0 -0.31,-0.2 -0.37,-0.43 z"
         id="path8478" /><path
         style="fill:#000000;stroke-width:0"
         inkscape:connector-curvature="0"
         d="m 268.24,658.36 -0.02,-0.01 -0.02,0 -0.01,-0.01 -0.02,0 -0.01,-0.01 -0.02,-0.01 -0.01,-0.01 -0.02,0 -0.01,-0.01 -0.01,-0.01 -0.01,-0.01 -0.02,-0.01 -0.01,-0.01 -0.01,-0.01 -0.01,-0.01 -0.01,-0.01 -0.01,-0.01 -0.01,-0.01 0,-0.02 -0.01,-0.01 -0.01,-0.01 0,-0.01 -0.01,-0.01 -0.01,-0.02 0,-0.01 0,-0.01 -0.01,-0.02 0,-0.01 0,-0.01 0,-0.01 -0.01,-0.02 0,-0.01 c 0,-0.16 0.14,-0.22 0.23,-0.22 0.07,0 0.34,0.04 0.34,0.39 0,0.46 -0.5,0.61 -0.93,0.61 -1.08,0 -1.28,-0.8 -1.28,-1.02 0,-0.26 0.15,-0.42 0.24,-0.51 0.19,-0.13 0.31,-0.16 0.79,-0.25 0.15,-0.02 0.59,-0.11 0.59,-0.45 0,-0.12 -0.07,-0.39 -0.37,-0.56 -0.27,-0.15 -0.61,-0.15 -0.69,-0.15 -0.28,0 -0.68,0.06 -0.84,0.29 0.23,0.03 0.38,0.2 0.38,0.39 0,0.18 -0.12,0.26 -0.27,0.26 -0.2,0 -0.4,-0.16 -0.4,-0.46 0,-0.42 0.44,-0.68 1.12,-0.68 1.28,0 1.52,0.88 1.52,1.15 0,0.64 -0.7,0.76 -0.96,0.81 -0.06,0.02 -0.24,0.04 -0.28,0.06 -0.26,0.05 -0.38,0.19 -0.38,0.35 0,0.16 0.12,0.34 0.27,0.44 0.19,0.12 0.44,0.13 0.56,0.13 0.14,0 0.5,-0.02 0.66,-0.25 z"
         id="path8480" /></g>    <g
       style="font-style:normal;font-variant:normal;font-weight:normal;font-stretch:normal;letter-spacing:normal;word-spacing:normal;text-anchor:start;fill:none;stroke:#000000;stroke-linecap:butt;stroke-linejoin:miter;stroke-miterlimit:10.43299961;stroke-opacity:1;stroke-dasharray:none;stroke-dashoffset:0"
       ns0:preamble=""
       ns0:text="$\\rho_{crystalline}$"
       word-spacing="normal"
       letter-spacing="normal"
       font-size-adjust="none"
       font-stretch="normal"
       font-weight="normal"
       font-variant="normal"
       font-style="normal"
       stroke-miterlimit="10.433"
       xml:space="preserve"
       transform="matrix(2.0344422,0,0,-2.0344422,-54.2929,2121.5608)"
       id="g8586"><path
         id="path8588"
         d="m 223.76,655.52 0,-0.01 0,0 0,-0.01 -0.01,-0.01 0,0 0,0 0,-0.01 0,0 0,-0.01 0,0 0,-0.01 0,0 0,-0.01 -0.01,0 0,-0.01 0,0 0,-0.01 0,-0.01 0,0 0,-0.01 0,0 -0.01,-0.01 0,0 0,0 0,-0.01 0,0 0,-0.01 0,0 0,0 0,0 0,-0.01 0,0 0,0 0,0 0,-0.01 0,0 c 0,-0.15 0.11,-0.27 0.28,-0.27 0.21,0 0.33,0.18 0.35,0.21 0.05,0.09 0.37,1.42 0.63,2.49 0.2,-0.4 0.52,-0.66 0.99,-0.66 l -0.01,0.21 c -0.7,0 -0.86,0.8 -0.86,0.89 0,0.04 0.05,0.24 0.08,0.37 0.28,1.11 0.38,1.47 0.6,1.86 0.43,0.73 0.92,0.95 1.23,0.95 0.37,0 0.69,-0.29 0.69,-0.98 0,-0.54 -0.29,-1.65 -0.56,-2.14 -0.33,-0.63 -0.8,-0.95 -1.18,-0.95 h 0 l 0.01,-0.21 c 1.16,0 2.45,1.4 2.45,2.88 0,1.05 -0.66,1.62 -1.39,1.62 -0.96,0 -2.01,-1 -2.3,-2.21 z"
         inkscape:connector-curvature="0"
         style="fill:#000000;stroke-width:0" /><path
         id="path8590"
         d="m 231.63,658.4 -0.02,0 -0.02,-0.01 -0.02,0 -0.02,-0.01 -0.02,-0.01 -0.02,0 -0.02,-0.01 -0.02,-0.01 -0.01,-0.01 -0.02,-0.01 -0.02,-0.01 -0.01,-0.02 -0.01,-0.01 -0.02,-0.01 -0.01,-0.01 -0.01,-0.02 -0.01,-0.01 -0.01,-0.02 -0.01,-0.01 -0.01,-0.02 0,-0.01 -0.01,-0.02 -0.01,-0.01 0,-0.02 -0.01,-0.01 0,-0.02 0,-0.01 -0.01,-0.02 0,-0.01 0,-0.02 0,-0.01 0,-0.01 c 0,-0.19 0.14,-0.26 0.27,-0.26 0.15,0 0.4,0.11 0.4,0.44 0,0.47 -0.55,0.61 -0.92,0.61 -1.05,0 -2.02,-0.96 -2.02,-1.93 0,-0.6 0.42,-1.21 1.29,-1.21 1.18,0 1.73,0.69 1.73,0.79 0,0.04 -0.06,0.12 -0.12,0.12 -0.04,0 -0.05,-0.02 -0.11,-0.07 -0.54,-0.64 -1.36,-0.64 -1.48,-0.64 -0.5,0 -0.73,0.34 -0.73,0.77 0,0.2 0.1,0.96 0.46,1.44 0.27,0.34 0.63,0.53 0.98,0.53 0.09,0 0.43,-0.01 0.6,-0.21 z"
         inkscape:connector-curvature="0"
         style="fill:#000000;stroke-width:0" /><path
         id="path8592"
         d="m 233.78,657.15 0,0 0,0 0,0.01 0,0 0,0.01 0.01,0 0,0.01 0,0.01 0,0 0,0.01 0.01,0.01 0,0.01 0,0.01 0,0.01 0.01,0.03 0.01,0.02 0,0.03 0.01,0.03 0.01,0.03 0,0.03 0.01,0.03 0.02,0.06 0.01,0.06 0.01,0.03 0.01,0.03 0.01,0.03 0,0.03 0.01,0.02 0.01,0.03 0,0.02 0.01,0.01 0,0.01 0,0.01 0,0.01 0.01,0.01 0,0.01 0,0.01 0,0 0.01,0.01 0,0 0,0.01 0,0 0,0.01 0,0 c 0.02,0.05 0.22,0.4 0.44,0.57 0.08,0.05 0.26,0.19 0.56,0.19 0.07,0 0.25,0 0.39,-0.09 -0.23,-0.07 -0.31,-0.26 -0.31,-0.39 0,-0.15 0.12,-0.25 0.28,-0.25 0.16,0 0.39,0.13 0.39,0.42 0,0.36 -0.38,0.51 -0.74,0.51 -0.36,0 -0.68,-0.15 -0.98,-0.5 -0.13,0.43 -0.55,0.5 -0.72,0.5 -0.26,0 -0.43,-0.16 -0.54,-0.36 -0.16,-0.27 -0.26,-0.67 -0.26,-0.71 0,-0.09 0.1,-0.09 0.12,-0.09 0.1,0 0.1,0.02 0.15,0.21 0.11,0.43 0.24,0.75 0.51,0.75 0.18,0 0.23,-0.15 0.23,-0.34 0,-0.13 -0.06,-0.39 -0.11,-0.57 -0.05,-0.19 -0.12,-0.48 -0.15,-0.63 l -0.23,-0.89 c -0.03,-0.09 -0.07,-0.27 -0.07,-0.29 0,-0.15 0.13,-0.22 0.24,-0.22 0.1,0 0.24,0.06 0.3,0.2 0.01,0.04 0.09,0.35 0.13,0.53 z"
         inkscape:connector-curvature="0"
         style="fill:#000000;stroke-width:0" /><path
         id="path8594"
         d="m 239.93,658.36 0,0.01 0,0 0,0.01 0,0 0.01,0 0,0.01 0,0.01 0,0 0,0.01 0,0.01 0.01,0 0,0.01 0,0 0,0.01 0,0 0,0.01 0,0 0,0.01 0,0 0.01,0 0,0.01 0,0 0,0 0,0.01 0,0.01 0,0 0,0.01 0,0 0,0.01 0,0 0,0.01 c 0,0.14 -0.11,0.22 -0.23,0.22 -0.08,0 -0.21,-0.04 -0.29,-0.17 -0.02,-0.04 -0.07,-0.26 -0.11,-0.4 l -0.15,-0.58 c -0.04,-0.17 -0.25,-1.04 -0.27,-1.12 -0.01,0 -0.32,-0.6 -0.86,-0.6 -0.47,0 -0.47,0.45 -0.47,0.57 0,0.38 0.16,0.82 0.37,1.35 0.08,0.23 0.11,0.31 0.11,0.43 0,0.33 -0.28,0.59 -0.66,0.59 -0.7,0 -1.02,-0.95 -1.02,-1.07 0,-0.09 0.1,-0.09 0.12,-0.09 0.1,0 0.11,0.04 0.13,0.11 0.17,0.58 0.47,0.85 0.75,0.85 0.12,0 0.17,-0.07 0.17,-0.24 0,-0.16 -0.06,-0.31 -0.09,-0.4 -0.34,-0.85 -0.41,-1.11 -0.41,-1.42 0,-0.11 0,-0.44 0.28,-0.66 0.21,-0.18 0.5,-0.22 0.69,-0.22 0.28,0 0.53,0.11 0.76,0.31 -0.09,-0.38 -0.17,-0.67 -0.46,-1.02 -0.19,-0.21 -0.47,-0.44 -0.83,-0.44 -0.05,0 -0.38,0 -0.53,0.23 0.38,0.04 0.38,0.37 0.38,0.38 0,0.22 -0.2,0.26 -0.27,0.26 -0.18,0 -0.41,-0.14 -0.41,-0.46 0,-0.35 0.34,-0.61 0.83,-0.61 0.71,0 1.56,0.54 1.78,1.41 z"
         inkscape:connector-curvature="0"
         style="fill:#000000;stroke-width:0" /><path
         id="path8596"
         d="m 243.35,658.36 -0.02,-0.01 -0.01,0 -0.02,-0.01 -0.01,0 -0.02,-0.01 -0.01,-0.01 -0.02,-0.01 -0.01,0 -0.01,-0.01 -0.02,-0.01 -0.01,-0.01 -0.01,-0.01 -0.01,-0.01 -0.01,-0.01 -0.01,-0.01 -0.01,-0.01 -0.01,-0.01 -0.01,-0.01 -0.01,-0.02 -0.01,-0.01 0,-0.01 -0.01,-0.01 -0.01,-0.01 0,-0.02 -0.01,-0.01 0,-0.01 0,-0.02 -0.01,-0.01 0,-0.01 0,-0.01 0,-0.02 0,-0.01 c 0,-0.16 0.14,-0.22 0.23,-0.22 0.07,0 0.33,0.04 0.33,0.39 0,0.46 -0.5,0.61 -0.92,0.61 -1.09,0 -1.29,-0.8 -1.29,-1.02 0,-0.26 0.15,-0.42 0.25,-0.51 0.18,-0.13 0.31,-0.16 0.79,-0.25 0.14,-0.02 0.59,-0.11 0.59,-0.45 0,-0.12 -0.08,-0.39 -0.37,-0.56 -0.27,-0.15 -0.61,-0.15 -0.7,-0.15 -0.28,0 -0.67,0.06 -0.83,0.29 0.23,0.03 0.38,0.2 0.38,0.39 0,0.18 -0.13,0.26 -0.27,0.26 -0.2,0 -0.41,-0.16 -0.41,-0.46 0,-0.42 0.45,-0.68 1.13,-0.68 1.28,0 1.51,0.88 1.51,1.15 0,0.64 -0.7,0.76 -0.96,0.81 -0.06,0.02 -0.23,0.04 -0.28,0.06 -0.25,0.05 -0.38,0.19 -0.38,0.35 0,0.16 0.13,0.34 0.28,0.44 0.19,0.12 0.43,0.13 0.55,0.13 0.15,0 0.51,-0.02 0.66,-0.25 z"
         inkscape:connector-curvature="0"
         style="fill:#000000;stroke-width:0" /><path
         id="path8598"
         d="m 245.82,658.49 h 0.71 c 0.14,0 0.23,0 0.23,0.15 0,0.1 -0.09,0.1 -0.21,0.1 h -0.66 l 0.25,1.03 c 0.01,0.03 0.02,0.07 0.02,0.09 0,0.13 -0.09,0.23 -0.23,0.23 -0.18,0 -0.28,-0.12 -0.33,-0.3 -0.05,-0.18 0.04,0.16 -0.26,-1.05 h -0.72 c -0.13,0 -0.22,0 -0.22,-0.15 0,-0.1 0.09,-0.1 0.21,-0.1 h 0.66 l -0.41,-1.64 c -0.04,-0.18 -0.1,-0.43 -0.1,-0.52 0,-0.41 0.35,-0.66 0.74,-0.66 0.78,0 1.21,0.98 1.21,1.06 0,0.1 -0.09,0.1 -0.11,0.1 -0.08,0 -0.09,-0.02 -0.14,-0.14 -0.2,-0.43 -0.55,-0.82 -0.94,-0.82 -0.14,0 -0.24,0.09 -0.24,0.34 0,0.07 0.03,0.21 0.04,0.28 z"
         inkscape:connector-curvature="0"
         style="fill:#000000;stroke-width:0" /><path
         id="path8600"
         d="m 250.06,658.4 -0.01,0.02 -0.02,0.02 -0.01,0.02 -0.02,0.02 -0.02,0.02 -0.01,0.02 -0.02,0.02 -0.02,0.02 -0.02,0.02 -0.01,0.01 -0.02,0.02 -0.02,0.02 -0.02,0.01 -0.03,0.02 -0.02,0.01 -0.02,0.02 -0.02,0.01 -0.02,0.01 -0.03,0.02 -0.02,0.01 -0.03,0.01 -0.02,0.01 -0.03,0.01 -0.03,0.01 -0.02,0 -0.03,0.01 -0.03,0 -0.03,0.01 -0.03,0 -0.03,0 -0.03,0.01 -0.03,0 v -0.2 c 0.49,0 0.62,-0.53 0.62,-0.6 0,-0.03 -0.01,-0.08 -0.02,-0.1 l -0.33,-1.3 c -0.05,-0.2 -0.2,-0.33 -0.35,-0.47 -0.06,-0.05 -0.34,-0.27 -0.64,-0.27 -0.26,0 -0.51,0.18 -0.51,0.67 0,0.37 0.2,1.13 0.36,1.41 0.32,0.56 0.68,0.66 0.87,0.66 v 0.2 c -0.89,0 -1.8,-0.98 -1.8,-1.98 0,-0.68 0.46,-1.16 1.06,-1.16 0.37,0 0.71,0.22 0.99,0.49 0.13,-0.42 0.53,-0.49 0.71,-0.49 0.25,0 0.43,0.15 0.55,0.37 0.16,0.27 0.25,0.67 0.25,0.69 0,0.1 -0.09,0.1 -0.11,0.1 -0.1,0 -0.11,-0.03 -0.16,-0.22 -0.08,-0.33 -0.21,-0.74 -0.51,-0.74 -0.18,0 -0.23,0.15 -0.23,0.34 0,0.12 0.06,0.37 0.11,0.55 0.05,0.18 0.12,0.47 0.15,0.62 l 0.14,0.53 c 0.04,0.18 0.13,0.51 0.13,0.54 0,0.16 -0.13,0.22 -0.24,0.22 -0.12,0 -0.28,-0.08 -0.32,-0.27 z"
         inkscape:connector-curvature="0"
         style="fill:#000000;stroke-width:0" /><path
         id="path8602"
         d="m 253.41,660.36 0,0 0,0 0,0 0,0 0,0 0,0 0,0.01 0,0 0,0 0,0 0,0.01 0,0 0,0 0.01,0.01 0,0 0,0.01 0,0 0,0.01 0,0.01 0,0 0,0.01 0.01,0 0,0 0,0.01 0,0 0,0.01 0,0 0,0 0,0.01 0,0 0,0 0,0 0,0 0,0 0,0.01 0,0 0,0 0,0 0,0 0,0 0,0 c 0,0.03 -0.02,0.1 -0.11,0.1 -0.14,0 -0.72,-0.06 -0.89,-0.07 -0.05,-0.01 -0.15,-0.02 -0.15,-0.16 0,-0.1 0.1,-0.1 0.18,-0.1 0.33,0 0.33,-0.05 0.33,-0.1 0,-0.05 -0.01,-0.1 -0.03,-0.16 l -0.86,-3.43 c -0.02,-0.07 -0.03,-0.15 -0.03,-0.22 0,-0.44 0.4,-0.66 0.73,-0.66 0.17,0 0.38,0.06 0.56,0.37 0.15,0.26 0.25,0.67 0.25,0.69 0,0.1 -0.09,0.1 -0.12,0.1 -0.09,0 -0.11,-0.05 -0.14,-0.17 -0.09,-0.35 -0.22,-0.79 -0.52,-0.79 -0.19,0 -0.23,0.17 -0.23,0.34 0,0.07 0.02,0.2 0.04,0.28 z"
         inkscape:connector-curvature="0"
         style="fill:#000000;stroke-width:0" /><path
         id="path8604"
         d="m 255.96,660.36 0,0 0,0 0,0 0,0 0,0 0,0 0,0.01 0,0 0,0 0.01,0 0,0.01 0,0 0,0 0,0.01 0,0 0,0.01 0,0 0,0.01 0.01,0.01 0,0 0,0.01 0,0 0,0 0,0.01 0,0 0,0.01 0,0 0.01,0 0,0.01 0,0 0,0 0,0 0,0 0,0 0,0.01 0,0 0,0 0,0 0,0 0,0 0,0 c 0,0.03 -0.03,0.1 -0.11,0.1 -0.14,0 -0.72,-0.06 -0.89,-0.07 -0.05,-0.01 -0.15,-0.02 -0.15,-0.16 0,-0.1 0.1,-0.1 0.17,-0.1 0.34,0 0.34,-0.05 0.34,-0.1 0,-0.05 -0.02,-0.1 -0.03,-0.16 l -0.86,-3.43 c -0.03,-0.07 -0.03,-0.15 -0.03,-0.22 0,-0.44 0.39,-0.66 0.73,-0.66 0.17,0 0.38,0.06 0.56,0.37 0.14,0.26 0.24,0.67 0.24,0.69 0,0.1 -0.09,0.1 -0.11,0.1 -0.1,0 -0.11,-0.05 -0.14,-0.17 -0.09,-0.35 -0.22,-0.79 -0.52,-0.79 -0.19,0 -0.24,0.17 -0.24,0.34 0,0.07 0.02,0.2 0.04,0.28 z"
         inkscape:connector-curvature="0"
         style="fill:#000000;stroke-width:0" /><path
         id="path8606"
         d="m 258.81,660.09 0,0.01 0,0.01 0,0.01 0,0.01 0,0.01 -0.01,0.01 0,0.01 0,0.02 -0.01,0.01 0,0.01 -0.01,0.01 0,0.01 -0.01,0.01 -0.01,0.01 0,0.01 -0.01,0.01 -0.01,0.01 -0.01,0.01 -0.01,0.01 -0.01,0.01 -0.01,0 -0.01,0.01 -0.02,0.01 -0.01,0.01 -0.01,0 -0.02,0.01 -0.01,0 -0.02,0 -0.01,0.01 -0.02,0 -0.02,0 -0.01,0 c -0.19,0 -0.4,-0.18 -0.4,-0.38 0,-0.12 0.1,-0.26 0.28,-0.26 0.21,0 0.39,0.19 0.39,0.38 z"
         inkscape:connector-curvature="0"
         style="fill:#000000;stroke-width:0" /><path
         id="path8608"
         d="m 257.39,656.55 0,-0.01 -0.01,-0.02 -0.01,-0.03 0,-0.02 -0.01,-0.02 0,-0.01 -0.01,-0.02 0,-0.02 -0.01,-0.02 0,-0.02 0,-0.01 0,-0.01 -0.01,-0.01 0,-0.01 0,-0.01 0,-0.02 0,-0.01 0,-0.01 0,-0.01 c 0,-0.32 0.28,-0.59 0.66,-0.59 0.7,0 1,0.96 1,1.06 0,0.1 -0.09,0.1 -0.11,0.1 -0.09,0 -0.1,-0.05 -0.13,-0.12 -0.16,-0.56 -0.46,-0.84 -0.74,-0.84 -0.14,0 -0.17,0.09 -0.17,0.24 0,0.16 0.05,0.29 0.11,0.44 0.07,0.19 0.15,0.38 0.22,0.56 0.07,0.17 0.32,0.8 0.35,0.88 0.02,0.07 0.04,0.16 0.04,0.23 0,0.32 -0.28,0.59 -0.67,0.59 -0.69,0 -1,-0.95 -1,-1.07 0,-0.09 0.09,-0.09 0.11,-0.09 0.1,0 0.11,0.04 0.13,0.11 0.18,0.6 0.49,0.85 0.74,0.85 0.11,0 0.18,-0.05 0.18,-0.24 0,-0.16 -0.04,-0.27 -0.22,-0.7 z"
         inkscape:connector-curvature="0"
         style="fill:#000000;stroke-width:0" /><path
         id="path8610"
         d="m 260.23,656.18 -0.01,-0.01 0,-0.01 0,-0.01 -0.01,-0.01 0,-0.01 0,-0.01 0,-0.01 -0.01,-0.01 0,-0.02 -0.01,-0.03 0,-0.02 -0.01,-0.02 0,-0.01 0,-0.01 -0.01,-0.01 0,-0.01 0,-0.01 0,-0.01 -0.01,-0.01 0,-0.01 0,0 0,-0.01 0,-0.01 0,0 0,-0.01 0,0 0,0 0,0 0,0 0,-0.01 c 0,-0.15 0.12,-0.22 0.23,-0.22 0.13,0 0.24,0.09 0.28,0.15 0.03,0.07 0.09,0.29 0.12,0.44 0.04,0.13 0.11,0.45 0.15,0.62 0.04,0.15 0.09,0.31 0.12,0.47 0.08,0.28 0.09,0.34 0.29,0.62 0.2,0.28 0.53,0.64 1.05,0.64 0.4,0 0.41,-0.35 0.41,-0.48 0,-0.42 -0.3,-1.19 -0.41,-1.48 -0.08,-0.2 -0.11,-0.26 -0.11,-0.38 0,-0.37 0.31,-0.6 0.67,-0.6 0.69,0 1,0.96 1,1.06 0,0.1 -0.09,0.1 -0.11,0.1 -0.1,0 -0.11,-0.05 -0.14,-0.12 -0.16,-0.56 -0.45,-0.84 -0.73,-0.84 -0.15,0 -0.18,0.09 -0.18,0.24 0,0.16 0.04,0.25 0.16,0.56 0.09,0.22 0.37,0.95 0.37,1.35 0,0.67 -0.53,0.79 -0.9,0.79 -0.58,0 -0.97,-0.36 -1.18,-0.64 -0.05,0.49 -0.46,0.64 -0.74,0.64 -0.31,0 -0.46,-0.22 -0.56,-0.38 -0.15,-0.26 -0.25,-0.65 -0.25,-0.69 0,-0.09 0.1,-0.09 0.12,-0.09 0.1,0 0.11,0.02 0.16,0.21 0.1,0.41 0.23,0.75 0.5,0.75 0.19,0 0.23,-0.15 0.23,-0.34 0,-0.13 -0.06,-0.39 -0.11,-0.57 -0.05,-0.19 -0.12,-0.48 -0.15,-0.63 z"
         inkscape:connector-curvature="0"
         style="fill:#000000;stroke-width:0" /><path
         id="path8612"
         d="m 265.86,657.33 0.02,0 0.02,0 0.02,0 0.03,0 0.03,0 0.02,0 0.03,0 0.04,0 0.03,0 0.03,0 0.04,0.01 0.03,0 0.04,0 0.04,0 0.07,0.01 0.08,0.01 0.08,0.01 0.08,0.01 0.09,0.01 0.08,0.02 0.04,0.01 0.03,0.01 0.04,0.01 0.04,0.01 0.04,0.01 0.03,0.01 c 0.52,0.18 0.62,0.52 0.62,0.73 0,0.38 -0.39,0.61 -0.87,0.61 v -0.2 c 0.31,0 0.57,-0.15 0.57,-0.41 0,-0.68 -1.18,-0.68 -1.48,-0.68 h -0.34 c 0.28,1.01 1.06,1.09 1.25,1.09 v 0.2 c -0.83,0 -1.96,-0.64 -1.96,-1.83 0,-0.7 0.44,-1.31 1.25,-1.31 1.18,0 1.73,0.69 1.73,0.79 0,0.04 -0.06,0.12 -0.12,0.12 -0.04,0 -0.05,-0.02 -0.11,-0.07 -0.54,-0.64 -1.36,-0.64 -1.48,-0.64 -0.42,0 -0.7,0.27 -0.7,0.84 0,0.09 0,0.23 0.08,0.62 z"
         inkscape:connector-curvature="0"
         style="fill:#000000;stroke-width:0" /></g>    <text
       xml:space="preserve"
       style="font-size:16px;font-style:normal;font-variant:normal;font-weight:500;font-stretch:normal;text-align:start;line-height:100%;letter-spacing:0px;word-spacing:0px;writing-mode:lr-tb;text-anchor:start;fill:#000000;fill-opacity:1;stroke:none;font-family:Rekha;-inkscape-font-specification:Rekha Medium"
       x="196.97165"
       y="956.04724"
       id="text8655"
       sodipodi:linespacing="100%"><tspan
         sodipodi:role="line"
         id="tspan8657"
         x="196.97165"
         y="956.04724"
         style="font-size:20px">% crystallinity</tspan></text>
  </g>
</svg>
