<?xml version="1.0" encoding="UTF-8" standalone="no"?>
<!-- Created with Inkscape (http://www.inkscape.org/) -->

<svg
   xmlns:dc="http://purl.org/dc/elements/1.1/"
   xmlns:cc="http://creativecommons.org/ns#"
   xmlns:rdf="http://www.w3.org/1999/02/22-rdf-syntax-ns#"
   xmlns:svg="http://www.w3.org/2000/svg"
   xmlns="http://www.w3.org/2000/svg"
   xmlns:sodipodi="http://sodipodi.sourceforge.net/DTD/sodipodi-0.dtd"
   xmlns:inkscape="http://www.inkscape.org/namespaces/inkscape"
   id="svg2"
   version="1.1"
   inkscape:version="0.48.4 r9939"
   width="450"
   height="450"
   xml:space="preserve"
   sodipodi:docname="Short_Term_Viscoelastic.pdf"><metadata
     id="metadata8"><rdf:RDF><cc:Work
         rdf:about=""><dc:format>image/svg+xml</dc:format><dc:type
           rdf:resource="http://purl.org/dc/dcmitype/StillImage" /><dc:title></dc:title></cc:Work></rdf:RDF></metadata><defs
     id="defs6"><clipPath
       clipPathUnits="userSpaceOnUse"
       id="clipPath40"><path
         d="m 467.5,3258.33 0,-2792.498 2793.33,0 0,2792.498 -2793.33,0 z"
         id="path42" /></clipPath></defs><sodipodi:namedview
     pagecolor="#ffffff"
     bordercolor="#666666"
     borderopacity="1"
     objecttolerance="10"
     gridtolerance="10"
     guidetolerance="10"
     inkscape:pageopacity="0"
     inkscape:pageshadow="2"
     inkscape:window-width="1920"
     inkscape:window-height="1028"
     id="namedview4"
     showgrid="false"
     inkscape:zoom="2.0977778"
     inkscape:cx="313.137"
     inkscape:cy="252.15493"
     inkscape:window-x="1280"
     inkscape:window-y="0"
     inkscape:window-maximized="1"
     inkscape:current-layer="g10" /><g
     id="g10"
     inkscape:groupmode="layer"
     inkscape:label="Short_Term_Viscoelastic"
     transform="matrix(1.25,0,0,-1.25,0,450)"><g
       id="g12"
       transform="scale(0.1,0.1)"><path
         d="m 467.5,466.668 0,2791.662 2792.5,0 0,-2791.662 -2792.5,0"
         style="fill:none;stroke:#ffffff;stroke-opacity:1;stroke-width:5;stroke-linecap:butt;stroke-linejoin:round;stroke-miterlimit:10;stroke-dasharray:none"
         id="path14" /><path
         d="m 467.5,466.668 2792.5,0"
         style="fill:none;stroke:#000000;stroke-opacity:1;stroke-width:5;stroke-linecap:butt;stroke-linejoin:round;stroke-miterlimit:10;stroke-dasharray:none"
         id="path16" /><path
         d="m 467.5,3258.33 2792.5,0"
         style="fill:none;stroke:#000000;stroke-opacity:1;stroke-width:5;stroke-linecap:butt;stroke-linejoin:round;stroke-miterlimit:10;stroke-dasharray:none"
         id="path18" /><path
         d="m 467.5,466.668 0,2791.662"
         style="fill:none;stroke:#000000;stroke-opacity:1;stroke-width:5;stroke-linecap:butt;stroke-linejoin:round;stroke-miterlimit:10;stroke-dasharray:none"
         id="path20" /><path
         d="m 3260,466.668 0,2791.662"
         style="fill:none;stroke:#000000;stroke-opacity:1;stroke-width:5;stroke-linecap:butt;stroke-linejoin:round;stroke-miterlimit:10;stroke-dasharray:none"
         id="path22" /><path
         d="m 467.5,466.668 2792.5,0"
         style="fill:none;stroke:#000000;stroke-opacity:1;stroke-width:5;stroke-linecap:butt;stroke-linejoin:round;stroke-miterlimit:10;stroke-dasharray:none"
         id="path24" /><path
         d="m 467.5,466.668 0,2791.662"
         style="fill:none;stroke:#000000;stroke-opacity:1;stroke-width:5;stroke-linecap:butt;stroke-linejoin:round;stroke-miterlimit:10;stroke-dasharray:none"
         id="path26" /><path
         d="m 467.5,466.668 2792.5,0"
         style="fill:none;stroke:#000000;stroke-opacity:1;stroke-width:5;stroke-linecap:butt;stroke-linejoin:round;stroke-miterlimit:10;stroke-dasharray:none"
         id="path28" /><path
         d="m 467.5,3258.33 2792.5,0"
         style="fill:none;stroke:#000000;stroke-opacity:1;stroke-width:5;stroke-linecap:butt;stroke-linejoin:round;stroke-miterlimit:10;stroke-dasharray:none"
         id="path30" /><path
         d="m 467.5,466.668 0,2791.662"
         style="fill:none;stroke:#000000;stroke-opacity:1;stroke-width:5;stroke-linecap:butt;stroke-linejoin:round;stroke-miterlimit:10;stroke-dasharray:none"
         id="path32" /><path
         d="m 3260,466.668 0,2791.662"
         style="fill:none;stroke:#000000;stroke-opacity:1;stroke-width:5;stroke-linecap:butt;stroke-linejoin:round;stroke-miterlimit:10;stroke-dasharray:none"
         id="path34" /><g
         id="g36"><g
           id="g38"
           clip-path="url(#clipPath40)"><path
             d="m 467.5,745.832 2792.5,0"
             style="fill:none;stroke:#000000;stroke-opacity:1;stroke-width:20;stroke-linecap:butt;stroke-linejoin:round;stroke-miterlimit:10;stroke-dasharray:none"
             id="path44" /><path
             d="m 2247.5,920 0,9.168 -0.83,0.832 0,4.168 -0.84,1.664 0,1.668 -0.83,1.668 0,1.664 -0.83,1.668 0,1.668 -0.84,1.664 0,0.836 -0.83,0.832 0,0.832 -0.83,1.668 0,0.832 -0.84,0.836 0,1.664 -0.83,0.836 0,0.832 -0.83,1.668 0,0.832 -0.84,0.832 -0.83,0.836 0,1.664 -0.83,0.836 -0.84,0.832 0,0.832 -0.83,1.668 -0.83,0.832 -0.84,0.836 0,1.664 -0.83,0.836 -0.83,0.832 -0.84,0.832 -0.83,1.668 -0.83,0.832 0,0.836 -0.84,0.832 -0.83,1.668 -0.83,0.832 -0.84,0.832 -0.83,0.836 -0.83,1.664 -0.84,0.836 -0.83,0.832 -0.83,0.832 -0.84,1.668 -0.83,0.832 -0.83,0.836 -1.67,0.832 -0.83,0.832 -0.84,1.668 -0.83,0.832 -0.83,0.836 -0.84,0.832 -1.66,0.832 -0.84,1.668 -0.83,0.832 -0.83,0.836 -1.67,0.832 -0.83,0.832 -0.84,1.668 -1.66,0.83 -0.84,0.84 -0.83,0.83 -1.67,0.83 -0.83,0.84 -0.83,0.83 -1.67,1.67 -0.83,0.83 -1.67,0.83 -0.83,0.84 -1.67,0.83 -0.83,0.83 -1.67,0.84 -0.83,1.66 -1.67,0.84 -0.83,0.83 -1.67,0.83 -0.83,0.84 -1.67,0.83 -1.67,0.83 -0.83,0.84 -1.67,0.83 -1.66,0.83 -0.84,0.84 -1.66,1.66 -1.67,0.84 -0.83,0.83 -1.67,0.83 -1.67,0.84 -1.66,0.83 -1.67,0.83 -0.83,0.84 -1.67,0.83 -1.67,0.83 -1.66,0.84 -1.67,0.83 -1.67,0.83 -0.83,0.84 -1.67,0.83 -1.66,0.83 -1.67,0.84 -1.67,0.83 -1.66,0.83 -1.67,0.84 -1.67,0.83 -1.66,0.83 -1.67,0.84 -1.67,0.83 -1.66,0.83 -1.67,0.84 -1.67,0 -1.66,0.83 -1.67,0.83 -1.67,0.84 -1.66,0.83 -2.5,0.83 -1.67,0.84 -1.67,0.83 -1.66,0.83 -1.67,0.84 -1.67,0 -2.5,0.83 -1.66,0.83 -1.67,0.84 -1.67,0.83 -1.66,0.83 -2.5,0 -1.67,0.84 -1.67,0.83 -2.5,0.83 -1.66,0.84 -1.67,0.83 -1.67,0 -2.5,0.83 -1.66,0.84 -1.67,0.83 -2.5,0 -1.67,0.83 -2.5,0.84 -1.66,0.83 -1.67,0 -2.5,0.83 -1.67,0.84 -2.5,0.83 -1.66,0 -2.5,0.83 -1.67,0.84 -1.67,0 -2.5,0.83 -1.66,0.83 -2.5,0 -1.67,0.84 -2.5,0.83 -1.67,0 -2.5,0.83 -2.5,0.84 -1.66,0 -2.5,0.83 -1.67,0 -2.5,0.83 -1.67,0.84 -2.5,0 -2.5,0.83 -1.66,0 -2.5,0.83 -1.67,0 -2.5,0.84 -2.5,0.83 -1.67,0 -2.5,0.83 -2.5,0 -1.66,0.84 -2.5,0 -2.5,0.83 -1.67,0 -2.5,0.83 -2.5,0 -2.5,0.84 -4.17,0 -2.5,0.83 -1.66,0 -2.5,0.83 -2.5,0 -2.5,0.84 -4.17,0 -2.5,0.83 -2.5,0 -2.5,0.83 -4.17,0 -2.5,0.84 -5,0 -1.66,0.83 -7.5,0 -2.5,0.83 -4.17,0 -2.5,0.84 -7.5,0 -2.5,0.83 -9.17,0 -2.5,0.83 -11.66,0 -2.5,0.84 -19.17,0 -2.5,0.83 -35.83,0 -2.5,-0.83 -21.67,0 -2.5,-0.84 -12.5,0 -1.67,-0.83 -7.5,0 -2.5,-0.83 -6.66,0 -2.5,-0.84 -7.5,0 -2.5,-0.83 -4.17,0 -2.5,-0.83 -5,0 -1.67,-0.84 -5,0 -2.5,-0.83 -4.16,0 -2.5,-0.83 -2.5,0 -2.5,-0.84 -4.17,0 -2.5,-0.83 -2.5,0 -1.67,-0.83 -2.5,0 -2.5,-0.84 -2.5,0 -1.66,-0.83 -2.5,0 -2.5,-0.83 -1.67,0 -2.5,-0.84 -2.5,0 -1.67,-0.83 -2.5,0 -2.5,-0.83 -1.66,0 -2.5,-0.84 -1.67,0 -2.5,-0.83 -2.5,0 -1.67,-0.83 -2.5,-0.84 -1.66,0 -2.5,-0.83 -2.5,0 -1.67,-0.83 -2.5,-0.84 -1.67,0 -2.5,-0.83 -1.66,-0.83 -2.5,0 -1.67,-0.84 -2.5,-0.83 -1.67,0 -2.5,-0.83 -1.66,-0.84 -2.5,0 -1.67,-0.83 -2.5,-0.83 -1.67,-0.84 -1.66,0 -2.5,-0.83 -1.67,-0.83 -2.5,0 -1.67,-0.84 -1.66,-0.83 -2.5,-0.83 -1.67,-0.84 -1.67,0 -2.5,-0.83 -1.66,-0.83 -1.67,-0.84 -2.5,0 -1.67,-0.83 -1.66,-0.83 -1.67,-0.84 -2.5,-0.83 -1.67,-0.83 -1.66,0 -1.67,-0.84 -2.5,-0.83 -1.67,-0.83 -1.66,-0.84 -1.67,-0.83 -1.67,-0.83 -1.66,-0.84 -1.67,0 -2.5,-0.83 -1.67,-0.83 -1.66,-0.84 -1.67,-0.83 -1.67,-0.83 -1.66,-0.84 -1.67,-0.83 -1.67,-0.83 -1.66,-0.84 -1.67,-0.83 -1.67,-0.83 -1.66,-0.84 -1.67,-0.83 -1.67,-0.83 -1.66,-0.84 -1.67,-0.83 -1.67,-0.83 -1.66,-0.84 -0.84,-0.83 -1.66,-0.83 -1.67,-0.84 -1.67,-0.83 -1.66,-0.83 -1.67,-0.84 -0.83,-0.83 -1.67,-0.83 -1.67,-0.84 -1.66,-0.83 -0.84,-0.83 -1.66,-0.84 -1.67,-0.83 -1.67,-0.83 -0.83,-0.84 -1.67,-0.83 -1.66,-0.83 -0.84,-0.84 -1.66,-0.83 -0.84,-1.67 -1.66,-0.83 -0.84,-0.83 -1.66,-0.84 -1.67,-0.83 -0.83,-0.83 -1.67,-0.84 -0.83,-0.83 -1.67,-1.67 -0.83,-0.83 -0.84,-0.83 -1.66,-0.84 -0.84,-0.83 -1.66,-0.83 -0.84,-0.84 -0.83,-1.66 -1.67,-0.84 -0.83,-0.83 -0.83,-0.832 -1.67,-0.836 -0.83,-0.832 -0.84,-1.668 -1.66,-0.832 -0.84,-0.832 -0.83,-0.836 -0.83,-0.832 -0.84,-1.668 -1.66,-0.832 -0.84,-0.832 -0.83,-0.836 -0.83,-0.832 -0.84,-1.668 -0.83,-0.832 -0.83,-0.832 -0.84,-0.836 -0.83,-1.664 -0.83,-0.836 -0.84,-0.832 -0.83,-0.832 -0.83,-0.836 -0.84,-1.664 -0.83,-0.836 -0.83,-0.832 -0.84,-0.832 -0.83,-1.668 -0.83,-0.832 -0.84,-0.836 0,-1.664 -0.83,-0.836 -0.83,-0.832 -0.84,-0.832 -0.83,-1.668 0,-0.832 -0.83,-0.836 -0.84,-0.832 0,-1.668 -0.83,-0.832 -0.83,-0.832 0,-1.668 -0.84,-0.832 -0.83,-0.836 0,-0.832 -0.83,-1.668 0,-0.832 -0.84,-0.832 0,-1.668 -0.83,-0.832 0,-0.836 -0.83,-0.832 0,-1.668 -0.84,-0.832 0,-2.5 -0.83,-0.832 0,-2.5 -0.83,-0.836 0,-3.332 -0.84,-0.832 0,-4.168 -0.83,-1.668 0,-15.832 0.83,-1.668 0,-4.164 0.84,-0.836 0,-3.332 0.83,-1.668 0,-1.664 0.83,-1.668 0,-1.668 0.84,-0.832 0,-1.668 0.83,-0.832 0,-0.832 0.83,-1.668 0,-0.832 0.84,-0.836 0,-1.664 0.83,-0.836 0,-0.832 0.83,-0.832 0.84,-1.668 0,-0.832 0.83,-0.836 0.83,-1.664 0,-0.836 0.84,-0.832 0.83,-0.832 0,-1.668 0.83,-0.832 0.84,-0.836 0.83,-0.832 0.83,-1.668 0,-0.832 0.84,-0.832 0.83,-1.668 0.83,-0.832 0.84,-0.836 0.83,-0.832 0.83,-1.668 0.84,-0.832 0.83,-0.832 0.83,-0.836 0.84,-0.832 0.83,-1.668 0.83,-0.832 0.84,-0.832 0.83,-0.836 0.83,-1.664 0.84,-0.836 0.83,-0.832 0.83,-0.832 0.84,-0.836 1.66,-1.664 0.84,-0.836 0.83,-0.832 0.83,-0.832 0.84,-0.836 1.66,-1.664 0.84,-0.836 0.83,-0.832 1.67,-0.832 0.83,-0.836 0.83,-1.664 1.67,-0.836 0.83,-0.832 0.84,-0.832 1.66,-0.836 0.84,-0.832 1.66,-0.832 0.84,-1.668 0.83,-0.832 1.67,-0.836 0.83,-0.832 1.67,-0.832 0.83,-0.836 1.67,-0.832 1.66,-0.832 0.84,-1.668 1.66,-0.832 0.84,-0.836 1.66,-0.832 0.84,-0.832 1.66,-0.836 1.67,-0.832 0.83,-0.832 1.67,-0.836 1.67,-0.832 1.66,-0.832 0.84,-0.836 1.66,-0.832 1.67,-1.668 1.67,-0.832 0.83,-0.832 1.67,-0.836 1.66,-0.832 1.67,-0.832 1.67,-0.836 1.66,-0.832 0.84,-0.832 1.66,-0.836 1.67,-0.832 1.67,-0.832 1.66,-0.836 1.67,-0.832 1.67,-0.832 1.66,-0.836 1.67,-0.832 1.67,0 1.66,-0.832 1.67,-0.836 1.67,-0.832 1.66,-0.832 1.67,-0.836 1.67,-0.832 1.66,-0.832 1.67,-0.836 2.5,-0.832 1.67,-0.832 1.66,-0.836 1.67,0 1.67,-0.832 1.66,-0.832 1.67,-0.836 2.5,-0.832 1.67,-0.832 1.66,-0.836 1.67,0 2.5,-0.832 1.67,-0.832 1.66,-0.836 1.67,-0.832 2.5,-0.832 1.67,0 1.66,-0.836 2.5,-0.832 1.67,-0.832 1.67,-0.836 2.5,0 1.66,-0.832 1.67,-0.832 2.5,-0.836 1.67,0 2.5,-0.832 1.66,-0.832 1.67,0 2.5,-0.836 1.67,-0.832 2.5,-0.832 1.66,0 2.5,-0.836 1.67,-0.832 2.5,0 1.67,-0.832 2.5,-0.836 1.66,0 2.5,-0.832 1.67,-0.832 2.5,0 1.67,-0.836 2.5,0 2.5,-0.832 1.66,-0.832 2.5,0 1.67,-0.836 2.5,0 2.5,-0.832 1.67,0 2.5,-0.832 1.66,-0.836 2.5,0 2.5,-0.832 1.67,0 2.5,-0.832 2.5,0 1.67,-0.836 2.5,0 2.5,-0.832 1.66,0 2.5,-0.832 5,0 1.67,-0.836 2.5,0 2.5,-0.832 2.5,0 1.67,-0.832 5,0 2.5,-0.836 1.66,0 2.5,-0.832 5,0 2.5,-0.832 4.17,0 2.5,-0.836 5,0 1.67,-0.832 7.5,0 2.5,-0.832 6.66,0 2.5,-0.836 7.5,0 2.5,-0.832 11.67,0 2.5,-0.832 16.67,0 2.5,-0.836 50.83,0 2.5,0.836 16.67,0 2.5,0.832 9.16,0 2.5,0.832 9.17,0 2.5,0.836 7.5,0 2.5,0.832 4.17,0 2.5,0.832 5,0 1.66,0.836 5,0 2.5,0.832 4.17,0 2.5,0.832 5,0 2.5,0.836 1.67,0 2.5,0.832 5,0 1.66,0.832 2.5,0 2.5,0.836 1.67,0 2.5,0.832 2.5,0 2.5,0.832 1.67,0 2.5,0.836 2.5,0 1.66,0.832 2.5,0 2.5,0.832 1.67,0 2.5,0.836 2.5,0 1.67,0.832 2.5,0 1.66,0.832 2.5,0.836 2.5,0 1.67,0.832 2.5,0 1.67,0.832 2.5,0.836 1.66,0 2.5,0.832 2.5,0 1.67,0.832 2.5,0.836 1.67,0 2.5,0.832 1.66,0.832 2.5,0 1.67,0.836 1.67,0.832 2.5,0 1.66,0.832 2.5,0.836 1.67,0.832 2.5,0 1.67,0.832 1.66,0.836 2.5,0.832 1.67,0 2.5,0.832 1.67,0.836 1.66,0.832 2.5,0 1.67,0.832 1.67,0.836 1.66,0.832 2.5,0.832 1.67,0 1.67,0.836 2.5,0.832 1.66,0.832 1.67,0.836 1.67,0.832 1.66,0 2.5,0.832 1.67,0.836 1.67,0.832 1.66,0.832 1.67,0.836 1.67,0.832 2.5,0.832 1.66,0.836 1.67,0 1.67,0.832 1.66,0.832 1.67,0.836 1.67,0.832 1.66,0.832 1.67,0.836 1.67,0.832 1.66,0.832 1.67,0.836 1.67,0.832 1.66,0.832 1.67,0.836 1.67,0.832 1.66,0.832 1.67,0.836 0.83,0.832 1.67,0.832 1.67,0.836 1.66,0.832 1.67,0.832 1.67,0.836 0.83,0.832 1.67,0.832 1.66,0.836 1.67,0.832 1.67,0.832 0.83,0.836 1.67,0.832 1.66,0.832 0.84,0.836 1.66,0.832 1.67,0.832 0.83,1.668 1.67,0.832 1.67,0.836 0.83,0.832 1.67,0.832 0.83,0.836 1.67,0.832 0.83,0.832 1.67,0.836 0.83,1.664 1.67,0.836 0.83,0.832 1.67,0.832 0.83,0.836 1.67,0.832 0.83,0.832 0.83,1.668 1.67,0.832 0.83,0.836 0.84,0.832 1.66,0.832 0.84,0.836 0.83,1.664 1.67,0.836 0.83,0.832 0.83,0.832 0.84,0.836 1.66,1.664 0.84,0.836 0.83,0.832 0.83,0.832 0.84,0.836 0.83,1.664 1.67,0.836 0.83,0.832 0.83,0.832 0.84,0.836 0.83,1.664 0.83,0.836 0.84,0.832 0.83,0.832 0.83,1.668 0.84,0.832 0.83,0.836 0.83,0.832 0.84,1.668 0,0.832 0.83,0.832 0.83,0.836 0.84,1.664 0.83,0.836 0.83,0.832 0,0.832 0.84,1.668 0.83,0.832 0.83,0.836 0,1.664 0.84,0.836 0.83,0.832 0,0.832 0.83,1.668 0.84,0.832 0,0.836 0.83,1.664 0,0.836 0.83,0.832 0,0.832 0.84,1.668 0,0.832 0.83,0.836 0,1.664 0.83,0.836 0,0.832 0.84,0.832 0,2.5 0.83,0.836 0,2.5 0.83,0.832 0,2.5 0.84,0.832 0,5 0.83,0.836 0,8.332"
             style="fill:#ff0000;fill-opacity:1;fill-rule:evenodd;stroke:none"
             id="path46" /><path
             d="m 2176.67,819.168 1.66,0.832 1.67,0.832 0.83,1.668 1.67,0.832 1.67,0.836 0.83,0.832 1.67,0.832 0.83,0.836 1.67,0.832 0.83,0.832 1.67,0.836 0.83,1.664 1.67,0.836 0.83,0.832 1.67,0.832 0.83,0.836 1.67,0.832 0.83,0.832 0.83,1.668 1.67,0.832 0.83,0.836 0.84,0.832 1.66,0.832 0.84,0.836 0.83,1.664 1.67,0.836 0.83,0.832 0.83,0.832 0.84,0.836 1.66,1.664 0.84,0.836 0.83,0.832 0.83,0.832 0.84,0.836 0.83,1.664 1.67,0.836 0.83,0.832 0.83,0.832 0.84,0.836 0.83,1.664 0.83,0.836 0.84,0.832 0.83,0.832 0.83,1.668 0.84,0.832 0.83,0.836 0.83,0.832 0.84,1.668 0,0.832 0.83,0.832 0.83,0.836 0.84,1.664 0.83,0.836 0.83,0.832 0,0.832 0.84,1.668 0.83,0.832 0.83,0.836 0,1.664 0.84,0.836 0.83,0.832 0,0.832 0.83,1.668 0.84,0.832 0,0.836 0.83,1.664 0,0.836 0.83,0.832 0,0.832 0.84,1.668 0,0.832 0.83,0.836 0,1.664 0.83,0.836 0,0.832 0.84,0.832 0,2.5 0.83,0.836 0,2.5 0.83,0.832 0,2.5 0.84,0.832 0,5 0.83,0.836 0,8.332"
             style="fill:none;stroke:#000000;stroke-opacity:1;stroke-width:5;stroke-linecap:butt;stroke-linejoin:round;stroke-miterlimit:10;stroke-dasharray:none"
             id="path48" /><path
             d="m 1989.17,755 1.66,0.832 2.5,0 2.5,0.836 1.67,0 2.5,0.832 2.5,0 2.5,0.832 1.67,0 2.5,0.836 2.5,0 1.66,0.832 2.5,0 2.5,0.832 1.67,0 2.5,0.836 2.5,0 1.67,0.832 2.5,0 1.66,0.832 2.5,0.836 2.5,0 1.67,0.832 2.5,0 1.67,0.832 2.5,0.836 1.66,0 2.5,0.832 2.5,0 1.67,0.832 2.5,0.836 1.67,0 2.5,0.832 1.66,0.832 2.5,0 1.67,0.836 1.67,0.832 2.5,0 1.66,0.832 2.5,0.836 1.67,0.832 2.5,0 1.67,0.832 1.66,0.836 2.5,0.832 1.67,0 2.5,0.832 1.67,0.836 1.66,0.832 2.5,0 1.67,0.832 1.67,0.836 1.66,0.832 2.5,0.832 1.67,0 1.67,0.836 2.5,0.832 1.66,0.832 1.67,0.836 1.67,0.832 1.66,0 2.5,0.832 1.67,0.836 1.67,0.832 1.66,0.832 1.67,0.836 1.67,0.832 2.5,0.832 1.66,0.836 1.67,0 1.67,0.832 1.66,0.832 1.67,0.836 1.67,0.832 1.66,0.832 1.67,0.836 1.67,0.832 1.66,0.832 1.67,0.836 1.67,0.832 1.66,0.832 1.67,0.836 1.67,0.832 1.66,0.832 1.67,0.836 0.83,0.832 1.67,0.832 1.67,0.836 1.66,0.832 1.67,0.832 1.67,0.836 0.83,0.832 1.67,0.832 1.66,0.836 1.67,0.832 1.67,0.832 0.83,0.836 1.67,0.832 1.66,0.832 0.84,0.836"
             style="fill:none;stroke:#000000;stroke-opacity:1;stroke-width:5;stroke-linecap:butt;stroke-linejoin:round;stroke-miterlimit:10;stroke-dasharray:none"
             id="path50" /><path
             d="m 1753.33,753.332 2.5,-0.832 5,0 2.5,-0.832 4.17,0 2.5,-0.836 5,0 1.67,-0.832 7.5,0 2.5,-0.832 6.66,0 2.5,-0.836 7.5,0 2.5,-0.832 11.67,0 2.5,-0.832 16.67,0 2.5,-0.836 50.83,0 2.5,0.836 16.67,0 2.5,0.832 9.16,0 2.5,0.832 9.17,0 2.5,0.836 7.5,0 2.5,0.832 4.17,0 2.5,0.832 5,0 1.66,0.836 5,0 2.5,0.832 4.17,0 2.5,0.832 5,0 2.5,0.836 1.67,0 2.5,0.832 5,0"
             style="fill:none;stroke:#000000;stroke-opacity:1;stroke-width:5;stroke-linecap:butt;stroke-linejoin:round;stroke-miterlimit:10;stroke-dasharray:none"
             id="path52" /><path
             d="m 1560,813.332 1.67,-0.832 0.83,-0.832 1.67,-0.836 1.66,-0.832 1.67,-0.832 1.67,-0.836 1.66,-0.832 0.84,-0.832 1.66,-0.836 1.67,-0.832 1.67,-0.832 1.66,-0.836 1.67,-0.832 1.67,-0.832 1.66,-0.836 1.67,-0.832 1.67,0 1.66,-0.832 1.67,-0.836 1.67,-0.832 1.66,-0.832 1.67,-0.836 1.67,-0.832 1.66,-0.832 1.67,-0.836 2.5,-0.832 1.67,-0.832 1.66,-0.836 1.67,0 1.67,-0.832 1.66,-0.832 1.67,-0.836 2.5,-0.832 1.67,-0.832 1.66,-0.836 1.67,0 2.5,-0.832 1.67,-0.832 1.66,-0.836 1.67,-0.832 2.5,-0.832 1.67,0 1.66,-0.836 2.5,-0.832 1.67,-0.832 1.67,-0.836 2.5,0 1.66,-0.832 1.67,-0.832 2.5,-0.836 1.67,0 2.5,-0.832 1.66,-0.832 1.67,0 2.5,-0.836 1.67,-0.832 2.5,-0.832 1.66,0 2.5,-0.836 1.67,-0.832 2.5,0 1.67,-0.832 2.5,-0.836 1.66,0 2.5,-0.832 1.67,-0.832 2.5,0 1.67,-0.836 2.5,0 2.5,-0.832 1.66,-0.832 2.5,0 1.67,-0.836 2.5,0 2.5,-0.832 1.67,0 2.5,-0.832 1.66,-0.836 2.5,0 2.5,-0.832 1.67,0 2.5,-0.832 2.5,0 1.67,-0.836 2.5,0 2.5,-0.832 1.66,0 2.5,-0.832 5,0 1.67,-0.836 2.5,0 2.5,-0.832 2.5,0 1.67,-0.832 5,0 2.5,-0.836 1.66,0"
             style="fill:none;stroke:#000000;stroke-opacity:1;stroke-width:5;stroke-linecap:butt;stroke-linejoin:round;stroke-miterlimit:10;stroke-dasharray:none"
             id="path54" /><path
             d="m 1480,914.168 0,-1.668 0.83,-1.668 0,-4.164 0.84,-0.836 0,-3.332 0.83,-1.668 0,-1.664 0.83,-1.668 0,-1.668 0.84,-0.832 0,-1.668 0.83,-0.832 0,-0.832 0.83,-1.668 0,-0.832 0.84,-0.836 0,-1.664 0.83,-0.836 0,-0.832 0.83,-0.832 0.84,-1.668 0,-0.832 0.83,-0.836 0.83,-1.664 0,-0.836 0.84,-0.832 0.83,-0.832 0,-1.668 0.83,-0.832 0.84,-0.836 0.83,-0.832 0.83,-1.668 0,-0.832 0.84,-0.832 0.83,-1.668 0.83,-0.832 0.84,-0.836 0.83,-0.832 0.83,-1.668 0.84,-0.832 0.83,-0.832 0.83,-0.836 0.84,-0.832 0.83,-1.668 0.83,-0.832 0.84,-0.832 0.83,-0.836 0.83,-1.664 0.84,-0.836 0.83,-0.832 0.83,-0.832 0.84,-0.836 1.66,-1.664 0.84,-0.836 0.83,-0.832 0.83,-0.832 0.84,-0.836 1.66,-1.664 0.84,-0.836 0.83,-0.832 1.67,-0.832 0.83,-0.836 0.83,-1.664 1.67,-0.836 0.83,-0.832 0.84,-0.832 1.66,-0.836 0.84,-0.832 1.66,-0.832 0.84,-1.668 0.83,-0.832 1.67,-0.836 0.83,-0.832 1.67,-0.832 0.83,-0.836 1.67,-0.832 1.66,-0.832 0.84,-1.668 1.66,-0.832 0.84,-0.836 1.66,-0.832 0.84,-0.832 1.66,-0.836 1.67,-0.832 0.83,-0.832 1.67,-0.836 1.67,-0.832 1.66,-0.832 0.84,-0.836 1.66,-0.832 1.67,-1.668"
             style="fill:none;stroke:#000000;stroke-opacity:1;stroke-width:5;stroke-linecap:butt;stroke-linejoin:round;stroke-miterlimit:10;stroke-dasharray:none"
             id="path56" /><path
             d="m 1544.17,1017.5 -0.84,-1.67 -1.66,-0.83 -0.84,-0.83 -1.66,-0.84 -1.67,-0.83 -0.83,-0.83 -1.67,-0.84 -0.83,-0.83 -1.67,-1.67 -0.83,-0.83 -0.84,-0.83 -1.66,-0.84 -0.84,-0.83 -1.66,-0.83 -0.84,-0.84 -0.83,-1.66 -1.67,-0.84 -0.83,-0.83 -0.83,-0.832 -1.67,-0.836 -0.83,-0.832 -0.84,-1.668 -1.66,-0.832 -0.84,-0.832 -0.83,-0.836 -0.83,-0.832 -0.84,-1.668 -1.66,-0.832 -0.84,-0.832 -0.83,-0.836 -0.83,-0.832 -0.84,-1.668 -0.83,-0.832 -0.83,-0.832 -0.84,-0.836 -0.83,-1.664 -0.83,-0.836 -0.84,-0.832 -0.83,-0.832 -0.83,-0.836 -0.84,-1.664 -0.83,-0.836 -0.83,-0.832 -0.84,-0.832 -0.83,-1.668 -0.83,-0.832 -0.84,-0.836 0,-1.664 -0.83,-0.836 -0.83,-0.832 -0.84,-0.832 -0.83,-1.668 0,-0.832 -0.83,-0.836 -0.84,-0.832 0,-1.668 -0.83,-0.832 -0.83,-0.832 0,-1.668 -0.84,-0.832 -0.83,-0.836 0,-0.832 -0.83,-1.668 0,-0.832 -0.84,-0.832 0,-1.668 -0.83,-0.832 0,-0.836 -0.83,-0.832 0,-1.668 -0.84,-0.832 0,-2.5 -0.83,-0.832 0,-2.5 -0.83,-0.836 0,-3.332 -0.84,-0.832 0,-4.168 -0.83,-1.668 0,-14.164"
             style="fill:none;stroke:#000000;stroke-opacity:1;stroke-width:5;stroke-linecap:butt;stroke-linejoin:round;stroke-miterlimit:10;stroke-dasharray:none"
             id="path58" /><path
             d="m 1728.33,1083.33 -2.5,0 -1.66,-0.83 -2.5,0 -2.5,-0.83 -1.67,0 -2.5,-0.84 -2.5,0 -1.67,-0.83 -2.5,0 -2.5,-0.83 -1.66,0 -2.5,-0.84 -1.67,0 -2.5,-0.83 -2.5,0 -1.67,-0.83 -2.5,-0.84 -1.66,0 -2.5,-0.83 -2.5,0 -1.67,-0.83 -2.5,-0.84 -1.67,0 -2.5,-0.83 -1.66,-0.83 -2.5,0 -1.67,-0.84 -2.5,-0.83 -1.67,0 -2.5,-0.83 -1.66,-0.84 -2.5,0 -1.67,-0.83 -2.5,-0.83 -1.67,-0.84 -1.66,0 -2.5,-0.83 -1.67,-0.83 -2.5,0 -1.67,-0.84 -1.66,-0.83 -2.5,-0.83 -1.67,-0.84 -1.67,0 -2.5,-0.83 -1.66,-0.83 -1.67,-0.84 -2.5,0 -1.67,-0.83 -1.66,-0.83 -1.67,-0.84 -2.5,-0.83 -1.67,-0.83 -1.66,0 -1.67,-0.84 -2.5,-0.83 -1.67,-0.83 -1.66,-0.84 -1.67,-0.83 -1.67,-0.83 -1.66,-0.84 -1.67,0 -2.5,-0.83 -1.67,-0.83 -1.66,-0.84 -1.67,-0.83 -1.67,-0.83 -1.66,-0.84 -1.67,-0.83 -1.67,-0.83 -1.66,-0.84 -1.67,-0.83 -1.67,-0.83 -1.66,-0.84 -1.67,-0.83 -1.67,-0.83 -1.66,-0.84 -1.67,-0.83 -1.67,-0.83 -1.66,-0.84 -0.84,-0.83 -1.66,-0.83 -1.67,-0.84 -1.67,-0.83 -1.66,-0.83 -1.67,-0.84 -0.83,-0.83 -1.67,-0.83 -1.67,-0.84 -1.66,-0.83 -0.84,-0.83 -1.66,-0.84 -1.67,-0.83 -1.67,-0.83 -0.83,-0.84 -1.67,-0.83 -1.66,-0.83 -0.84,-0.84 -1.66,-0.83"
             style="fill:none;stroke:#000000;stroke-opacity:1;stroke-width:5;stroke-linecap:butt;stroke-linejoin:round;stroke-miterlimit:10;stroke-dasharray:none"
             id="path60" /><path
             d="m 1963.33,1089.17 -5,0 -1.66,0.83 -7.5,0 -2.5,0.83 -4.17,0 -2.5,0.84 -7.5,0 -2.5,0.83 -9.17,0 -2.5,0.83 -11.66,0 -2.5,0.84 -19.17,0 -2.5,0.83 -35.83,0 -2.5,-0.83 -21.67,0 -2.5,-0.84 -12.5,0 -1.67,-0.83 -7.5,0 -2.5,-0.83 -6.66,0 -2.5,-0.84 -7.5,0 -2.5,-0.83 -4.17,0 -2.5,-0.83 -5,0 -1.67,-0.84 -5,0 -2.5,-0.83 -4.16,0 -2.5,-0.83 -2.5,0 -2.5,-0.84 -4.17,0 -2.5,-0.83 -2.5,0 -1.67,-0.83 -2.5,0 -2.5,-0.84"
             style="fill:none;stroke:#000000;stroke-opacity:1;stroke-width:5;stroke-linecap:butt;stroke-linejoin:round;stroke-miterlimit:10;stroke-dasharray:none"
             id="path62" /><path
             d="m 2160.83,1030.83 -1.66,0.84 -1.67,0.83 -1.67,0.83 -0.83,0.84 -1.67,0.83 -1.66,0.83 -1.67,0.84 -1.67,0.83 -1.66,0.83 -1.67,0.84 -1.67,0.83 -1.66,0.83 -1.67,0.84 -1.67,0.83 -1.66,0.83 -1.67,0.84 -1.67,0 -1.66,0.83 -1.67,0.83 -1.67,0.84 -1.66,0.83 -2.5,0.83 -1.67,0.84 -1.67,0.83 -1.66,0.83 -1.67,0.84 -1.67,0 -2.5,0.83 -1.66,0.83 -1.67,0.84 -1.67,0.83 -1.66,0.83 -2.5,0 -1.67,0.84 -1.67,0.83 -2.5,0.83 -1.66,0.84 -1.67,0.83 -1.67,0 -2.5,0.83 -1.66,0.84 -1.67,0.83 -2.5,0 -1.67,0.83 -2.5,0.84 -1.66,0.83 -1.67,0 -2.5,0.83 -1.67,0.84 -2.5,0.83 -1.66,0 -2.5,0.83 -1.67,0.84 -1.67,0 -2.5,0.83 -1.66,0.83 -2.5,0 -1.67,0.84 -2.5,0.83 -1.67,0 -2.5,0.83 -2.5,0.84 -1.66,0 -2.5,0.83 -1.67,0 -2.5,0.83 -1.67,0.84 -2.5,0 -2.5,0.83 -1.66,0 -2.5,0.83 -1.67,0 -2.5,0.84 -2.5,0.83 -1.67,0 -2.5,0.83 -2.5,0 -1.66,0.84 -2.5,0 -2.5,0.83 -1.67,0 -2.5,0.83 -2.5,0 -2.5,0.84 -4.17,0 -2.5,0.83 -1.66,0 -2.5,0.83 -2.5,0 -2.5,0.84 -4.17,0 -2.5,0.83 -2.5,0 -2.5,0.83 -4.17,0 -2.5,0.84"
             style="fill:none;stroke:#000000;stroke-opacity:1;stroke-width:5;stroke-linecap:butt;stroke-linejoin:round;stroke-miterlimit:10;stroke-dasharray:none"
             id="path64" /><path
             d="m 2246.67,931.668 0,2.5 -0.84,1.664 0,1.668 -0.83,1.668 0,1.664 -0.83,1.668 0,1.668 -0.84,1.664 0,0.836 -0.83,0.832 0,0.832 -0.83,1.668 0,0.832 -0.84,0.836 0,1.664 -0.83,0.836 0,0.832 -0.83,1.668 0,0.832 -0.84,0.832 -0.83,0.836 0,1.664 -0.83,0.836 -0.84,0.832 0,0.832 -0.83,1.668 -0.83,0.832 -0.84,0.836 0,1.664 -0.83,0.836 -0.83,0.832 -0.84,0.832 -0.83,1.668 -0.83,0.832 0,0.836 -0.84,0.832 -0.83,1.668 -0.83,0.832 -0.84,0.832 -0.83,0.836 -0.83,1.664 -0.84,0.836 -0.83,0.832 -0.83,0.832 -0.84,1.668 -0.83,0.832 -0.83,0.836 -1.67,0.832 -0.83,0.832 -0.84,1.668 -0.83,0.832 -0.83,0.836 -0.84,0.832 -1.66,0.832 -0.84,1.668 -0.83,0.832 -0.83,0.836 -1.67,0.832 -0.83,0.832 -0.84,1.668 -1.66,0.83 -0.84,0.84 -0.83,0.83 -1.67,0.83 -0.83,0.84 -0.83,0.83 -1.67,1.67 -0.83,0.83 -1.67,0.83 -0.83,0.84 -1.67,0.83 -0.83,0.83 -1.67,0.84 -0.83,1.66 -1.67,0.84 -0.83,0.83 -1.67,0.83 -0.83,0.84 -1.67,0.83 -1.67,0.83 -0.83,0.84 -1.67,0.83 -1.66,0.83 -0.84,0.84 -1.66,1.66 -1.67,0.84 -0.83,0.83 -1.67,0.83 -1.67,0.84 -1.66,0.83 -1.67,0.83 -0.83,0.84 -1.67,0.83 -1.67,0.83"
             style="fill:none;stroke:#000000;stroke-opacity:1;stroke-width:5;stroke-linecap:butt;stroke-linejoin:round;stroke-miterlimit:10;stroke-dasharray:none"
             id="path66" /><path
             d="m 2247.5,920 0,9.168 -0.83,0.832 0,1.668"
             style="fill:none;stroke:#000000;stroke-opacity:1;stroke-width:5;stroke-linecap:butt;stroke-linejoin:round;stroke-miterlimit:10;stroke-dasharray:none"
             id="path68" /></g></g></g></g></svg>