<?xml version="1.0" encoding="UTF-8" standalone="no"?>
<!-- Created with Inkscape (http://www.inkscape.org/) -->

<svg
   xmlns:ns0="http://www.iki.fi/pav/software/textext/"
   xmlns:dc="http://purl.org/dc/elements/1.1/"
   xmlns:cc="http://creativecommons.org/ns#"
   xmlns:rdf="http://www.w3.org/1999/02/22-rdf-syntax-ns#"
   xmlns:svg="http://www.w3.org/2000/svg"
   xmlns="http://www.w3.org/2000/svg"
   xmlns:sodipodi="http://sodipodi.sourceforge.net/DTD/sodipodi-0.dtd"
   xmlns:inkscape="http://www.inkscape.org/namespaces/inkscape"
   id="svg2"
   version="1.1"
   inkscape:version="0.91 r"
   width="582.71338"
   height="824.58472"
   xml:space="preserve"
   sodipodi:docname="uniaxial extension.svg"><sodipodi:namedview
     pagecolor="#ffffff"
     bordercolor="#666666"
     borderopacity="1"
     objecttolerance="10"
     gridtolerance="10"
     guidetolerance="10"
     inkscape:pageopacity="0"
     inkscape:pageshadow="2"
     inkscape:window-width="1680"
     inkscape:window-height="1023"
     id="namedview4"
     showgrid="true"
     inkscape:zoom="0.69532167"
     inkscape:cx="138.2113"
     inkscape:cy="381.99471"
     inkscape:window-x="0"
     inkscape:window-y="0"
     inkscape:window-maximized="1"
     inkscape:current-layer="g10"
     fit-margin-top="0"
     fit-margin-left="0"
     fit-margin-right="0"
     fit-margin-bottom="0"
     inkscape:snap-grids="true"
     showguides="true"
     inkscape:guide-bbox="true"
     inkscape:snap-to-guides="false"
     inkscape:snap-bbox="true"
     inkscape:snap-smooth-nodes="true"
     inkscape:object-nodes="true"
     inkscape:snap-global="false"><inkscape:grid
       type="xygrid"
       id="grid3700"
       originx="-3.971004e-07"
       originy="-5.100795e-05" /></sodipodi:namedview><metadata
     id="metadata8"><rdf:RDF><cc:Work
         rdf:about=""><dc:format>image/svg+xml</dc:format><dc:type
           rdf:resource="http://purl.org/dc/dcmitype/StillImage" /><dc:title /></cc:Work></rdf:RDF></metadata><defs
     id="defs6"><marker
   style="overflow:visible"
   id="Arrow2Mend"
   refX="0"
   refY="0"
   orient="auto"
   inkscape:stockid="Arrow2Mend"><path
     inkscape:connector-curvature="0"
     transform="scale(-0.6,-0.6)"
     d="M 8.7185878,4.0337352 -2.2072895,0.01601326 8.7185884,-4.0017078 c -1.7454984,2.3720609 -1.7354408,5.6174519 -6e-7,8.035443 z"
     style="fill-rule:evenodd;stroke-width:0.625;stroke-linejoin:round"
     id="path3987" /></marker><marker
   style="overflow:visible"
   id="Arrow1Mstart"
   refX="0"
   refY="0"
   orient="auto"
   inkscape:stockid="Arrow1Mstart"><path
     inkscape:connector-curvature="0"
     transform="matrix(0.4,0,0,0.4,4,0)"
     style="fill-rule:evenodd;stroke:#000000;stroke-width:1pt"
     d="M 0,0 5,-5 -12.5,0 5,5 0,0 Z"
     id="path3966" /></marker><inkscape:perspective
   id="perspective10"
   inkscape:persp3d-origin="300 : 400 : 1"
   inkscape:vp_z="700 : 600 : 1"
   inkscape:vp_y="0 : 1000 : 0"
   inkscape:vp_x="-50 : 600 : 1"
   sodipodi:type="inkscape:persp3d" /><inkscape:perspective
   id="perspective81"
   inkscape:persp3d-origin="300 : 400 : 1"
   inkscape:vp_z="700 : 600 : 1"
   inkscape:vp_y="0 : 1000 : 0"
   inkscape:vp_x="-50 : 600 : 1"
   sodipodi:type="inkscape:persp3d" /><filter
   height="3.0366831"
   y="-1.0183415"
   width="1.180557"
   x="-0.090278499"
   id="filter3347"
   inkscape:collect="always"
   style="color-interpolation-filters:sRGB"><feGaussianBlur
     id="feGaussianBlur3349"
     stdDeviation="7.5769449"
     inkscape:collect="always" /></filter><inkscape:perspective
   id="perspective10-8"
   inkscape:persp3d-origin="300 : 400 : 1"
   inkscape:vp_z="700 : 600 : 1"
   inkscape:vp_y="0 : 1000 : 0"
   inkscape:vp_x="-50 : 600 : 1"
   sodipodi:type="inkscape:persp3d" /><inkscape:perspective
   id="perspective22"
   inkscape:persp3d-origin="300 : 400 : 1"
   inkscape:vp_z="700 : 600 : 1"
   inkscape:vp_y="0 : 1000 : 0"
   inkscape:vp_x="-50 : 600 : 1"
   sodipodi:type="inkscape:persp3d" /><filter
   height="3.0366831"
   y="-1.0183415"
   width="1.180557"
   x="-0.090278499"
   id="filter3347-7-8"
   inkscape:collect="always"
   style="color-interpolation-filters:sRGB"><feGaussianBlur
     id="feGaussianBlur3349-9-9"
     stdDeviation="7.5769449"
     inkscape:collect="always" /></filter><filter
   height="3.0366831"
   y="-1.0183415"
   width="1.180557"
   x="-0.090278499"
   id="filter3347-7-8-5"
   inkscape:collect="always"
   style="color-interpolation-filters:sRGB"><feGaussianBlur
     id="feGaussianBlur3349-9-9-4"
     stdDeviation="7.5769449"
     inkscape:collect="always" /></filter>




 --&gt;
     --&gt;
     --&gt;
     --&gt;
     --&gt;
     --&gt;
     --&gt;
     --&gt;
     --&gt;
     --&gt;
     --&gt;
    <defs
   id="defs5" /><marker
   style="overflow:visible"
   id="Arrow1Lend"
   refX="0"
   refY="0"
   orient="auto"
   inkscape:stockid="Arrow1Lend"><path
     transform="matrix(-0.8,0,0,-0.8,-10,0)"
     style="fill-rule:evenodd;stroke:#000000;stroke-width:1pt"
     d="M 0,0 5,-5 -12.5,0 5,5 0,0 Z"
     id="path3840"
     inkscape:connector-curvature="0" /></marker><marker
   style="overflow:visible"
   id="Arrow1Lstart"
   refX="0"
   refY="0"
   orient="auto"
   inkscape:stockid="Arrow1Lstart"><path
     transform="matrix(0.8,0,0,0.8,10,0)"
     style="fill-rule:evenodd;stroke:#000000;stroke-width:1pt"
     d="M 0,0 5,-5 -12.5,0 5,5 0,0 Z"
     id="path3837"
     inkscape:connector-curvature="0" /></marker><marker
   style="overflow:visible"
   id="Arrow1Mstart-4"
   refX="0"
   refY="0"
   orient="auto"
   inkscape:stockid="Arrow1Mstart"><path
     transform="matrix(0.4,0,0,0.4,4,0)"
     style="fill-rule:evenodd;stroke:#000000;stroke-width:1pt"
     d="M 0,0 5,-5 -12.5,0 5,5 0,0 Z"
     id="path3966-9"
     inkscape:connector-curvature="0" /></marker><marker
   style="overflow:visible"
   id="Arrow2Mend-8"
   refX="0"
   refY="0"
   orient="auto"
   inkscape:stockid="Arrow2Mend"><path
     transform="scale(-0.6,-0.6)"
     d="M 8.7185878,4.0337352 -2.2072895,0.01601326 8.7185884,-4.0017078 c -1.7454984,2.3720609 -1.7354408,5.6174519 -6e-7,8.035443 z"
     style="fill-rule:evenodd;stroke-width:0.625;stroke-linejoin:round"
     id="path3987-4"
     inkscape:connector-curvature="0" /></marker><marker
   style="overflow:visible"
   id="Arrow1Mstart-9"
   refX="0"
   refY="0"
   orient="auto"
   inkscape:stockid="Arrow1Mstart"><path
     inkscape:connector-curvature="0"
     transform="matrix(0.4,0,0,0.4,4,0)"
     style="fill-rule:evenodd;stroke:#000000;stroke-width:1pt"
     d="M 0,0 5,-5 -12.5,0 5,5 0,0 Z"
     id="path3966-3" /></marker><marker
   style="overflow:visible"
   id="Arrow2Mend-83"
   refX="0"
   refY="0"
   orient="auto"
   inkscape:stockid="Arrow2Mend"><path
     inkscape:connector-curvature="0"
     transform="scale(-0.6,-0.6)"
     d="M 8.7185878,4.0337352 -2.2072895,0.01601326 8.7185884,-4.0017078 c -1.7454984,2.3720609 -1.7354408,5.6174519 -6e-7,8.035443 z"
     style="fill-rule:evenodd;stroke-width:0.625;stroke-linejoin:round"
     id="path3987-8" /></marker></defs><g
     id="g10"
     inkscape:groupmode="layer"
     inkscape:label="ink_ext_XXXXXX"
     transform="matrix(1.25,0,0,-1.25,74.62418,631.79399)"
     style="display:inline"><g
       transform="matrix(0.87329407,0,0,-0.77018243,-304.67697,669.83903)"
       id="layer1"
       inkscape:label="Layer 1"><g
         transform="matrix(-0.35543067,0,0,0.3230842,700.44928,497.69807)"
         id="layer1-9"
         inkscape:label="Layer 1"><g
           transform="matrix(-1,0,0,1,1242.5161,11.610852)"
           id="g3363"><path
             style="fill:#1247fd;fill-opacity:1;fill-rule:evenodd;stroke:#000000;stroke-width:5.4000001;stroke-linecap:butt;stroke-linejoin:miter;stroke-miterlimit:4;stroke-dasharray:none;stroke-opacity:1"
             d="m 516.42857,463.79076 0,-70.00001 92.85714,0 -22.15476,-38.37316 133.98053,72.49654 -129.35119,76.49407 18.45325,-40.07561 -93.78497,-0.54183 z"
             id="path2388"
             sodipodi:nodetypes="cccccccc"
             inkscape:connector-curvature="0" /><path
             style="opacity:0.95454544;fill:#ffffff;fill-opacity:1;fill-rule:evenodd;stroke:none;filter:url(#filter3347)"
             d="m 649.90594,420.21932 c 29.69787,0.0398 25.39639,-0.0798 55.09405,0.0532 l 14.28571,9.9468 -14.28571,7.80392 -55.09405,0.0532 c -41.02304,0 -134.0488,11.97627 -134.0488,11.94679 l 0,-45.75072 c 0,0 93.02576,15.94679 134.0488,15.94679 z"
             id="rect3160"
             sodipodi:nodetypes="cccccccc"
             inkscape:connector-curvature="0" /></g></g></g><g
       transform="matrix(0,-0.89135749,0.85939135,0,-355.75974,310.16887)"
       id="layer1-7-6"
       inkscape:label="Layer 1"><g
         transform="matrix(-0.35543067,0,0,0.3230842,700.44928,497.69807)"
         id="layer1-9-8-5"
         inkscape:label="Layer 1"><g
           transform="matrix(-1,0,0,1,1242.5161,11.610852)"
           id="g3363-2-4"><path
             style="fill:#1247fd;fill-opacity:1;fill-rule:evenodd;stroke:#000000;stroke-width:5.4000001;stroke-linecap:butt;stroke-linejoin:miter;stroke-miterlimit:4;stroke-dasharray:none;stroke-opacity:1"
             d="m 516.42857,463.79076 0,-70.00001 92.85714,0 -22.15476,-38.37316 133.98053,72.49654 -129.35119,76.49407 18.45325,-40.07561 -93.78497,-0.54183 z"
             id="path2388-0-4"
             sodipodi:nodetypes="cccccccc"
             inkscape:connector-curvature="0" /><path
             style="opacity:0.95454544;fill:#ffffff;fill-opacity:1;fill-rule:evenodd;stroke:none;filter:url(#filter3347-7-8)"
             d="m 649.90594,420.21932 c 29.69787,0.0398 25.39639,-0.0798 55.09405,0.0532 l 14.28571,9.9468 -14.28571,7.80392 -55.09405,0.0532 c -41.02304,0 -134.0488,11.97627 -134.0488,11.94679 l 0,-45.75072 c 0,0 93.02576,15.94679 134.0488,15.94679 z"
             id="rect3160-8-4"
             sodipodi:nodetypes="cccccccc"
             inkscape:connector-curvature="0" /></g></g></g><g
       style="display:inline"
       transform="matrix(0,0.89135752,0.85939136,0,-355.23215,-11.383417)"
       id="layer1-7-6-4"
       inkscape:label="Layer 1"><g
         transform="matrix(-0.35543067,0,0,0.3230842,700.44928,497.69807)"
         id="layer1-9-8-5-1"
         inkscape:label="Layer 1"><g
           transform="matrix(-1,0,0,1,1242.5161,11.610852)"
           id="g3363-2-4-8"><path
             style="fill:#1247fd;fill-opacity:1;fill-rule:evenodd;stroke:#000000;stroke-width:5.4000001;stroke-linecap:butt;stroke-linejoin:miter;stroke-miterlimit:4;stroke-dasharray:none;stroke-opacity:1"
             d="m 516.42857,463.79076 0,-70.00001 92.85714,0 -22.15476,-38.37316 133.98053,72.49654 -129.35119,76.49407 18.45325,-40.07561 -93.78497,-0.54183 z"
             id="path2388-0-4-5"
             sodipodi:nodetypes="cccccccc"
             inkscape:connector-curvature="0" /><path
             style="opacity:0.95454544;fill:#ffffff;fill-opacity:1;fill-rule:evenodd;stroke:none;filter:url(#filter3347-7-8-5)"
             d="m 649.90594,420.21932 c 29.69787,0.0398 25.39639,-0.0798 55.09405,0.0532 l 14.28571,9.9468 -14.28571,7.80392 -55.09405,0.0532 c -41.02304,0 -134.0488,11.97627 -134.0488,11.94679 l 0,-45.75072 c 0,0 93.02576,15.94679 134.0488,15.94679 z"
             id="rect3160-8-4-7"
             sodipodi:nodetypes="cccccccc"
             inkscape:connector-curvature="0" /></g></g></g><path
       style="fill:none;stroke:#000000;stroke-width:2;stroke-linecap:butt;stroke-linejoin:miter;stroke-miterlimit:4;stroke-dasharray:none;stroke-opacity:1;marker-start:url(#Arrow1Lstart);marker-end:url(#Arrow1Lend)"
       d="m 84.230938,373.35785 -69.966104,0 0,67.52542"
       id="path3499"
       inkscape:connector-curvature="0" /><path
       style="fill:none;stroke:#000000;stroke-width:2;stroke-linecap:butt;stroke-linejoin:miter;stroke-miterlimit:4;stroke-dasharray:none;stroke-opacity:1;marker-end:url(#Arrow1Lend)"
       d="M 15.078394,374.98497 -22.345334,337.56123"
       id="path3501"
       inkscape:connector-curvature="0" /><text
       xml:space="preserve"
       style="font-style:normal;font-weight:normal;font-size:32px;line-height:125%;font-family:Sans;letter-spacing:0px;word-spacing:0px;fill:#000000;fill-opacity:1;stroke:none"
       x="-47.565666"
       y="-306.646"
       id="text4835"
       sodipodi:linespacing="125%"
       transform="scale(1,-1)"><tspan
         sodipodi:role="line"
         id="tspan4837"
         x="-47.565666"
         y="-306.646"
         style="font-style:normal;font-variant:normal;font-weight:normal;font-stretch:normal;font-size:32px;line-height:125%;font-family:'Latin Modern Roman';-inkscape-font-specification:'Latin Modern Roman, Normal';text-align:start;writing-mode:lr-tb;text-anchor:start">x</tspan></text>
<text
       xml:space="preserve"
       style="font-style:normal;font-weight:normal;font-size:32px;line-height:125%;font-family:Sans;letter-spacing:0px;word-spacing:0px;fill:#000000;fill-opacity:1;stroke:none"
       x="95.620766"
       y="-359.52734"
       id="text4839"
       sodipodi:linespacing="125%"
       transform="scale(1,-1)"><tspan
         sodipodi:role="line"
         id="tspan4841"
         x="95.620766"
         y="-359.52734"
         style="font-style:normal;font-variant:normal;font-weight:normal;font-stretch:normal;font-size:32px;line-height:125%;font-family:'Latin Modern Roman';-inkscape-font-specification:'Latin Modern Roman, Normal';text-align:start;writing-mode:lr-tb;text-anchor:start">y</tspan></text>
<text
       xml:space="preserve"
       style="font-style:normal;font-weight:normal;font-size:32px;line-height:125%;font-family:Sans;letter-spacing:0px;word-spacing:0px;fill:#000000;fill-opacity:1;stroke:none"
       x="4.5021114"
       y="-459.59512"
       id="text4843"
       sodipodi:linespacing="125%"
       transform="scale(1,-1)"><tspan
         sodipodi:role="line"
         id="tspan4845"
         x="4.5021114"
         y="-459.59512"
         style="font-style:normal;font-variant:normal;font-weight:normal;font-stretch:normal;font-size:32px;line-height:125%;font-family:'Latin Modern Roman';-inkscape-font-specification:'Latin Modern Roman, Normal';text-align:start;writing-mode:lr-tb;text-anchor:start">z</tspan></text>
<g
       id="g3617"
       transform="matrix(3.8950321,0,0,5.4013586,-930.3948,-2416.8649)"
       xml:space="preserve"
       stroke-miterlimit="10.433"
       font-style="normal"
       font-variant="normal"
       font-weight="normal"
       font-stretch="normal"
       font-size-adjust="none"
       letter-spacing="normal"
       word-spacing="normal"
       ns0:text="$\\ell_0$"
       ns0:preamble="/home/ken/.config/inkscape/textextpreamble.txt"
       style="font-style:normal;font-variant:normal;font-weight:normal;font-stretch:normal;letter-spacing:normal;word-spacing:normal;text-anchor:start;display:inline;fill:none;stroke:#000000;stroke-linecap:butt;stroke-linejoin:miter;stroke-miterlimit:10.43299961;stroke-dasharray:none;stroke-dashoffset:0;stroke-opacity:1"><path
         d="m 223.59,478.22 0,-0.01 -0.01,0 0,-0.01 -0.01,0 0,-0.01 0,-0.01 -0.01,0 0,-0.01 -0.01,0 0,-0.01 0,0 0,0 0,-0.01 0,0 0,0 -0.01,-0.01 0,0 0,0 0,-0.01 0,0 0,0 0,-0.01 0,0 c 0,-0.05 0.06,-0.13 0.12,-0.13 0.05,0 0.08,0.03 0.36,0.31 0.08,0.07 0.28,0.26 0.36,0.34 0.1,-0.79 0.38,-1.52 1.11,-1.52 0.4,0 0.75,0.22 0.96,0.37 0.14,0.1 0.6,0.49 0.6,0.59 0,0.03 -0.03,0.12 -0.12,0.12 -0.03,0 -0.04,-0.01 -0.13,-0.09 -0.63,-0.63 -1,-0.78 -1.29,-0.78 -0.45,0 -0.61,0.52 -0.61,1.3 0,0.05 0.02,0.51 0.05,0.56 0.02,0.03 0.02,0.05 0.22,0.25 0.81,0.8 2.22,2.48 2.22,4.02 0,0.17 0,0.78 -0.59,0.78 l 0.02,-0.22 c 0.33,0 0.33,-0.36 0.33,-0.52 0,-1.66 -1.67,-3.39 -2.15,-3.89 l 0,0 c 0.02,0.11 0.45,2.31 1.02,3.48 0.27,0.53 0.48,0.93 0.8,0.93 l -0.02,0.22 c -0.82,0 -1.56,-1.64 -1.66,-1.87 -0.47,-1.08 -0.78,-2.24 -0.78,-3.43 z"
         id="path3619"
         inkscape:connector-curvature="0"
         style="fill:#000000;stroke-width:0" /><path
         d="m 231.18,477.96 0,0.14 -0.01,0.14 0,0.13 -0.01,0.12 -0.01,0.13 -0.02,0.12 -0.02,0.11 -0.02,0.11 -0.02,0.11 -0.03,0.11 -0.04,0.1 -0.03,0.1 -0.05,0.1 -0.04,0.09 -0.06,0.1 -0.02,0.04 -0.03,0.05 c -0.22,0.32 -0.65,0.6 -1.21,0.6 l 0,-0.2 c 0.38,0 0.74,-0.23 0.86,-0.63 0.12,-0.38 0.12,-0.88 0.12,-1.48 0,-0.51 0,-1.03 -0.09,-1.47 -0.14,-0.63 -0.61,-0.78 -0.89,-0.78 l 0,0 c -0.32,0 -0.74,0.18 -0.88,0.75 -0.1,0.41 -0.1,0.99 -0.1,1.5 0,0.51 0,1.04 0.1,1.42 0.15,0.55 0.59,0.69 0.88,0.69 l 0,0.2 c -1.61,0 -1.61,-1.9 -1.61,-2.4 0,-0.5 0,-2.36 1.61,-2.36 1.62,0 1.62,1.86 1.62,2.36 z"
         id="path3621"
         inkscape:connector-curvature="0"
         style="fill:#000000;stroke-width:0" /></g><g
       style="font-style:normal;font-variant:normal;font-weight:normal;font-stretch:normal;letter-spacing:normal;word-spacing:normal;text-anchor:start;display:inline;fill:none;stroke:#000000;stroke-linecap:butt;stroke-linejoin:miter;stroke-miterlimit:10.43299961;stroke-dasharray:none;stroke-dashoffset:0;stroke-opacity:1"
       ns0:preamble="/home/ken/.config/inkscape/textextpreamble.txt"
       ns0:text="$\\ell$"
       word-spacing="normal"
       letter-spacing="normal"
       font-size-adjust="none"
       font-stretch="normal"
       font-weight="normal"
       font-variant="normal"
       font-style="normal"
       stroke-miterlimit="10.433"
       xml:space="preserve"
       transform="matrix(3.8950321,0,0,5.4013586,-601.89427,-2404.4084)"
       id="g3763"><path
         id="path3765"
         d="m 223.59,478.22 0,-0.01 -0.01,0 0,-0.01 -0.01,0 0,-0.01 0,-0.01 -0.01,0 0,-0.01 -0.01,0 0,-0.01 0,0 0,0 0,-0.01 0,0 0,0 -0.01,-0.01 0,0 0,0 0,-0.01 0,0 0,0 0,-0.01 0,0 c 0,-0.05 0.06,-0.13 0.12,-0.13 0.05,0 0.08,0.03 0.36,0.31 0.08,0.07 0.28,0.26 0.36,0.34 0.1,-0.79 0.38,-1.52 1.11,-1.52 0.4,0 0.75,0.22 0.96,0.37 0.14,0.1 0.6,0.49 0.6,0.59 0,0.03 -0.03,0.12 -0.12,0.12 -0.03,0 -0.04,-0.01 -0.13,-0.09 -0.63,-0.63 -1,-0.78 -1.29,-0.78 -0.45,0 -0.61,0.52 -0.61,1.3 0,0.05 0.02,0.51 0.05,0.56 0.02,0.03 0.02,0.05 0.22,0.25 0.81,0.8 2.22,2.48 2.22,4.02 0,0.17 0,0.78 -0.59,0.78 l 0.02,-0.22 c 0.33,0 0.33,-0.36 0.33,-0.52 0,-1.66 -1.67,-3.39 -2.15,-3.89 l 0,0 c 0.02,0.11 0.45,2.31 1.02,3.48 0.27,0.53 0.48,0.93 0.8,0.93 l -0.02,0.22 c -0.82,0 -1.56,-1.64 -1.66,-1.87 -0.47,-1.08 -0.78,-2.24 -0.78,-3.43 z"
         inkscape:connector-curvature="0"
         style="fill:#000000;stroke-width:0" /></g><path
       transform="matrix(0.8,0,0,-0.8,-44.050043,520.98633)"
       inkscape:connector-curvature="0"
       id="path3174"
       d="m 41.694915,308.40899 0,267.45762"
       style="fill:none;stroke:#000000;stroke-width:3.0999999;stroke-linecap:butt;stroke-linejoin:miter;stroke-miterlimit:4;stroke-dasharray:none;stroke-opacity:1;marker-start:url(#Arrow1Mstart);marker-end:url(#Arrow2Mend)" /><path
       sodipodi:nodetypes="cc"
       inkscape:connector-curvature="0"
       id="path3174-7"
       d="m 239.15011,357.21905 0,-347.9999965"
       style="display:inline;fill:none;stroke:#000000;stroke-width:2.48000002;stroke-linecap:butt;stroke-linejoin:miter;stroke-miterlimit:4;stroke-dasharray:none;stroke-opacity:1;marker-start:url(#Arrow1Mstart);marker-end:url(#Arrow2Mend)" /><path
       sodipodi:nodetypes="cc"
       inkscape:connector-curvature="0"
       id="path3174-2"
       d="m 215.30756,-7.0943259 -43.87439,9e-6"
       style="display:inline;fill:none;stroke:#000000;stroke-width:2;stroke-linecap:butt;stroke-linejoin:miter;stroke-miterlimit:4;stroke-dasharray:none;stroke-opacity:1;marker-start:url(#Arrow1Mstart);marker-end:url(#Arrow2Mend)" /><g
       style="font-style:normal;font-variant:normal;font-weight:normal;font-stretch:normal;letter-spacing:normal;word-spacing:normal;text-anchor:start;fill:none;stroke:#000000;stroke-linecap:butt;stroke-linejoin:miter;stroke-miterlimit:10.43299961;stroke-dasharray:none;stroke-dashoffset:0;stroke-opacity:1"
       ns0:preamble="/home/ken/.config/inkscape/textextpreamble.txt"
       ns0:text="$P_z$"
       word-spacing="normal"
       letter-spacing="normal"
       font-size-adjust="none"
       font-stretch="normal"
       font-weight="normal"
       font-variant="normal"
       font-style="normal"
       stroke-miterlimit="10.433"
       xml:space="preserve"
       transform="matrix(4.8460056,0,0,4.4648204,-912.41617,-1655.6272)"
       id="g3129"><path
         id="path3131"
         d="m 226.45,480.37 0.04,0.26 0.67,2.7 c 0.09,0.35 0.11,0.38 0.54,0.38 l 0.95,0 c 0.83,0 1.36,-0.27 1.36,-0.95 0,-0.39 -0.2,-1.24 -0.59,-1.6 -0.5,-0.45 -1.09,-0.53 -1.53,-0.53 l -1.4,0 -0.04,-0.26 1.69,0 c 1.41,0 2.79,1.04 2.79,2.15 0,0.77 -0.65,1.5 -1.96,1.5 l -3.22,0 c -0.19,0 -0.3,0 -0.3,-0.19 0,-0.12 0.09,-0.12 0.29,-0.12 0.13,0 0.31,-0.01 0.43,-0.02 0.16,-0.02 0.22,-0.05 0.22,-0.16 0,-0.04 -0.01,-0.07 -0.04,-0.19 l -1.34,-5.33 c -0.1,-0.39 -0.11,-0.47 -0.9,-0.47 -0.17,0 -0.28,0 -0.28,-0.19 0,-0.12 0.12,-0.12 0.15,-0.12 0.28,0 0.98,0.04 1.26,0.04 0.21,0 0.43,-0.01 0.64,-0.01 0.22,0 0.44,-0.03 0.65,-0.03 0.07,0 0.2,0 0.2,0.2 0,0.11 -0.09,0.11 -0.28,0.11 -0.37,0 -0.65,0 -0.65,0.18 0,0.06 0.02,0.11 0.03,0.17 z"
         inkscape:connector-curvature="0"
         style="fill:#000000;stroke-width:0" /><path
         id="path3133"
         d="m 231,476.35 0.03,0.04 0.03,0.03 0.04,0.03 0.03,0.04 0.04,0.03 0.02,0.02 0.02,0.02 0.02,0.02 0.02,0.02 0.02,0.02 0.02,0.02 0.03,0.02 0.02,0.02 0.03,0.03 0.03,0.02 0.03,0.03 0.03,0.02 0.04,0.03 0.03,0.03 0.04,0.03 0.04,0.04 0.04,0.03 0.04,0.04 0.05,0.03 0.05,0.04 0.05,0.05 0.06,0.04 c 0.14,0.12 0.67,0.53 0.87,0.73 0.42,0.42 0.69,0.77 0.69,0.85 0,0.09 -0.09,0.09 -0.12,0.09 -0.07,0 -0.08,-0.02 -0.12,-0.07 -0.22,-0.32 -0.36,-0.43 -0.53,-0.43 -0.08,0 -0.19,0.01 -0.4,0.21 -0.23,0.24 -0.39,0.29 -0.55,0.29 -0.55,0 -0.93,-0.61 -0.93,-0.82 0,-0.06 0.07,-0.08 0.12,-0.08 0.08,0 0.1,0.02 0.12,0.1 0.11,0.24 0.5,0.26 0.61,0.26 0.16,0 0.34,-0.05 0.44,-0.07 0.38,-0.08 0.43,-0.08 0.6,-0.08 -0.18,-0.19 -0.3,-0.31 -0.96,-0.84 -0.55,-0.43 -0.73,-0.61 -0.87,-0.75 -0.41,-0.41 -0.62,-0.71 -0.62,-0.77 0,-0.09 0.09,-0.09 0.12,-0.09 0.07,0 0.09,0.01 0.12,0.07 0.19,0.27 0.4,0.43 0.64,0.43 0.08,0 0.19,-0.01 0.38,-0.19 0.21,-0.2 0.35,-0.31 0.57,-0.31 0.75,0 1.22,0.84 1.22,1.08 0,0.08 -0.08,0.09 -0.12,0.09 -0.09,0 -0.1,-0.04 -0.13,-0.11 -0.13,-0.35 -0.54,-0.52 -0.88,-0.52 -0.16,0 -0.34,0.04 -0.51,0.08 -0.32,0.07 -0.38,0.07 -0.5,0.07 -0.02,0 -0.12,0 -0.16,-0.01 z"
         inkscape:connector-curvature="0"
         style="fill:#000000;stroke-width:0" /></g><g
       id="content"
       transform="matrix(3.9664447,0,0,4.6980189,-864.63759,-2233.9327)"
       xml:space="preserve"
       stroke-miterlimit="10.433"
       font-style="normal"
       font-variant="normal"
       font-weight="normal"
       font-stretch="normal"
       font-size-adjust="none"
       letter-spacing="normal"
       word-spacing="normal"
       ns0:text="$d_0$"
       ns0:preamble="/home/ken/.config/inkscape/textextpreamble.txt"
       style="font-style:normal;font-variant:normal;font-weight:normal;font-stretch:normal;letter-spacing:normal;word-spacing:normal;text-anchor:start;fill:none;fill-opacity:1;fill-rule:evenodd;stroke:#000000;stroke-linecap:butt;stroke-linejoin:miter;stroke-miterlimit:10.43299961;stroke-dasharray:none;stroke-dashoffset:0;stroke-opacity:1"><path
         d="m 228.57,484.02 0,0 0,0 0,0 0,0 0,0.01 0,0 0,0 -0.01,0.01 0,0 0,0.01 0,0 0,0 0,0.01 0,0 0,0.01 -0.01,0 0,0.01 0,0 -0.01,0.01 0,0 -0.01,0.01 0,0 0,0 0,0 -0.01,0.01 0,0 0,0 -0.01,0 0,0 0,0.01 -0.01,0 0,0 0,0 -0.01,0 0,0 -0.01,0 0,0 -0.01,0.01 0,0 -0.01,0 0,0 -0.01,0 0,0 -0.01,0 0,0 c -0.15,0 -1.1,-0.09 -1.27,-0.11 -0.08,-0.01 -0.14,-0.06 -0.14,-0.19 0,-0.12 0.09,-0.12 0.24,-0.12 0.48,0 0.5,-0.07 0.5,-0.17 l -0.03,-0.2 -0.6,-2.35 c -0.18,0.37 -0.46,0.64 -0.91,0.64 -1.17,0 -2.4,-1.46 -2.4,-2.92 0,-0.93 0.55,-1.58 1.32,-1.58 l 0.02,0.21 c -0.49,0 -0.63,0.55 -0.63,0.94 0,0.49 0.31,1.72 0.54,2.17 0.31,0.59 0.76,0.96 1.16,0.96 0.64,0 0.78,-0.82 0.78,-0.88 0,-0.06 -0.02,-0.12 -0.03,-0.17 l -0.49,-1.94 c -0.05,-0.18 -0.05,-0.2 -0.2,-0.37 -0.44,-0.55 -0.85,-0.71 -1.13,-0.71 l -0.02,-0.21 c 0.2,0 0.7,0.04 1.3,0.74 0.08,-0.42 0.42,-0.74 0.9,-0.74 0.35,0 0.58,0.22 0.74,0.54 0.17,0.36 0.3,0.97 0.3,0.99 0,0.1 -0.09,0.1 -0.12,0.1 -0.1,0 -0.11,-0.05 -0.14,-0.18 -0.17,-0.65 -0.35,-1.24 -0.76,-1.24 -0.27,0 -0.3,0.26 -0.3,0.46 0,0.24 0.02,0.31 0.06,0.48 z"
         id="path3474"
         inkscape:connector-curvature="0"
         style="fill:#000000;stroke-width:0" /><path
         d="m 232.21,477.96 0,0.14 0,0.14 -0.01,0.13 -0.01,0.12 -0.01,0.13 -0.01,0.12 -0.02,0.11 -0.02,0.11 -0.03,0.11 -0.03,0.11 -0.03,0.1 -0.04,0.1 -0.04,0.1 -0.05,0.09 -0.05,0.1 -0.03,0.04 -0.03,0.05 c -0.21,0.32 -0.65,0.6 -1.2,0.6 l 0,-0.2 c 0.37,0 0.73,-0.23 0.86,-0.63 0.11,-0.38 0.12,-0.88 0.12,-1.48 0,-0.51 0,-1.03 -0.09,-1.47 -0.14,-0.63 -0.62,-0.78 -0.89,-0.78 l 0,0 c -0.32,0 -0.75,0.18 -0.89,0.75 -0.1,0.41 -0.1,0.99 -0.1,1.5 0,0.51 0,1.04 0.11,1.42 0.15,0.55 0.59,0.69 0.88,0.69 l 0,0.2 c -1.62,0 -1.62,-1.9 -1.62,-2.4 0,-0.5 0,-2.36 1.62,-2.36 1.61,0 1.61,1.86 1.61,2.36 z"
         id="path3476"
         inkscape:connector-curvature="0"
         style="fill:#000000;stroke-width:0" /></g><g
       style="font-style:normal;font-variant:normal;font-weight:normal;font-stretch:normal;letter-spacing:normal;word-spacing:normal;text-anchor:start;fill:none;fill-opacity:1;fill-rule:evenodd;stroke:#000000;stroke-linecap:butt;stroke-linejoin:miter;stroke-miterlimit:10.43299961;stroke-dasharray:none;stroke-dashoffset:0;stroke-opacity:1"
       ns0:preamble="/home/ken/.config/inkscape/textextpreamble.txt"
       ns0:text="$d$"
       word-spacing="normal"
       letter-spacing="normal"
       font-size-adjust="none"
       font-stretch="normal"
       font-weight="normal"
       font-variant="normal"
       font-style="normal"
       stroke-miterlimit="10.433"
       xml:space="preserve"
       transform="matrix(3.8950321,0,0,5.4013586,-689.73602,-2638.554)"
       id="g3622"><path
         id="path3624"
         d="m 228.57,484.02 0,0 0,0 0,0 0,0 0,0.01 0,0 0,0 -0.01,0.01 0,0 0,0.01 0,0 0,0 0,0.01 0,0 0,0.01 -0.01,0 0,0.01 0,0 -0.01,0.01 0,0 -0.01,0.01 0,0 0,0 0,0 -0.01,0.01 0,0 0,0 -0.01,0 0,0 0,0.01 -0.01,0 0,0 0,0 -0.01,0 0,0 -0.01,0 0,0 -0.01,0.01 0,0 -0.01,0 0,0 -0.01,0 0,0 -0.01,0 0,0 c -0.15,0 -1.1,-0.09 -1.27,-0.11 -0.08,-0.01 -0.14,-0.06 -0.14,-0.19 0,-0.12 0.09,-0.12 0.24,-0.12 0.48,0 0.5,-0.07 0.5,-0.17 l -0.03,-0.2 -0.6,-2.35 c -0.18,0.37 -0.46,0.64 -0.91,0.64 -1.17,0 -2.4,-1.46 -2.4,-2.92 0,-0.93 0.55,-1.58 1.32,-1.58 l 0.02,0.21 c -0.49,0 -0.63,0.55 -0.63,0.94 0,0.49 0.31,1.72 0.54,2.17 0.31,0.59 0.76,0.96 1.16,0.96 0.64,0 0.78,-0.82 0.78,-0.88 0,-0.06 -0.02,-0.12 -0.03,-0.17 l -0.49,-1.94 c -0.05,-0.18 -0.05,-0.2 -0.2,-0.37 -0.44,-0.55 -0.85,-0.71 -1.13,-0.71 l -0.02,-0.21 c 0.2,0 0.7,0.04 1.3,0.74 0.08,-0.42 0.42,-0.74 0.9,-0.74 0.35,0 0.58,0.22 0.74,0.54 0.17,0.36 0.3,0.97 0.3,0.99 0,0.1 -0.09,0.1 -0.12,0.1 -0.1,0 -0.11,-0.05 -0.14,-0.18 -0.17,-0.65 -0.35,-1.24 -0.76,-1.24 -0.27,0 -0.3,0.26 -0.3,0.46 0,0.24 0.02,0.31 0.06,0.48 z"
         inkscape:connector-curvature="0"
         style="fill:#000000;stroke-width:0" /></g><g
       id="g4552"><path
         sodipodi:nodetypes="ccccc"
         d="m 4.300656,57.767414 64,0 0,215.999996 -64,0 z"
         style="fill:#00ffff;stroke:#000000;stroke-width:1.36000001;stroke-linecap:butt;stroke-linejoin:miter;stroke-miterlimit:4;stroke-dasharray:none;stroke-opacity:1"
         id="path14"
         inkscape:connector-curvature="0" /><ellipse
         ry="12.597286"
         rx="32.162174"
         cy="-273.17014"
         cx="36.300655"
         transform="scale(1,-1)"
         id="path3698"
         style="opacity:1;fill:#ffffff;fill-opacity:1;stroke:#000000;stroke-width:0.7217896;stroke-miterlimit:4;stroke-dasharray:none;stroke-dashoffset:0;stroke-opacity:1" /></g><path
       style="fill:none;fill-rule:evenodd;stroke:#000000;stroke-width:2.07999992;stroke-linecap:butt;stroke-linejoin:miter;stroke-miterlimit:4;stroke-dasharray:none;stroke-opacity:1;marker-start:url(#Arrow1Mstart);marker-end:url(#Arrow2Mend)"
       d="m 4.300656,49.76742 64,0 0,0"
       id="path4550"
       inkscape:connector-curvature="0" /><path
       inkscape:connector-curvature="0"
       id="path14-6"
       style="fill:#00ffff;stroke:#000000;stroke-width:1.36000001;stroke-linecap:butt;stroke-linejoin:miter;stroke-miterlimit:4;stroke-dasharray:none;stroke-opacity:1"
       d="m 171.12983,9.2190535 48.02028,0 0,349.7632665 -48.02028,0 z"
       sodipodi:nodetypes="ccccc" /><ellipse
       style="opacity:1;fill:#ffffff;fill-opacity:1;stroke:#000000;stroke-width:0.55148464;stroke-miterlimit:4;stroke-dasharray:none;stroke-dashoffset:0;stroke-opacity:1"
       id="path3698-9"
       transform="scale(1,-1)"
       cx="195.15012"
       cy="-359.41788"
       rx="24.131819"
       ry="9.8011694" /><g
       id="g4353"
       transform="matrix(3.9664447,0,0,4.6980189,-930.76221,-2310.851)"
       xml:space="preserve"
       stroke-miterlimit="10.433"
       font-style="normal"
       font-variant="normal"
       font-weight="normal"
       font-stretch="normal"
       font-size-adjust="none"
       letter-spacing="normal"
       word-spacing="normal"
       ns0:text="$A_0=\\pi d_0^2$"
       ns0:preamble="/home/ken/.config/inkscape/textextpreamble.txt"
       style="font-style:normal;font-variant:normal;font-weight:normal;font-stretch:normal;letter-spacing:normal;word-spacing:normal;text-anchor:start;display:inline;fill:none;fill-opacity:1;fill-rule:evenodd;stroke:#000000;stroke-linecap:butt;stroke-linejoin:miter;stroke-miterlimit:10.43299961;stroke-dasharray:none;stroke-dashoffset:0;stroke-opacity:1"><path
         style="fill:#000000;stroke-width:0"
         inkscape:connector-curvature="0"
         d="m 225.21,478.38 -0.03,-0.06 -0.04,-0.06 -0.04,-0.06 -0.04,-0.05 -0.03,-0.05 -0.04,-0.04 -0.04,-0.05 -0.03,-0.04 -0.04,-0.04 -0.04,-0.04 -0.04,-0.03 -0.03,-0.03 -0.04,-0.03 -0.04,-0.03 -0.04,-0.02 -0.03,-0.03 -0.04,-0.02 -0.04,-0.02 -0.04,-0.02 -0.04,-0.02 -0.03,-0.01 -0.04,-0.01 -0.04,-0.02 -0.04,-0.01 -0.04,-0.01 -0.04,-0.01 -0.04,0 -0.04,-0.01 -0.08,-0.01 -0.08,-0.01 c -0.12,-0.01 -0.21,-0.01 -0.21,-0.2 0,-0.05 0.05,-0.11 0.13,-0.11 0.27,0 0.58,0.04 0.85,0.04 0.33,0 0.68,-0.04 1,-0.04 0.06,0 0.19,0 0.19,0.19 0,0.11 -0.09,0.12 -0.16,0.12 -0.23,0.02 -0.47,0.1 -0.47,0.35 0,0.12 0.06,0.23 0.14,0.37 l 0.76,1.27 2.49,0 -0.03,0.31 -2.27,0 1.96,3.28 0.31,-3.28 0.03,-0.31 c 0.03,-0.21 0.16,-1.56 0.16,-1.66 0,-0.3 -0.51,-0.33 -0.71,-0.33 -0.14,0 -0.24,0 -0.24,-0.2 0,-0.11 0.12,-0.11 0.14,-0.11 0.41,0 0.83,0.04 1.24,0.04 0.25,0 0.88,-0.04 1.13,-0.04 0.06,0 0.17,0 0.17,0.2 0,0.11 -0.09,0.11 -0.22,0.11 -0.62,0 -0.62,0.07 -0.65,0.36 l -0.61,6.21 c -0.02,0.2 -0.02,0.24 -0.19,0.24 -0.16,0 -0.19,-0.07 -0.25,-0.17 z"
         id="path4355" /><path
         style="fill:#000000;stroke-width:0"
         inkscape:connector-curvature="0"
         d="m 234.5,477.96 0,0.14 -0.01,0.14 0,0.13 -0.01,0.12 -0.01,0.13 -0.02,0.12 -0.02,0.11 -0.02,0.11 -0.02,0.11 -0.03,0.11 -0.04,0.1 -0.03,0.1 -0.05,0.1 -0.04,0.09 -0.06,0.1 -0.02,0.04 -0.03,0.05 c -0.22,0.32 -0.65,0.6 -1.21,0.6 l 0,-0.2 c 0.38,0 0.74,-0.23 0.86,-0.63 0.12,-0.38 0.12,-0.88 0.12,-1.48 0,-0.51 0,-1.03 -0.09,-1.47 -0.14,-0.63 -0.61,-0.78 -0.89,-0.78 l 0,0 c -0.32,0 -0.74,0.18 -0.88,0.75 -0.1,0.41 -0.1,0.99 -0.1,1.5 0,0.51 0,1.04 0.1,1.42 0.15,0.55 0.6,0.69 0.88,0.69 l 0,0.2 c -1.61,0 -1.61,-1.9 -1.61,-2.4 0,-0.5 0,-2.36 1.61,-2.36 1.62,0 1.62,1.86 1.62,2.36 z"
         id="path4357" /><path
         style="fill:#000000;stroke-width:0"
         inkscape:connector-curvature="0"
         d="m 244.98,480.48 0.02,0 0.03,0 0.03,0 0.02,0.01 0.01,0 0.02,0 0.01,0 0.01,0 0.02,0 0.01,0.01 0.02,0 0.01,0 0.01,0.01 0.01,0 0.01,0.01 0.02,0 0.01,0.01 0.01,0.01 0.01,0.01 0,0.01 0.01,0.01 0.01,0 0,0.01 0,0 0.01,0.01 0,0.01 0,0 0,0.01 0.01,0.01 0,0 0,0.01 0,0.01 0,0.01 0,0.01 0,0 0,0.01 0,0.01 c 0,0.2 -0.19,0.2 -0.32,0.2 l -5.96,0 c -0.14,0 -0.33,0 -0.33,-0.2 0,-0.2 0.19,-0.2 0.34,-0.2 z"
         id="path4359" /><path
         style="fill:#000000;stroke-width:0"
         inkscape:connector-curvature="0"
         d="m 244.99,478.56 0.01,0 0.01,0 0.03,0 0.03,0 0.01,0 0.02,0 0.01,0 0.01,0 0.02,0 0.01,0.01 0.01,0 0.02,0 0.01,0.01 0.01,0 0.01,0.01 0.02,0 0.01,0.01 0.01,0 0.01,0.01 0.01,0.01 0,0.01 0.01,0 0,0.01 0.01,0.01 0,0 0,0.01 0.01,0 0,0.01 0,0.01 0,0 0.01,0.01 0,0.01 0,0 0,0.01 0,0.01 0,0.01 0,0.01 0,0.01 0,0.01 c 0,0.19 -0.19,0.19 -0.33,0.19 l -5.94,0 c -0.15,0 -0.34,0 -0.34,-0.19 0,-0.2 0.19,-0.2 0.33,-0.2 z"
         id="path4361" /><path
         style="fill:#000000;stroke-width:0"
         inkscape:connector-curvature="0"
         d="m 251.29,480.94 1.13,0 c -0.33,-1.47 -0.42,-1.9 -0.42,-2.56 0,-0.15 0,-0.42 0.08,-0.76 0.1,-0.44 0.21,-0.49 0.36,-0.49 0.2,0 0.41,0.17 0.41,0.37 0,0.06 0,0.08 -0.06,0.22 -0.29,0.72 -0.29,1.36 -0.29,1.64 0,0.53 0.07,1.06 0.18,1.58 l 1.13,0 c 0.13,0 0.49,0 0.49,0.34 0,0.24 -0.21,0.24 -0.4,0.24 l -3.33,0 c -0.22,0 -0.6,0 -1.04,-0.47 -0.35,-0.39 -0.6,-0.85 -0.6,-0.89 0,-0.01 0,-0.1 0.11,-0.1 0.08,0 0.11,0.04 0.16,0.11 0.49,0.77 1.07,0.77 1.27,0.77 l 0.57,0 c -0.32,-1.2 -0.86,-2.4 -1.28,-3.31 -0.08,-0.15 -0.08,-0.17 -0.08,-0.24 0,-0.19 0.16,-0.26 0.29,-0.26 0.3,0 0.38,0.27 0.5,0.64 0.14,0.46 0.14,0.48 0.27,0.97 z"
         id="path4363" /><path
         style="fill:#000000;stroke-width:0"
         inkscape:connector-curvature="0"
         d="m 259.83,484.02 0,0 0,0 0,0 0,0 0,0.01 0,0 0,0 0,0.01 0,0 0,0.01 -0.01,0 0,0 0,0.01 0,0 0,0.01 -0.01,0 0,0.01 0,0 0,0.01 -0.01,0 0,0.01 -0.01,0 0,0 0,0 0,0.01 -0.01,0 0,0 0,0 -0.01,0 0,0.01 0,0 -0.01,0 0,0 -0.01,0 0,0 0,0 -0.01,0 0,0.01 -0.01,0 0,0 -0.01,0 0,0 -0.01,0 -0.01,0 0,0 c -0.15,0 -1.1,-0.09 -1.27,-0.11 -0.07,-0.01 -0.13,-0.06 -0.13,-0.19 0,-0.12 0.09,-0.12 0.24,-0.12 0.47,0 0.49,-0.07 0.49,-0.17 l -0.03,-0.2 -0.6,-2.35 c -0.17,0.37 -0.46,0.64 -0.91,0.64 -1.16,0 -2.4,-1.46 -2.4,-2.92 0,-0.93 0.55,-1.58 1.33,-1.58 l 0.01,0.21 c -0.49,0 -0.63,0.55 -0.63,0.94 0,0.49 0.32,1.72 0.55,2.17 0.3,0.59 0.75,0.96 1.15,0.96 0.65,0 0.79,-0.82 0.79,-0.88 0,-0.06 -0.02,-0.12 -0.03,-0.17 l -0.5,-1.94 c -0.05,-0.18 -0.05,-0.2 -0.2,-0.37 -0.44,-0.55 -0.85,-0.71 -1.13,-0.71 l -0.01,-0.21 c 0.19,0 0.69,0.04 1.29,0.74 0.08,-0.42 0.43,-0.74 0.9,-0.74 0.35,0 0.58,0.22 0.74,0.54 0.17,0.36 0.3,0.97 0.3,0.99 0,0.1 -0.09,0.1 -0.12,0.1 -0.1,0 -0.11,-0.05 -0.14,-0.18 -0.17,-0.65 -0.35,-1.24 -0.76,-1.24 -0.26,0 -0.29,0.26 -0.29,0.46 0,0.24 0.02,0.31 0.05,0.48 z"
         id="path4365" /><path
         style="fill:#000000;stroke-width:0"
         inkscape:connector-curvature="0"
         d="m 263.4,482.12 -0.24,0 c -0.02,-0.16 -0.09,-0.57 -0.18,-0.64 -0.06,-0.04 -0.59,-0.04 -0.69,-0.04 l -1.28,0 c 0.73,0.65 0.97,0.84 1.39,1.17 0.52,0.41 1,0.84 1,1.5 0,0.84 -0.74,1.36 -1.63,1.36 -0.87,0 -1.45,-0.61 -1.45,-1.25 0,-0.35 0.3,-0.39 0.37,-0.39 0.16,0 0.37,0.12 0.37,0.37 0,0.13 -0.05,0.37 -0.42,0.37 0.22,0.5 0.69,0.65 1.02,0.65 0.7,0 1.06,-0.54 1.06,-1.11 0,-0.6 -0.43,-1.08 -0.65,-1.33 l -1.68,-1.66 c -0.07,-0.06 -0.07,-0.07 -0.07,-0.27 l 2.87,0 z"
         id="path4367" /><path
         style="fill:#000000;stroke-width:0"
         inkscape:connector-curvature="0"
         d="m 263.47,476.98 0,0.14 0,0.14 -0.01,0.13 -0.01,0.13 -0.01,0.12 -0.01,0.12 -0.02,0.11 -0.02,0.12 -0.03,0.1 -0.03,0.11 -0.03,0.1 -0.04,0.1 -0.04,0.1 -0.05,0.1 -0.05,0.09 -0.03,0.05 -0.03,0.04 c -0.21,0.32 -0.65,0.6 -1.2,0.6 l 0,-0.19 c 0.37,0 0.74,-0.23 0.86,-0.64 0.11,-0.37 0.12,-0.87 0.12,-1.48 0,-0.51 0,-1.03 -0.09,-1.47 -0.14,-0.63 -0.61,-0.78 -0.89,-0.78 l 0,0 c -0.32,0 -0.75,0.19 -0.89,0.76 -0.09,0.41 -0.09,0.98 -0.09,1.49 0,0.51 0,1.04 0.1,1.42 0.15,0.55 0.59,0.7 0.88,0.7 l 0,0.19 c -1.62,0 -1.62,-1.9 -1.62,-2.4 0,-0.5 0,-2.36 1.62,-2.36 1.61,0 1.61,1.86 1.61,2.36 z"
         id="path4369" /></g><g
       style="font-style:normal;font-variant:normal;font-weight:normal;font-stretch:normal;letter-spacing:normal;word-spacing:normal;text-anchor:start;display:inline;fill:none;fill-opacity:1;fill-rule:evenodd;stroke:#000000;stroke-linecap:butt;stroke-linejoin:miter;stroke-miterlimit:10.43299961;stroke-dasharray:none;stroke-dashoffset:0;stroke-opacity:1"
       ns0:preamble="/home/ken/.config/inkscape/textextpreamble.txt"
       ns0:text="$A_0=\\pi d^2$"
       word-spacing="normal"
       letter-spacing="normal"
       font-size-adjust="none"
       font-stretch="normal"
       font-weight="normal"
       font-variant="normal"
       font-style="normal"
       stroke-miterlimit="10.433"
       xml:space="preserve"
       transform="matrix(3.9664447,0,0,4.6980189,-638.29022,-2305.9439)"
       id="g4582"><path
         id="path4584"
         d="m 225.21,478.38 -0.03,-0.06 -0.04,-0.06 -0.04,-0.06 -0.04,-0.05 -0.03,-0.05 -0.04,-0.04 -0.04,-0.05 -0.03,-0.04 -0.04,-0.04 -0.04,-0.04 -0.04,-0.03 -0.03,-0.03 -0.04,-0.03 -0.04,-0.03 -0.04,-0.02 -0.03,-0.03 -0.04,-0.02 -0.04,-0.02 -0.04,-0.02 -0.04,-0.02 -0.03,-0.01 -0.04,-0.01 -0.04,-0.02 -0.04,-0.01 -0.04,-0.01 -0.04,-0.01 -0.04,0 -0.04,-0.01 -0.08,-0.01 -0.08,-0.01 c -0.12,-0.01 -0.21,-0.01 -0.21,-0.2 0,-0.05 0.05,-0.11 0.13,-0.11 0.27,0 0.58,0.04 0.85,0.04 0.33,0 0.68,-0.04 1,-0.04 0.06,0 0.19,0 0.19,0.19 0,0.11 -0.09,0.12 -0.16,0.12 -0.23,0.02 -0.47,0.1 -0.47,0.35 0,0.12 0.06,0.23 0.14,0.37 l 0.76,1.27 2.49,0 -0.03,0.31 -2.27,0 1.96,3.28 0.31,-3.28 0.03,-0.31 c 0.03,-0.21 0.16,-1.56 0.16,-1.66 0,-0.3 -0.51,-0.33 -0.71,-0.33 -0.14,0 -0.24,0 -0.24,-0.2 0,-0.11 0.12,-0.11 0.14,-0.11 0.41,0 0.83,0.04 1.24,0.04 0.25,0 0.88,-0.04 1.13,-0.04 0.06,0 0.17,0 0.17,0.2 0,0.11 -0.09,0.11 -0.22,0.11 -0.62,0 -0.62,0.07 -0.65,0.36 l -0.61,6.21 c -0.02,0.2 -0.02,0.24 -0.19,0.24 -0.16,0 -0.19,-0.07 -0.25,-0.17 z"
         inkscape:connector-curvature="0"
         style="fill:#000000;stroke-width:0" /><path
         id="path4586"
         d="m 234.5,477.96 0,0.14 -0.01,0.14 0,0.13 -0.01,0.12 -0.01,0.13 -0.02,0.12 -0.02,0.11 -0.02,0.11 -0.02,0.11 -0.03,0.11 -0.04,0.1 -0.03,0.1 -0.05,0.1 -0.04,0.09 -0.06,0.1 -0.02,0.04 -0.03,0.05 c -0.22,0.32 -0.65,0.6 -1.21,0.6 l 0,-0.2 c 0.38,0 0.74,-0.23 0.86,-0.63 0.12,-0.38 0.12,-0.88 0.12,-1.48 0,-0.51 0,-1.03 -0.09,-1.47 -0.14,-0.63 -0.61,-0.78 -0.89,-0.78 l 0,0 c -0.32,0 -0.74,0.18 -0.88,0.75 -0.1,0.41 -0.1,0.99 -0.1,1.5 0,0.51 0,1.04 0.1,1.42 0.15,0.55 0.6,0.69 0.88,0.69 l 0,0.2 c -1.61,0 -1.61,-1.9 -1.61,-2.4 0,-0.5 0,-2.36 1.61,-2.36 1.62,0 1.62,1.86 1.62,2.36 z"
         inkscape:connector-curvature="0"
         style="fill:#000000;stroke-width:0" /><path
         id="path4588"
         d="m 244.98,480.48 0.02,0 0.03,0 0.03,0 0.02,0.01 0.01,0 0.02,0 0.01,0 0.01,0 0.02,0 0.01,0.01 0.02,0 0.01,0 0.01,0.01 0.01,0 0.01,0.01 0.02,0 0.01,0.01 0.01,0.01 0.01,0.01 0,0.01 0.01,0.01 0.01,0 0,0.01 0,0 0.01,0.01 0,0.01 0,0 0,0.01 0.01,0.01 0,0 0,0.01 0,0.01 0,0.01 0,0.01 0,0 0,0.01 0,0.01 c 0,0.2 -0.19,0.2 -0.32,0.2 l -5.96,0 c -0.14,0 -0.33,0 -0.33,-0.2 0,-0.2 0.19,-0.2 0.34,-0.2 z"
         inkscape:connector-curvature="0"
         style="fill:#000000;stroke-width:0" /><path
         id="path4590"
         d="m 244.99,478.56 0.01,0 0.01,0 0.03,0 0.03,0 0.01,0 0.02,0 0.01,0 0.01,0 0.02,0 0.01,0.01 0.01,0 0.02,0 0.01,0.01 0.01,0 0.01,0.01 0.02,0 0.01,0.01 0.01,0 0.01,0.01 0.01,0.01 0,0.01 0.01,0 0,0.01 0.01,0.01 0,0 0,0.01 0.01,0 0,0.01 0,0.01 0,0 0.01,0.01 0,0.01 0,0 0,0.01 0,0.01 0,0.01 0,0.01 0,0.01 0,0.01 c 0,0.19 -0.19,0.19 -0.33,0.19 l -5.94,0 c -0.15,0 -0.34,0 -0.34,-0.19 0,-0.2 0.19,-0.2 0.33,-0.2 z"
         inkscape:connector-curvature="0"
         style="fill:#000000;stroke-width:0" /><path
         id="path4592"
         d="m 251.29,480.94 1.13,0 c -0.33,-1.47 -0.42,-1.9 -0.42,-2.56 0,-0.15 0,-0.42 0.08,-0.76 0.1,-0.44 0.21,-0.49 0.36,-0.49 0.2,0 0.41,0.17 0.41,0.37 0,0.06 0,0.08 -0.06,0.22 -0.29,0.72 -0.29,1.36 -0.29,1.64 0,0.53 0.07,1.06 0.18,1.58 l 1.13,0 c 0.13,0 0.49,0 0.49,0.34 0,0.24 -0.21,0.24 -0.4,0.24 l -3.33,0 c -0.22,0 -0.6,0 -1.04,-0.47 -0.35,-0.39 -0.6,-0.85 -0.6,-0.89 0,-0.01 0,-0.1 0.11,-0.1 0.08,0 0.11,0.04 0.16,0.11 0.49,0.77 1.07,0.77 1.27,0.77 l 0.57,0 c -0.32,-1.2 -0.86,-2.4 -1.28,-3.31 -0.08,-0.15 -0.08,-0.17 -0.08,-0.24 0,-0.19 0.16,-0.26 0.29,-0.26 0.3,0 0.38,0.27 0.5,0.64 0.14,0.46 0.14,0.48 0.27,0.97 z"
         inkscape:connector-curvature="0"
         style="fill:#000000;stroke-width:0" /><path
         id="path4594"
         d="m 259.83,484.02 0,0 0,0 0,0 0,0 0,0.01 0,0 0,0 0,0.01 0,0 0,0.01 -0.01,0 0,0 0,0.01 0,0 0,0.01 -0.01,0 0,0.01 0,0 0,0.01 -0.01,0 0,0.01 -0.01,0 0,0 0,0 0,0.01 -0.01,0 0,0 0,0 -0.01,0 0,0.01 0,0 -0.01,0 0,0 -0.01,0 0,0 0,0 -0.01,0 0,0.01 -0.01,0 0,0 -0.01,0 0,0 -0.01,0 -0.01,0 0,0 c -0.15,0 -1.1,-0.09 -1.27,-0.11 -0.07,-0.01 -0.13,-0.06 -0.13,-0.19 0,-0.12 0.09,-0.12 0.24,-0.12 0.47,0 0.49,-0.07 0.49,-0.17 l -0.03,-0.2 -0.6,-2.35 c -0.17,0.37 -0.46,0.64 -0.91,0.64 -1.16,0 -2.4,-1.46 -2.4,-2.92 0,-0.93 0.55,-1.58 1.33,-1.58 l 0.01,0.21 c -0.49,0 -0.63,0.55 -0.63,0.94 0,0.49 0.32,1.72 0.55,2.17 0.3,0.59 0.75,0.96 1.15,0.96 0.65,0 0.79,-0.82 0.79,-0.88 0,-0.06 -0.02,-0.12 -0.03,-0.17 l -0.5,-1.94 c -0.05,-0.18 -0.05,-0.2 -0.2,-0.37 -0.44,-0.55 -0.85,-0.71 -1.13,-0.71 l -0.01,-0.21 c 0.19,0 0.69,0.04 1.29,0.74 0.08,-0.42 0.43,-0.74 0.9,-0.74 0.35,0 0.58,0.22 0.74,0.54 0.17,0.36 0.3,0.97 0.3,0.99 0,0.1 -0.09,0.1 -0.12,0.1 -0.1,0 -0.11,-0.05 -0.14,-0.18 -0.17,-0.65 -0.35,-1.24 -0.76,-1.24 -0.26,0 -0.29,0.26 -0.29,0.46 0,0.24 0.02,0.31 0.05,0.48 z"
         inkscape:connector-curvature="0"
         style="fill:#000000;stroke-width:0" /><path
         id="path4596"
         d="m 263.4,482.12 -0.24,0 c -0.02,-0.16 -0.09,-0.57 -0.18,-0.64 -0.06,-0.04 -0.59,-0.04 -0.69,-0.04 l -1.28,0 c 0.73,0.65 0.97,0.84 1.39,1.17 0.52,0.41 1,0.84 1,1.5 0,0.84 -0.74,1.36 -1.63,1.36 -0.87,0 -1.45,-0.61 -1.45,-1.25 0,-0.35 0.3,-0.39 0.37,-0.39 0.16,0 0.37,0.12 0.37,0.37 0,0.13 -0.05,0.37 -0.42,0.37 0.22,0.5 0.69,0.65 1.02,0.65 0.7,0 1.06,-0.54 1.06,-1.11 0,-0.6 -0.43,-1.08 -0.65,-1.33 l -1.68,-1.66 c -0.07,-0.06 -0.07,-0.07 -0.07,-0.27 l 2.87,0 z"
         inkscape:connector-curvature="0"
         style="fill:#000000;stroke-width:0" /></g></g></svg>