<?xml version="1.0" encoding="UTF-8" standalone="no"?>
<!-- Created with Inkscape (http://www.inkscape.org/) -->

<svg
   xmlns:ns0="http://www.iki.fi/pav/software/textext/"
   xmlns:dc="http://purl.org/dc/elements/1.1/"
   xmlns:cc="http://creativecommons.org/ns#"
   xmlns:rdf="http://www.w3.org/1999/02/22-rdf-syntax-ns#"
   xmlns:svg="http://www.w3.org/2000/svg"
   xmlns="http://www.w3.org/2000/svg"
   xmlns:sodipodi="http://sodipodi.sourceforge.net/DTD/sodipodi-0.dtd"
   xmlns:inkscape="http://www.inkscape.org/namespaces/inkscape"
   id="svg2"
   version="1.1"
   inkscape:version="0.91 r"
   xml:space="preserve"
   width="622.83795"
   height="500.85098"
   viewBox="0 0 622.83795 500.85098"
   sodipodi:docname="diagphi.svg"><sodipodi:namedview
     pagecolor="#ffffff"
     bordercolor="#666666"
     borderopacity="1"
     objecttolerance="10"
     gridtolerance="10"
     guidetolerance="10"
     inkscape:pageopacity="0"
     inkscape:pageshadow="2"
     inkscape:window-width="1920"
     inkscape:window-height="1053"
     id="namedview4"
     showgrid="false"
     inkscape:zoom="1.3350176"
     inkscape:cx="249.04846"
     inkscape:cy="224.30175"
     inkscape:window-x="0"
     inkscape:window-y="0"
     inkscape:window-maximized="1"
     inkscape:current-layer="g10" /><metadata
     id="metadata8"><rdf:RDF><cc:Work
         rdf:about=""><dc:format>image/svg+xml</dc:format><dc:type
           rdf:resource="http://purl.org/dc/dcmitype/StillImage" /><dc:title></dc:title></cc:Work></rdf:RDF></metadata><defs
     id="defs6"><clipPath
       clipPathUnits="userSpaceOnUse"
       id="clipPath18"><path
         d="m 5,0 4835,0 0,4000 L 5,4000 5,0 Z"
         id="path20"
         inkscape:connector-curvature="0" /></clipPath><clipPath
       clipPathUnits="userSpaceOnUse"
       id="clipPath52"><path
         d="m 339.168,443.332 4464.16,0 0,3522.5 -4464.16,0 0,-3522.5 z"
         id="path54"
         inkscape:connector-curvature="0" /></clipPath><clipPath
       clipPathUnits="userSpaceOnUse"
       id="clipPath70"><path
         d="m 5,0 4835,0 0,4000 L 5,4000 5,0 Z"
         id="path72"
         inkscape:connector-curvature="0" /></clipPath></defs><g
     id="g10"
     inkscape:groupmode="layer"
     inkscape:label="ink_ext_XXXXXX"
     transform="matrix(1.25,0,0,-1.25,17.837944,500)"><g
       id="g14"
       transform="scale(0.1,0.1)"><g
         clip-path="url(#clipPath18)"
         id="g16"><path
           inkscape:connector-curvature="0"
           id="path22"
           style="fill:#ffffff;fill-opacity:1;fill-rule:nonzero;stroke:none"
           d="m 5,0 4835,0 0,4000 L 5,4000 5,0 Z" /><path
           inkscape:connector-curvature="0"
           id="path24"
           style="fill:#ffffff;fill-opacity:1;fill-rule:evenodd;stroke:none"
           d="m 339.168,444.168 4463.33,0 0,3521.66 -4463.33,0 0,-3521.66 z" /><path
           inkscape:connector-curvature="0"
           id="path26"
           style="fill:none;stroke:#ffffff;stroke-width:5;stroke-linecap:butt;stroke-linejoin:round;stroke-miterlimit:10;stroke-dasharray:none;stroke-opacity:1"
           d="m 339.168,444.168 0,3521.662 4463.332,0 0,-3521.662 -4463.332,0" /><path
           inkscape:connector-curvature="0"
           id="path28"
           style="fill:none;stroke:#000000;stroke-width:5;stroke-linecap:butt;stroke-linejoin:round;stroke-miterlimit:10;stroke-dasharray:none;stroke-opacity:1"
           d="m 339.168,444.168 4463.332,0" /><path
           inkscape:connector-curvature="0"
           id="path30"
           style="fill:none;stroke:#000000;stroke-width:5;stroke-linecap:butt;stroke-linejoin:round;stroke-miterlimit:10;stroke-dasharray:none;stroke-opacity:1"
           d="m 339.168,3965.83 4463.332,0" /><path
           inkscape:connector-curvature="0"
           id="path32"
           style="fill:none;stroke:#000000;stroke-width:5;stroke-linecap:butt;stroke-linejoin:round;stroke-miterlimit:10;stroke-dasharray:none;stroke-opacity:1"
           d="m 339.168,444.168 0,3521.662" /><path
           inkscape:connector-curvature="0"
           id="path34"
           style="fill:none;stroke:#000000;stroke-width:5;stroke-linecap:butt;stroke-linejoin:round;stroke-miterlimit:10;stroke-dasharray:none;stroke-opacity:1"
           d="m 4802.5,444.168 0,3521.662" /><path
           inkscape:connector-curvature="0"
           id="path36"
           style="fill:none;stroke:#000000;stroke-width:5;stroke-linecap:butt;stroke-linejoin:round;stroke-miterlimit:10;stroke-dasharray:none;stroke-opacity:1"
           d="m 339.168,444.168 4463.332,0" /><path
           inkscape:connector-curvature="0"
           id="path38"
           style="fill:none;stroke:#000000;stroke-width:5;stroke-linecap:butt;stroke-linejoin:round;stroke-miterlimit:10;stroke-dasharray:none;stroke-opacity:1"
           d="m 339.168,444.168 0,3521.662" /><path
           inkscape:connector-curvature="0"
           id="path40"
           style="fill:none;stroke:#000000;stroke-width:5;stroke-linecap:butt;stroke-linejoin:round;stroke-miterlimit:10;stroke-dasharray:none;stroke-opacity:1"
           d="m 339.168,444.168 4463.332,0" /><path
           inkscape:connector-curvature="0"
           id="path42"
           style="fill:none;stroke:#000000;stroke-width:5;stroke-linecap:butt;stroke-linejoin:round;stroke-miterlimit:10;stroke-dasharray:none;stroke-opacity:1"
           d="m 339.168,3965.83 4463.332,0" /><path
           inkscape:connector-curvature="0"
           id="path44"
           style="fill:none;stroke:#000000;stroke-width:5;stroke-linecap:butt;stroke-linejoin:round;stroke-miterlimit:10;stroke-dasharray:none;stroke-opacity:1"
           d="m 339.168,444.168 0,3521.662" /><path
           inkscape:connector-curvature="0"
           id="path46"
           style="fill:none;stroke:#000000;stroke-width:5;stroke-linecap:butt;stroke-linejoin:round;stroke-miterlimit:10;stroke-dasharray:none;stroke-opacity:1"
           d="m 4802.5,444.168 0,3521.662" /></g></g><g
       id="g48"
       transform="scale(0.1,0.1)"><g
         clip-path="url(#clipPath52)"
         id="g50"><path
           inkscape:connector-curvature="0"
           id="path56"
           style="fill:none;stroke:#0000ff;stroke-width:20;stroke-linecap:butt;stroke-linejoin:round;stroke-miterlimit:10;stroke-dasharray:none;stroke-opacity:1"
           d="m 343.332,457.5 44.168,126.668 45,123.332 45,121.668 44.168,119.164 45,115.838 44.164,114.16 45,110.84 44.168,108.33 45,106.67 44.168,103.33 45,100.83 45,98.34 44.164,95.83 45,93.33 44.168,90.84 45,87.5 44.17,85.83 45,83.33 44.16,80 45,77.5 45,75.84 44.17,72.5 45,70 44.17,67.5 45,65.83 44.16,62.5 45,59.17 45,57.5 44.17,55 45,52.5 44.17,49.16 45,47.5 44.16,44.17 45,42.5 44.17,39.17 45,36.66 45,35 44.17,31.67 45,29.17 44.16,26.66 45,24.17 44.17,20.83 45,19.17 44.17,16.67 45,13.33 45,11.67 44.16,8.33 45,6.67 44.17,3.33 45,0.83 44.17,-1.66 45,-3.34 45,-6.66 44.16,-10 45,-11.67 44.17,-14.17 45,-16.66 44.17,-20 45,-21.67 44.16,-24.17 45,-27.5 45,-30 44.17,-31.66 45,-35 44.17,-37.5 45,-40 44.16,-42.5 45,-45 44.17,-47.5 45,-50.84 45,-52.5 44.17,-55 45,-58.33 44.16,-60 45,-63.33 44.17,-65.84 45,-67.5 45,-70.83 44.17,-73.33 45,-75.84 44.16,-78.33 45,-80.83 44.17,-83.34 45,-86.66 44.17,-88.34 45,-90.83 45,-94.17 44.16,-95.83 45,-99.17 44.17,-101.66 45,-104.17 44.17,-105.83 45,-109.17 44.16,-111.67 45,-114.16 45,-117.502 44.17,-119.168 45,-121.668 44.17,-124.164" /><path
           inkscape:connector-curvature="0"
           id="path58"
           style="fill:none;stroke:#000000;stroke-width:20;stroke-linecap:butt;stroke-linejoin:round;stroke-miterlimit:10;stroke-dasharray:5, 40;stroke-dashoffset:0;stroke-opacity:1"
           d="m 339.168,3645.83 2231.662,0" /><path
           inkscape:connector-curvature="0"
           id="path60"
           style="fill:none;stroke:#000000;stroke-width:20;stroke-linecap:butt;stroke-linejoin:round;stroke-miterlimit:10;stroke-dasharray:5, 40;stroke-dashoffset:0;stroke-opacity:1"
           d="m 343.332,2365.83 4418.338,0" /><path
           inkscape:connector-curvature="0"
           id="path62"
           style="fill:none;stroke:#000000;stroke-width:20;stroke-linecap:butt;stroke-linejoin:round;stroke-miterlimit:10;stroke-dasharray:5, 40;stroke-dashoffset:0;stroke-opacity:1"
           d="m 1159.17,444.168 0,1921.662" /><path
           inkscape:connector-curvature="0"
           id="path64"
           style="fill:none;stroke:#000000;stroke-width:20;stroke-linecap:butt;stroke-linejoin:round;stroke-miterlimit:10;stroke-dasharray:5, 40;stroke-dashoffset:0;stroke-opacity:1"
           d="m 3981.67,444.168 0,1921.662" /></g></g><g
       style="font-style:normal;font-variant:normal;font-weight:normal;font-stretch:normal;letter-spacing:normal;word-spacing:normal;text-anchor:start;fill:none;fill-opacity:1;fill-rule:evenodd;stroke:#000000;stroke-linecap:butt;stroke-linejoin:miter;stroke-miterlimit:10.43299961;stroke-dasharray:none;stroke-dashoffset:0;stroke-opacity:1"
       id="content"
       transform="matrix(3.4265624,0,0,3.4265624,-780.68955,-1403.982)"
       xml:space="preserve"
       stroke-miterlimit="10.433"
       font-style="normal"
       font-variant="normal"
       font-weight="normal"
       font-stretch="normal"
       font-size-adjust="none"
       letter-spacing="normal"
       word-spacing="normal"
       ns0:text="$T_0$"
       ns0:preamble="/home/ken/.config/inkscape/textextpreamble.txt"><path
         style="fill:#000000;stroke-width:0"
         inkscape:connector-curvature="0"
         d="m 227.68,483.27 0.01,0.02 0,0.02 0.01,0.03 0.01,0.02 0,0.02 0.01,0.02 0,0.02 0.01,0.02 0,0.01 0.01,0.02 0.01,0.01 0,0.02 0.01,0.01 0,0.01 0.01,0.01 0.01,0.01 0,0.01 0.01,0.01 0.01,0.01 0,0.01 0.01,0 0.01,0.01 0,0.01 0.01,0 0.01,0.01 0.01,0 0.01,0.01 0.01,0 0.01,0 0.01,0.01 0.01,0 0.01,0 c 0.09,0.02 0.42,0.02 0.63,0.02 1,0 1.45,-0.04 1.45,-0.81 0,-0.15 -0.04,-0.54 -0.08,-0.8 -0.01,-0.04 -0.03,-0.16 -0.03,-0.19 0,-0.05 0.03,-0.12 0.12,-0.12 0.11,0 0.13,0.07 0.15,0.22 l 0.27,1.73 c 0.01,0.04 0.02,0.14 0.02,0.17 0,0.11 -0.1,0.11 -0.27,0.11 l -5.52,0 c -0.24,0 -0.25,-0.01 -0.32,-0.2 l -0.6,-1.75 c -0.01,-0.02 -0.06,-0.16 -0.06,-0.18 0,-0.06 0.05,-0.1 0.12,-0.1 0.1,0 0.11,0.04 0.17,0.2 0.54,1.54 0.8,1.72 2.27,1.72 l 0.39,0 c 0.27,0 0.27,-0.04 0.27,-0.12 0,-0.06 -0.03,-0.18 -0.04,-0.21 l -1.33,-5.3 c -0.09,-0.37 -0.12,-0.48 -1.18,-0.48 -0.36,0 -0.42,0 -0.42,-0.19 0,-0.12 0.11,-0.12 0.17,-0.12 0.27,0 0.55,0.03 0.81,0.03 0.28,0 0.57,0.01 0.85,0.01 0.28,0 0.56,-0.01 0.83,-0.01 0.28,0 0.58,-0.03 0.86,-0.03 0.1,0 0.22,0 0.22,0.2 0,0.11 -0.08,0.11 -0.34,0.11 -0.25,0 -0.38,0 -0.64,0.02 -0.28,0.03 -0.36,0.06 -0.36,0.22 0,0.01 0,0.06 0.04,0.21 z"
         id="path4372" /><path
         style="fill:#000000;stroke-width:0"
         inkscape:connector-curvature="0"
         d="m 232.85,477.96 0,0.14 -0.01,0.14 0,0.13 -0.01,0.12 -0.01,0.13 -0.02,0.12 -0.02,0.11 -0.02,0.11 -0.02,0.11 -0.03,0.11 -0.04,0.1 -0.03,0.1 -0.05,0.1 -0.04,0.09 -0.06,0.1 -0.02,0.04 -0.03,0.05 c -0.22,0.32 -0.65,0.6 -1.21,0.6 l 0,-0.2 c 0.38,0 0.74,-0.23 0.87,-0.63 0.11,-0.38 0.11,-0.88 0.11,-1.48 0,-0.51 0,-1.03 -0.09,-1.47 -0.14,-0.63 -0.61,-0.78 -0.89,-0.78 l 0,0 c -0.32,0 -0.74,0.18 -0.88,0.75 -0.1,0.41 -0.1,0.99 -0.1,1.5 0,0.51 0,1.04 0.1,1.42 0.15,0.55 0.6,0.69 0.88,0.69 l 0,0.2 c -1.61,0 -1.61,-1.9 -1.61,-2.4 0,-0.5 0,-2.36 1.61,-2.36 1.62,0 1.62,1.86 1.62,2.36 z"
         id="path4374" /></g><g
       style="font-style:normal;font-variant:normal;font-weight:normal;font-stretch:normal;letter-spacing:normal;word-spacing:normal;text-anchor:start;fill:none;fill-opacity:1;fill-rule:evenodd;stroke:#000000;stroke-linecap:butt;stroke-linejoin:miter;stroke-miterlimit:10.43299961;stroke-dasharray:none;stroke-dashoffset:0;stroke-opacity:1"
       ns0:preamble="/home/ken/.config/inkscape/textextpreamble.txt"
       ns0:text="$T_c$"
       word-spacing="normal"
       letter-spacing="normal"
       font-size-adjust="none"
       font-stretch="normal"
       font-weight="normal"
       font-variant="normal"
       font-style="normal"
       stroke-miterlimit="10.433"
       xml:space="preserve"
       transform="matrix(3.4265624,0,0,3.4265624,-777.35319,-1276.0609)"
       id="g4487"><path
         id="path4489"
         d="m 227.68,483.27 0.01,0.02 0,0.02 0.01,0.03 0.01,0.02 0,0.02 0.01,0.02 0,0.02 0.01,0.02 0,0.01 0.01,0.02 0.01,0.01 0,0.02 0.01,0.01 0,0.01 0.01,0.01 0.01,0.01 0,0.01 0.01,0.01 0.01,0.01 0,0.01 0.01,0 0.01,0.01 0,0.01 0.01,0 0.01,0.01 0.01,0 0.01,0.01 0.01,0 0.01,0 0.01,0.01 0.01,0 0.01,0 c 0.09,0.02 0.42,0.02 0.63,0.02 1,0 1.45,-0.04 1.45,-0.81 0,-0.15 -0.04,-0.54 -0.08,-0.8 -0.01,-0.04 -0.03,-0.16 -0.03,-0.19 0,-0.05 0.03,-0.12 0.12,-0.12 0.11,0 0.13,0.07 0.15,0.22 l 0.27,1.73 c 0.01,0.04 0.02,0.14 0.02,0.17 0,0.11 -0.1,0.11 -0.27,0.11 l -5.52,0 c -0.24,0 -0.25,-0.01 -0.32,-0.2 l -0.6,-1.75 c -0.01,-0.02 -0.06,-0.16 -0.06,-0.18 0,-0.06 0.05,-0.1 0.12,-0.1 0.1,0 0.11,0.04 0.17,0.2 0.54,1.54 0.8,1.72 2.27,1.72 l 0.39,0 c 0.27,0 0.27,-0.04 0.27,-0.12 0,-0.06 -0.03,-0.18 -0.04,-0.21 l -1.33,-5.3 c -0.09,-0.37 -0.12,-0.48 -1.18,-0.48 -0.36,0 -0.42,0 -0.42,-0.19 0,-0.12 0.11,-0.12 0.17,-0.12 0.27,0 0.55,0.03 0.81,0.03 0.28,0 0.57,0.01 0.85,0.01 0.28,0 0.56,-0.01 0.83,-0.01 0.28,0 0.58,-0.03 0.86,-0.03 0.1,0 0.22,0 0.22,0.2 0,0.11 -0.08,0.11 -0.34,0.11 -0.25,0 -0.38,0 -0.64,0.02 -0.28,0.03 -0.36,0.06 -0.36,0.22 0,0.01 0,0.06 0.04,0.21 z"
         inkscape:connector-curvature="0"
         style="fill:#000000;stroke-width:0" /><path
         id="path4491"
         d="m 232.3,478.4 -0.02,0 -0.02,-0.01 -0.02,0 -0.02,-0.01 -0.02,-0.01 -0.02,0 -0.02,-0.01 -0.02,-0.01 -0.01,-0.01 -0.02,-0.01 -0.01,-0.01 -0.02,-0.02 -0.01,-0.01 -0.01,-0.01 -0.02,-0.01 -0.01,-0.02 -0.01,-0.01 -0.01,-0.02 -0.01,-0.01 0,-0.02 -0.01,-0.01 -0.01,-0.02 -0.01,-0.01 0,-0.02 -0.01,-0.01 0,-0.02 0,-0.01 -0.01,-0.02 0,-0.01 0,-0.02 0,-0.01 0,-0.01 c 0,-0.19 0.15,-0.26 0.27,-0.26 0.15,0 0.4,0.11 0.4,0.44 0,0.47 -0.55,0.61 -0.92,0.61 -1.05,0 -2.01,-0.96 -2.01,-1.93 0,-0.6 0.41,-1.21 1.28,-1.21 1.18,0 1.73,0.69 1.73,0.79 0,0.04 -0.06,0.12 -0.12,0.12 -0.04,0 -0.05,-0.02 -0.11,-0.07 -0.54,-0.64 -1.36,-0.64 -1.48,-0.64 -0.5,0 -0.73,0.34 -0.73,0.77 0,0.2 0.1,0.96 0.46,1.44 0.27,0.34 0.63,0.53 0.98,0.53 0.1,0 0.43,-0.01 0.6,-0.21 z"
         inkscape:connector-curvature="0"
         style="fill:#000000;stroke-width:0" /></g><g
       id="g4622"
       transform="matrix(3.4265624,0,0,3.4265624,-667.69171,-1622.4233)"
       xml:space="preserve"
       stroke-miterlimit="10.433"
       font-style="normal"
       font-variant="normal"
       font-weight="normal"
       font-stretch="normal"
       font-size-adjust="none"
       letter-spacing="normal"
       word-spacing="normal"
       ns0:text="$X_b^\\alpha$"
       ns0:preamble="/home/ken/.config/inkscape/textextpreamble.txt"
       style="font-style:normal;font-variant:normal;font-weight:normal;font-stretch:normal;letter-spacing:normal;word-spacing:normal;text-anchor:start;fill:none;fill-opacity:1;fill-rule:evenodd;stroke:#000000;stroke-linecap:butt;stroke-linejoin:miter;stroke-miterlimit:10.43299961;stroke-dasharray:none;stroke-dashoffset:0;stroke-opacity:1"><path
         d="m 228.26,481.32 -0.84,1.98 c -0.03,0.07 -0.05,0.11 -0.05,0.12 0,0.06 0.17,0.25 0.59,0.29 0.1,0.01 0.2,0.02 0.2,0.19 0,0.12 -0.12,0.12 -0.15,0.12 -0.41,0 -0.84,-0.03 -1.25,-0.03 -0.25,0 -0.87,0.03 -1.12,0.03 -0.06,0 -0.18,0 -0.18,-0.2 0,-0.11 0.1,-0.11 0.23,-0.11 0.6,0 0.66,-0.1 0.75,-0.32 l 1.17,-2.77 -2.1,-2.25 -0.13,-0.11 c -0.48,-0.53 -0.95,-0.69 -1.46,-0.72 -0.13,-0.01 -0.22,-0.01 -0.22,-0.2 0,-0.01 0,-0.11 0.13,-0.11 0.3,0 0.63,0.04 0.93,0.04 0.37,0 0.76,-0.04 1.12,-0.04 0.06,0 0.18,0 0.18,0.2 0,0.1 -0.1,0.11 -0.12,0.11 -0.09,0.01 -0.4,0.03 -0.4,0.31 0,0.16 0.15,0.32 0.27,0.45 l 1.01,1.07 0.9,0.97 1.01,-2.37 c 0.03,-0.11 0.04,-0.12 0.04,-0.14 0,-0.08 -0.18,-0.25 -0.57,-0.29 -0.11,-0.01 -0.2,-0.02 -0.2,-0.19 0,-0.12 0.11,-0.12 0.15,-0.12 0.28,0 0.97,0.04 1.25,0.04 0.25,0 0.86,-0.04 1.11,-0.04 0.07,0 0.19,0 0.19,0.19 0,0.12 -0.1,0.12 -0.18,0.12 -0.67,0.01 -0.69,0.04 -0.86,0.44 -0.39,0.92 -1.05,2.47 -1.28,3.07 0.67,0.69 1.72,1.88 2.04,2.15 0.29,0.24 0.66,0.48 1.26,0.51 0.13,0.01 0.22,0.01 0.22,0.2 0,0.01 0,0.11 -0.13,0.11 -0.3,0 -0.63,-0.03 -0.94,-0.03 -0.36,0 -0.74,0.03 -1.1,0.03 -0.06,0 -0.19,0 -0.19,-0.2 0,-0.07 0.05,-0.1 0.12,-0.11 0.09,-0.01 0.4,-0.03 0.4,-0.31 0,-0.13 -0.11,-0.26 -0.19,-0.35 z"
         id="path4624"
         inkscape:connector-curvature="0"
         style="fill:#000000;stroke-width:0" /><path
         d="m 236.28,481.83 0.06,0.06 0.05,0.07 0.06,0.06 0.05,0.07 0.05,0.07 0.05,0.06 0.04,0.07 0.05,0.07 0.04,0.07 0.04,0.06 0.04,0.07 0.03,0.07 0.04,0.06 0.03,0.07 0.03,0.06 0.03,0.06 0.02,0.06 0.03,0.06 0.02,0.05 0.02,0.06 0.02,0.05 0.02,0.05 0.01,0.04 0.02,0.04 0.01,0.04 0.01,0.04 0.01,0.03 0,0.03 0.01,0.02 0,0.02 0.01,0.01 0,0.01 c 0,0.09 -0.09,0.09 -0.12,0.09 -0.1,0 -0.1,-0.02 -0.15,-0.17 -0.12,-0.46 -0.35,-0.88 -0.65,-1.26 0,0.11 -0.02,0.57 -0.03,0.63 -0.11,0.69 -0.63,1.14 -1.32,1.14 l -0.01,-0.2 c 0.56,0 0.72,-0.53 0.77,-0.96 0.04,-0.3 0.03,-0.8 0.06,-1.16 l 0,0 c -0.68,-0.56 -1.27,-0.62 -1.53,-0.62 -0.46,0 -0.72,0.3 -0.72,0.77 0,0.2 0.09,0.96 0.46,1.44 0.32,0.42 0.71,0.53 0.96,0.53 l 0.01,0.2 c -1.03,0 -2.01,-0.96 -2.01,-1.93 0,-0.64 0.47,-1.21 1.27,-1.21 0.65,0 1.22,0.29 1.61,0.59 0.16,-0.51 0.52,-0.59 0.73,-0.59 0.4,0 0.65,0.34 0.65,0.49 0,0.08 -0.08,0.08 -0.12,0.08 -0.09,0 -0.1,-0.03 -0.11,-0.07 -0.1,-0.26 -0.32,-0.3 -0.4,-0.3 -0.1,0 -0.22,0 -0.25,0.85 z"
         id="path4626"
         inkscape:connector-curvature="0"
         style="fill:#000000;stroke-width:0" /><path
         d="m 233.52,479.03 0.01,0 0,0 0,0 0,0 0,0.01 0,0 0,0 0,0 0,0 0,0.01 0,0 0,0 0,0.01 0,0 0.01,0.01 0,0 0,0.01 0,0 0,0.01 0,0 0,0.01 0,0 0.01,0.01 0,0 0,0.01 0,0 0,0 0,0.01 0,0 0,0 0,0 0,0 0,0.01 0,0 0,0 0,0 0,0 0,0 0,0 0,0 0,0 c 0,0.04 -0.03,0.1 -0.11,0.1 -0.14,0 -0.72,-0.06 -0.89,-0.07 -0.06,-0.01 -0.15,-0.01 -0.15,-0.16 0,-0.1 0.09,-0.1 0.18,-0.1 0.33,0 0.33,-0.05 0.33,-0.1 0,-0.05 -0.07,-0.33 -0.11,-0.49 l -0.16,-0.64 c -0.06,-0.23 -0.45,-1.76 -0.46,-1.85 -0.03,-0.16 -0.03,-0.25 -0.03,-0.34 0,-0.7 0.44,-1.15 1.02,-1.15 l 0.01,0.2 c -0.34,0 -0.54,0.3 -0.54,0.71 0,0.26 0.06,0.49 0.26,1.28 0.04,0.13 0.04,0.14 0.17,0.3 0.27,0.3 0.58,0.46 0.83,0.46 0.27,0 0.51,-0.21 0.51,-0.68 0,-0.28 -0.15,-0.99 -0.36,-1.4 -0.17,-0.34 -0.52,-0.67 -0.87,-0.67 l 0,0 -0.01,-0.2 c 0.87,0 1.8,0.95 1.8,1.98 0,0.81 -0.57,1.16 -1.05,1.16 -0.36,0 -0.67,-0.2 -0.88,-0.38 z"
         id="path4628"
         inkscape:connector-curvature="0"
         style="fill:#000000;stroke-width:0" /></g><g
       style="font-style:normal;font-variant:normal;font-weight:normal;font-stretch:normal;letter-spacing:normal;word-spacing:normal;text-anchor:start;fill:none;fill-opacity:1;fill-rule:evenodd;stroke:#000000;stroke-linecap:butt;stroke-linejoin:miter;stroke-miterlimit:10.43299961;stroke-dasharray:none;stroke-dashoffset:0;stroke-opacity:1"
       ns0:preamble="/home/ken/.config/inkscape/textextpreamble.txt"
       ns0:text="$X_b^\\beta$"
       word-spacing="normal"
       letter-spacing="normal"
       font-size-adjust="none"
       font-stretch="normal"
       font-weight="normal"
       font-variant="normal"
       font-style="normal"
       stroke-miterlimit="10.433"
       xml:space="preserve"
       transform="matrix(3.4265624,0,0,3.4265624,-381.25354,-1625.4196)"
       id="g4717"><path
         id="path4719"
         d="m 228.26,481.32 -0.84,1.98 c -0.03,0.07 -0.05,0.11 -0.05,0.12 0,0.06 0.17,0.25 0.59,0.29 0.1,0.01 0.2,0.02 0.2,0.19 0,0.12 -0.12,0.12 -0.15,0.12 -0.41,0 -0.84,-0.03 -1.25,-0.03 -0.25,0 -0.87,0.03 -1.12,0.03 -0.06,0 -0.18,0 -0.18,-0.2 0,-0.11 0.1,-0.11 0.23,-0.11 0.6,0 0.66,-0.1 0.75,-0.32 l 1.17,-2.77 -2.1,-2.25 -0.13,-0.11 c -0.48,-0.53 -0.95,-0.69 -1.46,-0.72 -0.13,-0.01 -0.22,-0.01 -0.22,-0.2 0,-0.01 0,-0.11 0.13,-0.11 0.3,0 0.63,0.04 0.93,0.04 0.37,0 0.76,-0.04 1.12,-0.04 0.06,0 0.18,0 0.18,0.2 0,0.1 -0.1,0.11 -0.12,0.11 -0.09,0.01 -0.4,0.03 -0.4,0.31 0,0.16 0.15,0.32 0.27,0.45 l 1.01,1.07 0.9,0.97 1.01,-2.37 c 0.03,-0.11 0.04,-0.12 0.04,-0.14 0,-0.08 -0.18,-0.25 -0.57,-0.29 -0.11,-0.01 -0.2,-0.02 -0.2,-0.19 0,-0.12 0.11,-0.12 0.15,-0.12 0.28,0 0.97,0.04 1.25,0.04 0.25,0 0.86,-0.04 1.11,-0.04 0.07,0 0.19,0 0.19,0.19 0,0.12 -0.1,0.12 -0.18,0.12 -0.67,0.01 -0.69,0.04 -0.86,0.44 -0.39,0.92 -1.05,2.47 -1.28,3.07 0.67,0.69 1.72,1.88 2.04,2.15 0.29,0.24 0.66,0.48 1.26,0.51 0.13,0.01 0.22,0.01 0.22,0.2 0,0.01 0,0.11 -0.13,0.11 -0.3,0 -0.63,-0.03 -0.94,-0.03 -0.36,0 -0.74,0.03 -1.1,0.03 -0.06,0 -0.19,0 -0.19,-0.2 0,-0.07 0.05,-0.1 0.12,-0.11 0.09,-0.01 0.4,-0.03 0.4,-0.31 0,-0.13 -0.11,-0.26 -0.19,-0.35 z"
         inkscape:connector-curvature="0"
         style="fill:#000000;stroke-width:0" /><path
         id="path4721"
         d="m 236.88,485.96 -0.01,0.06 0,0.05 -0.01,0.05 -0.01,0.06 -0.01,0.05 -0.02,0.05 -0.02,0.04 -0.02,0.05 -0.02,0.04 -0.03,0.04 -0.02,0.04 -0.03,0.04 -0.04,0.04 -0.03,0.04 -0.04,0.03 -0.04,0.03 -0.04,0.03 -0.04,0.03 -0.04,0.03 -0.05,0.02 -0.04,0.02 -0.05,0.02 -0.05,0.02 -0.05,0.02 -0.05,0.02 -0.05,0.01 -0.06,0.01 -0.05,0.01 -0.06,0.01 -0.05,0 -0.06,0 -0.06,0 -0.01,-0.19 c 0.41,0 0.7,-0.22 0.7,-0.65 l 0,0 c 0,-0.37 -0.18,-0.91 -0.62,-1.15 -0.13,0.04 -0.26,0.09 -0.65,0.09 -0.24,0 -0.59,-0.01 -0.59,-0.26 0,-0.18 0.21,-0.21 0.57,-0.21 l 0.01,0.19 c -0.11,0 -0.28,0.01 -0.32,0.04 0.06,0.04 0.26,0.05 0.32,0.05 0.11,0 0.26,-0.01 0.36,-0.04 l 0,0 c -0.11,-0.02 -0.16,-0.05 -0.36,-0.05 l -0.01,-0.19 c 0.24,0 0.44,0.04 0.66,0.1 0.21,-0.14 0.32,-0.43 0.32,-0.74 0,-1 -0.69,-1.76 -1.54,-1.76 -0.53,0 -0.92,0.33 -0.92,0.88 0,0.07 0.01,0.14 0.02,0.2 l 0.46,1.85 c 0.17,0.66 0.78,1.65 1.59,1.65 l 0.01,0.19 c -0.95,0 -1.65,-1.08 -1.83,-1.78 l -1.09,-4.38 c -0.02,-0.05 0.06,-0.09 0.1,-0.09 0.06,0 0.11,0.01 0.13,0.05 l 0.47,1.86 c 0.14,-0.32 0.48,-0.62 1.04,-0.62 0.97,0 2.08,0.7 2.08,1.77 0,0.41 -0.19,0.82 -0.55,1.05 0.34,0.22 0.8,0.62 0.8,1.18 z"
         inkscape:connector-curvature="0"
         style="fill:#000000;stroke-width:0" /><path
         id="path4723"
         d="m 233.52,478.85 0.01,0 0,0 0,0 0,0 0,0 0,0 0,0 0,0.01 0,0 0,0 0,0.01 0,0 0,0 0,0.01 0.01,0 0,0.01 0,0 0,0.01 0,0.01 0,0 0,0 0,0.01 0.01,0 0,0.01 0,0 0,0.01 0,0 0,0 0,0.01 0,0 0,0 0,0 0,0 0,0 0,0 0,0.01 0,0 0,0 0,0 0,0 0,0 c 0,0.03 -0.03,0.1 -0.11,0.1 -0.14,0 -0.72,-0.06 -0.89,-0.07 -0.06,-0.01 -0.15,-0.02 -0.15,-0.16 0,-0.1 0.09,-0.1 0.18,-0.1 0.33,0 0.33,-0.05 0.33,-0.11 0,-0.04 -0.07,-0.32 -0.11,-0.48 l -0.16,-0.64 c -0.06,-0.24 -0.45,-1.76 -0.46,-1.85 -0.03,-0.17 -0.03,-0.26 -0.03,-0.34 0,-0.7 0.44,-1.15 1.02,-1.15 l 0.01,0.2 c -0.34,0 -0.54,0.29 -0.54,0.7 0,0.26 0.06,0.5 0.26,1.28 0.04,0.14 0.04,0.15 0.17,0.3 0.27,0.31 0.58,0.46 0.83,0.46 0.27,0 0.51,-0.2 0.51,-0.67 0,-0.29 -0.15,-1 -0.36,-1.4 -0.17,-0.34 -0.52,-0.67 -0.87,-0.67 l 0,0 -0.01,-0.2 c 0.87,0 1.8,0.95 1.8,1.98 0,0.81 -0.57,1.16 -1.05,1.16 -0.36,0 -0.67,-0.2 -0.88,-0.39 z"
         inkscape:connector-curvature="0"
         style="fill:#000000;stroke-width:0" /></g></g></svg>