<?xml version="1.0" encoding="UTF-8" standalone="no"?>
<!-- Created with Inkscape (http://www.inkscape.org/) -->

<svg
   xmlns:ns0="http://www.iki.fi/pav/software/textext/"
   xmlns:dc="http://purl.org/dc/elements/1.1/"
   xmlns:cc="http://creativecommons.org/ns#"
   xmlns:rdf="http://www.w3.org/1999/02/22-rdf-syntax-ns#"
   xmlns:svg="http://www.w3.org/2000/svg"
   xmlns="http://www.w3.org/2000/svg"
   xmlns:xlink="http://www.w3.org/1999/xlink"
   xmlns:sodipodi="http://sodipodi.sourceforge.net/DTD/sodipodi-0.dtd"
   xmlns:inkscape="http://www.inkscape.org/namespaces/inkscape"
   width="852.32104"
   height="400.62888"
   id="svg2"
   version="1.1"
   inkscape:version="0.91 r"
   sodipodi:docname="disloc loop under shear.svg"
   viewBox="0 0 852.32103 400.62888">
  <sodipodi:namedview
     id="base"
     pagecolor="#ffffff"
     bordercolor="#666666"
     borderopacity="1.0"
     inkscape:pageopacity="0.0"
     inkscape:pageshadow="2"
     inkscape:zoom="3.959798"
     inkscape:cx="658.09772"
     inkscape:cy="216.58927"
     inkscape:document-units="px"
     inkscape:current-layer="layer1"
     showgrid="true"
     units="in"
     width="11cm"
     inkscape:window-width="1920"
     inkscape:window-height="1053"
     inkscape:window-x="0"
     inkscape:window-y="0"
     inkscape:window-maximized="1"
     fit-margin-top="0"
     fit-margin-left="0"
     fit-margin-right="0"
     fit-margin-bottom="0"
     inkscape:snap-bbox="true"
     inkscape:snap-bbox-midpoints="false"
     inkscape:snap-to-guides="false"
     inkscape:snap-object-midpoints="false"
     inkscape:snap-global="false"
     inkscape:snap-nodes="true"
     inkscape:object-nodes="true"
     inkscape:snap-text-baseline="true">
    <inkscape:grid
       originy="56.223698"
       originx="-88.839488"
       spacingy="2px"
       spacingx="2px"
       snapvisiblegridlinesonly="true"
       enabled="true"
       visible="true"
       empspacing="5"
       id="grid2984"
       type="xygrid" />
  </sodipodi:namedview>
  <defs
     id="defs4">
    <marker
       inkscape:stockid="Arrow1Lend"
       orient="auto"
       refY="0"
       refX="0"
       id="marker4332"
       style="overflow:visible"
       inkscape:isstock="true">
      <path
         id="path4334"
         d="M 0,0 5,-5 -12.5,0 5,5 0,0 Z"
         style="fill:#000000;fill-opacity:1;fill-rule:evenodd;stroke:#000000;stroke-width:1pt;stroke-opacity:1"
         transform="matrix(-0.8,0,0,-0.8,-10,0)"
         inkscape:connector-curvature="0" />
    </marker>
    <marker
       inkscape:isstock="true"
       style="overflow:visible"
       id="marker5058"
       refX="0"
       refY="0"
       orient="auto"
       inkscape:stockid="Arrow1Lend"
       inkscape:collect="always">
      <path
         inkscape:connector-curvature="0"
         transform="matrix(-0.8,0,0,-0.8,-10,0)"
         style="fill:#000000;fill-opacity:1;fill-rule:evenodd;stroke:#000000;stroke-width:1pt;stroke-opacity:1"
         d="M 0,0 5,-5 -12.5,0 5,5 0,0 Z"
         id="path5060" />
    </marker>
    <marker
       inkscape:collect="always"
       inkscape:stockid="Arrow1Lend"
       orient="auto"
       refY="0"
       refX="0"
       id="marker4602"
       style="overflow:visible"
       inkscape:isstock="true">
      <path
         inkscape:connector-curvature="0"
         id="path4604"
         d="M 0,0 5,-5 -12.5,0 5,5 0,0 Z"
         style="fill:#000000;fill-opacity:1;fill-rule:evenodd;stroke:#000000;stroke-width:1pt;stroke-opacity:1"
         transform="matrix(-0.8,0,0,-0.8,-10,0)" />
    </marker>
    <marker
       inkscape:collect="always"
       inkscape:isstock="true"
       style="overflow:visible"
       id="Arrow1Lend"
       refX="0"
       refY="0"
       orient="auto"
       inkscape:stockid="Arrow1Lend">
      <path
         inkscape:connector-curvature="0"
         transform="matrix(-0.8,0,0,-0.8,-10,0)"
         style="fill:#000000;fill-opacity:1;fill-rule:evenodd;stroke:#000000;stroke-width:1pt;stroke-opacity:1"
         d="M 0,0 5,-5 -12.5,0 5,5 0,0 Z"
         id="path4264" />
    </marker>
    <marker
       inkscape:stockid="Arrow2Mend"
       orient="auto"
       refY="0"
       refX="0"
       id="Arrow2Mend"
       style="overflow:visible">
      <path
         inkscape:connector-curvature="0"
         id="path3966"
         style="fill-rule:evenodd;stroke-width:0.625;stroke-linejoin:round"
         d="M 8.7185878,4.0337352 -2.2072895,0.01601326 8.7185884,-4.0017078 C 6.97309,-1.6296469 6.9831476,1.6157441 8.7185878,4.0337352 Z"
         transform="scale(-0.6,-0.6)" />
    </marker>
    <marker
       inkscape:isstock="true"
       style="overflow:visible"
       id="Arrow1Lend-1"
       refX="0"
       refY="0"
       orient="auto"
       inkscape:stockid="Arrow1Lend">
      <path
         transform="matrix(-0.8,0,0,-0.8,-10,0)"
         style="fill:#000000;fill-opacity:1;fill-rule:evenodd;stroke:#000000;stroke-width:1pt;stroke-opacity:1"
         d="M 0,0 5,-5 -12.5,0 5,5 0,0 Z"
         id="path4264-1"
         inkscape:connector-curvature="0" />
    </marker>
  </defs>
  <metadata
     id="metadata7">
    <rdf:RDF>
      <cc:Work
         rdf:about="">
        <dc:format>image/svg+xml</dc:format>
        <dc:type
           rdf:resource="http://purl.org/dc/dcmitype/StillImage" />
        <dc:title />
      </cc:Work>
    </rdf:RDF>
  </metadata>
  <g
     inkscape:label="Layer 1"
     inkscape:groupmode="layer"
     id="layer1"
     transform="translate(-25.811131,-731.64206)">
    <rect
       y="756.04724"
       x="26.971649"
       height="300"
       width="400"
       id="rect4203"
       style="opacity:1;fill:none;fill-opacity:1;stroke:#0000ff;stroke-width:2.32103539;stroke-miterlimit:4;stroke-dasharray:none;stroke-dashoffset:0;stroke-opacity:1" />
    <text
       sodipodi:linespacing="100%"
       id="text3353"
       y="742.92206"
       x="85.811134"
       style="font-style:normal;font-variant:normal;font-weight:normal;font-stretch:normal;font-size:16px;line-height:100%;font-family:'Latin Modern Math';-inkscape-font-specification:'Latin Modern Math, Normal';text-align:start;letter-spacing:0px;word-spacing:0px;writing-mode:lr-tb;text-anchor:start;fill:#000000;fill-opacity:1;stroke:none;stroke-width:1px;stroke-linecap:butt;stroke-linejoin:miter;stroke-opacity:1"
       xml:space="preserve"><tspan
         y="742.92206"
         x="85.811134"
         id="tspan3355"
         sodipodi:role="line">Stress into plane of paper on this surface</tspan></text>
    <text
       sodipodi:linespacing="100%"
       id="text3353-3"
       y="1080.5815"
       x="74.389114"
       style="font-style:normal;font-variant:normal;font-weight:normal;font-stretch:normal;font-size:16px;line-height:100%;font-family:'Latin Modern Math';-inkscape-font-specification:'Latin Modern Math, Normal';text-align:start;letter-spacing:0px;word-spacing:0px;writing-mode:lr-tb;text-anchor:start;fill:#000000;fill-opacity:1;stroke:none;stroke-width:1px;stroke-linecap:butt;stroke-linejoin:miter;stroke-opacity:1"
       xml:space="preserve"><tspan
         y="1080.5815"
         x="74.389114"
         id="tspan3355-3"
         sodipodi:role="line">Stress out of plane of paper on this surface</tspan></text>
    <rect
       y="756.04724"
       x="476.97165"
       height="300"
       width="400"
       id="rect4203-0"
       style="opacity:1;fill:none;fill-opacity:1;stroke:#0000ff;stroke-width:2.32103539;stroke-miterlimit:4;stroke-dasharray:none;stroke-dashoffset:0;stroke-opacity:1" />
    <text
       sodipodi:linespacing="100%"
       id="text3423"
       y="1127.1136"
       x="172.78481"
       style="font-style:normal;font-variant:normal;font-weight:normal;font-stretch:normal;font-size:26.58397484px;line-height:100%;font-family:'Latin Modern Math';-inkscape-font-specification:'Latin Modern Math, Normal';text-align:start;letter-spacing:0px;word-spacing:0px;writing-mode:lr-tb;text-anchor:start;fill:#000000;fill-opacity:1;stroke:none;stroke-width:1px;stroke-linecap:butt;stroke-linejoin:miter;stroke-opacity:1"
       xml:space="preserve"><tspan
         y="1127.1136"
         x="172.78481"
         id="tspan3425"
         sodipodi:role="line">Front View</tspan></text>
    <text
       sodipodi:linespacing="100%"
       id="text3423-4"
       y="1096.0472"
       x="626.97162"
       style="font-style:normal;font-variant:normal;font-weight:normal;font-stretch:normal;font-size:26.58397484px;line-height:100%;font-family:'Latin Modern Math';-inkscape-font-specification:'Latin Modern Math, Normal';text-align:start;letter-spacing:0px;word-spacing:0px;writing-mode:lr-tb;text-anchor:start;fill:#000000;fill-opacity:1;stroke:none;stroke-width:1px;stroke-linecap:butt;stroke-linejoin:miter;stroke-opacity:1"
       xml:space="preserve"><tspan
         y="1096.0472"
         x="626.97162"
         id="tspan3425-1"
         sodipodi:role="line">Top View</tspan></text>
    <text
       sodipodi:linespacing="100%"
       id="text3445"
       y="846.04724"
       x="106.97164"
       style="font-style:normal;font-variant:normal;font-weight:normal;font-stretch:normal;font-size:16px;line-height:100%;font-family:'Latin Modern Math';-inkscape-font-specification:'Latin Modern Math, Normal';text-align:start;letter-spacing:0px;word-spacing:0px;writing-mode:lr-tb;text-anchor:start;fill:#000000;fill-opacity:1;stroke:none;stroke-width:1px;stroke-linecap:butt;stroke-linejoin:miter;stroke-opacity:1"
       xml:space="preserve"><tspan
         y="846.04724"
         x="106.97164"
         id="tspan3447"
         sodipodi:role="line">dislocation loop</tspan></text>
    <path
       inkscape:connector-curvature="0"
       id="path3449"
       d="M 176.97164,856.04724 216.72996,900.63412"
       style="fill:none;fill-rule:evenodd;stroke:#000000;stroke-width:1px;stroke-linecap:butt;stroke-linejoin:miter;stroke-opacity:1;marker-end:url(#Arrow1Lend)" />
    <path
       inkscape:connector-curvature="0"
       id="path3449-4"
       d="M 556.97164,806.04724 596.72996,850.63412"
       style="fill:none;fill-rule:evenodd;stroke:#000000;stroke-width:1px;stroke-linecap:butt;stroke-linejoin:miter;stroke-opacity:1;marker-end:url(#marker4602)" />
    <path
       sodipodi:nodetypes="cc"
       inkscape:connector-curvature="0"
       id="path5050"
       d="M 836.97164,956.0472 836.97164,816.04724"
       style="fill:none;fill-rule:evenodd;stroke:#000000;stroke-width:4;stroke-linecap:butt;stroke-linejoin:miter;stroke-miterlimit:4;stroke-dasharray:none;stroke-opacity:1;marker-end:url(#marker5058)" />
    <text
       sodipodi:linespacing="100%"
       id="text5746"
       y="986.04724"
       x="826.97162"
       style="font-style:normal;font-variant:normal;font-weight:normal;font-stretch:normal;font-size:16px;line-height:100%;font-family:'Latin Modern Math';-inkscape-font-specification:'Latin Modern Math, Normal';text-align:center;letter-spacing:0px;word-spacing:0px;writing-mode:lr-tb;text-anchor:middle;fill:#000000;fill-opacity:1;stroke:none;stroke-width:1px;stroke-linecap:butt;stroke-linejoin:miter;stroke-opacity:1"
       xml:space="preserve"><tspan
         y="986.04724"
         x="826.97162"
         id="tspan5748"
         sodipodi:role="line">direction of</tspan><tspan
         id="tspan5750"
         y="1002.0472"
         x="826.97162"
         sodipodi:role="line">shear force</tspan></text>
    <path
       inkscape:connector-curvature="0"
       id="path4204"
       d="M 166.97164,906.04724 296.97164,906.04724"
       style="fill:none;fill-rule:evenodd;stroke:#000000;stroke-width:1;stroke-linecap:butt;stroke-linejoin:miter;stroke-opacity:1;stroke-miterlimit:4;stroke-dasharray:2,1;stroke-dashoffset:0" />
    <text
       sodipodi:linespacing="100%"
       id="text3445-9"
       y="786.04724"
       x="506.97165"
       style="font-style:normal;font-variant:normal;font-weight:normal;font-stretch:normal;font-size:16px;line-height:100%;font-family:'Latin Modern Math';-inkscape-font-specification:'Latin Modern Math, Normal';text-align:start;letter-spacing:0px;word-spacing:0px;writing-mode:lr-tb;text-anchor:start;fill:#000000;fill-opacity:1;stroke:none;stroke-width:1px;stroke-linecap:butt;stroke-linejoin:miter;stroke-opacity:1"
       xml:space="preserve"><tspan
         y="786.04724"
         x="506.97165"
         id="tspan3447-8"
         sodipodi:role="line">dislocation loop</tspan></text>
    <circle
       r="75"
       cy="902.8645"
       cx="676.41583"
       id="path5412"
       style="opacity:1;fill:none;fill-opacity:1;stroke:#000000;stroke-width:1;stroke-miterlimit:4;stroke-dasharray:2, 1;stroke-dashoffset:0;stroke-opacity:1" />
    <g
       id="g4234"
       ns0:preamble="/home/ken/.config/inkscape/textextpreamble.txt"
       ns0:text="$F_s^\\tau$"
       transform="matrix(2.1324792,0,0,2.1324792,293.40474,641.28855)">
      <defs
         id="defs4236">
        <g
           id="g4238">
          <symbol
             id="textext-70c5120a-0"
             overflow="visible"
             style="overflow:visible">
            <path
               id="path4241"
               d=""
               style="stroke:none"
               inkscape:connector-curvature="0" />
          </symbol>
          <symbol
             id="textext-70c5120a-1"
             overflow="visible"
             style="overflow:visible">
            <path
               id="path4244"
               d="M 3.015625,-3.234375 3.984375,-3.234375 C 4.734375,-3.234375 4.8125,-3.078125 4.8125,-2.796875 4.8125,-2.71875 4.8125,-2.609375 4.75,-2.296875 4.71875,-2.25 4.71875,-2.21875 4.71875,-2.1875 4.71875,-2.109375 4.78125,-2.078125 4.828125,-2.078125 4.9375,-2.078125 4.9375,-2.109375 4.984375,-2.28125 L 5.53125,-4.453125 C 5.5625,-4.5625 5.5625,-4.578125 5.5625,-4.609375 5.5625,-4.625 5.546875,-4.71875 5.4375,-4.71875 5.34375,-4.71875 5.328125,-4.671875 5.296875,-4.5 5.078125,-3.734375 4.859375,-3.546875 4,-3.546875 L 3.09375,-3.546875 3.734375,-6.078125 C 3.828125,-6.4375 3.84375,-6.46875 4.28125,-6.46875 L 5.59375,-6.46875 C 6.8125,-6.46875 7.046875,-6.140625 7.046875,-5.375 7.046875,-5.140625 7.046875,-5.109375 7.015625,-4.828125 7,-4.703125 7,-4.6875 7,-4.65625 7,-4.609375 7.03125,-4.53125 7.125,-4.53125 7.234375,-4.53125 7.234375,-4.59375 7.25,-4.78125 L 7.453125,-6.515625 C 7.484375,-6.78125 7.4375,-6.78125 7.1875,-6.78125 L 2.296875,-6.78125 C 2.109375,-6.78125 2,-6.78125 2,-6.578125 2,-6.46875 2.09375,-6.46875 2.28125,-6.46875 2.65625,-6.46875 2.9375,-6.46875 2.9375,-6.296875 2.9375,-6.25 2.9375,-6.234375 2.875,-6.046875 L 1.5625,-0.78125 C 1.46875,-0.390625 1.453125,-0.3125 0.65625,-0.3125 0.484375,-0.3125 0.375,-0.3125 0.375,-0.125 0.375,0 0.5,0 0.53125,0 0.8125,0 1.5625,-0.03125 1.84375,-0.03125 2.171875,-0.03125 3,0 3.328125,0 3.421875,0 3.53125,0 3.53125,-0.1875 3.53125,-0.265625 3.484375,-0.296875 3.484375,-0.296875 3.453125,-0.3125 3.421875,-0.3125 3.203125,-0.3125 2.984375,-0.3125 2.9375,-0.3125 2.6875,-0.328125 2.390625,-0.359375 2.359375,-0.40625 2.359375,-0.53125 2.359375,-0.546875 2.359375,-0.609375 2.40625,-0.75 Z M 3.015625,-3.234375"
               style="stroke:none"
               inkscape:connector-curvature="0" />
          </symbol>
          <symbol
             id="textext-70c5120a-2"
             overflow="visible"
             style="overflow:visible">
            <path
               id="path4247"
               d=""
               style="stroke:none"
               inkscape:connector-curvature="0" />
          </symbol>
          <symbol
             id="textext-70c5120a-3"
             overflow="visible"
             style="overflow:visible">
            <path
               id="path4250"
               d="M 2.390625,-2.53125 3.6875,-2.53125 C 3.765625,-2.53125 4.0625,-2.53125 4.0625,-2.8125 4.0625,-3 3.875,-3 3.75,-3 L 1.5625,-3 C 1.359375,-3 1.140625,-2.984375 0.78125,-2.65625 0.578125,-2.46875 0.3125,-2.109375 0.3125,-2.046875 0.3125,-1.96875 0.40625,-1.96875 0.4375,-1.96875 0.515625,-1.96875 0.515625,-1.984375 0.5625,-2.046875 0.90625,-2.53125 1.34375,-2.53125 1.5,-2.53125 L 2.125,-2.53125 1.421875,-0.296875 C 1.390625,-0.1875 1.390625,-0.1875 1.390625,-0.140625 1.390625,0.046875 1.5625,0.078125 1.625,0.078125 1.890625,0.078125 1.9375,-0.171875 1.953125,-0.265625 Z M 2.390625,-2.53125"
               style="stroke:none"
               inkscape:connector-curvature="0" />
          </symbol>
          <symbol
             id="textext-70c5120a-4"
             overflow="visible"
             style="overflow:visible">
            <path
               id="path4253"
               d="M 3,-2.625 C 2.828125,-2.578125 2.703125,-2.4375 2.703125,-2.296875 2.703125,-2.125 2.84375,-2.0625 2.9375,-2.0625 3.015625,-2.0625 3.28125,-2.109375 3.28125,-2.46875 3.28125,-2.921875 2.78125,-3.078125 2.34375,-3.078125 1.265625,-3.078125 1.0625,-2.265625 1.0625,-2.0625 1.0625,-1.796875 1.21875,-1.625 1.3125,-1.546875 1.484375,-1.40625 1.609375,-1.375 2.09375,-1.296875 2.25,-1.265625 2.6875,-1.1875 2.6875,-0.84375 2.6875,-0.71875 2.609375,-0.453125 2.328125,-0.28125 2.046875,-0.125 1.703125,-0.125 1.625,-0.125 1.34375,-0.125 0.953125,-0.1875 0.78125,-0.421875 1.015625,-0.453125 1.171875,-0.625 1.171875,-0.8125 1.171875,-0.984375 1.046875,-1.078125 0.90625,-1.078125 0.703125,-1.078125 0.5,-0.90625 0.5,-0.609375 0.5,-0.1875 0.9375,0.0625 1.609375,0.0625 2.90625,0.0625 3.140625,-0.8125 3.140625,-1.078125 3.140625,-1.71875 2.4375,-1.84375 2.171875,-1.890625 2.109375,-1.90625 1.9375,-1.9375 1.890625,-1.953125 1.640625,-2 1.515625,-2.140625 1.515625,-2.296875 1.515625,-2.453125 1.640625,-2.640625 1.796875,-2.75 1.984375,-2.859375 2.21875,-2.875 2.34375,-2.875 2.484375,-2.875 2.84375,-2.859375 3,-2.625 Z M 3,-2.625"
               style="stroke:none"
               inkscape:connector-curvature="0" />
          </symbol>
        </g>
      </defs>
      <g
         id="textext-70c5120a-5">
        <g
           id="g4256"
           style="fill:#000000;fill-opacity:1">
          <use
             id="use4258"
             y="134.765"
             x="223.43201"
             xlink:href="#textext-70c5120a-1"
             width="100%"
             height="100%" />
        </g>
        <g
           id="g4260"
           style="fill:#000000;fill-opacity:1">
          <use
             id="use4262"
             y="131.149"
             x="231.222"
             xlink:href="#textext-70c5120a-3"
             width="100%"
             height="100%" />
        </g>
        <g
           id="g4264"
           style="fill:#000000;fill-opacity:1">
          <use
             id="use4266"
             y="137.228"
             x="229.839"
             xlink:href="#textext-70c5120a-4"
             width="100%"
             height="100%" />
        </g>
      </g>
    </g>
    <path
       style="fill:none;fill-rule:evenodd;stroke:#000000;stroke-width:1px;stroke-linecap:butt;stroke-linejoin:miter;stroke-opacity:1;marker-end:url(#marker4332)"
       d="M 736.45345,903.21884 778.87985,903.21884"
       id="path4324"
       inkscape:connector-curvature="0"
       sodipodi:nodetypes="cc" />
  </g>
</svg>
