<?xml version="1.0" encoding="UTF-8" standalone="no"?>
<!-- Created with Inkscape (http://www.inkscape.org/) -->

<svg
   xmlns:ns0="http://www.iki.fi/pav/software/textext/"
   xmlns:dc="http://purl.org/dc/elements/1.1/"
   xmlns:cc="http://creativecommons.org/ns#"
   xmlns:rdf="http://www.w3.org/1999/02/22-rdf-syntax-ns#"
   xmlns:svg="http://www.w3.org/2000/svg"
   xmlns="http://www.w3.org/2000/svg"
   xmlns:sodipodi="http://sodipodi.sourceforge.net/DTD/sodipodi-0.dtd"
   xmlns:inkscape="http://www.inkscape.org/namespaces/inkscape"
   width="666.37817"
   height="410.53571"
   id="svg2"
   version="1.1"
   inkscape:version="0.48.4 r9939"
   sodipodi:docname="eutectic diagram.svg">
  <sodipodi:namedview
     id="base"
     pagecolor="#ffffff"
     bordercolor="#666666"
     borderopacity="1.0"
     inkscape:pageopacity="0.0"
     inkscape:pageshadow="2"
     inkscape:zoom="1.4"
     inkscape:cx="286.06926"
     inkscape:cy="238.86321"
     inkscape:document-units="px"
     inkscape:current-layer="layer1"
     showgrid="false"
     units="in"
     width="11cm"
     inkscape:window-width="1678"
     inkscape:window-height="1025"
     inkscape:window-x="1440"
     inkscape:window-y="0"
     inkscape:window-maximized="1"
     fit-margin-top="0"
     fit-margin-left="0"
     fit-margin-right="0"
     fit-margin-bottom="0" />
  <defs
     id="defs4">
    <marker
       style="overflow:visible"
       id="Arrow2Mend"
       refX="0"
       refY="0"
       orient="auto"
       inkscape:stockid="Arrow2Mend">
      <path
         transform="scale(-0.6,-0.6)"
         d="M 8.7185878,4.0337352 -2.2072895,0.01601326 8.7185884,-4.0017078 c -1.7454984,2.3720609 -1.7354408,5.6174519 -6e-7,8.035443 z"
         style="fill-rule:evenodd;stroke-width:0.625;stroke-linejoin:round"
         id="path3966"
         inkscape:connector-curvature="0" />
    </marker>
  </defs>
  <metadata
     id="metadata7">
    <rdf:RDF>
      <cc:Work
         rdf:about="">
        <dc:format>image/svg+xml</dc:format>
        <dc:type
           rdf:resource="http://purl.org/dc/dcmitype/StillImage" />
        <dc:title />
      </cc:Work>
    </rdf:RDF>
  </metadata>
  <g
     transform="translate(63.028358,-665.51153)"
     id="layer1"
     inkscape:groupmode="layer"
     inkscape:label="Layer 1">
    <path
       inkscape:connector-curvature="0"
       id="path2984"
       d="m -12.983925,674.16575 0,355.69215 573.338655,0 0,-363.28315"
       style="fill:none;stroke:#000000;stroke-width:2.12644625px;stroke-linecap:butt;stroke-linejoin:miter;stroke-opacity:1" />
    <path
       sodipodi:nodetypes="csccac"
       inkscape:connector-curvature="0"
       id="path2986"
       d="m -4.474261,1023.3512 c 0,0 11.9460739,-75.45957 23.401583,-111.69592 8.669205,-27.42265 34.038657,-79.16318 34.038657,-79.16318 l 419.100981,0 c 0,0 35.50823,57.54721 47.86685,88.92302 10.23748,25.99065 21.33145,81.16058 21.33145,81.16058"
       style="fill:none;stroke:#000000;stroke-width:2.12644625px;stroke-linecap:butt;stroke-linejoin:miter;stroke-opacity:1" />
    <path
       sodipodi:nodetypes="ccccccc"
       inkscape:connector-curvature="0"
       id="path2988"
       d="m 52.56364,831.41492 -64.802518,-123.19 254.960748,123.19 316.57626,-118.90512 -86.04926,118.90512 0,0 0,0"
       style="fill:none;stroke:#000000;stroke-width:2.11209202px;stroke-linecap:butt;stroke-linejoin:miter;stroke-opacity:1" />
    <g
       ns0:preamble=""
       ns0:text="O"
       word-spacing="normal"
       letter-spacing="normal"
       font-size-adjust="none"
       font-stretch="normal"
       font-weight="normal"
       font-variant="normal"
       font-style="normal"
       stroke-miterlimit="10.433"
       xml:space="preserve"
       transform="matrix(3.3070734,0,0,-4.059456,-184.74593,3944.0857)"
       id="content-8"
       style="font-style:normal;font-variant:normal;font-weight:normal;font-stretch:normal;letter-spacing:normal;word-spacing:normal;text-anchor:start;fill:none;stroke:#000000;stroke-linecap:butt;stroke-linejoin:miter;stroke-miterlimit:10.43299961;stroke-opacity:1;stroke-dasharray:none;stroke-dashoffset:0"><g
         ns0:preamble=""
         ns0:text="1"
         word-spacing="normal"
         letter-spacing="normal"
         font-size-adjust="none"
         font-stretch="normal"
         font-weight="normal"
         font-variant="normal"
         font-style="normal"
         stroke-miterlimit="10.433"
         xml:space="preserve"
         transform="matrix(2.0269902,0,0,1.1098339,-231.40602,-76.80592)"
         id="g3083"
         style="font-style:normal;font-variant:normal;font-weight:normal;font-stretch:normal;letter-spacing:normal;word-spacing:normal;text-anchor:start;fill:none;stroke:#000000;stroke-linecap:butt;stroke-linejoin:miter;stroke-miterlimit:10.43299961;stroke-opacity:1;stroke-dasharray:none;stroke-dashoffset:0"><path
           id="path3085"
           d="m 226.36,713.48 0,0.01 0,0.01 0,0.02 0,0.01 0,0 0,0.01 0,0.01 0,0.01 0,0.01 0,0.01 0,0.01 0,0.01 0,0 -0.01,0.01 0,0.01 0,0 0,0.01 0,0.01 0,0.01 0,0.01 -0.01,0.01 0,0.01 0,0.01 -0.01,0 0,0.01 -0.01,0.01 0,0 -0.01,0.01 -0.01,0 -0.01,0.01 0,0 -0.01,0 0,0 -0.01,0 0,0 -0.01,0 -0.01,0.01 0,0 -0.01,0 -0.01,0 0,0 -0.01,0 -0.01,0 -0.01,0 0,0 -0.01,0 -0.01,0 -0.01,0 -0.01,0 -0.01,0 -0.01,0 -0.01,0 c -0.62,-0.64 -1.49,-0.64 -1.81,-0.64 v -0.3 c 0.2,0 0.78,0 1.3,0.25 v -5.14 c 0,-0.36 -0.03,-0.48 -0.92,-0.48 h -0.32 v -0.31 c 0.35,0.04 1.21,0.04 1.61,0.04 0.4,0 1.26,0 1.61,-0.04 v 0.31 h -0.32 c -0.89,0 -0.92,0.11 -0.92,0.48 z"
           inkscape:connector-curvature="0"
           style="fill:#000000;stroke-width:0" /></g></g>    <g
       id="content"
       transform="matrix(5.1089236,0,0,-4.6202268,-1169.7169,4339.7966)"
       xml:space="preserve"
       stroke-miterlimit="10.433"
       font-style="normal"
       font-variant="normal"
       font-weight="normal"
       font-stretch="normal"
       font-size-adjust="none"
       letter-spacing="normal"
       word-spacing="normal"
       ns0:text="0"
       ns0:preamble=""
       style="font-style:normal;font-variant:normal;font-weight:normal;font-stretch:normal;letter-spacing:normal;word-spacing:normal;text-anchor:start;fill:none;stroke:#000000;stroke-linecap:butt;stroke-linejoin:miter;stroke-miterlimit:10.43299961;stroke-opacity:1;stroke-dasharray:none;stroke-dashoffset:0"><path
         style="fill:#000000;stroke-width:0"
         inkscape:connector-curvature="0"
         d="m 228.01,710.3 0,0.15 0,0.15 -0.01,0.15 0,0.15 -0.01,0.15 -0.02,0.14 -0.01,0.15 -0.02,0.15 -0.02,0.14 -0.03,0.15 -0.03,0.14 -0.04,0.15 -0.04,0.14 -0.05,0.14 -0.06,0.14 -0.03,0.07 -0.03,0.07 c -0.46,0.95 -1.27,1.11 -1.69,1.11 -0.6,0 -1.32,-0.26 -1.73,-1.18 -0.32,-0.69 -0.37,-1.46 -0.37,-2.26 0,-0.74 0.04,-1.64 0.45,-2.39 0.43,-0.81 1.15,-1 1.64,-1 v 0.21 c -0.39,0 -0.98,0.25 -1.15,1.21 -0.11,0.59 -0.11,1.51 -0.11,2.09 0,0.64 0,1.29 0.08,1.83 0.18,1.18 0.93,1.27 1.18,1.27 0.33,0 0.98,-0.18 1.17,-1.16 0.1,-0.56 0.1,-1.31 0.1,-1.94 0,-0.74 0,-1.42 -0.11,-2.05 -0.15,-0.95 -0.71,-1.25 -1.16,-1.25 h 0 v -0.21 c 0.54,0 1.29,0.2 1.73,1.15 0.32,0.68 0.37,1.46 0.37,2.24 z"
         id="path3158" /></g>    <g
       style="font-style:normal;font-variant:normal;font-weight:normal;font-stretch:normal;letter-spacing:normal;word-spacing:normal;text-anchor:start;fill:none;stroke:#000000;stroke-linecap:butt;stroke-linejoin:miter;stroke-miterlimit:10.43299961;stroke-opacity:1;stroke-dasharray:none;stroke-dashoffset:0"
       ns0:preamble=""
       ns0:text="$X_{b}$"
       word-spacing="normal"
       letter-spacing="normal"
       font-size-adjust="none"
       font-stretch="normal"
       font-weight="normal"
       font-variant="normal"
       font-style="normal"
       stroke-miterlimit="10.433"
       xml:space="preserve"
       transform="matrix(3.8137734,0,0,-3.9661502,-599.73575,3871.4376)"
       id="g3230"><path
         id="path3232"
         d="m 228.26,711.21 -0.84,1.97 c -0.03,0.08 -0.05,0.12 -0.05,0.13 0,0.06 0.17,0.25 0.59,0.29 0.1,0.01 0.2,0.02 0.2,0.19 0,0.12 -0.12,0.12 -0.15,0.12 -0.41,0 -0.84,-0.03 -1.25,-0.03 -0.25,0 -0.87,0.03 -1.12,0.03 -0.06,0 -0.18,0 -0.18,-0.2 0,-0.11 0.1,-0.11 0.23,-0.11 0.6,0 0.66,-0.1 0.75,-0.32 l 1.17,-2.77 -2.1,-2.25 -0.13,-0.11 c -0.48,-0.53 -0.95,-0.69 -1.46,-0.72 -0.13,-0.01 -0.22,-0.01 -0.22,-0.2 0,-0.01 0,-0.11 0.13,-0.11 0.3,0 0.63,0.04 0.93,0.04 0.37,0 0.76,-0.04 1.12,-0.04 0.06,0 0.18,0 0.18,0.2 0,0.1 -0.1,0.11 -0.12,0.11 -0.09,0.01 -0.4,0.03 -0.4,0.31 0,0.16 0.15,0.32 0.27,0.45 l 1.01,1.07 0.9,0.97 1.01,-2.37 c 0.03,-0.11 0.04,-0.12 0.04,-0.14 0,-0.08 -0.18,-0.25 -0.57,-0.29 -0.11,-0.01 -0.2,-0.02 -0.2,-0.19 0,-0.12 0.11,-0.12 0.15,-0.12 0.28,0 0.97,0.04 1.25,0.04 0.25,0 0.86,-0.04 1.11,-0.04 0.07,0 0.19,0 0.19,0.19 0,0.12 -0.1,0.12 -0.18,0.12 -0.67,0.01 -0.69,0.04 -0.86,0.44 -0.39,0.92 -1.05,2.47 -1.28,3.07 0.67,0.7 1.72,1.88 2.04,2.15 0.29,0.24 0.66,0.48 1.26,0.51 0.13,0.01 0.22,0.01 0.22,0.2 0,0.01 0,0.11 -0.13,0.11 -0.3,0 -0.63,-0.03 -0.94,-0.03 -0.36,0 -0.74,0.03 -1.1,0.03 -0.06,0 -0.19,0 -0.19,-0.2 0,-0.07 0.05,-0.1 0.12,-0.11 0.09,-0.01 0.4,-0.03 0.4,-0.31 0,-0.13 -0.11,-0.26 -0.19,-0.35 z"
         inkscape:connector-curvature="0"
         style="fill:#000000;stroke-width:0" /><path
         id="path3234"
         d="m 233.52,710.25 0.01,0 0,0 0,0 0,0 0,0 0,0 0,0.01 0,0 0,0 0,0 0,0.01 0,0 0,0 0,0.01 0.01,0 0,0.01 0,0 0,0.01 0,0.01 0,0 0,0.01 0,0 0.01,0 0,0.01 0,0 0,0.01 0,0 0,0 0,0.01 0,0 0,0 0,0 0,0 0,0 0,0.01 0,0 0,0 0,0 0,0 0,0 0,0 c 0,0.03 -0.03,0.1 -0.11,0.1 -0.14,0 -0.72,-0.06 -0.89,-0.07 -0.06,-0.01 -0.15,-0.02 -0.15,-0.16 0,-0.1 0.09,-0.1 0.18,-0.1 0.33,0 0.33,-0.05 0.33,-0.1 0,-0.05 -0.07,-0.33 -0.11,-0.49 l -0.16,-0.64 c -0.06,-0.24 -0.45,-1.76 -0.46,-1.85 -0.03,-0.17 -0.03,-0.26 -0.03,-0.34 0,-0.7 0.44,-1.15 1.02,-1.15 l 0.01,0.2 c -0.34,0 -0.54,0.29 -0.54,0.71 0,0.25 0.06,0.49 0.26,1.27 0.04,0.14 0.04,0.15 0.17,0.3 0.27,0.31 0.58,0.46 0.83,0.46 0.27,0 0.51,-0.2 0.51,-0.67 0,-0.29 -0.15,-1 -0.36,-1.4 -0.17,-0.34 -0.52,-0.67 -0.87,-0.67 h 0 l -0.01,-0.2 c 0.87,0 1.8,0.95 1.8,1.98 0,0.81 -0.57,1.16 -1.05,1.16 -0.36,0 -0.67,-0.2 -0.88,-0.38 z"
         inkscape:connector-curvature="0"
         style="fill:#000000;stroke-width:0" /></g>    <g
       id="g3294"
       transform="matrix(3.8137734,0,0,-3.9661502,-849.24818,3648.4689)"
       xml:space="preserve"
       stroke-miterlimit="10.433"
       font-style="normal"
       font-variant="normal"
       font-weight="normal"
       font-stretch="normal"
       font-size-adjust="none"
       letter-spacing="normal"
       word-spacing="normal"
       ns0:text="$\\alpha$"
       ns0:preamble=""
       style="font-style:normal;font-variant:normal;font-weight:normal;font-stretch:normal;letter-spacing:normal;word-spacing:normal;text-anchor:start;fill:none;stroke:#000000;stroke-linecap:butt;stroke-linejoin:miter;stroke-miterlimit:10.43299961;stroke-opacity:1;stroke-dasharray:none;stroke-dashoffset:0"><path
         style="fill:#000000;stroke-width:0"
         inkscape:connector-curvature="0"
         d="m 228.18,709.47 0,0.07 0,0.07 -0.01,0.07 0,0.07 -0.02,0.13 -0.01,0.12 -0.03,0.12 -0.02,0.12 -0.03,0.1 -0.04,0.11 -0.04,0.09 -0.04,0.1 -0.04,0.08 -0.05,0.08 -0.06,0.08 -0.05,0.07 -0.06,0.07 -0.06,0.06 -0.06,0.05 -0.06,0.06 -0.07,0.05 -0.06,0.04 -0.07,0.04 -0.07,0.04 -0.07,0.03 -0.07,0.03 -0.08,0.02 -0.07,0.02 -0.07,0.02 -0.07,0.01 -0.07,0.01 -0.07,0.01 -0.07,0 -0.07,0.01 c -1.37,0 -2.68,-1.43 -2.68,-2.83 0,-0.92 0.6,-1.67 1.61,-1.67 l 0.02,0.21 c -0.59,0 -0.89,0.45 -0.89,1.09 0,0.48 0.26,1.56 0.57,2.06 0.47,0.73 1.01,0.92 1.36,0.92 0.98,0 0.98,-1.3 0.98,-2.08 0,-0.37 0,-0.94 0.02,-1.11 h 0 c -0.87,-0.77 -1.64,-0.88 -2.04,-0.88 l -0.02,-0.21 c 0.63,0 1.34,0.22 2.1,0.83 0.13,-0.53 0.46,-0.83 0.91,-0.83 0.52,0 0.83,0.54 0.83,0.7 0,0.07 -0.06,0.1 -0.12,0.1 -0.07,0 -0.1,-0.03 -0.13,-0.1 -0.18,-0.49 -0.53,-0.49 -0.55,-0.49 -0.31,0 -0.31,0.78 -0.31,1.02 0,0.21 0,0.23 0.1,0.34 0.93,1.18 1.14,2.33 1.14,2.34 0,0.02 -0.01,0.1 -0.12,0.1 -0.1,0 -0.1,-0.03 -0.15,-0.21 -0.18,-0.62 -0.5,-1.38 -0.97,-1.97 z"
         id="path3296" /></g>    <g
       style="font-style:normal;font-variant:normal;font-weight:normal;font-stretch:normal;letter-spacing:normal;word-spacing:normal;text-anchor:start;fill:none;stroke:#000000;stroke-linecap:butt;stroke-linejoin:miter;stroke-miterlimit:10.43299961;stroke-opacity:1;stroke-dasharray:none;stroke-dashoffset:0"
       ns0:preamble=""
       ns0:text="$\\beta$"
       word-spacing="normal"
       letter-spacing="normal"
       font-size-adjust="none"
       font-stretch="normal"
       font-weight="normal"
       font-variant="normal"
       font-style="normal"
       stroke-miterlimit="10.433"
       xml:space="preserve"
       transform="matrix(3.8137734,0,0,-3.9661502,-337.24439,3648.9252)"
       id="g3357"><path
         id="path3359"
         d="m 229.15,712.78 0,0.07 0,0.07 -0.01,0.06 -0.01,0.07 -0.02,0.06 -0.01,0.07 -0.02,0.06 -0.03,0.06 -0.02,0.06 -0.03,0.06 -0.03,0.06 -0.03,0.06 -0.04,0.05 -0.04,0.05 -0.04,0.05 -0.04,0.05 -0.05,0.04 -0.04,0.05 -0.06,0.04 -0.05,0.03 -0.05,0.04 -0.06,0.03 -0.06,0.03 -0.06,0.03 -0.06,0.02 -0.07,0.03 -0.06,0.01 -0.07,0.02 -0.07,0.01 -0.07,0.01 -0.08,0.01 -0.07,0 c -0.58,0 -0.86,-0.16 -1.2,-0.42 -0.55,-0.4 -1.1,-1.36 -1.29,-2.12 l -1.58,-6.3 c -0.01,-0.04 0.04,-0.1 0.12,-0.1 0.08,0 0.11,0.02 0.12,0.05 l 0.7,2.74 c 0.18,-0.6 0.62,-0.96 1.35,-0.96 l -0.03,0.21 c -0.76,0 -1.14,0.58 -1.14,1.29 0,0.09 0,0.24 0.05,0.43 l 0.64,2.52 c 0.22,0.85 0.94,2.43 2.13,2.43 0.58,0 0.93,-0.31 0.93,-0.9 h 0 c 0,-0.7 -0.38,-1.42 -0.9,-1.72 -0.27,0.1 -0.47,0.12 -0.77,0.12 -0.2,0 -0.76,0.01 -0.76,-0.32 -0.01,-0.28 0.51,-0.25 0.68,-0.25 l 0.03,0.22 c -0.14,0 -0.33,-0.01 -0.43,0.04 0.02,0.1 0.37,0.08 0.48,0.08 0.21,0 0.3,0 0.43,-0.05 h 0 c -0.13,-0.05 -0.24,-0.07 -0.48,-0.07 l -0.03,-0.22 c 0.37,0 0.52,0.01 0.82,0.13 0.38,-0.36 0.43,-0.67 0.44,-1.12 0.02,-0.58 -0.22,-1.32 -0.5,-1.71 -0.39,-0.54 -1.05,-0.9 -1.62,-0.9 l 0.03,-0.21 c 0.72,0 1.47,0.34 1.92,0.78 0.48,0.46 0.8,1.09 0.8,1.83 0,0.71 -0.37,1.23 -0.73,1.48 0.58,0.33 1.14,0.94 1.14,1.66 z"
         inkscape:connector-curvature="0"
         style="fill:#000000;stroke-width:0" /></g>    <g
       id="g3424"
       transform="matrix(3.8137734,0,0,-3.9661502,-627.57629,3773.9145)"
       xml:space="preserve"
       stroke-miterlimit="10.433"
       font-style="normal"
       font-variant="normal"
       font-weight="normal"
       font-stretch="normal"
       font-size-adjust="none"
       letter-spacing="normal"
       word-spacing="normal"
       ns0:text="$\\alpha+\\beta$"
       ns0:preamble=""
       style="font-style:normal;font-variant:normal;font-weight:normal;font-stretch:normal;letter-spacing:normal;word-spacing:normal;text-anchor:start;fill:none;stroke:#000000;stroke-linecap:butt;stroke-linejoin:miter;stroke-miterlimit:10.43299961;stroke-opacity:1;stroke-dasharray:none;stroke-dashoffset:0"><path
         style="fill:#000000;stroke-width:0"
         inkscape:connector-curvature="0"
         d="m 228.18,709.47 0,0.07 0,0.07 -0.01,0.07 0,0.07 -0.02,0.13 -0.01,0.12 -0.03,0.12 -0.02,0.12 -0.03,0.1 -0.04,0.11 -0.04,0.09 -0.04,0.1 -0.04,0.08 -0.05,0.08 -0.06,0.08 -0.05,0.07 -0.06,0.07 -0.06,0.06 -0.06,0.05 -0.06,0.06 -0.07,0.05 -0.06,0.04 -0.07,0.04 -0.07,0.04 -0.07,0.03 -0.07,0.03 -0.08,0.02 -0.07,0.02 -0.07,0.02 -0.07,0.01 -0.07,0.01 -0.07,0.01 -0.07,0 -0.07,0.01 c -1.37,0 -2.68,-1.43 -2.68,-2.83 0,-0.92 0.6,-1.67 1.61,-1.67 l 0.02,0.21 c -0.59,0 -0.89,0.45 -0.89,1.09 0,0.48 0.26,1.56 0.57,2.06 0.47,0.73 1.01,0.92 1.36,0.92 0.98,0 0.98,-1.3 0.98,-2.08 0,-0.37 0,-0.94 0.02,-1.11 h 0 c -0.87,-0.77 -1.64,-0.88 -2.04,-0.88 l -0.02,-0.21 c 0.63,0 1.34,0.22 2.1,0.83 0.13,-0.53 0.46,-0.83 0.91,-0.83 0.52,0 0.83,0.54 0.83,0.7 0,0.07 -0.06,0.1 -0.12,0.1 -0.07,0 -0.1,-0.03 -0.13,-0.1 -0.18,-0.49 -0.53,-0.49 -0.55,-0.49 -0.31,0 -0.31,0.78 -0.31,1.02 0,0.21 0,0.23 0.1,0.34 0.93,1.18 1.14,2.33 1.14,2.34 0,0.02 -0.01,0.1 -0.12,0.1 -0.1,0 -0.1,-0.03 -0.15,-0.21 -0.18,-0.62 -0.5,-1.38 -0.97,-1.97 z"
         id="path3426" /><path
         style="fill:#000000;stroke-width:0"
         inkscape:connector-curvature="0"
         d="m 236.12,709.41 h 2.78 c 0.14,0 0.33,0 0.33,0.2 0,0.2 -0.19,0.2 -0.33,0.2 h -2.78 v 2.78 c 0,0.14 0,0.33 -0.19,0.33 -0.2,0 -0.2,-0.19 -0.2,-0.33 v -2.78 h -2.79 c -0.14,0 -0.33,0 -0.33,-0.2 0,-0.2 0.19,-0.2 0.33,-0.2 h 2.79 v -2.78 c 0,-0.14 0,-0.33 0.2,-0.33 0.19,0 0.19,0.19 0.19,0.33 z"
         id="path3428" /><path
         style="fill:#000000;stroke-width:0"
         inkscape:connector-curvature="0"
         d="m 247.74,712.78 0,0.07 -0.01,0.07 0,0.06 -0.02,0.07 -0.01,0.06 -0.02,0.07 -0.02,0.06 -0.02,0.06 -0.02,0.06 -0.03,0.06 -0.03,0.06 -0.04,0.06 -0.03,0.05 -0.04,0.05 -0.04,0.05 -0.04,0.05 -0.05,0.04 -0.05,0.05 -0.05,0.04 -0.05,0.03 -0.06,0.04 -0.05,0.03 -0.06,0.03 -0.06,0.03 -0.06,0.02 -0.07,0.03 -0.07,0.01 -0.06,0.02 -0.07,0.01 -0.07,0.01 -0.08,0.01 -0.07,0 c -0.58,0 -0.86,-0.16 -1.21,-0.42 -0.54,-0.4 -1.09,-1.36 -1.28,-2.12 l -1.58,-6.3 c -0.01,-0.04 0.04,-0.1 0.12,-0.1 0.08,0 0.11,0.02 0.12,0.05 l 0.69,2.74 c 0.19,-0.6 0.63,-0.96 1.36,-0.96 l -0.03,0.21 c -0.76,0 -1.14,0.58 -1.14,1.29 0,0.09 0,0.24 0.05,0.43 l 0.64,2.52 c 0.22,0.85 0.93,2.43 2.13,2.43 0.57,0 0.92,-0.31 0.92,-0.9 h 0 c 0,-0.7 -0.38,-1.42 -0.89,-1.72 -0.27,0.1 -0.47,0.12 -0.77,0.12 -0.21,0 -0.76,0.01 -0.76,-0.32 -0.02,-0.28 0.5,-0.25 0.68,-0.25 l 0.03,0.22 c -0.14,0 -0.34,-0.01 -0.44,0.04 0.02,0.1 0.38,0.08 0.49,0.08 0.21,0 0.3,0 0.43,-0.05 h 0 c -0.13,-0.05 -0.24,-0.07 -0.48,-0.07 l -0.03,-0.22 c 0.37,0 0.52,0.01 0.82,0.13 0.37,-0.36 0.42,-0.67 0.44,-1.12 0.01,-0.58 -0.22,-1.32 -0.5,-1.71 -0.39,-0.54 -1.06,-0.9 -1.62,-0.9 l 0.03,-0.21 c 0.72,0 1.47,0.34 1.92,0.78 0.47,0.46 0.79,1.09 0.79,1.83 0,0.71 -0.37,1.23 -0.72,1.48 0.57,0.33 1.14,0.94 1.14,1.66 z"
         id="path3430" /></g>    <g
       style="font-style:normal;font-variant:normal;font-weight:normal;font-stretch:normal;letter-spacing:normal;word-spacing:normal;text-anchor:start;fill:none;stroke:#000000;stroke-linecap:butt;stroke-linejoin:miter;stroke-miterlimit:10.43299961;stroke-opacity:1;stroke-dasharray:none;stroke-dashoffset:0"
       ns0:preamble=""
       ns0:text="$\\alpha+L$"
       word-spacing="normal"
       letter-spacing="normal"
       font-size-adjust="none"
       font-stretch="normal"
       font-weight="normal"
       font-variant="normal"
       font-style="normal"
       stroke-miterlimit="10.433"
       xml:space="preserve"
       transform="matrix(3.5071739,0,0,-3.2590774,-728.61388,3118.051)"
       id="g3526"><path
         id="path3528"
         d="m 228.18,709.47 0,0.07 0,0.07 -0.01,0.07 0,0.07 -0.02,0.13 -0.01,0.12 -0.03,0.12 -0.02,0.12 -0.03,0.1 -0.04,0.11 -0.04,0.09 -0.04,0.1 -0.04,0.08 -0.05,0.08 -0.06,0.08 -0.05,0.07 -0.06,0.07 -0.06,0.06 -0.06,0.05 -0.06,0.06 -0.07,0.05 -0.06,0.04 -0.07,0.04 -0.07,0.04 -0.07,0.03 -0.07,0.03 -0.08,0.02 -0.07,0.02 -0.07,0.02 -0.07,0.01 -0.07,0.01 -0.07,0.01 -0.07,0 -0.07,0.01 c -1.37,0 -2.68,-1.43 -2.68,-2.83 0,-0.92 0.6,-1.67 1.61,-1.67 l 0.02,0.21 c -0.59,0 -0.89,0.45 -0.89,1.09 0,0.48 0.26,1.56 0.57,2.06 0.47,0.73 1.01,0.92 1.36,0.92 0.98,0 0.98,-1.3 0.98,-2.08 0,-0.37 0,-0.94 0.02,-1.11 h 0 c -0.87,-0.77 -1.64,-0.88 -2.04,-0.88 l -0.02,-0.21 c 0.63,0 1.34,0.22 2.1,0.83 0.13,-0.53 0.46,-0.83 0.91,-0.83 0.52,0 0.83,0.54 0.83,0.7 0,0.07 -0.06,0.1 -0.12,0.1 -0.07,0 -0.1,-0.03 -0.13,-0.1 -0.18,-0.49 -0.53,-0.49 -0.55,-0.49 -0.31,0 -0.31,0.78 -0.31,1.02 0,0.21 0,0.23 0.1,0.34 0.93,1.18 1.14,2.33 1.14,2.34 0,0.02 -0.01,0.1 -0.12,0.1 -0.1,0 -0.1,-0.03 -0.15,-0.21 -0.18,-0.62 -0.5,-1.38 -0.97,-1.97 z"
         inkscape:connector-curvature="0"
         style="fill:#000000;stroke-width:0" /><path
         id="path3530"
         d="m 236.12,709.41 h 2.78 c 0.14,0 0.33,0 0.33,0.2 0,0.2 -0.19,0.2 -0.33,0.2 h -2.78 v 2.78 c 0,0.14 0,0.33 -0.19,0.33 -0.2,0 -0.2,-0.19 -0.2,-0.33 v -2.78 h -2.79 c -0.14,0 -0.33,0 -0.33,-0.2 0,-0.2 0.19,-0.2 0.33,-0.2 h 2.79 v -2.78 c 0,-0.14 0,-0.33 0.2,-0.33 0.19,0 0.19,0.19 0.19,0.33 z"
         inkscape:connector-curvature="0"
         style="fill:#000000;stroke-width:0" /><path
         id="path3532"
         d="m 245.74,713.14 0.01,0.03 0.01,0.03 0,0.03 0.01,0.03 0.01,0.03 0.01,0.02 0.01,0.03 0.01,0.02 0.01,0.02 0.02,0.02 0.01,0.02 0.02,0.02 0.01,0.02 0.02,0.01 0.03,0.02 0.02,0.01 0.03,0.02 0.03,0.01 0.03,0.01 0.03,0.01 0.02,0 0.02,0.01 0.02,0 0.02,0.01 0.03,0 0.02,0 0.02,0.01 0.03,0 0.02,0 0.03,0 0.03,0.01 0.03,0 0.03,0 0.03,0 0.03,0.01 0.03,0 0.04,0 0.03,0 0.04,0 0.04,0 0.04,0 0.04,0 0.04,0 0.04,0 c 0.3,0 0.38,0 0.38,0.19 0,0.12 -0.11,0.12 -0.16,0.12 -0.33,0 -1.14,-0.03 -1.47,-0.03 -0.3,0 -1.02,0.03 -1.32,0.03 -0.07,0 -0.19,0 -0.19,-0.2 0,-0.11 0.09,-0.11 0.28,-0.11 0.02,0 0.21,0 0.37,-0.02 0.18,-0.02 0.27,-0.03 0.27,-0.16 0,-0.04 -0.01,-0.07 -0.04,-0.19 l -1.33,-5.33 c -0.1,-0.39 -0.12,-0.47 -0.9,-0.47 -0.17,0 -0.27,0 -0.27,-0.2 0,-0.11 0.09,-0.11 0.27,-0.11 h 4.6 c 0.24,0 0.25,0 0.31,0.17 l 0.79,2.15 c 0.04,0.11 0.04,0.13 0.04,0.14 0,0.04 -0.03,0.11 -0.12,0.11 -0.09,0 -0.1,-0.05 -0.17,-0.21 -0.34,-0.91 -0.78,-2.05 -2.5,-2.05 h -0.93 c -0.14,0 -0.16,0 -0.22,0.01 -0.1,0.01 -0.13,0.02 -0.13,0.1 0,0.03 0,0.05 0.05,0.23 z"
         inkscape:connector-curvature="0"
         style="fill:#000000;stroke-width:0" /></g>    <g
       id="g3596"
       transform="matrix(3.8137734,0,0,-3.9661502,-488.76263,3618.3056)"
       xml:space="preserve"
       stroke-miterlimit="10.433"
       font-style="normal"
       font-variant="normal"
       font-weight="normal"
       font-stretch="normal"
       font-size-adjust="none"
       letter-spacing="normal"
       word-spacing="normal"
       ns0:text="$\\beta+L$"
       ns0:preamble=""
       style="font-style:normal;font-variant:normal;font-weight:normal;font-stretch:normal;letter-spacing:normal;word-spacing:normal;text-anchor:start;fill:none;stroke:#000000;stroke-linecap:butt;stroke-linejoin:miter;stroke-miterlimit:10.43299961;stroke-opacity:1;stroke-dasharray:none;stroke-dashoffset:0"><path
         d="m 229.15,712.78 0,0.07 0,0.07 -0.01,0.06 -0.01,0.07 -0.02,0.06 -0.01,0.07 -0.02,0.06 -0.03,0.06 -0.02,0.06 -0.03,0.06 -0.03,0.06 -0.03,0.06 -0.04,0.05 -0.04,0.05 -0.04,0.05 -0.04,0.05 -0.05,0.04 -0.04,0.05 -0.06,0.04 -0.05,0.03 -0.05,0.04 -0.06,0.03 -0.06,0.03 -0.06,0.03 -0.06,0.02 -0.07,0.03 -0.06,0.01 -0.07,0.02 -0.07,0.01 -0.07,0.01 -0.08,0.01 -0.07,0 c -0.58,0 -0.86,-0.16 -1.2,-0.42 -0.55,-0.4 -1.1,-1.36 -1.29,-2.12 l -1.58,-6.3 c -0.01,-0.04 0.04,-0.1 0.12,-0.1 0.08,0 0.11,0.02 0.12,0.05 l 0.7,2.74 c 0.18,-0.6 0.62,-0.96 1.35,-0.96 l -0.03,0.21 c -0.76,0 -1.14,0.58 -1.14,1.29 0,0.09 0,0.24 0.05,0.43 l 0.64,2.52 c 0.22,0.85 0.94,2.43 2.13,2.43 0.58,0 0.93,-0.31 0.93,-0.9 h 0 c 0,-0.7 -0.38,-1.42 -0.9,-1.72 -0.27,0.1 -0.47,0.12 -0.77,0.12 -0.2,0 -0.76,0.01 -0.76,-0.32 -0.01,-0.28 0.51,-0.25 0.68,-0.25 l 0.03,0.22 c -0.14,0 -0.33,-0.01 -0.43,0.04 0.02,0.1 0.37,0.08 0.48,0.08 0.21,0 0.3,0 0.43,-0.05 h 0 c -0.13,-0.05 -0.24,-0.07 -0.48,-0.07 l -0.03,-0.22 c 0.37,0 0.52,0.01 0.82,0.13 0.38,-0.36 0.43,-0.67 0.44,-1.12 0.02,-0.58 -0.22,-1.32 -0.5,-1.71 -0.39,-0.54 -1.05,-0.9 -1.62,-0.9 l 0.03,-0.21 c 0.72,0 1.47,0.34 1.92,0.78 0.48,0.46 0.8,1.09 0.8,1.83 0,0.71 -0.37,1.23 -0.73,1.48 0.58,0.33 1.14,0.94 1.14,1.66 z"
         id="path3598"
         inkscape:connector-curvature="0"
         style="fill:#000000;stroke-width:0" /><path
         d="m 235.88,709.41 h 2.77 c 0.14,0 0.33,0 0.33,0.2 0,0.2 -0.19,0.2 -0.33,0.2 h -2.77 v 2.78 c 0,0.14 0,0.33 -0.2,0.33 -0.2,0 -0.2,-0.19 -0.2,-0.33 v -2.78 h -2.79 c -0.14,0 -0.33,0 -0.33,-0.2 0,-0.2 0.19,-0.2 0.33,-0.2 h 2.79 v -2.78 c 0,-0.14 0,-0.33 0.2,-0.33 0.2,0 0.2,0.19 0.2,0.33 z"
         id="path3600"
         inkscape:connector-curvature="0"
         style="fill:#000000;stroke-width:0" /><path
         d="m 245.49,713.14 0.01,0.03 0.01,0.03 0.01,0.03 0,0.03 0.01,0.03 0.01,0.02 0.01,0.03 0.01,0.02 0.01,0.02 0.02,0.02 0.01,0.02 0.02,0.02 0.02,0.02 0.02,0.01 0.02,0.02 0.02,0.01 0.03,0.02 0.03,0.01 0.03,0.01 0.03,0.01 0.02,0 0.02,0.01 0.02,0 0.02,0.01 0.03,0 0.02,0 0.02,0.01 0.03,0 0.02,0 0.03,0 0.03,0.01 0.03,0 0.03,0 0.03,0 0.03,0.01 0.04,0 0.03,0 0.04,0 0.03,0 0.04,0 0.04,0 0.04,0 0.04,0 0.05,0 c 0.29,0 0.37,0 0.37,0.19 0,0.12 -0.11,0.12 -0.16,0.12 -0.32,0 -1.14,-0.03 -1.47,-0.03 -0.3,0 -1.02,0.03 -1.32,0.03 -0.07,0 -0.19,0 -0.19,-0.2 0,-0.11 0.09,-0.11 0.28,-0.11 0.02,0 0.21,0 0.38,-0.02 0.18,-0.02 0.27,-0.03 0.27,-0.16 0,-0.04 -0.01,-0.07 -0.05,-0.19 l -1.33,-5.33 c -0.1,-0.39 -0.12,-0.47 -0.9,-0.47 -0.17,0 -0.27,0 -0.27,-0.2 0,-0.11 0.09,-0.11 0.27,-0.11 h 4.6 c 0.24,0 0.25,0 0.31,0.17 l 0.79,2.15 c 0.04,0.11 0.04,0.13 0.04,0.14 0,0.04 -0.03,0.11 -0.12,0.11 -0.09,0 -0.1,-0.05 -0.17,-0.21 -0.34,-0.91 -0.78,-2.05 -2.5,-2.05 h -0.93 c -0.14,0 -0.16,0 -0.22,0.01 -0.1,0.01 -0.13,0.02 -0.13,0.1 0,0.03 0,0.05 0.05,0.23 z"
         id="path3602"
         inkscape:connector-curvature="0"
         style="fill:#000000;stroke-width:0" /></g>    <g
       style="font-style:normal;font-variant:normal;font-weight:normal;font-stretch:normal;letter-spacing:normal;word-spacing:normal;text-anchor:start;fill:none;stroke:#000000;stroke-linecap:butt;stroke-linejoin:miter;stroke-miterlimit:10.43299961;stroke-opacity:1;stroke-dasharray:none;stroke-dashoffset:0"
       ns0:preamble=""
       ns0:text="$L$"
       word-spacing="normal"
       letter-spacing="normal"
       font-size-adjust="none"
       font-stretch="normal"
       font-weight="normal"
       font-variant="normal"
       font-style="normal"
       stroke-miterlimit="10.433"
       xml:space="preserve"
       transform="matrix(3.5071739,0,0,-3.2590774,-551.54551,3061.1912)"
       id="g3697"><path
         id="path3699"
         d="m 227.15,713.14 0.01,0.03 0.01,0.03 0.01,0.03 0.01,0.03 0,0.03 0.01,0.02 0.01,0.03 0.01,0.02 0.02,0.02 0.01,0.02 0.01,0.02 0.02,0.02 0.02,0.02 0.02,0.01 0.02,0.02 0.02,0.01 0.03,0.02 0.03,0.01 0.03,0.01 0.04,0.01 0.02,0 0.01,0.01 0.03,0 0.02,0.01 0.02,0 0.02,0 0.03,0.01 0.02,0 0.03,0 0.02,0 0.03,0.01 0.03,0 0.03,0 0.03,0 0.03,0.01 0.04,0 0.03,0 0.04,0 0.03,0 0.04,0 0.04,0 0.04,0 0.04,0 0.05,0 c 0.3,0 0.38,0 0.38,0.19 0,0.12 -0.11,0.12 -0.16,0.12 -0.33,0 -1.15,-0.03 -1.48,-0.03 -0.29,0 -1.02,0.03 -1.32,0.03 -0.07,0 -0.19,0 -0.19,-0.2 0,-0.11 0.09,-0.11 0.28,-0.11 0.02,0 0.21,0 0.38,-0.02 0.18,-0.02 0.27,-0.03 0.27,-0.16 0,-0.04 -0.01,-0.07 -0.04,-0.19 l -1.34,-5.33 c -0.09,-0.39 -0.11,-0.47 -0.9,-0.47 -0.17,0 -0.27,0 -0.27,-0.2 0,-0.11 0.09,-0.11 0.27,-0.11 h 4.61 c 0.23,0 0.24,0 0.3,0.17 l 0.79,2.15 c 0.04,0.11 0.04,0.13 0.04,0.14 0,0.04 -0.03,0.11 -0.12,0.11 -0.09,0 -0.1,-0.05 -0.17,-0.21 -0.34,-0.91 -0.78,-2.05 -2.5,-2.05 h -0.93 c -0.14,0 -0.16,0 -0.22,0.01 -0.1,0.01 -0.13,0.02 -0.13,0.1 0,0.03 0,0.05 0.05,0.23 z"
         inkscape:connector-curvature="0"
         style="fill:#000000;stroke-width:0" /></g>    <path
       style="fill:none;stroke:#ff0000;stroke-width:2.12644625px;stroke-linecap:butt;stroke-linejoin:miter;stroke-opacity:1"
       d="m -52.088397,879.56163 654.375007,0"
       id="path3735"
       inkscape:connector-curvature="0" />
    <path
       style="fill:none;stroke:#ff0000;stroke-width:1.06322312;stroke-linecap:butt;stroke-linejoin:miter;stroke-miterlimit:4;stroke-opacity:1;stroke-dasharray:2.12644641, 1.0632232;stroke-dashoffset:0"
       d="m 31.400832,878.79483 0,159.49557"
       id="path4513"
       inkscape:connector-curvature="0" />
    <path
       style="fill:none;stroke:#ff0000;stroke-width:1.06322312;stroke-linecap:butt;stroke-linejoin:miter;stroke-miterlimit:4;stroke-opacity:1;stroke-dasharray:2.12644641, 1.0632232;stroke-dashoffset:0"
       d="m 499.24136,879.56163 0,157.19517"
       id="path4515"
       inkscape:connector-curvature="0" />
    <g
       id="g4998"
       transform="matrix(4.3590081,0,0,-4.5526009,-1038.0077,3013.6172)"
       xml:space="preserve"
       stroke-miterlimit="10.433"
       font-style="normal"
       font-variant="normal"
       font-weight="normal"
       font-stretch="normal"
       font-size-adjust="none"
       letter-spacing="normal"
       word-spacing="normal"
       ns0:text="$T$"
       ns0:preamble="/home/ken/.config/inkscape/textextpreamble.txt"
       style="font-style:normal;font-variant:normal;font-weight:normal;font-stretch:normal;letter-spacing:normal;word-spacing:normal;text-anchor:start;fill:none;stroke:#000000;stroke-linecap:butt;stroke-linejoin:miter;stroke-miterlimit:10.43299961;stroke-opacity:1;stroke-dasharray:none;stroke-dashoffset:0"><path
         style="fill:#000000;stroke-width:0"
         inkscape:connector-curvature="0"
         d="m 227.68,483.27 0.01,0.02 0,0.02 0.01,0.03 0.01,0.02 0,0.02 0.01,0.02 0,0.02 0.01,0.02 0,0.01 0.01,0.02 0.01,0.01 0,0.02 0.01,0.01 0,0.01 0.01,0.01 0.01,0.01 0,0.01 0.01,0.01 0.01,0.01 0,0.01 0.01,0 0.01,0.01 0,0.01 0.01,0 0.01,0.01 0.01,0 0.01,0.01 0.01,0 0.01,0 0.01,0.01 0.01,0 0.01,0 c 0.09,0.02 0.42,0.02 0.63,0.02 1,0 1.45,-0.04 1.45,-0.81 0,-0.15 -0.04,-0.54 -0.08,-0.8 -0.01,-0.04 -0.03,-0.16 -0.03,-0.19 0,-0.05 0.03,-0.12 0.12,-0.12 0.11,0 0.13,0.07 0.15,0.22 l 0.27,1.73 c 0.01,0.04 0.02,0.14 0.02,0.17 0,0.11 -0.1,0.11 -0.27,0.11 h -5.52 c -0.24,0 -0.25,-0.01 -0.32,-0.2 l -0.6,-1.75 c -0.01,-0.02 -0.06,-0.16 -0.06,-0.18 0,-0.06 0.05,-0.1 0.12,-0.1 0.1,0 0.11,0.04 0.17,0.2 0.54,1.54 0.8,1.72 2.27,1.72 h 0.39 c 0.27,0 0.27,-0.04 0.27,-0.12 0,-0.06 -0.03,-0.18 -0.04,-0.21 l -1.33,-5.3 c -0.09,-0.37 -0.12,-0.48 -1.18,-0.48 -0.36,0 -0.42,0 -0.42,-0.19 0,-0.12 0.11,-0.12 0.17,-0.12 0.27,0 0.55,0.03 0.81,0.03 0.28,0 0.57,0.01 0.85,0.01 0.28,0 0.56,-0.01 0.83,-0.01 0.28,0 0.58,-0.03 0.86,-0.03 0.1,0 0.22,0 0.22,0.2 0,0.11 -0.08,0.11 -0.34,0.11 -0.25,0 -0.38,0 -0.64,0.02 -0.28,0.03 -0.36,0.06 -0.36,0.22 0,0.01 0,0.06 0.04,0.21 z"
         id="path5000" /></g>    <g
       id="g3071"
       transform="matrix(2.7326369,0,0,-3.1589524,-601.3057,2574.4647)"
       xml:space="preserve"
       stroke-miterlimit="10.433"
       font-style="normal"
       font-variant="normal"
       font-weight="normal"
       font-stretch="normal"
       font-size-adjust="none"
       letter-spacing="normal"
       word-spacing="normal"
       ns0:text="\\textcolor{red}\n{$X_{b}^{\\alpha}(\\infty)$}"
       ns0:preamble="/home/ken/.config/inkscape/textextpreamble.txt"
       style="font-style:normal;font-variant:normal;font-weight:normal;font-stretch:normal;letter-spacing:normal;word-spacing:normal;text-anchor:start;fill:none;stroke:#ff0000;stroke-linecap:butt;stroke-linejoin:miter;stroke-miterlimit:10.43299961;stroke-opacity:1;stroke-dasharray:none;stroke-dashoffset:0"><path
         style="fill:#ff0000;stroke:#ff0000;stroke-width:0"
         inkscape:connector-curvature="0"
         d="m 228.26,481.32 -0.84,1.98 c -0.03,0.07 -0.05,0.11 -0.05,0.12 0,0.06 0.17,0.25 0.59,0.29 0.1,0.01 0.2,0.02 0.2,0.19 0,0.12 -0.12,0.12 -0.15,0.12 -0.41,0 -0.84,-0.03 -1.25,-0.03 -0.25,0 -0.87,0.03 -1.12,0.03 -0.06,0 -0.18,0 -0.18,-0.2 0,-0.11 0.1,-0.11 0.23,-0.11 0.6,0 0.66,-0.1 0.75,-0.32 l 1.17,-2.77 -2.1,-2.25 -0.13,-0.11 c -0.48,-0.53 -0.95,-0.69 -1.46,-0.72 -0.13,-0.01 -0.22,-0.01 -0.22,-0.2 0,-0.01 0,-0.11 0.13,-0.11 0.3,0 0.63,0.04 0.93,0.04 0.37,0 0.76,-0.04 1.12,-0.04 0.06,0 0.18,0 0.18,0.2 0,0.1 -0.1,0.11 -0.12,0.11 -0.09,0.01 -0.4,0.03 -0.4,0.31 0,0.16 0.15,0.32 0.27,0.45 l 1.01,1.07 0.9,0.97 1.01,-2.37 c 0.03,-0.11 0.04,-0.12 0.04,-0.14 0,-0.08 -0.18,-0.25 -0.57,-0.29 -0.11,-0.01 -0.2,-0.02 -0.2,-0.19 0,-0.12 0.11,-0.12 0.15,-0.12 0.28,0 0.97,0.04 1.25,0.04 0.25,0 0.86,-0.04 1.11,-0.04 0.07,0 0.19,0 0.19,0.19 0,0.12 -0.1,0.12 -0.18,0.12 -0.67,0.01 -0.69,0.04 -0.86,0.44 -0.39,0.92 -1.05,2.47 -1.28,3.07 0.67,0.69 1.72,1.88 2.04,2.15 0.29,0.24 0.66,0.48 1.26,0.51 0.13,0.01 0.22,0.01 0.22,0.2 0,0.01 0,0.11 -0.13,0.11 -0.3,0 -0.63,-0.03 -0.94,-0.03 -0.36,0 -0.74,0.03 -1.1,0.03 -0.06,0 -0.19,0 -0.19,-0.2 0,-0.07 0.05,-0.1 0.12,-0.11 0.09,-0.01 0.4,-0.03 0.4,-0.31 0,-0.13 -0.11,-0.26 -0.19,-0.35 z"
         id="path3073" /><path
         style="fill:#ff0000;stroke:#ff0000;stroke-width:0"
         inkscape:connector-curvature="0"
         d="m 236.28,481.83 0.06,0.06 0.05,0.07 0.06,0.06 0.05,0.07 0.05,0.07 0.05,0.06 0.04,0.07 0.05,0.07 0.04,0.07 0.04,0.06 0.04,0.07 0.03,0.07 0.04,0.06 0.03,0.07 0.03,0.06 0.03,0.06 0.02,0.06 0.03,0.06 0.02,0.05 0.02,0.06 0.02,0.05 0.02,0.05 0.01,0.04 0.02,0.04 0.01,0.04 0.01,0.04 0.01,0.03 0,0.03 0.01,0.02 0,0.02 0.01,0.01 0,0.01 c 0,0.09 -0.09,0.09 -0.12,0.09 -0.1,0 -0.1,-0.02 -0.15,-0.17 -0.12,-0.46 -0.35,-0.88 -0.65,-1.26 0,0.11 -0.02,0.57 -0.03,0.63 -0.11,0.69 -0.63,1.14 -1.32,1.14 l -0.01,-0.2 c 0.56,0 0.72,-0.53 0.77,-0.96 0.04,-0.3 0.03,-0.8 0.06,-1.16 h 0 c -0.68,-0.56 -1.27,-0.62 -1.53,-0.62 -0.46,0 -0.72,0.3 -0.72,0.77 0,0.2 0.09,0.96 0.46,1.44 0.32,0.42 0.71,0.53 0.96,0.53 l 0.01,0.2 c -1.03,0 -2.01,-0.96 -2.01,-1.93 0,-0.64 0.47,-1.21 1.27,-1.21 0.65,0 1.22,0.29 1.61,0.59 0.16,-0.51 0.52,-0.59 0.73,-0.59 0.4,0 0.65,0.34 0.65,0.49 0,0.08 -0.08,0.08 -0.12,0.08 -0.09,0 -0.1,-0.03 -0.11,-0.07 -0.1,-0.26 -0.32,-0.3 -0.4,-0.3 -0.1,0 -0.22,0 -0.25,0.85 z"
         id="path3075" /><path
         style="fill:#ff0000;stroke:#ff0000;stroke-width:0"
         inkscape:connector-curvature="0"
         d="m 233.52,479.03 0.01,0 0,0 0,0 0,0 0,0.01 0,0 0,0 0,0 0,0 0,0.01 0,0 0,0 0,0.01 0,0 0.01,0.01 0,0 0,0.01 0,0 0,0.01 0,0 0,0.01 0,0 0.01,0.01 0,0 0,0.01 0,0 0,0 0,0.01 0,0 0,0 0,0 0,0 0,0.01 0,0 0,0 0,0 0,0 0,0 0,0 0,0 0,0 c 0,0.04 -0.03,0.1 -0.11,0.1 -0.14,0 -0.72,-0.06 -0.89,-0.07 -0.06,-0.01 -0.15,-0.01 -0.15,-0.16 0,-0.1 0.09,-0.1 0.18,-0.1 0.33,0 0.33,-0.05 0.33,-0.1 0,-0.05 -0.07,-0.33 -0.11,-0.49 l -0.16,-0.64 c -0.06,-0.23 -0.45,-1.76 -0.46,-1.85 -0.03,-0.16 -0.03,-0.25 -0.03,-0.34 0,-0.7 0.44,-1.15 1.02,-1.15 l 0.01,0.2 c -0.34,0 -0.54,0.3 -0.54,0.71 0,0.26 0.06,0.49 0.26,1.28 0.04,0.13 0.04,0.14 0.17,0.3 0.27,0.3 0.58,0.46 0.83,0.46 0.27,0 0.51,-0.21 0.51,-0.68 0,-0.28 -0.15,-0.99 -0.36,-1.4 -0.17,-0.34 -0.52,-0.67 -0.87,-0.67 h 0 l -0.01,-0.2 c 0.87,0 1.8,0.95 1.8,1.98 0,0.81 -0.57,1.16 -1.05,1.16 -0.36,0 -0.67,-0.2 -0.88,-0.38 z"
         id="path3077" /><path
         style="fill:#ff0000;stroke:#ff0000;stroke-width:0"
         inkscape:connector-curvature="0"
         d="m 241.44,474.85 0,0.01 0,0 0,0 0,0.01 0,0 0,0 -0.01,0.01 0,0 0,0 0,0.01 0,0 -0.01,0.01 0,0 0,0.01 -0.01,0 0,0.01 -0.01,0.01 0,0 -0.01,0.01 0,0 0,0.01 -0.01,0 0,0 0,0.01 -0.01,0 0,0.01 -0.01,0 0,0.01 -0.01,0 0,0.01 -0.01,0 0,0.01 -0.01,0.01 -0.01,0 0,0.01 -0.01,0.01 0,0 -0.01,0.01 -0.01,0.01 -0.01,0 0,0.01 -0.01,0.01 c -1.25,1.25 -1.56,3.13 -1.56,4.65 0,1.73 0.38,3.45 1.6,4.7 0.13,0.12 0.13,0.14 0.13,0.17 0,0.07 -0.04,0.09 -0.1,0.09 -0.1,0 -1,-0.67 -1.58,-1.93 -0.51,-1.09 -0.63,-2.2 -0.63,-3.03 0,-0.78 0.11,-1.98 0.66,-3.1 0.59,-1.22 1.45,-1.87 1.55,-1.87 0.06,0 0.1,0.03 0.1,0.1 z"
         id="path3079" /><path
         style="fill:#ff0000;stroke:#ff0000;stroke-width:0"
         inkscape:connector-curvature="0"
         d="m 247.07,479.93 -0.05,0.06 -0.04,0.06 -0.05,0.05 -0.04,0.06 -0.04,0.05 -0.04,0.05 -0.03,0.04 -0.04,0.04 -0.03,0.05 -0.04,0.04 -0.03,0.03 -0.03,0.04 -0.02,0.03 -0.03,0.03 -0.03,0.03 -0.02,0.03 -0.03,0.03 -0.02,0.03 -0.03,0.02 -0.02,0.03 -0.05,0.05 -0.05,0.04 -0.04,0.05 -0.05,0.04 -0.06,0.04 -0.02,0.03 -0.03,0.02 c -0.56,0.45 -1.12,0.63 -1.62,0.63 -1.17,0 -1.92,-1.1 -1.92,-2.26 h 0.22 c 0,0.97 0.66,1.78 1.54,1.78 0.57,0 1.02,-0.42 1.23,-0.63 0.25,-0.26 0.48,-0.57 1.09,-1.36 h 0 c -0.41,-0.71 -1.15,-1.72 -2.27,-1.72 -1.06,0 -1.59,1.04 -1.59,1.93 h -0.22 c 0,-1.14 0.73,-2.24 1.88,-2.24 1.14,0 1.97,0.9 2.45,1.69 0.54,-0.67 0.66,-0.82 0.97,-1.07 0.56,-0.45 1.11,-0.62 1.62,-0.62 1.17,0 1.92,1.09 1.92,2.25 h -0.22 c 0,-0.97 -0.66,-1.78 -1.54,-1.78 -0.58,0 -1.02,0.42 -1.23,0.63 -0.25,0.27 -0.48,0.57 -1.09,1.36 h 0 c 0.41,0.71 1.15,1.72 2.27,1.72 1.06,0 1.59,-1.04 1.59,-1.93 h 0.22 c 0,1.14 -0.73,2.25 -1.88,2.25 -1.14,0 -1.97,-0.91 -2.46,-1.7 z"
         id="path3081" /><path
         style="fill:#ff0000;stroke:#ff0000;stroke-width:0"
         inkscape:connector-curvature="0"
         d="m 254.86,479.72 0,0.07 0,0.08 -0.01,0.08 0,0.08 -0.01,0.17 -0.01,0.17 -0.01,0.18 -0.03,0.19 -0.02,0.2 -0.04,0.2 -0.04,0.2 -0.04,0.21 -0.05,0.21 -0.07,0.21 -0.07,0.21 -0.07,0.21 -0.05,0.11 -0.04,0.11 -0.05,0.1 -0.05,0.11 c -0.6,1.22 -1.45,1.86 -1.55,1.86 -0.06,0 -0.1,-0.03 -0.1,-0.09 0,-0.03 0,-0.05 0.19,-0.23 0.97,-0.99 1.54,-2.56 1.54,-4.64 0,-1.7 -0.37,-3.45 -1.6,-4.7 -0.13,-0.12 -0.13,-0.14 -0.13,-0.17 0,-0.06 0.04,-0.1 0.1,-0.1 0.1,0 0.99,0.68 1.58,1.94 0.51,1.09 0.63,2.19 0.63,3.03 z"
         id="path3083" /></g>    <g
       style="font-style:normal;font-variant:normal;font-weight:normal;font-stretch:normal;letter-spacing:normal;word-spacing:normal;text-anchor:start;fill:none;stroke:#ff0000;stroke-linecap:butt;stroke-linejoin:miter;stroke-miterlimit:10.43299961;stroke-opacity:1;stroke-dasharray:none;stroke-dashoffset:0"
       ns0:preamble="/home/ken/.config/inkscape/textextpreamble.txt"
       ns0:text="\\textcolor{red}\n{$X_{b}^{\\beta}\\infty$}"
       word-spacing="normal"
       letter-spacing="normal"
       font-size-adjust="none"
       font-stretch="normal"
       font-weight="normal"
       font-variant="normal"
       font-style="normal"
       stroke-miterlimit="10.433"
       xml:space="preserve"
       transform="matrix(2.7326369,0,0,-3.1589524,-141.74982,2573.4678)"
       id="g3183"><path
         id="path3185"
         d="m 228.26,481.32 -0.84,1.98 c -0.03,0.07 -0.05,0.11 -0.05,0.12 0,0.06 0.17,0.25 0.59,0.29 0.1,0.01 0.2,0.02 0.2,0.19 0,0.12 -0.12,0.12 -0.15,0.12 -0.41,0 -0.84,-0.03 -1.25,-0.03 -0.25,0 -0.87,0.03 -1.12,0.03 -0.06,0 -0.18,0 -0.18,-0.2 0,-0.11 0.1,-0.11 0.23,-0.11 0.6,0 0.66,-0.1 0.75,-0.32 l 1.17,-2.77 -2.1,-2.25 -0.13,-0.11 c -0.48,-0.53 -0.95,-0.69 -1.46,-0.72 -0.13,-0.01 -0.22,-0.01 -0.22,-0.2 0,-0.01 0,-0.11 0.13,-0.11 0.3,0 0.63,0.04 0.93,0.04 0.37,0 0.76,-0.04 1.12,-0.04 0.06,0 0.18,0 0.18,0.2 0,0.1 -0.1,0.11 -0.12,0.11 -0.09,0.01 -0.4,0.03 -0.4,0.31 0,0.16 0.15,0.32 0.27,0.45 l 1.01,1.07 0.9,0.97 1.01,-2.37 c 0.03,-0.11 0.04,-0.12 0.04,-0.14 0,-0.08 -0.18,-0.25 -0.57,-0.29 -0.11,-0.01 -0.2,-0.02 -0.2,-0.19 0,-0.12 0.11,-0.12 0.15,-0.12 0.28,0 0.97,0.04 1.25,0.04 0.25,0 0.86,-0.04 1.11,-0.04 0.07,0 0.19,0 0.19,0.19 0,0.12 -0.1,0.12 -0.18,0.12 -0.67,0.01 -0.69,0.04 -0.86,0.44 -0.39,0.92 -1.05,2.47 -1.28,3.07 0.67,0.69 1.72,1.88 2.04,2.15 0.29,0.24 0.66,0.48 1.26,0.51 0.13,0.01 0.22,0.01 0.22,0.2 0,0.01 0,0.11 -0.13,0.11 -0.3,0 -0.63,-0.03 -0.94,-0.03 -0.36,0 -0.74,0.03 -1.1,0.03 -0.06,0 -0.19,0 -0.19,-0.2 0,-0.07 0.05,-0.1 0.12,-0.11 0.09,-0.01 0.4,-0.03 0.4,-0.31 0,-0.13 -0.11,-0.26 -0.19,-0.35 z"
         inkscape:connector-curvature="0"
         style="fill:#ff0000;stroke:#ff0000;stroke-width:0" /><path
         id="path3187"
         d="m 236.88,485.96 -0.01,0.06 0,0.05 -0.01,0.05 -0.01,0.06 -0.01,0.05 -0.02,0.05 -0.02,0.04 -0.02,0.05 -0.02,0.04 -0.03,0.04 -0.02,0.04 -0.03,0.04 -0.04,0.04 -0.03,0.04 -0.04,0.03 -0.04,0.03 -0.04,0.03 -0.04,0.03 -0.04,0.03 -0.05,0.02 -0.04,0.02 -0.05,0.02 -0.05,0.02 -0.05,0.02 -0.05,0.02 -0.05,0.01 -0.06,0.01 -0.05,0.01 -0.06,0.01 -0.05,0 -0.06,0 -0.06,0 -0.01,-0.19 c 0.41,0 0.7,-0.22 0.7,-0.65 h 0 c 0,-0.37 -0.18,-0.91 -0.62,-1.15 -0.13,0.04 -0.26,0.09 -0.65,0.09 -0.24,0 -0.59,-0.01 -0.59,-0.26 0,-0.18 0.21,-0.21 0.57,-0.21 l 0.01,0.19 c -0.11,0 -0.28,0.01 -0.32,0.04 0.06,0.04 0.26,0.05 0.32,0.05 0.11,0 0.26,-0.01 0.36,-0.04 h 0 c -0.11,-0.02 -0.16,-0.05 -0.36,-0.05 l -0.01,-0.19 c 0.24,0 0.44,0.04 0.66,0.1 0.21,-0.14 0.32,-0.43 0.32,-0.74 0,-1 -0.69,-1.76 -1.54,-1.76 -0.53,0 -0.92,0.33 -0.92,0.88 0,0.07 0.01,0.14 0.02,0.2 l 0.46,1.85 c 0.17,0.66 0.78,1.65 1.59,1.65 l 0.01,0.19 c -0.95,0 -1.65,-1.08 -1.83,-1.78 l -1.09,-4.38 c -0.02,-0.05 0.06,-0.09 0.1,-0.09 0.06,0 0.11,0.01 0.13,0.05 l 0.47,1.86 c 0.14,-0.32 0.48,-0.62 1.04,-0.62 0.97,0 2.08,0.7 2.08,1.77 0,0.41 -0.19,0.82 -0.55,1.05 0.34,0.22 0.8,0.62 0.8,1.18 z"
         inkscape:connector-curvature="0"
         style="fill:#ff0000;stroke:#ff0000;stroke-width:0" /><path
         id="path3189"
         d="m 233.52,478.85 0.01,0 0,0 0,0 0,0 0,0 0,0 0,0 0,0.01 0,0 0,0 0,0.01 0,0 0,0 0,0.01 0.01,0 0,0.01 0,0 0,0.01 0,0.01 0,0 0,0 0,0.01 0.01,0 0,0.01 0,0 0,0.01 0,0 0,0 0,0.01 0,0 0,0 0,0 0,0 0,0 0,0 0,0.01 0,0 0,0 0,0 0,0 0,0 c 0,0.03 -0.03,0.1 -0.11,0.1 -0.14,0 -0.72,-0.06 -0.89,-0.07 -0.06,-0.01 -0.15,-0.02 -0.15,-0.16 0,-0.1 0.09,-0.1 0.18,-0.1 0.33,0 0.33,-0.05 0.33,-0.11 0,-0.04 -0.07,-0.32 -0.11,-0.48 l -0.16,-0.64 c -0.06,-0.24 -0.45,-1.76 -0.46,-1.85 -0.03,-0.17 -0.03,-0.26 -0.03,-0.34 0,-0.7 0.44,-1.15 1.02,-1.15 l 0.01,0.2 c -0.34,0 -0.54,0.29 -0.54,0.7 0,0.26 0.06,0.5 0.26,1.28 0.04,0.14 0.04,0.15 0.17,0.3 0.27,0.31 0.58,0.46 0.83,0.46 0.27,0 0.51,-0.2 0.51,-0.67 0,-0.29 -0.15,-1 -0.36,-1.4 -0.17,-0.34 -0.52,-0.67 -0.87,-0.67 h 0 l -0.01,-0.2 c 0.87,0 1.8,0.95 1.8,1.98 0,0.81 -0.57,1.16 -1.05,1.16 -0.36,0 -0.67,-0.2 -0.88,-0.39 z"
         inkscape:connector-curvature="0"
         style="fill:#ff0000;stroke:#ff0000;stroke-width:0" /><path
         id="path3191"
         d="m 242.9,479.93 -0.05,0.06 -0.05,0.06 -0.04,0.05 -0.05,0.06 -0.04,0.05 -0.04,0.05 -0.03,0.04 -0.04,0.04 -0.03,0.05 -0.03,0.04 -0.03,0.03 -0.03,0.04 -0.03,0.03 -0.03,0.03 -0.03,0.03 -0.02,0.03 -0.03,0.03 -0.02,0.03 -0.03,0.02 -0.02,0.03 -0.05,0.05 -0.04,0.04 -0.05,0.05 -0.05,0.04 -0.05,0.04 -0.03,0.03 -0.03,0.02 c -0.56,0.45 -1.11,0.63 -1.62,0.63 -1.16,0 -1.92,-1.1 -1.92,-2.26 h 0.22 c 0,0.97 0.66,1.78 1.54,1.78 0.58,0 1.03,-0.42 1.23,-0.63 0.25,-0.26 0.48,-0.57 1.09,-1.36 h 0 c -0.41,-0.71 -1.15,-1.72 -2.27,-1.72 -1.05,0 -1.59,1.04 -1.59,1.93 h -0.22 c 0,-1.14 0.73,-2.24 1.88,-2.24 1.14,0 1.97,0.9 2.46,1.69 0.53,-0.67 0.65,-0.82 0.96,-1.07 0.56,-0.45 1.12,-0.62 1.62,-0.62 1.17,0 1.92,1.09 1.92,2.25 h -0.22 c 0,-0.97 -0.66,-1.78 -1.54,-1.78 -0.57,0 -1.02,0.42 -1.23,0.63 -0.25,0.27 -0.48,0.57 -1.09,1.36 h 0 c 0.41,0.71 1.15,1.72 2.27,1.72 1.06,0 1.59,-1.04 1.59,-1.93 h 0.22 c 0,1.14 -0.73,2.25 -1.88,2.25 -1.14,0 -1.97,-0.91 -2.45,-1.7 z"
         inkscape:connector-curvature="0"
         style="fill:#ff0000;stroke:#ff0000;stroke-width:0" /></g>  </g>
</svg>
