<?xml version="1.0" encoding="UTF-8" standalone="no"?>
<!-- Created with Inkscape (http://www.inkscape.org/) -->

<svg
   xmlns:ns0="http://www.iki.fi/pav/software/textext/"
   xmlns:dc="http://purl.org/dc/elements/1.1/"
   xmlns:cc="http://creativecommons.org/ns#"
   xmlns:rdf="http://www.w3.org/1999/02/22-rdf-syntax-ns#"
   xmlns:svg="http://www.w3.org/2000/svg"
   xmlns="http://www.w3.org/2000/svg"
   xmlns:xlink="http://www.w3.org/1999/xlink"
   xmlns:sodipodi="http://sodipodi.sourceforge.net/DTD/sodipodi-0.dtd"
   xmlns:inkscape="http://www.inkscape.org/namespaces/inkscape"
   width="589.58405"
   height="161"
   id="svg2"
   version="1.1"
   inkscape:version="0.91 r"
   sodipodi:docname="kirkendall problem fluxes.svg"
   viewBox="0 0 589.58404 161">
  <sodipodi:namedview
     id="base"
     pagecolor="#ffffff"
     bordercolor="#666666"
     borderopacity="1.0"
     inkscape:pageopacity="0.0"
     inkscape:pageshadow="2"
     inkscape:zoom="0.70000001"
     inkscape:cx="-174.31991"
     inkscape:cy="82.114598"
     inkscape:document-units="px"
     inkscape:current-layer="layer1"
     showgrid="true"
     units="in"
     width="11cm"
     inkscape:window-width="1920"
     inkscape:window-height="1053"
     inkscape:window-x="0"
     inkscape:window-y="0"
     inkscape:window-maximized="1"
     fit-margin-top="0"
     fit-margin-left="0"
     fit-margin-right="0"
     fit-margin-bottom="0"
     inkscape:snap-bbox="true"
     inkscape:snap-to-guides="false"
     inkscape:object-nodes="true"
     inkscape:snap-smooth-nodes="true">
    <inkscape:grid
       type="xygrid"
       id="grid2984"
       empspacing="5"
       visible="true"
       enabled="true"
       snapvisiblegridlinesonly="true"
       spacingx="2px"
       spacingy="2px"
       originx="29.584054"
       originy="-149.00001" />
  </sodipodi:namedview>
  <defs
     id="defs4">
    <marker
       style="overflow:visible"
       id="Arrow2Mend"
       refX="0"
       refY="0"
       orient="auto"
       inkscape:stockid="Arrow2Mend">
      <path
         transform="scale(-0.6,-0.6)"
         d="M 8.7185878,4.0337352 -2.2072895,0.01601326 8.7185884,-4.0017078 C 6.97309,-1.6296469 6.9831476,1.6157441 8.7185878,4.0337352 Z"
         style="fill-rule:evenodd;stroke-width:0.625;stroke-linejoin:round"
         id="path3966"
         inkscape:connector-curvature="0" />
    </marker>
  </defs>
  <metadata
     id="metadata7">
    <rdf:RDF>
      <cc:Work
         rdf:about="">
        <dc:format>image/svg+xml</dc:format>
        <dc:type
           rdf:resource="http://purl.org/dc/dcmitype/StillImage" />
        <dc:title></dc:title>
      </cc:Work>
    </rdf:RDF>
  </metadata>
  <g
     transform="translate(92.612412,-766.04724)"
     id="layer1"
     inkscape:groupmode="layer"
     inkscape:label="Layer 1">
    <path
       style="fill:none;fill-rule:evenodd;stroke:#000000;stroke-width:2.00000024;stroke-linecap:butt;stroke-linejoin:miter;stroke-miterlimit:4;stroke-dasharray:none;stroke-opacity:1"
       d="M 66.971642,766.04724 66.971642,926.04724 496.97164,926.04724"
       id="path4144"
       inkscape:connector-curvature="0"
       sodipodi:nodetypes="ccc" />
    <g
       id="g4332"
       transform="matrix(2.6197283,0,0,2.6197283,-679.78556,481.71463)"
       ns0:preamble="/home/ken/.config/inkscape/textextpreamble.txt"
       ns0:text="$J_{Cu},  J_{Ni},   J_{V}$">
      <defs
         id="defs4334">
        <g
           id="g4336">
          <symbol
             id="textext-a225d772-0"
             overflow="visible"
             style="overflow:visible">
            <path
               id="path4339"
               d=""
               style="stroke:none"
               inkscape:connector-curvature="0" />
          </symbol>
          <symbol
             id="textext-a225d772-1"
             overflow="visible"
             style="overflow:visible">
            <path
               id="path4342"
               d="M 5.390625,-6.078125 C 5.46875,-6.40625 5.5,-6.5 6.046875,-6.5 6.203125,-6.5 6.3125,-6.5 6.3125,-6.6875 6.3125,-6.78125 6.25,-6.8125 6.171875,-6.8125 5.921875,-6.8125 5.3125,-6.78125 5.0625,-6.78125 4.734375,-6.78125 3.921875,-6.8125 3.59375,-6.8125 3.515625,-6.8125 3.390625,-6.8125 3.390625,-6.609375 3.390625,-6.5 3.46875,-6.5 3.734375,-6.5 3.953125,-6.5 4.0625,-6.5 4.3125,-6.484375 4.546875,-6.453125 4.609375,-6.421875 4.609375,-6.28125 4.609375,-6.21875 4.59375,-6.15625 4.578125,-6.078125 L 3.421875,-1.5 C 3.1875,-0.53125 2.515625,0 2,0 1.734375,0 1.203125,-0.09375 1.046875,-0.625 1.078125,-0.609375 1.140625,-0.609375 1.171875,-0.609375 1.5625,-0.609375 1.8125,-0.953125 1.8125,-1.25 1.8125,-1.5625 1.546875,-1.671875 1.375,-1.671875 1.203125,-1.671875 0.703125,-1.546875 0.703125,-0.875 0.703125,-0.25 1.234375,0.21875 2.03125,0.21875 2.9375,0.21875 3.984375,-0.4375 4.234375,-1.421875 Z M 5.390625,-6.078125"
               style="stroke:none"
               inkscape:connector-curvature="0" />
          </symbol>
          <symbol
             id="textext-a225d772-2"
             overflow="visible"
             style="overflow:visible">
            <path
               id="path4345"
               d="M 2.03125,-0.015625 C 2.03125,-0.671875 1.78125,-1.0625 1.390625,-1.0625 1.0625,-1.0625 0.859375,-0.8125 0.859375,-0.53125 0.859375,-0.265625 1.0625,0 1.390625,0 1.5,0 1.640625,-0.046875 1.734375,-0.125 1.765625,-0.15625 1.78125,-0.15625 1.78125,-0.15625 1.796875,-0.15625 1.796875,-0.15625 1.796875,-0.015625 1.796875,0.734375 1.453125,1.328125 1.125,1.65625 1.015625,1.765625 1.015625,1.78125 1.015625,1.8125 1.015625,1.890625 1.0625,1.921875 1.109375,1.921875 1.21875,1.921875 2.03125,1.15625 2.03125,-0.015625 Z M 2.03125,-0.015625"
               style="stroke:none"
               inkscape:connector-curvature="0" />
          </symbol>
          <symbol
             id="textext-a225d772-3"
             overflow="visible"
             style="overflow:visible">
            <path
               id="path4348"
               d=""
               style="stroke:none"
               inkscape:connector-curvature="0" />
          </symbol>
          <symbol
             id="textext-a225d772-4"
             overflow="visible"
             style="overflow:visible">
            <path
               id="path4351"
               d="M 5.875,-4.8125 C 5.875,-4.84375 5.859375,-4.90625 5.78125,-4.90625 5.734375,-4.90625 5.71875,-4.890625 5.65625,-4.8125 L 5.15625,-4.28125 C 5.09375,-4.359375 4.703125,-4.90625 3.84375,-4.90625 2.140625,-4.90625 0.484375,-3.40625 0.484375,-1.828125 0.484375,-0.6875 1.375,0.140625 2.625,0.140625 3,0.140625 3.671875,0.0625 4.390625,-0.546875 4.9375,-1.015625 5.09375,-1.609375 5.09375,-1.671875 5.09375,-1.765625 5.015625,-1.765625 4.96875,-1.765625 4.890625,-1.765625 4.875,-1.734375 4.84375,-1.65625 4.5625,-0.703125 3.59375,-0.109375 2.75,-0.109375 2,-0.109375 1.1875,-0.515625 1.1875,-1.609375 1.1875,-1.8125 1.234375,-2.90625 2.03125,-3.796875 2.515625,-4.328125 3.25,-4.640625 3.90625,-4.640625 4.71875,-4.640625 5.1875,-4.0625 5.1875,-3.28125 5.1875,-3.09375 5.171875,-3.03125 5.171875,-3 5.171875,-2.90625 5.265625,-2.90625 5.296875,-2.90625 5.40625,-2.90625 5.40625,-2.921875 5.4375,-3.0625 Z M 5.875,-4.8125"
               style="stroke:none"
               inkscape:connector-curvature="0" />
          </symbol>
          <symbol
             id="textext-a225d772-5"
             overflow="visible"
             style="overflow:visible">
            <path
               id="path4354"
               d="M 2.953125,-1.125 C 2.90625,-0.984375 2.84375,-0.71875 2.84375,-0.71875 2.703125,-0.5 2.421875,-0.125 2,-0.125 1.515625,-0.125 1.515625,-0.578125 1.515625,-0.703125 1.515625,-1.109375 1.703125,-1.609375 1.90625,-2.125 1.953125,-2.265625 2,-2.359375 2,-2.46875 2,-2.84375 1.6875,-3.078125 1.34375,-3.078125 0.640625,-3.078125 0.328125,-2.125 0.328125,-2 0.328125,-1.921875 0.421875,-1.921875 0.453125,-1.921875 0.546875,-1.921875 0.546875,-1.953125 0.578125,-2.03125 0.734375,-2.59375 1.046875,-2.875 1.3125,-2.875 1.4375,-2.875 1.484375,-2.796875 1.484375,-2.640625 1.484375,-2.46875 1.4375,-2.328125 1.359375,-2.171875 0.984375,-1.203125 0.984375,-1 0.984375,-0.8125 0.984375,-0.703125 0.984375,-0.375 1.25,-0.15625 1.453125,0.015625 1.71875,0.0625 1.96875,0.0625 2.40625,0.0625 2.640625,-0.171875 2.875,-0.390625 3.03125,0.0625 3.484375,0.0625 3.578125,0.0625 3.8125,0.0625 4,-0.0625 4.125,-0.296875 4.28125,-0.578125 4.375,-0.96875 4.375,-1 4.375,-1.09375 4.28125,-1.09375 4.265625,-1.09375 4.15625,-1.09375 4.15625,-1.0625 4.109375,-0.875 4.015625,-0.546875 3.890625,-0.125 3.59375,-0.125 3.421875,-0.125 3.359375,-0.28125 3.359375,-0.46875 3.359375,-0.578125 3.421875,-0.84375 3.46875,-1.015625 3.515625,-1.203125 3.59375,-1.484375 3.625,-1.640625 L 3.78125,-2.265625 C 3.828125,-2.4375 3.90625,-2.75 3.90625,-2.78125 3.90625,-2.921875 3.796875,-3 3.671875,-3 3.421875,-3 3.359375,-2.796875 3.3125,-2.578125 Z M 2.953125,-1.125"
               style="stroke:none"
               inkscape:connector-curvature="0" />
          </symbol>
          <symbol
             id="textext-a225d772-6"
             overflow="visible"
             style="overflow:visible">
            <path
               id="path4357"
               d="M 5.8125,-4 C 5.875,-4.265625 6,-4.5 6.546875,-4.515625 6.578125,-4.515625 6.6875,-4.515625 6.6875,-4.65625 6.6875,-4.703125 6.65625,-4.765625 6.578125,-4.765625 6.359375,-4.765625 6.09375,-4.734375 5.859375,-4.734375 5.6875,-4.734375 5.296875,-4.765625 5.125,-4.765625 5.09375,-4.765625 4.984375,-4.765625 4.984375,-4.609375 4.984375,-4.515625 5.078125,-4.515625 5.140625,-4.515625 5.46875,-4.5 5.578125,-4.390625 5.578125,-4.21875 5.578125,-4.171875 5.578125,-4.125 5.546875,-4.0625 L 4.796875,-1.015625 3.03125,-4.640625 C 2.96875,-4.765625 2.953125,-4.765625 2.78125,-4.765625 L 1.828125,-4.765625 C 1.703125,-4.765625 1.609375,-4.765625 1.609375,-4.609375 1.609375,-4.515625 1.6875,-4.515625 1.84375,-4.515625 1.984375,-4.515625 2.140625,-4.5 2.28125,-4.46875 L 1.359375,-0.75 C 1.296875,-0.484375 1.171875,-0.265625 0.625,-0.25 0.578125,-0.25 0.484375,-0.25 0.484375,-0.109375 0.484375,-0.03125 0.53125,0 0.578125,0 0.8125,0 1.078125,-0.03125 1.3125,-0.03125 1.484375,-0.03125 1.875,0 2.046875,0 2.125,0 2.1875,-0.03125 2.1875,-0.140625 2.1875,-0.25 2.109375,-0.25 2.03125,-0.25 1.59375,-0.265625 1.59375,-0.453125 1.59375,-0.546875 1.59375,-0.578125 1.59375,-0.609375 1.609375,-0.71875 L 2.515625,-4.28125 4.546875,-0.125 C 4.59375,0 4.625,0 4.703125,0 4.8125,0 4.8125,-0.015625 4.84375,-0.140625 Z M 5.8125,-4"
               style="stroke:none"
               inkscape:connector-curvature="0" />
          </symbol>
          <symbol
             id="textext-a225d772-7"
             overflow="visible"
             style="overflow:visible">
            <path
               id="path4360"
               d="M 2.265625,-4.359375 C 2.265625,-4.46875 2.171875,-4.625 1.984375,-4.625 1.796875,-4.625 1.59375,-4.4375 1.59375,-4.234375 1.59375,-4.125 1.671875,-3.96875 1.875,-3.96875 2.0625,-3.96875 2.265625,-4.171875 2.265625,-4.359375 Z M 0.84375,-0.8125 C 0.8125,-0.71875 0.78125,-0.640625 0.78125,-0.515625 0.78125,-0.1875 1.046875,0.0625 1.4375,0.0625 2.125,0.0625 2.4375,-0.890625 2.4375,-1 2.4375,-1.09375 2.34375,-1.09375 2.328125,-1.09375 2.234375,-1.09375 2.21875,-1.046875 2.1875,-0.96875 2.03125,-0.40625 1.734375,-0.125 1.453125,-0.125 1.3125,-0.125 1.28125,-0.21875 1.28125,-0.375 1.28125,-0.53125 1.328125,-0.65625 1.390625,-0.8125 1.46875,-1 1.546875,-1.1875 1.609375,-1.375 1.671875,-1.546875 1.9375,-2.171875 1.953125,-2.265625 1.984375,-2.328125 2,-2.40625 2,-2.484375 2,-2.8125 1.71875,-3.078125 1.34375,-3.078125 0.640625,-3.078125 0.328125,-2.125 0.328125,-2 0.328125,-1.921875 0.421875,-1.921875 0.453125,-1.921875 0.546875,-1.921875 0.546875,-1.953125 0.578125,-2.03125 0.75,-2.625 1.0625,-2.875 1.3125,-2.875 1.421875,-2.875 1.484375,-2.828125 1.484375,-2.640625 1.484375,-2.46875 1.453125,-2.375 1.28125,-1.9375 Z M 0.84375,-0.8125"
               style="stroke:none"
               inkscape:connector-curvature="0" />
          </symbol>
          <symbol
             id="textext-a225d772-8"
             overflow="visible"
             style="overflow:visible">
            <path
               id="path4363"
               d="M 4.984375,-3.9375 C 5.234375,-4.3125 5.46875,-4.484375 5.84375,-4.515625 5.921875,-4.515625 6,-4.515625 6,-4.65625 6,-4.6875 5.984375,-4.765625 5.90625,-4.765625 5.734375,-4.765625 5.515625,-4.734375 5.34375,-4.734375 5.125,-4.734375 4.828125,-4.765625 4.625,-4.765625 4.5625,-4.765625 4.484375,-4.734375 4.484375,-4.609375 4.484375,-4.515625 4.578125,-4.515625 4.609375,-4.515625 4.828125,-4.5 4.890625,-4.40625 4.890625,-4.3125 4.890625,-4.203125 4.84375,-4.140625 4.765625,-4.03125 L 2.484375,-0.65625 1.84375,-4.21875 C 1.828125,-4.28125 1.828125,-4.296875 1.828125,-4.328125 1.828125,-4.515625 2.21875,-4.515625 2.265625,-4.515625 2.390625,-4.515625 2.484375,-4.515625 2.484375,-4.65625 2.484375,-4.671875 2.46875,-4.765625 2.359375,-4.765625 2.15625,-4.765625 1.671875,-4.734375 1.46875,-4.734375 1.296875,-4.734375 0.859375,-4.765625 0.6875,-4.765625 0.625,-4.765625 0.546875,-4.734375 0.546875,-4.609375 0.546875,-4.515625 0.640625,-4.515625 0.71875,-4.515625 1.109375,-4.515625 1.125,-4.46875 1.15625,-4.28125 L 1.921875,-0.046875 C 1.9375,0.09375 1.953125,0.140625 2.078125,0.140625 2.21875,0.140625 2.25,0.09375 2.328125,-0.015625 Z M 4.984375,-3.9375"
               style="stroke:none"
               inkscape:connector-curvature="0" />
          </symbol>
        </g>
      </defs>
      <g
         id="textext-a225d772-9">
        <g
           id="g4366"
           style="fill:#000000;fill-opacity:1">
          <use
             id="use4368"
             y="134.765"
             x="223.43201"
             xlink:href="#textext-a225d772-1"
             width="100%"
             height="100%" />
        </g>
        <g
           id="g4370"
           style="fill:#000000;fill-opacity:1">
          <use
             id="use4372"
             y="136.259"
             x="228.957"
             xlink:href="#textext-a225d772-4"
             width="100%"
             height="100%" />
        </g>
        <g
           id="g4374"
           style="fill:#000000;fill-opacity:1">
          <use
             id="use4376"
             y="136.259"
             x="235.1595"
             xlink:href="#textext-a225d772-5"
             width="100%"
             height="100%" />
        </g>
        <g
           id="g4378"
           style="fill:#000000;fill-opacity:1">
          <use
             id="use4380"
             y="134.765"
             x="240.368"
             xlink:href="#textext-a225d772-2"
             width="100%"
             height="100%" />
        </g>
        <g
           id="g4382"
           style="fill:#000000;fill-opacity:1">
          <use
             id="use4384"
             y="134.765"
             x="244.79936"
             xlink:href="#textext-a225d772-1"
             width="100%"
             height="100%" />
        </g>
        <g
           id="g4386"
           style="fill:#000000;fill-opacity:1">
          <use
             id="use4388"
             y="136.259"
             x="250.32001"
             xlink:href="#textext-a225d772-6"
             width="100%"
             height="100%" />
        </g>
        <g
           id="g4390"
           style="fill:#000000;fill-opacity:1">
          <use
             id="use4392"
             y="136.259"
             x="257.3768"
             xlink:href="#textext-a225d772-7"
             width="100%"
             height="100%" />
        </g>
        <g
           id="g4394"
           style="fill:#000000;fill-opacity:1">
          <use
             id="use4396"
             y="134.765"
             x="260.69501"
             xlink:href="#textext-a225d772-2"
             width="100%"
             height="100%" />
        </g>
        <g
           id="g4398"
           style="fill:#000000;fill-opacity:1">
          <use
             id="use4400"
             y="134.765"
             x="265.12637"
             xlink:href="#textext-a225d772-1"
             width="100%"
             height="100%" />
        </g>
        <g
           id="g4402"
           style="fill:#000000;fill-opacity:1">
          <use
             id="use4404"
             y="136.259"
             x="270.647"
             xlink:href="#textext-a225d772-8"
             width="100%"
             height="100%" />
        </g>
      </g>
    </g>
  </g>
</svg>
