<?xml version="1.0" encoding="UTF-8" standalone="no"?>
<!-- Created with Inkscape (http://www.inkscape.org/) -->

<svg
   xmlns:ns0="http://www.iki.fi/pav/software/textext/"
   xmlns:dc="http://purl.org/dc/elements/1.1/"
   xmlns:cc="http://creativecommons.org/ns#"
   xmlns:rdf="http://www.w3.org/1999/02/22-rdf-syntax-ns#"
   xmlns:svg="http://www.w3.org/2000/svg"
   xmlns="http://www.w3.org/2000/svg"
   xmlns:xlink="http://www.w3.org/1999/xlink"
   xmlns:sodipodi="http://sodipodi.sourceforge.net/DTD/sodipodi-0.dtd"
   xmlns:inkscape="http://www.inkscape.org/namespaces/inkscape"
   width="301.07144"
   height="117.14917"
   id="svg2"
   version="1.1"
   inkscape:version="0.91 r"
   sodipodi:docname="rectangular surface energy.svg"
   viewBox="0 0 301.07144 117.14917">
  <sodipodi:namedview
     id="base"
     pagecolor="#ffffff"
     bordercolor="#666666"
     borderopacity="1.0"
     inkscape:pageopacity="0.0"
     inkscape:pageshadow="2"
     inkscape:zoom="3.959798"
     inkscape:cx="183.92785"
     inkscape:cy="66.568086"
     inkscape:document-units="px"
     inkscape:current-layer="layer1"
     showgrid="true"
     units="in"
     width="11cm"
     inkscape:window-width="1920"
     inkscape:window-height="1053"
     inkscape:window-x="0"
     inkscape:window-y="0"
     inkscape:window-maximized="1"
     fit-margin-top="0"
     fit-margin-left="0"
     fit-margin-right="0"
     fit-margin-bottom="0"
     inkscape:snap-global="false">
    <inkscape:grid
       originy="-204.67085"
       originx="-119.54508"
       spacingy="2px"
       spacingx="2px"
       snapvisiblegridlinesonly="true"
       enabled="true"
       visible="true"
       empspacing="5"
       id="grid2984"
       type="xygrid" />
  </sodipodi:namedview>
  <defs
     id="defs4">
    <marker
       inkscape:stockid="Arrow1Lend"
       orient="auto"
       refY="0"
       refX="0"
       id="marker4719"
       style="overflow:visible"
       inkscape:isstock="true">
      <path
         inkscape:connector-curvature="0"
         id="path4721"
         d="M 0,0 5,-5 -12.5,0 5,5 0,0 Z"
         style="fill:#000000;fill-opacity:1;fill-rule:evenodd;stroke:#000000;stroke-width:1pt;stroke-opacity:1"
         transform="matrix(-0.8,0,0,-0.8,-10,0)" />
    </marker>
    <marker
       inkscape:collect="always"
       inkscape:isstock="true"
       style="overflow:visible"
       id="marker4689"
       refX="0"
       refY="0"
       orient="auto"
       inkscape:stockid="Arrow1Lend">
      <path
         inkscape:connector-curvature="0"
         transform="matrix(-0.8,0,0,-0.8,-10,0)"
         style="fill:#000000;fill-opacity:1;fill-rule:evenodd;stroke:#000000;stroke-width:1pt;stroke-opacity:1"
         d="M 0,0 5,-5 -12.5,0 5,5 0,0 Z"
         id="path4691" />
    </marker>
    <marker
       inkscape:stockid="Arrow1Lend"
       orient="auto"
       refY="0"
       refX="0"
       id="marker4494"
       style="overflow:visible"
       inkscape:isstock="true">
      <path
         inkscape:connector-curvature="0"
         id="path4496"
         d="M 0,0 5,-5 -12.5,0 5,5 0,0 Z"
         style="fill:#000000;fill-opacity:1;fill-rule:evenodd;stroke:#000000;stroke-width:1pt;stroke-opacity:1"
         transform="matrix(-0.8,0,0,-0.8,-10,0)" />
    </marker>
    <marker
       inkscape:collect="always"
       inkscape:stockid="Arrow1Lend"
       orient="auto"
       refY="0"
       refX="0"
       id="Arrow1Lend"
       style="overflow:visible"
       inkscape:isstock="true">
      <path
         inkscape:connector-curvature="0"
         id="path4227"
         d="M 0,0 5,-5 -12.5,0 5,5 0,0 Z"
         style="fill:#000000;fill-opacity:1;fill-rule:evenodd;stroke:#000000;stroke-width:1pt;stroke-opacity:1"
         transform="matrix(-0.8,0,0,-0.8,-10,0)" />
    </marker>
    <marker
       inkscape:stockid="Arrow2Mend"
       orient="auto"
       refY="0"
       refX="0"
       id="Arrow2Mend"
       style="overflow:visible">
      <path
         inkscape:connector-curvature="0"
         id="path3966"
         style="fill-rule:evenodd;stroke-width:0.625;stroke-linejoin:round"
         d="M 8.7185878,4.0337352 -2.2072895,0.01601326 8.7185884,-4.0017078 C 6.97309,-1.6296469 6.9831476,1.6157441 8.7185878,4.0337352 Z"
         transform="scale(-0.6,-0.6)" />
    </marker>
  </defs>
  <metadata
     id="metadata7">
    <rdf:RDF>
      <cc:Work
         rdf:about="">
        <dc:format>image/svg+xml</dc:format>
        <dc:type
           rdf:resource="http://purl.org/dc/dcmitype/StillImage" />
        <dc:title />
      </cc:Work>
    </rdf:RDF>
  </metadata>
  <g
     inkscape:label="Layer 1"
     inkscape:groupmode="layer"
     id="layer1"
     transform="translate(-56.516728,-754.22721)">
    <rect
       y="756.04724"
       x="96.971642"
       height="89.999992"
       width="110"
       id="rect4142"
       style="opacity:1;fill:#ffaaaa;fill-opacity:1;stroke:#ffaaaa;stroke-width:1;stroke-miterlimit:4;stroke-dasharray:none;stroke-dashoffset:0;stroke-opacity:1" />
    <g
       id="g4153"
       ns0:preamble="/home/ken/.config/inkscape/textextpreamble.txt"
       ns0:text="$\\gamma_x$"
       transform="matrix(2.4184724,0,0,2.4184724,-405.74647,540.27391)">
      <defs
         id="defs4155">
        <g
           id="g4157">
          <symbol
             id="textext-7521aaf4-0"
             overflow="visible"
             style="overflow:visible">
            <path
               id="path4160"
               d=""
               style="stroke:none"
               inkscape:connector-curvature="0" />
          </symbol>
          <symbol
             id="textext-7521aaf4-1"
             overflow="visible"
             style="overflow:visible">
            <path
               id="path4163"
               d="M 0.40625,-2.53125 C 0.796875,-3.671875 1.890625,-3.6875 2,-3.6875 3.5,-3.6875 3.609375,-1.9375 3.609375,-1.15625 3.609375,-0.546875 3.5625,-0.375 3.484375,-0.171875 3.265625,0.546875 2.96875,1.703125 2.96875,1.96875 2.96875,2.078125 3.015625,2.140625 3.09375,2.140625 3.234375,2.140625 3.3125,1.921875 3.421875,1.546875 3.65625,0.703125 3.75,0.140625 3.78125,-0.171875 3.8125,-0.296875 3.828125,-0.421875 3.875,-0.5625 4.1875,-1.546875 4.828125,-3.03125 5.21875,-3.8125 5.296875,-3.9375 5.40625,-4.15625 5.40625,-4.203125 5.40625,-4.296875 5.3125,-4.296875 5.296875,-4.296875 5.265625,-4.296875 5.203125,-4.296875 5.171875,-4.234375 4.65625,-3.28125 4.25,-2.28125 3.859375,-1.28125 3.84375,-1.578125 3.84375,-2.34375 3.453125,-3.3125 3.203125,-3.921875 2.8125,-4.40625 2.125,-4.40625 0.875,-4.40625 0.171875,-2.890625 0.171875,-2.578125 0.171875,-2.484375 0.265625,-2.484375 0.375,-2.484375 Z M 0.40625,-2.53125"
               style="stroke:none"
               inkscape:connector-curvature="0" />
          </symbol>
          <symbol
             id="textext-7521aaf4-2"
             overflow="visible"
             style="overflow:visible">
            <path
               id="path4166"
               d=""
               style="stroke:none"
               inkscape:connector-curvature="0" />
          </symbol>
          <symbol
             id="textext-7521aaf4-3"
             overflow="visible"
             style="overflow:visible">
            <path
               id="path4169"
               d="M 1.734375,-0.734375 C 1.671875,-0.5 1.4375,-0.125 1.078125,-0.125 1.0625,-0.125 0.84375,-0.125 0.703125,-0.21875 0.984375,-0.3125 1.015625,-0.5625 1.015625,-0.609375 1.015625,-0.765625 0.890625,-0.859375 0.734375,-0.859375 0.53125,-0.859375 0.328125,-0.703125 0.328125,-0.4375 0.328125,-0.09375 0.71875,0.0625 1.0625,0.0625 1.390625,0.0625 1.671875,-0.125 1.84375,-0.421875 2.015625,-0.0625 2.390625,0.0625 2.671875,0.0625 3.484375,0.0625 3.90625,-0.796875 3.90625,-1 3.90625,-1.09375 3.8125,-1.09375 3.796875,-1.09375 3.6875,-1.09375 3.6875,-1.046875 3.65625,-0.96875 3.515625,-0.484375 3.09375,-0.125 2.703125,-0.125 2.421875,-0.125 2.28125,-0.3125 2.28125,-0.578125 2.28125,-0.765625 2.453125,-1.390625 2.640625,-2.171875 2.78125,-2.703125 3.09375,-2.875 3.328125,-2.875 3.34375,-2.875 3.546875,-2.875 3.703125,-2.78125 3.484375,-2.71875 3.390625,-2.515625 3.390625,-2.390625 3.390625,-2.25 3.515625,-2.140625 3.671875,-2.140625 3.828125,-2.140625 4.0625,-2.265625 4.0625,-2.5625 4.0625,-2.953125 3.609375,-3.078125 3.34375,-3.078125 2.984375,-3.078125 2.703125,-2.84375 2.5625,-2.578125 2.4375,-2.859375 2.109375,-3.078125 1.71875,-3.078125 0.9375,-3.078125 0.5,-2.21875 0.5,-2 0.5,-1.921875 0.59375,-1.921875 0.609375,-1.921875 0.703125,-1.921875 0.703125,-1.9375 0.75,-2.03125 0.921875,-2.578125 1.359375,-2.875 1.703125,-2.875 1.9375,-2.875 2.125,-2.75 2.125,-2.421875 2.125,-2.28125 2.03125,-1.9375 1.96875,-1.6875 Z M 1.734375,-0.734375"
               style="stroke:none"
               inkscape:connector-curvature="0" />
          </symbol>
        </g>
      </defs>
      <g
         id="textext-7521aaf4-4">
        <g
           id="g4172"
           style="fill:#000000;fill-opacity:1">
          <use
             id="use4174"
             y="134.765"
             x="223.43201"
             xlink:href="#textext-7521aaf4-1"
             width="100%"
             height="100%" />
        </g>
        <g
           id="g4176"
           style="fill:#000000;fill-opacity:1">
          <use
             id="use4178"
             y="136.259"
             x="228.59"
             xlink:href="#textext-7521aaf4-3"
             width="100%"
             height="100%" />
        </g>
      </g>
    </g>
    <path
       style="fill:none;fill-rule:evenodd;stroke:#000000;stroke-width:1px;stroke-linecap:butt;stroke-linejoin:miter;stroke-opacity:1;marker-end:url(#Arrow1Lend)"
       d="M 168.89042,865.03709 C 168.89042,865.03709 217.62296,858.3739 227.72926,855.94572 241.09264,852.73497 246.44867,835.50416 242.78002,822.25917 240.26335,813.17318 212.42595,801.50156 212.42595,801.50156"
       id="path4203"
       inkscape:connector-curvature="0"
       sodipodi:nodetypes="cssc" />
    <path
       style="fill:none;fill-rule:evenodd;stroke:#000000;stroke-width:1px;stroke-linecap:butt;stroke-linejoin:miter;stroke-opacity:1;marker-end:url(#marker4494)"
       d="M 130.01526,864.84825 C 130.01526,864.84825 83.303028,861.46806 73.196728,859.03988 59.833348,855.82913 54.477318,838.59832 58.145968,825.35333 60.662638,816.26734 88.752571,801.31272 88.752571,801.31272"
       id="path4203-6"
       inkscape:connector-curvature="0"
       sodipodi:nodetypes="cssc" />
    <g
       ns0:text="$\\gamma_y$"
       ns0:preamble="/home/ken/.config/inkscape/textextpreamble.txt"
       transform="matrix(2.4184724,0,0,2.4184724,-405.39598,475.5746)"
       id="g4607">
      <defs
         id="defs4609">
        <g
           id="g4611">
          <symbol
             style="overflow:visible"
             overflow="visible"
             id="textext-be99389e-0">
            <path
               inkscape:connector-curvature="0"
               style="stroke:none"
               d=""
               id="path4614" />
          </symbol>
          <symbol
             style="overflow:visible"
             overflow="visible"
             id="textext-be99389e-1">
            <path
               inkscape:connector-curvature="0"
               style="stroke:none"
               d="M 0.40625,-2.53125 C 0.796875,-3.671875 1.890625,-3.6875 2,-3.6875 3.5,-3.6875 3.609375,-1.9375 3.609375,-1.15625 3.609375,-0.546875 3.5625,-0.375 3.484375,-0.171875 3.265625,0.546875 2.96875,1.703125 2.96875,1.96875 2.96875,2.078125 3.015625,2.140625 3.09375,2.140625 3.234375,2.140625 3.3125,1.921875 3.421875,1.546875 3.65625,0.703125 3.75,0.140625 3.78125,-0.171875 3.8125,-0.296875 3.828125,-0.421875 3.875,-0.5625 4.1875,-1.546875 4.828125,-3.03125 5.21875,-3.8125 5.296875,-3.9375 5.40625,-4.15625 5.40625,-4.203125 5.40625,-4.296875 5.3125,-4.296875 5.296875,-4.296875 5.265625,-4.296875 5.203125,-4.296875 5.171875,-4.234375 4.65625,-3.28125 4.25,-2.28125 3.859375,-1.28125 3.84375,-1.578125 3.84375,-2.34375 3.453125,-3.3125 3.203125,-3.921875 2.8125,-4.40625 2.125,-4.40625 0.875,-4.40625 0.171875,-2.890625 0.171875,-2.578125 0.171875,-2.484375 0.265625,-2.484375 0.375,-2.484375 Z M 0.40625,-2.53125"
               id="path4617" />
          </symbol>
          <symbol
             style="overflow:visible"
             overflow="visible"
             id="textext-be99389e-2">
            <path
               inkscape:connector-curvature="0"
               style="stroke:none"
               d=""
               id="path4620" />
          </symbol>
          <symbol
             style="overflow:visible"
             overflow="visible"
             id="textext-be99389e-3">
            <path
               inkscape:connector-curvature="0"
               style="stroke:none"
               d="M 3.875,-2.625 C 3.90625,-2.71875 3.90625,-2.734375 3.90625,-2.78125 3.90625,-2.921875 3.796875,-3 3.671875,-3 3.59375,-3 3.46875,-2.96875 3.390625,-2.84375 3.359375,-2.796875 3.3125,-2.578125 3.28125,-2.4375 L 3.125,-1.859375 C 3.09375,-1.6875 2.875,-0.8125 2.84375,-0.734375 2.84375,-0.734375 2.53125,-0.125 2,-0.125 1.515625,-0.125 1.515625,-0.578125 1.515625,-0.703125 1.515625,-1.078125 1.671875,-1.515625 1.890625,-2.0625 1.96875,-2.28125 2,-2.359375 2,-2.484375 2,-2.8125 1.71875,-3.078125 1.34375,-3.078125 0.640625,-3.078125 0.328125,-2.125 0.328125,-2 0.328125,-1.921875 0.421875,-1.921875 0.453125,-1.921875 0.546875,-1.921875 0.546875,-1.953125 0.578125,-2.03125 0.75,-2.609375 1.046875,-2.875 1.328125,-2.875 1.4375,-2.875 1.5,-2.796875 1.5,-2.640625 1.5,-2.46875 1.4375,-2.328125 1.40625,-2.234375 1.0625,-1.375 1,-1.125 1,-0.8125 1,-0.703125 1,-0.375 1.265625,-0.140625 1.484375,0.03125 1.78125,0.0625 1.96875,0.0625 2.25,0.0625 2.5,-0.03125 2.71875,-0.25 2.640625,0.140625 2.5625,0.4375 2.265625,0.78125 2.078125,1 1.796875,1.21875 1.421875,1.21875 1.375,1.21875 1.046875,1.21875 0.90625,1 1.28125,0.953125 1.28125,0.625 1.28125,0.609375 1.28125,0.390625 1.078125,0.34375 1.015625,0.34375 0.84375,0.34375 0.609375,0.484375 0.609375,0.8125 0.609375,1.15625 0.9375,1.421875 1.4375,1.421875 2.140625,1.421875 3,0.875 3.21875,0 Z M 3.875,-2.625"
               id="path4623" />
          </symbol>
        </g>
      </defs>
      <g
         id="textext-be99389e-4">
        <g
           style="fill:#000000;fill-opacity:1"
           id="g4626">
          <use
             height="100%"
             width="100%"
             xlink:href="#textext-be99389e-1"
             x="223.43201"
             y="134.765"
             id="use4628" />
        </g>
        <g
           style="fill:#000000;fill-opacity:1"
           id="g4630">
          <use
             height="100%"
             width="100%"
             xlink:href="#textext-be99389e-3"
             x="228.59"
             y="136.259"
             id="use4632" />
        </g>
      </g>
    </g>
    <path
       inkscape:connector-curvature="0"
       id="path4679"
       d="M 146.97164,786.04724 146.97164,756.04724"
       style="fill:none;fill-rule:evenodd;stroke:#000000;stroke-width:1px;stroke-linecap:butt;stroke-linejoin:miter;stroke-opacity:1;marker-end:url(#marker4719)" />
    <path
       inkscape:connector-curvature="0"
       id="path4681"
       d="M 146.97164,816.04724 146.97164,846.04724"
       style="fill:none;fill-rule:evenodd;stroke:#000000;stroke-width:1px;stroke-linecap:butt;stroke-linejoin:miter;stroke-opacity:1;marker-end:url(#marker4689)" />
    <g
       id="g4324"
       transform="matrix(2.4184724,0,0,2.4184724,-273.47652,490.86446)"
       ns0:preamble="/home/ken/.config/inkscape/textextpreamble.txt"
       ns0:text="$\\gamma_x=2\\gamma_y$">
      <defs
         id="defs4326">
        <g
           id="g4328">
          <symbol
             id="textext-f4416a06-0"
             overflow="visible"
             style="overflow:visible">
            <path
               id="path4331"
               d=""
               style="stroke:none"
               inkscape:connector-curvature="0" />
          </symbol>
          <symbol
             id="textext-f4416a06-1"
             overflow="visible"
             style="overflow:visible">
            <path
               id="path4334"
               d="M 0.40625,-2.53125 C 0.796875,-3.671875 1.890625,-3.6875 2,-3.6875 3.5,-3.6875 3.609375,-1.9375 3.609375,-1.15625 3.609375,-0.546875 3.5625,-0.375 3.484375,-0.171875 3.265625,0.546875 2.96875,1.703125 2.96875,1.96875 2.96875,2.078125 3.015625,2.140625 3.09375,2.140625 3.234375,2.140625 3.3125,1.921875 3.421875,1.546875 3.65625,0.703125 3.75,0.140625 3.78125,-0.171875 3.8125,-0.296875 3.828125,-0.421875 3.875,-0.5625 4.1875,-1.546875 4.828125,-3.03125 5.21875,-3.8125 5.296875,-3.9375 5.40625,-4.15625 5.40625,-4.203125 5.40625,-4.296875 5.3125,-4.296875 5.296875,-4.296875 5.265625,-4.296875 5.203125,-4.296875 5.171875,-4.234375 4.65625,-3.28125 4.25,-2.28125 3.859375,-1.28125 3.84375,-1.578125 3.84375,-2.34375 3.453125,-3.3125 3.203125,-3.921875 2.8125,-4.40625 2.125,-4.40625 0.875,-4.40625 0.171875,-2.890625 0.171875,-2.578125 0.171875,-2.484375 0.265625,-2.484375 0.375,-2.484375 Z M 0.40625,-2.53125"
               style="stroke:none"
               inkscape:connector-curvature="0" />
          </symbol>
          <symbol
             id="textext-f4416a06-2"
             overflow="visible"
             style="overflow:visible">
            <path
               id="path4337"
               d=""
               style="stroke:none"
               inkscape:connector-curvature="0" />
          </symbol>
          <symbol
             id="textext-f4416a06-3"
             overflow="visible"
             style="overflow:visible">
            <path
               id="path4340"
               d="M 1.734375,-0.734375 C 1.671875,-0.5 1.4375,-0.125 1.078125,-0.125 1.0625,-0.125 0.84375,-0.125 0.703125,-0.21875 0.984375,-0.3125 1.015625,-0.5625 1.015625,-0.609375 1.015625,-0.765625 0.890625,-0.859375 0.734375,-0.859375 0.53125,-0.859375 0.328125,-0.703125 0.328125,-0.4375 0.328125,-0.09375 0.71875,0.0625 1.0625,0.0625 1.390625,0.0625 1.671875,-0.125 1.84375,-0.421875 2.015625,-0.0625 2.390625,0.0625 2.671875,0.0625 3.484375,0.0625 3.90625,-0.796875 3.90625,-1 3.90625,-1.09375 3.8125,-1.09375 3.796875,-1.09375 3.6875,-1.09375 3.6875,-1.046875 3.65625,-0.96875 3.515625,-0.484375 3.09375,-0.125 2.703125,-0.125 2.421875,-0.125 2.28125,-0.3125 2.28125,-0.578125 2.28125,-0.765625 2.453125,-1.390625 2.640625,-2.171875 2.78125,-2.703125 3.09375,-2.875 3.328125,-2.875 3.34375,-2.875 3.546875,-2.875 3.703125,-2.78125 3.484375,-2.71875 3.390625,-2.515625 3.390625,-2.390625 3.390625,-2.25 3.515625,-2.140625 3.671875,-2.140625 3.828125,-2.140625 4.0625,-2.265625 4.0625,-2.5625 4.0625,-2.953125 3.609375,-3.078125 3.34375,-3.078125 2.984375,-3.078125 2.703125,-2.84375 2.5625,-2.578125 2.4375,-2.859375 2.109375,-3.078125 1.71875,-3.078125 0.9375,-3.078125 0.5,-2.21875 0.5,-2 0.5,-1.921875 0.59375,-1.921875 0.609375,-1.921875 0.703125,-1.921875 0.703125,-1.9375 0.75,-2.03125 0.921875,-2.578125 1.359375,-2.875 1.703125,-2.875 1.9375,-2.875 2.125,-2.75 2.125,-2.421875 2.125,-2.28125 2.03125,-1.9375 1.96875,-1.6875 Z M 1.734375,-0.734375"
               style="stroke:none"
               inkscape:connector-curvature="0" />
          </symbol>
          <symbol
             id="textext-f4416a06-4"
             overflow="visible"
             style="overflow:visible">
            <path
               id="path4343"
               d="M 3.875,-2.625 C 3.90625,-2.71875 3.90625,-2.734375 3.90625,-2.78125 3.90625,-2.921875 3.796875,-3 3.671875,-3 3.59375,-3 3.46875,-2.96875 3.390625,-2.84375 3.359375,-2.796875 3.3125,-2.578125 3.28125,-2.4375 L 3.125,-1.859375 C 3.09375,-1.6875 2.875,-0.8125 2.84375,-0.734375 2.84375,-0.734375 2.53125,-0.125 2,-0.125 1.515625,-0.125 1.515625,-0.578125 1.515625,-0.703125 1.515625,-1.078125 1.671875,-1.515625 1.890625,-2.0625 1.96875,-2.28125 2,-2.359375 2,-2.484375 2,-2.8125 1.71875,-3.078125 1.34375,-3.078125 0.640625,-3.078125 0.328125,-2.125 0.328125,-2 0.328125,-1.921875 0.421875,-1.921875 0.453125,-1.921875 0.546875,-1.921875 0.546875,-1.953125 0.578125,-2.03125 0.75,-2.609375 1.046875,-2.875 1.328125,-2.875 1.4375,-2.875 1.5,-2.796875 1.5,-2.640625 1.5,-2.46875 1.4375,-2.328125 1.40625,-2.234375 1.0625,-1.375 1,-1.125 1,-0.8125 1,-0.703125 1,-0.375 1.265625,-0.140625 1.484375,0.03125 1.78125,0.0625 1.96875,0.0625 2.25,0.0625 2.5,-0.03125 2.71875,-0.25 2.640625,0.140625 2.5625,0.4375 2.265625,0.78125 2.078125,1 1.796875,1.21875 1.421875,1.21875 1.375,1.21875 1.046875,1.21875 0.90625,1 1.28125,0.953125 1.28125,0.625 1.28125,0.609375 1.28125,0.390625 1.078125,0.34375 1.015625,0.34375 0.84375,0.34375 0.609375,0.484375 0.609375,0.8125 0.609375,1.15625 0.9375,1.421875 1.4375,1.421875 2.140625,1.421875 3,0.875 3.21875,0 Z M 3.875,-2.625"
               style="stroke:none"
               inkscape:connector-curvature="0" />
          </symbol>
          <symbol
             id="textext-f4416a06-5"
             overflow="visible"
             style="overflow:visible">
            <path
               id="path4346"
               d=""
               style="stroke:none"
               inkscape:connector-curvature="0" />
          </symbol>
          <symbol
             id="textext-f4416a06-6"
             overflow="visible"
             style="overflow:visible">
            <path
               id="path4349"
               d="M 6.84375,-3.265625 C 7,-3.265625 7.1875,-3.265625 7.1875,-3.453125 7.1875,-3.65625 7,-3.65625 6.859375,-3.65625 L 0.890625,-3.65625 C 0.75,-3.65625 0.5625,-3.65625 0.5625,-3.453125 0.5625,-3.265625 0.75,-3.265625 0.890625,-3.265625 Z M 6.859375,-1.328125 C 7,-1.328125 7.1875,-1.328125 7.1875,-1.53125 7.1875,-1.71875 7,-1.71875 6.84375,-1.71875 L 0.890625,-1.71875 C 0.75,-1.71875 0.5625,-1.71875 0.5625,-1.53125 0.5625,-1.328125 0.75,-1.328125 0.890625,-1.328125 Z M 6.859375,-1.328125"
               style="stroke:none"
               inkscape:connector-curvature="0" />
          </symbol>
          <symbol
             id="textext-f4416a06-7"
             overflow="visible"
             style="overflow:visible">
            <path
               id="path4352"
               d="M 1.265625,-0.765625 2.328125,-1.796875 C 3.875,-3.171875 4.46875,-3.703125 4.46875,-4.703125 4.46875,-5.84375 3.578125,-6.640625 2.359375,-6.640625 1.234375,-6.640625 0.5,-5.71875 0.5,-4.828125 0.5,-4.28125 1,-4.28125 1.03125,-4.28125 1.203125,-4.28125 1.546875,-4.390625 1.546875,-4.8125 1.546875,-5.0625 1.359375,-5.328125 1.015625,-5.328125 0.9375,-5.328125 0.921875,-5.328125 0.890625,-5.3125 1.109375,-5.96875 1.65625,-6.328125 2.234375,-6.328125 3.140625,-6.328125 3.5625,-5.515625 3.5625,-4.703125 3.5625,-3.90625 3.078125,-3.125 2.515625,-2.5 L 0.609375,-0.375 C 0.5,-0.265625 0.5,-0.234375 0.5,0 L 4.203125,0 4.46875,-1.734375 4.234375,-1.734375 C 4.171875,-1.4375 4.109375,-1 4,-0.84375 3.9375,-0.765625 3.28125,-0.765625 3.0625,-0.765625 Z M 1.265625,-0.765625"
               style="stroke:none"
               inkscape:connector-curvature="0" />
          </symbol>
        </g>
      </defs>
      <g
         id="textext-f4416a06-8">
        <g
           id="g4355"
           style="fill:#000000;fill-opacity:1">
          <use
             id="use4357"
             y="134.765"
             x="223.43201"
             xlink:href="#textext-f4416a06-1"
             width="100%"
             height="100%" />
        </g>
        <g
           id="g4359"
           style="fill:#000000;fill-opacity:1">
          <use
             id="use4361"
             y="136.259"
             x="228.59"
             xlink:href="#textext-f4416a06-3"
             width="100%"
             height="100%" />
        </g>
        <g
           id="g4363"
           style="fill:#000000;fill-opacity:1">
          <use
             id="use4365"
             y="134.765"
             x="236.373"
             xlink:href="#textext-f4416a06-6"
             width="100%"
             height="100%" />
        </g>
        <g
           id="g4367"
           style="fill:#000000;fill-opacity:1">
          <use
             id="use4369"
             y="134.765"
             x="246.89151"
             xlink:href="#textext-f4416a06-7"
             width="100%"
             height="100%" />
        </g>
        <g
           id="g4371"
           style="fill:#000000;fill-opacity:1">
          <use
             id="use4373"
             y="134.765"
             x="251.871"
             xlink:href="#textext-f4416a06-1"
             width="100%"
             height="100%" />
        </g>
        <g
           id="g4375"
           style="fill:#000000;fill-opacity:1">
          <use
             id="use4377"
             y="136.259"
             x="257.02899"
             xlink:href="#textext-f4416a06-4"
             width="100%"
             height="100%" />
        </g>
      </g>
    </g>
  </g>
</svg>
