<?xml version="1.0" encoding="UTF-8" standalone="no"?>
<!-- Created with Inkscape (http://www.inkscape.org/) -->

<svg
   xmlns:ns0="http://www.iki.fi/pav/software/textext/"
   xmlns:dc="http://purl.org/dc/elements/1.1/"
   xmlns:cc="http://creativecommons.org/ns#"
   xmlns:rdf="http://www.w3.org/1999/02/22-rdf-syntax-ns#"
   xmlns:svg="http://www.w3.org/2000/svg"
   xmlns="http://www.w3.org/2000/svg"
   xmlns:sodipodi="http://sodipodi.sourceforge.net/DTD/sodipodi-0.dtd"
   xmlns:inkscape="http://www.inkscape.org/namespaces/inkscape"
   width="521.89941"
   height="226.49112"
   id="svg2"
   sodipodi:version="0.32"
   inkscape:version="0.48.4 r9939"
   sodipodi:docname="screw dislocation.svg"
   inkscape:output_extension="org.inkscape.output.svg.inkscape"
   version="1.0"
   inkscape:export-filename="C:\Documents and Settings\christophe.dang\Mes documents\ITII\5-defauts_cristaux\illustrations\disloc_et_deformation.png"
   inkscape:export-xdpi="104.65"
   inkscape:export-ydpi="104.65">
  <sodipodi:namedview
     id="base"
     pagecolor="#ffffff"
     bordercolor="#666666"
     borderopacity="1.0"
     inkscape:pageopacity="0.0"
     inkscape:pageshadow="2"
     inkscape:zoom="1.4"
     inkscape:cx="308.71002"
     inkscape:cy="100.70593"
     inkscape:document-units="px"
     inkscape:current-layer="layer1"
     inkscape:window-width="1438"
     inkscape:window-height="875"
     inkscape:window-x="0"
     inkscape:window-y="0"
     showgrid="false"
     inkscape:window-maximized="1"
     fit-margin-top="0"
     fit-margin-left="0"
     fit-margin-right="0"
     fit-margin-bottom="0" />
  <defs
     id="defs4">
    <marker
       inkscape:stockid="Arrow2Mend"
       orient="auto"
       refY="0"
       refX="0"
       id="Arrow2Mend"
       style="overflow:visible">
      <path
         id="path4110"
         style="fill-rule:evenodd;stroke-width:0.625;stroke-linejoin:round"
         d="M 8.7185878,4.0337352 -2.2072895,0.01601326 8.7185884,-4.0017078 c -1.7454984,2.3720609 -1.7354408,5.6174519 -6e-7,8.035443 z"
         transform="scale(-0.6,-0.6)"
         inkscape:connector-curvature="0" />
    </marker>
    <inkscape:perspective
       sodipodi:type="inkscape:persp3d"
       inkscape:vp_x="0 : 212.60196 : 1"
       inkscape:vp_y="0 : 1000 : 0"
       inkscape:vp_z="687.98187 : 212.60196 : 1"
       inkscape:persp3d-origin="343.99094 : 141.73464 : 1"
       id="perspective82" />
    <marker
       inkscape:stockid="Arrow1Mend"
       orient="auto"
       refY="0"
       refX="0"
       id="Arrow1Mend"
       style="overflow:visible">
      <path
         id="path3185"
         d="M 0,0 5,-5 -12.5,0 5,5 0,0 z"
         style="fill-rule:evenodd;stroke:#000000;stroke-width:1pt;marker-start:none"
         transform="matrix(-0.4,0,0,-0.4,-4,0)"
         inkscape:connector-curvature="0" />
    </marker>
    <marker
       inkscape:stockid="Arrow2MendA"
       orient="auto"
       refY="0"
       refX="0"
       id="Arrow2MendA"
       style="overflow:visible">
      <path
         id="path5288"
         style="fill:#ff0000;fill-rule:evenodd;stroke:#ff0000;stroke-width:0.625;stroke-linejoin:round"
         d="M 8.7185878,4.0337352 -2.2072895,0.01601326 8.7185884,-4.0017078 c -1.7454984,2.3720609 -1.7354408,5.6174519 -6e-7,8.035443 z"
         transform="scale(-0.6,-0.6)"
         inkscape:connector-curvature="0" />
    </marker>
    <marker
       inkscape:stockid="Arrow2MendA"
       orient="auto"
       refY="0"
       refX="0"
       id="Arrow2MendA-5"
       style="overflow:visible">
      <path
         id="path5288-8"
         style="fill:#ff0000;fill-rule:evenodd;stroke:#ff0000;stroke-width:0.625;stroke-linejoin:round"
         d="M 8.7185878,4.0337352 -2.2072895,0.01601326 8.7185884,-4.0017078 c -1.7454984,2.3720609 -1.7354408,5.6174519 -6e-7,8.035443 z"
         transform="scale(-0.6,-0.6)"
         inkscape:connector-curvature="0" />
    </marker>
    <marker
       inkscape:stockid="Arrow2MendAU"
       orient="auto"
       refY="0"
       refX="0"
       id="Arrow2MendAU"
       style="overflow:visible">
      <path
         id="path3922"
         style="stroke-width:0.625;stroke-linejoin:round;stroke:#000000;fill-rule:evenodd;fill:#000000"
         d="M 8.7185878,4.0337352 -2.2072895,0.01601326 8.7185884,-4.0017078 c -1.7454984,2.3720609 -1.7354408,5.6174519 -6e-7,8.035443 z"
         transform="scale(-0.6,-0.6)"
         inkscape:connector-curvature="0" />
    </marker>
  </defs>
  <metadata
     id="metadata7">
    <rdf:RDF>
      <cc:Work
         rdf:about="">
        <dc:format>image/svg+xml</dc:format>
        <dc:type
           rdf:resource="http://purl.org/dc/dcmitype/StillImage" />
        <dc:date>4 mai 2009</dc:date>
        <dc:title />
        <dc:creator>
          <cc:Agent>
            <dc:title>Christophe Dang Ngoc Chan</dc:title>
          </cc:Agent>
        </dc:creator>
        <cc:license
           rdf:resource="http://creativecommons.org/licenses/by-sa/3.0/" />
        <dc:subject>
          <rdf:Bag>
            <rdf:li>screw dislocation</rdf:li>
            <rdf:li>plastic deformation</rdf:li>
          </rdf:Bag>
        </dc:subject>
        <dc:description>Le déplacement d'une dislocation vis cisaille le cristal. Les flèches bleues indiquent la direction du cisaillement, le zone grise indique la zone où se produit le glissement, la ligne verte pointillée matérialise la dislocation.</dc:description>
      </cc:Work>
      <cc:License
         rdf:about="http://creativecommons.org/licenses/by-sa/3.0/">
        <cc:permits
           rdf:resource="http://creativecommons.org/ns#Reproduction" />
        <cc:permits
           rdf:resource="http://creativecommons.org/ns#Distribution" />
        <cc:requires
           rdf:resource="http://creativecommons.org/ns#Notice" />
        <cc:requires
           rdf:resource="http://creativecommons.org/ns#Attribution" />
        <cc:permits
           rdf:resource="http://creativecommons.org/ns#DerivativeWorks" />
        <cc:requires
           rdf:resource="http://creativecommons.org/ns#ShareAlike" />
      </cc:License>
    </rdf:RDF>
  </metadata>
  <g
     inkscape:label="Calque 1"
     inkscape:groupmode="layer"
     id="layer1"
     transform="translate(-436.9457,-571.36268)">
    <path
       style="fill:none;stroke:#00ff00;stroke-width:1;stroke-linecap:butt;stroke-linejoin:miter;stroke-miterlimit:4;stroke-opacity:1;stroke-dasharray:2, 2;stroke-dashoffset:0"
       d="m 839.92445,685.3622 -60.65864,0"
       id="path3881"
       sodipodi:nodetypes="cc"
       inkscape:connector-curvature="0" />
    <path
       style="fill:#ffaaaa;fill-opacity:1;fill-rule:evenodd;stroke:none"
       d="m 634.50323,685.19633 203.23323,0 55.3382,27.85714 -204.70238,0 -53.86905,-27.85714 z"
       id="path3877"
       inkscape:connector-curvature="0" />
    <path
       inkscape:connector-curvature="0"
       style="fill:none;stroke:#000000;stroke-width:2;stroke-linecap:butt;stroke-linejoin:miter;stroke-miterlimit:4;stroke-opacity:1;stroke-dasharray:none"
       d="m 801.85484,794.64824 -150.82576,0"
       id="path4637"
       sodipodi:nodetypes="cc" />
    <path
       inkscape:connector-curvature="0"
       style="fill:none;stroke:#000000;stroke-width:2;stroke-linecap:butt;stroke-linejoin:miter;stroke-miterlimit:4;stroke-opacity:1;stroke-dasharray:none"
       d="m 800.99768,753.43397 -149.54005,0"
       id="path4639"
       sodipodi:nodetypes="cc" />
    <path
       inkscape:connector-curvature="0"
       style="fill:none;stroke:#000000;stroke-width:2;stroke-linecap:butt;stroke-linejoin:miter;stroke-miterlimit:4;stroke-opacity:1;stroke-dasharray:none"
       d="m 838.92625,670.21968 -148.82576,0"
       id="path4641"
       sodipodi:nodetypes="cc" />
    <path
       inkscape:connector-curvature="0"
       style="fill:none;stroke:#000000;stroke-width:2;stroke-linecap:butt;stroke-linejoin:miter;stroke-miterlimit:4;stroke-opacity:1;stroke-dasharray:none"
       d="m 837.85483,627.00539 -148.82576,0"
       id="path4643"
       sodipodi:nodetypes="cc" />
    <path
       inkscape:connector-curvature="0"
       style="fill:none;stroke:#000000;stroke-width:2;stroke-linecap:butt;stroke-linejoin:miter;stroke-miterlimit:4;stroke-opacity:1;stroke-dasharray:none"
       d="m 818.21197,613.79111 -148.82576,0"
       id="path4645"
       sodipodi:nodetypes="cc" />
    <path
       inkscape:connector-curvature="0"
       style="fill:none;stroke:#000000;stroke-width:2;stroke-linecap:butt;stroke-linejoin:miter;stroke-miterlimit:4;stroke-opacity:1;stroke-dasharray:none"
       d="m 651.29909,795.21969 -79.28572,-55"
       id="path4647"
       sodipodi:nodetypes="cc" />
    <path
       inkscape:connector-curvature="0"
       style="fill:none;stroke:#000000;stroke-width:2;stroke-linecap:butt;stroke-linejoin:miter;stroke-miterlimit:4;stroke-opacity:1;stroke-dasharray:none"
       d="m 838.91259,712.36268 -188.04514,0"
       id="path4651"
       sodipodi:nodetypes="cc" />
    <path
       inkscape:connector-curvature="0"
       style="fill:none;stroke:#000000;stroke-width:2;stroke-linecap:butt;stroke-linejoin:miter;stroke-miterlimit:4;stroke-opacity:1;stroke-dasharray:none"
       d="M 651.18389,753.79125 631.9311,740.43284 621.36149,726.09627 581.9997,698.79125"
       id="path4653"
       sodipodi:nodetypes="cccc" />
    <path
       inkscape:connector-curvature="0"
       style="fill:none;stroke:#000000;stroke-width:2;stroke-linecap:butt;stroke-linejoin:miter;stroke-miterlimit:4;stroke-opacity:1;stroke-dasharray:none"
       d="m 689.85069,711.8576 -19.86648,-14.6577 -39.7077,-11.79835 -38.31639,-26.57984"
       id="path4655"
       sodipodi:nodetypes="cccc" />
    <path
       inkscape:connector-curvature="0"
       style="fill:none;stroke:#000000;stroke-width:2;stroke-linecap:butt;stroke-linejoin:miter;stroke-miterlimit:4;stroke-opacity:1;stroke-dasharray:none"
       d="m 689.8971,670.36776 -20.3708,-13.7191 -29.29197,-13.52863 -38.81255,-26.92401"
       id="path4657"
       sodipodi:nodetypes="cccc" />
    <path
       inkscape:connector-curvature="0"
       style="fill:none;stroke:#000000;stroke-width:2;stroke-linecap:butt;stroke-linejoin:miter;stroke-miterlimit:4;stroke-opacity:1;stroke-dasharray:none"
       d="m 690.57114,628.07696 -79.28573,-55"
       id="path4659"
       sodipodi:nodetypes="cc" />
    <path
       inkscape:connector-curvature="0"
       style="fill:none;stroke:#000000;stroke-width:2;stroke-linecap:butt;stroke-linejoin:miter;stroke-miterlimit:4;stroke-opacity:1;stroke-dasharray:none"
       d="M 650.39256,600.21982 612.17828,768.07697"
       id="path4663" />
    <path
       inkscape:connector-curvature="0"
       style="fill:none;stroke:#000000;stroke-width:2;stroke-linecap:butt;stroke-linejoin:miter;stroke-miterlimit:4;stroke-opacity:1;stroke-dasharray:none"
       d="M 631.10684,585.57696 592.89256,753.43411"
       id="path4665" />
    <path
       inkscape:connector-curvature="0"
       style="fill:none;stroke:#000000;stroke-width:2;stroke-linecap:butt;stroke-linejoin:miter;stroke-miterlimit:4;stroke-opacity:1;stroke-dasharray:none"
       d="M 611.10684,572.36268 572.89256,740.21983"
       id="path4667" />
    <path
       inkscape:connector-curvature="0"
       style="fill:none;stroke:#000000;stroke-width:2;stroke-linecap:butt;stroke-linejoin:miter;stroke-miterlimit:4;stroke-opacity:1;stroke-dasharray:none"
       d="m 799.62688,601.29125 -148.82577,0"
       id="path4669"
       sodipodi:nodetypes="cc" />
    <path
       inkscape:connector-curvature="0"
       style="fill:none;stroke:#000000;stroke-width:2;stroke-linecap:butt;stroke-linejoin:miter;stroke-miterlimit:4;stroke-opacity:1;stroke-dasharray:none"
       d="m 780.34116,587.00553 -148.82577,0"
       id="path4671"
       sodipodi:nodetypes="cc" />
    <path
       inkscape:connector-curvature="0"
       style="fill:none;stroke:#000000;stroke-width:2;stroke-linecap:butt;stroke-linejoin:miter;stroke-miterlimit:4;stroke-opacity:1;stroke-dasharray:none"
       d="m 759.98402,572.71982 -148.82577,0"
       id="path4673"
       sodipodi:nodetypes="cc" />
    <path
       inkscape:connector-curvature="0"
       style="fill:none;stroke:#000000;stroke-width:2;stroke-linecap:butt;stroke-linejoin:miter;stroke-miterlimit:4;stroke-opacity:1;stroke-dasharray:none"
       d="m 728.07114,627.71982 -79.28572,-55"
       id="path4675"
       sodipodi:nodetypes="cc" />
    <path
       inkscape:connector-curvature="0"
       style="fill:none;stroke:#000000;stroke-width:2;stroke-linecap:butt;stroke-linejoin:miter;stroke-miterlimit:4;stroke-opacity:1;stroke-dasharray:none"
       d="m 765.21399,627.36268 -79.28572,-55"
       id="path4677"
       sodipodi:nodetypes="cc" />
    <path
       inkscape:connector-curvature="0"
       style="fill:none;stroke:#000000;stroke-width:2;stroke-linecap:butt;stroke-linejoin:miter;stroke-miterlimit:4;stroke-opacity:1;stroke-dasharray:none"
       d="m 803.07113,628.07697 -79.28572,-55"
       id="path4679"
       sodipodi:nodetypes="cc" />
    <path
       inkscape:connector-curvature="0"
       style="fill:none;stroke:#000000;stroke-width:2;stroke-linecap:butt;stroke-linejoin:miter;stroke-miterlimit:4;stroke-opacity:1;stroke-dasharray:none"
       d="m 838.42828,627.36268 -79.28572,-55"
       id="path4681"
       sodipodi:nodetypes="cc" />
    <path
       inkscape:connector-curvature="0"
       style="fill:none;stroke:#000000;stroke-width:2;stroke-linecap:butt;stroke-linejoin:miter;stroke-miterlimit:4;stroke-opacity:1;stroke-dasharray:none"
       d="m 650.57912,711.43592 0,83.84266"
       id="path4683"
       sodipodi:nodetypes="cc" />
    <path
       inkscape:connector-curvature="0"
       style="fill:none;stroke:#000000;stroke-width:2;stroke-linecap:butt;stroke-linejoin:miter;stroke-miterlimit:4;stroke-opacity:1;stroke-dasharray:none"
       d="m 727.35072,627.08818 0,168.1904"
       id="path4685" />
    <path
       inkscape:connector-curvature="0"
       style="fill:none;stroke:#000000;stroke-width:2;stroke-linecap:butt;stroke-linejoin:miter;stroke-miterlimit:4;stroke-opacity:1;stroke-dasharray:none"
       d="m 764.22129,626.83564 0,168.1904"
       id="path4687" />
    <path
       inkscape:connector-curvature="0"
       style="fill:none;stroke:#000000;stroke-width:2;stroke-linecap:butt;stroke-linejoin:miter;stroke-miterlimit:4;stroke-opacity:1;stroke-dasharray:none"
       d="m 801.59693,627.84578 0,168.19041"
       id="path4689" />
    <path
       inkscape:connector-curvature="0"
       style="fill:none;stroke:#000000;stroke-width:2;stroke-linecap:butt;stroke-linejoin:miter;stroke-miterlimit:4;stroke-opacity:1;stroke-dasharray:none"
       d="m 838.97257,627.34072 0,85.35789"
       id="path4691" />
    <path
       inkscape:connector-curvature="0"
       style="fill:none;stroke:#000000;stroke-width:2;stroke-linecap:butt;stroke-linejoin:miter;stroke-miterlimit:4;stroke-opacity:1;stroke-dasharray:none"
       d="m 689.97507,626.33056 0,168.19041"
       id="path4693" />
    <path
       inkscape:connector-curvature="0"
       style="fill:none;stroke:#000000;stroke-width:2;stroke-linecap:butt;stroke-linejoin:miter;stroke-miterlimit:4;stroke-opacity:1;stroke-dasharray:none"
       d="m 650.93626,711.52257 -19.16078,-13.56283 -0.83922,-12.21709"
       id="path4695"
       sodipodi:nodetypes="ccc" />
    <path
       inkscape:connector-curvature="0"
       style="fill:none;stroke:#000000;stroke-width:2;stroke-linecap:butt;stroke-linejoin:miter;stroke-miterlimit:4;stroke-opacity:1;stroke-dasharray:none"
       d="m 670.13764,612.94584 0,83.84266"
       id="path4823"
       sodipodi:nodetypes="cc" />
    <path
       inkscape:connector-curvature="0"
       style="fill:none;stroke:#000000;stroke-width:2;stroke-linecap:butt;stroke-linejoin:miter;stroke-miterlimit:4;stroke-opacity:1;stroke-dasharray:none"
       d="m 631.24676,697.29358 0,83.84266"
       id="path4825"
       sodipodi:nodetypes="cc" />
    <g
       id="g4699"
       transform="translate(225.41328,3.16681)">
      <path
         style="fill:#0000ff;fill-opacity:1;fill-rule:evenodd;stroke:none"
         d="m 427.30467,701.84578 0,2 c 10.10152,0 15.16212,0 17.6875,0 1.26269,0 1.87183,0 2.1875,0 0.15784,0 0.24179,0 0.28125,0 0.0197,0 0.0263,0 0.0312,0 l 0,-1 0,-1 c 0,0 0.0155,0 -20.1875,0 z"
         id="path4701"
         inkscape:connector-curvature="0" />
      <path
         style="fill:#0000ff;fill-opacity:1;fill-rule:evenodd;stroke:#0000ff;stroke-width:0.8pt;stroke-opacity:1;marker-start:none"
         d="m 439.50307,702.84942 -4,4 14,-4 -14,-4 4,4 z"
         id="path4703"
         inkscape:connector-curvature="0" />
    </g>
    <g
       id="g4705"
       transform="matrix(-1,0,0,1,1103.3063,18.88508)">
      <path
         style="fill:#0000ff;fill-opacity:1;fill-rule:evenodd;stroke:none"
         d="m 427.30467,701.84578 0,2 c 10.10152,0 15.16212,0 17.6875,0 1.26269,0 1.87183,0 2.1875,0 0.15784,0 0.24179,0 0.28125,0 0.0197,0 0.0263,0 0.0312,0 l 0,-1 0,-1 c 0,0 0.0155,0 -20.1875,0 z"
         id="path4707"
         inkscape:connector-curvature="0" />
      <path
         style="fill:#0000ff;fill-opacity:1;fill-rule:evenodd;stroke:#0000ff;stroke-width:0.8pt;stroke-opacity:1;marker-start:none"
         d="m 439.50307,702.84942 -4,4 14,-4 -14,-4 4,4 z"
         id="path4709"
         inkscape:connector-curvature="0" />
    </g>
    <path
       style="fill:none;stroke:none"
       d="m 592.85714,113.64286 c 398.57143,0 398.57143,0 398.57143,0"
       id="path4065"
       inkscape:connector-curvature="0"
       transform="translate(-57.154872,571.3622)" />
    <path
       style="fill:none;stroke:#ff0000;stroke-width:2;stroke-linecap:butt;stroke-linejoin:miter;stroke-miterlimit:4;stroke-opacity:1;stroke-dasharray:none"
       d="m 519.2737,686.43363 c 438.57144,0 438.57144,0 438.57144,0"
       id="path4069"
       inkscape:connector-curvature="0" />
    <g
       style="font-style:normal;font-variant:normal;font-weight:normal;font-stretch:normal;letter-spacing:normal;word-spacing:normal;text-anchor:start;fill:none;stroke:#000000;stroke-linecap:butt;stroke-linejoin:miter;stroke-miterlimit:10.43299961;stroke-opacity:1;stroke-dasharray:none;stroke-dashoffset:0"
       ns0:preamble="/home/ken/.config/inkscape/textextpreamble.txt"
       ns0:text="\\begin{center}\nScrew \\\\ Dislocation\n\\end{center}"
       word-spacing="normal"
       letter-spacing="normal"
       font-size-adjust="none"
       font-stretch="normal"
       font-weight="normal"
       font-variant="normal"
       font-style="normal"
       stroke-miterlimit="10.433"
       xml:space="preserve"
       transform="matrix(2.7264964,0,0,-2.7264964,-575.1025,1923.5722)"
       id="content-2"><path
         id="path4735-7"
         d="m 386.02,481.09 -1.28,0.31 c -0.61,0.15 -1,0.68 -1,1.26 0,0.69 0.53,1.3 1.31,1.3 1.66,0 1.88,-1.63 1.94,-2.08 0.01,-0.06 0.01,-0.11 0.12,-0.11 0.13,0 0.13,0.05 0.13,0.23 v 2 c 0,0.17 0,0.24 -0.11,0.24 -0.07,0 -0.08,-0.01 -0.15,-0.13 l -0.35,-0.57 c -0.3,0.29 -0.7,0.7 -1.59,0.7 -1.1,0 -1.94,-0.88 -1.94,-1.93 0,-0.82 0.53,-1.55 1.3,-1.82 0.11,-0.04 0.62,-0.16 1.32,-0.32 0.27,-0.07 0.57,-0.14 0.84,-0.51 0.21,-0.26 0.31,-0.59 0.31,-0.92 0,-0.7 -0.5,-1.42 -1.33,-1.42 -0.29,0 -1.05,0.05 -1.57,0.54 -0.58,0.54 -0.61,1.17 -0.62,1.53 -0.01,0.1 -0.09,0.1 -0.12,0.1 -0.13,0 -0.13,-0.07 -0.13,-0.25 v -1.98 c 0,-0.17 0,-0.24 0.11,-0.24 0.07,0 0.08,0.02 0.15,0.13 0,0.01 0.03,0.03 0.36,0.56 0.31,-0.34 0.94,-0.69 1.83,-0.69 1.16,0 1.96,0.97 1.96,2.06 0,1 -0.66,1.81 -1.49,2.01 z"
         inkscape:connector-curvature="0"
         style="fill:#000000;stroke-width:0" /><path
         id="path4737-3"
         d="m 389.24,479.4 0,0.08 0.01,0.07 0,0.07 0,0.07 0.01,0.07 0,0.07 0.01,0.06 0.01,0.06 0.01,0.06 0.01,0.06 0.01,0.06 0.01,0.06 0.03,0.11 0.03,0.1 0.03,0.1 0.04,0.09 0.04,0.09 0.04,0.08 0.04,0.07 0.05,0.07 0.05,0.07 0.05,0.06 0.05,0.05 0.05,0.05 0.05,0.05 0.06,0.04 0.05,0.04 0.06,0.03 0.06,0.03 0.05,0.03 0.06,0.02 0.06,0.02 0.05,0.01 0.06,0.02 0.05,0.01 0.05,0 0.06,0.01 0.05,0 c 0.09,0 0.71,-0.01 1.06,-0.37 -0.41,-0.03 -0.47,-0.33 -0.47,-0.46 0,-0.26 0.18,-0.45 0.46,-0.45 0.26,0 0.46,0.16 0.46,0.46 0,0.68 -0.76,1.06 -1.52,1.06 -1.25,0 -2.16,-1.07 -2.16,-2.3 0,-1.27 0.98,-2.25 2.14,-2.25 1.33,0 1.65,1.19 1.65,1.29 0,0.1 -0.1,0.1 -0.13,0.1 -0.09,0 -0.11,-0.04 -0.13,-0.1 -0.29,-0.93 -0.94,-1.05 -1.3,-1.05 -0.53,0 -1.41,0.43 -1.41,2.03 z"
         inkscape:connector-curvature="0"
         style="fill:#000000;stroke-width:0" /><path
         id="path4739-0"
         d="m 394.17,480.53 v 1.1 l -1.38,-0.11 v -0.31 c 0.69,0 0.77,-0.07 0.77,-0.56 v -2.66 c 0,-0.45 -0.11,-0.45 -0.77,-0.45 v -0.31 c 0.38,0.01 0.85,0.04 1.13,0.04 0.4,0 0.87,0 1.26,-0.04 v 0.31 h -0.21 c -0.73,0 -0.75,0.11 -0.75,0.47 v 1.53 c 0,0.98 0.42,1.87 1.17,1.87 0.07,0 0.09,0 0.11,-0.01 -0.03,-0.01 -0.23,-0.13 -0.23,-0.39 0,-0.28 0.21,-0.43 0.43,-0.43 0.18,0 0.43,0.12 0.43,0.44 0,0.32 -0.31,0.61 -0.74,0.61 -0.72,0 -1.08,-0.67 -1.22,-1.1 z"
         inkscape:connector-curvature="0"
         style="fill:#000000;stroke-width:0" /><path
         id="path4741-2"
         d="m 397.51,479.53 0.01,0.21 c 0.06,1.48 0.9,1.73 1.24,1.73 1.02,0 1.12,-1.34 1.12,-1.73 h -2.36 l -0.01,-0.21 h 2.78 c 0.22,0 0.25,0 0.25,0.21 0,0.98 -0.54,1.94 -1.78,1.94 -1.16,0 -2.07,-1.02 -2.07,-2.26 0,-1.33 1.04,-2.29 2.19,-2.29 1.21,0 1.66,1.1 1.66,1.29 0,0.1 -0.08,0.12 -0.13,0.12 -0.09,0 -0.11,-0.06 -0.13,-0.14 -0.35,-1.03 -1.24,-1.03 -1.34,-1.03 -0.5,0 -0.9,0.3 -1.13,0.67 -0.3,0.48 -0.3,1.13 -0.3,1.49 z"
         inkscape:connector-curvature="0"
         style="fill:#000000;stroke-width:0" /><path
         id="path4743-0"
         d="m 406.99,480.57 0.02,0.05 0.02,0.04 0.02,0.04 0.02,0.04 0.02,0.04 0.02,0.04 0.02,0.03 0.02,0.03 0.02,0.03 0.03,0.03 0.02,0.02 0.03,0.03 0.02,0.02 0.03,0.02 0.02,0.02 0.03,0.02 0.03,0.02 0.02,0.02 0.03,0.01 0.03,0.01 0.03,0.02 0.03,0.01 0.03,0.01 0.03,0.01 0.03,0 0.03,0.01 0.03,0 0.03,0.01 0.03,0 0.04,0.01 0.03,0 0.03,0 v 0.31 c -0.22,-0.02 -0.51,-0.03 -0.73,-0.03 -0.28,0 -0.73,0.02 -0.92,0.03 v -0.31 c 0.36,-0.01 0.58,-0.19 0.58,-0.48 0,-0.06 0,-0.08 -0.05,-0.21 l -0.91,-2.54 -0.98,2.77 c -0.04,0.12 -0.05,0.14 -0.05,0.19 0,0.27 0.38,0.27 0.58,0.27 v 0.31 c -0.28,-0.01 -0.79,-0.03 -1.03,-0.03 -0.3,0 -0.59,0.01 -0.89,0.03 v -0.31 c 0.37,0 0.53,-0.02 0.63,-0.15 0.05,-0.06 0.16,-0.36 0.23,-0.55 l -0.86,-2.4 -0.94,2.65 c -0.05,0.12 -0.05,0.14 -0.05,0.18 0,0.27 0.39,0.27 0.58,0.27 v 0.31 c -0.29,-0.01 -0.85,-0.03 -1.08,-0.03 -0.04,0 -0.57,0.01 -0.92,0.03 v -0.31 c 0.49,0 0.61,-0.03 0.73,-0.35 l 1.26,-3.52 c 0.04,-0.14 0.07,-0.21 0.2,-0.21 0.13,0 0.15,0.05 0.2,0.19 l 1.01,2.82 1.01,-2.83 c 0.04,-0.11 0.07,-0.18 0.2,-0.18 0.13,0 0.16,0.08 0.2,0.18 z"
         inkscape:connector-curvature="0"
         style="fill:#000000;stroke-width:0" /><path
         id="path4745-6"
         d="m 371.19,472.07 v -0.31 h 0.23 c 0.77,0 0.79,-0.11 0.79,-0.47 v -5.24 c 0,-0.35 -0.02,-0.46 -0.79,-0.46 h -0.23 v -0.31 h 3.64 l -0.27,0.31 h -1.01 c -0.46,0 -0.48,0.07 -0.48,0.39 v 5.38 c 0,0.33 0.02,0.4 0.48,0.4 h 1 c 0.62,0 1.3,-0.22 1.81,-0.93 0.43,-0.58 0.52,-1.44 0.52,-2.21 0,-1.1 -0.19,-1.7 -0.55,-2.19 -0.2,-0.27 -0.77,-0.84 -1.77,-0.84 l 0.27,-0.31 c 1.67,0 3.04,1.47 3.04,3.34 0,1.89 -1.34,3.45 -3.04,3.45 z"
         inkscape:connector-curvature="0"
         style="fill:#000000;stroke-width:0" /><path
         id="path4747-1"
         d="m 380.21,469.67 -1.39,-0.11 v -0.31 c 0.64,0 0.73,-0.06 0.73,-0.54 v -2.67 c 0,-0.45 -0.11,-0.45 -0.77,-0.45 v -0.31 c 0.32,0.01 0.85,0.03 1.09,0.03 0.35,0 0.7,-0.02 1.04,-0.03 v 0.31 c -0.66,0 -0.7,0.05 -0.7,0.43 z"
         inkscape:connector-curvature="0"
         style="fill:#000000;stroke-width:0" /><path
         id="path4749-2"
         d="m 380.25,471.4 0,0.03 0,0.03 -0.01,0.03 0,0.02 -0.01,0.03 -0.01,0.03 0,0.02 -0.01,0.03 -0.02,0.02 -0.01,0.02 -0.01,0.02 -0.01,0.03 -0.02,0.02 -0.02,0.02 -0.01,0.01 -0.02,0.02 -0.02,0.02 -0.02,0.01 -0.02,0.02 -0.02,0.01 -0.02,0.02 -0.02,0.01 -0.03,0.01 -0.02,0.01 -0.02,0.01 -0.03,0 -0.02,0.01 -0.03,0.01 -0.02,0 -0.03,0 -0.02,0.01 -0.03,0 c -0.31,0 -0.52,-0.27 -0.52,-0.53 0,-0.27 0.21,-0.53 0.52,-0.53 0.28,0 0.53,0.21 0.53,0.53 z"
         inkscape:connector-curvature="0"
         style="fill:#000000;stroke-width:0" /><path
         id="path4751-9"
         d="m 383.29,467.21 0.02,-0.01 0.02,0 0.03,-0.01 0.03,0 0.04,-0.01 0.03,-0.01 0.04,-0.01 0.04,-0.01 0.04,-0.01 0.04,-0.02 0.05,-0.01 0.04,-0.02 0.04,-0.02 0.05,-0.02 0.04,-0.02 0.04,-0.03 0.05,-0.02 0.04,-0.03 0.04,-0.03 0.04,-0.03 0.04,-0.04 0.03,-0.04 0.04,-0.04 0.03,-0.04 0.03,-0.04 0.01,-0.03 0.01,-0.02 0.01,-0.03 0.02,-0.02 0.01,-0.03 0,-0.02 0.01,-0.03 0.01,-0.03 0.01,-0.03 0,-0.03 0,-0.03 0.01,-0.03 0,-0.03 0,-0.04 c 0,-0.5 -0.35,-0.9 -1.12,-0.9 -0.84,0 -1.2,0.56 -1.39,1.41 -0.03,0.13 -0.04,0.17 -0.14,0.17 -0.13,0 -0.13,-0.07 -0.13,-0.25 v -1.31 c 0,-0.17 0,-0.24 0.11,-0.24 0.05,0 0.06,0.01 0.25,0.2 0.02,0.02 0.02,0.04 0.2,0.23 0.44,-0.42 0.89,-0.43 1.1,-0.43 1.14,0 1.6,0.67 1.6,1.38 0,0.53 -0.3,0.83 -0.42,0.94 -0.33,0.32 -0.72,0.4 -1.13,0.48 -0.56,0.11 -1.23,0.24 -1.23,0.82 0,0.34 0.26,0.75 1.12,0.75 1.09,0 1.14,-0.89 1.16,-1.2 0.01,-0.09 0.1,-0.09 0.12,-0.09 0.13,0 0.13,0.05 0.13,0.24 v 1 c 0,0.17 0,0.24 -0.11,0.24 -0.05,0 -0.07,0 -0.2,-0.12 -0.03,-0.04 -0.13,-0.13 -0.17,-0.16 -0.38,0.28 -0.78,0.28 -0.93,0.28 -1.22,0 -1.6,-0.66 -1.6,-1.22 0,-0.35 0.16,-0.63 0.43,-0.85 0.32,-0.25 0.6,-0.31 1.32,-0.45 z"
         inkscape:connector-curvature="0"
         style="fill:#000000;stroke-width:0" /><path
         id="path4753-4"
         d="m 386.91,472.17 -1.44,-0.1 v -0.31 c 0.7,0 0.78,-0.07 0.78,-0.56 v -5.16 c 0,-0.45 -0.11,-0.45 -0.78,-0.45 v -0.31 c 0.33,0.01 0.86,0.03 1.11,0.03 0.25,0 0.73,-0.02 1.1,-0.03 v 0.31 c -0.66,0 -0.77,0 -0.77,0.45 z"
         inkscape:connector-curvature="0"
         style="fill:#000000;stroke-width:0" /><path
         id="path4755-2"
         d="m 392.6,467.41 0,0.11 -0.01,0.12 -0.02,0.12 -0.02,0.11 -0.02,0.11 -0.03,0.11 -0.04,0.11 -0.04,0.11 -0.04,0.1 -0.05,0.1 -0.05,0.1 -0.06,0.09 -0.06,0.09 -0.07,0.09 -0.07,0.08 -0.07,0.08 -0.08,0.08 -0.08,0.08 -0.08,0.06 -0.09,0.07 -0.08,0.06 -0.1,0.06 -0.09,0.05 -0.1,0.05 -0.1,0.04 -0.1,0.03 -0.1,0.04 -0.11,0.02 -0.11,0.02 -0.11,0.02 -0.11,0.01 -0.11,0 -0.01,-0.22 c 0.44,0 0.87,-0.22 1.12,-0.64 0.26,-0.43 0.26,-1.01 0.26,-1.39 0,-0.35 0,-0.89 -0.22,-1.33 -0.22,-0.44 -0.65,-0.73 -1.15,-0.73 h 0 c -0.43,0 -0.86,0.21 -1.13,0.66 -0.25,0.44 -0.25,1.05 -0.25,1.4 0,0.39 0,0.93 0.24,1.37 0.26,0.45 0.73,0.66 1.13,0.66 l 0.01,0.22 c -1.24,0 -2.21,-1.08 -2.21,-2.32 0,-1.29 1.04,-2.24 2.2,-2.24 1.2,0 2.21,0.97 2.21,2.24 z"
         inkscape:connector-curvature="0"
         style="fill:#000000;stroke-width:0" /><path
         id="path4757-9"
         d="m 394.34,467.45 0,0.07 0,0.07 0,0.08 0.01,0.07 0,0.06 0.01,0.07 0,0.07 0.01,0.06 0.01,0.06 0.01,0.06 0.01,0.06 0.02,0.06 0.02,0.1 0.03,0.11 0.04,0.09 0.03,0.1 0.04,0.08 0.04,0.08 0.05,0.08 0.04,0.07 0.05,0.06 0.05,0.06 0.05,0.06 0.05,0.05 0.06,0.04 0.05,0.04 0.06,0.04 0.05,0.04 0.06,0.03 0.06,0.02 0.05,0.02 0.06,0.02 0.06,0.02 0.05,0.01 0.06,0.01 0.05,0.01 0.05,0 0.05,0 c 0.09,0 0.72,-0.01 1.06,-0.37 -0.4,-0.03 -0.46,-0.32 -0.46,-0.45 0,-0.26 0.18,-0.46 0.45,-0.46 0.26,0 0.46,0.17 0.46,0.47 0,0.67 -0.75,1.06 -1.52,1.06 -1.24,0 -2.16,-1.07 -2.16,-2.3 0,-1.28 0.99,-2.26 2.14,-2.26 1.33,0 1.65,1.19 1.65,1.29 0,0.1 -0.1,0.1 -0.13,0.1 -0.09,0 -0.11,-0.04 -0.13,-0.1 -0.28,-0.92 -0.93,-1.04 -1.3,-1.04 -0.53,0 -1.4,0.43 -1.4,2.03 z"
         inkscape:connector-curvature="0"
         style="fill:#000000;stroke-width:0" /><path
         id="path4759-4"
         d="m 400.91,466.04 0.01,-0.04 0,-0.04 0.01,-0.04 0.01,-0.03 0.01,-0.04 0.01,-0.04 0.01,-0.03 0.02,-0.04 0.01,-0.04 0.02,-0.03 0.01,-0.03 0.02,-0.04 0.02,-0.03 0.02,-0.03 0.03,-0.03 0.02,-0.03 0.03,-0.03 0.02,-0.03 0.03,-0.02 0.03,-0.03 0.03,-0.02 0.03,-0.02 0.03,-0.02 0.04,-0.02 0.03,-0.01 0.04,-0.02 0.04,-0.01 0.03,-0.01 0.04,-0.01 0.04,-0.01 0.05,0 0.04,0 c 0.21,0 0.82,0.14 0.82,0.94 v 0.56 h -0.25 v -0.56 c 0,-0.57 -0.25,-0.63 -0.36,-0.63 -0.33,0 -0.37,0.45 -0.37,0.49 v 1.99 c 0,0.42 0,0.81 -0.36,1.17 -0.39,0.39 -0.88,0.55 -1.36,0.55 -0.82,0 -1.5,-0.47 -1.5,-1.12 0,-0.3 0.2,-0.47 0.45,-0.47 0.28,0 0.46,0.2 0.46,0.46 0,0.12 -0.05,0.45 -0.51,0.45 0.27,0.35 0.76,0.46 1.08,0.46 0.49,0 1.05,-0.39 1.05,-1.27 v -0.37 -0.21 -0.99 c 0,-0.94 -0.71,-1.28 -1.16,-1.28 -0.49,0 -0.9,0.35 -0.9,0.84 0,0.55 0.42,1.38 2.06,1.43 h 0 v 0.21 c -0.5,-0.03 -1.2,-0.06 -1.83,-0.35 -0.74,-0.34 -0.99,-0.86 -0.99,-1.3 0,-0.8 0.96,-1.05 1.59,-1.05 0.66,0 1.12,0.4 1.3,0.87 z"
         inkscape:connector-curvature="0"
         style="fill:#000000;stroke-width:0" /><path
         id="path4761-9"
         d="m 404.3,469.25 h 1.43 v 0.31 h -1.43 v 1.83 h -0.25 c -0.01,-0.81 -0.3,-1.88 -1.28,-1.92 v -0.22 h 0.85 v -2.74 c 0,-1.22 0.92,-1.34 1.28,-1.34 0.71,0 0.99,0.71 0.99,1.34 v 0.57 h -0.25 v -0.55 c 0,-0.73 -0.3,-1.11 -0.67,-1.11 -0.67,0 -0.67,0.9 -0.67,1.07 z"
         inkscape:connector-curvature="0"
         style="fill:#000000;stroke-width:0" /><path
         id="path4763-2"
         d="m 408.22,469.67 -1.4,-0.11 v -0.31 c 0.65,0 0.74,-0.06 0.74,-0.54 v -2.67 c 0,-0.45 -0.11,-0.45 -0.77,-0.45 v -0.31 c 0.31,0.01 0.85,0.03 1.09,0.03 0.35,0 0.7,-0.02 1.03,-0.03 v 0.31 c -0.65,0 -0.69,0.05 -0.69,0.43 z"
         inkscape:connector-curvature="0"
         style="fill:#000000;stroke-width:0" /><path
         id="path4765-3"
         d="m 408.26,471.4 0,0.03 -0.01,0.03 0,0.03 0,0.02 -0.01,0.03 -0.01,0.03 -0.01,0.02 -0.01,0.03 -0.01,0.02 -0.01,0.02 -0.01,0.02 -0.02,0.03 -0.01,0.02 -0.02,0.02 -0.01,0.01 -0.02,0.02 -0.02,0.02 -0.02,0.01 -0.02,0.02 -0.02,0.01 -0.02,0.02 -0.02,0.01 -0.03,0.01 -0.02,0.01 -0.02,0.01 -0.03,0 -0.02,0.01 -0.03,0.01 -0.02,0 -0.03,0 -0.02,0.01 -0.03,0 c -0.31,0 -0.53,-0.27 -0.53,-0.53 0,-0.27 0.22,-0.53 0.53,-0.53 0.28,0 0.53,0.21 0.53,0.53 z"
         inkscape:connector-curvature="0"
         style="fill:#000000;stroke-width:0" /><path
         id="path4767-1"
         d="m 413.91,467.41 0,0.11 -0.01,0.12 -0.02,0.12 -0.02,0.11 -0.02,0.11 -0.03,0.11 -0.03,0.11 -0.04,0.11 -0.05,0.1 -0.05,0.1 -0.05,0.1 -0.06,0.09 -0.06,0.09 -0.07,0.09 -0.06,0.08 -0.08,0.08 -0.07,0.08 -0.08,0.08 -0.09,0.06 -0.08,0.07 -0.09,0.06 -0.1,0.06 -0.09,0.05 -0.1,0.05 -0.1,0.04 -0.1,0.03 -0.1,0.04 -0.11,0.02 -0.11,0.02 -0.11,0.02 -0.11,0.01 -0.11,0 -0.01,-0.22 c 0.44,0 0.87,-0.22 1.13,-0.64 0.25,-0.43 0.25,-1.01 0.25,-1.39 0,-0.35 0,-0.89 -0.22,-1.33 -0.21,-0.44 -0.65,-0.73 -1.15,-0.73 h 0 c -0.43,0 -0.86,0.21 -1.13,0.66 -0.25,0.44 -0.25,1.05 -0.25,1.4 0,0.39 0,0.93 0.24,1.37 0.27,0.45 0.73,0.66 1.13,0.66 l 0.01,0.22 c -1.24,0 -2.21,-1.08 -2.21,-2.32 0,-1.29 1.04,-2.24 2.2,-2.24 1.2,0 2.21,0.97 2.21,2.24 z"
         inkscape:connector-curvature="0"
         style="fill:#000000;stroke-width:0" /><path
         id="path4769-7"
         d="m 415.3,468.7 v -2.66 c 0,-0.45 -0.11,-0.45 -0.78,-0.45 v -0.31 c 0.35,0.01 0.86,0.03 1.13,0.03 0.26,0 0.77,-0.02 1.11,-0.03 v 0.31 c -0.66,0 -0.77,0 -0.77,0.45 v 1.82 c 0,1.04 0.7,1.59 1.34,1.59 0.63,0 0.74,-0.53 0.74,-1.1 v -2.31 c 0,-0.45 -0.11,-0.45 -0.78,-0.45 v -0.31 c 0.35,0.01 0.85,0.03 1.12,0.03 0.26,0 0.78,-0.02 1.12,-0.03 v 0.31 c -0.52,0 -0.77,0 -0.78,0.3 v 1.89 c 0,0.86 0,1.17 -0.31,1.52 -0.14,0.17 -0.46,0.37 -1.04,0.37 -0.73,0 -1.2,-0.43 -1.47,-1.04 v 1.04 l -1.41,-0.11 v -0.31 c 0.7,0 0.78,-0.07 0.78,-0.55 z"
         inkscape:connector-curvature="0"
         style="fill:#000000;stroke-width:0" /></g>    <g
       id="content"
       transform="matrix(2.7264964,0,0,-2.7264964,-179.43107,2061.1759)"
       xml:space="preserve"
       stroke-miterlimit="10.433"
       font-style="normal"
       font-variant="normal"
       font-weight="normal"
       font-stretch="normal"
       font-size-adjust="none"
       letter-spacing="normal"
       word-spacing="normal"
       ns0:text="\\begin{center}\nRegion \\\\ of slip\n\\end{center}"
       ns0:preamble="/home/ken/.config/inkscape/textextpreamble.txt"
       style="font-style:normal;font-variant:normal;font-weight:normal;font-stretch:normal;letter-spacing:normal;word-spacing:normal;text-anchor:start;fill:none;stroke:#000000;stroke-linecap:butt;stroke-linejoin:miter;stroke-miterlimit:10.43299961;stroke-opacity:1;stroke-dasharray:none;stroke-dashoffset:0"><path
         style="fill:#000000;stroke-width:0"
         inkscape:connector-curvature="0"
         d="m 384.6,480.61 0.09,0.03 0.09,0.02 0.09,0.03 0.08,0.03 0.09,0.03 0.08,0.03 0.08,0.04 0.08,0.04 0.08,0.04 0.07,0.04 0.08,0.04 0.07,0.05 0.07,0.04 0.06,0.05 0.06,0.05 0.06,0.05 0.06,0.05 0.06,0.06 0.05,0.05 0.05,0.06 0.04,0.06 0.04,0.06 0.04,0.06 0.04,0.07 0.03,0.06 0.03,0.07 0.02,0.06 0.02,0.07 0.01,0.07 0.01,0.07 0.01,0.07 0,0.07 c 0,0.95 -1.13,1.79 -2.59,1.79 h -3.13 v -0.31 h 0.24 c 0.77,0 0.79,-0.11 0.79,-0.47 v -5.23 c 0,-0.36 -0.02,-0.47 -0.79,-0.47 h -0.24 v -0.31 c 0.36,0.04 1.07,0.04 1.46,0.04 0.38,0 1.09,0 1.45,-0.04 v 0.31 h -0.24 c -0.77,0 -0.79,0.11 -0.79,0.47 v 2.51 0.22 2.58 c 0,0.22 0,0.34 0.22,0.37 0.1,0.02 0.39,0.02 0.59,0.02 0.89,0 2.01,-0.04 2.01,-1.48 0,-0.68 -0.24,-1.49 -1.71,-1.49 h -1.11 v -0.22 h 1.15 c 0.16,0 0.57,0 0.92,-0.34 0.38,-0.35 0.38,-0.66 0.38,-1.33 0,-0.64 0,-1.04 0.41,-1.42 0.41,-0.35 0.95,-0.41 1.25,-0.41 0.78,0 0.95,0.81 0.95,1.09 0,0.06 0,0.17 -0.13,0.17 -0.11,0 -0.11,-0.09 -0.12,-0.16 -0.06,-0.71 -0.41,-0.89 -0.66,-0.89 -0.49,0 -0.57,0.51 -0.7,1.44 l -0.13,0.79 c -0.18,0.64 -0.67,0.96 -1.22,1.15 z"
         id="path4982" /><path
         style="fill:#000000;stroke-width:0"
         inkscape:connector-curvature="0"
         d="m 388.71,479.53 0.01,0.21 c 0.06,1.48 0.9,1.73 1.23,1.73 1.03,0 1.13,-1.34 1.13,-1.73 h -2.36 l -0.01,-0.21 h 2.78 c 0.22,0 0.25,0 0.25,0.21 0,0.98 -0.54,1.94 -1.79,1.94 -1.15,0 -2.06,-1.02 -2.06,-2.26 0,-1.33 1.04,-2.29 2.19,-2.29 1.21,0 1.66,1.1 1.66,1.29 0,0.1 -0.08,0.12 -0.13,0.12 -0.09,0 -0.11,-0.06 -0.13,-0.14 -0.35,-1.03 -1.25,-1.03 -1.34,-1.03 -0.5,0 -0.9,0.3 -1.13,0.67 -0.3,0.48 -0.3,1.13 -0.3,1.49 z"
         id="path4984" /><path
         style="fill:#000000;stroke-width:0"
         inkscape:connector-curvature="0"
         d="m 393.09,478.56 0,0 0,0.01 0,0 0,0.01 0,0.01 0,0.01 0,0.01 0,0.01 0,0.01 0,0.01 0.01,0.02 0,0.01 0,0.01 0,0.02 0.01,0.01 0,0.02 0,0.02 0.01,0.01 0,0.02 0.01,0.02 0.01,0.02 0,0.01 0.01,0.02 0.01,0.02 0.01,0.02 0.01,0.02 0.01,0.02 0.01,0.02 0.02,0.02 0.01,0.02 0.01,0.01 0.02,0.02 c 0.39,-0.28 0.79,-0.31 0.98,-0.31 v 0.23 c -0.86,0 -0.86,1 -0.86,1.23 0,0.26 0.01,0.58 0.16,0.83 0.08,0.12 0.31,0.4 0.7,0.4 0.87,0 0.87,-1 0.87,-1.23 0,-0.26 -0.01,-0.58 -0.16,-0.83 -0.08,-0.12 -0.31,-0.4 -0.71,-0.4 h 0 v -0.23 c 0.93,0 1.62,0.69 1.62,1.46 0,0.36 -0.16,0.73 -0.41,0.96 0.36,0.34 0.71,0.39 0.89,0.39 0.02,0 0.07,0 0.1,-0.01 -0.11,-0.04 -0.16,-0.15 -0.16,-0.27 0,-0.17 0.13,-0.29 0.29,-0.29 0.1,0 0.29,0.07 0.29,0.3 0,0.17 -0.12,0.48 -0.51,0.48 -0.2,0 -0.63,-0.06 -1.05,-0.46 -0.42,0.33 -0.84,0.36 -1.06,0.36 -0.92,0 -1.61,-0.69 -1.61,-1.46 0,-0.43 0.22,-0.81 0.47,-1.02 -0.13,-0.15 -0.31,-0.48 -0.31,-0.82 0,-0.31 0.13,-0.69 0.44,-0.89 -0.6,-0.17 -0.92,-0.59 -0.92,-0.99 0,-0.72 0.99,-1.26 2.2,-1.26 l 0.01,0.23 c -1,0 -1.69,0.5 -1.69,1.03 0,0.46 0.38,0.82 0.82,0.85 h 0.58 c 0.86,0 1.97,0 1.97,-0.85 0,-0.54 -0.7,-1.03 -1.68,-1.03 h 0 l -0.01,-0.23 c 1.18,0 2.21,0.51 2.21,1.28 0,0.35 -0.14,0.85 -0.65,1.13 -0.52,0.28 -1.1,0.28 -1.71,0.28 -0.25,0 -0.67,0 -0.74,0.01 -0.32,0.04 -0.53,0.35 -0.53,0.67 z"
         id="path4986" /><path
         style="fill:#000000;stroke-width:0"
         inkscape:connector-curvature="0"
         d="m 398.78,481.63 -1.4,-0.11 v -0.31 c 0.65,0 0.74,-0.06 0.74,-0.55 v -2.67 c 0,-0.45 -0.11,-0.45 -0.78,-0.45 v -0.31 c 0.32,0.01 0.86,0.04 1.1,0.04 0.35,0 0.7,-0.03 1.03,-0.04 v 0.31 c -0.65,0 -0.69,0.05 -0.69,0.44 z"
         id="path4988" /><path
         style="fill:#000000;stroke-width:0"
         inkscape:connector-curvature="0"
         d="m 398.82,483.35 0,0.03 -0.01,0.03 0,0.03 0,0.03 -0.01,0.02 -0.01,0.03 -0.01,0.03 -0.01,0.02 -0.01,0.02 -0.01,0.03 -0.01,0.02 -0.02,0.02 -0.01,0.02 -0.02,0.02 -0.01,0.02 -0.02,0.02 -0.02,0.01 -0.02,0.02 -0.02,0.01 -0.02,0.02 -0.02,0.01 -0.02,0.01 -0.03,0.01 -0.02,0.01 -0.02,0.01 -0.03,0.01 -0.02,0.01 -0.03,0 -0.02,0.01 -0.03,0 -0.02,0 -0.03,0 c -0.31,0 -0.53,-0.27 -0.53,-0.53 0,-0.26 0.22,-0.52 0.53,-0.52 0.28,0 0.53,0.21 0.53,0.52 z"
         id="path4990" /><path
         style="fill:#000000;stroke-width:0"
         inkscape:connector-curvature="0"
         d="m 404.47,479.36 0,0.12 -0.01,0.12 -0.02,0.11 -0.02,0.12 -0.02,0.11 -0.03,0.11 -0.03,0.11 -0.04,0.1 -0.05,0.1 -0.05,0.1 -0.05,0.1 -0.06,0.09 -0.06,0.1 -0.07,0.08 -0.06,0.09 -0.08,0.08 -0.07,0.08 -0.08,0.07 -0.09,0.07 -0.08,0.06 -0.09,0.07 -0.1,0.05 -0.09,0.05 -0.1,0.05 -0.1,0.04 -0.1,0.04 -0.1,0.03 -0.11,0.03 -0.11,0.02 -0.11,0.01 -0.11,0.01 -0.11,0 -0.01,-0.21 c 0.44,0 0.87,-0.22 1.13,-0.65 0.25,-0.43 0.25,-1 0.25,-1.38 0,-0.36 0,-0.89 -0.22,-1.33 -0.21,-0.45 -0.65,-0.74 -1.15,-0.74 h 0 c -0.43,0 -0.87,0.21 -1.13,0.67 -0.25,0.44 -0.25,1.04 -0.25,1.4 0,0.39 0,0.92 0.24,1.36 0.26,0.46 0.73,0.67 1.13,0.67 l 0.01,0.21 c -1.24,0 -2.21,-1.08 -2.21,-2.32 0,-1.28 1.04,-2.23 2.2,-2.23 1.2,0 2.21,0.97 2.21,2.23 z"
         id="path4992" /><path
         style="fill:#000000;stroke-width:0"
         inkscape:connector-curvature="0"
         d="m 405.86,480.65 v -2.66 c 0,-0.45 -0.11,-0.45 -0.78,-0.45 v -0.31 c 0.35,0.01 0.86,0.04 1.13,0.04 0.26,0 0.77,-0.03 1.11,-0.04 v 0.31 c -0.67,0 -0.77,0 -0.77,0.45 v 1.83 c 0,1.03 0.7,1.59 1.34,1.59 0.63,0 0.73,-0.54 0.73,-1.11 v -2.31 c 0,-0.45 -0.1,-0.45 -0.77,-0.45 v -0.31 c 0.35,0.01 0.85,0.04 1.12,0.04 0.26,0 0.78,-0.03 1.12,-0.04 v 0.31 c -0.52,0 -0.77,0 -0.78,0.3 v 1.9 c 0,0.85 0,1.16 -0.31,1.52 -0.14,0.17 -0.46,0.37 -1.04,0.37 -0.73,0 -1.19,-0.43 -1.47,-1.05 v 1.05 l -1.41,-0.11 v -0.31 c 0.7,0 0.78,-0.07 0.78,-0.56 z"
         id="path4994" /><path
         style="fill:#000000;stroke-width:0"
         inkscape:connector-curvature="0"
         d="m 386.8,467.41 0,0.11 -0.01,0.12 -0.01,0.12 -0.02,0.11 -0.03,0.11 -0.03,0.11 -0.03,0.11 -0.04,0.11 -0.05,0.1 -0.05,0.1 -0.05,0.1 -0.06,0.09 -0.06,0.09 -0.06,0.09 -0.07,0.08 -0.08,0.08 -0.07,0.08 -0.08,0.08 -0.09,0.06 -0.08,0.07 -0.09,0.06 -0.09,0.06 -0.1,0.05 -0.1,0.05 -0.1,0.04 -0.1,0.03 -0.1,0.04 -0.11,0.02 -0.11,0.02 -0.1,0.02 -0.12,0.01 -0.11,0 -0.01,-0.22 c 0.44,0 0.87,-0.22 1.13,-0.64 0.26,-0.43 0.26,-1.01 0.26,-1.39 0,-0.35 0,-0.89 -0.22,-1.33 -0.22,-0.44 -0.66,-0.73 -1.16,-0.73 h 0 c -0.43,0 -0.86,0.21 -1.13,0.66 -0.25,0.44 -0.25,1.05 -0.25,1.4 0,0.39 0,0.93 0.24,1.37 0.27,0.45 0.73,0.66 1.13,0.66 l 0.01,0.22 c -1.24,0 -2.21,-1.08 -2.21,-2.32 0,-1.29 1.04,-2.24 2.2,-2.24 1.21,0 2.21,0.97 2.21,2.24 z"
         id="path4996" /><path
         style="fill:#000000;stroke-width:0"
         inkscape:connector-curvature="0"
         d="m 388.84,469.56 v 1.15 c 0,0.88 0.48,1.36 0.91,1.36 0.03,0 0.18,0 0.33,-0.08 -0.12,-0.03 -0.3,-0.16 -0.3,-0.41 0,-0.23 0.16,-0.43 0.43,-0.43 0.29,0 0.44,0.2 0.44,0.44 0,0.37 -0.37,0.69 -0.9,0.69 -0.69,0 -1.54,-0.52 -1.54,-1.58 v -1.14 h -0.79 v -0.31 h 0.79 v -3.21 c 0,-0.45 -0.11,-0.45 -0.78,-0.45 v -0.31 c 0.39,0.01 0.86,0.03 1.14,0.03 0.4,0 0.86,0 1.26,-0.03 v 0.31 h -0.21 c -0.73,0 -0.75,0.11 -0.75,0.46 v 3.2 H 390 v 0.31 z"
         id="path4998" /><path
         style="fill:#000000;stroke-width:0"
         inkscape:connector-curvature="0"
         d="m 395.53,467.21 0.02,-0.01 0.03,0 0.02,-0.01 0.04,0 0.03,-0.01 0.03,-0.01 0.04,-0.01 0.04,-0.01 0.04,-0.01 0.05,-0.02 0.04,-0.01 0.04,-0.02 0.05,-0.02 0.04,-0.02 0.04,-0.02 0.05,-0.03 0.04,-0.02 0.04,-0.03 0.04,-0.03 0.04,-0.03 0.04,-0.04 0.04,-0.04 0.03,-0.04 0.03,-0.04 0.03,-0.04 0.01,-0.03 0.02,-0.02 0.01,-0.03 0.01,-0.02 0.01,-0.03 0.01,-0.02 0.01,-0.03 0,-0.03 0.01,-0.03 0,-0.03 0.01,-0.03 0,-0.03 0,-0.03 0,-0.04 c 0,-0.5 -0.35,-0.9 -1.12,-0.9 -0.84,0 -1.2,0.56 -1.39,1.41 -0.03,0.13 -0.03,0.17 -0.13,0.17 -0.13,0 -0.13,-0.07 -0.13,-0.25 v -1.31 c 0,-0.17 0,-0.24 0.11,-0.24 0.05,0 0.06,0.01 0.24,0.2 0.03,0.02 0.03,0.04 0.2,0.23 0.44,-0.42 0.89,-0.43 1.1,-0.43 1.14,0 1.6,0.67 1.6,1.38 0,0.53 -0.3,0.83 -0.42,0.94 -0.33,0.32 -0.71,0.4 -1.13,0.48 -0.56,0.11 -1.23,0.24 -1.23,0.82 0,0.34 0.26,0.75 1.12,0.75 1.09,0 1.14,-0.89 1.16,-1.2 0.01,-0.09 0.1,-0.09 0.12,-0.09 0.13,0 0.13,0.05 0.13,0.24 v 1 c 0,0.17 0,0.24 -0.11,0.24 -0.05,0 -0.07,0 -0.2,-0.12 -0.03,-0.04 -0.13,-0.13 -0.17,-0.16 -0.37,0.28 -0.78,0.28 -0.93,0.28 -1.21,0 -1.59,-0.66 -1.59,-1.22 0,-0.35 0.16,-0.63 0.42,-0.85 0.32,-0.25 0.6,-0.31 1.32,-0.45 z"
         id="path5000" /><path
         style="fill:#000000;stroke-width:0"
         inkscape:connector-curvature="0"
         d="m 399.15,472.17 -1.43,-0.1 v -0.31 c 0.69,0 0.77,-0.07 0.77,-0.56 v -5.16 c 0,-0.45 -0.11,-0.45 -0.77,-0.45 v -0.31 c 0.32,0.01 0.85,0.03 1.1,0.03 0.25,0 0.74,-0.02 1.1,-0.03 v 0.31 c -0.66,0 -0.77,0 -0.77,0.45 z"
         id="path5002" /><path
         style="fill:#000000;stroke-width:0"
         inkscape:connector-curvature="0"
         d="m 401.92,469.67 -1.4,-0.11 v -0.31 c 0.65,0 0.74,-0.06 0.74,-0.54 v -2.67 c 0,-0.45 -0.11,-0.45 -0.78,-0.45 v -0.31 c 0.32,0.01 0.86,0.03 1.1,0.03 0.35,0 0.69,-0.02 1.03,-0.03 v 0.31 c -0.65,0 -0.69,0.05 -0.69,0.43 z"
         id="path5004" /><path
         style="fill:#000000;stroke-width:0"
         inkscape:connector-curvature="0"
         d="m 401.96,471.4 0,0.03 -0.01,0.03 0,0.03 -0.01,0.02 0,0.03 -0.01,0.03 -0.01,0.02 -0.01,0.03 -0.01,0.02 -0.01,0.02 -0.01,0.02 -0.02,0.03 -0.01,0.02 -0.02,0.02 -0.02,0.01 -0.01,0.02 -0.02,0.02 -0.02,0.01 -0.02,0.02 -0.02,0.01 -0.02,0.02 -0.03,0.01 -0.02,0.01 -0.02,0.01 -0.03,0.01 -0.02,0 -0.02,0.01 -0.03,0.01 -0.02,0 -0.03,0 -0.03,0.01 -0.02,0 c -0.31,0 -0.53,-0.27 -0.53,-0.53 0,-0.27 0.22,-0.53 0.53,-0.53 0.28,0 0.53,0.21 0.53,0.53 z"
         id="path5006" /><path
         style="fill:#000000;stroke-width:0"
         inkscape:connector-curvature="0"
         d="m 404.63,469.02 v 0.65 l -1.43,-0.11 v -0.31 c 0.71,0 0.78,-0.06 0.78,-0.49 v -4.65 c 0,-0.45 -0.11,-0.45 -0.78,-0.45 v -0.31 c 0.34,0.01 0.86,0.03 1.12,0.03 0.26,0 0.77,-0.02 1.12,-0.03 v 0.31 c -0.67,0 -0.78,0 -0.78,0.45 v 1.67 0.09 l 0.14,0.12 c -0.14,0.21 -0.14,0.22 -0.14,0.42 h 0 v 2.22 c 0.29,0.5 0.78,0.79 1.29,0.79 0.72,0 1.33,-0.87 1.33,-1.99 0,-1.21 -0.7,-2.04 -1.43,-2.04 -0.4,0 -0.78,0.2 -1.05,0.6 l -0.14,-0.12 c 0.05,-0.16 0.47,-0.7 1.23,-0.7 1.18,0 2.22,0.97 2.22,2.26 0,1.26 -0.97,2.24 -2.08,2.24 -0.78,0 -1.2,-0.44 -1.4,-0.65 z"
         id="path5008" /></g>    <path
       transform="translate(-57.154872,571.3622)"
       inkscape:connector-curvature="0"
       id="path5093"
       d="m 859.28571,150.78571 c 35.71429,0 35.71429,0 35.71429,0"
       style="fill:none;stroke:#ff0000;stroke-width:2;stroke-linecap:butt;stroke-linejoin:miter;stroke-miterlimit:4;stroke-opacity:1;stroke-dasharray:none;marker-end:url(#Arrow2MendA)" />
    <path
       style="fill:none;stroke:#000000;stroke-width:1.74510396;stroke-linecap:butt;stroke-linejoin:miter;stroke-miterlimit:4;stroke-opacity:1;stroke-dasharray:none;marker-end:url(#Arrow2Mend)"
       d="m 536.28911,664.87761 c 22.44161,18.27833 22.44161,18.27833 22.44161,18.27833"
       id="path5454"
       inkscape:connector-curvature="0" />
    <path
       style="fill:none;stroke:#000000;stroke-width:2;stroke-linecap:butt;stroke-linejoin:miter;stroke-miterlimit:4;stroke-opacity:1;stroke-dasharray:none;marker-end:url(#Arrow2Mend)"
       d="M 934.28571,160.07143 913.57143,133.64286"
       id="path5644"
       inkscape:connector-curvature="0"
       transform="translate(-57.154872,571.3622)" />
    <g
       style="font-style:normal;font-variant:normal;font-weight:normal;font-stretch:normal;letter-spacing:normal;word-spacing:normal;text-anchor:start;fill:none;stroke:#000000;stroke-linecap:butt;stroke-linejoin:miter;stroke-miterlimit:10.43299961;stroke-opacity:1;stroke-dasharray:none;stroke-dashoffset:0"
       ns0:preamble="/home/ken/.config/inkscape/textextpreamble.txt"
       ns0:text="$\\textcolor{red}\n{\\vec{b}}$"
       word-spacing="normal"
       letter-spacing="normal"
       font-size-adjust="none"
       font-stretch="normal"
       font-weight="normal"
       font-variant="normal"
       font-style="normal"
       stroke-miterlimit="10.433"
       xml:space="preserve"
       transform="matrix(4,0,0,-4,-80.714287,2682.1429)"
       id="g7114"><path
         id="path7116"
         d="m 227.66,485.77 -0.02,-0.01 -0.01,-0.01 -0.02,-0.02 -0.01,-0.01 -0.02,-0.02 -0.02,-0.01 -0.02,-0.02 -0.02,-0.02 -0.02,-0.01 -0.01,-0.02 -0.04,-0.04 -0.04,-0.04 -0.04,-0.04 -0.02,-0.02 -0.02,-0.02 -0.01,-0.02 -0.02,-0.02 -0.02,-0.02 -0.01,-0.02 -0.02,-0.02 -0.01,-0.02 -0.01,-0.02 -0.01,-0.02 -0.01,-0.02 -0.01,-0.02 0,-0.02 -0.01,-0.02 0,-0.01 0,-0.02 c 0,-0.1 0.1,-0.2 0.2,-0.2 0.09,0 0.14,0.07 0.19,0.13 0.12,0.15 0.34,0.43 0.78,0.65 0.07,0.03 0.17,0.08 0.17,0.2 0,0.1 -0.07,0.15 -0.14,0.2 -0.22,0.15 -0.33,0.33 -0.41,0.57 -0.02,0.09 -0.06,0.22 -0.19,0.22 -0.14,0 -0.2,-0.13 -0.2,-0.21 0,-0.05 0.08,-0.37 0.23,-0.58 h -3.35 c -0.17,0 -0.35,0 -0.35,-0.2 0,-0.2 0.18,-0.2 0.35,-0.2 z"
         inkscape:connector-curvature="0"
         style="fill:#ff0000;stroke:#ff0000;stroke-width:0" /><path
         id="path7118"
         d="m 225.81,484.02 0,0 0,0 0,0 0,0 0,0.01 0,0 0,0 0,0.01 0,0 0,0.01 0,0 -0.01,0 0,0.01 0,0 0,0.01 0,0 -0.01,0.01 0,0 0,0.01 -0.01,0 0,0.01 0,0 -0.01,0 0,0 0,0.01 -0.01,0 0,0 0,0 0,0 -0.01,0.01 0,0 -0.01,0 0,0 0,0 -0.01,0 0,0 -0.01,0 0,0.01 -0.01,0 0,0 -0.01,0 0,0 -0.01,0 0,0 -0.01,0 c -0.23,0 -0.95,-0.08 -1.21,-0.1 -0.08,-0.01 -0.19,-0.02 -0.19,-0.2 0,-0.12 0.09,-0.12 0.24,-0.12 0.47,0 0.49,-0.07 0.49,-0.17 0,-0.07 -0.09,-0.4 -0.13,-0.61 l -0.82,-3.24 c -0.12,-0.5 -0.16,-0.66 -0.16,-1.01 0,-0.94 0.53,-1.55 1.26,-1.55 v 0.21 c -0.34,0 -0.66,0.27 -0.66,1.01 0,0.19 0,0.38 0.16,1 l 0.22,0.92 c 0.05,0.21 0.05,0.23 0.14,0.34 0.49,0.65 0.94,0.8 1.2,0.8 0.36,0 0.63,-0.3 0.63,-0.94 0,-0.58 -0.33,-1.73 -0.51,-2.1 -0.33,-0.67 -0.79,-1.03 -1.18,-1.03 v -0.21 c 1.18,0 2.4,1.48 2.4,2.91 0,0.9 -0.53,1.59 -1.32,1.59 -0.46,0 -0.87,-0.29 -1.17,-0.6 z"
         inkscape:connector-curvature="0"
         style="fill:#ff0000;stroke:#ff0000;stroke-width:0" /></g>    <path
       inkscape:connector-curvature="0"
       id="path5093-8"
       d="m 868.07668,668.5873 c 35.71429,0 35.71429,0 35.71429,0"
       style="stroke-linejoin:miter;marker-end:url(#Arrow2MendAU);stroke-opacity:1;stroke:#000000;stroke-linecap:butt;stroke-miterlimit:4;stroke-dasharray:none;stroke-width:2;fill:none" />
    <g
       style="font-style:normal;font-variant:normal;font-weight:normal;font-stretch:normal;letter-spacing:normal;word-spacing:normal;text-anchor:start;fill:none;stroke:#000000;stroke-linecap:butt;stroke-linejoin:miter;stroke-miterlimit:10.43299961;stroke-opacity:1;stroke-dasharray:none;stroke-dashoffset:0"
       ns0:preamble="/home/ken/.config/inkscape/textextpreamble.txt"
       ns0:text="$\\hat{s}$"
       text-anchor="start"
       word-spacing="normal"
       letter-spacing="normal"
       font-size-adjust="none"
       font-stretch="normal"
       font-weight="normal"
       font-variant="normal"
       font-style="normal"
       fill-opacity="1"
       fill-rule="evenodd"
       fill="none"
       stroke-opacity="1"
       stroke-dashoffset="0"
       stroke-dasharray="none"
       stroke-miterlimit="10.433"
       stroke-linejoin="miter"
       stroke-linecap="butt"
       stroke="black"
       xml:space="preserve"
       transform="matrix(4,0,0,-4,-18.628586,2566.0338)"
       id="g3174"><polygon
         id="polygon3176"
         fill="black"
         stroke-width="0"
         points="226.32,484.13 224.98,482.78 225.16,482.6 226.32,483.61 227.46,482.6 227.64,482.78 " /><path
         id="path3178"
         fill="black"
         stroke-width="0"
         d="M227.32,480.95 L227.3,480.95 L227.27,480.95 L227.25,480.94 L227.22,480.94 L227.2,480.93 L227.17,480.92 L227.15,480.92 L227.13,480.91 L227.11,480.9 L227.09,480.89 L227.07,480.87 L227.05,480.86 L227.03,480.85 L227.01,480.83 L227,480.82 L226.98,480.8 L226.96,480.79 L226.95,480.77 L226.94,480.76 L226.92,480.74 L226.91,480.72 L226.9,480.7 L226.89,480.68 L226.88,480.66 L226.87,480.64 L226.87,480.62 L226.86,480.6 L226.85,480.58 L226.85,480.56 L226.85,480.54 L226.85,480.52 L226.85,480.5 C226.85,480.36,226.93,480.21,227.15,480.21 C227.37,480.21,227.61,480.38,227.61,480.77 C227.61,481.22,227.18,481.63,226.43,481.63 C225.11,481.63,224.74,480.61,224.74,480.17 C224.74,479.4,225.48,479.25,225.77,479.19 C226.29,479.09,226.8,478.98,226.8,478.44 C226.8,478.18,226.58,477.34,225.38,477.34 C225.24,477.34,224.48,477.34,224.25,477.87 C224.63,477.82,224.88,478.12,224.88,478.4 C224.88,478.63,224.71,478.74,224.51,478.74 C224.25,478.74,223.95,478.54,223.95,478.09 C223.95,477.52,224.52,477.13,225.37,477.13 C226.98,477.13,227.37,478.33,227.37,478.77 C227.37,479.13,227.18,479.38,227.06,479.5 C226.79,479.78,226.51,479.83,226.07,479.92 C225.71,480,225.31,480.07,225.31,480.51 C225.31,480.8,225.55,481.41,226.43,481.41 C226.68,481.41,227.17,481.34,227.32,480.95 Z " /></g>  </g>
</svg>
