<svg xmlns:inkscape="http://www.inkscape.org/namespaces/inkscape" xmlns:rdf="http://www.w3.org/1999/02/22-rdf-syntax-ns#" xmlns="http://www.w3.org/2000/svg" sodipodi:docname="080714 model silicone.svg" height="100%" width="100%" version="1.1" preserveAspectRatio="xMidYMid" xmlns:cc="http://creativecommons.org/ns#" xmlns:dc="http://purl.org/dc/elements/1.1/" inkscape:version="0.48.4 r9939" viewBox="17.9 10.45 407.1 245.55" xmlns:sodipodi="http://sodipodi.sourceforge.net/DTD/sodipodi-0.dtd">
 <metadata>
  <rdf:RDF>
   <cc:Work rdf:about="">
    <dc:format>image/svg+xml</dc:format>
    <dc:type rdf:resource="http://purl.org/dc/dcmitype/StillImage"/>
    <dc:title/>
   </cc:Work>
  </rdf:RDF>
 </metadata>
 <sodipodi:namedview bordercolor="#666666" inkscape:pageshadow="2" guidetolerance="10" pagecolor="#ffffff" gridtolerance="10" inkscape:window-maximized="1" inkscape:zoom="2.3552857" objecttolerance="10" borderopacity="1" inkscape:current-layer="svg2" inkscape:cx="203.55" inkscape:cy="122.775" inkscape:window-y="0" inkscape:window-x="0" inkscape:guide-bbox="true" inkscape:window-width="1920" showgrid="false" inkscape:pageopacity="0" inkscape:window-height="1055" showguides="true"/>
 <clipPath>
  <rect y="0.5" x="0.5" height="719" width="539"/>
 </clipPath>
 <g transform="translate(12.930849,-7.4238476)">
  <text xml:space="preserve" style="text-anchor:middle;" text-rendering="geometricPrecision"><tspan font-size="10px" y="76.849998" x="111.52" font-family="Arial" fill="#000000">Si</tspan></text>
 </g>
 <g transform="translate(12.930849,-7.4238476)">
  <path d="m117.3,73.45,0,0,0-0.5,0-0.5,18.9,0,0,0.5,0,0.5z" fill-rule="evenodd" inkscape:connector-curvature="0" shape-rendering="geometricPrecision" stroke-width="0" fill="#000"/>
 </g>
 <g transform="translate(12.930849,-7.4238476)">
  <text xml:space="preserve" style="text-anchor:start;" text-rendering="geometricPrecision"><tspan font-size="10px" y="76.849998" x="137.62" font-family="Arial" fill="#000000">O</tspan></text>
 </g>
 <g transform="translate(12.930849,-7.4238476)">
  <path d="m106.2,72.45,0,0,0,0.5,0,0.5-22.2,0,0-0.5,0-0.5z" fill-rule="evenodd" inkscape:connector-curvature="0" shape-rendering="geometricPrecision" stroke-width="0" fill="#000"/>
 </g>
 <g transform="translate(12.930849,-7.4238476)">
  <text xml:space="preserve" style="text-anchor:end;" text-rendering="geometricPrecision"><tspan font-size="10px" y="76.849998" x="82.620003" font-family="Arial" fill="#000000">Vi</tspan></text>
 </g>
 <g transform="translate(12.930849,-7.4238476)">
  <path d="m111.02,79,0,0,0.5,0,0.5,0,0,18.95-0.5,0-0.5,0z" fill-rule="evenodd" inkscape:connector-curvature="0" shape-rendering="geometricPrecision" stroke-width="0" fill="#000"/>
 </g>
 <g transform="translate(12.930849,-7.4238476)">
  <text xml:space="preserve" style="text-anchor:start;" text-rendering="geometricPrecision"><tspan font-size="10px" y="106.85" x="107.35" font-family="Arial" fill="#000000">Me</tspan></text>
 </g>
 <g transform="translate(12.930849,-7.4238476)">
  <path d="m112.02,67.7,0,0-0.5,0-0.5,0,0-18.8,0.5,0,0.5,0z" fill-rule="evenodd" inkscape:connector-curvature="0" shape-rendering="geometricPrecision" stroke-width="0" fill="#000"/>
 </g>
 <g transform="translate(12.930849,-7.4238476)">
  <text xml:space="preserve" style="text-anchor:start;" text-rendering="geometricPrecision"><tspan font-size="10px" y="46.849998" x="107.35" font-family="Arial" fill="#000000">Me</tspan></text>
 </g>
 <g transform="translate(12.930849,-7.4238476)">
  <text xml:space="preserve" style="text-anchor:start;" text-rendering="geometricPrecision"><tspan font-size="10px" y="76.849998" x="168.2" font-family="Arial" fill="#000000">Vi</tspan></text>
 </g>
 <g transform="translate(12.930849,-7.4238476)">
  <path d="m147,73.45,0,0,0-0.5,0-0.5,20.4,0,0,0.5,0,0.5z" fill-rule="evenodd" inkscape:connector-curvature="0" shape-rendering="geometricPrecision" stroke-width="0" fill="#000"/>
 </g>
 <g transform="translate(12.930849,-7.4238476)">
  <path stroke-linejoin="miter" d="m150.3,35.2a74.05,74.05,0,0,1,0,74.05" inkscape:connector-curvature="0" shape-rendering="geometricPrecision" stroke="#000" stroke-width="1" fill="none"/>
 </g>
 <g transform="translate(12.930849,-7.4238476)">
  <path stroke-linejoin="miter" d="m98.46,109.25a74.05,74.05,0,0,1,0,-74.05" inkscape:connector-curvature="0" shape-rendering="geometricPrecision" stroke="#000" stroke-width="1" fill="none"/>
 </g>
 <g transform="translate(12.930849,-7.4238476)">
  <text xml:space="preserve" style="text-anchor:start;" text-rendering="geometricPrecision"><tspan font-size="12px" y="112" x="165" font-family="Times New Roman" fill="#000000">n</tspan></text>
 </g>
 <g transform="translate(12.930849,-7.4238476)">
  <text style="text-anchor:end;" text-rendering="geometricPrecision" xml:space="preserve" font-family="Arial" fill="#000000"><tspan font-size="10px" y="212.89" x="37.099998">R</tspan><tspan font-size="7.5px" dy="2.26">1</tspan><tspan font-size="10px" dy="-2.26">O</tspan></text>
 </g>
 <g transform="translate(12.930849,-7.4238476)">
  <path d="m38.7,209.49,0,0,0-0.5,0-0.5,19.1,0,0,0.5,0,0.5z" fill-rule="evenodd" inkscape:connector-curvature="0" shape-rendering="geometricPrecision" stroke-width="0" fill="#000"/>
 </g>
 <g transform="translate(12.930849,-7.4238476)">
  <text xml:space="preserve" style="text-anchor:middle;" text-rendering="geometricPrecision"><tspan font-size="10px" y="212.89" x="63.200001" font-family="Arial" fill="#000000">Si</tspan></text>
 </g>
 <g transform="translate(12.930849,-7.4238476)">
  <path d="m63.7,203.7,0,0-0.5,0-0.5,0,0-18.8,0.5,0,0.5,0z" fill-rule="evenodd" inkscape:connector-curvature="0" shape-rendering="geometricPrecision" stroke-width="0" fill="#000"/>
 </g>
 <g transform="translate(12.930849,-7.4238476)">
  <text xml:space="preserve" style="text-anchor:start;" text-rendering="geometricPrecision"><tspan font-size="10px" y="182.89" x="59.02" font-family="Arial" fill="#000000">Me</tspan></text>
 </g>
 <g transform="translate(12.930849,-7.4238476)">
  <text xml:space="preserve" style="text-anchor:start;" text-rendering="geometricPrecision"><tspan font-size="10px" y="242.89" x="59.02" font-family="Arial" fill="#000000">Me</tspan></text>
 </g>
 <g transform="translate(12.930849,-7.4238476)">
  <path d="m62.7,215,0,0,0.5,0,0.5,0,0,18.99-0.5,0-0.5,0z" fill-rule="evenodd" inkscape:connector-curvature="0" shape-rendering="geometricPrecision" stroke-width="0" fill="#000"/>
 </g>
 <g transform="translate(12.930849,-7.4238476)">
  <path d="m69,209.49,0,0,0-0.5,0-0.5,19.2,0,0,0.5,0,0.5z" fill-rule="evenodd" inkscape:connector-curvature="0" shape-rendering="geometricPrecision" stroke-width="0" fill="#000"/>
 </g>
 <g transform="translate(12.081695,-9.1221554)">
  <text style="text-anchor:start;" text-rendering="geometricPrecision" xml:space="preserve" font-size="10px" font-family="Arial" fill="#000000"><tspan y="212.89" x="89.599998">C</tspan><tspan y="255.2" x="89.599998">H</tspan></text>
 </g>
 <g shape-rendering="auto" stroke="#000" stroke-width="1" transform="translate(12.930849,-7.4238476)">
  <line y2="207.51" x2="118.2" y1="207.51" x1="98.5"/>
  <line y2="210.47" x2="118.2" y1="210.47" x1="98.5"/>
  <line y2="207.51" x2="118.2" y1="207.51" x1="98.5"/>
 </g>
 <g transform="translate(12.930849,-7.4238476)">
  <text style="text-anchor:start;" text-rendering="geometricPrecision" xml:space="preserve" font-family="Arial" fill="#000000"><tspan font-size="10px" y="212.89" x="119.6">CH</tspan><tspan font-size="7.5px" dy="2.26">2</tspan></text>
 </g>
 <g transform="translate(12.930849,-7.4238476)">
  <text xml:space="preserve" style="text-anchor:start;" text-rendering="geometricPrecision"><tspan font-size="12px" y="213.39" x="149.45" font-family="Times New Roman" fill="#000000">+</tspan></text>
 </g>
 <g transform="translate(12.930849,-7.4238476)">
  <line stroke-width="1" y2="210.19" shape-rendering="auto" x2="230.97" stroke="#000" y1="210.19" x1="281.06"/>
  <path d="m299.75,210.19-22.5-5.63c3.25,3.17,3.25,8.09,0,11.26z" fill-rule="evenodd" inkscape:connector-curvature="0" shape-rendering="geometricPrecision" stroke-miterlimit="11.54828548" stroke-width="0" fill="#000"/>
 </g>
 <g transform="translate(12.930849,-7.4238476)">
  <text xml:space="preserve" style="text-anchor:start;" text-rendering="geometricPrecision"><tspan font-size="12px" y="205.78999" x="245.75" font-family="Times New Roman" fill="#000000">Pt</tspan></text>
 </g>
 <g transform="translate(12.930849,-7.4238476)">
  <text xml:space="preserve" style="text-anchor:start;" text-rendering="geometricPrecision"><tspan font-size="12px" y="223.38" x="231.77" font-family="Times New Roman" fill="#000000">inhibitor</tspan></text>
 </g>
 <g transform="translate(12.930849,-7.4238476)">
  <text style="text-anchor:end;" text-rendering="geometricPrecision" xml:space="preserve" font-family="Arial" fill="#000000"><tspan font-size="10px" y="213.69" x="336.39999">R</tspan><tspan font-size="7.5px" dy="2.26">1</tspan><tspan font-size="10px" dy="-2.26">O</tspan></text>
 </g>
 <g transform="translate(12.930849,-7.4238476)">
  <path d="m338,210.29,0,0,0-0.5,0-0.5,19.1,0,0,0.5,0,0.5z" fill-rule="evenodd" inkscape:connector-curvature="0" shape-rendering="geometricPrecision" stroke-width="0" fill="#000"/>
 </g>
 <g transform="translate(12.930849,-7.4238476)">
  <text xml:space="preserve" style="text-anchor:middle;" text-rendering="geometricPrecision"><tspan font-size="10px" y="213.69" x="362.5" font-family="Arial" fill="#000000">Si</tspan></text>
 </g>
 <g transform="translate(12.930849,-7.4238476)">
  <text xml:space="preserve" style="text-anchor:start;" text-rendering="geometricPrecision"><tspan font-size="10px" y="183.69" x="358.32001" font-family="Arial" fill="#000000">Me</tspan></text>
 </g>
 <g transform="translate(12.930849,-7.4238476)">
  <path d="m363,204.5,0,0-0.5,0-0.5,0,0-18.8,0.5,0,0.5,0z" fill-rule="evenodd" inkscape:connector-curvature="0" shape-rendering="geometricPrecision" stroke-width="0" fill="#000"/>
 </g>
 <g transform="translate(12.930849,-7.4238476)">
  <path d="m362,215.8,0,0,0.5,0,0.5,0,0,18.99-0.5,0-0.5,0z" fill-rule="evenodd" inkscape:connector-curvature="0" shape-rendering="geometricPrecision" stroke-width="0" fill="#000"/>
 </g>
 <g transform="translate(12.930849,-7.4238476)">
  <text xml:space="preserve" style="text-anchor:start;" text-rendering="geometricPrecision"><tspan font-size="10px" y="243.69" x="358.32001" font-family="Arial" fill="#000000">Me</tspan></text>
 </g>
 <g transform="translate(12.930849,-7.4238476)">
  <path d="m368.3,210.29,0,0,0-0.5,0-0.5,24.49,0-0.29,0.5-0.29,0.5z" fill-rule="evenodd" inkscape:connector-curvature="0" shape-rendering="geometricPrecision" stroke-width="0" fill="#000"/>
 </g>
 <g transform="translate(12.930849,-7.4238476)">
  <text style="text-anchor:start;" text-rendering="geometricPrecision" xml:space="preserve" font-family="Arial" fill="#000000"><tspan font-size="10px" y="239.67" x="404.17001">SiR</tspan><tspan font-size="7.5px" dy="2.26">3</tspan></text>
 </g>
 <g transform="translate(12.930849,-7.4238476)">
  <path d="m392.21,210.29,0,0,0.29-0.5,0.29-0.5,12.37,21.43-0.43,0.25-0.44,0.25z" fill-rule="evenodd" inkscape:connector-curvature="0" shape-rendering="geometricPrecision" stroke-width="0" fill="#000"/>
 </g>
 <g transform="translate(12.930849,-7.4238476)">
  <text style="text-anchor:end;" text-rendering="geometricPrecision" xml:space="preserve" font-family="Arial" fill="#000000"><tspan font-size="10px" y="213.28999" x="182.27">SiR</tspan><tspan font-size="7.5px" dy="2.26">3</tspan></text>
 </g>
 <g transform="translate(12.930849,-7.4238476)">
  <path d="m184,209.89,0,0,0-0.5,0-0.5,20.7,0,0,0.5,0,0.5z" fill-rule="evenodd" inkscape:connector-curvature="0" shape-rendering="geometricPrecision" stroke-width="0" fill="#000"/>
 </g>
 <g transform="translate(12.930849,-7.4238476)">
  <text xml:space="preserve" style="text-anchor:start;" text-rendering="geometricPrecision"><tspan font-size="10px" y="213.28999" x="205.89" font-family="Arial" fill="#000000">H</tspan></text>
 </g>
</svg>
