<?xml version="1.0" encoding="UTF-8" standalone="no"?>
<!-- Created with Inkscape (http://www.inkscape.org/) -->

<svg
   xmlns:ns0="http://www.iki.fi/pav/software/textext/"
   xmlns:dc="http://purl.org/dc/elements/1.1/"
   xmlns:cc="http://creativecommons.org/ns#"
   xmlns:rdf="http://www.w3.org/1999/02/22-rdf-syntax-ns#"
   xmlns:svg="http://www.w3.org/2000/svg"
   xmlns="http://www.w3.org/2000/svg"
   xmlns:sodipodi="http://sodipodi.sourceforge.net/DTD/sodipodi-0.dtd"
   xmlns:inkscape="http://www.inkscape.org/namespaces/inkscape"
   width="1314.5145"
   height="487.16022"
   id="svg3313"
   sodipodi:version="0.32"
   inkscape:version="0.48.4 r9939"
   sodipodi:modified="true"
   version="1.1"
   sodipodi:docname="TiltAndTwistBoundaries.svg">
  <sodipodi:namedview
     id="base"
     pagecolor="#ffffff"
     bordercolor="#666666"
     borderopacity="1.0"
     gridtolerance="10000"
     guidetolerance="10"
     objecttolerance="10"
     inkscape:pageopacity="0.0"
     inkscape:pageshadow="2"
     inkscape:zoom="1.4"
     inkscape:cx="771.35345"
     inkscape:cy="214.47357"
     inkscape:document-units="px"
     inkscape:current-layer="g3015"
     inkscape:window-width="1918"
     inkscape:window-height="1030"
     inkscape:window-x="1280"
     inkscape:window-y="0"
     showgrid="false"
     inkscape:window-maximized="1" />
  <defs
     id="defs3315">
    <marker
       style="overflow:visible;"
       id="Arrow2Mend"
       refX="0.0"
       refY="0.0"
       orient="auto"
       inkscape:stockid="Arrow2Mend">
      <path
         transform="scale(0.6) rotate(180) translate(0,0)"
         d="M 8.7185878,4.0337352 L -2.2072895,0.016013256 L 8.7185884,-4.0017078 C 6.9730900,-1.6296469 6.9831476,1.6157441 8.7185878,4.0337352 z "
         style="fill-rule:evenodd;stroke-width:0.62500000;stroke-linejoin:round;"
         id="path3845" />
    </marker>
    <marker
       style="overflow:visible"
       id="Arrow2Sstart"
       refX="0.0"
       refY="0.0"
       orient="auto"
       inkscape:stockid="Arrow2Sstart">
      <path
         transform="scale(0.3) translate(-2.3,0)"
         d="M 8.7185878,4.0337352 L -2.2072895,0.016013256 L 8.7185884,-4.0017078 C 6.9730900,-1.6296469 6.9831476,1.6157441 8.7185878,4.0337352 z "
         style="fill-rule:evenodd;stroke-width:0.62500000;stroke-linejoin:round"
         id="path3848" />
    </marker>
    <marker
       style="overflow:visible"
       id="Arrow2Mstart"
       refX="0.0"
       refY="0.0"
       orient="auto"
       inkscape:stockid="Arrow2Mstart">
      <path
         transform="scale(0.6) translate(0,0)"
         d="M 8.7185878,4.0337352 L -2.2072895,0.016013256 L 8.7185884,-4.0017078 C 6.9730900,-1.6296469 6.9831476,1.6157441 8.7185878,4.0337352 z "
         style="fill-rule:evenodd;stroke-width:0.62500000;stroke-linejoin:round"
         id="path3842" />
    </marker>
    <marker
       style="overflow:visible"
       id="Arrow2Mend-7"
       refX="0"
       refY="0"
       orient="auto"
       inkscape:stockid="Arrow2Mend">
      <path
         inkscape:connector-curvature="0"
         transform="scale(-0.6,-0.6)"
         d="M 8.7185878,4.0337352 -2.2072895,0.01601326 8.7185884,-4.0017078 c -1.7454984,2.3720609 -1.7354408,5.6174519 -6e-7,8.035443 z"
         style="fill-rule:evenodd;stroke-width:0.625;stroke-linejoin:round"
         id="path3845-9" />
    </marker>
  </defs>
  <metadata
     id="metadata3318">
    <rdf:RDF>
      <cc:Work
         rdf:about="">
        <dc:format>image/svg+xml</dc:format>
        <dc:type
           rdf:resource="http://purl.org/dc/dcmitype/StillImage" />
      </cc:Work>
    </rdf:RDF>
  </metadata>
  <g
     transform="translate(396.35345,-111.9163)"
     id="layer1"
     inkscape:groupmode="layer"
     inkscape:label="Layer 1">
    <g
       transform="matrix(0.91874702,0,0,0.87792132,-420.14259,174.22994)"
       id="g3033">
      <path
         inkscape:connector-curvature="0"
         style="fill:none;stroke:#0000ff;stroke-width:2.97076178;stroke-linecap:butt;stroke-linejoin:miter;stroke-miterlimit:4;stroke-opacity:1;stroke-dasharray:none"
         d="M 29.020845,80.068701 201.07196,121.35957 413.17923,102.45955 367.70064,78.206153 286.53894,64.796731 29.020845,80.068701 z"
         id="path3274"
         sodipodi:nodetypes="cccccc" />
      <path
         inkscape:connector-curvature="0"
         style="fill:none;stroke:#0000ff;stroke-width:2.97076178;stroke-linecap:butt;stroke-linejoin:miter;stroke-miterlimit:4;stroke-opacity:1;stroke-dasharray:11.88304664, 5.94152332;stroke-dashoffset:0"
         d="m 287.09755,65.36236 -2.23443,274.32975"
         id="path3278" />
      <path
         inkscape:connector-curvature="0"
         style="fill:none;stroke:#0000ff;stroke-width:2.97076178;stroke-linecap:butt;stroke-linejoin:miter;stroke-miterlimit:4;stroke-opacity:1;stroke-dasharray:none"
         d="m 27.345029,79.503072 6.703286,310.529958 165.347825,91.6318 0.55861,-360.87089"
         id="path3280" />
      <path
         style="fill:none;stroke:#0000ff;stroke-width:2.97076178;stroke-linecap:butt;stroke-linejoin:miter;stroke-miterlimit:4;stroke-opacity:1;stroke-dasharray:none"
         d="M 200.39354,482.40378 404.84394,429.2347"
         id="path3282"
         inkscape:connector-curvature="0" />
      <path
         inkscape:connector-curvature="0"
         style="fill:none;stroke:#0000ff;stroke-width:2.97076178;stroke-linecap:butt;stroke-linejoin:miter;stroke-miterlimit:4;stroke-opacity:1;stroke-dasharray:11.88304664, 5.94152332;stroke-dashoffset:0"
         d="m 33.258325,389.46741 250.256185,-49.7753 77.08783,31.67519 43.57139,56.56283"
         id="path3284" />
      <path
         inkscape:connector-curvature="0"
         style="fill:none;stroke:#0000ff;stroke-width:1.98050773;stroke-linecap:butt;stroke-linejoin:miter;stroke-miterlimit:4;stroke-opacity:1;stroke-dasharray:none"
         d="m 413.34284,104.39072 -7.2619,323.53941"
         id="path4255" />
      <path
         inkscape:connector-curvature="0"
         style="fill:none;stroke:#009f00;stroke-width:2.97076178;stroke-linecap:butt;stroke-linejoin:miter;stroke-miterlimit:4;stroke-opacity:1;stroke-dasharray:none"
         d="m 720.57699,98.734441 -17.31684,311.095579 -296.6206,19.79699 6.70329,-326.36755 307.23415,-4.525019 z"
         id="path4257" />
      <path
         inkscape:connector-curvature="0"
         style="fill:none;stroke:#009f00;stroke-width:2.97076178;stroke-linecap:butt;stroke-linejoin:miter;stroke-miterlimit:4;stroke-opacity:1;stroke-dasharray:none"
         d="M 340.72386,64.231102 604.38662,63.665473 720.01838,98.734441 413.90145,102.69383 340.72386,64.231102 z"
         id="path4259" />
      <path
         inkscape:connector-curvature="0"
         style="fill:none;stroke:#009f00;stroke-width:3.96101546;stroke-linecap:butt;stroke-linejoin:miter;stroke-miterlimit:4;stroke-opacity:1;stroke-dasharray:15.84406218, 7.92203109;stroke-dashoffset:0"
         d="m 603.82802,63.099854 -12.84798,264.148436 111.1629,82.58173"
         id="path4261" />
      <path
         inkscape:connector-curvature="0"
         style="fill:none;stroke:#009e00;stroke-width:2.97076178;stroke-linecap:butt;stroke-linejoin:miter;stroke-miterlimit:4;stroke-opacity:1;stroke-dasharray:11.88304664, 5.94152332;stroke-dashoffset:0"
         d="M 591.53865,325.5514 336.255,337.99522"
         id="path4263" />
      <path
         inkscape:connector-curvature="0"
         style="fill:none;stroke:#009f00;stroke-width:2.97076178;stroke-linecap:butt;stroke-linejoin:miter;stroke-miterlimit:4;stroke-opacity:1;stroke-dasharray:11.88304664, 5.94152332;stroke-dashoffset:0"
         d="M 341.56178,74.129601 336.255,337.99522 360.83373,370.23604"
         id="path4265"
         sodipodi:nodetypes="ccc" />
      <path
         inkscape:connector-curvature="0"
         style="fill:none;stroke:#009e00;stroke-width:1.98050773;stroke-linecap:butt;stroke-linejoin:miter;stroke-miterlimit:4;stroke-opacity:1;stroke-dasharray:none"
         d="m 341.84107,63.665473 -0.55861,11.312571"
         id="path4267" />
      <path
         inkscape:connector-curvature="0"
         style="opacity:0.55999995;fill:#cb0000;fill-opacity:1;fill-rule:evenodd;stroke:#000000;stroke-width:0;stroke-linecap:butt;stroke-linejoin:miter;stroke-miterlimit:4;stroke-opacity:1;stroke-dasharray:none"
         d="m 366.83475,77.373075 46.21444,25.197455 -6.71492,326.76702 -45.42445,-58.39411 5.92493,-293.570365 z"
         id="path4270" />
      <path
         inkscape:connector-curvature="0"
         style="fill:none;stroke:#000000;stroke-width:4.95126963;stroke-linecap:butt;stroke-linejoin:miter;stroke-miterlimit:4;stroke-opacity:1;stroke-dasharray:none"
         d="M 366.83475,77.773033 360.90982,371.74336"
         id="path2169" />
      <path
         inkscape:connector-curvature="0"
         style="fill:none;stroke:#000000;stroke-width:5.27061319;stroke-linecap:butt;stroke-linejoin:miter;stroke-miterlimit:4;stroke-opacity:1;stroke-dasharray:none;marker-end:none"
         d="M 366.6429,77.604764 233.1675,6.3643395"
         id="path3376"
         sodipodi:nodetypes="cc" />
      <path
         inkscape:connector-curvature="0"
         style="fill:none;stroke:#000000;stroke-width:3.96251297;stroke-linecap:butt;stroke-linejoin:miter;stroke-miterlimit:4;stroke-opacity:1;stroke-dasharray:none;marker-end:none"
         d="m 365.95591,78.556143 c 0,0 -264.9866,-55.362795 -177.77259,-36.497689"
         id="path3378"
         sodipodi:nodetypes="cc" />
      <path
         sodipodi:nodetypes="cac"
         transform="matrix(1.0884389,0,0,1.1390542,25.893025,-70.978616)"
         inkscape:connector-curvature="0"
         id="path4258"
         d="m 141.42857,95.017362 c 0,0 7.5662,-14.943999 14.28571,-19.285714 9.41403,-6.082742 32.85715,-7.142857 32.85715,-7.142857"
         style="fill:none;stroke:#000000;stroke-width:2.00000004000000020;stroke-linecap:butt;stroke-linejoin:miter;stroke-opacity:1;marker-start:url(#Arrow2Mstart);marker-end:url(#Arrow2Mend);stroke-miterlimit:4;stroke-dasharray:none" />
    </g>
    <g
       transform="matrix(0.76261443,0,0,0.79073772,-389.08801,110.99866)"
       id="g3015">
      <path
         style="fill:none;stroke:#000000;stroke-width:5;stroke-linecap:butt;stroke-linejoin:miter;stroke-miterlimit:4;stroke-opacity:1;stroke-dasharray:none"
         d="M 1382.8181,356.13512 1488.9667,341.3765"
         id="path3355"
         sodipodi:nodetypes="cc"
         inkscape:connector-curvature="0" />
      <path
         style="fill:none;stroke:#0000ff;stroke-width:3;stroke-linecap:butt;stroke-linejoin:miter;stroke-miterlimit:4;stroke-opacity:1;stroke-dasharray:none"
         d="m 1026.2779,218.42915 238.4206,17.66079 0,0 12.0415,370.07381 -234.4069,-66.62934 -16.0552,-321.10526 z"
         id="path2220"
         inkscape:connector-curvature="0" />
      <path
         style="fill:none;stroke:#009f00;stroke-width:3;stroke-linecap:butt;stroke-linejoin:miter;stroke-miterlimit:4;stroke-opacity:1;stroke-dasharray:none"
         d="M 1222.9548,333.22428 1371.466,138.15284 1550.8836,376.57349 1376.2826,561.20901 1222.9548,333.22428 z"
         id="path3202"
         sodipodi:nodetypes="ccccc"
         inkscape:connector-curvature="0" />
      <path
         style="fill:none;stroke:#009f00;stroke-width:3;stroke-linecap:butt;stroke-linejoin:miter;stroke-miterlimit:4;stroke-opacity:1;stroke-dasharray:none"
         d="m 1372.2688,138.15284 171.7913,-8.02763 168.5803,204.7046 -162.9609,41.74368"
         id="path3204"
         inkscape:connector-curvature="0" />
      <path
         style="fill:none;stroke:#009f00;stroke-width:3;stroke-linecap:butt;stroke-linejoin:miter;stroke-miterlimit:4;stroke-opacity:1;stroke-dasharray:none"
         d="m 1376.2826,561.61039 166.9747,-61.41138 169.3831,-165.3692"
         id="path3206"
         sodipodi:nodetypes="ccc"
         inkscape:connector-curvature="0" />
      <path
         style="fill:none;stroke:#009f00;stroke-width:3;stroke-linecap:butt;stroke-linejoin:miter;stroke-miterlimit:4;stroke-opacity:1;stroke-dasharray:12, 6;stroke-dashoffset:0"
         d="m 1543.6587,129.72382 -144.096,173.79823 -175.0023,31.30776"
         id="path3208"
         sodipodi:nodetypes="ccc"
         inkscape:connector-curvature="0" />
      <path
         style="fill:none;stroke:#009f00;stroke-width:3;stroke-linecap:butt;stroke-linejoin:miter;stroke-miterlimit:4;stroke-opacity:1;stroke-dasharray:12, 6;stroke-dashoffset:0"
         d="m 1400.3655,302.71928 142.8918,196.67697"
         id="path3210"
         sodipodi:nodetypes="cc"
         inkscape:connector-curvature="0" />
      <path
         style="opacity:0.58333333;fill:#d00000;fill-opacity:1;fill-rule:evenodd;stroke:#000000;stroke-width:1px;stroke-linecap:butt;stroke-linejoin:miter;stroke-opacity:1"
         d="m 1265.8844,276.66562 55.6287,-72.65782 101.6074,3.97347 70.9549,93.66048 0,133.96286 -70.3872,74.92839 -94.7958,-19.86738 -59.0345,-86.8488 -3.9735,-127.1512 z"
         id="path3212"
         sodipodi:nodetypes="ccccccccc"
         inkscape:connector-curvature="0" />
      <path
         style="fill:none;stroke:#000000;stroke-width:5;stroke-linecap:butt;stroke-linejoin:miter;stroke-miterlimit:4;stroke-opacity:1;stroke-dasharray:none"
         d="m 1274.399,370.3261 108.9868,-14.19098"
         id="path2384"
         sodipodi:nodetypes="cc"
         inkscape:connector-curvature="0" />
      <path
         style="fill:none;stroke:#0000ff;stroke-width:3;stroke-linecap:butt;stroke-linejoin:miter;stroke-miterlimit:4;stroke-opacity:1;stroke-dasharray:12, 6;stroke-dashoffset:0"
         d="m 1043.5373,539.53441 223.5695,-61.81276 226.3792,48.16578"
         id="path2228"
         sodipodi:nodetypes="ccc"
         inkscape:connector-curvature="0" />
      <path
         style="fill:none;stroke:#0000ff;stroke-width:3;stroke-linecap:butt;stroke-linejoin:miter;stroke-miterlimit:4;stroke-opacity:1;stroke-dasharray:12, 6;stroke-dashoffset:0"
         d="m 1267.1068,476.91889 -7.2249,-272.93948"
         id="path2230"
         sodipodi:nodetypes="cc"
         inkscape:connector-curvature="0" />
      <path
         style="fill:none;stroke:#000000;stroke-width:3;stroke-linecap:butt;stroke-linejoin:miter;stroke-miterlimit:4;stroke-opacity:1;stroke-dasharray:none;marker-end:none"
         d="M 1381.734,353.54342 1373.4743,97.479709"
         id="path3580"
         sodipodi:nodetypes="cc"
         inkscape:connector-curvature="0" />
      <path
         style="fill:none;stroke:#000000;stroke-width:3;stroke-linecap:butt;stroke-linejoin:miter;stroke-miterlimit:4;stroke-opacity:1;stroke-dasharray:none;marker-end:none"
         d="m 1383.5094,358.46329 184.4035,-182.2095"
         id="path3582"
         sodipodi:nodetypes="cc"
         inkscape:connector-curvature="0" />
      <path
         style="fill:none;stroke:#000000;stroke-width:2.73691511;stroke-linecap:butt;stroke-linejoin:miter;stroke-miterlimit:4;stroke-opacity:1;stroke-dasharray:none;marker-start:url(#Arrow2Mstart);marker-end:url(#Arrow2Mend)"
         d="m 1378.208,161.69262 c 52.0439,-18.22083 125.5175,14.01603 145.4166,49.05607"
         id="path3584"
         sodipodi:nodetypes="cs"
         inkscape:connector-curvature="0" />
      <path
         style="fill:none;stroke:#0000ff;stroke-width:3;stroke-linecap:butt;stroke-linejoin:miter;stroke-miterlimit:4;stroke-opacity:1;stroke-dasharray:none"
         d="m 1264.2971,235.68856 229.9917,-26.49119 -236.0124,-6.02072 -231.9985,15.2525"
         id="path2226"
         sodipodi:nodetypes="cccc"
         inkscape:connector-curvature="0" />
      <path
         style="fill:none;stroke:#0000ff;stroke-width:3;stroke-linecap:butt;stroke-linejoin:miter;stroke-miterlimit:4;stroke-opacity:1;stroke-dasharray:none"
         d="m 1276.3386,606.16374 218.753,-79.47354 -0.8028,-317.09144"
         id="path2224"
         sodipodi:nodetypes="ccc"
         inkscape:connector-curvature="0" />
      <g
         ns0:preamble="/home/ken/.config/inkscape/textextpreamble.txt"
         ns0:text="$\\theta$"
         word-spacing="normal"
         letter-spacing="normal"
         font-size-adjust="none"
         font-stretch="normal"
         font-weight="normal"
         font-variant="normal"
         font-style="normal"
         stroke-miterlimit="10.433"
         xml:space="preserve"
         transform="matrix(4,0,0,-4,-672.83922,2034.2242)"
         id="content"
         style="font-style:normal;font-variant:normal;font-weight:normal;font-stretch:normal;letter-spacing:normal;word-spacing:normal;text-anchor:start;fill:none;stroke:#000000;stroke-linecap:butt;stroke-linejoin:miter;stroke-miterlimit:10.43299961;stroke-opacity:1;stroke-dasharray:none;stroke-dashoffset:0"><path
           id="path5239"
           d="m 227.96,482.2 0,0.07 0,0.06 -0.01,0.07 0,0.08 -0.01,0.07 0,0.08 -0.01,0.08 -0.01,0.09 -0.02,0.08 -0.01,0.08 -0.02,0.09 -0.02,0.08 -0.02,0.09 -0.03,0.08 -0.03,0.09 -0.03,0.08 -0.03,0.08 -0.04,0.07 -0.04,0.08 -0.04,0.07 -0.05,0.06 -0.05,0.07 -0.05,0.06 -0.06,0.05 -0.06,0.05 -0.03,0.02 -0.04,0.03 -0.03,0.02 -0.04,0.01 -0.03,0.02 -0.04,0.02 -0.04,0.01 -0.04,0.01 -0.04,0.01 -0.04,0.01 -0.05,0.01 -0.04,0 -0.05,0.01 -0.05,0 0,-0.22 c 0.48,0 0.54,-0.64 0.54,-1.2 0,-0.49 -0.08,-1 -0.32,-1.98 h -2.08 c 0.17,0.64 0.37,1.43 0.77,2.14 0.27,0.48 0.64,1.04 1.09,1.04 l 0,0.22 c -1.38,0 -2.91,-2.8 -2.91,-5.08 0,-0.93 0.29,-2.03 1.19,-2.03 v 0.21 c -0.33,0 -0.53,0.29 -0.53,1.22 0,0.41 0.06,0.99 0.31,1.96 h 2.07 c -0.1,-0.45 -0.31,-1.3 -0.69,-2.01 -0.35,-0.68 -0.73,-1.17 -1.16,-1.17 v -0.21 c 1.41,0 2.92,2.85 2.92,5.07 z"
           inkscape:connector-curvature="0"
           style="fill:#000000;stroke-width:0" /></g>      <g
         ns0:preamble="/home/ken/.config/inkscape/textextpreamble.txt"
         ns0:text="$\\theta$"
         word-spacing="normal"
         letter-spacing="normal"
         font-size-adjust="none"
         font-stretch="normal"
         font-weight="normal"
         font-variant="normal"
         font-style="normal"
         stroke-miterlimit="10.433"
         xml:space="preserve"
         transform="matrix(4,0,0,-4,546.11876,2106.3921)"
         id="content-7"
         style="font-style:normal;font-variant:normal;font-weight:normal;font-stretch:normal;letter-spacing:normal;word-spacing:normal;text-anchor:start;fill:none;stroke:#000000;stroke-linecap:butt;stroke-linejoin:miter;stroke-miterlimit:10.43299961;stroke-opacity:1;stroke-dasharray:none;stroke-dashoffset:0"><path
           id="path5239-7"
           d="m 227.96,482.2 0,0.07 0,0.06 -0.01,0.07 0,0.08 -0.01,0.07 0,0.08 -0.01,0.08 -0.01,0.09 -0.02,0.08 -0.01,0.08 -0.02,0.09 -0.02,0.08 -0.02,0.09 -0.03,0.08 -0.03,0.09 -0.03,0.08 -0.03,0.08 -0.04,0.07 -0.04,0.08 -0.04,0.07 -0.05,0.06 -0.05,0.07 -0.05,0.06 -0.06,0.05 -0.06,0.05 -0.03,0.02 -0.04,0.03 -0.03,0.02 -0.04,0.01 -0.03,0.02 -0.04,0.02 -0.04,0.01 -0.04,0.01 -0.04,0.01 -0.04,0.01 -0.05,0.01 -0.04,0 -0.05,0.01 -0.05,0 0,-0.22 c 0.48,0 0.54,-0.64 0.54,-1.2 0,-0.49 -0.08,-1 -0.32,-1.98 h -2.08 c 0.17,0.64 0.37,1.43 0.77,2.14 0.27,0.48 0.64,1.04 1.09,1.04 l 0,0.22 c -1.38,0 -2.91,-2.8 -2.91,-5.08 0,-0.93 0.29,-2.03 1.19,-2.03 v 0.21 c -0.33,0 -0.53,0.29 -0.53,1.22 0,0.41 0.06,0.99 0.31,1.96 h 2.07 c -0.1,-0.45 -0.31,-1.3 -0.69,-2.01 -0.35,-0.68 -0.73,-1.17 -1.16,-1.17 v -0.21 c 1.41,0 2.92,2.85 2.92,5.07 z"
           inkscape:connector-curvature="0"
           style="fill:#000000;stroke-width:0" /></g>      <path
         style="fill:none;stroke:#000000;stroke-width:2.00000004000000020;stroke-linecap:butt;stroke-linejoin:miter;stroke-opacity:1;stroke-miterlimit:4;stroke-dasharray:none;marker-end:url(#Arrow2Mend)"
         d="m 1043.5714,303.58879 c 3.5715,-1.42857 42.1429,-5 42.1429,-5"
         id="path5367"
         inkscape:connector-curvature="0"
         transform="matrix(1.3112786,0,0,1.2646418,-9.5270162,1.1604859)" />
      <g
         id="g5627"
         transform="matrix(4,0,0,-4,465.56879,2334.0277)"
         xml:space="preserve"
         stroke-miterlimit="10.433"
         font-style="normal"
         font-variant="normal"
         font-weight="normal"
         font-stretch="normal"
         font-size-adjust="none"
         letter-spacing="normal"
         word-spacing="normal"
         ns0:text="$\\hat{n}$, $\\hat{c}$"
         ns0:preamble="/home/ken/.config/inkscape/textextpreamble.txt"
         style="font-style:normal;font-variant:normal;font-weight:normal;font-stretch:normal;letter-spacing:normal;word-spacing:normal;text-anchor:start;fill:none;stroke:#000000;stroke-linecap:butt;stroke-linejoin:miter;stroke-miterlimit:10.43299961;stroke-opacity:1;stroke-dasharray:none;stroke-dashoffset:0"><polygon
           style="fill:#000000;stroke-width:0"
           points="225.09,482.78 225.26,482.6 226.42,483.61 227.56,482.6 227.74,482.78 226.42,484.13 "
           id="polygon5629" /><path
           style="fill:#000000;stroke-width:0"
           inkscape:connector-curvature="0"
           d="m 224.31,477.82 0,-0.01 -0.01,-0.02 0,-0.01 0,-0.02 -0.01,-0.03 -0.01,-0.03 -0.01,-0.03 0,-0.04 -0.01,-0.03 -0.01,-0.03 0,-0.01 -0.01,-0.02 0,-0.01 0,-0.02 0,-0.01 -0.01,-0.01 0,-0.02 0,-0.01 0,-0.01 -0.01,-0.01 0,-0.01 0,-0.01 0,-0.01 0,0 0,-0.01 0,-0.01 c 0,-0.18 0.14,-0.26 0.29,-0.26 0.12,0 0.29,0.07 0.37,0.27 0,0.02 0.12,0.49 0.18,0.74 l 0.22,0.89 c 0.06,0.22 0.12,0.44 0.17,0.67 0.04,0.17 0.12,0.46 0.13,0.5 0.15,0.3 0.68,1.21 1.62,1.21 0.45,0 0.54,-0.37 0.54,-0.7 0,-0.61 -0.49,-1.89 -0.65,-2.31 -0.09,-0.23 -0.1,-0.35 -0.1,-0.46 0,-0.47 0.35,-0.81 0.82,-0.81 0.93,0 1.3,1.45 1.3,1.53 0,0.1 -0.09,0.1 -0.12,0.1 -0.1,0 -0.1,-0.03 -0.15,-0.18 -0.19,-0.68 -0.52,-1.24 -1.01,-1.24 -0.17,0 -0.24,0.1 -0.24,0.33 0,0.25 0.09,0.49 0.18,0.71 0.19,0.52 0.61,1.62 0.61,2.18 0,0.67 -0.43,1.07 -1.15,1.07 -0.89,0 -1.38,-0.64 -1.55,-0.87 -0.05,0.56 -0.46,0.87 -0.92,0.87 -0.45,0 -0.64,-0.39 -0.74,-0.57 -0.16,-0.34 -0.3,-0.92 -0.3,-0.96 0,-0.1 0.1,-0.1 0.12,-0.1 0.1,0 0.11,0.01 0.17,0.23 0.17,0.7 0.37,1.18 0.73,1.18 0.19,0 0.3,-0.13 0.3,-0.46 0,-0.21 -0.03,-0.32 -0.16,-0.83 z"
           id="path5631" /><path
           style="fill:#000000;stroke-width:0"
           inkscape:connector-curvature="0"
           d="m 231.43,477.24 0,0.06 0,0.06 0,0.06 -0.01,0.05 -0.01,0.06 0,0.05 -0.01,0.05 -0.01,0.05 -0.01,0.04 -0.02,0.05 -0.01,0.04 -0.01,0.04 -0.02,0.04 -0.02,0.04 -0.02,0.04 -0.02,0.04 -0.02,0.03 -0.02,0.03 -0.02,0.03 -0.03,0.03 -0.02,0.02 -0.03,0.02 -0.03,0.03 -0.03,0.01 -0.03,0.02 -0.03,0.02 -0.03,0.01 -0.03,0.01 -0.04,0.01 -0.03,0 -0.04,0.01 -0.04,0 c -0.34,0 -0.52,-0.27 -0.52,-0.53 0,-0.26 0.17,-0.53 0.52,-0.53 0.16,0 0.28,0.07 0.38,0.14 l 0.02,0.02 c 0.01,0 0.02,-0.01 0.02,-0.15 0,-0.63 -0.28,-1.24 -0.71,-1.7 -0.06,-0.06 -0.07,-0.07 -0.07,-0.11 0,-0.07 0.05,-0.11 0.1,-0.11 0.12,0 0.9,0.78 0.9,1.92 z"
           id="path5633" /><polygon
           style="fill:#000000;stroke-width:0"
           points="236.87,482.78 237.05,482.6 238.2,483.61 239.35,482.6 239.53,482.78 238.2,484.13 "
           id="polygon5635" /><path
           style="fill:#000000;stroke-width:0"
           inkscape:connector-curvature="0"
           d="m 239.44,481.01 -0.03,0 -0.03,0 -0.03,0 -0.03,0 -0.02,0 -0.03,-0.01 -0.02,0 -0.01,0 -0.01,0 -0.02,-0.01 -0.01,0 -0.01,0 -0.02,-0.01 -0.01,0 -0.01,-0.01 -0.02,-0.01 -0.01,0 -0.01,-0.01 -0.02,-0.01 -0.01,0 -0.01,-0.01 -0.02,-0.01 -0.01,-0.01 -0.01,-0.01 -0.01,-0.02 -0.02,-0.01 c -0.16,-0.15 -0.18,-0.32 -0.18,-0.39 0,-0.24 0.18,-0.34 0.37,-0.34 0.29,0 0.56,0.23 0.56,0.63 0,0.49 -0.47,0.86 -1.18,0.86 -1.34,0 -2.66,-1.43 -2.66,-2.83 0,-0.89 0.58,-1.67 1.61,-1.67 1.42,0 2.26,1.05 2.26,1.17 0,0.06 -0.06,0.13 -0.12,0.13 -0.05,0 -0.07,-0.02 -0.13,-0.1 -0.79,-0.99 -1.87,-0.99 -1.99,-0.99 -0.63,0 -0.9,0.49 -0.9,1.09 0,0.4 0.2,1.37 0.54,1.98 0.31,0.57 0.86,1 1.4,1 0.34,0 0.72,-0.13 0.86,-0.4 z"
           id="path5637" /></g>      <path
         style="fill:none;stroke:#000000;stroke-width:2.5754981;stroke-linecap:butt;stroke-linejoin:miter;stroke-miterlimit:4;stroke-opacity:1;stroke-dasharray:none;marker-end:url(#Arrow2Mend-7)"
         d="m 250.85545,374.25177 c 4.68313,-2.70995 72.12032,-9.93646 72.12032,-9.93646"
         id="path6514"
         inkscape:connector-curvature="0" />
      <path
         style="fill:none;stroke:#000000;stroke-width:2.5754981;stroke-linecap:butt;stroke-linejoin:miter;stroke-miterlimit:4;stroke-opacity:1;stroke-dasharray:none;marker-end:url(#Arrow2Mend-7)"
         d="m 409.14551,373.34845 c 0,-3.61326 0,-65.03872 0,-65.03872"
         id="path6704"
         inkscape:connector-curvature="0" />
      <g
         id="g7027"
         transform="matrix(4,0,0,-4,-471.95974,2264.2457)"
         xml:space="preserve"
         stroke="black"
         stroke-linecap="butt"
         stroke-linejoin="miter"
         stroke-miterlimit="10.433"
         stroke-dasharray="none"
         stroke-dashoffset="0"
         stroke-opacity="1"
         fill="none"
         fill-rule="evenodd"
         fill-opacity="1"
         font-style="normal"
         font-variant="normal"
         font-weight="normal"
         font-stretch="normal"
         font-size-adjust="none"
         letter-spacing="normal"
         word-spacing="normal"
         text-anchor="start"
         ns0:text="$\\hat{c}$"
         ns0:preamble="/home/ken/.config/inkscape/textextpreamble.txt"
         style="font-style:normal;font-variant:normal;font-weight:normal;font-stretch:normal;letter-spacing:normal;word-spacing:normal;text-anchor:start;fill:none;stroke:#000000;stroke-linecap:butt;stroke-linejoin:miter;stroke-miterlimit:10.43299961;stroke-opacity:1;stroke-dasharray:none;stroke-dashoffset:0"><polygon
           points="226.14,484.13 224.8,482.78 224.98,482.6 226.14,483.61 227.28,482.6 227.46,482.78 "
           stroke-width="0"
           fill="black"
           id="polygon7029" /><path
           d="M227.37,481.01 L227.34,481.01 L227.31,481.01 L227.28,481.01 L227.26,481.01 L227.23,481.01 L227.2,481 L227.19,481 L227.17,481 L227.16,481 L227.15,480.99 L227.13,480.99 L227.12,480.99 L227.11,480.98 L227.09,480.98 L227.08,480.97 L227.07,480.96 L227.05,480.96 L227.04,480.95 L227.03,480.94 L227.01,480.94 L227,480.93 L226.99,480.92 L226.97,480.91 L226.96,480.9 L226.95,480.88 L226.93,480.87 C226.77,480.72,226.76,480.55,226.76,480.48 C226.76,480.24,226.93,480.14,227.12,480.14 C227.41,480.14,227.68,480.37,227.68,480.77 C227.68,481.26,227.21,481.63,226.51,481.63 C225.16,481.63,223.84,480.2,223.84,478.8 C223.84,477.91,224.42,477.13,225.45,477.13 C226.87,477.13,227.71,478.18,227.71,478.3 C227.71,478.36,227.65,478.43,227.59,478.43 C227.54,478.43,227.52,478.41,227.46,478.33 C226.68,477.34,225.59,477.34,225.47,477.34 C224.85,477.34,224.58,477.83,224.58,478.43 C224.58,478.83,224.77,479.8,225.11,480.41 C225.42,480.98,225.97,481.41,226.52,481.41 C226.85,481.41,227.23,481.28,227.37,481.01 Z "
           stroke-width="0"
           fill="black"
           id="path7031" /></g>      <g
         style="font-style:normal;font-variant:normal;font-weight:normal;font-stretch:normal;letter-spacing:normal;word-spacing:normal;text-anchor:start;fill:none;stroke:#000000;stroke-linecap:butt;stroke-linejoin:miter;stroke-miterlimit:10.43299961;stroke-opacity:1;stroke-dasharray:none;stroke-dashoffset:0"
         ns0:preamble="/home/ken/.config/inkscape/textextpreamble.txt"
         ns0:text="$\\hat{n}$"
         word-spacing="normal"
         letter-spacing="normal"
         font-size-adjust="none"
         font-stretch="normal"
         font-weight="normal"
         font-variant="normal"
         font-style="normal"
         stroke-miterlimit="10.433"
         xml:space="preserve"
         transform="matrix(4,0,0,-4,-619.94689,2314.8314)"
         id="g7253"><polygon
           id="polygon7255"
           points="225.09,482.78 225.26,482.6 226.42,483.61 227.56,482.6 227.74,482.78 226.42,484.13 "
           style="fill:#000000;stroke-width:0" /><path
           id="path7257"
           d="m 224.31,477.82 0,-0.01 -0.01,-0.02 0,-0.01 0,-0.02 -0.01,-0.03 -0.01,-0.03 -0.01,-0.03 0,-0.04 -0.01,-0.03 -0.01,-0.03 0,-0.01 -0.01,-0.02 0,-0.01 0,-0.02 0,-0.01 -0.01,-0.01 0,-0.02 0,-0.01 0,-0.01 -0.01,-0.01 0,-0.01 0,-0.01 0,-0.01 0,0 0,-0.01 0,-0.01 c 0,-0.18 0.14,-0.26 0.29,-0.26 0.12,0 0.29,0.07 0.37,0.27 0,0.02 0.12,0.49 0.18,0.74 l 0.22,0.89 c 0.06,0.22 0.12,0.44 0.17,0.67 0.04,0.17 0.12,0.46 0.13,0.5 0.15,0.3 0.68,1.21 1.62,1.21 0.45,0 0.54,-0.37 0.54,-0.7 0,-0.61 -0.49,-1.89 -0.65,-2.31 -0.09,-0.23 -0.1,-0.35 -0.1,-0.46 0,-0.47 0.35,-0.81 0.82,-0.81 0.93,0 1.3,1.45 1.3,1.53 0,0.1 -0.09,0.1 -0.12,0.1 -0.1,0 -0.1,-0.03 -0.15,-0.18 -0.19,-0.68 -0.52,-1.24 -1.01,-1.24 -0.17,0 -0.24,0.1 -0.24,0.33 0,0.25 0.09,0.49 0.18,0.71 0.19,0.52 0.61,1.62 0.61,2.18 0,0.67 -0.43,1.07 -1.15,1.07 -0.89,0 -1.38,-0.64 -1.55,-0.87 -0.05,0.56 -0.46,0.87 -0.92,0.87 -0.45,0 -0.64,-0.39 -0.74,-0.57 -0.16,-0.34 -0.3,-0.92 -0.3,-0.96 0,-0.1 0.1,-0.1 0.12,-0.1 0.1,0 0.11,0.01 0.17,0.23 0.17,0.7 0.37,1.18 0.73,1.18 0.19,0 0.3,-0.13 0.3,-0.46 0,-0.21 -0.03,-0.32 -0.16,-0.83 z"
           inkscape:connector-curvature="0"
           style="fill:#000000;stroke-width:0" /></g>    </g>
    <g
       style="font-style:normal;font-variant:normal;font-weight:normal;font-stretch:normal;letter-spacing:normal;word-spacing:normal;text-anchor:start;fill:none;stroke:#000000;stroke-linecap:butt;stroke-linejoin:miter;stroke-miterlimit:10.43299961;stroke-opacity:1;stroke-dasharray:none;stroke-dashoffset:0"
       ns0:preamble="/home/ken/.config/inkscape/textextpreamble.txt"
       ns0:text="Twist Boundary: $\\hat{n}\\parallel \\hat{c}$"
       text-anchor="start"
       word-spacing="normal"
       letter-spacing="normal"
       font-size-adjust="none"
       font-stretch="normal"
       font-weight="normal"
       font-variant="normal"
       font-style="normal"
       fill-opacity="1"
       fill-rule="evenodd"
       fill="none"
       stroke-opacity="1"
       stroke-dashoffset="0"
       stroke-dasharray="none"
       stroke-miterlimit="10.433"
       stroke-linejoin="miter"
       stroke-linecap="butt"
       stroke="black"
       xml:space="preserve"
       transform="matrix(4,0,0,-4,-502.61678,2066.7623)"
       id="g5823"><path
         id="path5825"
         fill="black"
         stroke-width="0"
         d="M230.06,483.96 H223.98 L223.79,481.73 H224.04 C224.18,483.32,224.33,483.65,225.83,483.65 C226.01,483.65,226.27,483.65,226.37,483.63 C226.58,483.59,226.58,483.48,226.58,483.26 V478.02 C226.58,477.68,226.58,477.54,225.53,477.54 H225.13 V477.23 C225.54,477.27,226.56,477.27,227.01,477.27 C227.47,477.27,228.5,477.27,228.9,477.23 V477.54 H228.51 C227.46,477.54,227.46,477.68,227.46,478.02 V483.26 C227.46,483.45,227.46,483.59,227.64,483.63 C227.75,483.65,228.02,483.65,228.21,483.65 C229.71,483.65,229.86,483.32,230,481.73 H230.25 Z " /><path
         id="path5827"
         fill="black"
         stroke-width="0"
         d="M236.79,480.57 L236.8,480.62 L236.82,480.66 L236.84,480.7 L236.86,480.74 L236.88,480.78 L236.9,480.82 L236.92,480.85 L236.94,480.88 L236.97,480.91 L236.99,480.94 L237.01,480.96 L237.04,480.99 L237.06,481.01 L237.09,481.03 L237.11,481.05 L237.14,481.07 L237.17,481.09 L237.19,481.11 L237.22,481.12 L237.25,481.13 L237.28,481.15 L237.31,481.16 L237.34,481.17 L237.37,481.18 L237.4,481.18 L237.43,481.19 L237.46,481.19 L237.49,481.2 L237.52,481.2 L237.56,481.21 L237.59,481.21 L237.62,481.21 V481.52 C237.4,481.5,237.11,481.49,236.9,481.49 C236.61,481.49,236.16,481.51,235.97,481.52 V481.21 C236.33,481.2,236.55,481.02,236.55,480.73 C236.55,480.67,236.55,480.65,236.5,480.52 L235.59,477.98 L234.61,480.75 C234.57,480.87,234.56,480.89,234.56,480.94 C234.56,481.21,234.95,481.21,235.14,481.21 V481.52 C234.85,481.51,234.35,481.49,234.11,481.49 C233.81,481.49,233.52,481.5,233.22,481.52 V481.21 C233.59,481.21,233.75,481.19,233.85,481.06 C233.9,481,234.01,480.7,234.08,480.51 L233.22,478.11 L232.28,480.76 C232.23,480.88,232.23,480.9,232.23,480.94 C232.23,481.21,232.62,481.21,232.82,481.21 V481.52 C232.52,481.51,231.96,481.49,231.73,481.49 C231.69,481.49,231.16,481.5,230.81,481.52 V481.21 C231.3,481.21,231.42,481.18,231.54,480.86 L232.8,477.34 C232.85,477.2,232.88,477.13,233.01,477.13 C233.13,477.13,233.15,477.18,233.2,477.32 L234.21,480.14 L235.22,477.31 C235.26,477.2,235.29,477.13,235.42,477.13 C235.55,477.13,235.58,477.21,235.62,477.31 Z " /><path
         id="path5829"
         fill="black"
         stroke-width="0"
         d="M239.58,481.63 L238.19,481.52 V481.21 C238.84,481.21,238.93,481.15,238.93,480.66 V477.99 C238.93,477.54,238.82,477.54,238.15,477.54 V477.23 C238.47,477.24,239.01,477.27,239.24,477.27 C239.59,477.27,239.94,477.24,240.28,477.23 V477.54 C239.62,477.54,239.58,477.59,239.58,477.98 Z " /><path
         id="path5831"
         fill="black"
         stroke-width="0"
         d="M239.62,483.35 L239.62,483.38 L239.62,483.41 L239.62,483.44 L239.61,483.47 L239.61,483.49 L239.6,483.52 L239.59,483.55 L239.58,483.57 L239.57,483.59 L239.56,483.62 L239.54,483.64 L239.53,483.66 L239.51,483.68 L239.5,483.7 L239.48,483.72 L239.46,483.74 L239.45,483.75 L239.43,483.77 L239.41,483.78 L239.38,483.8 L239.36,483.81 L239.34,483.82 L239.32,483.83 L239.3,483.84 L239.27,483.85 L239.25,483.86 L239.22,483.87 L239.2,483.87 L239.17,483.88 L239.15,483.88 L239.12,483.88 L239.1,483.88 C238.79,483.88,238.57,483.61,238.57,483.35 C238.57,483.09,238.79,482.83,239.1,482.83 C239.37,482.83,239.62,483.04,239.62,483.35 Z " /><path
         id="path5833"
         fill="black"
         stroke-width="0"
         d="M242.66,479.16 L242.68,479.16 L242.71,479.15 L242.74,479.15 L242.77,479.14 L242.8,479.13 L242.84,479.12 L242.87,479.11 L242.91,479.1 L242.95,479.09 L243,479.08 L243.04,479.06 L243.08,479.04 L243.13,479.03 L243.17,479 L243.21,478.98 L243.26,478.96 L243.3,478.93 L243.34,478.9 L243.38,478.87 L243.42,478.84 L243.46,478.81 L243.5,478.77 L243.53,478.73 L243.56,478.69 L243.59,478.64 L243.6,478.62 L243.62,478.59 L243.63,478.57 L243.64,478.54 L243.65,478.52 L243.66,478.49 L243.67,478.46 L243.67,478.44 L243.68,478.41 L243.68,478.38 L243.69,478.35 L243.69,478.31 L243.69,478.28 L243.69,478.25 C243.69,477.74,243.35,477.34,242.57,477.34 C241.73,477.34,241.38,477.91,241.19,478.76 C241.16,478.88,241.15,478.92,241.05,478.92 C240.92,478.92,240.92,478.85,240.92,478.67 V477.36 C240.92,477.2,240.92,477.13,241.03,477.13 C241.08,477.13,241.09,477.14,241.28,477.32 C241.3,477.34,241.3,477.36,241.48,477.55 C241.91,477.14,242.36,477.13,242.57,477.13 C243.71,477.13,244.17,477.79,244.17,478.51 C244.17,479.03,243.87,479.33,243.75,479.45 C243.43,479.77,243.04,479.85,242.62,479.93 C242.06,480.04,241.4,480.17,241.4,480.74 C241.4,481.09,241.65,481.5,242.51,481.5 C243.6,481.5,243.65,480.6,243.67,480.3 C243.68,480.2,243.77,480.2,243.79,480.2 C243.92,480.2,243.92,480.26,243.92,480.44 V481.45 C243.92,481.62,243.92,481.68,243.81,481.68 C243.76,481.68,243.74,481.68,243.61,481.57 C243.58,481.53,243.49,481.44,243.45,481.41 C243.07,481.68,242.66,481.68,242.51,481.68 C241.3,481.68,240.92,481.02,240.92,480.46 C240.92,480.12,241.08,479.84,241.35,479.62 C241.66,479.36,241.94,479.3,242.66,479.16 Z " /><path
         id="path5835"
         fill="black"
         stroke-width="0"
         d="M246.24,481.21 H247.66 V481.52 H246.24 V483.34 H245.99 C245.98,482.53,245.68,481.47,244.71,481.43 V481.21 H245.55 V478.47 C245.55,477.24,246.48,477.13,246.84,477.13 C247.54,477.13,247.82,477.83,247.82,478.47 V479.03 H247.57 V478.49 C247.57,477.75,247.27,477.37,246.91,477.37 C246.24,477.37,246.24,478.28,246.24,478.45 Z " /><path
         id="path5837"
         fill="black"
         stroke-width="0"
         d="M256.27,480.78 L256.36,480.8 L256.44,480.82 L256.53,480.85 L256.62,480.87 L256.7,480.9 L256.78,480.93 L256.86,480.97 L256.93,481 L257.01,481.04 L257.08,481.08 L257.15,481.12 L257.21,481.16 L257.28,481.21 L257.34,481.26 L257.4,481.31 L257.46,481.36 L257.51,481.41 L257.56,481.46 L257.61,481.52 L257.65,481.57 L257.69,481.63 L257.73,481.69 L257.77,481.75 L257.8,481.81 L257.82,481.88 L257.85,481.94 L257.87,482.01 L257.89,482.07 L257.9,482.14 L257.91,482.2 L257.92,482.27 L257.92,482.34 C257.92,483.2,257,484.02,255.71,484.02 L255.64,483.71 C256.61,483.71,256.95,482.87,256.95,482.34 C256.95,481.7,256.47,480.87,255.36,480.87 H253.92 V480.65 H255.79 C256.77,480.65,257.19,479.73,257.19,479.06 C257.19,478.36,256.67,477.54,255.65,477.54 H255.65 H254.41 C253.94,477.54,253.92,477.61,253.92,477.94 V480.65 V480.87 V483.32 C253.92,483.64,253.94,483.71,254.41,483.71 H255.64 L255.71,484.02 H252.07 V483.71 H252.31 C253.07,483.71,253.09,483.6,253.09,483.24 V478.01 C253.09,477.65,253.07,477.54,252.31,477.54 H252.07 V477.23 H255.97 C257.29,477.23,258.19,478.12,258.19,479.05 C258.19,479.92,257.37,480.66,256.27,480.78 Z " /><path
         id="path5839"
         fill="black"
         stroke-width="0"
         d="M263.45,479.36 L263.45,479.48 L263.44,479.6 L263.43,479.71 L263.41,479.83 L263.38,479.94 L263.35,480.05 L263.32,480.16 L263.28,480.26 L263.23,480.36 L263.19,480.46 L263.13,480.56 L263.07,480.65 L263.01,480.75 L262.95,480.83 L262.88,480.92 L262.81,481 L262.73,481.08 L262.65,481.15 L262.57,481.22 L262.48,481.28 L262.39,481.35 L262.3,481.4 L262.2,481.45 L262.11,481.5 L262.01,481.54 L261.9,481.58 L261.8,481.61 L261.69,481.64 L261.59,481.66 L261.48,481.67 L261.37,481.68 L261.26,481.68 L261.24,481.47 C261.68,481.47,262.11,481.25,262.37,480.82 C262.63,480.39,262.63,479.82,262.63,479.44 C262.63,479.08,262.63,478.55,262.41,478.11 C262.19,477.66,261.75,477.37,261.26,477.37 H261.26 C260.83,477.37,260.39,477.58,260.12,478.04 C259.87,478.48,259.87,479.08,259.87,479.44 C259.87,479.83,259.87,480.36,260.11,480.8 C260.38,481.26,260.85,481.47,261.24,481.47 L261.26,481.68 C260.01,481.68,259.05,480.6,259.05,479.36 C259.05,478.08,260.08,477.13,261.24,477.13 C262.45,477.13,263.45,478.1,263.45,479.36 Z " /><path
         id="path5841"
         fill="black"
         stroke-width="0"
         d="M267.64,478.02 V477.13 L269.07,477.23 V477.54 C268.38,477.54,268.3,477.61,268.3,478.1 V481.63 L266.83,481.52 V481.21 C267.53,481.21,267.61,481.14,267.61,480.65 V478.88 C267.61,478.02,267.13,477.34,266.4,477.34 C265.57,477.34,265.53,477.81,265.53,478.33 V481.63 L264.07,481.52 V481.21 C264.84,481.21,264.84,481.18,264.84,480.3 V478.8 C264.84,478.03,264.84,477.13,266.36,477.13 C266.91,477.13,267.35,477.4,267.64,478.02 Z " /><path
         id="path5843"
         fill="black"
         stroke-width="0"
         d="M270.38,480.65 V477.99 C270.38,477.54,270.27,477.54,269.6,477.54 V477.23 C269.95,477.24,270.46,477.27,270.73,477.27 C270.98,477.27,271.5,477.24,271.84,477.23 V477.54 C271.17,477.54,271.07,477.54,271.07,477.99 V479.82 C271.07,480.85,271.77,481.41,272.41,481.41 C273.04,481.41,273.14,480.87,273.14,480.3 V477.99 C273.14,477.54,273.04,477.54,272.37,477.54 V477.23 C272.72,477.24,273.22,477.27,273.49,477.27 C273.75,477.27,274.27,477.24,274.61,477.23 V477.54 C274.09,477.54,273.84,477.54,273.83,477.84 V479.74 C273.83,480.59,273.83,480.9,273.52,481.26 C273.38,481.43,273.05,481.63,272.48,481.63 C271.75,481.63,271.28,481.2,271.01,480.58 V481.63 L269.6,481.52 V481.21 C270.3,481.21,270.38,481.14,270.38,480.65 Z " /><path
         id="path5845"
         fill="black"
         stroke-width="0"
         d="M278.6,477.78 V477.13 L280.06,477.23 V477.54 C279.37,477.54,279.29,477.61,279.29,478.1 V484.13 L277.85,484.02 V483.71 C278.55,483.71,278.63,483.64,278.63,483.16 V481.01 C278.34,481.37,277.91,481.63,277.38,481.63 L277.42,481.41 C277.76,481.41,278.18,481.26,278.49,480.81 C278.6,480.64,278.6,480.62,278.6,480.44 H278.6 V478.41 C278.6,478.23,278.6,478.21,278.49,478.04 C278.19,477.56,277.74,477.34,277.32,477.34 C276.87,477.34,276.51,477.6,276.27,477.98 C276.01,478.39,275.98,478.95,275.98,479.36 C275.98,479.73,276,480.32,276.29,480.77 C276.5,481.08,276.88,481.41,277.42,481.41 L277.38,481.63 C276.2,481.63,275.16,480.65,275.16,479.37 C275.16,478.11,276.13,477.13,277.27,477.13 C277.9,477.13,278.35,477.46,278.6,477.78 Z " /><path
         id="path5847"
         fill="black"
         stroke-width="0"
         d="M283.67,477.99 L283.67,477.95 L283.68,477.92 L283.68,477.88 L283.69,477.84 L283.7,477.8 L283.71,477.77 L283.73,477.73 L283.74,477.7 L283.75,477.66 L283.77,477.63 L283.79,477.59 L283.81,477.56 L283.83,477.53 L283.85,477.49 L283.87,477.46 L283.89,477.43 L283.92,477.41 L283.95,477.38 L283.97,477.35 L284,477.33 L284.03,477.31 L284.06,477.28 L284.1,477.26 L284.13,477.25 L284.17,477.23 L284.2,477.22 L284.24,477.2 L284.28,477.19 L284.32,477.19 L284.36,477.18 L284.4,477.18 L284.44,477.17 C284.65,477.17,285.26,477.31,285.26,478.12 V478.67 H285.01 V478.12 C285.01,477.54,284.76,477.48,284.65,477.48 C284.32,477.48,284.28,477.93,284.28,477.98 V479.97 C284.28,480.38,284.28,480.77,283.93,481.14 C283.54,481.53,283.04,481.68,282.56,481.68 C281.75,481.68,281.06,481.22,281.06,480.56 C281.06,480.27,281.26,480.1,281.52,480.1 C281.8,480.1,281.98,480.3,281.98,480.55 C281.98,480.67,281.93,481,281.47,481.01 C281.74,481.36,282.23,481.47,282.54,481.47 C283.03,481.47,283.6,481.08,283.6,480.2 V479.83 V479.62 V478.63 C283.6,477.68,282.88,477.34,282.43,477.34 C281.95,477.34,281.54,477.69,281.54,478.19 C281.54,478.73,281.96,479.56,283.6,479.62 H283.6 V479.83 C283.09,479.8,282.39,479.77,281.77,479.47 C281.02,479.13,280.77,478.62,280.77,478.18 C280.77,477.37,281.74,477.13,282.36,477.13 C283.02,477.13,283.48,477.52,283.67,477.99 Z " /><path
         id="path5849"
         fill="black"
         stroke-width="0"
         d="M287,480.53 V481.63 L285.61,481.52 V481.21 C286.31,481.21,286.39,481.14,286.39,480.65 V477.99 C286.39,477.54,286.28,477.54,285.61,477.54 V477.23 C286,477.24,286.47,477.27,286.75,477.27 C287.15,477.27,287.61,477.27,288.01,477.23 V477.54 H287.8 C287.07,477.54,287.05,477.65,287.05,478.01 V479.54 C287.05,480.52,287.46,481.41,288.22,481.41 C288.29,481.41,288.31,481.41,288.33,481.4 C288.3,481.39,288.1,481.27,288.1,481.01 C288.1,480.73,288.31,480.58,288.53,480.58 C288.71,480.58,288.96,480.7,288.96,481.02 C288.96,481.34,288.65,481.63,288.22,481.63 C287.49,481.63,287.14,480.96,287,480.53 Z " /><path
         id="path5851"
         fill="black"
         stroke-width="0"
         d="M293.37,480.57 L293.38,480.6 L293.39,480.63 L293.4,480.66 L293.42,480.68 L293.43,480.71 L293.45,480.73 L293.46,480.76 L293.47,480.78 L293.5,480.82 L293.53,480.86 L293.57,480.9 L293.6,480.94 L293.63,480.97 L293.66,481 L293.7,481.02 L293.73,481.05 L293.77,481.07 L293.8,481.09 L293.83,481.11 L293.87,481.13 L293.9,481.14 L293.93,481.15 L293.97,481.16 L294,481.17 L294.03,481.18 L294.06,481.19 L294.09,481.19 L294.12,481.2 L294.14,481.2 L294.17,481.2 L294.19,481.21 L294.22,481.21 L294.24,481.21 L294.26,481.21 L294.28,481.21 L294.29,481.21 V481.52 C294.06,481.5,293.77,481.49,293.55,481.49 C293.37,481.49,292.9,481.51,292.68,481.52 V481.21 C292.99,481.2,293.15,481.03,293.15,480.78 C293.15,480.68,293.14,480.66,293.09,480.54 L292.08,478.1 L290.98,480.77 C290.94,480.87,290.92,480.91,290.92,480.95 C290.92,481.21,291.29,481.21,291.48,481.21 V481.52 C291.22,481.51,290.56,481.49,290.39,481.49 C290.12,481.49,289.73,481.5,289.43,481.52 V481.21 C289.9,481.21,290.09,481.21,290.23,480.86 L291.73,477.23 C291.67,477.11,291.54,476.78,291.48,476.65 C291.26,476.1,290.98,475.42,290.34,475.42 C290.29,475.42,290.06,475.42,289.88,475.6 C290.18,475.64,290.26,475.85,290.26,476.01 C290.26,476.27,290.07,476.43,289.85,476.43 C289.65,476.43,289.43,476.3,289.43,476 C289.43,475.56,289.85,475.2,290.34,475.2 C290.97,475.2,291.38,475.77,291.62,476.33 Z " /><path
         id="path5853"
         fill="black"
         stroke-width="0"
         d="M296.41,480.99 L296.41,481.02 L296.4,481.04 L296.4,481.07 L296.4,481.1 L296.39,481.12 L296.38,481.15 L296.37,481.17 L296.36,481.19 L296.35,481.22 L296.34,481.24 L296.33,481.26 L296.32,481.28 L296.3,481.3 L296.28,481.32 L296.27,481.34 L296.25,481.36 L296.23,481.38 L296.21,481.4 L296.19,481.41 L296.17,481.43 L296.15,481.44 L296.13,481.45 L296.11,481.46 L296.08,481.47 L296.06,481.48 L296.03,481.49 L296.01,481.5 L295.98,481.51 L295.96,481.51 L295.93,481.51 L295.91,481.52 L295.88,481.52 C295.59,481.52,295.35,481.28,295.35,480.99 C295.35,480.7,295.59,480.46,295.88,480.46 C296.17,480.46,296.41,480.7,296.41,480.99 Z " /><path
         id="path5855"
         fill="black"
         stroke-width="0"
         d="M296.41,477.76 L296.41,477.79 L296.4,477.82 L296.4,477.84 L296.4,477.87 L296.39,477.89 L296.38,477.92 L296.37,477.94 L296.36,477.97 L296.35,477.99 L296.34,478.01 L296.33,478.03 L296.32,478.05 L296.3,478.08 L296.28,478.1 L296.27,478.11 L296.25,478.13 L296.23,478.15 L296.21,478.17 L296.19,478.18 L296.17,478.2 L296.15,478.21 L296.13,478.22 L296.11,478.24 L296.08,478.25 L296.06,478.26 L296.03,478.26 L296.01,478.27 L295.98,478.28 L295.96,478.28 L295.93,478.29 L295.91,478.29 L295.88,478.29 C295.59,478.29,295.35,478.05,295.35,477.76 C295.35,477.47,295.59,477.23,295.88,477.23 C296.17,477.23,296.41,477.47,296.41,477.76 Z " /><polygon
         id="polygon5857"
         fill="black"
         stroke-width="0"
         points="304.68,484.13 303.35,482.78 303.53,482.6 304.68,483.61 305.83,482.6 306.01,482.78 " /><path
         id="path5859"
         fill="black"
         stroke-width="0"
         d="M302.57,477.82 L302.57,477.81 L302.56,477.79 L302.56,477.78 L302.56,477.76 L302.55,477.73 L302.54,477.7 L302.54,477.67 L302.53,477.63 L302.52,477.6 L302.51,477.57 L302.51,477.56 L302.51,477.54 L302.5,477.53 L302.5,477.51 L302.5,477.5 L302.49,477.49 L302.49,477.47 L302.49,477.46 L302.49,477.45 L302.49,477.44 L302.48,477.43 L302.48,477.42 L302.48,477.41 L302.48,477.41 L302.48,477.4 L302.48,477.39 C302.48,477.21,302.62,477.13,302.77,477.13 C302.89,477.13,303.07,477.2,303.14,477.4 C303.15,477.42,303.27,477.89,303.33,478.14 L303.54,479.03 C303.6,479.25,303.66,479.47,303.71,479.7 C303.75,479.87,303.83,480.16,303.84,480.2 C303.99,480.5,304.52,481.41,305.46,481.41 C305.91,481.41,306,481.04,306,480.71 C306,480.1,305.52,478.82,305.36,478.4 C305.27,478.17,305.26,478.05,305.26,477.94 C305.26,477.47,305.6,477.13,306.07,477.13 C307.01,477.13,307.38,478.58,307.38,478.66 C307.38,478.76,307.29,478.76,307.26,478.76 C307.16,478.76,307.16,478.73,307.11,478.58 C306.91,477.9,306.58,477.34,306.09,477.34 C305.92,477.34,305.85,477.44,305.85,477.67 C305.85,477.92,305.94,478.16,306.03,478.38 C306.22,478.9,306.64,480,306.64,480.56 C306.64,481.23,306.21,481.63,305.49,481.63 C304.6,481.63,304.11,480.99,303.94,480.76 C303.89,481.32,303.48,481.63,303.03,481.63 C302.57,481.63,302.38,481.24,302.28,481.06 C302.12,480.72,301.98,480.14,301.98,480.1 C301.98,480,302.08,480,302.1,480 C302.2,480,302.21,480.01,302.27,480.23 C302.44,480.93,302.64,481.41,303,481.41 C303.2,481.41,303.31,481.28,303.31,480.95 C303.31,480.74,303.28,480.63,303.15,480.12 Z " /><path
         id="path5861"
         fill="black"
         stroke-width="0"
         d="M312.15,484.35 L312.15,484.38 L312.15,484.41 L312.15,484.44 L312.15,484.45 L312.15,484.47 L312.15,484.48 L312.15,484.5 L312.14,484.51 L312.14,484.52 L312.14,484.54 L312.14,484.55 L312.13,484.56 L312.13,484.58 L312.12,484.59 L312.12,484.6 L312.11,484.61 L312.1,484.62 L312.1,484.63 L312.09,484.64 L312.08,484.65 L312.07,484.65 L312.06,484.66 L312.06,484.66 L312.05,484.66 L312.05,484.67 L312.04,484.67 L312.03,484.67 L312.03,484.67 L312.02,484.68 L312.01,484.68 L312,484.68 L312,484.68 L311.99,484.68 L311.98,484.68 L311.97,484.68 L311.96,484.68 L311.95,484.68 C311.76,484.68,311.76,484.47,311.76,484.32 V475.12 C311.76,474.96,311.76,474.75,311.95,474.75 C312.15,474.75,312.15,474.93,312.15,475.09 Z " /><path
         id="path5863"
         fill="black"
         stroke-width="0"
         d="M314.09,484.32 L314.09,484.35 L314.09,484.38 L314.09,484.41 L314.09,484.44 L314.09,484.46 L314.09,484.47 L314.08,484.49 L314.08,484.5 L314.08,484.52 L314.08,484.53 L314.07,484.55 L314.07,484.56 L314.06,484.57 L314.06,484.59 L314.05,484.6 L314.04,484.61 L314.04,484.62 L314.03,484.63 L314.02,484.64 L314.01,484.65 L314,484.65 L314,484.66 L313.99,484.66 L313.99,484.66 L313.98,484.67 L313.97,484.67 L313.97,484.67 L313.96,484.68 L313.95,484.68 L313.94,484.68 L313.94,484.68 L313.93,484.68 L313.92,484.68 L313.91,484.68 L313.9,484.68 L313.89,484.68 C313.7,484.68,313.7,484.51,313.7,484.35 V475.09 C313.7,474.93,313.7,474.75,313.89,474.75 C314.09,474.75,314.09,474.97,314.09,475.12 Z " /><polygon
         id="polygon5865"
         fill="black"
         stroke-width="0"
         points="320.9,484.13 319.56,482.78 319.74,482.6 320.9,483.61 322.04,482.6 322.22,482.78 " /><path
         id="path5867"
         fill="black"
         stroke-width="0"
         d="M322.13,481.01 L322.1,481.01 L322.07,481.01 L322.04,481.01 L322.01,481.01 L321.99,481.01 L321.96,481 L321.94,481 L321.93,481 L321.92,481 L321.9,480.99 L321.89,480.99 L321.88,480.99 L321.86,480.98 L321.85,480.98 L321.84,480.97 L321.82,480.96 L321.81,480.96 L321.8,480.95 L321.78,480.94 L321.77,480.94 L321.76,480.93 L321.74,480.92 L321.73,480.91 L321.72,480.9 L321.71,480.88 L321.69,480.87 C321.53,480.72,321.51,480.55,321.51,480.48 C321.51,480.24,321.69,480.14,321.88,480.14 C322.17,480.14,322.44,480.37,322.44,480.77 C322.44,481.26,321.97,481.63,321.26,481.63 C319.92,481.63,318.6,480.2,318.6,478.8 C318.6,477.91,319.17,477.13,320.21,477.13 C321.63,477.13,322.47,478.18,322.47,478.3 C322.47,478.36,322.41,478.43,322.35,478.43 C322.3,478.43,322.28,478.41,322.22,478.33 C321.43,477.34,320.35,477.34,320.23,477.34 C319.6,477.34,319.33,477.83,319.33,478.43 C319.33,478.83,319.53,479.8,319.87,480.41 C320.18,480.98,320.73,481.41,321.27,481.41 C321.61,481.41,321.99,481.28,322.13,481.01 Z " /></g>    <g
       style="font-style:normal;font-variant:normal;font-weight:normal;font-stretch:normal;letter-spacing:normal;word-spacing:normal;text-anchor:start;fill:none;stroke:#000000;stroke-linecap:butt;stroke-linejoin:miter;stroke-miterlimit:10.43299961;stroke-opacity:1;stroke-dasharray:none;stroke-dashoffset:0"
       ns0:preamble="/home/ken/.config/inkscape/textextpreamble.txt"
       ns0:text="Tilt Boundary: $\\hat{n}\\perp \\hat{c}$"
       text-anchor="start"
       word-spacing="normal"
       letter-spacing="normal"
       font-size-adjust="none"
       font-stretch="normal"
       font-weight="normal"
       font-variant="normal"
       font-style="normal"
       fill-opacity="1"
       fill-rule="evenodd"
       fill="none"
       stroke-opacity="1"
       stroke-dashoffset="0"
       stroke-dasharray="none"
       stroke-miterlimit="10.433"
       stroke-linejoin="miter"
       stroke-linecap="butt"
       stroke="black"
       xml:space="preserve"
       transform="matrix(4,0,0,-4,-1131.0163,2065.7937)"
       id="g6349"><path
         id="path6351"
         fill="black"
         stroke-width="0"
         d="M230.06,483.96 H223.98 L223.79,481.73 H224.04 C224.18,483.32,224.33,483.65,225.83,483.65 C226.01,483.65,226.27,483.65,226.37,483.63 C226.58,483.59,226.58,483.48,226.58,483.26 V478.02 C226.58,477.68,226.58,477.54,225.53,477.54 H225.13 V477.23 C225.54,477.27,226.56,477.27,227.01,477.27 C227.47,477.27,228.5,477.27,228.9,477.23 V477.54 H228.51 C227.46,477.54,227.46,477.68,227.46,478.02 V483.26 C227.46,483.45,227.46,483.59,227.64,483.63 C227.75,483.65,228.02,483.65,228.21,483.65 C229.71,483.65,229.86,483.32,230,481.73 H230.25 Z " /><path
         id="path6353"
         fill="black"
         stroke-width="0"
         d="M232.39,481.63 L230.99,481.52 V481.21 C231.64,481.21,231.73,481.15,231.73,480.66 V477.99 C231.73,477.54,231.62,477.54,230.96,477.54 V477.23 C231.27,477.24,231.81,477.27,232.05,477.27 C232.4,477.27,232.75,477.24,233.08,477.23 V477.54 C232.43,477.54,232.39,477.59,232.39,477.98 Z " /><path
         id="path6355"
         fill="black"
         stroke-width="0"
         d="M232.43,483.35 L232.43,483.38 L232.43,483.41 L232.42,483.44 L232.42,483.47 L232.41,483.49 L232.4,483.52 L232.39,483.55 L232.38,483.57 L232.37,483.59 L232.36,483.62 L232.35,483.64 L232.33,483.66 L232.32,483.68 L232.3,483.7 L232.29,483.72 L232.27,483.74 L232.25,483.75 L232.23,483.77 L232.21,483.78 L232.19,483.8 L232.17,483.81 L232.15,483.82 L232.12,483.83 L232.1,483.84 L232.08,483.85 L232.05,483.86 L232.03,483.87 L232,483.87 L231.98,483.88 L231.95,483.88 L231.93,483.88 L231.9,483.88 C231.59,483.88,231.37,483.61,231.37,483.35 C231.37,483.09,231.59,482.83,231.9,482.83 C232.18,482.83,232.43,483.04,232.43,483.35 Z " /><path
         id="path6357"
         fill="black"
         stroke-width="0"
         d="M235.16,484.13 L233.72,484.02 V483.71 C234.42,483.71,234.5,483.64,234.5,483.16 V477.99 C234.5,477.54,234.39,477.54,233.72,477.54 V477.23 C234.05,477.24,234.58,477.27,234.83,477.27 C235.08,477.27,235.56,477.24,235.93,477.23 V477.54 C235.26,477.54,235.16,477.54,235.16,477.99 Z " /><path
         id="path6359"
         fill="black"
         stroke-width="0"
         d="M237.88,481.21 H239.31 V481.52 H237.88 V483.34 H237.63 C237.62,482.53,237.33,481.47,236.35,481.43 V481.21 H237.2 V478.47 C237.2,477.24,238.12,477.13,238.48,477.13 C239.19,477.13,239.46,477.83,239.46,478.47 V479.03 H239.22 V478.49 C239.22,477.75,238.92,477.37,238.55,477.37 C237.88,477.37,237.88,478.28,237.88,478.45 Z " /><path
         id="path6361"
         fill="black"
         stroke-width="0"
         d="M247.91,480.78 L248,480.8 L248.09,480.82 L248.17,480.85 L248.26,480.87 L248.34,480.9 L248.42,480.93 L248.5,480.97 L248.58,481 L248.65,481.04 L248.72,481.08 L248.79,481.12 L248.86,481.16 L248.92,481.21 L248.98,481.26 L249.04,481.31 L249.1,481.36 L249.15,481.41 L249.2,481.46 L249.25,481.52 L249.29,481.57 L249.34,481.63 L249.37,481.69 L249.41,481.75 L249.44,481.81 L249.47,481.88 L249.49,481.94 L249.51,482.01 L249.53,482.07 L249.55,482.14 L249.56,482.2 L249.56,482.27 L249.56,482.34 C249.56,483.2,248.65,484.02,247.35,484.02 L247.28,483.71 C248.25,483.71,248.6,482.87,248.6,482.34 C248.6,481.7,248.11,480.87,247.01,480.87 H245.56 V480.65 H247.43 C248.42,480.65,248.84,479.73,248.84,479.06 C248.84,478.36,248.32,477.54,247.29,477.54 H247.29 H246.05 C245.58,477.54,245.56,477.61,245.56,477.94 V480.65 V480.87 V483.32 C245.56,483.64,245.58,483.71,246.05,483.71 H247.28 L247.35,484.02 H243.71 V483.71 H243.95 C244.72,483.71,244.74,483.6,244.74,483.24 V478.01 C244.74,477.65,244.72,477.54,243.95,477.54 H243.71 V477.23 H247.61 C248.94,477.23,249.83,478.12,249.83,479.05 C249.83,479.92,249.01,480.66,247.91,480.78 Z " /><path
         id="path6363"
         fill="black"
         stroke-width="0"
         d="M255.1,479.36 L255.09,479.48 L255.09,479.6 L255.07,479.71 L255.05,479.83 L255.03,479.94 L255,480.05 L254.96,480.16 L254.92,480.26 L254.88,480.36 L254.83,480.46 L254.78,480.56 L254.72,480.65 L254.66,480.75 L254.59,480.83 L254.52,480.92 L254.45,481 L254.37,481.08 L254.29,481.15 L254.21,481.22 L254.12,481.28 L254.03,481.35 L253.94,481.4 L253.85,481.45 L253.75,481.5 L253.65,481.54 L253.55,481.58 L253.44,481.61 L253.34,481.64 L253.23,481.66 L253.12,481.67 L253.01,481.68 L252.9,481.68 L252.89,481.47 C253.33,481.47,253.75,481.25,254.01,480.82 C254.27,480.39,254.27,479.82,254.27,479.44 C254.27,479.08,254.27,478.55,254.05,478.11 C253.83,477.66,253.4,477.37,252.9,477.37 H252.9 C252.47,477.37,252.03,477.58,251.76,478.04 C251.51,478.48,251.51,479.08,251.51,479.44 C251.51,479.83,251.51,480.36,251.75,480.8 C252.02,481.26,252.49,481.47,252.89,481.47 L252.9,481.68 C251.65,481.68,250.69,480.6,250.69,479.36 C250.69,478.08,251.72,477.13,252.89,477.13 C254.09,477.13,255.1,478.1,255.1,479.36 Z " /><path
         id="path6365"
         fill="black"
         stroke-width="0"
         d="M259.28,478.02 V477.13 L260.71,477.23 V477.54 C260.02,477.54,259.94,477.61,259.94,478.1 V481.63 L258.48,481.52 V481.21 C259.17,481.21,259.25,481.14,259.25,480.65 V478.88 C259.25,478.02,258.77,477.34,258.05,477.34 C257.21,477.34,257.17,477.81,257.17,478.33 V481.63 L255.71,481.52 V481.21 C256.49,481.21,256.49,481.18,256.49,480.3 V478.8 C256.49,478.03,256.49,477.13,258,477.13 C258.56,477.13,258.99,477.4,259.28,478.02 Z " /><path
         id="path6367"
         fill="black"
         stroke-width="0"
         d="M262.02,480.65 V477.99 C262.02,477.54,261.91,477.54,261.25,477.54 V477.23 C261.59,477.24,262.1,477.27,262.37,477.27 C262.63,477.27,263.15,477.24,263.48,477.23 V477.54 C262.82,477.54,262.71,477.54,262.71,477.99 V479.82 C262.71,480.85,263.41,481.41,264.05,481.41 C264.68,481.41,264.79,480.87,264.79,480.3 V477.99 C264.79,477.54,264.68,477.54,264.01,477.54 V477.23 C264.36,477.24,264.87,477.27,265.14,477.27 C265.39,477.27,265.91,477.24,266.25,477.23 V477.54 C265.73,477.54,265.48,477.54,265.47,477.84 V479.74 C265.47,480.59,265.47,480.9,265.17,481.26 C265.03,481.43,264.7,481.63,264.12,481.63 C263.39,481.63,262.93,481.2,262.65,480.58 V481.63 L261.25,481.52 V481.21 C261.94,481.21,262.02,481.14,262.02,480.65 Z " /><path
         id="path6369"
         fill="black"
         stroke-width="0"
         d="M270.24,477.78 V477.13 L271.71,477.23 V477.54 C271.01,477.54,270.93,477.61,270.93,478.1 V484.13 L269.5,484.02 V483.71 C270.19,483.71,270.27,483.64,270.27,483.16 V481.01 C269.98,481.37,269.56,481.63,269.02,481.63 L269.06,481.41 C269.41,481.41,269.83,481.26,270.13,480.81 C270.24,480.64,270.24,480.62,270.24,480.44 H270.24 V478.41 C270.24,478.23,270.24,478.21,270.13,478.04 C269.83,477.56,269.39,477.34,268.96,477.34 C268.51,477.34,268.15,477.6,267.92,477.98 C267.66,478.39,267.63,478.95,267.63,479.36 C267.63,479.73,267.65,480.32,267.93,480.77 C268.14,481.08,268.52,481.41,269.06,481.41 L269.02,481.63 C267.85,481.63,266.8,480.65,266.8,479.37 C266.8,478.11,267.78,477.13,268.91,477.13 C269.55,477.13,269.99,477.46,270.24,477.78 Z " /><path
         id="path6371"
         fill="black"
         stroke-width="0"
         d="M275.31,477.99 L275.32,477.95 L275.32,477.92 L275.33,477.88 L275.34,477.84 L275.35,477.8 L275.36,477.77 L275.37,477.73 L275.38,477.7 L275.4,477.66 L275.41,477.63 L275.43,477.59 L275.45,477.56 L275.47,477.53 L275.49,477.49 L275.51,477.46 L275.54,477.43 L275.56,477.41 L275.59,477.38 L275.62,477.35 L275.65,477.33 L275.68,477.31 L275.71,477.28 L275.74,477.26 L275.77,477.25 L275.81,477.23 L275.84,477.22 L275.88,477.2 L275.92,477.19 L275.96,477.19 L276,477.18 L276.04,477.18 L276.09,477.17 C276.3,477.17,276.9,477.31,276.9,478.12 V478.67 H276.65 V478.12 C276.65,477.54,276.4,477.48,276.3,477.48 C275.97,477.48,275.93,477.93,275.93,477.98 V479.97 C275.93,480.38,275.93,480.77,275.57,481.14 C275.18,481.53,274.68,481.68,274.21,481.68 C273.39,481.68,272.7,481.22,272.7,480.56 C272.7,480.27,272.9,480.1,273.16,480.1 C273.44,480.1,273.62,480.3,273.62,480.55 C273.62,480.67,273.57,481,273.11,481.01 C273.38,481.36,273.87,481.47,274.19,481.47 C274.67,481.47,275.24,481.08,275.24,480.2 V479.83 V479.62 V478.63 C275.24,477.68,274.52,477.34,274.08,477.34 C273.59,477.34,273.18,477.69,273.18,478.19 C273.18,478.73,273.6,479.56,275.24,479.62 H275.24 V479.83 C274.73,479.8,274.04,479.77,273.41,479.47 C272.66,479.13,272.42,478.62,272.42,478.18 C272.42,477.37,273.38,477.13,274.01,477.13 C274.66,477.13,275.12,477.52,275.31,477.99 Z " /><path
         id="path6373"
         fill="black"
         stroke-width="0"
         d="M278.64,480.53 V481.63 L277.26,481.52 V481.21 C277.95,481.21,278.03,481.14,278.03,480.65 V477.99 C278.03,477.54,277.92,477.54,277.26,477.54 V477.23 C277.64,477.24,278.11,477.27,278.39,477.27 C278.79,477.27,279.26,477.27,279.65,477.23 V477.54 H279.45 C278.71,477.54,278.69,477.65,278.69,478.01 V479.54 C278.69,480.52,279.11,481.41,279.86,481.41 C279.93,481.41,279.95,481.41,279.97,481.4 C279.94,481.39,279.74,481.27,279.74,481.01 C279.74,480.73,279.95,480.58,280.17,480.58 C280.35,480.58,280.6,480.7,280.6,481.02 C280.6,481.34,280.29,481.63,279.86,481.63 C279.14,481.63,278.78,480.96,278.64,480.53 Z " /><path
         id="path6375"
         fill="black"
         stroke-width="0"
         d="M285.01,480.57 L285.02,480.6 L285.03,480.63 L285.05,480.66 L285.06,480.68 L285.07,480.71 L285.09,480.73 L285.1,480.76 L285.12,480.78 L285.15,480.82 L285.18,480.86 L285.21,480.9 L285.24,480.94 L285.27,480.97 L285.31,481 L285.34,481.02 L285.37,481.05 L285.41,481.07 L285.44,481.09 L285.48,481.11 L285.51,481.13 L285.54,481.14 L285.58,481.15 L285.61,481.16 L285.64,481.17 L285.67,481.18 L285.7,481.19 L285.73,481.19 L285.76,481.2 L285.79,481.2 L285.81,481.2 L285.84,481.21 L285.86,481.21 L285.88,481.21 L285.9,481.21 L285.92,481.21 L285.93,481.21 V481.52 C285.71,481.5,285.42,481.49,285.19,481.49 C285.01,481.49,284.54,481.51,284.32,481.52 V481.21 C284.63,481.2,284.79,481.03,284.79,480.78 C284.79,480.68,284.78,480.66,284.73,480.54 L283.73,478.1 L282.62,480.77 C282.58,480.87,282.56,480.91,282.56,480.95 C282.56,481.21,282.93,481.21,283.12,481.21 V481.52 C282.86,481.51,282.2,481.49,282.04,481.49 C281.77,481.49,281.37,481.5,281.07,481.52 V481.21 C281.55,481.21,281.74,481.21,281.88,480.86 L283.37,477.23 C283.32,477.11,283.18,476.78,283.12,476.65 C282.9,476.1,282.62,475.42,281.99,475.42 C281.94,475.42,281.71,475.42,281.52,475.6 C281.83,475.64,281.91,475.85,281.91,476.01 C281.91,476.27,281.72,476.43,281.49,476.43 C281.29,476.43,281.07,476.3,281.07,476 C281.07,475.56,281.49,475.2,281.99,475.2 C282.61,475.2,283.02,475.77,283.26,476.33 Z " /><path
         id="path6377"
         fill="black"
         stroke-width="0"
         d="M288.05,480.99 L288.05,481.02 L288.05,481.04 L288.04,481.07 L288.04,481.1 L288.03,481.12 L288.03,481.15 L288.02,481.17 L288.01,481.19 L288,481.22 L287.99,481.24 L287.97,481.26 L287.96,481.28 L287.94,481.3 L287.93,481.32 L287.91,481.34 L287.89,481.36 L287.88,481.38 L287.86,481.4 L287.84,481.41 L287.82,481.43 L287.79,481.44 L287.77,481.45 L287.75,481.46 L287.73,481.47 L287.7,481.48 L287.68,481.49 L287.65,481.5 L287.63,481.51 L287.6,481.51 L287.58,481.51 L287.55,481.52 L287.52,481.52 C287.23,481.52,286.99,481.28,286.99,480.99 C286.99,480.7,287.23,480.46,287.52,480.46 C287.81,480.46,288.05,480.7,288.05,480.99 Z " /><path
         id="path6379"
         fill="black"
         stroke-width="0"
         d="M288.05,477.76 L288.05,477.79 L288.05,477.82 L288.04,477.84 L288.04,477.87 L288.03,477.89 L288.03,477.92 L288.02,477.94 L288.01,477.97 L288,477.99 L287.99,478.01 L287.97,478.03 L287.96,478.05 L287.94,478.08 L287.93,478.1 L287.91,478.11 L287.89,478.13 L287.88,478.15 L287.86,478.17 L287.84,478.18 L287.82,478.2 L287.79,478.21 L287.77,478.22 L287.75,478.24 L287.73,478.25 L287.7,478.26 L287.68,478.26 L287.65,478.27 L287.63,478.28 L287.6,478.28 L287.58,478.29 L287.55,478.29 L287.52,478.29 C287.23,478.29,286.99,478.05,286.99,477.76 C286.99,477.47,287.23,477.23,287.52,477.23 C287.81,477.23,288.05,477.47,288.05,477.76 Z " /><polygon
         id="polygon6381"
         fill="black"
         stroke-width="0"
         points="296.33,484.13 294.99,482.78 295.17,482.6 296.33,483.61 297.47,482.6 297.65,482.78 " /><path
         id="path6383"
         fill="black"
         stroke-width="0"
         d="M294.21,477.82 L294.21,477.81 L294.21,477.79 L294.2,477.78 L294.2,477.76 L294.19,477.73 L294.19,477.7 L294.18,477.67 L294.17,477.63 L294.16,477.6 L294.16,477.57 L294.15,477.56 L294.15,477.54 L294.15,477.53 L294.14,477.51 L294.14,477.5 L294.14,477.49 L294.14,477.47 L294.13,477.46 L294.13,477.45 L294.13,477.44 L294.13,477.43 L294.13,477.42 L294.12,477.41 L294.12,477.41 L294.12,477.4 L294.12,477.39 C294.12,477.21,294.26,477.13,294.41,477.13 C294.53,477.13,294.71,477.2,294.78,477.4 C294.79,477.42,294.91,477.89,294.97,478.14 L295.19,479.03 C295.25,479.25,295.31,479.47,295.36,479.7 C295.4,479.87,295.48,480.16,295.49,480.2 C295.64,480.5,296.16,481.41,297.11,481.41 C297.56,481.41,297.64,481.04,297.64,480.71 C297.64,480.1,297.16,478.82,297,478.4 C296.91,478.17,296.9,478.05,296.9,477.94 C296.9,477.47,297.25,477.13,297.71,477.13 C298.65,477.13,299.02,478.58,299.02,478.66 C299.02,478.76,298.93,478.76,298.9,478.76 C298.8,478.76,298.8,478.73,298.75,478.58 C298.55,477.9,298.22,477.34,297.73,477.34 C297.57,477.34,297.5,477.44,297.5,477.67 C297.5,477.92,297.58,478.16,297.67,478.38 C297.86,478.9,298.28,480,298.28,480.56 C298.28,481.23,297.85,481.63,297.14,481.63 C296.24,481.63,295.76,480.99,295.58,480.76 C295.54,481.32,295.13,481.63,294.67,481.63 C294.21,481.63,294.02,481.24,293.92,481.06 C293.77,480.72,293.63,480.14,293.63,480.1 C293.63,480,293.73,480,293.74,480 C293.84,480,293.85,480.01,293.91,480.23 C294.08,480.93,294.28,481.41,294.64,481.41 C294.84,481.41,294.95,481.28,294.95,480.95 C294.95,480.74,294.92,480.63,294.79,480.12 Z " /><path
         id="path6385"
         fill="black"
         stroke-width="0"
         d="M306.15,483.51 L306.15,483.55 L306.15,483.58 L306.15,483.61 L306.15,483.63 L306.15,483.64 L306.15,483.66 L306.15,483.68 L306.14,483.69 L306.14,483.7 L306.14,483.72 L306.14,483.73 L306.13,483.75 L306.13,483.76 L306.12,483.77 L306.12,483.78 L306.11,483.79 L306.1,483.8 L306.1,483.81 L306.09,483.82 L306.08,483.83 L306.07,483.84 L306.06,483.85 L306.05,483.85 L306.05,483.85 L306.04,483.86 L306.03,483.86 L306.03,483.86 L306.02,483.86 L306.01,483.86 L306,483.87 L306,483.87 L305.99,483.87 L305.98,483.87 L305.97,483.87 L305.96,483.87 L305.95,483.87 C305.76,483.87,305.76,483.66,305.76,483.51 V477.63 H302.99 C302.84,477.63,302.63,477.63,302.63,477.43 C302.63,477.23,302.84,477.23,302.99,477.23 H308.93 C309.1,477.23,309.28,477.23,309.28,477.43 C309.28,477.63,309.1,477.63,308.93,477.63 H306.15 Z " /><polygon
         id="polygon6387"
         fill="black"
         stroke-width="0"
         points="315.31,484.13 313.97,482.78 314.15,482.6 315.31,483.61 316.45,482.6 316.63,482.78 " /><path
         id="path6389"
         fill="black"
         stroke-width="0"
         d="M316.54,481.01 L316.51,481.01 L316.48,481.01 L316.45,481.01 L316.42,481.01 L316.4,481.01 L316.37,481 L316.35,481 L316.34,481 L316.33,481 L316.31,480.99 L316.3,480.99 L316.29,480.99 L316.27,480.98 L316.26,480.98 L316.25,480.97 L316.23,480.96 L316.22,480.96 L316.21,480.95 L316.19,480.94 L316.18,480.94 L316.17,480.93 L316.15,480.92 L316.14,480.91 L316.13,480.9 L316.12,480.88 L316.1,480.87 C315.94,480.72,315.92,480.55,315.92,480.48 C315.92,480.24,316.1,480.14,316.29,480.14 C316.58,480.14,316.85,480.37,316.85,480.77 C316.85,481.26,316.38,481.63,315.67,481.63 C314.33,481.63,313.01,480.2,313.01,478.8 C313.01,477.91,313.58,477.13,314.62,477.13 C316.04,477.13,316.88,478.18,316.88,478.3 C316.88,478.36,316.82,478.43,316.76,478.43 C316.71,478.43,316.69,478.41,316.63,478.33 C315.84,477.34,314.76,477.34,314.64,477.34 C314.01,477.34,313.74,477.83,313.74,478.43 C313.74,478.83,313.94,479.8,314.28,480.41 C314.59,480.98,315.14,481.41,315.68,481.41 C316.02,481.41,316.4,481.28,316.54,481.01 Z " /></g>  </g>
</svg>
