<?xml version="1.0" encoding="UTF-8" standalone="no"?>
<!-- Created with Inkscape (http://www.inkscape.org/) -->

<svg
   xmlns:ns0="http://www.iki.fi/pav/software/textext/"
   xmlns:dc="http://purl.org/dc/elements/1.1/"
   xmlns:cc="http://creativecommons.org/ns#"
   xmlns:rdf="http://www.w3.org/1999/02/22-rdf-syntax-ns#"
   xmlns:svg="http://www.w3.org/2000/svg"
   xmlns="http://www.w3.org/2000/svg"
   xmlns:sodipodi="http://sodipodi.sourceforge.net/DTD/sodipodi-0.dtd"
   xmlns:inkscape="http://www.inkscape.org/namespaces/inkscape"
   width="1315.4069"
   height="470.54886"
   id="svg3313"
   sodipodi:version="0.32"
   inkscape:version="0.91 r"
   sodipodi:modified="true"
   version="1.1"
   sodipodi:docname="TiltAndTwistBoundaries.svg">
  <sodipodi:namedview
     id="base"
     pagecolor="#ffffff"
     bordercolor="#666666"
     borderopacity="1.0"
     gridtolerance="10000"
     guidetolerance="10"
     objecttolerance="10"
     inkscape:pageopacity="0.0"
     inkscape:pageshadow="2"
     inkscape:zoom="1.4"
     inkscape:cx="778.52666"
     inkscape:cy="213.98821"
     inkscape:document-units="px"
     inkscape:current-layer="layer1"
     inkscape:window-width="1920"
     inkscape:window-height="1053"
     inkscape:window-x="0"
     inkscape:window-y="0"
     showgrid="false"
     inkscape:window-maximized="1" />
  <defs
     id="defs3315">
    <marker
       style="overflow:visible"
       id="Arrow2Mend"
       refX="0"
       refY="0"
       orient="auto"
       inkscape:stockid="Arrow2Mend">
      <path
         transform="scale(-0.6,-0.6)"
         d="M 8.7185878,4.0337352 -2.2072895,0.01601326 8.7185884,-4.0017078 C 6.97309,-1.6296469 6.9831476,1.6157441 8.7185878,4.0337352 Z"
         style="fill-rule:evenodd;stroke-width:0.625;stroke-linejoin:round"
         id="path3845"
         inkscape:connector-curvature="0" />
    </marker>
    <marker
       style="overflow:visible"
       id="Arrow2Sstart"
       refX="0"
       refY="0"
       orient="auto"
       inkscape:stockid="Arrow2Sstart">
      <path
         transform="matrix(0.3,0,0,0.3,-0.69,0)"
         d="M 8.7185878,4.0337352 -2.2072895,0.01601326 8.7185884,-4.0017078 C 6.97309,-1.6296469 6.9831476,1.6157441 8.7185878,4.0337352 Z"
         style="fill-rule:evenodd;stroke-width:0.625;stroke-linejoin:round"
         id="path3848"
         inkscape:connector-curvature="0" />
    </marker>
    <marker
       style="overflow:visible"
       id="Arrow2Mstart"
       refX="0"
       refY="0"
       orient="auto"
       inkscape:stockid="Arrow2Mstart">
      <path
         transform="scale(0.6,0.6)"
         d="M 8.7185878,4.0337352 -2.2072895,0.01601326 8.7185884,-4.0017078 C 6.97309,-1.6296469 6.9831476,1.6157441 8.7185878,4.0337352 Z"
         style="fill-rule:evenodd;stroke-width:0.625;stroke-linejoin:round"
         id="path3842"
         inkscape:connector-curvature="0" />
    </marker>
    <marker
       style="overflow:visible"
       id="Arrow2Mend-7"
       refX="0"
       refY="0"
       orient="auto"
       inkscape:stockid="Arrow2Mend">
      <path
         inkscape:connector-curvature="0"
         transform="scale(-0.6,-0.6)"
         d="M 8.7185878,4.0337352 -2.2072895,0.01601326 8.7185884,-4.0017078 C 6.97309,-1.6296469 6.9831476,1.6157441 8.7185878,4.0337352 Z"
         style="fill-rule:evenodd;stroke-width:0.625;stroke-linejoin:round"
         id="path3845-9" />
    </marker>
  </defs>
  <metadata
     id="metadata3318">
    <rdf:RDF>
      <cc:Work
         rdf:about="">
        <dc:format>image/svg+xml</dc:format>
        <dc:type
           rdf:resource="http://purl.org/dc/dcmitype/StillImage" />
      </cc:Work>
    </rdf:RDF>
  </metadata>
  <g
     transform="translate(403.52666,-128.04228)"
     id="layer1"
     inkscape:groupmode="layer"
     inkscape:label="Layer 1">
    <g
       transform="matrix(0.91874702,0,0,0.87792132,-427.28545,173.51565)"
       id="g3033">
      <path
         inkscape:connector-curvature="0"
         style="fill:none;stroke:#0000ff;stroke-width:2.97076178;stroke-linecap:butt;stroke-linejoin:miter;stroke-miterlimit:4;stroke-dasharray:none;stroke-opacity:1"
         d="M 29.020845,80.068701 201.07196,121.35957 413.17923,102.45955 367.70064,78.206153 286.53894,64.796731 29.020845,80.068701 Z"
         id="path3274"
         sodipodi:nodetypes="cccccc" />
      <path
         inkscape:connector-curvature="0"
         style="fill:none;stroke:#0000ff;stroke-width:2.97076178;stroke-linecap:butt;stroke-linejoin:miter;stroke-miterlimit:4;stroke-dasharray:11.88304664, 5.94152332;stroke-dashoffset:0;stroke-opacity:1"
         d="M 287.09755,65.36236 284.86312,339.69211"
         id="path3278" />
      <path
         inkscape:connector-curvature="0"
         style="fill:none;stroke:#0000ff;stroke-width:2.97076178;stroke-linecap:butt;stroke-linejoin:miter;stroke-miterlimit:4;stroke-dasharray:none;stroke-opacity:1"
         d="M 27.345029,79.503072 34.048315,390.03303 199.39614,481.66483 199.95475,120.79394"
         id="path3280" />
      <path
         style="fill:none;stroke:#0000ff;stroke-width:2.97076178;stroke-linecap:butt;stroke-linejoin:miter;stroke-miterlimit:4;stroke-dasharray:none;stroke-opacity:1"
         d="M 200.39354,482.40378 404.84394,429.2347"
         id="path3282"
         inkscape:connector-curvature="0" />
      <path
         inkscape:connector-curvature="0"
         style="fill:none;stroke:#0000ff;stroke-width:2.97076178;stroke-linecap:butt;stroke-linejoin:miter;stroke-miterlimit:4;stroke-dasharray:11.88304664, 5.94152332;stroke-dashoffset:0;stroke-opacity:1"
         d="M 33.258325,389.46741 283.51451,339.69211 360.60234,371.3673 404.17373,427.93013"
         id="path3284" />
      <path
         inkscape:connector-curvature="0"
         style="fill:none;stroke:#0000ff;stroke-width:1.98050773;stroke-linecap:butt;stroke-linejoin:miter;stroke-miterlimit:4;stroke-dasharray:none;stroke-opacity:1"
         d="M 413.34284,104.39072 406.08094,427.93013"
         id="path4255" />
      <path
         inkscape:connector-curvature="0"
         style="fill:none;stroke:#009f00;stroke-width:2.97076178;stroke-linecap:butt;stroke-linejoin:miter;stroke-miterlimit:4;stroke-dasharray:none;stroke-opacity:1"
         d="M 720.57699,98.734441 703.26015,409.83002 406.63955,429.62701 413.34284,103.25946 720.57699,98.734441 Z"
         id="path4257" />
      <path
         inkscape:connector-curvature="0"
         style="fill:none;stroke:#009f00;stroke-width:2.97076178;stroke-linecap:butt;stroke-linejoin:miter;stroke-miterlimit:4;stroke-dasharray:none;stroke-opacity:1"
         d="M 340.72386,64.231102 604.38662,63.665473 720.01838,98.734441 413.90145,102.69383 340.72386,64.231102 Z"
         id="path4259" />
      <path
         inkscape:connector-curvature="0"
         style="fill:none;stroke:#009f00;stroke-width:3.96101546;stroke-linecap:butt;stroke-linejoin:miter;stroke-miterlimit:4;stroke-dasharray:15.84406218, 7.92203109;stroke-dashoffset:0;stroke-opacity:1"
         d="M 603.82802,63.099854 590.98004,327.24829 702.14294,409.83002"
         id="path4261" />
      <path
         inkscape:connector-curvature="0"
         style="fill:none;stroke:#009e00;stroke-width:2.97076178;stroke-linecap:butt;stroke-linejoin:miter;stroke-miterlimit:4;stroke-dasharray:11.88304664, 5.94152332;stroke-dashoffset:0;stroke-opacity:1"
         d="M 591.53865,325.5514 336.255,337.99522"
         id="path4263" />
      <path
         inkscape:connector-curvature="0"
         style="fill:none;stroke:#009f00;stroke-width:2.97076178;stroke-linecap:butt;stroke-linejoin:miter;stroke-miterlimit:4;stroke-dasharray:11.88304664, 5.94152332;stroke-dashoffset:0;stroke-opacity:1"
         d="M 341.56178,74.129601 336.255,337.99522 360.83373,370.23604"
         id="path4265"
         sodipodi:nodetypes="ccc" />
      <path
         inkscape:connector-curvature="0"
         style="fill:none;stroke:#009e00;stroke-width:1.98050773;stroke-linecap:butt;stroke-linejoin:miter;stroke-miterlimit:4;stroke-dasharray:none;stroke-opacity:1"
         d="M 341.84107,63.665473 341.28246,74.978044"
         id="path4267" />
      <path
         inkscape:connector-curvature="0"
         style="opacity:0.55999995;fill:#cb0000;fill-opacity:1;fill-rule:evenodd;stroke:#000000;stroke-width:0;stroke-linecap:butt;stroke-linejoin:miter;stroke-miterlimit:4;stroke-dasharray:none;stroke-opacity:1"
         d="M 366.83475,77.373075 413.04919,102.57053 406.33427,429.33755 360.90982,370.94344 366.83475,77.373075 Z"
         id="path4270" />
      <path
         inkscape:connector-curvature="0"
         style="fill:none;stroke:#000000;stroke-width:4.95126963;stroke-linecap:butt;stroke-linejoin:miter;stroke-miterlimit:4;stroke-dasharray:none;stroke-opacity:1"
         d="M 366.83475,77.773033 360.90982,371.74336"
         id="path2169" />
      <path
         inkscape:connector-curvature="0"
         style="fill:none;stroke:#000000;stroke-width:5.27061319;stroke-linecap:butt;stroke-linejoin:miter;stroke-miterlimit:4;stroke-dasharray:none;stroke-opacity:1;marker-end:none"
         d="M 366.6429,77.604764 233.1675,6.3643395"
         id="path3376"
         sodipodi:nodetypes="cc" />
      <path
         inkscape:connector-curvature="0"
         style="fill:none;stroke:#000000;stroke-width:3.96251297;stroke-linecap:butt;stroke-linejoin:miter;stroke-miterlimit:4;stroke-dasharray:none;stroke-opacity:1;marker-end:none"
         d="M 365.95591,78.556143 C 365.95591,78.556143 100.96931,23.193348 188.18332,42.058454"
         id="path3378"
         sodipodi:nodetypes="cc" />
      <path
         sodipodi:nodetypes="cac"
         transform="matrix(1.0884389,0,0,1.1390542,25.893025,-70.978616)"
         inkscape:connector-curvature="0"
         id="path4258"
         d="M 141.42857,95.017362 C 141.42857,95.017362 148.99477,80.073363 155.71428,75.731648 165.12831,69.648906 188.57143,68.588791 188.57143,68.588791"
         style="fill:none;stroke:#000000;stroke-width:2;stroke-linecap:butt;stroke-linejoin:miter;stroke-miterlimit:4;stroke-dasharray:none;stroke-opacity:1;marker-start:url(#Arrow2Mstart);marker-end:url(#Arrow2Mend)" />
    </g>
    <path
       inkscape:connector-curvature="0"
       sodipodi:nodetypes="cc"
       id="path3355"
       d="M 658.32617,392.60813 739.27662,380.93794"
       style="fill:none;stroke:#000000;stroke-width:3.88274384;stroke-linecap:butt;stroke-linejoin:miter;stroke-miterlimit:4;stroke-dasharray:none;stroke-opacity:1" />
    <path
       inkscape:connector-curvature="0"
       id="path2220"
       d="M 386.42347,283.71883 568.24646,297.68388 568.24646,297.68388 577.42948,590.3152 398.66739,537.62887 386.42347,283.71883 Z"
       style="fill:none;stroke:#0000ff;stroke-width:2.32964635;stroke-linecap:butt;stroke-linejoin:miter;stroke-miterlimit:4;stroke-dasharray:none;stroke-opacity:1" />
    <path
       inkscape:connector-curvature="0"
       sodipodi:nodetypes="ccccc"
       id="path3202"
       d="M 536.41211,374.49167 649.66889,220.24132 786.49534,408.76952 653.3421,554.76779 536.41211,374.49167 Z"
       style="fill:none;stroke:#009f00;stroke-width:2.32964635;stroke-linecap:butt;stroke-linejoin:miter;stroke-miterlimit:4;stroke-dasharray:none;stroke-opacity:1" />
    <path
       inkscape:connector-curvature="0"
       id="path3204"
       d="M 650.28112,220.24132 781.29164,213.89357 909.85341,375.76122 785.57708,408.76952"
       style="fill:none;stroke:#009f00;stroke-width:2.32964635;stroke-linecap:butt;stroke-linejoin:miter;stroke-miterlimit:4;stroke-dasharray:none;stroke-opacity:1" />
    <path
       inkscape:connector-curvature="0"
       sodipodi:nodetypes="ccc"
       id="path3206"
       d="M 653.3421,555.08518 780.67942,506.52488 909.85341,375.76122"
       style="fill:none;stroke:#009f00;stroke-width:2.32964635;stroke-linecap:butt;stroke-linejoin:miter;stroke-miterlimit:4;stroke-dasharray:none;stroke-opacity:1" />
    <path
       inkscape:connector-curvature="0"
       sodipodi:nodetypes="ccc"
       id="path3208"
       d="M 780.98553,213.57618 671.09584,351.00499 537.63656,375.76122"
       style="fill:none;stroke:#009f00;stroke-width:2.32964635;stroke-linecap:butt;stroke-linejoin:miter;stroke-miterlimit:4;stroke-dasharray:9.31858527, 4.65929263;stroke-dashoffset:0;stroke-opacity:1" />
    <path
       inkscape:connector-curvature="0"
       sodipodi:nodetypes="cc"
       id="path3210"
       d="M 671.70807,350.37021 780.67942,505.89011"
       style="fill:none;stroke:#009f00;stroke-width:2.32964635;stroke-linecap:butt;stroke-linejoin:miter;stroke-miterlimit:4;stroke-dasharray:9.31858527, 4.65929263;stroke-dashoffset:0;stroke-opacity:1" />
    <path
       inkscape:connector-curvature="0"
       sodipodi:nodetypes="ccccccccc"
       id="path3212"
       d="M 569.15084,329.7686 611.57409,272.31532 689.06136,275.4573 743.17259,349.51817 743.17259,455.44766 689.4943,514.69636 617.20165,498.98647 572.18109,430.31185 569.15084,329.7686 Z"
       style="opacity:0.58333333;fill:#d00000;fill-opacity:1;fill-rule:evenodd;stroke:#000000;stroke-width:0.77654874px;stroke-linecap:butt;stroke-linejoin:miter;stroke-opacity:1" />
    <path
       inkscape:connector-curvature="0"
       sodipodi:nodetypes="cc"
       id="path2384"
       d="M 575.6442,403.82948 658.7591,392.60813"
       style="fill:none;stroke:#000000;stroke-width:3.88274384;stroke-linecap:butt;stroke-linejoin:miter;stroke-miterlimit:4;stroke-dasharray:none;stroke-opacity:1" />
    <path
       inkscape:connector-curvature="0"
       sodipodi:nodetypes="ccc"
       id="path2228"
       d="M 399.58573,537.62887 570.08306,488.75119 742.7231,526.83769"
       style="fill:none;stroke:#0000ff;stroke-width:2.32964635;stroke-linecap:butt;stroke-linejoin:miter;stroke-miterlimit:4;stroke-dasharray:9.31858527, 4.65929263;stroke-dashoffset:0;stroke-opacity:1" />
    <path
       inkscape:connector-curvature="0"
       sodipodi:nodetypes="cc"
       id="path2230"
       d="M 570.08306,488.11642 564.57325,272.29287"
       style="fill:none;stroke:#0000ff;stroke-width:2.32964635;stroke-linecap:butt;stroke-linejoin:miter;stroke-miterlimit:4;stroke-dasharray:9.31858527, 4.65929263;stroke-dashoffset:0;stroke-opacity:1" />
    <path
       inkscape:connector-curvature="0"
       sodipodi:nodetypes="cc"
       id="path3580"
       d="M 657.49942,390.55878 651.20045,188.07954"
       style="fill:none;stroke:#000000;stroke-width:2.32964635;stroke-linecap:butt;stroke-linejoin:miter;stroke-miterlimit:4;stroke-dasharray:none;stroke-opacity:1;marker-end:none" />
    <path
       inkscape:connector-curvature="0"
       sodipodi:nodetypes="cc"
       id="path3582"
       d="M 658.85336,394.4491 799.48213,250.36918"
       style="fill:none;stroke:#000000;stroke-width:2.32964635;stroke-linecap:butt;stroke-linejoin:miter;stroke-miterlimit:4;stroke-dasharray:none;stroke-opacity:1;marker-end:none" />
    <path
       inkscape:connector-curvature="0"
       sodipodi:nodetypes="cs"
       id="path3584"
       d="M 654.81044,238.85511 C 694.49987,224.44722 750.5319,249.93812 765.70724,277.6456"
       style="fill:none;stroke:#000000;stroke-width:2.12534809;stroke-linecap:butt;stroke-linejoin:miter;stroke-miterlimit:4;stroke-dasharray:none;stroke-opacity:1;marker-start:url(#Arrow2Mstart);marker-end:url(#Arrow2Mend)" />
    <path
       inkscape:connector-curvature="0"
       sodipodi:nodetypes="cccc"
       id="path2226"
       d="M 567.94034,297.36649 743.33533,276.41891 563.34887,271.6581 386.42347,283.71883"
       style="fill:none;stroke:#0000ff;stroke-width:2.32964635;stroke-linecap:butt;stroke-linejoin:miter;stroke-miterlimit:4;stroke-dasharray:none;stroke-opacity:1" />
    <path
       inkscape:connector-curvature="0"
       sodipodi:nodetypes="ccc"
       id="path2224"
       d="M 577.12336,590.31519 743.94756,527.47247 743.33533,276.73631"
       style="fill:none;stroke:#0000ff;stroke-width:2.32964635;stroke-linecap:butt;stroke-linejoin:miter;stroke-miterlimit:4;stroke-dasharray:none;stroke-opacity:1" />
    <g
       style="font-style:normal;font-variant:normal;font-weight:normal;font-stretch:normal;letter-spacing:normal;word-spacing:normal;text-anchor:start;fill:none;stroke:#000000;stroke-linecap:butt;stroke-linejoin:miter;stroke-miterlimit:10.43299961;stroke-dasharray:none;stroke-dashoffset:0;stroke-opacity:1"
       id="content"
       transform="matrix(3.0504577,0,0,-3.1629509,-909.34777,1719.5365)"
       xml:space="preserve"
       stroke-miterlimit="10.433"
       font-style="normal"
       font-variant="normal"
       font-weight="normal"
       font-stretch="normal"
       font-size-adjust="none"
       letter-spacing="normal"
       word-spacing="normal"
       ns0:text="$\\theta$"
       ns0:preamble="/home/ken/.config/inkscape/textextpreamble.txt"><path
         style="fill:#000000;stroke-width:0"
         inkscape:connector-curvature="0"
         d="M 227.96,482.2 227.96,482.27 227.96,482.33 227.95,482.4 227.95,482.48 227.94,482.55 227.94,482.63 227.93,482.71 227.92,482.8 227.9,482.88 227.89,482.96 227.87,483.05 227.85,483.13 227.83,483.22 227.8,483.3 227.77,483.39 227.74,483.47 227.71,483.55 227.67,483.62 227.63,483.7 227.59,483.77 227.54,483.83 227.49,483.9 227.44,483.96 227.38,484.01 227.32,484.06 227.29,484.08 227.25,484.11 227.22,484.13 227.18,484.14 227.15,484.16 227.11,484.18 227.07,484.19 227.03,484.2 226.99,484.21 226.95,484.22 226.9,484.23 226.86,484.23 226.81,484.24 226.76,484.24 226.76,484.02 C 227.24,484.02 227.3,483.38 227.3,482.82 227.3,482.33 227.22,481.82 226.98,480.84 L 224.9,480.84 C 225.07,481.48 225.27,482.27 225.67,482.98 225.94,483.46 226.31,484.02 226.76,484.02 L 226.76,484.24 C 225.38,484.24 223.85,481.44 223.85,479.16 223.85,478.23 224.14,477.13 225.04,477.13 L 225.04,477.34 C 224.71,477.34 224.51,477.63 224.51,478.56 224.51,478.97 224.57,479.55 224.82,480.52 L 226.89,480.52 C 226.79,480.07 226.58,479.22 226.2,478.51 225.85,477.83 225.47,477.34 225.04,477.34 L 225.04,477.13 C 226.45,477.13 227.96,479.98 227.96,482.2 Z"
         id="path5239" /></g>    <g
       style="font-style:normal;font-variant:normal;font-weight:normal;font-stretch:normal;letter-spacing:normal;word-spacing:normal;text-anchor:start;fill:none;stroke:#000000;stroke-linecap:butt;stroke-linejoin:miter;stroke-miterlimit:10.43299961;stroke-dasharray:none;stroke-dashoffset:0;stroke-opacity:1"
       id="content-7"
       transform="matrix(3.0504577,0,0,-3.1629509,20.247177,1776.6023)"
       xml:space="preserve"
       stroke-miterlimit="10.433"
       font-style="normal"
       font-variant="normal"
       font-weight="normal"
       font-stretch="normal"
       font-size-adjust="none"
       letter-spacing="normal"
       word-spacing="normal"
       ns0:text="$\\theta$"
       ns0:preamble="/home/ken/.config/inkscape/textextpreamble.txt"><path
         style="fill:#000000;stroke-width:0"
         inkscape:connector-curvature="0"
         d="M 227.96,482.2 227.96,482.27 227.96,482.33 227.95,482.4 227.95,482.48 227.94,482.55 227.94,482.63 227.93,482.71 227.92,482.8 227.9,482.88 227.89,482.96 227.87,483.05 227.85,483.13 227.83,483.22 227.8,483.3 227.77,483.39 227.74,483.47 227.71,483.55 227.67,483.62 227.63,483.7 227.59,483.77 227.54,483.83 227.49,483.9 227.44,483.96 227.38,484.01 227.32,484.06 227.29,484.08 227.25,484.11 227.22,484.13 227.18,484.14 227.15,484.16 227.11,484.18 227.07,484.19 227.03,484.2 226.99,484.21 226.95,484.22 226.9,484.23 226.86,484.23 226.81,484.24 226.76,484.24 226.76,484.02 C 227.24,484.02 227.3,483.38 227.3,482.82 227.3,482.33 227.22,481.82 226.98,480.84 L 224.9,480.84 C 225.07,481.48 225.27,482.27 225.67,482.98 225.94,483.46 226.31,484.02 226.76,484.02 L 226.76,484.24 C 225.38,484.24 223.85,481.44 223.85,479.16 223.85,478.23 224.14,477.13 225.04,477.13 L 225.04,477.34 C 224.71,477.34 224.51,477.63 224.51,478.56 224.51,478.97 224.57,479.55 224.82,480.52 L 226.89,480.52 C 226.79,480.07 226.58,479.22 226.2,478.51 225.85,477.83 225.47,477.34 225.04,477.34 L 225.04,477.13 C 226.45,477.13 227.96,479.98 227.96,482.2 Z"
         id="path5239-7" /></g>    <path
       inkscape:connector-curvature="0"
       id="path5367"
       d="M 640.07509,415.50509 C 643.64659,414.07652 682.21799,410.50509 682.21799,410.50509"
       style="fill:none;stroke:#000000;stroke-width:2;stroke-linecap:butt;stroke-linejoin:miter;stroke-miterlimit:4;stroke-dasharray:none;stroke-opacity:1;marker-end:url(#Arrow2Mend)" />
    <g
       style="font-style:normal;font-variant:normal;font-weight:normal;font-stretch:normal;letter-spacing:normal;word-spacing:normal;text-anchor:start;fill:none;stroke:#000000;stroke-linecap:butt;stroke-linejoin:miter;stroke-miterlimit:10.43299961;stroke-dasharray:none;stroke-dashoffset:0;stroke-opacity:1"
       ns0:preamble="/home/ken/.config/inkscape/textextpreamble.txt"
       ns0:text="$\\hat{n}$, $\\hat{c}$"
       word-spacing="normal"
       letter-spacing="normal"
       font-size-adjust="none"
       font-stretch="normal"
       font-weight="normal"
       font-variant="normal"
       font-style="normal"
       stroke-miterlimit="10.433"
       xml:space="preserve"
       transform="matrix(4.7771439,0,0,-4.953313,-427.47563,2823.3704)"
       id="g5627"><polygon
         id="polygon5629"
         points="226.42,483.61 227.56,482.6 227.74,482.78 226.42,484.13 225.09,482.78 225.26,482.6 "
         style="fill:#000000;stroke-width:0" /><path
         id="path5631"
         d="M 224.31,477.82 224.31,477.81 224.3,477.79 224.3,477.78 224.3,477.76 224.29,477.73 224.28,477.7 224.27,477.67 224.27,477.63 224.26,477.6 224.25,477.57 224.25,477.56 224.24,477.54 224.24,477.53 224.24,477.51 224.24,477.5 224.23,477.49 224.23,477.47 224.23,477.46 224.23,477.45 224.22,477.44 224.22,477.43 224.22,477.42 224.22,477.41 224.22,477.41 224.22,477.4 224.22,477.39 C 224.22,477.21 224.36,477.13 224.51,477.13 224.63,477.13 224.8,477.2 224.88,477.4 224.88,477.42 225,477.89 225.06,478.14 L 225.28,479.03 C 225.34,479.25 225.4,479.47 225.45,479.7 225.49,479.87 225.57,480.16 225.58,480.2 225.73,480.5 226.26,481.41 227.2,481.41 227.65,481.41 227.74,481.04 227.74,480.71 227.74,480.1 227.25,478.82 227.09,478.4 227,478.17 226.99,478.05 226.99,477.94 226.99,477.47 227.34,477.13 227.81,477.13 228.74,477.13 229.11,478.58 229.11,478.66 229.11,478.76 229.02,478.76 228.99,478.76 228.89,478.76 228.89,478.73 228.84,478.58 228.65,477.9 228.32,477.34 227.83,477.34 227.66,477.34 227.59,477.44 227.59,477.67 227.59,477.92 227.68,478.16 227.77,478.38 227.96,478.9 228.38,480 228.38,480.56 228.38,481.23 227.95,481.63 227.23,481.63 226.34,481.63 225.85,480.99 225.68,480.76 225.63,481.32 225.22,481.63 224.76,481.63 224.31,481.63 224.12,481.24 224.02,481.06 223.86,480.72 223.72,480.14 223.72,480.1 223.72,480 223.82,480 223.84,480 223.94,480 223.95,480.01 224.01,480.23 224.18,480.93 224.38,481.41 224.74,481.41 224.93,481.41 225.04,481.28 225.04,480.95 225.04,480.74 225.01,480.63 224.88,480.12 Z"
         inkscape:connector-curvature="0"
         style="fill:#000000;stroke-width:0" /><path
         id="path5633"
         d="M 231.43,477.24 231.43,477.3 231.43,477.36 231.43,477.42 231.42,477.47 231.41,477.53 231.41,477.58 231.4,477.63 231.39,477.68 231.38,477.72 231.36,477.77 231.35,477.81 231.34,477.85 231.32,477.89 231.3,477.93 231.28,477.97 231.26,478.01 231.24,478.04 231.22,478.07 231.2,478.1 231.17,478.13 231.15,478.15 231.12,478.17 231.09,478.2 231.06,478.21 231.03,478.23 231,478.25 230.97,478.26 230.94,478.27 230.9,478.28 230.87,478.28 230.83,478.29 230.79,478.29 C 230.45,478.29 230.27,478.02 230.27,477.76 230.27,477.5 230.44,477.23 230.79,477.23 230.95,477.23 231.07,477.3 231.17,477.37 L 231.19,477.39 C 231.2,477.39 231.21,477.38 231.21,477.24 231.21,476.61 230.93,476 230.5,475.54 230.44,475.48 230.43,475.47 230.43,475.43 230.43,475.36 230.48,475.32 230.53,475.32 230.65,475.32 231.43,476.1 231.43,477.24 Z"
         inkscape:connector-curvature="0"
         style="fill:#000000;stroke-width:0" /><polygon
         id="polygon5635"
         points="238.2,483.61 239.35,482.6 239.53,482.78 238.2,484.13 236.87,482.78 237.05,482.6 "
         style="fill:#000000;stroke-width:0" /><path
         id="path5637"
         d="M 239.44,481.01 239.41,481.01 239.38,481.01 239.35,481.01 239.32,481.01 239.3,481.01 239.27,481 239.25,481 239.24,481 239.23,481 239.21,480.99 239.2,480.99 239.19,480.99 239.17,480.98 239.16,480.98 239.15,480.97 239.13,480.96 239.12,480.96 239.11,480.95 239.09,480.94 239.08,480.94 239.07,480.93 239.05,480.92 239.04,480.91 239.03,480.9 239.02,480.88 239,480.87 C 238.84,480.72 238.82,480.55 238.82,480.48 238.82,480.24 239,480.14 239.19,480.14 239.48,480.14 239.75,480.37 239.75,480.77 239.75,481.26 239.28,481.63 238.57,481.63 237.23,481.63 235.91,480.2 235.91,478.8 235.91,477.91 236.49,477.13 237.52,477.13 238.94,477.13 239.78,478.18 239.78,478.3 239.78,478.36 239.72,478.43 239.66,478.43 239.61,478.43 239.59,478.41 239.53,478.33 238.74,477.34 237.66,477.34 237.54,477.34 236.91,477.34 236.64,477.83 236.64,478.43 236.64,478.83 236.84,479.8 237.18,480.41 237.49,480.98 238.04,481.41 238.58,481.41 238.92,481.41 239.3,481.28 239.44,481.01 Z"
         inkscape:connector-curvature="0"
         style="fill:#000000;stroke-width:0" /></g>    <path
       inkscape:connector-curvature="0"
       id="path6514"
       d="M -230.63917,399.07651 C -227.06774,396.93365 -175.63917,391.21938 -175.63917,391.21938"
       style="fill:none;stroke:#000000;stroke-width:1.99999988;stroke-linecap:butt;stroke-linejoin:miter;stroke-miterlimit:4;stroke-dasharray:none;stroke-opacity:1;marker-end:url(#Arrow2Mend-7)" />
    <path
       inkscape:connector-curvature="0"
       id="path6704"
       d="M -84.2106,406.21936 C -84.2106,403.36222 -84.2106,354.79079 -84.2106,354.79079"
       style="fill:none;stroke:#000000;stroke-width:1.99999988;stroke-linecap:butt;stroke-linejoin:miter;stroke-miterlimit:4;stroke-dasharray:none;stroke-opacity:1;marker-end:url(#Arrow2Mend-7)" />
    <g
       style="font-style:normal;font-variant:normal;font-weight:normal;font-stretch:normal;letter-spacing:normal;word-spacing:normal;text-anchor:start;fill:none;fill-opacity:1;fill-rule:evenodd;stroke:#000000;stroke-linecap:butt;stroke-linejoin:miter;stroke-miterlimit:10.43299961;stroke-dasharray:none;stroke-dashoffset:0;stroke-opacity:1"
       ns0:preamble="/home/ken/.config/inkscape/textextpreamble.txt"
       ns0:text="$\\hat{c}$"
       word-spacing="normal"
       letter-spacing="normal"
       font-size-adjust="none"
       font-stretch="normal"
       font-weight="normal"
       font-variant="normal"
       font-style="normal"
       stroke-miterlimit="10.433"
       xml:space="preserve"
       transform="matrix(6.6916823,0,0,-6.9384546,-1571.2059,3729.2577)"
       id="g7027"><polygon
         style="fill:#000000;stroke-width:0"
         id="polygon7029"
         points="224.8,482.78 224.98,482.6 226.14,483.61 227.28,482.6 227.46,482.78 226.14,484.13 " /><path
         style="fill:#000000;stroke-width:0"
         inkscape:connector-curvature="0"
         id="path7031"
         d="M 227.37,481.01 227.34,481.01 227.31,481.01 227.28,481.01 227.26,481.01 227.23,481.01 227.2,481 227.19,481 227.17,481 227.16,481 227.15,480.99 227.13,480.99 227.12,480.99 227.11,480.98 227.09,480.98 227.08,480.97 227.07,480.96 227.05,480.96 227.04,480.95 227.03,480.94 227.01,480.94 227,480.93 226.99,480.92 226.97,480.91 226.96,480.9 226.95,480.88 226.93,480.87 C 226.77,480.72 226.76,480.55 226.76,480.48 226.76,480.24 226.93,480.14 227.12,480.14 227.41,480.14 227.68,480.37 227.68,480.77 227.68,481.26 227.21,481.63 226.51,481.63 225.16,481.63 223.84,480.2 223.84,478.8 223.84,477.91 224.42,477.13 225.45,477.13 226.87,477.13 227.71,478.18 227.71,478.3 227.71,478.36 227.65,478.43 227.59,478.43 227.54,478.43 227.52,478.41 227.46,478.33 226.68,477.34 225.59,477.34 225.47,477.34 224.85,477.34 224.58,477.83 224.58,478.43 224.58,478.83 224.77,479.8 225.11,480.41 225.42,480.98 225.97,481.41 226.52,481.41 226.85,481.41 227.23,481.28 227.37,481.01 Z" /></g>    <g
       id="g7253"
       transform="matrix(7.282151,0,0,-7.5506983,-1853.5829,4067.8062)"
       xml:space="preserve"
       stroke-miterlimit="10.433"
       font-style="normal"
       font-variant="normal"
       font-weight="normal"
       font-stretch="normal"
       font-size-adjust="none"
       letter-spacing="normal"
       word-spacing="normal"
       ns0:text="$\\hat{n}$"
       ns0:preamble="/home/ken/.config/inkscape/textextpreamble.txt"
       style="font-style:normal;font-variant:normal;font-weight:normal;font-stretch:normal;letter-spacing:normal;word-spacing:normal;text-anchor:start;fill:none;stroke:#000000;stroke-linecap:butt;stroke-linejoin:miter;stroke-miterlimit:10.43299961;stroke-dasharray:none;stroke-dashoffset:0;stroke-opacity:1"><polygon
         style="fill:#000000;stroke-width:0"
         points="226.42,483.61 227.56,482.6 227.74,482.78 226.42,484.13 225.09,482.78 225.26,482.6 "
         id="polygon7255" /><path
         style="fill:#000000;stroke-width:0"
         inkscape:connector-curvature="0"
         d="M 224.31,477.82 224.31,477.81 224.3,477.79 224.3,477.78 224.3,477.76 224.29,477.73 224.28,477.7 224.27,477.67 224.27,477.63 224.26,477.6 224.25,477.57 224.25,477.56 224.24,477.54 224.24,477.53 224.24,477.51 224.24,477.5 224.23,477.49 224.23,477.47 224.23,477.46 224.23,477.45 224.22,477.44 224.22,477.43 224.22,477.42 224.22,477.41 224.22,477.41 224.22,477.4 224.22,477.39 C 224.22,477.21 224.36,477.13 224.51,477.13 224.63,477.13 224.8,477.2 224.88,477.4 224.88,477.42 225,477.89 225.06,478.14 L 225.28,479.03 C 225.34,479.25 225.4,479.47 225.45,479.7 225.49,479.87 225.57,480.16 225.58,480.2 225.73,480.5 226.26,481.41 227.2,481.41 227.65,481.41 227.74,481.04 227.74,480.71 227.74,480.1 227.25,478.82 227.09,478.4 227,478.17 226.99,478.05 226.99,477.94 226.99,477.47 227.34,477.13 227.81,477.13 228.74,477.13 229.11,478.58 229.11,478.66 229.11,478.76 229.02,478.76 228.99,478.76 228.89,478.76 228.89,478.73 228.84,478.58 228.65,477.9 228.32,477.34 227.83,477.34 227.66,477.34 227.59,477.44 227.59,477.67 227.59,477.92 227.68,478.16 227.77,478.38 227.96,478.9 228.38,480 228.38,480.56 228.38,481.23 227.95,481.63 227.23,481.63 226.34,481.63 225.85,480.99 225.68,480.76 225.63,481.32 225.22,481.63 224.76,481.63 224.31,481.63 224.12,481.24 224.02,481.06 223.86,480.72 223.72,480.14 223.72,480.1 223.72,480 223.82,480 223.84,480 223.94,480 223.95,480.01 224.01,480.23 224.18,480.93 224.38,481.41 224.74,481.41 224.93,481.41 225.04,481.28 225.04,480.95 225.04,480.74 225.01,480.63 224.88,480.12 Z"
         id="path7257" /></g>    <g
       style="font-style:normal;font-variant:normal;font-weight:normal;font-stretch:normal;letter-spacing:normal;word-spacing:normal;text-anchor:start;fill:none;fill-opacity:1;fill-rule:evenodd;stroke:#000000;stroke-linecap:butt;stroke-linejoin:miter;stroke-miterlimit:10.43299961;stroke-dasharray:none;stroke-dashoffset:0;stroke-opacity:1"
       ns0:preamble="/home/ken/.config/inkscape/textextpreamble.txt"
       ns0:text="Twist Boundary: $\\hat{n}\\parallel \\hat{c}$"
       word-spacing="normal"
       letter-spacing="normal"
       font-size-adjust="none"
       font-stretch="normal"
       font-weight="normal"
       font-variant="normal"
       font-style="normal"
       stroke-miterlimit="10.433"
       xml:space="preserve"
       transform="matrix(4.7527939,0,0,-4.7527939,-671.08453,2431.6265)"
       id="g5823"><path
         id="path5825"
         d="M 230.06,483.96 223.98,483.96 223.79,481.73 224.04,481.73 C 224.18,483.32 224.33,483.65 225.83,483.65 226.01,483.65 226.27,483.65 226.37,483.63 226.58,483.59 226.58,483.48 226.58,483.26 L 226.58,478.02 C 226.58,477.68 226.58,477.54 225.53,477.54 L 225.13,477.54 225.13,477.23 C 225.54,477.27 226.56,477.27 227.01,477.27 227.47,477.27 228.5,477.27 228.9,477.23 L 228.9,477.54 228.51,477.54 C 227.46,477.54 227.46,477.68 227.46,478.02 L 227.46,483.26 C 227.46,483.45 227.46,483.59 227.64,483.63 227.75,483.65 228.02,483.65 228.21,483.65 229.71,483.65 229.86,483.32 230,481.73 L 230.25,481.73 Z"
         inkscape:connector-curvature="0"
         style="fill:#000000;stroke-width:0" /><path
         id="path5827"
         d="M 236.79,480.57 236.8,480.62 236.82,480.66 236.84,480.7 236.86,480.74 236.88,480.78 236.9,480.82 236.92,480.85 236.94,480.88 236.97,480.91 236.99,480.94 237.01,480.96 237.04,480.99 237.06,481.01 237.09,481.03 237.11,481.05 237.14,481.07 237.17,481.09 237.19,481.11 237.22,481.12 237.25,481.13 237.28,481.15 237.31,481.16 237.34,481.17 237.37,481.18 237.4,481.18 237.43,481.19 237.46,481.19 237.49,481.2 237.52,481.2 237.56,481.21 237.59,481.21 237.62,481.21 237.62,481.52 C 237.4,481.5 237.11,481.49 236.9,481.49 236.61,481.49 236.16,481.51 235.97,481.52 L 235.97,481.21 C 236.33,481.2 236.55,481.02 236.55,480.73 236.55,480.67 236.55,480.65 236.5,480.52 L 235.59,477.98 234.61,480.75 C 234.57,480.87 234.56,480.89 234.56,480.94 234.56,481.21 234.95,481.21 235.14,481.21 L 235.14,481.52 C 234.85,481.51 234.35,481.49 234.11,481.49 233.81,481.49 233.52,481.5 233.22,481.52 L 233.22,481.21 C 233.59,481.21 233.75,481.19 233.85,481.06 233.9,481 234.01,480.7 234.08,480.51 L 233.22,478.11 232.28,480.76 C 232.23,480.88 232.23,480.9 232.23,480.94 232.23,481.21 232.62,481.21 232.82,481.21 L 232.82,481.52 C 232.52,481.51 231.96,481.49 231.73,481.49 231.69,481.49 231.16,481.5 230.81,481.52 L 230.81,481.21 C 231.3,481.21 231.42,481.18 231.54,480.86 L 232.8,477.34 C 232.85,477.2 232.88,477.13 233.01,477.13 233.13,477.13 233.15,477.18 233.2,477.32 L 234.21,480.14 235.22,477.31 C 235.26,477.2 235.29,477.13 235.42,477.13 235.55,477.13 235.58,477.21 235.62,477.31 Z"
         inkscape:connector-curvature="0"
         style="fill:#000000;stroke-width:0" /><path
         id="path5829"
         d="M 239.58,481.63 238.19,481.52 238.19,481.21 C 238.84,481.21 238.93,481.15 238.93,480.66 L 238.93,477.99 C 238.93,477.54 238.82,477.54 238.15,477.54 L 238.15,477.23 C 238.47,477.24 239.01,477.27 239.24,477.27 239.59,477.27 239.94,477.24 240.28,477.23 L 240.28,477.54 C 239.62,477.54 239.58,477.59 239.58,477.98 Z"
         inkscape:connector-curvature="0"
         style="fill:#000000;stroke-width:0" /><path
         id="path5831"
         d="M 239.62,483.35 239.62,483.38 239.62,483.41 239.62,483.44 239.61,483.47 239.61,483.49 239.6,483.52 239.59,483.55 239.58,483.57 239.57,483.59 239.56,483.62 239.54,483.64 239.53,483.66 239.51,483.68 239.5,483.7 239.48,483.72 239.46,483.74 239.45,483.75 239.43,483.77 239.41,483.78 239.38,483.8 239.36,483.81 239.34,483.82 239.32,483.83 239.3,483.84 239.27,483.85 239.25,483.86 239.22,483.87 239.2,483.87 239.17,483.88 239.15,483.88 239.12,483.88 239.1,483.88 C 238.79,483.88 238.57,483.61 238.57,483.35 238.57,483.09 238.79,482.83 239.1,482.83 239.37,482.83 239.62,483.04 239.62,483.35 Z"
         inkscape:connector-curvature="0"
         style="fill:#000000;stroke-width:0" /><path
         id="path5833"
         d="M 242.66,479.16 242.68,479.16 242.71,479.15 242.74,479.15 242.77,479.14 242.8,479.13 242.84,479.12 242.87,479.11 242.91,479.1 242.95,479.09 243,479.08 243.04,479.06 243.08,479.04 243.13,479.03 243.17,479 243.21,478.98 243.26,478.96 243.3,478.93 243.34,478.9 243.38,478.87 243.42,478.84 243.46,478.81 243.5,478.77 243.53,478.73 243.56,478.69 243.59,478.64 243.6,478.62 243.62,478.59 243.63,478.57 243.64,478.54 243.65,478.52 243.66,478.49 243.67,478.46 243.67,478.44 243.68,478.41 243.68,478.38 243.69,478.35 243.69,478.31 243.69,478.28 243.69,478.25 C 243.69,477.74 243.35,477.34 242.57,477.34 241.73,477.34 241.38,477.91 241.19,478.76 241.16,478.88 241.15,478.92 241.05,478.92 240.92,478.92 240.92,478.85 240.92,478.67 L 240.92,477.36 C 240.92,477.2 240.92,477.13 241.03,477.13 241.08,477.13 241.09,477.14 241.28,477.32 241.3,477.34 241.3,477.36 241.48,477.55 241.91,477.14 242.36,477.13 242.57,477.13 243.71,477.13 244.17,477.79 244.17,478.51 244.17,479.03 243.87,479.33 243.75,479.45 243.43,479.77 243.04,479.85 242.62,479.93 242.06,480.04 241.4,480.17 241.4,480.74 241.4,481.09 241.65,481.5 242.51,481.5 243.6,481.5 243.65,480.6 243.67,480.3 243.68,480.2 243.77,480.2 243.79,480.2 243.92,480.2 243.92,480.26 243.92,480.44 L 243.92,481.45 C 243.92,481.62 243.92,481.68 243.81,481.68 243.76,481.68 243.74,481.68 243.61,481.57 243.58,481.53 243.49,481.44 243.45,481.41 243.07,481.68 242.66,481.68 242.51,481.68 241.3,481.68 240.92,481.02 240.92,480.46 240.92,480.12 241.08,479.84 241.35,479.62 241.66,479.36 241.94,479.3 242.66,479.16 Z"
         inkscape:connector-curvature="0"
         style="fill:#000000;stroke-width:0" /><path
         id="path5835"
         d="M 246.24,481.21 247.66,481.21 247.66,481.52 246.24,481.52 246.24,483.34 245.99,483.34 C 245.98,482.53 245.68,481.47 244.71,481.43 L 244.71,481.21 245.55,481.21 245.55,478.47 C 245.55,477.24 246.48,477.13 246.84,477.13 247.54,477.13 247.82,477.83 247.82,478.47 L 247.82,479.03 247.57,479.03 247.57,478.49 C 247.57,477.75 247.27,477.37 246.91,477.37 246.24,477.37 246.24,478.28 246.24,478.45 Z"
         inkscape:connector-curvature="0"
         style="fill:#000000;stroke-width:0" /><path
         id="path5837"
         d="M 256.27,480.78 256.36,480.8 256.44,480.82 256.53,480.85 256.62,480.87 256.7,480.9 256.78,480.93 256.86,480.97 256.93,481 257.01,481.04 257.08,481.08 257.15,481.12 257.21,481.16 257.28,481.21 257.34,481.26 257.4,481.31 257.46,481.36 257.51,481.41 257.56,481.46 257.61,481.52 257.65,481.57 257.69,481.63 257.73,481.69 257.77,481.75 257.8,481.81 257.82,481.88 257.85,481.94 257.87,482.01 257.89,482.07 257.9,482.14 257.91,482.2 257.92,482.27 257.92,482.34 C 257.92,483.2 257,484.02 255.71,484.02 L 255.64,483.71 C 256.61,483.71 256.95,482.87 256.95,482.34 256.95,481.7 256.47,480.87 255.36,480.87 L 253.92,480.87 253.92,480.65 255.79,480.65 C 256.77,480.65 257.19,479.73 257.19,479.06 257.19,478.36 256.67,477.54 255.65,477.54 L 255.65,477.54 254.41,477.54 C 253.94,477.54 253.92,477.61 253.92,477.94 L 253.92,480.65 253.92,480.87 253.92,483.32 C 253.92,483.64 253.94,483.71 254.41,483.71 L 255.64,483.71 255.71,484.02 252.07,484.02 252.07,483.71 252.31,483.71 C 253.07,483.71 253.09,483.6 253.09,483.24 L 253.09,478.01 C 253.09,477.65 253.07,477.54 252.31,477.54 L 252.07,477.54 252.07,477.23 255.97,477.23 C 257.29,477.23 258.19,478.12 258.19,479.05 258.19,479.92 257.37,480.66 256.27,480.78 Z"
         inkscape:connector-curvature="0"
         style="fill:#000000;stroke-width:0" /><path
         id="path5839"
         d="M 263.45,479.36 263.45,479.48 263.44,479.6 263.43,479.71 263.41,479.83 263.38,479.94 263.35,480.05 263.32,480.16 263.28,480.26 263.23,480.36 263.19,480.46 263.13,480.56 263.07,480.65 263.01,480.75 262.95,480.83 262.88,480.92 262.81,481 262.73,481.08 262.65,481.15 262.57,481.22 262.48,481.28 262.39,481.35 262.3,481.4 262.2,481.45 262.11,481.5 262.01,481.54 261.9,481.58 261.8,481.61 261.69,481.64 261.59,481.66 261.48,481.67 261.37,481.68 261.26,481.68 261.24,481.47 C 261.68,481.47 262.11,481.25 262.37,480.82 262.63,480.39 262.63,479.82 262.63,479.44 262.63,479.08 262.63,478.55 262.41,478.11 262.19,477.66 261.75,477.37 261.26,477.37 L 261.26,477.37 C 260.83,477.37 260.39,477.58 260.12,478.04 259.87,478.48 259.87,479.08 259.87,479.44 259.87,479.83 259.87,480.36 260.11,480.8 260.38,481.26 260.85,481.47 261.24,481.47 L 261.26,481.68 C 260.01,481.68 259.05,480.6 259.05,479.36 259.05,478.08 260.08,477.13 261.24,477.13 262.45,477.13 263.45,478.1 263.45,479.36 Z"
         inkscape:connector-curvature="0"
         style="fill:#000000;stroke-width:0" /><path
         id="path5841"
         d="M 267.64,478.02 267.64,477.13 269.07,477.23 269.07,477.54 C 268.38,477.54 268.3,477.61 268.3,478.1 L 268.3,481.63 266.83,481.52 266.83,481.21 C 267.53,481.21 267.61,481.14 267.61,480.65 L 267.61,478.88 C 267.61,478.02 267.13,477.34 266.4,477.34 265.57,477.34 265.53,477.81 265.53,478.33 L 265.53,481.63 264.07,481.52 264.07,481.21 C 264.84,481.21 264.84,481.18 264.84,480.3 L 264.84,478.8 C 264.84,478.03 264.84,477.13 266.36,477.13 266.91,477.13 267.35,477.4 267.64,478.02 Z"
         inkscape:connector-curvature="0"
         style="fill:#000000;stroke-width:0" /><path
         id="path5843"
         d="M 270.38,480.65 270.38,477.99 C 270.38,477.54 270.27,477.54 269.6,477.54 L 269.6,477.23 C 269.95,477.24 270.46,477.27 270.73,477.27 270.98,477.27 271.5,477.24 271.84,477.23 L 271.84,477.54 C 271.17,477.54 271.07,477.54 271.07,477.99 L 271.07,479.82 C 271.07,480.85 271.77,481.41 272.41,481.41 273.04,481.41 273.14,480.87 273.14,480.3 L 273.14,477.99 C 273.14,477.54 273.04,477.54 272.37,477.54 L 272.37,477.23 C 272.72,477.24 273.22,477.27 273.49,477.27 273.75,477.27 274.27,477.24 274.61,477.23 L 274.61,477.54 C 274.09,477.54 273.84,477.54 273.83,477.84 L 273.83,479.74 C 273.83,480.59 273.83,480.9 273.52,481.26 273.38,481.43 273.05,481.63 272.48,481.63 271.75,481.63 271.28,481.2 271.01,480.58 L 271.01,481.63 269.6,481.52 269.6,481.21 C 270.3,481.21 270.38,481.14 270.38,480.65 Z"
         inkscape:connector-curvature="0"
         style="fill:#000000;stroke-width:0" /><path
         id="path5845"
         d="M 278.6,477.78 278.6,477.13 280.06,477.23 280.06,477.54 C 279.37,477.54 279.29,477.61 279.29,478.1 L 279.29,484.13 277.85,484.02 277.85,483.71 C 278.55,483.71 278.63,483.64 278.63,483.16 L 278.63,481.01 C 278.34,481.37 277.91,481.63 277.38,481.63 L 277.42,481.41 C 277.76,481.41 278.18,481.26 278.49,480.81 278.6,480.64 278.6,480.62 278.6,480.44 L 278.6,480.44 278.6,478.41 C 278.6,478.23 278.6,478.21 278.49,478.04 278.19,477.56 277.74,477.34 277.32,477.34 276.87,477.34 276.51,477.6 276.27,477.98 276.01,478.39 275.98,478.95 275.98,479.36 275.98,479.73 276,480.32 276.29,480.77 276.5,481.08 276.88,481.41 277.42,481.41 L 277.38,481.63 C 276.2,481.63 275.16,480.65 275.16,479.37 275.16,478.11 276.13,477.13 277.27,477.13 277.9,477.13 278.35,477.46 278.6,477.78 Z"
         inkscape:connector-curvature="0"
         style="fill:#000000;stroke-width:0" /><path
         id="path5847"
         d="M 283.67,477.99 283.67,477.95 283.68,477.92 283.68,477.88 283.69,477.84 283.7,477.8 283.71,477.77 283.73,477.73 283.74,477.7 283.75,477.66 283.77,477.63 283.79,477.59 283.81,477.56 283.83,477.53 283.85,477.49 283.87,477.46 283.89,477.43 283.92,477.41 283.95,477.38 283.97,477.35 284,477.33 284.03,477.31 284.06,477.28 284.1,477.26 284.13,477.25 284.17,477.23 284.2,477.22 284.24,477.2 284.28,477.19 284.32,477.19 284.36,477.18 284.4,477.18 284.44,477.17 C 284.65,477.17 285.26,477.31 285.26,478.12 L 285.26,478.67 285.01,478.67 285.01,478.12 C 285.01,477.54 284.76,477.48 284.65,477.48 284.32,477.48 284.28,477.93 284.28,477.98 L 284.28,479.97 C 284.28,480.38 284.28,480.77 283.93,481.14 283.54,481.53 283.04,481.68 282.56,481.68 281.75,481.68 281.06,481.22 281.06,480.56 281.06,480.27 281.26,480.1 281.52,480.1 281.8,480.1 281.98,480.3 281.98,480.55 281.98,480.67 281.93,481 281.47,481.01 281.74,481.36 282.23,481.47 282.54,481.47 283.03,481.47 283.6,481.08 283.6,480.2 L 283.6,479.83 283.6,479.62 283.6,478.63 C 283.6,477.68 282.88,477.34 282.43,477.34 281.95,477.34 281.54,477.69 281.54,478.19 281.54,478.73 281.96,479.56 283.6,479.62 L 283.6,479.62 283.6,479.83 C 283.09,479.8 282.39,479.77 281.77,479.47 281.02,479.13 280.77,478.62 280.77,478.18 280.77,477.37 281.74,477.13 282.36,477.13 283.02,477.13 283.48,477.52 283.67,477.99 Z"
         inkscape:connector-curvature="0"
         style="fill:#000000;stroke-width:0" /><path
         id="path5849"
         d="M 287,480.53 287,481.63 285.61,481.52 285.61,481.21 C 286.31,481.21 286.39,481.14 286.39,480.65 L 286.39,477.99 C 286.39,477.54 286.28,477.54 285.61,477.54 L 285.61,477.23 C 286,477.24 286.47,477.27 286.75,477.27 287.15,477.27 287.61,477.27 288.01,477.23 L 288.01,477.54 287.8,477.54 C 287.07,477.54 287.05,477.65 287.05,478.01 L 287.05,479.54 C 287.05,480.52 287.46,481.41 288.22,481.41 288.29,481.41 288.31,481.41 288.33,481.4 288.3,481.39 288.1,481.27 288.1,481.01 288.1,480.73 288.31,480.58 288.53,480.58 288.71,480.58 288.96,480.7 288.96,481.02 288.96,481.34 288.65,481.63 288.22,481.63 287.49,481.63 287.14,480.96 287,480.53 Z"
         inkscape:connector-curvature="0"
         style="fill:#000000;stroke-width:0" /><path
         id="path5851"
         d="M 293.37,480.57 293.38,480.6 293.39,480.63 293.4,480.66 293.42,480.68 293.43,480.71 293.45,480.73 293.46,480.76 293.47,480.78 293.5,480.82 293.53,480.86 293.57,480.9 293.6,480.94 293.63,480.97 293.66,481 293.7,481.02 293.73,481.05 293.77,481.07 293.8,481.09 293.83,481.11 293.87,481.13 293.9,481.14 293.93,481.15 293.97,481.16 294,481.17 294.03,481.18 294.06,481.19 294.09,481.19 294.12,481.2 294.14,481.2 294.17,481.2 294.19,481.21 294.22,481.21 294.24,481.21 294.26,481.21 294.28,481.21 294.29,481.21 294.29,481.52 C 294.06,481.5 293.77,481.49 293.55,481.49 293.37,481.49 292.9,481.51 292.68,481.52 L 292.68,481.21 C 292.99,481.2 293.15,481.03 293.15,480.78 293.15,480.68 293.14,480.66 293.09,480.54 L 292.08,478.1 290.98,480.77 C 290.94,480.87 290.92,480.91 290.92,480.95 290.92,481.21 291.29,481.21 291.48,481.21 L 291.48,481.52 C 291.22,481.51 290.56,481.49 290.39,481.49 290.12,481.49 289.73,481.5 289.43,481.52 L 289.43,481.21 C 289.9,481.21 290.09,481.21 290.23,480.86 L 291.73,477.23 C 291.67,477.11 291.54,476.78 291.48,476.65 291.26,476.1 290.98,475.42 290.34,475.42 290.29,475.42 290.06,475.42 289.88,475.6 290.18,475.64 290.26,475.85 290.26,476.01 290.26,476.27 290.07,476.43 289.85,476.43 289.65,476.43 289.43,476.3 289.43,476 289.43,475.56 289.85,475.2 290.34,475.2 290.97,475.2 291.38,475.77 291.62,476.33 Z"
         inkscape:connector-curvature="0"
         style="fill:#000000;stroke-width:0" /><path
         id="path5853"
         d="M 296.41,480.99 296.41,481.02 296.4,481.04 296.4,481.07 296.4,481.1 296.39,481.12 296.38,481.15 296.37,481.17 296.36,481.19 296.35,481.22 296.34,481.24 296.33,481.26 296.32,481.28 296.3,481.3 296.28,481.32 296.27,481.34 296.25,481.36 296.23,481.38 296.21,481.4 296.19,481.41 296.17,481.43 296.15,481.44 296.13,481.45 296.11,481.46 296.08,481.47 296.06,481.48 296.03,481.49 296.01,481.5 295.98,481.51 295.96,481.51 295.93,481.51 295.91,481.52 295.88,481.52 C 295.59,481.52 295.35,481.28 295.35,480.99 295.35,480.7 295.59,480.46 295.88,480.46 296.17,480.46 296.41,480.7 296.41,480.99 Z"
         inkscape:connector-curvature="0"
         style="fill:#000000;stroke-width:0" /><path
         id="path5855"
         d="M 296.41,477.76 296.41,477.79 296.4,477.82 296.4,477.84 296.4,477.87 296.39,477.89 296.38,477.92 296.37,477.94 296.36,477.97 296.35,477.99 296.34,478.01 296.33,478.03 296.32,478.05 296.3,478.08 296.28,478.1 296.27,478.11 296.25,478.13 296.23,478.15 296.21,478.17 296.19,478.18 296.17,478.2 296.15,478.21 296.13,478.22 296.11,478.24 296.08,478.25 296.06,478.26 296.03,478.26 296.01,478.27 295.98,478.28 295.96,478.28 295.93,478.29 295.91,478.29 295.88,478.29 C 295.59,478.29 295.35,478.05 295.35,477.76 295.35,477.47 295.59,477.23 295.88,477.23 296.17,477.23 296.41,477.47 296.41,477.76 Z"
         inkscape:connector-curvature="0"
         style="fill:#000000;stroke-width:0" /><polygon
         id="polygon5857"
         points="305.83,482.6 306.01,482.78 304.68,484.13 303.35,482.78 303.53,482.6 304.68,483.61 "
         style="fill:#000000;stroke-width:0" /><path
         id="path5859"
         d="M 302.57,477.82 302.57,477.81 302.56,477.79 302.56,477.78 302.56,477.76 302.55,477.73 302.54,477.7 302.54,477.67 302.53,477.63 302.52,477.6 302.51,477.57 302.51,477.56 302.51,477.54 302.5,477.53 302.5,477.51 302.5,477.5 302.49,477.49 302.49,477.47 302.49,477.46 302.49,477.45 302.49,477.44 302.48,477.43 302.48,477.42 302.48,477.41 302.48,477.41 302.48,477.4 302.48,477.39 C 302.48,477.21 302.62,477.13 302.77,477.13 302.89,477.13 303.07,477.2 303.14,477.4 303.15,477.42 303.27,477.89 303.33,478.14 L 303.54,479.03 C 303.6,479.25 303.66,479.47 303.71,479.7 303.75,479.87 303.83,480.16 303.84,480.2 303.99,480.5 304.52,481.41 305.46,481.41 305.91,481.41 306,481.04 306,480.71 306,480.1 305.52,478.82 305.36,478.4 305.27,478.17 305.26,478.05 305.26,477.94 305.26,477.47 305.6,477.13 306.07,477.13 307.01,477.13 307.38,478.58 307.38,478.66 307.38,478.76 307.29,478.76 307.26,478.76 307.16,478.76 307.16,478.73 307.11,478.58 306.91,477.9 306.58,477.34 306.09,477.34 305.92,477.34 305.85,477.44 305.85,477.67 305.85,477.92 305.94,478.16 306.03,478.38 306.22,478.9 306.64,480 306.64,480.56 306.64,481.23 306.21,481.63 305.49,481.63 304.6,481.63 304.11,480.99 303.94,480.76 303.89,481.32 303.48,481.63 303.03,481.63 302.57,481.63 302.38,481.24 302.28,481.06 302.12,480.72 301.98,480.14 301.98,480.1 301.98,480 302.08,480 302.1,480 302.2,480 302.21,480.01 302.27,480.23 302.44,480.93 302.64,481.41 303,481.41 303.2,481.41 303.31,481.28 303.31,480.95 303.31,480.74 303.28,480.63 303.15,480.12 Z"
         inkscape:connector-curvature="0"
         style="fill:#000000;stroke-width:0" /><path
         id="path5861"
         d="M 312.15,484.35 312.15,484.38 312.15,484.41 312.15,484.44 312.15,484.45 312.15,484.47 312.15,484.48 312.15,484.5 312.14,484.51 312.14,484.52 312.14,484.54 312.14,484.55 312.13,484.56 312.13,484.58 312.12,484.59 312.12,484.6 312.11,484.61 312.1,484.62 312.1,484.63 312.09,484.64 312.08,484.65 312.07,484.65 312.06,484.66 312.06,484.66 312.05,484.66 312.05,484.67 312.04,484.67 312.03,484.67 312.03,484.67 312.02,484.68 312.01,484.68 312,484.68 312,484.68 311.99,484.68 311.98,484.68 311.97,484.68 311.96,484.68 311.95,484.68 C 311.76,484.68 311.76,484.47 311.76,484.32 L 311.76,475.12 C 311.76,474.96 311.76,474.75 311.95,474.75 312.15,474.75 312.15,474.93 312.15,475.09 Z"
         inkscape:connector-curvature="0"
         style="fill:#000000;stroke-width:0" /><path
         id="path5863"
         d="M 314.09,484.32 314.09,484.35 314.09,484.38 314.09,484.41 314.09,484.44 314.09,484.46 314.09,484.47 314.08,484.49 314.08,484.5 314.08,484.52 314.08,484.53 314.07,484.55 314.07,484.56 314.06,484.57 314.06,484.59 314.05,484.6 314.04,484.61 314.04,484.62 314.03,484.63 314.02,484.64 314.01,484.65 314,484.65 314,484.66 313.99,484.66 313.99,484.66 313.98,484.67 313.97,484.67 313.97,484.67 313.96,484.68 313.95,484.68 313.94,484.68 313.94,484.68 313.93,484.68 313.92,484.68 313.91,484.68 313.9,484.68 313.89,484.68 C 313.7,484.68 313.7,484.51 313.7,484.35 L 313.7,475.09 C 313.7,474.93 313.7,474.75 313.89,474.75 314.09,474.75 314.09,474.97 314.09,475.12 Z"
         inkscape:connector-curvature="0"
         style="fill:#000000;stroke-width:0" /><polygon
         id="polygon5865"
         points="322.04,482.6 322.22,482.78 320.9,484.13 319.56,482.78 319.74,482.6 320.9,483.61 "
         style="fill:#000000;stroke-width:0" /><path
         id="path5867"
         d="M 322.13,481.01 322.1,481.01 322.07,481.01 322.04,481.01 322.01,481.01 321.99,481.01 321.96,481 321.94,481 321.93,481 321.92,481 321.9,480.99 321.89,480.99 321.88,480.99 321.86,480.98 321.85,480.98 321.84,480.97 321.82,480.96 321.81,480.96 321.8,480.95 321.78,480.94 321.77,480.94 321.76,480.93 321.74,480.92 321.73,480.91 321.72,480.9 321.71,480.88 321.69,480.87 C 321.53,480.72 321.51,480.55 321.51,480.48 321.51,480.24 321.69,480.14 321.88,480.14 322.17,480.14 322.44,480.37 322.44,480.77 322.44,481.26 321.97,481.63 321.26,481.63 319.92,481.63 318.6,480.2 318.6,478.8 318.6,477.91 319.17,477.13 320.21,477.13 321.63,477.13 322.47,478.18 322.47,478.3 322.47,478.36 322.41,478.43 322.35,478.43 322.3,478.43 322.28,478.41 322.22,478.33 321.43,477.34 320.35,477.34 320.23,477.34 319.6,477.34 319.33,477.83 319.33,478.43 319.33,478.83 319.53,479.8 319.87,480.41 320.18,480.98 320.73,481.41 321.27,481.41 321.61,481.41 321.99,481.28 322.13,481.01 Z"
         inkscape:connector-curvature="0"
         style="fill:#000000;stroke-width:0" /></g>    <g
       style="font-style:normal;font-variant:normal;font-weight:normal;font-stretch:normal;letter-spacing:normal;word-spacing:normal;text-anchor:start;fill:none;fill-opacity:1;fill-rule:evenodd;stroke:#000000;stroke-linecap:butt;stroke-linejoin:miter;stroke-miterlimit:10.43299961;stroke-dasharray:none;stroke-dashoffset:0;stroke-opacity:1"
       ns0:preamble="/home/ken/.config/inkscape/textextpreamble.txt"
       ns0:text="Tilt Boundary: $\\hat{n}\\perp \\hat{c}$"
       word-spacing="normal"
       letter-spacing="normal"
       font-size-adjust="none"
       font-stretch="normal"
       font-weight="normal"
       font-variant="normal"
       font-style="normal"
       stroke-miterlimit="10.433"
       xml:space="preserve"
       transform="matrix(4.9130948,0,0,-4.9130948,-1335.3578,2507.8503)"
       id="g6349"><path
         id="path6351"
         d="M 230.06,483.96 223.98,483.96 223.79,481.73 224.04,481.73 C 224.18,483.32 224.33,483.65 225.83,483.65 226.01,483.65 226.27,483.65 226.37,483.63 226.58,483.59 226.58,483.48 226.58,483.26 L 226.58,478.02 C 226.58,477.68 226.58,477.54 225.53,477.54 L 225.13,477.54 225.13,477.23 C 225.54,477.27 226.56,477.27 227.01,477.27 227.47,477.27 228.5,477.27 228.9,477.23 L 228.9,477.54 228.51,477.54 C 227.46,477.54 227.46,477.68 227.46,478.02 L 227.46,483.26 C 227.46,483.45 227.46,483.59 227.64,483.63 227.75,483.65 228.02,483.65 228.21,483.65 229.71,483.65 229.86,483.32 230,481.73 L 230.25,481.73 Z"
         inkscape:connector-curvature="0"
         style="fill:#000000;stroke-width:0" /><path
         id="path6353"
         d="M 232.39,481.63 230.99,481.52 230.99,481.21 C 231.64,481.21 231.73,481.15 231.73,480.66 L 231.73,477.99 C 231.73,477.54 231.62,477.54 230.96,477.54 L 230.96,477.23 C 231.27,477.24 231.81,477.27 232.05,477.27 232.4,477.27 232.75,477.24 233.08,477.23 L 233.08,477.54 C 232.43,477.54 232.39,477.59 232.39,477.98 Z"
         inkscape:connector-curvature="0"
         style="fill:#000000;stroke-width:0" /><path
         id="path6355"
         d="M 232.43,483.35 232.43,483.38 232.43,483.41 232.42,483.44 232.42,483.47 232.41,483.49 232.4,483.52 232.39,483.55 232.38,483.57 232.37,483.59 232.36,483.62 232.35,483.64 232.33,483.66 232.32,483.68 232.3,483.7 232.29,483.72 232.27,483.74 232.25,483.75 232.23,483.77 232.21,483.78 232.19,483.8 232.17,483.81 232.15,483.82 232.12,483.83 232.1,483.84 232.08,483.85 232.05,483.86 232.03,483.87 232,483.87 231.98,483.88 231.95,483.88 231.93,483.88 231.9,483.88 C 231.59,483.88 231.37,483.61 231.37,483.35 231.37,483.09 231.59,482.83 231.9,482.83 232.18,482.83 232.43,483.04 232.43,483.35 Z"
         inkscape:connector-curvature="0"
         style="fill:#000000;stroke-width:0" /><path
         id="path6357"
         d="M 235.16,484.13 233.72,484.02 233.72,483.71 C 234.42,483.71 234.5,483.64 234.5,483.16 L 234.5,477.99 C 234.5,477.54 234.39,477.54 233.72,477.54 L 233.72,477.23 C 234.05,477.24 234.58,477.27 234.83,477.27 235.08,477.27 235.56,477.24 235.93,477.23 L 235.93,477.54 C 235.26,477.54 235.16,477.54 235.16,477.99 Z"
         inkscape:connector-curvature="0"
         style="fill:#000000;stroke-width:0" /><path
         id="path6359"
         d="M 237.88,481.21 239.31,481.21 239.31,481.52 237.88,481.52 237.88,483.34 237.63,483.34 C 237.62,482.53 237.33,481.47 236.35,481.43 L 236.35,481.21 237.2,481.21 237.2,478.47 C 237.2,477.24 238.12,477.13 238.48,477.13 239.19,477.13 239.46,477.83 239.46,478.47 L 239.46,479.03 239.22,479.03 239.22,478.49 C 239.22,477.75 238.92,477.37 238.55,477.37 237.88,477.37 237.88,478.28 237.88,478.45 Z"
         inkscape:connector-curvature="0"
         style="fill:#000000;stroke-width:0" /><path
         id="path6361"
         d="M 247.91,480.78 248,480.8 248.09,480.82 248.17,480.85 248.26,480.87 248.34,480.9 248.42,480.93 248.5,480.97 248.58,481 248.65,481.04 248.72,481.08 248.79,481.12 248.86,481.16 248.92,481.21 248.98,481.26 249.04,481.31 249.1,481.36 249.15,481.41 249.2,481.46 249.25,481.52 249.29,481.57 249.34,481.63 249.37,481.69 249.41,481.75 249.44,481.81 249.47,481.88 249.49,481.94 249.51,482.01 249.53,482.07 249.55,482.14 249.56,482.2 249.56,482.27 249.56,482.34 C 249.56,483.2 248.65,484.02 247.35,484.02 L 247.28,483.71 C 248.25,483.71 248.6,482.87 248.6,482.34 248.6,481.7 248.11,480.87 247.01,480.87 L 245.56,480.87 245.56,480.65 247.43,480.65 C 248.42,480.65 248.84,479.73 248.84,479.06 248.84,478.36 248.32,477.54 247.29,477.54 L 247.29,477.54 246.05,477.54 C 245.58,477.54 245.56,477.61 245.56,477.94 L 245.56,480.65 245.56,480.87 245.56,483.32 C 245.56,483.64 245.58,483.71 246.05,483.71 L 247.28,483.71 247.35,484.02 243.71,484.02 243.71,483.71 243.95,483.71 C 244.72,483.71 244.74,483.6 244.74,483.24 L 244.74,478.01 C 244.74,477.65 244.72,477.54 243.95,477.54 L 243.71,477.54 243.71,477.23 247.61,477.23 C 248.94,477.23 249.83,478.12 249.83,479.05 249.83,479.92 249.01,480.66 247.91,480.78 Z"
         inkscape:connector-curvature="0"
         style="fill:#000000;stroke-width:0" /><path
         id="path6363"
         d="M 255.1,479.36 255.09,479.48 255.09,479.6 255.07,479.71 255.05,479.83 255.03,479.94 255,480.05 254.96,480.16 254.92,480.26 254.88,480.36 254.83,480.46 254.78,480.56 254.72,480.65 254.66,480.75 254.59,480.83 254.52,480.92 254.45,481 254.37,481.08 254.29,481.15 254.21,481.22 254.12,481.28 254.03,481.35 253.94,481.4 253.85,481.45 253.75,481.5 253.65,481.54 253.55,481.58 253.44,481.61 253.34,481.64 253.23,481.66 253.12,481.67 253.01,481.68 252.9,481.68 252.89,481.47 C 253.33,481.47 253.75,481.25 254.01,480.82 254.27,480.39 254.27,479.82 254.27,479.44 254.27,479.08 254.27,478.55 254.05,478.11 253.83,477.66 253.4,477.37 252.9,477.37 L 252.9,477.37 C 252.47,477.37 252.03,477.58 251.76,478.04 251.51,478.48 251.51,479.08 251.51,479.44 251.51,479.83 251.51,480.36 251.75,480.8 252.02,481.26 252.49,481.47 252.89,481.47 L 252.9,481.68 C 251.65,481.68 250.69,480.6 250.69,479.36 250.69,478.08 251.72,477.13 252.89,477.13 254.09,477.13 255.1,478.1 255.1,479.36 Z"
         inkscape:connector-curvature="0"
         style="fill:#000000;stroke-width:0" /><path
         id="path6365"
         d="M 259.28,478.02 259.28,477.13 260.71,477.23 260.71,477.54 C 260.02,477.54 259.94,477.61 259.94,478.1 L 259.94,481.63 258.48,481.52 258.48,481.21 C 259.17,481.21 259.25,481.14 259.25,480.65 L 259.25,478.88 C 259.25,478.02 258.77,477.34 258.05,477.34 257.21,477.34 257.17,477.81 257.17,478.33 L 257.17,481.63 255.71,481.52 255.71,481.21 C 256.49,481.21 256.49,481.18 256.49,480.3 L 256.49,478.8 C 256.49,478.03 256.49,477.13 258,477.13 258.56,477.13 258.99,477.4 259.28,478.02 Z"
         inkscape:connector-curvature="0"
         style="fill:#000000;stroke-width:0" /><path
         id="path6367"
         d="M 262.02,480.65 262.02,477.99 C 262.02,477.54 261.91,477.54 261.25,477.54 L 261.25,477.23 C 261.59,477.24 262.1,477.27 262.37,477.27 262.63,477.27 263.15,477.24 263.48,477.23 L 263.48,477.54 C 262.82,477.54 262.71,477.54 262.71,477.99 L 262.71,479.82 C 262.71,480.85 263.41,481.41 264.05,481.41 264.68,481.41 264.79,480.87 264.79,480.3 L 264.79,477.99 C 264.79,477.54 264.68,477.54 264.01,477.54 L 264.01,477.23 C 264.36,477.24 264.87,477.27 265.14,477.27 265.39,477.27 265.91,477.24 266.25,477.23 L 266.25,477.54 C 265.73,477.54 265.48,477.54 265.47,477.84 L 265.47,479.74 C 265.47,480.59 265.47,480.9 265.17,481.26 265.03,481.43 264.7,481.63 264.12,481.63 263.39,481.63 262.93,481.2 262.65,480.58 L 262.65,481.63 261.25,481.52 261.25,481.21 C 261.94,481.21 262.02,481.14 262.02,480.65 Z"
         inkscape:connector-curvature="0"
         style="fill:#000000;stroke-width:0" /><path
         id="path6369"
         d="M 270.24,477.78 270.24,477.13 271.71,477.23 271.71,477.54 C 271.01,477.54 270.93,477.61 270.93,478.1 L 270.93,484.13 269.5,484.02 269.5,483.71 C 270.19,483.71 270.27,483.64 270.27,483.16 L 270.27,481.01 C 269.98,481.37 269.56,481.63 269.02,481.63 L 269.06,481.41 C 269.41,481.41 269.83,481.26 270.13,480.81 270.24,480.64 270.24,480.62 270.24,480.44 L 270.24,480.44 270.24,478.41 C 270.24,478.23 270.24,478.21 270.13,478.04 269.83,477.56 269.39,477.34 268.96,477.34 268.51,477.34 268.15,477.6 267.92,477.98 267.66,478.39 267.63,478.95 267.63,479.36 267.63,479.73 267.65,480.32 267.93,480.77 268.14,481.08 268.52,481.41 269.06,481.41 L 269.02,481.63 C 267.85,481.63 266.8,480.65 266.8,479.37 266.8,478.11 267.78,477.13 268.91,477.13 269.55,477.13 269.99,477.46 270.24,477.78 Z"
         inkscape:connector-curvature="0"
         style="fill:#000000;stroke-width:0" /><path
         id="path6371"
         d="M 275.31,477.99 275.32,477.95 275.32,477.92 275.33,477.88 275.34,477.84 275.35,477.8 275.36,477.77 275.37,477.73 275.38,477.7 275.4,477.66 275.41,477.63 275.43,477.59 275.45,477.56 275.47,477.53 275.49,477.49 275.51,477.46 275.54,477.43 275.56,477.41 275.59,477.38 275.62,477.35 275.65,477.33 275.68,477.31 275.71,477.28 275.74,477.26 275.77,477.25 275.81,477.23 275.84,477.22 275.88,477.2 275.92,477.19 275.96,477.19 276,477.18 276.04,477.18 276.09,477.17 C 276.3,477.17 276.9,477.31 276.9,478.12 L 276.9,478.67 276.65,478.67 276.65,478.12 C 276.65,477.54 276.4,477.48 276.3,477.48 275.97,477.48 275.93,477.93 275.93,477.98 L 275.93,479.97 C 275.93,480.38 275.93,480.77 275.57,481.14 275.18,481.53 274.68,481.68 274.21,481.68 273.39,481.68 272.7,481.22 272.7,480.56 272.7,480.27 272.9,480.1 273.16,480.1 273.44,480.1 273.62,480.3 273.62,480.55 273.62,480.67 273.57,481 273.11,481.01 273.38,481.36 273.87,481.47 274.19,481.47 274.67,481.47 275.24,481.08 275.24,480.2 L 275.24,479.83 275.24,479.62 275.24,478.63 C 275.24,477.68 274.52,477.34 274.08,477.34 273.59,477.34 273.18,477.69 273.18,478.19 273.18,478.73 273.6,479.56 275.24,479.62 L 275.24,479.62 275.24,479.83 C 274.73,479.8 274.04,479.77 273.41,479.47 272.66,479.13 272.42,478.62 272.42,478.18 272.42,477.37 273.38,477.13 274.01,477.13 274.66,477.13 275.12,477.52 275.31,477.99 Z"
         inkscape:connector-curvature="0"
         style="fill:#000000;stroke-width:0" /><path
         id="path6373"
         d="M 278.64,480.53 278.64,481.63 277.26,481.52 277.26,481.21 C 277.95,481.21 278.03,481.14 278.03,480.65 L 278.03,477.99 C 278.03,477.54 277.92,477.54 277.26,477.54 L 277.26,477.23 C 277.64,477.24 278.11,477.27 278.39,477.27 278.79,477.27 279.26,477.27 279.65,477.23 L 279.65,477.54 279.45,477.54 C 278.71,477.54 278.69,477.65 278.69,478.01 L 278.69,479.54 C 278.69,480.52 279.11,481.41 279.86,481.41 279.93,481.41 279.95,481.41 279.97,481.4 279.94,481.39 279.74,481.27 279.74,481.01 279.74,480.73 279.95,480.58 280.17,480.58 280.35,480.58 280.6,480.7 280.6,481.02 280.6,481.34 280.29,481.63 279.86,481.63 279.14,481.63 278.78,480.96 278.64,480.53 Z"
         inkscape:connector-curvature="0"
         style="fill:#000000;stroke-width:0" /><path
         id="path6375"
         d="M 285.01,480.57 285.02,480.6 285.03,480.63 285.05,480.66 285.06,480.68 285.07,480.71 285.09,480.73 285.1,480.76 285.12,480.78 285.15,480.82 285.18,480.86 285.21,480.9 285.24,480.94 285.27,480.97 285.31,481 285.34,481.02 285.37,481.05 285.41,481.07 285.44,481.09 285.48,481.11 285.51,481.13 285.54,481.14 285.58,481.15 285.61,481.16 285.64,481.17 285.67,481.18 285.7,481.19 285.73,481.19 285.76,481.2 285.79,481.2 285.81,481.2 285.84,481.21 285.86,481.21 285.88,481.21 285.9,481.21 285.92,481.21 285.93,481.21 285.93,481.52 C 285.71,481.5 285.42,481.49 285.19,481.49 285.01,481.49 284.54,481.51 284.32,481.52 L 284.32,481.21 C 284.63,481.2 284.79,481.03 284.79,480.78 284.79,480.68 284.78,480.66 284.73,480.54 L 283.73,478.1 282.62,480.77 C 282.58,480.87 282.56,480.91 282.56,480.95 282.56,481.21 282.93,481.21 283.12,481.21 L 283.12,481.52 C 282.86,481.51 282.2,481.49 282.04,481.49 281.77,481.49 281.37,481.5 281.07,481.52 L 281.07,481.21 C 281.55,481.21 281.74,481.21 281.88,480.86 L 283.37,477.23 C 283.32,477.11 283.18,476.78 283.12,476.65 282.9,476.1 282.62,475.42 281.99,475.42 281.94,475.42 281.71,475.42 281.52,475.6 281.83,475.64 281.91,475.85 281.91,476.01 281.91,476.27 281.72,476.43 281.49,476.43 281.29,476.43 281.07,476.3 281.07,476 281.07,475.56 281.49,475.2 281.99,475.2 282.61,475.2 283.02,475.77 283.26,476.33 Z"
         inkscape:connector-curvature="0"
         style="fill:#000000;stroke-width:0" /><path
         id="path6377"
         d="M 288.05,480.99 288.05,481.02 288.05,481.04 288.04,481.07 288.04,481.1 288.03,481.12 288.03,481.15 288.02,481.17 288.01,481.19 288,481.22 287.99,481.24 287.97,481.26 287.96,481.28 287.94,481.3 287.93,481.32 287.91,481.34 287.89,481.36 287.88,481.38 287.86,481.4 287.84,481.41 287.82,481.43 287.79,481.44 287.77,481.45 287.75,481.46 287.73,481.47 287.7,481.48 287.68,481.49 287.65,481.5 287.63,481.51 287.6,481.51 287.58,481.51 287.55,481.52 287.52,481.52 C 287.23,481.52 286.99,481.28 286.99,480.99 286.99,480.7 287.23,480.46 287.52,480.46 287.81,480.46 288.05,480.7 288.05,480.99 Z"
         inkscape:connector-curvature="0"
         style="fill:#000000;stroke-width:0" /><path
         id="path6379"
         d="M 288.05,477.76 288.05,477.79 288.05,477.82 288.04,477.84 288.04,477.87 288.03,477.89 288.03,477.92 288.02,477.94 288.01,477.97 288,477.99 287.99,478.01 287.97,478.03 287.96,478.05 287.94,478.08 287.93,478.1 287.91,478.11 287.89,478.13 287.88,478.15 287.86,478.17 287.84,478.18 287.82,478.2 287.79,478.21 287.77,478.22 287.75,478.24 287.73,478.25 287.7,478.26 287.68,478.26 287.65,478.27 287.63,478.28 287.6,478.28 287.58,478.29 287.55,478.29 287.52,478.29 C 287.23,478.29 286.99,478.05 286.99,477.76 286.99,477.47 287.23,477.23 287.52,477.23 287.81,477.23 288.05,477.47 288.05,477.76 Z"
         inkscape:connector-curvature="0"
         style="fill:#000000;stroke-width:0" /><polygon
         id="polygon6381"
         points="297.47,482.6 297.65,482.78 296.33,484.13 294.99,482.78 295.17,482.6 296.33,483.61 "
         style="fill:#000000;stroke-width:0" /><path
         id="path6383"
         d="M 294.21,477.82 294.21,477.81 294.21,477.79 294.2,477.78 294.2,477.76 294.19,477.73 294.19,477.7 294.18,477.67 294.17,477.63 294.16,477.6 294.16,477.57 294.15,477.56 294.15,477.54 294.15,477.53 294.14,477.51 294.14,477.5 294.14,477.49 294.14,477.47 294.13,477.46 294.13,477.45 294.13,477.44 294.13,477.43 294.13,477.42 294.12,477.41 294.12,477.41 294.12,477.4 294.12,477.39 C 294.12,477.21 294.26,477.13 294.41,477.13 294.53,477.13 294.71,477.2 294.78,477.4 294.79,477.42 294.91,477.89 294.97,478.14 L 295.19,479.03 C 295.25,479.25 295.31,479.47 295.36,479.7 295.4,479.87 295.48,480.16 295.49,480.2 295.64,480.5 296.16,481.41 297.11,481.41 297.56,481.41 297.64,481.04 297.64,480.71 297.64,480.1 297.16,478.82 297,478.4 296.91,478.17 296.9,478.05 296.9,477.94 296.9,477.47 297.25,477.13 297.71,477.13 298.65,477.13 299.02,478.58 299.02,478.66 299.02,478.76 298.93,478.76 298.9,478.76 298.8,478.76 298.8,478.73 298.75,478.58 298.55,477.9 298.22,477.34 297.73,477.34 297.57,477.34 297.5,477.44 297.5,477.67 297.5,477.92 297.58,478.16 297.67,478.38 297.86,478.9 298.28,480 298.28,480.56 298.28,481.23 297.85,481.63 297.14,481.63 296.24,481.63 295.76,480.99 295.58,480.76 295.54,481.32 295.13,481.63 294.67,481.63 294.21,481.63 294.02,481.24 293.92,481.06 293.77,480.72 293.63,480.14 293.63,480.1 293.63,480 293.73,480 293.74,480 293.84,480 293.85,480.01 293.91,480.23 294.08,480.93 294.28,481.41 294.64,481.41 294.84,481.41 294.95,481.28 294.95,480.95 294.95,480.74 294.92,480.63 294.79,480.12 Z"
         inkscape:connector-curvature="0"
         style="fill:#000000;stroke-width:0" /><path
         id="path6385"
         d="M 306.15,483.51 306.15,483.55 306.15,483.58 306.15,483.61 306.15,483.63 306.15,483.64 306.15,483.66 306.15,483.68 306.14,483.69 306.14,483.7 306.14,483.72 306.14,483.73 306.13,483.75 306.13,483.76 306.12,483.77 306.12,483.78 306.11,483.79 306.1,483.8 306.1,483.81 306.09,483.82 306.08,483.83 306.07,483.84 306.06,483.85 306.05,483.85 306.05,483.85 306.04,483.86 306.03,483.86 306.03,483.86 306.02,483.86 306.01,483.86 306,483.87 306,483.87 305.99,483.87 305.98,483.87 305.97,483.87 305.96,483.87 305.95,483.87 C 305.76,483.87 305.76,483.66 305.76,483.51 L 305.76,477.63 302.99,477.63 C 302.84,477.63 302.63,477.63 302.63,477.43 302.63,477.23 302.84,477.23 302.99,477.23 L 308.93,477.23 C 309.1,477.23 309.28,477.23 309.28,477.43 309.28,477.63 309.1,477.63 308.93,477.63 L 306.15,477.63 Z"
         inkscape:connector-curvature="0"
         style="fill:#000000;stroke-width:0" /><polygon
         id="polygon6387"
         points="316.45,482.6 316.63,482.78 315.31,484.13 313.97,482.78 314.15,482.6 315.31,483.61 "
         style="fill:#000000;stroke-width:0" /><path
         id="path6389"
         d="M 316.54,481.01 316.51,481.01 316.48,481.01 316.45,481.01 316.42,481.01 316.4,481.01 316.37,481 316.35,481 316.34,481 316.33,481 316.31,480.99 316.3,480.99 316.29,480.99 316.27,480.98 316.26,480.98 316.25,480.97 316.23,480.96 316.22,480.96 316.21,480.95 316.19,480.94 316.18,480.94 316.17,480.93 316.15,480.92 316.14,480.91 316.13,480.9 316.12,480.88 316.1,480.87 C 315.94,480.72 315.92,480.55 315.92,480.48 315.92,480.24 316.1,480.14 316.29,480.14 316.58,480.14 316.85,480.37 316.85,480.77 316.85,481.26 316.38,481.63 315.67,481.63 314.33,481.63 313.01,480.2 313.01,478.8 313.01,477.91 313.58,477.13 314.62,477.13 316.04,477.13 316.88,478.18 316.88,478.3 316.88,478.36 316.82,478.43 316.76,478.43 316.71,478.43 316.69,478.41 316.63,478.33 315.84,477.34 314.76,477.34 314.64,477.34 314.01,477.34 313.74,477.83 313.74,478.43 313.74,478.83 313.94,479.8 314.28,480.41 314.59,480.98 315.14,481.41 315.68,481.41 316.02,481.41 316.4,481.28 316.54,481.01 Z"
         inkscape:connector-curvature="0"
         style="fill:#000000;stroke-width:0" /></g>  </g>
</svg>
