<?xml version="1.0" encoding="UTF-8" standalone="no"?>
<!-- Created with Inkscape (http://www.inkscape.org/) -->

<svg
   xmlns:ns0="http://www.iki.fi/pav/software/textext/"
   xmlns:dc="http://purl.org/dc/elements/1.1/"
   xmlns:cc="http://creativecommons.org/ns#"
   xmlns:rdf="http://www.w3.org/1999/02/22-rdf-syntax-ns#"
   xmlns:svg="http://www.w3.org/2000/svg"
   xmlns="http://www.w3.org/2000/svg"
   xmlns:xlink="http://www.w3.org/1999/xlink"
   xmlns:sodipodi="http://sodipodi.sourceforge.net/DTD/sodipodi-0.dtd"
   xmlns:inkscape="http://www.inkscape.org/namespaces/inkscape"
   sodipodi:docname="surface tension and bubble expansion.svg"
   inkscape:version="0.91 r"
   version="1.1"
   id="svg2"
   height="232.58595"
   width="510.22125">
  <sodipodi:namedview
     inkscape:snap-grids="false"
     inkscape:snap-bbox-midpoints="false"
     inkscape:snap-bbox="true"
     fit-margin-bottom="0"
     fit-margin-right="0"
     fit-margin-left="0"
     fit-margin-top="0"
     inkscape:window-maximized="1"
     inkscape:window-y="0"
     inkscape:window-x="0"
     inkscape:window-height="1053"
     inkscape:window-width="1920"
     width="11cm"
     units="in"
     showgrid="true"
     inkscape:current-layer="layer1"
     inkscape:document-units="px"
     inkscape:cy="122.49217"
     inkscape:cx="312.92309"
     inkscape:zoom="2.56"
     inkscape:pageshadow="2"
     inkscape:pageopacity="0.0"
     borderopacity="1.0"
     bordercolor="#666666"
     pagecolor="#ffffff"
     id="base">
    <inkscape:grid
       type="xygrid"
       id="grid2984"
       empspacing="5"
       visible="true"
       enabled="true"
       snapvisiblegridlinesonly="true"
       spacingx="2px"
       spacingy="2px"
       originx="-64.92164"
       originy="-87.414041" />
  </sodipodi:namedview>
  <defs
     id="defs4">
    <marker
       style="overflow:visible"
       id="Arrow2Mend"
       refX="0"
       refY="0"
       orient="auto"
       inkscape:stockid="Arrow2Mend">
      <path
         transform="scale(-0.6,-0.6)"
         d="M 8.7185878,4.0337352 -2.2072895,0.01601326 8.7185884,-4.0017078 C 6.97309,-1.6296469 6.9831476,1.6157441 8.7185878,4.0337352 Z"
         style="fill-rule:evenodd;stroke-width:0.625;stroke-linejoin:round"
         id="path3966"
         inkscape:connector-curvature="0" />
    </marker>
    <filter
       style="color-interpolation-filters:sRGB"
       height="3.0367"
       x="-0.090278"
       width="1.1806"
       y="-1.0183001"
       id="filter3347">
      <feGaussianBlur
         stdDeviation="7.5769449"
         id="feGaussianBlur3349" />
    </filter>
    <marker
       style="overflow:visible"
       id="Arrow2Mend-9"
       refX="0"
       refY="0"
       orient="auto"
       inkscape:stockid="Arrow2Mend">
      <path
         transform="scale(-0.6,-0.6)"
         d="M 8.7185878,4.0337352 -2.2072895,0.01601326 8.7185884,-4.0017078 C 6.97309,-1.6296469 6.9831476,1.6157441 8.7185878,4.0337352 Z"
         style="fill-rule:evenodd;stroke-width:0.625;stroke-linejoin:round"
         id="path3966-4"
         inkscape:connector-curvature="0" />
    </marker>
    <marker
       style="overflow:visible"
       id="Arrow2Mend-7"
       refX="0"
       refY="0"
       orient="auto"
       inkscape:stockid="Arrow2Mend">
      <path
         transform="scale(-0.6,-0.6)"
         d="M 8.7185878,4.0337352 -2.2072895,0.01601326 8.7185884,-4.0017078 C 6.97309,-1.6296469 6.9831476,1.6157441 8.7185878,4.0337352 Z"
         style="fill-rule:evenodd;stroke-width:0.625;stroke-linejoin:round"
         id="path3966-6"
         inkscape:connector-curvature="0" />
    </marker>
  </defs>
  <metadata
     id="metadata7">
    <rdf:RDF>
      <cc:Work
         rdf:about="">
        <dc:format>image/svg+xml</dc:format>
        <dc:type
           rdf:resource="http://purl.org/dc/dcmitype/StillImage" />
        <dc:title></dc:title>
      </cc:Work>
    </rdf:RDF>
  </metadata>
  <g
     transform="translate(-1.8932825,-756.04722)"
     id="layer1"
     inkscape:groupmode="layer"
     inkscape:label="Layer 1">
    <path
       sodipodi:type="arc"
       style="fill:#ffffff;fill-opacity:0.40625;stroke:#000000;stroke-width:2;stroke-miterlimit:4;stroke-dasharray:none;stroke-dashoffset:0;stroke-opacity:1"
       id="path2985"
       sodipodi:cx="100"
       sodipodi:cy="160.53571"
       sodipodi:rx="40"
       sodipodi:ry="40"
       d="M 140,160.53571 A 40,40 0 0 1 100.09824,200.53558 40,40 0 0 1 60.000483,160.73219 40,40 0 0 1 99.705267,120.53679 40,40 0 0 1 139.99807,160.14273"
       transform="matrix(1.097561,0,0,1.0975609,292.21554,624.84953)"
       sodipodi:start="0"
       sodipodi:end="6.2733608"
       sodipodi:open="true"
       inkscape:transform-center-y="-10" />
    <path
       transform="matrix(0.85365841,0,0,0.85365846,66.605796,664.00458)"
       sodipodi:type="arc"
       style="fill:#ffffff;fill-opacity:0.40625;stroke:#000000;stroke-width:2;stroke-miterlimit:4;stroke-dasharray:none;stroke-dashoffset:0;stroke-opacity:1"
       id="path2985-2"
       sodipodi:cx="100"
       sodipodi:cy="160.53571"
       sodipodi:rx="40"
       sodipodi:ry="40"
       d="M 140,160.53571 A 40,40 0 0 1 100.09824,200.53558 40,40 0 0 1 60.000483,160.73219 40,40 0 0 1 99.705267,120.53679 40,40 0 0 1 139.99807,160.14273"
       sodipodi:start="0"
       sodipodi:end="6.2733608"
       sodipodi:open="true" />
    <g
       transform="matrix(-0.21778338,0,0,0.21778338,416.95777,706.702)"
       id="layer1-4">
      <g
         transform="matrix(-1,0,0,1,1242.5,11.611)"
         id="g3363"
         style="fill-rule:evenodd">
        <path
           d="M 516.43,463.79 516.43,393.79 609.29,393.79 587.13,355.42 721.11,427.91 591.76,504.41 610.21,464.33 516.43,463.79 Z"
           id="path2388"
           inkscape:connector-curvature="0"
           style="fill:#1247fd;stroke:#000000;stroke-width:5.4000001" />
        <path
           d="M 649.91,420.22 C 679.6,420.26 675.3,420.14 705,420.27 L 719.29,430.22 705,438.02 649.91,438.08 C 608.88,438.08 515.86,450.05 515.86,450.02 L 515.86,404.27 C 515.86,404.27 608.88,420.22 649.91,420.22 Z"
           id="rect3160"
           inkscape:connector-curvature="0"
           style="opacity:0.95455005;fill:#ffffff;filter:url(#filter3347)" />
      </g>
    </g>
    <g
       id="g3295"
       transform="matrix(2.770088,0,0,-2.770088,-595.02376,2225.5786)"
       xml:space="preserve"
       stroke-miterlimit="10.433"
       font-style="normal"
       font-variant="normal"
       font-weight="normal"
       font-stretch="normal"
       font-size-adjust="none"
       letter-spacing="normal"
       word-spacing="normal"
       ns0:text="Radius:"
       ns0:preamble="/home/ken/.config/inkscape/textextpreamble.txt"
       style="font-style:normal;font-variant:normal;font-weight:normal;font-stretch:normal;letter-spacing:normal;word-spacing:normal;text-anchor:start;fill:none;stroke:#000000;stroke-linecap:butt;stroke-linejoin:miter;stroke-miterlimit:10.43299961;stroke-dasharray:none;stroke-dashoffset:0;stroke-opacity:1"><path
         style="fill:#000000;stroke-width:0"
         inkscape:connector-curvature="0"
         d="M 227.76,480.61 227.85,480.64 227.94,480.66 228.03,480.69 228.11,480.72 228.2,480.75 228.28,480.78 228.36,480.82 228.44,480.86 228.52,480.9 228.59,480.94 228.66,480.98 228.73,481.03 228.8,481.07 228.87,481.12 228.93,481.17 228.99,481.22 229.05,481.27 229.1,481.33 229.16,481.38 229.2,481.44 229.25,481.5 229.29,481.56 229.33,481.62 229.36,481.69 229.4,481.75 229.42,481.82 229.45,481.88 229.47,481.95 229.48,482.02 229.49,482.09 229.5,482.16 229.5,482.23 C 229.5,483.18 228.37,484.02 226.9,484.02 L 223.78,484.02 223.78,483.71 224.02,483.71 C 224.79,483.71 224.8,483.6 224.8,483.24 L 224.8,478.01 C 224.8,477.65 224.79,477.54 224.02,477.54 L 223.78,477.54 223.78,477.23 C 224.14,477.27 224.85,477.27 225.23,477.27 225.62,477.27 226.33,477.27 226.68,477.23 L 226.68,477.54 226.45,477.54 C 225.68,477.54 225.66,477.65 225.66,478.01 L 225.66,480.52 225.66,480.74 225.66,483.32 C 225.66,483.54 225.66,483.66 225.88,483.69 225.98,483.71 226.27,483.71 226.47,483.71 227.36,483.71 228.48,483.67 228.48,482.23 228.48,481.55 228.24,480.74 226.76,480.74 L 225.66,480.74 225.66,480.52 226.8,480.52 C 226.96,480.52 227.38,480.52 227.73,480.18 228.11,479.83 228.11,479.52 228.11,478.85 228.11,478.21 228.11,477.81 228.52,477.43 228.92,477.08 229.47,477.02 229.77,477.02 230.55,477.02 230.71,477.83 230.71,478.11 230.71,478.17 230.71,478.28 230.59,478.28 230.48,478.28 230.48,478.19 230.47,478.12 230.41,477.41 230.06,477.23 229.81,477.23 229.32,477.23 229.24,477.74 229.1,478.67 L 228.97,479.46 C 228.79,480.1 228.31,480.42 227.76,480.61 Z"
         id="path3297" /><path
         style="fill:#000000;stroke-width:0"
         inkscape:connector-curvature="0"
         d="M 234.08,477.99 234.08,477.95 234.09,477.92 234.1,477.88 234.1,477.84 234.11,477.8 234.12,477.77 234.14,477.73 234.15,477.7 234.17,477.66 234.18,477.63 234.2,477.59 234.22,477.56 234.24,477.53 234.26,477.49 234.28,477.46 234.31,477.43 234.33,477.41 234.36,477.38 234.39,477.35 234.41,477.33 234.44,477.31 234.48,477.28 234.51,477.26 234.54,477.25 234.58,477.23 234.61,477.22 234.65,477.2 234.69,477.19 234.73,477.19 234.77,477.18 234.81,477.18 234.85,477.17 C 235.06,477.17 235.67,477.31 235.67,478.12 L 235.67,478.67 235.42,478.67 235.42,478.12 C 235.42,477.54 235.17,477.48 235.06,477.48 234.74,477.48 234.7,477.93 234.7,477.98 L 234.7,479.97 C 234.7,480.38 234.7,480.77 234.34,481.14 233.95,481.53 233.45,481.68 232.97,481.68 232.16,481.68 231.47,481.22 231.47,480.56 231.47,480.27 231.67,480.1 231.93,480.1 232.21,480.1 232.39,480.3 232.39,480.55 232.39,480.67 232.34,481 231.88,481.01 232.15,481.36 232.64,481.47 232.95,481.47 233.44,481.47 234.01,481.08 234.01,480.2 L 234.01,479.83 234.01,479.62 234.01,478.63 C 234.01,477.68 233.29,477.34 232.85,477.34 232.36,477.34 231.95,477.69 231.95,478.19 231.95,478.73 232.37,479.56 234.01,479.62 L 234.01,479.62 234.01,479.83 C 233.5,479.8 232.8,479.77 232.18,479.47 231.43,479.13 231.18,478.62 231.18,478.18 231.18,477.37 232.15,477.13 232.77,477.13 233.43,477.13 233.89,477.52 234.08,477.99 Z"
         id="path3299" /><path
         style="fill:#000000;stroke-width:0"
         inkscape:connector-curvature="0"
         d="M 239.53,477.78 239.53,477.13 240.99,477.23 240.99,477.54 C 240.29,477.54 240.21,477.61 240.21,478.1 L 240.21,484.13 238.78,484.02 238.78,483.71 C 239.48,483.71 239.56,483.64 239.56,483.16 L 239.56,481.01 C 239.27,481.37 238.84,481.63 238.3,481.63 L 238.34,481.41 C 238.69,481.41 239.11,481.26 239.42,480.81 239.53,480.64 239.53,480.62 239.53,480.44 L 239.53,480.44 239.53,478.41 C 239.53,478.23 239.53,478.21 239.42,478.04 239.12,477.56 238.67,477.34 238.24,477.34 237.8,477.34 237.44,477.6 237.2,477.98 236.94,478.39 236.91,478.95 236.91,479.36 236.91,479.73 236.93,480.32 237.22,480.77 237.43,481.08 237.81,481.41 238.34,481.41 L 238.3,481.63 C 237.13,481.63 236.09,480.65 236.09,479.37 236.09,478.11 237.06,477.13 238.19,477.13 238.83,477.13 239.28,477.46 239.53,477.78 Z"
         id="path3301" /><path
         style="fill:#000000;stroke-width:0"
         inkscape:connector-curvature="0"
         d="M 243.04,481.63 241.65,481.52 241.65,481.21 C 242.3,481.21 242.39,481.15 242.39,480.66 L 242.39,477.99 C 242.39,477.54 242.28,477.54 241.61,477.54 L 241.61,477.23 C 241.93,477.24 242.47,477.27 242.71,477.27 243.05,477.27 243.4,477.24 243.74,477.23 L 243.74,477.54 C 243.08,477.54 243.04,477.59 243.04,477.98 Z"
         id="path3303" /><path
         style="fill:#000000;stroke-width:0"
         inkscape:connector-curvature="0"
         d="M 243.08,483.35 243.08,483.38 243.08,483.41 243.08,483.44 243.07,483.47 243.07,483.49 243.06,483.52 243.05,483.55 243.04,483.57 243.03,483.59 243.02,483.62 243,483.64 242.99,483.66 242.97,483.68 242.96,483.7 242.94,483.72 242.92,483.74 242.91,483.75 242.89,483.77 242.87,483.78 242.84,483.8 242.82,483.81 242.8,483.82 242.78,483.83 242.76,483.84 242.73,483.85 242.71,483.86 242.68,483.87 242.66,483.87 242.63,483.88 242.61,483.88 242.58,483.88 242.55,483.88 C 242.25,483.88 242.03,483.61 242.03,483.35 242.03,483.09 242.25,482.83 242.55,482.83 242.83,482.83 243.08,483.04 243.08,483.35 Z"
         id="path3305" /><path
         style="fill:#000000;stroke-width:0"
         inkscape:connector-curvature="0"
         d="M 247.94,478.02 247.94,477.13 249.37,477.23 249.37,477.54 C 248.68,477.54 248.6,477.61 248.6,478.1 L 248.6,481.63 247.13,481.52 247.13,481.21 C 247.83,481.21 247.91,481.14 247.91,480.65 L 247.91,478.88 C 247.91,478.02 247.43,477.34 246.71,477.34 245.87,477.34 245.83,477.81 245.83,478.33 L 245.83,481.63 244.37,481.52 244.37,481.21 C 245.14,481.21 245.14,481.18 245.14,480.3 L 245.14,478.8 C 245.14,478.03 245.14,477.13 246.66,477.13 247.21,477.13 247.65,477.4 247.94,478.02 Z"
         id="path3307" /><path
         style="fill:#000000;stroke-width:0"
         inkscape:connector-curvature="0"
         d="M 251.65,479.16 251.68,479.16 251.7,479.15 251.73,479.15 251.76,479.14 251.79,479.13 251.83,479.12 251.87,479.11 251.91,479.1 251.95,479.09 251.99,479.08 252.03,479.06 252.08,479.04 252.12,479.03 252.17,479 252.21,478.98 252.25,478.96 252.3,478.93 252.34,478.9 252.38,478.87 252.42,478.84 252.46,478.81 252.49,478.77 252.53,478.73 252.56,478.69 252.59,478.64 252.6,478.62 252.61,478.59 252.62,478.57 252.63,478.54 252.64,478.52 252.65,478.49 252.66,478.46 252.67,478.44 252.67,478.41 252.68,478.38 252.68,478.35 252.69,478.31 252.69,478.28 252.69,478.25 C 252.69,477.74 252.34,477.34 251.57,477.34 250.73,477.34 250.37,477.91 250.18,478.76 250.15,478.88 250.14,478.92 250.04,478.92 249.91,478.92 249.91,478.85 249.91,478.67 L 249.91,477.36 C 249.91,477.2 249.91,477.13 250.02,477.13 250.07,477.13 250.08,477.14 250.27,477.32 250.29,477.34 250.29,477.36 250.47,477.55 250.91,477.14 251.36,477.13 251.57,477.13 252.71,477.13 253.17,477.79 253.17,478.51 253.17,479.03 252.87,479.33 252.75,479.45 252.42,479.77 252.03,479.85 251.61,479.93 251.06,480.04 250.39,480.17 250.39,480.74 250.39,481.09 250.65,481.5 251.51,481.5 252.6,481.5 252.65,480.6 252.67,480.3 252.68,480.2 252.77,480.2 252.79,480.2 252.92,480.2 252.92,480.26 252.92,480.44 L 252.92,481.45 C 252.92,481.62 252.92,481.68 252.81,481.68 252.76,481.68 252.74,481.68 252.61,481.57 252.58,481.53 252.48,481.44 252.44,481.41 252.06,481.68 251.65,481.68 251.51,481.68 250.29,481.68 249.91,481.02 249.91,480.46 249.91,480.12 250.07,479.84 250.34,479.62 250.66,479.36 250.94,479.3 251.65,479.16 Z"
         id="path3309" /><path
         style="fill:#000000;stroke-width:0"
         inkscape:connector-curvature="0"
         d="M 255.42,480.99 255.42,481.02 255.42,481.04 255.42,481.07 255.41,481.1 255.41,481.12 255.4,481.15 255.39,481.17 255.38,481.19 255.37,481.22 255.36,481.24 255.35,481.26 255.33,481.28 255.32,481.3 255.3,481.32 255.29,481.34 255.27,481.36 255.25,481.38 255.23,481.4 255.21,481.41 255.19,481.43 255.17,481.44 255.15,481.45 255.12,481.46 255.1,481.47 255.08,481.48 255.05,481.49 255.03,481.5 255,481.51 254.98,481.51 254.95,481.51 254.92,481.52 254.9,481.52 C 254.61,481.52 254.37,481.28 254.37,480.99 254.37,480.7 254.61,480.46 254.9,480.46 255.18,480.46 255.42,480.7 255.42,480.99 Z"
         id="path3311" /><path
         style="fill:#000000;stroke-width:0"
         inkscape:connector-curvature="0"
         d="M 255.42,477.76 255.42,477.79 255.42,477.82 255.42,477.84 255.41,477.87 255.41,477.89 255.4,477.92 255.39,477.94 255.38,477.97 255.37,477.99 255.36,478.01 255.35,478.03 255.33,478.05 255.32,478.08 255.3,478.1 255.29,478.11 255.27,478.13 255.25,478.15 255.23,478.17 255.21,478.18 255.19,478.2 255.17,478.21 255.15,478.22 255.12,478.24 255.1,478.25 255.08,478.26 255.05,478.26 255.03,478.27 255,478.28 254.98,478.28 254.95,478.29 254.92,478.29 254.9,478.29 C 254.61,478.29 254.37,478.05 254.37,477.76 254.37,477.47 254.61,477.23 254.9,477.23 255.18,477.23 255.42,477.47 255.42,477.76 Z"
         id="path3313" /></g>    <g
       style="font-style:normal;font-variant:normal;font-weight:normal;font-stretch:normal;letter-spacing:normal;word-spacing:normal;text-anchor:start;fill:none;stroke:#000000;stroke-linecap:butt;stroke-linejoin:miter;stroke-miterlimit:10.43299961;stroke-dasharray:none;stroke-dashoffset:0;stroke-opacity:1"
       ns0:preamble="/home/ken/.config/inkscape/textextpreamble.txt"
       ns0:text="Area:"
       word-spacing="normal"
       letter-spacing="normal"
       font-size-adjust="none"
       font-stretch="normal"
       font-weight="normal"
       font-variant="normal"
       font-style="normal"
       stroke-miterlimit="10.433"
       xml:space="preserve"
       transform="matrix(2.770088,0,0,-2.770088,-587.9209,2258.1906)"
       id="content"><path
         style="fill:#000000;stroke-width:0"
         inkscape:connector-curvature="0"
         id="path3234"
         d="M 227.39,484.15 227.39,484.16 227.38,484.17 227.38,484.18 227.37,484.19 227.37,484.21 227.37,484.22 227.36,484.23 227.36,484.23 227.35,484.24 227.35,484.25 227.34,484.26 227.34,484.27 227.33,484.28 227.33,484.28 227.32,484.29 227.32,484.3 227.31,484.3 227.31,484.31 227.3,484.31 227.29,484.32 227.28,484.32 227.28,484.33 227.27,484.33 227.26,484.34 227.25,484.34 227.24,484.34 227.23,484.34 227.22,484.34 227.2,484.35 227.19,484.35 227.18,484.35 227.17,484.35 227.16,484.35 C 227,484.35 226.97,484.29 226.92,484.15 L 224.87,478.21 C 224.69,477.7 224.29,477.55 223.75,477.54 L 223.75,477.23 C 223.98,477.24 224.41,477.27 224.76,477.27 225.07,477.27 225.59,477.24 225.91,477.23 L 225.91,477.54 C 225.41,477.54 225.16,477.79 225.16,478.05 225.16,478.08 225.17,478.18 225.18,478.2 L 225.64,479.5 225.75,479.81 226.86,483.04 227.99,479.81 225.75,479.81 225.64,479.5 228.1,479.5 228.63,477.98 C 228.63,477.94 228.65,477.88 228.65,477.84 228.65,477.54 228.1,477.54 227.83,477.54 L 227.83,477.23 C 228.19,477.27 228.88,477.27 229.26,477.27 229.69,477.27 230.15,477.26 230.57,477.23 L 230.57,477.54 230.39,477.54 C 229.79,477.54 229.65,477.61 229.54,477.94 Z" /><path
         style="fill:#000000;stroke-width:0"
         inkscape:connector-curvature="0"
         id="path3236"
         d="M 232.57,480.53 232.57,481.63 231.18,481.52 231.18,481.21 C 231.88,481.21 231.96,481.14 231.96,480.65 L 231.96,477.99 C 231.96,477.54 231.85,477.54 231.18,477.54 L 231.18,477.23 C 231.57,477.24 232.04,477.27 232.32,477.27 232.71,477.27 233.18,477.27 233.58,477.23 L 233.58,477.54 233.37,477.54 C 232.63,477.54 232.62,477.65 232.62,478.01 L 232.62,479.54 C 232.62,480.52 233.03,481.41 233.79,481.41 233.86,481.41 233.88,481.41 233.9,481.4 233.87,481.39 233.67,481.27 233.67,481.01 233.67,480.73 233.88,480.58 234.1,480.58 234.28,480.58 234.53,480.7 234.53,481.02 234.53,481.34 234.22,481.63 233.79,481.63 233.06,481.63 232.71,480.96 232.57,480.53 Z" /><path
         style="fill:#000000;stroke-width:0"
         inkscape:connector-curvature="0"
         id="path3238"
         d="M 235.91,479.53 235.92,479.74 C 235.98,481.22 236.82,481.47 237.15,481.47 238.18,481.47 238.28,480.13 238.28,479.74 L 235.92,479.74 235.91,479.53 238.69,479.53 C 238.9,479.53 238.93,479.53 238.93,479.74 238.93,480.72 238.4,481.68 237.15,481.68 236,481.68 235.09,480.66 235.09,479.42 235.09,478.09 236.13,477.13 237.27,477.13 238.49,477.13 238.93,478.23 238.93,478.42 238.93,478.52 238.86,478.54 238.81,478.54 238.72,478.54 238.7,478.48 238.68,478.4 238.33,477.37 237.43,477.37 237.33,477.37 236.84,477.37 236.44,477.67 236.21,478.04 235.91,478.52 235.91,479.17 235.91,479.53 Z" /><path
         style="fill:#000000;stroke-width:0"
         inkscape:connector-curvature="0"
         id="path3240"
         d="M 242.55,477.99 242.55,477.95 242.56,477.92 242.56,477.88 242.57,477.84 242.58,477.8 242.59,477.77 242.61,477.73 242.62,477.7 242.63,477.66 242.65,477.63 242.67,477.59 242.69,477.56 242.71,477.53 242.73,477.49 242.75,477.46 242.77,477.43 242.8,477.41 242.83,477.38 242.85,477.35 242.88,477.33 242.91,477.31 242.94,477.28 242.98,477.26 243.01,477.25 243.04,477.23 243.08,477.22 243.12,477.2 243.16,477.19 243.2,477.19 243.24,477.18 243.28,477.18 243.32,477.17 C 243.53,477.17 244.14,477.31 244.14,478.12 L 244.14,478.67 243.89,478.67 243.89,478.12 C 243.89,477.54 243.64,477.48 243.53,477.48 243.2,477.48 243.16,477.93 243.16,477.98 L 243.16,479.97 C 243.16,480.38 243.16,480.77 242.8,481.14 242.42,481.53 241.92,481.68 241.44,481.68 240.63,481.68 239.94,481.22 239.94,480.56 239.94,480.27 240.14,480.1 240.4,480.1 240.68,480.1 240.85,480.3 240.85,480.55 240.85,480.67 240.81,481 240.35,481.01 240.62,481.36 241.1,481.47 241.42,481.47 241.91,481.47 242.48,481.08 242.48,480.2 L 242.48,479.83 242.48,479.62 242.48,478.63 C 242.48,477.68 241.76,477.34 241.31,477.34 240.83,477.34 240.42,477.69 240.42,478.19 240.42,478.73 240.84,479.56 242.48,479.62 L 242.48,479.62 242.48,479.83 C 241.97,479.8 241.27,479.77 240.65,479.47 239.9,479.13 239.65,478.62 239.65,478.18 239.65,477.37 240.62,477.13 241.24,477.13 241.9,477.13 242.36,477.52 242.55,477.99 Z" /><path
         style="fill:#000000;stroke-width:0"
         inkscape:connector-curvature="0"
         id="path3242"
         d="M 246.12,480.99 246.12,481.02 246.12,481.04 246.12,481.07 246.11,481.1 246.11,481.12 246.1,481.15 246.09,481.17 246.08,481.19 246.07,481.22 246.06,481.24 246.05,481.26 246.03,481.28 246.02,481.3 246,481.32 245.99,481.34 245.97,481.36 245.95,481.38 245.93,481.4 245.91,481.41 245.89,481.43 245.87,481.44 245.85,481.45 245.83,481.46 245.8,481.47 245.78,481.48 245.75,481.49 245.73,481.5 245.7,481.51 245.68,481.51 245.65,481.51 245.62,481.52 245.6,481.52 C 245.31,481.52 245.07,481.28 245.07,480.99 245.07,480.7 245.31,480.46 245.6,480.46 245.89,480.46 246.12,480.7 246.12,480.99 Z" /><path
         style="fill:#000000;stroke-width:0"
         inkscape:connector-curvature="0"
         id="path3244"
         d="M 246.12,477.76 246.12,477.79 246.12,477.82 246.12,477.84 246.11,477.87 246.11,477.89 246.1,477.92 246.09,477.94 246.08,477.97 246.07,477.99 246.06,478.01 246.05,478.03 246.03,478.05 246.02,478.08 246,478.1 245.99,478.11 245.97,478.13 245.95,478.15 245.93,478.17 245.91,478.18 245.89,478.2 245.87,478.21 245.85,478.22 245.83,478.24 245.8,478.25 245.78,478.26 245.75,478.26 245.73,478.27 245.7,478.28 245.68,478.28 245.65,478.29 245.62,478.29 245.6,478.29 C 245.31,478.29 245.07,478.05 245.07,477.76 245.07,477.47 245.31,477.23 245.6,477.23 245.89,477.23 246.12,477.47 246.12,477.76 Z" /></g>    <g
       id="g3181"
       transform="matrix(2.770088,0,0,-2.770088,-485.18997,2225.5786)"
       xml:space="preserve"
       stroke-miterlimit="10.433"
       font-style="normal"
       font-variant="normal"
       font-weight="normal"
       font-stretch="normal"
       font-size-adjust="none"
       letter-spacing="normal"
       word-spacing="normal"
       ns0:text="$r$"
       ns0:preamble="/home/ken/.config/inkscape/textextpreamble.txt"
       style="font-style:normal;font-variant:normal;font-weight:normal;font-stretch:normal;letter-spacing:normal;word-spacing:normal;text-anchor:start;fill:none;fill-opacity:1;fill-rule:evenodd;stroke:#000000;stroke-linecap:butt;stroke-linejoin:miter;stroke-miterlimit:10.43299961;stroke-dasharray:none;stroke-dashoffset:0;stroke-opacity:1"><path
         style="fill:#000000;stroke-width:0"
         inkscape:connector-curvature="0"
         d="M 224.31,477.82 224.31,477.81 224.3,477.79 224.3,477.78 224.3,477.76 224.29,477.73 224.28,477.7 224.27,477.67 224.27,477.63 224.26,477.6 224.25,477.57 224.25,477.56 224.24,477.54 224.24,477.53 224.24,477.51 224.24,477.5 224.23,477.49 224.23,477.47 224.23,477.46 224.23,477.45 224.22,477.44 224.22,477.43 224.22,477.42 224.22,477.41 224.22,477.41 224.22,477.4 224.22,477.39 C 224.22,477.21 224.36,477.13 224.51,477.13 224.63,477.13 224.8,477.2 224.88,477.4 224.9,477.44 225.23,478.8 225.27,478.97 225.35,479.3 225.53,480 225.59,480.27 225.63,480.39 225.91,480.86 226.15,481.08 226.23,481.15 226.52,481.41 226.94,481.41 227.2,481.41 227.35,481.29 227.36,481.29 227.06,481.24 226.85,481 226.85,480.74 226.85,480.58 226.95,480.39 227.22,480.39 227.49,480.39 227.77,480.62 227.77,480.98 227.77,481.33 227.45,481.63 226.94,481.63 226.3,481.63 225.86,481.14 225.67,480.86 225.59,481.31 225.23,481.63 224.76,481.63 224.31,481.63 224.12,481.24 224.03,481.06 223.85,480.72 223.72,480.13 223.72,480.1 223.72,480 223.82,480 223.84,480 223.94,480 223.95,480.01 224.01,480.23 224.18,480.93 224.38,481.41 224.74,481.41 224.9,481.41 225.04,481.33 225.04,480.95 225.04,480.74 225.01,480.63 224.88,480.12 Z"
         id="path3184" /></g>    <g
       style="font-style:normal;font-variant:normal;font-weight:normal;font-stretch:normal;letter-spacing:normal;word-spacing:normal;text-anchor:start;fill:none;stroke:#000000;stroke-linecap:butt;stroke-linejoin:miter;stroke-miterlimit:10.43299961;stroke-dasharray:none;stroke-dashoffset:0;stroke-opacity:1"
       ns0:preamble="/home/ken/.config/inkscape/textextpreamble.txt"
       ns0:text="$r+\\delta r$"
       word-spacing="normal"
       letter-spacing="normal"
       font-size-adjust="none"
       font-stretch="normal"
       font-weight="normal"
       font-variant="normal"
       font-style="normal"
       stroke-miterlimit="10.433"
       xml:space="preserve"
       transform="matrix(2.770088,0,0,-2.770088,-232.6689,2228.2199)"
       id="g3801"><path
         id="path3803"
         d="M 224.31,477.82 224.31,477.81 224.3,477.79 224.3,477.78 224.3,477.76 224.29,477.73 224.28,477.7 224.27,477.67 224.27,477.63 224.26,477.6 224.25,477.57 224.25,477.56 224.24,477.54 224.24,477.53 224.24,477.51 224.24,477.5 224.23,477.49 224.23,477.47 224.23,477.46 224.23,477.45 224.22,477.44 224.22,477.43 224.22,477.42 224.22,477.41 224.22,477.41 224.22,477.4 224.22,477.39 C 224.22,477.21 224.36,477.13 224.51,477.13 224.63,477.13 224.8,477.2 224.88,477.4 224.9,477.44 225.23,478.8 225.27,478.97 225.35,479.3 225.53,480 225.59,480.27 225.63,480.39 225.91,480.86 226.15,481.08 226.23,481.15 226.52,481.41 226.94,481.41 227.2,481.41 227.35,481.29 227.36,481.29 227.06,481.24 226.85,481 226.85,480.74 226.85,480.58 226.95,480.39 227.22,480.39 227.49,480.39 227.77,480.62 227.77,480.98 227.77,481.33 227.45,481.63 226.94,481.63 226.3,481.63 225.86,481.14 225.67,480.86 225.59,481.31 225.23,481.63 224.76,481.63 224.31,481.63 224.12,481.24 224.03,481.06 223.85,480.72 223.72,480.13 223.72,480.1 223.72,480 223.82,480 223.84,480 223.94,480 223.95,480.01 224.01,480.23 224.18,480.93 224.38,481.41 224.74,481.41 224.9,481.41 225.04,481.33 225.04,480.95 225.04,480.74 225.01,480.63 224.88,480.12 Z"
         inkscape:connector-curvature="0"
         style="fill:#000000;stroke-width:0" /><path
         id="path3805"
         d="M 234.49,479.52 237.26,479.52 C 237.4,479.52 237.59,479.52 237.59,479.72 237.59,479.92 237.4,479.92 237.26,479.92 L 234.49,479.92 234.49,482.7 C 234.49,482.84 234.49,483.03 234.29,483.03 234.09,483.03 234.09,482.84 234.09,482.7 L 234.09,479.92 231.3,479.92 C 231.16,479.92 230.97,479.92 230.97,479.72 230.97,479.52 231.16,479.52 231.3,479.52 L 234.09,479.52 234.09,476.74 C 234.09,476.6 234.09,476.41 234.29,476.41 234.49,476.41 234.49,476.6 234.49,476.74 Z"
         inkscape:connector-curvature="0"
         style="fill:#000000;stroke-width:0" /><path
         id="path3807"
         d="M 243.01,481.58 242.89,481.55 242.78,481.51 242.67,481.47 242.55,481.42 242.45,481.37 242.34,481.31 242.24,481.25 242.14,481.18 242.04,481.11 241.94,481.04 241.85,480.96 241.76,480.88 241.68,480.79 241.59,480.71 241.51,480.61 241.44,480.52 241.36,480.42 241.29,480.32 241.23,480.22 241.17,480.12 241.11,480.01 241.06,479.9 241.01,479.8 240.97,479.69 240.93,479.58 240.9,479.46 240.87,479.35 240.84,479.24 240.82,479.12 240.81,479.01 240.8,478.9 240.8,478.79 C 240.8,477.83 241.43,477.12 242.37,477.12 L 242.37,477.33 C 241.82,477.33 241.41,477.75 241.41,478.51 241.41,479.13 241.78,481 243.13,481.36 L 243.13,481.36 C 243.38,480.9 243.67,480.36 243.67,479.65 243.67,478.99 243.29,477.33 242.37,477.33 L 242.37,477.12 C 243.53,477.12 244.36,478.67 244.36,480.05 244.36,480.95 243.96,481.45 243.62,481.89 243.26,482.34 242.68,483.09 242.68,483.52 242.68,483.74 242.88,483.98 243.23,483.98 243.52,483.98 243.72,483.85 243.93,483.71 244.13,483.59 244.33,483.46 244.48,483.46 244.73,483.46 244.88,483.7 244.88,483.86 244.88,484.08 244.72,484.11 244.36,484.19 243.84,484.3 243.7,484.3 243.54,484.3 242.77,484.3 242.41,483.87 242.41,483.27 242.41,482.74 242.7,482.18 243.01,481.58 Z"
         inkscape:connector-curvature="0"
         style="fill:#000000;stroke-width:0" /><path
         id="path3809"
         d="M 246.06,477.82 246.06,477.81 246.06,477.79 246.05,477.78 246.05,477.76 246.04,477.73 246.03,477.7 246.03,477.67 246.02,477.63 246.01,477.6 246.01,477.57 246,477.56 246,477.54 246,477.53 245.99,477.51 245.99,477.5 245.99,477.49 245.98,477.47 245.98,477.46 245.98,477.45 245.98,477.44 245.98,477.43 245.97,477.42 245.97,477.41 245.97,477.41 245.97,477.4 245.97,477.39 C 245.97,477.21 246.11,477.13 246.26,477.13 246.38,477.13 246.56,477.2 246.63,477.4 246.65,477.44 246.99,478.8 247.03,478.97 247.11,479.3 247.29,480 247.35,480.27 247.38,480.39 247.66,480.86 247.9,481.08 247.98,481.15 248.27,481.41 248.7,481.41 248.96,481.41 249.11,481.29 249.12,481.29 248.82,481.24 248.6,481 248.6,480.74 248.6,480.58 248.71,480.39 248.98,480.39 249.24,480.39 249.52,480.62 249.52,480.98 249.52,481.33 249.21,481.63 248.7,481.63 248.05,481.63 247.61,481.14 247.42,480.86 247.35,481.31 246.99,481.63 246.52,481.63 246.06,481.63 245.87,481.24 245.78,481.06 245.6,480.72 245.47,480.13 245.47,480.1 245.47,480 245.57,480 245.59,480 245.69,480 245.7,480.01 245.76,480.23 245.93,480.93 246.13,481.41 246.49,481.41 246.66,481.41 246.8,481.33 246.8,480.95 246.8,480.74 246.77,480.63 246.64,480.12 Z"
         inkscape:connector-curvature="0"
         style="fill:#000000;stroke-width:0" /></g>    <g
       id="g4438"
       style="font-style:normal;font-variant:normal;font-weight:normal;font-stretch:normal;letter-spacing:normal;word-spacing:normal;text-anchor:start;fill:none;stroke:#000000;stroke-linecap:butt;stroke-linejoin:miter;stroke-miterlimit:10.43299961;stroke-dasharray:none;stroke-dashoffset:0;stroke-opacity:1"
       transform="matrix(2.770088,0,0,2.770088,-617.55243,600.66609)"
       ns0:preamble="/home/ken/.config/inkscape/textextpreamble.txt"
       ns0:text="Volume:">
      <defs
         id="defs4440">
        <g
           id="g4442">
          <symbol
             id="textext-f31fd390-0"
             overflow="visible"
             style="overflow:visible">
            <path
               id="path4445"
               d=""
               style="stroke:none"
               inkscape:connector-curvature="0" />
          </symbol>
          <symbol
             id="textext-f31fd390-1"
             overflow="visible"
             style="overflow:visible">
            <path
               id="path4448"
               d="M 6.1875,-5.828125 C 6.328125,-6.203125 6.59375,-6.484375 7.28125,-6.5 L 7.28125,-6.8125 C 6.96875,-6.78125 6.5625,-6.78125 6.3125,-6.78125 6.015625,-6.78125 5.4375,-6.796875 5.171875,-6.8125 L 5.171875,-6.5 C 5.6875,-6.484375 5.90625,-6.234375 5.90625,-6 5.90625,-5.921875 5.875,-5.859375 5.859375,-5.796875 L 4.03125,-1 2.125,-6.03125 C 2.0625,-6.171875 2.0625,-6.1875 2.0625,-6.203125 2.0625,-6.5 2.625,-6.5 2.875,-6.5 L 2.875,-6.8125 C 2.515625,-6.78125 1.828125,-6.78125 1.453125,-6.78125 0.984375,-6.78125 0.546875,-6.796875 0.1875,-6.8125 L 0.1875,-6.5 C 0.84375,-6.5 1.03125,-6.5 1.171875,-6.125 L 3.484375,0 C 3.546875,0.1875 3.59375,0.21875 3.734375,0.21875 3.890625,0.21875 3.921875,0.171875 3.96875,0.03125 Z M 6.1875,-5.828125"
               style="stroke:none"
               inkscape:connector-curvature="0" />
          </symbol>
          <symbol
             id="textext-f31fd390-2"
             overflow="visible"
             style="overflow:visible">
            <path
               id="path4451"
               d="M 4.6875,-2.140625 C 4.6875,-3.40625 3.703125,-4.46875 2.5,-4.46875 1.25,-4.46875 0.28125,-3.375 0.28125,-2.140625 0.28125,-0.84375 1.3125,0.109375 2.484375,0.109375 3.6875,0.109375 4.6875,-0.875 4.6875,-2.140625 Z M 2.5,-0.140625 C 2.0625,-0.140625 1.625,-0.34375 1.359375,-0.8125 1.109375,-1.25 1.109375,-1.859375 1.109375,-2.21875 1.109375,-2.609375 1.109375,-3.140625 1.34375,-3.578125 1.609375,-4.03125 2.078125,-4.25 2.484375,-4.25 2.921875,-4.25 3.34375,-4.03125 3.609375,-3.59375 3.875,-3.171875 3.875,-2.59375 3.875,-2.21875 3.875,-1.859375 3.875,-1.3125 3.65625,-0.875 3.421875,-0.421875 2.984375,-0.140625 2.5,-0.140625 Z M 2.5,-0.140625"
               style="stroke:none"
               inkscape:connector-curvature="0" />
          </symbol>
          <symbol
             id="textext-f31fd390-3"
             overflow="visible"
             style="overflow:visible">
            <path
               id="path4454"
               d="M 1.765625,-6.921875 0.328125,-6.8125 0.328125,-6.5 C 1.03125,-6.5 1.109375,-6.4375 1.109375,-5.9375 L 1.109375,-0.75 C 1.109375,-0.3125 1,-0.3125 0.328125,-0.3125 L 0.328125,0 C 0.65625,-0.015625 1.1875,-0.03125 1.4375,-0.03125 1.6875,-0.03125 2.171875,-0.015625 2.546875,0 L 2.546875,-0.3125 C 1.875,-0.3125 1.765625,-0.3125 1.765625,-0.75 Z M 1.765625,-6.921875"
               style="stroke:none"
               inkscape:connector-curvature="0" />
          </symbol>
          <symbol
             id="textext-f31fd390-4"
             overflow="visible"
             style="overflow:visible">
            <path
               id="path4457"
               d="M 3.890625,-0.78125 3.890625,0.109375 5.328125,0 5.328125,-0.3125 C 4.640625,-0.3125 4.5625,-0.375 4.5625,-0.875 L 4.5625,-4.40625 3.09375,-4.296875 3.09375,-3.984375 C 3.78125,-3.984375 3.875,-3.921875 3.875,-3.421875 L 3.875,-1.65625 C 3.875,-0.78125 3.390625,-0.109375 2.65625,-0.109375 1.828125,-0.109375 1.78125,-0.578125 1.78125,-1.09375 L 1.78125,-4.40625 0.3125,-4.296875 0.3125,-3.984375 C 1.09375,-3.984375 1.09375,-3.953125 1.09375,-3.078125 L 1.09375,-1.578125 C 1.09375,-0.796875 1.09375,0.109375 2.609375,0.109375 3.171875,0.109375 3.609375,-0.171875 3.890625,-0.78125 Z M 3.890625,-0.78125"
               style="stroke:none"
               inkscape:connector-curvature="0" />
          </symbol>
          <symbol
             id="textext-f31fd390-5"
             overflow="visible"
             style="overflow:visible">
            <path
               id="path4460"
               d="M 1.09375,-3.421875 1.09375,-0.75 C 1.09375,-0.3125 0.984375,-0.3125 0.3125,-0.3125 L 0.3125,0 C 0.671875,-0.015625 1.171875,-0.03125 1.453125,-0.03125 1.703125,-0.03125 2.21875,-0.015625 2.5625,0 L 2.5625,-0.3125 C 1.890625,-0.3125 1.78125,-0.3125 1.78125,-0.75 L 1.78125,-2.59375 C 1.78125,-3.625 2.5,-4.1875 3.125,-4.1875 3.765625,-4.1875 3.875,-3.65625 3.875,-3.078125 L 3.875,-0.75 C 3.875,-0.3125 3.765625,-0.3125 3.09375,-0.3125 L 3.09375,0 C 3.4375,-0.015625 3.953125,-0.03125 4.21875,-0.03125 4.46875,-0.03125 5,-0.015625 5.328125,0 L 5.328125,-0.3125 C 4.671875,-0.3125 4.5625,-0.3125 4.5625,-0.75 L 4.5625,-2.59375 C 4.5625,-3.625 5.265625,-4.1875 5.90625,-4.1875 6.53125,-4.1875 6.640625,-3.65625 6.640625,-3.078125 L 6.640625,-0.75 C 6.640625,-0.3125 6.53125,-0.3125 5.859375,-0.3125 L 5.859375,0 C 6.203125,-0.015625 6.71875,-0.03125 6.984375,-0.03125 7.25,-0.03125 7.765625,-0.015625 8.109375,0 L 8.109375,-0.3125 C 7.59375,-0.3125 7.34375,-0.3125 7.328125,-0.609375 L 7.328125,-2.515625 C 7.328125,-3.375 7.328125,-3.671875 7.015625,-4.03125 6.875,-4.203125 6.546875,-4.40625 5.96875,-4.40625 5.140625,-4.40625 4.6875,-3.8125 4.53125,-3.421875 4.390625,-4.296875 3.65625,-4.40625 3.203125,-4.40625 2.46875,-4.40625 2,-3.984375 1.71875,-3.359375 L 1.71875,-4.40625 0.3125,-4.296875 0.3125,-3.984375 C 1.015625,-3.984375 1.09375,-3.921875 1.09375,-3.421875 Z M 1.09375,-3.421875"
               style="stroke:none"
               inkscape:connector-curvature="0" />
          </symbol>
          <symbol
             id="textext-f31fd390-6"
             overflow="visible"
             style="overflow:visible">
            <path
               id="path4463"
               d="M 1.109375,-2.515625 C 1.171875,-4 2.015625,-4.25 2.359375,-4.25 3.375,-4.25 3.484375,-2.90625 3.484375,-2.515625 Z M 1.109375,-2.296875 3.890625,-2.296875 C 4.109375,-2.296875 4.140625,-2.296875 4.140625,-2.515625 4.140625,-3.5 3.59375,-4.46875 2.359375,-4.46875 1.203125,-4.46875 0.28125,-3.4375 0.28125,-2.1875 0.28125,-0.859375 1.328125,0.109375 2.46875,0.109375 3.6875,0.109375 4.140625,-1 4.140625,-1.1875 4.140625,-1.28125 4.0625,-1.3125 4,-1.3125 3.921875,-1.3125 3.890625,-1.25 3.875,-1.171875 3.53125,-0.140625 2.625,-0.140625 2.53125,-0.140625 2.03125,-0.140625 1.640625,-0.4375 1.40625,-0.8125 1.109375,-1.28125 1.109375,-1.9375 1.109375,-2.296875 Z M 1.109375,-2.296875"
               style="stroke:none"
               inkscape:connector-curvature="0" />
          </symbol>
          <symbol
             id="textext-f31fd390-7"
             overflow="visible"
             style="overflow:visible">
            <path
               id="path4466"
               d="M 1.90625,-3.765625 C 1.90625,-4.0625 1.671875,-4.296875 1.390625,-4.296875 1.09375,-4.296875 0.859375,-4.0625 0.859375,-3.765625 0.859375,-3.484375 1.09375,-3.234375 1.390625,-3.234375 1.671875,-3.234375 1.90625,-3.484375 1.90625,-3.765625 Z M 1.90625,-0.53125 C 1.90625,-0.8125 1.671875,-1.0625 1.390625,-1.0625 1.09375,-1.0625 0.859375,-0.8125 0.859375,-0.53125 0.859375,-0.234375 1.09375,0 1.390625,0 1.671875,0 1.90625,-0.234375 1.90625,-0.53125 Z M 1.90625,-0.53125"
               style="stroke:none"
               inkscape:connector-curvature="0" />
          </symbol>
        </g>
      </defs>
      <g
         id="textext-f31fd390-8">
        <g
           id="g4469"
           style="fill:#000000;fill-opacity:1">
          <use
             id="use4471"
             y="134.765"
             x="223.43201"
             xlink:href="#textext-f31fd390-1"
             width="100%"
             height="100%" />
        </g>
        <g
           id="g4473"
           style="fill:#000000;fill-opacity:1">
          <use
             id="use4475"
             y="134.765"
             x="230.07706"
             xlink:href="#textext-f31fd390-2"
             width="100%"
             height="100%" />
          <use
             id="use4477"
             y="134.765"
             x="235.05835"
             xlink:href="#textext-f31fd390-3"
             width="100%"
             height="100%" />
          <use
             id="use4479"
             y="134.765"
             x="237.82596"
             xlink:href="#textext-f31fd390-4"
             width="100%"
             height="100%" />
          <use
             id="use4481"
             y="134.765"
             x="243.36119"
             xlink:href="#textext-f31fd390-5"
             width="100%"
             height="100%" />
          <use
             id="use4483"
             y="134.765"
             x="251.66302"
             xlink:href="#textext-f31fd390-6"
             width="100%"
             height="100%" />
          <use
             id="use4485"
             y="134.765"
             x="256.09039"
             xlink:href="#textext-f31fd390-7"
             width="100%"
             height="100%" />
        </g>
      </g>
    </g>
    <g
       ns0:text="$\\frac{4}{3}\\pi r^3$"
       ns0:preamble="/home/ken/.config/inkscape/textextpreamble.txt"
       transform="matrix(2.770088,0,0,2.770088,-505.47548,600.39698)"
       style="font-style:normal;font-variant:normal;font-weight:normal;font-stretch:normal;letter-spacing:normal;word-spacing:normal;text-anchor:start;fill:none;fill-opacity:1;fill-rule:evenodd;stroke:#000000;stroke-linecap:butt;stroke-linejoin:miter;stroke-miterlimit:10.43299961;stroke-dasharray:none;stroke-dashoffset:0;stroke-opacity:1"
       id="g4729">
      <defs
         id="defs4731">
        <g
           id="g4733">
          <symbol
             style="overflow:visible"
             overflow="visible"
             id="textext-0f22a110-0">
            <path
               inkscape:connector-curvature="0"
               style="stroke:none"
               d=""
               id="path4736" />
          </symbol>
          <symbol
             style="overflow:visible"
             overflow="visible"
             id="textext-0f22a110-1">
            <path
               inkscape:connector-curvature="0"
               style="stroke:none"
               d="M 3.6875,-1.140625 3.6875,-1.390625 2.90625,-1.390625 2.90625,-4.5 C 2.90625,-4.640625 2.90625,-4.703125 2.765625,-4.703125 2.671875,-4.703125 2.640625,-4.703125 2.578125,-4.59375 L 0.265625,-1.390625 0.265625,-1.140625 2.328125,-1.140625 2.328125,-0.578125 C 2.328125,-0.328125 2.328125,-0.25 1.75,-0.25 L 1.5625,-0.25 1.5625,0 C 1.921875,-0.015625 2.359375,-0.03125 2.609375,-0.03125 2.875,-0.03125 3.3125,-0.015625 3.671875,0 L 3.671875,-0.25 3.484375,-0.25 C 2.90625,-0.25 2.90625,-0.328125 2.90625,-0.578125 L 2.90625,-1.140625 Z M 2.375,-3.9375 2.375,-1.390625 0.53125,-1.390625 Z M 2.375,-3.9375"
               id="path4739" />
          </symbol>
          <symbol
             style="overflow:visible"
             overflow="visible"
             id="textext-0f22a110-2">
            <path
               inkscape:connector-curvature="0"
               style="stroke:none"
               d="M 1.90625,-2.328125 C 2.453125,-2.328125 2.84375,-1.953125 2.84375,-1.203125 2.84375,-0.34375 2.328125,-0.078125 1.9375,-0.078125 1.65625,-0.078125 1.03125,-0.15625 0.75,-0.578125 1.078125,-0.578125 1.15625,-0.8125 1.15625,-0.96875 1.15625,-1.1875 0.984375,-1.34375 0.765625,-1.34375 0.578125,-1.34375 0.375,-1.21875 0.375,-0.9375 0.375,-0.28125 1.09375,0.140625 1.9375,0.140625 2.90625,0.140625 3.578125,-0.515625 3.578125,-1.203125 3.578125,-1.75 3.140625,-2.296875 2.375,-2.453125 3.09375,-2.71875 3.359375,-3.234375 3.359375,-3.671875 3.359375,-4.21875 2.734375,-4.625 1.953125,-4.625 1.1875,-4.625 0.59375,-4.25 0.59375,-3.6875 0.59375,-3.453125 0.75,-3.328125 0.953125,-3.328125 1.171875,-3.328125 1.3125,-3.484375 1.3125,-3.671875 1.3125,-3.875 1.171875,-4.03125 0.953125,-4.046875 1.203125,-4.34375 1.671875,-4.421875 1.9375,-4.421875 2.25,-4.421875 2.6875,-4.265625 2.6875,-3.671875 2.6875,-3.375 2.59375,-3.046875 2.40625,-2.84375 2.1875,-2.578125 1.984375,-2.5625 1.640625,-2.53125 1.46875,-2.515625 1.453125,-2.515625 1.421875,-2.515625 1.40625,-2.515625 1.34375,-2.5 1.34375,-2.421875 1.34375,-2.328125 1.40625,-2.328125 1.53125,-2.328125 Z M 1.90625,-2.328125"
               id="path4742" />
          </symbol>
          <symbol
             style="overflow:visible"
             overflow="visible"
             id="textext-0f22a110-3">
            <path
               inkscape:connector-curvature="0"
               style="stroke:none"
               d=""
               id="path4745" />
          </symbol>
          <symbol
             style="overflow:visible"
             overflow="visible"
             id="textext-0f22a110-4">
            <path
               inkscape:connector-curvature="0"
               style="stroke:none"
               d="M 2.640625,-3.71875 3.765625,-3.71875 C 3.4375,-2.25 3.34375,-1.8125 3.34375,-1.140625 3.34375,-1 3.34375,-0.734375 3.421875,-0.390625 3.53125,0.046875 3.640625,0.109375 3.78125,0.109375 3.984375,0.109375 4.203125,-0.0625 4.203125,-0.265625 4.203125,-0.328125 4.203125,-0.34375 4.140625,-0.484375 3.84375,-1.203125 3.84375,-1.859375 3.84375,-2.140625 3.84375,-2.65625 3.921875,-3.203125 4.03125,-3.71875 L 5.15625,-3.71875 C 5.296875,-3.71875 5.65625,-3.71875 5.65625,-4.0625 5.65625,-4.296875 5.4375,-4.296875 5.25,-4.296875 L 1.90625,-4.296875 C 1.6875,-4.296875 1.3125,-4.296875 0.875,-3.828125 0.53125,-3.4375 0.265625,-2.984375 0.265625,-2.9375 0.265625,-2.921875 0.265625,-2.828125 0.390625,-2.828125 0.46875,-2.828125 0.484375,-2.875 0.546875,-2.953125 1.03125,-3.71875 1.609375,-3.71875 1.8125,-3.71875 L 2.375,-3.71875 C 2.0625,-2.515625 1.53125,-1.3125 1.109375,-0.40625 1.03125,-0.25 1.03125,-0.234375 1.03125,-0.15625 1.03125,0.03125 1.1875,0.109375 1.3125,0.109375 1.609375,0.109375 1.6875,-0.171875 1.8125,-0.53125 1.953125,-1 1.953125,-1.015625 2.078125,-1.515625 Z M 2.640625,-3.71875"
               id="path4748" />
          </symbol>
          <symbol
             style="overflow:visible"
             overflow="visible"
             id="textext-0f22a110-5">
            <path
               inkscape:connector-curvature="0"
               style="stroke:none"
               d="M 0.875,-0.59375 C 0.84375,-0.4375 0.78125,-0.203125 0.78125,-0.15625 0.78125,0.015625 0.921875,0.109375 1.078125,0.109375 1.203125,0.109375 1.375,0.03125 1.453125,-0.171875 1.46875,-0.203125 1.796875,-1.5625 1.84375,-1.75 1.921875,-2.078125 2.109375,-2.765625 2.15625,-3.046875 2.203125,-3.171875 2.484375,-3.640625 2.71875,-3.859375 2.796875,-3.921875 3.09375,-4.1875 3.515625,-4.1875 3.78125,-4.1875 3.921875,-4.0625 3.9375,-4.0625 3.640625,-4.015625 3.421875,-3.78125 3.421875,-3.515625 3.421875,-3.359375 3.53125,-3.171875 3.796875,-3.171875 4.0625,-3.171875 4.34375,-3.40625 4.34375,-3.765625 4.34375,-4.109375 4.03125,-4.40625 3.515625,-4.40625 2.875,-4.40625 2.4375,-3.921875 2.25,-3.640625 2.15625,-4.09375 1.796875,-4.40625 1.328125,-4.40625 0.875,-4.40625 0.6875,-4.015625 0.59375,-3.84375 0.421875,-3.5 0.296875,-2.90625 0.296875,-2.875 0.296875,-2.765625 0.390625,-2.765625 0.40625,-2.765625 0.515625,-2.765625 0.515625,-2.78125 0.578125,-3 0.75,-3.703125 0.953125,-4.1875 1.3125,-4.1875 1.46875,-4.1875 1.609375,-4.109375 1.609375,-3.734375 1.609375,-3.515625 1.578125,-3.40625 1.453125,-2.890625 Z M 0.875,-0.59375"
               id="path4751" />
          </symbol>
        </g>
      </defs>
      <g
         id="textext-0f22a110-6">
        <g
           style="fill:#000000;fill-opacity:1"
           id="g4754">
          <use
             height="100%"
             width="100%"
             xlink:href="#textext-0f22a110-1"
             x="224.62801"
             y="130.842"
             id="use4756" />
        </g>
        <path
           inkscape:connector-curvature="0"
           style="fill:none;stroke:#000000;stroke-width:0.398;stroke-linecap:butt;stroke-linejoin:miter;stroke-miterlimit:10;stroke-opacity:1"
           d="M 9.0625e-4,5.625e-4 3.969656,5.625e-4"
           transform="matrix(1,0,0,-1,224.628,132.274)"
           id="path4758" />
        <g
           style="fill:#000000;fill-opacity:1"
           id="g4760">
          <use
             height="100%"
             width="100%"
             xlink:href="#textext-0f22a110-2"
             x="224.62801"
             y="138.2"
             id="use4762" />
        </g>
        <g
           style="fill:#000000;fill-opacity:1"
           id="g4764">
          <use
             height="100%"
             width="100%"
             xlink:href="#textext-0f22a110-4"
             x="229.79401"
             y="134.765"
             id="use4766" />
        </g>
        <g
           style="fill:#000000;fill-opacity:1"
           id="g4768">
          <use
             height="100%"
             width="100%"
             xlink:href="#textext-0f22a110-5"
             x="235.83133"
             y="134.765"
             id="use4770" />
        </g>
        <g
           style="fill:#000000;fill-opacity:1"
           id="g4772">
          <use
             height="100%"
             width="100%"
             xlink:href="#textext-0f22a110-2"
             x="240.60201"
             y="131.149"
             id="use4774" />
        </g>
      </g>
    </g>
    <g
       id="g5141"
       style="font-style:normal;font-variant:normal;font-weight:normal;font-stretch:normal;letter-spacing:normal;word-spacing:normal;text-anchor:start;fill:none;fill-opacity:1;fill-rule:evenodd;stroke:#000000;stroke-linecap:butt;stroke-linejoin:miter;stroke-miterlimit:10.43299961;stroke-dasharray:none;stroke-dashoffset:0;stroke-opacity:1"
       transform="matrix(2.770088,0,0,2.770088,-281.94977,605.41748)"
       ns0:preamble="/home/ken/.config/inkscape/textextpreamble.txt"
       ns0:text="$\\frac{4}{3}\\pi r^3+4\\pi r^2\\delta r$">
      <defs
         id="defs5143">
        <g
           id="g5145">
          <symbol
             id="textext-53fecbfa-0"
             overflow="visible"
             style="overflow:visible">
            <path
               id="path5148"
               d=""
               style="stroke:none"
               inkscape:connector-curvature="0" />
          </symbol>
          <symbol
             id="textext-53fecbfa-1"
             overflow="visible"
             style="overflow:visible">
            <path
               id="path5151"
               d="M 3.6875,-1.140625 3.6875,-1.390625 2.90625,-1.390625 2.90625,-4.5 C 2.90625,-4.640625 2.90625,-4.703125 2.765625,-4.703125 2.671875,-4.703125 2.640625,-4.703125 2.578125,-4.59375 L 0.265625,-1.390625 0.265625,-1.140625 2.328125,-1.140625 2.328125,-0.578125 C 2.328125,-0.328125 2.328125,-0.25 1.75,-0.25 L 1.5625,-0.25 1.5625,0 C 1.921875,-0.015625 2.359375,-0.03125 2.609375,-0.03125 2.875,-0.03125 3.3125,-0.015625 3.671875,0 L 3.671875,-0.25 3.484375,-0.25 C 2.90625,-0.25 2.90625,-0.328125 2.90625,-0.578125 L 2.90625,-1.140625 Z M 2.375,-3.9375 2.375,-1.390625 0.53125,-1.390625 Z M 2.375,-3.9375"
               style="stroke:none"
               inkscape:connector-curvature="0" />
          </symbol>
          <symbol
             id="textext-53fecbfa-2"
             overflow="visible"
             style="overflow:visible">
            <path
               id="path5154"
               d="M 1.90625,-2.328125 C 2.453125,-2.328125 2.84375,-1.953125 2.84375,-1.203125 2.84375,-0.34375 2.328125,-0.078125 1.9375,-0.078125 1.65625,-0.078125 1.03125,-0.15625 0.75,-0.578125 1.078125,-0.578125 1.15625,-0.8125 1.15625,-0.96875 1.15625,-1.1875 0.984375,-1.34375 0.765625,-1.34375 0.578125,-1.34375 0.375,-1.21875 0.375,-0.9375 0.375,-0.28125 1.09375,0.140625 1.9375,0.140625 2.90625,0.140625 3.578125,-0.515625 3.578125,-1.203125 3.578125,-1.75 3.140625,-2.296875 2.375,-2.453125 3.09375,-2.71875 3.359375,-3.234375 3.359375,-3.671875 3.359375,-4.21875 2.734375,-4.625 1.953125,-4.625 1.1875,-4.625 0.59375,-4.25 0.59375,-3.6875 0.59375,-3.453125 0.75,-3.328125 0.953125,-3.328125 1.171875,-3.328125 1.3125,-3.484375 1.3125,-3.671875 1.3125,-3.875 1.171875,-4.03125 0.953125,-4.046875 1.203125,-4.34375 1.671875,-4.421875 1.9375,-4.421875 2.25,-4.421875 2.6875,-4.265625 2.6875,-3.671875 2.6875,-3.375 2.59375,-3.046875 2.40625,-2.84375 2.1875,-2.578125 1.984375,-2.5625 1.640625,-2.53125 1.46875,-2.515625 1.453125,-2.515625 1.421875,-2.515625 1.40625,-2.515625 1.34375,-2.5 1.34375,-2.421875 1.34375,-2.328125 1.40625,-2.328125 1.53125,-2.328125 Z M 1.90625,-2.328125"
               style="stroke:none"
               inkscape:connector-curvature="0" />
          </symbol>
          <symbol
             id="textext-53fecbfa-3"
             overflow="visible"
             style="overflow:visible">
            <path
               id="path5157"
               d="M 3.515625,-1.265625 3.28125,-1.265625 C 3.265625,-1.109375 3.1875,-0.703125 3.09375,-0.640625 3.046875,-0.59375 2.515625,-0.59375 2.40625,-0.59375 L 1.125,-0.59375 C 1.859375,-1.234375 2.109375,-1.4375 2.515625,-1.765625 3.03125,-2.171875 3.515625,-2.609375 3.515625,-3.265625 3.515625,-4.109375 2.78125,-4.625 1.890625,-4.625 1.03125,-4.625 0.4375,-4.015625 0.4375,-3.375 0.4375,-3.03125 0.734375,-2.984375 0.8125,-2.984375 0.96875,-2.984375 1.171875,-3.109375 1.171875,-3.359375 1.171875,-3.484375 1.125,-3.734375 0.765625,-3.734375 0.984375,-4.21875 1.453125,-4.375 1.78125,-4.375 2.484375,-4.375 2.84375,-3.828125 2.84375,-3.265625 2.84375,-2.65625 2.40625,-2.1875 2.1875,-1.9375 L 0.515625,-0.265625 C 0.4375,-0.203125 0.4375,-0.1875 0.4375,0 L 3.3125,0 Z M 3.515625,-1.265625"
               style="stroke:none"
               inkscape:connector-curvature="0" />
          </symbol>
          <symbol
             id="textext-53fecbfa-4"
             overflow="visible"
             style="overflow:visible">
            <path
               id="path5160"
               d=""
               style="stroke:none"
               inkscape:connector-curvature="0" />
          </symbol>
          <symbol
             id="textext-53fecbfa-5"
             overflow="visible"
             style="overflow:visible">
            <path
               id="path5163"
               d="M 2.640625,-3.71875 3.765625,-3.71875 C 3.4375,-2.25 3.34375,-1.8125 3.34375,-1.140625 3.34375,-1 3.34375,-0.734375 3.421875,-0.390625 3.53125,0.046875 3.640625,0.109375 3.78125,0.109375 3.984375,0.109375 4.203125,-0.0625 4.203125,-0.265625 4.203125,-0.328125 4.203125,-0.34375 4.140625,-0.484375 3.84375,-1.203125 3.84375,-1.859375 3.84375,-2.140625 3.84375,-2.65625 3.921875,-3.203125 4.03125,-3.71875 L 5.15625,-3.71875 C 5.296875,-3.71875 5.65625,-3.71875 5.65625,-4.0625 5.65625,-4.296875 5.4375,-4.296875 5.25,-4.296875 L 1.90625,-4.296875 C 1.6875,-4.296875 1.3125,-4.296875 0.875,-3.828125 0.53125,-3.4375 0.265625,-2.984375 0.265625,-2.9375 0.265625,-2.921875 0.265625,-2.828125 0.390625,-2.828125 0.46875,-2.828125 0.484375,-2.875 0.546875,-2.953125 1.03125,-3.71875 1.609375,-3.71875 1.8125,-3.71875 L 2.375,-3.71875 C 2.0625,-2.515625 1.53125,-1.3125 1.109375,-0.40625 1.03125,-0.25 1.03125,-0.234375 1.03125,-0.15625 1.03125,0.03125 1.1875,0.109375 1.3125,0.109375 1.609375,0.109375 1.6875,-0.171875 1.8125,-0.53125 1.953125,-1 1.953125,-1.015625 2.078125,-1.515625 Z M 2.640625,-3.71875"
               style="stroke:none"
               inkscape:connector-curvature="0" />
          </symbol>
          <symbol
             id="textext-53fecbfa-6"
             overflow="visible"
             style="overflow:visible">
            <path
               id="path5166"
               d="M 0.875,-0.59375 C 0.84375,-0.4375 0.78125,-0.203125 0.78125,-0.15625 0.78125,0.015625 0.921875,0.109375 1.078125,0.109375 1.203125,0.109375 1.375,0.03125 1.453125,-0.171875 1.46875,-0.203125 1.796875,-1.5625 1.84375,-1.75 1.921875,-2.078125 2.109375,-2.765625 2.15625,-3.046875 2.203125,-3.171875 2.484375,-3.640625 2.71875,-3.859375 2.796875,-3.921875 3.09375,-4.1875 3.515625,-4.1875 3.78125,-4.1875 3.921875,-4.0625 3.9375,-4.0625 3.640625,-4.015625 3.421875,-3.78125 3.421875,-3.515625 3.421875,-3.359375 3.53125,-3.171875 3.796875,-3.171875 4.0625,-3.171875 4.34375,-3.40625 4.34375,-3.765625 4.34375,-4.109375 4.03125,-4.40625 3.515625,-4.40625 2.875,-4.40625 2.4375,-3.921875 2.25,-3.640625 2.15625,-4.09375 1.796875,-4.40625 1.328125,-4.40625 0.875,-4.40625 0.6875,-4.015625 0.59375,-3.84375 0.421875,-3.5 0.296875,-2.90625 0.296875,-2.875 0.296875,-2.765625 0.390625,-2.765625 0.40625,-2.765625 0.515625,-2.765625 0.515625,-2.78125 0.578125,-3 0.75,-3.703125 0.953125,-4.1875 1.3125,-4.1875 1.46875,-4.1875 1.609375,-4.109375 1.609375,-3.734375 1.609375,-3.515625 1.578125,-3.40625 1.453125,-2.890625 Z M 0.875,-0.59375"
               style="stroke:none"
               inkscape:connector-curvature="0" />
          </symbol>
          <symbol
             id="textext-53fecbfa-7"
             overflow="visible"
             style="overflow:visible">
            <path
               id="path5169"
               d="M 2.625,-4.359375 C 1.390625,-4.0625 0.421875,-2.765625 0.421875,-1.5625 0.421875,-0.59375 1.0625,0.125 2,0.125 3.15625,0.125 3.984375,-1.453125 3.984375,-2.828125 3.984375,-3.734375 3.59375,-4.234375 3.25,-4.671875 2.890625,-5.125 2.296875,-5.875 2.296875,-6.3125 2.296875,-6.53125 2.5,-6.765625 2.84375,-6.765625 3.15625,-6.765625 3.34375,-6.640625 3.5625,-6.5 3.765625,-6.375 3.953125,-6.25 4.109375,-6.25 4.359375,-6.25 4.5,-6.484375 4.5,-6.65625 4.5,-6.875 4.34375,-6.890625 3.984375,-6.984375 3.46875,-7.09375 3.328125,-7.09375 3.171875,-7.09375 2.390625,-7.09375 2.03125,-6.65625 2.03125,-6.0625 2.03125,-5.515625 2.328125,-4.96875 2.625,-4.359375 Z M 2.75,-4.140625 C 3,-3.671875 3.296875,-3.140625 3.296875,-2.421875 3.296875,-1.765625 2.921875,-0.09375 2,-0.09375 1.453125,-0.09375 1.03125,-0.515625 1.03125,-1.28125 1.03125,-1.90625 1.40625,-3.78125 2.75,-4.140625 Z M 2.75,-4.140625"
               style="stroke:none"
               inkscape:connector-curvature="0" />
          </symbol>
          <symbol
             id="textext-53fecbfa-8"
             overflow="visible"
             style="overflow:visible">
            <path
               id="path5172"
               d=""
               style="stroke:none"
               inkscape:connector-curvature="0" />
          </symbol>
          <symbol
             id="textext-53fecbfa-9"
             overflow="visible"
             style="overflow:visible">
            <path
               id="path5175"
               d="M 4.078125,-2.296875 6.859375,-2.296875 C 7,-2.296875 7.1875,-2.296875 7.1875,-2.5 7.1875,-2.6875 7,-2.6875 6.859375,-2.6875 L 4.078125,-2.6875 4.078125,-5.484375 C 4.078125,-5.625 4.078125,-5.8125 3.875,-5.8125 3.671875,-5.8125 3.671875,-5.625 3.671875,-5.484375 L 3.671875,-2.6875 0.890625,-2.6875 C 0.75,-2.6875 0.5625,-2.6875 0.5625,-2.5 0.5625,-2.296875 0.75,-2.296875 0.890625,-2.296875 L 3.671875,-2.296875 3.671875,0.5 C 3.671875,0.640625 3.671875,0.828125 3.875,0.828125 4.078125,0.828125 4.078125,0.640625 4.078125,0.5 Z M 4.078125,-2.296875"
               style="stroke:none"
               inkscape:connector-curvature="0" />
          </symbol>
          <symbol
             id="textext-53fecbfa-10"
             overflow="visible"
             style="overflow:visible">
            <path
               id="path5178"
               d="M 2.9375,-1.640625 2.9375,-0.78125 C 2.9375,-0.421875 2.90625,-0.3125 2.171875,-0.3125 L 1.96875,-0.3125 1.96875,0 C 2.375,-0.03125 2.890625,-0.03125 3.3125,-0.03125 3.734375,-0.03125 4.25,-0.03125 4.671875,0 L 4.671875,-0.3125 4.453125,-0.3125 C 3.71875,-0.3125 3.703125,-0.421875 3.703125,-0.78125 L 3.703125,-1.640625 4.6875,-1.640625 4.6875,-1.953125 3.703125,-1.953125 3.703125,-6.484375 C 3.703125,-6.6875 3.703125,-6.75 3.53125,-6.75 3.453125,-6.75 3.421875,-6.75 3.34375,-6.625 L 0.28125,-1.953125 0.28125,-1.640625 Z M 2.984375,-1.953125 0.5625,-1.953125 2.984375,-5.671875 Z M 2.984375,-1.953125"
               style="stroke:none"
               inkscape:connector-curvature="0" />
          </symbol>
        </g>
      </defs>
      <g
         id="textext-53fecbfa-11">
        <g
           id="g5181"
           style="fill:#000000;fill-opacity:1">
          <use
             id="use5183"
             y="130.842"
             x="224.62801"
             xlink:href="#textext-53fecbfa-1"
             width="100%"
             height="100%" />
        </g>
        <path
           id="path5185"
           transform="matrix(1,0,0,-1,224.628,132.274)"
           d="M 9.0625e-4,5.625e-4 3.969656,5.625e-4"
           style="fill:none;stroke:#000000;stroke-width:0.398;stroke-linecap:butt;stroke-linejoin:miter;stroke-miterlimit:10;stroke-opacity:1"
           inkscape:connector-curvature="0" />
        <g
           id="g5187"
           style="fill:#000000;fill-opacity:1">
          <use
             id="use5189"
             y="138.2"
             x="224.62801"
             xlink:href="#textext-53fecbfa-2"
             width="100%"
             height="100%" />
        </g>
        <g
           id="g5191"
           style="fill:#000000;fill-opacity:1">
          <use
             id="use5193"
             y="134.765"
             x="229.79401"
             xlink:href="#textext-53fecbfa-5"
             width="100%"
             height="100%" />
        </g>
        <g
           id="g5195"
           style="fill:#000000;fill-opacity:1">
          <use
             id="use5197"
             y="134.765"
             x="235.83133"
             xlink:href="#textext-53fecbfa-6"
             width="100%"
             height="100%" />
        </g>
        <g
           id="g5199"
           style="fill:#000000;fill-opacity:1">
          <use
             id="use5201"
             y="131.149"
             x="240.60201"
             xlink:href="#textext-53fecbfa-2"
             width="100%"
             height="100%" />
        </g>
        <g
           id="g5203"
           style="fill:#000000;fill-opacity:1">
          <use
             id="use5205"
             y="134.765"
             x="247.285"
             xlink:href="#textext-53fecbfa-9"
             width="100%"
             height="100%" />
        </g>
        <g
           id="g5207"
           style="fill:#000000;fill-opacity:1">
          <use
             id="use5209"
             y="134.765"
             x="257.24561"
             xlink:href="#textext-53fecbfa-10"
             width="100%"
             height="100%" />
        </g>
        <g
           id="g5211"
           style="fill:#000000;fill-opacity:1">
          <use
             id="use5213"
             y="134.765"
             x="262.229"
             xlink:href="#textext-53fecbfa-5"
             width="100%"
             height="100%" />
        </g>
        <g
           id="g5215"
           style="fill:#000000;fill-opacity:1">
          <use
             id="use5217"
             y="134.765"
             x="268.26633"
             xlink:href="#textext-53fecbfa-6"
             width="100%"
             height="100%" />
        </g>
        <g
           id="g5219"
           style="fill:#000000;fill-opacity:1">
          <use
             id="use5221"
             y="131.149"
             x="273.03699"
             xlink:href="#textext-53fecbfa-3"
             width="100%"
             height="100%" />
        </g>
        <g
           id="g5223"
           style="fill:#000000;fill-opacity:1">
          <use
             id="use5225"
             y="134.765"
             x="277.50699"
             xlink:href="#textext-53fecbfa-7"
             width="100%"
             height="100%" />
        </g>
        <g
           id="g5227"
           style="fill:#000000;fill-opacity:1">
          <use
             id="use5229"
             y="134.765"
             x="282.31296"
             xlink:href="#textext-53fecbfa-6"
             width="100%"
             height="100%" />
        </g>
      </g>
    </g>
    <g
       id="g6065"
       style="font-style:normal;font-variant:normal;font-weight:normal;font-stretch:normal;letter-spacing:normal;word-spacing:normal;text-anchor:start;fill:none;fill-opacity:1;fill-rule:evenodd;stroke:#000000;stroke-linecap:butt;stroke-linejoin:miter;stroke-miterlimit:10.43299961;stroke-dasharray:none;stroke-dashoffset:0;stroke-opacity:1"
       transform="matrix(2.770088,0,0,2.770088,-503.0608,564.44152)"
       ns0:preamble="/home/ken/.config/inkscape/textextpreamble.txt"
       ns0:text="$4\\pi r^{2}$">
      <defs
         id="defs6067">
        <g
           id="g6069">
          <symbol
             id="textext-6c634012-0"
             overflow="visible"
             style="overflow:visible">
            <path
               id="path6072"
               d=""
               style="stroke:none"
               inkscape:connector-curvature="0" />
          </symbol>
          <symbol
             id="textext-6c634012-1"
             overflow="visible"
             style="overflow:visible">
            <path
               id="path6075"
               d="M 2.9375,-1.640625 2.9375,-0.78125 C 2.9375,-0.421875 2.90625,-0.3125 2.171875,-0.3125 L 1.96875,-0.3125 1.96875,0 C 2.375,-0.03125 2.890625,-0.03125 3.3125,-0.03125 3.734375,-0.03125 4.25,-0.03125 4.671875,0 L 4.671875,-0.3125 4.453125,-0.3125 C 3.71875,-0.3125 3.703125,-0.421875 3.703125,-0.78125 L 3.703125,-1.640625 4.6875,-1.640625 4.6875,-1.953125 3.703125,-1.953125 3.703125,-6.484375 C 3.703125,-6.6875 3.703125,-6.75 3.53125,-6.75 3.453125,-6.75 3.421875,-6.75 3.34375,-6.625 L 0.28125,-1.953125 0.28125,-1.640625 Z M 2.984375,-1.953125 0.5625,-1.953125 2.984375,-5.671875 Z M 2.984375,-1.953125"
               style="stroke:none"
               inkscape:connector-curvature="0" />
          </symbol>
          <symbol
             id="textext-6c634012-2"
             overflow="visible"
             style="overflow:visible">
            <path
               id="path6078"
               d=""
               style="stroke:none"
               inkscape:connector-curvature="0" />
          </symbol>
          <symbol
             id="textext-6c634012-3"
             overflow="visible"
             style="overflow:visible">
            <path
               id="path6081"
               d="M 2.640625,-3.71875 3.765625,-3.71875 C 3.4375,-2.25 3.34375,-1.8125 3.34375,-1.140625 3.34375,-1 3.34375,-0.734375 3.421875,-0.390625 3.53125,0.046875 3.640625,0.109375 3.78125,0.109375 3.984375,0.109375 4.203125,-0.0625 4.203125,-0.265625 4.203125,-0.328125 4.203125,-0.34375 4.140625,-0.484375 3.84375,-1.203125 3.84375,-1.859375 3.84375,-2.140625 3.84375,-2.65625 3.921875,-3.203125 4.03125,-3.71875 L 5.15625,-3.71875 C 5.296875,-3.71875 5.65625,-3.71875 5.65625,-4.0625 5.65625,-4.296875 5.4375,-4.296875 5.25,-4.296875 L 1.90625,-4.296875 C 1.6875,-4.296875 1.3125,-4.296875 0.875,-3.828125 0.53125,-3.4375 0.265625,-2.984375 0.265625,-2.9375 0.265625,-2.921875 0.265625,-2.828125 0.390625,-2.828125 0.46875,-2.828125 0.484375,-2.875 0.546875,-2.953125 1.03125,-3.71875 1.609375,-3.71875 1.8125,-3.71875 L 2.375,-3.71875 C 2.0625,-2.515625 1.53125,-1.3125 1.109375,-0.40625 1.03125,-0.25 1.03125,-0.234375 1.03125,-0.15625 1.03125,0.03125 1.1875,0.109375 1.3125,0.109375 1.609375,0.109375 1.6875,-0.171875 1.8125,-0.53125 1.953125,-1 1.953125,-1.015625 2.078125,-1.515625 Z M 2.640625,-3.71875"
               style="stroke:none"
               inkscape:connector-curvature="0" />
          </symbol>
          <symbol
             id="textext-6c634012-4"
             overflow="visible"
             style="overflow:visible">
            <path
               id="path6084"
               d="M 0.875,-0.59375 C 0.84375,-0.4375 0.78125,-0.203125 0.78125,-0.15625 0.78125,0.015625 0.921875,0.109375 1.078125,0.109375 1.203125,0.109375 1.375,0.03125 1.453125,-0.171875 1.46875,-0.203125 1.796875,-1.5625 1.84375,-1.75 1.921875,-2.078125 2.109375,-2.765625 2.15625,-3.046875 2.203125,-3.171875 2.484375,-3.640625 2.71875,-3.859375 2.796875,-3.921875 3.09375,-4.1875 3.515625,-4.1875 3.78125,-4.1875 3.921875,-4.0625 3.9375,-4.0625 3.640625,-4.015625 3.421875,-3.78125 3.421875,-3.515625 3.421875,-3.359375 3.53125,-3.171875 3.796875,-3.171875 4.0625,-3.171875 4.34375,-3.40625 4.34375,-3.765625 4.34375,-4.109375 4.03125,-4.40625 3.515625,-4.40625 2.875,-4.40625 2.4375,-3.921875 2.25,-3.640625 2.15625,-4.09375 1.796875,-4.40625 1.328125,-4.40625 0.875,-4.40625 0.6875,-4.015625 0.59375,-3.84375 0.421875,-3.5 0.296875,-2.90625 0.296875,-2.875 0.296875,-2.765625 0.390625,-2.765625 0.40625,-2.765625 0.515625,-2.765625 0.515625,-2.78125 0.578125,-3 0.75,-3.703125 0.953125,-4.1875 1.3125,-4.1875 1.46875,-4.1875 1.609375,-4.109375 1.609375,-3.734375 1.609375,-3.515625 1.578125,-3.40625 1.453125,-2.890625 Z M 0.875,-0.59375"
               style="stroke:none"
               inkscape:connector-curvature="0" />
          </symbol>
          <symbol
             id="textext-6c634012-5"
             overflow="visible"
             style="overflow:visible">
            <path
               id="path6087"
               d=""
               style="stroke:none"
               inkscape:connector-curvature="0" />
          </symbol>
          <symbol
             id="textext-6c634012-6"
             overflow="visible"
             style="overflow:visible">
            <path
               id="path6090"
               d="M 3.515625,-1.265625 3.28125,-1.265625 C 3.265625,-1.109375 3.1875,-0.703125 3.09375,-0.640625 3.046875,-0.59375 2.515625,-0.59375 2.40625,-0.59375 L 1.125,-0.59375 C 1.859375,-1.234375 2.109375,-1.4375 2.515625,-1.765625 3.03125,-2.171875 3.515625,-2.609375 3.515625,-3.265625 3.515625,-4.109375 2.78125,-4.625 1.890625,-4.625 1.03125,-4.625 0.4375,-4.015625 0.4375,-3.375 0.4375,-3.03125 0.734375,-2.984375 0.8125,-2.984375 0.96875,-2.984375 1.171875,-3.109375 1.171875,-3.359375 1.171875,-3.484375 1.125,-3.734375 0.765625,-3.734375 0.984375,-4.21875 1.453125,-4.375 1.78125,-4.375 2.484375,-4.375 2.84375,-3.828125 2.84375,-3.265625 2.84375,-2.65625 2.40625,-2.1875 2.1875,-1.9375 L 0.515625,-0.265625 C 0.4375,-0.203125 0.4375,-0.1875 0.4375,0 L 3.3125,0 Z M 3.515625,-1.265625"
               style="stroke:none"
               inkscape:connector-curvature="0" />
          </symbol>
        </g>
      </defs>
      <g
         id="textext-6c634012-7">
        <g
           id="g6093"
           style="fill:#000000;fill-opacity:1">
          <use
             id="use6095"
             y="134.765"
             x="223.43201"
             xlink:href="#textext-6c634012-1"
             width="100%"
             height="100%" />
        </g>
        <g
           id="g6097"
           style="fill:#000000;fill-opacity:1">
          <use
             id="use6099"
             y="134.765"
             x="228.41299"
             xlink:href="#textext-6c634012-3"
             width="100%"
             height="100%" />
        </g>
        <g
           id="g6101"
           style="fill:#000000;fill-opacity:1">
          <use
             id="use6103"
             y="134.765"
             x="234.45033"
             xlink:href="#textext-6c634012-4"
             width="100%"
             height="100%" />
        </g>
        <g
           id="g6105"
           style="fill:#000000;fill-opacity:1">
          <use
             id="use6107"
             y="131.149"
             x="239.22099"
             xlink:href="#textext-6c634012-6"
             width="100%"
             height="100%" />
        </g>
      </g>
    </g>
    <g
       ns0:text="$4\\pi r^{2}+8\\pi r \\delta r$"
       ns0:preamble="/home/ken/.config/inkscape/textextpreamble.txt"
       transform="matrix(2.770088,0,0,2.770088,-274.7027,568.32274)"
       style="font-style:normal;font-variant:normal;font-weight:normal;font-stretch:normal;letter-spacing:normal;word-spacing:normal;text-anchor:start;fill:none;fill-opacity:1;fill-rule:evenodd;stroke:#000000;stroke-linecap:butt;stroke-linejoin:miter;stroke-miterlimit:10.43299961;stroke-dasharray:none;stroke-dashoffset:0;stroke-opacity:1"
       id="g6672">
      <defs
         id="defs6674">
        <g
           id="g6676">
          <symbol
             style="overflow:visible"
             overflow="visible"
             id="textext-d13f4ebb-0">
            <path
               inkscape:connector-curvature="0"
               style="stroke:none"
               d=""
               id="path6679" />
          </symbol>
          <symbol
             style="overflow:visible"
             overflow="visible"
             id="textext-d13f4ebb-1">
            <path
               inkscape:connector-curvature="0"
               style="stroke:none"
               d="M 2.9375,-1.640625 2.9375,-0.78125 C 2.9375,-0.421875 2.90625,-0.3125 2.171875,-0.3125 L 1.96875,-0.3125 1.96875,0 C 2.375,-0.03125 2.890625,-0.03125 3.3125,-0.03125 3.734375,-0.03125 4.25,-0.03125 4.671875,0 L 4.671875,-0.3125 4.453125,-0.3125 C 3.71875,-0.3125 3.703125,-0.421875 3.703125,-0.78125 L 3.703125,-1.640625 4.6875,-1.640625 4.6875,-1.953125 3.703125,-1.953125 3.703125,-6.484375 C 3.703125,-6.6875 3.703125,-6.75 3.53125,-6.75 3.453125,-6.75 3.421875,-6.75 3.34375,-6.625 L 0.28125,-1.953125 0.28125,-1.640625 Z M 2.984375,-1.953125 0.5625,-1.953125 2.984375,-5.671875 Z M 2.984375,-1.953125"
               id="path6682" />
          </symbol>
          <symbol
             style="overflow:visible"
             overflow="visible"
             id="textext-d13f4ebb-2">
            <path
               inkscape:connector-curvature="0"
               style="stroke:none"
               d="M 4.078125,-2.296875 6.859375,-2.296875 C 7,-2.296875 7.1875,-2.296875 7.1875,-2.5 7.1875,-2.6875 7,-2.6875 6.859375,-2.6875 L 4.078125,-2.6875 4.078125,-5.484375 C 4.078125,-5.625 4.078125,-5.8125 3.875,-5.8125 3.671875,-5.8125 3.671875,-5.625 3.671875,-5.484375 L 3.671875,-2.6875 0.890625,-2.6875 C 0.75,-2.6875 0.5625,-2.6875 0.5625,-2.5 0.5625,-2.296875 0.75,-2.296875 0.890625,-2.296875 L 3.671875,-2.296875 3.671875,0.5 C 3.671875,0.640625 3.671875,0.828125 3.875,0.828125 4.078125,0.828125 4.078125,0.640625 4.078125,0.5 Z M 4.078125,-2.296875"
               id="path6685" />
          </symbol>
          <symbol
             style="overflow:visible"
             overflow="visible"
             id="textext-d13f4ebb-3">
            <path
               inkscape:connector-curvature="0"
               style="stroke:none"
               d="M 1.625,-4.5625 C 1.171875,-4.859375 1.125,-5.1875 1.125,-5.359375 1.125,-5.96875 1.78125,-6.390625 2.484375,-6.390625 3.203125,-6.390625 3.84375,-5.875 3.84375,-5.15625 3.84375,-4.578125 3.453125,-4.109375 2.859375,-3.765625 Z M 3.078125,-3.609375 C 3.796875,-3.984375 4.28125,-4.5 4.28125,-5.15625 4.28125,-6.078125 3.40625,-6.640625 2.5,-6.640625 1.5,-6.640625 0.6875,-5.90625 0.6875,-4.96875 0.6875,-4.796875 0.703125,-4.34375 1.125,-3.875 1.234375,-3.765625 1.609375,-3.515625 1.859375,-3.34375 1.28125,-3.046875 0.421875,-2.5 0.421875,-1.5 0.421875,-0.453125 1.4375,0.21875 2.484375,0.21875 3.609375,0.21875 4.5625,-0.609375 4.5625,-1.671875 4.5625,-2.03125 4.453125,-2.484375 4.0625,-2.90625 3.875,-3.109375 3.71875,-3.203125 3.078125,-3.609375 Z M 2.078125,-3.1875 3.3125,-2.40625 C 3.59375,-2.21875 4.0625,-1.921875 4.0625,-1.3125 4.0625,-0.578125 3.3125,-0.0625 2.5,-0.0625 1.640625,-0.0625 0.921875,-0.671875 0.921875,-1.5 0.921875,-2.078125 1.234375,-2.71875 2.078125,-3.1875 Z M 2.078125,-3.1875"
               id="path6688" />
          </symbol>
          <symbol
             style="overflow:visible"
             overflow="visible"
             id="textext-d13f4ebb-4">
            <path
               inkscape:connector-curvature="0"
               style="stroke:none"
               d=""
               id="path6691" />
          </symbol>
          <symbol
             style="overflow:visible"
             overflow="visible"
             id="textext-d13f4ebb-5">
            <path
               inkscape:connector-curvature="0"
               style="stroke:none"
               d="M 2.640625,-3.71875 3.765625,-3.71875 C 3.4375,-2.25 3.34375,-1.8125 3.34375,-1.140625 3.34375,-1 3.34375,-0.734375 3.421875,-0.390625 3.53125,0.046875 3.640625,0.109375 3.78125,0.109375 3.984375,0.109375 4.203125,-0.0625 4.203125,-0.265625 4.203125,-0.328125 4.203125,-0.34375 4.140625,-0.484375 3.84375,-1.203125 3.84375,-1.859375 3.84375,-2.140625 3.84375,-2.65625 3.921875,-3.203125 4.03125,-3.71875 L 5.15625,-3.71875 C 5.296875,-3.71875 5.65625,-3.71875 5.65625,-4.0625 5.65625,-4.296875 5.4375,-4.296875 5.25,-4.296875 L 1.90625,-4.296875 C 1.6875,-4.296875 1.3125,-4.296875 0.875,-3.828125 0.53125,-3.4375 0.265625,-2.984375 0.265625,-2.9375 0.265625,-2.921875 0.265625,-2.828125 0.390625,-2.828125 0.46875,-2.828125 0.484375,-2.875 0.546875,-2.953125 1.03125,-3.71875 1.609375,-3.71875 1.8125,-3.71875 L 2.375,-3.71875 C 2.0625,-2.515625 1.53125,-1.3125 1.109375,-0.40625 1.03125,-0.25 1.03125,-0.234375 1.03125,-0.15625 1.03125,0.03125 1.1875,0.109375 1.3125,0.109375 1.609375,0.109375 1.6875,-0.171875 1.8125,-0.53125 1.953125,-1 1.953125,-1.015625 2.078125,-1.515625 Z M 2.640625,-3.71875"
               id="path6694" />
          </symbol>
          <symbol
             style="overflow:visible"
             overflow="visible"
             id="textext-d13f4ebb-6">
            <path
               inkscape:connector-curvature="0"
               style="stroke:none"
               d="M 0.875,-0.59375 C 0.84375,-0.4375 0.78125,-0.203125 0.78125,-0.15625 0.78125,0.015625 0.921875,0.109375 1.078125,0.109375 1.203125,0.109375 1.375,0.03125 1.453125,-0.171875 1.46875,-0.203125 1.796875,-1.5625 1.84375,-1.75 1.921875,-2.078125 2.109375,-2.765625 2.15625,-3.046875 2.203125,-3.171875 2.484375,-3.640625 2.71875,-3.859375 2.796875,-3.921875 3.09375,-4.1875 3.515625,-4.1875 3.78125,-4.1875 3.921875,-4.0625 3.9375,-4.0625 3.640625,-4.015625 3.421875,-3.78125 3.421875,-3.515625 3.421875,-3.359375 3.53125,-3.171875 3.796875,-3.171875 4.0625,-3.171875 4.34375,-3.40625 4.34375,-3.765625 4.34375,-4.109375 4.03125,-4.40625 3.515625,-4.40625 2.875,-4.40625 2.4375,-3.921875 2.25,-3.640625 2.15625,-4.09375 1.796875,-4.40625 1.328125,-4.40625 0.875,-4.40625 0.6875,-4.015625 0.59375,-3.84375 0.421875,-3.5 0.296875,-2.90625 0.296875,-2.875 0.296875,-2.765625 0.390625,-2.765625 0.40625,-2.765625 0.515625,-2.765625 0.515625,-2.78125 0.578125,-3 0.75,-3.703125 0.953125,-4.1875 1.3125,-4.1875 1.46875,-4.1875 1.609375,-4.109375 1.609375,-3.734375 1.609375,-3.515625 1.578125,-3.40625 1.453125,-2.890625 Z M 0.875,-0.59375"
               id="path6697" />
          </symbol>
          <symbol
             style="overflow:visible"
             overflow="visible"
             id="textext-d13f4ebb-7">
            <path
               inkscape:connector-curvature="0"
               style="stroke:none"
               d="M 2.625,-4.359375 C 1.390625,-4.0625 0.421875,-2.765625 0.421875,-1.5625 0.421875,-0.59375 1.0625,0.125 2,0.125 3.15625,0.125 3.984375,-1.453125 3.984375,-2.828125 3.984375,-3.734375 3.59375,-4.234375 3.25,-4.671875 2.890625,-5.125 2.296875,-5.875 2.296875,-6.3125 2.296875,-6.53125 2.5,-6.765625 2.84375,-6.765625 3.15625,-6.765625 3.34375,-6.640625 3.5625,-6.5 3.765625,-6.375 3.953125,-6.25 4.109375,-6.25 4.359375,-6.25 4.5,-6.484375 4.5,-6.65625 4.5,-6.875 4.34375,-6.890625 3.984375,-6.984375 3.46875,-7.09375 3.328125,-7.09375 3.171875,-7.09375 2.390625,-7.09375 2.03125,-6.65625 2.03125,-6.0625 2.03125,-5.515625 2.328125,-4.96875 2.625,-4.359375 Z M 2.75,-4.140625 C 3,-3.671875 3.296875,-3.140625 3.296875,-2.421875 3.296875,-1.765625 2.921875,-0.09375 2,-0.09375 1.453125,-0.09375 1.03125,-0.515625 1.03125,-1.28125 1.03125,-1.90625 1.40625,-3.78125 2.75,-4.140625 Z M 2.75,-4.140625"
               id="path6700" />
          </symbol>
          <symbol
             style="overflow:visible"
             overflow="visible"
             id="textext-d13f4ebb-8">
            <path
               inkscape:connector-curvature="0"
               style="stroke:none"
               d=""
               id="path6703" />
          </symbol>
          <symbol
             style="overflow:visible"
             overflow="visible"
             id="textext-d13f4ebb-9">
            <path
               inkscape:connector-curvature="0"
               style="stroke:none"
               d="M 3.515625,-1.265625 3.28125,-1.265625 C 3.265625,-1.109375 3.1875,-0.703125 3.09375,-0.640625 3.046875,-0.59375 2.515625,-0.59375 2.40625,-0.59375 L 1.125,-0.59375 C 1.859375,-1.234375 2.109375,-1.4375 2.515625,-1.765625 3.03125,-2.171875 3.515625,-2.609375 3.515625,-3.265625 3.515625,-4.109375 2.78125,-4.625 1.890625,-4.625 1.03125,-4.625 0.4375,-4.015625 0.4375,-3.375 0.4375,-3.03125 0.734375,-2.984375 0.8125,-2.984375 0.96875,-2.984375 1.171875,-3.109375 1.171875,-3.359375 1.171875,-3.484375 1.125,-3.734375 0.765625,-3.734375 0.984375,-4.21875 1.453125,-4.375 1.78125,-4.375 2.484375,-4.375 2.84375,-3.828125 2.84375,-3.265625 2.84375,-2.65625 2.40625,-2.1875 2.1875,-1.9375 L 0.515625,-0.265625 C 0.4375,-0.203125 0.4375,-0.1875 0.4375,0 L 3.3125,0 Z M 3.515625,-1.265625"
               id="path6706" />
          </symbol>
        </g>
      </defs>
      <g
         id="textext-d13f4ebb-10">
        <g
           style="fill:#000000;fill-opacity:1"
           id="g6709">
          <use
             height="100%"
             width="100%"
             xlink:href="#textext-d13f4ebb-1"
             x="223.43201"
             y="134.765"
             id="use6711" />
        </g>
        <g
           style="fill:#000000;fill-opacity:1"
           id="g6713">
          <use
             height="100%"
             width="100%"
             xlink:href="#textext-d13f4ebb-5"
             x="228.41299"
             y="134.765"
             id="use6715" />
        </g>
        <g
           style="fill:#000000;fill-opacity:1"
           id="g6717">
          <use
             height="100%"
             width="100%"
             xlink:href="#textext-d13f4ebb-6"
             x="234.45033"
             y="134.765"
             id="use6719" />
        </g>
        <g
           style="fill:#000000;fill-opacity:1"
           id="g6721">
          <use
             height="100%"
             width="100%"
             xlink:href="#textext-d13f4ebb-9"
             x="239.22099"
             y="131.149"
             id="use6723" />
        </g>
        <g
           style="fill:#000000;fill-opacity:1"
           id="g6725">
          <use
             height="100%"
             width="100%"
             xlink:href="#textext-d13f4ebb-2"
             x="245.905"
             y="134.765"
             id="use6727" />
        </g>
        <g
           style="fill:#000000;fill-opacity:1"
           id="g6729">
          <use
             height="100%"
             width="100%"
             xlink:href="#textext-d13f4ebb-3"
             x="255.8656"
             y="134.765"
             id="use6731" />
        </g>
        <g
           style="fill:#000000;fill-opacity:1"
           id="g6733">
          <use
             height="100%"
             width="100%"
             xlink:href="#textext-d13f4ebb-5"
             x="260.849"
             y="134.765"
             id="use6735" />
        </g>
        <g
           style="fill:#000000;fill-opacity:1"
           id="g6737">
          <use
             height="100%"
             width="100%"
             xlink:href="#textext-d13f4ebb-6"
             x="266.88632"
             y="134.765"
             id="use6739" />
        </g>
        <g
           style="fill:#000000;fill-opacity:1"
           id="g6741">
          <use
             height="100%"
             width="100%"
             xlink:href="#textext-d13f4ebb-7"
             x="271.6604"
             y="134.765"
             id="use6743" />
        </g>
        <g
           style="fill:#000000;fill-opacity:1"
           id="g6745">
          <use
             height="100%"
             width="100%"
             xlink:href="#textext-d13f4ebb-6"
             x="276.45642"
             y="134.765"
             id="use6747" />
        </g>
      </g>
    </g>
    <g
       id="g7301"
       style="font-style:normal;font-variant:normal;font-weight:normal;font-stretch:normal;letter-spacing:normal;word-spacing:normal;text-anchor:start;fill:none;stroke:#000000;stroke-linecap:butt;stroke-linejoin:miter;stroke-miterlimit:10.43299961;stroke-dasharray:none;stroke-dashoffset:0;stroke-opacity:1"
       transform="matrix(2.770088,0,0,2.770088,-222.58815,440.62201)"
       ns0:preamble="/home/ken/.config/inkscape/textextpreamble.txt"
       ns0:text="P">
      <defs
         id="defs7303">
        <g
           id="g7305">
          <symbol
             id="textext-b74f2db1-0"
             overflow="visible"
             style="overflow:visible">
            <path
               id="path7308"
               d=""
               style="stroke:none"
               inkscape:connector-curvature="0" />
          </symbol>
          <symbol
             id="textext-b74f2db1-1"
             overflow="visible"
             style="overflow:visible">
            <path
               id="path7311"
               d="M 2.265625,-3.15625 3.953125,-3.15625 C 5.140625,-3.15625 6.21875,-3.953125 6.21875,-4.953125 6.21875,-5.9375 5.234375,-6.8125 3.875,-6.8125 L 0.34375,-6.8125 0.34375,-6.5 0.59375,-6.5 C 1.359375,-6.5 1.375,-6.390625 1.375,-6.03125 L 1.375,-0.78125 C 1.375,-0.421875 1.359375,-0.3125 0.59375,-0.3125 L 0.34375,-0.3125 0.34375,0 C 0.703125,-0.03125 1.4375,-0.03125 1.8125,-0.03125 2.1875,-0.03125 2.9375,-0.03125 3.296875,0 L 3.296875,-0.3125 3.046875,-0.3125 C 2.28125,-0.3125 2.265625,-0.421875 2.265625,-0.78125 Z M 2.234375,-3.40625 2.234375,-6.09375 C 2.234375,-6.4375 2.25,-6.5 2.71875,-6.5 L 3.609375,-6.5 C 5.1875,-6.5 5.1875,-5.4375 5.1875,-4.953125 5.1875,-4.484375 5.1875,-3.40625 3.609375,-3.40625 Z M 2.234375,-3.40625"
               style="stroke:none"
               inkscape:connector-curvature="0" />
          </symbol>
        </g>
      </defs>
      <g
         id="textext-b74f2db1-2">
        <g
           id="g7314"
           style="fill:#000000;fill-opacity:1">
          <use
             id="use7316"
             y="134.765"
             x="223.43201"
             xlink:href="#textext-b74f2db1-1"
             width="100%"
             height="100%" />
        </g>
      </g>
    </g>
  </g>
</svg>
