<?xml version="1.0" encoding="UTF-8" standalone="no"?>
<!-- Created with Inkscape (http://www.inkscape.org/) -->

<svg
   xmlns:ns0="http://www.iki.fi/pav/software/textext/"
   xmlns:dc="http://purl.org/dc/elements/1.1/"
   xmlns:cc="http://creativecommons.org/ns#"
   xmlns:rdf="http://www.w3.org/1999/02/22-rdf-syntax-ns#"
   xmlns:svg="http://www.w3.org/2000/svg"
   xmlns="http://www.w3.org/2000/svg"
   xmlns:sodipodi="http://sodipodi.sourceforge.net/DTD/sodipodi-0.dtd"
   xmlns:inkscape="http://www.inkscape.org/namespaces/inkscape"
   width="201.20697"
   height="200.0004"
   id="svg2"
   version="1.1"
   inkscape:version="0.48.4 r9939"
   sodipodi:docname="wulff plot for midterm 2.svg">
  <sodipodi:namedview
     id="base"
     pagecolor="#ffffff"
     bordercolor="#666666"
     borderopacity="1.0"
     inkscape:pageopacity="0.0"
     inkscape:pageshadow="2"
     inkscape:zoom="1.979899"
     inkscape:cx="68.176721"
     inkscape:cy="69.475186"
     inkscape:document-units="px"
     inkscape:current-layer="layer1"
     showgrid="true"
     units="in"
     width="11cm"
     inkscape:window-width="1920"
     inkscape:window-height="1055"
     inkscape:window-x="0"
     inkscape:window-y="0"
     inkscape:window-maximized="1"
     fit-margin-top="0"
     fit-margin-left="0"
     fit-margin-right="0"
     fit-margin-bottom="0"
     inkscape:snap-bbox="true"
     inkscape:snap-global="false"
     inkscape:snap-bbox-midpoints="true"
     inkscape:snap-nodes="true">
    <inkscape:grid
       originy="-89.999785px"
       originx="-149.39909px"
       spacingy="2px"
       spacingx="2px"
       snapvisiblegridlinesonly="true"
       enabled="true"
       visible="true"
       empspacing="5"
       id="grid2984"
       type="xygrid" />
  </sodipodi:namedview>
  <defs
     id="defs4">
    <marker
       inkscape:stockid="Arrow2Mstart"
       orient="auto"
       refY="0"
       refX="0"
       id="Arrow2Mstart"
       style="overflow:visible">
      <path
         inkscape:connector-curvature="0"
         id="path4017"
         style="fill-rule:evenodd;stroke-width:0.625;stroke-linejoin:round"
         d="M 8.7185878,4.0337352 -2.2072895,0.01601326 8.7185884,-4.0017078 c -1.7454984,2.3720609 -1.7354408,5.6174519 -6e-7,8.035443 z"
         transform="scale(0.6,0.6)" />
    </marker>
    <marker
       inkscape:stockid="Arrow2Mend"
       orient="auto"
       refY="0"
       refX="0"
       id="Arrow2Mend"
       style="overflow:visible">
      <path
         inkscape:connector-curvature="0"
         id="path3966"
         style="fill-rule:evenodd;stroke-width:0.625;stroke-linejoin:round"
         d="M 8.7185878,4.0337352 -2.2072895,0.01601326 8.7185884,-4.0017078 c -1.7454984,2.3720609 -1.7354408,5.6174519 -6e-7,8.035443 z"
         transform="scale(-0.6,-0.6)" />
    </marker>
    <marker
       inkscape:stockid="Arrow2Mend4"
       orient="auto"
       refY="0"
       refX="0"
       id="Arrow2Mend4"
       style="overflow:visible">
      <path
         inkscape:connector-curvature="0"
         id="path3969"
         style="fill:#0000ff;fill-rule:evenodd;stroke:#0000ff;stroke-width:0.625;stroke-linejoin:round"
         d="M 8.7185878,4.0337352 -2.2072895,0.01601326 8.7185884,-4.0017078 c -1.7454984,2.3720609 -1.7354408,5.6174519 -6e-7,8.035443 z"
         transform="scale(-0.6,-0.6)" />
    </marker>
    <marker
       inkscape:stockid="Arrow2MstartZ"
       orient="auto"
       refY="0"
       refX="0"
       id="Arrow2MstartZ"
       style="overflow:visible">
      <path
         inkscape:connector-curvature="0"
         id="path4448"
         style="fill:#0000ff;fill-rule:evenodd;stroke:#0000ff;stroke-width:0.625;stroke-linejoin:round"
         d="M 8.7185878,4.0337352 -2.2072895,0.01601326 8.7185884,-4.0017078 c -1.7454984,2.3720609 -1.7354408,5.6174519 -6e-7,8.035443 z"
         transform="scale(0.6,0.6)" />
    </marker>
    <marker
       inkscape:stockid="Arrow2Mend4v"
       orient="auto"
       refY="0"
       refX="0"
       id="Arrow2Mend4v"
       style="overflow:visible">
      <path
         inkscape:connector-curvature="0"
         id="path4451"
         style="fill:#0000ff;fill-rule:evenodd;stroke:#0000ff;stroke-width:0.625;stroke-linejoin:round"
         d="M 8.7185878,4.0337352 -2.2072895,0.01601326 8.7185884,-4.0017078 c -1.7454984,2.3720609 -1.7354408,5.6174519 -6e-7,8.035443 z"
         transform="scale(-0.6,-0.6)" />
    </marker>
    <marker
       inkscape:stockid="Arrow2Mend"
       orient="auto"
       refY="0"
       refX="0"
       id="Arrow2Mend-9"
       style="overflow:visible">
      <path
         inkscape:connector-curvature="0"
         id="path3966-6"
         style="fill-rule:evenodd;stroke-width:0.625;stroke-linejoin:round"
         d="M 8.7185878,4.0337352 -2.2072895,0.01601326 8.7185884,-4.0017078 c -1.7454984,2.3720609 -1.7354408,5.6174519 -6e-7,8.035443 z"
         transform="scale(-0.6,-0.6)" />
    </marker>
  </defs>
  <metadata
     id="metadata7">
    <rdf:RDF>
      <cc:Work
         rdf:about="">
        <dc:format>image/svg+xml</dc:format>
        <dc:type
           rdf:resource="http://purl.org/dc/dcmitype/StillImage" />
        <dc:title />
      </cc:Work>
    </rdf:RDF>
  </metadata>
  <g
     style="display:inline"
     inkscape:label="Layer 1"
     inkscape:groupmode="layer"
     id="layer1"
     transform="translate(-86.370732,-786.04703)">
    <path
       sodipodi:nodetypes="cssscsssc"
       inkscape:connector-curvature="0"
       id="path2986"
       d="m 156.9768,886.04722 c 0,-5.98043 -71.012048,-14.31032 -69.999998,-20 8.27942,-46.54641 51.074938,-79.41519 99.999998,-79.41519 48.47699,0 91.21054,33.50043 100,79.41519 1.16557,6.08874 -70,13.5715 -70,20 0,6.62546 71.23629,13.73725 70,20 -9.00894,45.63709 -51.71995,79.41521 -100,79.41521 -47.56349,0 -90.251928,-34.68978 -99.999998,-79.41521 -1.42664,-6.54561 70.068388,-13.03937 69.999998,-20"
       style="fill:#ffffff;fill-opacity:1;stroke:#000000;stroke-width:1.16999996;stroke-miterlimit:4;stroke-opacity:1;stroke-dasharray:none;stroke-dashoffset:0" />
    <path
       transform="translate(-62.786527,785.44374)"
       inkscape:connector-curvature="0"
       id="path3069"
       d="M 249.0026,101.20187 290.41885,10.288141"
       style="fill:#000000;fill-opacity:0;stroke:#000000;stroke-width:1px;stroke-linecap:butt;stroke-linejoin:miter;stroke-opacity:1;marker-end:url(#Arrow2Mend-9)" />
    <g
       ns0:preamble="/home/ken/.config/inkscape/textextpreamble.txt"
       ns0:text="$\\gamma$"
       word-spacing="normal"
       letter-spacing="normal"
       font-size-adjust="none"
       font-stretch="normal"
       font-weight="normal"
       font-variant="normal"
       font-style="normal"
       stroke-miterlimit="10.433"
       xml:space="preserve"
       transform="matrix(2.2578528,0,0,-2.2578528,-322.16943,1906.8579)"
       id="content"
       style="font-style:normal;font-variant:normal;font-weight:normal;font-stretch:normal;letter-spacing:normal;word-spacing:normal;text-anchor:start;fill:none;stroke:#000000;stroke-linecap:butt;stroke-linejoin:miter;stroke-miterlimit:10.43299961;stroke-opacity:1;stroke-dasharray:none;stroke-dashoffset:0"><path
         id="path4088"
         d="m 223.84,479.76 0.02,0.05 0.02,0.05 0.02,0.05 0.02,0.05 0.02,0.05 0.03,0.04 0.02,0.04 0.02,0.05 0.03,0.04 0.03,0.04 0.02,0.03 0.03,0.04 0.06,0.07 0.06,0.06 0.06,0.06 0.06,0.05 0.06,0.05 0.06,0.05 0.07,0.04 0.06,0.03 0.06,0.03 0.07,0.03 0.06,0.03 0.06,0.02 0.06,0.02 0.06,0.02 0.05,0.01 0.05,0.01 0.06,0.01 0.04,0.01 0.05,0.01 0.04,0 0.04,0.01 0.03,0 0.03,0 0.02,0 0.02,0 0.01,0 c 1.5,0 1.61,-1.74 1.61,-2.52 0,-0.61 -0.05,-0.78 -0.12,-0.98 -0.21,-0.72 -0.51,-1.87 -0.51,-2.13 0,-0.11 0.05,-0.18 0.13,-0.18 0.13,0 0.21,0.22 0.32,0.6 0.22,0.83 0.32,1.4 0.36,1.7 0.02,0.13 0.04,0.26 0.08,0.39 0.32,0.98 0.96,2.47 1.36,3.25 0.06,0.12 0.18,0.34 0.18,0.38 0,0.1 -0.09,0.1 -0.12,0.1 -0.03,0 -0.08,0 -0.11,-0.07 -0.52,-0.95 -0.92,-1.94 -1.32,-2.94 -0.01,0.3 -0.02,1.06 -0.41,2.02 -0.23,0.61 -0.63,1.1 -1.32,1.1 -1.24,0 -1.94,-1.51 -1.94,-1.82 0,-0.1 0.09,-0.1 0.19,-0.1 z"
         inkscape:connector-curvature="0"
         style="fill:#000000;stroke-width:0" /></g>  </g>
</svg>
