<?xml version="1.0" encoding="UTF-8" standalone="no"?>
<!-- Created with Inkscape (http://www.inkscape.org/) -->

<svg
   xmlns:dc="http://purl.org/dc/elements/1.1/"
   xmlns:cc="http://creativecommons.org/ns#"
   xmlns:rdf="http://www.w3.org/1999/02/22-rdf-syntax-ns#"
   xmlns:svg="http://www.w3.org/2000/svg"
   xmlns="http://www.w3.org/2000/svg"
   xmlns:sodipodi="http://sodipodi.sourceforge.net/DTD/sodipodi-0.dtd"
   xmlns:inkscape="http://www.inkscape.org/namespaces/inkscape"
   width="625.43463"
   height="287.74091"
   id="svg2"
   version="1.1"
   inkscape:version="0.48.4 r9939"
   sodipodi:docname="332figure5.1.svg">
  <sodipodi:namedview
     id="base"
     pagecolor="#ffffff"
     bordercolor="#666666"
     borderopacity="1.0"
     inkscape:pageopacity="0.0"
     inkscape:pageshadow="2"
     inkscape:zoom="1.5004828"
     inkscape:cx="402.71529"
     inkscape:cy="97.886583"
     inkscape:document-units="px"
     inkscape:current-layer="layer1"
     showgrid="true"
     units="in"
     width="11cm"
     inkscape:window-width="707"
     inkscape:window-height="896"
     inkscape:window-x="606"
     inkscape:window-y="12"
     inkscape:window-maximized="0"
     fit-margin-top="0"
     fit-margin-left="0"
     fit-margin-right="0"
     fit-margin-bottom="0"
     inkscape:snap-grids="false">
    <inkscape:grid
       type="xygrid"
       id="grid2984"
       empspacing="5"
       visible="true"
       enabled="true"
       snapvisiblegridlinesonly="true"
       spacingx="2px"
       spacingy="2px"
       originx="-21.642857px"
       originy="-124.18769px" />
  </sodipodi:namedview>
  <defs
     id="defs4">
    <marker
       style="overflow:visible"
       id="Arrow2Mend"
       refX="0"
       refY="0"
       orient="auto"
       inkscape:stockid="Arrow2Mend">
      <path
         transform="scale(-0.6,-0.6)"
         d="M 8.7185878,4.0337352 -2.2072895,0.01601326 8.7185884,-4.0017078 c -1.7454984,2.3720609 -1.7354408,5.6174519 -6e-7,8.035443 z"
         style="fill-rule:evenodd;stroke-width:0.625;stroke-linejoin:round"
         id="path3966"
         inkscape:connector-curvature="0" />
    </marker>
  </defs>
  <metadata
     id="metadata7">
    <rdf:RDF>
      <cc:Work
         rdf:about="">
        <dc:format>image/svg+xml</dc:format>
        <dc:type
           rdf:resource="http://purl.org/dc/dcmitype/StillImage" />
        <dc:title></dc:title>
      </cc:Work>
    </rdf:RDF>
  </metadata>
  <g
     transform="translate(41.385501,-664.11866)"
     id="layer1"
     inkscape:groupmode="layer"
     inkscape:label="Layer 1">
    <path
       style="fill:none;stroke:#000000;stroke-width:1px;stroke-linecap:butt;stroke-linejoin:miter;stroke-opacity:1"
       d="m 100,160.53571 c 0,0 -7.13065,16.25284 20,40 22.09719,19.34143 60.6322,73.12242 20,80 -46.763318,7.91536 -71.975064,8.78023 -80,-10 -8.024937,-18.78023 -8.863065,-57.20557 10,-60 34.97365,-5.18111 43.99404,3.09416 80,10 36.00596,6.90585 65.42605,13.15656 66.42857,-9.28572 1.33879,-29.97012 -0.71428,-43.57142 -0.71428,-43.57142 C 215.0632,154.33123 153.50074,161.72191 150,150.53571 c -3.82761,-12.23065 -1.42857,-15.00001 -21.42857,-19.28572 -19.55605,-4.19058 -21.42857,-16.42857 -21.42857,-16.42857"
       id="path2985"
       inkscape:connector-curvature="0"
       transform="translate(-63.028358,665.51153)"
       sodipodi:nodetypes="csssssscssc" />
    <path
       style="fill:none;stroke:#000000;stroke-width:1px;stroke-linecap:butt;stroke-linejoin:miter;stroke-opacity:1"
       d="m 22.142857,141.96428 c 0,0 4.285715,13.57143 13.571429,0 C 45,128.39285 28.571429,113.39285 45.714285,114.82142 c 39.721757,3.31016 68.448245,32.21884 115.793405,15.75096 49.28572,-17.14285 -16.18006,-58.834774 25.63516,-73.608103 55.61972,-19.650462 109.81919,-1.455585 80.00001,25 C 233.63833,111.68951 146.71207,110.27894 117.85714,82.678563 101.42857,66.964277 106.84304,69.385163 80,73.392849 70.6603,74.787273 64.285714,79.107134 64.285714,79.107134"
       id="path2987"
       inkscape:connector-curvature="0"
       transform="translate(-63.028358,665.51153)"
       sodipodi:nodetypes="csssssssc" />
    <path
       style="fill:none;stroke:#000000;stroke-width:1px;stroke-linecap:butt;stroke-linejoin:miter;stroke-opacity:1"
       d="m 27.142857,57.678563 c 0,0 5.000001,28.571429 40.000001,37.142857 35.000002,8.57143 29.297265,-38.705575 57.857132,-28.571429 22.14287,7.857143 52.87803,27.163616 70.86891,6.714972 17.39779,-19.774527 28.49643,-21.766834 49.13109,-26.000686 22.88795,-6.364799 57.85716,-12.857143 57.85716,-12.857143 C 375,25.535701 341.80924,60.467269 345,102.67856 c 0.65719,8.69417 7.85714,0 7.85714,0"
       id="path2989"
       inkscape:connector-curvature="0"
       transform="translate(-63.028358,665.51153)"
       sodipodi:nodetypes="csssccsc" />
    <path
       style="fill:none;stroke:#000000;stroke-width:1px;stroke-linecap:butt;stroke-linejoin:miter;stroke-opacity:1"
       d="m 160.71429,184.10713 c 0,0 30.12826,-2.2243 41.42857,15.71429 30.42644,48.3002 -14.78217,87.70532 65,81.42857 30.72759,-2.41745 61.39959,4.78812 58.57143,-20 -3.75754,-32.93396 40.23683,-40.82459 57.14285,-28.57143 38.32921,27.78028 56.45593,35.14085 90.20099,16.33612 21.59353,-12.03318 13.47591,-36.49528 32.80931,-47.00257 32.85715,-17.85714 113.87647,-2.17974 111.80802,-56.24046 -1.4828,-38.75431 -19.0651,-40.78056 -43.38975,-43.09309 -17.80895,-1.69309 -6.23721,-35.657992 -21.42857,-38.749997 -28.86464,-5.87502 -79.48128,-15.814879 -40,-37.678572 45.88888,-25.41205442 62.85715,-27.14285687 62.85715,-27.14285687"
       id="path2991"
       inkscape:connector-curvature="0"
       transform="translate(-63.028358,665.51153)"
       sodipodi:nodetypes="cssssssssssc" />
    <path
       style="fill:none;stroke:#000000;stroke-width:1px;stroke-linecap:butt;stroke-linejoin:miter;stroke-opacity:1"
       d="m 262.89957,96.585913 c 0,0 13.98648,7.106177 -16.01352,16.391887 -30,9.28572 -84.92447,11.81001 -41.61775,27.55791 23.57143,8.57143 45.03161,61.11864 94.54037,45.42728 9.27264,-2.93889 57.49958,-5.2157 78.80068,-10.65124 21.36457,-5.45174 33.3272,-3.78508 51.7094,7.46569 31.59395,19.33698 16.60844,12.75067 10.41263,36.09898 -5.9719,22.50453 -38.76768,17.86521 -71.924,20.51772 -35.71428,2.85714 -42.78549,-17.44795 -51.81124,-43.95733"
       id="path2993"
       inkscape:connector-curvature="0"
       transform="translate(-63.028358,665.51153)"
       sodipodi:nodetypes="csssssssc" />
    <path
       style="fill:none;stroke:#000000;stroke-width:1px;stroke-linecap:butt;stroke-linejoin:miter;stroke-opacity:1"
       d="m 248.57143,177.67856 c 0,0 2.7814,-12.29084 44.28571,-10.71428 54.18634,2.05829 57.85938,45.44336 74.28571,45.71428 43.30771,0.71427 19.41679,-23.72075 -7.14285,-17.85714 -43.81256,9.67255 9.69477,45.97735 -23.47897,56.76341 -21.33295,6.93616 -58.16581,6.83892 -64.21717,-1.82914 -12.16306,-17.42259 0.93095,-54.68623 -13.25014,-62.95821 -9.18505,-5.35773 -7.80372,-2.15463 -10.48229,-9.11892 z"
       id="path2995"
       inkscape:connector-curvature="0"
       transform="translate(-63.028358,665.51153)"
       sodipodi:nodetypes="cssssssc" />
    <path
       style="fill:none;stroke:#000000;stroke-width:1px;stroke-linecap:butt;stroke-linejoin:miter;stroke-opacity:1"
       d="m 445.71429,144.82142 c 0,0 8.46821,20.08143 50.52617,16.23724 5.5094,-0.50357 26.95432,5.02264 32.77113,26.52423 10.92118,40.36964 -5.54292,47.90698 -23.04848,39.2411 -24.54224,-12.14929 1.21172,-25.72385 1.21172,-25.72385"
       id="path2997"
       inkscape:connector-curvature="0"
       transform="translate(-63.028358,665.51153)"
       sodipodi:nodetypes="csssc" />
    <path
       style="fill:none;stroke:#000000;stroke-width:1px;stroke-linecap:butt;stroke-linejoin:miter;stroke-opacity:1"
       d="m 396.74421,95.584732 c 0,0 -1.61539,14.194168 20.68335,21.623498 31.14525,10.37675 48.807,-19.642783 34.78563,-31.02502 C 433.44107,70.944421 369.4798,52.337732 415.54726,43.876363 478.67006,32.282378 480.46777,-6.70229 534.94658,13.791494 c 15.12037,5.687965 -11.57596,56.176489 -24.44396,78.972782 -10.43111,18.479224 -20.45255,68.177754 27.26442,48.887914 44.18715,-17.86289 15.82603,-36.01583 -10.34168,-41.3667 -43.89471,-8.975757 -52.83271,-27.641201 -53.58867,-41.366692 -0.4441,-8.063421 15.04244,-25.384109 15.04244,-25.384109"
       id="path2999"
       inkscape:connector-curvature="0"
       transform="translate(-63.028358,665.51153)"
       sodipodi:nodetypes="cssssssssc" />
    <path
       style="fill:none;stroke:#ff000d;stroke-width:1px;stroke-linecap:butt;stroke-linejoin:miter;stroke-opacity:1"
       d="m 239.7388,120.96884 c 0,0 18.80305,20.68334 43.247,5.64091 34.43891,-21.19317 10.34167,-23.5038 61.10989,-31.96517 69.13035,-11.521725 73.79265,-7.640276 84.6137,-5.640913 15.29033,2.825134 9.01639,49.646273 -0.94015,51.708373 -20.78999,4.30583 -41.00632,11.53764 -53.58868,-21.62351 -20.58057,-54.240657 26.32426,-77.092472 -26.32426,-76.152319 -38.75729,0.692095 -25.43726,57.807739 -34.78563,91.194759 -6.58107,23.50381 -11.28183,33.84548 -11.28183,33.84548"
       id="path3001"
       inkscape:connector-curvature="0"
       transform="translate(-63.028358,665.51153)"
       sodipodi:nodetypes="csssssssc" />
  </g>
</svg>
