<?xml version="1.0" encoding="UTF-8" standalone="no"?>
<!-- Created with Inkscape (http://www.inkscape.org/) -->

<svg
   xmlns:dc="http://purl.org/dc/elements/1.1/"
   xmlns:cc="http://creativecommons.org/ns#"
   xmlns:rdf="http://www.w3.org/1999/02/22-rdf-syntax-ns#"
   xmlns:svg="http://www.w3.org/2000/svg"
   xmlns="http://www.w3.org/2000/svg"
   xmlns:sodipodi="http://sodipodi.sourceforge.net/DTD/sodipodi-0.dtd"
   xmlns:inkscape="http://www.inkscape.org/namespaces/inkscape"
   version="1.0"
   width="517.53473"
   height="375.44687"
   id="svg2"
   inkscape:version="0.48.4 r9939"
   sodipodi:docname="charpy schematic.svg">
  <sodipodi:namedview
     pagecolor="#ffffff"
     bordercolor="#666666"
     borderopacity="1"
     objecttolerance="10"
     gridtolerance="10"
     guidetolerance="10"
     inkscape:pageopacity="0"
     inkscape:pageshadow="2"
     inkscape:window-width="904"
     inkscape:window-height="806"
     id="namedview78"
     showgrid="false"
     inkscape:zoom="1.2571686"
     inkscape:cx="324.34893"
     inkscape:cy="194.08154"
     inkscape:window-x="523"
     inkscape:window-y="127"
     inkscape:window-maximized="0"
     inkscape:current-layer="svg2" />
  <metadata
     id="metadata80">
    <rdf:RDF>
      <cc:Work
         rdf:about="">
        <dc:format>image/svg+xml</dc:format>
        <dc:type
           rdf:resource="http://purl.org/dc/dcmitype/StillImage" />
      </cc:Work>
    </rdf:RDF>
  </metadata>
  <defs
     id="defs4">
    <marker
       style="overflow:visible;"
       id="Arrow2Mend"
       refX="0.0"
       refY="0.0"
       orient="auto"
       inkscape:stockid="Arrow2Mend">
      <path
         transform="scale(0.6) rotate(180) translate(0,0)"
         d="M 8.7185878,4.0337352 L -2.2072895,0.016013256 L 8.7185884,-4.0017078 C 6.9730900,-1.6296469 6.9831476,1.6157441 8.7185878,4.0337352 z "
         style="fill-rule:evenodd;stroke-width:0.62500000;stroke-linejoin:round;"
         id="path3858" />
    </marker>
    <marker
       style="overflow:visible;"
       id="Arrow2MendC"
       refX="0.0"
       refY="0.0"
       orient="auto"
       inkscape:stockid="Arrow2MendC">
      <path
         transform="scale(0.6) rotate(180) translate(0,0)"
         d="M 8.7185878,4.0337352 L -2.2072895,0.016013256 L 8.7185884,-4.0017078 C 6.9730900,-1.6296469 6.9831476,1.6157441 8.7185878,4.0337352 z "
         style="stroke-linejoin:round;stroke:#ff0000;stroke-width:0.62500000;fill:#ff0000;fill-rule:evenodd"
         id="path4278" />
    </marker>
  </defs>
  <g
     id="layer1"
     transform="translate(-29.008989,-670.34432)">
    <path
       style="fill:#808080;fill-opacity:1;fill-rule:evenodd;stroke:none;stroke-width:1px;stroke-linecap:butt;stroke-linejoin:miter;stroke-opacity:1"
       id="path3251"
       d="M 293.29838,964.15365 L 280.12579,978.04325 L 263.64982,995.72095 L 287.74255,995.72095 L 301.68147,982.01565 L 300.99949,964.06355 L 293.29838,964.15365 z" />
    <path
       style="fill:#808080;fill-opacity:1;fill-rule:evenodd;stroke:none;stroke-width:1px;stroke-linecap:butt;stroke-linejoin:miter;stroke-opacity:1"
       id="path3209"
       d="M 251.06351,949.8948 L 265.20565,935.50008 L 265.02485,929.07959 L 245.5301,929.58739 L 232.12315,943.07622 L 232.12315,970.79234 L 238.94095,967.29297 L 239.07539,963.1217 L 251.06351,949.8948 z" />
    <path
       style="fill:none;fill-opacity:1;fill-rule:evenodd;stroke:#000000;stroke-width:1px;stroke-linecap:butt;stroke-linejoin:miter;stroke-opacity:1"
       id="path3211"
       d="M 263.14475,995.60428 L 287.64094,995.60428 L 287.64093,977.92658 L 280.56987,977.92658 M 251.0229,950.84187 L 251.0229,943.07626 L 232.08254,943.07626 L 232.08254,970.28729" />
    <path
       style="fill:none;fill-rule:evenodd;stroke:#000000;stroke-width:1px;stroke-linecap:butt;stroke-linejoin:miter;stroke-opacity:1"
       id="path3213"
       d="M 287.64094,977.67398 L 301.53054,963.78438" />
    <path
       style="fill:none;fill-rule:evenodd;stroke:#000000;stroke-width:1px;stroke-linecap:butt;stroke-linejoin:miter;stroke-opacity:1"
       id="path3215"
       d="M 287.76721,995.47798 L 301.65681,981.58838" />
    <path
       style="fill:none;fill-rule:evenodd;stroke:#000000;stroke-width:1px;stroke-linecap:butt;stroke-linejoin:miter;stroke-opacity:1"
       id="path3217"
       d="M 301.278,964.16318 L 301.278,981.58838" />
    <path
       style="fill:none;fill-rule:evenodd;stroke:#000000;stroke-width:1px;stroke-linecap:butt;stroke-linejoin:miter;stroke-opacity:1"
       id="path3219"
       d="M 301.15173,964.16318 L 293.07051,964.16318" />
    <path
       style="fill:none;fill-rule:evenodd;stroke:#000000;stroke-width:1px;stroke-linecap:butt;stroke-linejoin:miter;stroke-opacity:1"
       id="path3221"
       d="M 251.14918,943.70761 L 265.03878,929.81801" />
    <path
       style="fill:none;fill-rule:evenodd;stroke:#000000;stroke-width:1px;stroke-linecap:butt;stroke-linejoin:miter;stroke-opacity:1"
       id="path3223"
       d="M 231.70374,943.20253 L 245.59334,929.31293" />
    <path
       style="fill:none;fill-rule:evenodd;stroke:#000000;stroke-width:1px;stroke-linecap:butt;stroke-linejoin:miter;stroke-opacity:1"
       id="path3225"
       d="M 264.91251,936.00519 L 264.91251,929.81801 C 264.14251,929.61169 245.08826,929.81801 245.08826,929.81801" />
    <path
       style="fill:#808080;fill-opacity:1;fill-rule:evenodd;stroke:none;stroke-width:1px;stroke-linecap:butt;stroke-linejoin:miter;stroke-opacity:1"
       id="path3171"
       d="M 245.76021,1013.7239 L 232.58762,1027.6135 L 203.58634,1027.6135 L 203.58634,999.58172 L 217.72848,985.187 L 217.54768,978.76651 L 198.05293,979.27431 L 184.64598,992.76314 L 184.64598,1045.2912 L 240.20438,1045.2912 L 254.1433,1031.5859 L 253.46132,1013.6338 L 245.76021,1013.7239 z" />
    <g
       id="g3147"
       transform="translate(152.85714,-20)">
      <path
         style="fill:none;fill-opacity:1;stroke:#000000;stroke-width:1;stroke-miterlimit:4;stroke-dashoffset:0;stroke-opacity:1"
         id="rect2160"
         d="M 112.47003,955.93756 L 141.04146,955.93756 L 80.387115,1018.7947 L 51.815685,1018.7947 L 78.275231,991.37422 L 86.593648,987.33362 L 86.195095,983.16673 L 112.47003,955.93756 z" />
      <path
         style="fill:none;fill-rule:evenodd;stroke:#000000;stroke-width:1px;stroke-linecap:butt;stroke-linejoin:miter;stroke-opacity:1"
         id="path3137"
         d="M 51.391511,1047.4377 L 51.391511,1018.9009" />
      <path
         style="fill:none;fill-rule:evenodd;stroke:#000000;stroke-width:1px;stroke-linecap:butt;stroke-linejoin:miter;stroke-opacity:1"
         id="path3139"
         d="M 80.054589,1047.1852 L 80.054589,1018.6484" />
      <path
         style="fill:none;fill-rule:evenodd;stroke:#000000;stroke-width:1px;stroke-linecap:butt;stroke-linejoin:miter;stroke-opacity:1"
         id="path3141"
         d="M 51.391515,1046.8063 L 79.928315,1046.8063" />
      <path
         style="fill:none;fill-rule:evenodd;stroke:#000000;stroke-width:1px;stroke-linecap:butt;stroke-linejoin:miter;stroke-opacity:1"
         id="path3143"
         d="M 141.42135,984.30315 L 141.42135,955.76635" />
      <path
         style="fill:none;fill-rule:evenodd;stroke:#000000;stroke-width:1px;stroke-linecap:butt;stroke-linejoin:miter;stroke-opacity:1"
         id="path3145"
         d="M 80.054589,1046.7746 L 141.42136,983.38754" />
    </g>
    <path
       style="fill:none;fill-opacity:1;fill-rule:evenodd;stroke:#000000;stroke-width:1px;stroke-linecap:butt;stroke-linejoin:miter;stroke-opacity:1"
       id="path3155"
       d="M 240.16376,1027.6135 L 203.54573,1027.6135 L 203.54573,992.76318 L 184.60537,992.76318 L 184.60537,1045.2912 L 240.16377,1045.2912 L 240.16376,1027.6135 z" />
    <path
       style="fill:none;fill-rule:evenodd;stroke:#000000;stroke-width:1px;stroke-linecap:butt;stroke-linejoin:miter;stroke-opacity:1"
       id="path3157"
       d="M 240.16377,1027.3609 L 254.05337,1013.4713" />
    <path
       style="fill:none;fill-rule:evenodd;stroke:#000000;stroke-width:1px;stroke-linecap:butt;stroke-linejoin:miter;stroke-opacity:1"
       id="path3159"
       d="M 240.29004,1045.1649 L 254.17964,1031.2753" />
    <path
       style="fill:none;fill-rule:evenodd;stroke:#000000;stroke-width:1px;stroke-linecap:butt;stroke-linejoin:miter;stroke-opacity:1"
       id="path3161"
       d="M 253.80083,1013.8501 L 253.80083,1031.2753" />
    <path
       style="fill:none;fill-rule:evenodd;stroke:#000000;stroke-width:1px;stroke-linecap:butt;stroke-linejoin:miter;stroke-opacity:1"
       id="path3163"
       d="M 253.67456,1013.8501 L 245.59334,1013.8501" />
    <path
       style="fill:none;fill-rule:evenodd;stroke:#000000;stroke-width:1px;stroke-linecap:butt;stroke-linejoin:miter;stroke-opacity:1"
       id="path3165"
       d="M 203.67201,993.39453 L 217.56161,979.50493" />
    <path
       style="fill:none;fill-rule:evenodd;stroke:#000000;stroke-width:1px;stroke-linecap:butt;stroke-linejoin:miter;stroke-opacity:1"
       id="path3167"
       d="M 184.22657,992.88945 L 198.11617,978.99985" />
    <path
       style="fill:none;fill-rule:evenodd;stroke:#000000;stroke-width:1px;stroke-linecap:butt;stroke-linejoin:miter;stroke-opacity:1"
       id="path3169"
       d="M 217.43534,985.69211 L 217.43534,979.50493 C 216.66534,979.29861 197.61109,979.50493 197.61109,979.50493" />
    <path
       style="fill:none;fill-opacity:1;stroke:#000000;stroke-width:1;stroke-miterlimit:4;stroke-dasharray:none;stroke-dashoffset:0;stroke-opacity:1"
       id="path3255"
       transform="translate(-5.0203049,8.3979335)"
       d="M 247.48738,757.39766 A 45.456863,45.456863 0 1 1 247.48738,666.48393 L 247.48738,711.9408 z" />
    <path
       style="fill:none;fill-rule:evenodd;stroke:#000000;stroke-width:1px;stroke-linecap:butt;stroke-linejoin:miter;stroke-opacity:1"
       id="path3264"
       d="M 205.14285,720.75503 L 197.28571,720.75503" />
    <path
       style="fill:none;fill-rule:evenodd;stroke:#000000;stroke-width:1px;stroke-linecap:butt;stroke-linejoin:miter;stroke-opacity:1"
       id="path3266"
       d="M 205.68188,727.38098 L 197.84791,728.76232" />
    <path
       style="fill:none;fill-rule:evenodd;stroke:#000000;stroke-width:1px;stroke-linecap:butt;stroke-linejoin:miter;stroke-opacity:1"
       id="path3268"
       d="M 207.09807,733.94438 L 200.04466,736.51161" />
    <path
       style="fill:none;fill-rule:evenodd;stroke:#000000;stroke-width:1px;stroke-linecap:butt;stroke-linejoin:miter;stroke-opacity:1"
       id="path3270"
       d="M 209.98436,739.23054 L 203.00343,743.26098" />
    <path
       style="fill:none;fill-rule:evenodd;stroke:#000000;stroke-width:1px;stroke-linecap:butt;stroke-linejoin:miter;stroke-opacity:1"
       id="path3272"
       d="M 213.55198,744.88156 L 207.73666,749.76119" />
    <path
       style="fill:none;fill-rule:evenodd;stroke:#000000;stroke-width:1px;stroke-linecap:butt;stroke-linejoin:miter;stroke-opacity:1"
       id="path3274"
       d="M 218.51721,749.63937 L 213.71137,755.36675" />
    <path
       style="fill:none;fill-rule:evenodd;stroke:#000000;stroke-width:1px;stroke-linecap:butt;stroke-linejoin:miter;stroke-opacity:1"
       id="path3276"
       d="M 224.09002,753.54742 L 220.33618,760.04926" />
    <path
       style="fill:none;fill-rule:evenodd;stroke:#000000;stroke-width:1px;stroke-linecap:butt;stroke-linejoin:miter;stroke-opacity:1"
       id="path3278"
       d="M 229.87553,756.03131 L 227.2718,763.18499" />
    <path
       style="fill:none;fill-rule:evenodd;stroke:#000000;stroke-width:1px;stroke-linecap:butt;stroke-linejoin:miter;stroke-opacity:1"
       id="path3280"
       d="M 235.70613,758.04985 L 234.49725,764.90575" />
    <path
       style="fill:none;fill-rule:evenodd;stroke:#000000;stroke-width:1px;stroke-linecap:butt;stroke-linejoin:miter;stroke-opacity:1"
       id="path3284"
       d="M 205.63898,713.83663 L 197.83554,712.46067" />
    <path
       style="fill:none;fill-rule:evenodd;stroke:#000000;stroke-width:1px;stroke-linecap:butt;stroke-linejoin:miter;stroke-opacity:1"
       id="path3286"
       d="M 207.1075,707.36116 L 200.03961,704.78866" />
    <path
       style="fill:none;fill-rule:evenodd;stroke:#000000;stroke-width:1px;stroke-linecap:butt;stroke-linejoin:miter;stroke-opacity:1"
       id="path3288"
       d="M 209.97992,702.15649 L 202.97827,698.11409" />
    <path
       style="fill:none;fill-rule:evenodd;stroke:#000000;stroke-width:1px;stroke-linecap:butt;stroke-linejoin:miter;stroke-opacity:1"
       id="path3290"
       d="M 213.66325,696.70872 L 207.63837,691.65325" />
    <path
       style="fill:none;fill-rule:evenodd;stroke:#000000;stroke-width:1px;stroke-linecap:butt;stroke-linejoin:miter;stroke-opacity:1"
       id="path3292"
       d="M 218.58591,692.08401 L 213.23532,685.70743" />
    <path
       style="fill:none;fill-rule:evenodd;stroke:#000000;stroke-width:1px;stroke-linecap:butt;stroke-linejoin:miter;stroke-opacity:1"
       id="path3294"
       d="M 223.9045,687.99429 L 219.86207,680.99261" />
    <path
       style="fill:none;fill-rule:evenodd;stroke:#000000;stroke-width:1px;stroke-linecap:butt;stroke-linejoin:miter;stroke-opacity:1"
       id="path3296"
       d="M 229.51351,685.25341 L 226.65403,677.39708" />
    <path
       style="fill:none;fill-rule:evenodd;stroke:#000000;stroke-width:1px;stroke-linecap:butt;stroke-linejoin:miter;stroke-opacity:1"
       id="path3318"
       d="M 236.01193,683.5849 L 234.63058,675.75091" />
    <path
       style="fill:none;fill-rule:evenodd;stroke:#000000;stroke-width:1px;stroke-linecap:butt;stroke-linejoin:miter;stroke-opacity:1"
       id="path3321"
       d="M 242.46427,765.6836 L 246.39284,761.57646" />
    <path
       style="fill:none;fill-rule:evenodd;stroke:#000000;stroke-width:1px;stroke-linecap:butt;stroke-linejoin:miter;stroke-opacity:1"
       id="path3325"
       d="M 242.46428,674.95146 L 246.39285,670.84432" />
    <path
       style="fill:none;fill-opacity:1;stroke:#000000;stroke-width:1;stroke-miterlimit:4;stroke-dashoffset:0;stroke-opacity:1"
       id="path3327"
       d="M 213.49057,685.16647 C 221.77432,676.44953 233.47742,671.01246 246.44271,671.01246 C 246.44271,671.01246 246.44271,671.01246 246.44271,671.01246 L 246.44271,716.46933 L 246.44271,761.92619" />
    <path
       style="fill:#808080;fill-opacity:1;stroke:#000000;stroke-width:1;stroke-miterlimit:4;stroke-dasharray:none;stroke-dashoffset:0;stroke-opacity:1"
       id="path3259"
       d="M 245.34577,713.23583 C 243.27577,711.16583 239.90276,711.16582 237.83276,713.23583 C 236.57857,714.49002 236.08666,716.22666 236.35226,717.85412 L 209.99043,748.23761 L 240.32973,722.14095 C 242.07011,722.56547 243.98734,722.10727 245.34577,720.74884 C 247.41577,718.67884 247.41579,715.30581 245.34577,713.23583 z" />
    <path
       style="fill:none;fill-opacity:1;stroke:#000000;stroke-width:0.5;stroke-miterlimit:4;stroke-dasharray:3, 1;stroke-dashoffset:0;stroke-opacity:1"
       id="path3347"
       d="M 262.29714,996.61588 L 262.45852,968.188 L 234.09817,968.13262 L 234.13815,959.19037 C 238.71298,955.99156 244.27902,954.11443 250.28083,954.11443 C 265.85512,954.11443 278.49512,966.75443 278.49512,982.32872 C 278.49512,997.903 265.85512,1010.543 250.28083,1010.543 C 249.64439,1010.543 249.01285,1010.5219 248.38687,1010.4803" />
    <path
       style="fill:none;fill-rule:evenodd;stroke:#000000;stroke-width:0.5;stroke-linecap:butt;stroke-linejoin:miter;stroke-miterlimit:4;stroke-dasharray:none;stroke-opacity:1"
       id="path3356"
       d="M 233.76503,959.35136 L 237.80564,955.18448" />
    <path
       style="fill:none;fill-opacity:1;stroke:#000000;stroke-width:0.5;stroke-miterlimit:4;stroke-dasharray:3, 1;stroke-dashoffset:0;stroke-opacity:1"
       id="path3358"
       d="M 237.3223,955.53217 C 241.89713,952.33336 247.46317,950.45623 253.46498,950.45623 C 269.03927,950.45623 281.67927,963.09623 281.67927,978.67052 C 281.67927,986.36305 278.59559,993.33974 273.59775,998.43104" />
    <g
       id="g3394"
       transform="translate(185.61553,-80.812204)">
      <path
         style="fill:none;fill-opacity:1;stroke:#000000;stroke-width:1;stroke-miterlimit:4;stroke-dashoffset:0;stroke-opacity:1"
         id="path3380"
         d="M 351.29237,813.01428 L 342.31758,812.97415 L 342.58673,784.64903 L 314.15885,784.48765 L 314.10347,812.848 L 305.16121,812.80802 C 301.9624,808.23319 300.08528,802.66715 300.08528,796.66534 C 300.08528,781.09105 312.72528,768.45105 328.29957,768.45105 C 343.87385,768.45105 356.51387,781.09105 356.51387,796.66534 C 356.51387,802.75765 354.57968,808.40095 351.29237,813.01428 z" />
      <path
         style="fill:none;fill-rule:evenodd;stroke:#000000;stroke-width:1px;stroke-linecap:butt;stroke-linejoin:miter;stroke-opacity:1"
         id="path3382"
         d="M 314.15744,812.76663 L 318.19805,808.59975 L 318.19805,784.41922" />
      <path
         style="fill:none;fill-rule:evenodd;stroke:#000000;stroke-width:1px;stroke-linecap:butt;stroke-linejoin:miter;stroke-opacity:1"
         id="path3384"
         d="M 351.28055,812.89289 L 355.32116,808.72601" />
      <path
         style="fill:none;fill-opacity:1;stroke:#000000;stroke-width:1;stroke-miterlimit:4;stroke-dashoffset:0;stroke-opacity:1"
         id="path3386"
         d="M 310.40724,774.72699 C 315.58315,768.42931 323.43205,764.41045 332.21391,764.41045 C 347.78819,764.41045 360.42821,777.05045 360.42821,792.62474 C 360.42821,798.71705 358.49402,804.36035 355.20671,808.97368" />
    </g>
    <path
       style="fill:none;fill-opacity:1;stroke:#000000;stroke-width:0.5;stroke-miterlimit:4;stroke-dasharray:3, 1;stroke-dashoffset:0;stroke-opacity:1"
       id="path3404"
       transform="translate(-1.767767,0)"
       d="M 253.80083,952.54651 C 253.80083,953.41777 252.24519,954.12487 250.32843,954.12487 C 248.41167,954.12487 246.85603,953.41777 246.85603,952.54651" />
    <path
       style="fill:none;fill-rule:evenodd;stroke:#000000;stroke-width:0.5;stroke-linecap:butt;stroke-linejoin:miter;stroke-miterlimit:4;stroke-dasharray:3, 1;stroke-dashoffset:0;stroke-opacity:1"
       id="path3407"
       d="M 251.96429,952.71933 L 251.96429,714.97123" />
    <path
       style="fill:none;fill-rule:evenodd;stroke:#000000;stroke-width:0.5;stroke-linecap:butt;stroke-linejoin:miter;stroke-miterlimit:4;stroke-dasharray:3, 1;stroke-dashoffset:0;stroke-opacity:1"
       id="path3409"
       d="M 245.05653,952.74742 L 245.05653,763.45854" />
    <path
       style="fill:none;fill-rule:evenodd;stroke:#000000;stroke-width:1px;stroke-linecap:butt;stroke-linejoin:miter;stroke-opacity:1"
       id="path3419"
       d="M 486.19991,711.88084 L 262.13459,711.88084" />
    <path
       style="fill:none;fill-rule:evenodd;stroke:#000000;stroke-width:1px;stroke-linecap:butt;stroke-linejoin:miter;stroke-opacity:1"
       id="path3421"
       d="M 486.22801,718.7886 L 262.13459,718.7886" />
    <path
       style="fill:none;fill-opacity:1;stroke:#000000;stroke-width:1;stroke-miterlimit:4;stroke-dashoffset:0;stroke-opacity:1"
       id="path3455"
       d="M 29.50899,908.36248 L 35.8835,902.04472 L 55.72207,922.26392 L 75.93773,902.27648 L 55.92309,882.18353 L 62.2745,875.88867 C 67.77129,876.86166 73.0344,879.47012 77.27832,883.71404 C 88.29101,894.72673 88.29101,912.60239 77.27832,923.61507 C 66.26564,934.62775 48.38997,934.62777 37.37728,923.61508 C 33.06937,919.30717 30.44663,913.94907 29.50899,908.36248 z" />
    <path
       style="fill:none;fill-rule:evenodd;stroke:#000000;stroke-width:1px;stroke-linecap:butt;stroke-linejoin:miter;stroke-opacity:1"
       id="path3459"
       d="M 36.04793,901.99987 L 40.08854,897.83299 L 60.06435,917.8088" />
    <path
       style="fill:none;fill-opacity:1;stroke:#000000;stroke-width:1;stroke-miterlimit:4;stroke-dashoffset:0;stroke-opacity:1"
       id="path3477"
       d="M 84.157085,883.46061 C 91.952846,894.47226 90.920757,909.8336 81.06082,919.69353 M 66.057,871.96713 C 70.968863,872.83658 75.694134,875.01195 79.672327,878.49324" />
    <path
       style="fill:none;fill-rule:evenodd;stroke:#000000;stroke-width:1px;stroke-linecap:butt;stroke-linejoin:miter;stroke-opacity:1"
       id="path3479"
       d="M 62.33342,875.74621 L 66.37403,871.57933" />
    <g
       id="g3491"
       transform="matrix(-0.7071068,0.7071068,-0.7071068,-0.7071068,926.94013,1137.5128)">
      <path
         style="fill:none;fill-rule:evenodd;stroke:#000000;stroke-width:1px;stroke-linecap:butt;stroke-linejoin:miter;stroke-opacity:1"
         id="path3487"
         d="M 418.85999,775.33687 L 234.5208,775.33687" />
      <path
         style="fill:none;fill-rule:evenodd;stroke:#000000;stroke-width:1px;stroke-linecap:butt;stroke-linejoin:miter;stroke-opacity:1"
         id="path3489"
         d="M 418.88809,782.24463 L 234.34218,782.24463" />
    </g>
    <path
       style="fill:none;fill-opacity:1;stroke:#000000;stroke-width:1;stroke-miterlimit:4;stroke-dashoffset:0;stroke-opacity:1"
       id="path3495"
       d="M 82.64835,885.25033 C 82.007634,885.89104 80.438761,885.36217 79.146399,884.06981 C 77.854038,882.77745 77.325165,881.20858 77.965881,880.56786" />
    <path
       style="fill:none;fill-opacity:1;stroke:#000000;stroke-width:1;stroke-miterlimit:4;stroke-dasharray:none;stroke-dashoffset:0;stroke-opacity:1"
       id="path3502"
       transform="translate(2.6785719,4.4642856)"
       d="M 243.92857,704.14788 A 11.785714,11.785714 0 0 1 243.92857,727.71931 L 243.92857,715.93359 z" />
    <path
       style="fill:none;fill-rule:evenodd;stroke:#000000;stroke-width:1px;stroke-linecap:butt;stroke-linejoin:miter;stroke-opacity:1"
       id="path3504"
       d="M 254.82143,729.14789 L 261.60714,722.36218" />
    <path
       style="fill:none;fill-opacity:1;stroke:#000000;stroke-width:1;stroke-miterlimit:4;stroke-dashoffset:0;stroke-opacity:1"
       id="path3506"
       transform="translate(9.1071411,-1.6071264)"
       d="M 254.90785,720.28596 C 254.27122,721.87074 253.27551,723.34109 251.93588,724.58149 M 237.64086,705.96526 C 243.14338,702.49444 250.42609,704.14336 253.89691,709.64588 C 254.67835,710.88475 255.20772,712.20947 255.49285,713.56038" />
    <path
       style="fill:none;fill-opacity:1;stroke:#000000;stroke-width:1;stroke-miterlimit:4;stroke-dasharray:none;stroke-dashoffset:0;stroke-opacity:1"
       id="path3508"
       transform="translate(1.0101525,-0.3788073)"
       d="M 261.37698,719.26435 A 2.0203052,3.5355341 0 1 1 261.37698,712.19329" />
  </g>
  <path
     sodipodi:nodetypes="cac"
     inkscape:connector-curvature="0"
     id="path3057"
     d="m 473.28578,97.838908 c 0,0 -1.42646,84.618402 -25.45403,116.133992 -32.14244,42.1594 -140.79257,73.97576 -140.79257,73.97576"
     style="stroke-linejoin:miter;marker-end:url(#Arrow2MendC);stroke-opacity:1;stroke:#ff0000;stroke-linecap:butt;stroke-miterlimit:4;stroke-dasharray:none;stroke-width:8;fill:none" />
</svg>
