<?xml version="1.0" encoding="UTF-8" standalone="no"?>
<!-- Created with Inkscape (http://www.inkscape.org/) -->

<svg
   xmlns:ns0="http://www.iki.fi/pav/software/textext/"
   xmlns:dc="http://purl.org/dc/elements/1.1/"
   xmlns:cc="http://creativecommons.org/ns#"
   xmlns:rdf="http://www.w3.org/1999/02/22-rdf-syntax-ns#"
   xmlns:svg="http://www.w3.org/2000/svg"
   xmlns="http://www.w3.org/2000/svg"
   xmlns:sodipodi="http://sodipodi.sourceforge.net/DTD/sodipodi-0.dtd"
   xmlns:inkscape="http://www.inkscape.org/namespaces/inkscape"
   width="538.49072"
   height="372.34988"
   id="svg2"
   version="1.1"
   inkscape:version="0.91 r"
   sodipodi:docname="deformation mechanism map.svg">
  <sodipodi:namedview
     id="base"
     pagecolor="#ffffff"
     bordercolor="#666666"
     borderopacity="1.0"
     inkscape:pageopacity="0.0"
     inkscape:pageshadow="2"
     inkscape:zoom="1.979899"
     inkscape:cx="248.07322"
     inkscape:cy="229.46251"
     inkscape:document-units="px"
     inkscape:current-layer="layer1"
     showgrid="true"
     units="in"
     width="11cm"
     inkscape:window-width="1680"
     inkscape:window-height="1023"
     inkscape:window-x="0"
     inkscape:window-y="0"
     inkscape:window-maximized="1"
     fit-margin-top="0"
     fit-margin-left="0"
     fit-margin-right="0"
     fit-margin-bottom="0"
     inkscape:snap-global="false">
    <inkscape:grid
       spacingy="2px"
       spacingx="2px"
       snapvisiblegridlinesonly="true"
       enabled="true"
       visible="true"
       empspacing="5"
       id="grid2984"
       type="xygrid"
       originx="-52.009293px"
       originy="-28.150125px" />
  </sodipodi:namedview>
  <defs
     id="defs4">
    <marker
       inkscape:stockid="Arrow2Mend"
       orient="auto"
       refY="0"
       refX="0"
       id="Arrow2Mend"
       style="overflow:visible">
      <path
         inkscape:connector-curvature="0"
         id="path3966"
         style="fill-rule:evenodd;stroke-width:0.625;stroke-linejoin:round"
         d="M 8.7185878,4.0337352 -2.2072895,0.01601326 8.7185884,-4.0017078 c -1.7454984,2.3720609 -1.7354408,5.6174519 -6e-7,8.035443 z"
         transform="scale(-0.6,-0.6)" />
    </marker>
  </defs>
  <metadata
     id="metadata7">
    <rdf:RDF>
      <cc:Work
         rdf:about="">
        <dc:format>image/svg+xml</dc:format>
        <dc:type
           rdf:resource="http://purl.org/dc/dcmitype/StillImage" />
        <dc:title />
      </cc:Work>
    </rdf:RDF>
  </metadata>
  <g
     inkscape:label="Layer 1"
     inkscape:groupmode="layer"
     id="layer1"
     transform="translate(11.019065,-675.54724)">
    <path
       transform="translate(-63.028358,665.51153)"
       inkscape:connector-curvature="0"
       id="path3107"
       d="m 140,10.535706 0,340.000004 450,0 0,-340.000004 z"
       style="fill:none;stroke:#000000;stroke-width:1px;stroke-linecap:butt;stroke-linejoin:miter;stroke-opacity:1" />
    <path
       sodipodi:nodetypes="cacc"
       transform="translate(-63.028358,665.51153)"
       inkscape:connector-curvature="0"
       id="path3115"
       d="m 140,50.535706 c 0,0 79.66862,15.778125 120,20 76.32207,7.989368 230,10 230,10 l 100,0"
       style="fill:none;stroke:#000000;stroke-width:1px;stroke-linecap:butt;stroke-linejoin:miter;stroke-opacity:1" />
    <path
       sodipodi:nodetypes="ccasc"
       inkscape:connector-curvature="0"
       id="path3117"
       d="m 260,70.535706 60,70.000004 c 0,0 43.96727,37.97838 70,50 24.95504,11.52395 51.51999,20 80,20 40,0 120,0 120,0"
       style="fill:#ffffff;stroke:#000000;stroke-width:1px;stroke-linecap:butt;stroke-linejoin:miter;stroke-opacity:1"
       transform="translate(-63.028358,665.51153)" />
    <path
       sodipodi:nodetypes="cacacc"
       transform="translate(-63.028358,665.51153)"
       inkscape:connector-curvature="0"
       id="path3119"
       d="m 320,140.53571 c 0,0 27.56269,57.96693 50,80 27.73609,27.23638 100,60 100,60 0,0 31.03402,30.20983 50,40 21.5636,11.13104 70,20 70,20 l 0,0"
       style="fill:none;stroke:#000000;stroke-width:1px;stroke-linecap:butt;stroke-linejoin:miter;stroke-opacity:1" />
    <path
       sodipodi:nodetypes="cc"
       transform="translate(-63.028358,665.51153)"
       inkscape:connector-curvature="0"
       id="path3121"
       d="m 470,210.53571 0,70"
       style="fill:none;stroke:#000000;stroke-width:1px;stroke-linecap:butt;stroke-linejoin:miter;stroke-opacity:1" />
    <path
       transform="translate(-63.028358,665.51153)"
       inkscape:connector-curvature="0"
       id="path3123"
       d="m 140,20.535706 450,0"
       style="fill:none;stroke:#000000;stroke-width:1;stroke-linecap:butt;stroke-linejoin:miter;stroke-miterlimit:4;stroke-opacity:1;stroke-dasharray:2, 1;stroke-dashoffset:0" />
    <text
       sodipodi:linespacing="125%"
       id="text3125"
       y="836.04724"
       x="126.97164"
       style="font-size:14px;font-style:normal;font-variant:normal;font-weight:normal;font-stretch:normal;text-align:start;line-height:125%;letter-spacing:0px;word-spacing:0px;writing-mode:lr-tb;text-anchor:start;fill:#000000;fill-opacity:1;stroke:none;font-family:Latin Modern Roman;-inkscape-font-specification:'Latin Modern Roman,'"
       xml:space="preserve"><tspan
         style="font-size:18px;font-style:normal;font-variant:normal;font-weight:normal;font-stretch:normal;text-align:start;line-height:125%;writing-mode:lr-tb;text-anchor:start;font-family:Latin Modern Roman;-inkscape-font-specification:'Latin Modern Roman,'"
         y="836.04724"
         x="126.97164"
         id="tspan3127"
         sodipodi:role="line">Elasticity</tspan></text>
    <text
       sodipodi:linespacing="125%"
       id="text3129"
       y="716.04724"
       x="246.97165"
       style="font-size:18px;font-style:normal;font-variant:normal;font-weight:normal;font-stretch:normal;text-align:start;line-height:125%;letter-spacing:0px;word-spacing:0px;writing-mode:lr-tb;text-anchor:start;fill:#000000;fill-opacity:1;stroke:none;font-family:Latin Modern Roman;-inkscape-font-specification:'Latin Modern Roman,'"
       xml:space="preserve"><tspan
         y="716.04724"
         x="246.97165"
         id="tspan3131"
         sodipodi:role="line">Dislocation glide</tspan></text>
    <text
       sodipodi:linespacing="125%"
       id="text3133"
       y="766.04724"
       x="326.97165"
       style="font-size:18px;font-style:normal;font-variant:normal;font-weight:normal;font-stretch:normal;text-align:start;line-height:125%;letter-spacing:0px;word-spacing:0px;writing-mode:lr-tb;text-anchor:start;fill:#000000;fill-opacity:1;stroke:none;font-family:Latin Modern Roman;-inkscape-font-specification:'Latin Modern Roman,'"
       xml:space="preserve"><tspan
         y="766.04724"
         x="326.97165"
         id="tspan3135"
         sodipodi:role="line">Dislocation creep</tspan></text>
    <text
       sodipodi:linespacing="125%"
       id="text3137"
       y="896.04724"
       x="378.9104"
       style="font-size:18px;font-style:normal;font-variant:normal;font-weight:normal;font-stretch:normal;text-align:center;line-height:125%;letter-spacing:0px;word-spacing:0px;writing-mode:lr-tb;text-anchor:middle;fill:#000000;fill-opacity:1;stroke:none;font-family:Latin Modern Roman;-inkscape-font-specification:'Latin Modern Roman,'"
       xml:space="preserve"><tspan
         y="896.04724"
         x="378.9104"
         id="tspan3139"
         sodipodi:role="line">Coble</tspan><tspan
         id="tspan3141"
         y="918.54724"
         x="378.9104"
         sodipodi:role="line">creep</tspan></text>
    <text
       sodipodi:linespacing="125%"
       id="text3143"
       y="926.04724"
       x="426.97165"
       style="font-size:18px;font-style:normal;font-variant:normal;font-weight:normal;font-stretch:normal;text-align:start;line-height:125%;letter-spacing:0px;word-spacing:0px;writing-mode:lr-tb;text-anchor:start;fill:#000000;fill-opacity:1;stroke:none;font-family:Latin Modern Roman;-inkscape-font-specification:'Latin Modern Roman,'"
       xml:space="preserve"><tspan
         y="926.04724"
         x="426.97165"
         id="tspan3145"
         sodipodi:role="line">N-H creep</tspan></text>
    <g
       id="content"
       transform="matrix(1.9264878,0,0,-1.9264878,-107.35525,1714.8145)"
       xml:space="preserve"
       stroke-miterlimit="10.433"
       font-style="normal"
       font-variant="normal"
       font-weight="normal"
       font-stretch="normal"
       font-size-adjust="none"
       letter-spacing="normal"
       word-spacing="normal"
       ns0:text="$\\frac{de}{dt}\\propto \\sigma^n\\exp\\frac{Q_{vol}}{RT}$"
       ns0:preamble="/home/ken/.config/inkscape/textextpreamble.txt"
       style="font-style:normal;font-variant:normal;font-weight:normal;font-stretch:normal;letter-spacing:normal;word-spacing:normal;text-anchor:start;fill:none;stroke:#000000;stroke-linecap:butt;stroke-linejoin:miter;stroke-miterlimit:10.43299961;stroke-opacity:1;stroke-dasharray:none;stroke-dashoffset:0"><path
         style="fill:#000000;stroke-width:0"
         inkscape:connector-curvature="0"
         d="m 228.6,485.77 0.01,0.01 0,0 0,0 0,0 0,0 0,0 0,0 0,0 0,0.01 0,0 0,0 0,0.01 0,0 0,0.01 0.01,0 0,0 0,0.01 0,0 0,0.01 0,0.01 0,0.01 0.01,0 0,0.01 0,0 0,0 0,0.01 0,0 0,0.01 0,0 0,0 0,0 0,0 0,0 0,0 0,0 0,0 0,0.01 0,0 0,0 0,0 c 0,0.03 -0.03,0.09 -0.11,0.09 -0.14,0 -0.72,-0.05 -0.89,-0.07 -0.06,0 -0.15,-0.01 -0.15,-0.16 0,-0.09 0.09,-0.09 0.18,-0.09 0.33,0 0.33,-0.05 0.33,-0.11 0,-0.05 -0.01,-0.09 -0.03,-0.15 l -0.39,-1.59 c -0.15,0.23 -0.39,0.42 -0.72,0.42 v -0.2 c 0.49,0 0.62,-0.53 0.62,-0.61 0,-0.02 -0.01,-0.07 -0.02,-0.09 l -0.33,-1.3 c -0.05,-0.2 -0.2,-0.34 -0.35,-0.47 -0.07,-0.05 -0.34,-0.28 -0.65,-0.28 -0.25,0 -0.5,0.18 -0.5,0.68 0,0.37 0.2,1.13 0.36,1.41 0.32,0.56 0.67,0.66 0.87,0.66 v 0.2 c -0.89,0 -1.8,-0.99 -1.8,-1.99 0,-0.67 0.46,-1.15 1.05,-1.15 0.38,0 0.72,0.21 0.99,0.49 0.14,-0.42 0.54,-0.49 0.72,-0.49 0.25,0 0.43,0.15 0.55,0.37 0.15,0.27 0.24,0.66 0.24,0.69 0,0.09 -0.09,0.09 -0.11,0.09 -0.09,0 -0.1,-0.03 -0.15,-0.21 -0.08,-0.34 -0.22,-0.75 -0.51,-0.75 -0.18,0 -0.23,0.16 -0.23,0.34 0,0.14 0.02,0.2 0.04,0.29 z"
         id="path3292" /><path
         style="fill:#000000;stroke-width:0"
         inkscape:connector-curvature="0"
         d="m 230.34,482.74 0.01,0 0.03,0 0.02,0 0.02,0 0.03,0 0.03,0.01 0.03,0 0.03,0 0.03,0 0.04,0 0.03,0 0.04,0 0.03,0.01 0.04,0 0.08,0.01 0.08,0 0.08,0.01 0.08,0.02 0.08,0.01 0.08,0.02 0.04,0.01 0.04,0 0.04,0.01 0.03,0.02 0.04,0.01 0.04,0.01 c 0.51,0.18 0.61,0.51 0.61,0.72 0,0.38 -0.38,0.62 -0.86,0.62 v -0.2 c 0.3,0 0.56,-0.15 0.56,-0.42 0,-0.67 -1.18,-0.67 -1.48,-0.67 h -0.34 c 0.29,1.01 1.06,1.09 1.26,1.09 v 0.2 c -0.84,0 -1.97,-0.65 -1.97,-1.83 0,-0.71 0.44,-1.31 1.26,-1.31 1.17,0 1.72,0.69 1.72,0.78 0,0.05 -0.06,0.12 -0.12,0.12 -0.04,0 -0.05,-0.01 -0.11,-0.07 -0.54,-0.64 -1.36,-0.64 -1.48,-0.64 -0.42,0 -0.7,0.28 -0.7,0.84 0,0.1 0,0.24 0.09,0.62 z"
         id="path3294" /><line
         style="stroke-width:0.398"
         x1="224.63"
         y1="479.73001"
         x2="232.55"
         y2="479.73001"
         id="line3296" /><path
         style="fill:#000000;stroke-width:0"
         inkscape:connector-curvature="0"
         d="m 228.99,478.42 0,0 0,0 0,0 0,0 0,0 0,0 0,0 0,0.01 0,0 0.01,0 0,0.01 0,0 0,0 0,0.01 0,0 0,0.01 0,0 0,0.01 0.01,0.01 0,0.01 0,0 0,0 0,0.01 0,0 0,0.01 0,0 0.01,0 0,0.01 0,0 0,0 0,0 0,0 0,0 0,0 0,0.01 0,0 0,0 0,0 0,0 0,0 c 0,0.03 -0.03,0.1 -0.11,0.1 -0.14,0 -0.72,-0.06 -0.9,-0.07 -0.05,-0.01 -0.15,-0.02 -0.15,-0.16 0,-0.1 0.1,-0.1 0.18,-0.1 0.34,0 0.34,-0.05 0.34,-0.1 0,-0.05 -0.02,-0.1 -0.03,-0.16 l -0.4,-1.58 c -0.14,0.23 -0.38,0.41 -0.71,0.41 v -0.2 c 0.48,0 0.61,-0.53 0.61,-0.6 0,-0.03 -0.01,-0.08 -0.02,-0.1 l -0.32,-1.3 c -0.05,-0.19 -0.21,-0.34 -0.36,-0.47 -0.06,-0.05 -0.34,-0.28 -0.64,-0.28 -0.26,0 -0.51,0.19 -0.51,0.68 0,0.37 0.2,1.13 0.36,1.41 0.32,0.56 0.68,0.66 0.88,0.66 v 0.2 c -0.9,0 -1.8,-0.98 -1.8,-1.98 0,-0.68 0.45,-1.16 1.05,-1.16 0.38,0 0.71,0.22 0.99,0.49 0.13,-0.42 0.53,-0.49 0.72,-0.49 0.25,0 0.42,0.15 0.55,0.37 0.15,0.27 0.24,0.67 0.24,0.69 0,0.1 -0.09,0.1 -0.11,0.1 -0.1,0 -0.11,-0.03 -0.15,-0.22 -0.09,-0.34 -0.22,-0.75 -0.51,-0.75 -0.18,0 -0.23,0.16 -0.23,0.35 0,0.13 0.01,0.19 0.03,0.28 z"
         id="path3298" /><path
         style="fill:#000000;stroke-width:0"
         inkscape:connector-curvature="0"
         d="m 230.87,476.55 h 0.71 c 0.14,0 0.23,0 0.23,0.15 0,0.1 -0.09,0.1 -0.21,0.1 h -0.66 l 0.25,1.03 c 0.01,0.03 0.02,0.07 0.02,0.09 0,0.13 -0.09,0.23 -0.23,0.23 -0.18,0 -0.28,-0.12 -0.33,-0.3 -0.05,-0.18 0.04,0.16 -0.26,-1.05 h -0.71 c -0.14,0 -0.23,0 -0.23,-0.16 0,-0.09 0.09,-0.09 0.21,-0.09 h 0.66 l -0.41,-1.64 c -0.04,-0.18 -0.1,-0.43 -0.1,-0.52 0,-0.41 0.35,-0.66 0.74,-0.66 0.78,0 1.21,0.97 1.21,1.06 0,0.1 -0.09,0.1 -0.11,0.1 -0.08,0 -0.09,-0.02 -0.14,-0.14 -0.2,-0.43 -0.55,-0.83 -0.94,-0.83 -0.14,0 -0.24,0.1 -0.24,0.35 0,0.06 0.03,0.21 0.04,0.28 z"
         id="path3300" /><path
         style="fill:#000000;stroke-width:0"
         inkscape:connector-curvature="0"
         d="m 243.7,477.55 0,0 0,0 -0.01,0 0,0 -0.01,0 -0.01,0 0,0 -0.01,0 -0.01,0 -0.01,0 0,0 -0.01,0 -0.01,0 -0.02,-0.01 -0.02,0 -0.01,0 -0.01,0 -0.01,0 -0.01,0 -0.01,0 -0.01,0 0,0 -0.01,0 -0.01,-0.01 0,0 -0.01,0 -0.01,0 0,0 0,0 0,0 -0.01,0 0,0 c -0.78,0 -1.31,0.78 -1.65,1.29 -0.1,0.17 -0.37,0.58 -0.48,0.75 0.24,0.54 0.91,1.77 2.09,1.77 0.07,0 0.16,0 0.27,-0.03 0,0.26 -0.01,0.27 -0.03,0.29 -0.07,0.02 -0.22,0.03 -0.31,0.03 -1.26,0 -2,-1.22 -2.24,-1.71 -0.39,0.6 -0.53,0.82 -0.9,1.13 -0.61,0.53 -1.15,0.58 -1.4,0.58 -1.11,0 -1.75,-1.12 -1.75,-2.26 h 0.22 c 0,0.98 0.56,1.85 1.39,1.85 0.78,0 1.31,-0.78 1.65,-1.29 0.1,-0.17 0.37,-0.58 0.48,-0.75 h 0 c -0.24,-0.53 -0.91,-1.77 -2.09,-1.77 -0.97,0 -1.43,1.06 -1.43,1.96 h -0.22 c 0,-1.11 0.62,-2.24 1.72,-2.24 1.26,0 2,1.21 2.23,1.7 0.4,-0.6 0.54,-0.82 0.91,-1.13 0.61,-0.53 1.16,-0.57 1.4,-0.57 0.12,0 0.28,0.02 0.37,0.04 z"
         id="path3302" /><path
         style="fill:#000000;stroke-width:0"
         inkscape:connector-curvature="0"
         d="m 252.19,480.94 0.01,0 0.01,0 0.02,0 0.02,0 0.01,0 0.02,0 0.02,0 0.02,0.01 0.02,0 0.02,0 0.02,0 0.02,0.01 0.02,0 0.02,0.01 0.02,0 0.02,0.01 0.02,0.01 0.02,0.01 0.02,0.01 0.01,0.01 0.02,0.02 0.02,0.01 0.01,0.01 0,0.01 0.01,0 0.01,0.01 0,0.01 0.01,0.01 0.01,0.01 0,0.01 0.01,0.01 0,0.01 0.01,0.01 0,0.02 0,0.01 0.01,0.01 0,0.01 0,0.02 0,0.01 0,0.02 0,0.01 0.01,0.02 c 0,0.24 -0.21,0.24 -0.39,0.24 h -2.27 c -1.5,0 -2.61,-1.64 -2.61,-2.82 0,-0.88 0.59,-1.57 1.49,-1.57 l 0.01,0.21 c -0.48,0 -0.88,0.36 -0.88,1.08 0,0.29 0.12,1.11 0.47,1.7 0.41,0.68 1.01,0.82 1.35,0.82 0.83,0 0.91,-0.65 0.91,-0.96 0,-0.47 -0.19,-1.28 -0.53,-1.79 -0.39,-0.59 -0.93,-0.85 -1.32,-0.85 h 0 l -0.01,-0.21 c 1.18,0 2.5,1.2 2.5,2.73 0,0.17 0,0.64 -0.31,1.08 z"
         id="path3304" /><path
         style="fill:#000000;stroke-width:0"
         inkscape:connector-curvature="0"
         d="m 253.93,481.29 0,-0.01 0,-0.01 0,-0.01 -0.01,-0.01 0,-0.01 0,-0.01 -0.01,-0.01 0,-0.01 0,-0.02 -0.01,-0.03 -0.01,-0.02 0,-0.02 0,-0.01 -0.01,-0.01 0,-0.01 0,-0.01 0,-0.01 -0.01,-0.01 0,-0.01 0,-0.01 0,0 0,-0.01 0,-0.01 0,0 0,-0.01 -0.01,0 0,0 0,0 0,0 0,-0.01 c 0,-0.15 0.13,-0.22 0.24,-0.22 0.13,0 0.24,0.09 0.27,0.15 0.04,0.07 0.09,0.29 0.13,0.44 0.03,0.13 0.11,0.45 0.15,0.62 0.04,0.15 0.09,0.31 0.12,0.47 0.08,0.28 0.09,0.34 0.29,0.62 0.2,0.28 0.52,0.64 1.05,0.64 0.4,0 0.41,-0.35 0.41,-0.48 0,-0.42 -0.3,-1.19 -0.41,-1.48 -0.08,-0.2 -0.11,-0.26 -0.11,-0.38 0,-0.37 0.31,-0.6 0.66,-0.6 0.7,0 1.01,0.96 1.01,1.07 0,0.09 -0.09,0.09 -0.12,0.09 -0.09,0 -0.1,-0.05 -0.13,-0.12 -0.16,-0.56 -0.46,-0.84 -0.74,-0.84 -0.14,0 -0.17,0.09 -0.17,0.24 0,0.16 0.04,0.25 0.16,0.56 0.08,0.22 0.37,0.95 0.37,1.34 0,0.68 -0.54,0.8 -0.91,0.8 -0.57,0 -0.96,-0.36 -1.17,-0.63 -0.05,0.48 -0.46,0.63 -0.75,0.63 -0.3,0 -0.46,-0.22 -0.55,-0.38 -0.15,-0.25 -0.25,-0.65 -0.25,-0.69 0,-0.09 0.1,-0.09 0.12,-0.09 0.1,0 0.1,0.02 0.15,0.21 0.11,0.41 0.24,0.75 0.51,0.75 0.18,0 0.23,-0.15 0.23,-0.34 0,-0.13 -0.06,-0.39 -0.11,-0.58 -0.05,-0.18 -0.12,-0.47 -0.15,-0.62 z"
         id="path3306" /><path
         style="fill:#000000;stroke-width:0"
         inkscape:connector-curvature="0"
         d="m 261.27,479.53 0.01,0.21 c 0.06,1.48 0.9,1.73 1.24,1.73 1.02,0 1.12,-1.34 1.12,-1.73 h -2.36 l -0.01,-0.21 h 2.78 c 0.22,0 0.25,0 0.25,0.21 0,0.98 -0.54,1.94 -1.78,1.94 -1.16,0 -2.07,-1.02 -2.07,-2.26 0,-1.33 1.04,-2.29 2.18,-2.29 1.22,0 1.67,1.1 1.67,1.29 0,0.1 -0.08,0.12 -0.13,0.12 -0.09,0 -0.11,-0.06 -0.13,-0.14 -0.35,-1.03 -1.25,-1.03 -1.35,-1.03 -0.49,0 -0.89,0.3 -1.12,0.67 -0.3,0.48 -0.3,1.13 -0.3,1.49 z"
         id="path3308" /><path
         style="fill:#000000;stroke-width:0"
         inkscape:connector-curvature="0"
         d="m 267.45,479.57 0.06,0.07 0.06,0.08 0.05,0.07 0.07,0.08 0.12,0.15 0.06,0.08 0.06,0.08 0.06,0.07 0.06,0.07 0.06,0.07 0.05,0.07 0.03,0.03 0.03,0.03 0.02,0.04 0.03,0.03 0.02,0.02 0.03,0.03 0.02,0.03 0.02,0.02 c 0.31,0.36 0.72,0.51 1.19,0.52 v 0.31 c -0.26,-0.02 -0.56,-0.03 -0.82,-0.03 -0.3,0 -0.82,0.02 -0.95,0.03 v -0.31 c 0.21,-0.02 0.29,-0.15 0.29,-0.31 0,-0.16 -0.1,-0.29 -0.15,-0.35 l -0.62,-0.77 -0.78,1 c -0.09,0.1 -0.09,0.12 -0.09,0.18 0,0.15 0.15,0.24 0.35,0.25 v 0.31 c -0.26,-0.01 -0.91,-0.03 -1.07,-0.03 -0.21,0 -0.68,0.01 -0.95,0.03 v -0.31 c 0.7,0 0.71,-0.01 1.18,-0.61 l 0.98,-1.28 -0.93,-1.18 c -0.48,-0.58 -1.07,-0.6 -1.28,-0.6 v -0.31 c 0.26,0.03 0.57,0.04 0.83,0.04 0.29,0 0.71,-0.03 0.94,-0.04 v 0.31 c -0.21,0.03 -0.28,0.16 -0.28,0.31 0,0.22 0.28,0.55 0.89,1.26 l 0.76,-0.99 c 0.08,-0.11 0.21,-0.27 0.21,-0.33 0,-0.09 -0.09,-0.24 -0.36,-0.25 v -0.31 c 0.3,0.01 0.85,0.04 1.07,0.04 0.27,0 0.66,-0.01 0.96,-0.04 v 0.31 c -0.54,0 -0.72,0.02 -0.95,0.31 z"
         id="path3310" /><path
         style="fill:#000000;stroke-width:0"
         inkscape:connector-curvature="0"
         d="m 271.56,480.97 v 0.66 l -1.43,-0.11 v -0.31 c 0.71,0 0.78,-0.06 0.78,-0.5 v -4.65 c 0,-0.44 -0.11,-0.44 -0.78,-0.44 v -0.31 c 0.34,0.01 0.86,0.03 1.12,0.03 0.26,0 0.77,-0.02 1.12,-0.03 v 0.31 c -0.67,0 -0.78,0 -0.78,0.44 v 1.67 0.09 l 0.14,0.13 c -0.14,0.21 -0.14,0.22 -0.14,0.42 h 0 v 2.21 c 0.29,0.51 0.78,0.8 1.29,0.8 0.72,0 1.33,-0.88 1.33,-2 0,-1.2 -0.7,-2.04 -1.43,-2.04 -0.4,0 -0.78,0.2 -1.05,0.61 l -0.14,-0.13 c 0.05,-0.16 0.47,-0.69 1.23,-0.69 1.18,0 2.22,0.97 2.22,2.25 0,1.26 -0.97,2.25 -2.08,2.25 -0.78,0 -1.2,-0.44 -1.4,-0.66 z"
         id="path3312" /><path
         style="fill:#000000;stroke-width:0"
         inkscape:connector-curvature="0"
         d="m 281.48,481.26 0,-0.08 0.01,-0.09 0,-0.04 0,-0.04 0.01,-0.04 0.01,-0.04 0,-0.04 0.01,-0.04 0.01,-0.04 0.01,-0.04 0.01,-0.04 0.02,-0.03 0.01,-0.04 0.02,-0.03 0.02,-0.03 0.02,-0.04 0.02,-0.03 0.02,-0.02 0.03,-0.03 0.03,-0.02 0.03,-0.03 0.03,-0.02 0.03,-0.02 0.04,-0.01 0.04,-0.02 0.02,0 0.02,-0.01 0.02,0 0.03,-0.01 0.02,0 0.02,0 0.03,-0.01 0.02,0 0.03,0 0.02,0 c 0.85,0 1.25,1.2 1.25,1.35 0,0.05 -0.04,0.1 -0.1,0.1 -0.07,0 -0.09,-0.07 -0.09,-0.09 -0.17,-0.49 -0.63,-0.63 -0.87,-0.63 -0.28,0 -0.42,0.12 -0.55,0.68 1.24,0.43 2.24,1.66 2.24,2.9 0,1.09 -0.79,1.93 -2.02,1.93 -1.67,0 -3.27,-1.56 -3.27,-3.12 0,-1.12 0.82,-1.91 2.02,-1.91 l 0.05,0.22 c -0.11,0 -0.35,0 -0.35,0.28 h -0.2 c 0,-0.13 0.01,-0.14 0.03,-0.19 h 0 c -0.36,0.13 -0.88,0.49 -0.88,1.42 0,0.45 0.15,1.37 0.78,2.16 0.44,0.53 1.11,0.92 1.76,0.92 0.76,0 1.4,-0.51 1.4,-1.53 0,-0.69 -0.34,-2.19 -1.61,-2.82 -0.12,0.44 -0.3,0.73 -0.71,0.73 -0.39,0 -0.77,-0.33 -0.77,-0.69 h 0.2 c 0,0.26 0.28,0.5 0.57,0.5 0.25,0 0.44,-0.12 0.46,-0.65 h 0 c -0.15,-0.06 -0.41,-0.13 -0.68,-0.13 l -0.05,-0.22 c 0.13,0 0.37,0.01 0.73,0.1 z"
         id="path3314" /><path
         style="fill:#000000;stroke-width:0"
         inkscape:connector-curvature="0"
         d="m 287.71,482.4 0,0.01 0,0.02 0,0.01 -0.01,0.01 0,0.02 0,0.01 0,0.02 0,0.01 -0.01,0.02 0,0.03 -0.01,0.02 0,0.02 -0.01,0.02 -0.01,0.02 -0.01,0.02 -0.01,0.02 -0.01,0.01 -0.01,0.02 -0.01,0.01 -0.01,0.01 -0.01,0.01 -0.01,0.02 -0.01,0.01 -0.01,0 -0.02,0.01 -0.01,0.01 -0.01,0.01 -0.01,0 -0.01,0.01 -0.02,0 -0.01,0.01 -0.01,0 -0.01,0 -0.01,0 -0.01,0 -0.01,0 c -0.14,0 -0.29,-0.15 -0.29,-0.28 0,-0.1 0.06,-0.15 0.09,-0.17 0.06,-0.04 0.2,-0.15 0.2,-0.38 0,-0.27 -0.38,-1.25 -0.97,-1.25 -0.26,0 -0.48,0.1 -0.48,0.45 0,0.25 0.13,0.58 0.28,0.95 0.03,0.08 0.06,0.16 0.06,0.24 0,0.24 -0.23,0.44 -0.54,0.44 -0.53,0 -0.8,-0.64 -0.8,-0.77 0,-0.07 0.08,-0.07 0.11,-0.07 0.08,0 0.09,0.02 0.11,0.1 0.1,0.33 0.33,0.57 0.56,0.57 0.1,0 0.15,-0.05 0.15,-0.19 0,-0.1 -0.02,-0.15 -0.08,-0.3 -0.2,-0.48 -0.27,-0.72 -0.27,-0.91 0,-0.48 0.39,-0.68 0.87,-0.68 0.41,0 0.69,0.29 0.87,0.56 0.36,0.53 0.42,1.18 0.42,1.27 z"
         id="path3316" /><path
         style="fill:#000000;stroke-width:0"
         inkscape:connector-curvature="0"
         d="m 291.44,481.91 0,0.05 -0.01,0.05 0,0.04 -0.01,0.05 -0.01,0.04 -0.01,0.04 -0.02,0.04 -0.01,0.04 -0.02,0.04 -0.03,0.04 -0.02,0.04 -0.02,0.04 -0.03,0.03 -0.03,0.04 -0.03,0.03 -0.03,0.03 -0.04,0.03 -0.04,0.03 -0.04,0.03 -0.04,0.02 -0.04,0.03 -0.04,0.02 -0.05,0.02 -0.04,0.02 -0.05,0.01 -0.05,0.02 -0.05,0.01 -0.06,0.01 -0.05,0.01 -0.06,0 -0.06,0.01 -0.06,0 -0.01,-0.17 c 0.28,0 0.6,-0.14 0.6,-0.58 0,-0.14 -0.06,-0.6 -0.3,-0.92 -0.23,-0.29 -0.56,-0.41 -0.8,-0.41 h 0 c -0.25,0 -0.6,0.11 -0.6,0.58 0,0.15 0.06,0.63 0.34,0.96 0.19,0.22 0.48,0.37 0.76,0.37 l 0.01,0.17 c -0.83,0 -1.57,-0.68 -1.57,-1.35 0,-0.5 0.41,-0.9 1.05,-0.9 0.83,0 1.57,0.68 1.57,1.34 z"
         id="path3318" /><path
         style="fill:#000000;stroke-width:0"
         inkscape:connector-curvature="0"
         d="m 293.45,483.88 0,0 0,0.01 0,0 0.01,0 0,0.01 0,0 0,0 0,0 0,0.01 0,0 0,0.01 0,0 0,0.01 0.01,0 0,0 0,0.01 0,0 0,0 0,0.01 0,0 0,0 0,0.01 0,0 0,0 0,0 0,0 0,0.01 0,0 0,0.01 0,0 0,0 0,0.01 c 0,0.08 -0.07,0.08 -0.15,0.08 l -0.61,-0.05 c -0.09,0 -0.1,-0.01 -0.12,-0.03 -0.02,-0.02 -0.04,-0.08 -0.04,-0.11 0,-0.09 0.08,-0.09 0.15,-0.09 0.18,0 0.22,-0.01 0.27,-0.03 0,-0.04 -0.01,-0.1 -0.02,-0.16 l -0.6,-2.38 c -0.02,-0.06 -0.03,-0.1 -0.03,-0.17 0,-0.3 0.3,-0.48 0.6,-0.48 0.17,0 0.3,0.07 0.42,0.24 0.15,0.2 0.22,0.5 0.22,0.53 0,0.07 -0.08,0.07 -0.1,0.07 -0.09,0 -0.1,-0.03 -0.12,-0.11 -0.08,-0.32 -0.2,-0.56 -0.39,-0.56 -0.15,0 -0.2,0.11 -0.2,0.26 0,0.05 0,0.11 0.02,0.16 z"
         id="path3320" /><line
         style="stroke-width:0.398"
         x1="278.23999"
         y1="479.73001"
         x2="294.69"
         y2="479.73001"
         id="line3322" /><path
         style="fill:#000000;stroke-width:0"
         inkscape:connector-curvature="0"
         d="m 284.69,476.16 0.08,0.02 0.08,0.02 0.07,0.03 0.08,0.02 0.07,0.03 0.08,0.02 0.07,0.03 0.07,0.03 0.07,0.04 0.06,0.03 0.07,0.04 0.06,0.03 0.07,0.04 0.06,0.04 0.05,0.04 0.06,0.04 0.05,0.05 0.05,0.04 0.05,0.05 0.04,0.04 0.05,0.05 0.03,0.05 0.04,0.05 0.03,0.05 0.03,0.05 0.03,0.05 0.02,0.06 0.02,0.05 0.01,0.06 0.01,0.05 0.01,0.06 0,0.06 c 0,0.6 -0.71,1.07 -1.72,1.07 h -2.14 c -0.13,0 -0.22,0 -0.22,-0.15 0,-0.1 0.08,-0.1 0.22,-0.1 0.01,0 0.14,0 0.27,-0.01 0.14,-0.02 0.16,-0.03 0.16,-0.1 0,-0.02 0,-0.05 -0.03,-0.15 l -0.93,-3.7 c -0.05,-0.23 -0.07,-0.29 -0.61,-0.29 -0.12,0 -0.21,0 -0.21,-0.15 0,-0.07 0.05,-0.1 0.11,-0.1 0.14,0 0.29,0.02 0.44,0.02 0.13,0 0.33,0.01 0.45,0.01 0.14,0 0.3,-0.01 0.45,-0.01 0.15,0 0.32,-0.02 0.47,-0.02 0.03,0 0.14,0 0.14,0.15 0,0.1 -0.07,0.1 -0.23,0.1 -0.11,0 -0.14,0 -0.26,0.01 -0.16,0.02 -0.16,0.04 -0.16,0.11 0,0 0,0.05 0.03,0.15 l 0.44,1.76 h 0.95 l 0.01,0.19 h -0.9 l 0.44,1.79 c 0.05,0.2 0.07,0.22 0.22,0.24 h 0.45 c 0.64,0 1.44,0 1.44,-0.72 0,-0.28 -0.13,-0.72 -0.46,-0.97 -0.28,-0.22 -0.71,-0.34 -1.19,-0.34 l -0.01,-0.19 c 0.6,0 0.86,-0.3 0.86,-0.63 0,-0.09 -0.07,-0.32 -0.1,-0.48 -0.09,-0.32 -0.11,-0.43 -0.11,-0.54 0,-0.55 0.51,-0.77 1.02,-0.77 0.64,0 0.92,0.68 0.92,0.81 0,0.02 -0.01,0.1 -0.12,0.1 -0.09,0 -0.1,-0.05 -0.12,-0.12 -0.1,-0.31 -0.36,-0.59 -0.65,-0.59 -0.18,0 -0.31,0.07 -0.31,0.45 0,0.17 0.04,0.53 0.06,0.72 0.03,0.19 0.03,0.26 0.03,0.33 0,0.08 0,0.3 -0.19,0.51 -0.13,0.15 -0.32,0.24 -0.48,0.29 z"
         id="path3324" /><path
         style="fill:#000000;stroke-width:0"
         inkscape:connector-curvature="0"
         d="m 289.98,478.01 0,0.01 0,0.01 0,0 0.01,0.01 0,0.01 0,0.01 0,0.01 0.01,0 0,0.02 0,0.01 0.01,0.02 0,0.01 0,0.01 0.01,0.01 0,0.01 0.01,0.01 0,0 0.01,0.01 0,0.01 0.01,0.01 0,0 0.01,0.01 0,0 0.01,0.01 0.01,0 0.01,0 0,0.01 0.01,0 0.01,0 0.01,0 0.01,0.01 0.01,0 0.01,0 0.02,0 0.01,0 0.01,0 c 0.04,0.01 0.28,0.01 0.42,0.01 0.43,0 0.61,0 0.78,-0.05 0.31,-0.1 0.33,-0.3 0.33,-0.56 0,-0.11 0,-0.2 -0.05,-0.56 l -0.01,-0.07 c 0,-0.07 0.04,-0.11 0.11,-0.11 0.11,0 0.12,0.06 0.14,0.18 l 0.19,1.32 c 0,0.1 -0.09,0.1 -0.21,0.1 h -4.29 c -0.17,0 -0.18,0 -0.23,-0.14 l -0.44,-1.24 c -0.01,-0.02 -0.04,-0.09 -0.04,-0.12 0,-0.03 0.02,-0.1 0.12,-0.1 0.09,0 0.11,0.04 0.15,0.17 0.4,1.11 0.63,1.18 1.69,1.18 h 0.29 c 0.21,0 0.22,-0.01 0.22,-0.07 0,-0.01 0,-0.04 -0.03,-0.14 l -0.92,-3.66 c -0.06,-0.26 -0.08,-0.33 -0.81,-0.33 -0.25,0 -0.32,0 -0.32,-0.15 0,-0.02 0.02,-0.1 0.12,-0.1 0.2,0 0.4,0.02 0.6,0.02 0.2,0 0.4,0.01 0.6,0.01 0.19,0 0.43,0 0.63,-0.01 0.18,-0.01 0.39,-0.02 0.58,-0.02 0.06,0 0.16,0 0.16,0.15 0,0.1 -0.07,0.1 -0.28,0.1 -0.14,0 -0.28,0.01 -0.41,0.01 -0.23,0.02 -0.25,0.05 -0.25,0.14 0,0.04 0,0.06 0.03,0.16 z"
         id="path3326" /></g>    <g
       style="font-style:normal;font-variant:normal;font-weight:normal;font-stretch:normal;letter-spacing:normal;word-spacing:normal;text-anchor:start;fill:none;stroke:#000000;stroke-linecap:butt;stroke-linejoin:miter;stroke-miterlimit:10.43299961;stroke-opacity:1;stroke-dasharray:none;stroke-dashoffset:0"
       ns0:preamble="/home/ken/.config/inkscape/textextpreamble.txt"
       ns0:text="$\\frac{de}{dt}\\propto \\sigma\\frac{1}{d^2}\\exp\\frac{Q_{vol}}{RT}$"
       word-spacing="normal"
       letter-spacing="normal"
       font-size-adjust="none"
       font-stretch="normal"
       font-weight="normal"
       font-variant="normal"
       font-style="normal"
       stroke-miterlimit="10.433"
       xml:space="preserve"
       transform="matrix(1.9264878,0,0,-1.9264878,-62.294287,1769.053)"
       id="g3577"><path
         id="path3579"
         d="m 228.6,485.77 0.01,0.01 0,0 0,0 0,0 0,0 0,0 0,0 0,0 0,0.01 0,0 0,0 0,0.01 0,0 0,0.01 0.01,0 0,0 0,0.01 0,0 0,0.01 0,0.01 0,0.01 0.01,0 0,0.01 0,0 0,0 0,0.01 0,0 0,0.01 0,0 0,0 0,0 0,0 0,0 0,0 0,0 0,0 0,0.01 0,0 0,0 0,0 c 0,0.03 -0.03,0.09 -0.11,0.09 -0.14,0 -0.72,-0.05 -0.89,-0.07 -0.06,0 -0.15,-0.01 -0.15,-0.16 0,-0.09 0.09,-0.09 0.18,-0.09 0.33,0 0.33,-0.05 0.33,-0.11 0,-0.05 -0.01,-0.09 -0.03,-0.15 l -0.39,-1.59 c -0.15,0.23 -0.39,0.42 -0.72,0.42 v -0.2 c 0.49,0 0.62,-0.53 0.62,-0.61 0,-0.02 -0.01,-0.07 -0.02,-0.09 l -0.33,-1.3 c -0.05,-0.2 -0.2,-0.34 -0.35,-0.47 -0.07,-0.05 -0.34,-0.28 -0.65,-0.28 -0.25,0 -0.5,0.18 -0.5,0.68 0,0.37 0.2,1.13 0.36,1.41 0.32,0.56 0.67,0.66 0.87,0.66 v 0.2 c -0.89,0 -1.8,-0.99 -1.8,-1.99 0,-0.67 0.46,-1.15 1.05,-1.15 0.38,0 0.72,0.21 0.99,0.49 0.14,-0.42 0.54,-0.49 0.72,-0.49 0.25,0 0.43,0.15 0.55,0.37 0.15,0.27 0.24,0.66 0.24,0.69 0,0.09 -0.09,0.09 -0.11,0.09 -0.09,0 -0.1,-0.03 -0.15,-0.21 -0.08,-0.34 -0.22,-0.75 -0.51,-0.75 -0.18,0 -0.23,0.16 -0.23,0.34 0,0.14 0.02,0.2 0.04,0.29 z"
         inkscape:connector-curvature="0"
         style="fill:#000000;stroke-width:0" /><path
         id="path3581"
         d="m 230.34,482.74 0.01,0 0.03,0 0.02,0 0.02,0 0.03,0 0.03,0.01 0.03,0 0.03,0 0.03,0 0.04,0 0.03,0 0.04,0 0.03,0.01 0.04,0 0.08,0.01 0.08,0 0.08,0.01 0.08,0.02 0.08,0.01 0.08,0.02 0.04,0.01 0.04,0 0.04,0.01 0.03,0.02 0.04,0.01 0.04,0.01 c 0.51,0.18 0.61,0.51 0.61,0.72 0,0.38 -0.38,0.62 -0.86,0.62 v -0.2 c 0.3,0 0.56,-0.15 0.56,-0.42 0,-0.67 -1.18,-0.67 -1.48,-0.67 h -0.34 c 0.29,1.01 1.06,1.09 1.26,1.09 v 0.2 c -0.84,0 -1.97,-0.65 -1.97,-1.83 0,-0.71 0.44,-1.31 1.26,-1.31 1.17,0 1.72,0.69 1.72,0.78 0,0.05 -0.06,0.12 -0.12,0.12 -0.04,0 -0.05,-0.01 -0.11,-0.07 -0.54,-0.64 -1.36,-0.64 -1.48,-0.64 -0.42,0 -0.7,0.28 -0.7,0.84 0,0.1 0,0.24 0.09,0.62 z"
         inkscape:connector-curvature="0"
         style="fill:#000000;stroke-width:0" /><line
         id="line3583"
         y2="479.73001"
         x2="232.55"
         y1="479.73001"
         x1="224.63"
         style="stroke-width:0.398" /><path
         id="path3585"
         d="m 228.99,478.42 0,0 0,0 0,0 0,0 0,0 0,0 0,0 0,0.01 0,0 0.01,0 0,0.01 0,0 0,0 0,0.01 0,0 0,0.01 0,0 0,0.01 0.01,0.01 0,0.01 0,0 0,0 0,0.01 0,0 0,0.01 0,0 0.01,0 0,0.01 0,0 0,0 0,0 0,0 0,0 0,0 0,0.01 0,0 0,0 0,0 0,0 0,0 c 0,0.03 -0.03,0.1 -0.11,0.1 -0.14,0 -0.72,-0.06 -0.9,-0.07 -0.05,-0.01 -0.15,-0.02 -0.15,-0.16 0,-0.1 0.1,-0.1 0.18,-0.1 0.34,0 0.34,-0.05 0.34,-0.1 0,-0.05 -0.02,-0.1 -0.03,-0.16 l -0.4,-1.58 c -0.14,0.23 -0.38,0.41 -0.71,0.41 v -0.2 c 0.48,0 0.61,-0.53 0.61,-0.6 0,-0.03 -0.01,-0.08 -0.02,-0.1 l -0.32,-1.3 c -0.05,-0.19 -0.21,-0.34 -0.36,-0.47 -0.06,-0.05 -0.34,-0.28 -0.64,-0.28 -0.26,0 -0.51,0.19 -0.51,0.68 0,0.37 0.2,1.13 0.36,1.41 0.32,0.56 0.68,0.66 0.88,0.66 v 0.2 c -0.9,0 -1.8,-0.98 -1.8,-1.98 0,-0.68 0.45,-1.16 1.05,-1.16 0.38,0 0.71,0.22 0.99,0.49 0.13,-0.42 0.53,-0.49 0.72,-0.49 0.25,0 0.42,0.15 0.55,0.37 0.15,0.27 0.24,0.67 0.24,0.69 0,0.1 -0.09,0.1 -0.11,0.1 -0.1,0 -0.11,-0.03 -0.15,-0.22 -0.09,-0.34 -0.22,-0.75 -0.51,-0.75 -0.18,0 -0.23,0.16 -0.23,0.35 0,0.13 0.01,0.19 0.03,0.28 z"
         inkscape:connector-curvature="0"
         style="fill:#000000;stroke-width:0" /><path
         id="path3587"
         d="m 230.87,476.55 h 0.71 c 0.14,0 0.23,0 0.23,0.15 0,0.1 -0.09,0.1 -0.21,0.1 h -0.66 l 0.25,1.03 c 0.01,0.03 0.02,0.07 0.02,0.09 0,0.13 -0.09,0.23 -0.23,0.23 -0.18,0 -0.28,-0.12 -0.33,-0.3 -0.05,-0.18 0.04,0.16 -0.26,-1.05 h -0.71 c -0.14,0 -0.23,0 -0.23,-0.16 0,-0.09 0.09,-0.09 0.21,-0.09 h 0.66 l -0.41,-1.64 c -0.04,-0.18 -0.1,-0.43 -0.1,-0.52 0,-0.41 0.35,-0.66 0.74,-0.66 0.78,0 1.21,0.97 1.21,1.06 0,0.1 -0.09,0.1 -0.11,0.1 -0.08,0 -0.09,-0.02 -0.14,-0.14 -0.2,-0.43 -0.55,-0.83 -0.94,-0.83 -0.14,0 -0.24,0.1 -0.24,0.35 0,0.06 0.03,0.21 0.04,0.28 z"
         inkscape:connector-curvature="0"
         style="fill:#000000;stroke-width:0" /><path
         id="path3589"
         d="m 243.7,477.55 0,0 0,0 -0.01,0 0,0 -0.01,0 -0.01,0 0,0 -0.01,0 -0.01,0 -0.01,0 0,0 -0.01,0 -0.01,0 -0.02,-0.01 -0.02,0 -0.01,0 -0.01,0 -0.01,0 -0.01,0 -0.01,0 -0.01,0 0,0 -0.01,0 -0.01,-0.01 0,0 -0.01,0 -0.01,0 0,0 0,0 0,0 -0.01,0 0,0 c -0.78,0 -1.31,0.78 -1.65,1.29 -0.1,0.17 -0.37,0.58 -0.48,0.75 0.24,0.54 0.91,1.77 2.09,1.77 0.07,0 0.16,0 0.27,-0.03 0,0.26 -0.01,0.27 -0.03,0.29 -0.07,0.02 -0.22,0.03 -0.31,0.03 -1.26,0 -2,-1.22 -2.24,-1.71 -0.39,0.6 -0.53,0.82 -0.9,1.13 -0.61,0.53 -1.15,0.58 -1.4,0.58 -1.11,0 -1.75,-1.12 -1.75,-2.26 h 0.22 c 0,0.98 0.56,1.85 1.39,1.85 0.78,0 1.31,-0.78 1.65,-1.29 0.1,-0.17 0.37,-0.58 0.48,-0.75 h 0 c -0.24,-0.53 -0.91,-1.77 -2.09,-1.77 -0.97,0 -1.43,1.06 -1.43,1.96 h -0.22 c 0,-1.11 0.62,-2.24 1.72,-2.24 1.26,0 2,1.21 2.23,1.7 0.4,-0.6 0.54,-0.82 0.91,-1.13 0.61,-0.53 1.16,-0.57 1.4,-0.57 0.12,0 0.28,0.02 0.37,0.04 z"
         inkscape:connector-curvature="0"
         style="fill:#000000;stroke-width:0" /><path
         id="path3591"
         d="m 252.19,480.94 0.01,0 0.01,0 0.02,0 0.02,0 0.01,0 0.02,0 0.02,0 0.02,0.01 0.02,0 0.02,0 0.02,0 0.02,0.01 0.02,0 0.02,0.01 0.02,0 0.02,0.01 0.02,0.01 0.02,0.01 0.02,0.01 0.01,0.01 0.02,0.02 0.02,0.01 0.01,0.01 0,0.01 0.01,0 0.01,0.01 0,0.01 0.01,0.01 0.01,0.01 0,0.01 0.01,0.01 0,0.01 0.01,0.01 0,0.02 0,0.01 0.01,0.01 0,0.01 0,0.02 0,0.01 0,0.02 0,0.01 0.01,0.02 c 0,0.24 -0.21,0.24 -0.39,0.24 h -2.27 c -1.5,0 -2.61,-1.64 -2.61,-2.82 0,-0.88 0.59,-1.57 1.49,-1.57 l 0.01,0.21 c -0.48,0 -0.88,0.36 -0.88,1.08 0,0.29 0.12,1.11 0.47,1.7 0.41,0.68 1.01,0.82 1.35,0.82 0.83,0 0.91,-0.65 0.91,-0.96 0,-0.47 -0.19,-1.28 -0.53,-1.79 -0.39,-0.59 -0.93,-0.85 -1.32,-0.85 h 0 l -0.01,-0.21 c 1.18,0 2.5,1.2 2.5,2.73 0,0.17 0,0.64 -0.31,1.08 z"
         inkscape:connector-curvature="0"
         style="fill:#000000;stroke-width:0" /><path
         id="path3593"
         d="m 258.64,485.58 0,0.01 0,0.01 0,0.01 0,0 0,0.01 0,0.01 0,0.01 0,0 0,0.01 0,0.01 0,0 0,0.01 0,0 0,0.01 0,0.01 0,0 0,0.01 0,0 0,0.01 -0.01,0.01 0,0 0,0.01 -0.01,0.01 0,0 -0.01,0.01 0,0 -0.01,0.01 0,0 -0.01,0 -0.01,0.01 -0.01,0 -0.01,0 0,0 -0.01,0 0,0 -0.01,0 -0.01,0 0,0 -0.01,0 -0.01,0 0,0 -0.01,0 -0.01,0 0,0 -0.01,0 -0.01,0 -0.01,0 -0.01,0 0,0 -0.01,0 c -0.45,-0.43 -1.08,-0.44 -1.37,-0.44 v -0.25 c 0.17,0 0.63,0 1.01,0.19 v -3.54 c 0,-0.23 0,-0.32 -0.69,-0.32 h -0.27 v -0.25 c 0.12,0.01 0.98,0.03 1.24,0.03 0.22,0 1.09,-0.02 1.25,-0.03 v 0.25 h -0.27 c -0.7,0 -0.7,0.09 -0.7,0.32 z"
         inkscape:connector-curvature="0"
         style="fill:#000000;stroke-width:0" /><line
         id="line3595"
         y2="479.73001"
         x2="262.32001"
         y1="479.73001"
         x1="254.28"
         style="stroke-width:0.398" /><path
         id="path3597"
         d="m 258.26,478.42 0,0 0,0 0,0 0,0 0,0 0,0 0,0 0,0.01 0,0 0,0 0,0.01 0,0 0.01,0 0,0.01 0,0 0,0.01 0,0 0,0.01 0,0.01 0.01,0.01 0,0 0,0 0,0.01 0,0 0,0.01 0,0 0,0 0,0.01 0,0 0,0 0,0 0,0 0,0 0,0 0,0.01 0,0 0,0 0,0 0,0 0.01,0 c 0,0.03 -0.03,0.1 -0.12,0.1 -0.14,0 -0.71,-0.06 -0.89,-0.07 -0.05,-0.01 -0.15,-0.02 -0.15,-0.16 0,-0.1 0.1,-0.1 0.18,-0.1 0.33,0 0.33,-0.05 0.33,-0.1 0,-0.05 -0.01,-0.1 -0.02,-0.16 l -0.4,-1.58 c -0.15,0.23 -0.38,0.41 -0.72,0.41 v -0.2 c 0.49,0 0.62,-0.53 0.62,-0.6 0,-0.03 -0.01,-0.08 -0.02,-0.1 l -0.33,-1.3 c -0.04,-0.19 -0.2,-0.34 -0.35,-0.47 -0.06,-0.05 -0.34,-0.28 -0.64,-0.28 -0.26,0 -0.51,0.19 -0.51,0.68 0,0.37 0.2,1.13 0.36,1.41 0.32,0.56 0.68,0.66 0.87,0.66 v 0.2 c -0.89,0 -1.79,-0.98 -1.79,-1.98 0,-0.68 0.45,-1.16 1.05,-1.16 0.37,0 0.71,0.22 0.98,0.49 0.14,-0.42 0.54,-0.49 0.72,-0.49 0.25,0 0.43,0.15 0.55,0.37 0.16,0.27 0.25,0.67 0.25,0.69 0,0.1 -0.09,0.1 -0.12,0.1 -0.09,0 -0.1,-0.03 -0.15,-0.22 -0.08,-0.34 -0.21,-0.75 -0.51,-0.75 -0.18,0 -0.23,0.16 -0.23,0.35 0,0.13 0.02,0.19 0.04,0.28 z"
         inkscape:connector-curvature="0"
         style="fill:#000000;stroke-width:0" /><path
         id="path3599"
         d="m 261.36,476.75 h -0.21 c -0.02,-0.09 -0.07,-0.4 -0.15,-0.45 -0.04,-0.03 -0.45,-0.03 -0.53,-0.03 h -0.97 c 0.33,0.24 0.69,0.52 0.99,0.72 0.45,0.31 0.87,0.59 0.87,1.12 0,0.64 -0.6,0.99 -1.32,0.99 -0.67,0 -1.16,-0.39 -1.16,-0.87 0,-0.26 0.22,-0.31 0.29,-0.31 0.13,0 0.29,0.09 0.29,0.3 0,0.17 -0.13,0.27 -0.28,0.29 0.14,0.22 0.43,0.37 0.76,0.37 0.48,0 0.89,-0.29 0.89,-0.77 0,-0.42 -0.29,-0.74 -0.68,-1.06 l -1.21,-1.03 c -0.05,-0.04 -0.05,-0.04 -0.06,-0.08 v -0.15 h 2.31 z"
         inkscape:connector-curvature="0"
         style="fill:#000000;stroke-width:0" /><path
         id="path3601"
         d="m 266.27,479.53 0.02,0.21 c 0.06,1.48 0.89,1.73 1.23,1.73 1.02,0 1.12,-1.34 1.12,-1.73 h -2.35 l -0.02,-0.21 h 2.78 c 0.22,0 0.25,0 0.25,0.21 0,0.98 -0.54,1.94 -1.78,1.94 -1.16,0 -2.07,-1.02 -2.07,-2.26 0,-1.33 1.04,-2.29 2.19,-2.29 1.21,0 1.66,1.1 1.66,1.29 0,0.1 -0.08,0.12 -0.13,0.12 -0.09,0 -0.11,-0.06 -0.13,-0.14 -0.35,-1.03 -1.24,-1.03 -1.34,-1.03 -0.5,0 -0.9,0.3 -1.13,0.67 -0.3,0.48 -0.3,1.13 -0.3,1.49 z"
         inkscape:connector-curvature="0"
         style="fill:#000000;stroke-width:0" /><path
         id="path3603"
         d="m 272.45,479.57 0.06,0.07 0.06,0.08 0.06,0.07 0.06,0.08 0.12,0.15 0.06,0.08 0.06,0.08 0.06,0.07 0.06,0.07 0.06,0.07 0.06,0.07 0.02,0.03 0.03,0.03 0.03,0.04 0.02,0.03 0.03,0.02 0.02,0.03 0.03,0.03 0.02,0.02 c 0.31,0.36 0.71,0.51 1.18,0.52 v 0.31 c -0.26,-0.02 -0.55,-0.03 -0.81,-0.03 -0.3,0 -0.83,0.02 -0.96,0.03 v -0.31 c 0.21,-0.02 0.29,-0.15 0.29,-0.31 0,-0.16 -0.1,-0.29 -0.15,-0.35 l -0.62,-0.77 -0.77,1 c -0.09,0.1 -0.09,0.12 -0.09,0.18 0,0.15 0.15,0.24 0.35,0.25 v 0.31 c -0.26,-0.01 -0.92,-0.03 -1.08,-0.03 -0.21,0 -0.67,0.01 -0.94,0.03 v -0.31 c 0.69,0 0.7,-0.01 1.17,-0.61 l 0.99,-1.28 -0.94,-1.18 c -0.48,-0.58 -1.06,-0.6 -1.27,-0.6 v -0.31 c 0.26,0.03 0.57,0.04 0.82,0.04 0.29,0 0.71,-0.03 0.95,-0.04 v 0.31 c -0.22,0.03 -0.29,0.16 -0.29,0.31 0,0.22 0.29,0.55 0.9,1.26 l 0.75,-0.99 c 0.08,-0.11 0.21,-0.27 0.21,-0.33 0,-0.09 -0.09,-0.24 -0.36,-0.25 v -0.31 c 0.3,0.01 0.86,0.04 1.08,0.04 0.27,0 0.65,-0.01 0.95,-0.04 v 0.31 c -0.53,0 -0.71,0.02 -0.94,0.31 z"
         inkscape:connector-curvature="0"
         style="fill:#000000;stroke-width:0" /><path
         id="path3605"
         d="m 276.57,480.97 v 0.66 l -1.43,-0.11 v -0.31 c 0.7,0 0.77,-0.06 0.77,-0.5 v -4.65 c 0,-0.44 -0.11,-0.44 -0.77,-0.44 v -0.31 c 0.33,0.01 0.85,0.03 1.11,0.03 0.27,0 0.77,-0.02 1.12,-0.03 v 0.31 c -0.66,0 -0.77,0 -0.77,0.44 v 1.67 0.09 l 0.14,0.13 c -0.14,0.21 -0.14,0.22 -0.14,0.42 h 0 v 2.21 c 0.29,0.51 0.77,0.8 1.28,0.8 0.73,0 1.33,-0.88 1.33,-2 0,-1.2 -0.69,-2.04 -1.43,-2.04 -0.4,0 -0.77,0.2 -1.04,0.61 l -0.14,-0.13 c 0.05,-0.16 0.47,-0.69 1.22,-0.69 1.19,0 2.22,0.97 2.22,2.25 0,1.26 -0.96,2.25 -2.08,2.25 -0.78,0 -1.19,-0.44 -1.39,-0.66 z"
         inkscape:connector-curvature="0"
         style="fill:#000000;stroke-width:0" /><path
         id="path3607"
         d="m 286.49,481.26 0,-0.08 0,-0.09 0,-0.04 0.01,-0.04 0,-0.04 0.01,-0.04 0.01,-0.04 0,-0.04 0.01,-0.04 0.01,-0.04 0.02,-0.04 0.01,-0.03 0.02,-0.04 0.01,-0.03 0.02,-0.03 0.02,-0.04 0.02,-0.03 0.03,-0.02 0.02,-0.03 0.03,-0.02 0.03,-0.03 0.03,-0.02 0.04,-0.02 0.03,-0.01 0.04,-0.02 0.02,0 0.03,-0.01 0.02,0 0.02,-0.01 0.02,0 0.03,0 0.02,-0.01 0.03,0 0.02,0 0.03,0 c 0.84,0 1.24,1.2 1.24,1.35 0,0.05 -0.04,0.1 -0.09,0.1 -0.07,0 -0.09,-0.07 -0.1,-0.09 -0.17,-0.49 -0.63,-0.63 -0.86,-0.63 -0.28,0 -0.43,0.12 -0.55,0.68 1.24,0.43 2.23,1.66 2.23,2.9 0,1.09 -0.79,1.93 -2.02,1.93 -1.66,0 -3.27,-1.56 -3.27,-3.12 0,-1.12 0.83,-1.91 2.03,-1.91 l 0.04,0.22 c -0.11,0 -0.35,0 -0.35,0.28 h -0.2 c 0,-0.13 0.01,-0.14 0.03,-0.19 h 0 c -0.36,0.13 -0.88,0.49 -0.88,1.42 0,0.45 0.15,1.37 0.78,2.16 0.44,0.53 1.12,0.92 1.77,0.92 0.75,0 1.4,-0.51 1.4,-1.53 0,-0.69 -0.34,-2.19 -1.62,-2.82 -0.11,0.44 -0.29,0.73 -0.7,0.73 -0.39,0 -0.78,-0.33 -0.78,-0.69 h 0.2 c 0,0.26 0.28,0.5 0.58,0.5 0.25,0 0.44,-0.12 0.46,-0.65 h 0 c -0.16,-0.06 -0.41,-0.13 -0.69,-0.13 l -0.04,-0.22 c 0.13,0 0.36,0.01 0.73,0.1 z"
         inkscape:connector-curvature="0"
         style="fill:#000000;stroke-width:0" /><path
         id="path3609"
         d="m 292.71,482.4 0,0.01 0,0.02 0,0.01 0,0.01 0,0.02 0,0.01 -0.01,0.02 0,0.01 0,0.02 -0.01,0.03 0,0.02 -0.01,0.02 -0.01,0.02 0,0.02 -0.01,0.02 -0.01,0.02 -0.01,0.01 -0.01,0.02 -0.01,0.01 -0.01,0.01 -0.02,0.01 -0.01,0.02 -0.01,0.01 -0.01,0 -0.01,0.01 -0.01,0.01 -0.02,0.01 -0.01,0 -0.01,0.01 -0.01,0 -0.01,0.01 -0.02,0 -0.01,0 -0.01,0 -0.01,0 -0.01,0 c -0.14,0 -0.29,-0.15 -0.29,-0.28 0,-0.1 0.07,-0.15 0.1,-0.17 0.05,-0.04 0.19,-0.15 0.19,-0.38 0,-0.27 -0.38,-1.25 -0.97,-1.25 -0.26,0 -0.48,0.1 -0.48,0.45 0,0.25 0.13,0.58 0.28,0.95 0.03,0.08 0.07,0.16 0.07,0.24 0,0.24 -0.24,0.44 -0.54,0.44 -0.53,0 -0.8,-0.64 -0.8,-0.77 0,-0.07 0.07,-0.07 0.1,-0.07 0.08,0 0.09,0.02 0.11,0.1 0.1,0.33 0.34,0.57 0.57,0.57 0.09,0 0.14,-0.05 0.14,-0.19 0,-0.1 -0.01,-0.15 -0.08,-0.3 -0.19,-0.48 -0.27,-0.72 -0.27,-0.91 0,-0.48 0.4,-0.68 0.88,-0.68 0.4,0 0.69,0.29 0.87,0.56 0.36,0.53 0.41,1.18 0.41,1.27 z"
         inkscape:connector-curvature="0"
         style="fill:#000000;stroke-width:0" /><path
         id="path3611"
         d="m 296.44,481.91 0,0.05 0,0.05 -0.01,0.04 -0.01,0.05 -0.01,0.04 -0.01,0.04 -0.01,0.04 -0.02,0.04 -0.02,0.04 -0.02,0.04 -0.02,0.04 -0.03,0.04 -0.03,0.03 -0.03,0.04 -0.03,0.03 -0.03,0.03 -0.04,0.03 -0.03,0.03 -0.04,0.03 -0.04,0.02 -0.04,0.03 -0.05,0.02 -0.04,0.02 -0.05,0.02 -0.05,0.01 -0.05,0.02 -0.05,0.01 -0.05,0.01 -0.06,0.01 -0.06,0 -0.05,0.01 -0.06,0 -0.01,-0.17 c 0.27,0 0.59,-0.14 0.59,-0.58 0,-0.14 -0.06,-0.6 -0.3,-0.92 -0.23,-0.29 -0.56,-0.41 -0.8,-0.41 h 0 c -0.24,0 -0.6,0.11 -0.6,0.58 0,0.15 0.07,0.63 0.34,0.96 0.19,0.22 0.49,0.37 0.77,0.37 l 0.01,0.17 c -0.83,0 -1.57,-0.68 -1.57,-1.35 0,-0.5 0.41,-0.9 1.04,-0.9 0.83,0 1.57,0.68 1.57,1.34 z"
         inkscape:connector-curvature="0"
         style="fill:#000000;stroke-width:0" /><path
         id="path3613"
         d="m 298.46,483.88 0,0 0,0.01 0,0 0,0 0,0.01 0,0 0,0 0,0 0,0.01 0.01,0 0,0.01 0,0 0,0.01 0,0 0,0 0,0.01 0,0 0,0 0,0.01 0,0 0,0 0,0.01 0,0 0,0 0.01,0 0,0 0,0.01 0,0 0,0.01 0,0 0,0 0,0.01 c 0,0.08 -0.08,0.08 -0.16,0.08 l -0.61,-0.05 c -0.09,0 -0.1,-0.01 -0.12,-0.03 -0.02,-0.02 -0.03,-0.08 -0.03,-0.11 0,-0.09 0.08,-0.09 0.14,-0.09 0.18,0 0.22,-0.01 0.27,-0.03 0,-0.04 0,-0.1 -0.02,-0.16 l -0.6,-2.38 c -0.01,-0.06 -0.02,-0.1 -0.02,-0.17 0,-0.3 0.29,-0.48 0.6,-0.48 0.16,0 0.3,0.07 0.42,0.24 0.14,0.2 0.22,0.5 0.22,0.53 0,0.07 -0.09,0.07 -0.11,0.07 -0.09,0 -0.09,-0.03 -0.12,-0.11 -0.08,-0.32 -0.2,-0.56 -0.39,-0.56 -0.14,0 -0.2,0.11 -0.2,0.26 0,0.05 0.01,0.11 0.02,0.16 z"
         inkscape:connector-curvature="0"
         style="fill:#000000;stroke-width:0" /><line
         id="line3615"
         y2="479.73001"
         x2="299.69"
         y1="479.73001"
         x1="283.25"
         style="stroke-width:0.398" /><path
         id="path3617"
         d="m 289.7,476.16 0.08,0.02 0.07,0.02 0.08,0.03 0.07,0.02 0.08,0.03 0.07,0.02 0.07,0.03 0.07,0.03 0.07,0.04 0.07,0.03 0.06,0.04 0.07,0.03 0.06,0.04 0.06,0.04 0.06,0.04 0.05,0.04 0.06,0.05 0.05,0.04 0.04,0.05 0.05,0.04 0.04,0.05 0.04,0.05 0.03,0.05 0.04,0.05 0.03,0.05 0.02,0.05 0.02,0.06 0.02,0.05 0.02,0.06 0.01,0.05 0,0.06 0.01,0.06 c 0,0.6 -0.72,1.07 -1.72,1.07 h -2.14 c -0.14,0 -0.23,0 -0.23,-0.15 0,-0.1 0.09,-0.1 0.23,-0.1 0,0 0.14,0 0.26,-0.01 0.15,-0.02 0.16,-0.03 0.16,-0.1 0,-0.02 0,-0.05 -0.03,-0.15 l -0.92,-3.7 c -0.06,-0.23 -0.07,-0.29 -0.62,-0.29 -0.11,0 -0.2,0 -0.2,-0.15 0,-0.07 0.04,-0.1 0.11,-0.1 0.13,0 0.29,0.02 0.43,0.02 0.13,0 0.33,0.01 0.46,0.01 0.14,0 0.3,-0.01 0.44,-0.01 0.15,0 0.32,-0.02 0.47,-0.02 0.04,0 0.15,0 0.15,0.15 0,0.1 -0.07,0.1 -0.23,0.1 -0.11,0 -0.14,0 -0.27,0.01 -0.15,0.02 -0.15,0.04 -0.15,0.11 0,0 0,0.05 0.03,0.15 l 0.44,1.76 h 0.94 l 0.01,0.19 h -0.9 l 0.45,1.79 c 0.05,0.2 0.06,0.22 0.21,0.24 h 0.45 c 0.65,0 1.45,0 1.45,-0.72 0,-0.28 -0.13,-0.72 -0.46,-0.97 -0.29,-0.22 -0.72,-0.34 -1.2,-0.34 l -0.01,-0.19 c 0.6,0 0.86,-0.3 0.86,-0.63 0,-0.09 -0.06,-0.32 -0.1,-0.48 -0.08,-0.32 -0.11,-0.43 -0.11,-0.54 0,-0.55 0.51,-0.77 1.02,-0.77 0.65,0 0.92,0.68 0.92,0.81 0,0.02 -0.01,0.1 -0.11,0.1 -0.09,0 -0.11,-0.05 -0.13,-0.12 -0.1,-0.31 -0.35,-0.59 -0.65,-0.59 -0.18,0 -0.31,0.07 -0.31,0.45 0,0.17 0.04,0.53 0.07,0.72 0.03,0.19 0.03,0.26 0.03,0.33 0,0.08 0,0.3 -0.2,0.51 -0.13,0.15 -0.32,0.24 -0.47,0.29 z"
         inkscape:connector-curvature="0"
         style="fill:#000000;stroke-width:0" /><path
         id="path3619"
         d="m 294.98,478.01 0,0.01 0.01,0.01 0,0 0,0.01 0,0.01 0,0.01 0.01,0.01 0,0 0,0.02 0.01,0.01 0,0.02 0,0.01 0.01,0.01 0,0.01 0.01,0.01 0,0.01 0.01,0 0,0.01 0.01,0.01 0,0.01 0.01,0 0,0.01 0.01,0 0.01,0.01 0,0 0.01,0 0.01,0.01 0.01,0 0.01,0 0.01,0 0.01,0.01 0.01,0 0.01,0 0.01,0 0.01,0 0.02,0 c 0.03,0.01 0.28,0.01 0.42,0.01 0.42,0 0.6,0 0.78,-0.05 0.31,-0.1 0.32,-0.3 0.32,-0.56 0,-0.11 0,-0.2 -0.05,-0.56 l -0.01,-0.07 c 0,-0.07 0.05,-0.11 0.12,-0.11 0.1,0 0.12,0.06 0.13,0.18 l 0.19,1.32 c 0,0.1 -0.08,0.1 -0.21,0.1 h -4.28 c -0.18,0 -0.19,0 -0.24,-0.14 l -0.44,-1.24 c -0.01,-0.02 -0.03,-0.09 -0.03,-0.12 0,-0.03 0.01,-0.1 0.12,-0.1 0.09,0 0.1,0.04 0.14,0.17 0.41,1.11 0.64,1.18 1.69,1.18 h 0.3 c 0.21,0 0.21,-0.01 0.21,-0.07 0,-0.01 0,-0.04 -0.03,-0.14 l -0.91,-3.66 c -0.07,-0.26 -0.09,-0.33 -0.82,-0.33 -0.25,0 -0.31,0 -0.31,-0.15 0,-0.02 0.01,-0.1 0.11,-0.1 0.2,0 0.41,0.02 0.6,0.02 0.2,0 0.41,0.01 0.6,0.01 0.2,0 0.44,0 0.63,-0.01 0.19,-0.01 0.4,-0.02 0.59,-0.02 0.05,0 0.16,0 0.16,0.15 0,0.1 -0.07,0.1 -0.29,0.1 -0.13,0 -0.27,0.01 -0.4,0.01 -0.24,0.02 -0.25,0.05 -0.25,0.14 0,0.04 0,0.06 0.02,0.16 z"
         inkscape:connector-curvature="0"
         style="fill:#000000;stroke-width:0" /></g>    <path
       style="fill:none;stroke:#000000;stroke-width:1px;stroke-linecap:butt;stroke-linejoin:miter;stroke-opacity:1;marker-end:url(#Arrow2Mend)"
       d="m 530,200.53571 0,30"
       id="path3704"
       inkscape:connector-curvature="0"
       transform="translate(-63.028358,665.51153)" />
    <path
       style="fill:none;stroke:#000000;stroke-width:1px;stroke-linecap:butt;stroke-linejoin:miter;stroke-opacity:1;marker-end:url(#Arrow2Mend)"
       d="m 380,250.53571 20,-30"
       id="path4662"
       inkscape:connector-curvature="0"
       transform="translate(-63.028358,665.51153)" />
    <g
       id="g5014"
       transform="matrix(1.9264878,0,0,-1.9264878,-126.1344,1962.4972)"
       xml:space="preserve"
       stroke-miterlimit="10.433"
       font-style="normal"
       font-variant="normal"
       font-weight="normal"
       font-stretch="normal"
       font-size-adjust="none"
       letter-spacing="normal"
       word-spacing="normal"
       ns0:text="$T/T_m$"
       ns0:preamble="/home/ken/.config/inkscape/textextpreamble.txt"
       style="font-style:normal;font-variant:normal;font-weight:normal;font-stretch:normal;letter-spacing:normal;word-spacing:normal;text-anchor:start;fill:none;stroke:#000000;stroke-linecap:butt;stroke-linejoin:miter;stroke-miterlimit:10.43299961;stroke-opacity:1;stroke-dasharray:none;stroke-dashoffset:0"><path
         style="fill:#000000;stroke-width:0"
         inkscape:connector-curvature="0"
         d="m 227.68,483.27 0.01,0.02 0,0.02 0.01,0.03 0.01,0.02 0,0.02 0.01,0.02 0,0.02 0.01,0.02 0,0.01 0.01,0.02 0.01,0.01 0,0.02 0.01,0.01 0,0.01 0.01,0.01 0.01,0.01 0,0.01 0.01,0.01 0.01,0.01 0,0.01 0.01,0 0.01,0.01 0,0.01 0.01,0 0.01,0.01 0.01,0 0.01,0.01 0.01,0 0.01,0 0.01,0.01 0.01,0 0.01,0 c 0.09,0.02 0.42,0.02 0.63,0.02 1,0 1.45,-0.04 1.45,-0.81 0,-0.15 -0.04,-0.54 -0.08,-0.8 -0.01,-0.04 -0.03,-0.16 -0.03,-0.19 0,-0.05 0.03,-0.12 0.12,-0.12 0.11,0 0.13,0.07 0.15,0.22 l 0.27,1.73 c 0.01,0.04 0.02,0.14 0.02,0.17 0,0.11 -0.1,0.11 -0.27,0.11 h -5.52 c -0.24,0 -0.25,-0.01 -0.32,-0.2 l -0.6,-1.75 c -0.01,-0.02 -0.06,-0.16 -0.06,-0.18 0,-0.06 0.05,-0.1 0.12,-0.1 0.1,0 0.11,0.04 0.17,0.2 0.54,1.54 0.8,1.72 2.27,1.72 h 0.39 c 0.27,0 0.27,-0.04 0.27,-0.12 0,-0.06 -0.03,-0.18 -0.04,-0.21 l -1.33,-5.3 c -0.09,-0.37 -0.12,-0.48 -1.18,-0.48 -0.36,0 -0.42,0 -0.42,-0.19 0,-0.12 0.11,-0.12 0.17,-0.12 0.27,0 0.55,0.03 0.81,0.03 0.28,0 0.57,0.01 0.85,0.01 0.28,0 0.56,-0.01 0.83,-0.01 0.28,0 0.58,-0.03 0.86,-0.03 0.1,0 0.22,0 0.22,0.2 0,0.11 -0.08,0.11 -0.34,0.11 -0.25,0 -0.38,0 -0.64,0.02 -0.28,0.03 -0.36,0.06 -0.36,0.22 0,0.01 0,0.06 0.04,0.21 z"
         id="path5016" /><path
         style="fill:#000000;stroke-width:0"
         inkscape:connector-curvature="0"
         d="m 234.73,484.31 0,0 0,0.01 0,0.01 0.01,0 0,0.01 0,0 0,0.01 0.01,0.01 0,0.01 0,0.01 0.01,0.01 0,0.01 0,0 0,0.01 0.01,0.01 0,0.01 0,0 0,0.01 0,0 0,0.01 0,0 0,0.01 0.01,0 0,0 0,0.01 0,0 0,0 0,0.01 0,0 0,0 0,0 0,0 0,0 0,0.01 0,0 c 0,0.11 -0.09,0.19 -0.2,0.19 -0.07,0 -0.14,-0.02 -0.17,-0.08 l -3.45,-9.47 c -0.05,-0.13 -0.05,-0.17 -0.05,-0.18 0,-0.11 0.09,-0.2 0.2,-0.2 0.13,0 0.15,0.07 0.21,0.24 z"
         id="path5018" /><path
         style="fill:#000000;stroke-width:0"
         inkscape:connector-curvature="0"
         d="m 239.59,483.27 0.01,0.02 0,0.02 0.01,0.03 0,0.02 0.01,0.02 0.01,0.02 0,0.02 0.01,0.02 0,0.01 0.01,0.02 0.01,0.01 0,0.02 0.01,0.01 0,0.01 0.01,0.01 0.01,0.01 0,0.01 0.01,0.01 0,0.01 0.01,0.01 0.01,0 0.01,0.01 0,0.01 0.01,0 0.01,0.01 0.01,0 0.01,0.01 0.01,0 0.01,0 0.01,0.01 0.01,0 0.01,0 c 0.09,0.02 0.42,0.02 0.63,0.02 1,0 1.45,-0.04 1.45,-0.81 0,-0.15 -0.04,-0.54 -0.08,-0.8 -0.01,-0.04 -0.03,-0.16 -0.03,-0.19 0,-0.05 0.03,-0.12 0.12,-0.12 0.11,0 0.13,0.07 0.15,0.22 l 0.27,1.73 c 0.01,0.04 0.02,0.14 0.02,0.17 0,0.11 -0.1,0.11 -0.27,0.11 h -5.53 c -0.23,0 -0.24,-0.01 -0.31,-0.2 l -0.6,-1.75 c -0.01,-0.02 -0.06,-0.16 -0.06,-0.18 0,-0.06 0.05,-0.1 0.12,-0.1 0.1,0 0.11,0.04 0.17,0.2 0.54,1.54 0.79,1.72 2.27,1.72 h 0.38 c 0.28,0 0.28,-0.04 0.28,-0.12 0,-0.06 -0.03,-0.18 -0.04,-0.21 l -1.33,-5.3 c -0.09,-0.37 -0.12,-0.48 -1.18,-0.48 -0.36,0 -0.42,0 -0.42,-0.19 0,-0.12 0.11,-0.12 0.17,-0.12 0.27,0 0.54,0.03 0.81,0.03 0.28,0 0.57,0.01 0.85,0.01 0.28,0 0.56,-0.01 0.83,-0.01 0.28,0 0.58,-0.03 0.86,-0.03 0.1,0 0.22,0 0.22,0.2 0,0.11 -0.08,0.11 -0.34,0.11 -0.25,0 -0.38,0 -0.63,0.02 -0.29,0.03 -0.37,0.06 -0.37,0.22 0,0.01 0,0.06 0.04,0.21 z"
         id="path5020" /><path
         style="fill:#000000;stroke-width:0"
         inkscape:connector-curvature="0"
         d="m 244.19,476.3 -0.01,-0.01 0,-0.01 0,-0.02 -0.01,-0.01 0,-0.02 -0.01,-0.01 0,-0.03 -0.01,-0.04 -0.01,-0.03 -0.01,-0.03 0,-0.01 -0.01,-0.02 0,-0.01 0,-0.02 -0.01,-0.01 0,-0.02 0,-0.01 -0.01,-0.01 0,-0.02 0,-0.01 0,-0.01 0,-0.01 -0.01,-0.01 0,0 0,-0.01 0,-0.01 0,0 0,-0.01 c 0,-0.15 0.12,-0.22 0.24,-0.22 0.12,0 0.23,0.09 0.27,0.15 0.03,0.07 0.09,0.29 0.12,0.44 0.04,0.13 0.11,0.45 0.16,0.62 0.04,0.15 0.08,0.31 0.11,0.47 0.08,0.3 0.08,0.31 0.22,0.53 0.22,0.34 0.57,0.73 1.11,0.73 0.39,0 0.42,-0.32 0.42,-0.48 0,-0.42 -0.3,-1.19 -0.42,-1.49 -0.07,-0.19 -0.1,-0.25 -0.1,-0.37 0,-0.37 0.31,-0.6 0.66,-0.6 0.7,0 1,0.96 1,1.06 0,0.1 -0.09,0.1 -0.11,0.1 -0.09,0 -0.1,-0.05 -0.13,-0.12 -0.16,-0.56 -0.46,-0.84 -0.74,-0.84 -0.14,0 -0.17,0.09 -0.17,0.24 0,0.16 0.03,0.25 0.16,0.56 0.08,0.22 0.37,0.95 0.37,1.35 0,0.11 0,0.4 -0.26,0.6 -0.12,0.09 -0.32,0.19 -0.65,0.19 -0.62,0 -1.01,-0.41 -1.23,-0.7 -0.06,0.59 -0.55,0.7 -0.91,0.7 -0.57,0 -0.96,-0.36 -1.17,-0.64 -0.05,0.48 -0.46,0.64 -0.75,0.64 -0.3,0 -0.46,-0.22 -0.55,-0.38 -0.15,-0.26 -0.25,-0.65 -0.25,-0.69 0,-0.09 0.1,-0.09 0.12,-0.09 0.1,0 0.1,0.02 0.15,0.21 0.11,0.41 0.24,0.75 0.51,0.75 0.18,0 0.23,-0.15 0.23,-0.34 0,-0.13 -0.06,-0.39 -0.11,-0.57 -0.05,-0.19 -0.12,-0.48 -0.15,-0.63 l -0.23,-0.89 c -0.02,-0.09 -0.07,-0.26 -0.07,-0.29 0,-0.15 0.13,-0.22 0.24,-0.22 0.13,0 0.24,0.09 0.27,0.15 0.04,0.07 0.09,0.29 0.13,0.44 0.03,0.13 0.11,0.45 0.15,0.62 0.04,0.15 0.09,0.31 0.12,0.47 0.08,0.28 0.09,0.34 0.29,0.62 0.2,0.28 0.52,0.64 1.05,0.64 0.4,0 0.41,-0.35 0.41,-0.48 0,-0.18 -0.02,-0.27 -0.12,-0.66 z"
         id="path5022" /></g>    <g
       id="g3169"
       transform="matrix(1.9264878,0,0,-1.9264878,-438.3552,1769.9744)"
       xml:space="preserve"
       stroke-miterlimit="10.433"
       font-style="normal"
       font-variant="normal"
       font-weight="normal"
       font-stretch="normal"
       font-size-adjust="none"
       letter-spacing="normal"
       word-spacing="normal"
       ns0:text="$\\log(\\sigma/G)$"
       ns0:preamble="/home/ken/.config/inkscape/textextpreamble.txt"
       style="font-style:normal;font-variant:normal;font-weight:normal;font-stretch:normal;letter-spacing:normal;word-spacing:normal;text-anchor:start;fill:none;stroke:#000000;stroke-linecap:butt;stroke-linejoin:miter;stroke-miterlimit:10.43299961;stroke-opacity:1;stroke-dasharray:none;stroke-dashoffset:0"><path
         style="fill:#000000;stroke-width:0"
         inkscape:connector-curvature="0"
         d="m 225.19,484.13 -1.43,-0.11 v -0.31 c 0.7,0 0.78,-0.07 0.78,-0.55 v -5.17 c 0,-0.45 -0.11,-0.45 -0.78,-0.45 v -0.31 c 0.33,0.01 0.86,0.04 1.11,0.04 0.24,0 0.73,-0.03 1.1,-0.04 v 0.31 c -0.67,0 -0.78,0 -0.78,0.45 z"
         id="path3171" /><path
         style="fill:#000000;stroke-width:0"
         inkscape:connector-curvature="0"
         d="m 230.89,479.36 -0.01,0.12 -0.01,0.12 -0.01,0.11 -0.02,0.12 -0.02,0.11 -0.03,0.11 -0.04,0.11 -0.04,0.1 -0.04,0.1 -0.05,0.1 -0.05,0.1 -0.06,0.09 -0.06,0.1 -0.07,0.08 -0.07,0.09 -0.07,0.08 -0.08,0.08 -0.08,0.07 -0.08,0.07 -0.09,0.06 -0.09,0.07 -0.09,0.05 -0.09,0.05 -0.1,0.05 -0.1,0.04 -0.1,0.04 -0.11,0.03 -0.1,0.03 -0.11,0.02 -0.11,0.01 -0.11,0.01 -0.11,0 -0.01,-0.21 c 0.44,0 0.86,-0.22 1.12,-0.65 0.26,-0.43 0.26,-1 0.26,-1.38 0,-0.36 0,-0.89 -0.22,-1.33 -0.22,-0.45 -0.66,-0.74 -1.15,-0.74 h 0 c -0.43,0 -0.87,0.21 -1.14,0.67 -0.25,0.44 -0.25,1.04 -0.25,1.4 0,0.39 0,0.92 0.24,1.36 0.27,0.46 0.74,0.67 1.14,0.67 l 0.01,0.21 c -1.25,0 -2.21,-1.08 -2.21,-2.32 0,-1.28 1.03,-2.23 2.2,-2.23 1.2,0 2.21,0.97 2.21,2.23 z"
         id="path3173" /><path
         style="fill:#000000;stroke-width:0"
         inkscape:connector-curvature="0"
         d="m 232.24,478.56 0,0 0,0.01 0,0 0,0.01 0,0.01 0,0.01 0,0.01 0,0.01 0,0.01 0,0.01 0,0.02 0,0.01 0.01,0.01 0,0.02 0,0.01 0.01,0.02 0,0.02 0.01,0.01 0,0.02 0.01,0.02 0,0.02 0.01,0.01 0.01,0.02 0.01,0.02 0.01,0.02 0.01,0.02 0.01,0.02 0.01,0.02 0.01,0.02 0.02,0.02 0.01,0.01 0.01,0.02 c 0.39,-0.28 0.8,-0.31 0.99,-0.31 v 0.23 c -0.87,0 -0.87,1 -0.87,1.23 0,0.26 0.01,0.58 0.16,0.83 0.08,0.12 0.31,0.4 0.71,0.4 0.87,0 0.87,-1 0.87,-1.23 0,-0.26 -0.02,-0.58 -0.16,-0.83 -0.08,-0.12 -0.31,-0.4 -0.71,-0.4 h 0 v -0.23 c 0.93,0 1.61,0.69 1.61,1.46 0,0.36 -0.16,0.73 -0.41,0.96 0.36,0.34 0.72,0.39 0.9,0.39 0.02,0 0.07,0 0.1,-0.01 -0.11,-0.04 -0.16,-0.15 -0.16,-0.27 0,-0.17 0.13,-0.29 0.29,-0.29 0.1,0 0.29,0.07 0.29,0.3 0,0.17 -0.12,0.48 -0.51,0.48 -0.2,0 -0.64,-0.06 -1.06,-0.46 -0.41,0.33 -0.83,0.36 -1.05,0.36 -0.93,0 -1.61,-0.69 -1.61,-1.46 0,-0.43 0.22,-0.81 0.46,-1.02 -0.12,-0.15 -0.3,-0.48 -0.3,-0.82 0,-0.31 0.13,-0.69 0.44,-0.89 -0.6,-0.17 -0.92,-0.59 -0.92,-0.99 0,-0.72 0.98,-1.26 2.2,-1.26 l 0.01,0.23 c -1.01,0 -1.69,0.5 -1.69,1.03 0,0.46 0.37,0.82 0.81,0.85 h 0.59 c 0.86,0 1.97,0 1.97,-0.85 0,-0.54 -0.71,-1.03 -1.68,-1.03 h 0 l -0.01,-0.23 c 1.17,0 2.21,0.51 2.21,1.28 0,0.35 -0.14,0.85 -0.65,1.13 -0.53,0.28 -1.1,0.28 -1.71,0.28 -0.25,0 -0.68,0 -0.75,0.01 -0.32,0.04 -0.52,0.35 -0.52,0.67 z"
         id="path3175" /><path
         style="fill:#000000;stroke-width:0"
         inkscape:connector-curvature="0"
         d="m 239.6,474.85 -0.01,0.01 0,0 0,0 0,0.01 0,0 0,0 0,0.01 0,0 0,0 0,0.01 -0.01,0 0,0.01 0,0 -0.01,0.01 0,0 -0.01,0.01 0,0.01 -0.01,0 0,0.01 0,0 -0.01,0.01 0,0 0,0 -0.01,0.01 0,0 -0.01,0.01 0,0 -0.01,0.01 0,0 -0.01,0.01 0,0 -0.01,0.01 0,0.01 -0.01,0 0,0.01 -0.01,0.01 -0.01,0 0,0.01 -0.01,0.01 -0.01,0 -0.01,0.01 0,0.01 c -1.25,1.25 -1.57,3.13 -1.57,4.65 0,1.73 0.38,3.45 1.6,4.7 0.14,0.12 0.14,0.14 0.14,0.17 0,0.07 -0.05,0.09 -0.11,0.09 -0.09,0 -0.99,-0.67 -1.58,-1.93 -0.5,-1.09 -0.62,-2.2 -0.62,-3.03 0,-0.78 0.11,-1.98 0.65,-3.1 0.6,-1.22 1.46,-1.87 1.55,-1.87 0.06,0 0.11,0.03 0.11,0.1 z"
         id="path3177" /><path
         style="fill:#000000;stroke-width:0"
         inkscape:connector-curvature="0"
         d="m 245.33,480.94 0.01,0 0.02,0 0.01,0 0.02,0 0.01,0 0.02,0 0.02,0 0.02,0.01 0.02,0 0.02,0 0.02,0 0.02,0.01 0.02,0 0.02,0.01 0.02,0 0.02,0.01 0.02,0.01 0.02,0.01 0.02,0.01 0.02,0.01 0.01,0.02 0.02,0.01 0.01,0.01 0,0.01 0.01,0 0.01,0.01 0,0.01 0.01,0.01 0.01,0.01 0,0.01 0.01,0.01 0,0.01 0.01,0.01 0,0.02 0,0.01 0.01,0.01 0,0.01 0,0.02 0,0.01 0,0.02 0.01,0.01 0,0.02 c 0,0.24 -0.21,0.24 -0.39,0.24 h -2.27 c -1.5,0 -2.61,-1.64 -2.61,-2.82 0,-0.88 0.59,-1.57 1.49,-1.57 l 0.01,0.21 c -0.48,0 -0.88,0.36 -0.88,1.08 0,0.29 0.12,1.11 0.47,1.7 0.41,0.68 1.01,0.82 1.35,0.82 0.84,0 0.92,-0.65 0.92,-0.96 0,-0.47 -0.2,-1.28 -0.54,-1.79 -0.39,-0.59 -0.93,-0.85 -1.32,-0.85 h 0 l -0.01,-0.21 c 1.18,0 2.5,1.2 2.5,2.73 0,0.17 0,0.64 -0.31,1.08 z"
         id="path3179" /><path
         style="fill:#000000;stroke-width:0"
         inkscape:connector-curvature="0"
         d="m 250.59,484.31 0.01,0 0,0.01 0,0.01 0,0 0,0.01 0.01,0 0,0.01 0,0.01 0.01,0.01 0,0.01 0,0.01 0.01,0.01 0,0 0,0.01 0,0.01 0,0.01 0.01,0 0,0.01 0,0 0,0.01 0,0 0,0.01 0,0 0,0 0,0.01 0,0 0,0 0,0.01 0,0 0,0 0,0 0,0 0,0 0,0.01 0,0 c 0,0.11 -0.09,0.19 -0.19,0.19 -0.07,0 -0.15,-0.02 -0.17,-0.08 l -3.46,-9.47 c -0.05,-0.13 -0.05,-0.17 -0.05,-0.18 0,-0.11 0.09,-0.2 0.2,-0.2 0.13,0 0.16,0.07 0.22,0.24 z"
         id="path3181" /><path
         style="fill:#000000;stroke-width:0"
         inkscape:connector-curvature="0"
         d="m 258.77,484.14 0,0 0,0.01 0,0 0,0 0,0.01 0,0 0,0 -0.01,0.01 0,0 0,0.01 0,0 0,0 0,0.01 -0.01,0 0,0.01 0,0 -0.01,0 0,0.01 0,0 -0.01,0 0,0.01 -0.01,0 0,0 -0.01,0.01 0,0 0,0 -0.01,0 0,0 0,0 -0.01,0 0,0 0,0.01 -0.01,0 0,0 0,0 -0.01,0 0,0 -0.01,0 0,0 c -0.03,0 -0.04,-0.01 -0.15,-0.12 l -0.7,-0.77 c -0.09,0.14 -0.54,0.89 -1.65,0.89 -2.22,0 -4.45,-2.2 -4.45,-4.5 0,-1.58 1.1,-2.72 2.71,-2.72 0.44,0 0.89,0.09 1.24,0.24 0.5,0.19 0.69,0.4 0.87,0.6 0.09,-0.25 0.35,-0.62 0.45,-0.62 0.05,0 0.07,0.03 0.07,0.05 0.02,0.01 0.12,0.39 0.17,0.6 l 0.19,0.77 c 0.04,0.16 0.08,0.33 0.13,0.5 0.1,0.45 0.11,0.47 0.68,0.48 0.05,0 0.16,0.01 0.16,0.2 0,0.07 -0.05,0.11 -0.13,0.11 -0.23,0 -0.81,-0.03 -1.04,-0.03 -0.31,0 -1.09,0.03 -1.4,0.03 -0.08,0 -0.21,0 -0.21,-0.2 0,-0.11 0.08,-0.11 0.3,-0.11 0.01,0 0.3,0 0.53,-0.02 0.26,-0.03 0.31,-0.06 0.31,-0.19 0,-0.09 -0.11,-0.54 -0.21,-0.9 -0.28,-1.1 -1.57,-1.21 -1.92,-1.21 -0.96,0 -2,0.57 -2,2.09 0,0.31 0.1,1.95 1.15,3.24 0.53,0.67 1.5,1.28 2.48,1.28 1.02,0 1.6,-0.76 1.6,-1.92 0,-0.39 -0.03,-0.4 -0.03,-0.5 0,-0.1 0.11,-0.1 0.15,-0.1 0.13,0 0.13,0.02 0.18,0.2 z"
         id="path3183" /><path
         style="fill:#000000;stroke-width:0"
         inkscape:connector-curvature="0"
         d="m 261.92,479.72 -0.01,0.07 0,0.08 0,0.08 0,0.08 -0.01,0.17 -0.01,0.17 -0.02,0.18 -0.02,0.19 -0.03,0.2 -0.03,0.2 -0.04,0.2 -0.04,0.21 -0.06,0.21 -0.06,0.21 -0.07,0.21 -0.08,0.21 -0.04,0.11 -0.04,0.11 -0.05,0.1 -0.05,0.11 c -0.6,1.22 -1.45,1.86 -1.55,1.86 -0.06,0 -0.1,-0.03 -0.1,-0.09 0,-0.03 0,-0.05 0.19,-0.23 0.97,-0.99 1.54,-2.56 1.54,-4.64 0,-1.7 -0.37,-3.45 -1.6,-4.7 -0.13,-0.12 -0.13,-0.14 -0.13,-0.17 0,-0.06 0.04,-0.1 0.1,-0.1 0.1,0 0.99,0.68 1.58,1.94 0.51,1.09 0.63,2.19 0.63,3.03 z"
         id="path3185" /></g>    <g
       style="font-style:normal;font-variant:normal;font-weight:normal;font-stretch:normal;letter-spacing:normal;word-spacing:normal;text-anchor:start;fill:none;stroke:#000000;stroke-linecap:butt;stroke-linejoin:miter;stroke-miterlimit:10.43299961;stroke-opacity:1;stroke-dasharray:none;stroke-dashoffset:0"
       ns0:preamble="/home/ken/.config/inkscape/textextpreamble.txt"
       ns0:text="$\\frac{de}{dt}\\propto \\sigma\\frac{1}{d^3}\\exp\\frac{Q_{gb}}{RT}$"
       word-spacing="normal"
       letter-spacing="normal"
       font-size-adjust="none"
       font-stretch="normal"
       font-weight="normal"
       font-variant="normal"
       font-style="normal"
       stroke-miterlimit="10.433"
       xml:space="preserve"
       transform="matrix(1.9264878,0,0,-1.9264878,-257.97314,1857.2403)"
       id="g4503"><path
         id="path4505"
         d="m 228.6,485.77 0.01,0.01 0,0 0,0 0,0 0,0 0,0 0,0 0,0 0,0.01 0,0 0,0 0,0.01 0,0 0,0.01 0.01,0 0,0 0,0.01 0,0 0,0.01 0,0.01 0,0.01 0.01,0 0,0.01 0,0 0,0 0,0.01 0,0 0,0.01 0,0 0,0 0,0 0,0 0,0 0,0 0,0 0,0 0,0.01 0,0 0,0 0,0 c 0,0.03 -0.03,0.09 -0.11,0.09 -0.14,0 -0.72,-0.05 -0.89,-0.07 -0.06,0 -0.15,-0.01 -0.15,-0.16 0,-0.09 0.09,-0.09 0.18,-0.09 0.33,0 0.33,-0.05 0.33,-0.11 0,-0.05 -0.01,-0.09 -0.03,-0.15 l -0.39,-1.59 c -0.15,0.23 -0.39,0.42 -0.72,0.42 v -0.2 c 0.49,0 0.62,-0.53 0.62,-0.61 0,-0.02 -0.01,-0.07 -0.02,-0.09 l -0.33,-1.3 c -0.05,-0.2 -0.2,-0.34 -0.35,-0.47 -0.07,-0.05 -0.34,-0.28 -0.65,-0.28 -0.25,0 -0.5,0.18 -0.5,0.68 0,0.37 0.2,1.13 0.36,1.41 0.32,0.56 0.67,0.66 0.87,0.66 v 0.2 c -0.89,0 -1.8,-0.99 -1.8,-1.99 0,-0.67 0.46,-1.15 1.05,-1.15 0.38,0 0.72,0.21 0.99,0.49 0.14,-0.42 0.54,-0.49 0.72,-0.49 0.25,0 0.43,0.15 0.55,0.37 0.15,0.27 0.24,0.66 0.24,0.69 0,0.09 -0.09,0.09 -0.11,0.09 -0.09,0 -0.1,-0.03 -0.15,-0.21 -0.08,-0.34 -0.22,-0.75 -0.51,-0.75 -0.18,0 -0.23,0.16 -0.23,0.34 0,0.14 0.02,0.2 0.04,0.29 z"
         inkscape:connector-curvature="0"
         style="fill:#000000;stroke-width:0" /><path
         id="path4507"
         d="m 230.34,482.74 0.01,0 0.03,0 0.02,0 0.02,0 0.03,0 0.03,0.01 0.03,0 0.03,0 0.03,0 0.04,0 0.03,0 0.04,0 0.03,0.01 0.04,0 0.08,0.01 0.08,0 0.08,0.01 0.08,0.02 0.08,0.01 0.08,0.02 0.04,0.01 0.04,0 0.04,0.01 0.03,0.02 0.04,0.01 0.04,0.01 c 0.51,0.18 0.61,0.51 0.61,0.72 0,0.38 -0.38,0.62 -0.86,0.62 v -0.2 c 0.3,0 0.56,-0.15 0.56,-0.42 0,-0.67 -1.18,-0.67 -1.48,-0.67 h -0.34 c 0.29,1.01 1.06,1.09 1.26,1.09 v 0.2 c -0.84,0 -1.97,-0.65 -1.97,-1.83 0,-0.71 0.44,-1.31 1.26,-1.31 1.17,0 1.72,0.69 1.72,0.78 0,0.05 -0.06,0.12 -0.12,0.12 -0.04,0 -0.05,-0.01 -0.11,-0.07 -0.54,-0.64 -1.36,-0.64 -1.48,-0.64 -0.42,0 -0.7,0.28 -0.7,0.84 0,0.1 0,0.24 0.09,0.62 z"
         inkscape:connector-curvature="0"
         style="fill:#000000;stroke-width:0" /><line
         id="line4509"
         y2="479.73001"
         x2="232.55"
         y1="479.73001"
         x1="224.63"
         style="stroke-width:0.398" /><path
         id="path4511"
         d="m 228.99,478.42 0,0 0,0 0,0 0,0 0,0 0,0 0,0 0,0.01 0,0 0.01,0 0,0.01 0,0 0,0 0,0.01 0,0 0,0.01 0,0 0,0.01 0.01,0.01 0,0.01 0,0 0,0 0,0.01 0,0 0,0.01 0,0 0.01,0 0,0.01 0,0 0,0 0,0 0,0 0,0 0,0 0,0.01 0,0 0,0 0,0 0,0 0,0 c 0,0.03 -0.03,0.1 -0.11,0.1 -0.14,0 -0.72,-0.06 -0.9,-0.07 -0.05,-0.01 -0.15,-0.02 -0.15,-0.16 0,-0.1 0.1,-0.1 0.18,-0.1 0.34,0 0.34,-0.05 0.34,-0.1 0,-0.05 -0.02,-0.1 -0.03,-0.16 l -0.4,-1.58 c -0.14,0.23 -0.38,0.41 -0.71,0.41 v -0.2 c 0.48,0 0.61,-0.53 0.61,-0.6 0,-0.03 -0.01,-0.08 -0.02,-0.1 l -0.32,-1.3 c -0.05,-0.19 -0.21,-0.34 -0.36,-0.47 -0.06,-0.05 -0.34,-0.28 -0.64,-0.28 -0.26,0 -0.51,0.19 -0.51,0.68 0,0.37 0.2,1.13 0.36,1.41 0.32,0.56 0.68,0.66 0.88,0.66 v 0.2 c -0.9,0 -1.8,-0.98 -1.8,-1.98 0,-0.68 0.45,-1.16 1.05,-1.16 0.38,0 0.71,0.22 0.99,0.49 0.13,-0.42 0.53,-0.49 0.72,-0.49 0.25,0 0.42,0.15 0.55,0.37 0.15,0.27 0.24,0.67 0.24,0.69 0,0.1 -0.09,0.1 -0.11,0.1 -0.1,0 -0.11,-0.03 -0.15,-0.22 -0.09,-0.34 -0.22,-0.75 -0.51,-0.75 -0.18,0 -0.23,0.16 -0.23,0.35 0,0.13 0.01,0.19 0.03,0.28 z"
         inkscape:connector-curvature="0"
         style="fill:#000000;stroke-width:0" /><path
         id="path4513"
         d="m 230.87,476.55 h 0.71 c 0.14,0 0.23,0 0.23,0.15 0,0.1 -0.09,0.1 -0.21,0.1 h -0.66 l 0.25,1.03 c 0.01,0.03 0.02,0.07 0.02,0.09 0,0.13 -0.09,0.23 -0.23,0.23 -0.18,0 -0.28,-0.12 -0.33,-0.3 -0.05,-0.18 0.04,0.16 -0.26,-1.05 h -0.71 c -0.14,0 -0.23,0 -0.23,-0.16 0,-0.09 0.09,-0.09 0.21,-0.09 h 0.66 l -0.41,-1.64 c -0.04,-0.18 -0.1,-0.43 -0.1,-0.52 0,-0.41 0.35,-0.66 0.74,-0.66 0.78,0 1.21,0.97 1.21,1.06 0,0.1 -0.09,0.1 -0.11,0.1 -0.08,0 -0.09,-0.02 -0.14,-0.14 -0.2,-0.43 -0.55,-0.83 -0.94,-0.83 -0.14,0 -0.24,0.1 -0.24,0.35 0,0.06 0.03,0.21 0.04,0.28 z"
         inkscape:connector-curvature="0"
         style="fill:#000000;stroke-width:0" /><path
         id="path4515"
         d="m 243.7,477.55 0,0 0,0 -0.01,0 0,0 -0.01,0 -0.01,0 0,0 -0.01,0 -0.01,0 -0.01,0 0,0 -0.01,0 -0.01,0 -0.02,-0.01 -0.02,0 -0.01,0 -0.01,0 -0.01,0 -0.01,0 -0.01,0 -0.01,0 0,0 -0.01,0 -0.01,-0.01 0,0 -0.01,0 -0.01,0 0,0 0,0 0,0 -0.01,0 0,0 c -0.78,0 -1.31,0.78 -1.65,1.29 -0.1,0.17 -0.37,0.58 -0.48,0.75 0.24,0.54 0.91,1.77 2.09,1.77 0.07,0 0.16,0 0.27,-0.03 0,0.26 -0.01,0.27 -0.03,0.29 -0.07,0.02 -0.22,0.03 -0.31,0.03 -1.26,0 -2,-1.22 -2.24,-1.71 -0.39,0.6 -0.53,0.82 -0.9,1.13 -0.61,0.53 -1.15,0.58 -1.4,0.58 -1.11,0 -1.75,-1.12 -1.75,-2.26 h 0.22 c 0,0.98 0.56,1.85 1.39,1.85 0.78,0 1.31,-0.78 1.65,-1.29 0.1,-0.17 0.37,-0.58 0.48,-0.75 h 0 c -0.24,-0.53 -0.91,-1.77 -2.09,-1.77 -0.97,0 -1.43,1.06 -1.43,1.96 h -0.22 c 0,-1.11 0.62,-2.24 1.72,-2.24 1.26,0 2,1.21 2.23,1.7 0.4,-0.6 0.54,-0.82 0.91,-1.13 0.61,-0.53 1.16,-0.57 1.4,-0.57 0.12,0 0.28,0.02 0.37,0.04 z"
         inkscape:connector-curvature="0"
         style="fill:#000000;stroke-width:0" /><path
         id="path4517"
         d="m 252.19,480.94 0.01,0 0.01,0 0.02,0 0.02,0 0.01,0 0.02,0 0.02,0 0.02,0.01 0.02,0 0.02,0 0.02,0 0.02,0.01 0.02,0 0.02,0.01 0.02,0 0.02,0.01 0.02,0.01 0.02,0.01 0.02,0.01 0.01,0.01 0.02,0.02 0.02,0.01 0.01,0.01 0,0.01 0.01,0 0.01,0.01 0,0.01 0.01,0.01 0.01,0.01 0,0.01 0.01,0.01 0,0.01 0.01,0.01 0,0.02 0,0.01 0.01,0.01 0,0.01 0,0.02 0,0.01 0,0.02 0,0.01 0.01,0.02 c 0,0.24 -0.21,0.24 -0.39,0.24 h -2.27 c -1.5,0 -2.61,-1.64 -2.61,-2.82 0,-0.88 0.59,-1.57 1.49,-1.57 l 0.01,0.21 c -0.48,0 -0.88,0.36 -0.88,1.08 0,0.29 0.12,1.11 0.47,1.7 0.41,0.68 1.01,0.82 1.35,0.82 0.83,0 0.91,-0.65 0.91,-0.96 0,-0.47 -0.19,-1.28 -0.53,-1.79 -0.39,-0.59 -0.93,-0.85 -1.32,-0.85 h 0 l -0.01,-0.21 c 1.18,0 2.5,1.2 2.5,2.73 0,0.17 0,0.64 -0.31,1.08 z"
         inkscape:connector-curvature="0"
         style="fill:#000000;stroke-width:0" /><path
         id="path4519"
         d="m 258.64,485.58 0,0.01 0,0.01 0,0.01 0,0 0,0.01 0,0.01 0,0.01 0,0 0,0.01 0,0.01 0,0 0,0.01 0,0 0,0.01 0,0.01 0,0 0,0.01 0,0 0,0.01 -0.01,0.01 0,0 0,0.01 -0.01,0.01 0,0 -0.01,0.01 0,0 -0.01,0.01 0,0 -0.01,0 -0.01,0.01 -0.01,0 -0.01,0 0,0 -0.01,0 0,0 -0.01,0 -0.01,0 0,0 -0.01,0 -0.01,0 0,0 -0.01,0 -0.01,0 0,0 -0.01,0 -0.01,0 -0.01,0 -0.01,0 0,0 -0.01,0 c -0.45,-0.43 -1.08,-0.44 -1.37,-0.44 v -0.25 c 0.17,0 0.63,0 1.01,0.19 v -3.54 c 0,-0.23 0,-0.32 -0.69,-0.32 h -0.27 v -0.25 c 0.12,0.01 0.98,0.03 1.24,0.03 0.22,0 1.09,-0.02 1.25,-0.03 v 0.25 h -0.27 c -0.7,0 -0.7,0.09 -0.7,0.32 z"
         inkscape:connector-curvature="0"
         style="fill:#000000;stroke-width:0" /><line
         id="line4521"
         y2="479.73001"
         x2="262.32001"
         y1="479.73001"
         x1="254.28"
         style="stroke-width:0.398" /><path
         id="path4523"
         d="m 258.26,478.42 0,0 0,0 0,0 0,0 0,0 0,0 0,0 0,0.01 0,0 0,0 0,0.01 0,0 0.01,0 0,0.01 0,0 0,0.01 0,0 0,0.01 0,0.01 0.01,0.01 0,0 0,0 0,0.01 0,0 0,0.01 0,0 0,0 0,0.01 0,0 0,0 0,0 0,0 0,0 0,0 0,0.01 0,0 0,0 0,0 0,0 0.01,0 c 0,0.03 -0.03,0.1 -0.12,0.1 -0.14,0 -0.71,-0.06 -0.89,-0.07 -0.05,-0.01 -0.15,-0.02 -0.15,-0.16 0,-0.1 0.1,-0.1 0.18,-0.1 0.33,0 0.33,-0.05 0.33,-0.1 0,-0.05 -0.01,-0.1 -0.02,-0.16 l -0.4,-1.58 c -0.15,0.23 -0.38,0.41 -0.72,0.41 v -0.2 c 0.49,0 0.62,-0.53 0.62,-0.6 0,-0.03 -0.01,-0.08 -0.02,-0.1 l -0.33,-1.3 c -0.04,-0.19 -0.2,-0.34 -0.35,-0.47 -0.06,-0.05 -0.34,-0.28 -0.64,-0.28 -0.26,0 -0.51,0.19 -0.51,0.68 0,0.37 0.2,1.13 0.36,1.41 0.32,0.56 0.68,0.66 0.87,0.66 v 0.2 c -0.89,0 -1.79,-0.98 -1.79,-1.98 0,-0.68 0.45,-1.16 1.05,-1.16 0.37,0 0.71,0.22 0.98,0.49 0.14,-0.42 0.54,-0.49 0.72,-0.49 0.25,0 0.43,0.15 0.55,0.37 0.16,0.27 0.25,0.67 0.25,0.69 0,0.1 -0.09,0.1 -0.12,0.1 -0.09,0 -0.1,-0.03 -0.15,-0.22 -0.08,-0.34 -0.21,-0.75 -0.51,-0.75 -0.18,0 -0.23,0.16 -0.23,0.35 0,0.13 0.02,0.19 0.04,0.28 z"
         inkscape:connector-curvature="0"
         style="fill:#000000;stroke-width:0" /><path
         id="path4525"
         d="m 260.07,477.44 0.04,0 0.04,-0.01 0.04,0 0.04,-0.01 0.04,0 0.04,-0.01 0.04,-0.01 0.03,-0.02 0.03,-0.01 0.04,-0.01 0.03,-0.02 0.03,-0.02 0.03,-0.02 0.03,-0.02 0.03,-0.02 0.02,-0.03 0.03,-0.02 0.02,-0.03 0.02,-0.03 0.02,-0.03 0.02,-0.03 0.02,-0.03 0.01,-0.04 0.02,-0.03 0.01,-0.04 0.01,-0.03 0.01,-0.04 0.01,-0.04 0,-0.05 0.01,-0.04 0,-0.04 0,-0.05 c 0,-0.51 -0.31,-0.77 -0.76,-0.77 -0.05,0 -0.64,0 -0.9,0.25 0.21,0.03 0.27,0.19 0.27,0.31 0,0.18 -0.14,0.3 -0.31,0.3 -0.16,0 -0.3,-0.1 -0.3,-0.31 0,-0.52 0.58,-0.76 1.26,-0.76 0.81,0 1.32,0.49 1.32,0.98 0,0.4 -0.36,0.75 -0.93,0.88 0.6,0.19 0.76,0.57 0.76,0.85 0,0.41 -0.51,0.71 -1.14,0.71 -0.61,0 -1.1,-0.26 -1.1,-0.71 0,-0.23 0.19,-0.29 0.28,-0.29 0.15,0 0.29,0.11 0.29,0.29 0,0.11 -0.06,0.25 -0.24,0.28 0.21,0.23 0.65,0.24 0.76,0.24 0.36,0 0.62,-0.18 0.62,-0.52 0,-0.29 -0.19,-0.74 -0.71,-0.77 -0.14,-0.01 -0.16,-0.01 -0.29,-0.01 -0.05,-0.01 -0.11,-0.01 -0.11,-0.09 0,-0.08 0.05,-0.08 0.14,-0.08 z"
         inkscape:connector-curvature="0"
         style="fill:#000000;stroke-width:0" /><path
         id="path4527"
         d="m 266.27,479.53 0.02,0.21 c 0.06,1.48 0.89,1.73 1.23,1.73 1.02,0 1.12,-1.34 1.12,-1.73 h -2.35 l -0.02,-0.21 h 2.78 c 0.22,0 0.25,0 0.25,0.21 0,0.98 -0.54,1.94 -1.78,1.94 -1.16,0 -2.07,-1.02 -2.07,-2.26 0,-1.33 1.04,-2.29 2.19,-2.29 1.21,0 1.66,1.1 1.66,1.29 0,0.1 -0.08,0.12 -0.13,0.12 -0.09,0 -0.11,-0.06 -0.13,-0.14 -0.35,-1.03 -1.24,-1.03 -1.34,-1.03 -0.5,0 -0.9,0.3 -1.13,0.67 -0.3,0.48 -0.3,1.13 -0.3,1.49 z"
         inkscape:connector-curvature="0"
         style="fill:#000000;stroke-width:0" /><path
         id="path4529"
         d="m 272.45,479.57 0.06,0.07 0.06,0.08 0.06,0.07 0.06,0.08 0.12,0.15 0.06,0.08 0.06,0.08 0.06,0.07 0.06,0.07 0.06,0.07 0.06,0.07 0.02,0.03 0.03,0.03 0.03,0.04 0.02,0.03 0.03,0.02 0.02,0.03 0.03,0.03 0.02,0.02 c 0.31,0.36 0.71,0.51 1.18,0.52 v 0.31 c -0.26,-0.02 -0.55,-0.03 -0.81,-0.03 -0.3,0 -0.83,0.02 -0.96,0.03 v -0.31 c 0.21,-0.02 0.29,-0.15 0.29,-0.31 0,-0.16 -0.1,-0.29 -0.15,-0.35 l -0.62,-0.77 -0.77,1 c -0.09,0.1 -0.09,0.12 -0.09,0.18 0,0.15 0.15,0.24 0.35,0.25 v 0.31 c -0.26,-0.01 -0.92,-0.03 -1.08,-0.03 -0.21,0 -0.67,0.01 -0.94,0.03 v -0.31 c 0.69,0 0.7,-0.01 1.17,-0.61 l 0.99,-1.28 -0.94,-1.18 c -0.48,-0.58 -1.06,-0.6 -1.27,-0.6 v -0.31 c 0.26,0.03 0.57,0.04 0.82,0.04 0.29,0 0.71,-0.03 0.95,-0.04 v 0.31 c -0.22,0.03 -0.29,0.16 -0.29,0.31 0,0.22 0.29,0.55 0.9,1.26 l 0.75,-0.99 c 0.08,-0.11 0.21,-0.27 0.21,-0.33 0,-0.09 -0.09,-0.24 -0.36,-0.25 v -0.31 c 0.3,0.01 0.86,0.04 1.08,0.04 0.27,0 0.65,-0.01 0.95,-0.04 v 0.31 c -0.53,0 -0.71,0.02 -0.94,0.31 z"
         inkscape:connector-curvature="0"
         style="fill:#000000;stroke-width:0" /><path
         id="path4531"
         d="m 276.57,480.97 v 0.66 l -1.43,-0.11 v -0.31 c 0.7,0 0.77,-0.06 0.77,-0.5 v -4.65 c 0,-0.44 -0.11,-0.44 -0.77,-0.44 v -0.31 c 0.33,0.01 0.85,0.03 1.11,0.03 0.27,0 0.77,-0.02 1.12,-0.03 v 0.31 c -0.66,0 -0.77,0 -0.77,0.44 v 1.67 0.09 l 0.14,0.13 c -0.14,0.21 -0.14,0.22 -0.14,0.42 h 0 v 2.21 c 0.29,0.51 0.77,0.8 1.28,0.8 0.73,0 1.33,-0.88 1.33,-2 0,-1.2 -0.69,-2.04 -1.43,-2.04 -0.4,0 -0.77,0.2 -1.04,0.61 l -0.14,-0.13 c 0.05,-0.16 0.47,-0.69 1.22,-0.69 1.19,0 2.22,0.97 2.22,2.25 0,1.26 -0.96,2.25 -2.08,2.25 -0.78,0 -1.19,-0.44 -1.39,-0.66 z"
         inkscape:connector-curvature="0"
         style="fill:#000000;stroke-width:0" /><path
         id="path4533"
         d="m 286.49,481.93 0,-0.08 0,-0.09 0,-0.04 0.01,-0.04 0,-0.04 0.01,-0.04 0.01,-0.04 0,-0.04 0.01,-0.04 0.01,-0.04 0.02,-0.04 0.01,-0.03 0.02,-0.04 0.01,-0.03 0.02,-0.04 0.02,-0.03 0.02,-0.03 0.03,-0.02 0.02,-0.03 0.03,-0.02 0.03,-0.03 0.03,-0.02 0.04,-0.02 0.03,-0.01 0.04,-0.02 0.02,0 0.03,-0.01 0.02,0 0.02,-0.01 0.02,0 0.03,0 0.02,-0.01 0.03,0 0.02,0 0.03,0 c 0.84,0 1.24,1.2 1.24,1.35 0,0.05 -0.04,0.1 -0.09,0.1 -0.07,0 -0.09,-0.07 -0.1,-0.09 -0.17,-0.49 -0.63,-0.63 -0.86,-0.63 -0.28,0 -0.43,0.12 -0.55,0.67 1.24,0.44 2.23,1.67 2.23,2.9 0,1.1 -0.79,1.94 -2.02,1.94 -1.66,0 -3.27,-1.56 -3.27,-3.13 0,-1.11 0.83,-1.9 2.03,-1.9 l 0.04,0.22 c -0.11,0 -0.35,0 -0.35,0.27 0,0.27 0.28,0.5 0.58,0.5 v 0.2 c -0.39,0 -0.78,-0.33 -0.78,-0.7 0,-0.12 0.01,-0.13 0.03,-0.18 h 0 c -0.36,0.13 -0.88,0.49 -0.88,1.42 0,0.45 0.15,1.37 0.78,2.16 0.44,0.53 1.12,0.92 1.77,0.92 0.75,0 1.4,-0.51 1.4,-1.53 0,-0.69 -0.34,-2.19 -1.62,-2.82 -0.11,0.44 -0.29,0.73 -0.7,0.73 v -0.2 c 0.25,0 0.44,-0.11 0.46,-0.64 h 0 c -0.16,-0.06 -0.41,-0.13 -0.69,-0.13 l -0.04,-0.22 c 0.13,0 0.36,0.01 0.73,0.1 z"
         inkscape:connector-curvature="0"
         style="fill:#000000;stroke-width:0" /><path
         id="path4535"
         d="m 292.66,483.1 0,0 0,0.01 0,0 0,0.01 0,0 0,0 0,0.01 0,0 0.01,0 0,0.01 0,0 0,0 0,0.01 0,0 0,0 0,0 0,0.01 0,0 0,0 0,0.01 0,0 0.01,0 0,0.01 0,0 0,0 0,0.01 0,0 0,0 0,0 0,0.01 0,0 0,0 0,0 0,0 0,0.01 0,0 0,0 0,0 c 0,0.09 -0.06,0.18 -0.18,0.18 -0.1,0 -0.21,-0.07 -0.25,-0.2 -0.17,0.22 -0.38,0.3 -0.6,0.3 v -0.17 c 0.41,0 0.52,-0.39 0.52,-0.43 0,-0.01 -0.01,-0.05 -0.02,-0.08 l -0.2,-0.81 c -0.02,-0.08 -0.03,-0.1 -0.12,-0.2 -0.18,-0.19 -0.41,-0.34 -0.67,-0.34 -0.2,0 -0.44,0.11 -0.44,0.5 0,0.19 0.08,0.66 0.27,0.95 0.14,0.22 0.4,0.41 0.66,0.41 v 0.17 c -0.68,0 -1.38,-0.65 -1.38,-1.35 0,-0.52 0.4,-0.85 0.87,-0.85 0.32,0 0.59,0.18 0.7,0.27 -0.01,-0.05 -0.1,-0.39 -0.12,-0.47 -0.04,-0.18 -0.08,-0.33 -0.31,-0.49 -0.23,-0.16 -0.45,-0.16 -0.59,-0.16 -0.04,0 -0.41,0.01 -0.41,0.04 l 0.02,0.01 c 0.09,0.08 0.12,0.19 0.12,0.24 0,0.09 -0.06,0.2 -0.23,0.2 -0.16,0 -0.3,-0.13 -0.3,-0.32 0,-0.34 0.5,-0.34 0.8,-0.34 0.68,0 1.19,0.23 1.31,0.71 z"
         inkscape:connector-curvature="0"
         style="fill:#000000;stroke-width:0" /><path
         id="path4537"
         d="m 294.76,484.55 0,0 0,0.01 0,0 0,0 0,0.01 0,0 0,0 0,0 0.01,0.01 0,0 0,0.01 0,0 0,0.01 0,0 0,0 0,0.01 0,0 0,0 0.01,0.01 0,0 0,0 0,0 0,0.01 0,0 0,0 0,0 0,0.01 0,0 0,0.01 0,0 0,0 0,0 c 0,0.09 -0.08,0.09 -0.16,0.08 l -0.61,-0.04 c -0.08,-0.01 -0.09,-0.01 -0.12,-0.03 -0.02,-0.02 -0.03,-0.08 -0.03,-0.11 0,-0.09 0.08,-0.09 0.15,-0.09 0,0 0.09,0 0.17,-0.01 0.09,-0.01 0.1,-0.02 0.1,-0.06 0,-0.03 -0.05,-0.23 -0.08,-0.34 l -0.42,-1.66 c -0.02,-0.1 -0.04,-0.18 -0.04,-0.29 0,-0.52 0.37,-0.86 0.85,-0.86 0.72,0 1.4,0.69 1.4,1.38 0,0.49 -0.36,0.87 -0.87,0.87 l -0.01,-0.17 c 0.21,0 0.43,-0.13 0.43,-0.51 0,-0.18 -0.09,-0.65 -0.25,-0.94 -0.17,-0.29 -0.45,-0.46 -0.69,-0.46 h 0 c -0.21,0 -0.46,0.13 -0.46,0.53 0,0.16 0.04,0.32 0.08,0.48 0.02,0.06 0.1,0.39 0.11,0.42 0.01,0.05 0.36,0.48 0.78,0.48 l 0.01,0.17 c -0.21,0 -0.45,-0.08 -0.7,-0.27 z"
         inkscape:connector-curvature="0"
         style="fill:#000000;stroke-width:0" /><line
         id="line4539"
         y2="479.73001"
         x2="296.84"
         y1="479.73001"
         x1="283.25"
         style="stroke-width:0.398" /><path
         id="path4541"
         d="m 288.27,476.16 0.08,0.02 0.08,0.02 0.08,0.03 0.07,0.02 0.07,0.03 0.08,0.02 0.07,0.03 0.07,0.03 0.07,0.04 0.07,0.03 0.06,0.04 0.07,0.03 0.06,0.04 0.06,0.04 0.05,0.04 0.06,0.04 0.05,0.05 0.05,0.04 0.05,0.05 0.04,0.04 0.05,0.05 0.04,0.05 0.03,0.05 0.03,0.05 0.03,0.05 0.03,0.05 0.02,0.06 0.02,0.05 0.01,0.06 0.01,0.05 0.01,0.06 0,0.06 c 0,0.6 -0.71,1.07 -1.72,1.07 h -2.14 c -0.13,0 -0.22,0 -0.22,-0.15 0,-0.1 0.08,-0.1 0.22,-0.1 0.01,0 0.14,0 0.27,-0.01 0.14,-0.02 0.16,-0.03 0.16,-0.1 0,-0.02 0,-0.05 -0.03,-0.15 l -0.93,-3.7 c -0.05,-0.23 -0.06,-0.29 -0.61,-0.29 -0.12,0 -0.21,0 -0.21,-0.15 0,-0.07 0.05,-0.1 0.11,-0.1 0.14,0 0.3,0.02 0.44,0.02 0.13,0 0.33,0.01 0.46,0.01 0.13,0 0.29,-0.01 0.44,-0.01 0.15,0 0.32,-0.02 0.47,-0.02 0.03,0 0.14,0 0.14,0.15 0,0.1 -0.07,0.1 -0.23,0.1 -0.11,0 -0.13,0 -0.26,0.01 -0.15,0.02 -0.15,0.04 -0.15,0.11 0,0 0,0.05 0.02,0.15 l 0.44,1.76 h 0.95 l 0.01,0.19 h -0.9 l 0.44,1.79 c 0.05,0.2 0.07,0.22 0.22,0.24 h 0.45 c 0.64,0 1.44,0 1.44,-0.72 0,-0.28 -0.13,-0.72 -0.45,-0.97 -0.29,-0.22 -0.72,-0.34 -1.2,-0.34 l -0.01,-0.19 c 0.6,0 0.86,-0.3 0.86,-0.63 0,-0.09 -0.07,-0.32 -0.1,-0.48 -0.08,-0.32 -0.11,-0.43 -0.11,-0.54 0,-0.55 0.51,-0.77 1.02,-0.77 0.64,0 0.92,0.68 0.92,0.81 0,0.02 -0.01,0.1 -0.12,0.1 -0.09,0 -0.1,-0.05 -0.12,-0.12 -0.1,-0.31 -0.36,-0.59 -0.65,-0.59 -0.18,0 -0.31,0.07 -0.31,0.45 0,0.17 0.04,0.53 0.07,0.72 0.02,0.19 0.02,0.26 0.02,0.33 0,0.08 0,0.3 -0.19,0.51 -0.13,0.15 -0.32,0.24 -0.48,0.29 z"
         inkscape:connector-curvature="0"
         style="fill:#000000;stroke-width:0" /><path
         id="path4543"
         d="m 293.56,478.01 0,0.01 0,0.01 0.01,0 0,0.01 0,0.01 0,0.01 0,0.01 0.01,0 0,0.02 0,0.01 0.01,0.02 0,0.01 0.01,0.01 0,0.01 0,0.01 0.01,0.01 0,0 0.01,0.01 0,0.01 0.01,0.01 0,0 0.01,0.01 0.01,0 0,0.01 0.01,0 0.01,0 0.01,0.01 0,0 0.01,0 0.01,0 0.01,0.01 0.01,0 0.02,0 0.01,0 0.01,0 0.01,0 c 0.04,0.01 0.28,0.01 0.42,0.01 0.43,0 0.61,0 0.78,-0.05 0.32,-0.1 0.33,-0.3 0.33,-0.56 0,-0.11 0,-0.2 -0.05,-0.56 l -0.01,-0.07 c 0,-0.07 0.05,-0.11 0.12,-0.11 0.1,0 0.11,0.06 0.13,0.18 l 0.19,1.32 c 0,0.1 -0.09,0.1 -0.21,0.1 h -4.29 c -0.17,0 -0.18,0 -0.23,-0.14 l -0.44,-1.24 c -0.01,-0.02 -0.04,-0.09 -0.04,-0.12 0,-0.03 0.02,-0.1 0.12,-0.1 0.09,0 0.11,0.04 0.15,0.17 0.4,1.11 0.63,1.18 1.69,1.18 h 0.29 c 0.21,0 0.22,-0.01 0.22,-0.07 0,-0.01 0,-0.04 -0.03,-0.14 l -0.92,-3.66 c -0.06,-0.26 -0.08,-0.33 -0.81,-0.33 -0.25,0 -0.32,0 -0.32,-0.15 0,-0.02 0.02,-0.1 0.12,-0.1 0.2,0 0.41,0.02 0.6,0.02 0.2,0 0.4,0.01 0.6,0.01 0.2,0 0.43,0 0.63,-0.01 0.18,-0.01 0.39,-0.02 0.58,-0.02 0.06,0 0.16,0 0.16,0.15 0,0.1 -0.07,0.1 -0.28,0.1 -0.14,0 -0.28,0.01 -0.41,0.01 -0.23,0.02 -0.25,0.05 -0.25,0.14 0,0.04 0,0.06 0.03,0.16 z"
         inkscape:connector-curvature="0"
         style="fill:#000000;stroke-width:0" /></g>  </g>
</svg>
