<?xml version="1.0" encoding="UTF-8" standalone="no"?>
<!-- Created with Inkscape (http://www.inkscape.org/) -->

<svg
   xmlns:ns0="http://www.iki.fi/pav/software/textext/"
   xmlns:dc="http://purl.org/dc/elements/1.1/"
   xmlns:cc="http://creativecommons.org/ns#"
   xmlns:rdf="http://www.w3.org/1999/02/22-rdf-syntax-ns#"
   xmlns:svg="http://www.w3.org/2000/svg"
   xmlns="http://www.w3.org/2000/svg"
   xmlns:sodipodi="http://sodipodi.sourceforge.net/DTD/sodipodi-0.dtd"
   xmlns:inkscape="http://www.inkscape.org/namespaces/inkscape"
   width="507.19434"
   height="321"
   id="svg2"
   version="1.1"
   inkscape:version="0.48.4 r9939"
   sodipodi:docname="dugdale stresses.svg">
  <sodipodi:namedview
     id="base"
     pagecolor="#ffffff"
     bordercolor="#666666"
     borderopacity="1.0"
     inkscape:pageopacity="0.0"
     inkscape:pageshadow="2"
     inkscape:zoom="5.6"
     inkscape:cx="180.04127"
     inkscape:cy="87.228924"
     inkscape:document-units="px"
     inkscape:current-layer="layer1"
     showgrid="true"
     units="in"
     width="11cm"
     inkscape:window-width="1920"
     inkscape:window-height="1030"
     inkscape:window-x="1280"
     inkscape:window-y="0"
     inkscape:window-maximized="1"
     fit-margin-top="0"
     fit-margin-left="0"
     fit-margin-right="0"
     fit-margin-bottom="0"
     inkscape:snap-global="false">
    <inkscape:grid
       originy="-79.499996px"
       originx="-103.30567px"
       type="xygrid"
       id="grid2984"
       empspacing="5"
       visible="true"
       enabled="true"
       snapvisiblegridlinesonly="true"
       spacingx="2px"
       spacingy="2px" />
  </sodipodi:namedview>
  <defs
     id="defs4">
    <marker
       inkscape:stockid="Arrow2Mstart"
       orient="auto"
       refY="0"
       refX="0"
       id="Arrow2Mstart"
       style="overflow:visible">
      <path
         inkscape:connector-curvature="0"
         id="path4221"
         style="fill-rule:evenodd;stroke-width:0.625;stroke-linejoin:round"
         d="M 8.7185878,4.0337352 -2.2072895,0.01601326 8.7185884,-4.0017078 c -1.7454984,2.3720609 -1.7354408,5.6174519 -6e-7,8.035443 z"
         transform="scale(0.6,0.6)" />
    </marker>
    <marker
       style="overflow:visible"
       id="Arrow2Mend"
       refX="0"
       refY="0"
       orient="auto"
       inkscape:stockid="Arrow2Mend">
      <path
         transform="scale(-0.6,-0.6)"
         d="M 8.7185878,4.0337352 -2.2072895,0.01601326 8.7185884,-4.0017078 c -1.7454984,2.3720609 -1.7354408,5.6174519 -6e-7,8.035443 z"
         style="fill-rule:evenodd;stroke-width:0.625;stroke-linejoin:round"
         id="path3966"
         inkscape:connector-curvature="0" />
    </marker>
    <clipPath
       id="clipPath3053"
       clipPathUnits="userSpaceOnUse">
      <path
         inkscape:connector-curvature="0"
         id="path3055"
         clip-rule="evenodd"
         d="M 0,0 234,0 234,171 0,171 0,0 z" />
    </clipPath>
    <marker
       style="overflow:visible"
       id="Arrow2MendS"
       refX="0"
       refY="0"
       orient="auto"
       inkscape:stockid="Arrow2MendS">
      <path
         transform="scale(-0.6,-0.6)"
         d="M 8.7185878,4.0337352 -2.2072895,0.01601326 8.7185884,-4.0017078 c -1.7454984,2.3720609 -1.7354408,5.6174519 -6e-7,8.035443 z"
         style="stroke-linejoin:round;stroke:#0000ff;stroke-width:0.625;fill:#0000ff;fill-rule:evenodd"
         id="path6786"
         inkscape:connector-curvature="0" />
    </marker>
  </defs>
  <metadata
     id="metadata7">
    <rdf:RDF>
      <cc:Work
         rdf:about="">
        <dc:format>image/svg+xml</dc:format>
        <dc:type
           rdf:resource="http://purl.org/dc/dcmitype/StillImage" />
        <dc:title />
      </cc:Work>
    </rdf:RDF>
  </metadata>
  <g
     transform="translate(-40.277308,-675.54724)"
     id="layer1"
     inkscape:groupmode="layer"
     inkscape:label="Layer 1">
    <path
       style="fill:none;stroke:#000000;stroke-width:1px;stroke-linecap:butt;stroke-linejoin:miter;stroke-opacity:1"
       d="m 140,10.535706 0,60 300,30.000004 -300,30 0,70"
       id="path3415"
       inkscape:connector-curvature="0"
       transform="translate(-63.028358,665.51153)" />
    <path
       style="fill:none;stroke:#000000;stroke-width:1.79999995;stroke-linecap:butt;stroke-linejoin:miter;stroke-miterlimit:4;stroke-opacity:1;stroke-dasharray:none;marker-start:url(#Arrow2Mstart);marker-end:url(#Arrow2Mend)"
       d="m 440,50.535706 0,50.000004 50,0"
       id="path3417"
       inkscape:connector-curvature="0"
       transform="translate(-63.028358,665.51153)" />
    <text
       xml:space="preserve"
       style="font-size:22.28637123px;font-style:normal;font-variant:normal;font-weight:normal;font-stretch:normal;text-align:start;line-height:125%;letter-spacing:0px;word-spacing:0px;writing-mode:lr-tb;text-anchor:start;fill:#000000;fill-opacity:1;stroke:none;font-family:Latin Modern Roman;-inkscape-font-specification:'Latin Modern Roman,'"
       x="435.4436"
       y="771.76154"
       id="text4823"
       sodipodi:linespacing="125%"><tspan
         sodipodi:role="line"
         id="tspan4825"
         x="435.4436"
         y="771.76154">x</tspan></text>
    <text
       xml:space="preserve"
       style="font-size:22.28637123px;font-style:normal;font-variant:normal;font-weight:normal;font-stretch:normal;text-align:start;line-height:125%;letter-spacing:0px;word-spacing:0px;writing-mode:lr-tb;text-anchor:start;fill:#000000;fill-opacity:1;stroke:none;font-family:Latin Modern Roman;-inkscape-font-specification:'Latin Modern Roman,'"
       x="368.94519"
       y="705.84991"
       id="text4823-4"
       sodipodi:linespacing="125%"><tspan
         sodipodi:role="line"
         id="tspan4825-0"
         x="368.94519"
         y="705.84991">y</tspan></text>
    <path
       style="fill:#00ffff;stroke:#000000;stroke-width:1px;stroke-linecap:butt;stroke-linejoin:miter;stroke-opacity:1"
       d="m 439.41636,100.16634 -89.14596,-8.333762 0,17.930212 z"
       id="path4848"
       inkscape:connector-curvature="0"
       transform="translate(-63.028358,665.51153)" />
    <path
       style="fill:none;stroke:#000000;stroke-width:1px;stroke-linecap:butt;stroke-linejoin:miter;stroke-opacity:1"
       d="m 140,230.53571 0,100 470,0 0,0"
       id="path4850"
       inkscape:connector-curvature="0"
       transform="translate(-63.028358,665.51153)" />
    <text
       xml:space="preserve"
       style="font-size:15.9113512px;font-style:normal;font-variant:normal;font-weight:normal;font-stretch:normal;text-align:center;line-height:125%;letter-spacing:0px;word-spacing:0px;writing-mode:lr-tb;text-anchor:middle;fill:#000000;fill-opacity:1;stroke:none;font-family:Latin Modern Roman;-inkscape-font-specification:'Latin Modern Roman,'"
       x="305.18057"
       y="710.32312"
       id="text4852"
       sodipodi:linespacing="125%"><tspan
         sodipodi:role="line"
         id="tspan4854"
         x="305.18057"
         y="710.32312">Dugdale zone</tspan><tspan
         sodipodi:role="line"
         x="305.18057"
         y="730.21228"
         id="tspan4856">(craze)</tspan></text>
    <path
       style="fill:none;stroke:#000000;stroke-width:1px;stroke-linecap:butt;stroke-linejoin:miter;stroke-opacity:1;marker-end:url(#Arrow2Mend)"
       d="m 377.14286,75.535706 c 0,6.428571 -5.71429,24.285714 -5.71429,24.285714"
       id="path4858"
       inkscape:connector-curvature="0"
       transform="translate(-63.028358,665.51153)" />
    <path
       style="fill:none;stroke:#000000;stroke-width:1px;stroke-linecap:butt;stroke-linejoin:miter;stroke-opacity:1;marker-start:url(#Arrow2Mstart);marker-end:url(#Arrow2Mend)"
       d="m 346.42857,91.964277 0,17.142853"
       id="path5044"
       inkscape:connector-curvature="0"
       transform="translate(-63.028358,665.51153)" />
    <g
       style="font-style:normal;font-variant:normal;font-weight:normal;font-stretch:normal;letter-spacing:normal;word-spacing:normal;text-anchor:start;fill:none;stroke:#000000;stroke-linecap:butt;stroke-linejoin:miter;stroke-miterlimit:10.43299961;stroke-opacity:1;stroke-dasharray:none;stroke-dashoffset:0"
       ns0:preamble="/home/ken/.config/inkscape/textextpreamble.txt"
       ns0:text="$\\delta_{c}$"
       word-spacing="normal"
       letter-spacing="normal"
       font-size-adjust="none"
       font-stretch="normal"
       font-weight="normal"
       font-variant="normal"
       font-style="normal"
       stroke-miterlimit="10.433"
       xml:space="preserve"
       transform="matrix(1.9519419,0,0,-1.9519419,-182.25647,1702.7683)"
       id="content"><path
         id="path5709"
         d="m 226.06,481.58 -0.12,-0.03 -0.11,-0.04 -0.11,-0.04 -0.11,-0.05 -0.11,-0.05 -0.11,-0.06 -0.1,-0.06 -0.1,-0.07 -0.1,-0.07 -0.09,-0.07 -0.1,-0.08 -0.09,-0.08 -0.08,-0.09 -0.09,-0.08 -0.08,-0.1 -0.07,-0.09 -0.07,-0.1 -0.07,-0.1 -0.07,-0.1 -0.06,-0.1 -0.06,-0.11 -0.05,-0.11 -0.05,-0.1 -0.04,-0.11 -0.04,-0.11 -0.03,-0.12 -0.03,-0.11 -0.03,-0.11 -0.02,-0.12 -0.01,-0.11 -0.01,-0.11 0,-0.11 c 0,-0.96 0.64,-1.67 1.57,-1.67 v 0.21 c -0.54,0 -0.95,0.42 -0.95,1.18 0,0.62 0.37,2.49 1.71,2.85 h 0 c 0.25,-0.46 0.55,-1 0.55,-1.71 0,-0.66 -0.38,-2.32 -1.31,-2.32 v -0.21 c 1.17,0 1.99,1.55 1.99,2.93 0,0.9 -0.4,1.4 -0.73,1.84 -0.36,0.45 -0.95,1.2 -0.95,1.63 0,0.22 0.2,0.46 0.55,0.46 0.3,0 0.49,-0.13 0.7,-0.27 0.2,-0.12 0.4,-0.25 0.55,-0.25 0.25,0 0.4,0.24 0.4,0.4 0,0.22 -0.16,0.25 -0.52,0.33 -0.52,0.11 -0.65,0.11 -0.81,0.11 -0.78,0 -1.14,-0.43 -1.14,-1.03 0,-0.53 0.29,-1.09 0.6,-1.69 z"
         inkscape:connector-curvature="0"
         style="fill:#000000;stroke-width:0" /><path
         id="path5711"
         d="m 230.91,478.4 -0.02,0 -0.03,-0.01 -0.02,0 -0.02,-0.01 -0.02,-0.01 -0.02,0 -0.01,-0.01 -0.02,-0.01 -0.02,-0.01 -0.01,-0.01 -0.02,-0.01 -0.01,-0.02 -0.02,-0.01 -0.01,-0.01 -0.01,-0.01 -0.01,-0.02 -0.01,-0.01 -0.01,-0.02 -0.01,-0.01 -0.01,-0.02 -0.01,-0.01 0,-0.02 -0.01,-0.01 0,-0.02 -0.01,-0.01 0,-0.02 -0.01,-0.01 0,-0.02 0,-0.01 0,-0.02 0,-0.01 -0.01,-0.01 c 0,-0.19 0.15,-0.26 0.28,-0.26 0.15,0 0.39,0.11 0.39,0.44 0,0.47 -0.54,0.61 -0.92,0.61 -1.04,0 -2.01,-0.96 -2.01,-1.93 0,-0.6 0.42,-1.21 1.29,-1.21 1.18,0 1.73,0.69 1.73,0.79 0,0.04 -0.07,0.12 -0.12,0.12 -0.04,0 -0.06,-0.02 -0.11,-0.07 -0.55,-0.64 -1.36,-0.64 -1.49,-0.64 -0.5,0 -0.72,0.34 -0.72,0.77 0,0.2 0.1,0.96 0.46,1.44 0.26,0.34 0.63,0.53 0.97,0.53 0.1,0 0.44,-0.01 0.61,-0.21 z"
         inkscape:connector-curvature="0"
         style="fill:#000000;stroke-width:0" /></g>    <g
       id="g5933"
       transform="matrix(3.1966757,0,0,-3.1966757,-675.17068,2469.3462)"
       xml:space="preserve"
       stroke-miterlimit="10.433"
       font-style="normal"
       font-variant="normal"
       font-weight="normal"
       font-stretch="normal"
       font-size-adjust="none"
       letter-spacing="normal"
       word-spacing="normal"
       ns0:text="$\\sigma$"
       ns0:preamble="/home/ken/.config/inkscape/textextpreamble.txt"
       style="font-style:normal;font-variant:normal;font-weight:normal;font-stretch:normal;letter-spacing:normal;word-spacing:normal;text-anchor:start;fill:none;stroke:#000000;stroke-linecap:butt;stroke-linejoin:miter;stroke-miterlimit:10.43299961;stroke-opacity:1;stroke-dasharray:none;stroke-dashoffset:0"><path
         style="fill:#000000;stroke-width:0"
         inkscape:connector-curvature="0"
         d="m 228.59,480.94 0.01,0 0.01,0 0.02,0 0.01,0 0.02,0 0.02,0 0.02,0 0.02,0.01 0.02,0 0.02,0 0.02,0 0.02,0.01 0.02,0 0.02,0.01 0.02,0 0.02,0.01 0.02,0.01 0.02,0.01 0.02,0.01 0.01,0.01 0.02,0.02 0.02,0.01 0,0.01 0.01,0.01 0.01,0 0.01,0.01 0,0.01 0.01,0.01 0,0.01 0.01,0.01 0,0.01 0.01,0.01 0,0.01 0.01,0.02 0,0.01 0,0.01 0.01,0.01 0,0.02 0,0.01 0,0.02 0,0.01 0,0.02 c 0,0.24 -0.21,0.24 -0.39,0.24 h -2.26 c -1.51,0 -2.61,-1.64 -2.61,-2.82 0,-0.88 0.59,-1.57 1.49,-1.57 l 0.01,0.21 c -0.49,0 -0.88,0.36 -0.88,1.08 0,0.29 0.12,1.11 0.47,1.7 0.41,0.68 1.01,0.82 1.35,0.82 0.83,0 0.91,-0.65 0.91,-0.96 0,-0.47 -0.2,-1.28 -0.53,-1.79 -0.39,-0.59 -0.93,-0.85 -1.32,-0.85 h 0 l -0.01,-0.21 c 1.18,0 2.5,1.2 2.5,2.73 0,0.17 0,0.64 -0.31,1.08 z"
         id="path5935" /></g>    <path
       sodipodi:nodetypes="ccccaac"
       transform="translate(-63.028358,665.51153)"
       inkscape:connector-curvature="0"
       id="path6036"
       d="m 140,330.53571 210,0 0,-70 90,0 c 0,0 9.03011,29.90625 20,40 13.20949,12.15449 32.56432,15.73158 50,20 32.53872,7.96579 100,10 100,10"
       style="fill:none;stroke:#ff0000;stroke-width:1px;stroke-linecap:butt;stroke-linejoin:miter;stroke-opacity:1" />
    <g
       style="font-style:normal;font-variant:normal;font-weight:normal;font-stretch:normal;letter-spacing:normal;word-spacing:normal;text-anchor:start;fill:none;stroke:#000000;stroke-linecap:butt;stroke-linejoin:miter;stroke-miterlimit:10.43299961;stroke-opacity:1;stroke-dasharray:none;stroke-dashoffset:0"
       ns0:preamble="/home/ken/.config/inkscape/textextpreamble.txt"
       ns0:text="$\\sigma_{c}$"
       word-spacing="normal"
       letter-spacing="normal"
       font-size-adjust="none"
       font-stretch="normal"
       font-weight="normal"
       font-variant="normal"
       font-style="normal"
       stroke-miterlimit="10.433"
       xml:space="preserve"
       transform="matrix(1.9519419,0,0,-1.9519419,-194.39933,1862.4112)"
       id="g6164"><path
         style="fill:#000000;stroke-width:0"
         inkscape:connector-curvature="0"
         id="path6166"
         d="m 228.59,480.94 0.01,0 0.01,0 0.02,0 0.01,0 0.02,0 0.02,0 0.02,0 0.02,0.01 0.02,0 0.02,0 0.02,0 0.02,0.01 0.02,0 0.02,0.01 0.02,0 0.02,0.01 0.02,0.01 0.02,0.01 0.02,0.01 0.01,0.01 0.02,0.02 0.02,0.01 0,0.01 0.01,0.01 0.01,0 0.01,0.01 0,0.01 0.01,0.01 0,0.01 0.01,0.01 0,0.01 0.01,0.01 0,0.01 0.01,0.02 0,0.01 0,0.01 0.01,0.01 0,0.02 0,0.01 0,0.02 0,0.01 0,0.02 c 0,0.24 -0.21,0.24 -0.39,0.24 h -2.26 c -1.51,0 -2.61,-1.64 -2.61,-2.82 0,-0.88 0.59,-1.57 1.49,-1.57 l 0.01,0.21 c -0.49,0 -0.88,0.36 -0.88,1.08 0,0.29 0.12,1.11 0.47,1.7 0.41,0.68 1.01,0.82 1.35,0.82 0.83,0 0.91,-0.65 0.91,-0.96 0,-0.47 -0.2,-1.28 -0.53,-1.79 -0.39,-0.59 -0.93,-0.85 -1.32,-0.85 h 0 l -0.01,-0.21 c 1.18,0 2.5,1.2 2.5,2.73 0,0.17 0,0.64 -0.31,1.08 z" /><path
         style="fill:#000000;stroke-width:0"
         inkscape:connector-curvature="0"
         id="path6168"
         d="m 232.18,478.4 -0.03,0 -0.02,-0.01 -0.02,0 -0.02,-0.01 -0.02,-0.01 -0.02,0 -0.02,-0.01 -0.02,-0.01 -0.01,-0.01 -0.02,-0.01 -0.01,-0.01 -0.02,-0.02 -0.01,-0.01 -0.01,-0.01 -0.02,-0.01 -0.01,-0.02 -0.01,-0.01 -0.01,-0.02 -0.01,-0.01 0,-0.02 -0.01,-0.01 -0.01,-0.02 0,-0.01 -0.01,-0.02 0,-0.01 -0.01,-0.02 0,-0.01 0,-0.02 -0.01,-0.01 0,-0.02 0,-0.01 0,-0.01 c 0,-0.19 0.15,-0.26 0.27,-0.26 0.15,0 0.4,0.11 0.4,0.44 0,0.47 -0.54,0.61 -0.92,0.61 -1.05,0 -2.01,-0.96 -2.01,-1.93 0,-0.6 0.42,-1.21 1.29,-1.21 1.17,0 1.72,0.69 1.72,0.79 0,0.04 -0.06,0.12 -0.12,0.12 -0.04,0 -0.05,-0.02 -0.11,-0.07 -0.54,-0.64 -1.35,-0.64 -1.48,-0.64 -0.5,0 -0.73,0.34 -0.73,0.77 0,0.2 0.1,0.96 0.47,1.44 0.26,0.34 0.62,0.53 0.97,0.53 0.1,0 0.43,-0.01 0.61,-0.21 z" /></g>    <path
       style="fill:none;stroke:#000000;stroke-width:1;stroke-linecap:butt;stroke-linejoin:miter;stroke-miterlimit:4;stroke-opacity:1;stroke-dasharray:2, 1;stroke-dashoffset:0"
       d="m 346.07143,260.53571 -20.35714,0"
       id="path6273"
       inkscape:connector-curvature="0"
       transform="translate(-63.028358,665.51153)"
       sodipodi:nodetypes="cc" />
    <path
       sodipodi:nodetypes="caaaac"
       style="fill:none;stroke:#0000ff;stroke-width:1px;stroke-linecap:butt;stroke-linejoin:miter;stroke-opacity:1"
       d="m 441.42857,153.03571 c 0,0 1.73886,77.69386 13.21429,114.28571 3.09804,9.87878 7.92475,19.52911 14.69055,27.36569 7.35341,8.5172 16.82267,15.54178 27.09516,20.13431 17.0834,7.63749 36.46734,8.65881 55,11.25 C 570.82038,328.78275 610,330.53571 610,330.53571"
       id="path6275"
       inkscape:connector-curvature="0"
       transform="translate(-63.028358,665.51153)" />
    <path
       sodipodi:nodetypes="cc"
       transform="translate(-63.028358,665.51153)"
       inkscape:connector-curvature="0"
       id="path6401"
       d="m 440,330.53571 0,-220"
       style="fill:none;stroke:#000000;stroke-width:1;stroke-linecap:butt;stroke-linejoin:miter;stroke-miterlimit:4;stroke-opacity:1;stroke-dasharray:2, 1;stroke-dashoffset:0" />
    <path
       transform="translate(40.277308,675.54724)"
       inkscape:connector-curvature="0"
       id="path6589"
       d="m 375.71429,243.5 -24.28572,6.78571"
       style="stroke-linejoin:miter;marker-end:url(#Arrow2MendS);stroke-opacity:1;stroke:#0000ff;stroke-linecap:butt;stroke-width:1px;fill:none" />
    <g
       id="g3259"
       transform="matrix(1.9519419,0,0,-1.9519419,-19.399334,1847.7683)"
       xml:space="preserve"
       stroke="black"
       stroke-linecap="butt"
       stroke-linejoin="miter"
       stroke-miterlimit="10.433"
       stroke-dasharray="none"
       stroke-dashoffset="0"
       stroke-opacity="1"
       fill="none"
       fill-rule="evenodd"
       fill-opacity="1"
       font-style="normal"
       font-variant="normal"
       font-weight="normal"
       font-stretch="normal"
       font-size-adjust="none"
       letter-spacing="normal"
       word-spacing="normal"
       text-anchor="start"
       ns0:text="$\\frac{K_{IC}}{\\sqrt{2\\pi x}}$"
       ns0:preamble="/home/ken/.config/inkscape/textextpreamble.txt"
       style="font-style:normal;font-variant:normal;font-weight:normal;font-stretch:normal;letter-spacing:normal;word-spacing:normal;text-anchor:start;fill:#0000ff;fill-opacity:1;fill-rule:evenodd;stroke:#0000ff;stroke-linecap:butt;stroke-linejoin:miter;stroke-miterlimit:10.43299961;stroke-opacity:1;stroke-dasharray:none;stroke-dashoffset:0"><path
         d="M230.59,484.12 L230.58,484.13 L230.58,484.13 L230.58,484.14 L230.58,484.14 L230.57,484.14 L230.57,484.15 L230.57,484.15 L230.57,484.16 L230.56,484.16 L230.56,484.16 L230.56,484.17 L230.56,484.17 L230.56,484.17 L230.56,484.18 L230.55,484.18 L230.55,484.18 L230.55,484.18 L230.55,484.19 L230.55,484.19 L230.55,484.19 L230.55,484.19 L230.55,484.19 L230.55,484.2 L230.55,484.2 L230.55,484.2 L230.54,484.2 L230.54,484.2 L230.54,484.2 L230.54,484.2 L230.54,484.2 L230.54,484.2 L230.54,484.2 C230.54,484.22,230.55,484.23,230.71,484.34 L231.41,484.83 C232.33,485.48,232.76,485.78,233.26,485.83 C233.34,485.83,233.42,485.84,233.42,485.98 C233.42,486.03,233.37,486.07,233.33,486.07 C233.18,486.07,233,486.05,232.85,486.05 C232.66,486.05,232.19,486.08,232.01,486.08 C231.96,486.08,231.86,486.08,231.86,485.92 C231.86,485.92,231.86,485.83,231.96,485.83 C232.05,485.82,232.14,485.8,232.14,485.73 C232.14,485.6,231.92,485.45,231.83,485.39 L228.93,483.34 L229.48,485.53 C229.54,485.77,229.55,485.83,230.09,485.83 C230.2,485.83,230.3,485.83,230.3,485.97 C230.3,486.03,230.26,486.08,230.19,486.08 C229.99,486.08,229.48,486.05,229.27,486.05 C229.16,486.05,228.91,486.05,228.79,486.05 C228.66,486.06,228.49,486.08,228.36,486.08 C228.31,486.08,228.21,486.08,228.21,485.92 C228.21,485.83,228.29,485.83,228.44,485.83 C228.55,485.83,228.58,485.83,228.7,485.81 C228.84,485.8,228.86,485.78,228.86,485.71 C228.86,485.7,228.86,485.67,228.83,485.56 L227.9,481.87 C227.85,481.63,227.83,481.58,227.29,481.58 C227.16,481.58,227.08,481.58,227.08,481.42 C227.08,481.42,227.08,481.33,227.19,481.33 C227.4,481.33,227.9,481.35,228.1,481.35 C228.22,481.35,228.46,481.35,228.58,481.35 C228.72,481.34,228.89,481.33,229.02,481.33 C229.07,481.33,229.17,481.33,229.17,481.48 C229.17,481.58,229.09,481.58,228.95,481.58 C228.94,481.58,228.81,481.58,228.68,481.59 C228.52,481.6,228.52,481.62,228.52,481.7 C228.52,481.75,228.59,482.01,228.85,483.03 L230.01,483.84 L231.02,481.89 C231.07,481.8,231.07,481.79,231.07,481.76 C231.07,481.6,230.87,481.58,230.74,481.58 C230.66,481.58,230.56,481.58,230.56,481.42 C230.56,481.42,230.57,481.33,230.68,481.33 C230.88,481.33,231.38,481.35,231.57,481.35 C231.78,481.35,232.06,481.33,232.26,481.33 C232.35,481.33,232.4,481.38,232.4,481.47 C232.4,481.58,232.3,481.58,232.24,481.58 C232.11,481.58,231.89,481.58,231.78,481.81 Z "
         stroke-width="0"
         fill="black"
         id="path3261" /><path
         d="M235.67,483.29 L235.67,483.3 L235.68,483.32 L235.68,483.33 L235.68,483.35 L235.69,483.36 L235.69,483.37 L235.7,483.38 L235.7,483.39 L235.71,483.4 L235.71,483.41 L235.72,483.42 L235.73,483.43 L235.73,483.44 L235.74,483.44 L235.75,483.45 L235.76,483.45 L235.77,483.46 L235.78,483.46 L235.8,483.47 L235.81,483.47 L235.82,483.47 L235.83,483.48 L235.84,483.48 L235.85,483.48 L235.86,483.48 L235.87,483.48 L235.88,483.48 L235.89,483.48 L235.9,483.49 L235.91,483.49 L235.92,483.49 L235.94,483.49 L235.95,483.49 L235.96,483.49 L235.98,483.49 L235.99,483.49 L236.01,483.49 L236.02,483.49 L236.04,483.49 L236.05,483.49 L236.07,483.49 L236.09,483.49 L236.11,483.49 L236.13,483.49 C236.26,483.49,236.33,483.49,236.33,483.63 C236.33,483.67,236.3,483.72,236.24,483.72 C236.13,483.72,236.01,483.7,235.9,483.7 C235.77,483.7,235.64,483.7,235.51,483.7 C235.38,483.7,235.26,483.7,235.13,483.7 C235.02,483.7,234.89,483.72,234.77,483.72 C234.74,483.72,234.64,483.72,234.64,483.58 C234.64,483.49,234.72,483.49,234.82,483.49 C234.84,483.49,234.94,483.49,235.04,483.48 C235.17,483.47,235.18,483.47,235.18,483.42 C235.18,483.4,235.18,483.39,235.16,483.34 L234.51,480.75 C234.47,480.58,234.46,480.55,234.06,480.55 C233.92,480.55,233.85,480.55,233.85,480.41 C233.85,480.35,233.89,480.32,233.94,480.32 C234.05,480.32,234.18,480.34,234.29,480.34 C234.41,480.34,234.54,480.34,234.67,480.34 C234.8,480.34,234.92,480.34,235.05,480.34 C235.16,480.34,235.29,480.32,235.41,480.32 C235.44,480.32,235.53,480.32,235.53,480.46 C235.53,480.55,235.46,480.55,235.36,480.55 C235.28,480.55,235.23,480.55,235.15,480.56 C235.01,480.57,235,480.57,235,480.62 C235,480.64,235.01,480.68,235.02,480.71 Z "
         stroke-width="0"
         fill="black"
         id="path3263" /><path
         d="M241.65,483.76 L241.65,483.76 L241.65,483.76 L241.65,483.76 L241.65,483.76 L241.65,483.76 L241.65,483.76 L241.65,483.76 L241.65,483.76 L241.65,483.77 L241.65,483.77 L241.65,483.77 L241.65,483.77 L241.65,483.78 L241.65,483.78 L241.65,483.78 L241.64,483.79 L241.64,483.79 L241.64,483.79 L241.64,483.8 L241.64,483.8 L241.63,483.8 L241.63,483.81 L241.63,483.81 L241.63,483.81 L241.63,483.81 L241.63,483.81 L241.62,483.81 L241.62,483.81 L241.62,483.81 L241.62,483.82 L241.62,483.82 L241.61,483.82 L241.61,483.82 L241.61,483.82 L241.61,483.82 L241.6,483.82 L241.6,483.82 L241.6,483.82 L241.59,483.82 L241.59,483.82 L241.59,483.82 L241.59,483.83 L241.58,483.83 L241.58,483.83 L241.57,483.83 L241.57,483.83 C241.54,483.83,241.54,483.82,241.48,483.77 L241.13,483.42 C241.12,483.41,241.09,483.38,241.08,483.38 C241.07,483.38,241.06,483.39,241.05,483.39 C240.95,483.5,240.65,483.83,240,483.83 C238.63,483.83,237.37,482.76,237.37,481.67 C237.37,480.86,238.07,480.21,239.13,480.21 C239.64,480.21,240.08,480.38,240.38,480.58 C241.02,480.99,241.09,481.52,241.09,481.53 C241.09,481.6,241.02,481.6,240.99,481.6 C240.93,481.6,240.9,481.59,240.88,481.53 C240.65,480.75,239.82,480.44,239.26,480.44 C238.68,480.44,237.93,480.69,237.93,481.56 C237.93,482.11,238.22,482.69,238.53,482.99 C239.11,483.53,239.76,483.6,240.07,483.6 C240.71,483.6,241.11,483.19,241.11,482.62 C241.11,482.51,241.1,482.48,241.1,482.45 C241.1,482.38,241.17,482.38,241.22,482.38 C241.31,482.38,241.31,482.39,241.34,482.49 Z "
         stroke-width="0"
         fill="black"
         id="path3265" /><line
         x1="224.63"
         y1="479.73"
         x2="244.57"
         y2="479.73"
         stroke-width="0.398"
         id="line3267" /><path
         d="M227.71,472.6 L226.35,475.3 C226.31,475.37,226.29,475.41,226.24,475.41 C226.21,475.41,226.2,475.41,226.12,475.36 L225.38,474.86 C225.28,474.8,225.28,474.77,225.28,474.74 C225.28,474.7,225.32,474.65,225.38,474.65 C225.41,474.65,225.42,474.65,225.51,474.71 C225.59,474.77,225.79,474.9,225.88,474.96 L227.4,471.96 C227.45,471.85,227.46,471.84,227.56,471.84 C227.62,471.84,227.7,471.84,227.77,471.97 L231.27,478.48 C231.33,478.57,231.33,478.58,231.33,478.62 C231.33,478.73,231.24,478.79,231.16,478.79 C231.06,478.79,231.02,478.73,230.98,478.65 Z "
         stroke-width="0"
         fill="black"
         id="path3269" /><line
         x1="231.17"
         y1="478.62"
         x2="244.57"
         y2="478.62"
         stroke-width="0.339"
         id="line3271" /><path
         d="M234.69,473.9 H234.45 C234.43,473.75,234.36,473.34,234.27,473.27 C234.22,473.23,233.68,473.23,233.58,473.23 H232.3 C233.03,473.88,233.28,474.07,233.69,474.4 C234.21,474.81,234.69,475.24,234.69,475.9 C234.69,476.74,233.95,477.25,233.06,477.25 C232.2,477.25,231.61,476.65,231.61,476.01 C231.61,475.65,231.91,475.62,231.98,475.62 C232.15,475.62,232.35,475.74,232.35,475.99 C232.35,476.11,232.3,476.36,231.94,476.36 C232.15,476.85,232.63,477,232.96,477 C233.65,477,234.01,476.46,234.01,475.9 C234.01,475.29,233.58,474.81,233.36,474.56 L231.68,472.91 C231.61,472.85,231.61,472.83,231.61,472.64 H234.48 Z "
         stroke-width="0"
         fill="black"
         id="path3273" /><path
         d="M237.31,475.16 H238.14 C238.03,474.74,237.88,474.11,237.88,473.56 C237.88,473.28,237.92,473.1,237.96,472.94 C238.07,472.6,238.16,472.57,238.27,472.57 C238.43,472.57,238.6,472.71,238.6,472.88 C238.6,472.94,238.58,472.96,238.54,473.03 C238.41,473.29,238.29,473.69,238.29,474.26 C238.29,474.39,238.29,474.67,238.38,475.16 H239.25 C239.38,475.16,239.43,475.16,239.51,475.22 C239.61,475.29,239.63,475.4,239.63,475.43 C239.63,475.63,239.45,475.63,239.33,475.63 H236.7 C236.42,475.63,236.22,475.57,235.91,475.28 C235.73,475.12,235.46,474.74,235.46,474.68 C235.46,474.6,235.55,474.6,235.58,474.6 C235.65,474.6,235.66,474.61,235.7,474.67 C236.06,475.16,236.49,475.16,236.64,475.16 H237.07 C236.85,474.4,236.47,473.58,236.26,473.16 C236.22,473.07,236.15,472.92,236.13,472.89 C236.13,472.87,236.11,472.84,236.11,472.79 C236.11,472.68,236.2,472.57,236.36,472.57 C236.63,472.57,236.71,472.88,236.88,473.51 Z "
         stroke-width="0"
         fill="black"
         id="path3275" /><path
         d="M241.79,473.37 L241.78,473.35 L241.77,473.33 L241.76,473.3 L241.75,473.28 L241.74,473.26 L241.73,473.23 L241.72,473.2 L241.71,473.18 L241.69,473.15 L241.68,473.13 L241.66,473.1 L241.64,473.08 L241.63,473.05 L241.61,473.03 L241.59,473 L241.57,472.98 L241.55,472.96 L241.52,472.93 L241.5,472.91 L241.48,472.89 L241.45,472.87 L241.43,472.86 L241.4,472.84 L241.38,472.82 L241.35,472.81 L241.32,472.8 L241.29,472.79 L241.26,472.78 L241.23,472.77 L241.2,472.77 L241.17,472.76 L241.13,472.76 C241.11,472.76,240.9,472.76,240.76,472.86 C241.04,472.95,241.06,473.2,241.06,473.24 C241.06,473.39,240.95,473.5,240.79,473.5 C240.59,473.5,240.39,473.33,240.39,473.08 C240.39,472.73,240.78,472.57,241.12,472.57 C241.44,472.57,241.73,472.77,241.9,473.06 C242.07,472.69,242.45,472.57,242.73,472.57 C243.53,472.57,243.95,473.44,243.95,473.63 C243.95,473.72,243.86,473.72,243.84,473.72 C243.74,473.72,243.74,473.69,243.71,473.6 C243.56,473.12,243.15,472.76,242.76,472.76 C242.48,472.76,242.33,472.95,242.33,473.21 C242.33,473.39,242.5,474.03,242.69,474.8 C242.83,475.33,243.15,475.51,243.38,475.51 C243.39,475.51,243.6,475.51,243.75,475.41 C243.53,475.35,243.45,475.15,243.45,475.03 C243.45,474.88,243.56,474.77,243.72,474.77 C243.88,474.77,244.11,474.9,244.11,475.2 C244.11,475.58,243.67,475.7,243.39,475.7 C243.04,475.7,242.76,475.47,242.61,475.21 C242.48,475.49,242.16,475.7,241.77,475.7 C240.99,475.7,240.55,474.85,240.55,474.64 C240.55,474.55,240.65,474.55,240.67,474.55 C240.76,474.55,240.76,474.58,240.8,474.67 C240.97,475.21,241.41,475.51,241.75,475.51 C241.98,475.51,242.17,475.38,242.17,475.05 C242.17,474.91,242.09,474.56,242.02,474.33 Z "
         stroke-width="0"
         fill="black"
         id="path3277" /></g>    <g
       style="font-style:normal;font-variant:normal;font-weight:normal;font-stretch:normal;letter-spacing:normal;word-spacing:normal;text-anchor:start;fill:none;stroke:#000000;stroke-linecap:butt;stroke-linejoin:miter;stroke-miterlimit:10.43299961;stroke-opacity:1;stroke-dasharray:none;stroke-dashoffset:0"
       ns0:preamble="/home/ken/.config/inkscape/textextpreamble.txt"
       ns0:text="$\\mathcal{G}_{C}=\\sigma_c \\delta_C=\\frac{K_{IC}^2}{E^*}$"
       text-anchor="start"
       word-spacing="normal"
       letter-spacing="normal"
       font-size-adjust="none"
       font-stretch="normal"
       font-weight="normal"
       font-variant="normal"
       font-style="normal"
       fill-opacity="1"
       fill-rule="evenodd"
       fill="none"
       stroke-opacity="1"
       stroke-dashoffset="0"
       stroke-dasharray="none"
       stroke-miterlimit="10.433"
       stroke-linejoin="miter"
       stroke-linecap="butt"
       stroke="black"
       xml:space="preserve"
       transform="matrix(1.9519419,0,0,-1.9519419,-255.13631,1795.0226)"
       id="g3096"><path
         id="path3098"
         fill="black"
         stroke-width="0"
         d="M227.77,477.48 L227.74,477.4 L227.72,477.31 L227.69,477.24 L227.67,477.16 L227.65,477.09 L227.62,477.02 L227.6,476.95 L227.57,476.88 L227.55,476.82 L227.53,476.76 L227.5,476.7 L227.48,476.64 L227.46,476.59 L227.44,476.54 L227.41,476.49 L227.39,476.44 L227.37,476.39 L227.35,476.35 L227.33,476.31 L227.31,476.27 L227.3,476.24 L227.28,476.2 L227.26,476.17 L227.25,476.14 L227.23,476.11 L227.21,476.08 L227.2,476.06 L227.19,476.03 L227.18,476.01 L227.16,475.99 L227.15,475.98 L227.14,475.96 C226.76,475.28,226.55,475.26,226.21,475.26 C226.04,475.26,225.33,475.29,224.74,475.69 C224.3,475.67,223.95,475.32,223.95,475.21 C223.95,475.12,224.63,474.72,225.55,474.72 C226.27,474.72,227.44,475.1,228.19,476.71 C228.45,477.27,228.62,477.84,228.65,477.96 C228.84,478.64,229.05,479.44,229.05,479.48 C229.05,479.54,229.03,479.57,228.94,479.57 C228.85,479.57,228.68,479.52,228.48,479.38 C228.25,479.23,228.24,479.18,228.17,478.93 C228.07,478.59,227.48,477.12,226.25,477.12 C225.28,477.12,224.71,477.91,224.71,479.03 C224.71,479.79,225.02,480.82,225.6,481.51 C225.87,481.83,226.36,482.36,227.48,482.36 C227.67,482.36,227.96,482.33,228.21,482.25 C228.32,482.22,228.57,482.14,228.57,481.82 C228.57,481.48,228.05,480.85,228.01,480.79 C227.97,480.75,227.94,480.71,227.94,480.67 C227.94,480.6,227.99,480.6,228.05,480.6 C228.34,480.6,228.66,480.87,228.93,481.23 C229.01,481.34,229.41,481.9,229.41,482.24 C229.41,482.64,229.1,482.74,228.98,482.78 C228.62,482.9,228.28,482.9,228.14,482.9 C225.89,482.9,223.87,480.94,223.87,478.6 C223.87,477.6,224.32,476.58,225.6,476.58 C226.35,476.58,227.11,476.95,227.77,477.48 Z " /><path
         id="path3100"
         fill="black"
         stroke-width="0"
         d="M235.23,479.2 L235.23,479.21 L235.23,479.21 L235.23,479.21 L235.23,479.22 L235.23,479.22 L235.23,479.23 L235.23,479.23 L235.23,479.23 L235.22,479.24 L235.22,479.24 L235.22,479.24 L235.22,479.25 L235.22,479.25 L235.22,479.26 L235.21,479.26 L235.21,479.26 L235.21,479.27 L235.21,479.27 L235.2,479.27 L235.2,479.27 L235.2,479.28 L235.19,479.28 L235.19,479.28 L235.18,479.28 L235.18,479.29 L235.17,479.29 L235.17,479.29 L235.16,479.29 L235.16,479.29 L235.16,479.29 L235.16,479.29 L235.15,479.29 L235.15,479.29 L235.15,479.29 L235.14,479.29 L235.14,479.29 C235.09,479.29,235.08,479.28,235.01,479.21 L234.51,478.68 C234.44,478.76,234.05,479.29,233.2,479.29 C231.5,479.29,229.85,477.8,229.85,476.23 C229.85,475.09,230.74,474.27,231.99,474.27 C232.36,474.27,233.03,474.34,233.75,474.95 C234.3,475.41,234.45,476.02,234.45,476.08 C234.45,476.17,234.37,476.17,234.33,476.17 C234.24,476.17,234.23,476.13,234.21,476.05 C233.92,475.1,232.95,474.52,232.1,474.52 C231.37,474.52,230.54,474.91,230.54,476.01 C230.54,476.21,230.59,477.31,231.39,478.19 C231.87,478.72,232.6,479.04,233.27,479.04 C234.07,479.04,234.55,478.46,234.55,477.68 C234.55,477.49,234.53,477.44,234.53,477.4 C234.53,477.31,234.62,477.31,234.65,477.31 C234.76,477.31,234.76,477.33,234.8,477.46 Z " /><path
         id="path3102"
         fill="black"
         stroke-width="0"
         d="M245.66,479.15 L245.69,479.15 L245.72,479.15 L245.75,479.15 L245.76,479.15 L245.78,479.15 L245.79,479.15 L245.81,479.15 L245.82,479.16 L245.83,479.16 L245.85,479.16 L245.86,479.16 L245.87,479.17 L245.89,479.17 L245.9,479.18 L245.91,479.18 L245.92,479.19 L245.93,479.2 L245.94,479.2 L245.95,479.21 L245.96,479.22 L245.97,479.23 L245.97,479.24 L245.98,479.24 L245.98,479.25 L245.98,479.25 L245.98,479.26 L245.99,479.27 L245.99,479.27 L245.99,479.28 L245.99,479.29 L246,479.3 L246,479.3 L246,479.31 L246,479.32 L246,479.33 L246,479.34 L246,479.35 C246,479.55,245.81,479.55,245.67,479.55 H239.71 C239.57,479.55,239.38,479.55,239.38,479.35 C239.38,479.15,239.57,479.15,239.72,479.15 Z " /><path
         id="path3104"
         fill="black"
         stroke-width="0"
         d="M245.67,477.22 L245.69,477.22 L245.7,477.22 L245.73,477.22 L245.75,477.22 L245.77,477.22 L245.78,477.22 L245.8,477.23 L245.81,477.23 L245.82,477.23 L245.84,477.23 L245.85,477.23 L245.86,477.24 L245.88,477.24 L245.89,477.25 L245.9,477.25 L245.91,477.26 L245.92,477.26 L245.93,477.27 L245.94,477.28 L245.95,477.29 L245.96,477.29 L245.96,477.3 L245.97,477.3 L245.97,477.31 L245.98,477.32 L245.98,477.32 L245.98,477.33 L245.98,477.33 L245.99,477.34 L245.99,477.35 L245.99,477.35 L245.99,477.36 L246,477.37 L246,477.38 L246,477.38 L246,477.39 L246,477.4 L246,477.41 L246,477.42 C246,477.62,245.81,477.62,245.66,477.62 H239.72 C239.57,477.62,239.38,477.62,239.38,477.42 C239.38,477.22,239.57,477.22,239.71,477.22 Z " /><path
         id="path3106"
         fill="black"
         stroke-width="0"
         d="M254.5,479.61 L254.51,479.61 L254.52,479.61 L254.54,479.61 L254.55,479.61 L254.57,479.61 L254.59,479.61 L254.61,479.61 L254.63,479.61 L254.65,479.61 L254.67,479.62 L254.69,479.62 L254.71,479.62 L254.73,479.63 L254.75,479.63 L254.77,479.64 L254.79,479.65 L254.81,479.66 L254.83,479.67 L254.85,479.68 L254.86,479.69 L254.88,479.7 L254.9,479.71 L254.9,479.72 L254.91,479.73 L254.92,479.74 L254.93,479.75 L254.93,479.76 L254.94,479.77 L254.94,479.78 L254.95,479.79 L254.96,479.8 L254.96,479.81 L254.96,479.82 L254.97,479.83 L254.97,479.84 L254.98,479.86 L254.98,479.87 L254.98,479.88 L254.98,479.9 L254.98,479.91 L254.98,479.93 L254.98,479.94 C254.98,480.18,254.77,480.18,254.6,480.18 H252.33 C250.82,480.18,249.72,478.54,249.72,477.36 C249.72,476.49,250.31,475.79,251.21,475.79 L251.22,476.01 C250.74,476.01,250.34,476.37,250.34,477.08 C250.34,477.38,250.46,478.2,250.81,478.78 C251.22,479.47,251.82,479.61,252.16,479.61 C252.99,479.61,253.07,478.95,253.07,478.64 C253.07,478.17,252.88,477.36,252.54,476.85 C252.15,476.27,251.61,476.01,251.22,476.01 H251.22 L251.21,475.79 C252.39,475.79,253.71,476.99,253.71,478.52 C253.71,478.69,253.71,479.17,253.4,479.61 Z " /><path
         id="path3108"
         fill="black"
         stroke-width="0"
         d="M258.09,477.07 L258.06,477.06 L258.04,477.06 L258.02,477.05 L258,477.05 L257.98,477.04 L257.96,477.03 L257.94,477.02 L257.93,477.01 L257.91,477 L257.89,476.99 L257.88,476.98 L257.86,476.97 L257.85,476.96 L257.84,476.94 L257.83,476.93 L257.81,476.92 L257.8,476.9 L257.79,476.89 L257.79,476.87 L257.78,476.86 L257.77,476.84 L257.76,476.83 L257.76,476.81 L257.75,476.8 L257.75,476.78 L257.74,476.77 L257.74,476.75 L257.74,476.74 L257.73,476.72 L257.73,476.71 L257.73,476.69 L257.73,476.68 C257.73,476.49,257.88,476.42,258,476.42 C258.16,476.42,258.4,476.53,258.4,476.87 C258.4,477.34,257.86,477.47,257.48,477.47 C256.44,477.47,255.47,476.51,255.47,475.55 C255.47,474.95,255.89,474.34,256.76,474.34 C257.93,474.34,258.48,475.02,258.48,475.12 C258.48,475.16,258.42,475.24,258.36,475.24 C258.32,475.24,258.31,475.23,258.25,475.17 C257.71,474.53,256.9,474.53,256.77,474.53 C256.27,474.53,256.05,474.87,256.05,475.3 C256.05,475.51,256.14,476.26,256.51,476.74 C256.77,477.08,257.13,477.28,257.48,477.28 C257.58,477.28,257.91,477.26,258.09,477.07 Z " /><path
         id="path3110"
         fill="black"
         stroke-width="0"
         d="M261.72,480.24 L261.61,480.21 L261.49,480.17 L261.38,480.13 L261.27,480.08 L261.16,480.03 L261.06,479.98 L260.95,479.91 L260.85,479.85 L260.75,479.78 L260.66,479.7 L260.56,479.63 L260.48,479.54 L260.39,479.46 L260.31,479.37 L260.23,479.28 L260.15,479.18 L260.08,479.09 L260.01,478.99 L259.94,478.89 L259.88,478.78 L259.83,478.68 L259.77,478.57 L259.73,478.46 L259.68,478.35 L259.64,478.24 L259.61,478.13 L259.58,478.02 L259.56,477.9 L259.54,477.79 L259.52,477.68 L259.51,477.56 L259.51,477.45 C259.51,476.5,260.15,475.78,261.08,475.78 V476 C260.54,476,260.13,476.42,260.13,477.17 C260.13,477.8,260.5,479.67,261.84,480.02 H261.84 C262.09,479.57,262.39,479.03,262.39,478.31 C262.39,477.66,262.01,476,261.08,476 V475.78 C262.25,475.78,263.07,477.34,263.07,478.71 C263.07,479.61,262.68,480.11,262.34,480.56 C261.98,481.01,261.39,481.75,261.39,482.19 C261.39,482.41,261.59,482.64,261.94,482.64 C262.24,482.64,262.44,482.52,262.65,482.38 C262.85,482.26,263.04,482.13,263.19,482.13 C263.44,482.13,263.59,482.37,263.59,482.53 C263.59,482.74,263.43,482.77,263.07,482.85 C262.56,482.96,262.42,482.96,262.26,482.96 C261.48,482.96,261.12,482.54,261.12,481.94 C261.12,481.4,261.41,480.85,261.72,480.24 Z " /><path
         id="path3112"
         fill="black"
         stroke-width="0"
         d="M269.39,479.2 L269.39,479.21 L269.39,479.21 L269.39,479.21 L269.39,479.22 L269.39,479.22 L269.39,479.23 L269.39,479.23 L269.39,479.23 L269.39,479.24 L269.39,479.24 L269.38,479.24 L269.38,479.25 L269.38,479.25 L269.38,479.26 L269.38,479.26 L269.37,479.26 L269.37,479.27 L269.37,479.27 L269.37,479.27 L269.36,479.27 L269.36,479.28 L269.35,479.28 L269.35,479.28 L269.35,479.28 L269.34,479.29 L269.34,479.29 L269.33,479.29 L269.33,479.29 L269.32,479.29 L269.32,479.29 L269.32,479.29 L269.32,479.29 L269.31,479.29 L269.31,479.29 L269.31,479.29 L269.3,479.29 C269.25,479.29,269.24,479.28,269.18,479.21 L268.67,478.68 C268.61,478.76,268.22,479.29,267.36,479.29 C265.67,479.29,264.01,477.8,264.01,476.23 C264.01,475.09,264.9,474.27,266.15,474.27 C266.52,474.27,267.19,474.34,267.91,474.95 C268.46,475.41,268.61,476.02,268.61,476.08 C268.61,476.17,268.53,476.17,268.49,476.17 C268.4,476.17,268.39,476.13,268.37,476.05 C268.08,475.1,267.11,474.52,266.27,474.52 C265.53,474.52,264.71,474.91,264.71,476.01 C264.71,476.21,264.76,477.31,265.56,478.19 C266.04,478.72,266.77,479.04,267.43,479.04 C268.24,479.04,268.71,478.46,268.71,477.68 C268.71,477.49,268.69,477.44,268.69,477.4 C268.69,477.31,268.78,477.31,268.82,477.31 C268.93,477.31,268.93,477.33,268.96,477.46 Z " /><path
         id="path3114"
         fill="black"
         stroke-width="0"
         d="M279.83,479.15 L279.85,479.15 L279.88,479.15 L279.91,479.15 L279.93,479.15 L279.94,479.15 L279.96,479.15 L279.97,479.15 L279.98,479.16 L280,479.16 L280.01,479.16 L280.02,479.16 L280.04,479.17 L280.05,479.17 L280.06,479.18 L280.07,479.18 L280.08,479.19 L280.1,479.2 L280.11,479.2 L280.11,479.21 L280.12,479.22 L280.13,479.23 L280.13,479.24 L280.14,479.24 L280.14,479.25 L280.14,479.25 L280.15,479.26 L280.15,479.27 L280.15,479.27 L280.15,479.28 L280.16,479.29 L280.16,479.3 L280.16,479.3 L280.16,479.31 L280.16,479.32 L280.16,479.33 L280.16,479.34 L280.16,479.35 C280.16,479.55,279.97,479.55,279.83,479.55 H273.88 C273.74,479.55,273.55,479.55,273.55,479.35 C273.55,479.15,273.74,479.15,273.89,479.15 Z " /><path
         id="path3116"
         fill="black"
         stroke-width="0"
         d="M279.83,477.22 L279.85,477.22 L279.86,477.22 L279.89,477.22 L279.92,477.22 L279.93,477.22 L279.94,477.22 L279.96,477.23 L279.97,477.23 L279.99,477.23 L280,477.23 L280.01,477.23 L280.03,477.24 L280.04,477.24 L280.05,477.25 L280.06,477.25 L280.07,477.26 L280.09,477.26 L280.1,477.27 L280.11,477.28 L280.11,477.29 L280.12,477.29 L280.13,477.3 L280.13,477.3 L280.13,477.31 L280.14,477.32 L280.14,477.32 L280.14,477.33 L280.15,477.33 L280.15,477.34 L280.15,477.35 L280.15,477.35 L280.16,477.36 L280.16,477.37 L280.16,477.38 L280.16,477.38 L280.16,477.39 L280.16,477.4 L280.16,477.41 L280.16,477.42 C280.16,477.62,279.97,477.62,279.83,477.62 H273.89 C273.74,477.62,273.55,477.62,273.55,477.42 C273.55,477.22,273.74,477.22,273.88,477.22 Z " /><path
         id="path3118"
         fill="black"
         stroke-width="0"
         d="M288.69,483.78 L288.68,483.78 L288.68,483.79 L288.68,483.79 L288.68,483.8 L288.67,483.8 L288.67,483.8 L288.67,483.81 L288.67,483.81 L288.67,483.82 L288.66,483.82 L288.66,483.82 L288.66,483.83 L288.66,483.83 L288.66,483.83 L288.66,483.83 L288.65,483.84 L288.65,483.84 L288.65,483.84 L288.65,483.84 L288.65,483.85 L288.65,483.85 L288.65,483.85 L288.65,483.85 L288.65,483.85 L288.65,483.85 L288.65,483.85 L288.65,483.86 L288.64,483.86 L288.64,483.86 L288.64,483.86 L288.64,483.86 L288.64,483.86 C288.64,483.87,288.65,483.88,288.81,483.99 L289.51,484.49 C290.43,485.13,290.87,485.44,291.36,485.48 C291.44,485.49,291.52,485.49,291.52,485.63 C291.52,485.69,291.47,485.72,291.43,485.72 C291.28,485.72,291.1,485.7,290.95,485.7 C290.76,485.7,290.29,485.73,290.11,485.73 C290.07,485.73,289.96,485.73,289.96,485.58 C289.96,485.57,289.96,485.49,290.07,485.48 C290.15,485.47,290.24,485.46,290.24,485.38 C290.24,485.26,290.02,485.11,289.93,485.04 L287.03,483 L287.58,485.19 C287.64,485.42,287.65,485.48,288.19,485.48 C288.3,485.48,288.4,485.48,288.4,485.63 C288.4,485.69,288.36,485.73,288.29,485.73 C288.09,485.73,287.58,485.7,287.38,485.7 C287.26,485.7,287.01,485.7,286.9,485.71 C286.76,485.72,286.59,485.73,286.46,485.73 C286.42,485.73,286.31,485.73,286.31,485.58 C286.31,485.48,286.39,485.48,286.54,485.48 C286.65,485.48,286.68,485.48,286.8,485.47 C286.95,485.45,286.96,485.44,286.96,485.37 C286.96,485.36,286.96,485.32,286.93,485.22 L286,481.52 C285.95,481.29,285.93,481.23,285.39,481.23 C285.27,481.23,285.18,481.23,285.18,481.08 C285.18,481.07,285.18,480.98,285.29,480.98 C285.5,480.98,286,481.01,286.2,481.01 C286.32,481.01,286.56,481.01,286.68,481 C286.82,480.99,286.99,480.98,287.13,480.98 C287.17,480.98,287.27,480.98,287.27,481.13 C287.27,481.23,287.19,481.23,287.05,481.23 C287.04,481.23,286.91,481.23,286.78,481.24 C286.62,481.26,286.62,481.28,286.62,481.35 C286.62,481.4,286.69,481.66,286.95,482.68 L288.11,483.5 L289.12,481.54 C289.17,481.45,289.17,481.45,289.17,481.41 C289.17,481.25,288.97,481.23,288.85,481.23 C288.76,481.23,288.67,481.23,288.67,481.08 C288.67,481.07,288.67,480.98,288.78,480.98 C288.98,480.98,289.48,481.01,289.67,481.01 C289.88,481.01,290.16,480.98,290.36,480.98 C290.45,480.98,290.5,481.03,290.5,481.13 C290.5,481.23,290.41,481.23,290.34,481.23 C290.21,481.23,289.99,481.24,289.88,481.46 Z " /><path
         id="path3120"
         fill="black"
         stroke-width="0"
         d="M294.82,484.95 H294.61 C294.59,484.85,294.54,484.54,294.46,484.49 C294.42,484.46,294,484.46,293.93,484.46 H292.95 C293.28,484.71,293.65,484.99,293.95,485.18 C294.4,485.49,294.82,485.78,294.82,486.31 C294.82,486.94,294.21,487.3,293.5,487.3 C292.83,487.3,292.34,486.91,292.34,486.42 C292.34,486.16,292.56,486.12,292.63,486.12 C292.76,486.12,292.92,486.21,292.92,486.41 C292.92,486.59,292.79,486.69,292.64,486.7 C292.78,486.93,293.06,487.08,293.4,487.08 C293.88,487.08,294.28,486.79,294.28,486.3 C294.28,485.89,293.99,485.57,293.61,485.24 L292.4,484.22 C292.35,484.17,292.34,484.17,292.34,484.14 V483.99 H294.65 Z " /><path
         id="path3122"
         fill="black"
         stroke-width="0"
         d="M293.77,481.95 L293.77,481.97 L293.78,481.98 L293.78,482 L293.78,482.01 L293.79,482.02 L293.79,482.04 L293.8,482.05 L293.8,482.06 L293.81,482.07 L293.81,482.08 L293.82,482.08 L293.83,482.09 L293.83,482.1 L293.84,482.11 L293.85,482.11 L293.86,482.12 L293.87,482.12 L293.89,482.13 L293.9,482.13 L293.91,482.14 L293.92,482.14 L293.93,482.14 L293.94,482.14 L293.95,482.14 L293.96,482.15 L293.97,482.15 L293.98,482.15 L293.99,482.15 L294,482.15 L294.01,482.15 L294.02,482.15 L294.04,482.15 L294.05,482.15 L294.06,482.16 L294.08,482.16 L294.09,482.16 L294.11,482.16 L294.12,482.16 L294.14,482.16 L294.16,482.16 L294.17,482.16 L294.19,482.16 L294.21,482.16 L294.23,482.16 C294.36,482.16,294.43,482.16,294.43,482.3 C294.43,482.34,294.4,482.38,294.34,482.38 C294.23,482.38,294.11,482.37,294,482.37 C293.87,482.37,293.74,482.36,293.61,482.36 C293.48,482.36,293.36,482.37,293.23,482.37 C293.12,482.37,292.99,482.38,292.87,482.38 C292.84,482.38,292.74,482.38,292.74,482.24 C292.74,482.16,292.82,482.16,292.92,482.16 C292.94,482.16,293.04,482.16,293.14,482.15 C293.27,482.14,293.28,482.13,293.28,482.09 C293.28,482.06,293.28,482.05,293.27,482.01 L292.61,479.42 C292.57,479.25,292.57,479.21,292.16,479.21 C292.02,479.21,291.95,479.21,291.95,479.07 C291.95,479.02,291.99,478.99,292.04,478.99 C292.15,478.99,292.28,479,292.39,479 C292.52,479,292.64,479.01,292.77,479.01 C292.9,479.01,293.02,479,293.15,479 C293.27,479,293.4,478.99,293.51,478.99 C293.54,478.99,293.64,478.99,293.64,479.13 C293.64,479.21,293.56,479.21,293.46,479.21 C293.38,479.21,293.33,479.21,293.25,479.22 C293.11,479.23,293.1,479.24,293.1,479.28 C293.1,479.31,293.11,479.35,293.12,479.38 Z " /><path
         id="path3124"
         fill="black"
         stroke-width="0"
         d="M299.75,482.42 L299.75,482.42 L299.75,482.42 L299.75,482.42 L299.75,482.42 L299.75,482.42 L299.75,482.43 L299.75,482.43 L299.75,482.43 L299.75,482.43 L299.75,482.43 L299.75,482.44 L299.75,482.44 L299.75,482.44 L299.75,482.45 L299.75,482.45 L299.75,482.45 L299.74,482.45 L299.74,482.46 L299.74,482.46 L299.74,482.46 L299.74,482.47 L299.73,482.47 L299.73,482.47 L299.73,482.47 L299.73,482.47 L299.73,482.48 L299.72,482.48 L299.72,482.48 L299.72,482.48 L299.72,482.48 L299.72,482.48 L299.71,482.48 L299.71,482.48 L299.71,482.48 L299.71,482.49 L299.7,482.49 L299.7,482.49 L299.7,482.49 L299.7,482.49 L299.69,482.49 L299.69,482.49 L299.69,482.49 L299.68,482.49 L299.68,482.49 L299.68,482.49 L299.67,482.49 C299.64,482.49,299.64,482.49,299.58,482.43 L299.23,482.09 C299.22,482.08,299.19,482.04,299.18,482.04 C299.17,482.04,299.16,482.06,299.15,482.06 C299.05,482.17,298.75,482.49,298.1,482.49 C296.73,482.49,295.47,481.42,295.47,480.33 C295.47,479.52,296.17,478.88,297.23,478.88 C297.74,478.88,298.18,479.05,298.48,479.24 C299.12,479.65,299.19,480.19,299.19,480.19 C299.19,480.26,299.12,480.26,299.09,480.26 C299.04,480.26,299.01,480.26,298.98,480.2 C298.75,479.41,297.92,479.1,297.36,479.1 C296.78,479.1,296.03,479.35,296.03,480.22 C296.03,480.78,296.32,481.35,296.63,481.65 C297.21,482.2,297.87,482.27,298.17,482.27 C298.81,482.27,299.21,481.86,299.21,481.28 C299.21,481.17,299.2,481.15,299.2,481.12 C299.2,481.05,299.27,481.05,299.32,481.05 C299.41,481.05,299.41,481.06,299.44,481.15 Z " /><line
         id="line3126"
         stroke-width="0.398"
         y2="478.39"
         x2="300.7"
         y1="478.39"
         x1="284.7" /><path
         id="path3128"
         fill="black"
         stroke-width="0"
         d="M293.02,474.07 L293.02,474.08 L293.02,474.08 L293.02,474.08 L293.03,474.09 L293.03,474.09 L293.03,474.09 L293.03,474.1 L293.03,474.1 L293.03,474.11 L293.03,474.11 L293.04,474.12 L293.04,474.12 L293.04,474.13 L293.04,474.13 L293.05,474.14 L293.05,474.14 L293.05,474.15 L293.05,474.15 L293.05,474.16 L293.05,474.16 L293.05,474.17 L293.06,474.17 L293.06,474.17 L293.06,474.18 L293.06,474.18 L293.06,474.18 L293.06,474.18 L293.06,474.18 L293.06,474.19 L293.06,474.19 L293.06,474.19 L293.06,474.19 L293.06,474.19 L293.06,474.19 L293.06,474.19 L293.06,474.2 L293.06,474.2 C293.06,474.24,293.03,474.29,292.94,474.29 C292.93,474.29,292.89,474.29,292.86,474.27 C292.85,474.25,292.84,474.24,292.76,474.06 C292.31,473.06,291.95,472.71,290.82,472.71 H289.63 C289.42,472.71,289.41,472.72,289.41,472.79 C289.41,472.79,289.41,472.83,289.44,472.93 L289.9,474.79 H290.68 C291.23,474.79,291.32,474.7,291.32,474.48 C291.32,474.4,291.3,474.28,291.27,474.16 C291.25,474.1,291.25,474.09,291.25,474.08 C291.25,474.06,291.26,473.98,291.37,473.98 C291.46,473.98,291.47,474.02,291.5,474.13 L291.88,475.66 C291.9,475.74,291.9,475.75,291.9,475.76 C291.9,475.83,291.85,475.86,291.79,475.86 C291.7,475.86,291.69,475.82,291.65,475.68 C291.5,475.14,291.29,475.05,290.7,475.05 H289.97 L290.39,476.7 C290.44,476.92,290.45,476.94,290.74,476.94 H291.88 C292.79,476.94,293.02,476.75,293.02,476.13 C293.02,475.95,292.99,475.74,292.99,475.7 C292.99,475.65,293.01,475.59,293.11,475.59 C293.21,475.59,293.22,475.65,293.23,475.77 L293.36,476.98 C293.38,477.19,293.33,477.19,293.16,477.19 H289.33 C289.19,477.19,289.1,477.19,289.1,477.03 C289.1,476.94,289.18,476.94,289.33,476.94 C289.45,476.94,289.47,476.94,289.6,476.92 C289.74,476.91,289.75,476.89,289.75,476.83 C289.75,476.78,289.73,476.71,289.72,476.67 L288.81,473.04 C288.74,472.76,288.73,472.71,288.19,472.71 C288.07,472.71,287.98,472.71,287.98,472.56 C287.98,472.46,288.07,472.46,288.19,472.46 H292.13 C292.3,472.46,292.31,472.46,292.36,472.59 Z " /><path
         id="path3130"
         fill="black"
         stroke-width="0"
         d="M295.65,475.83 L295.65,475.83 L295.65,475.84 L295.65,475.85 L295.65,475.85 L295.65,475.86 L295.65,475.87 L295.65,475.88 L295.66,475.89 L295.66,475.91 L295.66,475.93 L295.66,475.96 L295.67,475.99 L295.67,476.01 L295.67,476.04 L295.68,476.07 L295.68,476.11 L295.69,476.14 L295.69,476.17 L295.7,476.24 L295.71,476.3 L295.71,476.34 L295.71,476.37 L295.72,476.4 L295.72,476.43 L295.72,476.45 L295.73,476.48 L295.73,476.51 L295.73,476.53 L295.73,476.54 L295.73,476.55 L295.73,476.56 L295.74,476.57 L295.74,476.57 L295.74,476.58 L295.74,476.59 L295.74,476.59 L295.74,476.6 L295.74,476.6 L295.74,476.61 L295.74,476.61 C295.74,476.7,295.66,476.77,295.57,476.77 C295.46,476.77,295.39,476.69,295.39,476.61 C295.39,476.56,295.46,475.93,295.48,475.83 L294.71,476.29 C294.66,476.32,294.64,476.33,294.6,476.33 C294.52,476.33,294.43,476.26,294.43,476.15 C294.43,476.07,294.48,476.02,294.53,476 C294.8,475.89,295.09,475.79,295.37,475.7 C295.09,475.59,294.63,475.43,294.55,475.4 C294.51,475.38,294.43,475.35,294.43,475.24 C294.43,475.13,294.52,475.06,294.6,475.06 C294.65,475.06,294.8,475.15,295.48,475.57 C295.46,475.46,295.39,474.83,295.39,474.78 C295.39,474.7,295.46,474.63,295.57,474.63 C295.66,474.63,295.74,474.7,295.74,474.79 C295.74,474.83,295.66,475.46,295.65,475.57 L296.43,475.09 C296.47,475.07,296.49,475.06,296.54,475.06 C296.61,475.06,296.7,475.13,296.7,475.24 C296.7,475.32,296.65,475.37,296.6,475.39 C296.33,475.5,296.04,475.6,295.76,475.69 C296.04,475.8,296.5,475.96,296.58,476 C296.62,476.01,296.7,476.04,296.7,476.15 C296.7,476.26,296.61,476.33,296.54,476.33 C296.49,476.33,296.47,476.32,296.42,476.29 Z " /></g>  </g>
</svg>
