<?xml version="1.0" encoding="UTF-8" standalone="no"?>
<!-- Created with Inkscape (http://www.inkscape.org/) -->
<svg xmlns:dc="http://purl.org/dc/elements/1.1/" xmlns:cc="http://creativecommons.org/ns#" xmlns:rdf="http://www.w3.org/1999/02/22-rdf-syntax-ns#" xmlns:svg="http://www.w3.org/2000/svg" xmlns="http://www.w3.org/2000/svg" version="1.1" width="145" height="135" id="svg2985">
  <metadata id="metadata2991">
    <rdf:RDF>
      <cc:Work rdf:about="">
        <dc:format>image/svg+xml</dc:format>
        <dc:type rdf:resource="http://purl.org/dc/dcmitype/StillImage"/>
        <dc:title/>
      </cc:Work>
    </rdf:RDF>
  </metadata>
  <defs id="defs2989"/>
  <path d="m 97.051696,12.43134 0,82.003232 24.426494,13.085618" id="path3893" style="fill:none;stroke:#999999;stroke-width:1.5;stroke-linecap:butt;stroke-linejoin:miter;stroke-miterlimit:4;stroke-opacity:1;stroke-dasharray:none"/>
  <path d="m 38.820679,107.52019 58.231017,-13.085618 -82.657512,0 107.084006,13.085618" id="path3899" style="fill:none;stroke:#999999;stroke-width:1.5;stroke-linecap:butt;stroke-linejoin:miter;stroke-miterlimit:4;stroke-opacity:1;stroke-dasharray:none"/>
  <path d="M 121.47819,25.29887 97.051696,94.434572" id="path3895" style="fill:none;stroke:#999999;stroke-width:1.5;stroke-linecap:butt;stroke-linejoin:miter;stroke-miterlimit:4;stroke-opacity:1;stroke-dasharray:none"/>
  <path d="m 97.051696,12.43134 24.426494,95.08885" id="path3897" style="fill:none;stroke:#999999;stroke-width:1.5;stroke-linecap:butt;stroke-linejoin:miter;stroke-miterlimit:4;stroke-opacity:1;stroke-dasharray:none"/>
  <path d="M 14.394184,94.434572 97.051696,12.43134" id="path3903" style="fill:none;stroke:#999999;stroke-width:1.5;stroke-linecap:butt;stroke-linejoin:miter;stroke-miterlimit:4;stroke-opacity:1;stroke-dasharray:none"/>
  <path d="M 14.394184,12.43134 97.051696,94.434572" id="path3901" style="fill:none;stroke:#999999;stroke-width:1.5;stroke-linecap:butt;stroke-linejoin:miter;stroke-miterlimit:4;stroke-opacity:1;stroke-dasharray:none"/>
  <path d="m 96.070275,12.758481 -81.785138,0" id="path3801" style="fill:none;stroke:#000000;stroke-width:1.5;stroke-linecap:butt;stroke-linejoin:miter;stroke-miterlimit:4;stroke-opacity:1;stroke-dasharray:none"/>
  <path d="m 38.820679,25.29887 82.657511,0 0,82.22132 -82.657511,0 z" id="path3870" style="fill:none;stroke:#000000;stroke-width:1.5;stroke-linecap:butt;stroke-linejoin:miter;stroke-miterlimit:4;stroke-opacity:1;stroke-dasharray:none"/>
  <path d="m 38.820679,25.29887 -24.426495,-12.86753 0,82.003232 24.426495,13.085618 z" id="path3872" style="fill:none;stroke:#000000;stroke-width:1.5;stroke-linecap:butt;stroke-linejoin:miter;stroke-miterlimit:4;stroke-opacity:1;stroke-dasharray:none"/>
  <path d="m 14.394184,12.43134 82.657512,0 24.426494,12.86753 -82.657511,0 z" id="path3874" style="fill:none;stroke:#000000;stroke-width:1.5;stroke-linecap:butt;stroke-linejoin:miter;stroke-miterlimit:4;stroke-opacity:1;stroke-dasharray:none"/>
  <path d="m 38.820679,25.29887 82.657511,82.22132" id="path3880" style="fill:none;stroke:#000000;stroke-width:1.5;stroke-linecap:butt;stroke-linejoin:miter;stroke-miterlimit:4;stroke-opacity:1;stroke-dasharray:none"/>
  <path d="M 38.820679,107.52019 121.47819,25.29887" id="path3882" style="fill:none;stroke:#000000;stroke-width:1.5;stroke-linecap:butt;stroke-linejoin:miter;stroke-miterlimit:4;stroke-opacity:1;stroke-dasharray:none"/>
  <path d="m 14.394184,12.43134 24.426495,95.08885" id="path3884" style="fill:none;stroke:#000000;stroke-width:1.5;stroke-linecap:butt;stroke-linejoin:miter;stroke-miterlimit:4;stroke-opacity:1;stroke-dasharray:none"/>
  <path d="M 14.394184,94.434572 38.820679,25.29887" id="path3886" style="fill:none;stroke:#000000;stroke-width:1.5;stroke-linecap:butt;stroke-linejoin:miter;stroke-miterlimit:4;stroke-opacity:1;stroke-dasharray:none"/>
  <path d="M 14.394184,12.43134 121.47819,25.29887" id="path3888" style="fill:none;stroke:#000000;stroke-width:1.5;stroke-linecap:butt;stroke-linejoin:miter;stroke-miterlimit:4;stroke-opacity:1;stroke-dasharray:none"/>
  <path d="M 38.820679,25.29887 97.051696,12.43134" id="path3890" style="fill:none;stroke:#000000;stroke-width:1.5;stroke-linecap:butt;stroke-linejoin:miter;stroke-miterlimit:4;stroke-opacity:1;stroke-dasharray:none"/>
  <path d="m 85.109545,66.682517 c 0,2.545501 -2.063537,4.609039 -4.609038,4.609039 -2.545502,0 -4.609041,-2.063538 -4.609041,-4.609039 0,-2.545502 2.063539,-4.60904 4.609041,-4.60904 2.545501,0 4.609038,2.063538 4.609038,4.60904 z" id="path3905" style="fill:#000000;stroke:none"/>
  <path d="m 73.851815,101.07258 c 0,2.5455 -2.063538,4.60904 -4.609039,4.60904 -2.545502,0 -4.609041,-2.06354 -4.609041,-4.60904 0,-2.545501 2.063539,-4.609039 4.609041,-4.609039 2.545501,0 4.609039,2.063538 4.609039,4.609039 z" id="path3905-0" style="fill:#999999;stroke:none"/>
  <path d="m 101.66073,94.396018 c 0,2.545501 -2.063533,4.609041 -4.609034,4.609041 -2.545502,0 -4.609041,-2.06354 -4.609041,-4.609041 0,-2.545502 2.063539,-4.60904 4.609041,-4.60904 2.545501,0 4.609034,2.063538 4.609034,4.60904 z" id="path3905-9" style="fill:#999999;stroke:none"/>
  <path d="m 126.08722,107.62924 c 0,2.54549 -2.06352,4.60903 -4.60903,4.60903 -2.5455,0 -4.60904,-2.06354 -4.60904,-4.60903 0,-2.5455 2.06354,-4.60904 4.60904,-4.60904 2.54551,0 4.60903,2.06354 4.60903,4.60904 z" id="path3905-4" style="fill:#000000;stroke:none"/>
  <path d="m 126.08723,25.29887 c 0,2.545501 -2.06354,4.609039 -4.60904,4.609039 -2.54549,0 -4.60903,-2.063538 -4.60903,-4.609039 0,-2.545502 2.06354,-4.60904 4.60903,-4.60904 2.5455,0 4.60904,2.063538 4.60904,4.60904 z" id="path3905-8" style="fill:#000000;stroke:none"/>
  <path d="m 101.66073,12.540387 c 0,2.545501 -2.063533,4.609039 -4.609034,4.609039 -2.545502,0 -4.609041,-2.063538 -4.609041,-4.609039 0,-2.5455023 2.063539,-4.6090391 4.609041,-4.6090391 2.545501,0 4.609034,2.0635368 4.609034,4.6090391 z" id="path3905-82" style="fill:#000000;stroke:none"/>
  <path d="m 72.763321,19.083199 c 0,2.545501 -2.063538,4.60904 -4.609039,4.60904 -2.545502,0 -4.609041,-2.063539 -4.609041,-4.60904 0,-2.545502 2.063539,-4.609039 4.609041,-4.609039 2.545501,0 4.609039,2.063537 4.609039,4.609039 z" id="path3905-45" style="fill:#000000;stroke:none"/>
  <path d="m 43.538764,25.29887 c 0,2.545501 -2.063537,4.609039 -4.609038,4.609039 -2.545502,0 -4.609041,-2.063538 -4.609041,-4.609039 0,-2.545502 2.063539,-4.60904 4.609041,-4.60904 2.545501,0 4.609038,2.063538 4.609038,4.60904 z" id="path3905-5" style="fill:#000000;stroke:none"/>
  <path d="m 19.112271,12.43134 c 0,2.545501 -2.063538,4.60904 -4.609039,4.60904 -2.545502,0 -4.6090396,-2.063539 -4.6090396,-4.60904 0,-2.5455023 2.0635376,-4.6090395 4.6090396,-4.6090395 2.545501,0 4.609039,2.0635372 4.609039,4.6090395 z" id="path3905-1" style="fill:#000000;stroke:none"/>
  <path d="m 60.441026,53.65105 c 0,2.545501 -2.063537,4.60904 -4.609038,4.60904 -2.545502,0 -4.609041,-2.063539 -4.609041,-4.60904 0,-2.545502 2.063539,-4.60904 4.609041,-4.60904 2.545501,0 4.609038,2.063538 4.609038,4.60904 z" id="path3905-7" style="fill:#999999;stroke:none"/>
  <path d="m 31.216471,59.975767 c 0,2.545501 -2.063537,4.609039 -4.609038,4.609039 -2.545502,0 -4.609041,-2.063538 -4.609041,-4.609039 0,-2.545502 2.063539,-4.60904 4.609041,-4.60904 2.545501,0 4.609038,2.063538 4.609038,4.60904 z" id="path3905-11" style="fill:#000000;stroke:none"/>
  <path d="m 19.112271,94.434572 c 0,2.545501 -2.063538,4.609038 -4.609039,4.609038 -2.545502,0 -4.6090396,-2.063537 -4.6090396,-4.609038 0,-2.545502 2.0635376,-4.609038 4.6090396,-4.609038 2.545501,0 4.609039,2.063536 4.609039,4.609038 z" id="path3905-52" style="fill:#000000;stroke:none"/>
  <path d="m 43.538764,107.52019 c 0,2.5455 -2.063537,4.60904 -4.609038,4.60904 -2.545502,0 -4.609041,-2.06354 -4.609041,-4.60904 0,-2.54551 2.063539,-4.60903 4.609041,-4.60903 2.545501,0 4.609038,2.06352 4.609038,4.60903 z" id="path3905-76" style="fill:#000000;stroke:none"/>
  <path d="m 113.98302,60.084814 c 0,2.545501 -2.06354,4.60904 -4.60903,4.60904 -2.5455,0 -4.60904,-2.063539 -4.60904,-4.60904 0,-2.545502 2.06354,-4.609039 4.60904,-4.609039 2.54549,0 4.60903,2.063537 4.60903,4.609039 z" id="path3905-14" style="fill:#999999;stroke:none"/>
  <g transform="matrix(0.9,0,0,0.9,11.481808,12.557725)" id="text4010" style="font-size:40px;font-style:normal;font-weight:normal;line-height:125%;letter-spacing:0px;word-spacing:0px;fill:#000000;fill-opacity:1;stroke:none;font-family:Sans">
    <path d="m 132.14229,58.600571 -2.73926,-0.494141 c 0.30794,-1.102855 0.83789,-1.91926 1.58984,-2.449219 0.75195,-0.529936 1.86914,-0.79491 3.35157,-0.794922 1.34634,1.2e-5 2.34895,0.159354 3.00781,0.478028 0.65884,0.318696 1.12255,0.723318 1.39111,1.213867 0.26855,0.490569 0.40282,1.391122 0.40283,2.70166 l -0.0322,3.523438 c -1e-5,1.002607 0.0483,1.742026 0.14502,2.218261 0.0967,0.476238 0.27749,0.986492 0.54248,1.530762 l -2.98633,0 c -0.0788,-0.200521 -0.17546,-0.497721 -0.29004,-0.891602 -0.0501,-0.179035 -0.0859,-0.297199 -0.10742,-0.354492 -0.51563,0.501303 -1.06707,0.877279 -1.6543,1.12793 -0.58724,0.250651 -1.21387,0.375976 -1.87988,0.375977 -1.17448,-10e-7 -2.1001,-0.318685 -2.77686,-0.956055 -0.67676,-0.637369 -1.01513,-1.443032 -1.01513,-2.416992 0,-0.644528 0.15397,-1.219234 0.46191,-1.724121 0.30794,-0.504878 0.73942,-0.891596 1.29443,-1.160157 0.55501,-0.268548 1.35531,-0.503086 2.40088,-0.703613 1.4108,-0.264967 2.38834,-0.512037 2.93262,-0.741211 l 0,-0.300781 c -10e-6,-0.58007 -0.14324,-0.993644 -0.42969,-1.240723 -0.28646,-0.247061 -0.82715,-0.370596 -1.62207,-0.370605 -0.53711,9e-6 -0.95606,0.105641 -1.25683,0.316894 -0.30079,0.211272 -0.54428,0.581877 -0.73047,1.111817 z m 4.03906,2.449218 c -0.38673,0.128912 -0.99903,0.282883 -1.83691,0.461914 -0.8379,0.179042 -1.38575,0.354497 -1.64356,0.526368 -0.39388,0.279301 -0.59082,0.633793 -0.59082,1.063476 0,0.422529 0.15755,0.787763 0.47266,1.095703 0.3151,0.307945 0.71614,0.461916 1.20312,0.461914 0.54427,2e-6 1.06347,-0.179034 1.55762,-0.537109 0.36523,-0.272133 0.60514,-0.60514 0.71973,-0.999023 0.0788,-0.257809 0.11815,-0.748369 0.11816,-1.47168 z" id="path4015" style="font-size:22px;font-weight:bold;-inkscape-font-specification:Sans Bold"/>
  </g>
  <g transform="matrix(0.9,0,0,0.9,-40.641308,63.246908)" id="text4010-2" style="font-size:40px;font-style:normal;font-weight:normal;line-height:125%;letter-spacing:0px;word-spacing:0px;fill:#000000;fill-opacity:1;stroke:none;font-family:Sans">
    <path d="m 132.14229,58.600571 -2.73926,-0.494141 c 0.30794,-1.102855 0.83789,-1.91926 1.58984,-2.449219 0.75195,-0.529936 1.86914,-0.79491 3.35157,-0.794922 1.34634,1.2e-5 2.34895,0.159354 3.00781,0.478028 0.65884,0.318696 1.12255,0.723318 1.39111,1.213867 0.26855,0.490569 0.40282,1.391122 0.40283,2.70166 l -0.0322,3.523438 c -1e-5,1.002607 0.0483,1.742026 0.14502,2.218261 0.0967,0.476238 0.27749,0.986492 0.54248,1.530762 l -2.98633,0 c -0.0788,-0.200521 -0.17546,-0.497721 -0.29004,-0.891602 -0.0501,-0.179035 -0.0859,-0.297199 -0.10742,-0.354492 -0.51563,0.501303 -1.06707,0.877279 -1.6543,1.12793 -0.58724,0.250651 -1.21387,0.375976 -1.87988,0.375977 -1.17448,-10e-7 -2.1001,-0.318685 -2.77686,-0.956055 -0.67676,-0.637369 -1.01513,-1.443032 -1.01513,-2.416992 0,-0.644528 0.15397,-1.219234 0.46191,-1.724121 0.30794,-0.504878 0.73942,-0.891596 1.29443,-1.160157 0.55501,-0.268548 1.35531,-0.503086 2.40088,-0.703613 1.4108,-0.264967 2.38834,-0.512037 2.93262,-0.741211 l 0,-0.300781 c -10e-6,-0.58007 -0.14324,-0.993644 -0.42969,-1.240723 -0.28646,-0.247061 -0.82715,-0.370596 -1.62207,-0.370605 -0.53711,9e-6 -0.95606,0.105641 -1.25683,0.316894 -0.30079,0.211272 -0.54428,0.581877 -0.73047,1.111817 z m 4.03906,2.449218 c -0.38673,0.128912 -0.99903,0.282883 -1.83691,0.461914 -0.8379,0.179042 -1.38575,0.354497 -1.64356,0.526368 -0.39388,0.279301 -0.59082,0.633793 -0.59082,1.063476 0,0.422529 0.15755,0.787763 0.47266,1.095703 0.3151,0.307945 0.71614,0.461916 1.20312,0.461914 0.54427,2e-6 1.06347,-0.179034 1.55762,-0.537109 0.36523,-0.272133 0.60514,-0.60514 0.71973,-0.999023 0.0788,-0.257809 0.11815,-0.748369 0.11816,-1.47168 z" id="path4015-3" style="font-size:22px;font-weight:bold;-inkscape-font-specification:Sans Bold"/>
  </g>
  <g transform="translate(-112.13593,50.96601)" id="text4010-22" style="font-size:40px;font-style:normal;font-weight:normal;line-height:125%;letter-spacing:0px;word-spacing:0px;fill:#000000;fill-opacity:1;stroke:none;font-family:Sans">
    <path d="m 132.37271,58.822934 -2.46533,-0.444727 c 0.27714,-0.992569 0.7541,-1.727334 1.43085,-2.204297 0.67676,-0.476942 1.68223,-0.715419 3.01642,-0.71543 1.2117,1.1e-5 2.11405,0.143419 2.70703,0.430226 0.59295,0.286826 1.01029,0.650986 1.252,1.09248 0.24169,0.441512 0.36253,1.25201 0.36254,2.431494 l -0.029,3.171094 c -1e-5,0.902346 0.0435,1.567824 0.13052,1.996435 0.087,0.428614 0.24974,0.887843 0.48823,1.377686 l -2.68769,0 c -0.0709,-0.180469 -0.15792,-0.447949 -0.26104,-0.802442 -0.0451,-0.161131 -0.0773,-0.267479 -0.0967,-0.319043 -0.46407,0.451173 -0.96036,0.789551 -1.48887,1.015137 -0.52852,0.225586 -1.09248,0.338379 -1.69189,0.33838 -1.05703,-10e-7 -1.89009,-0.286817 -2.49917,-0.86045 -0.60909,-0.573632 -0.91362,-1.298729 -0.91362,-2.175293 0,-0.580075 0.13857,-1.09731 0.41572,-1.551709 0.27714,-0.45439 0.66548,-0.802436 1.16498,-1.044141 0.49951,-0.241693 1.21978,-0.452777 2.1608,-0.633252 1.26972,-0.23847 2.1495,-0.460833 2.63935,-0.66709 l 0,-0.270702 c 0,-0.522063 -0.12891,-0.89428 -0.38672,-1.116651 -0.25781,-0.222355 -0.74443,-0.333537 -1.45986,-0.333545 -0.4834,8e-6 -0.86045,0.09508 -1.13115,0.285205 -0.27071,0.190145 -0.48985,0.523689 -0.65742,1.000635 z m 3.63516,2.204296 c -0.34806,0.116021 -0.89913,0.254595 -1.65322,0.415723 -0.75411,0.161138 -1.24718,0.319047 -1.47921,0.473731 -0.35449,0.251371 -0.53174,0.570414 -0.53174,0.957129 0,0.380276 0.1418,0.708986 0.4254,0.986132 0.28359,0.277151 0.64452,0.415725 1.08281,0.415723 0.48984,2e-6 0.95712,-0.161131 1.40185,-0.483398 0.32871,-0.24492 0.54463,-0.544626 0.64776,-0.899121 0.0709,-0.232028 0.10634,-0.673532 0.10635,-1.324512 z" id="path4015-1" style="font-size:22px;font-weight:bold;-inkscape-font-specification:Sans Bold"/>
  </g>
</svg>