<?xml version="1.0" encoding="UTF-8" standalone="no"?>
<!-- Created with Inkscape (http://www.inkscape.org/) -->

<svg
   xmlns:ns0="http://www.iki.fi/pav/software/textext/"
   xmlns:dc="http://purl.org/dc/elements/1.1/"
   xmlns:cc="http://creativecommons.org/ns#"
   xmlns:rdf="http://www.w3.org/1999/02/22-rdf-syntax-ns#"
   xmlns:svg="http://www.w3.org/2000/svg"
   xmlns="http://www.w3.org/2000/svg"
   xmlns:xlink="http://www.w3.org/1999/xlink"
   xmlns:sodipodi="http://sodipodi.sourceforge.net/DTD/sodipodi-0.dtd"
   xmlns:inkscape="http://www.inkscape.org/namespaces/inkscape"
   id="svg3004"
   version="1.1"
   inkscape:version="0.91 r"
   width="471.89117"
   height="435.37802"
   xml:space="preserve"
   sodipodi:docname="nanoindentation.svg"><sodipodi:namedview
     pagecolor="#ffffff"
     bordercolor="#666666"
     borderopacity="1"
     objecttolerance="10"
     gridtolerance="10"
     guidetolerance="10"
     inkscape:pageopacity="0"
     inkscape:pageshadow="2"
     inkscape:window-width="1920"
     inkscape:window-height="1053"
     id="namedview3006"
     showgrid="false"
     inkscape:zoom="1.5170655"
     inkscape:cx="102.72713"
     inkscape:cy="275.79847"
     inkscape:window-x="1280"
     inkscape:window-y="0"
     inkscape:window-maximized="1"
     inkscape:current-layer="g3014"
     fit-margin-top="0"
     fit-margin-left="0"
     fit-margin-right="0"
     fit-margin-bottom="0" /><metadata
     id="metadata3010"><rdf:RDF><cc:Work
         rdf:about=""><dc:format>image/svg+xml</dc:format><dc:type
           rdf:resource="http://purl.org/dc/dcmitype/StillImage" /><dc:title /></cc:Work></rdf:RDF></metadata><defs
     id="defs3008"><clipPath
       id="clipPath3118"
       clipPathUnits="userSpaceOnUse"><path
         inkscape:connector-curvature="0"
         id="path3120"
         d="m 1259.17,3125.83 2865,0 0,-2729.998 -2865,0 0,2729.998 z" /></clipPath></defs><g
     transform="matrix(1.25,0,0,-1.25,-89.332133,412.57569)"
     inkscape:label="ink_ext_XXXXXX"
     inkscape:groupmode="layer"
     id="g3012"><g
       transform="scale(0.1,0.1)"
       id="g3014"><path
         inkscape:connector-curvature="0"
         id="path3020"
         style="fill:none;stroke:#ffffff;stroke-width:15;stroke-linecap:butt;stroke-linejoin:round;stroke-miterlimit:10;stroke-dasharray:none;stroke-opacity:1"
         d="m 1259.17,396.668 0,2730.002 2864.16,0 0,-2730.002 -2864.16,0" /><path
         inkscape:connector-curvature="0"
         id="path3022"
         style="fill:none;stroke:#000000;stroke-width:15;stroke-linecap:butt;stroke-linejoin:round;stroke-miterlimit:10;stroke-dasharray:none;stroke-opacity:1"
         d="m 1259.17,396.668 2864.16,0" /><path
         inkscape:connector-curvature="0"
         id="path3024"
         style="fill:none;stroke:#000000;stroke-width:15;stroke-linecap:butt;stroke-linejoin:round;stroke-miterlimit:10;stroke-dasharray:none;stroke-opacity:1"
         d="m 1259.17,396.668 0,2730.002" /><path
         inkscape:connector-curvature="0"
         id="path3026"
         style="fill:none;stroke:#000000;stroke-width:15;stroke-linecap:butt;stroke-linejoin:round;stroke-miterlimit:10;stroke-dasharray:none;stroke-opacity:1"
         d="m 1259.17,396.668 0,29.164" /><g
         transform="scale(10,10)"
         id="g3028"><text
           id="text3030"
           transform="matrix(1,0,0,-1,121.5,22)"><tspan
             id="tspan3032"
             y="0"
             x="0"
             style="font-variant:normal;font-weight:normal;font-size:16px;font-family:Helvetica;-inkscape-font-specification:Helvetica;writing-mode:lr-tb;fill:#000000;fill-opacity:1;fill-rule:nonzero;stroke:none">0</tspan></text>
</g><path
         inkscape:connector-curvature="0"
         id="path3034"
         style="fill:none;stroke:#000000;stroke-width:15;stroke-linecap:butt;stroke-linejoin:round;stroke-miterlimit:10;stroke-dasharray:none;stroke-opacity:1"
         d="m 2446.67,396.668 0,29.164" /><g
         transform="scale(10,10)"
         id="g3036"><text
           id="text3038"
           transform="matrix(1,0,0,-1,231.333,22)"><tspan
             id="tspan3040"
             sodipodi:role="line"
             y="0"
             x="0 8.8959999 17.792"
             style="font-variant:normal;font-weight:normal;font-size:16px;font-family:Helvetica;-inkscape-font-specification:Helvetica;writing-mode:lr-tb;fill:#000000;fill-opacity:1;fill-rule:nonzero;stroke:none">500</tspan></text>
</g><path
         inkscape:connector-curvature="0"
         id="path3042"
         style="fill:none;stroke:#000000;stroke-width:15;stroke-linecap:butt;stroke-linejoin:round;stroke-miterlimit:10;stroke-dasharray:none;stroke-opacity:1"
         d="m 3635,396.668 0,29.164" /><g
         transform="scale(10,10)"
         id="g3044"><text
           id="text3046"
           transform="matrix(1,0,0,-1,345.75,22)"><tspan
             id="tspan3048"
             sodipodi:role="line"
             y="0"
             x="0 8.8959999 17.792 26.688"
             style="font-variant:normal;font-weight:normal;font-size:16px;font-family:Helvetica;-inkscape-font-specification:Helvetica;writing-mode:lr-tb;fill:#000000;fill-opacity:1;fill-rule:nonzero;stroke:none">1000</tspan></text>
</g><path
         inkscape:connector-curvature="0"
         id="path3050"
         style="fill:none;stroke:#000000;stroke-width:15;stroke-linecap:butt;stroke-linejoin:round;stroke-miterlimit:10;stroke-dasharray:none;stroke-opacity:1"
         d="m 1259.17,399.168 28.33,0" /><g
         transform="scale(10,10)"
         id="g3052"><text
           id="text3054"
           transform="matrix(1,0,0,-1,114.167,34)"><tspan
             id="tspan3056"
             y="0"
             x="0"
             style="font-variant:normal;font-weight:normal;font-size:16px;font-family:Helvetica;-inkscape-font-specification:Helvetica;writing-mode:lr-tb;fill:#000000;fill-opacity:1;fill-rule:nonzero;stroke:none">0</tspan></text>
</g><path
         inkscape:connector-curvature="0"
         id="path3058"
         style="fill:none;stroke:#000000;stroke-width:15;stroke-linecap:butt;stroke-linejoin:round;stroke-miterlimit:10;stroke-dasharray:none;stroke-opacity:1"
         d="m 1259.17,741.668 28.33,0" /><g
         transform="scale(10,10)"
         id="g3060"><text
           id="text3062"
           transform="matrix(1,0,0,-1,114.167,68.25)"><tspan
             id="tspan3064"
             y="0"
             x="0"
             style="font-variant:normal;font-weight:normal;font-size:16px;font-family:Helvetica;-inkscape-font-specification:Helvetica;writing-mode:lr-tb;fill:#000000;fill-opacity:1;fill-rule:nonzero;stroke:none">1</tspan></text>
</g><path
         inkscape:connector-curvature="0"
         id="path3066"
         style="fill:none;stroke:#000000;stroke-width:15;stroke-linecap:butt;stroke-linejoin:round;stroke-miterlimit:10;stroke-dasharray:none;stroke-opacity:1"
         d="m 1259.17,1085 28.33,0" /><g
         transform="scale(10,10)"
         id="g3068"><text
           id="text3070"
           transform="matrix(1,0,0,-1,114.167,102.583)"><tspan
             id="tspan3072"
             y="0"
             x="0"
             style="font-variant:normal;font-weight:normal;font-size:16px;font-family:Helvetica;-inkscape-font-specification:Helvetica;writing-mode:lr-tb;fill:#000000;fill-opacity:1;fill-rule:nonzero;stroke:none">2</tspan></text>
</g><path
         inkscape:connector-curvature="0"
         id="path3074"
         style="fill:none;stroke:#000000;stroke-width:15;stroke-linecap:butt;stroke-linejoin:round;stroke-miterlimit:10;stroke-dasharray:none;stroke-opacity:1"
         d="m 1259.17,1427.5 28.33,0" /><g
         transform="scale(10,10)"
         id="g3076"><text
           id="text3078"
           transform="matrix(1,0,0,-1,114.167,136.833)"><tspan
             id="tspan3080"
             y="0"
             x="0"
             style="font-variant:normal;font-weight:normal;font-size:16px;font-family:Helvetica;-inkscape-font-specification:Helvetica;writing-mode:lr-tb;fill:#000000;fill-opacity:1;fill-rule:nonzero;stroke:none">3</tspan></text>
</g><path
         inkscape:connector-curvature="0"
         id="path3082"
         style="fill:none;stroke:#000000;stroke-width:15;stroke-linecap:butt;stroke-linejoin:round;stroke-miterlimit:10;stroke-dasharray:none;stroke-opacity:1"
         d="m 1259.17,1770.83 28.33,0" /><g
         transform="scale(10,10)"
         id="g3084"><text
           id="text3086"
           transform="matrix(1,0,0,-1,114.167,171.167)"><tspan
             id="tspan3088"
             y="0"
             x="0"
             style="font-variant:normal;font-weight:normal;font-size:16px;font-family:Helvetica;-inkscape-font-specification:Helvetica;writing-mode:lr-tb;fill:#000000;fill-opacity:1;fill-rule:nonzero;stroke:none">4</tspan></text>
</g><path
         inkscape:connector-curvature="0"
         id="path3090"
         style="fill:none;stroke:#000000;stroke-width:15;stroke-linecap:butt;stroke-linejoin:round;stroke-miterlimit:10;stroke-dasharray:none;stroke-opacity:1"
         d="m 1259.17,2114.17 28.33,0" /><g
         transform="scale(10,10)"
         id="g3092"><text
           id="text3094"
           transform="matrix(1,0,0,-1,114.167,205.5)"><tspan
             id="tspan3096"
             y="0"
             x="0"
             style="font-variant:normal;font-weight:normal;font-size:16px;font-family:Helvetica;-inkscape-font-specification:Helvetica;writing-mode:lr-tb;fill:#000000;fill-opacity:1;fill-rule:nonzero;stroke:none">5</tspan></text>
</g><path
         inkscape:connector-curvature="0"
         id="path3098"
         style="fill:none;stroke:#000000;stroke-width:15;stroke-linecap:butt;stroke-linejoin:round;stroke-miterlimit:10;stroke-dasharray:none;stroke-opacity:1"
         d="m 1259.17,2456.67 28.33,0" /><g
         transform="scale(10,10)"
         id="g3100"><text
           id="text3102"
           transform="matrix(1,0,0,-1,114.167,239.75)"><tspan
             id="tspan3104"
             y="0"
             x="0"
             style="font-variant:normal;font-weight:normal;font-size:16px;font-family:Helvetica;-inkscape-font-specification:Helvetica;writing-mode:lr-tb;fill:#000000;fill-opacity:1;fill-rule:nonzero;stroke:none">6</tspan></text>
</g><path
         inkscape:connector-curvature="0"
         id="path3106"
         style="fill:none;stroke:#000000;stroke-width:15;stroke-linecap:butt;stroke-linejoin:round;stroke-miterlimit:10;stroke-dasharray:none;stroke-opacity:1"
         d="m 1259.17,2800 28.33,0" /><g
         transform="scale(10,10)"
         id="g3108"><text
           id="text3110"
           transform="matrix(1,0,0,-1,114.167,274.083)"><tspan
             id="tspan3112"
             y="0"
             x="0"
             style="font-variant:normal;font-weight:normal;font-size:16px;font-family:Helvetica;-inkscape-font-specification:Helvetica;writing-mode:lr-tb;fill:#000000;fill-opacity:1;fill-rule:nonzero;stroke:none">7</tspan></text>
</g><g
         id="g3114"><g
           clip-path="url(#clipPath3118)"
           id="g3116"><path
             inkscape:connector-curvature="0"
             id="path3122"
             style="fill:none;stroke:#0000ff;stroke-width:20;stroke-linecap:butt;stroke-linejoin:round;stroke-miterlimit:10;stroke-dasharray:none;stroke-opacity:1"
             d="m 3246.67,1865.83 3.33,3.34 2.5,3.33 2.5,3.33 2.5,4.17 3.33,3.33 3.34,3.34 2.5,3.33 3.33,3.33 2.5,4.17 2.5,3.33 3.33,3.34 2.5,3.33 2.5,4.17 3.34,3.33 2.5,3.33 3.33,3.34 2.5,4.16 2.5,3.34 3.33,3.33 2.5,4.17 3.34,3.33 2.5,3.33 3.33,4.17 2.5,3.33 2.5,3.34 2.5,4.16 3.33,3.34 2.5,4.16 3.34,3.34 2.5,3.33 3.33,4.17 2.5,3.33 3.33,4.17 2.5,3.33 2.5,3.33 3.34,4.17 2.5,3.33 2.5,4.17 3.33,3.33 2.5,4.17 3.33,3.33 3.34,4.17 2.5,3.33 3.33,4.17 2.5,3.33 2.5,4.17 2.5,3.33 3.33,4.17 2.5,3.33 3.34,4.17 3.33,3.33 1.67,4.17 3.33,3.33 2.5,4.17 3.33,3.33 2.5,4.17 2.5,4.17 3.34,3.33 2.5,4.17 3.33,3.33 3.33,4.17 2.5,4.16 2.5,3.34 3.34,4.16 2.5,3.34 3.33,4.16 2.5,4.17 3.33,3.33 2.5,4.17 2.5,3.33 3.34,4.17 2.5,3.33 3.33,4.17 2.5,4.17 2.5,4.16 3.33,3.34 2.5,4.16 2.5,4.17 3.34,3.33 3.33,4.17 2.5,4.17 2.5,3.33 3.33,4.17 3.34,4.16 2.5,3.34 2.5,4.16 2.5,4.17 3.33,4.17 3.33,3.33 2.5,4.17 2.5,4.16 3.34,4.17 2.5,3.33 2.5,4.17 3.33,4.17 2.5,4.16 3.33,3.34 2.5,4.16 2.5,4.17 2.5,4.17 3.34,4.16 2.5,4.17 3.33,4.17 2.5,4.16 2.5,4.17 2.5,4.17 3.33,4.16 3.34,4.17 2.5,4.17 3.33,4.16 2.5,4.17 2.5,4.17 3.33,4.16 3.34,4.17 2.5,4.17 2.5,4.16 3.33,4.17 2.5,4.17 3.33,4.16 2.5,4.17 3.34,4.17 2.5,4.16 2.5,4.17 3.33,4.17 2.5,4.16 3.33,4.17 2.5,4.17 3.34,4.16 2.5,4.17 3.33,4.17 2.5,4.16 2.5,4.17 3.33,4.17 2.5,4.16 2.5,4.17 3.34,5 3.33,4.17 2.5,4.16 2.5,4.17 3.33,4.17 2.5,4.16 3.34,4.17 2.5,4.17 3.33,4.16 2.5,4.17 2.5,4.17 3.33,5 3.34,4.16 2.5,4.17 3.33,4.17 2.5,4.16 2.5,4.17 2.5,4.17 3.33,4.16 2.5,4.17 3.34,4.17 2.5,5 3.33,4.16 2.5,4.17 3.33,4.17 3.34,4.16 2.5,4.17 2.5,4.17 2.5,4.16 3.33,4.17 2.5,4.17 2.5,4.16 3.33,5 3.34,4.17 2.5,4.17 3.33,4.16 2.5,4.17 2.5,4.17 3.33,4.16 2.5,4.17 3.34,4.17 2.5,5 2.5,4.16 3.33,4.17 2.5,4.17 3.33,5 2.5,4.16 3.34,4.17 2.5,4.17 2.5,4.16 3.33,4.17 2.5,4.17 3.33,4.16 2.5,5 3.34,4.17 2.5,4.17 2.5,4.16 3.33,4.17 2.5,5 3.33,4.17 2.5,4.16 3.34,4.17 2.5,4.17 2.5,5 2.5,4.16 3.33,4.17 3.33,4.17 2.5,5 3.34,4.16 2.5,4.17 3.33,4.17 2.5,4.16 2.5,5 3.33,4.17 2.5,4.17 2.5,4.16 3.34,5 3.33,4.17 2.5,5 2.5,4.17 2.5,4.16 4.17,5 2.5,4.17 2.5,4.17 2.5,4.16 2.5,5 3.33,4.17 3.33,5 2.5,4.17 3.34,4.16 2.5,4.17 3.33,5 2.5,4.17 2.5,4.16 3.33,5 2.5,4.17 2.5,5 3.34,4.17 2.5,4.16 2.5,5 4.16,4.17 2.5,5 2.5,4.17 2.5,5 3.34,4.16 2.5,4.17 3.33,5 2.5,4.17 3.33,5 2.5,4.16 2.5,5 3.34,4.17 2.5,5 3.33,5 2.5,4.17 3.33,5 2.5,4.16 2.5,5 3.34,4.17 3.33,4.17 2.5,5 2.5,4.16 3.33,5 2.5,4.17 3.34,5 2.5,4.17 2.5,5 3.33,4.16 2.5,5 3.33,4.17 3.34,5 2.5,4.17 3.33,5 2.5,4.16 2.5,5 2.5,4.17 3.33,5 2.5,4.17 3.34,5 2.5,4.16 3.33,5 2.5,5 2.5,4.17 2.5,5 3.33,5 2.5,4.17 2.5,5 3.34,5 2.5,5 3.33,4.16 2.5,5 3.33,5 2.5,5 3.34,4.17 2.5,5 2.5,5 3.33,5 2.5,5 3.33,4.17 2.5,5 2.5,5 3.34,5 3.33,4.16 2.5,4.17" /><path
             inkscape:connector-curvature="0"
             id="path3124"
             style="fill:none;stroke:#0000ff;stroke-width:20;stroke-linecap:butt;stroke-linejoin:round;stroke-miterlimit:10;stroke-dasharray:none;stroke-opacity:1"
             d="m 2391.67,973.332 3.33,2.5 2.5,2.5 2.5,2.5 3.33,2.5 2.5,2.5 2.5,1.668 3.34,2.5 2.5,2.5 3.33,2.5 3.33,2.5 2.5,2.5 2.5,1.67 3.34,2.5 2.5,2.5 3.33,2.5 2.5,2.5 2.5,2.5 3.33,2.5 2.5,2.5 3.34,2.5 2.5,2.5 3.33,1.66 2.5,2.5 2.5,2.5 3.33,2.5 2.5,2.5 3.34,2.5 2.5,2.5 3.33,2.5 2.5,2.5 2.5,2.5 3.33,2.5 2.5,2.5 3.34,2.5 2.5,1.67 3.33,3.33 2.5,2.5 2.5,2.5 3.33,2.5 2.5,2.5 3.34,2.5 2.5,2.5 2.5,2.5 3.33,2.5 2.5,2.5 2.5,2.5 3.33,2.5 2.5,2.5 2.5,2.5 4.17,3.34 1.67,2.5 3.33,2.5 3.33,2.5 2.5,2.5 2.5,2.5 2.5,3.33 3.34,2.5 3.33,2.5 2.5,2.5 3.33,2.5 2.5,2.5 2.5,3.33 3.34,2.5 2.5,2.5 2.5,2.5 3.33,3.34 3.33,2.5 2.5,2.5 2.5,2.5 3.34,2.5 2.5,3.33 3.33,2.5 2.5,2.5 2.5,3.33 2.5,2.5 3.33,2.5 3.34,3.34 2.5,2.5 2.5,2.5 3.33,3.33 2.5,2.5 3.33,2.5 2.5,3.33 2.5,2.5 3.34,2.5 2.5,3.34 3.33,2.5 2.5,3.33 2.5,2.5 3.33,3.33 2.5,2.5 3.34,3.34 2.5,2.5 2.5,3.33 3.33,2.5 2.5,3.33 2.5,2.5 3.33,3.34 2.5,2.5 3.34,3.33 2.5,3.33 2.5,2.5 3.33,3.34 3.33,2.5 2.5,3.33 3.34,3.33 2.5,2.5 2.5,3.34 3.33,2.5 2.5,3.33 3.33,2.5 3.34,3.33 2.5,2.5 3.33,3.34 1.67,2.5 3.33,3.33 3.33,2.5 2.5,3.33 3.34,2.5 2.5,3.34 3.33,2.5 2.5,3.33 2.5,2.5 3.33,3.33 3.34,3.34 2.5,2.5 3.33,2.5 2.5,3.33 2.5,2.5 3.33,3.33 2.5,2.5 3.34,3.34 2.5,3.33 3.33,2.5 2.5,3.33 2.5,2.5 3.33,3.34 2.5,2.5 3.34,3.33 2.5,3.33 3.33,2.5 3.33,3.34 1.67,2.5 2.5,3.33 3.33,2.5 3.34,3.33 2.5,3.34 3.33,2.5 2.5,3.33 2.5,2.5 3.33,3.33 2.5,3.34 3.34,2.5 2.5,3.33 3.33,2.5 2.5,3.33 2.5,2.5 2.5,3.34 3.33,3.33 3.34,3.33 3.33,2.5 2.5,3.34 2.5,2.5 3.33,3.33 2.5,3.33 3.34,2.5 2.5,3.34 2.5,3.33 3.33,2.5 3.33,3.33 1.67,2.5 3.33,3.34 3.34,3.33 2.5,2.5 3.33,3.33 2.5,2.5 2.5,3.34 3.33,3.33 2.5,2.5 3.34,3.33 3.33,3.34 2.5,2.5 2.5,3.33 3.33,2.5 2.5,3.33 3.34,3.34 2.5,2.5 3.33,3.33 2.5,3.33 2.5,2.5 3.33,3.34 2.5,2.5 2.5,3.33 3.34,3.33 3.33,2.5 2.5,3.34 2.5,3.33 3.33,2.5 2.5,3.33 2.5,3.34 3.34,3.33 2.5,2.5 2.5,3.33 3.33,3.34 2.5,3.33 3.33,2.5 2.5,3.33 3.34,3.34 2.5,3.33 3.33,3.33 2.5,2.5 2.5,3.34 3.33,3.33 2.5,3.33 2.5,3.34 3.34,3.33 2.5,2.5 3.33,3.33 2.5,3.34 2.5,3.33 3.33,3.33 3.34,3.34 2.5,3.33 2.5,3.33 2.5,3.34 3.33,3.33 2.5,3.33 3.33,3.34 2.5,2.5 3.34,3.33 2.5,3.33 2.5,4.17 3.33,2.5 2.5,3.33 3.33,4.17 2.5,3.33 3.34,2.5 2.5,3.34 3.33,3.33 2.5,3.33 3.33,3.34 2.5,3.33 3.34,3.33 2.5,3.34 2.5,3.33 3.33,3.33 2.5,3.34 2.5,3.33 3.33,3.33 2.5,3.34 2.5,4.16 4.17,3.34 2.5,3.33 2.5,3.33 3.33,3.34 2.5,3.33 2.5,3.33 3.34,3.34 2.5,3.33 2.5,3.33 4.16,3.34 2.5,3.33 2.5,3.33 3.34,3.34 2.5,3.33 3.33,3.33 2.5,3.34 2.5,3.33 3.33,4.17 2.5,3.33 2.5,3.33 3.34,3.34 3.33,3.33 2.5,3.33 3.33,3.34 2.5,3.33 2.5,3.33 3.34,4.17 2.5,3.33 3.33,3.34 2.5,3.33 2.5,3.33 3.33,3.34 2.5,4.16 2.5,3.34 3.34,3.33 2.5,3.33 3.33,4.17 2.5,3.33 3.33,3.34 2.5,3.33 2.5,4.17 3.34,3.33 2.5,3.33 3.33,3.34 2.5,3.33 3.33,4.17 2.5,3.33 3.34,3.33" /><path
             inkscape:connector-curvature="0"
             id="path3126"
             style="fill:none;stroke:#0000ff;stroke-width:20;stroke-linecap:butt;stroke-linejoin:round;stroke-miterlimit:10;stroke-dasharray:none;stroke-opacity:1"
             d="m 1534.17,460.832 3.33,0.836 2.5,0.832 3.33,0.832 2.5,1.668 2.5,0.832 3.34,0.836 2.5,0.832 3.33,1.668 2.5,0.832 2.5,0.832 3.33,0.836 3.34,1.664 2.5,0.836 2.5,0.832 2.5,1.668 3.33,0.832 3.33,0.832 2.5,1.668 3.34,0.832 2.5,0.836 3.33,1.664 2.5,0.836 2.5,0.832 3.33,1.668 3.34,0.832 2.5,0.832 3.33,1.668 2.5,0.832 2.5,1.668 3.33,0.832 2.5,0.836 3.34,1.664 2.5,0.836 2.5,1.664 3.33,0.836 2.5,1.664 3.33,0.836 3.34,0.832 2.5,1.668 2.5,0.832 2.5,1.668 3.33,0.832 2.5,1.668 2.5,0.832 3.33,1.668 2.5,0.832 3.34,1.668 2.5,1.664 3.33,0.836 2.5,1.664 3.33,0.836 2.5,1.664 2.5,0.836 3.34,1.664 2.5,1.668 3.33,0.832 2.5,1.668 3.33,1.668 2.5,0.832 3.34,1.668 2.5,1.664 2.5,0.836 3.33,1.664 3.33,1.668 2.5,0.832 3.34,1.668 2.5,0.832 3.33,1.668 2.5,1.668 2.5,0.832 3.33,1.668 2.5,1.664 3.34,0.836 3.33,1.664 1.67,1.668 3.33,1.668 3.33,0.832 2.5,1.668 3.34,1.664 2.5,0.836 3.33,1.664 2.5,1.668 3.33,0.832 2.5,1.668 3.34,1.668 2.5,1.664 2.5,0.836 3.33,1.664 2.5,1.668 3.33,1.668 2.5,0.832 3.34,1.668 2.5,1.664 2.5,1.668 3.33,1.668 3.33,0.832 2.5,1.668 2.5,1.664 3.34,1.668 2.5,1.668 3.33,0.832 2.5,1.668 2.5,1.664 3.33,1.668 2.5,1.668 2.5,1.664 3.34,0.836 3.33,1.664 2.5,1.668 2.5,1.668 3.33,1.664 3.34,1.668 2.5,1.668 3.33,0.832 2.5,1.668 3.33,1.664 2.5,1.668 2.5,1.668 3.34,1.664 3.33,1.668 2.5,1.668 2.5,1.664 3.33,0.836 3.34,1.664 2.5,1.668 3.33,1.668 2.5,1.664 2.5,1.668 2.5,1.668 3.33,1.664 2.5,1.668 2.5,1.668 3.34,1.664 2.5,1.668 3.33,1.668 2.5,1.664 3.33,1.668 2.5,1.668 2.5,1.664 3.34,1.668 2.5,1.668 3.33,1.664 2.5,1.668 2.5,1.668 3.33,1.664 2.5,1.668 3.34,1.668 2.5,1.664 3.33,1.668 2.5,1.668 2.5,1.664 3.33,1.668 2.5,2.5 3.34,1.668 3.33,1.664 2.5,1.668 2.5,1.668 2.5,1.664 3.33,1.668 3.34,1.668 2.5,2.5 3.33,1.664 2.5,1.668 3.33,1.668 2.5,1.664 3.34,1.668 2.5,1.668 2.5,1.664 3.33,2.5 2.5,1.668 3.33,1.668 2.5,1.664 3.34,1.668 2.5,1.668 2.5,2.5 3.33,1.664 2.5,1.668 3.33,1.668 2.5,1.664 2.5,2.5 3.34,1.668 2.5,1.668 2.5,1.664 3.33,2.5 2.5,1.668 3.33,1.668 3.34,1.664 2.5,2.5 2.5,1.668 3.33,1.668 2.5,1.664 2.5,2.5 3.33,1.668 2.5,1.668 3.34,2.5 2.5,1.664 3.33,1.668 2.5,2.5 3.33,1.668 2.5,1.664 2.5,2.5 3.34,1.668 2.5,1.668 3.33,2.5 2.5,1.664 2.5,1.668 3.33,2.5 2.5,1.668 2.5,2.5 3.34,1.664 2.5,2.5 3.33,1.668 2.5,2.5 3.33,1.668 2.5,2.5 2.5,1.664 2.5,2.5 3.34,1.668 2.5,2.5 3.33,1.668 2.5,2.5 2.5,1.664 3.33,2.5 3.34,1.668 2.5,2.5 3.33,2.5 2.5,1.668 3.33,2.5 2.5,1.664 3.34,2.5 2.5,1.668 3.33,2.5 2.5,1.668 3.33,2.5 2.5,1.664 3.34,2.5 2.5,1.668 2.5,2.5 3.33,2.5 3.33,1.668 2.5,2.5 2.5,1.664 3.34,2.5 2.5,1.668 3.33,2.5 3.33,1.668 2.5,2.5 3.34,1.664 2.5,2.5 2.5,1.668 2.5,2.5 3.33,1.668 2.5,2.5 3.33,2.5 2.5,1.664 3.34,2.5 1.66,1.668 3.34,2.5 3.33,2.5 2.5,1.668 3.33,2.5 2.5,2.5 3.34,1.664 3.33,2.5 2.5,1.668 2.5,2.5 2.5,2.5 3.33,1.668 2.5,2.5 3.34,1.664 2.5,2.5 3.33,2.5 3.33,2.5 2.5,1.668 2.5,2.5 2.5,1.668 3.34,2.5 3.33,2.5 2.5,1.664 3.33,2.5 2.5,1.668 2.5,2.5 3.34,2.5 2.5,1.668 2.5,2.5 3.33,2.5 2.5,2.5 3.33,1.664 2.5,2.5 2.5,2.5 3.34,1.668 2.5,2.5 3.33,2.5 2.5,2.5 3.33,1.668 2.5,2.5 3.34,2.5 2.5,2.5 2.5,1.664" /><path
             inkscape:connector-curvature="0"
             id="path3128"
             style="fill:none;stroke:#0000ff;stroke-width:20;stroke-linecap:butt;stroke-linejoin:round;stroke-miterlimit:10;stroke-dasharray:none;stroke-opacity:1"
             d="m 1259.17,399.168 0.83,0.832 4.17,0 1.66,0.832 3.34,0 2.5,0.836 1.66,0 2.5,0.832 2.5,0 3.34,0.832 2.5,0 2.5,0.836 2.5,0 2.5,0.832 3.33,0 2.5,0.832 3.33,0 2.5,0.836 3.34,0 2.5,0.832 3.33,0 3.33,0.832 2.5,0.836 3.34,0 3.33,0.832 2.5,0 3.33,0.832 2.5,0 3.34,0.836 2.5,0 3.33,0.832 2.5,0.832 3.33,0 2.5,0.836 2.5,0 3.34,0.832 3.33,0.832 3.33,0 2.5,0.836 2.5,0.832 2.5,0 2.5,0.832 3.34,0.836 3.33,0 2.5,0.832 2.5,0.832 3.33,0 2.5,0.836 2.5,0.832 3.34,0 2.5,0.832 3.33,0.836 2.5,0.832 3.33,0 2.5,0.832 3.34,0.836 3.33,0 2.5,0.832 3.33,0.832 2.5,0.836 2.5,0 2.5,0.832 3.34,0.832 2.5,0.836 2.5,0.832 3.33,0 2.5,0.832 2.5,0.836 3.33,0.832 2.5,0.832 3.34,0.836 2.5,0 2.5,0.832 3.33,0.832 2.5,0.836 2.5,0.832 3.33,0.832 2.5,0.836 2.5,0.832 2.5,0.832 2.5,0.836 3.34,0.832 2.5,0.832 3.33,0.836 2.5,0.832 2.5,0.832 3.33,0.836 3.34,0.832 1.66,0.832 3.34,0.836 3.33,1.664 2.5,0.836 2.5,0.832 3.33,0.832 2.5,0.836 2.5,0.832 3.34,0.832 2.5,0.836 2.5,1.664" /><path
             inkscape:connector-curvature="0"
             id="path3130"
             style="fill:none;stroke:#0000ff;stroke-width:20;stroke-linecap:butt;stroke-linejoin:round;stroke-miterlimit:10;stroke-dasharray:none;stroke-opacity:1"
             d="m 4101.67,3120.83 2.5,2.5 2.5,1.67 1.66,0.83 1.67,0" /><path
             inkscape:connector-curvature="0"
             id="path3132"
             style="fill:none;stroke:#0000ff;stroke-width:20;stroke-linecap:butt;stroke-linejoin:round;stroke-miterlimit:10;stroke-dasharray:none;stroke-opacity:1"
             d="m 4120.83,3011.67 0,-16.67 -0.83,-2.5 0,-23.33 -0.83,-3.34 0,-20.83 -0.84,-2.5 0,-17.5 -0.83,-1.67 0.83,-2.5 0,-2.5 -0.83,-1.66 0,-5 -0.83,-1.67 0.83,-1.67 0,-4.16 -0.83,-2.5 0,-16.67 -0.84,-1.67 0.84,-1.66 0,-10 -0.84,-1.67 0,-4.17 0.84,-1.66 -0.84,-1.67 0,-20.83 -0.83,-1.67 0,-2.5 0.83,-1.67 0,-7.5 -0.83,-0.83 0,-1.67 0.83,-1.66 -0.83,-1.67 0,-0.83 0.83,-1.67 -0.83,-1.67 0,-4.16 0.83,-0.84 -0.83,-1.66 0,-4.17 -0.83,-0.83 0.83,-1.67 0,-2.5 -0.83,-0.83 0,-5.84 0.83,-1.66 0,-0.84 -0.83,-1.66 0.83,-0.84 -0.83,-1.66 0,-29.17 -0.84,-1.67 0.84,-0.83 0,-6.67 -0.84,-0.83 0.84,-0.83 0,-5.84 -0.84,-0.83 0.84,-0.83 0,-2.5 -0.84,-0.84 0.84,-0.83 0,-1.67 -0.84,-1.66 0,-0.84 0.84,-0.83 -0.84,-0.83 0,-0.84 0.84,-0.83 -0.84,-0.83 0,-0.84 0.84,-0.83 -0.84,-0.83 0,-0.84 0.84,-0.83 -0.84,-1.67 0.84,-0.83 -0.84,-0.83 0,-10.84 0.84,-0.83 -0.84,-0.83 0,-29.17 -0.83,-0.83 0,-0.84 0.83,-0.83 0,-2.5 -0.83,-0.83 0,-1.67 0.83,-0.83 -0.83,-0.84 0.83,-0.83 -0.83,-0.83 0.83,0 -0.83,-0.84 0.83,-0.83 -0.83,-0.83 0.83,-0.84 -0.83,-0.83 0.83,-0.83 0,-1.67 -0.83,-0.83 0,-1.67 0.83,-0.83 0,-2.5 -0.83,-0.84 0,-5.83 0.83,-0.83 -0.83,-0.84 0,-3.33 0.83,0 -0.83,0 0.83,-0.83 -0.83,-0.84 0,-0.83 0.83,-0.83 -0.83,-0.84 0,-2.5 0.83,-0.83 -0.83,-0.83 0,-8.34 0.83,-0.83 -0.83,-0.83 0,-1.67 0.83,-0.83 -0.83,-0.84 0,-14.16 -0.83,-0.84 0.83,-0.83 0,-13.33 -0.83,-0.84 0.83,-0.83 0,-4.17 -0.83,-0.83 0.83,-0.83 -0.83,0 0.83,-0.84 -0.83,-0.83 0.83,-0.83 0,-2.5 -0.83,-0.84 0.83,-0.83 0,-2.5 -0.83,0 0.83,-0.83 -0.83,-0.84 0.83,0 -0.83,-0.83 0.83,-0.83 0,-0.84 -0.83,-0.83 0.83,-0.83 -0.83,-0.84 0.83,-0.83 -0.83,-0.83 0.83,0 -0.83,-0.84 0.83,-0.83 0,-2.5 -0.83,-0.83 0.83,-0.84 0,-5 -0.83,0 0,-1.66 0.83,0 -0.83,0 0.83,-0.84 0,-2.5 -0.83,0 0.83,-0.83 -0.83,0 0.83,-0.83 -0.83,-0.84 0.83,0 -0.83,-0.83 0.83,0 -0.83,-0.83 0,-0.84 0.83,-0.83 -0.83,0 0.83,-0.83 0,-5 -0.83,0 0.83,0 -0.83,-0.84 0.83,0 -0.83,-0.83 0,-1.67 0.83,0 0,-2.5 -0.83,0 0.83,-0.83 0,-1.67 -0.83,-0.83 0.83,0 -0.83,-0.83 0,-1.67 0.83,0 -0.83,-0.83 0.83,-0.84 -0.83,-0.83 0,-5 0.83,-0.83 -0.83,-0.84 -0.84,0 0.84,-0.83 0.83,0 0,-1.67 -0.83,0 0.83,0 -0.83,-0.83 0.83,-0.83 -0.83,-0.84 0.83,0 -0.83,-0.83 0,-1.67 0.83,0 -0.83,0 0.83,-0.83 0,-0.83 -0.83,-0.84 0.83,-0.83 -0.83,-0.83 0.83,0 -0.83,-0.84 0.83,-0.83 0,-1.67 -0.83,-0.83 0,-9.17 0.83,0 -0.83,-0.83 0,-6.67 0.83,-0.83 0,-1.67 -0.83,0 0.83,0 -1.67,-1.66 0.84,0 -0.84,0 0.84,-0.84 0,-1.66 0.83,-0.84 0,-1.66 -0.83,0 0.83,0 -0.83,-0.84 -0.84,0 0.84,-0.83 0,-4.17 0.83,0 -0.83,-0.83 0,-5 0.83,0 -0.83,-0.83 0,-1.67 -0.84,0 0.84,-0.83 0,-7.5 -0.84,0 0,-1.67 0.84,0 -0.84,0 0.84,-0.83 0,-9.17 -0.84,0 0.84,-0.83 0,-5.84 -0.84,-0.83 0.84,0 -0.84,0 0.84,-0.83 0,-5 -0.84,0 0.84,-0.84 0,-4.16 -0.84,-0.84 0.84,-0.83 0,-1.67 -0.84,0 0.84,-0.83 -0.84,0 0.84,-0.83 0,-4.17 -0.84,0 0.84,-0.83 0,-1.67 -0.84,-0.83 0.84,-0.84 0,-2.5 -0.84,0 0.84,0 -0.84,0 0.84,-0.83 0,-3.33 -0.84,0 0.84,-0.84" /><path
             inkscape:connector-curvature="0"
             id="path3134"
             style="fill:none;stroke:#0000ff;stroke-width:20;stroke-linecap:butt;stroke-linejoin:round;stroke-miterlimit:10;stroke-dasharray:none;stroke-opacity:1"
             d="m 4110,3125.83 3.33,0 0.84,-0.83 1.66,-1.67 0.84,-1.66 0.83,-2.5 0.83,-2.5 0.84,-2.5 0.83,-2.5 0,-3.34 0.83,-2.5 0,-3.33 0.84,-4.17 0,-10 0.83,-4.16 0,-21.67 0.83,-4.17 -0.83,-4.16 0,-10.84 -0.83,-4.16 0.83,-3.34 -0.83,-3.33 0,-17.5 -0.84,-3.33" /><path
             inkscape:connector-curvature="0"
             id="path3136"
             style="fill:none;stroke:#0000ff;stroke-width:20;stroke-linecap:butt;stroke-linejoin:round;stroke-miterlimit:10;stroke-dasharray:none;stroke-opacity:1"
             d="m 3636.67,1071.67 -3.34,-5.84 -2.5,-5 -3.33,-5 -2.5,-5 -3.33,-5.83 -2.5,-5 -2.5,-5 -3.34,-5 -3.33,-5 -2.5,-5 -3.33,-5 -3.34,-5 -2.5,-5 -3.33,-5 -2.5,-5 -2.5,-5 -3.33,-4.168 -2.5,-5 -3.34,-5 -2.5,-5 -2.5,-4.164 -4.16,-5 -2.5,-5 -2.5,-4.168 -3.34,-5 -3.33,-4.168 -2.5,-5 -3.33,-4.164 -2.5,-4.168 -3.34,-5 -2.5,-4.168 -2.5,-4.164 -3.33,-4.168 -3.33,-5 -3.34,-4.168 -2.5,-4.164 -2.5,-4.168 -3.33,-4.168 -2.5,-4.164 -3.33,-4.168 -3.34,-4.168 -2.5,-4.164 -2.5,-4.168 -3.33,-4.168 -2.5,-3.332 -3.33,-4.168 -2.5,-4.164 -3.34,-4.168 -2.5,-3.332 -3.33,-4.168 -2.5,-4.168 -3.33,-3.332 -3.34,-4.168 -2.5,-4.164 -2.5,-3.336 -3.33,-4.164 -2.5,-3.336 -4.17,-4.164 -2.5,-3.336 -2.5,-3.332 -2.5,-4.168 -3.33,-3.332 -3.33,-3.332 -2.5,-4.168 -3.34,-3.332 -2.5,-3.336 -2.5,-3.332 -3.33,-3.332 -2.5,-4.168 -3.33,-3.332 -2.5,-3.336 -3.34,-3.332 -2.5,-3.332 -3.33,-3.336 -3.33,-3.332 -2.5,-3.332 -2.5,-3.336 -3.34,-3.332 -2.5,-3.332 -3.33,-3.336 -3.33,-2.5 -2.5,-3.332 -2.5,-3.332 -2.5,-3.336 -3.34,-3.332 -3.33,-2.5 -2.5,-3.332 -3.33,-3.336 -2.5,-3.332 -3.34,-2.5 -3.33,-3.332 -2.5,-2.5 -2.5,-3.336 -2.5,-2.5 -3.33,-3.332 -3.34,-3.332 -2.5,-2.5 -3.33,-3.336 -2.5,-2.5 -3.33,-2.5 -2.5,-3.332 -3.34,-2.5 -3.33,-2.5 -3.33,-3.332 -2.5,-2.5 -2.5,-2.5 -2.5,-2.5 -3.34,-3.336 -2.5,-2.5 -3.33,-2.5 -2.5,-2.5 -3.33,-2.5 -2.5,-2.5 -3.34,-2.5 -2.5,-2.5 -3.33,-3.332 -2.5,-2.5 -2.5,-2.5 -3.33,-2.5 -2.5,-2.5 -3.34,-2.5 -3.33,-2.5 -2.5,-2.5 -3.33,-1.668 -2.5,-2.5 -2.5,-2.5 -3.34,-2.5 -2.5,-2.5 -3.33,-2.5 -3.33,-1.664 -2.5,-2.5 -3.34,-2.5 -2.5,-2.5 -2.5,-1.668 -3.33,-2.5 -2.5,-2.5 -3.33,-1.668 -3.34,-2.5 -2.5,-2.5 -2.5,-1.664 -3.33,-2.5 -3.33,-1.668 -1.67,-2.5 -3.33,-1.668 -3.34,-2.5 -3.33,-1.664 -2.5,-2.5 -3.33,-1.668 -2.5,-2.5 -2.5,-1.668 -3.34,-2.5 -3.33,-1.664 -2.5,-1.668 -2.5,-2.5 -3.33,-1.668 -2.5,-1.664 -3.34,-2.5 -2.5,-1.668 -3.33,-1.668 -2.5,-1.664 -3.33,-2.5 -2.5,-1.668 -3.34,-1.668 -2.5,-1.664 -3.33,-1.668 -2.5,-1.668 -3.33,-2.5 -3.34,-1.664 -2.5,-1.668 -2.5,-1.668 -2.5,-1.664 -3.33,-1.668 -2.5,-1.668 -2.5,-1.664 -3.33,-1.668 -3.34,-1.668 -2.5,-1.664 -3.33,-1.668 -2.5,-1.668 -2.5,-1.664 -3.33,-1.668 -3.34,-1.668 -2.5,-1.664 -3.33,-1.668 -2.5,-1.668 -3.33,-0.832 -2.5,-1.668 -3.34,-1.664 -2.5,-1.668 -3.33,-1.668 -2.5,-0.832 -3.33,-1.668 -2.5,-1.664 -2.5,-1.668 -3.34,-0.832 -3.33,-1.668 -2.5,-1.668 -2.5,-0.832 -4.17,-1.668 -2.5,-1.664 -3.33,-0.836 -2.5,-1.664 -2.5,-0.836 -3.33,-1.664 -3.34,-0.836 -2.5,-1.664 -3.33,-0.836 -2.5,-1.664 -2.5,-0.836 -3.33,-1.664 -2.5,-0.836 -3.34,-1.664 -2.5,-0.836 -3.33,-1.664 -3.33,-0.836 -3.34,-0.832 -2.5,-1.668 -2.5,-0.832 -3.33,-0.832 -2.5,-1.668 -3.33,-0.832 -3.34,-0.836 -2.5,-1.664 -3.33,-0.836 -2.5,-0.832 -3.33,-0.832 -3.34,-1.668 -2.5,-0.832 -3.33,-0.836 -2.5,-0.832 -3.33,-0.832 -2.5,-0.836 -2.5,-0.832 -3.34,-1.668 -3.33,-0.832 -2.5,-0.832 -2.5,-0.836 -3.33,-0.832 -2.5,-0.832 -3.34,-0.836 -3.33,-0.832 -2.5,-0.832 -3.33,-0.836 -2.5,-0.832 -3.34,-0.832 -2.5,-0.836 -3.33,-0.832 -2.5,-0.832 -3.33,-0.836 -3.34,-0.832 -2.5,-0.832 -3.33,-0.836 -2.5,-0.832 -3.33,0 -3.34,-0.832 -2.5,-0.836 -3.33,-0.832 -2.5,-0.832 -3.33,0 -3.34,-0.836 -2.5,-0.832 -3.33,-0.832 -3.33,0 -2.5,-0.836 -3.34,-0.832 -2.5,-0.832 -3.33,0 -3.33,-0.836 -2.5,-0.832 -3.34,0 -3.33,-0.832 -2.5,0 -2.5,-0.836 -3.33,-0.832 -3.34,0 -2.5,-0.832 -3.33,0 -3.33,-0.836 -3.34,0 -2.5,-0.832 -2.5,-0.832 -3.33,0 -3.33,-0.836 -5.84,0 -3.33,-0.832 -3.33,0 -2.5,-0.832 -3.34,0 -2.5,-0.836 -6.66,0 -3.34,-0.832 -5.83,0 -3.33,-0.832 -5.84,0 -2.5,-0.836" /><path
             inkscape:connector-curvature="0"
             id="path3138"
             style="fill:none;stroke:#0000ff;stroke-width:20;stroke-linecap:butt;stroke-linejoin:round;stroke-miterlimit:10;stroke-dasharray:none;stroke-opacity:1"
             d="m 4111.67,2405 -0.84,-1.67 -0.83,-2.5 0,-2.5 -0.83,-4.16 -0.84,-3.34 -0.83,-5 -0.83,-5 -1.67,-5.83 -1.67,-5.83 -1.66,-6.67 -1.67,-6.67 -1.67,-6.66 -1.66,-7.5 -1.67,-7.5 -2.5,-8.34 -1.67,-7.5 -2.5,-8.33 -1.66,-8.33 -2.5,-8.34 -1.67,-9.16 -2.5,-9.17 -2.5,-9.17 -2.5,-8.33 -2.5,-9.17 -2.5,-10 -2.5,-9.16 -2.5,-9.17 -2.5,-9.17 -2.5,-10 -2.5,-9.16 -3.33,-10 -2.5,-9.17 -2.5,-10 -3.34,-9.17 -2.5,-10 -1.66,-9.16 -3.34,-10 -2.5,-10 -3.33,-9.17 -2.5,-10 -2.5,-9.17 -2.5,-10 -4.17,-9.16 -2.5,-10 -2.5,-9.17 -2.5,-10 -2.5,-9.17 -3.33,-10 -2.5,-9.16 -3.33,-10 -2.5,-9.17 -2.5,-9.17 -3.34,-10 -3.33,-9.16 -2.5,-9.17 -2.5,-9.17 -3.33,-9.16 -3.34,-9.17 -1.66,-9.17 -3.34,-9.16 -3.33,-9.17 -2.5,-9.17 -2.5,-9.16 -3.33,-9.17 -2.5,-9.17 -3.34,-9.16 -2.5,-9.17 -3.33,-8.33 -2.5,-9.17 -3.33,-9.17 -2.5,-9.16 -2.5,-8.34 -4.17,-9.16 -2.5,-8.34 -2.5,-8.33 -3.33,-9.17 -2.5,-8.33 -3.34,-9.17 -2.5,-8.33 -2.5,-8.33 -3.33,-8.34 -3.33,-8.33 -2.5,-8.33 -2.5,-8.34 -2.5,-8.33 -4.17,-8.33 -2.5,-8.34 -2.5,-8.33 -3.33,-8.33 -2.5,-8.34 -2.5,-7.5 -3.34,-8.33 -3.33,-8.33 -2.5,-7.5 -2.5,-8.34 -3.33,-7.5 -3.34,-8.33 -2.5,-7.5 -2.5,-8.33 -3.33,-7.5 -3.33,-7.5 -2.5,-8.34 -2.5,-7.5 -3.34,-7.5 -3.33,-7.5 -2.5,-7.5 -3.33,-7.5 -2.5,-7.5 -3.34,-7.5 -2.5,-7.5 -2.5,-7.5 -3.33,-7.5 -2.5,-7.5 -3.33,-7.5 -3.34,-6.66 -2.5,-7.5 -2.5,-7.5 -3.33,-6.67 -2.5,-7.5 -2.5,-6.67 -3.33,-7.5 -2.5,-6.66 -3.34,-7.5 -2.5,-6.67 -3.33,-7.5 -3.33,-6.67 -2.5,-6.66 -2.5,-7.5 -3.34,-6.67 -3.33,-6.67 -2.5,-6.66 -2.5,-6.67 -3.33,-6.67 -2.5,-6.66 -3.34,-6.67 -3.33,-6.67 -2.5,-6.66 -2.5,-5.84 -3.33,-6.66 -2.5,-6.67 -3.34,-6.67 -3.33,-5.83 -2.5,-6.67 -3.33,-5.83 -2.5,-6.67 -3.34,-5.83 -2.5,-6.67 -3.33,-5.83 -2.5,-6.67 -3.33,-5.83 -2.5,-5.83 -2.5,-5.84 -3.34,-6.66 -2.5,-5.84 -2.5,-5.83 -3.33,-5.83 -3.33,-5.84 -3.34,-6.66 -2.5,-5.84 -2.5,-5 -3.33,-5.83 -2.5,-5.83 -3.33,-5.84 -3.34,-5.83 -2.5,-5.83 -2.5,-5.84 -3.33,-5 -2.5,-5.83 -3.33,-5.83 -2.5,-5 -3.34,-5.84 -2.5,-5 -3.33,-5.83 -2.5,-5 -2.5,-5.83 -3.33,-5" /><path
             inkscape:connector-curvature="0"
             id="path3140"
             style="fill:none;stroke:#0000ff;stroke-width:20;stroke-linecap:butt;stroke-linejoin:round;stroke-miterlimit:10;stroke-dasharray:none;stroke-opacity:1"
             d="m 2124.17,398.332 -32.5,0 0.83,0 -7.5,0 0.83,0 -32.5,0 1.67,0 -21.67,0 2.5,0 -7.5,0 0.84,0 -768.34,0" /><path
             inkscape:connector-curvature="0"
             id="path3142"
             style="fill:none;stroke:#0000ff;stroke-width:20;stroke-linecap:butt;stroke-linejoin:round;stroke-miterlimit:10;stroke-dasharray:none;stroke-opacity:1"
             d="m 2695.83,395.832 -2.5,0.836 0,0.832 2.5,0 -5.83,0 -3.33,-0.832 -92.5,0 -2.5,0.832 -1.67,-0.832 -9.17,0 -4.16,0.832 -397.5,0 -4.17,0.832 -0.83,-0.832 -6.67,0 -4.17,0.832 -0.83,-0.832 -4.17,0.832 -1.66,-0.832 -5,0.832 -4.17,0 -2.5,-0.832 -2.5,0 -5.83,0.832 -12.5,0" /></g></g><path
         inkscape:connector-curvature="0"
         id="path3154"
         style="fill:none;stroke:#000000;stroke-width:20;stroke-linecap:butt;stroke-linejoin:round;stroke-miterlimit:10;stroke-dasharray:5, 40;stroke-dashoffset:0;stroke-opacity:1"
         d="M 4113.33,2397.5 3584.17,383.332" /><path
         inkscape:connector-curvature="0"
         id="path3156"
         style="fill:none;stroke:#000000;stroke-width:15.76772594;stroke-linecap:butt;stroke-linejoin:round;stroke-miterlimit:10;stroke-dasharray:47.30317876;stroke-dashoffset:0;stroke-opacity:1"
         d="m 4105.67,2597.5806 0,-1653.3297" /><path
         sodipodi:nodetypes="cc"
         inkscape:connector-curvature="0"
         id="path3158"
         style="fill:none;stroke:#000000;stroke-width:15.51544666;stroke-linecap:butt;stroke-linejoin:round;stroke-miterlimit:10;stroke-dasharray:46.54633979;stroke-dashoffset:0;stroke-opacity:1"
         d="m 4123.9123,3116.2045 -1783.1669,2.591" /><g
         transform="scale(10,10)"
         id="g3178" /><path
         transform="matrix(8,0,0,-8,891.15664,3134.17)"
         inkscape:connector-curvature="0"
         id="path3075"
         d="m 377.04371,188.99048 0,56.3588 -15.16085,0"
         style="fill:none;stroke:#000000;stroke-width:1px;stroke-linecap:butt;stroke-linejoin:miter;stroke-opacity:1" /><g
         id="g4318"
         ns0:preamble="/home/ken/.config/inkscape/textextpreamble.txt"
         ns0:text="$P_{max}$"
         transform="matrix(32.957156,0,0,-32.957156,-5909.5622,7517.556)"><defs
           id="defs4320"><g
             id="g4322"><symbol
               id="textext-5c05dfb7-0"
               overflow="visible"
               style="overflow:visible"><path
                 id="path4325"
                 d=""
                 style="stroke:none"
                 inkscape:connector-curvature="0" /></symbol><symbol
               id="textext-5c05dfb7-1"
               overflow="visible"
               style="overflow:visible"><path
                 id="path4328"
                 d="m 3.015625,-3.15625 1.703125,0 c 1.40625,0 2.796875,-1.03125 2.796875,-2.140625 0,-0.78125 -0.65625,-1.515625 -1.96875,-1.515625 l -3.21875,0 c -0.1875,0 -0.296875,0 -0.296875,0.1875 0,0.125 0.078125,0.125 0.28125,0.125 0.125,0 0.3125,0.015625 0.421875,0.015625 0.171875,0.03125 0.21875,0.046875 0.21875,0.171875 0,0.03125 0,0.0625 -0.03125,0.1875 l -1.34375,5.34375 c -0.09375,0.390625 -0.109375,0.46875 -0.90625,0.46875 -0.15625,0 -0.265625,0 -0.265625,0.1875 C 0.40625,0 0.515625,0 0.546875,0 0.828125,0 1.53125,-0.03125 1.8125,-0.03125 c 0.21875,0 0.4375,0.015625 0.640625,0.015625 0.21875,0 0.4375,0.015625 0.640625,0.015625 0.078125,0 0.203125,0 0.203125,-0.203125 0,-0.109375 -0.09375,-0.109375 -0.28125,-0.109375 -0.359375,0 -0.640625,0 -0.640625,-0.171875 0,-0.0625 0.015625,-0.109375 0.03125,-0.171875 z M 3.734375,-6.125 C 3.828125,-6.46875 3.84375,-6.5 4.28125,-6.5 l 0.953125,0 c 0.828125,0 1.359375,0.265625 1.359375,0.953125 0,0.390625 -0.203125,1.25 -0.59375,1.609375 -0.5,0.453125 -1.09375,0.53125 -1.53125,0.53125 l -1.40625,0 z m 0,0"
                 style="stroke:none"
                 inkscape:connector-curvature="0" /></symbol><symbol
               id="textext-5c05dfb7-2"
               overflow="visible"
               style="overflow:visible"><path
                 id="path4331"
                 d=""
                 style="stroke:none"
                 inkscape:connector-curvature="0" /></symbol><symbol
               id="textext-5c05dfb7-3"
               overflow="visible"
               style="overflow:visible"><path
                 id="path4334"
                 d="m 3.03125,-0.5625 c -0.046875,0.140625 -0.109375,0.375 -0.109375,0.40625 0,0.15625 0.125,0.21875 0.234375,0.21875 0.140625,0 0.25,-0.078125 0.28125,-0.140625 0.03125,-0.0625 0.09375,-0.296875 0.125,-0.4375 0.03125,-0.125 0.109375,-0.453125 0.15625,-0.625 0.03125,-0.15625 0.078125,-0.3125 0.109375,-0.46875 0.078125,-0.296875 0.078125,-0.3125 0.21875,-0.53125 C 4.265625,-2.484375 4.625,-2.875 5.15625,-2.875 c 0.390625,0 0.421875,0.3125 0.421875,0.484375 0,0.421875 -0.296875,1.1875 -0.421875,1.484375 -0.0625,0.203125 -0.09375,0.265625 -0.09375,0.375 0,0.375 0.296875,0.59375 0.65625,0.59375 0.703125,0 1,-0.953125 1,-1.0625 0,-0.09375 -0.078125,-0.09375 -0.109375,-0.09375 -0.09375,0 -0.09375,0.046875 -0.125,0.125 C 6.328125,-0.40625 6.015625,-0.125 5.75,-0.125 c -0.15625,0 -0.1875,-0.09375 -0.1875,-0.25 0,-0.15625 0.046875,-0.25 0.171875,-0.5625 0.078125,-0.21875 0.359375,-0.953125 0.359375,-1.34375 0,-0.109375 0,-0.40625 -0.25,-0.609375 -0.125,-0.078125 -0.328125,-0.1875 -0.65625,-0.1875 -0.625,0 -1,0.421875 -1.234375,0.703125 C 3.90625,-2.96875 3.40625,-3.078125 3.046875,-3.078125 2.46875,-3.078125 2.078125,-2.71875 1.875,-2.4375 1.828125,-2.921875 1.421875,-3.078125 1.125,-3.078125 c -0.296875,0 -0.453125,0.21875 -0.546875,0.375 -0.15625,0.265625 -0.25,0.65625 -0.25,0.703125 0,0.078125 0.09375,0.078125 0.125,0.078125 0.09375,0 0.09375,-0.015625 0.140625,-0.203125 0.109375,-0.40625 0.25,-0.75 0.515625,-0.75 0.1875,0 0.234375,0.15625 0.234375,0.34375 0,0.125 -0.0625,0.390625 -0.125,0.578125 -0.046875,0.1875 -0.109375,0.46875 -0.140625,0.625 L 0.84375,-0.4375 c -0.015625,0.09375 -0.0625,0.265625 -0.0625,0.28125 0,0.15625 0.125,0.21875 0.234375,0.21875 0.125,0 0.234375,-0.078125 0.28125,-0.140625 0.03125,-0.0625 0.078125,-0.296875 0.125,-0.4375 0.03125,-0.125 0.109375,-0.453125 0.140625,-0.625 0.046875,-0.15625 0.09375,-0.3125 0.125,-0.46875 0.078125,-0.28125 0.09375,-0.34375 0.296875,-0.625 C 2.171875,-2.515625 2.5,-2.875 3.03125,-2.875 c 0.390625,0 0.40625,0.359375 0.40625,0.484375 0,0.171875 -0.015625,0.265625 -0.125,0.65625 z m 0,0"
                 style="stroke:none"
                 inkscape:connector-curvature="0" /></symbol><symbol
               id="textext-5c05dfb7-4"
               overflow="visible"
               style="overflow:visible"><path
                 id="path4337"
                 d="m 2.9375,-2.65625 c -0.140625,-0.234375 -0.375,-0.421875 -0.71875,-0.421875 -0.890625,0 -1.796875,0.984375 -1.796875,1.984375 0,0.6875 0.453125,1.15625 1.0625,1.15625 0.375,0 0.703125,-0.203125 0.984375,-0.484375 C 2.59375,0 3,0.0625 3.1875,0.0625 c 0.25,0 0.421875,-0.140625 0.546875,-0.359375 0.15625,-0.28125 0.25,-0.671875 0.25,-0.703125 0,-0.09375 -0.09375,-0.09375 -0.109375,-0.09375 -0.109375,0 -0.109375,0.03125 -0.15625,0.21875 C 3.625,-0.53125 3.5,-0.125 3.203125,-0.125 3.03125,-0.125 2.96875,-0.28125 2.96875,-0.46875 c 0,-0.109375 0.0625,-0.375 0.109375,-0.546875 0.046875,-0.1875 0.125,-0.46875 0.15625,-0.625 L 3.375,-2.171875 C 3.421875,-2.359375 3.5,-2.6875 3.5,-2.71875 3.5,-2.875 3.375,-2.9375 3.265625,-2.9375 c -0.125,0 -0.28125,0.078125 -0.328125,0.28125 z M 2.5,-0.875 C 2.453125,-0.671875 2.296875,-0.53125 2.140625,-0.40625 2.078125,-0.34375 1.796875,-0.125 1.5,-0.125 c -0.265625,0 -0.515625,-0.1875 -0.515625,-0.671875 0,-0.375 0.203125,-1.140625 0.375,-1.421875 0.3125,-0.5625 0.671875,-0.65625 0.859375,-0.65625 0.484375,0 0.625,0.53125 0.625,0.609375 0,0.015625 -0.015625,0.078125 -0.015625,0.09375 z m 0,0"
                 style="stroke:none"
                 inkscape:connector-curvature="0" /></symbol><symbol
               id="textext-5c05dfb7-5"
               overflow="visible"
               style="overflow:visible"><path
                 id="path4340"
                 d="M 1.734375,-0.734375 C 1.671875,-0.5 1.4375,-0.125 1.078125,-0.125 c -0.015625,0 -0.234375,0 -0.375,-0.09375 0.28125,-0.09375 0.3125,-0.34375 0.3125,-0.390625 0,-0.15625 -0.125,-0.25 -0.28125,-0.25 -0.203125,0 -0.40625,0.15625 -0.40625,0.421875 0,0.34375 0.390625,0.5 0.734375,0.5 0.328125,0 0.609375,-0.1875 0.78125,-0.484375 C 2.015625,-0.0625 2.390625,0.0625 2.671875,0.0625 c 0.8125,0 1.234375,-0.859375 1.234375,-1.0625 0,-0.09375 -0.09375,-0.09375 -0.109375,-0.09375 -0.109375,0 -0.109375,0.046875 -0.140625,0.125 -0.140625,0.484375 -0.5625,0.84375 -0.953125,0.84375 -0.28125,0 -0.421875,-0.1875 -0.421875,-0.453125 0,-0.1875 0.171875,-0.8125 0.359375,-1.59375 C 2.78125,-2.703125 3.09375,-2.875 3.328125,-2.875 c 0.015625,0 0.21875,0 0.375,0.09375 -0.21875,0.0625 -0.3125,0.265625 -0.3125,0.390625 0,0.140625 0.125,0.25 0.28125,0.25 0.15625,0 0.390625,-0.125 0.390625,-0.421875 0,-0.390625 -0.453125,-0.515625 -0.71875,-0.515625 -0.359375,0 -0.640625,0.234375 -0.78125,0.5 -0.125,-0.28125 -0.453125,-0.5 -0.84375,-0.5 C 0.9375,-3.078125 0.5,-2.21875 0.5,-2 c 0,0.078125 0.09375,0.078125 0.109375,0.078125 0.09375,0 0.09375,-0.015625 0.140625,-0.109375 C 0.921875,-2.578125 1.359375,-2.875 1.703125,-2.875 1.9375,-2.875 2.125,-2.75 2.125,-2.421875 2.125,-2.28125 2.03125,-1.9375 1.96875,-1.6875 Z m 0,0"
                 style="stroke:none"
                 inkscape:connector-curvature="0" /></symbol></g></defs><g
           id="textext-5c05dfb7-6"><g
             id="g4343"
             style="fill:#000000;fill-opacity:1"><use
               id="use4345"
               y="134.765"
               x="223.43201"
               xlink:href="#textext-5c05dfb7-1"
               width="100%"
               height="100%" /></g><g
             id="g4347"
             style="fill:#000000;fill-opacity:1"><use
               id="use4349"
               y="136.259"
               x="229.828"
               xlink:href="#textext-5c05dfb7-3"
               width="100%"
               height="100%" /><use
               id="use4351"
               y="136.259"
               x="236.89734"
               xlink:href="#textext-5c05dfb7-4"
               width="100%"
               height="100%" /><use
               id="use4353"
               y="136.259"
               x="241.21901"
               xlink:href="#textext-5c05dfb7-5"
               width="100%"
               height="100%" /></g></g></g><g
         ns0:text="$\\delta_{max}$"
         ns0:preamble="/home/ken/.config/inkscape/textextpreamble.txt"
         transform="matrix(32.957156,0,0,-32.957156,-3529.1347,5121.2411)"
         id="g4657"><defs
           id="defs4659"><g
             id="g4661"><symbol
               style="overflow:visible"
               overflow="visible"
               id="textext-afbea234-0"><path
                 inkscape:connector-curvature="0"
                 style="stroke:none"
                 d=""
                 id="path4664" /></symbol><symbol
               style="overflow:visible"
               overflow="visible"
               id="textext-afbea234-1"><path
                 inkscape:connector-curvature="0"
                 style="stroke:none"
                 d="M 2.625,-4.359375 C 1.390625,-4.0625 0.421875,-2.765625 0.421875,-1.5625 0.421875,-0.59375 1.0625,0.125 2,0.125 c 1.15625,0 1.984375,-1.578125 1.984375,-2.953125 0,-0.90625 -0.390625,-1.40625 -0.734375,-1.84375 C 2.890625,-5.125 2.296875,-5.875 2.296875,-6.3125 c 0,-0.21875 0.203125,-0.453125 0.546875,-0.453125 0.3125,0 0.5,0.125 0.71875,0.265625 0.203125,0.125 0.390625,0.25 0.546875,0.25 C 4.359375,-6.25 4.5,-6.484375 4.5,-6.65625 4.5,-6.875 4.34375,-6.890625 3.984375,-6.984375 3.46875,-7.09375 3.328125,-7.09375 3.171875,-7.09375 c -0.78125,0 -1.140625,0.4375 -1.140625,1.03125 0,0.546875 0.296875,1.09375 0.59375,1.703125 z m 0.125,0.21875 c 0.25,0.46875 0.546875,1 0.546875,1.71875 0,0.65625 -0.375,2.328125 -1.296875,2.328125 -0.546875,0 -0.96875,-0.421875 -0.96875,-1.1875 0,-0.625 0.375,-2.5 1.71875,-2.859375 z m 0,0"
                 id="path4667" /></symbol><symbol
               style="overflow:visible"
               overflow="visible"
               id="textext-afbea234-2"><path
                 inkscape:connector-curvature="0"
                 style="stroke:none"
                 d=""
                 id="path4670" /></symbol><symbol
               style="overflow:visible"
               overflow="visible"
               id="textext-afbea234-3"><path
                 inkscape:connector-curvature="0"
                 style="stroke:none"
                 d="m 3.03125,-0.5625 c -0.046875,0.140625 -0.109375,0.375 -0.109375,0.40625 0,0.15625 0.125,0.21875 0.234375,0.21875 0.140625,0 0.25,-0.078125 0.28125,-0.140625 0.03125,-0.0625 0.09375,-0.296875 0.125,-0.4375 0.03125,-0.125 0.109375,-0.453125 0.15625,-0.625 0.03125,-0.15625 0.078125,-0.3125 0.109375,-0.46875 0.078125,-0.296875 0.078125,-0.3125 0.21875,-0.53125 C 4.265625,-2.484375 4.625,-2.875 5.15625,-2.875 c 0.390625,0 0.421875,0.3125 0.421875,0.484375 0,0.421875 -0.296875,1.1875 -0.421875,1.484375 -0.0625,0.203125 -0.09375,0.265625 -0.09375,0.375 0,0.375 0.296875,0.59375 0.65625,0.59375 0.703125,0 1,-0.953125 1,-1.0625 0,-0.09375 -0.078125,-0.09375 -0.109375,-0.09375 -0.09375,0 -0.09375,0.046875 -0.125,0.125 C 6.328125,-0.40625 6.015625,-0.125 5.75,-0.125 c -0.15625,0 -0.1875,-0.09375 -0.1875,-0.25 0,-0.15625 0.046875,-0.25 0.171875,-0.5625 0.078125,-0.21875 0.359375,-0.953125 0.359375,-1.34375 0,-0.109375 0,-0.40625 -0.25,-0.609375 -0.125,-0.078125 -0.328125,-0.1875 -0.65625,-0.1875 -0.625,0 -1,0.421875 -1.234375,0.703125 C 3.90625,-2.96875 3.40625,-3.078125 3.046875,-3.078125 2.46875,-3.078125 2.078125,-2.71875 1.875,-2.4375 1.828125,-2.921875 1.421875,-3.078125 1.125,-3.078125 c -0.296875,0 -0.453125,0.21875 -0.546875,0.375 -0.15625,0.265625 -0.25,0.65625 -0.25,0.703125 0,0.078125 0.09375,0.078125 0.125,0.078125 0.09375,0 0.09375,-0.015625 0.140625,-0.203125 0.109375,-0.40625 0.25,-0.75 0.515625,-0.75 0.1875,0 0.234375,0.15625 0.234375,0.34375 0,0.125 -0.0625,0.390625 -0.125,0.578125 -0.046875,0.1875 -0.109375,0.46875 -0.140625,0.625 L 0.84375,-0.4375 c -0.015625,0.09375 -0.0625,0.265625 -0.0625,0.28125 0,0.15625 0.125,0.21875 0.234375,0.21875 0.125,0 0.234375,-0.078125 0.28125,-0.140625 0.03125,-0.0625 0.078125,-0.296875 0.125,-0.4375 0.03125,-0.125 0.109375,-0.453125 0.140625,-0.625 0.046875,-0.15625 0.09375,-0.3125 0.125,-0.46875 0.078125,-0.28125 0.09375,-0.34375 0.296875,-0.625 C 2.171875,-2.515625 2.5,-2.875 3.03125,-2.875 c 0.390625,0 0.40625,0.359375 0.40625,0.484375 0,0.171875 -0.015625,0.265625 -0.125,0.65625 z m 0,0"
                 id="path4673" /></symbol><symbol
               style="overflow:visible"
               overflow="visible"
               id="textext-afbea234-4"><path
                 inkscape:connector-curvature="0"
                 style="stroke:none"
                 d="m 2.9375,-2.65625 c -0.140625,-0.234375 -0.375,-0.421875 -0.71875,-0.421875 -0.890625,0 -1.796875,0.984375 -1.796875,1.984375 0,0.6875 0.453125,1.15625 1.0625,1.15625 0.375,0 0.703125,-0.203125 0.984375,-0.484375 C 2.59375,0 3,0.0625 3.1875,0.0625 c 0.25,0 0.421875,-0.140625 0.546875,-0.359375 0.15625,-0.28125 0.25,-0.671875 0.25,-0.703125 0,-0.09375 -0.09375,-0.09375 -0.109375,-0.09375 -0.109375,0 -0.109375,0.03125 -0.15625,0.21875 C 3.625,-0.53125 3.5,-0.125 3.203125,-0.125 3.03125,-0.125 2.96875,-0.28125 2.96875,-0.46875 c 0,-0.109375 0.0625,-0.375 0.109375,-0.546875 0.046875,-0.1875 0.125,-0.46875 0.15625,-0.625 L 3.375,-2.171875 C 3.421875,-2.359375 3.5,-2.6875 3.5,-2.71875 3.5,-2.875 3.375,-2.9375 3.265625,-2.9375 c -0.125,0 -0.28125,0.078125 -0.328125,0.28125 z M 2.5,-0.875 C 2.453125,-0.671875 2.296875,-0.53125 2.140625,-0.40625 2.078125,-0.34375 1.796875,-0.125 1.5,-0.125 c -0.265625,0 -0.515625,-0.1875 -0.515625,-0.671875 0,-0.375 0.203125,-1.140625 0.375,-1.421875 0.3125,-0.5625 0.671875,-0.65625 0.859375,-0.65625 0.484375,0 0.625,0.53125 0.625,0.609375 0,0.015625 -0.015625,0.078125 -0.015625,0.09375 z m 0,0"
                 id="path4676" /></symbol><symbol
               style="overflow:visible"
               overflow="visible"
               id="textext-afbea234-5"><path
                 inkscape:connector-curvature="0"
                 style="stroke:none"
                 d="M 1.734375,-0.734375 C 1.671875,-0.5 1.4375,-0.125 1.078125,-0.125 c -0.015625,0 -0.234375,0 -0.375,-0.09375 0.28125,-0.09375 0.3125,-0.34375 0.3125,-0.390625 0,-0.15625 -0.125,-0.25 -0.28125,-0.25 -0.203125,0 -0.40625,0.15625 -0.40625,0.421875 0,0.34375 0.390625,0.5 0.734375,0.5 0.328125,0 0.609375,-0.1875 0.78125,-0.484375 C 2.015625,-0.0625 2.390625,0.0625 2.671875,0.0625 c 0.8125,0 1.234375,-0.859375 1.234375,-1.0625 0,-0.09375 -0.09375,-0.09375 -0.109375,-0.09375 -0.109375,0 -0.109375,0.046875 -0.140625,0.125 -0.140625,0.484375 -0.5625,0.84375 -0.953125,0.84375 -0.28125,0 -0.421875,-0.1875 -0.421875,-0.453125 0,-0.1875 0.171875,-0.8125 0.359375,-1.59375 C 2.78125,-2.703125 3.09375,-2.875 3.328125,-2.875 c 0.015625,0 0.21875,0 0.375,0.09375 -0.21875,0.0625 -0.3125,0.265625 -0.3125,0.390625 0,0.140625 0.125,0.25 0.28125,0.25 0.15625,0 0.390625,-0.125 0.390625,-0.421875 0,-0.390625 -0.453125,-0.515625 -0.71875,-0.515625 -0.359375,0 -0.640625,0.234375 -0.78125,0.5 -0.125,-0.28125 -0.453125,-0.5 -0.84375,-0.5 C 0.9375,-3.078125 0.5,-2.21875 0.5,-2 c 0,0.078125 0.09375,0.078125 0.109375,0.078125 0.09375,0 0.09375,-0.015625 0.140625,-0.109375 C 0.921875,-2.578125 1.359375,-2.875 1.703125,-2.875 1.9375,-2.875 2.125,-2.75 2.125,-2.421875 2.125,-2.28125 2.03125,-1.9375 1.96875,-1.6875 Z m 0,0"
                 id="path4679" /></symbol></g></defs><g
           id="textext-afbea234-6"><g
             style="fill:#000000;fill-opacity:1"
             id="g4682"><use
               height="100%"
               width="100%"
               xlink:href="#textext-afbea234-1"
               x="223.43201"
               y="134.765"
               id="use4684" /></g><g
             style="fill:#000000;fill-opacity:1"
             id="g4686"><use
               height="100%"
               width="100%"
               xlink:href="#textext-afbea234-3"
               x="227.86"
               y="136.259"
               id="use4688" /><use
               height="100%"
               width="100%"
               xlink:href="#textext-afbea234-4"
               x="234.92934"
               y="136.259"
               id="use4690" /><use
               height="100%"
               width="100%"
               xlink:href="#textext-afbea234-5"
               x="239.25101"
               y="136.259"
               id="use4692" /></g></g></g><g
         id="g4947"
         ns0:preamble="/home/ken/.config/inkscape/textextpreamble.txt"
         ns0:text="$P$ (mN)"
         transform="matrix(0,28.129923,28.129923,0,-2865.7371,-4964.2063)"><defs
           id="defs4949"><g
             id="g4951"><symbol
               id="textext-26e60b39-0"
               overflow="visible"
               style="overflow:visible"><path
                 id="path4954"
                 d=""
                 style="stroke:none"
                 inkscape:connector-curvature="0" /></symbol><symbol
               id="textext-26e60b39-1"
               overflow="visible"
               style="overflow:visible"><path
                 id="path4957"
                 d="m 3.015625,-3.15625 1.703125,0 c 1.40625,0 2.796875,-1.03125 2.796875,-2.140625 0,-0.78125 -0.65625,-1.515625 -1.96875,-1.515625 l -3.21875,0 c -0.1875,0 -0.296875,0 -0.296875,0.1875 0,0.125 0.078125,0.125 0.28125,0.125 0.125,0 0.3125,0.015625 0.421875,0.015625 0.171875,0.03125 0.21875,0.046875 0.21875,0.171875 0,0.03125 0,0.0625 -0.03125,0.1875 l -1.34375,5.34375 c -0.09375,0.390625 -0.109375,0.46875 -0.90625,0.46875 -0.15625,0 -0.265625,0 -0.265625,0.1875 C 0.40625,0 0.515625,0 0.546875,0 0.828125,0 1.53125,-0.03125 1.8125,-0.03125 c 0.21875,0 0.4375,0.015625 0.640625,0.015625 0.21875,0 0.4375,0.015625 0.640625,0.015625 0.078125,0 0.203125,0 0.203125,-0.203125 0,-0.109375 -0.09375,-0.109375 -0.28125,-0.109375 -0.359375,0 -0.640625,0 -0.640625,-0.171875 0,-0.0625 0.015625,-0.109375 0.03125,-0.171875 z M 3.734375,-6.125 C 3.828125,-6.46875 3.84375,-6.5 4.28125,-6.5 l 0.953125,0 c 0.828125,0 1.359375,0.265625 1.359375,0.953125 0,0.390625 -0.203125,1.25 -0.59375,1.609375 -0.5,0.453125 -1.09375,0.53125 -1.53125,0.53125 l -1.40625,0 z m 0,0"
                 style="stroke:none"
                 inkscape:connector-curvature="0" /></symbol><symbol
               id="textext-26e60b39-2"
               overflow="visible"
               style="overflow:visible"><path
                 id="path4960"
                 d=""
                 style="stroke:none"
                 inkscape:connector-curvature="0" /></symbol><symbol
               id="textext-26e60b39-3"
               overflow="visible"
               style="overflow:visible"><path
                 id="path4963"
                 d="m 3.296875,2.390625 c 0,-0.03125 0,-0.046875 -0.171875,-0.21875 C 1.890625,0.921875 1.5625,-0.96875 1.5625,-2.5 c 0,-1.734375 0.375,-3.46875 1.609375,-4.703125 0.125,-0.125 0.125,-0.140625 0.125,-0.171875 0,-0.078125 -0.03125,-0.109375 -0.09375,-0.109375 -0.109375,0 -1,0.6875 -1.59375,1.953125 -0.5,1.09375 -0.625,2.203125 -0.625,3.03125 0,0.78125 0.109375,1.984375 0.65625,3.125 C 2.25,1.84375 3.09375,2.5 3.203125,2.5 c 0.0625,0 0.09375,-0.03125 0.09375,-0.109375 z m 0,0"
                 style="stroke:none"
                 inkscape:connector-curvature="0" /></symbol><symbol
               id="textext-26e60b39-4"
               overflow="visible"
               style="overflow:visible"><path
                 id="path4966"
                 d="m 1.09375,-3.421875 0,2.671875 c 0,0.4375 -0.109375,0.4375 -0.78125,0.4375 l 0,0.3125 c 0.359375,-0.015625 0.859375,-0.03125 1.140625,-0.03125 0.25,0 0.765625,0.015625 1.109375,0.03125 l 0,-0.3125 c -0.671875,0 -0.78125,0 -0.78125,-0.4375 l 0,-1.84375 C 1.78125,-3.625 2.5,-4.1875 3.125,-4.1875 c 0.640625,0 0.75,0.53125 0.75,1.109375 l 0,2.328125 c 0,0.4375 -0.109375,0.4375 -0.78125,0.4375 l 0,0.3125 c 0.34375,-0.015625 0.859375,-0.03125 1.125,-0.03125 0.25,0 0.78125,0.015625 1.109375,0.03125 l 0,-0.3125 c -0.65625,0 -0.765625,0 -0.765625,-0.4375 l 0,-1.84375 c 0,-1.03125 0.703125,-1.59375 1.34375,-1.59375 0.625,0 0.734375,0.53125 0.734375,1.109375 l 0,2.328125 c 0,0.4375 -0.109375,0.4375 -0.78125,0.4375 l 0,0.3125 c 0.34375,-0.015625 0.859375,-0.03125 1.125,-0.03125 0.265625,0 0.78125,0.015625 1.125,0.03125 l 0,-0.3125 c -0.515625,0 -0.765625,0 -0.78125,-0.296875 l 0,-1.90625 c 0,-0.859375 0,-1.15625 -0.3125,-1.515625 -0.140625,-0.171875 -0.46875,-0.375 -1.046875,-0.375 -0.828125,0 -1.28125,0.59375 -1.4375,0.984375 C 4.390625,-4.296875 3.65625,-4.40625 3.203125,-4.40625 2.46875,-4.40625 2,-3.984375 1.71875,-3.359375 l 0,-1.046875 -1.40625,0.109375 0,0.3125 c 0.703125,0 0.78125,0.0625 0.78125,0.5625 z m 0,0"
                 style="stroke:none"
                 inkscape:connector-curvature="0" /></symbol><symbol
               id="textext-26e60b39-5"
               overflow="visible"
               style="overflow:visible"><path
                 id="path4969"
                 d="M 2.3125,-6.671875 C 2.21875,-6.796875 2.21875,-6.8125 2.03125,-6.8125 l -1.703125,0 0,0.3125 0.296875,0 c 0.140625,0 0.34375,0.015625 0.484375,0.015625 0.234375,0.03125 0.25,0.046875 0.25,0.234375 l 0,5.203125 c 0,0.265625 0,0.734375 -1.03125,0.734375 l 0,0.3125 C 0.671875,-0.015625 1.171875,-0.03125 1.5,-0.03125 c 0.328125,0 0.8125,0.015625 1.15625,0.03125 l 0,-0.3125 c -1.015625,0 -1.015625,-0.46875 -1.015625,-0.734375 l 0,-5.1875 c 0.046875,0.046875 0.046875,0.0625 0.09375,0.125 L 5.796875,-0.125 C 5.890625,-0.015625 5.90625,0 5.96875,0 6.109375,0 6.109375,-0.0625 6.109375,-0.265625 l 0,-5.5 c 0,-0.265625 0,-0.734375 1.03125,-0.734375 l 0,-0.3125 c -0.359375,0.015625 -0.84375,0.03125 -1.171875,0.03125 -0.328125,0 -0.8125,-0.015625 -1.15625,-0.03125 l 0,0.3125 c 1.015625,0 1.015625,0.46875 1.015625,0.734375 l 0,4.265625 z m 0,0"
                 style="stroke:none"
                 inkscape:connector-curvature="0" /></symbol><symbol
               id="textext-26e60b39-6"
               overflow="visible"
               style="overflow:visible"><path
                 id="path4972"
                 d="m 2.875,-2.5 c 0,-0.765625 -0.109375,-1.96875 -0.65625,-3.109375 -0.59375,-1.21875 -1.453125,-1.875 -1.546875,-1.875 -0.0625,0 -0.109375,0.046875 -0.109375,0.109375 0,0.03125 0,0.046875 0.1875,0.234375 0.984375,0.984375 1.546875,2.5625 1.546875,4.640625 0,1.71875 -0.359375,3.46875 -1.59375,4.71875 C 0.5625,2.34375 0.5625,2.359375 0.5625,2.390625 0.5625,2.453125 0.609375,2.5 0.671875,2.5 0.765625,2.5 1.671875,1.8125 2.25,0.546875 2.765625,-0.546875 2.875,-1.65625 2.875,-2.5 Z m 0,0"
                 style="stroke:none"
                 inkscape:connector-curvature="0" /></symbol></g></defs><g
           id="textext-26e60b39-7"><g
             id="g4975"
             style="fill:#000000;fill-opacity:1"><use
               id="use4977"
               y="134.765"
               x="223.43201"
               xlink:href="#textext-26e60b39-1"
               width="100%"
               height="100%" /></g><g
             id="g4979"
             style="fill:#000000;fill-opacity:1"><use
               id="use4981"
               y="134.765"
               x="234.533"
               xlink:href="#textext-26e60b39-3"
               width="100%"
               height="100%" /><use
               id="use4983"
               y="134.765"
               x="238.40746"
               xlink:href="#textext-26e60b39-4"
               width="100%"
               height="100%" /><use
               id="use4985"
               y="134.765"
               x="246.70929"
               xlink:href="#textext-26e60b39-5"
               width="100%"
               height="100%" /><use
               id="use4987"
               y="134.765"
               x="254.18124"
               xlink:href="#textext-26e60b39-6"
               width="100%"
               height="100%" /></g></g></g><g
         ns0:text="$\\delta$ (nm)"
         ns0:preamble="/home/ken/.config/inkscape/textextpreamble.txt"
         transform="matrix(30.925904,0,0,-30.925904,-4548.8832,4062.6256)"
         id="g5370"><defs
           id="defs5372"><g
             id="g5374"><symbol
               style="overflow:visible"
               overflow="visible"
               id="textext-e6992883-0"><path
                 inkscape:connector-curvature="0"
                 style="stroke:none"
                 d=""
                 id="path5377" /></symbol><symbol
               style="overflow:visible"
               overflow="visible"
               id="textext-e6992883-1"><path
                 inkscape:connector-curvature="0"
                 style="stroke:none"
                 d="M 2.625,-4.359375 C 1.390625,-4.0625 0.421875,-2.765625 0.421875,-1.5625 0.421875,-0.59375 1.0625,0.125 2,0.125 c 1.15625,0 1.984375,-1.578125 1.984375,-2.953125 0,-0.90625 -0.390625,-1.40625 -0.734375,-1.84375 C 2.890625,-5.125 2.296875,-5.875 2.296875,-6.3125 c 0,-0.21875 0.203125,-0.453125 0.546875,-0.453125 0.3125,0 0.5,0.125 0.71875,0.265625 0.203125,0.125 0.390625,0.25 0.546875,0.25 C 4.359375,-6.25 4.5,-6.484375 4.5,-6.65625 4.5,-6.875 4.34375,-6.890625 3.984375,-6.984375 3.46875,-7.09375 3.328125,-7.09375 3.171875,-7.09375 c -0.78125,0 -1.140625,0.4375 -1.140625,1.03125 0,0.546875 0.296875,1.09375 0.59375,1.703125 z m 0.125,0.21875 c 0.25,0.46875 0.546875,1 0.546875,1.71875 0,0.65625 -0.375,2.328125 -1.296875,2.328125 -0.546875,0 -0.96875,-0.421875 -0.96875,-1.1875 0,-0.625 0.375,-2.5 1.71875,-2.859375 z m 0,0"
                 id="path5380" /></symbol><symbol
               style="overflow:visible"
               overflow="visible"
               id="textext-e6992883-2"><path
                 inkscape:connector-curvature="0"
                 style="stroke:none"
                 d=""
                 id="path5383" /></symbol><symbol
               style="overflow:visible"
               overflow="visible"
               id="textext-e6992883-3"><path
                 inkscape:connector-curvature="0"
                 style="stroke:none"
                 d="m 3.296875,2.390625 c 0,-0.03125 0,-0.046875 -0.171875,-0.21875 C 1.890625,0.921875 1.5625,-0.96875 1.5625,-2.5 c 0,-1.734375 0.375,-3.46875 1.609375,-4.703125 0.125,-0.125 0.125,-0.140625 0.125,-0.171875 0,-0.078125 -0.03125,-0.109375 -0.09375,-0.109375 -0.109375,0 -1,0.6875 -1.59375,1.953125 -0.5,1.09375 -0.625,2.203125 -0.625,3.03125 0,0.78125 0.109375,1.984375 0.65625,3.125 C 2.25,1.84375 3.09375,2.5 3.203125,2.5 c 0.0625,0 0.09375,-0.03125 0.09375,-0.109375 z m 0,0"
                 id="path5386" /></symbol><symbol
               style="overflow:visible"
               overflow="visible"
               id="textext-e6992883-4"><path
                 inkscape:connector-curvature="0"
                 style="stroke:none"
                 d="m 1.09375,-3.421875 0,2.671875 c 0,0.4375 -0.109375,0.4375 -0.78125,0.4375 l 0,0.3125 c 0.359375,-0.015625 0.859375,-0.03125 1.140625,-0.03125 0.25,0 0.765625,0.015625 1.109375,0.03125 l 0,-0.3125 c -0.671875,0 -0.78125,0 -0.78125,-0.4375 l 0,-1.84375 C 1.78125,-3.625 2.5,-4.1875 3.125,-4.1875 c 0.640625,0 0.75,0.53125 0.75,1.109375 l 0,2.328125 c 0,0.4375 -0.109375,0.4375 -0.78125,0.4375 l 0,0.3125 c 0.34375,-0.015625 0.859375,-0.03125 1.125,-0.03125 0.25,0 0.78125,0.015625 1.109375,0.03125 l 0,-0.3125 c -0.515625,0 -0.765625,0 -0.765625,-0.296875 l 0,-1.90625 c 0,-0.859375 0,-1.15625 -0.3125,-1.515625 -0.140625,-0.171875 -0.46875,-0.375 -1.046875,-0.375 C 2.46875,-4.40625 2,-3.984375 1.71875,-3.359375 l 0,-1.046875 -1.40625,0.109375 0,0.3125 c 0.703125,0 0.78125,0.0625 0.78125,0.5625 z m 0,0"
                 id="path5389" /></symbol><symbol
               style="overflow:visible"
               overflow="visible"
               id="textext-e6992883-5"><path
                 inkscape:connector-curvature="0"
                 style="stroke:none"
                 d="m 1.09375,-3.421875 0,2.671875 c 0,0.4375 -0.109375,0.4375 -0.78125,0.4375 l 0,0.3125 c 0.359375,-0.015625 0.859375,-0.03125 1.140625,-0.03125 0.25,0 0.765625,0.015625 1.109375,0.03125 l 0,-0.3125 c -0.671875,0 -0.78125,0 -0.78125,-0.4375 l 0,-1.84375 C 1.78125,-3.625 2.5,-4.1875 3.125,-4.1875 c 0.640625,0 0.75,0.53125 0.75,1.109375 l 0,2.328125 c 0,0.4375 -0.109375,0.4375 -0.78125,0.4375 l 0,0.3125 c 0.34375,-0.015625 0.859375,-0.03125 1.125,-0.03125 0.25,0 0.78125,0.015625 1.109375,0.03125 l 0,-0.3125 c -0.65625,0 -0.765625,0 -0.765625,-0.4375 l 0,-1.84375 c 0,-1.03125 0.703125,-1.59375 1.34375,-1.59375 0.625,0 0.734375,0.53125 0.734375,1.109375 l 0,2.328125 c 0,0.4375 -0.109375,0.4375 -0.78125,0.4375 l 0,0.3125 c 0.34375,-0.015625 0.859375,-0.03125 1.125,-0.03125 0.265625,0 0.78125,0.015625 1.125,0.03125 l 0,-0.3125 c -0.515625,0 -0.765625,0 -0.78125,-0.296875 l 0,-1.90625 c 0,-0.859375 0,-1.15625 -0.3125,-1.515625 -0.140625,-0.171875 -0.46875,-0.375 -1.046875,-0.375 -0.828125,0 -1.28125,0.59375 -1.4375,0.984375 C 4.390625,-4.296875 3.65625,-4.40625 3.203125,-4.40625 2.46875,-4.40625 2,-3.984375 1.71875,-3.359375 l 0,-1.046875 -1.40625,0.109375 0,0.3125 c 0.703125,0 0.78125,0.0625 0.78125,0.5625 z m 0,0"
                 id="path5392" /></symbol><symbol
               style="overflow:visible"
               overflow="visible"
               id="textext-e6992883-6"><path
                 inkscape:connector-curvature="0"
                 style="stroke:none"
                 d="m 2.875,-2.5 c 0,-0.765625 -0.109375,-1.96875 -0.65625,-3.109375 -0.59375,-1.21875 -1.453125,-1.875 -1.546875,-1.875 -0.0625,0 -0.109375,0.046875 -0.109375,0.109375 0,0.03125 0,0.046875 0.1875,0.234375 0.984375,0.984375 1.546875,2.5625 1.546875,4.640625 0,1.71875 -0.359375,3.46875 -1.59375,4.71875 C 0.5625,2.34375 0.5625,2.359375 0.5625,2.390625 0.5625,2.453125 0.609375,2.5 0.671875,2.5 0.765625,2.5 1.671875,1.8125 2.25,0.546875 2.765625,-0.546875 2.875,-1.65625 2.875,-2.5 Z m 0,0"
                 id="path5395" /></symbol></g></defs><g
           id="textext-e6992883-7"><g
             style="fill:#000000;fill-opacity:1"
             id="g5398"><use
               height="100%"
               width="100%"
               xlink:href="#textext-e6992883-1"
               x="223.43201"
               y="134.765"
               id="use5400" /></g><g
             style="fill:#000000;fill-opacity:1"
             id="g5402"><use
               height="100%"
               width="100%"
               xlink:href="#textext-e6992883-3"
               x="231.558"
               y="134.765"
               id="use5404" /><use
               height="100%"
               width="100%"
               xlink:href="#textext-e6992883-4"
               x="235.43245"
               y="134.765"
               id="use5406" /><use
               height="100%"
               width="100%"
               xlink:href="#textext-e6992883-5"
               x="240.96768"
               y="134.765"
               id="use5408" /><use
               height="100%"
               width="100%"
               xlink:href="#textext-e6992883-6"
               x="249.26952"
               y="134.765"
               id="use5410" /></g></g></g><g
         id="g5830"
         transform="matrix(23.48808,0,0,-23.48808,-1334.7309,4475.9678)"
         ns0:preamble="/home/ken/.config/inkscape/textextpreamble.txt"
         ns0:text="$S$"><defs
           id="defs5832"><g
             id="g5834"><symbol
               id="textext-15231aae-0"
               overflow="visible"
               style="overflow:visible"><path
                 id="path5837"
                 d=""
                 style="stroke:none"
                 inkscape:connector-curvature="0" /></symbol><symbol
               id="textext-15231aae-1"
               overflow="visible"
               style="overflow:visible"><path
                 id="path5840"
                 d="m 6.4375,-6.921875 c 0,-0.03125 -0.03125,-0.109375 -0.125,-0.109375 -0.046875,0 -0.046875,0.015625 -0.171875,0.15625 L 5.65625,-6.3125 c -0.25,-0.46875 -0.765625,-0.71875 -1.421875,-0.71875 -1.265625,0 -2.453125,1.15625 -2.453125,2.359375 0,0.796875 0.515625,1.265625 1.03125,1.40625 l 1.0625,0.28125 c 0.375,0.09375 0.921875,0.25 0.921875,1.0625 0,0.890625 -0.8125,1.828125 -1.796875,1.828125 -0.640625,0 -1.75,-0.21875 -1.75,-1.453125 0,-0.234375 0.0625,-0.484375 0.0625,-0.53125 0.015625,-0.046875 0.015625,-0.0625 0.015625,-0.078125 0,-0.09375 -0.0625,-0.109375 -0.109375,-0.109375 -0.046875,0 -0.078125,0.015625 -0.109375,0.046875 -0.03125,0.03125 -0.59375,2.3125 -0.59375,2.34375 0,0.046875 0.046875,0.09375 0.109375,0.09375 0.046875,0 0.0625,-0.015625 0.1875,-0.15625 L 1.296875,-0.5 c 0.421875,0.578125 1.109375,0.71875 1.6875,0.71875 1.359375,0 2.53125,-1.328125 2.53125,-2.5625 0,-0.6875 -0.34375,-1.03125 -0.484375,-1.171875 C 4.796875,-3.734375 4.640625,-3.78125 3.765625,-4 3.53125,-4.0625 3.1875,-4.171875 3.09375,-4.1875 2.828125,-4.28125 2.484375,-4.5625 2.484375,-5.09375 c 0,-0.8125 0.796875,-1.65625 1.75,-1.65625 0.8125,0 1.421875,0.4375 1.421875,1.546875 0,0.3125 -0.03125,0.5 -0.03125,0.5625 0,0 0,0.09375 0.109375,0.09375 0.109375,0 0.125,-0.03125 0.15625,-0.203125 z m 0,0"
                 style="stroke:none"
                 inkscape:connector-curvature="0" /></symbol></g></defs><g
           id="textext-15231aae-2"><g
             id="g5843"
             style="fill:#000000;fill-opacity:1"><use
               id="use5845"
               y="134.765"
               x="223.43201"
               xlink:href="#textext-15231aae-1"
               width="100%"
               height="100%" /></g></g></g></g></g></svg>