<?xml version="1.0" encoding="utf-8"?>
<!-- Generator: Adobe Illustrator 12.0.1, SVG Export Plug-In . SVG Version: 6.00 Build 51448)  -->
<!DOCTYPE svg PUBLIC "-//W3C//DTD SVG 1.1//EN" "http://www.w3.org/Graphics/SVG/1.1/DTD/svg11.dtd" [
	<!ENTITY ns_svg "http://www.w3.org/2000/svg">
	<!ENTITY ns_xlink "http://www.w3.org/1999/xlink">
	<!ENTITY st0 "font-family:'Bitstream Vera Sans',Verdana,sans-serif;">
	<!ENTITY st1 "fill:#61E1FF;stroke:#000000;stroke-width:1.117;">
	<!ENTITY st2 "fill:#FF4000;stroke:#000000;">
	<!ENTITY st3 "fill:#E6E6E6;">
	<!ENTITY st4 "fill:#00A0C6;stroke:#000000;stroke-width:1.2476;">
	<!ENTITY st5 "fill:none;stroke:#000000;stroke-width:1.5;">
	<!ENTITY st6 "fill:#00A0C6;stroke:#000000;stroke-width:1.117;">
	<!ENTITY st7 "fill:#FFFFFF;">
	<!ENTITY st8 "fill:#CCCCCC;">
	<!ENTITY st9 "fill:#FFBF00;stroke:#000000;stroke-width:1.117;">
	<!ENTITY st10 "fill:#61E1FF;stroke:#000000;stroke-width:1.2476;">
	<!ENTITY st11 "font-size:16;">
	<!ENTITY st12 "font-size:24;">
	<!ENTITY st13 "fill:#FFBF00;stroke:#000000;stroke-width:1.2476;">
]>
<svg  version="1.1" id="Layer_2" xmlns="&ns_svg;" xmlns:xlink="&ns_xlink;" width="508" height="570" viewBox="0 0 508 570"
	 style="overflow:visible;enable-background:new 0 0 508 570;" xml:space="preserve">
<rect style="&st7;" width="508" height="570"/>
<rect x="224.6" y="131" style="&st8;" width="76" height="359"/>
<rect x="300.6" y="131" style="&st3;" width="38" height="359"/>
<rect x="186.6" y="131" style="&st3;" width="38" height="359"/>
<line style="&st5;" x1="81.6" y1="131" x2="443.6" y2="131"/>
<line style="&st5;" x1="81.6" y1="490" x2="443.6" y2="490"/>
<polyline style="&st5;" points="81.6,438.5 130.6,438.5 130.6,182.5 81.6,182.5 "/>
<polyline style="&st5;" points="443.6,182.5 394.6,182.5 394.6,438.5 443.6,438.5 "/>
<g>
	<g>
		<line style="&st5;" x1="186.6" y1="131" x2="186.6" y2="490"/>
		<line style="&st5;" x1="224.6" y1="131" x2="224.6" y2="490"/>
	</g>
	<g>
		<line style="&st5;" x1="300.6" y1="131" x2="300.6" y2="490"/>
		<line style="&st5;" x1="338.6" y1="131" x2="338.6" y2="490"/>
	</g>
</g>
<g>
	<g>
		<circle style="&st5;" cx="262.8" cy="70.6" r="22.28"/>
		<path style="&st5;" d="M242.25,79.25c1.29,2.85,3.02,4.82,5.13,4.82c7.7,0,10.26-26.03,5.13-26.03s-2.56,26.03,5.13,26.03
			c7.7,0,10.27-26.03,5.13-26.03s-2.57,26.03,5.13,26.03c7.7,0,10.26-26.03,5.13-26.03c-5.13,0-2.57,26.03,5.13,26.03
			c1.93,0,3.53-1.63,4.77-4.07"/>
	</g>
	<polyline style="&st5;" points="282.95,80 324.15,80 324.15,131 	"/>
	<polyline style="&st5;" points="242.25,79.25 201.05,79.25 201.05,130.25 	"/>
</g>
<polygon style="&st2;" points="211.94,153.84 204.67,136.28 197.41,153.84 201.53,153.84 201.53,176.67 207.82,176.67 
	207.82,153.84 "/>
<polygon style="&st2;" points="211.94,231.84 204.67,214.28 197.41,231.84 201.53,231.84 201.53,254.67 207.82,254.67 
	207.82,231.84 "/>
<polygon style="&st2;" points="311.74,196.45 319.01,214 326.27,196.45 322.16,196.45 322.16,173.62 315.86,173.62 315.86,196.45 
	"/>
<polygon style="&st2;" points="305.74,116.45 313.01,134 320.27,116.45 316.16,116.45 316.16,93.62 309.86,93.62 309.86,116.45 "/>
<polygon style="&st2;" points="219,76.29 236.56,69.03 219,61.77 219,65.88 196.17,65.88 196.17,72.18 219,72.18 "/>
<polygon style="&st13;" points="112.3,167.75 134.2,158.68 112.3,149.62 112.3,154.75 83.81,154.75 83.81,162.61 112.3,162.61 "/>
<polygon style="&st10;" points="413.05,149.62 391.14,158.68 413.05,167.75 413.05,162.61 441.53,162.61 441.53,154.75 
	413.05,154.75 "/>
<polygon style="&st10;" points="427.62,471.74 449.53,462.68 427.62,453.62 427.62,458.75 399.14,458.75 399.14,466.61 
	427.62,466.61 "/>
<polygon style="&st13;" points="99.71,442.29 77.81,451.35 99.71,460.41 99.71,455.28 128.19,455.28 128.19,447.42 99.71,447.42 "/>
<polygon style="&st4;" points="99.71,466.95 77.81,476.01 99.71,485.08 99.71,479.94 128.19,479.94 128.19,472.09 99.71,472.09 "/>
<polygon style="&st9;" points="191.98,280.41 209.53,271.35 191.98,262.29 191.98,267.42 169.15,267.42 169.15,275.28 
	191.98,275.28 "/>
<polygon style="&st9;" points="191.98,323.75 209.53,314.68 191.98,305.62 191.98,310.75 169.15,310.75 169.15,318.61 
	191.98,318.61 "/>
<polygon style="&st1;" points="330.03,288.95 312.48,298.01 330.03,307.08 330.03,301.94 352.86,301.94 352.86,294.09 
	330.03,294.09 "/>
<polygon style="&st6;" points="186.7,340.95 169.15,350.01 186.7,359.08 186.7,353.94 209.53,353.94 209.53,346.09 186.7,346.09 "/>
<polygon style="&st6;" points="186.7,366.95 169.15,376.01 186.7,385.08 186.7,379.94 209.53,379.94 209.53,372.09 186.7,372.09 "/>
<text transform="matrix(1 0 0 1 203.7646 116.6709)"><tspan x="0" y="0" style="&st0; &st12;">e</tspan><tspan x="14.3" y="-12" style="&st0; &st11;">–</tspan></text>
<text transform="matrix(1 0 0 1 195.0977 204.0039)"><tspan x="0" y="0" style="&st0; &st12;">e</tspan><tspan x="14.3" y="-12" style="&st0; &st11;">–</tspan></text>
<text transform="matrix(1 0 0 1 308.7656 161.3369)"><tspan x="0" y="0" style="&st0; &st12;">e</tspan><tspan x="14.3" y="-12" style="&st0; &st11;">–</tspan></text>
<text transform="matrix(1 0 0 1 308.7656 245.3369)"><tspan x="0" y="0" style="&st0; &st12;">e</tspan><tspan x="14.3" y="-12" style="&st0; &st11;">–</tspan></text>
<text transform="matrix(1 0 0 1 250.6738 265.3369)"><tspan x="0" y="0" style="&st0; &st12;">O</tspan><tspan x="18.89" y="-12" style="&st0; &st11;">=</tspan></text>
<text transform="matrix(1 0 0 1 250.6738 354.0029)"><tspan x="0" y="0" style="&st0; &st12;">O</tspan><tspan x="18.89" y="-12" style="&st0; &st11;">=</tspan></text>
<text transform="matrix(1 0 0 1 400.4883 380.0029)"><tspan x="0" y="0" style="&st0; &st12;">Unused</tspan><tspan x="8.68" y="24" style="&st0; &st12;">Gases</tspan><tspan x="23.08" y="48" style="&st0; &st12;">Out</tspan></text>
<text transform="matrix(1 0 0 1 34.0742 380.0029)"><tspan x="0" y="0" style="&st0; &st12;">Excess</tspan><tspan x="-10.83" y="24" style="&st0; &st12;">Fuel and</tspan><tspan x="4.52" y="48" style="&st0; &st12;">Water</tspan></text>
<text transform="matrix(1 0 0 1 122.2979 526.0029)" style="&st0; &st12;">Anode</text>
<text transform="matrix(1 0 0 1 330.8535 526.0029)" style="&st0; &st12;">Cathode</text>
<text transform="matrix(1 0 0 1 200.3184 549.3369)" style="&st0; &st12;">Electrolyte</text>
<text transform="matrix(1 0 0 1 170.4238 38.6709)" style="&st0; &st12;">Electric Current</text>
<text transform="matrix(1 0 0 1 373.8545 122.6699)" style="&st0; &st12;">Air In</text>
<text transform="matrix(1 0 0 1 76.874 122.6699)" style="&st0; &st12;">Fuel In</text>
<text transform="matrix(1 0 0 1 135.1167 419.3369)"><tspan x="0" y="0" style="&st0; &st12;">H</tspan><tspan x="18.04" y="4" style="&st0; &st11;">2</tspan><tspan x="28.21" y="0" style="&st0; &st12;">O</tspan></text>
<text transform="matrix(1 0 0 1 146.5615 298.0029)"><tspan x="0" y="0" style="&st0; &st12;">H</tspan><tspan x="18.04" y="4" style="&st0; &st11;">2</tspan></text>
<text transform="matrix(1 0 0 1 346.1318 333.3369)"><tspan x="0" y="0" style="&st0; &st12;">O</tspan><tspan x="18.89" y="4" style="&st0; &st11;">2</tspan></text>
<line style="&st5;" x1="196.67" y1="490" x2="190" y2="507.34"/>
<line style="&st5;" x1="326.55" y1="490" x2="333.22" y2="507.34"/>
<line style="&st5;" x1="261.33" y1="490" x2="261.33" y2="524.67"/>
</svg>
