<?xml version="1.0" encoding="UTF-8" standalone="no"?>
<svg
   xmlns:ns0="http://www.iki.fi/pav/software/textext/"
   xmlns:dc="http://purl.org/dc/elements/1.1/"
   xmlns:cc="http://creativecommons.org/ns#"
   xmlns:rdf="http://www.w3.org/1999/02/22-rdf-syntax-ns#"
   xmlns:svg="http://www.w3.org/2000/svg"
   xmlns="http://www.w3.org/2000/svg"
   xmlns:xlink="http://www.w3.org/1999/xlink"
   xmlns:sodipodi="http://sodipodi.sourceforge.net/DTD/sodipodi-0.dtd"
   xmlns:inkscape="http://www.inkscape.org/namespaces/inkscape"
   viewBox="0 0 603.22977 410.32953"
   id="svg2"
   version="1.1"
   inkscape:version="0.48.4 r9939"
   width="100%"
   height="100%"
   sodipodi:docname="stable neck unlabeled solution.svg">
  <sodipodi:namedview
     pagecolor="#ffffff"
     bordercolor="#666666"
     borderopacity="1"
     objecttolerance="10"
     gridtolerance="10"
     guidetolerance="10"
     inkscape:pageopacity="0"
     inkscape:pageshadow="2"
     inkscape:window-width="1920"
     inkscape:window-height="1055"
     id="namedview114"
     showgrid="true"
     inkscape:zoom="1.3906433"
     inkscape:cx="211.12649"
     inkscape:cy="249.97416"
     inkscape:window-x="0"
     inkscape:window-y="0"
     inkscape:window-maximized="1"
     inkscape:current-layer="svg2"
     inkscape:snap-global="false">
    <inkscape:grid
       originy="-220.49546px"
       originx="-201.81287px"
       id="grid3411"
       type="xygrid" />
  </sodipodi:namedview>
  <metadata
     id="metadata116">
    <rdf:RDF>
      <cc:Work
         rdf:about="">
        <dc:format>image/svg+xml</dc:format>
        <dc:type
           rdf:resource="http://purl.org/dc/dcmitype/StillImage" />
        <dc:title></dc:title>
      </cc:Work>
    </rdf:RDF>
  </metadata>
  <desc
     id="desc4">Produced by GNUPLOT 4.2 patchlevel 3  </desc>
  <defs
     id="defs6">
    <marker
       style="overflow:visible"
       id="Arrow2Mend"
       refX="0"
       refY="0"
       orient="auto"
       inkscape:stockid="Arrow2Mend">
      <path
         transform="scale(-0.6,-0.6)"
         d="M 8.7185878,4.0337352 -2.2072895,0.01601326 8.7185884,-4.0017078 c -1.7454984,2.3720609 -1.7354408,5.6174519 -6e-7,8.035443 z"
         style="fill-rule:evenodd;stroke-width:0.625;stroke-linejoin:round"
         id="path4220"
         inkscape:connector-curvature="0" />
    </marker>
    <circle
       sodipodi:ry="1"
       sodipodi:rx="1"
       sodipodi:cy="0"
       sodipodi:cx="0"
       cy="0"
       cx="0"
       r="1"
       id="gpDot" />
    <path
       inkscape:connector-curvature="0"
       d="M -1,0 H 1 M 0,-1 v 2"
       style="stroke-width:0.222"
       id="gpPt0" />
    <path
       inkscape:connector-curvature="0"
       d="M -1,-1 1,1 M 1,-1 -1,1"
       style="stroke-width:0.222"
       id="gpPt1" />
    <path
       inkscape:connector-curvature="0"
       d="M -1,0 1,0 M 0,-1 0,1 m -1,-2 2,2 m -2,0 2,-2"
       style="stroke-width:0.222"
       id="gpPt2" />
    <rect
       height="2"
       width="2"
       y="-1"
       x="-1"
       style="stroke-width:0.222"
       id="gpPt3" />
    <use
       height="480"
       width="600"
       y="0"
       x="0"
       style="fill:currentColor;stroke:none"
       id="gpPt4"
       xlink:href="#gpPt3" />
    <circle
       sodipodi:ry="1"
       sodipodi:rx="1"
       sodipodi:cy="0"
       sodipodi:cx="0"
       r="1"
       cy="0"
       cx="0"
       style="stroke-width:0.222"
       id="gpPt5" />
    <use
       height="480"
       width="600"
       y="0"
       x="0"
       style="fill:currentColor;stroke:none"
       id="gpPt6"
       xlink:href="#gpPt5" />
    <path
       inkscape:connector-curvature="0"
       d="m 0,-1.33 -1.33,2 2.66,0 z"
       style="stroke-width:0.222"
       id="gpPt7" />
    <use
       height="480"
       width="600"
       y="0"
       x="0"
       style="fill:currentColor;stroke:none"
       id="gpPt8"
       xlink:href="#gpPt7" />
    <use
       height="480"
       width="600"
       y="0"
       x="0"
       transform="scale(-1,-1)"
       id="gpPt9"
       xlink:href="#gpPt7" />
    <use
       height="480"
       width="600"
       y="0"
       x="0"
       style="fill:currentColor;stroke:none"
       id="gpPt10"
       xlink:href="#gpPt9" />
    <use
       height="480"
       width="600"
       y="0"
       x="0"
       transform="matrix(0.70710678,0.70710678,-0.70710678,0.70710678,0,0)"
       id="gpPt11"
       xlink:href="#gpPt3" />
    <use
       height="480"
       width="600"
       y="0"
       x="0"
       style="fill:currentColor;stroke:none"
       id="gpPt12"
       xlink:href="#gpPt11" />
    <marker
       style="overflow:visible"
       id="Arrow2Mend-6"
       refX="0"
       refY="0"
       orient="auto"
       inkscape:stockid="Arrow2Mend">
      <path
         inkscape:connector-curvature="0"
         transform="scale(-0.6,-0.6)"
         d="M 8.7185878,4.0337352 -2.2072895,0.01601326 8.7185884,-4.0017078 c -1.7454984,2.3720609 -1.7354408,5.6174519 -6e-7,8.035443 z"
         style="fill-rule:evenodd;stroke-width:0.625;stroke-linejoin:round"
         id="path4220-3" />
    </marker>
    <marker
       style="overflow:visible"
       id="Arrow2Mend-0"
       refX="0"
       refY="0"
       orient="auto"
       inkscape:stockid="Arrow2Mend">
      <path
         inkscape:connector-curvature="0"
         transform="scale(-0.6,-0.6)"
         d="M 8.7185878,4.0337352 -2.2072895,0.01601326 8.7185884,-4.0017078 c -1.7454984,2.3720609 -1.7354408,5.6174519 -6e-7,8.035443 z"
         style="fill-rule:evenodd;stroke-width:0.625;stroke-linejoin:round"
         id="path4220-5" />
    </marker>
  </defs>
  <g
     transform="translate(17.343382,-59.675013)"
     id="g22"
     style="color:#ffffff;fill:none;stroke:currentColor;stroke-width:1;stroke-linecap:butt;stroke-linejoin:miter" />
  <g
     transform="translate(17.343382,-59.675013)"
     id="g24"
     style="color:#ffffff;fill:none;stroke:currentColor;stroke-width:0.64999998;stroke-linecap:butt;stroke-linejoin:miter" />
  <g
     transform="matrix(2.3436851,0,0,2.3436851,58.411725,385.77414)"
     style="font-size:15px;text-anchor:middle;color:#000000;fill:#000000;stroke:none;font-family:verdana"
     id="g30">
    <text
       id="text32">0</text>
  </g>
  <g
     transform="matrix(2.3011141,0,0,2.3011141,164.60747,385.06228)"
     style="font-size:15px;text-anchor:middle;color:#000000;fill:#000000;stroke:none;font-family:verdana"
     id="g36">
    <text
       id="text38">1</text>
  </g>
  <g
     transform="matrix(2.1875112,0,0,2.1875112,273.0139,384.04533)"
     style="font-size:15px;text-anchor:middle;color:#000000;fill:#000000;stroke:none;font-family:verdana"
     id="g42">
    <text
       id="text44">2</text>
  </g>
  <g
     transform="matrix(2.1637762,0,0,2.1637762,374.37571,383.78109)"
     style="font-size:15px;text-anchor:middle;color:#000000;fill:#000000;stroke:none;font-family:verdana"
     id="g48">
    <text
       id="text50">3</text>
  </g>
  <g
     transform="matrix(2.3054831,0,0,2.3054831,485.47353,385.06228)"
     style="font-size:15px;text-anchor:middle;color:#000000;fill:#000000;stroke:none;font-family:verdana"
     id="g54">
    <text
       id="text56">4</text>
  </g>
  <g
     transform="matrix(2.0961641,0,0,2.0961641,595.47665,382.77949)"
     style="font-size:15px;text-anchor:middle;color:#000000;fill:#000000;stroke:none;font-family:verdana"
     id="g60">
    <text
       id="text62">5</text>
  </g>
  <path
     sodipodi:nodetypes="ccccc"
     d="m 57.343382,0.32498727 0,350.00000273 539.999998,0 0,-350.00000273 z"
     id="path64"
     inkscape:connector-curvature="0"
     style="color:#000000;fill:none;stroke:currentColor;stroke-width:0.64999998;stroke-linecap:butt;stroke-linejoin:miter" />
  <g
     transform="matrix(1.8204498,0,0,1.8204498,406.58599,50.871837)"
     style="font-size:15px;text-anchor:middle;color:#000000;fill:#000000;stroke:none;font-family:verdana"
     id="g82">
    <text
       id="text84"
       x="21.725422"
       y="-6.7151303">Fracture</text>
  </g>
  <g
     transform="translate(17.343382,-59.675013)"
     id="g94"
     style="color:#000000;fill:none;stroke:currentColor;stroke-width:0.64999998;stroke-linecap:butt;stroke-linejoin:miter" />
  <g
     transform="translate(17.343382,-59.675013)"
     id="g96"
     style="color:#000000;fill:none;stroke:currentColor;stroke-width:1;stroke-linecap:butt;stroke-linejoin:miter" />
  <g
     transform="translate(17.343382,-59.675013)"
     id="g102"
     style="color:#808080;fill:none;stroke:currentColor;stroke-width:2;stroke-linecap:butt;stroke-linejoin:miter" />
  <g
     transform="translate(17.343382,-59.675013)"
     id="g108"
     style="color:#0000ff;fill:none;stroke:currentColor;stroke-width:0.64999998;stroke-linecap:butt;stroke-linejoin:miter" />
  <g
     ns0:preamble=""
     ns0:text="$\\lambda$"
     word-spacing="normal"
     letter-spacing="normal"
     font-size-adjust="none"
     font-stretch="normal"
     font-weight="normal"
     font-variant="normal"
     font-style="normal"
     stroke-miterlimit="10.433"
     xml:space="preserve"
     transform="matrix(4.3071517,0,0,-4.3071517,-631.46192,3240.602)"
     id="content"
     style="font-style:normal;font-variant:normal;font-weight:normal;font-stretch:normal;letter-spacing:normal;word-spacing:normal;text-anchor:start;fill:none;stroke:#000000;stroke-linecap:butt;stroke-linejoin:miter;stroke-miterlimit:10.43299961;stroke-opacity:1;stroke-dasharray:none;stroke-dashoffset:0"><path
       id="path3206"
       d="m 226.98,660.14 0.04,-0.1 0.04,-0.1 0.08,-0.21 0.08,-0.22 0.08,-0.22 0.07,-0.22 0.08,-0.22 0.08,-0.21 0.03,-0.1 0.04,-0.11 0.03,-0.1 0.04,-0.09 0.03,-0.1 0.04,-0.09 0.03,-0.08 0.03,-0.09 0.03,-0.08 0.03,-0.07 0.02,-0.07 0.03,-0.06 0.02,-0.06 0.02,-0.05 0.03,-0.05 0.02,-0.04 0.01,-0.03 0.02,-0.03 c 0.16,-0.21 0.26,-0.21 0.53,-0.21 h 0.21 c 0.1,0.01 0.11,0.07 0.11,0.09 0,0.04 -0.02,0.06 -0.05,0.09 -0.09,0.11 -0.15,0.26 -0.22,0.46 l -2.03,5.65 c -0.21,0.58 -0.75,0.71 -1.22,0.71 -0.05,0 -0.18,0 -0.18,-0.11 0,-0.08 0.08,-0.1 0.09,-0.1 0.33,-0.06 0.4,-0.12 0.65,-0.79 l 0.96,-2.71 -2.74,-2.72 c -0.12,-0.12 -0.18,-0.18 -0.18,-0.31 0,-0.17 0.14,-0.28 0.3,-0.28 0.16,0 0.25,0.11 0.33,0.2 z"
       inkscape:connector-curvature="0"
       style="fill:#000000;stroke-width:0" /></g>  <g
     id="g3348"
     transform="matrix(5.3292112,0,0,-5.3292112,-1192.7308,3698.7775)"
     xml:space="preserve"
     stroke-miterlimit="10.433"
     font-style="normal"
     font-variant="normal"
     font-weight="normal"
     font-stretch="normal"
     font-size-adjust="none"
     letter-spacing="normal"
     word-spacing="normal"
     ns0:text="$\\sigma_{t}$"
     ns0:preamble=""
     style="font-style:normal;font-variant:normal;font-weight:normal;font-stretch:normal;letter-spacing:normal;word-spacing:normal;text-anchor:start;fill:none;stroke:#000000;stroke-linecap:butt;stroke-linejoin:miter;stroke-miterlimit:10.43299961;stroke-opacity:1;stroke-dasharray:none;stroke-dashoffset:0"><path
       style="fill:#000000;stroke-width:0"
       inkscape:connector-curvature="0"
       d="m 228.59,660.94 0.01,0 0.01,0 0.02,0 0.01,0 0.02,0 0.02,0 0.02,0 0.02,0.01 0.02,0 0.02,0 0.02,0 0.02,0.01 0.02,0 0.02,0.01 0.02,0 0.02,0.01 0.02,0.01 0.02,0.01 0.02,0.01 0.01,0.01 0.02,0.02 0.02,0.01 0,0.01 0.01,0.01 0.01,0 0.01,0.01 0,0.01 0.01,0.01 0,0.01 0.01,0.01 0,0.01 0.01,0.01 0,0.01 0.01,0.02 0,0.01 0,0.01 0.01,0.01 0,0.02 0,0.01 0,0.02 0,0.01 0,0.02 c 0,0.24 -0.21,0.24 -0.39,0.24 h -2.26 c -1.51,0 -2.61,-1.64 -2.61,-2.82 0,-0.88 0.59,-1.57 1.49,-1.57 l 0.01,0.21 c -0.49,0 -0.88,0.36 -0.88,1.08 0,0.3 0.12,1.11 0.47,1.7 0.41,0.68 1.01,0.82 1.35,0.82 0.83,0 0.91,-0.66 0.91,-0.96 0,-0.47 -0.2,-1.28 -0.53,-1.79 -0.39,-0.59 -0.93,-0.85 -1.32,-0.85 h 0 l -0.01,-0.21 c 1.18,0 2.5,1.2 2.5,2.73 0,0.17 0,0.64 -0.31,1.08 z"
       id="path3350" /><path
       style="fill:#000000;stroke-width:0"
       inkscape:connector-curvature="0"
       d="m 230.84,658.49 h 0.71 c 0.13,0 0.22,0 0.22,0.15 0,0.1 -0.09,0.1 -0.21,0.1 h -0.66 l 0.26,1.03 c 0.01,0.03 0.02,0.07 0.02,0.09 0,0.13 -0.1,0.23 -0.24,0.23 -0.17,0 -0.28,-0.12 -0.32,-0.3 -0.05,-0.18 0.04,0.16 -0.27,-1.05 h -0.71 c -0.13,0 -0.22,0 -0.22,-0.15 0,-0.1 0.08,-0.1 0.21,-0.1 h 0.66 l -0.41,-1.64 c -0.04,-0.18 -0.11,-0.43 -0.11,-0.52 0,-0.41 0.35,-0.66 0.75,-0.66 0.77,0 1.21,0.98 1.21,1.06 0,0.1 -0.09,0.1 -0.11,0.1 -0.08,0 -0.09,-0.02 -0.15,-0.14 -0.19,-0.43 -0.55,-0.82 -0.93,-0.82 -0.15,0 -0.25,0.09 -0.25,0.34 0,0.07 0.03,0.21 0.05,0.28 z"
       id="path3352" /></g>  <path
     sodipodi:nodetypes="caaaac"
     inkscape:connector-curvature="0"
     id="path3413"
     d="m 167.34338,350.32499 c 0,0 8.50523,-48.62808 20,-70 14.557,-27.06544 35.35376,-51.64224 60,-70 26.32856,-19.61084 60.09531,-26.45425 90,-40 43.47408,-19.69219 91.78155,-31.41455 130,-60 28.37497,-21.223023 70,-80.000003 70,-80.000003"
     style="fill:none;stroke:#ff0000;stroke-width:2;stroke-linecap:butt;stroke-linejoin:miter;stroke-miterlimit:4;stroke-opacity:1;stroke-dasharray:none" />
  <text
     xml:space="preserve"
     style="font-size:46.81568909px;font-style:normal;font-variant:normal;font-weight:normal;font-stretch:normal;text-align:start;line-height:125%;letter-spacing:0px;word-spacing:0px;writing-mode:lr-tb;text-anchor:start;fill:#000000;fill-opacity:1;stroke:none;font-family:Latin Modern Roman;-inkscape-font-specification:'Latin Modern Roman,'"
     x="525.98126"
     y="40.478157"
     id="text3058"
     sodipodi:linespacing="125%"><tspan
       sodipodi:role="line"
       id="tspan3060"
       x="525.98126"
       y="40.478157">x</tspan></text>
  <path
     style="fill:none;stroke:#000000;stroke-width:1px;stroke-linecap:butt;stroke-linejoin:miter;stroke-opacity:1"
     d="M 404.00715,93.634073 58.18713,350.82499 525.31076,78.667715"
     id="path3032"
     inkscape:connector-curvature="0"
     transform="translate(-1.455739e-5,0)"
     sodipodi:nodetypes="ccc" />
  <path
     sodipodi:type="arc"
     style="fill:#800080;fill-opacity:1;stroke:#0000ff;stroke-width:2;stroke-miterlimit:4;stroke-opacity:1;stroke-dasharray:none;stroke-dashoffset:0"
     id="path3053"
     sodipodi:cx="-248.08662"
     sodipodi:cy="13.031387"
     sodipodi:rx="10.786375"
     sodipodi:ry="9.707737"
     d="m -237.30025,13.031387 a 10.786375,9.707737 0 1 1 -21.57275,0 10.786375,9.707737 0 1 1 21.57275,0 z"
     transform="matrix(0.47921215,0,0,0.53245791,370.20865,199.52838)" />
  <path
     sodipodi:type="arc"
     style="fill:#800080;fill-opacity:1;stroke:#0000ff;stroke-width:2;stroke-miterlimit:4;stroke-opacity:1;stroke-dasharray:none;stroke-dashoffset:0"
     id="path3053-8"
     sodipodi:cx="-248.08662"
     sodipodi:cy="13.031387"
     sodipodi:rx="10.786375"
     sodipodi:ry="9.707737"
     d="m -237.30025,13.031387 a 10.786375,9.707737 0 1 1 -21.57275,0 10.786375,9.707737 0 1 1 21.57275,0 z"
     transform="matrix(0.47921215,0,0,0.53245791,577.66659,112.15874)" />
  <text
     xml:space="preserve"
     style="font-size:29.06476974px;font-style:normal;font-variant:normal;font-weight:normal;font-stretch:normal;text-align:start;line-height:125%;letter-spacing:0px;word-spacing:0px;writing-mode:lr-tb;text-anchor:start;fill:#000000;fill-opacity:1;stroke:none;font-family:Latin Modern Roman;-inkscape-font-specification:'Latin Modern Roman,'"
     x="227.46996"
     y="190.28749"
     id="text3073"
     sodipodi:linespacing="125%"><tspan
       sodipodi:role="line"
       id="tspan3075"
       x="227.46996"
       y="190.28749">A</tspan></text>
  <text
     xml:space="preserve"
     style="font-size:29.06476974px;font-style:normal;font-variant:normal;font-weight:normal;font-stretch:normal;text-align:start;line-height:125%;letter-spacing:0px;word-spacing:0px;writing-mode:lr-tb;text-anchor:start;fill:#000000;fill-opacity:1;stroke:none;font-family:Latin Modern Roman;-inkscape-font-specification:'Latin Modern Roman,'"
     x="457.96298"
     y="153.23262"
     id="text3073-9"
     sodipodi:linespacing="125%"><tspan
       sodipodi:role="line"
       id="tspan3075-6"
       x="457.96298"
       y="153.23262">B</tspan></text>
</svg>
