<?xml version="1.0" encoding="UTF-8" standalone="no"?>
<svg
   xmlns:ns0="http://www.iki.fi/pav/software/textext/"
   xmlns:dc="http://purl.org/dc/elements/1.1/"
   xmlns:cc="http://creativecommons.org/ns#"
   xmlns:rdf="http://www.w3.org/1999/02/22-rdf-syntax-ns#"
   xmlns:svg="http://www.w3.org/2000/svg"
   xmlns="http://www.w3.org/2000/svg"
   xmlns:sodipodi="http://sodipodi.sourceforge.net/DTD/sodipodi-0.dtd"
   xmlns:inkscape="http://www.inkscape.org/namespaces/inkscape"
   version="1.0"
   height="316.29599"
   width="404.33017"
   id="svg2"
   inkscape:version="0.48.4 r9939"
   sodipodi:docname="standard nonlinear solid.svg">
  <sodipodi:namedview
     pagecolor="#ffffff"
     bordercolor="#666666"
     borderopacity="1"
     objecttolerance="10"
     gridtolerance="10"
     guidetolerance="10"
     inkscape:pageopacity="0"
     inkscape:pageshadow="2"
     inkscape:window-width="1920"
     inkscape:window-height="1055"
     id="namedview52"
     showgrid="false"
     inkscape:zoom="2.4770165"
     inkscape:cx="120.22393"
     inkscape:cy="172.82537"
     inkscape:window-x="0"
     inkscape:window-y="0"
     inkscape:window-maximized="1"
     inkscape:current-layer="svg2" />
  <metadata
     id="metadata4">
    <rdf:RDF>
      <cc:Work
         rdf:about="">
        <dc:format>image/svg+xml</dc:format>
        <dc:type
           rdf:resource="http://purl.org/dc/dcmitype/StillImage" />
        <cc:license
           rdf:resource="http://web.resource.org/cc/PublicDomain" />
        <dc:title />
      </cc:Work>
      <cc:License
         rdf:about="http://web.resource.org/cc/PublicDomain">
        <cc:permits
           rdf:resource="http://web.resource.org/cc/Reproduction" />
        <cc:permits
           rdf:resource="http://web.resource.org/cc/Distribution" />
        <cc:permits
           rdf:resource="http://web.resource.org/cc/DerivativeWorks" />
      </cc:License>
    </rdf:RDF>
  </metadata>
  <defs
     id="defs6">
    <defs
       id="defs8" />
  </defs>
  <path
     id="path10"
     d="m 71.64521,217.078 c -0.053,-4.72 0.73601,-11.4 -4.93399,-12.93 -3.70601,-2.08 -9.79801,-3.78 -9.94101,-8.83 0.994,-5.01 6.83201,-6.67 11.24501,-7.14 2.935,-0.79 10.858,-0.32 7.168,4.25 -2.804,2.43 -7.033,1.63 -10.293,0.6 -2.777,-1.22 -6.068,-2.43 -7.656,-5.15 -1.731,-4.46 3.096,-8.24 7.092,-8.81 3.658,-0.18 11.389,-3.22 11.619,2.53 -2.494,3.87 -7.784,2.75 -11.461,1.54 -4.587,-0.68 -10.261005,-6.44 -6.165,-10.78 4.725,-3.63 11.074,-4.34 16.828,-3.54 3.794,4.9 -5.465,7.05 -8.879,5.13 -4.157,-1.2 -11.675005,-4.72 -8.795,-10.08 3.12,-4.28 8.897,-4.92 13.776,-5.4 4.069,-0.76 7.255,3.8 2.442,5.55 -5.002,2.04 -10.504,-0.58 -14.646,-3.38 -4.798005,-3.34 -0.77301,-9.39 3.729,-10.38 4.10899,-1.03 8.863,-2.5 12.9,-0.5 2.254,4.99 -5.712,5.81 -8.96,4.66 -3.76,-1.3 -9.527,-2.85 -9.934,-7.54 0.47,-4.68 5.686,-7.02 9.87099,-7.32 2.90001,-0.74 11.913,-1.3 8.81601,3.66 -3.78701,3.49 -9.392,1.58 -13.495,-0.32 -3.62201,-1.2 -7.106005,-5.95 -3.779,-9.22 3.534,-3.94 9.27899,-3.96 14.13299,-4.45 5.09901,-0.23 4.726,5.72 0.008,5.86 -4.612,1.05 -9.415,-1 -12.815,-4.07 -1.669,-3.82 2.28401,-6.81 5.364,-8.18 4.62001,-1.21 8.053,-5.25 6.85201,-10.21 -0.047,-1.11 -0.109,-2.4 -0.09,-3.46"
     style="fill:none;stroke:#000000;stroke-width:3.31200004"
     inkscape:connector-curvature="0" />
  <path
     id="path12"
     d="m 152.99921,92.528 32.91,0"
     style="fill:none;stroke:#000000;stroke-width:3.31200004"
     inkscape:connector-curvature="0" />
  <path
     id="path14"
     d="m 169.34921,92.528 0,-42.02"
     style="fill:none;stroke:#000000;stroke-width:3.31200004"
     inkscape:connector-curvature="0" />
  <path
     id="path16"
     d="m 169.31921,123.758 0,25.17"
     style="fill:none;stroke:#000000;stroke-width:3.31388998"
     inkscape:connector-curvature="0" />
  <path
     id="path18"
     d="m 149.88921,76.388 c 0.02,13.68 -0.04,27.35 0.03,41.03 0.42,2.19 -0.28,5.76 2.67,6.34 3.56,0.87 7.25,0.24 10.87,0.43 7.34,-0.06 14.69,0.21 22.02,-0.19 3.11,-0.36 3.26,-3.75 3.43,-6.18 0.3,-4.85 -0.04,-9.71 0.1,-14.57 0,-8.95 0,-17.91 0,-26.86"
     style="fill:none;stroke:#000000;stroke-width:3.31200004"
     inkscape:connector-curvature="0" />
  <path
     id="path20"
     d="m 169.34921,256.338 c -0.05,-4.258 0.63,-10.447 -3.84,-12.774 -4.04,-1.587 -9.03,-3.42 -10.64,-7.858 -0.88999,-4.198 3.64,-6.793 7.08001,-7.69 3.09999,-0.71 6.37999,-1.221 9.53,-0.823 4.72,1.993 0.44999,6.756 -3.24001,5.887 -4.56,0.065 -9.08,-1.921 -12.46,-4.853 -2.83,-3.547 0.49,-8.309 4.19,-9.489 3.69,-0.78 7.53,-1.95 11.34,-1.24 5.92,2.43 -1.73,7.678 -5.39,5.737 -4.25,-0.767 -9.4,-2.287 -10.84,-6.907 -1.49,-4.45 3.42,-6.87 6.91,-7.81 3.49001,-0.84 7.39,-1.48 10.83001,-0.24 3.06,4.13 -4.45,6.96 -7.75,4.96 -4.24001,-0.92 -9.41,-3 -10.42,-7.7 0.13,-4.62 5.39,-6.62 9.27,-7.31 3.11,-0.52 10.77,-2.21 9.42,3.16 -2.81,4.36 -8.92,2.31 -12.74,0.57 -3.89,-1.05 -7.69,-5.1 -4.89,-9.14 1.64,-3.12 5.23,-3.86 8.38,-4.39 3.14,-1.8 12.45,-0.27 8.27,4.39 -4.64,2.6 -10.27,0.5 -14.49,-1.98 -5.3,-2.88 -3.04,-10.42 2.52,-11.22 4.2,-0.66 11.81,-3.87 13.55,0.97 -0.34,4.85 -9.29,4.05 -13.13,1.93 -3.99,-1.12 -8.07,-5.69 -4.94,-9.67 3.13,-3.86 8.54,-3.72 12.97,-4.66 4.48,-1.26 7.09,5.27 1.87,5.94 -4.72,1.11 -10.3,-0.54 -13.41,-4.31 -2.39,-5.27 5.18,-7.42 8.65,-9.3 4.73,-2.35 3.25,-7.82 3.4,-12.1"
     style="fill:none;stroke:#000000;stroke-width:3.31200004"
     inkscape:connector-curvature="0" />
  <circle
     id="circle34"
     transform="matrix(0,-0.207,0.207,0,-94.57578,412.344)"
     cx="1937"
     cy="1039"
     r="47"
     style="fill:none;stroke:#000000;stroke-width:16"
     sodipodi:cx="1937"
     sodipodi:cy="1039"
     sodipodi:rx="47"
     sodipodi:ry="47"
     d="m 1984,1039 c 0,25.9574 -21.0426,47 -47,47 -25.9574,0 -47,-21.0426 -47,-47 0,-25.9574 21.0426,-47 47,-47 25.9574,0 47,21.0426 47,47 z" />
  <circle
     id="circle36"
     transform="matrix(0,-0.207,0.207,0,-94.57578,412.344)"
     cx="519"
     cy="1039"
     r="47"
     style="fill:none;stroke:#000000;stroke-width:16"
     sodipodi:cx="519"
     sodipodi:cy="1039"
     sodipodi:rx="47"
     sodipodi:ry="47"
     d="m 566,1039 c 0,25.9574 -21.04262,47 -47,47 -25.95738,0 -47,-21.0426 -47,-47 0,-25.9574 21.04262,-47 47,-47 25.95738,0 47,21.0426 47,47 z" />
  <path
     id="path38"
     d="m 71.64521,60.448 0,-9.94 97.704,0 0,9.94"
     style="fill:none;stroke:#000000;stroke-width:3.31200004"
     inkscape:connector-curvature="0" />
  <path
     id="path40"
     d="m 120.49921,21.318 0,29.19"
     style="fill:none;stroke:#000000;stroke-width:3.31200004"
     inkscape:connector-curvature="0" />
  <path
     id="path42"
     d="m 71.64521,60.448 0,48.85"
     style="fill:none;stroke:#000000;stroke-width:3.31200004"
     inkscape:connector-curvature="0" />
  <path
     id="path44"
     d="m 71.64521,216.938 0,39.121"
     style="fill:none;stroke:#000000;stroke-width:3.31200004"
     inkscape:connector-curvature="0" />
  <path
     id="path46"
     d="m 120.49921,265.788 0,29.394"
     style="fill:none;stroke:#000000;stroke-width:3.31200004"
     inkscape:connector-curvature="0" />
  <path
     id="path48"
     d="m 71.64521,256.059 0,9.729 97.704,0 0,-9.729"
     style="fill:none;stroke:#000000;stroke-width:3.31200004"
     inkscape:connector-curvature="0" />
  <g
     ns0:preamble="/home/ken/.config/inkscape/textextpreamble.txt"
     ns0:text="$E_r$"
     word-spacing="normal"
     letter-spacing="normal"
     font-size-adjust="none"
     font-stretch="normal"
     font-weight="normal"
     font-variant="normal"
     font-style="normal"
     stroke-miterlimit="10.433"
     xml:space="preserve"
     transform="matrix(4,0,0,-4,-895.24,2077.4936)"
     id="content"
     style="font-style:normal;font-variant:normal;font-weight:normal;font-stretch:normal;letter-spacing:normal;word-spacing:normal;text-anchor:start;fill:none;stroke:#000000;stroke-linecap:butt;stroke-linejoin:miter;stroke-miterlimit:10.43299961;stroke-opacity:1;stroke-dasharray:none;stroke-dashoffset:0"><path
       id="path3086"
       d="m 230.48,479.55 0,0 0,0.01 0,0.01 0.01,0.01 0,0.01 0.01,0.01 0,0.01 0,0.01 0.01,0.01 0,0.01 0,0 0,0 0.01,0.01 0,0 0,0.01 0,0 0,0.01 0,0 0,0 0,0.01 0,0 0.01,0 0,0 0,0.01 0,0 c 0,0.01 0,0.11 -0.12,0.11 -0.09,0 -0.11,-0.06 -0.13,-0.12 -0.65,-1.47 -1.02,-2.14 -2.72,-2.14 h -1.45 c -0.14,0 -0.16,0 -0.22,0.01 -0.1,0.01 -0.13,0.02 -0.13,0.1 0,0.03 0,0.05 0.05,0.23 l 0.68,2.71 h 0.98 c 0.85,0 0.85,-0.21 0.85,-0.45 0,-0.07 0,-0.19 -0.07,-0.49 -0.02,-0.05 -0.03,-0.08 -0.03,-0.11 0,-0.05 0.04,-0.11 0.13,-0.11 0.08,0 0.11,0.05 0.15,0.2 l 0.56,2.32 c 0,0.06 -0.05,0.11 -0.12,0.11 -0.09,0 -0.11,-0.06 -0.14,-0.18 -0.2,-0.75 -0.38,-0.98 -1.3,-0.98 h -0.93 l 0.59,2.4 c 0.09,0.34 0.1,0.38 0.54,0.38 h 1.4 c 1.22,0 1.52,-0.29 1.52,-1.1 0,-0.24 0,-0.26 -0.04,-0.53 0,-0.06 -0.01,-0.13 -0.01,-0.18 0,-0.05 0.03,-0.11 0.11,-0.11 0.11,0 0.12,0.06 0.14,0.24 l 0.2,1.72 c 0.03,0.27 -0.02,0.27 -0.26,0.27 h -5.03 c -0.2,0 -0.3,0 -0.3,-0.2 0,-0.11 0.09,-0.11 0.28,-0.11 0.37,0 0.65,0 0.65,-0.18 0,-0.04 0,-0.06 -0.05,-0.23 l -1.32,-5.26 c -0.09,-0.39 -0.11,-0.47 -0.9,-0.47 -0.17,0 -0.28,0 -0.28,-0.19 0,-0.12 0.09,-0.12 0.28,-0.12 h 5.16 c 0.23,0 0.24,0.01 0.31,0.17 z"
       inkscape:connector-curvature="0"
       style="fill:#000000;stroke-width:0" /><path
       id="path3088"
       d="m 232.42,477.15 0,0 0,0 0,0.01 0.01,0 0,0.01 0,0 0,0.01 0,0.01 0,0 0.01,0.01 0,0.01 0,0.01 0,0.01 0.01,0.01 0,0.03 0.01,0.02 0.01,0.03 0,0.03 0.01,0.03 0.01,0.03 0.01,0.03 0.01,0.06 0.02,0.06 0,0.03 0.01,0.03 0.01,0.03 0.01,0.03 0,0.02 0.01,0.03 0.01,0.02 0,0.01 0,0.01 0.01,0.01 0,0.01 0,0.01 0,0.01 0,0.01 0.01,0 0,0.01 0,0 0,0.01 0,0 0,0.01 0,0 c 0.02,0.05 0.22,0.4 0.44,0.57 0.08,0.05 0.27,0.19 0.57,0.19 0.07,0 0.24,0 0.38,-0.09 -0.22,-0.07 -0.31,-0.26 -0.31,-0.39 0,-0.15 0.12,-0.25 0.28,-0.25 0.16,0 0.39,0.13 0.39,0.42 0,0.36 -0.38,0.51 -0.74,0.51 -0.36,0 -0.67,-0.15 -0.98,-0.5 -0.12,0.43 -0.55,0.5 -0.72,0.5 -0.25,0 -0.43,-0.16 -0.54,-0.36 -0.16,-0.27 -0.26,-0.67 -0.26,-0.71 0,-0.09 0.1,-0.09 0.12,-0.09 0.1,0 0.11,0.02 0.15,0.21 0.11,0.43 0.24,0.75 0.51,0.75 0.18,0 0.23,-0.15 0.23,-0.34 0,-0.13 -0.06,-0.39 -0.11,-0.57 -0.05,-0.19 -0.12,-0.48 -0.15,-0.63 l -0.22,-0.89 c -0.03,-0.09 -0.07,-0.26 -0.07,-0.29 0,-0.15 0.12,-0.22 0.23,-0.22 0.11,0 0.25,0.06 0.3,0.2 0.02,0.05 0.09,0.35 0.14,0.52 z"
       inkscape:connector-curvature="0"
       style="fill:#000000;stroke-width:0" /></g>  <g
     id="g3166"
     transform="matrix(4,0,0,-4,-710.83086,2122.3934)"
     xml:space="preserve"
     stroke-miterlimit="10.433"
     font-style="normal"
     font-variant="normal"
     font-weight="normal"
     font-stretch="normal"
     font-size-adjust="none"
     letter-spacing="normal"
     word-spacing="normal"
     ns0:text="$E_1$"
     ns0:preamble="/home/ken/.config/inkscape/textextpreamble.txt"
     style="font-style:normal;font-variant:normal;font-weight:normal;font-stretch:normal;letter-spacing:normal;word-spacing:normal;text-anchor:start;fill:none;stroke:#000000;stroke-linecap:butt;stroke-linejoin:miter;stroke-miterlimit:10.43299961;stroke-opacity:1;stroke-dasharray:none;stroke-dashoffset:0"><path
       d="m 230.48,479.55 0,0 0,0.01 0,0.01 0.01,0.01 0,0.01 0.01,0.01 0,0.01 0,0.01 0.01,0.01 0,0.01 0,0 0,0 0.01,0.01 0,0 0,0.01 0,0 0,0.01 0,0 0,0 0,0.01 0,0 0.01,0 0,0 0,0.01 0,0 c 0,0.01 0,0.11 -0.12,0.11 -0.09,0 -0.11,-0.06 -0.13,-0.12 -0.65,-1.47 -1.02,-2.14 -2.72,-2.14 h -1.45 c -0.14,0 -0.16,0 -0.22,0.01 -0.1,0.01 -0.13,0.02 -0.13,0.1 0,0.03 0,0.05 0.05,0.23 l 0.68,2.71 h 0.98 c 0.85,0 0.85,-0.21 0.85,-0.45 0,-0.07 0,-0.19 -0.07,-0.49 -0.02,-0.05 -0.03,-0.08 -0.03,-0.11 0,-0.05 0.04,-0.11 0.13,-0.11 0.08,0 0.11,0.05 0.15,0.2 l 0.56,2.32 c 0,0.06 -0.05,0.11 -0.12,0.11 -0.09,0 -0.11,-0.06 -0.14,-0.18 -0.2,-0.75 -0.38,-0.98 -1.3,-0.98 h -0.93 l 0.59,2.4 c 0.09,0.34 0.1,0.38 0.54,0.38 h 1.4 c 1.22,0 1.52,-0.29 1.52,-1.1 0,-0.24 0,-0.26 -0.04,-0.53 0,-0.06 -0.01,-0.13 -0.01,-0.18 0,-0.05 0.03,-0.11 0.11,-0.11 0.11,0 0.12,0.06 0.14,0.24 l 0.2,1.72 c 0.03,0.27 -0.02,0.27 -0.26,0.27 h -5.03 c -0.2,0 -0.3,0 -0.3,-0.2 0,-0.11 0.09,-0.11 0.28,-0.11 0.37,0 0.65,0 0.65,-0.18 0,-0.04 0,-0.06 -0.05,-0.23 l -1.32,-5.26 c -0.09,-0.39 -0.11,-0.47 -0.9,-0.47 -0.17,0 -0.28,0 -0.28,-0.19 0,-0.12 0.09,-0.12 0.28,-0.12 h 5.16 c 0.23,0 0.24,0.01 0.31,0.17 z"
       id="path3168"
       inkscape:connector-curvature="0"
       style="fill:#000000;stroke-width:0" /><path
       d="m 233.12,480.16 0,0.01 0,0.01 0,0.01 0,0.01 0,0 0,0.01 0,0.01 0,0.01 0,0 0,0.01 0,0.01 0,0 0,0.01 0,0 -0.01,0.01 0,0 0,0.01 0,0 0,0.01 0,0.01 -0.01,0.01 0,0 0,0.01 -0.01,0.01 0,0 -0.01,0.01 0,0 -0.01,0 -0.01,0.01 -0.01,0 -0.01,0 0,0 -0.01,0 -0.01,0 0,0 -0.01,0.01 0,0 -0.01,0 0,0 -0.01,0 -0.01,0 -0.01,0 0,0 -0.01,0 -0.01,0 -0.01,0 0,0 -0.01,0 -0.01,0 -0.01,0 c -0.45,-0.44 -1.08,-0.45 -1.37,-0.45 v -0.25 c 0.17,0 0.63,0 1.01,0.2 v -3.55 c 0,-0.23 0,-0.32 -0.69,-0.32 h -0.27 v -0.25 c 0.13,0.01 0.99,0.03 1.24,0.03 0.22,0 1.1,-0.02 1.25,-0.03 v 0.25 h -0.26 c -0.7,0 -0.7,0.09 -0.7,0.32 z"
       id="path3170"
       inkscape:connector-curvature="0"
       style="fill:#000000;stroke-width:0" /></g>  <g
     style="font-style:normal;font-variant:normal;font-weight:normal;font-stretch:normal;letter-spacing:normal;word-spacing:normal;text-anchor:start;fill:none;stroke:#000000;stroke-linecap:butt;stroke-linejoin:miter;stroke-miterlimit:10.43299961;stroke-opacity:1;stroke-dasharray:none;stroke-dashoffset:0"
     ns0:preamble="/home/ken/.config/inkscape/textextpreamble.txt"
     ns0:text="$\\Delta H_0, v$"
     text-anchor="start"
     word-spacing="normal"
     letter-spacing="normal"
     font-size-adjust="none"
     font-stretch="normal"
     font-weight="normal"
     font-variant="normal"
     font-style="normal"
     fill-opacity="1"
     fill-rule="evenodd"
     fill="none"
     stroke-opacity="1"
     stroke-dashoffset="0"
     stroke-dasharray="none"
     stroke-miterlimit="10.433"
     stroke-linejoin="miter"
     stroke-linecap="butt"
     stroke="black"
     xml:space="preserve"
     transform="matrix(4,0,0,-4,-694.94982,2024.4316)"
     id="g3037"><path
       id="path3039"
       fill="black"
       stroke-width="0"
       d="M227.83,484.17 L227.82,484.18 L227.82,484.19 L227.81,484.2 L227.81,484.21 L227.8,484.22 L227.79,484.23 L227.79,484.24 L227.78,484.25 L227.78,484.26 L227.77,484.27 L227.77,484.28 L227.76,484.28 L227.76,484.29 L227.75,484.3 L227.74,484.3 L227.74,484.31 L227.73,484.31 L227.72,484.32 L227.72,484.32 L227.71,484.33 L227.7,484.33 L227.69,484.33 L227.68,484.34 L227.67,484.34 L227.66,484.34 L227.65,484.34 L227.64,484.34 L227.63,484.35 L227.61,484.35 L227.6,484.35 L227.59,484.35 L227.57,484.35 C227.4,484.35,227.38,484.3,227.31,484.17 L227.25,483.35 L229.93,477.99 H224.57 L227.25,483.35 L227.31,484.17 L223.95,477.43 C223.9,477.34,223.9,477.32,223.9,477.31 C223.9,477.23,223.96,477.23,224.12,477.23 H231.02 C231.18,477.23,231.24,477.23,231.24,477.31 C231.24,477.32,231.24,477.34,231.19,477.43 Z " /><path
       id="path3041"
       fill="black"
       stroke-width="0"
       d="M239.32,483.26 L239.33,483.29 L239.34,483.32 L239.35,483.35 L239.36,483.38 L239.37,483.4 L239.37,483.43 L239.38,483.45 L239.39,483.48 L239.4,483.5 L239.41,483.52 L239.42,483.54 L239.44,483.56 L239.45,483.57 L239.47,483.59 L239.49,483.6 L239.5,483.62 L239.53,483.63 L239.55,483.64 L239.57,483.65 L239.6,483.66 L239.63,483.67 L239.66,483.68 L239.68,483.68 L239.7,483.68 L239.72,483.69 L239.74,483.69 L239.76,483.69 L239.78,483.7 L239.8,483.7 L239.82,483.7 L239.85,483.7 L239.87,483.7 L239.89,483.71 L239.92,483.71 L239.95,483.71 L239.97,483.71 L240,483.71 L240.03,483.71 L240.06,483.71 L240.09,483.71 L240.13,483.71 L240.16,483.71 C240.42,483.71,240.5,483.71,240.5,483.91 C240.5,484.02,240.39,484.02,240.36,484.02 C240.08,484.02,239.37,483.99,239.09,483.99 C238.8,483.99,238.09,484.02,237.8,484.02 C237.72,484.02,237.61,484.02,237.61,483.82 C237.61,483.71,237.7,483.71,237.89,483.71 C237.91,483.71,238.1,483.71,238.27,483.69 C238.45,483.67,238.54,483.66,238.54,483.53 C238.54,483.49,238.53,483.47,238.5,483.34 L237.9,480.92 H234.87 L235.46,483.26 C235.54,483.61,235.57,483.71,236.29,483.71 C236.55,483.71,236.63,483.71,236.63,483.91 C236.63,484.02,236.52,484.02,236.49,484.02 C236.21,484.02,235.49,483.99,235.22,483.99 C234.93,483.99,234.22,484.02,233.93,484.02 C233.85,484.02,233.74,484.02,233.74,483.82 C233.74,483.71,233.83,483.71,234.02,483.71 C234.04,483.71,234.23,483.71,234.4,483.69 C234.58,483.67,234.67,483.66,234.67,483.53 C234.67,483.49,234.66,483.46,234.63,483.34 L233.3,478.01 C233.2,477.62,233.18,477.54,232.39,477.54 C232.21,477.54,232.12,477.54,232.12,477.34 C232.12,477.23,232.24,477.23,232.26,477.23 C232.54,477.23,233.25,477.27,233.52,477.27 C233.73,477.27,233.95,477.26,234.16,477.26 C234.38,477.26,234.6,477.23,234.81,477.23 C234.89,477.23,235.01,477.23,235.01,477.43 C235.01,477.54,234.92,477.54,234.73,477.54 C234.36,477.54,234.08,477.54,234.08,477.72 C234.08,477.78,234.1,477.83,234.11,477.89 L234.79,480.61 H237.82 C237.4,478.96,237.18,478.02,237.14,477.87 C237.04,477.55,236.85,477.54,236.23,477.54 C236.08,477.54,235.99,477.54,235.99,477.34 C235.99,477.23,236.11,477.23,236.13,477.23 C236.41,477.23,237.12,477.27,237.4,477.27 C237.6,477.27,237.82,477.26,238.03,477.26 C238.25,477.26,238.47,477.23,238.68,477.23 C238.76,477.23,238.88,477.23,238.88,477.43 C238.88,477.54,238.79,477.54,238.6,477.54 C238.23,477.54,237.95,477.54,237.95,477.72 C237.95,477.78,237.97,477.83,237.98,477.89 Z " /><path
       id="path3043"
       fill="black"
       stroke-width="0"
       d="M243.61,477.96 L243.61,478.1 L243.61,478.24 L243.6,478.37 L243.59,478.49 L243.58,478.62 L243.56,478.74 L243.55,478.85 L243.52,478.96 L243.5,479.07 L243.47,479.18 L243.44,479.28 L243.4,479.38 L243.36,479.48 L243.31,479.57 L243.26,479.67 L243.23,479.71 L243.2,479.76 C242.98,480.08,242.55,480.36,241.99,480.36 V480.16 C242.37,480.16,242.73,479.93,242.86,479.53 C242.97,479.15,242.98,478.65,242.98,478.05 C242.98,477.54,242.98,477.02,242.88,476.58 C242.75,475.95,242.27,475.8,241.99,475.8 H241.99 C241.67,475.8,241.25,475.98,241.11,476.55 C241.01,476.96,241.01,477.54,241.01,478.05 C241.01,478.56,241.01,479.09,241.12,479.47 C241.26,480.02,241.71,480.16,241.99,480.16 V480.36 C240.38,480.36,240.38,478.46,240.38,477.96 C240.38,477.46,240.38,475.6,241.99,475.6 C243.61,475.6,243.61,477.46,243.61,477.96 Z " /><path
       id="path3045"
       fill="black"
       stroke-width="0"
       d="M246.51,477.24 L246.5,477.31 L246.5,477.36 L246.5,477.42 L246.49,477.48 L246.49,477.53 L246.48,477.58 L246.47,477.64 L246.46,477.68 L246.45,477.73 L246.44,477.78 L246.42,477.82 L246.41,477.86 L246.39,477.9 L246.37,477.94 L246.35,477.98 L246.33,478.01 L246.31,478.05 L246.29,478.08 L246.26,478.1 L246.24,478.13 L246.21,478.16 L246.19,478.18 L246.16,478.2 L246.13,478.22 L246.1,478.23 L246.07,478.25 L246.04,478.26 L246.01,478.27 L245.97,478.28 L245.94,478.28 L245.9,478.29 L245.87,478.29 C245.54,478.29,245.34,478.04,245.34,477.76 C245.34,477.49,245.54,477.23,245.87,477.23 C245.99,477.23,246.12,477.27,246.22,477.36 C246.25,477.38,246.26,477.39,246.27,477.39 C246.28,477.39,246.29,477.38,246.29,477.24 C246.29,476.51,245.94,475.91,245.61,475.59 C245.5,475.48,245.5,475.46,245.5,475.43 C245.5,475.36,245.55,475.32,245.6,475.32 C245.71,475.32,246.51,476.08,246.51,477.24 Z " /><path
       id="path3047"
       fill="black"
       stroke-width="0"
       d="M253.57,480.93 L253.57,480.95 L253.57,480.98 L253.57,481 L253.57,481.03 L253.57,481.05 L253.57,481.07 L253.56,481.09 L253.56,481.11 L253.56,481.15 L253.55,481.19 L253.54,481.23 L253.53,481.27 L253.52,481.3 L253.51,481.33 L253.49,481.36 L253.48,481.39 L253.47,481.41 L253.45,481.44 L253.44,481.46 L253.42,481.48 L253.4,481.5 L253.39,481.52 L253.37,481.53 L253.35,481.55 L253.33,481.56 L253.32,481.57 L253.3,481.58 L253.28,481.59 L253.26,481.6 L253.24,481.61 L253.22,481.61 L253.21,481.62 L253.19,481.62 L253.17,481.62 L253.15,481.63 L253.13,481.63 C252.89,481.63,252.65,481.37,252.65,481.15 C252.65,481.02,252.7,480.96,252.81,480.85 C253.01,480.65,253.15,480.39,253.15,480.04 C253.15,479.62,252.54,477.34,251.37,477.34 C250.87,477.34,250.64,477.69,250.64,478.21 C250.64,478.77,250.91,479.49,251.21,480.31 C251.28,480.48,251.33,480.62,251.33,480.81 C251.33,481.26,251.02,481.63,250.52,481.63 C249.58,481.63,249.21,480.18,249.21,480.1 C249.21,480,249.3,480,249.32,480 C249.42,480,249.43,480.02,249.48,480.17 C249.77,481.18,250.2,481.41,250.49,481.41 C250.57,481.41,250.74,481.41,250.74,481.09 C250.74,480.84,250.64,480.57,250.57,480.39 C250.13,479.24,250,478.79,250,478.36 C250,477.29,250.88,477.13,251.33,477.13 C253.01,477.13,253.57,480.41,253.57,480.93 Z " /></g></svg>
