<?xml version="1.0" encoding="UTF-8" standalone="no"?>
<svg
   xmlns:ns0="http://www.iki.fi/pav/software/textext/"
   xmlns:dc="http://purl.org/dc/elements/1.1/"
   xmlns:cc="http://creativecommons.org/ns#"
   xmlns:rdf="http://www.w3.org/1999/02/22-rdf-syntax-ns#"
   xmlns:svg="http://www.w3.org/2000/svg"
   xmlns="http://www.w3.org/2000/svg"
   xmlns:sodipodi="http://sodipodi.sourceforge.net/DTD/sodipodi-0.dtd"
   xmlns:inkscape="http://www.inkscape.org/namespaces/inkscape"
   version="1.0"
   height="316.29599"
   width="231.73018"
   id="svg2"
   inkscape:version="0.48.4 r9939"
   sodipodi:docname="standard linear solid.svg">
  <sodipodi:namedview
     pagecolor="#ffffff"
     bordercolor="#666666"
     borderopacity="1"
     objecttolerance="10"
     gridtolerance="10"
     guidetolerance="10"
     inkscape:pageopacity="0"
     inkscape:pageshadow="2"
     inkscape:window-width="1920"
     inkscape:window-height="1055"
     id="namedview52"
     showgrid="false"
     inkscape:zoom="2.4770165"
     inkscape:cx="120.22393"
     inkscape:cy="302.01303"
     inkscape:window-x="0"
     inkscape:window-y="0"
     inkscape:window-maximized="1"
     inkscape:current-layer="svg2" />
  <metadata
     id="metadata4">
    <rdf:RDF>
      <cc:Work
         rdf:about="">
        <dc:format>image/svg+xml</dc:format>
        <dc:type
           rdf:resource="http://purl.org/dc/dcmitype/StillImage" />
        <cc:license
           rdf:resource="http://web.resource.org/cc/PublicDomain" />
        <dc:title />
      </cc:Work>
      <cc:License
         rdf:about="http://web.resource.org/cc/PublicDomain">
        <cc:permits
           rdf:resource="http://web.resource.org/cc/Reproduction" />
        <cc:permits
           rdf:resource="http://web.resource.org/cc/Distribution" />
        <cc:permits
           rdf:resource="http://web.resource.org/cc/DerivativeWorks" />
      </cc:License>
    </rdf:RDF>
  </metadata>
  <defs
     id="defs6">
    <defs
       id="defs8" />
  </defs>
  <path
     id="path10"
     d="m 71.64521,217.078 c -0.053,-4.72 0.73601,-11.4 -4.93399,-12.93 -3.70601,-2.08 -9.79801,-3.78 -9.94101,-8.83 0.994,-5.01 6.83201,-6.67 11.24501,-7.14 2.935,-0.79 10.858,-0.32 7.168,4.25 -2.804,2.43 -7.033,1.63 -10.293,0.6 -2.777,-1.22 -6.068,-2.43 -7.656,-5.15 -1.731,-4.46 3.096,-8.24 7.092,-8.81 3.658,-0.18 11.389,-3.22 11.619,2.53 -2.494,3.87 -7.784,2.75 -11.461,1.54 -4.587,-0.68 -10.261005,-6.44 -6.165,-10.78 4.725,-3.63 11.074,-4.34 16.828,-3.54 3.794,4.9 -5.465,7.05 -8.879,5.13 -4.157,-1.2 -11.675005,-4.72 -8.795,-10.08 3.12,-4.28 8.897,-4.92 13.776,-5.4 4.069,-0.76 7.255,3.8 2.442,5.55 -5.002,2.04 -10.504,-0.58 -14.646,-3.38 -4.798005,-3.34 -0.77301,-9.39 3.729,-10.38 4.10899,-1.03 8.863,-2.5 12.9,-0.5 2.254,4.99 -5.712,5.81 -8.96,4.66 -3.76,-1.3 -9.527,-2.85 -9.934,-7.54 0.47,-4.68 5.686,-7.02 9.87099,-7.32 2.90001,-0.74 11.913,-1.3 8.81601,3.66 -3.78701,3.49 -9.392,1.58 -13.495,-0.32 -3.62201,-1.2 -7.106005,-5.95 -3.779,-9.22 3.534,-3.94 9.27899,-3.96 14.13299,-4.45 5.09901,-0.23 4.726,5.72 0.008,5.86 -4.612,1.05 -9.415,-1 -12.815,-4.07 -1.669,-3.82 2.28401,-6.81 5.364,-8.18 4.62001,-1.21 8.053,-5.25 6.85201,-10.21 -0.047,-1.11 -0.109,-2.4 -0.09,-3.46"
     style="fill:none;stroke:#000000;stroke-width:3.31200004"
     inkscape:connector-curvature="0" />
  <path
     id="path12"
     d="m 152.99921,92.528 32.91,0"
     style="fill:none;stroke:#000000;stroke-width:3.31200004"
     inkscape:connector-curvature="0" />
  <path
     id="path14"
     d="m 169.34921,92.528 0,-42.02"
     style="fill:none;stroke:#000000;stroke-width:3.31200004"
     inkscape:connector-curvature="0" />
  <path
     id="path16"
     d="m 169.31921,123.758 0,25.17"
     style="fill:none;stroke:#000000;stroke-width:3.31388998"
     inkscape:connector-curvature="0" />
  <path
     id="path18"
     d="m 149.88921,76.388 c 0.02,13.68 -0.04,27.35 0.03,41.03 0.42,2.19 -0.28,5.76 2.67,6.34 3.56,0.87 7.25,0.24 10.87,0.43 7.34,-0.06 14.69,0.21 22.02,-0.19 3.11,-0.36 3.26,-3.75 3.43,-6.18 0.3,-4.85 -0.04,-9.71 0.1,-14.57 0,-8.95 0,-17.91 0,-26.86"
     style="fill:none;stroke:#000000;stroke-width:3.31200004"
     inkscape:connector-curvature="0" />
  <path
     id="path20"
     d="m 169.34921,256.338 c -0.05,-4.258 0.63,-10.447 -3.84,-12.774 -4.04,-1.587 -9.03,-3.42 -10.64,-7.858 -0.88999,-4.198 3.64,-6.793 7.08001,-7.69 3.09999,-0.71 6.37999,-1.221 9.53,-0.823 4.72,1.993 0.44999,6.756 -3.24001,5.887 -4.56,0.065 -9.08,-1.921 -12.46,-4.853 -2.83,-3.547 0.49,-8.309 4.19,-9.489 3.69,-0.78 7.53,-1.95 11.34,-1.24 5.92,2.43 -1.73,7.678 -5.39,5.737 -4.25,-0.767 -9.4,-2.287 -10.84,-6.907 -1.49,-4.45 3.42,-6.87 6.91,-7.81 3.49001,-0.84 7.39,-1.48 10.83001,-0.24 3.06,4.13 -4.45,6.96 -7.75,4.96 -4.24001,-0.92 -9.41,-3 -10.42,-7.7 0.13,-4.62 5.39,-6.62 9.27,-7.31 3.11,-0.52 10.77,-2.21 9.42,3.16 -2.81,4.36 -8.92,2.31 -12.74,0.57 -3.89,-1.05 -7.69,-5.1 -4.89,-9.14 1.64,-3.12 5.23,-3.86 8.38,-4.39 3.14,-1.8 12.45,-0.27 8.27,4.39 -4.64,2.6 -10.27,0.5 -14.49,-1.98 -5.3,-2.88 -3.04,-10.42 2.52,-11.22 4.2,-0.66 11.81,-3.87 13.55,0.97 -0.34,4.85 -9.29,4.05 -13.13,1.93 -3.99,-1.12 -8.07,-5.69 -4.94,-9.67 3.13,-3.86 8.54,-3.72 12.97,-4.66 4.48,-1.26 7.09,5.27 1.87,5.94 -4.72,1.11 -10.3,-0.54 -13.41,-4.31 -2.39,-5.27 5.18,-7.42 8.65,-9.3 4.73,-2.35 3.25,-7.82 3.4,-12.1"
     style="fill:none;stroke:#000000;stroke-width:3.31200004"
     inkscape:connector-curvature="0" />
  <circle
     id="circle34"
     transform="matrix(0,-0.207,0.207,0,-94.57578,412.344)"
     cx="1937"
     cy="1039"
     r="47"
     style="fill:none;stroke:#000000;stroke-width:16"
     sodipodi:cx="1937"
     sodipodi:cy="1039"
     sodipodi:rx="47"
     sodipodi:ry="47"
     d="m 1984,1039 c 0,25.9574 -21.0426,47 -47,47 -25.9574,0 -47,-21.0426 -47,-47 0,-25.9574 21.0426,-47 47,-47 25.9574,0 47,21.0426 47,47 z" />
  <circle
     id="circle36"
     transform="matrix(0,-0.207,0.207,0,-94.57578,412.344)"
     cx="519"
     cy="1039"
     r="47"
     style="fill:none;stroke:#000000;stroke-width:16"
     sodipodi:cx="519"
     sodipodi:cy="1039"
     sodipodi:rx="47"
     sodipodi:ry="47"
     d="m 566,1039 c 0,25.9574 -21.04262,47 -47,47 -25.95738,0 -47,-21.0426 -47,-47 0,-25.9574 21.04262,-47 47,-47 25.95738,0 47,21.0426 47,47 z" />
  <path
     id="path38"
     d="m 71.64521,60.448 0,-9.94 97.704,0 0,9.94"
     style="fill:none;stroke:#000000;stroke-width:3.31200004"
     inkscape:connector-curvature="0" />
  <path
     id="path40"
     d="m 120.49921,21.318 0,29.19"
     style="fill:none;stroke:#000000;stroke-width:3.31200004"
     inkscape:connector-curvature="0" />
  <path
     id="path42"
     d="m 71.64521,60.448 0,48.85"
     style="fill:none;stroke:#000000;stroke-width:3.31200004"
     inkscape:connector-curvature="0" />
  <path
     id="path44"
     d="m 71.64521,216.938 0,39.121"
     style="fill:none;stroke:#000000;stroke-width:3.31200004"
     inkscape:connector-curvature="0" />
  <path
     id="path46"
     d="m 120.49921,265.788 0,29.394"
     style="fill:none;stroke:#000000;stroke-width:3.31200004"
     inkscape:connector-curvature="0" />
  <path
     id="path48"
     d="m 71.64521,256.059 0,9.729 97.704,0 0,-9.729"
     style="fill:none;stroke:#000000;stroke-width:3.31200004"
     inkscape:connector-curvature="0" />
  <g
     ns0:preamble="/home/ken/.config/inkscape/textextpreamble.txt"
     ns0:text="$E_r$"
     word-spacing="normal"
     letter-spacing="normal"
     font-size-adjust="none"
     font-stretch="normal"
     font-weight="normal"
     font-variant="normal"
     font-style="normal"
     stroke-miterlimit="10.433"
     xml:space="preserve"
     transform="matrix(4,0,0,-4,-895.24,2077.4936)"
     id="content"
     style="font-style:normal;font-variant:normal;font-weight:normal;font-stretch:normal;letter-spacing:normal;word-spacing:normal;text-anchor:start;fill:none;stroke:#000000;stroke-linecap:butt;stroke-linejoin:miter;stroke-miterlimit:10.43299961;stroke-opacity:1;stroke-dasharray:none;stroke-dashoffset:0"><path
       id="path3086"
       d="m 230.48,479.55 0,0 0,0.01 0,0.01 0.01,0.01 0,0.01 0.01,0.01 0,0.01 0,0.01 0.01,0.01 0,0.01 0,0 0,0 0.01,0.01 0,0 0,0.01 0,0 0,0.01 0,0 0,0 0,0.01 0,0 0.01,0 0,0 0,0.01 0,0 c 0,0.01 0,0.11 -0.12,0.11 -0.09,0 -0.11,-0.06 -0.13,-0.12 -0.65,-1.47 -1.02,-2.14 -2.72,-2.14 h -1.45 c -0.14,0 -0.16,0 -0.22,0.01 -0.1,0.01 -0.13,0.02 -0.13,0.1 0,0.03 0,0.05 0.05,0.23 l 0.68,2.71 h 0.98 c 0.85,0 0.85,-0.21 0.85,-0.45 0,-0.07 0,-0.19 -0.07,-0.49 -0.02,-0.05 -0.03,-0.08 -0.03,-0.11 0,-0.05 0.04,-0.11 0.13,-0.11 0.08,0 0.11,0.05 0.15,0.2 l 0.56,2.32 c 0,0.06 -0.05,0.11 -0.12,0.11 -0.09,0 -0.11,-0.06 -0.14,-0.18 -0.2,-0.75 -0.38,-0.98 -1.3,-0.98 h -0.93 l 0.59,2.4 c 0.09,0.34 0.1,0.38 0.54,0.38 h 1.4 c 1.22,0 1.52,-0.29 1.52,-1.1 0,-0.24 0,-0.26 -0.04,-0.53 0,-0.06 -0.01,-0.13 -0.01,-0.18 0,-0.05 0.03,-0.11 0.11,-0.11 0.11,0 0.12,0.06 0.14,0.24 l 0.2,1.72 c 0.03,0.27 -0.02,0.27 -0.26,0.27 h -5.03 c -0.2,0 -0.3,0 -0.3,-0.2 0,-0.11 0.09,-0.11 0.28,-0.11 0.37,0 0.65,0 0.65,-0.18 0,-0.04 0,-0.06 -0.05,-0.23 l -1.32,-5.26 c -0.09,-0.39 -0.11,-0.47 -0.9,-0.47 -0.17,0 -0.28,0 -0.28,-0.19 0,-0.12 0.09,-0.12 0.28,-0.12 h 5.16 c 0.23,0 0.24,0.01 0.31,0.17 z"
       inkscape:connector-curvature="0"
       style="fill:#000000;stroke-width:0" /><path
       id="path3088"
       d="m 232.42,477.15 0,0 0,0 0,0.01 0.01,0 0,0.01 0,0 0,0.01 0,0.01 0,0 0.01,0.01 0,0.01 0,0.01 0,0.01 0.01,0.01 0,0.03 0.01,0.02 0.01,0.03 0,0.03 0.01,0.03 0.01,0.03 0.01,0.03 0.01,0.06 0.02,0.06 0,0.03 0.01,0.03 0.01,0.03 0.01,0.03 0,0.02 0.01,0.03 0.01,0.02 0,0.01 0,0.01 0.01,0.01 0,0.01 0,0.01 0,0.01 0,0.01 0.01,0 0,0.01 0,0 0,0.01 0,0 0,0.01 0,0 c 0.02,0.05 0.22,0.4 0.44,0.57 0.08,0.05 0.27,0.19 0.57,0.19 0.07,0 0.24,0 0.38,-0.09 -0.22,-0.07 -0.31,-0.26 -0.31,-0.39 0,-0.15 0.12,-0.25 0.28,-0.25 0.16,0 0.39,0.13 0.39,0.42 0,0.36 -0.38,0.51 -0.74,0.51 -0.36,0 -0.67,-0.15 -0.98,-0.5 -0.12,0.43 -0.55,0.5 -0.72,0.5 -0.25,0 -0.43,-0.16 -0.54,-0.36 -0.16,-0.27 -0.26,-0.67 -0.26,-0.71 0,-0.09 0.1,-0.09 0.12,-0.09 0.1,0 0.11,0.02 0.15,0.21 0.11,0.43 0.24,0.75 0.51,0.75 0.18,0 0.23,-0.15 0.23,-0.34 0,-0.13 -0.06,-0.39 -0.11,-0.57 -0.05,-0.19 -0.12,-0.48 -0.15,-0.63 l -0.22,-0.89 c -0.03,-0.09 -0.07,-0.26 -0.07,-0.29 0,-0.15 0.12,-0.22 0.23,-0.22 0.11,0 0.25,0.06 0.3,0.2 0.02,0.05 0.09,0.35 0.14,0.52 z"
       inkscape:connector-curvature="0"
       style="fill:#000000;stroke-width:0" /></g>  <g
     id="g3166"
     transform="matrix(4,0,0,-4,-710.83086,2122.3934)"
     xml:space="preserve"
     stroke-miterlimit="10.433"
     font-style="normal"
     font-variant="normal"
     font-weight="normal"
     font-stretch="normal"
     font-size-adjust="none"
     letter-spacing="normal"
     word-spacing="normal"
     ns0:text="$E_1$"
     ns0:preamble="/home/ken/.config/inkscape/textextpreamble.txt"
     style="font-style:normal;font-variant:normal;font-weight:normal;font-stretch:normal;letter-spacing:normal;word-spacing:normal;text-anchor:start;fill:none;stroke:#000000;stroke-linecap:butt;stroke-linejoin:miter;stroke-miterlimit:10.43299961;stroke-opacity:1;stroke-dasharray:none;stroke-dashoffset:0"><path
       d="m 230.48,479.55 0,0 0,0.01 0,0.01 0.01,0.01 0,0.01 0.01,0.01 0,0.01 0,0.01 0.01,0.01 0,0.01 0,0 0,0 0.01,0.01 0,0 0,0.01 0,0 0,0.01 0,0 0,0 0,0.01 0,0 0.01,0 0,0 0,0.01 0,0 c 0,0.01 0,0.11 -0.12,0.11 -0.09,0 -0.11,-0.06 -0.13,-0.12 -0.65,-1.47 -1.02,-2.14 -2.72,-2.14 h -1.45 c -0.14,0 -0.16,0 -0.22,0.01 -0.1,0.01 -0.13,0.02 -0.13,0.1 0,0.03 0,0.05 0.05,0.23 l 0.68,2.71 h 0.98 c 0.85,0 0.85,-0.21 0.85,-0.45 0,-0.07 0,-0.19 -0.07,-0.49 -0.02,-0.05 -0.03,-0.08 -0.03,-0.11 0,-0.05 0.04,-0.11 0.13,-0.11 0.08,0 0.11,0.05 0.15,0.2 l 0.56,2.32 c 0,0.06 -0.05,0.11 -0.12,0.11 -0.09,0 -0.11,-0.06 -0.14,-0.18 -0.2,-0.75 -0.38,-0.98 -1.3,-0.98 h -0.93 l 0.59,2.4 c 0.09,0.34 0.1,0.38 0.54,0.38 h 1.4 c 1.22,0 1.52,-0.29 1.52,-1.1 0,-0.24 0,-0.26 -0.04,-0.53 0,-0.06 -0.01,-0.13 -0.01,-0.18 0,-0.05 0.03,-0.11 0.11,-0.11 0.11,0 0.12,0.06 0.14,0.24 l 0.2,1.72 c 0.03,0.27 -0.02,0.27 -0.26,0.27 h -5.03 c -0.2,0 -0.3,0 -0.3,-0.2 0,-0.11 0.09,-0.11 0.28,-0.11 0.37,0 0.65,0 0.65,-0.18 0,-0.04 0,-0.06 -0.05,-0.23 l -1.32,-5.26 c -0.09,-0.39 -0.11,-0.47 -0.9,-0.47 -0.17,0 -0.28,0 -0.28,-0.19 0,-0.12 0.09,-0.12 0.28,-0.12 h 5.16 c 0.23,0 0.24,0.01 0.31,0.17 z"
       id="path3168"
       inkscape:connector-curvature="0"
       style="fill:#000000;stroke-width:0" /><path
       d="m 233.12,480.16 0,0.01 0,0.01 0,0.01 0,0.01 0,0 0,0.01 0,0.01 0,0.01 0,0 0,0.01 0,0.01 0,0 0,0.01 0,0 -0.01,0.01 0,0 0,0.01 0,0 0,0.01 0,0.01 -0.01,0.01 0,0 0,0.01 -0.01,0.01 0,0 -0.01,0.01 0,0 -0.01,0 -0.01,0.01 -0.01,0 -0.01,0 0,0 -0.01,0 -0.01,0 0,0 -0.01,0.01 0,0 -0.01,0 0,0 -0.01,0 -0.01,0 -0.01,0 0,0 -0.01,0 -0.01,0 -0.01,0 0,0 -0.01,0 -0.01,0 -0.01,0 c -0.45,-0.44 -1.08,-0.45 -1.37,-0.45 v -0.25 c 0.17,0 0.63,0 1.01,0.2 v -3.55 c 0,-0.23 0,-0.32 -0.69,-0.32 h -0.27 v -0.25 c 0.13,0.01 0.99,0.03 1.24,0.03 0.22,0 1.1,-0.02 1.25,-0.03 v 0.25 h -0.26 c -0.7,0 -0.7,0.09 -0.7,0.32 z"
       id="path3170"
       inkscape:connector-curvature="0"
       style="fill:#000000;stroke-width:0" /></g>  <g
     style="font-style:normal;font-variant:normal;font-weight:normal;font-stretch:normal;letter-spacing:normal;word-spacing:normal;text-anchor:start;fill:none;stroke:#000000;stroke-linecap:butt;stroke-linejoin:miter;stroke-miterlimit:10.43299961;stroke-opacity:1;stroke-dasharray:none;stroke-dashoffset:0"
     ns0:preamble="/home/ken/.config/inkscape/textextpreamble.txt"
     ns0:text="$\\eta_1$"
     word-spacing="normal"
     letter-spacing="normal"
     font-size-adjust="none"
     font-stretch="normal"
     font-weight="normal"
     font-variant="normal"
     font-style="normal"
     stroke-miterlimit="10.433"
     xml:space="preserve"
     transform="matrix(4,0,0,-4,-694.94982,2024.4316)"
     id="g3247"><path
       id="path3249"
       d="m 228.29,479.99 0.01,0.03 0,0.03 0.01,0.03 0.01,0.03 0.01,0.04 0,0.03 0.01,0.03 0.01,0.03 0,0.03 0,0.04 0.01,0.02 0,0.02 0,0.02 0,0.01 0,0.02 0,0.03 0,0.02 0.01,0.02 0,0.02 0,0.02 0,0.03 0,0.02 c 0,0.65 -0.4,1.07 -1.15,1.07 -0.78,0 -1.3,-0.52 -1.54,-0.87 -0.05,0.57 -0.47,0.87 -0.92,0.87 -0.45,0 -0.64,-0.39 -0.73,-0.57 -0.18,-0.34 -0.31,-0.93 -0.31,-0.96 0,-0.1 0.1,-0.1 0.12,-0.1 0.1,0 0.11,0.01 0.17,0.23 0.17,0.7 0.37,1.18 0.73,1.18 0.16,0 0.3,-0.08 0.3,-0.46 0,-0.21 -0.03,-0.32 -0.16,-0.83 l -0.57,-2.3 c -0.03,-0.15 -0.09,-0.38 -0.09,-0.43 0,-0.18 0.14,-0.26 0.29,-0.26 0.12,0 0.29,0.07 0.37,0.27 0,0.02 0.12,0.49 0.18,0.74 l 0.22,0.89 c 0.06,0.22 0.12,0.44 0.17,0.67 0.02,0.06 0.1,0.39 0.11,0.45 0.03,0.08 0.34,0.64 0.68,0.91 0.22,0.16 0.52,0.35 0.95,0.35 0.43,0 0.54,-0.34 0.54,-0.7 0,-0.05 0,-0.23 -0.1,-0.62 l -1.13,-4.57 c -0.03,-0.12 -0.03,-0.14 -0.03,-0.16 0,-0.15 0.11,-0.27 0.27,-0.27 0.31,0 0.38,0.29 0.41,0.4 z"
       inkscape:connector-curvature="0"
       style="fill:#000000;stroke-width:0" /><path
       id="path3251"
       d="m 230.71,480.16 0,0.01 0,0.01 0,0.01 0,0.01 0,0 0,0.01 0,0.01 0,0.01 0,0 0,0.01 0,0.01 0,0 0,0.01 0,0 0,0.01 0,0 0,0.01 -0.01,0 0,0.01 0,0.01 0,0.01 -0.01,0 0,0.01 0,0.01 -0.01,0 0,0.01 -0.01,0 -0.01,0 -0.01,0.01 0,0 -0.01,0 -0.01,0 -0.01,0 0,0 -0.01,0 0,0.01 -0.01,0 -0.01,0 0,0 -0.01,0 -0.01,0 0,0 -0.01,0 -0.01,0 0,0 -0.01,0 -0.01,0 -0.01,0 -0.01,0 -0.01,0 c -0.44,-0.44 -1.08,-0.45 -1.36,-0.45 v -0.25 c 0.16,0 0.62,0 1.01,0.2 v -3.55 c 0,-0.23 0,-0.32 -0.7,-0.32 h -0.26 v -0.25 c 0.12,0.01 0.98,0.03 1.24,0.03 0.21,0 1.09,-0.02 1.24,-0.03 v 0.25 h -0.26 c -0.7,0 -0.7,0.09 -0.7,0.32 z"
       inkscape:connector-curvature="0"
       style="fill:#000000;stroke-width:0" /></g></svg>
