<?xml version="1.0" encoding="UTF-8" standalone="no"?>
<!-- Created with Inkscape (http://www.inkscape.org/) -->

<svg
   xmlns:ns0="http://www.iki.fi/pav/software/textext/"
   xmlns:dc="http://purl.org/dc/elements/1.1/"
   xmlns:cc="http://creativecommons.org/ns#"
   xmlns:rdf="http://www.w3.org/1999/02/22-rdf-syntax-ns#"
   xmlns:svg="http://www.w3.org/2000/svg"
   xmlns="http://www.w3.org/2000/svg"
   xmlns:sodipodi="http://sodipodi.sourceforge.net/DTD/sodipodi-0.dtd"
   xmlns:inkscape="http://www.inkscape.org/namespaces/inkscape"
   id="svg2"
   version="1.1"
   inkscape:version="0.48.4 r9939"
   width="364.62216"
   height="817.90051"
   xml:space="preserve"
   sodipodi:docname="uniaxial extension.svg"><sodipodi:namedview
     pagecolor="#ffffff"
     bordercolor="#666666"
     borderopacity="1"
     objecttolerance="10"
     gridtolerance="10"
     guidetolerance="10"
     inkscape:pageopacity="0"
     inkscape:pageshadow="2"
     inkscape:window-width="1920"
     inkscape:window-height="1055"
     id="namedview4"
     showgrid="false"
     inkscape:zoom="0.98333333"
     inkscape:cx="142.81701"
     inkscape:cy="465.41197"
     inkscape:window-x="0"
     inkscape:window-y="0"
     inkscape:window-maximized="1"
     inkscape:current-layer="g10"
     fit-margin-top="0"
     fit-margin-left="0"
     fit-margin-right="0"
     fit-margin-bottom="0"
     inkscape:snap-grids="true"
     showguides="true"
     inkscape:guide-bbox="true" /><metadata
     id="metadata8"><rdf:RDF><cc:Work
         rdf:about=""><dc:format>image/svg+xml</dc:format><dc:type
           rdf:resource="http://purl.org/dc/dcmitype/StillImage" /><dc:title /></cc:Work></rdf:RDF></metadata><defs
     id="defs6"><inkscape:perspective
   id="perspective10"
   inkscape:persp3d-origin="300 : 400 : 1"
   inkscape:vp_z="700 : 600 : 1"
   inkscape:vp_y="0 : 1000 : 0"
   inkscape:vp_x="-50 : 600 : 1"
   sodipodi:type="inkscape:persp3d" /><inkscape:perspective
   id="perspective81"
   inkscape:persp3d-origin="300 : 400 : 1"
   inkscape:vp_z="700 : 600 : 1"
   inkscape:vp_y="0 : 1000 : 0"
   inkscape:vp_x="-50 : 600 : 1"
   sodipodi:type="inkscape:persp3d" /><filter
   height="3.0366831"
   y="-1.0183415"
   width="1.180557"
   x="-0.090278499"
   id="filter3347"
   inkscape:collect="always"
   color-interpolation-filters="sRGB"><feGaussianBlur
     id="feGaussianBlur3349"
     stdDeviation="7.5769449"
     inkscape:collect="always" /></filter><inkscape:perspective
   id="perspective10-8"
   inkscape:persp3d-origin="300 : 400 : 1"
   inkscape:vp_z="700 : 600 : 1"
   inkscape:vp_y="0 : 1000 : 0"
   inkscape:vp_x="-50 : 600 : 1"
   sodipodi:type="inkscape:persp3d" /><inkscape:perspective
   id="perspective22"
   inkscape:persp3d-origin="300 : 400 : 1"
   inkscape:vp_z="700 : 600 : 1"
   inkscape:vp_y="0 : 1000 : 0"
   inkscape:vp_x="-50 : 600 : 1"
   sodipodi:type="inkscape:persp3d" /><filter
   color-interpolation-filters="sRGB"
   height="3.0366831"
   y="-1.0183415"
   width="1.180557"
   x="-0.090278499"
   id="filter3347-7-8"
   inkscape:collect="always"><feGaussianBlur
     id="feGaussianBlur3349-9-9"
     stdDeviation="7.5769449"
     inkscape:collect="always" /></filter><filter
   color-interpolation-filters="sRGB"
   height="3.0366831"
   y="-1.0183415"
   width="1.180557"
   x="-0.090278499"
   id="filter3347-7-8-5"
   inkscape:collect="always"><feGaussianBlur
     id="feGaussianBlur3349-9-9-4"
     stdDeviation="7.5769449"
     inkscape:collect="always" /></filter>




 --&gt;
     --&gt;
     --&gt;
     --&gt;
     --&gt;
     --&gt;
     --&gt;
     --&gt;
     --&gt;
     --&gt;
     --&gt;
    <defs
   id="defs5" /><marker
   style="overflow:visible"
   id="Arrow1Lend"
   refX="0"
   refY="0"
   orient="auto"
   inkscape:stockid="Arrow1Lend"><path
     transform="matrix(-0.8,0,0,-0.8,-10,0)"
     style="fill-rule:evenodd;stroke:#000000;stroke-width:1pt"
     d="M 0,0 5,-5 -12.5,0 5,5 0,0 z"
     id="path3840"
     inkscape:connector-curvature="0" /></marker><marker
   style="overflow:visible"
   id="Arrow1Lstart"
   refX="0"
   refY="0"
   orient="auto"
   inkscape:stockid="Arrow1Lstart"><path
     transform="matrix(0.8,0,0,0.8,10,0)"
     style="fill-rule:evenodd;stroke:#000000;stroke-width:1pt"
     d="M 0,0 5,-5 -12.5,0 5,5 0,0 z"
     id="path3837"
     inkscape:connector-curvature="0" /></marker></defs><g
     id="g10"
     inkscape:groupmode="layer"
     inkscape:label="ink_ext_XXXXXX"
     transform="matrix(1.25,0,0,-1.25,55.062554,651.23291)"
     style="display:inline"><path
       inkscape:connector-curvature="0"
       id="path14"
       style="fill:#00ffff;stroke:#000000;stroke-width:2.4000001;stroke-linecap:butt;stroke-linejoin:miter;stroke-miterlimit:4;stroke-opacity:1;stroke-dasharray:none"
       d="m 4.0673865,58.454173 65.4570005,0 0,214.151997 -65.4570005,0 0,-214.151997 z" /><path
       inkscape:connector-curvature="0"
       id="path16"
       style="fill:none;stroke:#000000;stroke-width:2.8371799;stroke-linecap:butt;stroke-linejoin:miter;stroke-miterlimit:4;stroke-opacity:1;stroke-dasharray:none"
       d="m 164.47837,-2.7512898 51.566,0 0,379.9059998 -51.566,0 0,-379.9059998 z" /><g
       transform="matrix(0.87329407,0,0,-0.77018243,-304.67697,669.83903)"
       id="layer1"
       inkscape:label="Layer 1"><g
         transform="matrix(-0.35543067,0,0,0.3230842,700.44928,497.69807)"
         id="layer1-9"
         inkscape:label="Layer 1"><g
           transform="matrix(-1,0,0,1,1242.5161,11.610852)"
           id="g3363"><path
             style="fill:#1247fd;fill-opacity:1;fill-rule:evenodd;stroke:#000000;stroke-width:5.4000001;stroke-linecap:butt;stroke-linejoin:miter;stroke-miterlimit:4;stroke-opacity:1;stroke-dasharray:none"
             d="m 516.42857,463.79076 0,-70.00001 92.85714,0 -22.15476,-38.37316 133.98053,72.49654 -129.35119,76.49407 18.45325,-40.07561 -93.78497,-0.54183 z"
             id="path2388"
             sodipodi:nodetypes="cccccccc"
             inkscape:connector-curvature="0" /><path
             style="opacity:0.95454544;fill:#ffffff;fill-opacity:1;fill-rule:evenodd;stroke:none;filter:url(#filter3347)"
             d="m 649.90594,420.21932 c 29.69787,0.0398 25.39639,-0.0798 55.09405,0.0532 l 14.28571,9.9468 -14.28571,7.80392 -55.09405,0.0532 c -41.02304,0 -134.0488,11.97627 -134.0488,11.94679 l 0,-45.75072 c 0,0 93.02576,15.94679 134.0488,15.94679 z"
             id="rect3160"
             sodipodi:nodetypes="cccccccc"
             inkscape:connector-curvature="0" /></g></g></g><g
       transform="matrix(0,-0.89135749,0.85939135,0,-359.35097,377.6943)"
       id="layer1-7-6"
       inkscape:label="Layer 1"><g
         transform="matrix(-0.35543067,0,0,0.3230842,700.44928,497.69807)"
         id="layer1-9-8-5"
         inkscape:label="Layer 1"><g
           transform="matrix(-1,0,0,1,1242.5161,11.610852)"
           id="g3363-2-4"><path
             style="fill:#1247fd;fill-opacity:1;fill-rule:evenodd;stroke:#000000;stroke-width:5.4000001;stroke-linecap:butt;stroke-linejoin:miter;stroke-miterlimit:4;stroke-opacity:1;stroke-dasharray:none"
             d="m 516.42857,463.79076 0,-70.00001 92.85714,0 -22.15476,-38.37316 133.98053,72.49654 -129.35119,76.49407 18.45325,-40.07561 -93.78497,-0.54183 z"
             id="path2388-0-4"
             sodipodi:nodetypes="cccccccc"
             inkscape:connector-curvature="0" /><path
             style="opacity:0.95454544;fill:#ffffff;fill-opacity:1;fill-rule:evenodd;stroke:none;filter:url(#filter3347-7-8)"
             d="m 649.90594,420.21932 c 29.69787,0.0398 25.39639,-0.0798 55.09405,0.0532 l 14.28571,9.9468 -14.28571,7.80392 -55.09405,0.0532 c -41.02304,0 -134.0488,11.97627 -134.0488,11.94679 l 0,-45.75072 c 0,0 93.02576,15.94679 134.0488,15.94679 z"
             id="rect3160-8-4"
             sodipodi:nodetypes="cccccccc"
             inkscape:connector-curvature="0" /></g></g></g><path
       d="m 207.72235,245.89655 0,-235.142967 30.20185,0 30.20185,0 0,235.142967 0,235.14297 -30.20185,0 -30.20185,0 0,-235.14297 z"
       id="path4614"
       inkscape:connector-curvature="0"
       transform="matrix(0.8,0,0,-0.8,0,384)"
       style="fill:#00ffff;fill-opacity:1" /><g
       style="display:inline"
       transform="matrix(0,0.89135752,0.85939136,0,-360.3154,-8.2547743)"
       id="layer1-7-6-4"
       inkscape:label="Layer 1"><g
         transform="matrix(-0.35543067,0,0,0.3230842,700.44928,497.69807)"
         id="layer1-9-8-5-1"
         inkscape:label="Layer 1"><g
           transform="matrix(-1,0,0,1,1242.5161,11.610852)"
           id="g3363-2-4-8"><path
             style="fill:#1247fd;fill-opacity:1;fill-rule:evenodd;stroke:#000000;stroke-width:5.4000001;stroke-linecap:butt;stroke-linejoin:miter;stroke-miterlimit:4;stroke-opacity:1;stroke-dasharray:none"
             d="m 516.42857,463.79076 0,-70.00001 92.85714,0 -22.15476,-38.37316 133.98053,72.49654 -129.35119,76.49407 18.45325,-40.07561 -93.78497,-0.54183 z"
             id="path2388-0-4-5"
             sodipodi:nodetypes="cccccccc"
             inkscape:connector-curvature="0" /><path
             style="opacity:0.95454544;fill:#ffffff;fill-opacity:1;fill-rule:evenodd;stroke:none;filter:url(#filter3347-7-8-5)"
             d="m 649.90594,420.21932 c 29.69787,0.0398 25.39639,-0.0798 55.09405,0.0532 l 14.28571,9.9468 -14.28571,7.80392 -55.09405,0.0532 c -41.02304,0 -134.0488,11.97627 -134.0488,11.94679 l 0,-45.75072 c 0,0 93.02576,15.94679 134.0488,15.94679 z"
             id="rect3160-8-4-7"
             sodipodi:nodetypes="cccccccc"
             inkscape:connector-curvature="0" /></g></g></g><g
       id="g4847"
       transform="translate(426.30509,242.44068)"><path
         transform="matrix(0.8,0,0,-0.8,2.875,458.80168)"
         inkscape:connector-curvature="0"
         id="path3499"
         d="m -431.18644,409.85564 -87.45763,0 0,-84.40678"
         style="fill:none;stroke:#000000;stroke-width:2.5;stroke-linecap:butt;stroke-linejoin:miter;stroke-miterlimit:4;stroke-opacity:1;stroke-dasharray:none;marker-start:url(#Arrow1Lstart);marker-end:url(#Arrow1Lend)" /><path
         transform="matrix(0.8,0,0,-0.8,2.875,458.80168)"
         inkscape:connector-curvature="0"
         id="path3501"
         d="m -517.62712,407.82174 -46.77966,46.77967"
         style="fill:none;stroke:#000000;stroke-width:2.5;stroke-linecap:butt;stroke-linejoin:miter;stroke-miterlimit:4;stroke-opacity:1;stroke-dasharray:none;marker-end:url(#Arrow1Lend)" /><text
         transform="scale(1,-1)"
         sodipodi:linespacing="125%"
         id="text4835"
         y="-64.205307"
         x="-473.87076"
         style="font-size:32px;font-style:normal;font-weight:normal;line-height:125%;letter-spacing:0px;word-spacing:0px;fill:#000000;fill-opacity:1;stroke:none;font-family:Sans"
         xml:space="preserve"><tspan
           y="-64.205307"
           x="-473.87076"
           id="tspan4837"
           sodipodi:role="line">1</tspan></text>
<text
         transform="scale(1,-1)"
         sodipodi:linespacing="125%"
         id="text4839"
         y="-117.08667"
         x="-330.68433"
         style="font-size:32px;font-style:normal;font-weight:normal;line-height:125%;letter-spacing:0px;word-spacing:0px;fill:#000000;fill-opacity:1;stroke:none;font-family:Sans"
         xml:space="preserve"><tspan
           y="-117.08667"
           x="-330.68433"
           id="tspan4841"
           sodipodi:role="line">2</tspan></text>
<text
         transform="scale(1,-1)"
         sodipodi:linespacing="125%"
         id="text4843"
         y="-217.15445"
         x="-421.80298"
         style="font-size:32px;font-style:normal;font-weight:normal;line-height:125%;letter-spacing:0px;word-spacing:0px;fill:#000000;fill-opacity:1;stroke:none;font-family:Sans"
         xml:space="preserve"><tspan
           y="-217.15445"
           x="-421.80298"
           id="tspan4845"
           sodipodi:role="line">3</tspan></text>
</g><g
       style="font-style:normal;font-variant:normal;font-weight:normal;font-stretch:normal;letter-spacing:normal;word-spacing:normal;text-anchor:start;fill:none;stroke:#000000;stroke-linecap:butt;stroke-linejoin:miter;stroke-miterlimit:10.43299961;stroke-opacity:1;stroke-dasharray:none;stroke-dashoffset:0"
       id="content"
       transform="matrix(3.9664447,0,0,4.6980189,-871.23311,-2229.5786)"
       xml:space="preserve"
       stroke-miterlimit="10.433"
       font-style="normal"
       font-variant="normal"
       font-weight="normal"
       font-stretch="normal"
       font-size-adjust="none"
       letter-spacing="normal"
       word-spacing="normal"
       ns0:text="$w_0$"
       ns0:preamble="/home/ken/.config/inkscape/textextpreamble.txt"><path
         style="fill:#000000;stroke-width:0"
         inkscape:connector-curvature="0"
         d="m 228.03,480.6 0,0.02 0.01,0.03 0,0.02 0.01,0.02 0.01,0.02 0,0.03 0.01,0.05 0.02,0.05 0.01,0.05 0.01,0.05 0.01,0.05 0.01,0.02 0,0.02 0.01,0.02 0,0.03 0.01,0.02 0,0.02 0.01,0.02 0,0.01 0.01,0.02 0,0.02 0,0.01 0,0.01 0.01,0.01 0,0.01 0,0.01 0,0.01 c 0,0.18 -0.14,0.27 -0.29,0.27 -0.12,0 -0.3,-0.08 -0.37,-0.28 -0.03,-0.07 -0.5,-1.97 -0.57,-2.23 -0.07,-0.3 -0.09,-0.47 -0.09,-0.65 0,-0.11 0,-0.13 0.01,-0.18 -0.22,-0.53 -0.52,-0.84 -0.91,-0.84 -0.8,0 -0.8,0.74 -0.8,0.91 0,0.32 0.05,0.7 0.52,1.92 0.11,0.3 0.17,0.44 0.17,0.64 0,0.45 -0.33,0.82 -0.82,0.82 -0.94,0 -1.31,-1.45 -1.31,-1.53 0,-0.1 0.1,-0.1 0.12,-0.1 0.1,0 0.11,0.02 0.16,0.17 0.27,0.93 0.66,1.24 1,1.24 0.09,0 0.25,-0.01 0.25,-0.33 0,-0.25 -0.11,-0.53 -0.18,-0.7 -0.43,-1.17 -0.55,-1.62 -0.55,-2 0,-0.91 0.66,-1.25 1.41,-1.25 0.17,0 0.64,0 1.03,0.69 0.26,-0.64 0.95,-0.69 1.25,-0.69 0.74,0 1.18,0.62 1.44,1.22 0.34,0.77 0.66,2.1 0.66,2.58 0,0.55 -0.27,0.7 -0.44,0.7 -0.25,0 -0.5,-0.26 -0.5,-0.48 0,-0.13 0.06,-0.19 0.15,-0.27 0.11,-0.11 0.36,-0.37 0.36,-0.84 0,-0.34 -0.29,-1.31 -0.55,-1.82 -0.26,-0.53 -0.6,-0.88 -1.09,-0.88 -0.47,0 -0.74,0.3 -0.74,0.87 0,0.28 0.07,0.59 0.11,0.72 z"
         id="path3100" /><path
         style="fill:#000000;stroke-width:0"
         inkscape:connector-curvature="0"
         d="m 234.16,477.96 0,0.14 -0.01,0.14 0,0.13 -0.01,0.12 -0.01,0.13 -0.02,0.12 -0.01,0.11 -0.03,0.11 -0.02,0.11 -0.03,0.11 -0.03,0.1 -0.04,0.1 -0.05,0.1 -0.04,0.09 -0.05,0.1 -0.03,0.04 -0.03,0.05 c -0.22,0.32 -0.65,0.6 -1.21,0.6 v -0.2 c 0.38,0 0.74,-0.23 0.87,-0.63 0.11,-0.38 0.11,-0.88 0.11,-1.48 0,-0.51 0,-1.03 -0.09,-1.47 -0.14,-0.63 -0.61,-0.78 -0.89,-0.78 h 0 c -0.32,0 -0.74,0.18 -0.88,0.75 -0.1,0.41 -0.1,0.99 -0.1,1.5 0,0.51 0,1.04 0.1,1.42 0.15,0.55 0.6,0.69 0.88,0.69 v 0.2 c -1.61,0 -1.61,-1.9 -1.61,-2.4 0,-0.5 0,-2.36 1.61,-2.36 1.62,0 1.62,1.86 1.62,2.36 z"
         id="path3102" /></g><g
       ns0:preamble="/home/ken/.config/inkscape/textextpreamble.txt"
       ns0:text="$w$"
       word-spacing="normal"
       letter-spacing="normal"
       font-size-adjust="none"
       font-stretch="normal"
       font-weight="normal"
       font-variant="normal"
       font-style="normal"
       stroke-miterlimit="10.433"
       xml:space="preserve"
       transform="matrix(3.8950321,0,0,5.4013586,-694.00122,-2710.4843)"
       id="g3225"
       style="font-style:normal;font-variant:normal;font-weight:normal;font-stretch:normal;letter-spacing:normal;word-spacing:normal;text-anchor:start;fill:none;stroke:#000000;stroke-linecap:butt;stroke-linejoin:miter;stroke-miterlimit:10.43299961;stroke-opacity:1;stroke-dasharray:none;stroke-dashoffset:0"><path
         id="path3227"
         d="m 228.03,480.6 0,0.02 0.01,0.03 0,0.02 0.01,0.02 0.01,0.02 0,0.03 0.01,0.05 0.02,0.05 0.01,0.05 0.01,0.05 0.01,0.05 0.01,0.02 0,0.02 0.01,0.02 0,0.03 0.01,0.02 0,0.02 0.01,0.02 0,0.01 0.01,0.02 0,0.02 0,0.01 0,0.01 0.01,0.01 0,0.01 0,0.01 0,0.01 c 0,0.18 -0.14,0.27 -0.29,0.27 -0.12,0 -0.3,-0.08 -0.37,-0.28 -0.03,-0.07 -0.5,-1.97 -0.57,-2.23 -0.07,-0.3 -0.09,-0.47 -0.09,-0.65 0,-0.11 0,-0.13 0.01,-0.18 -0.22,-0.53 -0.52,-0.84 -0.91,-0.84 -0.8,0 -0.8,0.74 -0.8,0.91 0,0.32 0.05,0.7 0.52,1.92 0.11,0.3 0.17,0.44 0.17,0.64 0,0.45 -0.33,0.82 -0.82,0.82 -0.94,0 -1.31,-1.45 -1.31,-1.53 0,-0.1 0.1,-0.1 0.12,-0.1 0.1,0 0.11,0.02 0.16,0.17 0.27,0.93 0.66,1.24 1,1.24 0.09,0 0.25,-0.01 0.25,-0.33 0,-0.25 -0.11,-0.53 -0.18,-0.7 -0.43,-1.17 -0.55,-1.62 -0.55,-2 0,-0.91 0.66,-1.25 1.41,-1.25 0.17,0 0.64,0 1.03,0.69 0.26,-0.64 0.95,-0.69 1.25,-0.69 0.74,0 1.18,0.62 1.44,1.22 0.34,0.77 0.66,2.1 0.66,2.58 0,0.55 -0.27,0.7 -0.44,0.7 -0.25,0 -0.5,-0.26 -0.5,-0.48 0,-0.13 0.06,-0.19 0.15,-0.27 0.11,-0.11 0.36,-0.37 0.36,-0.84 0,-0.34 -0.29,-1.31 -0.55,-1.82 -0.26,-0.53 -0.6,-0.88 -1.09,-0.88 -0.47,0 -0.74,0.3 -0.74,0.87 0,0.28 0.07,0.59 0.11,0.72 z"
         inkscape:connector-curvature="0"
         style="fill:#000000;stroke-width:0" /></g><g
       ns0:preamble="/home/ken/.config/inkscape/textextpreamble.txt"
       ns0:text="$\\sigma_3^p$"
       word-spacing="normal"
       letter-spacing="normal"
       font-size-adjust="none"
       font-stretch="normal"
       font-weight="normal"
       font-variant="normal"
       font-style="normal"
       stroke-miterlimit="10.433"
       xml:space="preserve"
       transform="matrix(4.8460056,0,0,4.4648204,-920.27259,-1644.8534)"
       id="g3472"
       style="font-style:normal;font-variant:normal;font-weight:normal;font-stretch:normal;letter-spacing:normal;word-spacing:normal;text-anchor:start;fill:none;stroke:#000000;stroke-linecap:butt;stroke-linejoin:miter;stroke-miterlimit:10.43299961;stroke-opacity:1;stroke-dasharray:none;stroke-dashoffset:0"><path
         id="path3474"
         d="m 228.59,480.94 0.01,0 0.01,0 0.02,0 0.01,0 0.02,0 0.02,0 0.02,0 0.02,0.01 0.02,0 0.02,0 0.02,0 0.02,0.01 0.02,0 0.02,0.01 0.02,0 0.02,0.01 0.02,0.01 0.02,0.01 0.02,0.01 0.01,0.01 0.02,0.02 0.02,0.01 0,0.01 0.01,0.01 0.01,0 0.01,0.01 0,0.01 0.01,0.01 0,0.01 0.01,0.01 0,0.01 0.01,0.01 0,0.01 0.01,0.02 0,0.01 0,0.01 0.01,0.01 0,0.02 0,0.01 0,0.02 0,0.01 0,0.02 c 0,0.24 -0.21,0.24 -0.39,0.24 h -2.26 c -1.51,0 -2.61,-1.64 -2.61,-2.82 0,-0.88 0.59,-1.57 1.49,-1.57 l 0.01,0.21 c -0.49,0 -0.88,0.36 -0.88,1.08 0,0.29 0.12,1.11 0.47,1.7 0.41,0.68 1.01,0.82 1.35,0.82 0.83,0 0.91,-0.65 0.91,-0.96 0,-0.47 -0.2,-1.28 -0.53,-1.79 -0.39,-0.59 -0.93,-0.85 -1.32,-0.85 h 0 l -0.01,-0.21 c 1.18,0 2.5,1.2 2.5,2.73 0,0.17 0,0.64 -0.31,1.08 z"
         inkscape:connector-curvature="0"
         style="fill:#000000;stroke-width:0" /><path
         id="path3476"
         d="m 230,481.17 0,-0.01 0,-0.02 -0.01,-0.02 0,-0.01 -0.01,-0.02 0,-0.01 -0.01,-0.01 0,-0.02 -0.01,-0.01 0,-0.01 -0.01,-0.01 0,-0.01 -0.01,-0.01 0,-0.01 -0.01,-0.01 -0.01,0 -0.01,-0.01 -0.01,-0.01 -0.01,0 -0.01,-0.01 -0.01,0 -0.01,-0.01 -0.02,0 -0.01,0 -0.02,-0.01 -0.01,0 -0.01,0 -0.01,0 0,0 -0.01,0 -0.01,0 -0.01,0 -0.02,0 -0.01,0 -0.01,-0.01 -0.01,0 -0.01,0 -0.01,0 -0.02,0 c -0.09,0 -0.18,0 -0.18,-0.14 0,-0.08 0.06,-0.11 0.09,-0.11 0.18,0 0.41,0.03 0.6,0.03 0.24,0 0.5,-0.03 0.73,-0.03 0.06,0 0.14,0.03 0.14,0.16 0,0.09 -0.09,0.09 -0.18,0.09 -0.15,0 -0.34,0 -0.34,0.09 0,0.03 0.05,0.21 0.08,0.32 0.08,0.37 0.18,0.74 0.25,1.03 0.09,-0.13 0.3,-0.41 0.72,-0.41 v 0.2 c -0.49,0 -0.62,0.53 -0.62,0.6 0,0.03 0.01,0.08 0.02,0.11 l 0.35,1.4 c 0.41,0.53 0.75,0.63 0.98,0.63 0.27,0 0.5,-0.2 0.5,-0.67 0,-0.29 -0.15,-0.99 -0.36,-1.4 -0.17,-0.34 -0.51,-0.67 -0.87,-0.67 v -0.2 c 0.85,0 1.79,0.94 1.79,1.98 0,0.81 -0.56,1.16 -1.04,1.16 -0.44,0 -0.8,-0.29 -0.99,-0.49 -0.12,0.4 -0.51,0.49 -0.72,0.49 -0.27,0 -0.44,-0.18 -0.55,-0.37 -0.14,-0.24 -0.25,-0.65 -0.25,-0.69 0,-0.1 0.1,-0.1 0.12,-0.1 0.09,0 0.1,0.03 0.15,0.21 0.1,0.41 0.24,0.75 0.51,0.75 0.18,0 0.23,-0.15 0.23,-0.34 0,-0.07 -0.02,-0.16 -0.02,-0.2 z"
         inkscape:connector-curvature="0"
         style="fill:#000000;stroke-width:0" /><path
         id="path3478"
         d="m 231.03,476.9 0.05,0 0.05,0 0.04,-0.01 0.05,-0.01 0.05,-0.01 0.04,-0.01 0.05,-0.01 0.04,-0.02 0.04,-0.02 0.04,-0.02 0.04,-0.02 0.04,-0.03 0.04,-0.02 0.03,-0.03 0.04,-0.04 0.03,-0.03 0.03,-0.04 0.03,-0.03 0.02,-0.04 0.03,-0.05 0.02,-0.04 0.02,-0.05 0.02,-0.05 0.02,-0.05 0.02,-0.05 0.01,-0.06 0.01,-0.06 0.01,-0.06 0.01,-0.06 0.01,-0.06 0,-0.07 0,-0.07 c 0,-0.86 -0.5,-1.12 -0.91,-1.12 -0.27,0 -0.89,0.08 -1.18,0.49 0.33,0.01 0.4,0.24 0.4,0.39 0,0.22 -0.16,0.38 -0.38,0.38 -0.19,0 -0.39,-0.12 -0.39,-0.4 0,-0.66 0.73,-1.08 1.57,-1.08 0.97,0 1.64,0.65 1.64,1.34 0,0.54 -0.45,1.09 -1.22,1.25 0.73,0.26 1,0.78 1,1.21 0,0.55 -0.64,0.96 -1.41,0.96 -0.77,0 -1.36,-0.38 -1.36,-0.94 0,-0.23 0.15,-0.36 0.36,-0.36 0.21,0 0.35,0.16 0.35,0.35 0,0.2 -0.14,0.35 -0.35,0.36 0.24,0.31 0.72,0.38 0.98,0.38 0.32,0 0.75,-0.15 0.75,-0.75 0,-0.29 -0.09,-0.62 -0.27,-0.83 -0.24,-0.27 -0.43,-0.28 -0.78,-0.3 -0.17,-0.01 -0.19,-0.01 -0.22,-0.02 -0.02,0 -0.07,-0.01 -0.07,-0.09 0,-0.1 0.06,-0.1 0.18,-0.1 z"
         inkscape:connector-curvature="0"
         style="fill:#000000;stroke-width:0" /></g><g
       id="g3617"
       transform="matrix(3.8950321,0,0,5.4013586,-914.12361,-2420.9327)"
       xml:space="preserve"
       stroke-miterlimit="10.433"
       font-style="normal"
       font-variant="normal"
       font-weight="normal"
       font-stretch="normal"
       font-size-adjust="none"
       letter-spacing="normal"
       word-spacing="normal"
       ns0:text="$\\ell_0$"
       ns0:preamble="/home/ken/.config/inkscape/textextpreamble.txt"
       style="font-style:normal;font-variant:normal;font-weight:normal;font-stretch:normal;letter-spacing:normal;word-spacing:normal;text-anchor:start;fill:none;stroke:#000000;stroke-linecap:butt;stroke-linejoin:miter;stroke-miterlimit:10.43299961;stroke-opacity:1;stroke-dasharray:none;stroke-dashoffset:0;display:inline"><path
         d="m 223.59,478.22 0,-0.01 -0.01,0 0,-0.01 -0.01,0 0,-0.01 0,-0.01 -0.01,0 0,-0.01 -0.01,0 0,-0.01 0,0 0,0 0,-0.01 0,0 0,0 -0.01,-0.01 0,0 0,0 0,-0.01 0,0 0,0 0,-0.01 0,0 c 0,-0.05 0.06,-0.13 0.12,-0.13 0.05,0 0.08,0.03 0.36,0.31 0.08,0.07 0.28,0.26 0.36,0.34 0.1,-0.79 0.38,-1.52 1.11,-1.52 0.4,0 0.75,0.22 0.96,0.37 0.14,0.1 0.6,0.49 0.6,0.59 0,0.03 -0.03,0.12 -0.12,0.12 -0.03,0 -0.04,-0.01 -0.13,-0.09 -0.63,-0.63 -1,-0.78 -1.29,-0.78 -0.45,0 -0.61,0.52 -0.61,1.3 0,0.05 0.02,0.51 0.05,0.56 0.02,0.03 0.02,0.05 0.22,0.25 0.81,0.8 2.22,2.48 2.22,4.02 0,0.17 0,0.78 -0.59,0.78 l 0.02,-0.22 c 0.33,0 0.33,-0.36 0.33,-0.52 0,-1.66 -1.67,-3.39 -2.15,-3.89 h 0 c 0.02,0.11 0.45,2.31 1.02,3.48 0.27,0.53 0.48,0.93 0.8,0.93 l -0.02,0.22 c -0.82,0 -1.56,-1.64 -1.66,-1.87 -0.47,-1.08 -0.78,-2.24 -0.78,-3.43 z"
         id="path3619"
         inkscape:connector-curvature="0"
         style="fill:#000000;stroke-width:0" /><path
         d="m 231.18,477.96 0,0.14 -0.01,0.14 0,0.13 -0.01,0.12 -0.01,0.13 -0.02,0.12 -0.02,0.11 -0.02,0.11 -0.02,0.11 -0.03,0.11 -0.04,0.1 -0.03,0.1 -0.05,0.1 -0.04,0.09 -0.06,0.1 -0.02,0.04 -0.03,0.05 c -0.22,0.32 -0.65,0.6 -1.21,0.6 v -0.2 c 0.38,0 0.74,-0.23 0.86,-0.63 0.12,-0.38 0.12,-0.88 0.12,-1.48 0,-0.51 0,-1.03 -0.09,-1.47 -0.14,-0.63 -0.61,-0.78 -0.89,-0.78 h 0 c -0.32,0 -0.74,0.18 -0.88,0.75 -0.1,0.41 -0.1,0.99 -0.1,1.5 0,0.51 0,1.04 0.1,1.42 0.15,0.55 0.59,0.69 0.88,0.69 v 0.2 c -1.61,0 -1.61,-1.9 -1.61,-2.4 0,-0.5 0,-2.36 1.61,-2.36 1.62,0 1.62,1.86 1.62,2.36 z"
         id="path3621"
         inkscape:connector-curvature="0"
         style="fill:#000000;stroke-width:0" /></g><g
       style="font-style:normal;font-variant:normal;font-weight:normal;font-stretch:normal;letter-spacing:normal;word-spacing:normal;text-anchor:start;fill:none;stroke:#000000;stroke-linecap:butt;stroke-linejoin:miter;stroke-miterlimit:10.43299961;stroke-opacity:1;stroke-dasharray:none;stroke-dashoffset:0;display:inline"
       ns0:preamble="/home/ken/.config/inkscape/textextpreamble.txt"
       ns0:text="$\\ell$"
       word-spacing="normal"
       letter-spacing="normal"
       font-size-adjust="none"
       font-stretch="normal"
       font-weight="normal"
       font-variant="normal"
       font-style="normal"
       stroke-miterlimit="10.433"
       xml:space="preserve"
       transform="matrix(3.8950321,0,0,5.4013586,-638.04366,-2412.4596)"
       id="g3763"><path
         id="path3765"
         d="m 223.59,478.22 0,-0.01 -0.01,0 0,-0.01 -0.01,0 0,-0.01 0,-0.01 -0.01,0 0,-0.01 -0.01,0 0,-0.01 0,0 0,0 0,-0.01 0,0 0,0 -0.01,-0.01 0,0 0,0 0,-0.01 0,0 0,0 0,-0.01 0,0 c 0,-0.05 0.06,-0.13 0.12,-0.13 0.05,0 0.08,0.03 0.36,0.31 0.08,0.07 0.28,0.26 0.36,0.34 0.1,-0.79 0.38,-1.52 1.11,-1.52 0.4,0 0.75,0.22 0.96,0.37 0.14,0.1 0.6,0.49 0.6,0.59 0,0.03 -0.03,0.12 -0.12,0.12 -0.03,0 -0.04,-0.01 -0.13,-0.09 -0.63,-0.63 -1,-0.78 -1.29,-0.78 -0.45,0 -0.61,0.52 -0.61,1.3 0,0.05 0.02,0.51 0.05,0.56 0.02,0.03 0.02,0.05 0.22,0.25 0.81,0.8 2.22,2.48 2.22,4.02 0,0.17 0,0.78 -0.59,0.78 l 0.02,-0.22 c 0.33,0 0.33,-0.36 0.33,-0.52 0,-1.66 -1.67,-3.39 -2.15,-3.89 h 0 c 0.02,0.11 0.45,2.31 1.02,3.48 0.27,0.53 0.48,0.93 0.8,0.93 l -0.02,0.22 c -0.82,0 -1.56,-1.64 -1.66,-1.87 -0.47,-1.08 -0.78,-2.24 -0.78,-3.43 z"
         inkscape:connector-curvature="0"
         style="fill:#000000;stroke-width:0" /></g></g></svg>