<?xml version="1.0" encoding="UTF-8" standalone="no"?>
<!-- Created with Inkscape (http://www.inkscape.org/) -->

<svg
   xmlns:ns0="http://www.iki.fi/pav/software/textext/"
   xmlns:dc="http://purl.org/dc/elements/1.1/"
   xmlns:cc="http://creativecommons.org/ns#"
   xmlns:rdf="http://www.w3.org/1999/02/22-rdf-syntax-ns#"
   xmlns:svg="http://www.w3.org/2000/svg"
   xmlns="http://www.w3.org/2000/svg"
   xmlns:xlink="http://www.w3.org/1999/xlink"
   xmlns:sodipodi="http://sodipodi.sourceforge.net/DTD/sodipodi-0.dtd"
   xmlns:inkscape="http://www.inkscape.org/namespaces/inkscape"
   width="251"
   height="305.16205"
   id="svg2"
   version="1.1"
   inkscape:version="0.48.4 r9939"
   sodipodi:docname="New document 11">
  <sodipodi:namedview
     id="base"
     pagecolor="#ffffff"
     bordercolor="#666666"
     borderopacity="1.0"
     inkscape:pageopacity="0.0"
     inkscape:pageshadow="2"
     inkscape:zoom="1.3995495"
     inkscape:cx="224.16299"
     inkscape:cy="163.74413"
     inkscape:document-units="px"
     inkscape:current-layer="layer1"
     showgrid="true"
     units="in"
     width="11cm"
     inkscape:window-width="1274"
     inkscape:window-height="580"
     inkscape:window-x="0"
     inkscape:window-y="384"
     inkscape:window-maximized="0"
     fit-margin-top="0"
     fit-margin-left="0"
     fit-margin-right="0"
     fit-margin-bottom="0"
     inkscape:snap-object-midpoints="false"
     inkscape:snap-grids="true">
    <inkscape:grid
       type="xygrid"
       id="grid2984"
       empspacing="5"
       visible="true"
       enabled="true"
       snapvisiblegridlinesonly="true"
       spacingx="2px"
       spacingy="2px"
       originx="-109.5px"
       originy="-65.337946px" />
  </sodipodi:namedview>
  <defs
     id="defs4">
    <marker
       inkscape:stockid="Arrow2Lstart"
       orient="auto"
       refY="0"
       refX="0"
       id="Arrow2Lstart"
       style="overflow:visible">
      <path
         id="path4647"
         style="fill-rule:evenodd;stroke-width:0.625;stroke-linejoin:round"
         d="M 8.7185878,4.0337352 -2.2072895,0.01601326 8.7185884,-4.0017078 c -1.7454984,2.3720609 -1.7354408,5.6174519 -6e-7,8.035443 z"
         transform="matrix(1.1,0,0,1.1,1.1,0)"
         inkscape:connector-curvature="0" />
    </marker>
    <marker
       inkscape:stockid="Arrow2Lend"
       orient="auto"
       refY="0"
       refX="0"
       id="Arrow2Lend"
       style="overflow:visible">
      <path
         id="path4650"
         style="fill-rule:evenodd;stroke-width:0.625;stroke-linejoin:round"
         d="M 8.7185878,4.0337352 -2.2072895,0.01601326 8.7185884,-4.0017078 c -1.7454984,2.3720609 -1.7354408,5.6174519 -6e-7,8.035443 z"
         transform="matrix(-1.1,0,0,-1.1,-1.1,0)"
         inkscape:connector-curvature="0" />
    </marker>
    <marker
       style="overflow:visible"
       id="Arrow2Mend"
       refX="0"
       refY="0"
       orient="auto"
       inkscape:stockid="Arrow2Mend">
      <path
         transform="scale(-0.6,-0.6)"
         d="M 8.7185878,4.0337352 -2.2072895,0.01601326 8.7185884,-4.0017078 c -1.7454984,2.3720609 -1.7354408,5.6174519 -6e-7,8.035443 z"
         style="fill-rule:evenodd;stroke-width:0.625;stroke-linejoin:round"
         id="path3966"
         inkscape:connector-curvature="0" />
    </marker>
  </defs>
  <metadata
     id="metadata7">
    <rdf:RDF>
      <cc:Work
         rdf:about="">
        <dc:format>image/svg+xml</dc:format>
        <dc:type
           rdf:resource="http://purl.org/dc/dcmitype/StillImage" />
        <dc:title></dc:title>
      </cc:Work>
    </rdf:RDF>
  </metadata>
  <g
     transform="translate(-46.471642,-705.54724)"
     id="layer1"
     inkscape:groupmode="layer"
     inkscape:label="Layer 1">
    <path
       style="fill:none;stroke:#0066ff;stroke-width:1px;stroke-linecap:butt;stroke-linejoin:miter;stroke-opacity:1"
       d="m 200,80.535706 0,190.000004"
       id="path4065"
       inkscape:connector-curvature="0"
       transform="translate(-63.028358,665.51153)"
       sodipodi:nodetypes="cc" />
    <path
       style="fill:none;stroke:#0066ff;stroke-width:1px;stroke-linecap:butt;stroke-linejoin:miter;stroke-opacity:1"
       d="m 280,80.535706 0,190.000004"
       id="path4067"
       inkscape:connector-curvature="0"
       transform="translate(-63.028358,665.51153)" />
    <path
       style="fill:none;stroke:#0066ff;stroke-width:1px;stroke-linecap:butt;stroke-linejoin:miter;stroke-opacity:1"
       d="m 360,80.535706 0,190.000004"
       id="path4069"
       inkscape:connector-curvature="0"
       transform="translate(-63.028358,665.51153)"
       sodipodi:nodetypes="cc" />
    <path
       style="fill:none;stroke:#0066ff;stroke-width:1px;stroke-linecap:butt;stroke-linejoin:miter;stroke-opacity:1"
       d="m 200,280.53571 c 0,0 0,20 20,20 20,0 20,10 20,10 0,0 0,-10 20,-10 20,0 20,-20 20,-20"
       id="path4071"
       inkscape:connector-curvature="0"
       transform="translate(-63.028358,665.51153)"
       sodipodi:nodetypes="cscsc" />
    <path
       style="fill:none;stroke:#0066ff;stroke-width:1px;stroke-linecap:butt;stroke-linejoin:miter;stroke-opacity:1"
       d="m 216.97164,946.04724 c 0,0 0,20 20,20 20,0 20,10 20,10 0,0 0,-10 20,-10 20,0 20,-20 20,-20"
       id="path4071-6"
       inkscape:connector-curvature="0"
       sodipodi:nodetypes="cscsc" />
    <text
       xml:space="preserve"
       style="font-size:16px;font-style:normal;font-variant:normal;font-weight:500;font-stretch:normal;text-align:start;line-height:100%;letter-spacing:0px;word-spacing:0px;writing-mode:lr-tb;text-anchor:start;fill:#000000;fill-opacity:1;stroke:none;font-family:Rekha;-inkscape-font-specification:Rekha Medium"
       x="166.97165"
       y="1006.0472"
       id="text4091"
       sodipodi:linespacing="100%"><tspan
         sodipodi:role="line"
         id="tspan4093"
         x="166.97165"
         y="1006.0472"
         style="font-size:22px">(100) planes</tspan></text>
    <path
       style="fill:none;stroke:#000000;stroke-width:1px;stroke-linecap:butt;stroke-linejoin:miter;stroke-opacity:1;marker-start:url(#Arrow2Lstart);marker-end:url(#Arrow2Lend)"
       d="m 200,230.53571 80,0"
       id="path4095"
       inkscape:connector-curvature="0"
       transform="translate(-63.028358,665.51153)" />
    <path
       style="fill:none;stroke:#000000;stroke-width:1px;stroke-linecap:butt;stroke-linejoin:miter;stroke-opacity:1;marker-end:url(#Arrow2Lend)"
       d="m 200,200.53571 80,-40"
       id="path4097"
       inkscape:connector-curvature="0"
       transform="translate(-63.028358,665.51153)" />
    <path
       style="fill:none;stroke:#d40000;stroke-width:1;stroke-linecap:butt;stroke-linejoin:miter;stroke-miterlimit:4;stroke-opacity:1;stroke-dasharray:4, 4;stroke-dashoffset:0"
       d="M 160,40.535706 340,220.53571"
       id="path4099"
       inkscape:connector-curvature="0"
       transform="translate(-63.028358,665.51153)"
       sodipodi:nodetypes="cc" />
    <path
       style="fill:none;stroke:#d40000;stroke-width:1;stroke-linecap:butt;stroke-linejoin:miter;stroke-miterlimit:4;stroke-opacity:1;stroke-dasharray:4, 4;stroke-dashoffset:0"
       d="m 290,290.53571 -180,-180"
       id="path4101"
       inkscape:connector-curvature="0"
       transform="translate(-63.028358,665.51153)"
       sodipodi:nodetypes="cc" />
    <path
       style="fill:none;stroke:#000000;stroke-width:1px;stroke-linecap:butt;stroke-linejoin:miter;stroke-opacity:1"
       d="m 200,160.04898 c 12.88658,-4.56867 33.49625,10.22125 32.92035,24.02655"
       id="path4105"
       inkscape:connector-curvature="0"
       transform="translate(-63.028358,665.51153)"
       sodipodi:nodetypes="cc" />
    <path
       sodipodi:type="arc"
       style="fill:none;stroke:#000000;stroke-width:1;stroke-linecap:round;stroke-miterlimit:4;stroke-opacity:1;stroke-dasharray:none;stroke-dashoffset:0"
       id="path4107"
       sodipodi:cx="200"
       sodipodi:cy="200.53571"
       sodipodi:rx="10"
       sodipodi:ry="10"
       d="m 190.00826,200.94213 c -0.22446,-5.51828 4.06703,-10.1737 9.58531,-10.39816 5.51829,-0.22447 10.1737,4.06702 10.39817,9.58531 0.22446,5.51828 -4.06703,10.1737 -9.58531,10.39816 -5.5106,0.22415 -10.16235,-4.05548 -10.39735,-9.56563"
       transform="translate(-63.028358,665.51153)"
       sodipodi:start="3.1009386"
       sodipodi:end="9.382155"
       sodipodi:open="true" />
    <path
       style="fill:none;stroke:#000000;stroke-width:1px;stroke-linecap:butt;stroke-linejoin:miter;stroke-opacity:1;marker-end:url(#Arrow2Lend)"
       d="M 200,200.53571 200,80.535706"
       id="path4623"
       inkscape:connector-curvature="0"
       transform="translate(-63.028358,665.51153)" />
    <g
       id="g5953"
       transform="matrix(2.576461,0,0,2.576461,-420.75126,590.85815)"
       ns0:preamble=""
       ns0:text="$d_{100}$">
      <defs
         id="defs5955">
        <g
           id="g5957">
          <symbol
             id="textext-5d266bab-0"
             overflow="visible"
             style="overflow:visible">
            <path
               id="path5960"
               d=""
               style="stroke:none"
               inkscape:connector-curvature="0" />
          </symbol>
          <symbol
             id="textext-5d266bab-1"
             overflow="visible"
             style="overflow:visible">
            <path
               id="path5963"
               d="m 5.140625,-6.8125 c 0,0 0,-0.109375 -0.125,-0.109375 -0.15625,0 -1.09375,0.09375 -1.265625,0.109375 -0.078125,0.015625 -0.140625,0.0625 -0.140625,0.1875 0,0.125 0.09375,0.125 0.234375,0.125 0.484375,0 0.5,0.0625 0.5,0.171875 L 4.3125,-6.125 3.71875,-3.765625 C 3.53125,-4.140625 3.25,-4.40625 2.796875,-4.40625 c -1.15625,0 -2.390625,1.46875 -2.390625,2.921875 0,0.9375 0.546875,1.59375 1.3125,1.59375 0.203125,0 0.703125,-0.046875 1.296875,-0.75 0.078125,0.421875 0.4375,0.75 0.90625,0.75 0.359375,0 0.578125,-0.234375 0.75,-0.546875 0.15625,-0.359375 0.296875,-0.96875 0.296875,-0.984375 0,-0.109375 -0.09375,-0.109375 -0.125,-0.109375 -0.09375,0 -0.109375,0.046875 -0.140625,0.1875 -0.171875,0.640625 -0.34375,1.234375 -0.75,1.234375 -0.28125,0 -0.296875,-0.265625 -0.296875,-0.453125 0,-0.25 0.015625,-0.3125 0.046875,-0.484375 z m -2.0625,5.625 C 3.015625,-1 3.015625,-0.984375 2.875,-0.8125 2.4375,-0.265625 2.03125,-0.109375 1.75,-0.109375 c -0.5,0 -0.640625,-0.546875 -0.640625,-0.9375 0,-0.5 0.3125,-1.71875 0.546875,-2.1875 0.3125,-0.578125 0.75,-0.953125 1.15625,-0.953125 0.640625,0 0.78125,0.8125 0.78125,0.875 0,0.0625 -0.015625,0.125 -0.03125,0.171875 z m 0,0"
               style="stroke:none"
               inkscape:connector-curvature="0" />
          </symbol>
          <symbol
             id="textext-5d266bab-2"
             overflow="visible"
             style="overflow:visible">
            <path
               id="path5966"
               d=""
               style="stroke:none"
               inkscape:connector-curvature="0" />
          </symbol>
          <symbol
             id="textext-5d266bab-3"
             overflow="visible"
             style="overflow:visible">
            <path
               id="path5969"
               d="m 2.328125,-4.4375 c 0,-0.1875 0,-0.1875 -0.203125,-0.1875 -0.453125,0.4375 -1.078125,0.4375 -1.359375,0.4375 l 0,0.25 c 0.15625,0 0.625,0 1,-0.1875 l 0,3.546875 c 0,0.234375 0,0.328125 -0.6875,0.328125 l -0.265625,0 0,0.25 c 0.125,0 0.984375,-0.03125 1.234375,-0.03125 0.21875,0 1.09375,0.03125 1.25,0.03125 l 0,-0.25 -0.265625,0 c -0.703125,0 -0.703125,-0.09375 -0.703125,-0.328125 z m 0,0"
               style="stroke:none"
               inkscape:connector-curvature="0" />
          </symbol>
          <symbol
             id="textext-5d266bab-4"
             overflow="visible"
             style="overflow:visible">
            <path
               id="path5972"
               d="M 3.59375,-2.21875 C 3.59375,-2.984375 3.5,-3.546875 3.1875,-4.03125 2.96875,-4.34375 2.53125,-4.625 1.984375,-4.625 c -1.625,0 -1.625,1.90625 -1.625,2.40625 0,0.5 0,2.359375 1.625,2.359375 1.609375,0 1.609375,-1.859375 1.609375,-2.359375 z M 1.984375,-0.0625 c -0.328125,0 -0.75,-0.1875 -0.890625,-0.75 C 1,-1.21875 1,-1.796875 1,-2.3125 1,-2.828125 1,-3.359375 1.09375,-3.734375 1.25,-4.28125 1.6875,-4.4375 1.984375,-4.4375 c 0.375,0 0.734375,0.234375 0.859375,0.640625 0.109375,0.375 0.125,0.875 0.125,1.484375 0,0.515625 0,1.03125 -0.09375,1.46875 -0.140625,0.640625 -0.609375,0.78125 -0.890625,0.78125 z m 0,0"
               style="stroke:none"
               inkscape:connector-curvature="0" />
          </symbol>
        </g>
      </defs>
      <g
         id="textext-5d266bab-5">
        <g
           id="g5975"
           style="fill:#000000;fill-opacity:1">
          <use
             id="use5977"
             y="134.765"
             x="223.43201"
             xlink:href="#textext-5d266bab-1"
             width="666.37817"
             height="410.53571" />
        </g>
        <g
           id="g5979"
           style="fill:#000000;fill-opacity:1">
          <use
             id="use5981"
             y="136.259"
             x="228.618"
             xlink:href="#textext-5d266bab-3"
             width="666.37817"
             height="410.53571" />
          <use
             id="use5983"
             y="136.259"
             x="232.58958"
             xlink:href="#textext-5d266bab-4"
             width="666.37817"
             height="410.53571" />
          <use
             id="use5985"
             y="136.259"
             x="236.56116"
             xlink:href="#textext-5d266bab-4"
             width="666.37817"
             height="410.53571" />
        </g>
      </g>
    </g>
    <g
       ns0:text="$\\bar{a}$"
       ns0:preamble=""
       transform="matrix(2.576461,0,0,2.576461,-349.32223,478.00331)"
       id="g6152">
      <defs
         id="defs6154">
        <g
           id="g6156">
          <symbol
             style="overflow:visible"
             overflow="visible"
             id="textext-6a0e085c-0">
            <path
               inkscape:connector-curvature="0"
               style="stroke:none"
               d=""
               id="path6159" />
          </symbol>
          <symbol
             style="overflow:visible"
             overflow="visible"
             id="textext-6a0e085c-1">
            <path
               inkscape:connector-curvature="0"
               style="stroke:none"
               d="m 4.28125,-5.578125 0,-0.296875 -3.59375,0 0,0.296875 z m 0,0"
               id="path6162" />
          </symbol>
          <symbol
             style="overflow:visible"
             overflow="visible"
             id="textext-6a0e085c-2">
            <path
               inkscape:connector-curvature="0"
               style="stroke:none"
               d=""
               id="path6165" />
          </symbol>
          <symbol
             style="overflow:visible"
             overflow="visible"
             id="textext-6a0e085c-3">
            <path
               inkscape:connector-curvature="0"
               style="stroke:none"
               d="M 3.71875,-3.765625 C 3.53125,-4.140625 3.25,-4.40625 2.796875,-4.40625 c -1.15625,0 -2.390625,1.46875 -2.390625,2.921875 0,0.9375 0.546875,1.59375 1.3125,1.59375 0.203125,0 0.703125,-0.046875 1.296875,-0.75 0.078125,0.421875 0.4375,0.75 0.90625,0.75 0.359375,0 0.578125,-0.234375 0.75,-0.546875 0.15625,-0.359375 0.296875,-0.96875 0.296875,-0.984375 0,-0.109375 -0.09375,-0.109375 -0.125,-0.109375 -0.09375,0 -0.109375,0.046875 -0.140625,0.1875 -0.171875,0.640625 -0.34375,1.234375 -0.75,1.234375 -0.28125,0 -0.296875,-0.265625 -0.296875,-0.453125 0,-0.21875 0.015625,-0.3125 0.125,-0.75 C 3.890625,-1.71875 3.90625,-1.828125 4,-2.203125 L 4.359375,-3.59375 c 0.0625,-0.28125 0.0625,-0.296875 0.0625,-0.34375 0,-0.171875 -0.109375,-0.265625 -0.28125,-0.265625 -0.25,0 -0.390625,0.21875 -0.421875,0.4375 z M 3.078125,-1.1875 C 3.015625,-1 3.015625,-0.984375 2.875,-0.8125 2.4375,-0.265625 2.03125,-0.109375 1.75,-0.109375 c -0.5,0 -0.640625,-0.546875 -0.640625,-0.9375 0,-0.5 0.3125,-1.71875 0.546875,-2.1875 0.3125,-0.578125 0.75,-0.953125 1.15625,-0.953125 0.640625,0 0.78125,0.8125 0.78125,0.875 0,0.0625 -0.015625,0.125 -0.03125,0.171875 z m 0,0"
               id="path6168" />
          </symbol>
        </g>
      </defs>
      <g
         id="textext-6a0e085c-4">
        <g
           style="fill:#000000;fill-opacity:1"
           id="g6171">
          <use
             height="410.53571"
             width="666.37817"
             xlink:href="#textext-6a0e085c-1"
             x="223.575"
             y="134.765"
             id="use6173" />
        </g>
        <g
           style="fill:#000000;fill-opacity:1"
           id="g6175">
          <use
             height="410.53571"
             width="666.37817"
             xlink:href="#textext-6a0e085c-3"
             x="223.43201"
             y="134.765"
             id="use6177" />
        </g>
      </g>
    </g>
    <g
       id="g6364"
       transform="matrix(2.576461,0,0,2.576461,-457.88998,417.29201)"
       ns0:preamble=""
       ns0:text="$\\bar{b}$">
      <defs
         id="defs6366">
        <g
           id="g6368">
          <symbol
             id="textext-6f6df895-0"
             overflow="visible"
             style="overflow:visible">
            <path
               id="path6371"
               d=""
               style="stroke:none"
               inkscape:connector-curvature="0" />
          </symbol>
          <symbol
             id="textext-6f6df895-1"
             overflow="visible"
             style="overflow:visible">
            <path
               id="path6374"
               d="m 4.28125,-5.578125 0,-0.296875 -3.59375,0 0,0.296875 z m 0,0"
               style="stroke:none"
               inkscape:connector-curvature="0" />
          </symbol>
          <symbol
             id="textext-6f6df895-2"
             overflow="visible"
             style="overflow:visible">
            <path
               id="path6377"
               d=""
               style="stroke:none"
               inkscape:connector-curvature="0" />
          </symbol>
          <symbol
             id="textext-6f6df895-3"
             overflow="visible"
             style="overflow:visible">
            <path
               id="path6380"
               d="m 2.375,-6.8125 c 0,0 0,-0.109375 -0.125,-0.109375 -0.21875,0 -0.953125,0.078125 -1.21875,0.109375 -0.078125,0 -0.1875,0.015625 -0.1875,0.1875 0,0.125 0.09375,0.125 0.25,0.125 0.46875,0 0.484375,0.0625 0.484375,0.171875 0,0.0625 -0.078125,0.40625 -0.125,0.609375 l -0.828125,3.25 c -0.109375,0.5 -0.15625,0.671875 -0.15625,1.015625 0,0.9375 0.53125,1.5625 1.265625,1.5625 1.171875,0 2.40625,-1.484375 2.40625,-2.921875 0,-0.90625 -0.53125,-1.59375 -1.328125,-1.59375 -0.453125,0 -0.875,0.296875 -1.171875,0.59375 z M 1.453125,-3.046875 C 1.5,-3.265625 1.5,-3.28125 1.59375,-3.390625 2.078125,-4.03125 2.53125,-4.1875 2.796875,-4.1875 c 0.359375,0 0.625,0.296875 0.625,0.9375 0,0.59375 -0.328125,1.734375 -0.515625,2.109375 -0.328125,0.671875 -0.78125,1.03125 -1.171875,1.03125 -0.34375,0 -0.671875,-0.265625 -0.671875,-1 0,-0.203125 0,-0.390625 0.15625,-1.015625 z m 0,0"
               style="stroke:none"
               inkscape:connector-curvature="0" />
          </symbol>
        </g>
      </defs>
      <g
         id="textext-6f6df895-4">
        <g
           id="g6383"
           style="fill:#000000;fill-opacity:1">
          <use
             id="use6385"
             y="132.136"
             x="223.07899"
             xlink:href="#textext-6f6df895-1"
             width="666.37817"
             height="410.53571" />
        </g>
        <g
           id="g6387"
           style="fill:#000000;fill-opacity:1">
          <use
             id="use6389"
             y="134.765"
             x="223.43201"
             xlink:href="#textext-6f6df895-3"
             width="666.37817"
             height="410.53571" />
        </g>
      </g>
    </g>
    <g
       ns0:text="$c$"
       ns0:preamble=""
       transform="matrix(2.576461,0,0,2.576461,-458.6045,543.71943)"
       id="g6608">
      <defs
         id="defs6610">
        <g
           id="g6612">
          <symbol
             style="overflow:visible"
             overflow="visible"
             id="textext-3585a5bb-0">
            <path
               inkscape:connector-curvature="0"
               style="stroke:none"
               d=""
               id="path6615" />
          </symbol>
          <symbol
             style="overflow:visible"
             overflow="visible"
             id="textext-3585a5bb-1">
            <path
               inkscape:connector-curvature="0"
               style="stroke:none"
               d="m 3.953125,-3.78125 c -0.171875,0 -0.296875,0 -0.4375,0.125 -0.171875,0.15625 -0.1875,0.328125 -0.1875,0.390625 0,0.25 0.1875,0.359375 0.375,0.359375 0.28125,0 0.546875,-0.25 0.546875,-0.640625 0,-0.484375 -0.46875,-0.859375 -1.171875,-0.859375 -1.34375,0 -2.671875,1.421875 -2.671875,2.828125 0,0.90625 0.578125,1.6875 1.625,1.6875 1.421875,0 2.25,-1.0625 2.25,-1.171875 0,-0.0625 -0.046875,-0.140625 -0.109375,-0.140625 -0.0625,0 -0.078125,0.03125 -0.140625,0.109375 -0.78125,0.984375 -1.875,0.984375 -1.984375,0.984375 -0.625,0 -0.90625,-0.484375 -0.90625,-1.09375 0,-0.40625 0.203125,-1.375 0.546875,-1.984375 0.3125,-0.578125 0.859375,-1 1.40625,-1 0.328125,0 0.71875,0.125 0.859375,0.40625 z m 0,0"
               id="path6618" />
          </symbol>
        </g>
      </defs>
      <g
         id="textext-3585a5bb-2">
        <g
           style="fill:#000000;fill-opacity:1"
           id="g6621">
          <use
             height="410.53571"
             width="666.37817"
             xlink:href="#textext-3585a5bb-1"
             x="223.43201"
             y="134.765"
             id="use6623" />
        </g>
      </g>
    </g>
    <g
       id="g6844"
       transform="matrix(3.2312916,0,0,3.2312916,-572.88683,392.64041)"
       ns0:preamble=""
       ns0:text="$\\gamma$">
      <defs
         id="defs6846">
        <g
           id="g6848">
          <symbol
             id="textext-02cff600-0"
             overflow="visible"
             style="overflow:visible">
            <path
               id="path6851"
               d=""
               style="stroke:none"
               inkscape:connector-curvature="0" />
          </symbol>
          <symbol
             id="textext-02cff600-1"
             overflow="visible"
             style="overflow:visible">
            <path
               id="path6854"
               d="M 0.40625,-2.53125 C 0.796875,-3.671875 1.890625,-3.6875 2,-3.6875 c 1.5,0 1.609375,1.75 1.609375,2.53125 0,0.609375 -0.046875,0.78125 -0.125,0.984375 -0.21875,0.71875 -0.515625,1.875 -0.515625,2.140625 0,0.109375 0.046875,0.171875 0.125,0.171875 0.140625,0 0.21875,-0.21875 0.328125,-0.59375 C 3.65625,0.703125 3.75,0.140625 3.78125,-0.171875 c 0.03125,-0.125 0.046875,-0.25 0.09375,-0.390625 0.3125,-0.984375 0.953125,-2.46875 1.34375,-3.25 0.078125,-0.125 0.1875,-0.34375 0.1875,-0.390625 0,-0.09375 -0.09375,-0.09375 -0.109375,-0.09375 -0.03125,0 -0.09375,0 -0.125,0.0625 C 4.65625,-3.28125 4.25,-2.28125 3.859375,-1.28125 3.84375,-1.578125 3.84375,-2.34375 3.453125,-3.3125 3.203125,-3.921875 2.8125,-4.40625 2.125,-4.40625 c -1.25,0 -1.953125,1.515625 -1.953125,1.828125 0,0.09375 0.09375,0.09375 0.203125,0.09375 z m 0,0"
               style="stroke:none"
               inkscape:connector-curvature="0" />
          </symbol>
        </g>
      </defs>
      <g
         id="textext-02cff600-2">
        <g
           id="g6857"
           style="fill:#000000;fill-opacity:1">
          <use
             id="use6859"
             y="134.765"
             x="223.43201"
             xlink:href="#textext-02cff600-1"
             width="666.37817"
             height="410.53571" />
        </g>
      </g>
    </g>
  </g>
</svg>
