<?xml version="1.0" encoding="UTF-8" standalone="no"?>
<!-- Created with Inkscape (http://www.inkscape.org/) -->

<svg
   xmlns:dc="http://purl.org/dc/elements/1.1/"
   xmlns:cc="http://creativecommons.org/ns#"
   xmlns:rdf="http://www.w3.org/1999/02/22-rdf-syntax-ns#"
   xmlns:svg="http://www.w3.org/2000/svg"
   xmlns="http://www.w3.org/2000/svg"
   xmlns:sodipodi="http://sodipodi.sourceforge.net/DTD/sodipodi-0.dtd"
   xmlns:inkscape="http://www.inkscape.org/namespaces/inkscape"
   width="230.28572"
   height="207.25867"
   id="svg2"
   version="1.1"
   inkscape:version="0.48.4 r9939"
   sodipodi:docname="New document 1">
  <sodipodi:namedview
     id="base"
     pagecolor="#ffffff"
     bordercolor="#666666"
     borderopacity="1.0"
     inkscape:pageopacity="0.0"
     inkscape:pageshadow="2"
     inkscape:zoom="1.4"
     inkscape:cx="102.28354"
     inkscape:cy="103.00377"
     inkscape:document-units="px"
     inkscape:current-layer="layer1"
     showgrid="true"
     units="in"
     width="11cm"
     inkscape:window-width="1274"
     inkscape:window-height="585"
     inkscape:window-x="0"
     inkscape:window-y="379"
     inkscape:window-maximized="0"
     fit-margin-top="0"
     fit-margin-left="0"
     fit-margin-right="0"
     fit-margin-bottom="0"
     inkscape:snap-object-midpoints="false"
     inkscape:snap-grids="false">
    <inkscape:grid
       type="xygrid"
       id="grid2984"
       empspacing="5"
       visible="true"
       enabled="true"
       snapvisiblegridlinesonly="true"
       spacingx="2px"
       spacingy="2px"
       originx="-183.78572px"
       originy="-115.65639px" />
  </sodipodi:namedview>
  <defs
     id="defs4">
    <marker
       style="overflow:visible"
       id="Arrow2Mend"
       refX="0"
       refY="0"
       orient="auto"
       inkscape:stockid="Arrow2Mend">
      <path
         transform="scale(-0.6,-0.6)"
         d="M 8.7185878,4.0337352 -2.2072895,0.01601326 8.7185884,-4.0017078 c -1.7454984,2.3720609 -1.7354408,5.6174519 -6e-7,8.035443 z"
         style="fill-rule:evenodd;stroke-width:0.625;stroke-linejoin:round"
         id="path3966"
         inkscape:connector-curvature="0" />
    </marker>
  </defs>
  <metadata
     id="metadata7">
    <rdf:RDF>
      <cc:Work
         rdf:about="">
        <dc:format>image/svg+xml</dc:format>
        <dc:type
           rdf:resource="http://purl.org/dc/dcmitype/StillImage" />
        <dc:title></dc:title>
      </cc:Work>
    </rdf:RDF>
  </metadata>
  <g
     transform="translate(-120.75736,-753.13218)"
     id="layer1"
     inkscape:groupmode="layer"
     inkscape:label="Layer 1">
    <path
       style="fill:none;stroke:#000000;stroke-width:1px;stroke-linecap:butt;stroke-linejoin:miter;stroke-opacity:1"
       d="m 300,90.535706 0,200.000004"
       id="path2985"
       inkscape:connector-curvature="0"
       transform="translate(-63.028358,665.51153)" />
    <path
       style="fill:none;stroke:#000000;stroke-width:1px;stroke-linecap:butt;stroke-linejoin:miter;stroke-opacity:1"
       d="m 210,190.53571 180,0"
       id="path2987"
       inkscape:connector-curvature="0"
       transform="translate(-63.028358,665.51153)"
       sodipodi:nodetypes="cc" />
    <path
       style="fill:none;stroke:#000000;stroke-width:1px;stroke-linecap:butt;stroke-linejoin:miter;stroke-opacity:1"
       d="m 405,96.964277 -105,93.571433 -110,-75"
       id="path2989"
       inkscape:connector-curvature="0"
       transform="translate(-63.028358,665.51153)"
       sodipodi:nodetypes="ccc" />
    <path
       style="fill:none;stroke:#000000;stroke-width:1px;stroke-linecap:butt;stroke-linejoin:miter;stroke-opacity:1"
       d="m 240,280.53571 60,-90 80,100 0,0"
       id="path2991"
       inkscape:connector-curvature="0"
       transform="translate(-63.028358,665.51153)" />
    <path
       style="fill:none;stroke:#000000;stroke-width:1px;stroke-linecap:butt;stroke-linejoin:miter;stroke-opacity:1"
       d="m 350,110.53571 -50,80 -60,-90"
       id="path2993"
       inkscape:connector-curvature="0"
       transform="translate(-63.028358,665.51153)"
       sodipodi:nodetypes="ccc" />
    <path
       style="fill:none;stroke:#000000;stroke-width:1px;stroke-linecap:butt;stroke-linejoin:miter;stroke-opacity:1"
       d="m 340,180.53571 0,0 -40,10 -40,10"
       id="path2995"
       inkscape:connector-curvature="0"
       transform="translate(-63.028358,665.51153)"
       sodipodi:nodetypes="cccc" />
    <path
       style="fill:none;stroke:#000000;stroke-width:1px;stroke-linecap:butt;stroke-linejoin:miter;stroke-opacity:1"
       d="m 194.28571,280.53571 105.71429,-90 105,74.28571"
       id="path2999"
       inkscape:connector-curvature="0"
       transform="translate(-63.028358,665.51153)"
       sodipodi:nodetypes="ccc" />
    <path
       sodipodi:type="arc"
       style="fill:#000000;stroke:#000000;stroke-width:1;stroke-linecap:round;stroke-miterlimit:4;stroke-opacity:1;stroke-dasharray:none;stroke-dashoffset:0"
       id="path3001"
       sodipodi:cx="45"
       sodipodi:cy="170.53571"
       sodipodi:rx="5"
       sodipodi:ry="10"
       d="m 40.004131,170.94213 c -0.112232,-5.51828 2.033513,-10.1737 4.792655,-10.39816 2.759142,-0.22447 5.086851,4.06702 5.199083,9.58531 0.112232,5.51828 -2.033513,10.1737 -4.792655,10.39816 -2.755301,0.22415 -5.081172,-4.05548 -5.198673,-9.56563"
       transform="matrix(0.65986899,0,0,0.65986899,118.26394,744.23029)"
       sodipodi:start="3.1009386"
       sodipodi:end="9.382155"
       sodipodi:open="true" />
    <path
       sodipodi:type="arc"
       style="fill:#000000;stroke:#000000;stroke-width:1;stroke-linecap:round;stroke-miterlimit:4;stroke-opacity:1;stroke-dasharray:none;stroke-dashoffset:0"
       id="path3001-3"
       sodipodi:cx="45"
       sodipodi:cy="170.53571"
       sodipodi:rx="5"
       sodipodi:ry="10"
       d="m 40.004131,170.94213 c -0.112232,-5.51828 2.033513,-10.1737 4.792655,-10.39816 2.759142,-0.22447 5.086851,4.06702 5.199083,9.58531 0.112232,5.51828 -2.033513,10.1737 -4.792655,10.39816 -2.755301,0.22415 -5.081172,-4.05548 -5.198673,-9.56563"
       transform="matrix(0.65986899,0,0,0.65986899,296.12108,744.23029)"
       sodipodi:start="3.1009386"
       sodipodi:end="9.382155"
       sodipodi:open="true" />
    <path
       sodipodi:type="arc"
       style="fill:#000000;stroke:#000000;stroke-width:1;stroke-linecap:round;stroke-miterlimit:4;stroke-opacity:1;stroke-dasharray:none;stroke-dashoffset:0"
       id="path3001-7"
       sodipodi:cx="45"
       sodipodi:cy="170.53571"
       sodipodi:rx="5"
       sodipodi:ry="10"
       d="m 40.004131,170.94213 c -0.112232,-5.51828 2.033513,-10.1737 4.792655,-10.39816 2.759142,-0.22447 5.086851,4.06702 5.199083,9.58531 0.112232,5.51828 -2.033513,10.1737 -4.792655,10.39816 -2.755301,0.22415 -5.081172,-4.05548 -5.198673,-9.56563"
       transform="matrix(0.65986899,0,0,0.65986899,246.12108,734.23029)"
       sodipodi:start="3.1009386"
       sodipodi:end="9.382155"
       sodipodi:open="true" />
    <path
       sodipodi:type="arc"
       style="fill:#000000;stroke:#000000;stroke-width:1;stroke-linecap:round;stroke-miterlimit:4;stroke-opacity:1;stroke-dasharray:none;stroke-dashoffset:0"
       id="path3001-9"
       sodipodi:cx="45"
       sodipodi:cy="170.53571"
       sodipodi:rx="5"
       sodipodi:ry="10"
       d="m 40.004131,170.94213 c -0.112232,-5.51828 2.033513,-10.1737 4.792655,-10.39816 2.759142,-0.22447 5.086851,4.06702 5.199083,9.58531 0.112232,5.51828 -2.033513,10.1737 -4.792655,10.39816 -2.755301,0.22415 -5.081172,-4.05548 -5.198673,-9.56563"
       transform="matrix(0.65986899,0,0,0.65986899,166.12108,754.23029)"
       sodipodi:start="3.1009386"
       sodipodi:end="9.382155"
       sodipodi:open="true" />
    <path
       sodipodi:type="arc"
       style="fill:#000000;stroke:#000000;stroke-width:1;stroke-linecap:round;stroke-miterlimit:4;stroke-opacity:1;stroke-dasharray:none;stroke-dashoffset:0"
       id="path3001-2"
       sodipodi:cx="45"
       sodipodi:cy="170.53571"
       sodipodi:rx="5"
       sodipodi:ry="10"
       d="m 40.004131,170.94213 c -0.112232,-5.51828 2.033513,-10.1737 4.792655,-10.39816 2.759142,-0.22447 5.086851,4.06702 5.199083,9.58531 0.112232,5.51828 -2.033513,10.1737 -4.792655,10.39816 -2.755301,0.22415 -5.081172,-4.05548 -5.198673,-9.56563"
       transform="matrix(0,-0.65986899,-0.65986899,0,348.34641,786.45562)"
       sodipodi:start="3.1009386"
       sodipodi:end="9.382155"
       sodipodi:open="true" />
    <path
       sodipodi:type="arc"
       style="fill:#000000;stroke:#000000;stroke-width:1;stroke-linecap:round;stroke-miterlimit:4;stroke-opacity:1;stroke-dasharray:none;stroke-dashoffset:0"
       id="path3001-8"
       sodipodi:cx="45"
       sodipodi:cy="170.53571"
       sodipodi:rx="5"
       sodipodi:ry="10"
       d="m 40.004131,170.94213 c -0.112232,-5.51828 2.033513,-10.1737 4.792655,-10.39816 2.759142,-0.22447 5.086851,4.06702 5.199083,9.58531 0.112232,5.51828 -2.033513,10.1737 -4.792655,10.39816 -2.755301,0.22415 -5.081172,-4.05548 -5.198673,-9.56563"
       transform="matrix(0,0.65986899,-0.65986899,0,348.34641,927.06741)"
       sodipodi:start="3.1009386"
       sodipodi:end="9.382155"
       sodipodi:open="true" />
    <path
       style="fill:#000000;stroke:#000000;stroke-width:1px;stroke-linecap:butt;stroke-linejoin:miter;stroke-opacity:1"
       d="M 230,90.535706 231.42857,106.96428 250,90.535706 z"
       id="path3049"
       inkscape:connector-curvature="0"
       transform="translate(-63.028358,665.51153)"
       sodipodi:nodetypes="cccc" />
    <path
       style="fill:#000000;stroke:#000000;stroke-width:1px;stroke-linecap:butt;stroke-linejoin:miter;stroke-opacity:1"
       d="m 346.25736,940.33296 4.28572,-21.42857 -18.57143,20.71428 z"
       id="path3051"
       inkscape:connector-curvature="0"
       sodipodi:nodetypes="cccc" />
    <path
       style="fill:#000000;stroke:#000000;stroke-width:1px;stroke-linecap:butt;stroke-linejoin:miter;stroke-opacity:1"
       d="m 121.25736,935.33295 20,20 -17.14286,-2.85714 z"
       id="path3053"
       inkscape:connector-curvature="0"
       sodipodi:nodetypes="cccc" />
    <path
       style="fill:#000000;stroke:#000000;stroke-width:1px;stroke-linecap:butt;stroke-linejoin:miter;stroke-opacity:1"
       d="m 279.82878,769.61867 15,14.28571 0,-15.71428 z"
       id="path3055"
       inkscape:connector-curvature="0"
       sodipodi:nodetypes="cccc" />
  </g>
</svg>
