<?xml version="1.0" encoding="UTF-8" standalone="no"?>
<!-- Created with Inkscape (http://www.inkscape.org/) -->

<svg
   xmlns:ns0="http://www.iki.fi/pav/software/textext/"
   xmlns:dc="http://purl.org/dc/elements/1.1/"
   xmlns:cc="http://creativecommons.org/ns#"
   xmlns:rdf="http://www.w3.org/1999/02/22-rdf-syntax-ns#"
   xmlns:svg="http://www.w3.org/2000/svg"
   xmlns="http://www.w3.org/2000/svg"
   xmlns:sodipodi="http://sodipodi.sourceforge.net/DTD/sodipodi-0.dtd"
   xmlns:inkscape="http://www.inkscape.org/namespaces/inkscape"
   width="251.18417"
   height="95.264526"
   id="svg2"
   version="1.1"
   inkscape:version="0.48.4 r9939"
   sodipodi:docname="New document 23">
  <sodipodi:namedview
     id="base"
     pagecolor="#ffffff"
     bordercolor="#666666"
     borderopacity="1.0"
     inkscape:pageopacity="0.0"
     inkscape:pageshadow="2"
     inkscape:zoom="1.4"
     inkscape:cx="153.44006"
     inkscape:cy="49.899952"
     inkscape:document-units="px"
     inkscape:current-layer="layer1"
     showgrid="true"
     units="in"
     width="11cm"
     inkscape:window-width="1285"
     inkscape:window-height="573"
     inkscape:window-x="0"
     inkscape:window-y="391"
     inkscape:window-maximized="0"
     fit-margin-top="0"
     fit-margin-left="0"
     fit-margin-right="0"
     fit-margin-bottom="0"
     inkscape:snap-grids="false">
    <inkscape:grid
       spacingy="2px"
       spacingx="2px"
       snapvisiblegridlinesonly="true"
       enabled="true"
       visible="true"
       empspacing="5"
       id="grid2984"
       type="xygrid"
       originx="-173.30692px"
       originy="-189.18771px" />
  </sodipodi:namedview>
  <defs
     id="defs4">
    <marker
       style="overflow:visible"
       id="Arrow2Lstart"
       refX="0"
       refY="0"
       orient="auto"
       inkscape:stockid="Arrow2Lstart">
      <path
         transform="matrix(1.1,0,0,1.1,1.1,0)"
         d="M 8.7185878,4.0337352 -2.2072895,0.01601326 8.7185884,-4.0017078 c -1.7454984,2.3720609 -1.7354408,5.6174519 -6e-7,8.035443 z"
         style="fill-rule:evenodd;stroke-width:0.625;stroke-linejoin:round"
         id="path4323"
         inkscape:connector-curvature="0" />
    </marker>
    <marker
       style="overflow:visible"
       id="Arrow2Lend"
       refX="0"
       refY="0"
       orient="auto"
       inkscape:stockid="Arrow2Lend">
      <path
         transform="matrix(-1.1,0,0,-1.1,-1.1,0)"
         d="M 8.7185878,4.0337352 -2.2072895,0.01601326 8.7185884,-4.0017078 c -1.7454984,2.3720609 -1.7354408,5.6174519 -6e-7,8.035443 z"
         style="fill-rule:evenodd;stroke-width:0.625;stroke-linejoin:round"
         id="path4326"
         inkscape:connector-curvature="0" />
    </marker>
    <marker
       inkscape:stockid="Arrow2Mend"
       orient="auto"
       refY="0"
       refX="0"
       id="Arrow2Mend"
       style="overflow:visible">
      <path
         inkscape:connector-curvature="0"
         id="path3966"
         style="fill-rule:evenodd;stroke-width:0.625;stroke-linejoin:round"
         d="M 8.7185878,4.0337352 -2.2072895,0.01601326 8.7185884,-4.0017078 c -1.7454984,2.3720609 -1.7354408,5.6174519 -6e-7,8.035443 z"
         transform="scale(-0.6,-0.6)" />
    </marker>
  </defs>
  <metadata
     id="metadata7">
    <rdf:RDF>
      <cc:Work
         rdf:about="">
        <dc:format>image/svg+xml</dc:format>
        <dc:type
           rdf:resource="http://purl.org/dc/dcmitype/StillImage" />
        <dc:title></dc:title>
      </cc:Work>
    </rdf:RDF>
  </metadata>
  <g
     inkscape:label="Layer 1"
     inkscape:groupmode="layer"
     id="layer1"
     transform="translate(-110.27857,-791.595)">
    <path
       sodipodi:nodetypes="ccc"
       transform="translate(-63.028358,665.51153)"
       inkscape:connector-curvature="0"
       id="path6935"
       d="m 390,170.53571 -90,0 -90,30"
       style="fill:none;stroke:#000000;stroke-width:1.5;stroke-linecap:butt;stroke-linejoin:miter;stroke-miterlimit:4;stroke-opacity:1;stroke-dasharray:none;marker-start:url(#Arrow2Lstart);marker-end:url(#Arrow2Lend)" />
    <path
       transform="translate(-63.028358,665.51153)"
       inkscape:connector-curvature="0"
       id="path7825"
       d="m 390,170.53571 -180,30"
       style="fill:none;stroke:#000000;stroke-width:1.5;stroke-linecap:butt;stroke-linejoin:miter;stroke-miterlimit:4;stroke-opacity:1;stroke-dasharray:none;marker-end:url(#Arrow2Lend)" />
    <path
       sodipodi:open="true"
       sodipodi:end="9.3819723"
       sodipodi:start="3.1009386"
       transform="matrix(0.80519757,0,0,0.80519757,208.43259,671.62181)"
       d="m 30.004131,205.73892 c -0.112232,-2.75914 2.033513,-5.08685 4.792655,-5.19908 2.759142,-0.11224 5.086851,2.03351 5.199083,4.79265 0.112232,2.75914 -2.033513,5.08685 -4.792655,5.19908 -2.754945,0.11207 -5.080645,-2.0272 -5.198634,-4.7819"
       sodipodi:ry="5"
       sodipodi:rx="5"
       sodipodi:cy="205.53571"
       sodipodi:cx="35"
       id="path8013"
       style="opacity:0.91479821;fill:#000000;stroke:#000000;stroke-width:1;stroke-miterlimit:4;stroke-opacity:1;stroke-dasharray:none;stroke-dashoffset:0"
       sodipodi:type="arc" />
    <path
       transform="translate(-63.028358,665.51153)"
       inkscape:connector-curvature="0"
       id="path8015"
       d="m 300,170.53571 -90,0"
       style="fill:none;stroke:#000000;stroke-width:1.5;stroke-linecap:butt;stroke-linejoin:miter;stroke-miterlimit:4;stroke-opacity:1;stroke-dasharray:9, 9;stroke-dashoffset:5.4" />
    <path
       sodipodi:nodetypes="cc"
       transform="translate(-63.028358,665.51153)"
       inkscape:connector-curvature="0"
       id="path8017"
       d="m 245.71429,181.25 c -2.80504,-27.19981 -19.0425,-28.18794 -46.42857,-30.71429"
       style="fill:none;stroke:#000000;stroke-width:1px;stroke-linecap:butt;stroke-linejoin:miter;stroke-opacity:1;marker-end:url(#Arrow2Lend)" />
    <g
       id="g8959"
       transform="matrix(2.7540449,0,0,-2.7540449,-358.08946,2629.1213)"
       xml:space="preserve"
       stroke-miterlimit="10.433"
       font-style="normal"
       font-variant="normal"
       font-weight="normal"
       font-stretch="normal"
       font-size-adjust="none"
       letter-spacing="normal"
       word-spacing="normal"
       ns0:text="$\\mathrm{{\\bar{S}_o} \\over {\\lambda}}$"
       ns0:preamble=""
       style="font-style:normal;font-variant:normal;font-weight:normal;font-stretch:normal;letter-spacing:normal;word-spacing:normal;text-anchor:start;fill:none;stroke:#000000;stroke-linecap:butt;stroke-linejoin:miter;stroke-miterlimit:10.43299961;stroke-opacity:1;stroke-dasharray:none;stroke-dashoffset:0"><polygon
         style="fill:#000000;stroke-width:0"
         points="225.43,667.21 225.43,666.95 228.21,666.95 228.21,667.21 "
         id="polygon8961" /><path
         style="fill:#000000;stroke-width:0"
         inkscape:connector-curvature="0"
         d="m 226.36,664.22 -0.05,0.01 -0.06,0.02 -0.05,0.02 -0.05,0.02 -0.05,0.02 -0.04,0.02 -0.04,0.02 -0.04,0.02 -0.04,0.03 -0.04,0.02 -0.03,0.03 -0.03,0.03 -0.03,0.03 -0.03,0.03 -0.02,0.03 -0.03,0.03 -0.02,0.03 -0.02,0.03 -0.02,0.03 -0.02,0.03 -0.01,0.03 -0.02,0.04 -0.01,0.03 -0.01,0.03 -0.01,0.03 -0.01,0.03 0,0.03 -0.01,0.03 0,0.03 -0.01,0.03 0,0.03 0,0.03 c 0,0.46 0.43,0.9 1.06,0.9 0.94,0 1.34,-0.63 1.45,-1.36 0.02,-0.1 0.03,-0.14 0.13,-0.14 0.12,0 0.12,0.05 0.12,0.18 v 1.36 c 0,0.12 0,0.18 -0.1,0.18 -0.05,0 -0.07,-0.02 -0.12,-0.1 l -0.25,-0.39 c -0.46,0.47 -1.03,0.49 -1.23,0.49 -0.88,0 -1.5,-0.63 -1.5,-1.33 0,-0.39 0.17,-0.69 0.42,-0.92 0.28,-0.28 0.51,-0.32 1.26,-0.49 0.63,-0.14 0.77,-0.17 0.98,-0.36 0.16,-0.16 0.3,-0.39 0.3,-0.7 0,-0.49 -0.4,-0.98 -1.07,-0.98 -0.68,0 -1.61,0.27 -1.66,1.31 0,0.12 0,0.16 -0.12,0.16 -0.11,0 -0.11,-0.05 -0.11,-0.19 v -1.35 c 0,-0.12 0,-0.18 0.09,-0.18 0.06,0 0.07,0.02 0.11,0.08 0.07,0.09 0.21,0.31 0.26,0.4 0.44,-0.38 0.98,-0.48 1.43,-0.48 0.92,0 1.52,0.69 1.52,1.43 0,0.62 -0.44,1.21 -1.14,1.37 z"
         id="path8963" /><path
         style="fill:#000000;stroke-width:0"
         inkscape:connector-curvature="0"
         d="m 232.09,661.38 0,0.06 -0.01,0.06 -0.01,0.05 -0.01,0.06 -0.01,0.06 -0.02,0.05 -0.02,0.05 -0.03,0.06 -0.02,0.05 -0.03,0.05 -0.04,0.05 -0.03,0.04 -0.04,0.05 -0.04,0.04 -0.04,0.05 -0.04,0.04 -0.05,0.04 -0.05,0.03 -0.05,0.04 -0.05,0.03 -0.06,0.03 -0.06,0.03 -0.06,0.03 -0.06,0.02 -0.06,0.03 -0.06,0.01 -0.07,0.02 -0.07,0.01 -0.07,0.02 -0.07,0 -0.07,0.01 -0.07,0 v -0.16 c 0.87,0 0.87,-0.73 0.87,-0.96 0,-0.24 0,-0.98 -0.87,-0.98 h 0 c -0.87,0 -0.87,0.74 -0.87,0.98 0,0.23 0,0.96 0.87,0.96 v 0.16 c -0.78,0 -1.37,-0.55 -1.37,-1.17 0,-0.59 0.59,-1.11 1.37,-1.11 0.78,0 1.37,0.52 1.37,1.11 z"
         id="path8965" /><line
         style="stroke-width:0.398"
         x1="224.63"
         y1="659.72998"
         x2="232.92"
         y2="659.72998"
         id="line8967" /><path
         style="fill:#000000;stroke-width:0"
         inkscape:connector-curvature="0"
         d="m 229.22,655.79 0.07,-0.15 0.07,-0.16 0.06,-0.15 0.07,-0.16 0.06,-0.15 0.07,-0.15 0.03,-0.08 0.03,-0.07 0.03,-0.07 0.03,-0.07 0.02,-0.07 0.03,-0.06 0.03,-0.06 0.02,-0.06 0.03,-0.06 0.02,-0.05 0.02,-0.05 0.02,-0.05 0.02,-0.04 0.02,-0.04 0.02,-0.04 0.01,-0.03 0.01,-0.02 0.02,-0.03 0.01,-0.01 0,-0.01 c 0.14,-0.17 0.26,-0.17 0.37,-0.17 h 0.14 c 0.13,0 0.21,0 0.21,0.08 0,0.04 -0.03,0.06 -0.04,0.07 -0.08,0.08 -0.15,0.24 -0.18,0.3 l -1.7,4.01 c -0.05,0.12 -0.19,0.44 -0.93,0.44 -0.08,0 -0.18,0 -0.18,-0.1 0,-0.08 0.07,-0.09 0.11,-0.1 0.14,-0.02 0.28,-0.04 0.45,-0.44 l 0.83,-1.94 -2.06,-1.85 c -0.08,-0.07 -0.14,-0.13 -0.14,-0.25 0,-0.16 0.14,-0.23 0.24,-0.23 0.13,0 0.22,0.09 0.24,0.11 z"
         id="path8969" /></g>    <g
       style="font-style:normal;font-variant:normal;font-weight:normal;font-stretch:normal;letter-spacing:normal;word-spacing:normal;text-anchor:start;fill:none;stroke:#000000;stroke-linecap:butt;stroke-linejoin:miter;stroke-miterlimit:10.43299961;stroke-opacity:1;stroke-dasharray:none;stroke-dashoffset:0"
       ns0:preamble=""
       ns0:text="$\\mathrm{{\\bar{S}} \\over {\\lambda}}$"
       word-spacing="normal"
       letter-spacing="normal"
       font-size-adjust="none"
       font-stretch="normal"
       font-weight="normal"
       font-variant="normal"
       font-style="normal"
       stroke-miterlimit="10.433"
       xml:space="preserve"
       transform="matrix(2.7540449,0,0,-2.7540449,-502.37069,2635.7117)"
       id="g9054"><polygon
         id="polygon9056"
         points="228.37,666.79 228.37,667.05 225.6,667.05 225.6,666.79 "
         style="fill:#000000;stroke-width:0" /><path
         id="path9058"
         d="m 226.52,664.06 -0.05,0.01 -0.06,0.02 -0.05,0.01 -0.05,0.02 -0.04,0.02 -0.05,0.02 -0.04,0.03 -0.04,0.02 -0.04,0.03 -0.03,0.02 -0.04,0.03 -0.03,0.03 -0.03,0.03 -0.03,0.02 -0.02,0.03 -0.03,0.04 -0.02,0.03 -0.02,0.03 -0.02,0.03 -0.02,0.03 -0.01,0.03 -0.01,0.03 -0.02,0.04 -0.01,0.03 -0.01,0.03 -0.01,0.03 0,0.03 -0.01,0.03 0,0.03 0,0.03 -0.01,0.03 0,0.03 c 0,0.46 0.43,0.89 1.06,0.89 0.94,0 1.35,-0.62 1.46,-1.35 0.01,-0.11 0.02,-0.14 0.12,-0.14 0.12,0 0.12,0.05 0.12,0.18 v 1.36 c 0,0.11 0,0.18 -0.1,0.18 -0.05,0 -0.07,-0.02 -0.12,-0.1 l -0.25,-0.39 c -0.46,0.47 -1.03,0.49 -1.23,0.49 -0.88,0 -1.5,-0.63 -1.5,-1.33 0,-0.39 0.17,-0.69 0.42,-0.93 0.28,-0.27 0.51,-0.32 1.26,-0.48 0.64,-0.14 0.78,-0.17 0.98,-0.36 0.16,-0.17 0.3,-0.39 0.3,-0.7 0,-0.49 -0.4,-0.98 -1.07,-0.98 -0.67,0 -1.61,0.26 -1.66,1.31 0,0.12 0,0.16 -0.11,0.16 -0.12,0 -0.12,-0.05 -0.12,-0.19 v -1.35 c 0,-0.12 0,-0.18 0.1,-0.18 0.05,0 0.07,0.02 0.11,0.08 0.06,0.09 0.2,0.31 0.25,0.4 0.44,-0.38 0.98,-0.48 1.43,-0.48 0.92,0 1.52,0.69 1.52,1.43 0,0.62 -0.44,1.21 -1.14,1.37 z"
         inkscape:connector-curvature="0"
         style="fill:#000000;stroke-width:0" /><line
         id="line9060"
         y2="659.72998"
         x2="229.35001"
         y1="659.72998"
         x1="224.63"
         style="stroke-width:0.398" /><path
         id="path9062"
         d="m 227.44,655.79 0.07,-0.15 0.06,-0.16 0.07,-0.15 0.07,-0.16 0.06,-0.15 0.06,-0.15 0.04,-0.08 0.03,-0.07 0.03,-0.07 0.02,-0.07 0.03,-0.07 0.03,-0.06 0.03,-0.06 0.02,-0.06 0.03,-0.06 0.02,-0.05 0.02,-0.05 0.02,-0.05 0.02,-0.04 0.02,-0.04 0.02,-0.04 0.01,-0.03 0.01,-0.02 0.02,-0.03 0,-0.01 0.01,-0.01 c 0.14,-0.17 0.26,-0.17 0.37,-0.17 h 0.14 c 0.13,0 0.2,0 0.2,0.08 0,0.04 -0.02,0.06 -0.03,0.07 -0.09,0.08 -0.15,0.24 -0.18,0.3 l -1.7,4.01 c -0.05,0.12 -0.19,0.44 -0.93,0.44 -0.08,0 -0.18,0 -0.18,-0.1 0,-0.08 0.07,-0.09 0.11,-0.1 0.14,-0.02 0.27,-0.04 0.45,-0.44 l 0.83,-1.94 -2.06,-1.85 c -0.08,-0.07 -0.14,-0.13 -0.14,-0.25 0,-0.16 0.14,-0.23 0.24,-0.23 0.13,0 0.22,0.09 0.24,0.11 z"
         inkscape:connector-curvature="0"
         style="fill:#000000;stroke-width:0" /></g>    <path
       sodipodi:open="true"
       sodipodi:end="9.3819723"
       sodipodi:start="3.1009386"
       transform="matrix(0.80519757,0,0,0.80519757,118.07544,701.26467)"
       d="m 30.004131,205.73892 c -0.112232,-2.75914 2.033513,-5.08685 4.792655,-5.19908 2.759142,-0.11224 5.086851,2.03351 5.199083,4.79265 0.112232,2.75914 -2.033513,5.08685 -4.792655,5.19908 -2.754945,0.11207 -5.080645,-2.0272 -5.198634,-4.7819"
       sodipodi:ry="5"
       sodipodi:rx="5"
       sodipodi:cy="205.53571"
       sodipodi:cx="35"
       id="path8013-1"
       style="opacity:0.91479821;fill:#000000;stroke:#000000;stroke-width:1;stroke-miterlimit:4;stroke-opacity:1;stroke-dasharray:none;stroke-dashoffset:0"
       sodipodi:type="arc" />
    <path
       sodipodi:open="true"
       sodipodi:end="9.3819723"
       sodipodi:start="3.1009386"
       transform="matrix(0.80519757,0,0,0.80519757,300.2183,670.55038)"
       d="m 30.004131,205.73892 c -0.112232,-2.75914 2.033513,-5.08685 4.792655,-5.19908 2.759142,-0.11224 5.086851,2.03351 5.199083,4.79265 0.112232,2.75914 -2.033513,5.08685 -4.792655,5.19908 -2.754945,0.11207 -5.080645,-2.0272 -5.198634,-4.7819"
       sodipodi:ry="5"
       sodipodi:rx="5"
       sodipodi:cy="205.53571"
       sodipodi:cx="35"
       id="path8013-16"
       style="opacity:0.91479821;fill:#000000;stroke:#000000;stroke-width:1;stroke-miterlimit:4;stroke-opacity:1;stroke-dasharray:none;stroke-dashoffset:0"
       sodipodi:type="arc" />
    <text
       xml:space="preserve"
       style="font-size:16px;font-style:normal;font-variant:normal;font-weight:500;font-stretch:normal;text-align:start;line-height:100%;letter-spacing:0px;word-spacing:0px;writing-mode:lr-tb;text-anchor:start;fill:#000000;fill-opacity:1;stroke:none;font-family:Rekha;-inkscape-font-specification:Rekha Medium"
       x="338.40024"
       y="841.04724"
       id="text9118"
       sodipodi:linespacing="100%"><tspan
         sodipodi:role="line"
         id="tspan9120"
         x="338.40024"
         y="841.04724">000</tspan></text>
    <g
       style="font-style:normal;font-variant:normal;font-weight:normal;font-stretch:normal;letter-spacing:normal;word-spacing:normal;text-anchor:start;fill:none;stroke:#000000;stroke-linecap:butt;stroke-linejoin:miter;stroke-miterlimit:10.43299961;stroke-opacity:1;stroke-dasharray:none;stroke-dashoffset:0"
       id="content"
       transform="matrix(2.0117361,0,0,-2.0117361,-340.04856,2205.8944)"
       xml:space="preserve"
       stroke-miterlimit="10.433"
       font-style="normal"
       font-variant="normal"
       font-weight="normal"
       font-stretch="normal"
       font-size-adjust="none"
       letter-spacing="normal"
       word-spacing="normal"
       ns0:text="$\\bar{3} \\bar{1} 0$"
       ns0:preamble=""><polygon
         style="fill:#000000;stroke-width:0"
         points="224.12,665.23 224.12,664.92 227.71,664.92 227.71,665.23 "
         id="polygon9155" /><path
         style="fill:#000000;stroke-width:0"
         inkscape:connector-curvature="0"
         d="m 226.32,660.73 0.07,0.03 0.08,0.03 0.07,0.03 0.07,0.03 0.07,0.04 0.07,0.04 0.06,0.04 0.07,0.04 0.06,0.04 0.06,0.05 0.06,0.05 0.06,0.05 0.05,0.05 0.05,0.05 0.05,0.06 0.05,0.05 0.04,0.06 0.05,0.06 0.04,0.06 0.03,0.06 0.04,0.07 0.03,0.06 0.03,0.07 0.03,0.06 0.02,0.07 0.02,0.07 0.02,0.07 0.01,0.07 0.02,0.07 0,0.07 0.01,0.08 0,0.07 c 0,0.81 -0.87,1.37 -1.83,1.37 -1,0 -1.76,-0.59 -1.76,-1.35 0,-0.33 0.22,-0.52 0.51,-0.52 0.3,0 0.5,0.22 0.5,0.51 0,0.5 -0.46,0.5 -0.61,0.5 0.3,0.48 0.96,0.61 1.32,0.61 0.41,0 0.95,-0.22 0.95,-1.11 0,-0.12 -0.02,-0.7 -0.27,-1.13 -0.3,-0.48 -0.64,-0.51 -0.89,-0.52 -0.08,-0.01 -0.32,-0.03 -0.39,-0.03 -0.08,-0.01 -0.15,-0.02 -0.15,-0.12 0,-0.11 0.07,-0.11 0.24,-0.11 h 0.44 c 0.82,0 1.18,-0.67 1.18,-1.65 0,-1.35 -0.68,-1.64 -1.12,-1.64 -0.43,0 -1.17,0.17 -1.52,0.76 0.35,-0.05 0.65,0.17 0.65,0.55 0,0.35 -0.26,0.55 -0.55,0.55 -0.24,0 -0.56,-0.14 -0.56,-0.57 0,-0.91 0.92,-1.56 2.01,-1.56 1.21,0 2.12,0.9 2.12,1.91 0,0.82 -0.63,1.59 -1.66,1.8 z"
         id="path9157" /><polygon
         style="fill:#000000;stroke-width:0"
         points="229.1,665.23 229.1,664.92 232.69,664.92 232.69,665.23 "
         id="polygon9159" /><path
         style="fill:#000000;stroke-width:0"
         inkscape:connector-curvature="0"
         d="m 231.34,663.59 0,0.01 0,0.01 0,0.02 0,0.01 0,0 0,0.01 0,0.01 0,0.01 0,0.01 0,0.01 0,0.01 0,0.01 0,0 0,0.01 0,0.01 -0.01,0 0,0.01 0,0.01 0,0.01 0,0.01 0,0.01 -0.01,0.01 0,0.01 -0.01,0 0,0.01 -0.01,0.01 0,0 -0.01,0.01 -0.01,0 -0.01,0.01 0,0 -0.01,0 0,0 -0.01,0 0,0 -0.01,0 0,0.01 -0.01,0 -0.01,0 0,0 -0.01,0 -0.01,0 -0.01,0 -0.01,0 0,0 -0.01,0 -0.01,0 -0.01,0 -0.01,0 -0.01,0 -0.01,0 -0.01,0 c -0.62,-0.63 -1.49,-0.63 -1.81,-0.63 v -0.31 c 0.2,0 0.78,0 1.3,0.26 v -5.15 c 0,-0.36 -0.03,-0.48 -0.92,-0.48 h -0.32 v -0.31 c 0.35,0.04 1.21,0.04 1.61,0.04 0.4,0 1.26,0 1.61,-0.04 v 0.31 h -0.32 c -0.89,0 -0.92,0.11 -0.92,0.48 z"
         id="path9161" /><path
         style="fill:#000000;stroke-width:0"
         inkscape:connector-curvature="0"
         d="m 237.97,660.41 0,0.15 0,0.15 -0.01,0.15 0,0.15 -0.01,0.15 -0.01,0.14 -0.02,0.15 -0.02,0.15 -0.02,0.14 -0.03,0.15 -0.03,0.14 -0.04,0.15 -0.04,0.14 -0.05,0.14 -0.06,0.14 -0.03,0.07 -0.03,0.07 c -0.45,0.95 -1.27,1.11 -1.69,1.11 -0.59,0 -1.32,-0.26 -1.73,-1.18 -0.32,-0.69 -0.37,-1.46 -0.37,-2.26 0,-0.74 0.04,-1.63 0.45,-2.39 0.43,-0.8 1.15,-1 1.64,-1 v 0.21 c -0.39,0 -0.97,0.25 -1.15,1.21 -0.11,0.59 -0.11,1.51 -0.11,2.09 0,0.64 0,1.29 0.08,1.83 0.19,1.18 0.93,1.27 1.18,1.27 0.33,0 0.99,-0.18 1.18,-1.16 0.1,-0.56 0.1,-1.31 0.1,-1.94 0,-0.74 0,-1.42 -0.11,-2.05 -0.15,-0.95 -0.72,-1.25 -1.17,-1.25 h 0 v -0.21 c 0.54,0 1.29,0.2 1.73,1.15 0.32,0.68 0.37,1.46 0.37,2.24 z"
         id="path9163" /></g>    <g
       style="font-style:normal;font-variant:normal;font-weight:normal;font-stretch:normal;letter-spacing:normal;word-spacing:normal;text-anchor:start;fill:none;stroke:#000000;stroke-linecap:butt;stroke-linejoin:miter;stroke-miterlimit:10.43299961;stroke-opacity:1;stroke-dasharray:none;stroke-dashoffset:0"
       ns0:preamble=""
       ns0:text="$\\bar{r}_{\\bar{3} \\bar{1} 0} ^*$"
       word-spacing="normal"
       letter-spacing="normal"
       font-size-adjust="none"
       font-stretch="normal"
       font-weight="normal"
       font-variant="normal"
       font-style="normal"
       stroke-miterlimit="10.433"
       xml:space="preserve"
       transform="matrix(2.3531729,0,0,-2.3531729,-302.516,2424.9404)"
       id="g9272"><polygon
         id="polygon9274"
         points="224.57,663.1 224.57,662.79 228.16,662.79 228.16,663.1 "
         style="fill:#000000;stroke-width:0" /><path
         id="path9276"
         d="m 224.31,657.82 0,-0.01 -0.01,-0.02 0,-0.01 0,-0.02 -0.01,-0.03 -0.01,-0.03 -0.01,-0.03 0,-0.04 -0.01,-0.03 -0.01,-0.03 0,-0.01 -0.01,-0.02 0,-0.01 0,-0.02 0,-0.01 -0.01,-0.01 0,-0.02 0,-0.01 0,-0.01 -0.01,-0.01 0,-0.01 0,-0.01 0,-0.01 0,0 0,-0.01 0,-0.01 c 0,-0.17 0.14,-0.26 0.29,-0.26 0.12,0 0.29,0.08 0.37,0.27 0.02,0.04 0.35,1.39 0.39,1.57 0.08,0.33 0.26,1.03 0.32,1.3 0.04,0.12 0.32,0.59 0.56,0.81 0.08,0.07 0.37,0.33 0.79,0.33 0.26,0 0.41,-0.12 0.42,-0.12 -0.3,-0.05 -0.51,-0.29 -0.51,-0.55 0,-0.16 0.1,-0.35 0.37,-0.35 0.27,0 0.55,0.23 0.55,0.59 0,0.35 -0.32,0.65 -0.83,0.65 -0.64,0 -1.08,-0.49 -1.27,-0.77 -0.08,0.45 -0.44,0.77 -0.91,0.77 -0.45,0 -0.64,-0.39 -0.73,-0.57 -0.18,-0.34 -0.31,-0.93 -0.31,-0.96 0,-0.1 0.1,-0.1 0.12,-0.1 0.1,0 0.11,0.01 0.17,0.22 0.17,0.71 0.37,1.19 0.73,1.19 0.16,0 0.3,-0.08 0.3,-0.46 0,-0.21 -0.03,-0.32 -0.16,-0.83 z"
         inkscape:connector-curvature="0"
         style="fill:#000000;stroke-width:0" /><path
         id="path9278"
         d="m 230.45,662.58 0.06,0.03 0.05,0.02 0.05,0.02 0.04,0.02 0.05,0.02 0.04,0.02 0.05,0.02 0.04,0.01 0.04,0.02 0.03,0.02 0.04,0.01 0.04,0.02 0.03,0.01 0.03,0.01 0.03,0.02 0.03,0.01 0.03,0.01 0.03,0.01 0.03,0.02 0.02,0.01 0.03,0.01 0.02,0.01 0.02,0.01 0.03,0.01 0.02,0.01 0.02,0 0.04,0.02 0.03,0.02 0.04,0.01 c 0.13,0.06 0.19,0.09 0.19,0.22 0,0.12 -0.09,0.22 -0.22,0.22 -0.04,0 -0.06,0 -0.14,-0.06 l -0.95,-0.63 0.11,1.03 c 0.01,0.12 0,0.29 -0.21,0.29 -0.09,0 -0.22,-0.05 -0.22,-0.2 0,-0.07 0.03,-0.28 0.04,-0.35 0.01,-0.11 0.06,-0.61 0.07,-0.77 l -0.94,0.63 c -0.07,0.04 -0.09,0.06 -0.15,0.06 -0.13,0 -0.22,-0.1 -0.22,-0.22 0,-0.14 0.09,-0.18 0.15,-0.2 l 1.05,-0.44 c -0.57,-0.25 -0.83,-0.35 -1,-0.43 -0.13,-0.06 -0.2,-0.08 -0.2,-0.22 0,-0.12 0.09,-0.22 0.22,-0.22 0.05,0 0.06,0 0.15,0.06 l 0.94,0.64 -0.11,-1.12 c 0,-0.16 0.13,-0.21 0.22,-0.21 0.08,0 0.21,0.05 0.21,0.21 0,0.06 -0.02,0.27 -0.03,0.34 -0.02,0.12 -0.06,0.62 -0.08,0.78 l 0.84,-0.56 c 0.18,-0.14 0.19,-0.14 0.25,-0.14 0.13,0 0.22,0.1 0.22,0.22 0,0.14 -0.08,0.18 -0.14,0.2 z"
         inkscape:connector-curvature="0"
         style="fill:#000000;stroke-width:0" /><polygon
         id="polygon9280"
         points="228.52,659.38 228.52,659.12 231.29,659.12 231.29,659.38 "
         style="fill:#000000;stroke-width:0" /><path
         id="path9282"
         d="m 229.83,656.08 0.05,0 0.05,0 0.05,-0.01 0.04,0 0.05,-0.01 0.05,-0.02 0.04,-0.01 0.04,-0.02 0.05,-0.02 0.04,-0.02 0.03,-0.02 0.04,-0.02 0.04,-0.03 0.03,-0.03 0.04,-0.03 0.03,-0.04 0.03,-0.03 0.03,-0.04 0.02,-0.04 0.03,-0.04 0.02,-0.05 0.02,-0.05 0.02,-0.05 0.02,-0.05 0.02,-0.05 0.01,-0.06 0.01,-0.05 0.01,-0.06 0.01,-0.07 0.01,-0.06 0,-0.07 0,-0.07 c 0,-0.86 -0.5,-1.12 -0.9,-1.12 -0.28,0 -0.9,0.08 -1.19,0.49 0.33,0.01 0.41,0.25 0.41,0.39 0,0.22 -0.17,0.38 -0.39,0.38 -0.19,0 -0.39,-0.12 -0.39,-0.4 0,-0.65 0.73,-1.08 1.57,-1.08 0.97,0 1.64,0.65 1.64,1.34 0,0.55 -0.45,1.09 -1.22,1.25 0.74,0.26 1,0.78 1,1.21 0,0.55 -0.63,0.96 -1.41,0.96 -0.77,0 -1.36,-0.38 -1.36,-0.93 0,-0.24 0.15,-0.37 0.36,-0.37 0.22,0 0.36,0.16 0.36,0.35 0,0.2 -0.14,0.35 -0.36,0.36 0.24,0.31 0.72,0.39 0.98,0.39 0.32,0 0.76,-0.16 0.76,-0.76 0,-0.29 -0.1,-0.61 -0.28,-0.83 -0.23,-0.26 -0.43,-0.28 -0.78,-0.3 -0.17,-0.01 -0.18,-0.01 -0.22,-0.02 -0.01,0 -0.07,-0.01 -0.07,-0.09 0,-0.1 0.06,-0.1 0.18,-0.1 z"
         inkscape:connector-curvature="0"
         style="fill:#000000;stroke-width:0" /><polygon
         id="polygon9284"
         points="232.49,659.38 232.49,659.12 235.26,659.12 235.26,659.38 "
         style="fill:#000000;stroke-width:0" /><path
         id="path9286"
         d="m 234.23,658.18 0,0.01 0,0.01 0,0.01 0,0.01 0,0 0,0.01 0,0.01 0,0.01 0,0 0,0.01 0,0.01 0,0 0,0.01 0,0 0,0.01 0,0 -0.01,0.01 0,0 0,0.01 0,0.01 0,0.01 -0.01,0 0,0.01 -0.01,0.01 0,0 -0.01,0.01 0,0 -0.01,0 -0.01,0.01 0,0 -0.01,0 -0.01,0 -0.01,0 0,0 -0.01,0 0,0.01 -0.01,0 -0.01,0 0,0 -0.01,0 -0.01,0 0,0 -0.01,0 -0.01,0 -0.01,0 0,0 -0.01,0 -0.01,0 -0.01,0 -0.01,0 c -0.44,-0.44 -1.08,-0.45 -1.36,-0.45 v -0.25 c 0.16,0 0.62,0 1.01,0.2 v -3.55 c 0,-0.23 0,-0.32 -0.7,-0.32 h -0.26 v -0.25 c 0.12,0.01 0.98,0.03 1.24,0.03 0.21,0 1.09,-0.02 1.24,-0.03 v 0.25 h -0.26 c -0.7,0 -0.7,0.09 -0.7,0.32 z"
         inkscape:connector-curvature="0"
         style="fill:#000000;stroke-width:0" /><path
         id="path9288"
         d="m 239.46,655.98 0,0.14 0,0.14 -0.01,0.13 -0.01,0.12 -0.01,0.13 -0.01,0.12 -0.02,0.11 -0.02,0.11 -0.03,0.11 -0.03,0.11 -0.03,0.1 -0.04,0.1 -0.04,0.1 -0.05,0.09 -0.05,0.1 -0.03,0.04 -0.03,0.05 c -0.21,0.32 -0.65,0.6 -1.2,0.6 v -0.2 c 0.37,0 0.74,-0.23 0.86,-0.63 0.11,-0.38 0.12,-0.88 0.12,-1.48 0,-0.52 0,-1.03 -0.09,-1.47 -0.14,-0.63 -0.61,-0.78 -0.89,-0.78 h 0 c -0.32,0 -0.75,0.18 -0.89,0.76 -0.09,0.4 -0.09,0.97 -0.09,1.49 0,0.51 0,1.04 0.1,1.42 0.15,0.55 0.59,0.69 0.88,0.69 v 0.2 c -1.62,0 -1.62,-1.9 -1.62,-2.4 0,-0.5 0,-2.36 1.62,-2.36 1.61,0 1.61,1.86 1.61,2.36 z"
         inkscape:connector-curvature="0"
         style="fill:#000000;stroke-width:0" /></g>  </g>
</svg>
