<?xml version="1.0" encoding="UTF-8" standalone="no"?>
<!-- Created with Inkscape (http://www.inkscape.org/) -->

<svg
   xmlns:dc="http://purl.org/dc/elements/1.1/"
   xmlns:cc="http://creativecommons.org/ns#"
   xmlns:rdf="http://www.w3.org/1999/02/22-rdf-syntax-ns#"
   xmlns:svg="http://www.w3.org/2000/svg"
   xmlns="http://www.w3.org/2000/svg"
   xmlns:sodipodi="http://sodipodi.sourceforge.net/DTD/sodipodi-0.dtd"
   xmlns:inkscape="http://www.inkscape.org/namespaces/inkscape"
   width="181.5"
   height="191.5"
   id="svg2"
   version="1.1"
   inkscape:version="0.91 r"
   sodipodi:docname="au3cu.svg"
   viewBox="0 0 181.5 191.5">
  <sodipodi:namedview
     id="base"
     pagecolor="#ffffff"
     bordercolor="#666666"
     borderopacity="1.0"
     inkscape:pageopacity="0.0"
     inkscape:pageshadow="2"
     inkscape:zoom="1.4"
     inkscape:cx="106.8"
     inkscape:cy="77.98"
     inkscape:document-units="px"
     inkscape:current-layer="layer1"
     showgrid="true"
     units="in"
     width="11cm"
     inkscape:window-width="1274"
     inkscape:window-height="578"
     inkscape:window-x="0"
     inkscape:window-y="386"
     inkscape:window-maximized="0"
     fit-margin-top="0"
     fit-margin-left="0"
     fit-margin-right="0"
     fit-margin-bottom="0">
    <inkscape:grid
       type="xygrid"
       id="grid2984"
       empspacing="5"
       visible="true"
       enabled="true"
       snapvisiblegridlinesonly="true"
       spacingx="2px"
       spacingy="2px"
       originx="-179.3"
       originy="-169.2" />
  </sodipodi:namedview>
  <defs
     id="defs4">
    <marker
       style="overflow:visible"
       id="Arrow2Mend"
       refX="0"
       refY="0"
       orient="auto"
       inkscape:stockid="Arrow2Mend">
      <path
         transform="scale(-0.6,-0.6)"
         d="M 8.719,4.034 -2.207,0.016 8.719,-4.002 C 6.973,-1.63 6.983,1.616 8.719,4.034 Z"
         style="fill-rule:evenodd;stroke-width:0.625;stroke-linejoin:round"
         id="path3966"
         inkscape:connector-curvature="0" />
    </marker>
  </defs>
  <metadata
     id="metadata7">
    <rdf:RDF>
      <cc:Work
         rdf:about="">
        <dc:format>image/svg+xml</dc:format>
        <dc:type
           rdf:resource="http://purl.org/dc/dcmitype/StillImage" />
        <dc:title></dc:title>
      </cc:Work>
    </rdf:RDF>
  </metadata>
  <g
     transform="translate(-116.2,-715.2)"
     id="layer1"
     inkscape:groupmode="layer"
     inkscape:label="Layer 1">
    <path
       style="fill:none;fill-rule:evenodd;stroke:#2c5aa0;stroke-width:1.5;stroke-linecap:butt;stroke-linejoin:miter;stroke-miterlimit:4;stroke-dasharray:none;stroke-opacity:1"
       d="M 127,766 127,896 257,896 257,766 Z"
       id="path6336"
       inkscape:connector-curvature="0" />
    <path
       style="fill:none;fill-rule:evenodd;stroke:#2c5aa0;stroke-width:1.5;stroke-linecap:butt;stroke-linejoin:miter;stroke-miterlimit:4;stroke-dasharray:none;stroke-opacity:1"
       d="M 257,766 287,726 167,726 127,766"
       id="path6350"
       inkscape:connector-curvature="0" />
    <path
       style="fill:none;fill-rule:evenodd;stroke:#2c5aa0;stroke-width:1.5;stroke-linecap:butt;stroke-linejoin:miter;stroke-miterlimit:4;stroke-dasharray:none;stroke-opacity:1"
       d="M 287,726 287,846 257,896"
       id="path6352"
       inkscape:connector-curvature="0" />
    <path
       style="fill:none;fill-rule:evenodd;stroke:#2c5aa0;stroke-width:1.5;stroke-linecap:butt;stroke-linejoin:miter;stroke-miterlimit:4;stroke-dasharray:none;stroke-opacity:1"
       d="M 167,726 167,846 127,896"
       id="path6354"
       inkscape:connector-curvature="0" />
    <path
       style="fill:none;fill-rule:evenodd;stroke:#2c5aa0;stroke-width:1.5;stroke-linecap:butt;stroke-linejoin:miter;stroke-miterlimit:4;stroke-dasharray:none;stroke-opacity:1"
       d="M 167,846 287,846"
       id="path6356"
       inkscape:connector-curvature="0" />
    <path
       style="opacity:1;fill:#ffffff;fill-opacity:1;fill-rule:nonzero;stroke:#2c5aa0;stroke-width:1.5;stroke-miterlimit:4;stroke-dasharray:none;stroke-dashoffset:0;stroke-opacity:1"
       id="path6358"
       sodipodi:type="arc"
       sodipodi:cx="127"
       sodipodi:cy="766"
       sodipodi:rx="10"
       sodipodi:ry="10"
       sodipodi:start="5.91"
       sodipodi:end="5.906"
       sodipodi:open="true"
       d="M 136.3,762.4 A 10,10 0 0 1 130.7,775.3 10,10 0 0 1 117.7,769.7 10,10 0 0 1 123.3,756.7 10,10 0 0 1 136.3,762.3" />
    <path
       style="opacity:1;fill:#ffffff;fill-opacity:1;fill-rule:nonzero;stroke:#2c5aa0;stroke-width:1.5;stroke-miterlimit:4;stroke-dasharray:none;stroke-dashoffset:0;stroke-opacity:1"
       id="path6358-0"
       sodipodi:type="arc"
       sodipodi:cx="127"
       sodipodi:cy="896"
       sodipodi:rx="10"
       sodipodi:ry="10"
       sodipodi:start="5.91"
       sodipodi:end="5.906"
       sodipodi:open="true"
       d="M 136.3,892.4 A 10,10 0 0 1 130.7,905.3 10,10 0 0 1 117.7,899.7 10,10 0 0 1 123.3,886.7 10,10 0 0 1 136.3,892.3" />
    <path
       style="opacity:1;fill:#ffffff;fill-opacity:1;fill-rule:nonzero;stroke:#2c5aa0;stroke-width:1.5;stroke-miterlimit:4;stroke-dasharray:none;stroke-dashoffset:0;stroke-opacity:1"
       id="path6358-2"
       sodipodi:type="arc"
       sodipodi:cx="257"
       sodipodi:cy="896"
       sodipodi:rx="10"
       sodipodi:ry="10"
       sodipodi:start="5.91"
       sodipodi:end="5.906"
       sodipodi:open="true"
       d="M 266.3,892.4 A 10,10 0 0 1 260.7,905.3 10,10 0 0 1 247.7,899.7 10,10 0 0 1 253.3,886.7 10,10 0 0 1 266.3,892.3" />
    <path
       style="opacity:1;fill:#ffffff;fill-opacity:1;fill-rule:nonzero;stroke:#2c5aa0;stroke-width:1.5;stroke-miterlimit:4;stroke-dasharray:none;stroke-dashoffset:0;stroke-opacity:1"
       id="path6358-6"
       sodipodi:type="arc"
       sodipodi:cx="287"
       sodipodi:cy="846"
       sodipodi:rx="10"
       sodipodi:ry="10"
       sodipodi:start="5.91"
       sodipodi:end="5.906"
       sodipodi:open="true"
       d="M 296.3,842.4 A 10,10 0 0 1 290.7,855.3 10,10 0 0 1 277.7,849.7 10,10 0 0 1 283.3,836.7 10,10 0 0 1 296.3,842.3" />
    <path
       style="opacity:1;fill:#ffffff;fill-opacity:1;fill-rule:nonzero;stroke:#2c5aa0;stroke-width:1.5;stroke-miterlimit:4;stroke-dasharray:none;stroke-dashoffset:0;stroke-opacity:1"
       id="path6358-1"
       sodipodi:type="arc"
       sodipodi:cx="287"
       sodipodi:cy="726"
       sodipodi:rx="10"
       sodipodi:ry="10"
       sodipodi:start="5.91"
       sodipodi:end="5.906"
       sodipodi:open="true"
       d="M 296.3,722.4 A 10,10 0 0 1 290.7,735.3 10,10 0 0 1 277.7,729.7 10,10 0 0 1 283.3,716.7 10,10 0 0 1 296.3,722.3" />
    <path
       style="opacity:1;fill:#ffffff;fill-opacity:1;fill-rule:nonzero;stroke:#2c5aa0;stroke-width:1.5;stroke-miterlimit:4;stroke-dasharray:none;stroke-dashoffset:0;stroke-opacity:1"
       id="path6358-20"
       sodipodi:type="arc"
       sodipodi:cx="167"
       sodipodi:cy="726"
       sodipodi:rx="10"
       sodipodi:ry="10"
       sodipodi:start="5.91"
       sodipodi:end="5.906"
       sodipodi:open="true"
       d="M 176.3,722.4 A 10,10 0 0 1 170.7,735.3 10,10 0 0 1 157.7,729.7 10,10 0 0 1 163.3,716.7 10,10 0 0 1 176.3,722.3" />
    <path
       style="opacity:1;fill:#ffffff;fill-opacity:1;fill-rule:nonzero;stroke:#2c5aa0;stroke-width:1.5;stroke-miterlimit:4;stroke-dasharray:none;stroke-dashoffset:0;stroke-opacity:1"
       id="path6358-4"
       sodipodi:type="arc"
       sodipodi:cx="167"
       sodipodi:cy="846"
       sodipodi:rx="10"
       sodipodi:ry="10"
       sodipodi:start="5.91"
       sodipodi:end="5.906"
       sodipodi:open="true"
       d="M 176.3,842.4 A 10,10 0 0 1 170.7,855.3 10,10 0 0 1 157.7,849.7 10,10 0 0 1 163.3,836.7 10,10 0 0 1 176.3,842.3" />
    <path
       style="opacity:1;fill:#000000;fill-opacity:1;fill-rule:nonzero;stroke:#2c5aa0;stroke-width:1.5;stroke-miterlimit:4;stroke-dasharray:none;stroke-dashoffset:0;stroke-opacity:1"
       id="path6358-03"
       sodipodi:type="arc"
       sodipodi:cx="147"
       sodipodi:cy="806"
       sodipodi:rx="10"
       sodipodi:ry="10"
       sodipodi:start="5.91"
       sodipodi:end="5.906"
       sodipodi:open="true"
       d="M 156.3,802.4 A 10,10 0 0 1 150.7,815.3 10,10 0 0 1 137.7,809.7 10,10 0 0 1 143.3,796.7 10,10 0 0 1 156.3,802.3" />
    <path
       style="opacity:1;fill:#000000;fill-opacity:1;fill-rule:nonzero;stroke:#2c5aa0;stroke-width:1.5;stroke-miterlimit:4;stroke-dasharray:none;stroke-dashoffset:0;stroke-opacity:1"
       id="path6358-05"
       sodipodi:type="arc"
       sodipodi:cx="217"
       sodipodi:cy="796"
       sodipodi:rx="10"
       sodipodi:ry="10"
       sodipodi:start="5.91"
       sodipodi:end="5.906"
       sodipodi:open="true"
       d="M 226.3,792.4 A 10,10 0 0 1 220.7,805.3 10,10 0 0 1 207.7,799.7 10,10 0 0 1 213.3,786.7 10,10 0 0 1 226.3,792.3" />
    <path
       style="opacity:1;fill:#000000;fill-opacity:1;fill-rule:nonzero;stroke:#2c5aa0;stroke-width:1.5;stroke-miterlimit:4;stroke-dasharray:none;stroke-dashoffset:0;stroke-opacity:1"
       id="path6358-49"
       sodipodi:type="arc"
       sodipodi:cx="217"
       sodipodi:cy="746"
       sodipodi:rx="10"
       sodipodi:ry="10"
       sodipodi:start="5.91"
       sodipodi:end="5.906"
       sodipodi:open="true"
       d="M 226.3,742.4 A 10,10 0 0 1 220.7,755.3 10,10 0 0 1 207.7,749.7 10,10 0 0 1 213.3,736.7 10,10 0 0 1 226.3,742.3" />
    <path
       style="opacity:1;fill:#000000;fill-opacity:1;fill-rule:nonzero;stroke:#2c5aa0;stroke-width:1.5;stroke-miterlimit:4;stroke-dasharray:none;stroke-dashoffset:0;stroke-opacity:1"
       id="path6358-9"
       sodipodi:type="arc"
       sodipodi:cx="267"
       sodipodi:cy="796"
       sodipodi:rx="10"
       sodipodi:ry="10"
       sodipodi:start="5.91"
       sodipodi:end="5.906"
       sodipodi:open="true"
       d="M 276.3,792.4 A 10,10 0 0 1 270.7,805.3 10,10 0 0 1 257.7,799.7 10,10 0 0 1 263.3,786.7 10,10 0 0 1 276.3,792.3" />
    <path
       style="opacity:1;fill:#000000;fill-opacity:1;fill-rule:nonzero;stroke:#2c5aa0;stroke-width:1.5;stroke-miterlimit:4;stroke-dasharray:none;stroke-dashoffset:0;stroke-opacity:1"
       id="path6358-7"
       sodipodi:type="arc"
       sodipodi:cx="217"
       sodipodi:cy="876"
       sodipodi:rx="10"
       sodipodi:ry="10"
       sodipodi:start="5.91"
       sodipodi:end="5.906"
       sodipodi:open="true"
       d="M 226.3,872.4 A 10,10 0 0 1 220.7,885.3 10,10 0 0 1 207.7,879.7 10,10 0 0 1 213.3,866.7 10,10 0 0 1 226.3,872.3" />
    <path
       style="opacity:1;fill:#000000;fill-opacity:1;fill-rule:nonzero;stroke:#2c5aa0;stroke-width:1.5;stroke-miterlimit:4;stroke-dasharray:none;stroke-dashoffset:0;stroke-opacity:1"
       id="path6358-42"
       sodipodi:type="arc"
       sodipodi:cx="197"
       sodipodi:cy="826"
       sodipodi:rx="10"
       sodipodi:ry="10"
       sodipodi:start="5.91"
       sodipodi:end="5.906"
       sodipodi:open="true"
       d="M 206.3,822.4 A 10,10 0 0 1 200.7,835.3 10,10 0 0 1 187.7,829.7 10,10 0 0 1 193.3,816.7 10,10 0 0 1 206.3,822.3" />
  </g>
</svg>
