<?xml version="1.0" encoding="UTF-8" standalone="no"?>
<!-- Created with Inkscape (http://www.inkscape.org/) -->

<svg
   xmlns:ns1="http://wanglongqi.github.io/WriteTeX"
   xmlns:dc="http://purl.org/dc/elements/1.1/"
   xmlns:cc="http://creativecommons.org/ns#"
   xmlns:rdf="http://www.w3.org/1999/02/22-rdf-syntax-ns#"
   xmlns:svg="http://www.w3.org/2000/svg"
   xmlns="http://www.w3.org/2000/svg"
   xmlns:sodipodi="http://sodipodi.sourceforge.net/DTD/sodipodi-0.dtd"
   xmlns:inkscape="http://www.inkscape.org/namespaces/inkscape"
   width="564.84674"
   height="570.25641"
   viewBox="0 0 564.84674 570.25642"
   id="svg7465"
   version="1.1"
   inkscape:version="0.48.5 r10040"
   sodipodi:docname="betteraxes.svg">
  <sodipodi:namedview
     id="base"
     pagecolor="#ffffff"
     bordercolor="#666666"
     borderopacity="1.0"
     inkscape:pageopacity="0.0"
     inkscape:pageshadow="2"
     inkscape:zoom="0.7"
     inkscape:cx="234.67872"
     inkscape:cy="272.12818"
     inkscape:document-units="px"
     inkscape:current-layer="layer1"
     showgrid="true"
     inkscape:window-width="859"
     inkscape:window-height="768"
     inkscape:window-x="656"
     inkscape:window-y="3"
     inkscape:window-maximized="0"
     fit-margin-top="0"
     fit-margin-left="0"
     fit-margin-right="0"
     fit-margin-bottom="0"
     inkscape:snap-global="false">
    <inkscape:grid
       originy="-277.58509px"
       originx="-80.464403px"
       snapvisiblegridlinesonly="true"
       enabled="true"
       visible="true"
       empspacing="5"
       type="xygrid"
       id="grid7473" />
  </sodipodi:namedview>
  <defs
     id="defs7467">
    <marker
       inkscape:isstock="true"
       style="overflow:visible"
       id="marker12745"
       refX="0"
       refY="0"
       orient="auto"
       inkscape:stockid="Arrow2Lend">
      <path
         inkscape:connector-curvature="0"
         transform="matrix(-1.1,0,0,-1.1,-1.1,0)"
         d="M 8.7185878,4.0337352 -2.2072895,0.01601326 8.7185884,-4.0017078 c -1.7454984,2.3720609 -1.7354408,5.6174519 -6e-7,8.035443 z"
         style="fill:#000000;fill-opacity:1;fill-rule:evenodd;stroke:#000000;stroke-width:0.625;stroke-linejoin:round;stroke-opacity:1"
         id="path12747" />
    </marker>
    <marker
       inkscape:isstock="true"
       style="overflow:visible"
       id="marker12417"
       refX="0"
       refY="0"
       orient="auto"
       inkscape:stockid="Arrow2Lend">
      <path
         inkscape:connector-curvature="0"
         transform="matrix(-1.1,0,0,-1.1,-1.1,0)"
         d="M 8.7185878,4.0337352 -2.2072895,0.01601326 8.7185884,-4.0017078 c -1.7454984,2.3720609 -1.7354408,5.6174519 -6e-7,8.035443 z"
         style="fill:#000000;fill-opacity:1;fill-rule:evenodd;stroke:#000000;stroke-width:0.625;stroke-linejoin:round;stroke-opacity:1"
         id="path12419" />
    </marker>
    <marker
       inkscape:isstock="true"
       style="overflow:visible"
       id="marker12101"
       refX="0"
       refY="0"
       orient="auto"
       inkscape:stockid="Arrow2Lend">
      <path
         inkscape:connector-curvature="0"
         transform="matrix(-1.1,0,0,-1.1,-1.1,0)"
         d="M 8.7185878,4.0337352 -2.2072895,0.01601326 8.7185884,-4.0017078 c -1.7454984,2.3720609 -1.7354408,5.6174519 -6e-7,8.035443 z"
         style="fill:#000000;fill-opacity:1;fill-rule:evenodd;stroke:#000000;stroke-width:0.625;stroke-linejoin:round;stroke-opacity:1"
         id="path12103" />
    </marker>
    <marker
       inkscape:isstock="true"
       style="overflow:visible"
       id="marker11797"
       refX="0"
       refY="0"
       orient="auto"
       inkscape:stockid="Arrow2Lend">
      <path
         inkscape:connector-curvature="0"
         transform="matrix(-1.1,0,0,-1.1,-1.1,0)"
         d="M 8.7185878,4.0337352 -2.2072895,0.01601326 8.7185884,-4.0017078 c -1.7454984,2.3720609 -1.7354408,5.6174519 -6e-7,8.035443 z"
         style="fill:#000000;fill-opacity:1;fill-rule:evenodd;stroke:#000000;stroke-width:0.625;stroke-linejoin:round;stroke-opacity:1"
         id="path11799" />
    </marker>
    <marker
       inkscape:isstock="true"
       style="overflow:visible"
       id="marker11505"
       refX="0"
       refY="0"
       orient="auto"
       inkscape:stockid="Arrow2Lend">
      <path
         inkscape:connector-curvature="0"
         transform="matrix(-1.1,0,0,-1.1,-1.1,0)"
         d="M 8.7185878,4.0337352 -2.2072895,0.01601326 8.7185884,-4.0017078 c -1.7454984,2.3720609 -1.7354408,5.6174519 -6e-7,8.035443 z"
         style="fill:#000000;fill-opacity:1;fill-rule:evenodd;stroke:#000000;stroke-width:0.625;stroke-linejoin:round;stroke-opacity:1"
         id="path11507" />
    </marker>
    <marker
       inkscape:isstock="true"
       style="overflow:visible"
       id="marker11225"
       refX="0"
       refY="0"
       orient="auto"
       inkscape:stockid="Arrow2Lend">
      <path
         inkscape:connector-curvature="0"
         transform="matrix(-1.1,0,0,-1.1,-1.1,0)"
         d="M 8.7185878,4.0337352 -2.2072895,0.01601326 8.7185884,-4.0017078 c -1.7454984,2.3720609 -1.7354408,5.6174519 -6e-7,8.035443 z"
         style="fill:#000000;fill-opacity:1;fill-rule:evenodd;stroke:#000000;stroke-width:0.625;stroke-linejoin:round;stroke-opacity:1"
         id="path11227" />
    </marker>
    <marker
       inkscape:isstock="true"
       style="overflow:visible"
       id="marker10957"
       refX="0"
       refY="0"
       orient="auto"
       inkscape:stockid="Arrow2Lend">
      <path
         inkscape:connector-curvature="0"
         transform="matrix(-1.1,0,0,-1.1,-1.1,0)"
         d="M 8.7185878,4.0337352 -2.2072895,0.01601326 8.7185884,-4.0017078 c -1.7454984,2.3720609 -1.7354408,5.6174519 -6e-7,8.035443 z"
         style="fill:#000000;fill-opacity:1;fill-rule:evenodd;stroke:#000000;stroke-width:0.625;stroke-linejoin:round;stroke-opacity:1"
         id="path10959" />
    </marker>
    <marker
       inkscape:isstock="true"
       style="overflow:visible"
       id="marker10701"
       refX="0"
       refY="0"
       orient="auto"
       inkscape:stockid="Arrow2Lend">
      <path
         inkscape:connector-curvature="0"
         transform="matrix(-1.1,0,0,-1.1,-1.1,0)"
         d="M 8.7185878,4.0337352 -2.2072895,0.01601326 8.7185884,-4.0017078 c -1.7454984,2.3720609 -1.7354408,5.6174519 -6e-7,8.035443 z"
         style="fill:#000000;fill-opacity:1;fill-rule:evenodd;stroke:#000000;stroke-width:0.625;stroke-linejoin:round;stroke-opacity:1"
         id="path10703" />
    </marker>
    <marker
       inkscape:isstock="true"
       style="overflow:visible"
       id="marker10457"
       refX="0"
       refY="0"
       orient="auto"
       inkscape:stockid="Arrow2Lend">
      <path
         inkscape:connector-curvature="0"
         transform="matrix(-1.1,0,0,-1.1,-1.1,0)"
         d="M 8.7185878,4.0337352 -2.2072895,0.01601326 8.7185884,-4.0017078 c -1.7454984,2.3720609 -1.7354408,5.6174519 -6e-7,8.035443 z"
         style="fill:#000000;fill-opacity:1;fill-rule:evenodd;stroke:#000000;stroke-width:0.625;stroke-linejoin:round;stroke-opacity:1"
         id="path10459" />
    </marker>
    <marker
       inkscape:isstock="true"
       style="overflow:visible"
       id="marker10225"
       refX="0"
       refY="0"
       orient="auto"
       inkscape:stockid="Arrow2Lend">
      <path
         inkscape:connector-curvature="0"
         transform="matrix(-1.1,0,0,-1.1,-1.1,0)"
         d="M 8.7185878,4.0337352 -2.2072895,0.01601326 8.7185884,-4.0017078 c -1.7454984,2.3720609 -1.7354408,5.6174519 -6e-7,8.035443 z"
         style="fill:#000000;fill-opacity:1;fill-rule:evenodd;stroke:#000000;stroke-width:0.625;stroke-linejoin:round;stroke-opacity:1"
         id="path10227" />
    </marker>
    <marker
       inkscape:isstock="true"
       style="overflow:visible"
       id="marker10005"
       refX="0"
       refY="0"
       orient="auto"
       inkscape:stockid="Arrow2Lend">
      <path
         inkscape:connector-curvature="0"
         transform="matrix(-1.1,0,0,-1.1,-1.1,0)"
         d="M 8.7185878,4.0337352 -2.2072895,0.01601326 8.7185884,-4.0017078 c -1.7454984,2.3720609 -1.7354408,5.6174519 -6e-7,8.035443 z"
         style="fill:#000000;fill-opacity:1;fill-rule:evenodd;stroke:#000000;stroke-width:0.625;stroke-linejoin:round;stroke-opacity:1"
         id="path10007" />
    </marker>
    <marker
       inkscape:isstock="true"
       style="overflow:visible"
       id="marker9797"
       refX="0"
       refY="0"
       orient="auto"
       inkscape:stockid="Arrow2Lend">
      <path
         inkscape:connector-curvature="0"
         transform="matrix(-1.1,0,0,-1.1,-1.1,0)"
         d="M 8.7185878,4.0337352 -2.2072895,0.01601326 8.7185884,-4.0017078 c -1.7454984,2.3720609 -1.7354408,5.6174519 -6e-7,8.035443 z"
         style="fill:#000000;fill-opacity:1;fill-rule:evenodd;stroke:#000000;stroke-width:0.625;stroke-linejoin:round;stroke-opacity:1"
         id="path9799" />
    </marker>
    <marker
       inkscape:isstock="true"
       style="overflow:visible"
       id="marker9601"
       refX="0"
       refY="0"
       orient="auto"
       inkscape:stockid="Arrow2Lend">
      <path
         inkscape:connector-curvature="0"
         transform="matrix(-1.1,0,0,-1.1,-1.1,0)"
         d="M 8.7185878,4.0337352 -2.2072895,0.01601326 8.7185884,-4.0017078 c -1.7454984,2.3720609 -1.7354408,5.6174519 -6e-7,8.035443 z"
         style="fill:#000000;fill-opacity:1;fill-rule:evenodd;stroke:#000000;stroke-width:0.625;stroke-linejoin:round;stroke-opacity:1"
         id="path9603" />
    </marker>
    <marker
       inkscape:isstock="true"
       style="overflow:visible"
       id="marker9417"
       refX="0"
       refY="0"
       orient="auto"
       inkscape:stockid="Arrow2Lend">
      <path
         inkscape:connector-curvature="0"
         transform="matrix(-1.1,0,0,-1.1,-1.1,0)"
         d="M 8.7185878,4.0337352 -2.2072895,0.01601326 8.7185884,-4.0017078 c -1.7454984,2.3720609 -1.7354408,5.6174519 -6e-7,8.035443 z"
         style="fill:#000000;fill-opacity:1;fill-rule:evenodd;stroke:#000000;stroke-width:0.625;stroke-linejoin:round;stroke-opacity:1"
         id="path9419" />
    </marker>
    <marker
       inkscape:isstock="true"
       style="overflow:visible"
       id="marker9245"
       refX="0"
       refY="0"
       orient="auto"
       inkscape:stockid="Arrow2Lend">
      <path
         inkscape:connector-curvature="0"
         transform="matrix(-1.1,0,0,-1.1,-1.1,0)"
         d="M 8.7185878,4.0337352 -2.2072895,0.01601326 8.7185884,-4.0017078 c -1.7454984,2.3720609 -1.7354408,5.6174519 -6e-7,8.035443 z"
         style="fill:#000000;fill-opacity:1;fill-rule:evenodd;stroke:#000000;stroke-width:0.625;stroke-linejoin:round;stroke-opacity:1"
         id="path9247" />
    </marker>
    <marker
       inkscape:isstock="true"
       style="overflow:visible"
       id="marker9085"
       refX="0"
       refY="0"
       orient="auto"
       inkscape:stockid="Arrow2Lend">
      <path
         inkscape:connector-curvature="0"
         transform="matrix(-1.1,0,0,-1.1,-1.1,0)"
         d="M 8.7185878,4.0337352 -2.2072895,0.01601326 8.7185884,-4.0017078 c -1.7454984,2.3720609 -1.7354408,5.6174519 -6e-7,8.035443 z"
         style="fill:#000000;fill-opacity:1;fill-rule:evenodd;stroke:#000000;stroke-width:0.625;stroke-linejoin:round;stroke-opacity:1"
         id="path9087" />
    </marker>
    <marker
       inkscape:isstock="true"
       style="overflow:visible"
       id="marker8937"
       refX="0"
       refY="0"
       orient="auto"
       inkscape:stockid="Arrow2Lend">
      <path
         inkscape:connector-curvature="0"
         transform="matrix(-1.1,0,0,-1.1,-1.1,0)"
         d="M 8.7185878,4.0337352 -2.2072895,0.01601326 8.7185884,-4.0017078 c -1.7454984,2.3720609 -1.7354408,5.6174519 -6e-7,8.035443 z"
         style="fill:#000000;fill-opacity:1;fill-rule:evenodd;stroke:#000000;stroke-width:0.625;stroke-linejoin:round;stroke-opacity:1"
         id="path8939" />
    </marker>
    <marker
       inkscape:isstock="true"
       style="overflow:visible"
       id="marker8801"
       refX="0"
       refY="0"
       orient="auto"
       inkscape:stockid="Arrow2Lend">
      <path
         inkscape:connector-curvature="0"
         transform="matrix(-1.1,0,0,-1.1,-1.1,0)"
         d="M 8.7185878,4.0337352 -2.2072895,0.01601326 8.7185884,-4.0017078 c -1.7454984,2.3720609 -1.7354408,5.6174519 -6e-7,8.035443 z"
         style="fill:#000000;fill-opacity:1;fill-rule:evenodd;stroke:#000000;stroke-width:0.625;stroke-linejoin:round;stroke-opacity:1"
         id="path8803" />
    </marker>
    <marker
       inkscape:isstock="true"
       style="overflow:visible"
       id="marker8677"
       refX="0"
       refY="0"
       orient="auto"
       inkscape:stockid="Arrow2Lend">
      <path
         inkscape:connector-curvature="0"
         transform="matrix(-1.1,0,0,-1.1,-1.1,0)"
         d="M 8.7185878,4.0337352 -2.2072895,0.01601326 8.7185884,-4.0017078 c -1.7454984,2.3720609 -1.7354408,5.6174519 -6e-7,8.035443 z"
         style="fill:#000000;fill-opacity:1;fill-rule:evenodd;stroke:#000000;stroke-width:0.625;stroke-linejoin:round;stroke-opacity:1"
         id="path8679" />
    </marker>
    <marker
       inkscape:isstock="true"
       style="overflow:visible"
       id="marker8565"
       refX="0"
       refY="0"
       orient="auto"
       inkscape:stockid="Arrow2Lend">
      <path
         inkscape:connector-curvature="0"
         transform="matrix(-1.1,0,0,-1.1,-1.1,0)"
         d="M 8.7185878,4.0337352 -2.2072895,0.01601326 8.7185884,-4.0017078 c -1.7454984,2.3720609 -1.7354408,5.6174519 -6e-7,8.035443 z"
         style="fill:#000000;fill-opacity:1;fill-rule:evenodd;stroke:#000000;stroke-width:0.625;stroke-linejoin:round;stroke-opacity:1"
         id="path8567" />
    </marker>
    <marker
       inkscape:isstock="true"
       style="overflow:visible"
       id="marker8465"
       refX="0"
       refY="0"
       orient="auto"
       inkscape:stockid="Arrow2Lend">
      <path
         inkscape:connector-curvature="0"
         transform="matrix(-1.1,0,0,-1.1,-1.1,0)"
         d="M 8.7185878,4.0337352 -2.2072895,0.01601326 8.7185884,-4.0017078 c -1.7454984,2.3720609 -1.7354408,5.6174519 -6e-7,8.035443 z"
         style="fill:#000000;fill-opacity:1;fill-rule:evenodd;stroke:#000000;stroke-width:0.625;stroke-linejoin:round;stroke-opacity:1"
         id="path8467" />
    </marker>
    <marker
       inkscape:isstock="true"
       style="overflow:visible"
       id="marker8377"
       refX="0"
       refY="0"
       orient="auto"
       inkscape:stockid="Arrow2Lend">
      <path
         inkscape:connector-curvature="0"
         transform="matrix(-1.1,0,0,-1.1,-1.1,0)"
         d="M 8.7185878,4.0337352 -2.2072895,0.01601326 8.7185884,-4.0017078 c -1.7454984,2.3720609 -1.7354408,5.6174519 -6e-7,8.035443 z"
         style="fill:#000000;fill-opacity:1;fill-rule:evenodd;stroke:#000000;stroke-width:0.625;stroke-linejoin:round;stroke-opacity:1"
         id="path8379" />
    </marker>
    <marker
       inkscape:isstock="true"
       style="overflow:visible"
       id="marker8301"
       refX="0"
       refY="0"
       orient="auto"
       inkscape:stockid="Arrow2Lend">
      <path
         inkscape:connector-curvature="0"
         transform="matrix(-1.1,0,0,-1.1,-1.1,0)"
         d="M 8.7185878,4.0337352 -2.2072895,0.01601326 8.7185884,-4.0017078 c -1.7454984,2.3720609 -1.7354408,5.6174519 -6e-7,8.035443 z"
         style="fill:#000000;fill-opacity:1;fill-rule:evenodd;stroke:#000000;stroke-width:0.625;stroke-linejoin:round;stroke-opacity:1"
         id="path8303" />
    </marker>
    <marker
       inkscape:isstock="true"
       style="overflow:visible"
       id="marker8237"
       refX="0"
       refY="0"
       orient="auto"
       inkscape:stockid="Arrow2Lend">
      <path
         inkscape:connector-curvature="0"
         transform="matrix(-1.1,0,0,-1.1,-1.1,0)"
         d="M 8.7185878,4.0337352 -2.2072895,0.01601326 8.7185884,-4.0017078 c -1.7454984,2.3720609 -1.7354408,5.6174519 -6e-7,8.035443 z"
         style="fill:#000000;fill-opacity:1;fill-rule:evenodd;stroke:#000000;stroke-width:0.625;stroke-linejoin:round;stroke-opacity:1"
         id="path8239" />
    </marker>
    <marker
       inkscape:stockid="Arrow2Lend"
       orient="auto"
       refY="0"
       refX="0"
       id="marker8113"
       style="overflow:visible"
       inkscape:isstock="true">
      <path
         inkscape:connector-curvature="0"
         id="path8115"
         style="fill:#000000;fill-opacity:1;fill-rule:evenodd;stroke:#000000;stroke-width:0.625;stroke-linejoin:round;stroke-opacity:1"
         d="M 8.7185878,4.0337352 -2.2072895,0.01601326 8.7185884,-4.0017078 c -1.7454984,2.3720609 -1.7354408,5.6174519 -6e-7,8.035443 z"
         transform="matrix(-1.1,0,0,-1.1,-1.1,0)" />
    </marker>
    <marker
       inkscape:stockid="Arrow2Lend"
       orient="auto"
       refY="0"
       refX="0"
       id="Arrow2Lend"
       style="overflow:visible"
       inkscape:isstock="true"
       inkscape:collect="always">
      <path
         inkscape:connector-curvature="0"
         id="path5450"
         style="fill:#000000;fill-opacity:1;fill-rule:evenodd;stroke:#000000;stroke-width:0.625;stroke-linejoin:round;stroke-opacity:1"
         d="M 8.7185878,4.0337352 -2.2072895,0.01601326 8.7185884,-4.0017078 c -1.7454984,2.3720609 -1.7354408,5.6174519 -6e-7,8.035443 z"
         transform="matrix(-1.1,0,0,-1.1,-1.1,0)" />
    </marker>
    <marker
       inkscape:stockid="Arrow2Lstart"
       orient="auto"
       refY="0"
       refX="0"
       id="Arrow2Lstart"
       style="overflow:visible"
       inkscape:isstock="true">
      <path
         inkscape:connector-curvature="0"
         id="path5447"
         style="fill:#000000;fill-opacity:1;fill-rule:evenodd;stroke:#000000;stroke-width:0.625;stroke-linejoin:round;stroke-opacity:1"
         d="M 8.7185878,4.0337352 -2.2072895,0.01601326 8.7185884,-4.0017078 c -1.7454984,2.3720609 -1.7354408,5.6174519 -6e-7,8.035443 z"
         transform="matrix(1.1,0,0,1.1,1.1,0)" />
    </marker>
  </defs>
  <metadata
     id="metadata7470">
    <rdf:RDF>
      <cc:Work
         rdf:about="">
        <dc:format>image/svg+xml</dc:format>
        <dc:type
           rdf:resource="http://purl.org/dc/dcmitype/StillImage" />
        <dc:title />
      </cc:Work>
    </rdf:RDF>
  </metadata>
  <g
     transform="translate(-80.464402,-204.52068)"
     inkscape:label="Layer 1"
     inkscape:groupmode="layer"
     id="layer1">
    <path
       style="fill:none;stroke:#000000;stroke-width:2;stroke-linecap:butt;stroke-linejoin:miter;stroke-miterlimit:4;stroke-opacity:1;stroke-dasharray:none;marker-start:url(#Arrow2Lstart);marker-end:url(#Arrow2Lend)"
       d="m 360,212.3622 0,360 -240,200"
       id="path7475"
       inkscape:connector-curvature="0" />
    <path
       style="fill:none;stroke:#000000;stroke-width:1px;stroke-linecap:butt;stroke-linejoin:miter;stroke-opacity:1;marker-end:url(#Arrow2Lend)"
       d="m 360,572.3622 280,160"
       id="path7477"
       inkscape:connector-curvature="0" />
    <path
       style="fill:none;stroke:#000000;stroke-width:1px;stroke-linecap:butt;stroke-linejoin:miter;stroke-opacity:1"
       d="m 447.14286,622.3622 c 0,-80 -27.14286,-130 -87.14286,-150"
       id="path7479"
       inkscape:connector-curvature="0"
       sodipodi:nodetypes="cc" />
    <path
       style="fill:none;stroke:#000000;stroke-width:1px;stroke-linecap:butt;stroke-linejoin:miter;stroke-opacity:1"
       d="m 360,512.3622 c -20.10645,-0.10645 -86.86333,53.13667 -71.42857,120"
       id="path7481"
       inkscape:connector-curvature="0"
       sodipodi:nodetypes="cc" />
    <path
       style="fill:none;stroke:#000000;stroke-width:1px;stroke-linecap:butt;stroke-linejoin:miter;stroke-opacity:1"
       d="m 288.57143,632.3622 c 11.42857,60 151.42857,60 162.85714,-8.57143"
       id="path7483"
       inkscape:connector-curvature="0"
       sodipodi:nodetypes="cc" />
    <g
       ns1:text="$$\\bar{c}$$"
       transform="matrix(7.7775153,0,0,7.7775153,-4320.47,-610.46084)"
       id="g6147">
      <g
         id="surface1">
        <g
           style="fill:#000000;fill-opacity:1"
           id="g6150">
          <path
             inkscape:connector-curvature="0"
             style="stroke:none"
             d="m 4.453125,-5.734375 0,-0.46875 -3.9375,0 0,0.625 3.9375,0 z m 0,0"
             transform="translate(593.34,110.99)"
             id="path6152" />
        </g>
        <g
           style="fill:#000000;fill-opacity:1"
           id="g6154">
          <path
             inkscape:connector-curvature="0"
             style="stroke:none"
             d="m 3.953125,-4.109375 c -0.171875,0 -0.4375,0.046875 -0.578125,0.1875 -0.15625,0.140625 -0.21875,0.4375 -0.21875,0.5 0,0.234375 0.359375,0.515625 0.546875,0.515625 0.28125,0 0.71875,-0.40625 0.71875,-0.796875 0,-0.5 -0.640625,-1.03125 -1.34375,-1.03125 -1.34375,0 -2.84375,1.59375 -2.84375,3 0,0.890625 0.75,1.84375 1.796875,1.84375 1.421875,0 2.421875,-1.21875 2.421875,-1.328125 0,-0.0625 -0.21875,-0.3125 -0.28125,-0.3125 -0.0625,0 -0.203125,0.078125 -0.265625,0.15625 -0.78125,0.984375 -1.75,0.9375 -1.859375,0.9375 -0.625,0 -0.734375,-0.3125 -0.734375,-0.921875 0,-0.40625 0.15625,-1.265625 0.484375,-1.875 0.3125,-0.578125 0.75,-0.953125 1.296875,-0.953125 0.328125,0 0.578125,0.078125 0.578125,0.078125 z m 0,0"
             transform="translate(593.12,110.99)"
             id="path6156" />
        </g>
      </g>
    </g>
    <g
       id="g6331"
       transform="matrix(7.7775153,0,0,7.7775153,-4530.5036,-114.75218)"
       ns1:text="$$\\bar{a}$$">
      <g
         id="g6333">
        <g
           id="g6335"
           style="fill:#000000;fill-opacity:1">
          <path
             id="path6337"
             transform="translate(592.78,110.99)"
             d="m 4.453125,-5.734375 0,-0.46875 -3.9375,0 0,0.625 3.9375,0 z m 0,0"
             style="stroke:none"
             inkscape:connector-curvature="0" />
        </g>
        <g
           id="g6339"
           style="fill:#000000;fill-opacity:1">
          <path
             id="path6341"
             transform="translate(592.64,110.99)"
             d="m 3.890625,-3.921875 c -0.1875,-0.375 -0.640625,-0.8125 -1.09375,-0.8125 -1.15625,0 -2.578125,1.640625 -2.578125,3.09375 0,0.9375 0.734375,1.75 1.5,1.75 0.203125,0 0.828125,-0.09375 1.1875,-0.53125 0.015625,0.046875 0.546875,0.53125 1.015625,0.53125 0.359375,0 0.703125,-0.28125 0.78125,-0.453125 0.296875,-0.609375 0.4375,-1.21875 0.4375,-1.234375 0,-0.109375 -0.265625,-0.28125 -0.296875,-0.28125 -0.09375,0 -0.28125,0.21875 -0.3125,0.359375 -0.171875,0.640625 -0.171875,1.0625 -0.578125,1.0625 -0.28125,0 -0.140625,-0.09375 -0.140625,-0.296875 0,-0.21875 0.03125,-0.296875 0.140625,-0.734375 0.109375,-0.421875 0.125,-0.515625 0.21875,-0.890625 l 0.359375,-1.40625 c 0.0625,-0.265625 0.0625,-0.296875 0.0625,-0.328125 0,-0.171875 -0.28125,-0.4375 -0.453125,-0.4375 -0.25,0 -0.578125,0.390625 -0.609375,0.609375 z m -1,2.578125 c -0.046875,0.171875 0,0.078125 -0.15625,0.25 C 2.296875,-0.546875 2.03125,-0.4375 1.75,-0.4375 c -0.5,0 -0.46875,-0.375 -0.46875,-0.765625 0,-0.5 0.265625,-1.625 0.5,-2.078125 0.296875,-0.59375 0.625,-0.90625 1.03125,-0.90625 0.640625,0 0.609375,0.65625 0.609375,0.71875 0,0.0625 -0.015625,0.125 -0.03125,0.171875 z m 0,0"
             style="stroke:none"
             inkscape:connector-curvature="0" />
        </g>
      </g>
    </g>
    <g
       ns1:text="$$\\bar{b}$$"
       transform="matrix(7.7775153,0,0,7.7775153,-4001.3848,-173.32361)"
       id="g6528">
      <g
         id="g6530">
        <g
           style="fill:#000000;fill-opacity:1"
           id="g6532">
          <path
             style="stroke:none"
             d="m 4.453125,-5.734375 0,-0.46875 -3.9375,0 0,0.625 3.9375,0 z m 0,0"
             transform="translate(592.78,108.36)"
             id="path6534"
             inkscape:connector-curvature="0" />
        </g>
        <g
           style="fill:#000000;fill-opacity:1"
           id="g6536">
          <path
             style="stroke:none"
             d="M 2.546875,-6.96875 C 2.546875,-6.984375 2.375,-7.25 2.25,-7.25 c -0.21875,0 -0.953125,0.078125 -1.21875,0.109375 -0.078125,0 -0.359375,0.1875 -0.359375,0.359375 0,0.125 0.265625,0.28125 0.421875,0.28125 0.46875,0 0.3125,-0.09375 0.3125,0.015625 0,0.0625 -0.09375,0.40625 -0.140625,0.609375 l -0.8125,3.25 c -0.125,0.5 -0.15625,0.65625 -0.15625,1.015625 0,0.9375 0.703125,1.71875 1.4375,1.71875 1.171875,0 2.578125,-1.640625 2.578125,-3.078125 0,-0.90625 -0.703125,-1.765625 -1.5,-1.765625 -0.453125,0 -1,0.34375 -1.296875,0.640625 l 0.296875,0.125 z m -0.9375,3.765625 c 0.0625,-0.21875 0.015625,-0.125 0.109375,-0.234375 0.484375,-0.65625 0.8125,-0.75 1.078125,-0.75 0.359375,0 0.4375,0.140625 0.4375,0.78125 0,0.578125 -0.328125,1.734375 -0.5,2.109375 -0.328125,0.671875 -0.609375,0.859375 -1,0.859375 -0.34375,0 -0.5,-0.09375 -0.5,-0.84375 0,-0.1875 0,-0.375 0.15625,-1 z m 0,0"
             transform="translate(593.14,110.99)"
             id="path6538"
             inkscape:connector-curvature="0" />
        </g>
      </g>
    </g>
    <g
       id="g6737"
       transform="matrix(5.3067913,0,0,5.3067913,-2896.4865,-54.310933)"
       ns1:text="$$\\beta$$">
      <g
         id="g6739">
        <g
           id="g6741"
           style="fill:#000000;fill-opacity:1">
          <path
             id="path6743"
             transform="translate(592.2,110.99)"
             d="m 5.90625,-5.828125 c 0,-0.75 -0.71875,-1.53125 -1.53125,-1.53125 -0.578125,0 -0.984375,0.203125 -1.328125,0.46875 C 2.5,-6.5 1.890625,-5.40625 1.703125,-4.65625 L 0.125,1.671875 C 0.109375,1.71875 0.34375,1.9375 0.421875,1.9375 0.5,1.9375 0.703125,1.75 0.703125,1.71875 l 0.703125,-2.75 -0.34375,0 c 0.1875,0.609375 0.796875,1.125 1.53125,1.125 0.71875,0 1.59375,-0.390625 2.046875,-0.828125 0.46875,-0.46875 0.84375,-1.203125 0.84375,-1.953125 0,-0.71875 -0.421875,-1.34375 -0.59375,-1.46875 C 5.28125,-4.390625 5.90625,-5.109375 5.90625,-5.828125 z M 3.9375,-4.34375 c -0.125,0.046875 -0.234375,0.0625 -0.484375,0.0625 -0.140625,0 -0.21875,0.0625 -0.25,0.046875 0,-0.015625 0.203125,0.171875 0.3125,0.171875 0.203125,0 0.296875,0 0.421875,0.046875 z M 5,-6.0625 C 5,-5.359375 4.671875,-4.765625 4.25,-4.515625 4,-4.609375 3.8125,-4.625 3.515625,-4.625 c -0.21875,0 -0.953125,0.15625 -0.953125,0.484375 -0.015625,0.28125 0.6875,0.40625 0.859375,0.40625 0.375,0 0.53125,0 0.78125,-0.109375 C 4.5,-3.546875 4.5,-3.34375 4.5,-2.890625 4.53125,-2.3125 4.34375,-1.6875 4.0625,-1.296875 c -0.390625,0.546875 -0.9375,0.84375 -1.5,0.84375 -0.765625,0 -0.96875,-0.40625 -0.96875,-1.109375 0,-0.109375 0,-0.25 0.046875,-0.4375 L 2.28125,-4.53125 C 2.5,-5.390625 3.046875,-6.8125 4.25,-6.8125 c 0.578125,0 0.75,0.15625 0.75,0.75 z m 0,0"
             style="stroke:none"
             inkscape:connector-curvature="0" />
        </g>
      </g>
    </g>
    <g
       ns1:text="$$\\alpha$$"
       transform="matrix(5.3067913,0,0,5.3067913,-2677.1028,-48.408696)"
       id="g6944">
      <g
         id="g6946">
        <g
           style="fill:#000000;fill-opacity:1"
           id="g6948">
          <path
             inkscape:connector-curvature="0"
             style="stroke:none"
             d="m 4.921875,-2.515625 c 0,-1.5625 -1.09375,-2.21875 -1.828125,-2.21875 -1.375,0 -2.859375,1.59375 -2.859375,3 0,0.921875 0.765625,1.84375 1.796875,1.84375 0.625,0 1.453125,-0.28125 1.984375,-0.703125 0.0625,0.234375 0.5625,0.703125 1.015625,0.703125 0.53125,0 1.015625,-0.703125 1.015625,-0.859375 0,-0.078125 -0.234375,-0.28125 -0.296875,-0.28125 -0.0625,0 -0.28125,0.203125 -0.3125,0.28125 -0.171875,0.484375 -0.359375,0.3125 -0.375,0.3125 -0.3125,0 -0.140625,-0.609375 -0.140625,-0.84375 0,-0.21875 -0.046875,-0.125 0.046875,-0.25 0.9375,-1.171875 1.203125,-2.4375 1.203125,-2.453125 C 6.171875,-4 5.984375,-4.25 5.875,-4.25 5.78125,-4.25 5.609375,-4.046875 5.546875,-3.875 5.375,-3.234375 5.09375,-2.609375 4.625,-2.015625 l 0.296875,0.125 z m -0.96875,1.25 C 3.078125,-0.5 2.4375,-0.4375 2.046875,-0.4375 c -0.59375,0 -0.734375,-0.28125 -0.734375,-0.921875 0,-0.484375 0.21875,-1.453125 0.53125,-1.953125 0.46875,-0.734375 0.890625,-0.875 1.234375,-0.875 0.984375,0 0.8125,1.140625 0.8125,1.921875 0,0.375 0,0.953125 0,1.046875 z m 0,0"
             transform="translate(592.07,110.99)"
             id="path6950" />
        </g>
      </g>
    </g>
    <g
       id="g7159"
       transform="matrix(5.3067913,0,0,5.3067913,-2794.5528,142.33403)"
       ns1:text="$$\\gamma$$">
      <g
         id="g7161">
        <g
           id="g7163"
           style="fill:#000000;fill-opacity:1">
          <path
             id="path7165"
             transform="translate(592.42,110.99)"
             d="m 0.578125,-2.6875 c 0.390625,-1.15625 1.3125,-1 1.421875,-1 1.5,0 1.421875,1.578125 1.421875,2.375 0,0.609375 -0.046875,0.78125 -0.109375,0.96875 -0.21875,0.734375 -0.515625,1.890625 -0.515625,2.140625 0,0.109375 0.21875,0.34375 0.296875,0.34375 0.140625,0 0.390625,-0.375 0.5,-0.75 0.21875,-0.84375 0.328125,-1.40625 0.359375,-1.71875 C 3.984375,-0.453125 4,-0.59375 4.03125,-0.71875 4.359375,-1.703125 4.9375,-3.078125 5.34375,-3.875 c 0.0625,-0.109375 0.234375,-0.4375 0.234375,-0.484375 0,-0.09375 -0.265625,-0.265625 -0.28125,-0.265625 -0.03125,0 -0.265625,0.171875 -0.25,0.125 -0.515625,0.9375 -0.96875,2.0625 -1.375,3.0625 l 0.359375,0 C 4.015625,-1.75 4,-2.5 3.625,-3.46875 c -0.25,-0.609375 -0.8125,-1.265625 -1.5,-1.265625 -1.25,0 -2.125,1.6875 -2.125,2 0,0.09375 0.265625,0.25 0.453125,0.25 l 0.09375,-0.125 z m 0,0"
             style="stroke:none"
             inkscape:connector-curvature="0" />
        </g>
      </g>
    </g>
  </g>
</svg>
