<?xml version="1.0" encoding="UTF-8" standalone="no"?>
<!-- Created with Inkscape (http://www.inkscape.org/) -->

<svg
   xmlns:ns1="http://wanglongqi.github.io/WriteTeX"
   xmlns:dc="http://purl.org/dc/elements/1.1/"
   xmlns:cc="http://creativecommons.org/ns#"
   xmlns:rdf="http://www.w3.org/1999/02/22-rdf-syntax-ns#"
   xmlns:svg="http://www.w3.org/2000/svg"
   xmlns="http://www.w3.org/2000/svg"
   xmlns:xlink="http://www.w3.org/1999/xlink"
   xmlns:sodipodi="http://sodipodi.sourceforge.net/DTD/sodipodi-0.dtd"
   xmlns:inkscape="http://www.inkscape.org/namespaces/inkscape"
   width="148.68259"
   height="149.875"
   id="svg2"
   version="1.1"
   inkscape:version="0.48.5 r10040"
   sodipodi:docname="blueplanes.svg">
  <sodipodi:namedview
     id="base"
     pagecolor="#ffffff"
     bordercolor="#666666"
     borderopacity="1.0"
     inkscape:pageopacity="0.0"
     inkscape:pageshadow="2"
     inkscape:zoom="1.4"
     inkscape:cx="105.48209"
     inkscape:cy="4.8053714"
     inkscape:document-units="px"
     inkscape:current-layer="layer1"
     showgrid="true"
     inkscape:snap-global="false"
     inkscape:window-width="716"
     inkscape:window-height="756"
     inkscape:window-x="790"
     inkscape:window-y="13"
     inkscape:window-maximized="0"
     fit-margin-top="0"
     fit-margin-left="0"
     fit-margin-right="0"
     fit-margin-bottom="0">
    <inkscape:grid
       type="xygrid"
       id="grid2985"
       empspacing="5"
       visible="true"
       enabled="true"
       snapvisiblegridlinesonly="true"
       originx="-209.5px"
       originy="-600.625px" />
  </sodipodi:namedview>
  <defs
     id="defs4">
    <linearGradient
       inkscape:collect="always"
       id="linearGradient4617">
      <stop
         style="stop-color:#7de7fd;stop-opacity:1;"
         offset="0"
         id="stop4619" />
      <stop
         style="stop-color:#7de7fd;stop-opacity:0;"
         offset="1"
         id="stop4621" />
    </linearGradient>
    <marker
       inkscape:stockid="Arrow2Mend"
       orient="auto"
       refY="0"
       refX="0"
       id="Arrow2Mend"
       style="overflow:visible">
      <path
         id="path3798"
         style="fill-rule:evenodd;stroke-width:0.625;stroke-linejoin:round"
         d="M 8.7185878,4.0337352 -2.2072895,0.01601326 8.7185884,-4.0017078 c -1.7454984,2.3720609 -1.7354408,5.6174519 -6e-7,8.035443 z"
         transform="scale(-0.6,-0.6)"
         inkscape:connector-curvature="0" />
    </marker>
    <marker
       inkscape:stockid="Arrow2Mstart"
       orient="auto"
       refY="0"
       refX="0"
       id="Arrow2Mstart"
       style="overflow:visible">
      <path
         id="path3795"
         style="fill-rule:evenodd;stroke-width:0.625;stroke-linejoin:round"
         d="M 8.7185878,4.0337352 -2.2072895,0.01601326 8.7185884,-4.0017078 c -1.7454984,2.3720609 -1.7354408,5.6174519 -6e-7,8.035443 z"
         transform="scale(0.6,0.6)"
         inkscape:connector-curvature="0" />
    </marker>
    <marker
       inkscape:stockid="Arrow2Lstart"
       orient="auto"
       refY="0"
       refX="0"
       id="Arrow2Lstart"
       style="overflow:visible">
      <path
         id="path3789"
         style="fill-rule:evenodd;stroke-width:0.625;stroke-linejoin:round"
         d="M 8.7185878,4.0337352 -2.2072895,0.01601326 8.7185884,-4.0017078 c -1.7454984,2.3720609 -1.7354408,5.6174519 -6e-7,8.035443 z"
         transform="matrix(1.1,0,0,1.1,1.1,0)"
         inkscape:connector-curvature="0" />
    </marker>
    <linearGradient
       inkscape:collect="always"
       id="linearGradient4407">
      <stop
         style="stop-color:#7de7fd;stop-opacity:1;"
         offset="0"
         id="stop4409" />
      <stop
         style="stop-color:#7de7fd;stop-opacity:0;"
         offset="1"
         id="stop4411" />
    </linearGradient>
    <marker
       inkscape:stockid="Arrow2Lend"
       orient="auto"
       refY="0"
       refX="0"
       id="Arrow2Lend"
       style="overflow:visible">
      <path
         id="path3792"
         style="fill-rule:evenodd;stroke-width:0.625;stroke-linejoin:round"
         d="M 8.7185878,4.0337352 -2.2072895,0.01601326 8.7185884,-4.0017078 c -1.7454984,2.3720609 -1.7354408,5.6174519 -6e-7,8.035443 z"
         transform="matrix(-1.1,0,0,-1.1,-1.1,0)"
         inkscape:connector-curvature="0" />
    </marker>
    <linearGradient
       inkscape:collect="always"
       xlink:href="#linearGradient4407"
       id="linearGradient4413"
       x1="288.78571"
       y1="350.21933"
       x2="282.82141"
       y2="338.61218"
       gradientUnits="userSpaceOnUse"
       gradientTransform="translate(209.5,301.86218)" />
    <linearGradient
       inkscape:collect="always"
       xlink:href="#linearGradient4617"
       id="linearGradient4623"
       x1="223.8093"
       y1="380.25723"
       x2="230.6274"
       y2="379.86218"
       gradientUnits="userSpaceOnUse"
       gradientTransform="translate(71.124064,455.05652)" />
  </defs>
  <metadata
     id="metadata7">
    <rdf:RDF>
      <cc:Work
         rdf:about="">
        <dc:format>image/svg+xml</dc:format>
        <dc:type
           rdf:resource="http://purl.org/dc/dcmitype/StillImage" />
        <dc:title />
      </cc:Work>
    </rdf:RDF>
  </metadata>
  <g
     inkscape:label="Layer 1"
     inkscape:groupmode="layer"
     id="layer1"
     transform="translate(-209.5,-301.86218)">
    <path
       style="fill:none;stroke:#7de7fd;stroke-width:1px;stroke-linecap:butt;stroke-linejoin:miter;stroke-opacity:1"
       d="m 275,312.36218 0,110"
       id="path2987"
       inkscape:connector-curvature="0" />
    <path
       style="fill:none;stroke:#7de7fd;stroke-width:1px;stroke-linecap:butt;stroke-linejoin:miter;stroke-opacity:1"
       d="m 295,312.36218 0,110"
       id="path2989"
       inkscape:connector-curvature="0" />
    <path
       style="fill:#ffffff;stroke:#000000;stroke-width:1px;stroke-linecap:butt;stroke-linejoin:miter;stroke-opacity:1"
       d="m 270,347.36218 5,10 25,-15 -5,-10 z"
       id="path4415"
       inkscape:connector-curvature="0" />
    <path
       style="fill:url(#linearGradient4413);fill-opacity:1;stroke:#7de7fd;stroke-width:1px;stroke-linecap:butt;stroke-linejoin:miter;stroke-opacity:1"
       d="m 270,347.36218 25,-15 5,10 -25,15 z"
       id="path2991"
       inkscape:connector-curvature="0" />
    <path
       style="fill:none;stroke:#000000;stroke-width:1px;stroke-linecap:butt;stroke-linejoin:miter;stroke-opacity:1;marker-end:url(#Arrow2Mend)"
       d="m 295,332.36218 45,90"
       id="path2993"
       inkscape:connector-curvature="0"
       sodipodi:nodetypes="cc" />
    <path
       style="fill:none;stroke:#000000;stroke-width:1px;stroke-linecap:butt;stroke-linejoin:miter;stroke-opacity:1;marker-end:url(#Arrow2Mend)"
       d="m 275,357.36218 40,80"
       id="path2995"
       inkscape:connector-curvature="0"
       sodipodi:nodetypes="cc" />
    <path
       style="fill:none;stroke:#000000;stroke-width:1px;stroke-linecap:butt;stroke-linejoin:miter;stroke-opacity:1;marker-end:url(#Arrow2Mend)"
       d="m 285,397.36218 0,40"
       id="path2997"
       inkscape:connector-curvature="0" />
    <path
       style="fill:none;stroke:#000000;stroke-width:1px;stroke-linecap:butt;stroke-linejoin:miter;stroke-opacity:1;marker-start:url(#Arrow2Mstart);marker-end:url(#Arrow2Mend)"
       d="m 275,317.36218 20,0"
       id="path4393"
       inkscape:connector-curvature="0" />
    <path
       style="fill:none;stroke:#000000;stroke-width:1px;stroke-linecap:butt;stroke-linejoin:miter;stroke-opacity:1;marker-start:url(#Arrow2Mstart);marker-end:none"
       d="M 290,348.36218 215.17857,394.1479"
       id="path4395"
       inkscape:connector-curvature="0"
       sodipodi:nodetypes="cc" />
    <path
       style="fill:none;stroke:#000000;stroke-width:1px;stroke-linecap:butt;stroke-linejoin:miter;stroke-opacity:1;marker-start:url(#Arrow2Mstart)"
       d="m 295,332.36218 -85,50"
       id="path4397"
       inkscape:connector-curvature="0"
       sodipodi:nodetypes="cc" />
    <text
       xml:space="preserve"
       style="font-size:12px;font-style:normal;font-variant:normal;font-weight:normal;font-stretch:normal;text-align:start;line-height:125%;letter-spacing:0px;word-spacing:0px;writing-mode:lr-tb;text-anchor:start;fill:#000000;fill-opacity:1;stroke:none;font-family:Sans;-inkscape-font-specification:Sans"
       x="210"
       y="357.36218"
       id="text3041"
       sodipodi:linespacing="125%"><tspan
         sodipodi:role="line"
         id="tspan3043"
         x="210"
         y="357.36218">A</tspan></text>
    <text
       xml:space="preserve"
       style="font-size:12px;font-style:normal;font-variant:normal;font-weight:normal;font-stretch:normal;text-align:start;line-height:125%;letter-spacing:0px;word-spacing:0px;writing-mode:lr-tb;text-anchor:start;fill:#000000;fill-opacity:1;stroke:none;font-family:Sans;-inkscape-font-specification:Sans"
       x="283.92856"
       y="311.64789"
       id="text3045"
       sodipodi:linespacing="125%"><tspan
         sodipodi:role="line"
         id="tspan3047"
         x="283.92856"
         y="311.64789">t</tspan></text>
    <path
       style="fill:none;stroke:#000000;stroke-width:1px;stroke-linecap:butt;stroke-linejoin:miter;stroke-opacity:1;marker-end:url(#Arrow2Mend)"
       d="m 215,362.36218 0,15"
       id="path3049"
       inkscape:connector-curvature="0"
       sodipodi:nodetypes="cc" />
    <g
       ns1:text="$$r^\\ast_{hkl}$$"
       transform="translate(-311.92778,338.22468)"
       id="g4064">
      <g
         id="surface1">
        <g
           style="fill:#000000;fill-opacity:1"
           id="g4067">
          <path
             inkscape:connector-curvature="0"
             style="stroke:none"
             d="m 0.703125,-0.75 c -0.03125,0.15625 -0.09375,0.375 -0.09375,0.4375 0,0.171875 0.3125,0.421875 0.46875,0.421875 0.125,0 0.46875,-0.234375 0.515625,-0.40625 -0.015625,0.03125 0.375,-1.421875 0.421875,-1.609375 0.078125,-0.328125 0.25,-1.03125 0.3125,-1.296875 0.046875,-0.125 0.28125,-0.484375 0.515625,-0.703125 0.078125,-0.078125 0.25,-0.28125 0.671875,-0.28125 0.265625,0 0.40625,0.125 0.421875,0.125 l 0,-0.328125 c -0.296875,0.046875 -0.703125,0.453125 -0.703125,0.71875 0,0.15625 0.296875,0.5 0.5625,0.5 0.265625,0 0.71875,-0.390625 0.71875,-0.75 0,-0.34375 -0.484375,-0.8125 -1,-0.8125 -0.640625,0 -1.21875,0.53125 -1.40625,0.8125 l 0.296875,0.125 C 2.328125,-4.25 1.796875,-4.734375 1.328125,-4.734375 c -0.453125,0 -0.765625,0.4375 -0.859375,0.625 -0.171875,0.328125 -0.359375,1.046875 -0.359375,1.078125 0,0.09375 0.28125,0.265625 0.296875,0.265625 0.109375,0 0.28125,-0.171875 0.34375,-0.390625 0.171875,-0.71875 0.203125,-1.03125 0.5625,-1.03125 0.15625,0 0.125,-0.078125 0.125,0.296875 0,0.21875 -0.03125,0.328125 -0.15625,0.84375 z m 0,0"
             transform="translate(586.97,110.99)"
             id="path4069" />
        </g>
        <g
           style="fill:#000000;fill-opacity:1"
           id="g4071">
          <path
             inkscape:connector-curvature="0"
             style="stroke:none"
             d="m 2.25,-1.734375 c 0.578125,-0.25 0.828125,-0.34375 1,-0.4375 0.140625,-0.046875 0.390625,-0.234375 0.390625,-0.375 0,-0.109375 -0.28125,-0.390625 -0.40625,-0.390625 -0.046875,0 -0.203125,0.046875 -0.28125,0.109375 L 2.375,-2.4375 2.4375,-3.09375 C 2.453125,-3.21875 2.25,-3.5625 2.03125,-3.5625 c -0.078125,0 -0.421875,0.21875 -0.421875,0.375 0,0.0625 0.03125,0.265625 0.046875,0.34375 0.015625,0.109375 0.0625,0.609375 0.03125,0.40625 L 1.125,-2.828125 C 1.0625,-2.859375 0.90625,-2.9375 0.84375,-2.9375 c -0.140625,0 -0.421875,0.28125 -0.421875,0.390625 0,0.140625 0.28125,0.34375 0.34375,0.359375 l 0.65625,0.28125 C 1.25,-1.8125 0.984375,-1.71875 0.8125,-1.640625 c -0.125,0.0625 -0.390625,0.25 -0.390625,0.390625 0,0.109375 0.28125,0.375 0.421875,0.375 0.046875,0 0.1875,-0.046875 0.28125,-0.109375 l 0.5625,-0.375 -0.078125,0.75 c 0,0.15625 0.34375,0.375 0.421875,0.375 0.09375,0 0.421875,-0.21875 0.421875,-0.375 0,-0.0625 -0.03125,-0.265625 -0.046875,-0.34375 C 2.390625,-1.0625 2.34375,-1.5625 2.375,-1.359375 L 2.84375,-1.0625 c 0.171875,0.140625 0.328125,0.1875 0.390625,0.1875 0.125,0 0.40625,-0.265625 0.40625,-0.375 0,-0.140625 -0.28125,-0.34375 -0.34375,-0.375 l -0.65625,-0.28125 z m 0,0"
             transform="translate(591.74,106.88)"
             id="path4073" />
        </g>
        <g
           style="fill:#000000;fill-opacity:1"
           id="g4075">
          <path
             inkscape:connector-curvature="0"
             style="stroke:none"
             d="m 2.3125,-4.6875 c 0.015625,-0.015625 0.078125,-0.234375 0.078125,-0.25 0,-0.03125 -0.203125,-0.28125 -0.296875,-0.28125 -0.140625,0 -0.71875,0.046875 -0.890625,0.0625 -0.046875,0 -0.34375,0.203125 -0.34375,0.359375 0,0.09375 0.296875,0.28125 0.375,0.28125 0.328125,0 0.140625,-0.140625 0.140625,-0.078125 0,0.046875 -0.015625,0.078125 -0.03125,0.140625 L 0.359375,-0.5 c -0.03125,0.125 -0.03125,0.140625 -0.03125,0.15625 0,0.09375 0.28125,0.40625 0.4375,0.40625 0.078125,0 0.328125,-0.078125 0.40625,-0.234375 C 1.203125,-0.203125 1.3125,-0.59375 1.359375,-0.75 l 0.15625,-0.609375 C 1.53125,-1.46875 1.609375,-1.734375 1.625,-1.84375 1.6875,-2.109375 1.640625,-1.96875 1.78125,-2.1875 2,-2.53125 2.21875,-2.875 2.765625,-2.875 c 0.390625,0 0.203125,0.125 0.203125,0.296875 0,0.40625 -0.296875,1.1875 -0.40625,1.484375 -0.078125,0.1875 -0.109375,0.25 -0.109375,0.375 0,0.359375 0.515625,0.78125 0.859375,0.78125 0.703125,0 1.203125,-1.15625 1.203125,-1.25 0,-0.09375 -0.28125,-0.296875 -0.3125,-0.296875 -0.09375,0 -0.296875,0.25 -0.328125,0.328125 -0.15625,0.546875 -0.265625,0.640625 -0.53125,0.640625 -0.15625,0 0.015625,0.09375 0.015625,-0.046875 0,-0.15625 0.03125,-0.25 0.15625,-0.5625 C 3.59375,-1.34375 3.875,-2.078125 3.875,-2.46875 c 0,-0.109375 -0.046875,-0.546875 -0.3125,-0.75 -0.109375,-0.078125 -0.453125,-0.25 -0.78125,-0.25 -0.5,0 -1.015625,0.34375 -1.265625,0.640625 L 1.84375,-2.6875 2.359375,-4.78125 z m 0,0"
             transform="translate(591.46,113.45)"
             id="path4077" />
          <path
             inkscape:connector-curvature="0"
             style="stroke:none"
             d="m 2.3125,-4.6875 c 0.015625,-0.015625 0.078125,-0.234375 0.078125,-0.25 0,-0.03125 -0.203125,-0.28125 -0.296875,-0.28125 -0.140625,0 -0.71875,0.046875 -0.890625,0.0625 -0.046875,0 -0.34375,0.203125 -0.34375,0.359375 0,0.09375 0.296875,0.28125 0.375,0.28125 0.328125,0 0.140625,-0.140625 0.140625,-0.078125 0,0.046875 -0.015625,0.078125 -0.03125,0.140625 L 0.359375,-0.5 c -0.03125,0.125 -0.03125,0.140625 -0.03125,0.15625 0,0.09375 0.28125,0.40625 0.4375,0.40625 0.1875,0 0.453125,-0.328125 0.484375,-0.421875 -0.03125,0.046875 0.328125,-1.3125 0.296875,-1.203125 0.375,0.03125 0.578125,0 0.578125,0.359375 0,0.046875 0,0.078125 -0.015625,0.140625 -0.03125,0.109375 -0.03125,0.140625 -0.03125,0.21875 0,0.5 0.59375,0.90625 0.9375,0.90625 0.671875,0 1.0625,-1.25 1.0625,-1.25 0,-0.09375 -0.265625,-0.296875 -0.296875,-0.296875 -0.09375,0 -0.296875,0.234375 -0.328125,0.375 -0.09375,0.296875 -0.078125,0.59375 -0.421875,0.59375 -0.1875,0 -0.0625,0.015625 -0.0625,-0.171875 0,-0.109375 0,-0.125 0.046875,-0.3125 0.015625,-0.015625 0.03125,-0.140625 0.03125,-0.21875 0,-0.609375 -1.015625,-0.90625 -1.3125,-0.921875 L 1.875,-1.8125 c 0.1875,-0.125 0.453125,-0.359375 0.578125,-0.453125 0.34375,-0.34375 0.5625,-0.609375 0.953125,-0.609375 0.078125,0 0.03125,-0.03125 -0.125,-0.234375 0.0625,-0.015625 -0.203125,0.40625 -0.203125,0.515625 0,0.15625 0.3125,0.453125 0.46875,0.453125 0.203125,0 0.59375,-0.34375 0.59375,-0.640625 0,-0.234375 -0.359375,-0.6875 -0.71875,-0.6875 -0.40625,0 -0.90625,0.359375 -1.265625,0.6875 -0.28125,0.265625 -0.375,0.421875 -0.40625,0.4375 l 0.609375,-2.4375 z m 0,0"
             transform="translate(596.12421,113.45)"
             id="path4079" />
        </g>
        <g
           style="fill:#000000;fill-opacity:1"
           id="g4081">
          <path
             inkscape:connector-curvature="0"
             style="stroke:none"
             d="m 2.09375,-4.6875 c 0.015625,-0.015625 0.09375,-0.234375 0.09375,-0.25 0,-0.03125 -0.21875,-0.28125 -0.3125,-0.28125 -0.140625,0 -0.71875,0.046875 -0.890625,0.0625 -0.046875,0 -0.34375,0.203125 -0.34375,0.359375 0,0.09375 0.296875,0.28125 0.375,0.28125 0.34375,0 0.140625,-0.140625 0.140625,-0.078125 0,0.046875 -0.015625,0.078125 -0.03125,0.140625 L 0.265625,-1 c -0.015625,0.0625 -0.03125,0.140625 -0.03125,0.21875 0,0.4375 0.59375,0.84375 0.921875,0.84375 0.171875,0 0.515625,-0.109375 0.703125,-0.421875 C 2,-0.609375 2.15625,-1.15625 2.15625,-1.1875 c 0,-0.09375 -0.28125,-0.296875 -0.296875,-0.296875 -0.109375,0 -0.3125,0.25 -0.34375,0.375 -0.09375,0.34375 -0.03125,0.59375 -0.328125,0.59375 C 1,-0.515625 1.140625,-0.5 1.140625,-0.65625 1.140625,-0.734375 1.15625,-0.875 1.1875,-0.953125 L 2.140625,-4.78125 z m 0,0"
             transform="translate(600.5269,113.45)"
             id="path4083" />
        </g>
      </g>
    </g>
    <path
       inkscape:connector-curvature="0"
       id="path4127"
       d="m 295,332.36218 50,-30"
       style="fill:none;stroke:#000000;stroke-width:1;stroke-linecap:butt;stroke-linejoin:miter;stroke-miterlimit:4;stroke-opacity:1;stroke-dasharray:4, 4;stroke-dashoffset:0" />
    <path
       sodipodi:nodetypes="cc"
       inkscape:connector-curvature="0"
       id="path4129"
       d="m 315,372.36218 c 27.77132,-16.39027 25,-44.34911 5,-55"
       style="fill:none;stroke:#000000;stroke-width:1px;stroke-linecap:butt;stroke-linejoin:miter;stroke-opacity:1;marker-end:url(#Arrow2Mend)" />
    <g
       id="g4553"
       transform="matrix(1.5430593,0,0,1.5430593,-567.64239,179.98524)"
       ns1:text="$$2\\theta$$">
      <g
         id="g4555">
        <g
           id="g4557"
           style="fill:#000000;fill-opacity:1">
          <path
             id="path4559"
             transform="translate(590.31,110.99)"
             d="M 1.390625,-0.8125 2.4375,-1.84375 C 4,-3.21875 4.640625,-3.875 4.640625,-4.859375 4.640625,-6 3.578125,-6.96875 2.359375,-6.96875 1.234375,-6.96875 0.3125,-5.875 0.3125,-5 c 0,0.5625 0.6875,0.71875 0.71875,0.71875 0.171875,0 0.6875,-0.28125 0.6875,-0.6875 0,-0.25 -0.359375,-0.6875 -0.703125,-0.6875 -0.078125,0 -0.09375,0 0.125,-0.078125 0.140625,-0.390625 0.515625,-0.59375 1.09375,-0.59375 0.90625,0 1.15625,0.640625 1.15625,1.46875 0,0.796875 -0.453125,1.453125 -1,2.078125 l -1.90625,2.140625 C 0.375,-0.53125 0.3125,-0.40625 0.3125,0 l 4.03125,0 0.328125,-2.0625 -0.59375,0 C 4,-1.59375 3.984375,-1.28125 3.875,-1.125 3.8125,-1.046875 3.28125,-1.09375 3.0625,-1.09375 l -1.796875,0 z m 0,0"
             style="stroke:none"
             inkscape:connector-curvature="0" />
        </g>
        <g
           id="g4561"
           style="fill:#000000;fill-opacity:1">
          <path
             id="path4563"
             transform="translate(595.29,110.99)"
             d="m 4.703125,-5.140625 c 0,-0.65625 -0.34375,-2.21875 -1.359375,-2.21875 -1.390625,0 -3.109375,2.984375 -3.109375,5.265625 0,0.9375 0.46875,2.203125 1.375,2.203125 1.40625,0 3.09375,-3.015625 3.09375,-5.25 z m -3.0625,1.359375 C 1.8125,-4.421875 1.96875,-5.109375 2.359375,-5.8125 c 0.265625,-0.484375 0.515625,-1 0.96875,-1 0.484375,0 0.375,0.484375 0.375,1.046875 0,0.484375 -0.078125,1 -0.28125,1.8125 l -1.734375,0 z m 1.65625,0.328125 C 3.1875,-3 3.015625,-2.265625 2.640625,-1.5625 2.296875,-0.875 2.046875,-0.4375 1.609375,-0.4375 1.28125,-0.4375 1.25,-0.5625 1.25,-1.484375 c 0,-0.421875 0.0625,-1 0.265625,-1.8125 l 1.734375,0 z m 0,0"
             style="stroke:none"
             inkscape:connector-curvature="0" />
        </g>
      </g>
    </g>
    <path
       sodipodi:type="arc"
       style="fill:url(#linearGradient4623);fill-opacity:1;fill-rule:nonzero;stroke:#7de7fd;stroke-width:1.25349212;stroke-miterlimit:4;stroke-opacity:1;stroke-dasharray:none;stroke-dashoffset:0"
       id="path4615"
       sodipodi:cx="227.5"
       sodipodi:cy="379.86218"
       sodipodi:rx="2.5"
       sodipodi:ry="7.5"
       d="m 228.48203,372.96504 c 1.26973,1.62707 1.85938,6.03404 1.31702,9.84322 -0.54236,3.80919 -2.01135,5.57814 -3.28108,3.95107 -1.26973,-1.62708 -1.85938,-6.03404 -1.31702,-9.84323 0.54103,-3.79988 2.00463,-5.57116 3.27312,-3.96121"
       sodipodi:start="5.116075"
       sodipodi:end="11.395803"
       transform="matrix(0.71777309,-0.34819644,0.34819644,0.71777309,-67.79192,185.28597)"
       sodipodi:open="true" />
  </g>
</svg>
