<?xml version="1.0" encoding="UTF-8" standalone="no"?>
<!-- Created with Inkscape (http://www.inkscape.org/) -->

<svg
   xmlns:ns1="http://wanglongqi.github.io/WriteTeX"
   xmlns:dc="http://purl.org/dc/elements/1.1/"
   xmlns:cc="http://creativecommons.org/ns#"
   xmlns:rdf="http://www.w3.org/1999/02/22-rdf-syntax-ns#"
   xmlns:svg="http://www.w3.org/2000/svg"
   xmlns="http://www.w3.org/2000/svg"
   xmlns:sodipodi="http://sodipodi.sourceforge.net/DTD/sodipodi-0.dtd"
   xmlns:inkscape="http://www.inkscape.org/namespaces/inkscape"
   width="115.6"
   height="175.95714"
   id="svg24952"
   version="1.1"
   inkscape:version="0.48.5 r10040"
   sodipodi:docname="New document 97">
  <sodipodi:namedview
     id="base"
     pagecolor="#ffffff"
     bordercolor="#666666"
     borderopacity="1.0"
     inkscape:pageopacity="0.0"
     inkscape:pageshadow="2"
     inkscape:zoom="1.979899"
     inkscape:cx="103.90273"
     inkscape:cy="80.189995"
     inkscape:document-units="px"
     inkscape:current-layer="layer1"
     showgrid="true"
     inkscape:snap-global="false"
     inkscape:window-width="759"
     inkscape:window-height="803"
     inkscape:window-x="769"
     inkscape:window-y="-8"
     inkscape:window-maximized="1"
     fit-margin-top="0"
     fit-margin-left="0"
     fit-margin-right="0"
     fit-margin-bottom="0">
    <inkscape:grid
       id="grid24960"
       type="xygrid"
       empspacing="5"
       visible="true"
       enabled="true"
       snapvisiblegridlinesonly="true"
       originx="-144.7px"
       originy="-779.7px" />
  </sodipodi:namedview>
  <defs
     id="defs24954">
    <marker
       style="overflow:visible"
       id="Arrow2Mstart"
       refX="0"
       refY="0"
       orient="auto"
       inkscape:stockid="Arrow2Mstart">
      <path
         transform="scale(0.6,0.6)"
         d="M 8.7185878,4.0337352 -2.2072895,0.01601326 8.7185884,-4.0017078 c -1.7454984,2.3720609 -1.7354408,5.6174519 -6e-7,8.035443 z"
         style="fill-rule:evenodd;stroke-width:0.625;stroke-linejoin:round"
         id="path6338"
         inkscape:connector-curvature="0" />
    </marker>
    <marker
       style="overflow:visible"
       id="Arrow2Mend"
       refX="0"
       refY="0"
       orient="auto"
       inkscape:stockid="Arrow2Mend">
      <path
         transform="scale(-0.6,-0.6)"
         d="M 8.7185878,4.0337352 -2.2072895,0.01601326 8.7185884,-4.0017078 c -1.7454984,2.3720609 -1.7354408,5.6174519 -6e-7,8.035443 z"
         style="fill-rule:evenodd;stroke-width:0.625;stroke-linejoin:round"
         id="path6341"
         inkscape:connector-curvature="0" />
    </marker>
  </defs>
  <metadata
     id="metadata24957">
    <rdf:RDF>
      <cc:Work
         rdf:about="">
        <dc:format>image/svg+xml</dc:format>
        <dc:type
           rdf:resource="http://purl.org/dc/dcmitype/StillImage" />
        <dc:title></dc:title>
      </cc:Work>
    </rdf:RDF>
  </metadata>
  <g
     id="layer1"
     inkscape:groupmode="layer"
     inkscape:label="Layer 1"
     transform="translate(-144.7,-96.705039)">
    <path
       sodipodi:nodetypes="ccccc"
       inkscape:connector-curvature="0"
       id="path24962"
       d="m 175,157.36218 -25,35 80,0 25,-35 z"
       style="fill:none;stroke:#000000;stroke-width:0.60000002;stroke-linecap:butt;stroke-linejoin:miter;stroke-miterlimit:4;stroke-opacity:1;stroke-dasharray:none" />
    <path
       inkscape:connector-curvature="0"
       id="path26488"
       d="m 175,232.36218 55,-40"
       style="fill:none;stroke:#000000;stroke-width:0.60000002;stroke-linecap:butt;stroke-linejoin:miter;stroke-miterlimit:4;stroke-opacity:1;stroke-dasharray:none" />
    <path
       sodipodi:nodetypes="cccc"
       inkscape:connector-curvature="0"
       id="path24964"
       d="m 150,192.36218 0,75 80,0 0,-75"
       style="fill:none;stroke:#000000;stroke-width:0.60000002;stroke-linecap:butt;stroke-linejoin:miter;stroke-miterlimit:4;stroke-opacity:1;stroke-dasharray:none" />
    <path
       inkscape:connector-curvature="0"
       id="path24966"
       d="m 255,157.36218 0,75"
       style="fill:none;stroke:#000000;stroke-width:0.60000002;stroke-linecap:butt;stroke-linejoin:miter;stroke-miterlimit:4;stroke-opacity:1;stroke-dasharray:none" />
    <path
       inkscape:connector-curvature="0"
       id="path24968"
       d="m 230,267.36218 25,-35"
       style="fill:none;stroke:#000000;stroke-width:0.60000002;stroke-linecap:butt;stroke-linejoin:miter;stroke-miterlimit:4;stroke-opacity:1;stroke-dasharray:none" />
    <path
       inkscape:connector-curvature="0"
       id="path26490"
       d="m 175,157.36218 55,110"
       style="fill:none;stroke:#000000;stroke-width:0.60000002;stroke-linecap:butt;stroke-linejoin:miter;stroke-miterlimit:4;stroke-opacity:1;stroke-dasharray:none" />
    <path
       inkscape:connector-curvature="0"
       id="path26492"
       d="m 150,192.36218 105,40"
       style="fill:none;stroke:#000000;stroke-width:0.60000002;stroke-linecap:butt;stroke-linejoin:miter;stroke-miterlimit:4;stroke-opacity:1;stroke-dasharray:none" />
    <path
       sodipodi:nodetypes="cc"
       inkscape:connector-curvature="0"
       id="path24970"
       d="m 175,162.36218 0,70"
       style="fill:none;stroke:#000000;stroke-width:1.29999995;stroke-linecap:butt;stroke-linejoin:miter;stroke-miterlimit:4;stroke-opacity:1;stroke-dasharray:none;marker-start:url(#Arrow2Mstart);marker-end:none" />
    <path
       sodipodi:nodetypes="ccc"
       inkscape:connector-curvature="0"
       id="path24972"
       d="M 153.57143,263.07647 175,232.36218 l 75,0"
       style="fill:none;stroke:#000000;stroke-width:1.29999995;stroke-linecap:butt;stroke-linejoin:miter;stroke-miterlimit:4;stroke-opacity:1;stroke-dasharray:none;marker-start:url(#Arrow2Mstart);marker-end:url(#Arrow2Mend)" />
    <path
       transform="translate(75,25)"
       d="m 185,132.36218 c 0,2.76143 -2.23858,5 -5,5 -2.76142,0 -5,-2.23857 -5,-5 0,-2.76142 2.23858,-5 5,-5 2.76142,0 5,2.23858 5,5 z"
       sodipodi:ry="5"
       sodipodi:rx="5"
       sodipodi:cy="132.36218"
       sodipodi:cx="180"
       id="path26404"
       style="fill:#ffffff;fill-opacity:1;fill-rule:nonzero;stroke:#000000;stroke-width:0.60000002;stroke-miterlimit:4;stroke-opacity:1;stroke-dasharray:none;stroke-dashoffset:0"
       sodipodi:type="arc" />
    <path
       transform="translate(75,100)"
       d="m 185,132.36218 c 0,2.76143 -2.23858,5 -5,5 -2.76142,0 -5,-2.23857 -5,-5 0,-2.76142 2.23858,-5 5,-5 2.76142,0 5,2.23858 5,5 z"
       sodipodi:ry="5"
       sodipodi:rx="5"
       sodipodi:cy="132.36218"
       sodipodi:cx="180"
       id="path26404-5"
       style="fill:#ffffff;fill-opacity:1;fill-rule:nonzero;stroke:#000000;stroke-width:0.60000002;stroke-miterlimit:4;stroke-opacity:1;stroke-dasharray:none;stroke-dashoffset:0"
       sodipodi:type="arc" />
    <path
       transform="translate(50,135)"
       d="m 185,132.36218 c 0,2.76143 -2.23858,5 -5,5 -2.76142,0 -5,-2.23857 -5,-5 0,-2.76142 2.23858,-5 5,-5 2.76142,0 5,2.23858 5,5 z"
       sodipodi:ry="5"
       sodipodi:rx="5"
       sodipodi:cy="132.36218"
       sodipodi:cx="180"
       id="path26404-3"
       style="fill:#ffffff;fill-opacity:1;fill-rule:nonzero;stroke:#000000;stroke-width:0.60000002;stroke-miterlimit:4;stroke-opacity:1;stroke-dasharray:none;stroke-dashoffset:0"
       sodipodi:type="arc" />
    <path
       transform="translate(50,60)"
       d="m 185,132.36218 c 0,2.76143 -2.23858,5 -5,5 -2.76142,0 -5,-2.23857 -5,-5 0,-2.76142 2.23858,-5 5,-5 2.76142,0 5,2.23858 5,5 z"
       sodipodi:ry="5"
       sodipodi:rx="5"
       sodipodi:cy="132.36218"
       sodipodi:cx="180"
       id="path26404-2"
       style="fill:#ffffff;fill-opacity:1;fill-rule:nonzero;stroke:#000000;stroke-width:0.60000002;stroke-miterlimit:4;stroke-opacity:1;stroke-dasharray:none;stroke-dashoffset:0"
       sodipodi:type="arc" />
    <path
       transform="translate(-30,135)"
       d="m 185,132.36218 c 0,2.76143 -2.23858,5 -5,5 -2.76142,0 -5,-2.23857 -5,-5 0,-2.76142 2.23858,-5 5,-5 2.76142,0 5,2.23858 5,5 z"
       sodipodi:ry="5"
       sodipodi:rx="5"
       sodipodi:cy="132.36218"
       sodipodi:cx="180"
       id="path26404-8"
       style="fill:#ffffff;fill-opacity:1;fill-rule:nonzero;stroke:#000000;stroke-width:0.60000002;stroke-miterlimit:4;stroke-opacity:1;stroke-dasharray:none;stroke-dashoffset:0"
       sodipodi:type="arc" />
    <path
       transform="translate(-30,60)"
       d="m 185,132.36218 c 0,2.76143 -2.23858,5 -5,5 -2.76142,0 -5,-2.23857 -5,-5 0,-2.76142 2.23858,-5 5,-5 2.76142,0 5,2.23858 5,5 z"
       sodipodi:ry="5"
       sodipodi:rx="5"
       sodipodi:cy="132.36218"
       sodipodi:cx="180"
       id="path26404-25"
       style="fill:#ffffff;fill-opacity:1;fill-rule:nonzero;stroke:#000000;stroke-width:0.60000002;stroke-miterlimit:4;stroke-opacity:1;stroke-dasharray:none;stroke-dashoffset:0"
       sodipodi:type="arc" />
    <path
       transform="translate(-5,100)"
       d="m 185,132.36218 c 0,2.76143 -2.23858,5 -5,5 -2.76142,0 -5,-2.23857 -5,-5 0,-2.76142 2.23858,-5 5,-5 2.76142,0 5,2.23858 5,5 z"
       sodipodi:ry="5"
       sodipodi:rx="5"
       sodipodi:cy="132.36218"
       sodipodi:cx="180"
       id="path26404-36"
       style="fill:#ffffff;fill-opacity:1;fill-rule:nonzero;stroke:#000000;stroke-width:0.60000002;stroke-miterlimit:4;stroke-opacity:1;stroke-dasharray:none;stroke-dashoffset:0"
       sodipodi:type="arc" />
    <path
       transform="translate(-5,25)"
       d="m 185,132.36218 c 0,2.76143 -2.23858,5 -5,5 -2.76142,0 -5,-2.23857 -5,-5 0,-2.76142 2.23858,-5 5,-5 2.76142,0 5,2.23858 5,5 z"
       sodipodi:ry="5"
       sodipodi:rx="5"
       sodipodi:cy="132.36218"
       sodipodi:cx="180"
       id="path26404-1"
       style="fill:#ffffff;fill-opacity:1;fill-rule:nonzero;stroke:#000000;stroke-width:0.60000002;stroke-miterlimit:4;stroke-opacity:1;stroke-dasharray:none;stroke-dashoffset:0"
       sodipodi:type="arc" />
    <path
       transform="matrix(1.1010153,0,0,1.1010153,-3.0304576,-123.98231)"
       d="m 195,304.86218 c 0,4.14214 -3.35786,7.5 -7.5,7.5 -4.14214,0 -7.5,-3.35786 -7.5,-7.5 0,-4.14213 3.35786,-7.5 7.5,-7.5 4.14214,0 7.5,3.35787 7.5,7.5 z"
       sodipodi:ry="7.5"
       sodipodi:rx="7.5"
       sodipodi:cy="304.86218"
       sodipodi:cx="187.5"
       id="path26486"
       style="fill:#000000;fill-opacity:1;fill-rule:nonzero;stroke:#000000;stroke-width:0.90825266;stroke-miterlimit:4;stroke-opacity:1;stroke-dasharray:none;stroke-dashoffset:0"
       sodipodi:type="arc" />
    <g
       id="g26522"
       transform="translate(-428.67669,153.14781)"
       ns1:text="$$a_1$$">
      <g
         id="surface1">
        <g
           id="g26525"
           style="fill:#000000;fill-opacity:1">
          <path
             id="path26527"
             transform="translate(590.41,110.99)"
             d="m 3.890625,-3.921875 c -0.1875,-0.375 -0.640625,-0.8125 -1.09375,-0.8125 -1.15625,0 -2.578125,1.640625 -2.578125,3.09375 0,0.9375 0.734375,1.75 1.5,1.75 0.203125,0 0.828125,-0.09375 1.1875,-0.53125 0.015625,0.046875 0.546875,0.53125 1.015625,0.53125 0.359375,0 0.703125,-0.28125 0.78125,-0.453125 0.296875,-0.609375 0.4375,-1.21875 0.4375,-1.234375 0,-0.109375 -0.265625,-0.28125 -0.296875,-0.28125 -0.09375,0 -0.28125,0.21875 -0.3125,0.359375 -0.171875,0.640625 -0.171875,1.0625 -0.578125,1.0625 -0.28125,0 -0.140625,-0.09375 -0.140625,-0.296875 0,-0.21875 0.03125,-0.296875 0.140625,-0.734375 0.109375,-0.421875 0.125,-0.515625 0.21875,-0.890625 l 0.359375,-1.40625 c 0.0625,-0.265625 0.0625,-0.296875 0.0625,-0.328125 0,-0.171875 -0.28125,-0.4375 -0.453125,-0.4375 -0.25,0 -0.578125,0.390625 -0.609375,0.609375 z m -1,2.578125 c -0.046875,0.171875 0,0.078125 -0.15625,0.25 C 2.296875,-0.546875 2.03125,-0.4375 1.75,-0.4375 c -0.5,0 -0.46875,-0.375 -0.46875,-0.765625 0,-0.5 0.265625,-1.625 0.5,-2.078125 0.296875,-0.59375 0.625,-0.90625 1.03125,-0.90625 0.640625,0 0.609375,0.65625 0.609375,0.71875 0,0.0625 -0.015625,0.125 -0.03125,0.171875 z m 0,0"
             style="stroke:none"
             inkscape:connector-curvature="0" />
        </g>
        <g
           id="g26529"
           style="fill:#000000;fill-opacity:1">
          <path
             id="path26531"
             transform="translate(595.67,112.48)"
             d="m 2.515625,-4.625 c 0,-0.1875 -0.1875,-0.390625 -0.46875,-0.390625 -0.5,0.5 -1,0.4375 -1.484375,0.4375 l 0,0.640625 c 0.359375,0 0.953125,-0.046875 1.015625,-0.078125 l 0,3.25 c 0,0.234375 0.1875,0.125 -0.5,0.125 l -0.46875,0 0,0.65625 C 0.9375,0 1.796875,-0.03125 2.046875,-0.03125 c 0.21875,0 1.09375,0.03125 1.4375,0.046875 l 0,-0.65625 -0.453125,0 c -0.703125,0 -0.515625,0.109375 -0.515625,-0.125 z m 0,0"
             style="stroke:none"
             inkscape:connector-curvature="0" />
        </g>
      </g>
    </g>
    <g
       ns1:text="$$a_2$$"
       transform="translate(-353.77937,130.467)"
       id="g26632">
      <g
         id="g26634">
        <g
           style="fill:#000000;fill-opacity:1"
           id="g26636">
          <path
             inkscape:connector-curvature="0"
             style="stroke:none"
             d="m 3.890625,-3.921875 c -0.1875,-0.375 -0.640625,-0.8125 -1.09375,-0.8125 -1.15625,0 -2.578125,1.640625 -2.578125,3.09375 0,0.9375 0.734375,1.75 1.5,1.75 0.203125,0 0.828125,-0.09375 1.1875,-0.53125 0.015625,0.046875 0.546875,0.53125 1.015625,0.53125 0.359375,0 0.703125,-0.28125 0.78125,-0.453125 0.296875,-0.609375 0.4375,-1.21875 0.4375,-1.234375 0,-0.109375 -0.265625,-0.28125 -0.296875,-0.28125 -0.09375,0 -0.28125,0.21875 -0.3125,0.359375 -0.171875,0.640625 -0.171875,1.0625 -0.578125,1.0625 -0.28125,0 -0.140625,-0.09375 -0.140625,-0.296875 0,-0.21875 0.03125,-0.296875 0.140625,-0.734375 0.109375,-0.421875 0.125,-0.515625 0.21875,-0.890625 l 0.359375,-1.40625 c 0.0625,-0.265625 0.0625,-0.296875 0.0625,-0.328125 0,-0.171875 -0.28125,-0.4375 -0.453125,-0.4375 -0.25,0 -0.578125,0.390625 -0.609375,0.609375 z m -1,2.578125 c -0.046875,0.171875 0,0.078125 -0.15625,0.25 C 2.296875,-0.546875 2.03125,-0.4375 1.75,-0.4375 c -0.5,0 -0.46875,-0.375 -0.46875,-0.765625 0,-0.5 0.265625,-1.625 0.5,-2.078125 0.296875,-0.59375 0.625,-0.90625 1.03125,-0.90625 0.640625,0 0.609375,0.65625 0.609375,0.71875 0,0.0625 -0.015625,0.125 -0.03125,0.171875 z m 0,0"
             transform="translate(590.41,110.99)"
             id="path26638" />
        </g>
        <g
           style="fill:#000000;fill-opacity:1"
           id="g26640">
          <path
             inkscape:connector-curvature="0"
             style="stroke:none"
             d="m 3.515625,-1.65625 -0.40625,0 c -0.046875,0.34375 -0.0625,0.625 -0.140625,0.6875 -0.0625,0.046875 -0.453125,-0.015625 -0.5625,-0.015625 l -1.28125,0 0.140625,0.34375 C 2,-1.296875 2.234375,-1.484375 2.65625,-1.8125 c 0.515625,-0.421875 1.046875,-0.984375 1.046875,-1.65625 0,-0.84375 -0.921875,-1.546875 -1.8125,-1.546875 -0.859375,0 -1.640625,0.796875 -1.640625,1.4375 0,0.359375 0.484375,0.59375 0.5625,0.59375 0.15625,0 0.546875,-0.3125 0.546875,-0.5625 0,-0.125 -0.234375,-0.578125 -0.328125,-0.578125 0.140625,-0.296875 0.421875,-0.25 0.75,-0.25 0.703125,0 0.859375,0.34375 0.859375,0.90625 0,0.609375 -0.375,0.953125 -0.59375,1.203125 L 0.375,-0.59375 C 0.296875,-0.53125 0.25,-0.390625 0.25,0 L 3.46875,0 3.75,-1.65625 z m 0,0"
             transform="translate(595.67,112.48)"
             id="path26642" />
        </g>
      </g>
    </g>
    <g
       id="g26755"
       transform="translate(-426.63651,66.895571)"
       ns1:text="$$a_3$$">
      <g
         id="g26757">
        <g
           id="g26759"
           style="fill:#000000;fill-opacity:1">
          <path
             id="path26761"
             transform="translate(590.41,110.99)"
             d="m 3.890625,-3.921875 c -0.1875,-0.375 -0.640625,-0.8125 -1.09375,-0.8125 -1.15625,0 -2.578125,1.640625 -2.578125,3.09375 0,0.9375 0.734375,1.75 1.5,1.75 0.203125,0 0.828125,-0.09375 1.1875,-0.53125 0.015625,0.046875 0.546875,0.53125 1.015625,0.53125 0.359375,0 0.703125,-0.28125 0.78125,-0.453125 0.296875,-0.609375 0.4375,-1.21875 0.4375,-1.234375 0,-0.109375 -0.265625,-0.28125 -0.296875,-0.28125 -0.09375,0 -0.28125,0.21875 -0.3125,0.359375 -0.171875,0.640625 -0.171875,1.0625 -0.578125,1.0625 -0.28125,0 -0.140625,-0.09375 -0.140625,-0.296875 0,-0.21875 0.03125,-0.296875 0.140625,-0.734375 0.109375,-0.421875 0.125,-0.515625 0.21875,-0.890625 l 0.359375,-1.40625 c 0.0625,-0.265625 0.0625,-0.296875 0.0625,-0.328125 0,-0.171875 -0.28125,-0.4375 -0.453125,-0.4375 -0.25,0 -0.578125,0.390625 -0.609375,0.609375 z m -1,2.578125 c -0.046875,0.171875 0,0.078125 -0.15625,0.25 C 2.296875,-0.546875 2.03125,-0.4375 1.75,-0.4375 c -0.5,0 -0.46875,-0.375 -0.46875,-0.765625 0,-0.5 0.265625,-1.625 0.5,-2.078125 0.296875,-0.59375 0.625,-0.90625 1.03125,-0.90625 0.640625,0 0.609375,0.65625 0.609375,0.71875 0,0.0625 -0.015625,0.125 -0.03125,0.171875 z m 0,0"
             style="stroke:none"
             inkscape:connector-curvature="0" />
        </g>
        <g
           id="g26763"
           style="fill:#000000;fill-opacity:1">
          <path
             id="path26765"
             transform="translate(595.67,112.48)"
             d="m 1.90625,-2.328125 c 0.546875,0 0.734375,0.1875 0.734375,0.921875 0,0.875 -0.3125,0.9375 -0.703125,0.9375 -0.28125,0 -0.765625,-0.015625 -0.84375,-0.109375 -0.015625,0 0.25,-0.4375 0.25,-0.578125 0,-0.21875 -0.359375,-0.578125 -0.578125,-0.578125 -0.1875,0 -0.578125,0.3125 -0.578125,0.59375 0,0.65625 0.90625,1.28125 1.75,1.28125 0.96875,0 1.828125,-0.84375 1.828125,-1.546875 0,-0.53125 -0.625,-1.28125 -1.390625,-1.4375 l 0,0.390625 c 0.71875,-0.265625 1.171875,-0.984375 1.171875,-1.40625 0,-0.546875 -0.8125,-1.15625 -1.59375,-1.15625 -0.765625,0 -1.5625,0.5625 -1.5625,1.125 0,0.234375 0.359375,0.5625 0.5625,0.5625 0.21875,0 0.546875,-0.34375 0.546875,-0.546875 0,-0.203125 -0.328125,-0.546875 -0.171875,-0.53125 0,0 0.34375,-0.015625 0.609375,-0.015625 0.3125,0 0.5625,-0.046875 0.5625,0.5625 0,0.296875 -0.046875,0.484375 -0.234375,0.703125 -0.21875,0.25 -0.28125,0.203125 -0.625,0.234375 -0.171875,0.015625 -0.1875,0.015625 -0.21875,0.015625 -0.015625,0 -0.265625,0.203125 -0.265625,0.28125 0,0.109375 0.25,0.296875 0.375,0.296875 z m 0,0"
             style="stroke:none"
             inkscape:connector-curvature="0" />
        </g>
      </g>
    </g>
    <path
       transform="matrix(1.1010153,0,0,1.1010153,-11.797511,-211.15289)"
       d="m 195,304.86218 c 0,4.14214 -3.35786,7.5 -7.5,7.5 -4.14214,0 -7.5,-3.35786 -7.5,-7.5 0,-4.14213 3.35786,-7.5 7.5,-7.5 4.14214,0 7.5,3.35787 7.5,7.5 z"
       sodipodi:ry="7.5"
       sodipodi:rx="7.5"
       sodipodi:cy="304.86218"
       sodipodi:cx="187.5"
       id="path26486-6"
       style="fill:#000000;fill-opacity:1;fill-rule:nonzero;stroke:#000000;stroke-width:0.90825266;stroke-miterlimit:4;stroke-opacity:1;stroke-dasharray:none;stroke-dashoffset:0"
       sodipodi:type="arc" />
    <path
       transform="translate(15.357143,-30.357144)"
       d="m 185,132.36218 c 0,2.76143 -2.23858,5 -5,5 -2.76142,0 -5,-2.23857 -5,-5 0,-2.76142 2.23858,-5 5,-5 2.76142,0 5,2.23858 5,5 z"
       sodipodi:ry="5"
       sodipodi:rx="5"
       sodipodi:cy="132.36218"
       sodipodi:cx="180"
       id="path26404-1-4"
       style="fill:#ffffff;fill-opacity:1;fill-rule:nonzero;stroke:#000000;stroke-width:0.60000002;stroke-miterlimit:4;stroke-opacity:1;stroke-dasharray:none;stroke-dashoffset:0"
       sodipodi:type="arc" />
    <g
       ns1:text="$$\\mathrm{Cs}^+$$"
       transform="translate(-376.57143,-4.9999998)"
       id="g26895">
      <g
         id="g26897">
        <g
           style="fill:#000000;fill-opacity:1"
           id="g26899">
          <path
             inkscape:connector-curvature="0"
             style="stroke:none"
             d="m 0.375,-3.5625 c 0,2.0625 1.796875,3.78125 3.65625,3.78125 1.625,0 2.765625,-1.546875 2.765625,-2.703125 0,-0.09375 -0.171875,-0.34375 -0.296875,-0.34375 -0.109375,0 -0.296875,0.234375 -0.296875,0.328125 C 6.125,-1.0625 5.234375,-0.421875 4.140625,-0.421875 3.53125,-0.421875 1.75,-0.59375 1.75,-3.5625 c 0,-2.984375 1.78125,-3.15625 2.390625,-3.15625 1.078125,0 1.796875,0.75 1.984375,2.203125 0.03125,0.140625 0.203125,0.328125 0.34375,0.328125 0.15625,0 0.328125,-0.1875 0.328125,-0.390625 l 0,-2.375 c 0,-0.171875 -0.171875,-0.40625 -0.28125,-0.40625 -0.03125,0 -0.203125,0.046875 -0.28125,0.171875 l -0.40625,0.59375 C 5.609375,-6.8125 4.984375,-7.359375 4.03125,-7.359375 c -1.875,0 -3.65625,1.75 -3.65625,3.796875 z m 0,0"
             transform="translate(586.41,110.99)"
             id="path26901" />
          <path
             inkscape:connector-curvature="0"
             style="stroke:none"
             d="m 2.078125,-1.9375 c 0.21875,0.046875 0.859375,0.046875 0.859375,0.765625 0,0.5 -0.171875,0.734375 -0.953125,0.734375 -0.84375,0 -1.03125,-0.40625 -1.21875,-1.25 -0.03125,-0.125 -0.203125,-0.34375 -0.3125,-0.34375 -0.125,0 -0.296875,0.25 -0.296875,0.421875 l 0,1.3125 c 0,0.171875 0.171875,0.40625 0.28125,0.40625 0.046875,0 0.1875,-0.0625 0.375,-0.25 0.015625,-0.015625 0.015625,-0.03125 0.078125,-0.09375 0.3125,0.28125 0.890625,0.34375 1.09375,0.34375 1.140625,0 1.78125,-0.828125 1.78125,-1.546875 0,-0.53125 -0.359375,-0.9375 -0.46875,-1.0625 -0.34375,-0.328125 -0.84375,-0.453125 -1.265625,-0.53125 -0.5625,-0.109375 -1.046875,-0.0625 -1.046875,-0.640625 0,-0.359375 0.078125,-0.609375 0.9375,-0.609375 1.09375,0 0.96875,0.75 0.984375,1.046875 0.015625,0.09375 0.28125,0.25 0.296875,0.25 0.140625,0 0.3125,-0.203125 0.3125,-0.390625 l 0,-1.015625 c 0,-0.171875 -0.171875,-0.40625 -0.28125,-0.40625 C 3.1875,-4.796875 3.03125,-4.75 2.90625,-4.625 2.875,-4.578125 2.765625,-4.5 2.84375,-4.5625 2.609375,-4.75 2.078125,-4.796875 1.921875,-4.796875 c -1.21875,0 -1.765625,0.84375 -1.765625,1.390625 0,0.359375 0.203125,0.75 0.46875,0.96875 0.328125,0.25 0.734375,0.359375 1.453125,0.5 z m 0,0"
             transform="translate(593.60528,110.99)"
             id="path26903" />
        </g>
        <g
           style="fill:#000000;fill-opacity:1"
           id="g26905">
          <path
             inkscape:connector-curvature="0"
             style="stroke:none"
             d="m 3.21875,-1.578125 2.140625,0 c 0.09375,0 0.453125,-0.1875 0.453125,-0.359375 0,-0.171875 -0.359375,-0.375 -0.453125,-0.375 l -1.9375,0 0,-1.9375 c 0,-0.09375 -0.203125,-0.453125 -0.359375,-0.453125 -0.171875,0 -0.375,0.359375 -0.375,0.453125 l 0,1.9375 -1.9375,0 c -0.09375,0 -0.453125,0.203125 -0.453125,0.375 0,0.171875 0.34375,0.359375 0.453125,0.359375 l 1.9375,0 0,1.953125 c 0,0.078125 0.203125,0.453125 0.359375,0.453125 0.171875,0 0.375,-0.359375 0.375,-0.453125 l 0,-1.953125 z m 0,0"
             transform="translate(597.53,106.65)"
             id="path26907" />
        </g>
      </g>
    </g>
    <g
       id="g27053"
       transform="translate(-376.84946,20.070083)"
       ns1:text="$$\\mathrm{Cl}^-$$">
      <g
         id="g27055">
        <g
           id="g27057"
           style="fill:#000000;fill-opacity:1">
          <path
             id="path27059"
             transform="translate(586.93,110.99)"
             d="m 0.375,-3.5625 c 0,2.0625 1.796875,3.78125 3.65625,3.78125 1.625,0 2.765625,-1.546875 2.765625,-2.703125 0,-0.09375 -0.171875,-0.34375 -0.296875,-0.34375 -0.109375,0 -0.296875,0.234375 -0.296875,0.328125 C 6.125,-1.0625 5.234375,-0.421875 4.140625,-0.421875 3.53125,-0.421875 1.75,-0.59375 1.75,-3.5625 c 0,-2.984375 1.78125,-3.15625 2.390625,-3.15625 1.078125,0 1.796875,0.75 1.984375,2.203125 0.03125,0.140625 0.203125,0.328125 0.34375,0.328125 0.15625,0 0.328125,-0.1875 0.328125,-0.390625 l 0,-2.375 c 0,-0.171875 -0.171875,-0.40625 -0.28125,-0.40625 -0.03125,0 -0.203125,0.046875 -0.28125,0.171875 l -0.40625,0.59375 C 5.609375,-6.8125 4.984375,-7.359375 4.03125,-7.359375 c -1.875,0 -3.65625,1.75 -3.65625,3.796875 z m 0,0"
             style="stroke:none"
             inkscape:connector-curvature="0" />
          <path
             id="path27061"
             transform="translate(594.12528,110.99)"
             d="m 1.765625,-7.25 -1.609375,0.125 0,0.625 c 0.875,0 0.765625,-0.09375 0.765625,0.40625 l 0,5.171875 c 0,0.453125 0.078125,0.28125 -0.765625,0.28125 l 0,0.65625 c 0.5,-0.03125 1.03125,-0.046875 1.28125,-0.046875 0.25,0 0.734375,0.015625 1.28125,0.046875 l 0,-0.65625 c -0.84375,0 -0.78125,0.171875 -0.78125,-0.28125 l 0,-6.34375 z m 0,0"
             style="stroke:none"
             inkscape:connector-curvature="0" />
        </g>
        <g
           id="g27063"
           style="fill:#000000;fill-opacity:1">
          <path
             id="path27065"
             transform="translate(596.89,106.53)"
             d="m 5.1875,-1.578125 c 0.109375,0 0.46875,-0.15625 0.46875,-0.328125 C 5.65625,-2.078125 5.296875,-2.25 5.1875,-2.25 l -4.15625,0 c -0.109375,0 -0.484375,0.171875 -0.484375,0.34375 0,0.171875 0.359375,0.328125 0.484375,0.328125 z m 0,0"
             style="stroke:none"
             inkscape:connector-curvature="0" />
        </g>
      </g>
    </g>
  </g>
</svg>
