<?xml version="1.0" encoding="UTF-8" standalone="no"?>
<!-- Created with Inkscape (http://www.inkscape.org/) -->

<svg
   xmlns:ns1="http://wanglongqi.github.io/WriteTeX"
   xmlns:dc="http://purl.org/dc/elements/1.1/"
   xmlns:cc="http://creativecommons.org/ns#"
   xmlns:rdf="http://www.w3.org/1999/02/22-rdf-syntax-ns#"
   xmlns:svg="http://www.w3.org/2000/svg"
   xmlns="http://www.w3.org/2000/svg"
   xmlns:sodipodi="http://sodipodi.sourceforge.net/DTD/sodipodi-0.dtd"
   xmlns:inkscape="http://www.inkscape.org/namespaces/inkscape"
   width="141.64511"
   height="136.82437"
   id="svg4044"
   version="1.1"
   inkscape:version="0.48.5 r10040"
   sodipodi:docname="New document 9">
  <sodipodi:namedview
     id="base"
     pagecolor="#ffffff"
     bordercolor="#666666"
     borderopacity="1.0"
     inkscape:pageopacity="0.0"
     inkscape:pageshadow="2"
     inkscape:zoom="2.8"
     inkscape:cx="78.446327"
     inkscape:cy="86.073472"
     inkscape:document-units="px"
     inkscape:current-layer="layer1"
     showgrid="true"
     inkscape:window-width="759"
     inkscape:window-height="803"
     inkscape:window-x="769"
     inkscape:window-y="-8"
     inkscape:window-maximized="1"
     fit-margin-top="0"
     fit-margin-left="0"
     fit-margin-right="0"
     fit-margin-bottom="0">
    <inkscape:grid
       type="xygrid"
       id="grid4052"
       empspacing="5"
       visible="true"
       enabled="true"
       snapvisiblegridlinesonly="true"
       originx="-309.5px"
       originy="-449.5px" />
  </sodipodi:namedview>
  <defs
     id="defs4046">
    <marker
       inkscape:stockid="Arrow2Mend"
       orient="auto"
       refY="0"
       refX="0"
       id="Arrow2Mend"
       style="overflow:visible">
      <path
         id="path4595"
         style="fill-rule:evenodd;stroke-width:0.625;stroke-linejoin:round"
         d="M 8.7185878,4.0337352 -2.2072895,0.01601326 8.7185884,-4.0017078 c -1.7454984,2.3720609 -1.7354408,5.6174519 -6e-7,8.035443 z"
         transform="scale(-0.6,-0.6)"
         inkscape:connector-curvature="0" />
    </marker>
    <marker
       inkscape:stockid="Arrow2Mend"
       orient="auto"
       refY="0"
       refX="0"
       id="Arrow2Mend-3"
       style="overflow:visible">
      <path
         inkscape:connector-curvature="0"
         id="path4595-8"
         style="fill-rule:evenodd;stroke-width:0.625;stroke-linejoin:round"
         d="M 8.7185878,4.0337352 -2.2072895,0.01601326 8.7185884,-4.0017078 c -1.7454984,2.3720609 -1.7354408,5.6174519 -6e-7,8.035443 z"
         transform="scale(-0.6,-0.6)" />
    </marker>
  </defs>
  <metadata
     id="metadata4049">
    <rdf:RDF>
      <cc:Work
         rdf:about="">
        <dc:format>image/svg+xml</dc:format>
        <dc:type
           rdf:resource="http://purl.org/dc/dcmitype/StillImage" />
        <dc:title></dc:title>
      </cc:Work>
    </rdf:RDF>
  </metadata>
  <g
     inkscape:label="Layer 1"
     inkscape:groupmode="layer"
     id="layer1"
     transform="translate(-309.5,-466.03781)">
    <path
       style="fill:none;stroke:#000000;stroke-width:1px;stroke-linecap:butt;stroke-linejoin:miter;stroke-opacity:1;marker-end:url(#Arrow2Mend)"
       d="m 380,547.36218 0,-80"
       id="path4054"
       inkscape:connector-curvature="0" />
    <path
       style="fill:none;stroke:#000000;stroke-width:1px;stroke-linecap:butt;stroke-linejoin:miter;stroke-opacity:1;marker-end:url(#Arrow2Mend)"
       d="m 380,602.36218 0,-55"
       id="path5008"
       inkscape:connector-curvature="0" />
    <path
       style="fill:none;stroke:#000000;stroke-width:1px;stroke-linecap:butt;stroke-linejoin:miter;stroke-opacity:1;marker-end:url(#Arrow2Mend)"
       d="m 310,507.36218 70,40"
       id="path5192"
       inkscape:connector-curvature="0" />
    <path
       style="fill:none;stroke:#000000;stroke-width:1px;stroke-linecap:butt;stroke-linejoin:miter;stroke-opacity:1;marker-end:url(#Arrow2Mend)"
       d="m 310,507.36218 70,-40"
       id="path5376"
       inkscape:connector-curvature="0" />
    <path
       style="fill:none;stroke:#000000;stroke-width:1;stroke-linecap:butt;stroke-linejoin:miter;stroke-miterlimit:4;stroke-opacity:1;stroke-dasharray:3, 3;stroke-dashoffset:0"
       d="m 310,562.36218 70,40"
       id="path5744"
       inkscape:connector-curvature="0"
       sodipodi:nodetypes="cc" />
    <g
       ns1:text="$$\\bar{S}_o$$"
       transform="translate(-238.5475,413.35093)"
       id="g5760">
      <g
         id="surface1">
        <g
           style="fill:#000000;fill-opacity:1"
           id="g5763">
          <path
             inkscape:connector-curvature="0"
             style="stroke:none"
             d="m 4.453125,-5.734375 0,-0.46875 -3.9375,0 0,0.625 3.9375,0 z m 0,0"
             transform="translate(591.69,108.47)"
             id="path5765" />
        </g>
        <g
           style="fill:#000000;fill-opacity:1"
           id="g5767">
          <path
             inkscape:connector-curvature="0"
             style="stroke:none"
             d="m 6.59375,-7.09375 c 0,-0.03125 -0.1875,-0.265625 -0.28125,-0.265625 -0.046875,0 -0.1875,0.0625 -0.296875,0.203125 L 5.6875,-6.765625 C 5.515625,-7.0625 4.890625,-7.359375 4.234375,-7.359375 c -1.265625,0 -2.640625,1.3125 -2.640625,2.53125 0,0.796875 0.703125,1.421875 1.21875,1.5625 l 1.0625,0.28125 c 0.375,0.09375 0.734375,0.078125 0.734375,0.90625 0,0.890625 -0.625,1.65625 -1.609375,1.65625 -0.640625,0 -1.578125,-0.046875 -1.578125,-1.28125 C 1.421875,-1.9375 1.46875,-2.1875 1.484375,-2.25 1.5,-2.28125 1.5,-2.296875 1.5,-2.3125 c 0,-0.09375 -0.234375,-0.28125 -0.28125,-0.28125 -0.046875,0 -0.203125,0.0625 -0.234375,0.09375 -0.03125,0.03125 -0.640625,2.4375 -0.640625,2.453125 0,0.0625 0.21875,0.265625 0.28125,0.265625 0.046875,0 0.1875,-0.0625 0.296875,-0.203125 L 1.28125,-0.390625 C 1.59375,0.03125 2.40625,0.21875 2.984375,0.21875 4.34375,0.21875 5.6875,-1.265625 5.6875,-2.5 c 0,-0.6875 -0.390625,-1.15625 -0.546875,-1.28125 -0.21875,-0.234375 -0.5,-0.328125 -1.375,-0.5625 C 3.53125,-4.390625 3.1875,-4.5 3.09375,-4.515625 2.828125,-4.609375 2.65625,-4.71875 2.65625,-5.25 c 0,-0.8125 0.625,-1.5 1.578125,-1.5 0.8125,0 1.25,0.265625 1.25,1.390625 0,0.3125 -0.046875,0.5 -0.046875,0.546875 0,0.015625 0.1875,0.265625 0.296875,0.265625 0.109375,0 0.28125,-0.1875 0.328125,-0.359375 z m 0,0"
             transform="translate(590.01,110.99)"
             id="path5769" />
        </g>
        <g
           style="fill:#000000;fill-opacity:1"
           id="g5771">
          <path
             inkscape:connector-curvature="0"
             style="stroke:none"
             d="m 3.890625,-2.046875 c 0,-0.78125 -0.765625,-1.421875 -1.453125,-1.421875 -1.03125,0 -2.203125,1.171875 -2.203125,2.125 0,0.703125 0.703125,1.40625 1.46875,1.40625 1,0 2.1875,-1.109375 2.1875,-2.109375 z m -2.1875,1.53125 c -0.34375,0 -0.5,-0.03125 -0.5,-0.578125 0,-0.28125 0.078125,-0.828125 0.34375,-1.234375 C 1.84375,-2.75 2.125,-2.875 2.4375,-2.875 c 0.375,0 0.5,0.0625 0.5,0.578125 0,0.171875 -0.03125,0.71875 -0.34375,1.203125 -0.265625,0.421875 -0.53125,0.578125 -0.890625,0.578125 z m 0,0"
             transform="translate(596.11,112.48)"
             id="path5773" />
        </g>
      </g>
    </g>
    <g
       id="g5856"
       transform="translate(-197.42438,391.15343)"
       ns1:text="$$\\bar{S} - \\bar{S}_o$$">
      <g
         id="g5858">
        <g
           id="g5860"
           style="fill:#000000;fill-opacity:1">
          <path
             id="path5862"
             transform="translate(582.26,108.47)"
             d="m 4.453125,-5.734375 0,-0.46875 -3.9375,0 0,0.625 3.9375,0 z m 0,0"
             style="stroke:none"
             inkscape:connector-curvature="0" />
        </g>
        <g
           id="g5864"
           style="fill:#000000;fill-opacity:1">
          <path
             id="path5866"
             transform="translate(580.58,110.99)"
             d="m 6.59375,-7.09375 c 0,-0.03125 -0.1875,-0.265625 -0.28125,-0.265625 -0.046875,0 -0.1875,0.0625 -0.296875,0.203125 L 5.6875,-6.765625 C 5.515625,-7.0625 4.890625,-7.359375 4.234375,-7.359375 c -1.265625,0 -2.640625,1.3125 -2.640625,2.53125 0,0.796875 0.703125,1.421875 1.21875,1.5625 l 1.0625,0.28125 c 0.375,0.09375 0.734375,0.078125 0.734375,0.90625 0,0.890625 -0.625,1.65625 -1.609375,1.65625 -0.640625,0 -1.578125,-0.046875 -1.578125,-1.28125 C 1.421875,-1.9375 1.46875,-2.1875 1.484375,-2.25 1.5,-2.28125 1.5,-2.296875 1.5,-2.3125 c 0,-0.09375 -0.234375,-0.28125 -0.28125,-0.28125 -0.046875,0 -0.203125,0.0625 -0.234375,0.09375 -0.03125,0.03125 -0.640625,2.4375 -0.640625,2.453125 0,0.0625 0.21875,0.265625 0.28125,0.265625 0.046875,0 0.1875,-0.0625 0.296875,-0.203125 L 1.28125,-0.390625 C 1.59375,0.03125 2.40625,0.21875 2.984375,0.21875 4.34375,0.21875 5.6875,-1.265625 5.6875,-2.5 c 0,-0.6875 -0.390625,-1.15625 -0.546875,-1.28125 -0.21875,-0.234375 -0.5,-0.328125 -1.375,-0.5625 C 3.53125,-4.390625 3.1875,-4.5 3.09375,-4.515625 2.828125,-4.609375 2.65625,-4.71875 2.65625,-5.25 c 0,-0.8125 0.625,-1.5 1.578125,-1.5 0.8125,0 1.25,0.265625 1.25,1.390625 0,0.3125 -0.046875,0.5 -0.046875,0.546875 0,0.015625 0.1875,0.265625 0.296875,0.265625 0.109375,0 0.28125,-0.1875 0.328125,-0.359375 z m 0,0"
             style="stroke:none"
             inkscape:connector-curvature="0" />
        </g>
        <g
           id="g5868"
           style="fill:#000000;fill-opacity:1">
          <path
             id="path5870"
             transform="translate(589.47,110.99)"
             d="m 6.5625,-2.296875 c 0.171875,0 0.5625,-0.125 0.5625,-0.328125 0,-0.203125 -0.390625,-0.328125 -0.5625,-0.328125 l -5.390625,0 C 1,-2.953125 0.625,-2.828125 0.625,-2.625 c 0,0.203125 0.375,0.328125 0.546875,0.328125 z m 0,0"
             style="stroke:none"
             inkscape:connector-curvature="0" />
        </g>
        <g
           id="g5872"
           style="fill:#000000;fill-opacity:1">
          <path
             id="path5874"
             transform="translate(601.12,108.47)"
             d="m 4.453125,-5.734375 0,-0.46875 -3.9375,0 0,0.625 3.9375,0 z m 0,0"
             style="stroke:none"
             inkscape:connector-curvature="0" />
        </g>
        <g
           id="g5876"
           style="fill:#000000;fill-opacity:1">
          <path
             id="path5878"
             transform="translate(599.44,110.99)"
             d="m 6.59375,-7.09375 c 0,-0.03125 -0.1875,-0.265625 -0.28125,-0.265625 -0.046875,0 -0.1875,0.0625 -0.296875,0.203125 L 5.6875,-6.765625 C 5.515625,-7.0625 4.890625,-7.359375 4.234375,-7.359375 c -1.265625,0 -2.640625,1.3125 -2.640625,2.53125 0,0.796875 0.703125,1.421875 1.21875,1.5625 l 1.0625,0.28125 c 0.375,0.09375 0.734375,0.078125 0.734375,0.90625 0,0.890625 -0.625,1.65625 -1.609375,1.65625 -0.640625,0 -1.578125,-0.046875 -1.578125,-1.28125 C 1.421875,-1.9375 1.46875,-2.1875 1.484375,-2.25 1.5,-2.28125 1.5,-2.296875 1.5,-2.3125 c 0,-0.09375 -0.234375,-0.28125 -0.28125,-0.28125 -0.046875,0 -0.203125,0.0625 -0.234375,0.09375 -0.03125,0.03125 -0.640625,2.4375 -0.640625,2.453125 0,0.0625 0.21875,0.265625 0.28125,0.265625 0.046875,0 0.1875,-0.0625 0.296875,-0.203125 L 1.28125,-0.390625 C 1.59375,0.03125 2.40625,0.21875 2.984375,0.21875 4.34375,0.21875 5.6875,-1.265625 5.6875,-2.5 c 0,-0.6875 -0.390625,-1.15625 -0.546875,-1.28125 -0.21875,-0.234375 -0.5,-0.328125 -1.375,-0.5625 C 3.53125,-4.390625 3.1875,-4.5 3.09375,-4.515625 2.828125,-4.609375 2.65625,-4.71875 2.65625,-5.25 c 0,-0.8125 0.625,-1.5 1.578125,-1.5 0.8125,0 1.25,0.265625 1.25,1.390625 0,0.3125 -0.046875,0.5 -0.046875,0.546875 0,0.015625 0.1875,0.265625 0.296875,0.265625 0.109375,0 0.28125,-0.1875 0.328125,-0.359375 z m 0,0"
             style="stroke:none"
             inkscape:connector-curvature="0" />
        </g>
        <g
           id="g5880"
           style="fill:#000000;fill-opacity:1">
          <path
             id="path5882"
             transform="translate(605.54,112.48)"
             d="m 3.890625,-2.046875 c 0,-0.78125 -0.765625,-1.421875 -1.453125,-1.421875 -1.03125,0 -2.203125,1.171875 -2.203125,2.125 0,0.703125 0.703125,1.40625 1.46875,1.40625 1,0 2.1875,-1.109375 2.1875,-2.109375 z m -2.1875,1.53125 c -0.34375,0 -0.5,-0.03125 -0.5,-0.578125 0,-0.28125 0.078125,-0.828125 0.34375,-1.234375 C 1.84375,-2.75 2.125,-2.875 2.4375,-2.875 c 0.375,0 0.5,0.0625 0.5,0.578125 0,0.171875 -0.03125,0.71875 -0.34375,1.203125 -0.265625,0.421875 -0.53125,0.578125 -0.890625,0.578125 z m 0,0"
             style="stroke:none"
             inkscape:connector-curvature="0" />
        </g>
      </g>
    </g>
    <g
       ns1:text="$$\\bar{S}$$"
       transform="translate(-186.16437,413.12218)"
       id="g6011">
      <g
         id="g6013">
        <g
           style="fill:#000000;fill-opacity:1"
           id="g6015">
          <path
             inkscape:connector-curvature="0"
             style="stroke:none"
             d="m 4.453125,-5.734375 0,-0.46875 -3.9375,0 0,0.625 3.9375,0 z m 0,0"
             transform="translate(593.62,108.47)"
             id="path6017" />
        </g>
        <g
           style="fill:#000000;fill-opacity:1"
           id="g6019">
          <path
             inkscape:connector-curvature="0"
             style="stroke:none"
             d="m 6.59375,-7.09375 c 0,-0.03125 -0.1875,-0.265625 -0.28125,-0.265625 -0.046875,0 -0.1875,0.0625 -0.296875,0.203125 L 5.6875,-6.765625 C 5.515625,-7.0625 4.890625,-7.359375 4.234375,-7.359375 c -1.265625,0 -2.640625,1.3125 -2.640625,2.53125 0,0.796875 0.703125,1.421875 1.21875,1.5625 l 1.0625,0.28125 c 0.375,0.09375 0.734375,0.078125 0.734375,0.90625 0,0.890625 -0.625,1.65625 -1.609375,1.65625 -0.640625,0 -1.578125,-0.046875 -1.578125,-1.28125 C 1.421875,-1.9375 1.46875,-2.1875 1.484375,-2.25 1.5,-2.28125 1.5,-2.296875 1.5,-2.3125 c 0,-0.09375 -0.234375,-0.28125 -0.28125,-0.28125 -0.046875,0 -0.203125,0.0625 -0.234375,0.09375 -0.03125,0.03125 -0.640625,2.4375 -0.640625,2.453125 0,0.0625 0.21875,0.265625 0.28125,0.265625 0.046875,0 0.1875,-0.0625 0.296875,-0.203125 L 1.28125,-0.390625 C 1.59375,0.03125 2.40625,0.21875 2.984375,0.21875 4.34375,0.21875 5.6875,-1.265625 5.6875,-2.5 c 0,-0.6875 -0.390625,-1.15625 -0.546875,-1.28125 -0.21875,-0.234375 -0.5,-0.328125 -1.375,-0.5625 C 3.53125,-4.390625 3.1875,-4.5 3.09375,-4.515625 2.828125,-4.609375 2.65625,-4.71875 2.65625,-5.25 c 0,-0.8125 0.625,-1.5 1.578125,-1.5 0.8125,0 1.25,0.265625 1.25,1.390625 0,0.3125 -0.046875,0.5 -0.046875,0.546875 0,0.015625 0.1875,0.265625 0.296875,0.265625 0.109375,0 0.28125,-0.1875 0.328125,-0.359375 z m 0,0"
             transform="translate(591.93,110.99)"
             id="path6021" />
        </g>
      </g>
    </g>
    <g
       id="g6138"
       transform="translate(-208.21125,466.76281)"
       ns1:text="$$\\bar{a}$$">
      <g
         id="g6140">
        <g
           id="g6142"
           style="fill:#000000;fill-opacity:1">
          <path
             id="path6144"
             transform="translate(592.78,110.99)"
             d="m 4.453125,-5.734375 0,-0.46875 -3.9375,0 0,0.625 3.9375,0 z m 0,0"
             style="stroke:none"
             inkscape:connector-curvature="0" />
        </g>
        <g
           id="g6146"
           style="fill:#000000;fill-opacity:1">
          <path
             id="path6148"
             transform="translate(592.64,110.99)"
             d="m 3.890625,-3.921875 c -0.1875,-0.375 -0.640625,-0.8125 -1.09375,-0.8125 -1.15625,0 -2.578125,1.640625 -2.578125,3.09375 0,0.9375 0.734375,1.75 1.5,1.75 0.203125,0 0.828125,-0.09375 1.1875,-0.53125 0.015625,0.046875 0.546875,0.53125 1.015625,0.53125 0.359375,0 0.703125,-0.28125 0.78125,-0.453125 0.296875,-0.609375 0.4375,-1.21875 0.4375,-1.234375 0,-0.109375 -0.265625,-0.28125 -0.296875,-0.28125 -0.09375,0 -0.28125,0.21875 -0.3125,0.359375 -0.171875,0.640625 -0.171875,1.0625 -0.578125,1.0625 -0.28125,0 -0.140625,-0.09375 -0.140625,-0.296875 0,-0.21875 0.03125,-0.296875 0.140625,-0.734375 0.109375,-0.421875 0.125,-0.515625 0.21875,-0.890625 l 0.359375,-1.40625 c 0.0625,-0.265625 0.0625,-0.296875 0.0625,-0.328125 0,-0.171875 -0.28125,-0.4375 -0.453125,-0.4375 -0.25,0 -0.578125,0.390625 -0.609375,0.609375 z m -1,2.578125 c -0.046875,0.171875 0,0.078125 -0.15625,0.25 C 2.296875,-0.546875 2.03125,-0.4375 1.75,-0.4375 c -0.5,0 -0.46875,-0.375 -0.46875,-0.765625 0,-0.5 0.265625,-1.625 0.5,-2.078125 0.296875,-0.59375 0.625,-0.90625 1.03125,-0.90625 0.640625,0 0.609375,0.65625 0.609375,0.71875 0,0.0625 -0.015625,0.125 -0.03125,0.171875 z m 0,0"
             style="stroke:none"
             inkscape:connector-curvature="0" />
        </g>
      </g>
    </g>
    <path
       style="fill:none;stroke:#000000;stroke-width:1px;stroke-linecap:butt;stroke-linejoin:miter;stroke-opacity:1;marker-end:url(#Arrow2Mend)"
       d="m 380,547.36218 70,-40"
       id="path5376-7"
       inkscape:connector-curvature="0" />
  </g>
</svg>
