<?xml version="1.0" encoding="UTF-8" standalone="no"?>
<!-- Created with Inkscape (http://www.inkscape.org/) -->

<svg
   xmlns:ns1="http://wanglongqi.github.io/WriteTeX"
   xmlns:dc="http://purl.org/dc/elements/1.1/"
   xmlns:cc="http://creativecommons.org/ns#"
   xmlns:rdf="http://www.w3.org/1999/02/22-rdf-syntax-ns#"
   xmlns:svg="http://www.w3.org/2000/svg"
   xmlns="http://www.w3.org/2000/svg"
   xmlns:sodipodi="http://sodipodi.sourceforge.net/DTD/sodipodi-0.dtd"
   xmlns:inkscape="http://www.inkscape.org/namespaces/inkscape"
   width="153.43758"
   height="90.242653"
   id="svg9247"
   version="1.1"
   inkscape:version="0.48.5 r10040"
   sodipodi:docname="New document 40">
  <sodipodi:namedview
     id="base"
     pagecolor="#ffffff"
     bordercolor="#666666"
     borderopacity="1.0"
     inkscape:pageopacity="0.0"
     inkscape:pageshadow="2"
     inkscape:zoom="2.8"
     inkscape:cx="67.490408"
     inkscape:cy="46.721947"
     inkscape:document-units="px"
     inkscape:current-layer="layer1"
     showgrid="true"
     inkscape:snap-global="false"
     inkscape:window-width="759"
     inkscape:window-height="803"
     inkscape:window-x="769"
     inkscape:window-y="-8"
     inkscape:window-maximized="1"
     fit-margin-top="0"
     fit-margin-left="0"
     fit-margin-right="0"
     fit-margin-bottom="0">
    <inkscape:grid
       id="grid9255"
       type="xygrid"
       empspacing="5"
       visible="true"
       enabled="true"
       snapvisiblegridlinesonly="true"
       originx="-362.76643px"
       originy="-681.83087px" />
  </sodipodi:namedview>
  <defs
     id="defs9249">
    <marker
       style="overflow:visible"
       id="Arrow2Mend"
       refX="0"
       refY="0"
       orient="auto"
       inkscape:stockid="Arrow2Mend">
      <path
         transform="scale(-0.6,-0.6)"
         d="M 8.7185878,4.0337352 -2.2072895,0.01601326 8.7185884,-4.0017078 c -1.7454984,2.3720609 -1.7354408,5.6174519 -6e-7,8.035443 z"
         style="fill-rule:evenodd;stroke-width:0.625;stroke-linejoin:round"
         id="path4595"
         inkscape:connector-curvature="0" />
    </marker>
  </defs>
  <metadata
     id="metadata9252">
    <rdf:RDF>
      <cc:Work
         rdf:about="">
        <dc:format>image/svg+xml</dc:format>
        <dc:type
           rdf:resource="http://purl.org/dc/dcmitype/StillImage" />
        <dc:title></dc:title>
      </cc:Work>
    </rdf:RDF>
  </metadata>
  <g
     id="layer1"
     inkscape:groupmode="layer"
     inkscape:label="Layer 1"
     transform="translate(-362.76643,-280.28866)">
    <path
       inkscape:connector-curvature="0"
       id="path9257"
       d="m 420,357.36218 0,-65"
       style="fill:none;stroke:#000000;stroke-width:1px;stroke-linecap:butt;stroke-linejoin:miter;stroke-opacity:1;marker-end:url(#Arrow2Mend)" />
    <path
       inkscape:connector-curvature="0"
       id="path9259"
       d="m 420,357.36218 40,-65"
       style="fill:none;stroke:#000000;stroke-width:1px;stroke-linecap:butt;stroke-linejoin:miter;stroke-opacity:1;marker-end:url(#Arrow2Mend)" />
    <path
       sodipodi:nodetypes="cc"
       inkscape:connector-curvature="0"
       id="path9261"
       d="m 420,357.36218 85,-30"
       style="fill:none;stroke:#000000;stroke-width:1px;stroke-linecap:butt;stroke-linejoin:miter;stroke-opacity:1;marker-end:url(#Arrow2Mend)" />
    <path
       inkscape:connector-curvature="0"
       id="path9263"
       d="m 420,357.36218 -45,-65"
       style="fill:none;stroke:#000000;stroke-width:1px;stroke-linecap:butt;stroke-linejoin:miter;stroke-opacity:1;marker-end:url(#Arrow2Mend)" />
    <path
       sodipodi:nodetypes="cc"
       inkscape:connector-curvature="0"
       id="path9265"
       d="m 420,357.36218 45,0"
       style="fill:none;stroke:#000000;stroke-width:1px;stroke-linecap:butt;stroke-linejoin:miter;stroke-opacity:1;marker-end:url(#Arrow2Mend)" />
    <path
       d="m 425,357.36218 c 0,2.76143 -2.23858,5 -5,5 -2.76142,0 -5,-2.23857 -5,-5 0,-2.76142 2.23858,-5 5,-5 2.76142,0 5,2.23858 5,5 z"
       sodipodi:ry="5"
       sodipodi:rx="5"
       sodipodi:cy="357.36218"
       sodipodi:cx="420"
       id="path9961"
       style="fill:#ffffff;fill-opacity:1;fill-rule:nonzero;stroke:#000000;stroke-width:0.625;stroke-miterlimit:4;stroke-opacity:1;stroke-dasharray:none;stroke-dashoffset:0"
       sodipodi:type="arc" />
    <path
       transform="translate(-2.5,2.4642857)"
       d="m 425,354.86218 c 0,1.38071 -1.11929,2.5 -2.5,2.5 -1.38071,0 -2.5,-1.11929 -2.5,-2.5 0,-1.38071 1.11929,-2.5 2.5,-2.5 1.38071,0 2.5,1.11929 2.5,2.5 z"
       sodipodi:ry="2.5"
       sodipodi:rx="2.5"
       sodipodi:cy="354.86218"
       sodipodi:cx="422.5"
       id="path9959"
       style="fill:#000000;fill-opacity:1;fill-rule:nonzero;stroke:#000000;stroke-width:0.625;stroke-miterlimit:4;stroke-opacity:1;stroke-dasharray:none;stroke-dashoffset:0"
       sodipodi:type="arc" />
    <text
       sodipodi:linespacing="125%"
       id="text9963"
       y="370.36725"
       x="416.28809"
       style="font-size:12px;font-style:normal;font-variant:normal;font-weight:normal;font-stretch:normal;text-align:start;line-height:125%;letter-spacing:0px;word-spacing:0px;writing-mode:lr-tb;text-anchor:start;fill:#000000;fill-opacity:1;stroke:none;font-family:Times New Roman;-inkscape-font-specification:'Times New Roman,'"
       xml:space="preserve"><tspan
         y="370.36725"
         x="416.28809"
         id="tspan9965"
         sodipodi:role="line">c</tspan></text>
    <text
       sodipodi:linespacing="125%"
       id="text9967"
       y="367.38013"
       x="457.61511"
       style="font-size:12px;font-style:normal;font-variant:normal;font-weight:normal;font-stretch:normal;text-align:start;line-height:125%;letter-spacing:0px;word-spacing:0px;writing-mode:lr-tb;text-anchor:start;fill:#000000;fill-opacity:1;stroke:none;font-family:Times New Roman;-inkscape-font-specification:'Times New Roman,'"
       xml:space="preserve"><tspan
         y="367.38013"
         x="457.61511"
         id="tspan9969"
         sodipodi:role="line">a</tspan></text>
    <text
       sodipodi:linespacing="125%"
       id="text9971"
       y="293.33643"
       x="409.98206"
       style="font-size:12px;font-style:normal;font-variant:normal;font-weight:normal;font-stretch:normal;text-align:start;line-height:125%;letter-spacing:0px;word-spacing:0px;writing-mode:lr-tb;text-anchor:start;fill:#000000;fill-opacity:1;stroke:none;font-family:Times New Roman;-inkscape-font-specification:'Times New Roman,'"
       xml:space="preserve"><tspan
         y="293.33643"
         x="409.98206"
         id="tspan9973"
         sodipodi:role="line">b</tspan></text>
    <text
       sodipodi:linespacing="125%"
       id="text9975"
       y="288.93939"
       x="451.79074"
       style="font-size:8px;font-style:normal;font-variant:normal;font-weight:normal;font-stretch:normal;text-align:start;line-height:125%;letter-spacing:0px;word-spacing:0px;writing-mode:lr-tb;text-anchor:start;fill:#000000;fill-opacity:1;stroke:none;font-family:Times New Roman;-inkscape-font-specification:'Times New Roman,'"
       xml:space="preserve"><tspan
         y="288.93939"
         x="451.79074"
         id="tspan9977"
         sodipodi:role="line">[110]</tspan></text>
    <text
       sodipodi:linespacing="125%"
       id="text9979"
       y="324.04218"
       x="499.52042"
       style="font-size:8px;font-style:normal;font-variant:normal;font-weight:normal;font-stretch:normal;text-align:start;line-height:125%;letter-spacing:0px;word-spacing:0px;writing-mode:lr-tb;text-anchor:start;fill:#000000;fill-opacity:1;stroke:none;font-family:Times New Roman;-inkscape-font-specification:'Times New Roman,'"
       xml:space="preserve"><tspan
         y="324.04218"
         x="499.52042"
         id="tspan9981"
         sodipodi:role="line">[410]</tspan></text>
    <text
       sodipodi:linespacing="125%"
       id="text9983"
       y="359.90262"
       x="468.20572"
       style="font-size:8px;font-style:normal;font-variant:normal;font-weight:normal;font-stretch:normal;text-align:start;line-height:125%;letter-spacing:0px;word-spacing:0px;writing-mode:lr-tb;text-anchor:start;fill:#000000;fill-opacity:1;stroke:none;font-family:Times New Roman;-inkscape-font-specification:'Times New Roman,'"
       xml:space="preserve"><tspan
         y="359.90262"
         x="468.20572"
         id="tspan9985"
         sodipodi:role="line">[100]</tspan></text>
    <g
       id="g10014"
       transform="matrix(0.74357173,0,0,0.74357173,-72.996345,203.95591)"
       ns1:text="$$\\mathrm{[\\bar{1} 10]}$$">
      <g
         id="surface1">
        <g
           id="g10017"
           style="fill:#000000;fill-opacity:1">
          <path
             id="path10019"
             transform="translate(585.04,110.99)"
             d="m 2.71875,2.328125 0,-0.5625 -0.96875,0 0,-8.84375 0.96875,0 0,-0.734375 L 1,-7.8125 1,2.5 l 1.71875,0 z m 0,0"
             style="stroke:none"
             inkscape:connector-curvature="0" />
        </g>
        <g
           id="g10021"
           style="fill:#000000;fill-opacity:1">
          <path
             id="path10023"
             transform="translate(587.8,108.86)"
             d="m 4.453125,-5.734375 0,-0.46875 -3.9375,0 0,0.625 3.9375,0 z m 0,0"
             style="stroke:none"
             inkscape:connector-curvature="0" />
        </g>
        <g
           id="g10025"
           style="fill:#000000;fill-opacity:1">
          <path
             id="path10027"
             transform="translate(587.8,110.99)"
             d="M 3.09375,-6.546875 C 3.09375,-6.78125 2.9375,-6.96875 2.625,-6.96875 1.953125,-6.28125 1.203125,-6.328125 0.703125,-6.328125 l 0,0.640625 c 0.390625,0 1.09375,-0.046875 1.3125,-0.171875 l 0,4.90625 c 0,0.359375 0.140625,0.3125 -0.75,0.3125 l -0.5,0 0,0.65625 C 1.296875,-0.03125 2.15625,-0.03125 2.5625,-0.03125 c 0.390625,0 1.265625,0 1.78125,0.046875 l 0,-0.65625 -0.484375,0 c -0.90625,0 -0.765625,0.0625 -0.765625,-0.3125 z m 0,0"
             style="stroke:none"
             inkscape:connector-curvature="0" />
          <path
             id="path10029"
             transform="translate(592.7815,110.99)"
             d="M 3.09375,-6.546875 C 3.09375,-6.78125 2.9375,-6.96875 2.625,-6.96875 1.953125,-6.28125 1.203125,-6.328125 0.703125,-6.328125 l 0,0.640625 c 0.390625,0 1.09375,-0.046875 1.3125,-0.171875 l 0,4.90625 c 0,0.359375 0.140625,0.3125 -0.75,0.3125 l -0.5,0 0,0.65625 C 1.296875,-0.03125 2.15625,-0.03125 2.5625,-0.03125 c 0.390625,0 1.265625,0 1.78125,0.046875 l 0,-0.65625 -0.484375,0 c -0.90625,0 -0.765625,0.0625 -0.765625,-0.3125 z m 0,0"
             style="stroke:none"
             inkscape:connector-curvature="0" />
          <path
             id="path10031"
             transform="translate(597.763,110.99)"
             d="M 4.75,-3.34375 C 4.75,-4.140625 4.703125,-4.9375 4.359375,-5.6875 3.890625,-6.640625 2.90625,-6.96875 2.5,-6.96875 c -0.609375,0 -1.515625,0.421875 -1.921875,1.359375 -0.3125,0.6875 -0.375,1.46875 -0.375,2.265625 0,0.734375 0.09375,1.75 0.5,2.5 0.4375,0.8125 1.296875,1.0625 1.78125,1.0625 0.53125,0 1.46875,-0.375 1.90625,-1.3125 C 4.703125,-1.78125 4.75,-2.5625 4.75,-3.34375 z M 2.484375,-0.328125 C 2.09375,-0.328125 1.671875,-0.40625 1.5,-1.359375 1.390625,-1.96875 1.390625,-2.875 1.390625,-3.46875 c 0,-0.640625 0,-1.296875 0.078125,-1.828125 0.1875,-1.1875 0.765625,-1.125 1.015625,-1.125 0.328125,0 0.8125,0.015625 1,1.015625 0.09375,0.546875 0.09375,1.3125 0.09375,1.9375 0,0.75 0,1.421875 -0.109375,2.0625 -0.15625,0.953125 -0.53125,1.078125 -0.984375,1.078125 z m 0,0"
             style="stroke:none"
             inkscape:connector-curvature="0" />
          <path
             id="path10033"
             transform="translate(602.7445,110.99)"
             d="m 1.578125,-7.8125 -1.53125,0 0,0.734375 0.953125,0 0,8.84375 -0.953125,0 0,0.734375 1.703125,0 0,-10.3125 z m 0,0"
             style="stroke:none"
             inkscape:connector-curvature="0" />
        </g>
      </g>
    </g>
  </g>
</svg>
