<?xml version="1.0" encoding="UTF-8" standalone="no"?>
<!-- Created with Inkscape (http://www.inkscape.org/) -->

<svg
   xmlns:ns1="http://wanglongqi.github.io/WriteTeX"
   xmlns:dc="http://purl.org/dc/elements/1.1/"
   xmlns:cc="http://creativecommons.org/ns#"
   xmlns:rdf="http://www.w3.org/1999/02/22-rdf-syntax-ns#"
   xmlns:svg="http://www.w3.org/2000/svg"
   xmlns="http://www.w3.org/2000/svg"
   xmlns:sodipodi="http://sodipodi.sourceforge.net/DTD/sodipodi-0.dtd"
   xmlns:inkscape="http://www.inkscape.org/namespaces/inkscape"
   width="382.73016"
   height="161"
   id="svg14688"
   version="1.1"
   inkscape:version="0.48.5 r10040"
   sodipodi:docname="directvsrec2.svg">
  <sodipodi:namedview
     id="base"
     pagecolor="#ffffff"
     bordercolor="#666666"
     borderopacity="1.0"
     inkscape:pageopacity="0.0"
     inkscape:pageshadow="2"
     inkscape:zoom="1.4"
     inkscape:cx="207.41008"
     inkscape:cy="112.50848"
     inkscape:document-units="px"
     inkscape:current-layer="layer1"
     showgrid="true"
     inkscape:snap-global="false"
     inkscape:window-width="759"
     inkscape:window-height="803"
     inkscape:window-x="769"
     inkscape:window-y="-8"
     inkscape:window-maximized="1"
     fit-margin-top="0"
     fit-margin-left="0"
     fit-margin-right="0"
     fit-margin-bottom="0">
    <inkscape:grid
       type="xygrid"
       id="grid14696"
       empspacing="5"
       visible="true"
       enabled="true"
       snapvisiblegridlinesonly="true"
       originx="-184.48494px"
       originy="-769.5px" />
  </sodipodi:namedview>
  <defs
     id="defs14690">
    <marker
       inkscape:stockid="Arrow2Mstart"
       orient="auto"
       refY="0"
       refX="0"
       id="Arrow2Mstart"
       style="overflow:visible">
      <path
         id="path4592"
         style="fill-rule:evenodd;stroke-width:0.625;stroke-linejoin:round"
         d="M 8.7185878,4.0337352 -2.2072895,0.01601326 8.7185884,-4.0017078 c -1.7454984,2.3720609 -1.7354408,5.6174519 -6e-7,8.035443 z"
         transform="scale(0.6,0.6)"
         inkscape:connector-curvature="0" />
    </marker>
    <marker
       inkscape:stockid="Arrow2Mend"
       orient="auto"
       refY="0"
       refX="0"
       id="Arrow2Mend"
       style="overflow:visible">
      <path
         id="path4595"
         style="fill-rule:evenodd;stroke-width:0.625;stroke-linejoin:round"
         d="M 8.7185878,4.0337352 -2.2072895,0.01601326 8.7185884,-4.0017078 c -1.7454984,2.3720609 -1.7354408,5.6174519 -6e-7,8.035443 z"
         transform="scale(-0.6,-0.6)"
         inkscape:connector-curvature="0" />
    </marker>
    <marker
       inkscape:stockid="Arrow1Mend"
       orient="auto"
       refY="0"
       refX="0"
       id="Arrow1Mend"
       style="overflow:visible">
      <path
         id="path4577"
         d="M 0,0 5,-5 -12.5,0 5,5 0,0 z"
         style="fill-rule:evenodd;stroke:#000000;stroke-width:1pt"
         transform="matrix(-0.4,0,0,-0.4,-4,0)"
         inkscape:connector-curvature="0" />
    </marker>
    <marker
       inkscape:stockid="Arrow2Lend"
       orient="auto"
       refY="0"
       refX="0"
       id="Arrow2Lend"
       style="overflow:visible">
      <path
         id="path4589"
         style="fill-rule:evenodd;stroke-width:0.625;stroke-linejoin:round"
         d="M 8.7185878,4.0337352 -2.2072895,0.01601326 8.7185884,-4.0017078 c -1.7454984,2.3720609 -1.7354408,5.6174519 -6e-7,8.035443 z"
         transform="matrix(-1.1,0,0,-1.1,-1.1,0)"
         inkscape:connector-curvature="0" />
    </marker>
  </defs>
  <metadata
     id="metadata14693">
    <rdf:RDF>
      <cc:Work
         rdf:about="">
        <dc:format>image/svg+xml</dc:format>
        <dc:type
           rdf:resource="http://purl.org/dc/dcmitype/StillImage" />
        <dc:title />
      </cc:Work>
    </rdf:RDF>
  </metadata>
  <g
     inkscape:label="Layer 1"
     inkscape:groupmode="layer"
     id="layer1"
     transform="translate(-184.48494,-121.86218)">
    <path
       style="fill:#008000;stroke:#008000;stroke-width:0.5;stroke-linecap:butt;stroke-linejoin:miter;stroke-miterlimit:4;stroke-opacity:1;stroke-dasharray:none"
       d="m 240,162.36218 90,20"
       id="path14698"
       inkscape:connector-curvature="0" />
    <path
       style="fill:#008000;stroke:#008000;stroke-width:0.5;stroke-linecap:butt;stroke-linejoin:miter;stroke-miterlimit:4;stroke-opacity:1;stroke-dasharray:none"
       d="M 233.18147,190.59441 330,212.36218"
       id="path14698-7"
       inkscape:connector-curvature="0"
       sodipodi:nodetypes="cc" />
    <path
       style="fill:#008000;stroke:#008000;stroke-width:0.5;stroke-linecap:butt;stroke-linejoin:miter;stroke-miterlimit:4;stroke-opacity:1;stroke-dasharray:none"
       d="m 240,222.36218 90,20"
       id="path14698-78"
       inkscape:connector-curvature="0" />
    <path
       style="fill:none;stroke:#000000;stroke-width:1px;stroke-linecap:butt;stroke-linejoin:miter;stroke-opacity:1;marker-start:url(#Arrow2Mstart);marker-end:url(#Arrow2Mend)"
       d="m 250.75761,223.32157 0,-58.48477 27.56128,6.05611"
       id="path14725"
       inkscape:connector-curvature="0"
       sodipodi:nodetypes="ccc" />
    <path
       style="fill:none;stroke:#ff0000;stroke-width:0.5;stroke-linecap:butt;stroke-linejoin:miter;stroke-miterlimit:4;stroke-opacity:1;stroke-dasharray:none"
       d="m 260,147.36218 -50,90"
       id="path15983"
       inkscape:connector-curvature="0" />
    <path
       style="fill:none;stroke:#ff0000;stroke-width:0.5;stroke-linecap:butt;stroke-linejoin:miter;stroke-miterlimit:4;stroke-opacity:1;stroke-dasharray:none"
       d="m 277.22208,147.36218 -50,90"
       id="path15983-3"
       inkscape:connector-curvature="0" />
    <path
       style="fill:none;stroke:#ff0000;stroke-width:0.5;stroke-linecap:butt;stroke-linejoin:miter;stroke-miterlimit:4;stroke-opacity:1;stroke-dasharray:none"
       d="m 293.88832,147.56396 -50,90"
       id="path15983-8"
       inkscape:connector-curvature="0" />
    <path
       style="fill:none;stroke:#000000;stroke-width:0.5;stroke-linecap:butt;stroke-linejoin:miter;stroke-miterlimit:4;stroke-opacity:1;stroke-dasharray:none"
       d="m 250.77037,164.94317 13.3412,5.91298"
       id="path16010"
       inkscape:connector-curvature="0"
       sodipodi:nodetypes="cc" />
    <path
       style="fill:none;stroke:#000000;stroke-width:0.5;stroke-linecap:butt;stroke-linejoin:miter;stroke-miterlimit:4;stroke-opacity:1;stroke-dasharray:none"
       d="m 259.91071,169.23718 -2.14285,4.01786 3.83929,1.78571"
       id="path16012"
       inkscape:connector-curvature="0"
       sodipodi:nodetypes="ccc" />
    <path
       sodipodi:type="arc"
       style="fill:#000000;fill-opacity:1;fill-rule:nonzero;stroke:#000000;stroke-width:0.77777779;stroke-miterlimit:4;stroke-opacity:1;stroke-dasharray:none;stroke-dashoffset:0"
       id="path16014"
       sodipodi:cx="302.5"
       sodipodi:cy="189.86218"
       sodipodi:rx="2.5"
       sodipodi:ry="2.5"
       d="m 305,189.86218 c 0,1.38071 -1.11929,2.5 -2.5,2.5 -1.38071,0 -2.5,-1.11929 -2.5,-2.5 0,-1.38071 1.11929,-2.5 2.5,-2.5 1.38071,0 2.5,1.11929 2.5,2.5 z"
       transform="matrix(0.64285714,0,0,0.64285714,86.385243,49.369878)" />
    <path
       sodipodi:type="arc"
       style="fill:#000000;fill-opacity:1;fill-rule:nonzero;stroke:#000000;stroke-width:0.77777779;stroke-miterlimit:4;stroke-opacity:1;stroke-dasharray:none;stroke-dashoffset:0"
       id="path16014-0"
       sodipodi:cx="302.5"
       sodipodi:cy="189.86218"
       sodipodi:rx="2.5"
       sodipodi:ry="2.5"
       d="m 305,189.86218 c 0,1.38071 -1.11929,2.5 -2.5,2.5 -1.38071,0 -2.5,-1.11929 -2.5,-2.5 0,-1.38071 1.11929,-2.5 2.5,-2.5 1.38071,0 2.5,1.11929 2.5,2.5 z"
       transform="matrix(0.64285714,0,0,0.64285714,85.342714,109.06659)" />
    <path
       sodipodi:type="arc"
       style="fill:#000000;fill-opacity:1;fill-rule:nonzero;stroke:#000000;stroke-width:0.77777779;stroke-miterlimit:4;stroke-opacity:1;stroke-dasharray:none;stroke-dashoffset:0"
       id="path16014-7"
       sodipodi:cx="302.5"
       sodipodi:cy="189.86218"
       sodipodi:rx="2.5"
       sodipodi:ry="2.5"
       d="m 305,189.86218 c 0,1.38071 -1.11929,2.5 -2.5,2.5 -1.38071,0 -2.5,-1.11929 -2.5,-2.5 0,-1.38071 1.11929,-2.5 2.5,-2.5 1.38071,0 2.5,1.11929 2.5,2.5 z"
       transform="matrix(0.64285714,0,0,0.64285714,120.80266,117.10449)" />
    <path
       sodipodi:type="arc"
       style="fill:#000000;fill-opacity:1;fill-rule:nonzero;stroke:#000000;stroke-width:0.77777779;stroke-miterlimit:4;stroke-opacity:1;stroke-dasharray:none;stroke-dashoffset:0"
       id="path16014-3"
       sodipodi:cx="302.5"
       sodipodi:cy="189.86218"
       sodipodi:rx="2.5"
       sodipodi:ry="2.5"
       d="m 305,189.86218 c 0,1.38071 -1.11929,2.5 -2.5,2.5 -1.38071,0 -2.5,-1.11929 -2.5,-2.5 0,-1.38071 1.11929,-2.5 2.5,-2.5 1.38071,0 2.5,1.11929 2.5,2.5 z"
       transform="matrix(0.64285714,0,0,0.64285714,120.53217,57.326913)" />
    <text
       xml:space="preserve"
       style="font-size:8px;font-style:normal;font-variant:normal;font-weight:normal;font-stretch:normal;text-align:start;line-height:125%;letter-spacing:0px;word-spacing:0px;writing-mode:lr-tb;text-anchor:start;fill:#000000;fill-opacity:1;stroke:none;font-family:Times New Roman;-inkscape-font-specification:'Times New Roman,'"
       x="335.35715"
       y="214.86217"
       id="text16080"
       sodipodi:linespacing="125%"><tspan
         sodipodi:role="line"
         id="tspan16082"
         x="335.35715"
         y="214.86217">(200)</tspan></text>
    <text
       xml:space="preserve"
       style="font-size:8px;font-style:normal;font-variant:normal;font-weight:normal;font-stretch:normal;text-align:start;line-height:125%;letter-spacing:0px;word-spacing:0px;writing-mode:lr-tb;text-anchor:start;fill:#000000;fill-opacity:1;stroke:none;font-family:Times New Roman;-inkscape-font-specification:'Times New Roman,'"
       x="218.47734"
       y="257.22168"
       id="text16084"
       sodipodi:linespacing="125%"><tspan
         sodipodi:role="line"
         id="tspan16086"
         x="218.47734"
         y="257.22168">(220)</tspan></text>
    <text
       xml:space="preserve"
       style="font-size:8px;font-style:normal;font-variant:normal;font-weight:normal;font-stretch:normal;text-align:start;line-height:125%;letter-spacing:0px;word-spacing:0px;writing-mode:lr-tb;text-anchor:start;fill:#000000;fill-opacity:1;stroke:none;font-family:Times New Roman;-inkscape-font-specification:'Times New Roman,'"
       x="184.28572"
       y="133.43361"
       id="text16088"
       sodipodi:linespacing="125%"><tspan
         sodipodi:role="line"
         id="tspan16090"
         x="184.28572"
         y="133.43361"
         style="font-size:12px">Direct Space</tspan><tspan
         sodipodi:role="line"
         x="184.28572"
         y="148.43361"
         id="tspan16092"
         style="font-size:12px">Monoclinic-P</tspan></text>
    <path
       style="fill:none;stroke:#000000;stroke-width:1px;stroke-linecap:butt;stroke-linejoin:miter;stroke-opacity:1"
       d="m 316.25,179.50504 c 0,0 5,0 5,5 0,10 5,10 5,10 0,0 -5,0 -5,10 0,5 -5,5 -5,5"
       id="path16094"
       inkscape:connector-curvature="0"
       sodipodi:nodetypes="cscsc" />
    <path
       style="fill:none;stroke:#000000;stroke-width:1px;stroke-linecap:butt;stroke-linejoin:miter;stroke-opacity:1"
       d="m 316.25,209.50504 c 0,0 5,0 5,5 0,10 5,10 5,10 0,0 -5,0 -5,10 0,5 -5,5 -5,5"
       id="path16094-4"
       inkscape:connector-curvature="0"
       sodipodi:nodetypes="cscsc" />
    <path
       style="fill:none;stroke:#000000;stroke-width:1px;stroke-linecap:butt;stroke-linejoin:miter;stroke-opacity:1"
       d="m 243.26404,238.31586 c 0,0 0.17663,4.656 -4.76727,4.73214 -2.05727,0.0317 -3.44955,4.65601 -3.44955,4.65601 0,0 -1.62686,-4.79528 -3.62686,-4.79528 -5,0 -4.55171,-4.7583 -4.55171,-4.7583"
       id="path16094-9"
       inkscape:connector-curvature="0"
       sodipodi:nodetypes="cscsc" />
    <path
       style="fill:none;stroke:#000000;stroke-width:1px;stroke-linecap:butt;stroke-linejoin:miter;stroke-opacity:1"
       d="m 226.95249,238.10796 c 0,0 0.17663,4.656 -4.76727,4.73214 -2.05727,0.0317 -3.44955,4.65601 -3.44955,4.65601 0,0 -1.62686,-4.79528 -3.62686,-4.79528 -5,0 -4.55171,-4.7583 -4.55171,-4.7583"
       id="path16094-9-6"
       inkscape:connector-curvature="0"
       sodipodi:nodetypes="cscsc" />
    <g
       ns1:text="$$\\bar{a}$$"
       transform="matrix(1.461784,0,0,1.461784,-615.2664,75.464488)"
       id="g16177">
      <g
         id="surface1">
        <g
           style="fill:#000000;fill-opacity:1"
           id="g16180">
          <path
             inkscape:connector-curvature="0"
             style="stroke:none"
             d="m 4.453125,-5.734375 0,-0.46875 -3.9375,0 0,0.625 3.9375,0 z m 0,0"
             transform="translate(592.78,110.99)"
             id="path16182" />
        </g>
        <g
           style="fill:#000000;fill-opacity:1"
           id="g16184">
          <path
             inkscape:connector-curvature="0"
             style="stroke:none"
             d="m 3.890625,-3.921875 c -0.1875,-0.375 -0.640625,-0.8125 -1.09375,-0.8125 -1.15625,0 -2.578125,1.640625 -2.578125,3.09375 0,0.9375 0.734375,1.75 1.5,1.75 0.203125,0 0.828125,-0.09375 1.1875,-0.53125 0.015625,0.046875 0.546875,0.53125 1.015625,0.53125 0.359375,0 0.703125,-0.28125 0.78125,-0.453125 0.296875,-0.609375 0.4375,-1.21875 0.4375,-1.234375 0,-0.109375 -0.265625,-0.28125 -0.296875,-0.28125 -0.09375,0 -0.28125,0.21875 -0.3125,0.359375 -0.171875,0.640625 -0.171875,1.0625 -0.578125,1.0625 -0.28125,0 -0.140625,-0.09375 -0.140625,-0.296875 0,-0.21875 0.03125,-0.296875 0.140625,-0.734375 0.109375,-0.421875 0.125,-0.515625 0.21875,-0.890625 l 0.359375,-1.40625 c 0.0625,-0.265625 0.0625,-0.296875 0.0625,-0.328125 0,-0.171875 -0.28125,-0.4375 -0.453125,-0.4375 -0.25,0 -0.578125,0.390625 -0.609375,0.609375 z m -1,2.578125 c -0.046875,0.171875 0,0.078125 -0.15625,0.25 C 2.296875,-0.546875 2.03125,-0.4375 1.75,-0.4375 c -0.5,0 -0.46875,-0.375 -0.46875,-0.765625 0,-0.5 0.265625,-1.625 0.5,-2.078125 0.296875,-0.59375 0.625,-0.90625 1.03125,-0.90625 0.640625,0 0.609375,0.65625 0.609375,0.71875 0,0.0625 -0.015625,0.125 -0.03125,0.171875 z m 0,0"
             transform="translate(592.64,110.99)"
             id="path16186" />
        </g>
      </g>
    </g>
    <g
       id="g16307"
       transform="matrix(1.461784,0,0,1.461784,-590.2288,5.2869339)"
       ns1:text="$$\\bar{b}$$">
      <g
         id="g16309">
        <g
           id="g16311"
           style="fill:#000000;fill-opacity:1">
          <path
             id="path16313"
             transform="translate(592.78,108.36)"
             d="m 4.453125,-5.734375 0,-0.46875 -3.9375,0 0,0.625 3.9375,0 z m 0,0"
             style="stroke:none"
             inkscape:connector-curvature="0" />
        </g>
        <g
           id="g16315"
           style="fill:#000000;fill-opacity:1">
          <path
             id="path16317"
             transform="translate(593.14,110.99)"
             d="M 2.546875,-6.96875 C 2.546875,-6.984375 2.375,-7.25 2.25,-7.25 c -0.21875,0 -0.953125,0.078125 -1.21875,0.109375 -0.078125,0 -0.359375,0.1875 -0.359375,0.359375 0,0.125 0.265625,0.28125 0.421875,0.28125 0.46875,0 0.3125,-0.09375 0.3125,0.015625 0,0.0625 -0.09375,0.40625 -0.140625,0.609375 l -0.8125,3.25 c -0.125,0.5 -0.15625,0.65625 -0.15625,1.015625 0,0.9375 0.703125,1.71875 1.4375,1.71875 1.171875,0 2.578125,-1.640625 2.578125,-3.078125 0,-0.90625 -0.703125,-1.765625 -1.5,-1.765625 -0.453125,0 -1,0.34375 -1.296875,0.640625 l 0.296875,0.125 z m -0.9375,3.765625 c 0.0625,-0.21875 0.015625,-0.125 0.109375,-0.234375 0.484375,-0.65625 0.8125,-0.75 1.078125,-0.75 0.359375,0 0.4375,0.140625 0.4375,0.78125 0,0.578125 -0.328125,1.734375 -0.5,2.109375 -0.328125,0.671875 -0.609375,0.859375 -1,0.859375 -0.34375,0 -0.5,-0.09375 -0.5,-0.84375 0,-0.1875 0,-0.375 0.15625,-1 z m 0,0"
             style="stroke:none"
             inkscape:connector-curvature="0" />
        </g>
      </g>
    </g>
    <path
       style="fill:none;stroke:#000000;stroke-width:1px;stroke-linecap:butt;stroke-linejoin:miter;stroke-opacity:1"
       d="m 370,122.36218 0,160"
       id="path3085"
       inkscape:connector-curvature="0" />
    <path
       style="fill:none;stroke:#000000;stroke-width:1px;stroke-linecap:butt;stroke-linejoin:miter;stroke-opacity:1;marker-start:url(#Arrow2Mstart);marker-end:url(#Arrow2Mend)"
       d="m 410,197.36218 10,-30 65,0"
       id="path3087"
       inkscape:connector-curvature="0" />
    <path
       sodipodi:type="arc"
       style="fill:#000000;fill-opacity:1;fill-rule:nonzero;stroke:#000000;stroke-width:0.5;stroke-miterlimit:4;stroke-opacity:1;stroke-dasharray:none;stroke-dashoffset:0"
       id="path3089"
       sodipodi:cx="422.5"
       sodipodi:cy="159.86218"
       sodipodi:rx="2.5"
       sodipodi:ry="2.5"
       d="m 425,159.86218 c 0,1.38071 -1.11929,2.5 -2.5,2.5 -1.38071,0 -2.5,-1.11929 -2.5,-2.5 0,-1.38071 1.11929,-2.5 2.5,-2.5 1.38071,0 2.5,1.11929 2.5,2.5 z"
       transform="translate(-2.5,7.8571428)" />
    <path
       sodipodi:type="arc"
       style="fill:#000000;fill-opacity:1;fill-rule:nonzero;stroke:#000000;stroke-width:0.5;stroke-miterlimit:4;stroke-opacity:1;stroke-dasharray:none;stroke-dashoffset:0"
       id="path3089-1"
       sodipodi:cx="422.5"
       sodipodi:cy="159.86218"
       sodipodi:rx="2.5"
       sodipodi:ry="2.5"
       d="m 425,159.86218 c 0,1.38071 -1.11929,2.5 -2.5,2.5 -1.38071,0 -2.5,-1.11929 -2.5,-2.5 0,-1.38071 1.11929,-2.5 2.5,-2.5 1.38071,0 2.5,1.11929 2.5,2.5 z"
       transform="translate(64.642857,7.5)" />
    <path
       sodipodi:type="arc"
       style="fill:#000000;fill-opacity:1;fill-rule:nonzero;stroke:#000000;stroke-width:0.5;stroke-miterlimit:4;stroke-opacity:1;stroke-dasharray:none;stroke-dashoffset:0"
       id="path3089-7"
       sodipodi:cx="422.5"
       sodipodi:cy="159.86218"
       sodipodi:rx="2.5"
       sodipodi:ry="2.5"
       d="m 425,159.86218 c 0,1.38071 -1.11929,2.5 -2.5,2.5 -1.38071,0 -2.5,-1.11929 -2.5,-2.5 0,-1.38071 1.11929,-2.5 2.5,-2.5 1.38071,0 2.5,1.11929 2.5,2.5 z"
       transform="translate(-13.214286,40)" />
    <path
       sodipodi:type="arc"
       style="fill:#000000;fill-opacity:1;fill-rule:nonzero;stroke:#000000;stroke-width:0.5;stroke-miterlimit:4;stroke-opacity:1;stroke-dasharray:none;stroke-dashoffset:0"
       id="path3089-4"
       sodipodi:cx="422.5"
       sodipodi:cy="159.86218"
       sodipodi:rx="2.5"
       sodipodi:ry="2.5"
       d="m 425,159.86218 c 0,1.38071 -1.11929,2.5 -2.5,2.5 -1.38071,0 -2.5,-1.11929 -2.5,-2.5 0,-1.38071 1.11929,-2.5 2.5,-2.5 1.38071,0 2.5,1.11929 2.5,2.5 z"
       transform="translate(-22.5,74.642857)" />
    <path
       sodipodi:type="arc"
       style="fill:#000000;fill-opacity:1;fill-rule:nonzero;stroke:#000000;stroke-width:0.5;stroke-miterlimit:4;stroke-opacity:1;stroke-dasharray:none;stroke-dashoffset:0"
       id="path3089-0"
       sodipodi:cx="422.5"
       sodipodi:cy="159.86218"
       sodipodi:rx="2.5"
       sodipodi:ry="2.5"
       d="m 425,159.86218 c 0,1.38071 -1.11929,2.5 -2.5,2.5 -1.38071,0 -2.5,-1.11929 -2.5,-2.5 0,-1.38071 1.11929,-2.5 2.5,-2.5 1.38071,0 2.5,1.11929 2.5,2.5 z"
       transform="translate(54.642857,40.357142)" />
    <path
       sodipodi:type="arc"
       style="fill:#000000;fill-opacity:1;fill-rule:nonzero;stroke:#000000;stroke-width:0.5;stroke-miterlimit:4;stroke-opacity:1;stroke-dasharray:none;stroke-dashoffset:0"
       id="path3089-9"
       sodipodi:cx="422.5"
       sodipodi:cy="159.86218"
       sodipodi:rx="2.5"
       sodipodi:ry="2.5"
       d="m 425,159.86218 c 0,1.38071 -1.11929,2.5 -2.5,2.5 -1.38071,0 -2.5,-1.11929 -2.5,-2.5 0,-1.38071 1.11929,-2.5 2.5,-2.5 1.38071,0 2.5,1.11929 2.5,2.5 z"
       transform="translate(45.000001,75)" />
    <path
       sodipodi:type="arc"
       style="fill:#000000;fill-opacity:1;fill-rule:nonzero;stroke:#000000;stroke-width:0.5;stroke-miterlimit:4;stroke-opacity:1;stroke-dasharray:none;stroke-dashoffset:0"
       id="path3089-48"
       sodipodi:cx="422.5"
       sodipodi:cy="159.86218"
       sodipodi:rx="2.5"
       sodipodi:ry="2.5"
       d="m 425,159.86218 c 0,1.38071 -1.11929,2.5 -2.5,2.5 -1.38071,0 -2.5,-1.11929 -2.5,-2.5 0,-1.38071 1.11929,-2.5 2.5,-2.5 1.38071,0 2.5,1.11929 2.5,2.5 z"
       transform="translate(112.5,75)" />
    <path
       sodipodi:type="arc"
       style="fill:#000000;fill-opacity:1;fill-rule:nonzero;stroke:#000000;stroke-width:0.5;stroke-miterlimit:4;stroke-opacity:1;stroke-dasharray:none;stroke-dashoffset:0"
       id="path3089-8"
       sodipodi:cx="422.5"
       sodipodi:cy="159.86218"
       sodipodi:rx="2.5"
       sodipodi:ry="2.5"
       d="m 425,159.86218 c 0,1.38071 -1.11929,2.5 -2.5,2.5 -1.38071,0 -2.5,-1.11929 -2.5,-2.5 0,-1.38071 1.11929,-2.5 2.5,-2.5 1.38071,0 2.5,1.11929 2.5,2.5 z"
       transform="translate(132.85714,7.8571423)" />
    <path
       sodipodi:type="arc"
       style="fill:#000000;fill-opacity:1;fill-rule:nonzero;stroke:#000000;stroke-width:0.5;stroke-miterlimit:4;stroke-opacity:1;stroke-dasharray:none;stroke-dashoffset:0"
       id="path3089-2"
       sodipodi:cx="422.5"
       sodipodi:cy="159.86218"
       sodipodi:rx="2.5"
       sodipodi:ry="2.5"
       d="m 425,159.86218 c 0,1.38071 -1.11929,2.5 -2.5,2.5 -1.38071,0 -2.5,-1.11929 -2.5,-2.5 0,-1.38071 1.11929,-2.5 2.5,-2.5 1.38071,0 2.5,1.11929 2.5,2.5 z"
       transform="translate(122.5,40)" />
    <text
       xml:space="preserve"
       style="font-size:12px;font-style:normal;font-variant:normal;font-weight:normal;font-stretch:normal;text-align:start;line-height:125%;letter-spacing:0px;word-spacing:0px;writing-mode:lr-tb;text-anchor:start;fill:#000000;fill-opacity:1;stroke:none;font-family:Times New Roman;-inkscape-font-specification:'Times New Roman,'"
       x="404.64288"
       y="163.43361"
       id="text4337"
       sodipodi:linespacing="125%"><tspan
         sodipodi:role="line"
         id="tspan4339"
         x="404.64288"
         y="163.43361">000</tspan></text>
    <text
       xml:space="preserve"
       style="font-size:12px;font-style:normal;font-variant:normal;font-weight:normal;font-stretch:normal;text-align:start;line-height:125%;letter-spacing:0px;word-spacing:0px;writing-mode:lr-tb;text-anchor:start;fill:#000000;fill-opacity:1;stroke:none;font-family:Times New Roman;-inkscape-font-specification:'Times New Roman,'"
       x="484.28571"
       y="177.71933"
       id="text4341"
       sodipodi:linespacing="125%"><tspan
         sodipodi:role="line"
         id="tspan4343"
         x="484.28571"
         y="177.71933">010</tspan></text>
    <text
       xml:space="preserve"
       style="font-size:12px;font-style:normal;font-variant:normal;font-weight:normal;font-stretch:normal;text-align:start;line-height:125%;letter-spacing:0px;word-spacing:0px;writing-mode:lr-tb;text-anchor:start;fill:#000000;fill-opacity:1;stroke:none;font-family:Times New Roman;-inkscape-font-specification:'Times New Roman,'"
       x="472.85715"
       y="212.36218"
       id="text4345"
       sodipodi:linespacing="125%"><tspan
         sodipodi:role="line"
         id="tspan4347"
         x="472.85715"
         y="212.36218">110</tspan></text>
    <text
       xml:space="preserve"
       style="font-size:12px;font-style:normal;font-variant:normal;font-weight:normal;font-stretch:normal;text-align:start;line-height:125%;letter-spacing:0px;word-spacing:0px;writing-mode:lr-tb;text-anchor:start;fill:#000000;fill-opacity:1;stroke:none;font-family:Times New Roman;-inkscape-font-specification:'Times New Roman,'"
       x="549.64282"
       y="177.71933"
       id="text4349"
       sodipodi:linespacing="125%"><tspan
         sodipodi:role="line"
         id="tspan4351"
         x="549.64282"
         y="177.71933">020</tspan></text>
    <text
       xml:space="preserve"
       style="font-size:12px;font-style:normal;font-variant:normal;font-weight:normal;font-stretch:normal;text-align:start;line-height:125%;letter-spacing:0px;word-spacing:0px;writing-mode:lr-tb;text-anchor:start;fill:#000000;fill-opacity:1;stroke:none;font-family:Times New Roman;-inkscape-font-specification:'Times New Roman,'"
       x="529.28571"
       y="247.71931"
       id="text4353"
       sodipodi:linespacing="125%"><tspan
         sodipodi:role="line"
         id="tspan4355"
         x="529.28571"
         y="247.71931">220</tspan></text>
    <text
       xml:space="preserve"
       style="font-size:12px;font-style:normal;font-variant:normal;font-weight:normal;font-stretch:normal;text-align:start;line-height:125%;letter-spacing:0px;word-spacing:0px;writing-mode:lr-tb;text-anchor:start;fill:#000000;fill-opacity:1;stroke:none;font-family:Times New Roman;-inkscape-font-specification:'Times New Roman,'"
       x="413.92856"
       y="207.36218"
       id="text4357"
       sodipodi:linespacing="125%"><tspan
         sodipodi:role="line"
         id="tspan4359"
         x="413.92856"
         y="207.36218">10</tspan></text>
    <text
       xml:space="preserve"
       style="font-size:12px;font-style:normal;font-variant:normal;font-weight:normal;font-stretch:normal;text-align:start;line-height:125%;letter-spacing:0px;word-spacing:0px;writing-mode:lr-tb;text-anchor:start;fill:#000000;fill-opacity:1;stroke:none;font-family:Times New Roman;-inkscape-font-specification:'Times New Roman,'"
       x="415.71426"
       y="221.75992"
       id="text4361"
       sodipodi:linespacing="125%"><tspan
         sodipodi:role="line"
         id="tspan4363"
         x="415.71426"
         y="221.75992">0</tspan></text>
    <text
       xml:space="preserve"
       style="font-size:12px;font-style:normal;font-variant:normal;font-weight:normal;font-stretch:normal;text-align:start;line-height:125%;letter-spacing:0px;word-spacing:0px;writing-mode:lr-tb;text-anchor:start;fill:#000000;fill-opacity:1;stroke:none;font-family:Times New Roman;-inkscape-font-specification:'Times New Roman,'"
       x="394.28574"
       y="247.36218"
       id="text4365"
       sodipodi:linespacing="125%"><tspan
         sodipodi:role="line"
         id="tspan4367"
         x="394.28574"
         y="247.36218">200</tspan></text>
    <g
       ns1:text="$$\\bar{a}^\\ast$$"
       transform="matrix(1.2905451,0,0,1.2905451,-369.64938,60.392287)"
       id="g4446">
      <g
         id="g4448">
        <g
           style="fill:#000000;fill-opacity:1"
           id="g4450">
          <path
             inkscape:connector-curvature="0"
             style="stroke:none"
             d="m 4.453125,-5.734375 0,-0.46875 -3.9375,0 0,0.625 3.9375,0 z m 0,0"
             transform="translate(590.49,110.99)"
             id="path4452" />
        </g>
        <g
           style="fill:#000000;fill-opacity:1"
           id="g4454">
          <path
             inkscape:connector-curvature="0"
             style="stroke:none"
             d="m 3.890625,-3.921875 c -0.1875,-0.375 -0.640625,-0.8125 -1.09375,-0.8125 -1.15625,0 -2.578125,1.640625 -2.578125,3.09375 0,0.9375 0.734375,1.75 1.5,1.75 0.203125,0 0.828125,-0.09375 1.1875,-0.53125 0.015625,0.046875 0.546875,0.53125 1.015625,0.53125 0.359375,0 0.703125,-0.28125 0.78125,-0.453125 0.296875,-0.609375 0.4375,-1.21875 0.4375,-1.234375 0,-0.109375 -0.265625,-0.28125 -0.296875,-0.28125 -0.09375,0 -0.28125,0.21875 -0.3125,0.359375 -0.171875,0.640625 -0.171875,1.0625 -0.578125,1.0625 -0.28125,0 -0.140625,-0.09375 -0.140625,-0.296875 0,-0.21875 0.03125,-0.296875 0.140625,-0.734375 0.109375,-0.421875 0.125,-0.515625 0.21875,-0.890625 l 0.359375,-1.40625 c 0.0625,-0.265625 0.0625,-0.296875 0.0625,-0.328125 0,-0.171875 -0.28125,-0.4375 -0.453125,-0.4375 -0.25,0 -0.578125,0.390625 -0.609375,0.609375 z m -1,2.578125 c -0.046875,0.171875 0,0.078125 -0.15625,0.25 C 2.296875,-0.546875 2.03125,-0.4375 1.75,-0.4375 c -0.5,0 -0.46875,-0.375 -0.46875,-0.765625 0,-0.5 0.265625,-1.625 0.5,-2.078125 0.296875,-0.59375 0.625,-0.90625 1.03125,-0.90625 0.640625,0 0.609375,0.65625 0.609375,0.71875 0,0.0625 -0.015625,0.125 -0.03125,0.171875 z m 0,0"
             transform="translate(590.35,110.99)"
             id="path4456" />
        </g>
        <g
           style="fill:#000000;fill-opacity:1"
           id="g4458">
          <path
             inkscape:connector-curvature="0"
             style="stroke:none"
             d="m 2.25,-1.734375 c 0.578125,-0.25 0.828125,-0.34375 1,-0.4375 0.140625,-0.046875 0.390625,-0.234375 0.390625,-0.375 0,-0.109375 -0.28125,-0.390625 -0.40625,-0.390625 -0.046875,0 -0.203125,0.046875 -0.28125,0.109375 L 2.375,-2.4375 2.4375,-3.09375 C 2.453125,-3.21875 2.25,-3.5625 2.03125,-3.5625 c -0.078125,0 -0.421875,0.21875 -0.421875,0.375 0,0.0625 0.03125,0.265625 0.046875,0.34375 0.015625,0.109375 0.0625,0.609375 0.03125,0.40625 L 1.125,-2.828125 C 1.0625,-2.859375 0.90625,-2.9375 0.84375,-2.9375 c -0.140625,0 -0.421875,0.28125 -0.421875,0.390625 0,0.140625 0.28125,0.34375 0.34375,0.359375 l 0.65625,0.28125 C 1.25,-1.8125 0.984375,-1.71875 0.8125,-1.640625 c -0.125,0.0625 -0.390625,0.25 -0.390625,0.390625 0,0.109375 0.28125,0.375 0.421875,0.375 0.046875,0 0.1875,-0.046875 0.28125,-0.109375 l 0.5625,-0.375 -0.078125,0.75 c 0,0.15625 0.34375,0.375 0.421875,0.375 0.09375,0 0.421875,-0.21875 0.421875,-0.375 0,-0.0625 -0.03125,-0.265625 -0.046875,-0.34375 C 2.390625,-1.0625 2.34375,-1.5625 2.375,-1.359375 L 2.84375,-1.0625 c 0.171875,0.140625 0.328125,0.1875 0.390625,0.1875 0.125,0 0.40625,-0.265625 0.40625,-0.375 0,-0.140625 -0.28125,-0.34375 -0.34375,-0.375 l -0.65625,-0.28125 z m 0,0"
             transform="translate(595.62,106.88)"
             id="path4460" />
        </g>
      </g>
    </g>
    <g
       id="g4669"
       transform="matrix(1.1953873,0,0,1.1953873,-232.11414,32.083904)"
       ns1:text="$$\\bar{b}^\\ast$$">
      <g
         id="g4671">
        <g
           id="g4673"
           style="fill:#000000;fill-opacity:1">
          <path
             id="path4675"
             transform="translate(590.49,108.36)"
             d="m 4.453125,-5.734375 0,-0.46875 -3.9375,0 0,0.625 3.9375,0 z m 0,0"
             style="stroke:none"
             inkscape:connector-curvature="0" />
        </g>
        <g
           id="g4677"
           style="fill:#000000;fill-opacity:1">
          <path
             id="path4679"
             transform="translate(590.85,110.99)"
             d="M 2.546875,-6.96875 C 2.546875,-6.984375 2.375,-7.25 2.25,-7.25 c -0.21875,0 -0.953125,0.078125 -1.21875,0.109375 -0.078125,0 -0.359375,0.1875 -0.359375,0.359375 0,0.125 0.265625,0.28125 0.421875,0.28125 0.46875,0 0.3125,-0.09375 0.3125,0.015625 0,0.0625 -0.09375,0.40625 -0.140625,0.609375 l -0.8125,3.25 c -0.125,0.5 -0.15625,0.65625 -0.15625,1.015625 0,0.9375 0.703125,1.71875 1.4375,1.71875 1.171875,0 2.578125,-1.640625 2.578125,-3.078125 0,-0.90625 -0.703125,-1.765625 -1.5,-1.765625 -0.453125,0 -1,0.34375 -1.296875,0.640625 l 0.296875,0.125 z m -0.9375,3.765625 c 0.0625,-0.21875 0.015625,-0.125 0.109375,-0.234375 0.484375,-0.65625 0.8125,-0.75 1.078125,-0.75 0.359375,0 0.4375,0.140625 0.4375,0.78125 0,0.578125 -0.328125,1.734375 -0.5,2.109375 -0.328125,0.671875 -0.609375,0.859375 -1,0.859375 -0.34375,0 -0.5,-0.09375 -0.5,-0.84375 0,-0.1875 0,-0.375 0.15625,-1 z m 0,0"
             style="stroke:none"
             inkscape:connector-curvature="0" />
        </g>
        <g
           id="g4681"
           style="fill:#000000;fill-opacity:1">
          <path
             id="path4683"
             transform="translate(595.12,106.88)"
             d="m 2.25,-1.734375 c 0.578125,-0.25 0.828125,-0.34375 1,-0.4375 0.140625,-0.046875 0.390625,-0.234375 0.390625,-0.375 0,-0.109375 -0.28125,-0.390625 -0.40625,-0.390625 -0.046875,0 -0.203125,0.046875 -0.28125,0.109375 L 2.375,-2.4375 2.4375,-3.09375 C 2.453125,-3.21875 2.25,-3.5625 2.03125,-3.5625 c -0.078125,0 -0.421875,0.21875 -0.421875,0.375 0,0.0625 0.03125,0.265625 0.046875,0.34375 0.015625,0.109375 0.0625,0.609375 0.03125,0.40625 L 1.125,-2.828125 C 1.0625,-2.859375 0.90625,-2.9375 0.84375,-2.9375 c -0.140625,0 -0.421875,0.28125 -0.421875,0.390625 0,0.140625 0.28125,0.34375 0.34375,0.359375 l 0.65625,0.28125 C 1.25,-1.8125 0.984375,-1.71875 0.8125,-1.640625 c -0.125,0.0625 -0.390625,0.25 -0.390625,0.390625 0,0.109375 0.28125,0.375 0.421875,0.375 0.046875,0 0.1875,-0.046875 0.28125,-0.109375 l 0.5625,-0.375 -0.078125,0.75 c 0,0.15625 0.34375,0.375 0.421875,0.375 0.09375,0 0.421875,-0.21875 0.421875,-0.375 0,-0.0625 -0.03125,-0.265625 -0.046875,-0.34375 C 2.390625,-1.0625 2.34375,-1.5625 2.375,-1.359375 L 2.84375,-1.0625 c 0.171875,0.140625 0.328125,0.1875 0.390625,0.1875 0.125,0 0.40625,-0.265625 0.40625,-0.375 0,-0.140625 -0.28125,-0.34375 -0.34375,-0.375 l -0.65625,-0.28125 z m 0,0"
             style="stroke:none"
             inkscape:connector-curvature="0" />
        </g>
      </g>
    </g>
    <text
       xml:space="preserve"
       style="font-size:12px;font-style:normal;font-variant:normal;font-weight:normal;font-stretch:normal;text-align:start;line-height:125%;letter-spacing:0px;word-spacing:0px;writing-mode:lr-tb;text-anchor:start;fill:#000000;fill-opacity:1;stroke:none;font-family:Times New Roman;-inkscape-font-specification:'Times New Roman,'"
       x="392.85715"
       y="133.07648"
       id="text4776"
       sodipodi:linespacing="125%"><tspan
         sodipodi:role="line"
         id="tspan4778"
         x="392.85715"
         y="133.07648">Reciprocal Space</tspan></text>
  </g>
</svg>
