<?xml version="1.0" encoding="UTF-8" standalone="no"?>
<!-- Created with Inkscape (http://www.inkscape.org/) -->

<svg
   xmlns:ns1="http://wanglongqi.github.io/WriteTeX"
   xmlns:dc="http://purl.org/dc/elements/1.1/"
   xmlns:cc="http://creativecommons.org/ns#"
   xmlns:rdf="http://www.w3.org/1999/02/22-rdf-syntax-ns#"
   xmlns:svg="http://www.w3.org/2000/svg"
   xmlns="http://www.w3.org/2000/svg"
   xmlns:sodipodi="http://sodipodi.sourceforge.net/DTD/sodipodi-0.dtd"
   xmlns:inkscape="http://www.inkscape.org/namespaces/inkscape"
   width="174.78575"
   height="125.5"
   id="svg6062"
   version="1.1"
   inkscape:version="0.48.5 r10040"
   sodipodi:docname="New document 14">
  <sodipodi:namedview
     id="base"
     pagecolor="#ffffff"
     bordercolor="#666666"
     borderopacity="1.0"
     inkscape:pageopacity="0.0"
     inkscape:pageshadow="2"
     inkscape:zoom="2.8"
     inkscape:cx="91.862123"
     inkscape:cy="64.334264"
     inkscape:document-units="px"
     inkscape:current-layer="layer1"
     showgrid="true"
     inkscape:snap-global="false"
     inkscape:snap-grids="true"
     inkscape:window-width="759"
     inkscape:window-height="803"
     inkscape:window-x="769"
     inkscape:window-y="-8"
     inkscape:window-maximized="1"
     fit-margin-top="0"
     fit-margin-left="0"
     fit-margin-right="0"
     fit-margin-bottom="0">
    <inkscape:grid
       type="xygrid"
       id="grid6070"
       empspacing="5"
       visible="true"
       enabled="true"
       snapvisiblegridlinesonly="true"
       originx="-270.46429px"
       originy="-634.75px" />
  </sodipodi:namedview>
  <defs
     id="defs6064">
    <marker
       inkscape:stockid="Arrow2Mstart"
       orient="auto"
       refY="0"
       refX="0"
       id="Arrow2Mstart"
       style="overflow:visible">
      <path
         id="path5452"
         style="fill-rule:evenodd;stroke-width:0.625;stroke-linejoin:round"
         d="M 8.7185878,4.0337352 -2.2072895,0.01601326 8.7185884,-4.0017078 c -1.7454984,2.3720609 -1.7354408,5.6174519 -6e-7,8.035443 z"
         transform="scale(0.6,0.6)"
         inkscape:connector-curvature="0" />
    </marker>
    <marker
       inkscape:stockid="Arrow2Mend"
       orient="auto"
       refY="0"
       refX="0"
       id="Arrow2Mend"
       style="overflow:visible">
      <path
         id="path5455"
         style="fill-rule:evenodd;stroke-width:0.625;stroke-linejoin:round"
         d="M 8.7185878,4.0337352 -2.2072895,0.01601326 8.7185884,-4.0017078 c -1.7454984,2.3720609 -1.7354408,5.6174519 -6e-7,8.035443 z"
         transform="scale(-0.6,-0.6)"
         inkscape:connector-curvature="0" />
    </marker>
  </defs>
  <metadata
     id="metadata6067">
    <rdf:RDF>
      <cc:Work
         rdf:about="">
        <dc:format>image/svg+xml</dc:format>
        <dc:type
           rdf:resource="http://purl.org/dc/dcmitype/StillImage" />
        <dc:title></dc:title>
      </cc:Work>
    </rdf:RDF>
  </metadata>
  <g
     inkscape:label="Layer 1"
     inkscape:groupmode="layer"
     id="layer1"
     transform="translate(-270.46429,-292.11218)">
    <rect
       style="fill:none;stroke:#000080;stroke-width:0.5;stroke-miterlimit:4;stroke-opacity:1;stroke-dasharray:none;stroke-dashoffset:0"
       id="rect6082"
       width="174.28575"
       height="125"
       x="270.71429"
       y="292.36218"
       ry="10"
       rx="10" />
    <g
       id="g7737"
       transform="translate(0.12255205,0.17857143)">
      <path
         transform="matrix(1.5,0,0,1.5,-133.92857,-162.25252)"
         d="m 295,309.86218 c 0,1.38071 -1.11929,2.5 -2.5,2.5 -1.38071,0 -2.5,-1.11929 -2.5,-2.5 0,-1.38071 1.11929,-2.5 2.5,-2.5 1.38071,0 2.5,1.11929 2.5,2.5 z"
         sodipodi:ry="2.5"
         sodipodi:rx="2.5"
         sodipodi:cy="309.86218"
         sodipodi:cx="292.5"
         id="path6084"
         style="fill:#800000;stroke:#800000;stroke-width:0.33333334;stroke-miterlimit:4;stroke-opacity:1;stroke-dasharray:none;stroke-dashoffset:0"
         sodipodi:type="arc" />
      <path
         transform="matrix(1.5,0,0,1.5,-88.392867,-162.07396)"
         d="m 295,309.86218 c 0,1.38071 -1.11929,2.5 -2.5,2.5 -1.38071,0 -2.5,-1.11929 -2.5,-2.5 0,-1.38071 1.11929,-2.5 2.5,-2.5 1.38071,0 2.5,1.11929 2.5,2.5 z"
         sodipodi:ry="2.5"
         sodipodi:rx="2.5"
         sodipodi:cy="309.86218"
         sodipodi:cx="292.5"
         id="path6084-2"
         style="fill:#800000;stroke:#800000;stroke-width:0.33333334;stroke-miterlimit:4;stroke-opacity:1;stroke-dasharray:none;stroke-dashoffset:0"
         sodipodi:type="arc" />
      <path
         transform="matrix(1.5,0,0,1.5,-48.392857,-161.71681)"
         d="m 295,309.86218 c 0,1.38071 -1.11929,2.5 -2.5,2.5 -1.38071,0 -2.5,-1.11929 -2.5,-2.5 0,-1.38071 1.11929,-2.5 2.5,-2.5 1.38071,0 2.5,1.11929 2.5,2.5 z"
         sodipodi:ry="2.5"
         sodipodi:rx="2.5"
         sodipodi:cy="309.86218"
         sodipodi:cx="292.5"
         id="path6084-7"
         style="fill:#800000;stroke:#800000;stroke-width:0.33333334;stroke-miterlimit:4;stroke-opacity:1;stroke-dasharray:none;stroke-dashoffset:0"
         sodipodi:type="arc" />
      <path
         transform="matrix(1.5,0,0,1.5,-9.1071427,-162.07396)"
         d="m 295,309.86218 c 0,1.38071 -1.11929,2.5 -2.5,2.5 -1.38071,0 -2.5,-1.11929 -2.5,-2.5 0,-1.38071 1.11929,-2.5 2.5,-2.5 1.38071,0 2.5,1.11929 2.5,2.5 z"
         sodipodi:ry="2.5"
         sodipodi:rx="2.5"
         sodipodi:cy="309.86218"
         sodipodi:cx="292.5"
         id="path6084-9"
         style="fill:#800000;stroke:#800000;stroke-width:0.33333334;stroke-miterlimit:4;stroke-opacity:1;stroke-dasharray:none;stroke-dashoffset:0"
         sodipodi:type="arc" />
    </g>
    <g
       id="g7725"
       transform="translate(-2.5,0.17857143)">
      <path
         transform="matrix(1.5,0,0,1.5,-153.75,-127.43109)"
         d="m 295,309.86218 c 0,1.38071 -1.11929,2.5 -2.5,2.5 -1.38071,0 -2.5,-1.11929 -2.5,-2.5 0,-1.38071 1.11929,-2.5 2.5,-2.5 1.38071,0 2.5,1.11929 2.5,2.5 z"
         sodipodi:ry="2.5"
         sodipodi:rx="2.5"
         sodipodi:cy="309.86218"
         sodipodi:cx="292.5"
         id="path6084-4"
         style="fill:#800000;stroke:#800000;stroke-width:0.33333334;stroke-miterlimit:4;stroke-opacity:1;stroke-dasharray:none;stroke-dashoffset:0"
         sodipodi:type="arc" />
      <path
         transform="matrix(1.5,0,0,1.5,-108.39285,-127.07395)"
         d="m 295,309.86218 c 0,1.38071 -1.11929,2.5 -2.5,2.5 -1.38071,0 -2.5,-1.11929 -2.5,-2.5 0,-1.38071 1.11929,-2.5 2.5,-2.5 1.38071,0 2.5,1.11929 2.5,2.5 z"
         sodipodi:ry="2.5"
         sodipodi:rx="2.5"
         sodipodi:cy="309.86218"
         sodipodi:cx="292.5"
         id="path6084-3"
         style="fill:#800000;stroke:#800000;stroke-width:0.33333334;stroke-miterlimit:4;stroke-opacity:1;stroke-dasharray:none;stroke-dashoffset:0"
         sodipodi:type="arc" />
      <path
         transform="matrix(1.5,0,0,1.5,-68.392856,-127.4311)"
         d="m 295,309.86218 c 0,1.38071 -1.11929,2.5 -2.5,2.5 -1.38071,0 -2.5,-1.11929 -2.5,-2.5 0,-1.38071 1.11929,-2.5 2.5,-2.5 1.38071,0 2.5,1.11929 2.5,2.5 z"
         sodipodi:ry="2.5"
         sodipodi:rx="2.5"
         sodipodi:cy="309.86218"
         sodipodi:cx="292.5"
         id="path6084-1"
         style="fill:#800000;stroke:#800000;stroke-width:0.33333334;stroke-miterlimit:4;stroke-opacity:1;stroke-dasharray:none;stroke-dashoffset:0"
         sodipodi:type="arc" />
      <path
         transform="matrix(1.5,0,0,1.5,-28.75,-127.43109)"
         d="m 295,309.86218 c 0,1.38071 -1.11929,2.5 -2.5,2.5 -1.38071,0 -2.5,-1.11929 -2.5,-2.5 0,-1.38071 1.11929,-2.5 2.5,-2.5 1.38071,0 2.5,1.11929 2.5,2.5 z"
         sodipodi:ry="2.5"
         sodipodi:rx="2.5"
         sodipodi:cy="309.86218"
         sodipodi:cx="292.5"
         id="path6084-23"
         style="fill:#800000;stroke:#800000;stroke-width:0.33333334;stroke-miterlimit:4;stroke-opacity:1;stroke-dasharray:none;stroke-dashoffset:0"
         sodipodi:type="arc" />
    </g>
    <path
       sodipodi:type="arc"
       style="fill:#800000;stroke:#800000;stroke-width:0.33333334;stroke-miterlimit:4;stroke-opacity:1;stroke-dasharray:none;stroke-dashoffset:0"
       id="path6084-34"
       sodipodi:cx="292.5"
       sodipodi:cy="309.86218"
       sodipodi:rx="2.5"
       sodipodi:ry="2.5"
       d="m 295,309.86218 c 0,1.38071 -1.11929,2.5 -2.5,2.5 -1.38071,0 -2.5,-1.11929 -2.5,-2.5 0,-1.38071 1.11929,-2.5 2.5,-2.5 1.38071,0 2.5,1.11929 2.5,2.5 z"
       transform="matrix(1.5,0,0,1.5,-10.17857,-92.073953)" />
    <path
       style="fill:none;stroke:#000000;stroke-width:1;stroke-linecap:butt;stroke-linejoin:miter;stroke-miterlimit:4;stroke-opacity:1;stroke-dasharray:3, 3;stroke-dashoffset:0"
       d="m 304.64286,372.00504 23.39286,-34.64286 21.60714,34.64286"
       id="path7484"
       inkscape:connector-curvature="0"
       sodipodi:nodetypes="ccc" />
    <path
       sodipodi:type="arc"
       style="fill:#800000;stroke:#800000;stroke-width:0.33333334;stroke-miterlimit:4;stroke-opacity:1;stroke-dasharray:none;stroke-dashoffset:0"
       id="path6084-11"
       sodipodi:cx="292.5"
       sodipodi:cy="309.86218"
       sodipodi:rx="2.5"
       sodipodi:ry="2.5"
       d="m 295,309.86218 c 0,1.38071 -1.11929,2.5 -2.5,2.5 -1.38071,0 -2.5,-1.11929 -2.5,-2.5 0,-1.38071 1.11929,-2.5 2.5,-2.5 1.38071,0 2.5,1.11929 2.5,2.5 z"
       transform="matrix(1.5,0,0,1.5,-133.57143,-91.716805)" />
    <path
       sodipodi:type="arc"
       style="fill:#800000;stroke:#800000;stroke-width:0.33333334;stroke-miterlimit:4;stroke-opacity:1;stroke-dasharray:none;stroke-dashoffset:0"
       id="path6084-38"
       sodipodi:cx="292.5"
       sodipodi:cy="309.86218"
       sodipodi:rx="2.5"
       sodipodi:ry="2.5"
       d="m 295,309.86218 c 0,1.38071 -1.11929,2.5 -2.5,2.5 -1.38071,0 -2.5,-1.11929 -2.5,-2.5 0,-1.38071 1.11929,-2.5 2.5,-2.5 1.38071,0 2.5,1.11929 2.5,2.5 z"
       transform="matrix(1.5,0,0,1.5,-89.107147,-92.073949)" />
    <path
       sodipodi:type="arc"
       style="fill:#800000;stroke:#800000;stroke-width:0.33333334;stroke-miterlimit:4;stroke-opacity:1;stroke-dasharray:none;stroke-dashoffset:0"
       id="path6084-74"
       sodipodi:cx="292.5"
       sodipodi:cy="309.86218"
       sodipodi:rx="2.5"
       sodipodi:ry="2.5"
       d="m 295,309.86218 c 0,1.38071 -1.11929,2.5 -2.5,2.5 -1.38071,0 -2.5,-1.11929 -2.5,-2.5 0,-1.38071 1.11929,-2.5 2.5,-2.5 1.38071,0 2.5,1.11929 2.5,2.5 z"
       transform="matrix(1.5,0,0,1.5,-48.749999,-92.431092)" />
    <g
       id="g7731"
       transform="translate(-2.2728432,0.25253814)">
      <path
         transform="matrix(1.5,0,0,1.5,-153.75,-57.07395)"
         d="m 295,309.86218 c 0,1.38071 -1.11929,2.5 -2.5,2.5 -1.38071,0 -2.5,-1.11929 -2.5,-2.5 0,-1.38071 1.11929,-2.5 2.5,-2.5 1.38071,0 2.5,1.11929 2.5,2.5 z"
         sodipodi:ry="2.5"
         sodipodi:rx="2.5"
         sodipodi:cy="309.86218"
         sodipodi:cx="292.5"
         id="path6084-31"
         style="fill:#800000;stroke:#800000;stroke-width:0.33333334;stroke-miterlimit:4;stroke-opacity:1;stroke-dasharray:none;stroke-dashoffset:0"
         sodipodi:type="arc" />
      <path
         transform="matrix(1.5,0,0,1.5,-108.75,-57.431092)"
         d="m 295,309.86218 c 0,1.38071 -1.11929,2.5 -2.5,2.5 -1.38071,0 -2.5,-1.11929 -2.5,-2.5 0,-1.38071 1.11929,-2.5 2.5,-2.5 1.38071,0 2.5,1.11929 2.5,2.5 z"
         sodipodi:ry="2.5"
         sodipodi:rx="2.5"
         sodipodi:cy="309.86218"
         sodipodi:cx="292.5"
         id="path6084-98"
         style="fill:#800000;stroke:#800000;stroke-width:0.33333334;stroke-miterlimit:4;stroke-opacity:1;stroke-dasharray:none;stroke-dashoffset:0"
         sodipodi:type="arc" />
      <path
         transform="matrix(1.5,0,0,1.5,-68.749999,-57.431092)"
         d="m 295,309.86218 c 0,1.38071 -1.11929,2.5 -2.5,2.5 -1.38071,0 -2.5,-1.11929 -2.5,-2.5 0,-1.38071 1.11929,-2.5 2.5,-2.5 1.38071,0 2.5,1.11929 2.5,2.5 z"
         sodipodi:ry="2.5"
         sodipodi:rx="2.5"
         sodipodi:cy="309.86218"
         sodipodi:cx="292.5"
         id="path6084-6"
         style="fill:#800000;stroke:#800000;stroke-width:0.33333334;stroke-miterlimit:4;stroke-opacity:1;stroke-dasharray:none;stroke-dashoffset:0"
         sodipodi:type="arc" />
      <path
         transform="matrix(1.5,0,0,1.5,-28.749999,-57.431092)"
         d="m 295,309.86218 c 0,1.38071 -1.11929,2.5 -2.5,2.5 -1.38071,0 -2.5,-1.11929 -2.5,-2.5 0,-1.38071 1.11929,-2.5 2.5,-2.5 1.38071,0 2.5,1.11929 2.5,2.5 z"
         sodipodi:ry="2.5"
         sodipodi:rx="2.5"
         sodipodi:cy="309.86218"
         sodipodi:cx="292.5"
         id="path6084-50"
         style="fill:#800000;stroke:#800000;stroke-width:0.33333334;stroke-miterlimit:4;stroke-opacity:1;stroke-dasharray:none;stroke-dashoffset:0"
         sodipodi:type="arc" />
    </g>
    <path
       style="fill:none;stroke:#000000;stroke-width:1px;stroke-linecap:butt;stroke-linejoin:miter;stroke-opacity:1;marker-start:url(#Arrow2Mstart);marker-end:url(#Arrow2Mend)"
       d="m 390,308.07647 0,64.28571 33.21429,0"
       id="path6230"
       inkscape:connector-curvature="0"
       sodipodi:nodetypes="ccc" />
    <path
       style="fill:none;stroke:#000000;stroke-width:1;stroke-linecap:butt;stroke-linejoin:miter;stroke-miterlimit:4;stroke-opacity:1;stroke-dasharray:3, 3;stroke-dashoffset:0"
       d="m 430,303.07647 -40,0"
       id="path6232"
       inkscape:connector-curvature="0" />
    <path
       style="fill:none;stroke:#000000;stroke-width:1;stroke-linecap:butt;stroke-linejoin:miter;stroke-miterlimit:4;stroke-opacity:1;stroke-dasharray:3, 3;stroke-dashoffset:0"
       d="m 429.64285,302.71932 0,70"
       id="path6234"
       inkscape:connector-curvature="0" />
    <path
       style="fill:none;stroke:#000000;stroke-width:1px;stroke-linecap:butt;stroke-linejoin:miter;stroke-opacity:1;marker-start:url(#Arrow2Mstart);marker-end:url(#Arrow2Mend)"
       d="m 347.85714,376.64789 -20,30.71429 -19.64285,-30.71429"
       id="path6236"
       inkscape:connector-curvature="0"
       sodipodi:nodetypes="ccc" />
    <text
       xml:space="preserve"
       style="font-size:12px;font-style:normal;font-variant:normal;font-weight:normal;font-stretch:normal;text-align:start;line-height:125%;letter-spacing:0px;word-spacing:0px;writing-mode:lr-tb;text-anchor:start;fill:#000000;fill-opacity:1;stroke:none;font-family:Times New Roman;-inkscape-font-specification:'Times New Roman,'"
       x="379.64285"
       y="340.93362"
       id="text7486"
       sodipodi:linespacing="125%"><tspan
         sodipodi:role="line"
         id="tspan7488"
         x="379.64285"
         y="340.93362">b</tspan></text>
    <text
       xml:space="preserve"
       style="font-size:12px;font-style:normal;font-variant:normal;font-weight:normal;font-stretch:normal;text-align:start;line-height:125%;letter-spacing:0px;word-spacing:0px;writing-mode:lr-tb;text-anchor:start;fill:#000000;fill-opacity:1;stroke:none;font-family:Times New Roman;-inkscape-font-specification:'Times New Roman,'"
       x="407.14285"
       y="382.7193"
       id="text7490"
       sodipodi:linespacing="125%"><tspan
         sodipodi:role="line"
         id="tspan7492"
         x="407.14285"
         y="382.7193">a</tspan></text>
    <g
       ns1:text="$$a_2$$"
       transform="translate(-287.28571,287.5)"
       id="g7530">
      <g
         id="surface1">
        <g
           style="fill:#000000;fill-opacity:1"
           id="g7533">
          <path
             inkscape:connector-curvature="0"
             style="stroke:none"
             d="m 3.890625,-3.921875 c -0.1875,-0.375 -0.640625,-0.8125 -1.09375,-0.8125 -1.15625,0 -2.578125,1.640625 -2.578125,3.09375 0,0.9375 0.734375,1.75 1.5,1.75 0.203125,0 0.828125,-0.09375 1.1875,-0.53125 0.015625,0.046875 0.546875,0.53125 1.015625,0.53125 0.359375,0 0.703125,-0.28125 0.78125,-0.453125 0.296875,-0.609375 0.4375,-1.21875 0.4375,-1.234375 0,-0.109375 -0.265625,-0.28125 -0.296875,-0.28125 -0.09375,0 -0.28125,0.21875 -0.3125,0.359375 -0.171875,0.640625 -0.171875,1.0625 -0.578125,1.0625 -0.28125,0 -0.140625,-0.09375 -0.140625,-0.296875 0,-0.21875 0.03125,-0.296875 0.140625,-0.734375 0.109375,-0.421875 0.125,-0.515625 0.21875,-0.890625 l 0.359375,-1.40625 c 0.0625,-0.265625 0.0625,-0.296875 0.0625,-0.328125 0,-0.171875 -0.28125,-0.4375 -0.453125,-0.4375 -0.25,0 -0.578125,0.390625 -0.609375,0.609375 z m -1,2.578125 c -0.046875,0.171875 0,0.078125 -0.15625,0.25 C 2.296875,-0.546875 2.03125,-0.4375 1.75,-0.4375 c -0.5,0 -0.46875,-0.375 -0.46875,-0.765625 0,-0.5 0.265625,-1.625 0.5,-2.078125 0.296875,-0.59375 0.625,-0.90625 1.03125,-0.90625 0.640625,0 0.609375,0.65625 0.609375,0.71875 0,0.0625 -0.015625,0.125 -0.03125,0.171875 z m 0,0"
             transform="translate(590.41,110.99)"
             id="path7535" />
        </g>
        <g
           style="fill:#000000;fill-opacity:1"
           id="g7537">
          <path
             inkscape:connector-curvature="0"
             style="stroke:none"
             d="m 3.515625,-1.65625 -0.40625,0 c -0.046875,0.34375 -0.0625,0.625 -0.140625,0.6875 -0.0625,0.046875 -0.453125,-0.015625 -0.5625,-0.015625 l -1.28125,0 0.140625,0.34375 C 2,-1.296875 2.234375,-1.484375 2.65625,-1.8125 c 0.515625,-0.421875 1.046875,-0.984375 1.046875,-1.65625 0,-0.84375 -0.921875,-1.546875 -1.8125,-1.546875 -0.859375,0 -1.640625,0.796875 -1.640625,1.4375 0,0.359375 0.484375,0.59375 0.5625,0.59375 0.15625,0 0.546875,-0.3125 0.546875,-0.5625 0,-0.125 -0.234375,-0.578125 -0.328125,-0.578125 0.140625,-0.296875 0.421875,-0.25 0.75,-0.25 0.703125,0 0.859375,0.34375 0.859375,0.90625 0,0.609375 -0.375,0.953125 -0.59375,1.203125 L 0.375,-0.59375 C 0.296875,-0.53125 0.25,-0.390625 0.25,0 L 3.46875,0 3.75,-1.65625 z m 0,0"
             transform="translate(595.67,112.48)"
             id="path7539" />
        </g>
      </g>
    </g>
    <g
       id="g7656"
       transform="translate(-244.84581,287.99437)"
       ns1:text="$$a_1$$">
      <g
         id="g7658">
        <g
           id="g7660"
           style="fill:#000000;fill-opacity:1">
          <path
             id="path7662"
             transform="translate(590.41,110.99)"
             d="m 3.890625,-3.921875 c -0.1875,-0.375 -0.640625,-0.8125 -1.09375,-0.8125 -1.15625,0 -2.578125,1.640625 -2.578125,3.09375 0,0.9375 0.734375,1.75 1.5,1.75 0.203125,0 0.828125,-0.09375 1.1875,-0.53125 0.015625,0.046875 0.546875,0.53125 1.015625,0.53125 0.359375,0 0.703125,-0.28125 0.78125,-0.453125 0.296875,-0.609375 0.4375,-1.21875 0.4375,-1.234375 0,-0.109375 -0.265625,-0.28125 -0.296875,-0.28125 -0.09375,0 -0.28125,0.21875 -0.3125,0.359375 -0.171875,0.640625 -0.171875,1.0625 -0.578125,1.0625 -0.28125,0 -0.140625,-0.09375 -0.140625,-0.296875 0,-0.21875 0.03125,-0.296875 0.140625,-0.734375 0.109375,-0.421875 0.125,-0.515625 0.21875,-0.890625 l 0.359375,-1.40625 c 0.0625,-0.265625 0.0625,-0.296875 0.0625,-0.328125 0,-0.171875 -0.28125,-0.4375 -0.453125,-0.4375 -0.25,0 -0.578125,0.390625 -0.609375,0.609375 z m -1,2.578125 c -0.046875,0.171875 0,0.078125 -0.15625,0.25 C 2.296875,-0.546875 2.03125,-0.4375 1.75,-0.4375 c -0.5,0 -0.46875,-0.375 -0.46875,-0.765625 0,-0.5 0.265625,-1.625 0.5,-2.078125 0.296875,-0.59375 0.625,-0.90625 1.03125,-0.90625 0.640625,0 0.609375,0.65625 0.609375,0.71875 0,0.0625 -0.015625,0.125 -0.03125,0.171875 z m 0,0"
             style="stroke:none"
             inkscape:connector-curvature="0" />
        </g>
        <g
           id="g7664"
           style="fill:#000000;fill-opacity:1">
          <path
             id="path7666"
             transform="translate(595.67,112.48)"
             d="m 2.515625,-4.625 c 0,-0.1875 -0.1875,-0.390625 -0.46875,-0.390625 -0.5,0.5 -1,0.4375 -1.484375,0.4375 l 0,0.640625 c 0.359375,0 0.953125,-0.046875 1.015625,-0.078125 l 0,3.25 c 0,0.234375 0.1875,0.125 -0.5,0.125 l -0.46875,0 0,0.65625 C 0.9375,0 1.796875,-0.03125 2.046875,-0.03125 c 0.21875,0 1.09375,0.03125 1.4375,0.046875 l 0,-0.65625 -0.453125,0 c -0.703125,0 -0.515625,0.109375 -0.515625,-0.125 z m 0,0"
             style="stroke:none"
             inkscape:connector-curvature="0" />
        </g>
      </g>
    </g>
  </g>
</svg>
