<?xml version="1.0" encoding="UTF-8" standalone="no"?>
<!-- Created with Inkscape (http://www.inkscape.org/) -->

<svg
   xmlns:dc="http://purl.org/dc/elements/1.1/"
   xmlns:cc="http://creativecommons.org/ns#"
   xmlns:rdf="http://www.w3.org/1999/02/22-rdf-syntax-ns#"
   xmlns:svg="http://www.w3.org/2000/svg"
   xmlns="http://www.w3.org/2000/svg"
   xmlns:sodipodi="http://sodipodi.sourceforge.net/DTD/sodipodi-0.dtd"
   xmlns:inkscape="http://www.inkscape.org/namespaces/inkscape"
   width="160.5"
   height="100.5"
   id="svg4780"
   version="1.1"
   inkscape:version="0.48.5 r10040"
   sodipodi:docname="New document 8">
  <defs
     id="defs4782">
    <marker
       inkscape:stockid="Arrow2Mstart"
       orient="auto"
       refY="0"
       refX="0"
       id="Arrow2Mstart"
       style="overflow:visible">
      <path
         id="path5452"
         style="fill-rule:evenodd;stroke-width:0.625;stroke-linejoin:round"
         d="M 8.7185878,4.0337352 -2.2072895,0.01601326 8.7185884,-4.0017078 c -1.7454984,2.3720609 -1.7354408,5.6174519 -6e-7,8.035443 z"
         transform="scale(0.6,0.6)"
         inkscape:connector-curvature="0" />
    </marker>
    <marker
       inkscape:stockid="Arrow2Mend"
       orient="auto"
       refY="0"
       refX="0"
       id="Arrow2Mend"
       style="overflow:visible">
      <path
         id="path5455"
         style="fill-rule:evenodd;stroke-width:0.625;stroke-linejoin:round"
         d="M 8.7185878,4.0337352 -2.2072895,0.01601326 8.7185884,-4.0017078 c -1.7454984,2.3720609 -1.7354408,5.6174519 -6e-7,8.035443 z"
         transform="scale(-0.6,-0.6)"
         inkscape:connector-curvature="0" />
    </marker>
  </defs>
  <sodipodi:namedview
     id="base"
     pagecolor="#ffffff"
     bordercolor="#666666"
     borderopacity="1.0"
     inkscape:pageopacity="0.0"
     inkscape:pageshadow="2"
     inkscape:zoom="3.959798"
     inkscape:cx="82.626199"
     inkscape:cy="44.194464"
     inkscape:document-units="px"
     inkscape:current-layer="layer1"
     showgrid="true"
     inkscape:snap-global="false"
     fit-margin-top="0"
     fit-margin-left="0"
     fit-margin-right="0"
     fit-margin-bottom="0"
     inkscape:window-width="759"
     inkscape:window-height="803"
     inkscape:window-x="769"
     inkscape:window-y="-8"
     inkscape:window-maximized="1">
    <inkscape:grid
       type="xygrid"
       id="grid4788"
       empspacing="5"
       visible="true"
       enabled="true"
       snapvisiblegridlinesonly="true"
       originx="-279.75px"
       originy="-804.75px" />
  </sodipodi:namedview>
  <metadata
     id="metadata4785">
    <rdf:RDF>
      <cc:Work
         rdf:about="">
        <dc:format>image/svg+xml</dc:format>
        <dc:type
           rdf:resource="http://purl.org/dc/dcmitype/StillImage" />
        <dc:title></dc:title>
      </cc:Work>
    </rdf:RDF>
  </metadata>
  <g
     inkscape:label="Layer 1"
     inkscape:groupmode="layer"
     id="layer1"
     transform="translate(-279.75,-147.11218)">
    <rect
       style="fill:none;stroke:#000080;stroke-width:0.5;stroke-miterlimit:4;stroke-opacity:1;stroke-dasharray:none;stroke-dashoffset:0"
       id="rect4790"
       width="160"
       height="100"
       x="280"
       y="147.36218"
       ry="10"
       rx="10" />
    <path
       sodipodi:type="arc"
       style="fill:#000080;stroke:#000080;stroke-width:0.7368421;stroke-miterlimit:4;stroke-opacity:1;stroke-dasharray:none;stroke-dashoffset:0"
       id="path4792"
       sodipodi:cx="300"
       sodipodi:cy="177.36218"
       sodipodi:rx="5"
       sodipodi:ry="5"
       d="m 305,177.36218 c 0,2.76143 -2.23858,5 -5,5 -2.76142,0 -5,-2.23857 -5,-5 0,-2.76142 2.23858,-5 5,-5 2.76142,0 5,2.23858 5,5 z"
       transform="matrix(0.67857143,0,0,0.67857143,91.249999,47.187843)" />
    <path
       sodipodi:type="arc"
       style="fill:#000080;stroke:#000080;stroke-width:0.7368421;stroke-miterlimit:4;stroke-opacity:1;stroke-dasharray:none;stroke-dashoffset:0"
       id="path4792-1"
       sodipodi:cx="300"
       sodipodi:cy="177.36218"
       sodipodi:rx="5"
       sodipodi:ry="5"
       d="m 305,177.36218 c 0,2.76143 -2.23858,5 -5,5 -2.76142,0 -5,-2.23857 -5,-5 0,-2.76142 2.23858,-5 5,-5 2.76142,0 5,2.23858 5,5 z"
       transform="matrix(0.67857143,0,0,0.67857143,131.29115,47.131823)" />
    <path
       style="fill:none;stroke:#000000;stroke-width:1px;stroke-linecap:butt;stroke-linejoin:miter;stroke-opacity:1;marker-start:url(#Arrow2Mstart);marker-end:url(#Arrow2Mend)"
       d="M 335.50508,172.10964 345,227.36218 l 36.21193,0"
       id="path4914"
       inkscape:connector-curvature="0"
       sodipodi:nodetypes="ccc" />
    <path
       sodipodi:type="arc"
       style="fill:#000080;stroke:#000080;stroke-width:0.7368421;stroke-miterlimit:4;stroke-opacity:1;stroke-dasharray:none;stroke-dashoffset:0"
       id="path4792-6"
       sodipodi:cx="300"
       sodipodi:cy="177.36218"
       sodipodi:rx="5"
       sodipodi:ry="5"
       d="m 305,177.36218 c 0,2.76143 -2.23858,5 -5,5 -2.76142,0 -5,-2.23857 -5,-5 0,-2.76142 2.23858,-5 5,-5 2.76142,0 5,2.23858 5,5 z"
       transform="matrix(0.67857143,0,0,0.67857143,171.41678,47.106442)" />
    <path
       sodipodi:type="arc"
       style="fill:#000080;stroke:#000080;stroke-width:0.7368421;stroke-miterlimit:4;stroke-opacity:1;stroke-dasharray:none;stroke-dashoffset:0"
       id="path4792-8"
       sodipodi:cx="300"
       sodipodi:cy="177.36218"
       sodipodi:rx="5"
       sodipodi:ry="5"
       d="m 305,177.36218 c 0,2.76143 -2.23858,5 -5,5 -2.76142,0 -5,-2.23857 -5,-5 0,-2.76142 2.23858,-5 5,-5 2.76142,0 5,2.23858 5,5 z"
       transform="matrix(0.67857143,0,0,0.67857143,211.72444,47.759452)" />
    <path
       sodipodi:type="arc"
       style="fill:#000080;stroke:#000080;stroke-width:0.7368421;stroke-miterlimit:4;stroke-opacity:1;stroke-dasharray:none;stroke-dashoffset:0"
       id="path4792-5"
       sodipodi:cx="300"
       sodipodi:cy="177.36218"
       sodipodi:rx="5"
       sodipodi:ry="5"
       d="m 305,177.36218 c 0,2.76143 -2.23858,5 -5,5 -2.76142,0 -5,-2.23857 -5,-5 0,-2.76142 2.23858,-5 5,-5 2.76142,0 5,2.23858 5,5 z"
       transform="matrix(0.67857143,0,0,0.67857143,101.65573,107.40231)" />
    <path
       sodipodi:type="arc"
       style="fill:#000080;stroke:#000080;stroke-width:0.7368421;stroke-miterlimit:4;stroke-opacity:1;stroke-dasharray:none;stroke-dashoffset:0"
       id="path4792-7"
       sodipodi:cx="300"
       sodipodi:cy="177.36218"
       sodipodi:rx="5"
       sodipodi:ry="5"
       d="m 305,177.36218 c 0,2.76143 -2.23858,5 -5,5 -2.76142,0 -5,-2.23857 -5,-5 0,-2.76142 2.23858,-5 5,-5 2.76142,0 5,2.23858 5,5 z"
       transform="matrix(0.67857143,0,0,0.67857143,141.50779,107.48154)" />
    <path
       sodipodi:type="arc"
       style="fill:#000080;stroke:#000080;stroke-width:0.7368421;stroke-miterlimit:4;stroke-opacity:1;stroke-dasharray:none;stroke-dashoffset:0"
       id="path4792-61"
       sodipodi:cx="300"
       sodipodi:cy="177.36218"
       sodipodi:rx="5"
       sodipodi:ry="5"
       d="m 305,177.36218 c 0,2.76143 -2.23858,5 -5,5 -2.76142,0 -5,-2.23857 -5,-5 0,-2.76142 2.23858,-5 5,-5 2.76142,0 5,2.23858 5,5 z"
       transform="matrix(0.67857143,0,0,0.67857143,182.05928,106.87929)" />
    <path
       sodipodi:type="arc"
       style="fill:#000080;stroke:#000080;stroke-width:0.7368421;stroke-miterlimit:4;stroke-opacity:1;stroke-dasharray:none;stroke-dashoffset:0"
       id="path4792-89"
       sodipodi:cx="300"
       sodipodi:cy="177.36218"
       sodipodi:rx="5"
       sodipodi:ry="5"
       d="m 305,177.36218 c 0,2.76143 -2.23858,5 -5,5 -2.76142,0 -5,-2.23857 -5,-5 0,-2.76142 2.23858,-5 5,-5 2.76142,0 5,2.23858 5,5 z"
       transform="matrix(0.67857143,0,0,0.67857143,221.6347,107.02722)" />
    <text
       xml:space="preserve"
       style="font-size:8px;font-style:normal;font-variant:normal;font-weight:normal;font-stretch:normal;text-align:start;line-height:125%;letter-spacing:0px;word-spacing:0px;writing-mode:lr-tb;text-anchor:start;fill:#000000;fill-opacity:1;stroke:none;font-family:Times New Roman;-inkscape-font-specification:'Times New Roman,'"
       x="329.30975"
       y="205.60181"
       id="text6054"
       sodipodi:linespacing="125%"><tspan
         sodipodi:role="line"
         id="tspan6056"
         x="329.30975"
         y="205.60181">b</tspan></text>
    <text
       xml:space="preserve"
       style="font-size:8px;font-style:normal;font-variant:normal;font-weight:normal;font-stretch:normal;text-align:start;line-height:125%;letter-spacing:0px;word-spacing:0px;writing-mode:lr-tb;text-anchor:start;fill:#000000;fill-opacity:1;stroke:none;font-family:Times New Roman;-inkscape-font-specification:'Times New Roman,'"
       x="361.12952"
       y="237.67416"
       id="text6058"
       sodipodi:linespacing="125%"><tspan
         sodipodi:role="line"
         id="tspan6060"
         x="361.12952"
         y="237.67416">a</tspan></text>
  </g>
</svg>
