<?xml version="1.0" encoding="UTF-8" standalone="no"?>
<!-- Created with Inkscape (http://www.inkscape.org/) -->

<svg
   xmlns:ns1="http://wanglongqi.github.io/WriteTeX"
   xmlns:dc="http://purl.org/dc/elements/1.1/"
   xmlns:cc="http://creativecommons.org/ns#"
   xmlns:rdf="http://www.w3.org/1999/02/22-rdf-syntax-ns#"
   xmlns:svg="http://www.w3.org/2000/svg"
   xmlns="http://www.w3.org/2000/svg"
   xmlns:sodipodi="http://sodipodi.sourceforge.net/DTD/sodipodi-0.dtd"
   xmlns:inkscape="http://www.inkscape.org/namespaces/inkscape"
   width="228.28629"
   height="128.46652"
   id="svg7132"
   version="1.1"
   inkscape:version="0.48.5 r10040"
   sodipodi:docname="New document 21">
  <sodipodi:namedview
     id="base"
     pagecolor="#ffffff"
     bordercolor="#666666"
     borderopacity="1.0"
     inkscape:pageopacity="0.0"
     inkscape:pageshadow="2"
     inkscape:zoom="1.979899"
     inkscape:cx="128.87617"
     inkscape:cy="60.289927"
     inkscape:document-units="px"
     inkscape:current-layer="layer1"
     showgrid="true"
     inkscape:snap-global="false"
     inkscape:window-width="759"
     inkscape:window-height="803"
     inkscape:window-x="769"
     inkscape:window-y="-8"
     inkscape:window-maximized="1"
     fit-margin-top="0"
     fit-margin-left="0"
     fit-margin-right="0"
     fit-margin-bottom="0">
    <inkscape:grid
       type="xygrid"
       id="grid7140"
       empspacing="5"
       visible="true"
       enabled="true"
       snapvisiblegridlinesonly="true"
       originx="-494.14286px"
       originy="-587.03348px" />
  </sodipodi:namedview>
  <defs
     id="defs7134">
    <marker
       inkscape:stockid="Arrow2Mend"
       orient="auto"
       refY="0"
       refX="0"
       id="Arrow2Mend"
       style="overflow:visible">
      <path
         id="path4692"
         style="fill-rule:evenodd;stroke-width:0.625;stroke-linejoin:round"
         d="M 8.7185878,4.0337352 -2.2072895,0.01601326 8.7185884,-4.0017078 c -1.7454984,2.3720609 -1.7354408,5.6174519 -6e-7,8.035443 z"
         transform="scale(-0.6,-0.6)"
         inkscape:connector-curvature="0" />
    </marker>
    <marker
       inkscape:stockid="Arrow2Lend"
       orient="auto"
       refY="0"
       refX="0"
       id="Arrow2Lend"
       style="overflow:visible">
      <path
         id="path4686"
         style="fill-rule:evenodd;stroke-width:0.625;stroke-linejoin:round"
         d="M 8.7185878,4.0337352 -2.2072895,0.01601326 8.7185884,-4.0017078 c -1.7454984,2.3720609 -1.7354408,5.6174519 -6e-7,8.035443 z"
         transform="matrix(-1.1,0,0,-1.1,-1.1,0)"
         inkscape:connector-curvature="0" />
    </marker>
    <marker
       inkscape:stockid="Arrow2MendA"
       orient="auto"
       refY="0"
       refX="0"
       id="Arrow2MendA"
       style="overflow:visible">
      <path
         id="path8413"
         style="fill:#65b2de;fill-rule:evenodd;stroke:#65b2de;stroke-width:0.625;stroke-linejoin:round"
         d="M 8.7185878,4.0337352 -2.2072895,0.01601326 8.7185884,-4.0017078 c -1.7454984,2.3720609 -1.7354408,5.6174519 -6e-7,8.035443 z"
         transform="scale(-0.6,-0.6)"
         inkscape:connector-curvature="0" />
    </marker>
    <marker
       inkscape:stockid="Arrow2Mendg"
       orient="auto"
       refY="0"
       refX="0"
       id="Arrow2Mendg"
       style="overflow:visible">
      <path
         id="path8416"
         style="fill:#65b2de;fill-rule:evenodd;stroke:#65b2de;stroke-width:0.625;stroke-linejoin:round"
         d="M 8.7185878,4.0337352 -2.2072895,0.01601326 8.7185884,-4.0017078 c -1.7454984,2.3720609 -1.7354408,5.6174519 -6e-7,8.035443 z"
         transform="scale(-0.6,-0.6)"
         inkscape:connector-curvature="0" />
    </marker>
    <marker
       inkscape:stockid="Arrow2Mendh"
       orient="auto"
       refY="0"
       refX="0"
       id="Arrow2Mendh"
       style="overflow:visible">
      <path
         id="path8419"
         style="fill:#65b2de;fill-rule:evenodd;stroke:#65b2de;stroke-width:0.625;stroke-linejoin:round"
         d="M 8.7185878,4.0337352 -2.2072895,0.01601326 8.7185884,-4.0017078 c -1.7454984,2.3720609 -1.7354408,5.6174519 -6e-7,8.035443 z"
         transform="scale(-0.6,-0.6)"
         inkscape:connector-curvature="0" />
    </marker>
    <marker
       inkscape:stockid="Arrow2MendF"
       orient="auto"
       refY="0"
       refX="0"
       id="Arrow2MendF"
       style="overflow:visible">
      <path
         id="path8422"
         style="fill:#65b2de;fill-rule:evenodd;stroke:#65b2de;stroke-width:0.625;stroke-linejoin:round"
         d="M 8.7185878,4.0337352 -2.2072895,0.01601326 8.7185884,-4.0017078 c -1.7454984,2.3720609 -1.7354408,5.6174519 -6e-7,8.035443 z"
         transform="scale(-0.6,-0.6)"
         inkscape:connector-curvature="0" />
    </marker>
    <marker
       inkscape:stockid="Arrow2MendO"
       orient="auto"
       refY="0"
       refX="0"
       id="Arrow2MendO"
       style="overflow:visible">
      <path
         id="path9519"
         style="fill:#ff0000;fill-rule:evenodd;stroke:#ff0000;stroke-width:0.625;stroke-linejoin:round"
         d="M 8.7185878,4.0337352 -2.2072895,0.01601326 8.7185884,-4.0017078 c -1.7454984,2.3720609 -1.7354408,5.6174519 -6e-7,8.035443 z"
         transform="scale(-0.6,-0.6)"
         inkscape:connector-curvature="0" />
    </marker>
  </defs>
  <metadata
     id="metadata7137">
    <rdf:RDF>
      <cc:Work
         rdf:about="">
        <dc:format>image/svg+xml</dc:format>
        <dc:type
           rdf:resource="http://purl.org/dc/dcmitype/StillImage" />
        <dc:title></dc:title>
      </cc:Work>
    </rdf:RDF>
  </metadata>
  <g
     inkscape:label="Layer 1"
     inkscape:groupmode="layer"
     id="layer1"
     transform="translate(-494.14286,-336.86218)">
    <path
       sodipodi:type="arc"
       style="fill:none;stroke:#0000ff;stroke-width:1;stroke-miterlimit:4;stroke-opacity:1;stroke-dasharray:none;stroke-dashoffset:0"
       id="path7142"
       sodipodi:cx="557.5"
       sodipodi:cy="399.86218"
       sodipodi:rx="62.5"
       sodipodi:ry="62.5"
       d="m 620,399.86218 c 0,34.5178 -27.9822,62.5 -62.5,62.5 -34.5178,0 -62.5,-27.9822 -62.5,-62.5 0,-34.51779 27.9822,-62.5 62.5,-62.5 34.5178,0 62.5,27.98221 62.5,62.5 z" />
    <path
       sodipodi:type="arc"
       style="fill:none;stroke:#0000ff;stroke-width:1;stroke-miterlimit:4;stroke-opacity:1;stroke-dasharray:none;stroke-dashoffset:0"
       id="path7144"
       sodipodi:cx="557.5"
       sodipodi:cy="407.36218"
       sodipodi:rx="62.5"
       sodipodi:ry="15"
       d="m 620,407.36218 c 0,8.28427 -27.9822,15 -62.5,15 -34.5178,0 -62.5,-6.71573 -62.5,-15 0,-8.28427 27.9822,-15 62.5,-15 34.5178,0 62.5,6.71573 62.5,15 z"
       transform="translate(0,-7.5)" />
    <path
       style="fill:#37abc8;stroke:#65b2de;stroke-width:1px;stroke-linecap:butt;stroke-linejoin:miter;stroke-opacity:1;marker-end:url(#Arrow2Mendh)"
       d="m 494.64286,399.86218 125,0"
       id="path7146"
       inkscape:connector-curvature="0" />
    <path
       style="fill:#37abc8;stroke:#65b2de;stroke-width:1px;stroke-linecap:butt;stroke-linejoin:miter;stroke-opacity:1;marker-end:url(#Arrow2MendF)"
       d="m 555.35714,399.50504 43.92858,-19.64286"
       id="path7148"
       inkscape:connector-curvature="0"
       sodipodi:nodetypes="cc" />
    <path
       style="fill:#37abc8;stroke:#65b2de;stroke-width:1px;stroke-linecap:butt;stroke-linejoin:miter;stroke-opacity:1;marker-end:url(#Arrow2Mendg)"
       d="M 619.64286,399.50504 600.35715,380.21933"
       id="path7150"
       inkscape:connector-curvature="0"
       sodipodi:nodetypes="cc" />
    <path
       style="fill:#37abc8;stroke:#65b2de;stroke-width:1px;stroke-linecap:butt;stroke-linejoin:miter;stroke-opacity:1;marker-end:url(#Arrow2MendA)"
       d="m 620,399.50504 22.14286,-22.14286"
       id="path7152"
       inkscape:connector-curvature="0"
       sodipodi:nodetypes="cc" />
    <path
       sodipodi:type="arc"
       style="fill:none;stroke:#008000;stroke-width:1;stroke-miterlimit:4;stroke-opacity:1;stroke-dasharray:none;stroke-dashoffset:0"
       id="path7154"
       sodipodi:cx="627.67859"
       sodipodi:cy="403.61218"
       sodipodi:rx="31.964285"
       sodipodi:ry="34.464287"
       d="m 659.64287,403.61218 c 0,19.0341 -14.31089,34.46429 -31.96428,34.46429 -17.65339,0 -31.96429,-15.43019 -31.96429,-34.46429 0,-19.0341 14.3109,-34.46428 31.96429,-34.46428 17.65339,0 31.96428,15.43018 31.96428,34.46428 z"
       transform="translate(-10,-5.7142857)" />
    <path
       sodipodi:type="arc"
       style="fill:none;stroke:#008000;stroke-width:1;stroke-miterlimit:4;stroke-opacity:1;stroke-dasharray:none;stroke-dashoffset:0"
       id="path7156"
       sodipodi:cx="617.5"
       sodipodi:cy="408.96933"
       sodipodi:rx="32.142857"
       sodipodi:ry="10.178572"
       d="m 649.64286,408.96933 c 0,5.62147 -14.39085,10.17857 -32.14286,10.17857 -17.75201,0 -32.14286,-4.5571 -32.14286,-10.17857 0,-5.62147 14.39085,-10.17857 32.14286,-10.17857 17.75201,0 32.14286,4.5571 32.14286,10.17857 z"
       transform="translate(0,-8.5714286)" />
    <path
       sodipodi:type="arc"
       style="fill:none;stroke:#ff0000;stroke-width:1;stroke-miterlimit:4;stroke-opacity:1;stroke-dasharray:3, 3;stroke-dashoffset:0"
       id="path7158"
       sodipodi:cx="609.64288"
       sodipodi:cy="401.64789"
       sodipodi:rx="7.1428571"
       sodipodi:ry="31.785713"
       d="m 616.78574,401.64789 c 0,17.55476 -3.19797,31.78571 -7.14286,31.78571 -3.94489,0 -7.14285,-14.23095 -7.14285,-31.78571 0,-17.55477 3.19796,-31.78572 7.14285,-31.78572 3.94489,0 7.14286,14.23095 7.14286,31.78572 z"
       transform="translate(-3.9285715,-3.9285715)" />
    <path
       sodipodi:nodetypes="csc"
       inkscape:connector-curvature="0"
       id="path8462"
       d="m 559.28572,433.79075 c 0,0 16.06446,0.50905 18.92857,-3.21428 3.57143,-4.64286 3.92857,-28.92857 3.92857,-28.92857"
       style="fill:none;stroke:#000000;stroke-width:1px;stroke-linecap:butt;stroke-linejoin:miter;stroke-opacity:1;marker-end:url(#Arrow2Mend)" />
    <path
       sodipodi:nodetypes="csc"
       inkscape:connector-curvature="0"
       id="path8464"
       d="m 556.42857,362.00504 c 0,0 18.21429,-1.78571 20.35715,3.57143 2.92108,7.3027 2.85714,19.64285 2.85714,19.64285"
       style="fill:none;stroke:#000000;stroke-width:1px;stroke-linecap:butt;stroke-linejoin:miter;stroke-opacity:1;marker-end:url(#Arrow2Mend)" />
    <text
       sodipodi:linespacing="125%"
       id="text8850"
       y="404.50504"
       x="624.28571"
       style="font-size:8px;font-style:normal;font-variant:normal;font-weight:normal;font-stretch:normal;text-align:start;line-height:125%;letter-spacing:0px;word-spacing:0px;writing-mode:lr-tb;text-anchor:start;fill:#000000;fill-opacity:1;stroke:none;font-family:Times New Roman;-inkscape-font-specification:'Times New Roman,'"
       xml:space="preserve"><tspan
         style="font-size:12px"
         y="404.50504"
         x="624.28571"
         id="tspan8852"
         sodipodi:role="line">000</tspan></text>
    <g
       ns1:text="$$\\bar{s} \\over \\lambda$$"
       transform="translate(-46.016646,251.67667)"
       id="g8971">
      <g
         id="surface1">
        <g
           style="fill:#000000;fill-opacity:1"
           id="g8974">
          <path
             inkscape:connector-curvature="0"
             style="stroke:none"
             d="m 4.453125,-5.734375 0,-0.46875 -3.9375,0 0,0.625 3.9375,0 z m 0,0"
             transform="translate(593.34,106.68)"
             id="path8976" />
        </g>
        <g
           style="fill:#000000;fill-opacity:1"
           id="g8978">
          <path
             inkscape:connector-curvature="0"
             style="stroke:none"
             d="m 3.890625,-4.0625 c -0.265625,0.015625 -0.65625,0.40625 -0.65625,0.625 0,0.140625 0.28125,0.453125 0.5,0.453125 0.21875,0 0.625,-0.328125 0.625,-0.71875 0,-0.453125 -0.59375,-1.03125 -1.359375,-1.03125 -1.3125,0 -1.859375,1.1875 -1.859375,1.625 0,0.78125 0.90625,1.078125 1.203125,1.140625 0.515625,0.109375 0.859375,0.0625 0.859375,0.609375 0,0.25 -0.046875,0.921875 -1.25,0.921875 -0.140625,0 -0.734375,0.171875 -0.875,-0.15625 0.125,0 0.53125,-0.453125 0.53125,-0.734375 0,-0.234375 -0.328125,-0.515625 -0.53125,-0.515625 -0.265625,0 -0.734375,0.375 -0.734375,0.828125 0,0.5625 0.75,1.125 1.59375,1.125 1.625,0 2.171875,-1.359375 2.171875,-1.8125 0,-0.359375 -0.234375,-0.734375 -0.34375,-0.84375 -0.28125,-0.28125 -0.6875,-0.390625 -1.125,-0.46875 C 2.28125,-3.09375 2.046875,-3 2.046875,-3.453125 2.046875,-3.734375 2.125,-4.1875 3,-4.1875 c 0.25,0 0.5625,-0.09375 0.65625,0.140625 z m 0,0"
             transform="translate(592.94,106.68)"
             id="path8980" />
        </g>
        <path
           inkscape:connector-curvature="0"
           style="fill:none;stroke:#000000;stroke-width:0.398;stroke-linecap:butt;stroke-linejoin:miter;stroke-miterlimit:10;stroke-opacity:1"
           d="m 520.37109,-38.929688 5.8086,0"
           transform="matrix(1,0,0,-1,72,72)"
           id="path8982" />
        <g
           style="fill:#000000;fill-opacity:1"
           id="g8984">
          <path
             inkscape:connector-curvature="0"
             style="stroke:none"
             d="m 3.375,-3.078125 c 0.40625,1.046875 0.9375,2.6875 1.09375,2.921875 0.171875,0.21875 0.390625,0.265625 0.671875,0.265625 l 0.21875,0 C 5.453125,0.09375 5.625,-0.125 5.625,-0.15625 5.625,-0.171875 5.5625,-0.3125 5.53125,-0.359375 5.4375,-0.46875 5.421875,-0.5 5.359375,-0.703125 L 3.3125,-6.375 C 3.109375,-6.953125 2.40625,-7.25 1.9375,-7.25 c -0.046875,0 -0.359375,0.171875 -0.359375,0.28125 0,0.078125 0.25,0.265625 0.265625,0.265625 C 2.171875,-6.65625 2.0625,-6.75 2.3125,-6.078125 L 3.265625,-3.40625 0.578125,-0.75 c -0.125,0.125 -0.234375,0.296875 -0.234375,0.4375 0,0.15625 0.328125,0.4375 0.484375,0.4375 0.15625,0 0.375,-0.15625 0.453125,-0.25 l 2.234375,-2.640625 z m 0,0"
             transform="translate(592.37,120.26)"
             id="path8986" />
        </g>
      </g>
    </g>
    <g
       id="g9108"
       transform="translate(-44.561103,325.50267)"
       ns1:text="$$s_o \\over \\lambda$$">
      <g
         id="g9110">
        <g
           id="g9112"
           style="fill:#000000;fill-opacity:1">
          <path
             id="path9114"
             transform="translate(590.73,105.32)"
             d="m 3.890625,-4.0625 c -0.265625,0.015625 -0.65625,0.40625 -0.65625,0.625 0,0.140625 0.28125,0.453125 0.5,0.453125 0.21875,0 0.625,-0.328125 0.625,-0.71875 0,-0.453125 -0.59375,-1.03125 -1.359375,-1.03125 -1.3125,0 -1.859375,1.1875 -1.859375,1.625 0,0.78125 0.90625,1.078125 1.203125,1.140625 0.515625,0.109375 0.859375,0.0625 0.859375,0.609375 0,0.25 -0.046875,0.921875 -1.25,0.921875 -0.140625,0 -0.734375,0.171875 -0.875,-0.15625 0.125,0 0.53125,-0.453125 0.53125,-0.734375 0,-0.234375 -0.328125,-0.515625 -0.53125,-0.515625 -0.265625,0 -0.734375,0.375 -0.734375,0.828125 0,0.5625 0.75,1.125 1.59375,1.125 1.625,0 2.171875,-1.359375 2.171875,-1.8125 0,-0.359375 -0.234375,-0.734375 -0.34375,-0.84375 -0.28125,-0.28125 -0.6875,-0.390625 -1.125,-0.46875 C 2.28125,-3.09375 2.046875,-3 2.046875,-3.453125 2.046875,-3.734375 2.125,-4.1875 3,-4.1875 c 0.25,0 0.5625,-0.09375 0.65625,0.140625 z m 0,0"
             style="stroke:none"
             inkscape:connector-curvature="0" />
        </g>
        <g
           id="g9116"
           style="fill:#000000;fill-opacity:1">
          <path
             id="path9118"
             transform="translate(595.4,106.81)"
             d="m 3.890625,-2.046875 c 0,-0.78125 -0.765625,-1.421875 -1.453125,-1.421875 -1.03125,0 -2.203125,1.171875 -2.203125,2.125 0,0.703125 0.703125,1.40625 1.46875,1.40625 1,0 2.1875,-1.109375 2.1875,-2.109375 z m -2.1875,1.53125 c -0.34375,0 -0.5,-0.03125 -0.5,-0.578125 0,-0.28125 0.078125,-0.828125 0.34375,-1.234375 C 1.84375,-2.75 2.125,-2.875 2.4375,-2.875 c 0.375,0 0.5,0.0625 0.5,0.578125 0,0.171875 -0.03125,0.71875 -0.34375,1.203125 -0.265625,0.421875 -0.53125,0.578125 -0.890625,0.578125 z m 0,0"
             style="stroke:none"
             inkscape:connector-curvature="0" />
        </g>
        <path
           id="path9120"
           transform="matrix(1,0,0,-1,72,72)"
           d="m 518.73047,-37.570313 9.09765,0"
           style="fill:none;stroke:#000000;stroke-width:0.398;stroke-linecap:butt;stroke-linejoin:miter;stroke-miterlimit:10;stroke-opacity:1"
           inkscape:connector-curvature="0" />
        <g
           id="g9122"
           style="fill:#000000;fill-opacity:1">
          <path
             id="path9124"
             transform="translate(592.37,118.89)"
             d="m 3.375,-3.078125 c 0.40625,1.046875 0.9375,2.6875 1.09375,2.921875 0.171875,0.21875 0.390625,0.265625 0.671875,0.265625 l 0.21875,0 C 5.453125,0.09375 5.625,-0.125 5.625,-0.15625 5.625,-0.171875 5.5625,-0.3125 5.53125,-0.359375 5.4375,-0.46875 5.421875,-0.5 5.359375,-0.703125 L 3.3125,-6.375 C 3.109375,-6.953125 2.40625,-7.25 1.9375,-7.25 c -0.046875,0 -0.359375,0.171875 -0.359375,0.28125 0,0.078125 0.25,0.265625 0.265625,0.265625 C 2.171875,-6.65625 2.0625,-6.75 2.3125,-6.078125 L 3.265625,-3.40625 0.578125,-0.75 c -0.125,0.125 -0.234375,0.296875 -0.234375,0.4375 0,0.15625 0.328125,0.4375 0.484375,0.4375 0.15625,0 0.375,-0.15625 0.453125,-0.25 l 2.234375,-2.640625 z m 0,0"
             style="stroke:none"
             inkscape:connector-curvature="0" />
        </g>
      </g>
    </g>
    <g
       ns1:text="$$r^\\ast_{hkl}$$"
       transform="translate(62.917027,343.50699)"
       id="g9222">
      <g
         id="g9224">
        <g
           style="fill:#000000;fill-opacity:1"
           id="g9226">
          <path
             inkscape:connector-curvature="0"
             style="stroke:none"
             d="m 0.703125,-0.75 c -0.03125,0.15625 -0.09375,0.375 -0.09375,0.4375 0,0.171875 0.3125,0.421875 0.46875,0.421875 0.125,0 0.46875,-0.234375 0.515625,-0.40625 -0.015625,0.03125 0.375,-1.421875 0.421875,-1.609375 0.078125,-0.328125 0.25,-1.03125 0.3125,-1.296875 0.046875,-0.125 0.28125,-0.484375 0.515625,-0.703125 0.078125,-0.078125 0.25,-0.28125 0.671875,-0.28125 0.265625,0 0.40625,0.125 0.421875,0.125 l 0,-0.328125 c -0.296875,0.046875 -0.703125,0.453125 -0.703125,0.71875 0,0.15625 0.296875,0.5 0.5625,0.5 0.265625,0 0.71875,-0.390625 0.71875,-0.75 0,-0.34375 -0.484375,-0.8125 -1,-0.8125 -0.640625,0 -1.21875,0.53125 -1.40625,0.8125 l 0.296875,0.125 C 2.328125,-4.25 1.796875,-4.734375 1.328125,-4.734375 c -0.453125,0 -0.765625,0.4375 -0.859375,0.625 -0.171875,0.328125 -0.359375,1.046875 -0.359375,1.078125 0,0.09375 0.28125,0.265625 0.296875,0.265625 0.109375,0 0.28125,-0.171875 0.34375,-0.390625 0.171875,-0.71875 0.203125,-1.03125 0.5625,-1.03125 0.15625,0 0.125,-0.078125 0.125,0.296875 0,0.21875 -0.03125,0.328125 -0.15625,0.84375 z m 0,0"
             transform="translate(586.97,110.99)"
             id="path9228" />
        </g>
        <g
           style="fill:#000000;fill-opacity:1"
           id="g9230">
          <path
             inkscape:connector-curvature="0"
             style="stroke:none"
             d="m 2.25,-1.734375 c 0.578125,-0.25 0.828125,-0.34375 1,-0.4375 0.140625,-0.046875 0.390625,-0.234375 0.390625,-0.375 0,-0.109375 -0.28125,-0.390625 -0.40625,-0.390625 -0.046875,0 -0.203125,0.046875 -0.28125,0.109375 L 2.375,-2.4375 2.4375,-3.09375 C 2.453125,-3.21875 2.25,-3.5625 2.03125,-3.5625 c -0.078125,0 -0.421875,0.21875 -0.421875,0.375 0,0.0625 0.03125,0.265625 0.046875,0.34375 0.015625,0.109375 0.0625,0.609375 0.03125,0.40625 L 1.125,-2.828125 C 1.0625,-2.859375 0.90625,-2.9375 0.84375,-2.9375 c -0.140625,0 -0.421875,0.28125 -0.421875,0.390625 0,0.140625 0.28125,0.34375 0.34375,0.359375 l 0.65625,0.28125 C 1.25,-1.8125 0.984375,-1.71875 0.8125,-1.640625 c -0.125,0.0625 -0.390625,0.25 -0.390625,0.390625 0,0.109375 0.28125,0.375 0.421875,0.375 0.046875,0 0.1875,-0.046875 0.28125,-0.109375 l 0.5625,-0.375 -0.078125,0.75 c 0,0.15625 0.34375,0.375 0.421875,0.375 0.09375,0 0.421875,-0.21875 0.421875,-0.375 0,-0.0625 -0.03125,-0.265625 -0.046875,-0.34375 C 2.390625,-1.0625 2.34375,-1.5625 2.375,-1.359375 L 2.84375,-1.0625 c 0.171875,0.140625 0.328125,0.1875 0.390625,0.1875 0.125,0 0.40625,-0.265625 0.40625,-0.375 0,-0.140625 -0.28125,-0.34375 -0.34375,-0.375 l -0.65625,-0.28125 z m 0,0"
             transform="translate(591.74,106.88)"
             id="path9232" />
        </g>
        <g
           style="fill:#000000;fill-opacity:1"
           id="g9234">
          <path
             inkscape:connector-curvature="0"
             style="stroke:none"
             d="m 2.3125,-4.6875 c 0.015625,-0.015625 0.078125,-0.234375 0.078125,-0.25 0,-0.03125 -0.203125,-0.28125 -0.296875,-0.28125 -0.140625,0 -0.71875,0.046875 -0.890625,0.0625 -0.046875,0 -0.34375,0.203125 -0.34375,0.359375 0,0.09375 0.296875,0.28125 0.375,0.28125 0.328125,0 0.140625,-0.140625 0.140625,-0.078125 0,0.046875 -0.015625,0.078125 -0.03125,0.140625 L 0.359375,-0.5 c -0.03125,0.125 -0.03125,0.140625 -0.03125,0.15625 0,0.09375 0.28125,0.40625 0.4375,0.40625 0.078125,0 0.328125,-0.078125 0.40625,-0.234375 C 1.203125,-0.203125 1.3125,-0.59375 1.359375,-0.75 l 0.15625,-0.609375 C 1.53125,-1.46875 1.609375,-1.734375 1.625,-1.84375 1.6875,-2.109375 1.640625,-1.96875 1.78125,-2.1875 2,-2.53125 2.21875,-2.875 2.765625,-2.875 c 0.390625,0 0.203125,0.125 0.203125,0.296875 0,0.40625 -0.296875,1.1875 -0.40625,1.484375 -0.078125,0.1875 -0.109375,0.25 -0.109375,0.375 0,0.359375 0.515625,0.78125 0.859375,0.78125 0.703125,0 1.203125,-1.15625 1.203125,-1.25 0,-0.09375 -0.28125,-0.296875 -0.3125,-0.296875 -0.09375,0 -0.296875,0.25 -0.328125,0.328125 -0.15625,0.546875 -0.265625,0.640625 -0.53125,0.640625 -0.15625,0 0.015625,0.09375 0.015625,-0.046875 0,-0.15625 0.03125,-0.25 0.15625,-0.5625 C 3.59375,-1.34375 3.875,-2.078125 3.875,-2.46875 c 0,-0.109375 -0.046875,-0.546875 -0.3125,-0.75 -0.109375,-0.078125 -0.453125,-0.25 -0.78125,-0.25 -0.5,0 -1.015625,0.34375 -1.265625,0.640625 L 1.84375,-2.6875 2.359375,-4.78125 z m 0,0"
             transform="translate(591.46,113.45)"
             id="path9236" />
          <path
             inkscape:connector-curvature="0"
             style="stroke:none"
             d="m 2.3125,-4.6875 c 0.015625,-0.015625 0.078125,-0.234375 0.078125,-0.25 0,-0.03125 -0.203125,-0.28125 -0.296875,-0.28125 -0.140625,0 -0.71875,0.046875 -0.890625,0.0625 -0.046875,0 -0.34375,0.203125 -0.34375,0.359375 0,0.09375 0.296875,0.28125 0.375,0.28125 0.328125,0 0.140625,-0.140625 0.140625,-0.078125 0,0.046875 -0.015625,0.078125 -0.03125,0.140625 L 0.359375,-0.5 c -0.03125,0.125 -0.03125,0.140625 -0.03125,0.15625 0,0.09375 0.28125,0.40625 0.4375,0.40625 0.1875,0 0.453125,-0.328125 0.484375,-0.421875 -0.03125,0.046875 0.328125,-1.3125 0.296875,-1.203125 0.375,0.03125 0.578125,0 0.578125,0.359375 0,0.046875 0,0.078125 -0.015625,0.140625 -0.03125,0.109375 -0.03125,0.140625 -0.03125,0.21875 0,0.5 0.59375,0.90625 0.9375,0.90625 0.671875,0 1.0625,-1.25 1.0625,-1.25 0,-0.09375 -0.265625,-0.296875 -0.296875,-0.296875 -0.09375,0 -0.296875,0.234375 -0.328125,0.375 -0.09375,0.296875 -0.078125,0.59375 -0.421875,0.59375 -0.1875,0 -0.0625,0.015625 -0.0625,-0.171875 0,-0.109375 0,-0.125 0.046875,-0.3125 0.015625,-0.015625 0.03125,-0.140625 0.03125,-0.21875 0,-0.609375 -1.015625,-0.90625 -1.3125,-0.921875 L 1.875,-1.8125 c 0.1875,-0.125 0.453125,-0.359375 0.578125,-0.453125 0.34375,-0.34375 0.5625,-0.609375 0.953125,-0.609375 0.078125,0 0.03125,-0.03125 -0.125,-0.234375 0.0625,-0.015625 -0.203125,0.40625 -0.203125,0.515625 0,0.15625 0.3125,0.453125 0.46875,0.453125 0.203125,0 0.59375,-0.34375 0.59375,-0.640625 0,-0.234375 -0.359375,-0.6875 -0.71875,-0.6875 -0.40625,0 -0.90625,0.359375 -1.265625,0.6875 -0.28125,0.265625 -0.375,0.421875 -0.40625,0.4375 l 0.609375,-2.4375 z m 0,0"
             transform="translate(596.12421,113.45)"
             id="path9238" />
        </g>
        <g
           style="fill:#000000;fill-opacity:1"
           id="g9240">
          <path
             inkscape:connector-curvature="0"
             style="stroke:none"
             d="m 2.09375,-4.6875 c 0.015625,-0.015625 0.09375,-0.234375 0.09375,-0.25 0,-0.03125 -0.21875,-0.28125 -0.3125,-0.28125 -0.140625,0 -0.71875,0.046875 -0.890625,0.0625 -0.046875,0 -0.34375,0.203125 -0.34375,0.359375 0,0.09375 0.296875,0.28125 0.375,0.28125 0.34375,0 0.140625,-0.140625 0.140625,-0.078125 0,0.046875 -0.015625,0.078125 -0.03125,0.140625 L 0.265625,-1 c -0.015625,0.0625 -0.03125,0.140625 -0.03125,0.21875 0,0.4375 0.59375,0.84375 0.921875,0.84375 0.171875,0 0.515625,-0.109375 0.703125,-0.421875 C 2,-0.609375 2.15625,-1.15625 2.15625,-1.1875 c 0,-0.09375 -0.28125,-0.296875 -0.296875,-0.296875 -0.109375,0 -0.3125,0.25 -0.34375,0.375 -0.09375,0.34375 -0.03125,0.59375 -0.328125,0.59375 C 1,-0.515625 1.140625,-0.5 1.140625,-0.65625 1.140625,-0.734375 1.15625,-0.875 1.1875,-0.953125 L 2.140625,-4.78125 z m 0,0"
             transform="translate(600.5269,113.45)"
             id="path9242" />
        </g>
      </g>
    </g>
    <text
       sodipodi:linespacing="125%"
       id="text9302"
       y="455.21933"
       x="615.71429"
       style="font-size:8px;font-style:normal;font-variant:normal;font-weight:normal;font-stretch:normal;text-align:start;line-height:125%;letter-spacing:0px;word-spacing:0px;writing-mode:lr-tb;text-anchor:start;fill:#000000;fill-opacity:1;stroke:none;font-family:Times New Roman;-inkscape-font-specification:'Times New Roman,'"
       xml:space="preserve"><tspan
         y="455.21933"
         x="615.71429"
         id="tspan9304"
         sodipodi:role="line">Locus of             points satisfying</tspan><tspan
         id="tspan9306"
         y="465.21933"
         x="615.71429"
         sodipodi:role="line">Laue condition</tspan></text>
    <path
       sodipodi:nodetypes="csc"
       inkscape:connector-curvature="0"
       id="path9308"
       d="m 614.64286,453.43361 c 0,0 0.72311,-14.80578 -6.07143,-15 -7.21484,-0.20623 -7.85714,-18.92857 -7.85714,-18.92857"
       style="fill:none;stroke:#ff0000;stroke-width:1px;stroke-linecap:butt;stroke-linejoin:miter;stroke-opacity:1;marker-end:url(#Arrow2MendO)" />
  </g>
</svg>
